# construction_1602_assumed_A_Casa
# source A_Casa
# h_campo 0.000000
# modeled_height 6.000000
# height_kind assumed
# local_origin_world_x 172001.034850
# local_origin_world_y 402500.144600
mtllib construction_artifacts.mtl

o construction_1602_assumed_A_Casa
v -7.519500 -23.826000 0.000000
v -11.146500 -23.330000 0.000000
v -7.569500 -12.542000 0.000000
v -8.606500 -12.534000 0.000000
v -7.542500 8.635000 0.000000
v -6.201500 8.624000 0.000000
v -5.424500 15.677000 0.000000
v -4.766500 15.671000 0.000000
v -3.470500 24.503000 0.000000
v -0.990500 24.459000 0.000000
v -0.346500 16.332000 0.000000
v 3.361500 16.417000 0.000000
v 7.642500 1.013000 0.000000
v 9.750500 2.071000 0.000000
v 11.146500 -2.089000 0.000000
v 8.942500 -4.007000 0.000000
v 9.198500 -5.236000 0.000000
v 3.745500 -6.875000 0.000000
v 4.618500 -10.108000 0.000000
v 0.892500 -14.190000 0.000000
v -1.958500 -24.503000 0.000000
v -7.424500 -23.005000 0.000000
v -7.519500 -23.826000 6.000000
v -11.146500 -23.330000 6.000000
v -7.569500 -12.542000 6.000000
v -8.606500 -12.534000 6.000000
v -7.542500 8.635000 6.000000
v -6.201500 8.624000 6.000000
v -5.424500 15.677000 6.000000
v -4.766500 15.671000 6.000000
v -3.470500 24.503000 6.000000
v -0.990500 24.459000 6.000000
v -0.346500 16.332000 6.000000
v 3.361500 16.417000 6.000000
v 7.642500 1.013000 6.000000
v 9.750500 2.071000 6.000000
v 11.146500 -2.089000 6.000000
v 8.942500 -4.007000 6.000000
v 9.198500 -5.236000 6.000000
v 3.745500 -6.875000 6.000000
v 4.618500 -10.108000 6.000000
v 0.892500 -14.190000 6.000000
v -1.958500 -24.503000 6.000000
v -7.424500 -23.005000 6.000000
vn 0.000000 0.000000 -1.000000
vn -0.000000 0.000000 -1.000000
vn 0.000000 0.000000 -1.000000
vn 0.000000 0.000000 -1.000000
vn 0.000000 0.000000 -1.000000
vn 0.000000 0.000000 -1.000000
vn 0.000000 0.000000 -1.000000
vn 0.000000 0.000000 -1.000000
vn 0.000000 0.000000 -1.000000
vn 0.000000 0.000000 -1.000000
vn 0.000000 0.000000 -1.000000
vn 0.000000 0.000000 -1.000000
vn 0.000000 0.000000 -1.000000
vn 0.000000 -0.000000 -1.000000
vn 0.000000 -0.000000 -1.000000
vn 0.000000 0.000000 -1.000000
vn 0.000000 0.000000 -1.000000
vn 0.000000 0.000000 -1.000000
vn 0.000000 0.000000 -1.000000
vn 0.000000 0.000000 -1.000000
vn 0.000000 0.000000 1.000000
vn 0.000000 0.000000 1.000000
vn 0.000000 -0.000000 1.000000
vn 0.000000 0.000000 1.000000
vn 0.000000 -0.000000 1.000000
vn 0.000000 0.000000 1.000000
vn 0.000000 0.000000 1.000000
vn 0.000000 0.000000 1.000000
vn 0.000000 0.000000 1.000000
vn 0.000000 0.000000 1.000000
vn 0.000000 0.000000 1.000000
vn 0.000000 0.000000 1.000000
vn 0.000000 0.000000 1.000000
vn 0.000000 0.000000 1.000000
vn 0.000000 0.000000 1.000000
vn 0.000000 0.000000 1.000000
vn 0.000000 0.000000 1.000000
vn 0.000000 0.000000 1.000000
vn 0.000000 0.000000 1.000000
vn 0.000000 0.000000 1.000000
vn -0.135491 -0.990779 0.000000
vn -0.135491 -0.990779 0.000000
vn -0.949184 0.314723 0.000000
vn -0.949184 0.314723 0.000000
vn -0.007714 -0.999970 0.000000
vn -0.007714 -0.999970 0.000000
vn -0.998739 0.050199 0.000000
vn -0.998739 0.050199 0.000000
vn 0.008203 0.999966 0.000000
vn 0.008203 0.999966 -0.000000
vn -0.993986 0.109503 0.000000
vn -0.993986 0.109503 0.000000
vn 0.009118 0.999958 0.000000
vn 0.009118 0.999958 -0.000000
vn -0.989405 0.145184 0.000000
vn -0.989405 0.145184 0.000000
vn 0.017739 0.999843 0.000000
vn 0.017739 0.999843 -0.000000
vn 0.996875 0.078994 0.000000
vn 0.996875 0.078994 -0.000000
vn -0.022917 0.999737 0.000000
vn -0.022917 0.999737 0.000000
vn 0.963484 0.267766 0.000000
vn 0.963484 0.267766 -0.000000
vn -0.448570 0.893748 0.000000
vn -0.448570 0.893748 0.000000
vn 0.948043 0.318141 0.000000
vn 0.948043 0.318141 -0.000000
vn 0.656467 -0.754355 0.000000
vn 0.656467 -0.754355 0.000000
vn 0.978987 0.203922 0.000000
vn 0.978987 0.203922 -0.000000
vn 0.287847 -0.957676 0.000000
vn 0.287847 -0.957676 0.000000
vn 0.965422 0.260691 0.000000
vn 0.965422 0.260691 -0.000000
vn 0.738579 -0.674166 0.000000
vn 0.738579 -0.674166 0.000000
vn 0.963848 -0.266453 0.000000
vn 0.963848 -0.266453 0.000000
vn -0.264312 -0.964437 0.000000
vn -0.264312 -0.964437 0.000000
vn 0.993372 -0.114946 0.000000
vn 0.993372 -0.114946 0.000000
usemtl assumed_base
f 22//1 1//1 2//1
f 22//2 2//2 3//2
f 3//3 4//3 5//3
f 22//4 3//4 5//4
f 22//5 5//5 6//5
f 22//6 6//6 7//6
f 22//7 7//7 8//7
f 22//8 8//8 9//8
f 22//9 9//9 10//9
f 22//10 10//10 11//10
f 22//11 11//11 12//11
f 22//12 12//12 13//12
f 22//13 13//13 14//13
f 14//14 15//14 16//14
f 16//15 17//15 18//15
f 14//16 16//16 18//16
f 22//17 14//17 18//17
f 22//18 18//18 19//18
f 22//19 19//19 20//19
f 20//20 21//20 22//20
usemtl assumed_roof
f 44//21 24//21 23//21
f 44//22 25//22 24//22
f 25//23 27//23 26//23
f 44//24 27//24 25//24
f 44//25 28//25 27//25
f 44//26 29//26 28//26
f 44//27 30//27 29//27
f 44//28 31//28 30//28
f 44//29 32//29 31//29
f 44//30 33//30 32//30
f 44//31 34//31 33//31
f 44//32 35//32 34//32
f 44//33 36//33 35//33
f 36//34 38//34 37//34
f 38//35 40//35 39//35
f 36//36 40//36 38//36
f 44//37 40//37 36//37
f 44//38 41//38 40//38
f 44//39 42//39 41//39
f 42//40 44//40 43//40
usemtl assumed_wall
f 1//41 24//41 2//41
f 1//42 23//42 24//42
f 2//43 25//43 3//43
f 2//44 24//44 25//44
f 3//45 26//45 4//45
f 3//46 25//46 26//46
f 4//47 27//47 5//47
f 4//48 26//48 27//48
f 5//49 28//49 6//49
f 5//50 27//50 28//50
f 6//51 29//51 7//51
f 6//52 28//52 29//52
f 7//53 30//53 8//53
f 7//54 29//54 30//54
f 8//55 31//55 9//55
f 8//56 30//56 31//56
f 9//57 32//57 10//57
f 9//58 31//58 32//58
f 10//59 33//59 11//59
f 10//60 32//60 33//60
f 11//61 34//61 12//61
f 11//62 33//62 34//62
f 12//63 35//63 13//63
f 12//64 34//64 35//64
f 13//65 36//65 14//65
f 13//66 35//66 36//66
f 14//67 37//67 15//67
f 14//68 36//68 37//68
f 15//69 38//69 16//69
f 15//70 37//70 38//70
f 16//71 39//71 17//71
f 16//72 38//72 39//72
f 17//73 40//73 18//73
f 17//74 39//74 40//74
f 18//75 41//75 19//75
f 18//76 40//76 41//76
f 19//77 42//77 20//77
f 19//78 41//78 42//78
f 20//79 43//79 21//79
f 20//80 42//80 43//80
f 21//81 44//81 22//81
f 21//82 43//82 44//82
f 22//83 23//83 1//83
f 22//84 44//84 23//84
