# construction_6756_assumed_A_Casa
# source A_Casa
# h_campo 0.000000
# modeled_height 6.000000
# height_kind assumed
# local_origin_world_x 172001.034850
# local_origin_world_y 402500.144600
mtllib construction_artifacts.mtl

o construction_6756_assumed_A_Casa
v 7.463500 21.672500 0.000000
v 10.651500 20.440500 0.000000
v 10.351500 18.884500 0.000000
v 12.920500 18.043500 0.000000
v 9.561500 10.172500 0.000000
v 6.638500 11.569500 0.000000
v -0.455500 -5.349500 0.000000
v 2.795500 -6.177500 0.000000
v 2.394500 -7.909500 0.000000
v 11.827500 -8.926500 0.000000
v 12.301500 -5.751500 0.000000
v 23.088500 -7.409500 0.000000
v 23.600500 -4.425500 0.000000
v 32.429500 -5.758500 0.000000
v 31.889500 -8.073500 0.000000
v 33.042500 -9.107500 0.000000
v 32.479500 -12.118500 0.000000
v 33.630500 -12.331500 0.000000
v 31.825500 -25.445500 0.000000
v 30.296500 -25.448500 0.000000
v 29.987500 -28.963500 0.000000
v 9.588500 -25.910500 0.000000
v -13.059500 -23.468500 0.000000
v -18.940500 -22.494500 0.000000
v -20.464500 -19.324500 0.000000
v -25.144500 -18.348500 0.000000
v -29.509500 -16.436500 0.000000
v -31.981500 -13.659500 0.000000
v -33.570500 -9.478500 0.000000
v -33.630500 -5.319500 0.000000
v -31.224500 -1.281500 0.000000
v -28.031500 1.633500 0.000000
v -23.685500 2.591500 0.000000
v -19.219500 1.336500 0.000000
v -18.376500 3.146500 0.000000
v -19.895500 3.951500 0.000000
v -16.938500 10.355500 0.000000
v -12.720500 19.151500 0.000000
v -15.595500 20.674500 0.000000
v -11.756500 28.963500 0.000000
v -8.832500 27.655500 0.000000
v -8.215500 28.794500 0.000000
v -5.431500 27.308500 0.000000
v -4.940500 28.131500 0.000000
v 7.878500 22.760500 0.000000
v 7.463500 21.672500 6.000000
v 10.651500 20.440500 6.000000
v 10.351500 18.884500 6.000000
v 12.920500 18.043500 6.000000
v 9.561500 10.172500 6.000000
v 6.638500 11.569500 6.000000
v -0.455500 -5.349500 6.000000
v 2.795500 -6.177500 6.000000
v 2.394500 -7.909500 6.000000
v 11.827500 -8.926500 6.000000
v 12.301500 -5.751500 6.000000
v 23.088500 -7.409500 6.000000
v 23.600500 -4.425500 6.000000
v 32.429500 -5.758500 6.000000
v 31.889500 -8.073500 6.000000
v 33.042500 -9.107500 6.000000
v 32.479500 -12.118500 6.000000
v 33.630500 -12.331500 6.000000
v 31.825500 -25.445500 6.000000
v 30.296500 -25.448500 6.000000
v 29.987500 -28.963500 6.000000
v 9.588500 -25.910500 6.000000
v -13.059500 -23.468500 6.000000
v -18.940500 -22.494500 6.000000
v -20.464500 -19.324500 6.000000
v -25.144500 -18.348500 6.000000
v -29.509500 -16.436500 6.000000
v -31.981500 -13.659500 6.000000
v -33.570500 -9.478500 6.000000
v -33.630500 -5.319500 6.000000
v -31.224500 -1.281500 6.000000
v -28.031500 1.633500 6.000000
v -23.685500 2.591500 6.000000
v -19.219500 1.336500 6.000000
v -18.376500 3.146500 6.000000
v -19.895500 3.951500 6.000000
v -16.938500 10.355500 6.000000
v -12.720500 19.151500 6.000000
v -15.595500 20.674500 6.000000
v -11.756500 28.963500 6.000000
v -8.832500 27.655500 6.000000
v -8.215500 28.794500 6.000000
v -5.431500 27.308500 6.000000
v -4.940500 28.131500 6.000000
v 7.878500 22.760500 6.000000
vn 0.000000 0.000000 -1.000000
vn 0.000000 -0.000000 -1.000000
vn 0.000000 0.000000 -1.000000
vn 0.000000 -0.000000 -1.000000
vn 0.000000 0.000000 -1.000000
vn 0.000000 0.000000 -1.000000
vn 0.000000 0.000000 -1.000000
vn 0.000000 0.000000 -1.000000
vn 0.000000 0.000000 -1.000000
vn 0.000000 0.000000 -1.000000
vn 0.000000 0.000000 -1.000000
vn 0.000000 0.000000 -1.000000
vn 0.000000 0.000000 -1.000000
vn 0.000000 0.000000 -1.000000
vn 0.000000 0.000000 -1.000000
vn 0.000000 0.000000 -1.000000
vn 0.000000 0.000000 -1.000000
vn 0.000000 0.000000 -1.000000
vn 0.000000 0.000000 -1.000000
vn 0.000000 -0.000000 -1.000000
vn 0.000000 0.000000 -1.000000
vn 0.000000 0.000000 -1.000000
vn 0.000000 0.000000 -1.000000
vn 0.000000 0.000000 -1.000000
vn 0.000000 0.000000 -1.000000
vn 0.000000 0.000000 -1.000000
vn 0.000000 0.000000 -1.000000
vn 0.000000 0.000000 -1.000000
vn 0.000000 0.000000 -1.000000
vn 0.000000 0.000000 -1.000000
vn 0.000000 0.000000 -1.000000
vn 0.000000 0.000000 -1.000000
vn 0.000000 0.000000 -1.000000
vn 0.000000 0.000000 -1.000000
vn 0.000000 0.000000 -1.000000
vn 0.000000 0.000000 -1.000000
vn 0.000000 0.000000 -1.000000
vn 0.000000 0.000000 -1.000000
vn 0.000000 0.000000 -1.000000
vn -0.000000 0.000000 -1.000000
vn 0.000000 0.000000 -1.000000
vn 0.000000 0.000000 -1.000000
vn 0.000000 0.000000 -1.000000
vn 0.000000 0.000000 1.000000
vn 0.000000 0.000000 1.000000
vn 0.000000 0.000000 1.000000
vn 0.000000 0.000000 1.000000
vn 0.000000 0.000000 1.000000
vn 0.000000 0.000000 1.000000
vn 0.000000 0.000000 1.000000
vn 0.000000 0.000000 1.000000
vn -0.000000 0.000000 1.000000
vn 0.000000 0.000000 1.000000
vn -0.000000 0.000000 1.000000
vn 0.000000 0.000000 1.000000
vn 0.000000 0.000000 1.000000
vn 0.000000 0.000000 1.000000
vn 0.000000 0.000000 1.000000
vn 0.000000 0.000000 1.000000
vn 0.000000 0.000000 1.000000
vn 0.000000 0.000000 1.000000
vn 0.000000 0.000000 1.000000
vn 0.000000 0.000000 1.000000
vn 0.000000 0.000000 1.000000
vn 0.000000 0.000000 1.000000
vn 0.000000 0.000000 1.000000
vn 0.000000 0.000000 1.000000
vn 0.000000 0.000000 1.000000
vn 0.000000 0.000000 1.000000
vn 0.000000 0.000000 1.000000
vn 0.000000 0.000000 1.000000
vn 0.000000 -0.000000 1.000000
vn 0.000000 0.000000 1.000000
vn 0.000000 0.000000 1.000000
vn 0.000000 0.000000 1.000000
vn 0.000000 0.000000 1.000000
vn 0.000000 0.000000 1.000000
vn 0.000000 0.000000 1.000000
vn 0.000000 0.000000 1.000000
vn 0.000000 0.000000 1.000000
vn 0.000000 0.000000 1.000000
vn 0.000000 0.000000 1.000000
vn 0.000000 0.000000 1.000000
vn -0.000000 0.000000 1.000000
vn 0.000000 0.000000 1.000000
vn -0.000000 0.000000 1.000000
vn 0.360469 0.932771 0.000000
vn 0.360469 0.932771 -0.000000
vn 0.981916 -0.189315 0.000000
vn 0.981916 -0.189315 0.000000
vn 0.311118 0.950371 0.000000
vn 0.311118 0.950371 -0.000000
vn 0.919748 -0.392509 0.000000
vn 0.919748 -0.392509 0.000000
vn -0.431215 -0.902249 0.000000
vn -0.431215 -0.902249 0.000000
vn 0.922215 -0.386677 0.000000
vn 0.922215 -0.386677 0.000000
vn 0.246812 0.969063 0.000000
vn 0.246812 0.969063 -0.000000
vn 0.974230 -0.225558 0.000000
vn 0.974230 -0.225558 0.000000
vn 0.107192 0.994238 0.000000
vn 0.107192 0.994238 -0.000000
vn -0.989039 0.147655 0.000000
vn -0.989039 0.147655 0.000000
vn 0.151919 0.988393 0.000000
vn 0.151919 0.988393 -0.000000
vn -0.985597 0.169110 0.000000
vn -0.985597 0.169110 0.000000
vn 0.149288 0.988794 0.000000
vn 0.149288 0.988794 -0.000000
vn 0.973857 -0.227163 0.000000
vn 0.973857 -0.227163 0.000000
vn 0.667644 0.744481 0.000000
vn 0.667644 0.744481 -0.000000
vn 0.982964 -0.183796 0.000000
vn 0.982964 -0.183796 0.000000
vn 0.181967 0.983305 0.000000
vn 0.181967 0.983305 -0.000000
vn 0.990660 -0.136354 0.000000
vn 0.990660 -0.136354 0.000000
vn 0.001962 -0.999998 0.000000
vn 0.001962 -0.999998 0.000000
vn 0.996158 -0.087571 0.000000
vn 0.996158 -0.087571 0.000000
vn -0.148016 -0.988985 0.000000
vn -0.148016 -0.988985 0.000000
vn -0.107203 -0.994237 0.000000
vn -0.107203 -0.994237 0.000000
vn -0.163392 -0.986561 0.000000
vn -0.163392 -0.986561 0.000000
vn -0.901257 -0.433286 0.000000
vn -0.901257 -0.433286 0.000000
vn -0.204155 -0.978939 0.000000
vn -0.204155 -0.978939 0.000000
vn -0.401226 -0.915979 0.000000
vn -0.401226 -0.915979 0.000000
vn -0.746934 -0.664898 0.000000
vn -0.746934 -0.664898 0.000000
vn -0.934767 -0.355261 0.000000
vn -0.934767 -0.355261 0.000000
vn -0.999896 -0.014425 0.000000
vn -0.999896 -0.014425 0.000000
vn -0.859066 0.511865 0.000000
vn -0.859066 0.511865 0.000000
vn -0.674225 0.738526 0.000000
vn -0.674225 0.738526 0.000000
vn -0.215265 0.976556 0.000000
vn -0.215265 0.976556 0.000000
vn 0.270533 0.962711 0.000000
vn 0.270533 0.962711 -0.000000
vn -0.906503 0.422200 0.000000
vn -0.906503 0.422200 0.000000
vn -0.468262 -0.883590 0.000000
vn -0.468262 -0.883590 0.000000
vn -0.907889 0.419211 0.000000
vn -0.907889 0.419211 0.000000
vn -0.901686 0.432391 0.000000
vn -0.901686 0.432391 0.000000
vn -0.468114 -0.883668 0.000000
vn -0.468114 -0.883668 0.000000
vn -0.907404 0.420259 0.000000
vn -0.907404 0.420259 0.000000
vn 0.408339 0.912831 0.000000
vn 0.408339 0.912831 -0.000000
vn -0.879278 0.476308 0.000000
vn -0.879278 0.476308 0.000000
vn 0.470884 0.882195 0.000000
vn 0.470884 0.882195 -0.000000
vn -0.858779 0.512346 0.000000
vn -0.858779 0.512346 0.000000
vn 0.386438 0.922315 0.000000
vn 0.386438 0.922315 -0.000000
vn 0.934338 -0.356388 0.000000
vn 0.934338 -0.356388 0.000000
usemtl assumed_base
f 1//1 2//1 3//1
f 3//2 4//2 5//2
f 1//3 3//3 5//3
f 1//4 5//4 6//4
f 1//5 6//5 7//5
f 7//6 8//6 9//6
f 10//7 11//7 12//7
f 12//8 13//8 14//8
f 12//9 14//9 15//9
f 10//10 12//10 15//10
f 10//11 15//11 16//11
f 10//12 16//12 17//12
f 9//13 10//13 17//13
f 9//14 17//14 18//14
f 9//15 18//15 19//15
f 9//16 19//16 20//16
f 9//17 20//17 21//17
f 9//18 21//18 22//18
f 7//19 9//19 22//19
f 7//20 22//20 23//20
f 1//21 7//21 23//21
f 45//22 1//22 23//22
f 45//23 23//23 24//23
f 45//24 24//24 25//24
f 45//25 25//25 26//25
f 45//26 26//26 27//26
f 45//27 27//27 28//27
f 28//28 29//28 30//28
f 28//29 30//29 31//29
f 28//30 31//30 32//30
f 28//31 32//31 33//31
f 28//32 33//32 34//32
f 45//33 28//33 34//33
f 45//34 34//34 35//34
f 45//35 35//35 36//35
f 45//36 36//36 37//36
f 45//37 37//37 38//37
f 45//38 38//38 39//38
f 39//39 40//39 41//39
f 45//40 39//40 41//40
f 41//41 42//41 43//41
f 45//42 41//42 43//42
f 43//43 44//43 45//43
usemtl assumed_roof
f 46//44 48//44 47//44
f 48//45 50//45 49//45
f 46//46 50//46 48//46
f 46//47 51//47 50//47
f 46//48 52//48 51//48
f 52//49 54//49 53//49
f 55//50 57//50 56//50
f 57//51 59//51 58//51
f 57//52 60//52 59//52
f 55//53 60//53 57//53
f 55//54 61//54 60//54
f 55//55 62//55 61//55
f 54//56 62//56 55//56
f 54//57 63//57 62//57
f 54//58 64//58 63//58
f 54//59 65//59 64//59
f 54//60 66//60 65//60
f 54//61 67//61 66//61
f 52//62 67//62 54//62
f 52//63 68//63 67//63
f 46//64 68//64 52//64
f 90//65 68//65 46//65
f 90//66 69//66 68//66
f 90//67 70//67 69//67
f 90//68 71//68 70//68
f 90//69 72//69 71//69
f 90//70 73//70 72//70
f 73//71 75//71 74//71
f 73//72 76//72 75//72
f 73//73 77//73 76//73
f 73//74 78//74 77//74
f 73//75 79//75 78//75
f 90//76 79//76 73//76
f 90//77 80//77 79//77
f 90//78 81//78 80//78
f 90//79 82//79 81//79
f 90//80 83//80 82//80
f 90//81 84//81 83//81
f 84//82 86//82 85//82
f 90//83 86//83 84//83
f 86//84 88//84 87//84
f 90//85 88//85 86//85
f 88//86 90//86 89//86
usemtl assumed_wall
f 1//87 47//87 2//87
f 1//88 46//88 47//88
f 2//89 48//89 3//89
f 2//90 47//90 48//90
f 3//91 49//91 4//91
f 3//92 48//92 49//92
f 4//93 50//93 5//93
f 4//94 49//94 50//94
f 5//95 51//95 6//95
f 5//96 50//96 51//96
f 6//97 52//97 7//97
f 6//98 51//98 52//98
f 7//99 53//99 8//99
f 7//100 52//100 53//100
f 8//101 54//101 9//101
f 8//102 53//102 54//102
f 9//103 55//103 10//103
f 9//104 54//104 55//104
f 10//105 56//105 11//105
f 10//106 55//106 56//106
f 11//107 57//107 12//107
f 11//108 56//108 57//108
f 12//109 58//109 13//109
f 12//110 57//110 58//110
f 13//111 59//111 14//111
f 13//112 58//112 59//112
f 14//113 60//113 15//113
f 14//114 59//114 60//114
f 15//115 61//115 16//115
f 15//116 60//116 61//116
f 16//117 62//117 17//117
f 16//118 61//118 62//118
f 17//119 63//119 18//119
f 17//120 62//120 63//120
f 18//121 64//121 19//121
f 18//122 63//122 64//122
f 19//123 65//123 20//123
f 19//124 64//124 65//124
f 20//125 66//125 21//125
f 20//126 65//126 66//126
f 21//127 67//127 22//127
f 21//128 66//128 67//128
f 22//129 68//129 23//129
f 22//130 67//130 68//130
f 23//131 69//131 24//131
f 23//132 68//132 69//132
f 24//133 70//133 25//133
f 24//134 69//134 70//134
f 25//135 71//135 26//135
f 25//136 70//136 71//136
f 26//137 72//137 27//137
f 26//138 71//138 72//138
f 27//139 73//139 28//139
f 27//140 72//140 73//140
f 28//141 74//141 29//141
f 28//142 73//142 74//142
f 29//143 75//143 30//143
f 29//144 74//144 75//144
f 30//145 76//145 31//145
f 30//146 75//146 76//146
f 31//147 77//147 32//147
f 31//148 76//148 77//148
f 32//149 78//149 33//149
f 32//150 77//150 78//150
f 33//151 79//151 34//151
f 33//152 78//152 79//152
f 34//153 80//153 35//153
f 34//154 79//154 80//154
f 35//155 81//155 36//155
f 35//156 80//156 81//156
f 36//157 82//157 37//157
f 36//158 81//158 82//158
f 37//159 83//159 38//159
f 37//160 82//160 83//160
f 38//161 84//161 39//161
f 38//162 83//162 84//162
f 39//163 85//163 40//163
f 39//164 84//164 85//164
f 40//165 86//165 41//165
f 40//166 85//166 86//166
f 41//167 87//167 42//167
f 41//168 86//168 87//168
f 42//169 88//169 43//169
f 42//170 87//170 88//170
f 43//171 89//171 44//171
f 43//172 88//172 89//172
f 44//173 90//173 45//173
f 44//174 89//174 90//174
f 45//175 46//175 1//175
f 45//176 90//176 46//176
