# construction_0903_assumed_A_Casa
# source A_Casa
# h_campo 0.000000
# modeled_height 6.000000
# height_kind assumed
# local_origin_world_x 172001.034850
# local_origin_world_y 402500.144600
mtllib construction_artifacts.mtl

o construction_0903_assumed_A_Casa
v -54.690500 -35.216000 0.000000
v -54.709500 -31.517000 0.000000
v -50.820500 -26.304000 0.000000
v -52.714500 -25.251000 0.000000
v -50.986500 -20.697000 0.000000
v -48.680500 -17.734000 0.000000
v -46.035500 -19.412000 0.000000
v -43.631500 -16.213000 0.000000
v -42.013500 -17.169000 0.000000
v -31.810500 -3.778000 0.000000
v -10.837500 -19.472000 0.000000
v -6.242500 -13.979000 0.000000
v -16.691500 -5.631000 0.000000
v -20.232500 -9.564000 0.000000
v -30.842500 -0.764000 0.000000
v -27.656500 3.365000 0.000000
v -17.404500 -4.729000 0.000000
v -11.386500 3.565000 0.000000
v 0.971500 -4.617000 0.000000
v 4.096500 -0.096000 0.000000
v -7.787500 7.616000 0.000000
v -4.329500 12.631000 0.000000
v 8.373500 2.247000 0.000000
v 17.258500 -4.043000 0.000000
v 18.565500 -1.951000 0.000000
v 12.246500 2.778000 0.000000
v 15.549500 7.044000 0.000000
v 10.513500 10.876000 0.000000
v 15.669500 18.280000 0.000000
v 9.389500 22.950000 0.000000
v -1.414500 31.355000 0.000000
v 1.789500 35.819000 0.000000
v 6.233500 32.378000 0.000000
v 7.784500 33.113000 0.000000
v 11.554500 30.653000 0.000000
v 12.723500 32.942000 0.000000
v 15.151500 31.242000 0.000000
v 12.318500 27.352000 0.000000
v 19.425500 22.548000 0.000000
v 24.274500 28.770000 0.000000
v 16.984500 34.576000 0.000000
v 24.311500 44.667000 0.000000
v 29.803500 40.288000 0.000000
v 24.840500 33.475000 0.000000
v 30.801500 29.610000 0.000000
v 35.157500 35.829000 0.000000
v 37.685500 37.730000 0.000000
v 54.709500 24.870000 0.000000
v 45.110500 12.821000 0.000000
v 37.097500 2.412000 0.000000
v 37.966500 1.747000 0.000000
v 12.757500 -28.344000 0.000000
v 8.184500 -34.604000 0.000000
v 1.990500 -43.016000 0.000000
v -1.601500 -44.667000 0.000000
v -10.649500 -37.178000 0.000000
v -12.073500 -39.645000 0.000000
v -14.521500 -38.044000 0.000000
v -18.937500 -43.889000 0.000000
v -54.690500 -35.216000 6.000000
v -54.709500 -31.517000 6.000000
v -50.820500 -26.304000 6.000000
v -52.714500 -25.251000 6.000000
v -50.986500 -20.697000 6.000000
v -48.680500 -17.734000 6.000000
v -46.035500 -19.412000 6.000000
v -43.631500 -16.213000 6.000000
v -42.013500 -17.169000 6.000000
v -31.810500 -3.778000 6.000000
v -10.837500 -19.472000 6.000000
v -6.242500 -13.979000 6.000000
v -16.691500 -5.631000 6.000000
v -20.232500 -9.564000 6.000000
v -30.842500 -0.764000 6.000000
v -27.656500 3.365000 6.000000
v -17.404500 -4.729000 6.000000
v -11.386500 3.565000 6.000000
v 0.971500 -4.617000 6.000000
v 4.096500 -0.096000 6.000000
v -7.787500 7.616000 6.000000
v -4.329500 12.631000 6.000000
v 8.373500 2.247000 6.000000
v 17.258500 -4.043000 6.000000
v 18.565500 -1.951000 6.000000
v 12.246500 2.778000 6.000000
v 15.549500 7.044000 6.000000
v 10.513500 10.876000 6.000000
v 15.669500 18.280000 6.000000
v 9.389500 22.950000 6.000000
v -1.414500 31.355000 6.000000
v 1.789500 35.819000 6.000000
v 6.233500 32.378000 6.000000
v 7.784500 33.113000 6.000000
v 11.554500 30.653000 6.000000
v 12.723500 32.942000 6.000000
v 15.151500 31.242000 6.000000
v 12.318500 27.352000 6.000000
v 19.425500 22.548000 6.000000
v 24.274500 28.770000 6.000000
v 16.984500 34.576000 6.000000
v 24.311500 44.667000 6.000000
v 29.803500 40.288000 6.000000
v 24.840500 33.475000 6.000000
v 30.801500 29.610000 6.000000
v 35.157500 35.829000 6.000000
v 37.685500 37.730000 6.000000
v 54.709500 24.870000 6.000000
v 45.110500 12.821000 6.000000
v 37.097500 2.412000 6.000000
v 37.966500 1.747000 6.000000
v 12.757500 -28.344000 6.000000
v 8.184500 -34.604000 6.000000
v 1.990500 -43.016000 6.000000
v -1.601500 -44.667000 6.000000
v -10.649500 -37.178000 6.000000
v -12.073500 -39.645000 6.000000
v -14.521500 -38.044000 6.000000
v -18.937500 -43.889000 6.000000
vn 0.000000 0.000000 -1.000000
vn 0.000000 0.000000 -1.000000
vn 0.000000 0.000000 -1.000000
vn 0.000000 0.000000 -1.000000
vn 0.000000 0.000000 -1.000000
vn 0.000000 0.000000 -1.000000
vn 0.000000 0.000000 -1.000000
vn 0.000000 0.000000 -1.000000
vn 0.000000 0.000000 -1.000000
vn 0.000000 0.000000 -1.000000
vn 0.000000 0.000000 -1.000000
vn -0.000000 0.000000 -1.000000
vn 0.000000 0.000000 -1.000000
vn 0.000000 0.000000 -1.000000
vn 0.000000 0.000000 -1.000000
vn 0.000000 0.000000 -1.000000
vn 0.000000 0.000000 -1.000000
vn 0.000000 0.000000 -1.000000
vn 0.000000 0.000000 -1.000000
vn 0.000000 0.000000 -1.000000
vn 0.000000 0.000000 -1.000000
vn 0.000000 0.000000 -1.000000
vn 0.000000 0.000000 -1.000000
vn 0.000000 0.000000 -1.000000
vn 0.000000 0.000000 -1.000000
vn 0.000000 0.000000 -1.000000
vn 0.000000 0.000000 -1.000000
vn 0.000000 0.000000 -1.000000
vn 0.000000 0.000000 -1.000000
vn 0.000000 0.000000 -1.000000
vn 0.000000 0.000000 -1.000000
vn 0.000000 0.000000 -1.000000
vn 0.000000 0.000000 -1.000000
vn 0.000000 0.000000 -1.000000
vn 0.000000 0.000000 -1.000000
vn 0.000000 0.000000 -1.000000
vn 0.000000 0.000000 -1.000000
vn 0.000000 0.000000 -1.000000
vn 0.000000 0.000000 -1.000000
vn 0.000000 0.000000 -1.000000
vn 0.000000 0.000000 -1.000000
vn 0.000000 0.000000 -1.000000
vn 0.000000 0.000000 -1.000000
vn 0.000000 0.000000 -1.000000
vn 0.000000 0.000000 -1.000000
vn 0.000000 0.000000 -1.000000
vn 0.000000 0.000000 -1.000000
vn 0.000000 0.000000 -1.000000
vn 0.000000 -0.000000 -1.000000
vn 0.000000 0.000000 -1.000000
vn 0.000000 -0.000000 -1.000000
vn 0.000000 0.000000 -1.000000
vn 0.000000 0.000000 -1.000000
vn 0.000000 0.000000 -1.000000
vn 0.000000 0.000000 -1.000000
vn 0.000000 0.000000 -1.000000
vn 0.000000 0.000000 -1.000000
vn 0.000000 0.000000 1.000000
vn 0.000000 0.000000 1.000000
vn 0.000000 0.000000 1.000000
vn 0.000000 0.000000 1.000000
vn 0.000000 0.000000 1.000000
vn 0.000000 0.000000 1.000000
vn 0.000000 0.000000 1.000000
vn 0.000000 0.000000 1.000000
vn 0.000000 0.000000 1.000000
vn 0.000000 -0.000000 1.000000
vn 0.000000 0.000000 1.000000
vn 0.000000 0.000000 1.000000
vn 0.000000 0.000000 1.000000
vn 0.000000 0.000000 1.000000
vn 0.000000 0.000000 1.000000
vn 0.000000 0.000000 1.000000
vn 0.000000 -0.000000 1.000000
vn 0.000000 0.000000 1.000000
vn 0.000000 0.000000 1.000000
vn 0.000000 0.000000 1.000000
vn 0.000000 -0.000000 1.000000
vn 0.000000 0.000000 1.000000
vn 0.000000 0.000000 1.000000
vn 0.000000 -0.000000 1.000000
vn 0.000000 0.000000 1.000000
vn 0.000000 0.000000 1.000000
vn 0.000000 0.000000 1.000000
vn 0.000000 0.000000 1.000000
vn 0.000000 0.000000 1.000000
vn 0.000000 0.000000 1.000000
vn -0.000000 0.000000 1.000000
vn 0.000000 0.000000 1.000000
vn 0.000000 0.000000 1.000000
vn 0.000000 -0.000000 1.000000
vn 0.000000 -0.000000 1.000000
vn 0.000000 0.000000 1.000000
vn 0.000000 -0.000000 1.000000
vn 0.000000 0.000000 1.000000
vn 0.000000 0.000000 1.000000
vn 0.000000 0.000000 1.000000
vn 0.000000 0.000000 1.000000
vn 0.000000 0.000000 1.000000
vn 0.000000 0.000000 1.000000
vn 0.000000 0.000000 1.000000
vn 0.000000 0.000000 1.000000
vn 0.000000 0.000000 1.000000
vn 0.000000 0.000000 1.000000
vn 0.000000 0.000000 1.000000
vn -0.000000 0.000000 1.000000
vn 0.000000 0.000000 1.000000
vn 0.000000 0.000000 1.000000
vn 0.000000 0.000000 1.000000
vn 0.000000 0.000000 1.000000
vn 0.000000 0.000000 1.000000
vn 0.000000 0.000000 1.000000
vn 0.000000 0.000000 1.000000
vn 0.000000 0.000000 1.000000
vn -0.999987 -0.005136 0.000000
vn -0.999987 -0.005136 0.000000
vn -0.801529 0.597956 0.000000
vn -0.801529 0.597956 0.000000
vn -0.485917 -0.874005 0.000000
vn -0.485917 -0.874005 0.000000
vn -0.934955 0.354766 0.000000
vn -0.934955 0.354766 0.000000
vn -0.789166 0.614180 0.000000
vn -0.789166 0.614180 0.000000
vn 0.535698 0.844410 0.000000
vn 0.535698 0.844410 -0.000000
vn -0.799430 0.600759 0.000000
vn -0.799430 0.600759 0.000000
vn 0.508693 0.860948 0.000000
vn 0.508693 0.860948 -0.000000
vn -0.795422 0.606056 0.000000
vn -0.795422 0.606056 0.000000
vn 0.599126 0.800655 0.000000
vn 0.599126 0.800655 -0.000000
vn -0.767018 0.641625 0.000000
vn -0.767018 0.641625 0.000000
vn -0.624184 -0.781277 0.000000
vn -0.624184 -0.781277 0.000000
vn 0.743172 -0.669100 0.000000
vn 0.743172 -0.669100 0.000000
vn -0.638399 -0.769706 0.000000
vn -0.638399 -0.769706 0.000000
vn -0.791711 0.610896 0.000000
vn -0.791711 0.610896 0.000000
vn 0.619659 0.784871 0.000000
vn 0.619659 0.784871 -0.000000
vn -0.809385 0.587278 0.000000
vn -0.809385 0.587278 0.000000
vn 0.552050 0.833811 0.000000
vn 0.552050 0.833811 -0.000000
vn -0.822611 0.568604 0.000000
vn -0.822611 0.568604 0.000000
vn -0.544363 -0.838850 0.000000
vn -0.544363 -0.838850 0.000000
vn -0.823260 0.567664 0.000000
vn -0.823260 0.567664 0.000000
vn 0.632896 0.774237 0.000000
vn 0.632896 0.774237 -0.000000
vn 0.577801 0.816178 0.000000
vn 0.577801 0.816178 -0.000000
vn -0.848089 0.529853 0.000000
vn -0.848089 0.529853 0.000000
vn -0.599169 -0.800623 0.000000
vn -0.599169 -0.800623 0.000000
vn -0.790698 0.612207 0.000000
vn -0.790698 0.612207 0.000000
vn -0.605548 -0.795809 0.000000
vn -0.605548 -0.795809 0.000000
vn -0.820625 0.571467 0.000000
vn -0.820625 0.571467 0.000000
vn -0.596724 -0.802447 0.000000
vn -0.596724 -0.802447 0.000000
vn -0.614027 -0.789285 0.000000
vn -0.614027 -0.789285 0.000000
vn -0.812403 0.583096 0.000000
vn -0.812403 0.583096 0.000000
vn 0.612227 0.790682 0.000000
vn 0.612227 0.790682 -0.000000
vn -0.428237 0.903667 0.000000
vn -0.428237 0.903667 0.000000
vn 0.546471 0.837478 0.000000
vn 0.546471 0.837478 -0.000000
vn -0.890582 0.454823 0.000000
vn -0.890582 0.454823 0.000000
vn 0.573553 0.819169 0.000000
vn 0.573553 0.819169 -0.000000
vn 0.808350 -0.588703 0.000000
vn 0.808350 -0.588703 0.000000
vn 0.560015 0.828482 0.000000
vn 0.560015 0.828482 -0.000000
vn -0.788758 0.614704 0.000000
vn -0.788758 0.614704 0.000000
vn -0.622992 -0.782228 0.000000
vn -0.622992 -0.782228 0.000000
vn -0.809190 0.587547 0.000000
vn -0.809190 0.587547 0.000000
vn 0.623427 0.781882 0.000000
vn 0.623427 0.781882 -0.000000
vn 0.808279 -0.588799 0.000000
vn 0.808279 -0.588799 0.000000
vn 0.544033 0.839064 0.000000
vn 0.544033 0.839064 -0.000000
vn -0.819065 0.573701 0.000000
vn -0.819065 0.573701 0.000000
vn -0.601011 0.799241 0.000000
vn -0.601011 0.799241 0.000000
vn 0.602756 0.797925 0.000000
vn 0.602756 0.797925 -0.000000
vn 0.782140 -0.623103 0.000000
vn 0.782140 -0.623103 0.000000
vn 0.792400 -0.610001 0.000000
vn 0.792400 -0.610001 0.000000
vn 0.607721 0.794150 0.000000
vn 0.607721 0.794150 -0.000000
vn 0.766550 -0.642184 0.000000
vn 0.766550 -0.642184 0.000000
vn 0.807490 -0.589881 0.000000
vn 0.807490 -0.589881 0.000000
vn 0.805253 -0.592931 0.000000
vn 0.805253 -0.592931 0.000000
vn 0.417630 -0.908617 0.000000
vn 0.417630 -0.908617 0.000000
vn -0.637618 -0.770353 0.000000
vn -0.637618 -0.770353 0.000000
vn 0.866075 -0.499915 0.000000
vn 0.866075 -0.499915 0.000000
vn -0.547341 -0.836909 0.000000
vn -0.547341 -0.836909 0.000000
vn 0.797882 -0.602814 0.000000
vn 0.797882 -0.602814 0.000000
vn -0.235744 -0.971815 0.000000
vn -0.235744 -0.971815 0.000000
usemtl assumed_base
f 59//1 1//1 2//1
f 59//2 2//2 3//2
f 59//3 3//3 4//3
f 59//4 4//4 5//4
f 59//5 5//5 6//5
f 59//6 6//6 7//6
f 59//7 7//7 8//7
f 59//8 8//8 9//8
f 59//9 9//9 10//9
f 59//10 10//10 11//10
f 59//11 11//11 12//11
f 13//12 14//12 15//12
f 13//13 15//13 16//13
f 12//14 13//14 16//14
f 12//15 16//15 17//15
f 12//16 17//16 18//16
f 12//17 18//17 19//17
f 59//18 12//18 19//18
f 59//19 19//19 20//19
f 20//20 21//20 22//20
f 20//21 22//21 23//21
f 59//22 20//22 23//22
f 25//23 26//23 27//23
f 27//24 28//24 29//24
f 25//25 27//25 29//25
f 29//26 30//26 31//26
f 29//27 31//27 32//27
f 29//28 32//28 33//28
f 29//29 33//29 34//29
f 35//30 36//30 37//30
f 35//31 37//31 38//31
f 34//32 35//32 38//32
f 29//33 34//33 38//33
f 29//34 38//34 39//34
f 25//35 29//35 39//35
f 25//36 39//36 40//36
f 40//37 41//37 42//37
f 42//38 43//38 44//38
f 40//39 42//39 44//39
f 40//40 44//40 45//40
f 25//41 40//41 45//41
f 25//42 45//42 46//42
f 25//43 46//43 47//43
f 25//44 47//44 48//44
f 24//45 25//45 48//45
f 24//46 48//46 49//46
f 24//47 49//47 50//47
f 24//48 50//48 51//48
f 24//49 51//49 52//49
f 23//50 24//50 52//50
f 23//51 52//51 53//51
f 23//52 53//52 54//52
f 23//53 54//53 55//53
f 23//54 55//54 56//54
f 23//55 56//55 57//55
f 23//56 57//56 58//56
f 23//57 58//57 59//57
usemtl assumed_roof
f 118//58 61//58 60//58
f 118//59 62//59 61//59
f 118//60 63//60 62//60
f 118//61 64//61 63//61
f 118//62 65//62 64//62
f 118//63 66//63 65//63
f 118//64 67//64 66//64
f 118//65 68//65 67//65
f 118//66 69//66 68//66
f 118//67 70//67 69//67
f 118//68 71//68 70//68
f 72//69 74//69 73//69
f 72//70 75//70 74//70
f 71//71 75//71 72//71
f 71//72 76//72 75//72
f 71//73 77//73 76//73
f 71//74 78//74 77//74
f 118//75 78//75 71//75
f 118//76 79//76 78//76
f 79//77 81//77 80//77
f 79//78 82//78 81//78
f 118//79 82//79 79//79
f 84//80 86//80 85//80
f 86//81 88//81 87//81
f 84//82 88//82 86//82
f 88//83 90//83 89//83
f 88//84 91//84 90//84
f 88//85 92//85 91//85
f 88//86 93//86 92//86
f 94//87 96//87 95//87
f 94//88 97//88 96//88
f 93//89 97//89 94//89
f 88//90 97//90 93//90
f 88//91 98//91 97//91
f 84//92 98//92 88//92
f 84//93 99//93 98//93
f 99//94 101//94 100//94
f 101//95 103//95 102//95
f 99//96 103//96 101//96
f 99//97 104//97 103//97
f 84//98 104//98 99//98
f 84//99 105//99 104//99
f 84//100 106//100 105//100
f 84//101 107//101 106//101
f 83//102 107//102 84//102
f 83//103 108//103 107//103
f 83//104 109//104 108//104
f 83//105 110//105 109//105
f 83//106 111//106 110//106
f 82//107 111//107 83//107
f 82//108 112//108 111//108
f 82//109 113//109 112//109
f 82//110 114//110 113//110
f 82//111 115//111 114//111
f 82//112 116//112 115//112
f 82//113 117//113 116//113
f 82//114 118//114 117//114
usemtl assumed_wall
f 1//115 61//115 2//115
f 1//116 60//116 61//116
f 2//117 62//117 3//117
f 2//118 61//118 62//118
f 3//119 63//119 4//119
f 3//120 62//120 63//120
f 4//121 64//121 5//121
f 4//122 63//122 64//122
f 5//123 65//123 6//123
f 5//124 64//124 65//124
f 6//125 66//125 7//125
f 6//126 65//126 66//126
f 7//127 67//127 8//127
f 7//128 66//128 67//128
f 8//129 68//129 9//129
f 8//130 67//130 68//130
f 9//131 69//131 10//131
f 9//132 68//132 69//132
f 10//133 70//133 11//133
f 10//134 69//134 70//134
f 11//135 71//135 12//135
f 11//136 70//136 71//136
f 12//137 72//137 13//137
f 12//138 71//138 72//138
f 13//139 73//139 14//139
f 13//140 72//140 73//140
f 14//141 74//141 15//141
f 14//142 73//142 74//142
f 15//143 75//143 16//143
f 15//144 74//144 75//144
f 16//145 76//145 17//145
f 16//146 75//146 76//146
f 17//147 77//147 18//147
f 17//148 76//148 77//148
f 18//149 78//149 19//149
f 18//150 77//150 78//150
f 19//151 79//151 20//151
f 19//152 78//152 79//152
f 20//153 80//153 21//153
f 20//154 79//154 80//154
f 21//155 81//155 22//155
f 21//156 80//156 81//156
f 22//157 82//157 23//157
f 22//158 81//158 82//158
f 23//159 83//159 24//159
f 23//160 82//160 83//160
f 24//161 84//161 25//161
f 24//162 83//162 84//162
f 25//163 85//163 26//163
f 25//164 84//164 85//164
f 26//165 86//165 27//165
f 26//166 85//166 86//166
f 27//167 87//167 28//167
f 27//168 86//168 87//168
f 28//169 88//169 29//169
f 28//170 87//170 88//170
f 29//171 89//171 30//171
f 29//172 88//172 89//172
f 30//173 90//173 31//173
f 30//174 89//174 90//174
f 31//175 91//175 32//175
f 31//176 90//176 91//176
f 32//177 92//177 33//177
f 32//178 91//178 92//178
f 33//179 93//179 34//179
f 33//180 92//180 93//180
f 34//181 94//181 35//181
f 34//182 93//182 94//182
f 35//183 95//183 36//183
f 35//184 94//184 95//184
f 36//185 96//185 37//185
f 36//186 95//186 96//186
f 37//187 97//187 38//187
f 37//188 96//188 97//188
f 38//189 98//189 39//189
f 38//190 97//190 98//190
f 39//191 99//191 40//191
f 39//192 98//192 99//192
f 40//193 100//193 41//193
f 40//194 99//194 100//194
f 41//195 101//195 42//195
f 41//196 100//196 101//196
f 42//197 102//197 43//197
f 42//198 101//198 102//198
f 43//199 103//199 44//199
f 43//200 102//200 103//200
f 44//201 104//201 45//201
f 44//202 103//202 104//202
f 45//203 105//203 46//203
f 45//204 104//204 105//204
f 46//205 106//205 47//205
f 46//206 105//206 106//206
f 47//207 107//207 48//207
f 47//208 106//208 107//208
f 48//209 108//209 49//209
f 48//210 107//210 108//210
f 49//211 109//211 50//211
f 49//212 108//212 109//212
f 50//213 110//213 51//213
f 50//214 109//214 110//214
f 51//215 111//215 52//215
f 51//216 110//216 111//216
f 52//217 112//217 53//217
f 52//218 111//218 112//218
f 53//219 113//219 54//219
f 53//220 112//220 113//220
f 54//221 114//221 55//221
f 54//222 113//222 114//222
f 55//223 115//223 56//223
f 55//224 114//224 115//224
f 56//225 116//225 57//225
f 56//226 115//226 116//226
f 57//227 117//227 58//227
f 57//228 116//228 117//228
f 58//229 118//229 59//229
f 58//230 117//230 118//230
f 59//231 60//231 1//231
f 59//232 118//232 60//232
