# construction_4570_assumed_A_Casa
# source A_Casa
# h_campo 0.000000
# modeled_height 6.000000
# height_kind assumed
# local_origin_world_x 172001.034850
# local_origin_world_y 402500.144600
mtllib construction_artifacts.mtl

o construction_4570_assumed_A_Casa
v -2.896500 0.657000 0.000000
v 0.439500 2.739000 0.000000
v 2.896500 -1.060000 0.000000
v -0.636500 -2.739000 0.000000
v -2.896500 0.657000 6.000000
v 0.439500 2.739000 6.000000
v 2.896500 -1.060000 6.000000
v -0.636500 -2.739000 6.000000
vn 0.000000 0.000000 -1.000000
vn 0.000000 -0.000000 -1.000000
vn 0.000000 -0.000000 1.000000
vn 0.000000 0.000000 1.000000
vn -0.529450 0.848341 0.000000
vn -0.529450 0.848341 0.000000
vn 0.839689 0.543068 0.000000
vn 0.839689 0.543068 -0.000000
vn 0.429229 -0.903196 0.000000
vn 0.429229 -0.903196 0.000000
vn -0.832503 -0.554021 0.000000
vn -0.832503 -0.554021 0.000000
usemtl assumed_base
f 4//1 1//1 2//1
f 2//2 3//2 4//2
usemtl assumed_roof
f 8//3 6//3 5//3
f 6//4 8//4 7//4
usemtl assumed_wall
f 1//5 6//5 2//5
f 1//6 5//6 6//6
f 2//7 7//7 3//7
f 2//8 6//8 7//8
f 3//9 8//9 4//9
f 3//10 7//10 8//10
f 4//11 5//11 1//11
f 4//12 8//12 5//12
