# construction_6630_assumed_A_Casa
# source A_Casa
# h_campo 0.000000
# modeled_height 6.000000
# height_kind assumed
# local_origin_world_x 172001.034850
# local_origin_world_y 402500.144600
mtllib construction_artifacts.mtl

o construction_6630_assumed_A_Casa
v -1.250500 7.594500 0.000000
v 7.339500 -2.313500 0.000000
v 0.863500 -7.594500 0.000000
v -3.744500 -1.734500 0.000000
v -5.063500 -1.831500 0.000000
v -6.843500 -0.332500 0.000000
v -6.838500 1.487500 0.000000
v -7.339500 2.839500 0.000000
v -1.250500 7.594500 6.000000
v 7.339500 -2.313500 6.000000
v 0.863500 -7.594500 6.000000
v -3.744500 -1.734500 6.000000
v -5.063500 -1.831500 6.000000
v -6.843500 -0.332500 6.000000
v -6.838500 1.487500 6.000000
v -7.339500 2.839500 6.000000
vn 0.000000 0.000000 -1.000000
vn 0.000000 0.000000 -1.000000
vn 0.000000 0.000000 -1.000000
vn 0.000000 0.000000 -1.000000
vn 0.000000 0.000000 -1.000000
vn 0.000000 0.000000 -1.000000
vn -0.000000 0.000000 1.000000
vn 0.000000 0.000000 1.000000
vn 0.000000 0.000000 1.000000
vn 0.000000 0.000000 1.000000
vn 0.000000 0.000000 1.000000
vn 0.000000 0.000000 1.000000
vn 0.755573 0.655064 0.000000
vn 0.755573 0.655064 -0.000000
vn 0.631979 -0.774985 0.000000
vn 0.631979 -0.774985 0.000000
vn -0.786076 -0.618130 0.000000
vn -0.786076 -0.618130 0.000000
vn 0.073343 -0.997307 0.000000
vn 0.073343 -0.997307 0.000000
vn -0.644149 -0.764900 0.000000
vn -0.644149 -0.764900 0.000000
vn -0.999996 0.002747 0.000000
vn -0.999996 0.002747 0.000000
vn -0.937690 -0.347472 0.000000
vn -0.937690 -0.347472 0.000000
vn -0.615481 0.788152 0.000000
vn -0.615481 0.788152 0.000000
usemtl assumed_base
f 8//1 1//1 2//1
f 8//2 2//2 3//2
f 8//3 3//3 4//3
f 8//4 4//4 5//4
f 5//5 6//5 7//5
f 5//6 7//6 8//6
usemtl assumed_roof
f 16//7 10//7 9//7
f 16//8 11//8 10//8
f 16//9 12//9 11//9
f 16//10 13//10 12//10
f 13//11 15//11 14//11
f 13//12 16//12 15//12
usemtl assumed_wall
f 1//13 10//13 2//13
f 1//14 9//14 10//14
f 2//15 11//15 3//15
f 2//16 10//16 11//16
f 3//17 12//17 4//17
f 3//18 11//18 12//18
f 4//19 13//19 5//19
f 4//20 12//20 13//20
f 5//21 14//21 6//21
f 5//22 13//22 14//22
f 6//23 15//23 7//23
f 6//24 14//24 15//24
f 7//25 16//25 8//25
f 7//26 15//26 16//26
f 8//27 9//27 1//27
f 8//28 16//28 9//28
