# construction_0428_assumed_A_Casa
# source A_Casa
# h_campo 0.000000
# modeled_height 6.000000
# height_kind assumed
# local_origin_world_x 172001.034850
# local_origin_world_y 402500.144600
mtllib construction_artifacts.mtl

o construction_0428_assumed_A_Casa
v -8.338000 17.283500 0.000000
v -1.114000 11.542500 0.000000
v 2.426000 15.914500 0.000000
v 6.534000 12.713500 0.000000
v 7.473000 14.262500 0.000000
v 16.091000 7.567500 0.000000
v 13.614000 4.003500 0.000000
v 17.863000 0.307500 0.000000
v 4.860000 -17.283500 0.000000
v -2.610000 -11.868500 0.000000
v -4.225000 -14.192500 0.000000
v -7.929000 -11.500500 0.000000
v -6.004000 -9.453500 0.000000
v -13.118000 -3.942500 0.000000
v -10.609000 -0.888500 0.000000
v -17.863000 4.729500 0.000000
v -8.338000 17.283500 6.000000
v -1.114000 11.542500 6.000000
v 2.426000 15.914500 6.000000
v 6.534000 12.713500 6.000000
v 7.473000 14.262500 6.000000
v 16.091000 7.567500 6.000000
v 13.614000 4.003500 6.000000
v 17.863000 0.307500 6.000000
v 4.860000 -17.283500 6.000000
v -2.610000 -11.868500 6.000000
v -4.225000 -14.192500 6.000000
v -7.929000 -11.500500 6.000000
v -6.004000 -9.453500 6.000000
v -13.118000 -3.942500 6.000000
v -10.609000 -0.888500 6.000000
v -17.863000 4.729500 6.000000
vn 0.000000 0.000000 -1.000000
vn 0.000000 0.000000 -1.000000
vn 0.000000 0.000000 -1.000000
vn 0.000000 0.000000 -1.000000
vn 0.000000 0.000000 -1.000000
vn 0.000000 0.000000 -1.000000
vn 0.000000 0.000000 -1.000000
vn 0.000000 0.000000 -1.000000
vn -0.000000 0.000000 -1.000000
vn 0.000000 0.000000 -1.000000
vn 0.000000 0.000000 -1.000000
vn 0.000000 0.000000 -1.000000
vn 0.000000 0.000000 -1.000000
vn -0.000000 0.000000 -1.000000
vn 0.000000 0.000000 1.000000
vn 0.000000 0.000000 1.000000
vn 0.000000 0.000000 1.000000
vn -0.000000 0.000000 1.000000
vn 0.000000 0.000000 1.000000
vn -0.000000 0.000000 1.000000
vn 0.000000 0.000000 1.000000
vn 0.000000 0.000000 1.000000
vn 0.000000 0.000000 1.000000
vn 0.000000 0.000000 1.000000
vn 0.000000 0.000000 1.000000
vn 0.000000 0.000000 1.000000
vn 0.000000 0.000000 1.000000
vn 0.000000 0.000000 1.000000
vn 0.622167 0.782884 0.000000
vn 0.622167 0.782884 -0.000000
vn -0.777179 0.629280 0.000000
vn -0.777179 0.629280 0.000000
vn 0.614645 0.788804 0.000000
vn 0.614645 0.788804 -0.000000
vn -0.855146 0.518387 0.000000
vn -0.855146 0.518387 0.000000
vn 0.613490 0.789702 0.000000
vn 0.613490 0.789702 -0.000000
vn 0.821154 -0.570707 0.000000
vn 0.821154 -0.570707 0.000000
vn 0.656302 0.754498 0.000000
vn 0.656302 0.754498 -0.000000
vn 0.804155 -0.594419 0.000000
vn 0.804155 -0.594419 0.000000
vn -0.586914 -0.809649 0.000000
vn -0.586914 -0.809649 0.000000
vn 0.821186 -0.570661 0.000000
vn 0.821186 -0.570661 0.000000
vn -0.587912 -0.808925 0.000000
vn -0.587912 -0.808925 0.000000
vn -0.728482 0.685065 0.000000
vn -0.728482 0.685065 0.000000
vn -0.612409 -0.790541 0.000000
vn -0.612409 -0.790541 0.000000
vn -0.772682 0.634793 0.000000
vn -0.772682 0.634793 0.000000
vn -0.612309 -0.790618 0.000000
vn -0.612309 -0.790618 0.000000
vn -0.796652 0.604438 0.000000
vn -0.796652 0.604438 0.000000
usemtl assumed_base
f 16//1 1//1 2//1
f 2//2 3//2 4//2
f 16//3 2//3 4//3
f 4//4 5//4 6//4
f 16//5 4//5 6//5
f 16//6 6//6 7//6
f 16//7 7//7 8//7
f 8//8 9//8 10//8
f 10//9 11//9 12//9
f 8//10 10//10 12//10
f 8//11 12//11 13//11
f 8//12 13//12 14//12
f 8//13 14//13 15//13
f 8//14 15//14 16//14
usemtl assumed_roof
f 32//15 18//15 17//15
f 18//16 20//16 19//16
f 32//17 20//17 18//17
f 20//18 22//18 21//18
f 32//19 22//19 20//19
f 32//20 23//20 22//20
f 32//21 24//21 23//21
f 24//22 26//22 25//22
f 26//23 28//23 27//23
f 24//24 28//24 26//24
f 24//25 29//25 28//25
f 24//26 30//26 29//26
f 24//27 31//27 30//27
f 24//28 32//28 31//28
usemtl assumed_wall
f 1//29 18//29 2//29
f 1//30 17//30 18//30
f 2//31 19//31 3//31
f 2//32 18//32 19//32
f 3//33 20//33 4//33
f 3//34 19//34 20//34
f 4//35 21//35 5//35
f 4//36 20//36 21//36
f 5//37 22//37 6//37
f 5//38 21//38 22//38
f 6//39 23//39 7//39
f 6//40 22//40 23//40
f 7//41 24//41 8//41
f 7//42 23//42 24//42
f 8//43 25//43 9//43
f 8//44 24//44 25//44
f 9//45 26//45 10//45
f 9//46 25//46 26//46
f 10//47 27//47 11//47
f 10//48 26//48 27//48
f 11//49 28//49 12//49
f 11//50 27//50 28//50
f 12//51 29//51 13//51
f 12//52 28//52 29//52
f 13//53 30//53 14//53
f 13//54 29//54 30//54
f 14//55 31//55 15//55
f 14//56 30//56 31//56
f 15//57 32//57 16//57
f 15//58 31//58 32//58
f 16//59 17//59 1//59
f 16//60 32//60 17//60
