# construction_2702_assumed_A_Casa
# source A_Casa
# h_campo 0.000000
# modeled_height 6.000000
# height_kind assumed
# local_origin_world_x 172001.034850
# local_origin_world_y 402500.144600
mtllib construction_artifacts.mtl

o construction_2702_assumed_A_Casa
v 8.763500 -18.905500 0.000000
v 1.309500 -21.493500 0.000000
v -1.146500 -12.709500 0.000000
v -9.711500 -15.519500 0.000000
v -13.825500 -2.818500 0.000000
v -6.402500 -0.323500 0.000000
v -4.271500 -6.001500 0.000000
v 3.369500 -3.767500 0.000000
v -0.212500 7.560500 0.000000
v 1.795500 7.864500 0.000000
v 1.419500 8.851500 0.000000
v 9.780500 21.493500 0.000000
v 13.825500 19.426500 0.000000
v 7.335500 9.762500 0.000000
v 11.288500 -1.578500 0.000000
v 6.951500 -2.821500 0.000000
v 8.403500 -6.707500 0.000000
v 9.332500 -9.194500 0.000000
v 6.154500 -10.292500 0.000000
v 8.529500 -18.132500 0.000000
v 8.763500 -18.905500 6.000000
v 1.309500 -21.493500 6.000000
v -1.146500 -12.709500 6.000000
v -9.711500 -15.519500 6.000000
v -13.825500 -2.818500 6.000000
v -6.402500 -0.323500 6.000000
v -4.271500 -6.001500 6.000000
v 3.369500 -3.767500 6.000000
v -0.212500 7.560500 6.000000
v 1.795500 7.864500 6.000000
v 1.419500 8.851500 6.000000
v 9.780500 21.493500 6.000000
v 13.825500 19.426500 6.000000
v 7.335500 9.762500 6.000000
v 11.288500 -1.578500 6.000000
v 6.951500 -2.821500 6.000000
v 8.403500 -6.707500 6.000000
v 9.332500 -9.194500 6.000000
v 6.154500 -10.292500 6.000000
v 8.529500 -18.132500 6.000000
vn 0.000000 -0.000000 -1.000000
vn -0.000000 0.000000 -1.000000
vn -0.000000 0.000000 -1.000000
vn 0.000000 0.000000 -1.000000
vn 0.000000 0.000000 -1.000000
vn 0.000000 0.000000 -1.000000
vn 0.000000 0.000000 -1.000000
vn 0.000000 0.000000 -1.000000
vn 0.000000 0.000000 -1.000000
vn 0.000000 0.000000 -1.000000
vn 0.000000 0.000000 -1.000000
vn 0.000000 0.000000 -1.000000
vn 0.000000 0.000000 -1.000000
vn 0.000000 0.000000 -1.000000
vn 0.000000 0.000000 -1.000000
vn 0.000000 0.000000 -1.000000
vn 0.000000 0.000000 -1.000000
vn 0.000000 0.000000 -1.000000
vn 0.000000 0.000000 1.000000
vn 0.000000 0.000000 1.000000
vn 0.000000 0.000000 1.000000
vn 0.000000 0.000000 1.000000
vn -0.000000 0.000000 1.000000
vn 0.000000 0.000000 1.000000
vn 0.000000 0.000000 1.000000
vn 0.000000 0.000000 1.000000
vn 0.000000 -0.000000 1.000000
vn 0.000000 0.000000 1.000000
vn 0.000000 0.000000 1.000000
vn -0.000000 0.000000 1.000000
vn -0.000000 0.000000 1.000000
vn 0.000000 0.000000 1.000000
vn 0.000000 0.000000 1.000000
vn 0.000000 0.000000 1.000000
vn 0.000000 0.000000 1.000000
vn 0.000000 0.000000 1.000000
vn 0.327990 -0.944681 0.000000
vn 0.327990 -0.944681 0.000000
vn -0.963064 -0.269272 0.000000
vn -0.963064 -0.269272 0.000000
vn 0.311731 -0.950170 0.000000
vn 0.311731 -0.950170 0.000000
vn -0.951338 -0.308149 0.000000
vn -0.951338 -0.308149 0.000000
vn -0.318602 0.947889 0.000000
vn -0.318602 0.947889 0.000000
vn 0.936234 0.351376 0.000000
vn 0.936234 0.351376 -0.000000
vn -0.280622 0.959818 0.000000
vn -0.280622 0.959818 0.000000
vn -0.953468 -0.301494 0.000000
vn -0.953468 -0.301494 0.000000
vn -0.149689 0.988733 0.000000
vn -0.149689 0.988733 0.000000
vn -0.934488 -0.355995 0.000000
vn -0.934488 -0.355995 0.000000
vn -0.834085 0.551636 0.000000
vn -0.834085 0.551636 0.000000
vn 0.455033 0.890474 0.000000
vn 0.455033 0.890474 -0.000000
vn 0.830169 -0.557512 0.000000
vn 0.830169 -0.557512 0.000000
vn 0.944282 0.329137 0.000000
vn 0.944282 0.329137 -0.000000
vn 0.275511 -0.961298 0.000000
vn 0.275511 -0.961298 0.000000
vn 0.936745 0.350014 0.000000
vn 0.936745 0.350014 -0.000000
vn 0.936777 0.349926 0.000000
vn 0.936777 0.349926 -0.000000
vn 0.326559 -0.945177 0.000000
vn 0.326559 -0.945177 0.000000
vn 0.957050 0.289923 0.000000
vn 0.957050 0.289923 -0.000000
vn 0.957108 0.289732 0.000000
vn 0.957108 0.289732 -0.000000
usemtl assumed_base
f 20//1 1//1 2//1
f 20//2 2//2 3//2
f 3//3 4//3 5//3
f 20//4 3//4 5//4
f 5//5 6//5 7//5
f 20//6 5//6 7//6
f 20//7 7//7 8//7
f 20//8 8//8 9//8
f 10//9 11//9 12//9
f 10//10 12//10 13//10
f 10//11 13//11 14//11
f 10//12 14//12 15//12
f 9//13 10//13 15//13
f 9//14 15//14 16//14
f 9//15 16//15 17//15
f 9//16 17//16 18//16
f 9//17 18//17 19//17
f 9//18 19//18 20//18
usemtl assumed_roof
f 40//19 22//19 21//19
f 40//20 23//20 22//20
f 23//21 25//21 24//21
f 40//22 25//22 23//22
f 25//23 27//23 26//23
f 40//24 27//24 25//24
f 40//25 28//25 27//25
f 40//26 29//26 28//26
f 30//27 32//27 31//27
f 30//28 33//28 32//28
f 30//29 34//29 33//29
f 30//30 35//30 34//30
f 29//31 35//31 30//31
f 29//32 36//32 35//32
f 29//33 37//33 36//33
f 29//34 38//34 37//34
f 29//35 39//35 38//35
f 29//36 40//36 39//36
usemtl assumed_wall
f 1//37 22//37 2//37
f 1//38 21//38 22//38
f 2//39 23//39 3//39
f 2//40 22//40 23//40
f 3//41 24//41 4//41
f 3//42 23//42 24//42
f 4//43 25//43 5//43
f 4//44 24//44 25//44
f 5//45 26//45 6//45
f 5//46 25//46 26//46
f 6//47 27//47 7//47
f 6//48 26//48 27//48
f 7//49 28//49 8//49
f 7//50 27//50 28//50
f 8//51 29//51 9//51
f 8//52 28//52 29//52
f 9//53 30//53 10//53
f 9//54 29//54 30//54
f 10//55 31//55 11//55
f 10//56 30//56 31//56
f 11//57 32//57 12//57
f 11//58 31//58 32//58
f 12//59 33//59 13//59
f 12//60 32//60 33//60
f 13//61 34//61 14//61
f 13//62 33//62 34//62
f 14//63 35//63 15//63
f 14//64 34//64 35//64
f 15//65 36//65 16//65
f 15//66 35//66 36//66
f 16//67 37//67 17//67
f 16//68 36//68 37//68
f 17//69 38//69 18//69
f 17//70 37//70 38//70
f 18//71 39//71 19//71
f 18//72 38//72 39//72
f 19//73 40//73 20//73
f 19//74 39//74 40//74
f 20//75 21//75 1//75
f 20//76 40//76 21//76
