# construction_3315_assumed_A_Casa
# source A_Casa
# h_campo 0.000000
# modeled_height 6.000000
# height_kind assumed
# local_origin_world_x 172001.034850
# local_origin_world_y 402500.144600
mtllib construction_artifacts.mtl

o construction_3315_assumed_A_Casa
v -21.409500 -9.612500 0.000000
v -7.909500 2.191500 0.000000
v -6.158500 1.548500 0.000000
v -2.048500 6.694500 0.000000
v 5.669500 13.394500 0.000000
v 8.414500 10.545500 0.000000
v 12.469500 14.552500 0.000000
v 21.409500 4.570500 0.000000
v 9.901500 -6.138500 0.000000
v 6.831500 -3.413500 0.000000
v 3.738500 -8.966500 0.000000
v -2.623500 -2.431500 0.000000
v -16.687500 -14.552500 0.000000
v -21.409500 -9.612500 6.000000
v -7.909500 2.191500 6.000000
v -6.158500 1.548500 6.000000
v -2.048500 6.694500 6.000000
v 5.669500 13.394500 6.000000
v 8.414500 10.545500 6.000000
v 12.469500 14.552500 6.000000
v 21.409500 4.570500 6.000000
v 9.901500 -6.138500 6.000000
v 6.831500 -3.413500 6.000000
v 3.738500 -8.966500 6.000000
v -2.623500 -2.431500 6.000000
v -16.687500 -14.552500 6.000000
vn 0.000000 0.000000 -1.000000
vn 0.000000 0.000000 -1.000000
vn 0.000000 0.000000 -1.000000
vn 0.000000 0.000000 -1.000000
vn 0.000000 0.000000 -1.000000
vn 0.000000 0.000000 -1.000000
vn 0.000000 -0.000000 -1.000000
vn 0.000000 0.000000 -1.000000
vn 0.000000 0.000000 -1.000000
vn 0.000000 0.000000 -1.000000
vn 0.000000 0.000000 -1.000000
vn 0.000000 -0.000000 1.000000
vn 0.000000 0.000000 1.000000
vn 0.000000 0.000000 1.000000
vn 0.000000 0.000000 1.000000
vn 0.000000 0.000000 1.000000
vn 0.000000 0.000000 1.000000
vn 0.000000 0.000000 1.000000
vn 0.000000 0.000000 1.000000
vn 0.000000 0.000000 1.000000
vn 0.000000 0.000000 1.000000
vn 0.000000 0.000000 1.000000
vn -0.658236 0.752812 0.000000
vn -0.658236 0.752812 0.000000
vn 0.344711 0.938709 0.000000
vn 0.344711 0.938709 -0.000000
vn -0.781372 0.624065 0.000000
vn -0.781372 0.624065 0.000000
vn -0.655549 0.755153 0.000000
vn -0.655549 0.755153 0.000000
vn 0.720128 0.693841 0.000000
vn 0.720128 0.693841 -0.000000
vn -0.702884 0.711304 0.000000
vn -0.702884 0.711304 0.000000
vn 0.744917 0.667157 0.000000
vn 0.744917 0.667157 -0.000000
vn 0.681236 -0.732064 0.000000
vn 0.681236 -0.732064 0.000000
vn -0.663834 -0.747880 0.000000
vn -0.663834 -0.747880 0.000000
vn 0.873622 -0.486604 0.000000
vn 0.873622 -0.486604 0.000000
vn -0.716527 -0.697559 0.000000
vn -0.716527 -0.697559 0.000000
vn 0.652843 -0.757494 0.000000
vn 0.652843 -0.757494 0.000000
vn -0.722877 -0.690977 0.000000
vn -0.722877 -0.690977 0.000000
usemtl assumed_base
f 13//1 1//1 2//1
f 13//2 2//2 3//2
f 13//3 3//3 4//3
f 13//4 4//4 5//4
f 13//5 5//5 6//5
f 13//6 6//6 7//6
f 7//7 8//7 9//7
f 7//8 9//8 10//8
f 7//9 10//9 11//9
f 7//10 11//10 12//10
f 7//11 12//11 13//11
usemtl assumed_roof
f 26//12 15//12 14//12
f 26//13 16//13 15//13
f 26//14 17//14 16//14
f 26//15 18//15 17//15
f 26//16 19//16 18//16
f 26//17 20//17 19//17
f 20//18 22//18 21//18
f 20//19 23//19 22//19
f 20//20 24//20 23//20
f 20//21 25//21 24//21
f 20//22 26//22 25//22
usemtl assumed_wall
f 1//23 15//23 2//23
f 1//24 14//24 15//24
f 2//25 16//25 3//25
f 2//26 15//26 16//26
f 3//27 17//27 4//27
f 3//28 16//28 17//28
f 4//29 18//29 5//29
f 4//30 17//30 18//30
f 5//31 19//31 6//31
f 5//32 18//32 19//32
f 6//33 20//33 7//33
f 6//34 19//34 20//34
f 7//35 21//35 8//35
f 7//36 20//36 21//36
f 8//37 22//37 9//37
f 8//38 21//38 22//38
f 9//39 23//39 10//39
f 9//40 22//40 23//40
f 10//41 24//41 11//41
f 10//42 23//42 24//42
f 11//43 25//43 12//43
f 11//44 24//44 25//44
f 12//45 26//45 13//45
f 12//46 25//46 26//46
f 13//47 14//47 1//47
f 13//48 26//48 14//48
