# construction_2624_assumed_A_Casa
# source A_Casa
# h_campo 0.000000
# modeled_height 6.000000
# height_kind assumed
# local_origin_world_x 172001.034850
# local_origin_world_y 402500.144600
mtllib construction_artifacts.mtl

o construction_2624_assumed_A_Casa
v -11.709000 1.708000 0.000000
v -9.004000 1.879000 0.000000
v -8.969000 3.105000 0.000000
v -6.428000 3.186000 0.000000
v -6.006000 6.689000 0.000000
v -2.137000 6.761000 0.000000
v -2.142000 8.834000 0.000000
v 3.269000 8.998000 0.000000
v 3.277000 5.192000 0.000000
v 11.469000 5.564000 0.000000
v 11.709000 -0.416000 0.000000
v 9.952000 -0.444000 0.000000
v 10.271000 -7.852000 0.000000
v -10.928000 -8.998000 0.000000
v -11.709000 1.708000 6.000000
v -9.004000 1.879000 6.000000
v -8.969000 3.105000 6.000000
v -6.428000 3.186000 6.000000
v -6.006000 6.689000 6.000000
v -2.137000 6.761000 6.000000
v -2.142000 8.834000 6.000000
v 3.269000 8.998000 6.000000
v 3.277000 5.192000 6.000000
v 11.469000 5.564000 6.000000
v 11.709000 -0.416000 6.000000
v 9.952000 -0.444000 6.000000
v 10.271000 -7.852000 6.000000
v -10.928000 -8.998000 6.000000
vn 0.000000 0.000000 -1.000000
vn 0.000000 0.000000 -1.000000
vn 0.000000 0.000000 -1.000000
vn 0.000000 0.000000 -1.000000
vn 0.000000 0.000000 -1.000000
vn 0.000000 0.000000 -1.000000
vn 0.000000 0.000000 -1.000000
vn 0.000000 0.000000 -1.000000
vn 0.000000 0.000000 -1.000000
vn 0.000000 -0.000000 -1.000000
vn 0.000000 0.000000 -1.000000
vn 0.000000 -0.000000 -1.000000
vn 0.000000 -0.000000 1.000000
vn 0.000000 0.000000 1.000000
vn 0.000000 0.000000 1.000000
vn 0.000000 0.000000 1.000000
vn 0.000000 0.000000 1.000000
vn 0.000000 -0.000000 1.000000
vn 0.000000 0.000000 1.000000
vn 0.000000 0.000000 1.000000
vn 0.000000 0.000000 1.000000
vn 0.000000 0.000000 1.000000
vn 0.000000 0.000000 1.000000
vn 0.000000 0.000000 1.000000
vn -0.063090 0.998008 0.000000
vn -0.063090 0.998008 0.000000
vn -0.999593 0.028536 0.000000
vn -0.999593 0.028536 0.000000
vn -0.031861 0.999492 0.000000
vn -0.031861 0.999492 0.000000
vn -0.992822 0.119603 0.000000
vn -0.992822 0.119603 0.000000
vn -0.018606 0.999827 0.000000
vn -0.018606 0.999827 0.000000
vn -0.999997 -0.002412 0.000000
vn -0.999997 -0.002412 0.000000
vn -0.030295 0.999541 0.000000
vn -0.030295 0.999541 0.000000
vn 0.999998 0.002102 0.000000
vn 0.999998 0.002102 -0.000000
vn -0.045363 0.998971 0.000000
vn -0.045363 0.998971 0.000000
vn 0.999196 0.040101 0.000000
vn 0.999196 0.040101 -0.000000
vn 0.015934 -0.999873 0.000000
vn 0.015934 -0.999873 0.000000
vn 0.999074 0.043022 0.000000
vn 0.999074 0.043022 -0.000000
vn 0.053980 -0.998542 0.000000
vn 0.053980 -0.998542 0.000000
vn -0.997350 -0.072756 0.000000
vn -0.997350 -0.072756 0.000000
usemtl assumed_base
f 14//1 1//1 2//1
f 2//2 3//2 4//2
f 14//3 2//3 4//3
f 4//4 5//4 6//4
f 14//5 4//5 6//5
f 6//6 7//6 8//6
f 14//7 6//7 8//7
f 14//8 8//8 9//8
f 14//9 9//9 10//9
f 10//10 11//10 12//10
f 14//11 10//11 12//11
f 12//12 13//12 14//12
usemtl assumed_roof
f 28//13 16//13 15//13
f 16//14 18//14 17//14
f 28//15 18//15 16//15
f 18//16 20//16 19//16
f 28//17 20//17 18//17
f 20//18 22//18 21//18
f 28//19 22//19 20//19
f 28//20 23//20 22//20
f 28//21 24//21 23//21
f 24//22 26//22 25//22
f 28//23 26//23 24//23
f 26//24 28//24 27//24
usemtl assumed_wall
f 1//25 16//25 2//25
f 1//26 15//26 16//26
f 2//27 17//27 3//27
f 2//28 16//28 17//28
f 3//29 18//29 4//29
f 3//30 17//30 18//30
f 4//31 19//31 5//31
f 4//32 18//32 19//32
f 5//33 20//33 6//33
f 5//34 19//34 20//34
f 6//35 21//35 7//35
f 6//36 20//36 21//36
f 7//37 22//37 8//37
f 7//38 21//38 22//38
f 8//39 23//39 9//39
f 8//40 22//40 23//40
f 9//41 24//41 10//41
f 9//42 23//42 24//42
f 10//43 25//43 11//43
f 10//44 24//44 25//44
f 11//45 26//45 12//45
f 11//46 25//46 26//46
f 12//47 27//47 13//47
f 12//48 26//48 27//48
f 13//49 28//49 14//49
f 13//50 27//50 28//50
f 14//51 15//51 1//51
f 14//52 28//52 15//52
