# construction_6119_assumed_A_Casa
# source A_Casa
# h_campo 0.000000
# modeled_height 6.000000
# height_kind assumed
# local_origin_world_x 172001.034850
# local_origin_world_y 402500.144600
mtllib construction_artifacts.mtl

o construction_6119_assumed_A_Casa
v 1.321500 -10.155000 0.000000
v -6.402500 1.896000 0.000000
v -7.164500 6.683000 0.000000
v 0.628500 10.155000 0.000000
v 2.644500 6.437000 0.000000
v 0.475500 5.433000 0.000000
v 2.172500 2.480000 0.000000
v 1.810500 1.957000 0.000000
v 7.164500 -6.368000 0.000000
v 1.321500 -10.155000 6.000000
v -6.402500 1.896000 6.000000
v -7.164500 6.683000 6.000000
v 0.628500 10.155000 6.000000
v 2.644500 6.437000 6.000000
v 0.475500 5.433000 6.000000
v 2.172500 2.480000 6.000000
v 1.810500 1.957000 6.000000
v 7.164500 -6.368000 6.000000
vn -0.000000 0.000000 -1.000000
vn 0.000000 0.000000 -1.000000
vn 0.000000 0.000000 -1.000000
vn 0.000000 0.000000 -1.000000
vn 0.000000 0.000000 -1.000000
vn 0.000000 0.000000 -1.000000
vn 0.000000 0.000000 -1.000000
vn 0.000000 0.000000 1.000000
vn 0.000000 0.000000 1.000000
vn -0.000000 0.000000 1.000000
vn 0.000000 0.000000 1.000000
vn 0.000000 0.000000 1.000000
vn 0.000000 0.000000 1.000000
vn 0.000000 0.000000 1.000000
vn -0.841911 -0.539617 0.000000
vn -0.841911 -0.539617 0.000000
vn -0.987566 -0.157202 0.000000
vn -0.987566 -0.157202 0.000000
vn -0.406965 0.913444 0.000000
vn -0.406965 0.913444 0.000000
vn 0.879086 0.476664 0.000000
vn 0.879086 0.476664 -0.000000
vn 0.420066 -0.907493 0.000000
vn 0.420066 -0.907493 0.000000
vn 0.867030 0.498256 0.000000
vn 0.867030 0.498256 -0.000000
vn 0.822249 -0.569128 0.000000
vn 0.822249 -0.569128 0.000000
vn 0.841077 0.540916 0.000000
vn 0.841077 0.540916 -0.000000
vn 0.543882 -0.839161 0.000000
vn 0.543882 -0.839161 0.000000
usemtl assumed_base
f 9//1 1//1 2//1
f 9//2 2//2 3//2
f 3//3 4//3 5//3
f 3//4 5//4 6//4
f 3//5 6//5 7//5
f 3//6 7//6 8//6
f 3//7 8//7 9//7
usemtl assumed_roof
f 18//8 11//8 10//8
f 18//9 12//9 11//9
f 12//10 14//10 13//10
f 12//11 15//11 14//11
f 12//12 16//12 15//12
f 12//13 17//13 16//13
f 12//14 18//14 17//14
usemtl assumed_wall
f 1//15 11//15 2//15
f 1//16 10//16 11//16
f 2//17 12//17 3//17
f 2//18 11//18 12//18
f 3//19 13//19 4//19
f 3//20 12//20 13//20
f 4//21 14//21 5//21
f 4//22 13//22 14//22
f 5//23 15//23 6//23
f 5//24 14//24 15//24
f 6//25 16//25 7//25
f 6//26 15//26 16//26
f 7//27 17//27 8//27
f 7//28 16//28 17//28
f 8//29 18//29 9//29
f 8//30 17//30 18//30
f 9//31 10//31 1//31
f 9//32 18//32 10//32
