# construction_6080_assumed_A_Casa
# source A_Casa
# h_campo 0.000000
# modeled_height 6.000000
# height_kind assumed
# local_origin_world_x 172001.034850
# local_origin_world_y 402500.144600
mtllib construction_artifacts.mtl

o construction_6080_assumed_A_Casa
v -2.750500 18.159000 0.000000
v 4.381500 18.306000 0.000000
v 4.213500 13.293000 0.000000
v 3.062500 13.290000 0.000000
v 3.365500 0.641000 0.000000
v 4.573500 0.406000 0.000000
v 4.602500 -4.662000 0.000000
v 3.422500 -4.652000 0.000000
v 4.541500 -17.959000 0.000000
v 1.130500 -18.306000 0.000000
v -0.705500 -0.017000 0.000000
v -2.376500 0.021000 0.000000
v -2.749500 7.742000 0.000000
v -4.476500 7.681000 0.000000
v -4.602500 12.664000 0.000000
v -3.085500 12.837000 0.000000
v -2.750500 18.159000 6.000000
v 4.381500 18.306000 6.000000
v 4.213500 13.293000 6.000000
v 3.062500 13.290000 6.000000
v 3.365500 0.641000 6.000000
v 4.573500 0.406000 6.000000
v 4.602500 -4.662000 6.000000
v 3.422500 -4.652000 6.000000
v 4.541500 -17.959000 6.000000
v 1.130500 -18.306000 6.000000
v -0.705500 -0.017000 6.000000
v -2.376500 0.021000 6.000000
v -2.749500 7.742000 6.000000
v -4.476500 7.681000 6.000000
v -4.602500 12.664000 6.000000
v -3.085500 12.837000 6.000000
vn 0.000000 0.000000 -1.000000
vn 0.000000 0.000000 -1.000000
vn 0.000000 0.000000 -1.000000
vn 0.000000 0.000000 -1.000000
vn 0.000000 0.000000 -1.000000
vn 0.000000 0.000000 -1.000000
vn 0.000000 0.000000 -1.000000
vn 0.000000 0.000000 -1.000000
vn -0.000000 0.000000 -1.000000
vn 0.000000 0.000000 -1.000000
vn 0.000000 0.000000 -1.000000
vn 0.000000 0.000000 -1.000000
vn 0.000000 -0.000000 -1.000000
vn 0.000000 0.000000 -1.000000
vn 0.000000 0.000000 1.000000
vn 0.000000 0.000000 1.000000
vn 0.000000 0.000000 1.000000
vn -0.000000 0.000000 1.000000
vn 0.000000 0.000000 1.000000
vn 0.000000 0.000000 1.000000
vn 0.000000 0.000000 1.000000
vn 0.000000 0.000000 1.000000
vn 0.000000 0.000000 1.000000
vn 0.000000 0.000000 1.000000
vn 0.000000 0.000000 1.000000
vn 0.000000 0.000000 1.000000
vn 0.000000 0.000000 1.000000
vn 0.000000 -0.000000 1.000000
vn -0.020607 0.999788 0.000000
vn -0.020607 0.999788 0.000000
vn 0.999439 -0.033494 0.000000
vn 0.999439 -0.033494 0.000000
vn 0.002606 -0.999997 0.000000
vn 0.002606 -0.999997 0.000000
vn 0.999713 0.023948 0.000000
vn 0.999713 0.023948 -0.000000
vn 0.190957 0.981598 0.000000
vn 0.190957 0.981598 -0.000000
vn 0.999984 0.005722 0.000000
vn 0.999984 0.005722 -0.000000
vn -0.008474 -0.999964 0.000000
vn -0.008474 -0.999964 0.000000
vn 0.996483 0.083795 0.000000
vn 0.996483 0.083795 -0.000000
vn 0.101207 -0.994865 0.000000
vn 0.101207 -0.994865 0.000000
vn -0.994999 -0.099886 0.000000
vn -0.994999 -0.099886 0.000000
vn -0.022735 -0.999742 0.000000
vn -0.022735 -0.999742 0.000000
vn -0.998835 -0.048254 0.000000
vn -0.998835 -0.048254 0.000000
vn 0.035299 -0.999377 0.000000
vn 0.035299 -0.999377 0.000000
vn -0.999680 -0.025278 0.000000
vn -0.999680 -0.025278 0.000000
vn -0.113306 0.993560 0.000000
vn -0.113306 0.993560 0.000000
vn -0.998025 0.062822 0.000000
vn -0.998025 0.062822 0.000000
usemtl assumed_base
f 16//1 1//1 2//1
f 2//2 3//2 4//2
f 16//3 2//3 4//3
f 16//4 4//4 5//4
f 5//5 6//5 7//5
f 16//6 5//6 7//6
f 16//7 7//7 8//7
f 16//8 8//8 9//8
f 9//9 10//9 11//9
f 16//10 9//10 11//10
f 11//11 12//11 13//11
f 16//12 11//12 13//12
f 16//13 13//13 14//13
f 14//14 15//14 16//14
usemtl assumed_roof
f 32//15 18//15 17//15
f 18//16 20//16 19//16
f 32//17 20//17 18//17
f 32//18 21//18 20//18
f 21//19 23//19 22//19
f 32//20 23//20 21//20
f 32//21 24//21 23//21
f 32//22 25//22 24//22
f 25//23 27//23 26//23
f 32//24 27//24 25//24
f 27//25 29//25 28//25
f 32//26 29//26 27//26
f 32//27 30//27 29//27
f 30//28 32//28 31//28
usemtl assumed_wall
f 1//29 18//29 2//29
f 1//30 17//30 18//30
f 2//31 19//31 3//31
f 2//32 18//32 19//32
f 3//33 20//33 4//33
f 3//34 19//34 20//34
f 4//35 21//35 5//35
f 4//36 20//36 21//36
f 5//37 22//37 6//37
f 5//38 21//38 22//38
f 6//39 23//39 7//39
f 6//40 22//40 23//40
f 7//41 24//41 8//41
f 7//42 23//42 24//42
f 8//43 25//43 9//43
f 8//44 24//44 25//44
f 9//45 26//45 10//45
f 9//46 25//46 26//46
f 10//47 27//47 11//47
f 10//48 26//48 27//48
f 11//49 28//49 12//49
f 11//50 27//50 28//50
f 12//51 29//51 13//51
f 12//52 28//52 29//52
f 13//53 30//53 14//53
f 13//54 29//54 30//54
f 14//55 31//55 15//55
f 14//56 30//56 31//56
f 15//57 32//57 16//57
f 15//58 31//58 32//58
f 16//59 17//59 1//59
f 16//60 32//60 17//60
