# construction_2083_assumed_A_Casa
# source A_Casa
# h_campo 0.000000
# modeled_height 6.000000
# height_kind assumed
# local_origin_world_x 172001.034850
# local_origin_world_y 402500.144600
mtllib construction_artifacts.mtl

o construction_2083_assumed_A_Casa
v -30.725500 -12.663500 0.000000
v -18.880500 -2.204500 0.000000
v -17.307500 -3.679500 0.000000
v -2.411500 10.822500 0.000000
v 1.923500 6.997500 0.000000
v 12.070500 17.188500 0.000000
v 15.341500 12.214500 0.000000
v 18.168500 13.782500 0.000000
v 15.376500 21.505500 0.000000
v 14.216500 22.632500 0.000000
v 25.791500 28.001500 0.000000
v 30.725500 17.912500 0.000000
v 26.417500 17.173500 0.000000
v 27.435500 14.821500 0.000000
v 20.317500 11.946500 0.000000
v 21.471500 8.453500 0.000000
v 25.238500 10.324500 0.000000
v 27.392500 5.050500 0.000000
v 20.479500 3.233500 0.000000
v 24.763500 -3.446500 0.000000
v 19.992500 -8.565500 0.000000
v 12.273500 -15.843500 0.000000
v 5.211500 -23.106500 0.000000
v -1.099500 -28.001500 0.000000
v -8.529500 -16.513500 0.000000
v -12.617500 -18.746500 0.000000
v -20.529500 -24.404500 0.000000
v -30.725500 -12.663500 6.000000
v -18.880500 -2.204500 6.000000
v -17.307500 -3.679500 6.000000
v -2.411500 10.822500 6.000000
v 1.923500 6.997500 6.000000
v 12.070500 17.188500 6.000000
v 15.341500 12.214500 6.000000
v 18.168500 13.782500 6.000000
v 15.376500 21.505500 6.000000
v 14.216500 22.632500 6.000000
v 25.791500 28.001500 6.000000
v 30.725500 17.912500 6.000000
v 26.417500 17.173500 6.000000
v 27.435500 14.821500 6.000000
v 20.317500 11.946500 6.000000
v 21.471500 8.453500 6.000000
v 25.238500 10.324500 6.000000
v 27.392500 5.050500 6.000000
v 20.479500 3.233500 6.000000
v 24.763500 -3.446500 6.000000
v 19.992500 -8.565500 6.000000
v 12.273500 -15.843500 6.000000
v 5.211500 -23.106500 6.000000
v -1.099500 -28.001500 6.000000
v -8.529500 -16.513500 6.000000
v -12.617500 -18.746500 6.000000
v -20.529500 -24.404500 6.000000
vn 0.000000 0.000000 -1.000000
vn 0.000000 0.000000 -1.000000
vn 0.000000 0.000000 -1.000000
vn 0.000000 0.000000 -1.000000
vn 0.000000 0.000000 -1.000000
vn 0.000000 0.000000 -1.000000
vn 0.000000 0.000000 -1.000000
vn 0.000000 0.000000 -1.000000
vn 0.000000 0.000000 -1.000000
vn 0.000000 0.000000 -1.000000
vn 0.000000 0.000000 -1.000000
vn 0.000000 0.000000 -1.000000
vn 0.000000 0.000000 -1.000000
vn 0.000000 0.000000 -1.000000
vn 0.000000 0.000000 -1.000000
vn 0.000000 0.000000 -1.000000
vn 0.000000 -0.000000 -1.000000
vn 0.000000 -0.000000 -1.000000
vn 0.000000 0.000000 -1.000000
vn 0.000000 0.000000 -1.000000
vn 0.000000 0.000000 -1.000000
vn 0.000000 0.000000 -1.000000
vn 0.000000 0.000000 -1.000000
vn 0.000000 0.000000 -1.000000
vn 0.000000 0.000000 -1.000000
vn 0.000000 -0.000000 1.000000
vn 0.000000 0.000000 1.000000
vn 0.000000 0.000000 1.000000
vn 0.000000 0.000000 1.000000
vn 0.000000 0.000000 1.000000
vn 0.000000 0.000000 1.000000
vn 0.000000 0.000000 1.000000
vn 0.000000 -0.000000 1.000000
vn 0.000000 -0.000000 1.000000
vn 0.000000 0.000000 1.000000
vn 0.000000 0.000000 1.000000
vn 0.000000 0.000000 1.000000
vn -0.000000 0.000000 1.000000
vn 0.000000 0.000000 1.000000
vn 0.000000 0.000000 1.000000
vn 0.000000 0.000000 1.000000
vn 0.000000 0.000000 1.000000
vn 0.000000 0.000000 1.000000
vn 0.000000 0.000000 1.000000
vn 0.000000 0.000000 1.000000
vn 0.000000 0.000000 1.000000
vn 0.000000 0.000000 1.000000
vn 0.000000 0.000000 1.000000
vn 0.000000 0.000000 1.000000
vn 0.000000 0.000000 1.000000
vn -0.661890 0.749601 0.000000
vn -0.661890 0.749601 0.000000
vn 0.684018 0.729465 0.000000
vn 0.684018 0.729465 -0.000000
vn -0.697567 0.716519 0.000000
vn -0.697567 0.716519 0.000000
vn 0.661622 0.749838 0.000000
vn 0.661622 0.749838 -0.000000
vn -0.708635 0.705575 0.000000
vn -0.708635 0.705575 0.000000
vn 0.835523 0.549456 0.000000
vn 0.835523 0.549456 -0.000000
vn -0.485039 0.874493 0.000000
vn -0.485039 0.874493 0.000000
vn -0.940432 -0.339983 0.000000
vn -0.940432 -0.339983 0.000000
vn -0.696831 -0.717235 0.000000
vn -0.696831 -0.717235 0.000000
vn -0.420782 0.907162 0.000000
vn -0.420782 0.907162 0.000000
vn 0.898328 0.439325 0.000000
vn 0.898328 0.439325 -0.000000
vn 0.169072 -0.985604 0.000000
vn 0.169072 -0.985604 0.000000
vn 0.917726 0.397213 0.000000
vn 0.917726 0.397213 -0.000000
vn 0.374510 -0.927223 0.000000
vn 0.374510 -0.927223 0.000000
vn 0.949523 0.313699 0.000000
vn 0.949523 0.313699 -0.000000
vn -0.444834 0.895613 0.000000
vn -0.444834 0.895613 0.000000
vn 0.925765 0.378100 0.000000
vn 0.925765 0.378100 -0.000000
vn 0.254204 -0.967151 0.000000
vn 0.254204 -0.967151 0.000000
vn 0.841768 0.539840 0.000000
vn 0.841768 0.539840 -0.000000
vn 0.731535 -0.681804 0.000000
vn 0.731535 -0.681804 0.000000
vn 0.686017 -0.727585 0.000000
vn 0.686017 -0.727585 0.000000
vn 0.716958 -0.697116 0.000000
vn 0.716958 -0.697116 0.000000
vn 0.612883 -0.790174 0.000000
vn 0.612883 -0.790174 0.000000
vn -0.839684 -0.543075 0.000000
vn -0.839684 -0.543075 0.000000
vn 0.479378 -0.877608 0.000000
vn 0.479378 -0.877608 0.000000
vn 0.581685 -0.813414 0.000000
vn 0.581685 -0.813414 0.000000
vn -0.755037 -0.655682 0.000000
vn -0.755037 -0.655682 0.000000
usemtl assumed_base
f 27//1 1//1 2//1
f 27//2 2//2 3//2
f 27//3 3//3 4//3
f 27//4 4//4 5//4
f 27//5 5//5 6//5
f 27//6 6//6 7//6
f 27//7 7//7 8//7
f 9//8 10//8 11//8
f 8//9 9//9 11//9
f 11//10 12//10 13//10
f 8//11 11//11 13//11
f 8//12 13//12 14//12
f 8//13 14//13 15//13
f 27//14 8//14 15//14
f 27//15 15//15 16//15
f 27//16 16//16 17//16
f 17//17 18//17 19//17
f 19//18 20//18 21//18
f 19//19 21//19 22//19
f 19//20 22//20 23//20
f 19//21 23//21 24//21
f 17//22 19//22 24//22
f 17//23 24//23 25//23
f 17//24 25//24 26//24
f 17//25 26//25 27//25
usemtl assumed_roof
f 54//26 29//26 28//26
f 54//27 30//27 29//27
f 54//28 31//28 30//28
f 54//29 32//29 31//29
f 54//30 33//30 32//30
f 54//31 34//31 33//31
f 54//32 35//32 34//32
f 36//33 38//33 37//33
f 35//34 38//34 36//34
f 38//35 40//35 39//35
f 35//36 40//36 38//36
f 35//37 41//37 40//37
f 35//38 42//38 41//38
f 54//39 42//39 35//39
f 54//40 43//40 42//40
f 54//41 44//41 43//41
f 44//42 46//42 45//42
f 46//43 48//43 47//43
f 46//44 49//44 48//44
f 46//45 50//45 49//45
f 46//46 51//46 50//46
f 44//47 51//47 46//47
f 44//48 52//48 51//48
f 44//49 53//49 52//49
f 44//50 54//50 53//50
usemtl assumed_wall
f 1//51 29//51 2//51
f 1//52 28//52 29//52
f 2//53 30//53 3//53
f 2//54 29//54 30//54
f 3//55 31//55 4//55
f 3//56 30//56 31//56
f 4//57 32//57 5//57
f 4//58 31//58 32//58
f 5//59 33//59 6//59
f 5//60 32//60 33//60
f 6//61 34//61 7//61
f 6//62 33//62 34//62
f 7//63 35//63 8//63
f 7//64 34//64 35//64
f 8//65 36//65 9//65
f 8//66 35//66 36//66
f 9//67 37//67 10//67
f 9//68 36//68 37//68
f 10//69 38//69 11//69
f 10//70 37//70 38//70
f 11//71 39//71 12//71
f 11//72 38//72 39//72
f 12//73 40//73 13//73
f 12//74 39//74 40//74
f 13//75 41//75 14//75
f 13//76 40//76 41//76
f 14//77 42//77 15//77
f 14//78 41//78 42//78
f 15//79 43//79 16//79
f 15//80 42//80 43//80
f 16//81 44//81 17//81
f 16//82 43//82 44//82
f 17//83 45//83 18//83
f 17//84 44//84 45//84
f 18//85 46//85 19//85
f 18//86 45//86 46//86
f 19//87 47//87 20//87
f 19//88 46//88 47//88
f 20//89 48//89 21//89
f 20//90 47//90 48//90
f 21//91 49//91 22//91
f 21//92 48//92 49//92
f 22//93 50//93 23//93
f 22//94 49//94 50//94
f 23//95 51//95 24//95
f 23//96 50//96 51//96
f 24//97 52//97 25//97
f 24//98 51//98 52//98
f 25//99 53//99 26//99
f 25//100 52//100 53//100
f 26//101 54//101 27//101
f 26//102 53//102 54//102
f 27//103 28//103 1//103
f 27//104 54//104 28//104
