# construction_2058_assumed_A_Casa
# source A_Casa
# h_campo 0.000000
# modeled_height 6.000000
# height_kind assumed
# local_origin_world_x 172001.034850
# local_origin_world_y 402500.144600
mtllib construction_artifacts.mtl

o construction_2058_assumed_A_Casa
v -6.791500 -11.847000 0.000000
v -7.762500 4.956000 0.000000
v -15.484500 5.248000 0.000000
v -16.203500 16.730000 0.000000
v -9.926500 16.892000 0.000000
v -10.014500 17.925000 0.000000
v -5.242500 18.088000 0.000000
v -5.243500 17.124000 0.000000
v 8.107500 17.733000 0.000000
v 8.459500 15.637000 0.000000
v 13.782500 16.134000 0.000000
v 16.203500 -7.223000 0.000000
v 9.946500 -7.444000 0.000000
v 10.617500 -17.401000 0.000000
v -2.438500 -18.088000 0.000000
v -2.817500 -11.870000 0.000000
v -6.791500 -11.847000 6.000000
v -7.762500 4.956000 6.000000
v -15.484500 5.248000 6.000000
v -16.203500 16.730000 6.000000
v -9.926500 16.892000 6.000000
v -10.014500 17.925000 6.000000
v -5.242500 18.088000 6.000000
v -5.243500 17.124000 6.000000
v 8.107500 17.733000 6.000000
v 8.459500 15.637000 6.000000
v 13.782500 16.134000 6.000000
v 16.203500 -7.223000 6.000000
v 9.946500 -7.444000 6.000000
v 10.617500 -17.401000 6.000000
v -2.438500 -18.088000 6.000000
v -2.817500 -11.870000 6.000000
vn 0.000000 0.000000 -1.000000
vn 0.000000 0.000000 -1.000000
vn 0.000000 0.000000 -1.000000
vn 0.000000 0.000000 -1.000000
vn 0.000000 0.000000 -1.000000
vn 0.000000 0.000000 -1.000000
vn 0.000000 0.000000 -1.000000
vn 0.000000 0.000000 -1.000000
vn 0.000000 0.000000 -1.000000
vn 0.000000 0.000000 -1.000000
vn 0.000000 -0.000000 -1.000000
vn 0.000000 0.000000 -1.000000
vn 0.000000 0.000000 -1.000000
vn -0.000000 0.000000 -1.000000
vn 0.000000 0.000000 1.000000
vn 0.000000 0.000000 1.000000
vn 0.000000 0.000000 1.000000
vn 0.000000 0.000000 1.000000
vn 0.000000 0.000000 1.000000
vn -0.000000 0.000000 1.000000
vn 0.000000 0.000000 1.000000
vn 0.000000 -0.000000 1.000000
vn 0.000000 0.000000 1.000000
vn 0.000000 0.000000 1.000000
vn 0.000000 0.000000 1.000000
vn 0.000000 0.000000 1.000000
vn -0.000000 0.000000 1.000000
vn 0.000000 0.000000 1.000000
vn -0.998334 -0.057691 0.000000
vn -0.998334 -0.057691 0.000000
vn -0.037787 -0.999286 0.000000
vn -0.037787 -0.999286 0.000000
vn -0.998045 -0.062497 0.000000
vn -0.998045 -0.062497 0.000000
vn -0.025800 0.999667 0.000000
vn -0.025800 0.999667 0.000000
vn -0.996391 -0.084881 0.000000
vn -0.996391 -0.084881 0.000000
vn -0.034138 0.999417 0.000000
vn -0.034138 0.999417 0.000000
vn 0.999999 -0.001037 0.000000
vn 0.999999 -0.001037 0.000000
vn -0.045567 0.998961 0.000000
vn -0.045567 0.998961 0.000000
vn 0.986190 0.165620 0.000000
vn 0.986190 0.165620 -0.000000
vn -0.092964 0.995669 0.000000
vn -0.092964 0.995669 0.000000
vn 0.994671 0.103100 0.000000
vn 0.994671 0.103100 -0.000000
vn 0.035298 -0.999377 0.000000
vn 0.035298 -0.999377 0.000000
vn 0.997737 0.067237 0.000000
vn 0.997737 0.067237 -0.000000
vn 0.052547 -0.998618 0.000000
vn 0.052547 -0.998618 0.000000
vn -0.998148 -0.060839 0.000000
vn -0.998148 -0.060839 0.000000
vn -0.005788 -0.999983 0.000000
vn -0.005788 -0.999983 0.000000
usemtl assumed_base
f 16//1 1//1 2//1
f 2//2 3//2 4//2
f 2//3 4//3 5//3
f 16//4 2//4 5//4
f 16//5 5//5 6//5
f 6//6 7//6 8//6
f 16//7 6//7 8//7
f 16//8 8//8 9//8
f 16//9 9//9 10//9
f 16//10 10//10 11//10
f 11//11 12//11 13//11
f 16//12 11//12 13//12
f 16//13 13//13 14//13
f 14//14 15//14 16//14
usemtl assumed_roof
f 32//15 18//15 17//15
f 18//16 20//16 19//16
f 18//17 21//17 20//17
f 32//18 21//18 18//18
f 32//19 22//19 21//19
f 22//20 24//20 23//20
f 32//21 24//21 22//21
f 32//22 25//22 24//22
f 32//23 26//23 25//23
f 32//24 27//24 26//24
f 27//25 29//25 28//25
f 32//26 29//26 27//26
f 32//27 30//27 29//27
f 30//28 32//28 31//28
usemtl assumed_wall
f 1//29 18//29 2//29
f 1//30 17//30 18//30
f 2//31 19//31 3//31
f 2//32 18//32 19//32
f 3//33 20//33 4//33
f 3//34 19//34 20//34
f 4//35 21//35 5//35
f 4//36 20//36 21//36
f 5//37 22//37 6//37
f 5//38 21//38 22//38
f 6//39 23//39 7//39
f 6//40 22//40 23//40
f 7//41 24//41 8//41
f 7//42 23//42 24//42
f 8//43 25//43 9//43
f 8//44 24//44 25//44
f 9//45 26//45 10//45
f 9//46 25//46 26//46
f 10//47 27//47 11//47
f 10//48 26//48 27//48
f 11//49 28//49 12//49
f 11//50 27//50 28//50
f 12//51 29//51 13//51
f 12//52 28//52 29//52
f 13//53 30//53 14//53
f 13//54 29//54 30//54
f 14//55 31//55 15//55
f 14//56 30//56 31//56
f 15//57 32//57 16//57
f 15//58 31//58 32//58
f 16//59 17//59 1//59
f 16//60 32//60 17//60
