# construction_0609_assumed_A_Casa
# source A_Casa
# h_campo 0.000000
# modeled_height 6.000000
# height_kind assumed
# local_origin_world_x 172001.034850
# local_origin_world_y 402500.144600
mtllib construction_artifacts.mtl

o construction_0609_assumed_A_Casa
v -20.490000 -4.941500 0.000000
v -18.170000 1.989500 0.000000
v -15.004000 0.988500 0.000000
v -10.353000 14.336500 0.000000
v -3.488000 9.030500 0.000000
v -5.486000 6.645500 0.000000
v -2.714000 4.631500 0.000000
v 3.475000 12.123500 0.000000
v 10.781000 6.179500 0.000000
v 4.518000 -1.743500 0.000000
v 6.192000 -2.968500 0.000000
v 7.173000 -3.783500 0.000000
v 13.189000 4.669500 0.000000
v 16.180000 7.842500 0.000000
v 20.490000 5.192500 0.000000
v 17.666000 -0.019500 0.000000
v 16.061000 0.750500 0.000000
v 12.438000 -4.970500 0.000000
v 7.853000 -10.416500 0.000000
v 3.904000 -6.973500 0.000000
v 0.923000 -10.685500 0.000000
v -0.907000 -10.590500 0.000000
v -4.049000 -14.336500 0.000000
v -14.201000 -6.968500 0.000000
v -13.337000 -5.532500 0.000000
v -15.483000 -4.333500 0.000000
v -16.795000 -5.443500 0.000000
v -20.490000 -4.941500 6.000000
v -18.170000 1.989500 6.000000
v -15.004000 0.988500 6.000000
v -10.353000 14.336500 6.000000
v -3.488000 9.030500 6.000000
v -5.486000 6.645500 6.000000
v -2.714000 4.631500 6.000000
v 3.475000 12.123500 6.000000
v 10.781000 6.179500 6.000000
v 4.518000 -1.743500 6.000000
v 6.192000 -2.968500 6.000000
v 7.173000 -3.783500 6.000000
v 13.189000 4.669500 6.000000
v 16.180000 7.842500 6.000000
v 20.490000 5.192500 6.000000
v 17.666000 -0.019500 6.000000
v 16.061000 0.750500 6.000000
v 12.438000 -4.970500 6.000000
v 7.853000 -10.416500 6.000000
v 3.904000 -6.973500 6.000000
v 0.923000 -10.685500 6.000000
v -0.907000 -10.590500 6.000000
v -4.049000 -14.336500 6.000000
v -14.201000 -6.968500 6.000000
v -13.337000 -5.532500 6.000000
v -15.483000 -4.333500 6.000000
v -16.795000 -5.443500 6.000000
vn 0.000000 0.000000 -1.000000
vn 0.000000 0.000000 -1.000000
vn 0.000000 0.000000 -1.000000
vn 0.000000 0.000000 -1.000000
vn 0.000000 0.000000 -1.000000
vn 0.000000 0.000000 -1.000000
vn 0.000000 0.000000 -1.000000
vn 0.000000 0.000000 -1.000000
vn 0.000000 0.000000 -1.000000
vn 0.000000 0.000000 -1.000000
vn 0.000000 0.000000 -1.000000
vn 0.000000 0.000000 -1.000000
vn 0.000000 0.000000 -1.000000
vn 0.000000 0.000000 -1.000000
vn 0.000000 0.000000 -1.000000
vn 0.000000 0.000000 -1.000000
vn 0.000000 0.000000 -1.000000
vn 0.000000 0.000000 -1.000000
vn 0.000000 0.000000 -1.000000
vn 0.000000 0.000000 -1.000000
vn 0.000000 0.000000 -1.000000
vn 0.000000 -0.000000 -1.000000
vn 0.000000 0.000000 -1.000000
vn 0.000000 0.000000 -1.000000
vn 0.000000 0.000000 -1.000000
vn 0.000000 0.000000 1.000000
vn 0.000000 -0.000000 1.000000
vn 0.000000 0.000000 1.000000
vn 0.000000 0.000000 1.000000
vn 0.000000 0.000000 1.000000
vn 0.000000 0.000000 1.000000
vn -0.000000 0.000000 1.000000
vn 0.000000 0.000000 1.000000
vn 0.000000 0.000000 1.000000
vn 0.000000 0.000000 1.000000
vn 0.000000 0.000000 1.000000
vn 0.000000 0.000000 1.000000
vn 0.000000 0.000000 1.000000
vn -0.000000 0.000000 1.000000
vn 0.000000 0.000000 1.000000
vn 0.000000 0.000000 1.000000
vn 0.000000 0.000000 1.000000
vn 0.000000 0.000000 1.000000
vn 0.000000 0.000000 1.000000
vn 0.000000 0.000000 1.000000
vn 0.000000 0.000000 1.000000
vn 0.000000 0.000000 1.000000
vn 0.000000 0.000000 1.000000
vn 0.000000 0.000000 1.000000
vn 0.000000 0.000000 1.000000
vn -0.948286 0.317418 0.000000
vn -0.948286 0.317418 0.000000
vn 0.301463 0.953478 0.000000
vn 0.301463 0.953478 -0.000000
vn -0.944316 0.329039 0.000000
vn -0.944316 0.329039 0.000000
vn 0.611536 0.791217 0.000000
vn 0.611536 0.791217 -0.000000
vn 0.766559 -0.642174 0.000000
vn 0.766559 -0.642174 0.000000
vn 0.587790 0.809014 0.000000
vn 0.587790 0.809014 -0.000000
vn -0.770964 0.636879 0.000000
vn -0.770964 0.636879 0.000000
vn 0.631096 0.775705 0.000000
vn 0.631096 0.775705 -0.000000
vn 0.784497 -0.620132 0.000000
vn 0.784497 -0.620132 0.000000
vn 0.590548 0.807002 0.000000
vn 0.590548 0.807002 -0.000000
vn 0.639027 0.769184 0.000000
vn 0.639027 0.769184 -0.000000
vn -0.814729 0.579842 0.000000
vn -0.814729 0.579842 0.000000
vn -0.727668 0.685930 0.000000
vn -0.727668 0.685930 0.000000
vn 0.523767 0.851862 0.000000
vn 0.523767 0.851862 -0.000000
vn 0.879233 -0.476392 0.000000
vn 0.879233 -0.476392 0.000000
vn -0.432548 -0.901611 0.000000
vn -0.432548 -0.901611 0.000000
vn 0.844839 -0.535020 0.000000
vn 0.844839 -0.535020 0.000000
vn 0.764988 -0.644045 0.000000
vn 0.764988 -0.644045 0.000000
vn -0.657166 -0.753746 0.000000
vn -0.657166 -0.753746 0.000000
vn 0.779699 -0.626154 0.000000
vn 0.779699 -0.626154 0.000000
vn -0.051843 -0.998655 0.000000
vn -0.051843 -0.998655 0.000000
vn 0.766172 -0.642636 0.000000
vn 0.766172 -0.642636 0.000000
vn -0.587375 -0.809315 0.000000
vn -0.587375 -0.809315 0.000000
vn -0.856860 0.515548 0.000000
vn -0.856860 0.515548 0.000000
vn -0.487748 -0.872984 0.000000
vn -0.487748 -0.872984 0.000000
vn 0.645890 -0.763430 0.000000
vn 0.645890 -0.763430 0.000000
vn -0.134623 -0.990897 0.000000
vn -0.134623 -0.990897 0.000000
usemtl assumed_base
f 27//1 1//1 2//1
f 27//2 2//2 3//2
f 27//3 3//3 4//3
f 27//4 4//4 5//4
f 27//5 5//5 6//5
f 7//6 8//6 9//6
f 7//7 9//7 10//7
f 6//8 7//8 10//8
f 10//9 11//9 12//9
f 12//10 13//10 14//10
f 12//11 14//11 15//11
f 15//12 16//12 17//12
f 12//13 15//13 17//13
f 12//14 17//14 18//14
f 12//15 18//15 19//15
f 10//16 12//16 19//16
f 6//17 10//17 19//17
f 6//18 19//18 20//18
f 6//19 20//19 21//19
f 6//20 21//20 22//20
f 6//21 22//21 23//21
f 6//22 23//22 24//22
f 6//23 24//23 25//23
f 6//24 25//24 26//24
f 6//25 26//25 27//25
usemtl assumed_roof
f 54//26 29//26 28//26
f 54//27 30//27 29//27
f 54//28 31//28 30//28
f 54//29 32//29 31//29
f 54//30 33//30 32//30
f 34//31 36//31 35//31
f 34//32 37//32 36//32
f 33//33 37//33 34//33
f 37//34 39//34 38//34
f 39//35 41//35 40//35
f 39//36 42//36 41//36
f 42//37 44//37 43//37
f 39//38 44//38 42//38
f 39//39 45//39 44//39
f 39//40 46//40 45//40
f 37//41 46//41 39//41
f 33//42 46//42 37//42
f 33//43 47//43 46//43
f 33//44 48//44 47//44
f 33//45 49//45 48//45
f 33//46 50//46 49//46
f 33//47 51//47 50//47
f 33//48 52//48 51//48
f 33//49 53//49 52//49
f 33//50 54//50 53//50
usemtl assumed_wall
f 1//51 29//51 2//51
f 1//52 28//52 29//52
f 2//53 30//53 3//53
f 2//54 29//54 30//54
f 3//55 31//55 4//55
f 3//56 30//56 31//56
f 4//57 32//57 5//57
f 4//58 31//58 32//58
f 5//59 33//59 6//59
f 5//60 32//60 33//60
f 6//61 34//61 7//61
f 6//62 33//62 34//62
f 7//63 35//63 8//63
f 7//64 34//64 35//64
f 8//65 36//65 9//65
f 8//66 35//66 36//66
f 9//67 37//67 10//67
f 9//68 36//68 37//68
f 10//69 38//69 11//69
f 10//70 37//70 38//70
f 11//71 39//71 12//71
f 11//72 38//72 39//72
f 12//73 40//73 13//73
f 12//74 39//74 40//74
f 13//75 41//75 14//75
f 13//76 40//76 41//76
f 14//77 42//77 15//77
f 14//78 41//78 42//78
f 15//79 43//79 16//79
f 15//80 42//80 43//80
f 16//81 44//81 17//81
f 16//82 43//82 44//82
f 17//83 45//83 18//83
f 17//84 44//84 45//84
f 18//85 46//85 19//85
f 18//86 45//86 46//86
f 19//87 47//87 20//87
f 19//88 46//88 47//88
f 20//89 48//89 21//89
f 20//90 47//90 48//90
f 21//91 49//91 22//91
f 21//92 48//92 49//92
f 22//93 50//93 23//93
f 22//94 49//94 50//94
f 23//95 51//95 24//95
f 23//96 50//96 51//96
f 24//97 52//97 25//97
f 24//98 51//98 52//98
f 25//99 53//99 26//99
f 25//100 52//100 53//100
f 26//101 54//101 27//101
f 26//102 53//102 54//102
f 27//103 28//103 1//103
f 27//104 54//104 28//104
