# construction_2364_assumed_A_Casa
# source A_Casa
# h_campo 0.000000
# modeled_height 6.000000
# height_kind assumed
# local_origin_world_x 172001.034850
# local_origin_world_y 402500.144600
mtllib construction_artifacts.mtl

o construction_2364_assumed_A_Casa
v 27.824000 -17.174500 0.000000
v 17.938000 -24.666500 0.000000
v 11.997000 -26.689500 0.000000
v 7.804000 -24.669500 0.000000
v 5.048000 -21.407500 0.000000
v 3.926000 -21.876500 0.000000
v 1.150000 -19.499500 0.000000
v 7.331000 -7.477500 0.000000
v 4.881000 -6.231500 0.000000
v 6.661000 -2.796500 0.000000
v 10.053000 -2.014500 0.000000
v 9.569000 -0.082500 0.000000
v 5.352000 -0.854500 0.000000
v 4.837000 2.047500 0.000000
v 3.343000 1.301500 0.000000
v 1.146000 -3.261500 0.000000
v -5.667000 -0.821500 0.000000
v -14.353000 -13.022500 0.000000
v -12.385000 -14.461500 0.000000
v -16.558000 -20.367500 0.000000
v -27.442000 -11.499500 0.000000
v -28.465000 -12.542500 0.000000
v -34.123000 -6.945500 0.000000
v -30.164000 0.842500 0.000000
v -20.362000 11.394500 0.000000
v -9.814000 17.341500 0.000000
v -9.887000 18.159500 0.000000
v 8.491000 26.689500 0.000000
v 11.922000 14.817500 0.000000
v 14.690000 15.737500 0.000000
v 12.465000 22.066500 0.000000
v 18.328000 25.835500 0.000000
v 28.645000 10.351500 0.000000
v 34.123000 -2.099500 0.000000
v 34.047000 -10.994500 0.000000
v 30.093000 -10.873500 0.000000
v 27.438000 -16.481500 0.000000
v 27.824000 -17.174500 6.000000
v 17.938000 -24.666500 6.000000
v 11.997000 -26.689500 6.000000
v 7.804000 -24.669500 6.000000
v 5.048000 -21.407500 6.000000
v 3.926000 -21.876500 6.000000
v 1.150000 -19.499500 6.000000
v 7.331000 -7.477500 6.000000
v 4.881000 -6.231500 6.000000
v 6.661000 -2.796500 6.000000
v 10.053000 -2.014500 6.000000
v 9.569000 -0.082500 6.000000
v 5.352000 -0.854500 6.000000
v 4.837000 2.047500 6.000000
v 3.343000 1.301500 6.000000
v 1.146000 -3.261500 6.000000
v -5.667000 -0.821500 6.000000
v -14.353000 -13.022500 6.000000
v -12.385000 -14.461500 6.000000
v -16.558000 -20.367500 6.000000
v -27.442000 -11.499500 6.000000
v -28.465000 -12.542500 6.000000
v -34.123000 -6.945500 6.000000
v -30.164000 0.842500 6.000000
v -20.362000 11.394500 6.000000
v -9.814000 17.341500 6.000000
v -9.887000 18.159500 6.000000
v 8.491000 26.689500 6.000000
v 11.922000 14.817500 6.000000
v 14.690000 15.737500 6.000000
v 12.465000 22.066500 6.000000
v 18.328000 25.835500 6.000000
v 28.645000 10.351500 6.000000
v 34.123000 -2.099500 6.000000
v 34.047000 -10.994500 6.000000
v 30.093000 -10.873500 6.000000
v 27.438000 -16.481500 6.000000
v -11.385000 5.159500 0.000000
v -14.339000 7.233500 0.000000
v -21.631000 -0.250500 0.000000
v -17.142000 -2.584500 0.000000
v -11.385000 5.159500 6.000000
v -14.339000 7.233500 6.000000
v -21.631000 -0.250500 6.000000
v -17.142000 -2.584500 6.000000
v 24.689000 -2.428500 0.000000
v 22.814000 5.898500 0.000000
v 19.088000 2.958500 0.000000
v 20.368000 -3.291500 0.000000
v 24.689000 -2.428500 6.000000
v 22.814000 5.898500 6.000000
v 19.088000 2.958500 6.000000
v 20.368000 -3.291500 6.000000
vn 0.000000 -0.000000 -1.000000
vn 0.000000 0.000000 -1.000000
vn 0.000000 0.000000 -1.000000
vn 0.000000 0.000000 -1.000000
vn -0.000000 0.000000 -1.000000
vn 0.000000 0.000000 -1.000000
vn -0.000000 0.000000 -1.000000
vn 0.000000 0.000000 -1.000000
vn 0.000000 0.000000 -1.000000
vn 0.000000 0.000000 -1.000000
vn 0.000000 0.000000 -1.000000
vn -0.000000 0.000000 -1.000000
vn 0.000000 0.000000 -1.000000
vn 0.000000 0.000000 -1.000000
vn 0.000000 -0.000000 -1.000000
vn -0.000000 0.000000 -1.000000
vn 0.000000 0.000000 -1.000000
vn -0.000000 0.000000 -1.000000
vn 0.000000 0.000000 -1.000000
vn 0.000000 0.000000 -1.000000
vn 0.000000 0.000000 -1.000000
vn -0.000000 0.000000 -1.000000
vn 0.000000 0.000000 -1.000000
vn 0.000000 0.000000 -1.000000
vn 0.000000 0.000000 -1.000000
vn 0.000000 0.000000 -1.000000
vn 0.000000 0.000000 -1.000000
vn 0.000000 0.000000 -1.000000
vn 0.000000 0.000000 -1.000000
vn 0.000000 0.000000 -1.000000
vn 0.000000 0.000000 -1.000000
vn 0.000000 0.000000 -1.000000
vn 0.000000 0.000000 -1.000000
vn 0.000000 0.000000 -1.000000
vn 0.000000 0.000000 -1.000000
vn 0.000000 0.000000 -1.000000
vn 0.000000 0.000000 -1.000000
vn 0.000000 0.000000 -1.000000
vn 0.000000 0.000000 -1.000000
vn 0.000000 0.000000 1.000000
vn 0.000000 0.000000 1.000000
vn 0.000000 0.000000 1.000000
vn 0.000000 0.000000 1.000000
vn 0.000000 0.000000 1.000000
vn 0.000000 0.000000 1.000000
vn 0.000000 0.000000 1.000000
vn 0.000000 0.000000 1.000000
vn 0.000000 0.000000 1.000000
vn 0.000000 0.000000 1.000000
vn 0.000000 0.000000 1.000000
vn 0.000000 0.000000 1.000000
vn 0.000000 0.000000 1.000000
vn 0.000000 0.000000 1.000000
vn 0.000000 0.000000 1.000000
vn 0.000000 0.000000 1.000000
vn 0.000000 0.000000 1.000000
vn 0.000000 0.000000 1.000000
vn 0.000000 0.000000 1.000000
vn 0.000000 0.000000 1.000000
vn 0.000000 0.000000 1.000000
vn 0.000000 0.000000 1.000000
vn 0.000000 0.000000 1.000000
vn 0.000000 0.000000 1.000000
vn 0.000000 0.000000 1.000000
vn 0.000000 0.000000 1.000000
vn -0.000000 0.000000 1.000000
vn 0.000000 0.000000 1.000000
vn 0.000000 0.000000 1.000000
vn 0.000000 0.000000 1.000000
vn 0.000000 0.000000 1.000000
vn 0.000000 -0.000000 1.000000
vn 0.000000 0.000000 1.000000
vn 0.000000 0.000000 1.000000
vn 0.000000 0.000000 1.000000
vn 0.000000 0.000000 1.000000
vn 0.000000 0.000000 1.000000
vn 0.000000 0.000000 1.000000
vn 0.000000 0.000000 1.000000
vn 0.603991 -0.796991 0.000000
vn 0.603991 -0.796991 0.000000
vn 0.322340 -0.946624 0.000000
vn 0.322340 -0.946624 0.000000
vn -0.434016 -0.900905 0.000000
vn -0.434016 -0.900905 0.000000
vn -0.763866 -0.645375 0.000000
vn -0.763866 -0.645375 0.000000
vn 0.385666 -0.922638 0.000000
vn 0.385666 -0.922638 0.000000
vn -0.650408 -0.759585 0.000000
vn -0.650408 -0.759585 0.000000
vn -0.889340 0.457246 0.000000
vn -0.889340 0.457246 0.000000
vn -0.453315 -0.891350 0.000000
vn -0.453315 -0.891350 0.000000
vn -0.887872 0.460091 0.000000
vn -0.887872 0.460091 0.000000
vn -0.224650 0.974440 0.000000
vn -0.224650 0.974440 0.000000
vn -0.970024 -0.243008 0.000000
vn -0.970024 -0.243008 0.000000
vn 0.180076 -0.983653 0.000000
vn 0.180076 -0.983653 0.000000
vn -0.984616 -0.174734 0.000000
vn -0.984616 -0.174734 0.000000
vn 0.446734 -0.894667 0.000000
vn 0.446734 -0.894667 0.000000
vn 0.901002 -0.433816 0.000000
vn 0.901002 -0.433816 0.000000
vn -0.337168 -0.941445 0.000000
vn -0.337168 -0.941445 0.000000
vn 0.814648 -0.579955 0.000000
vn 0.814648 -0.579955 0.000000
vn 0.590243 0.807226 0.000000
vn 0.590243 0.807226 -0.000000
vn 0.816703 -0.577058 0.000000
vn 0.816703 -0.577058 0.000000
vn -0.631654 -0.775250 0.000000
vn -0.631654 -0.775250 0.000000
vn 0.713919 -0.700229 0.000000
vn 0.713919 -0.700229 0.000000
vn -0.703264 -0.710929 0.000000
vn -0.703264 -0.710929 0.000000
vn -0.891431 0.453156 0.000000
vn -0.891431 0.453156 0.000000
vn -0.732665 0.680590 0.000000
vn -0.732665 0.680590 0.000000
vn -0.491124 0.871090 0.000000
vn -0.491124 0.871090 0.000000
vn -0.996042 -0.088889 0.000000
vn -0.996042 -0.088889 0.000000
vn -0.421004 0.907059 0.000000
vn -0.421004 0.907059 0.000000
vn 0.960686 0.277638 0.000000
vn 0.960686 0.277638 -0.000000
vn -0.315405 0.948957 0.000000
vn -0.315405 0.948957 0.000000
vn -0.943400 -0.331658 0.000000
vn -0.943400 -0.331658 0.000000
vn -0.540750 0.841183 0.000000
vn -0.540750 0.841183 0.000000
vn 0.832191 0.554489 0.000000
vn 0.832191 0.554489 -0.000000
vn 0.915327 0.402712 0.000000
vn 0.915327 0.402712 -0.000000
vn 0.999964 -0.008544 0.000000
vn 0.999964 -0.008544 0.000000
vn -0.030588 -0.999532 0.000000
vn -0.030588 -0.999532 0.000000
vn 0.903826 -0.427899 0.000000
vn 0.903826 -0.427899 0.000000
vn 0.873622 0.486606 0.000000
vn 0.873622 0.486606 -0.000000
vn 0.574615 0.818424 0.000000
vn 0.574615 0.818424 -0.000000
vn -0.716234 0.697860 0.000000
vn -0.716234 0.697860 0.000000
vn -0.461309 -0.887239 0.000000
vn -0.461309 -0.887239 0.000000
vn 0.802530 -0.596612 0.000000
vn 0.802530 -0.596612 0.000000
vn 0.975574 0.219671 0.000000
vn 0.975574 0.219671 -0.000000
vn -0.619439 0.785045 0.000000
vn -0.619439 0.785045 0.000000
vn -0.979666 -0.200636 0.000000
vn -0.979666 -0.200636 0.000000
vn 0.195854 -0.980633 0.000000
vn 0.195854 -0.980633 0.000000
usemtl assumed_base
f 37//1 1//1 2//1
f 37//2 2//2 3//2
f 37//3 3//3 4//3
f 37//4 4//4 5//4
f 5//5 6//5 7//5
f 37//6 5//6 7//6
f 37//7 7//7 8//7
f 37//8 8//8 9//8
f 37//9 9//9 10//9
f 37//10 10//10 11//10
f 37//11 11//11 12//11
f 12//12 13//12 14//12
f 15//13 16//13 17//13
f 14//14 15//14 17//14
f 18//15 19//15 20//15
f 18//16 20//16 21//16
f 17//17 18//17 21//17
f 21//18 22//18 23//18
f 17//19 21//19 23//19
f 14//20 17//20 23//20
f 14//21 23//21 24//21
f 14//22 24//22 25//22
f 14//23 25//23 26//23
f 12//24 14//24 26//24
f 12//25 26//25 27//25
f 37//26 12//26 27//26
f 27//27 28//27 29//27
f 37//28 27//28 29//28
f 37//29 29//29 30//29
f 37//30 30//30 31//30
f 37//31 31//31 32//31
f 37//32 32//32 33//32
f 37//33 33//33 34//33
f 34//34 35//34 36//34
f 34//35 36//35 37//35
f 78//36 76//36 75//36
f 76//37 78//37 77//37
f 86//38 84//38 83//38
f 84//39 86//39 85//39
usemtl assumed_roof
f 74//40 39//40 38//40
f 74//41 40//41 39//41
f 74//42 41//42 40//42
f 74//43 42//43 41//43
f 42//44 44//44 43//44
f 74//45 44//45 42//45
f 74//46 45//46 44//46
f 74//47 46//47 45//47
f 74//48 47//48 46//48
f 74//49 48//49 47//49
f 74//50 49//50 48//50
f 49//51 51//51 50//51
f 52//52 54//52 53//52
f 51//53 54//53 52//53
f 55//54 57//54 56//54
f 55//55 58//55 57//55
f 54//56 58//56 55//56
f 58//57 60//57 59//57
f 54//58 60//58 58//58
f 51//59 60//59 54//59
f 51//60 61//60 60//60
f 51//61 62//61 61//61
f 51//62 63//62 62//62
f 49//63 63//63 51//63
f 49//64 64//64 63//64
f 74//65 64//65 49//65
f 64//66 66//66 65//66
f 74//67 66//67 64//67
f 74//68 67//68 66//68
f 74//69 68//69 67//69
f 74//70 69//70 68//70
f 74//71 70//71 69//71
f 74//72 71//72 70//72
f 71//73 73//73 72//73
f 71//74 74//74 73//74
f 82//75 79//75 80//75
f 80//76 81//76 82//76
f 90//77 87//77 88//77
f 88//78 89//78 90//78
usemtl assumed_wall
f 1//79 39//79 2//79
f 1//80 38//80 39//80
f 2//81 40//81 3//81
f 2//82 39//82 40//82
f 3//83 41//83 4//83
f 3//84 40//84 41//84
f 4//85 42//85 5//85
f 4//86 41//86 42//86
f 5//87 43//87 6//87
f 5//88 42//88 43//88
f 6//89 44//89 7//89
f 6//90 43//90 44//90
f 7//91 45//91 8//91
f 7//92 44//92 45//92
f 8//93 46//93 9//93
f 8//94 45//94 46//94
f 9//95 47//95 10//95
f 9//96 46//96 47//96
f 10//97 48//97 11//97
f 10//98 47//98 48//98
f 11//99 49//99 12//99
f 11//100 48//100 49//100
f 12//101 50//101 13//101
f 12//102 49//102 50//102
f 13//103 51//103 14//103
f 13//104 50//104 51//104
f 14//105 52//105 15//105
f 14//106 51//106 52//106
f 15//107 53//107 16//107
f 15//108 52//108 53//108
f 16//109 54//109 17//109
f 16//110 53//110 54//110
f 17//111 55//111 18//111
f 17//112 54//112 55//112
f 18//113 56//113 19//113
f 18//114 55//114 56//114
f 19//115 57//115 20//115
f 19//116 56//116 57//116
f 20//117 58//117 21//117
f 20//118 57//118 58//118
f 21//119 59//119 22//119
f 21//120 58//120 59//120
f 22//121 60//121 23//121
f 22//122 59//122 60//122
f 23//123 61//123 24//123
f 23//124 60//124 61//124
f 24//125 62//125 25//125
f 24//126 61//126 62//126
f 25//127 63//127 26//127
f 25//128 62//128 63//128
f 26//129 64//129 27//129
f 26//130 63//130 64//130
f 27//131 65//131 28//131
f 27//132 64//132 65//132
f 28//133 66//133 29//133
f 28//134 65//134 66//134
f 29//135 67//135 30//135
f 29//136 66//136 67//136
f 30//137 68//137 31//137
f 30//138 67//138 68//138
f 31//139 69//139 32//139
f 31//140 68//140 69//140
f 32//141 70//141 33//141
f 32//142 69//142 70//142
f 33//143 71//143 34//143
f 33//144 70//144 71//144
f 34//145 72//145 35//145
f 34//146 71//146 72//146
f 35//147 73//147 36//147
f 35//148 72//148 73//148
f 36//149 74//149 37//149
f 36//150 73//150 74//150
f 37//151 38//151 1//151
f 37//152 74//152 38//152
f 75//153 76//153 80//153
f 75//154 80//154 79//154
f 76//155 77//155 81//155
f 76//156 81//156 80//156
f 77//157 78//157 82//157
f 77//158 82//158 81//158
f 78//159 75//159 79//159
f 78//160 79//160 82//160
f 83//161 84//161 88//161
f 83//162 88//162 87//162
f 84//163 85//163 89//163
f 84//164 89//164 88//164
f 85//165 86//165 90//165
f 85//166 90//166 89//166
f 86//167 83//167 87//167
f 86//168 87//168 90//168
