# construction_1786_assumed_A_Casa
# source A_Casa
# h_campo 0.000000
# modeled_height 6.000000
# height_kind assumed
# local_origin_world_x 172001.034850
# local_origin_world_y 402500.144600
mtllib construction_artifacts.mtl

o construction_1786_assumed_A_Casa
v -12.736500 -3.591500 0.000000
v -11.199500 6.042500 0.000000
v 3.054500 3.692500 0.000000
v 3.303500 5.355500 0.000000
v 12.736500 4.078500 0.000000
v 11.006500 -5.792500 0.000000
v 1.743500 -4.233500 0.000000
v 1.540500 -6.042500 0.000000
v -12.736500 -3.591500 6.000000
v -11.199500 6.042500 6.000000
v 3.054500 3.692500 6.000000
v 3.303500 5.355500 6.000000
v 12.736500 4.078500 6.000000
v 11.006500 -5.792500 6.000000
v 1.743500 -4.233500 6.000000
v 1.540500 -6.042500 6.000000
vn 0.000000 0.000000 -1.000000
vn 0.000000 0.000000 -1.000000
vn 0.000000 0.000000 -1.000000
vn 0.000000 0.000000 -1.000000
vn 0.000000 0.000000 -1.000000
vn 0.000000 0.000000 -1.000000
vn 0.000000 0.000000 1.000000
vn 0.000000 0.000000 1.000000
vn -0.000000 0.000000 1.000000
vn 0.000000 0.000000 1.000000
vn 0.000000 0.000000 1.000000
vn 0.000000 0.000000 1.000000
vn -0.987512 0.157547 0.000000
vn -0.987512 0.157547 0.000000
vn 0.162670 0.986681 0.000000
vn 0.162670 0.986681 -0.000000
vn -0.988976 0.148079 0.000000
vn -0.988976 0.148079 0.000000
vn 0.134152 0.990961 0.000000
vn 0.134152 0.990961 -0.000000
vn 0.984987 -0.172630 0.000000
vn 0.984987 -0.172630 0.000000
vn -0.165970 -0.986131 0.000000
vn -0.165970 -0.986131 0.000000
vn 0.993763 -0.111517 0.000000
vn 0.993763 -0.111517 0.000000
vn -0.169199 -0.985582 0.000000
vn -0.169199 -0.985582 0.000000
usemtl assumed_base
f 8//1 1//1 2//1
f 3//2 4//2 5//2
f 3//3 5//3 6//3
f 2//4 3//4 6//4
f 2//5 6//5 7//5
f 2//6 7//6 8//6
usemtl assumed_roof
f 16//7 10//7 9//7
f 11//8 13//8 12//8
f 11//9 14//9 13//9
f 10//10 14//10 11//10
f 10//11 15//11 14//11
f 10//12 16//12 15//12
usemtl assumed_wall
f 1//13 10//13 2//13
f 1//14 9//14 10//14
f 2//15 11//15 3//15
f 2//16 10//16 11//16
f 3//17 12//17 4//17
f 3//18 11//18 12//18
f 4//19 13//19 5//19
f 4//20 12//20 13//20
f 5//21 14//21 6//21
f 5//22 13//22 14//22
f 6//23 15//23 7//23
f 6//24 14//24 15//24
f 7//25 16//25 8//25
f 7//26 15//26 16//26
f 8//27 9//27 1//27
f 8//28 16//28 9//28
