# construction_3331_assumed_A_Casa
# source A_Casa
# h_campo 0.000000
# modeled_height 6.000000
# height_kind assumed
# local_origin_world_x 172001.034850
# local_origin_world_y 402500.144600
mtllib construction_artifacts.mtl

o construction_3331_assumed_A_Casa
v 4.201000 -17.349000 0.000000
v -4.055000 -18.803000 0.000000
v -5.154000 -18.029000 0.000000
v -6.383000 -20.923000 0.000000
v -18.935000 -14.978000 0.000000
v -17.934000 -12.675000 0.000000
v -18.969000 -12.322000 0.000000
v -22.978000 -7.452000 0.000000
v -20.457000 -5.669000 0.000000
v -19.209000 -6.632000 0.000000
v -13.540000 -2.177000 0.000000
v -1.983000 -7.430000 0.000000
v 9.214000 0.257000 0.000000
v 7.592000 12.707000 0.000000
v 14.292000 17.399000 0.000000
v 13.018000 19.163000 0.000000
v 15.075000 20.923000 0.000000
v 18.428000 16.598000 0.000000
v 18.523000 14.364000 0.000000
v 21.221000 14.378000 0.000000
v 22.978000 0.494000 0.000000
v 19.605000 0.477000 0.000000
v 19.930000 -1.144000 0.000000
v 17.602000 -7.712000 0.000000
v 15.833000 -8.100000 0.000000
v 17.720000 -10.220000 0.000000
v 6.230000 -18.393000 0.000000
v 4.429000 -16.505000 0.000000
v 4.201000 -17.349000 6.000000
v -4.055000 -18.803000 6.000000
v -5.154000 -18.029000 6.000000
v -6.383000 -20.923000 6.000000
v -18.935000 -14.978000 6.000000
v -17.934000 -12.675000 6.000000
v -18.969000 -12.322000 6.000000
v -22.978000 -7.452000 6.000000
v -20.457000 -5.669000 6.000000
v -19.209000 -6.632000 6.000000
v -13.540000 -2.177000 6.000000
v -1.983000 -7.430000 6.000000
v 9.214000 0.257000 6.000000
v 7.592000 12.707000 6.000000
v 14.292000 17.399000 6.000000
v 13.018000 19.163000 6.000000
v 15.075000 20.923000 6.000000
v 18.428000 16.598000 6.000000
v 18.523000 14.364000 6.000000
v 21.221000 14.378000 6.000000
v 22.978000 0.494000 6.000000
v 19.605000 0.477000 6.000000
v 19.930000 -1.144000 6.000000
v 17.602000 -7.712000 6.000000
v 15.833000 -8.100000 6.000000
v 17.720000 -10.220000 6.000000
v 6.230000 -18.393000 6.000000
v 4.429000 -16.505000 6.000000
vn 0.000000 0.000000 -1.000000
vn 0.000000 0.000000 -1.000000
vn -0.000000 0.000000 -1.000000
vn -0.000000 0.000000 -1.000000
vn 0.000000 0.000000 -1.000000
vn 0.000000 0.000000 -1.000000
vn 0.000000 0.000000 -1.000000
vn 0.000000 0.000000 -1.000000
vn 0.000000 0.000000 -1.000000
vn 0.000000 0.000000 -1.000000
vn 0.000000 0.000000 -1.000000
vn 0.000000 0.000000 -1.000000
vn 0.000000 0.000000 -1.000000
vn 0.000000 0.000000 -1.000000
vn 0.000000 0.000000 -1.000000
vn 0.000000 0.000000 -1.000000
vn 0.000000 0.000000 -1.000000
vn 0.000000 0.000000 -1.000000
vn 0.000000 0.000000 -1.000000
vn 0.000000 -0.000000 -1.000000
vn 0.000000 0.000000 -1.000000
vn 0.000000 0.000000 -1.000000
vn 0.000000 0.000000 -1.000000
vn 0.000000 0.000000 -1.000000
vn 0.000000 0.000000 -1.000000
vn 0.000000 0.000000 -1.000000
vn 0.000000 0.000000 1.000000
vn 0.000000 0.000000 1.000000
vn 0.000000 0.000000 1.000000
vn 0.000000 0.000000 1.000000
vn 0.000000 0.000000 1.000000
vn 0.000000 0.000000 1.000000
vn 0.000000 0.000000 1.000000
vn 0.000000 0.000000 1.000000
vn 0.000000 0.000000 1.000000
vn 0.000000 0.000000 1.000000
vn 0.000000 0.000000 1.000000
vn 0.000000 -0.000000 1.000000
vn 0.000000 -0.000000 1.000000
vn 0.000000 0.000000 1.000000
vn 0.000000 -0.000000 1.000000
vn -0.000000 0.000000 1.000000
vn 0.000000 0.000000 1.000000
vn 0.000000 0.000000 1.000000
vn 0.000000 0.000000 1.000000
vn 0.000000 0.000000 1.000000
vn 0.000000 0.000000 1.000000
vn 0.000000 0.000000 1.000000
vn 0.000000 0.000000 1.000000
vn 0.000000 0.000000 1.000000
vn 0.000000 0.000000 1.000000
vn 0.000000 0.000000 1.000000
vn 0.173445 -0.984844 0.000000
vn 0.173445 -0.984844 0.000000
vn -0.575807 -0.817586 0.000000
vn -0.575807 -0.817586 0.000000
vn 0.920440 -0.390885 0.000000
vn 0.920440 -0.390885 0.000000
vn -0.428046 -0.903757 0.000000
vn -0.428046 -0.903757 0.000000
vn -0.917114 0.398624 0.000000
vn -0.917114 0.398624 0.000000
vn -0.322804 -0.946466 0.000000
vn -0.322804 -0.946466 0.000000
vn -0.772054 -0.635557 0.000000
vn -0.772054 -0.635557 0.000000
vn -0.577433 0.816438 0.000000
vn -0.577433 0.816438 0.000000
vn 0.610906 0.791703 0.000000
vn 0.610906 0.791703 -0.000000
vn -0.617889 0.786265 0.000000
vn -0.617889 0.786265 0.000000
vn 0.413791 0.910372 0.000000
vn 0.413791 0.910372 -0.000000
vn -0.565982 0.824418 0.000000
vn -0.565982 0.824418 0.000000
vn -0.991620 -0.129189 0.000000
vn -0.991620 -0.129189 0.000000
vn -0.573626 0.819117 0.000000
vn -0.573626 0.819117 0.000000
vn -0.810679 -0.585491 0.000000
vn -0.810679 -0.585491 0.000000
vn -0.650122 0.759830 0.000000
vn -0.650122 0.759830 0.000000
vn 0.790316 0.612700 0.000000
vn 0.790316 0.612700 -0.000000
vn 0.999097 0.042486 0.000000
vn 0.999097 0.042486 -0.000000
vn -0.005189 0.999987 0.000000
vn -0.005189 0.999987 0.000000
vn 0.992088 0.125547 0.000000
vn 0.992088 0.125547 -0.000000
vn 0.005040 -0.999987 0.000000
vn 0.005040 -0.999987 0.000000
vn 0.980488 0.196581 0.000000
vn 0.980488 0.196581 -0.000000
vn 0.942544 -0.334081 0.000000
vn 0.942544 -0.334081 0.000000
vn 0.214240 -0.976781 0.000000
vn 0.214240 -0.976781 0.000000
vn 0.746962 0.664867 0.000000
vn 0.746962 0.664867 -0.000000
vn 0.579634 -0.814877 0.000000
vn 0.579634 -0.814877 0.000000
vn -0.723582 -0.690239 0.000000
vn -0.723582 -0.690239 0.000000
vn 0.965395 -0.260794 0.000000
vn 0.965395 -0.260794 0.000000
usemtl assumed_base
f 28//1 1//1 2//1
f 28//2 2//2 3//2
f 3//3 4//3 5//3
f 28//4 3//4 5//4
f 28//5 5//5 6//5
f 28//6 6//6 7//6
f 28//7 7//7 8//7
f 8//8 9//8 10//8
f 28//9 8//9 10//9
f 28//10 10//10 11//10
f 28//11 11//11 12//11
f 28//12 12//12 13//12
f 13//13 14//13 15//13
f 28//14 13//14 15//14
f 15//15 16//15 17//15
f 15//16 17//16 18//16
f 28//17 15//17 18//17
f 28//18 18//18 19//18
f 28//19 19//19 20//19
f 20//20 21//20 22//20
f 28//21 20//21 22//21
f 28//22 22//22 23//22
f 23//23 24//23 25//23
f 28//24 23//24 25//24
f 28//25 25//25 26//25
f 26//26 27//26 28//26
usemtl assumed_roof
f 56//27 30//27 29//27
f 56//28 31//28 30//28
f 31//29 33//29 32//29
f 56//30 33//30 31//30
f 56//31 34//31 33//31
f 56//32 35//32 34//32
f 56//33 36//33 35//33
f 36//34 38//34 37//34
f 56//35 38//35 36//35
f 56//36 39//36 38//36
f 56//37 40//37 39//37
f 56//38 41//38 40//38
f 41//39 43//39 42//39
f 56//40 43//40 41//40
f 43//41 45//41 44//41
f 43//42 46//42 45//42
f 56//43 46//43 43//43
f 56//44 47//44 46//44
f 56//45 48//45 47//45
f 48//46 50//46 49//46
f 56//47 50//47 48//47
f 56//48 51//48 50//48
f 51//49 53//49 52//49
f 56//50 53//50 51//50
f 56//51 54//51 53//51
f 54//52 56//52 55//52
usemtl assumed_wall
f 1//53 30//53 2//53
f 1//54 29//54 30//54
f 2//55 31//55 3//55
f 2//56 30//56 31//56
f 3//57 32//57 4//57
f 3//58 31//58 32//58
f 4//59 33//59 5//59
f 4//60 32//60 33//60
f 5//61 34//61 6//61
f 5//62 33//62 34//62
f 6//63 35//63 7//63
f 6//64 34//64 35//64
f 7//65 36//65 8//65
f 7//66 35//66 36//66
f 8//67 37//67 9//67
f 8//68 36//68 37//68
f 9//69 38//69 10//69
f 9//70 37//70 38//70
f 10//71 39//71 11//71
f 10//72 38//72 39//72
f 11//73 40//73 12//73
f 11//74 39//74 40//74
f 12//75 41//75 13//75
f 12//76 40//76 41//76
f 13//77 42//77 14//77
f 13//78 41//78 42//78
f 14//79 43//79 15//79
f 14//80 42//80 43//80
f 15//81 44//81 16//81
f 15//82 43//82 44//82
f 16//83 45//83 17//83
f 16//84 44//84 45//84
f 17//85 46//85 18//85
f 17//86 45//86 46//86
f 18//87 47//87 19//87
f 18//88 46//88 47//88
f 19//89 48//89 20//89
f 19//90 47//90 48//90
f 20//91 49//91 21//91
f 20//92 48//92 49//92
f 21//93 50//93 22//93
f 21//94 49//94 50//94
f 22//95 51//95 23//95
f 22//96 50//96 51//96
f 23//97 52//97 24//97
f 23//98 51//98 52//98
f 24//99 53//99 25//99
f 24//100 52//100 53//100
f 25//101 54//101 26//101
f 25//102 53//102 54//102
f 26//103 55//103 27//103
f 26//104 54//104 55//104
f 27//105 56//105 28//105
f 27//106 55//106 56//106
f 28//107 29//107 1//107
f 28//108 56//108 29//108
