# construction_5205_assumed_A_Casa
# source A_Casa
# h_campo 0.000000
# modeled_height 6.000000
# height_kind assumed
# local_origin_world_x 172001.034850
# local_origin_world_y 402500.144600
mtllib construction_artifacts.mtl

o construction_5205_assumed_A_Casa
v -20.682000 13.536500 0.000000
v -13.279000 10.960500 0.000000
v -14.411000 8.712500 0.000000
v -1.440000 2.997500 0.000000
v -0.829000 4.272500 0.000000
v 8.986000 0.108500 0.000000
v 21.800000 -3.355500 0.000000
v 29.494000 -5.893500 0.000000
v 26.665000 -13.536500 0.000000
v 19.691000 -11.189500 0.000000
v 12.551000 -9.146500 0.000000
v 11.769000 -12.684500 0.000000
v 5.247000 -11.287500 0.000000
v 5.978000 -7.951500 0.000000
v -12.438000 0.069500 0.000000
v -13.036000 -1.281500 0.000000
v -17.051000 0.866500 0.000000
v -20.923000 -4.408500 0.000000
v -29.494000 1.307500 0.000000
v -26.049000 7.443500 0.000000
v -24.004000 6.097500 0.000000
v -20.682000 13.536500 6.000000
v -13.279000 10.960500 6.000000
v -14.411000 8.712500 6.000000
v -1.440000 2.997500 6.000000
v -0.829000 4.272500 6.000000
v 8.986000 0.108500 6.000000
v 21.800000 -3.355500 6.000000
v 29.494000 -5.893500 6.000000
v 26.665000 -13.536500 6.000000
v 19.691000 -11.189500 6.000000
v 12.551000 -9.146500 6.000000
v 11.769000 -12.684500 6.000000
v 5.247000 -11.287500 6.000000
v 5.978000 -7.951500 6.000000
v -12.438000 0.069500 6.000000
v -13.036000 -1.281500 6.000000
v -17.051000 0.866500 6.000000
v -20.923000 -4.408500 6.000000
v -29.494000 1.307500 6.000000
v -26.049000 7.443500 6.000000
v -24.004000 6.097500 6.000000
vn 0.000000 0.000000 -1.000000
vn 0.000000 0.000000 -1.000000
vn 0.000000 0.000000 -1.000000
vn 0.000000 0.000000 -1.000000
vn 0.000000 0.000000 -1.000000
vn 0.000000 0.000000 -1.000000
vn 0.000000 0.000000 -1.000000
vn 0.000000 0.000000 -1.000000
vn 0.000000 0.000000 -1.000000
vn 0.000000 0.000000 -1.000000
vn 0.000000 0.000000 -1.000000
vn -0.000000 0.000000 -1.000000
vn 0.000000 0.000000 -1.000000
vn 0.000000 0.000000 -1.000000
vn 0.000000 0.000000 -1.000000
vn 0.000000 0.000000 -1.000000
vn 0.000000 0.000000 -1.000000
vn 0.000000 -0.000000 -1.000000
vn 0.000000 0.000000 -1.000000
vn 0.000000 0.000000 1.000000
vn 0.000000 0.000000 1.000000
vn -0.000000 0.000000 1.000000
vn -0.000000 0.000000 1.000000
vn 0.000000 0.000000 1.000000
vn 0.000000 0.000000 1.000000
vn 0.000000 0.000000 1.000000
vn 0.000000 0.000000 1.000000
vn 0.000000 0.000000 1.000000
vn 0.000000 0.000000 1.000000
vn 0.000000 0.000000 1.000000
vn 0.000000 0.000000 1.000000
vn 0.000000 0.000000 1.000000
vn 0.000000 0.000000 1.000000
vn 0.000000 0.000000 1.000000
vn 0.000000 0.000000 1.000000
vn 0.000000 0.000000 1.000000
vn 0.000000 0.000000 1.000000
vn 0.000000 0.000000 1.000000
vn 0.328639 0.944455 0.000000
vn 0.328639 0.944455 -0.000000
vn 0.893152 -0.449755 0.000000
vn 0.893152 -0.449755 0.000000
vn 0.403197 0.915113 0.000000
vn 0.403197 0.915113 -0.000000
vn -0.901799 0.432156 0.000000
vn -0.901799 0.432156 0.000000
vn 0.390555 0.920580 0.000000
vn 0.390555 0.920580 -0.000000
vn 0.260962 0.965349 0.000000
vn 0.260962 0.965349 -0.000000
vn 0.313264 0.949666 0.000000
vn 0.313264 0.949666 -0.000000
vn 0.937818 -0.347127 0.000000
vn 0.937818 -0.347127 0.000000
vn -0.318958 -0.947769 0.000000
vn -0.318958 -0.947769 0.000000
vn -0.275095 -0.961417 0.000000
vn -0.275095 -0.961417 0.000000
vn 0.976433 -0.215820 0.000000
vn 0.976433 -0.215820 0.000000
vn -0.209447 -0.977820 0.000000
vn -0.209447 -0.977820 0.000000
vn -0.976824 0.214046 0.000000
vn -0.976824 0.214046 0.000000
vn -0.399314 -0.916814 0.000000
vn -0.399314 -0.916814 0.000000
vn 0.914425 -0.404756 0.000000
vn 0.914425 -0.404756 0.000000
vn -0.471728 -0.881744 0.000000
vn -0.471728 -0.881744 0.000000
vn 0.806138 -0.591728 0.000000
vn 0.806138 -0.591728 0.000000
vn -0.554835 -0.831961 0.000000
vn -0.554835 -0.831961 0.000000
vn -0.871970 0.489559 0.000000
vn -0.871970 0.489559 0.000000
vn 0.549789 0.835304 0.000000
vn 0.549789 0.835304 -0.000000
vn -0.913091 0.407755 0.000000
vn -0.913091 0.407755 0.000000
usemtl assumed_base
f 21//1 1//1 2//1
f 21//2 2//2 3//2
f 21//3 3//3 4//3
f 4//4 5//4 6//4
f 21//5 4//5 6//5
f 21//6 6//6 7//6
f 21//7 7//7 8//7
f 21//8 8//8 9//8
f 21//9 9//9 10//9
f 21//10 10//10 11//10
f 11//11 12//11 13//11
f 11//12 13//12 14//12
f 21//13 11//13 14//13
f 21//14 14//14 15//14
f 21//15 15//15 16//15
f 21//16 16//16 17//16
f 21//17 17//17 18//17
f 21//18 18//18 19//18
f 19//19 20//19 21//19
usemtl assumed_roof
f 42//20 23//20 22//20
f 42//21 24//21 23//21
f 42//22 25//22 24//22
f 25//23 27//23 26//23
f 42//24 27//24 25//24
f 42//25 28//25 27//25
f 42//26 29//26 28//26
f 42//27 30//27 29//27
f 42//28 31//28 30//28
f 42//29 32//29 31//29
f 32//30 34//30 33//30
f 32//31 35//31 34//31
f 42//32 35//32 32//32
f 42//33 36//33 35//33
f 42//34 37//34 36//34
f 42//35 38//35 37//35
f 42//36 39//36 38//36
f 42//37 40//37 39//37
f 40//38 42//38 41//38
usemtl assumed_wall
f 1//39 23//39 2//39
f 1//40 22//40 23//40
f 2//41 24//41 3//41
f 2//42 23//42 24//42
f 3//43 25//43 4//43
f 3//44 24//44 25//44
f 4//45 26//45 5//45
f 4//46 25//46 26//46
f 5//47 27//47 6//47
f 5//48 26//48 27//48
f 6//49 28//49 7//49
f 6//50 27//50 28//50
f 7//51 29//51 8//51
f 7//52 28//52 29//52
f 8//53 30//53 9//53
f 8//54 29//54 30//54
f 9//55 31//55 10//55
f 9//56 30//56 31//56
f 10//57 32//57 11//57
f 10//58 31//58 32//58
f 11//59 33//59 12//59
f 11//60 32//60 33//60
f 12//61 34//61 13//61
f 12//62 33//62 34//62
f 13//63 35//63 14//63
f 13//64 34//64 35//64
f 14//65 36//65 15//65
f 14//66 35//66 36//66
f 15//67 37//67 16//67
f 15//68 36//68 37//68
f 16//69 38//69 17//69
f 16//70 37//70 38//70
f 17//71 39//71 18//71
f 17//72 38//72 39//72
f 18//73 40//73 19//73
f 18//74 39//74 40//74
f 19//75 41//75 20//75
f 19//76 40//76 41//76
f 20//77 42//77 21//77
f 20//78 41//78 42//78
f 21//79 22//79 1//79
f 21//80 42//80 22//80
