# construction_7067_actual_A_Grande_construcao
# source A_Grande_construcao
# h_campo 6.000000
# modeled_height 6.000000
# height_kind actual
# local_origin_world_x 172001.034850
# local_origin_world_y 402500.144600
mtllib construction_artifacts.mtl

o construction_7067_actual_A_Grande_construcao
v -4.749000 -51.531500 0.000000
v -68.023000 -38.506500 0.000000
v -65.015000 -19.692500 0.000000
v -76.894000 -17.612500 0.000000
v -64.226000 51.531500 0.000000
v 76.894000 26.069500 0.000000
v 65.371000 -34.416500 0.000000
v -0.588000 -27.604500 0.000000
v -4.749000 -51.531500 6.000000
v -68.023000 -38.506500 6.000000
v -65.015000 -19.692500 6.000000
v -76.894000 -17.612500 6.000000
v -64.226000 51.531500 6.000000
v 76.894000 26.069500 6.000000
v 65.371000 -34.416500 6.000000
v -0.588000 -27.604500 6.000000
vn 0.000000 0.000000 -1.000000
vn -0.000000 0.000000 -1.000000
vn 0.000000 0.000000 -1.000000
vn 0.000000 0.000000 -1.000000
vn 0.000000 0.000000 -1.000000
vn 0.000000 0.000000 -1.000000
vn 0.000000 0.000000 1.000000
vn 0.000000 0.000000 1.000000
vn 0.000000 0.000000 1.000000
vn 0.000000 0.000000 1.000000
vn 0.000000 -0.000000 1.000000
vn 0.000000 0.000000 1.000000
vn -0.201623 -0.979463 0.000000
vn -0.201623 -0.979463 0.000000
vn -0.987459 0.157876 0.000000
vn -0.987459 0.157876 0.000000
vn -0.172475 -0.985014 0.000000
vn -0.172475 -0.985014 0.000000
vn -0.983628 0.180212 0.000000
vn -0.983628 0.180212 0.000000
vn 0.177561 0.984110 0.000000
vn 0.177561 0.984110 -0.000000
vn 0.982333 -0.187141 0.000000
vn 0.982333 -0.187141 0.000000
vn -0.102730 -0.994709 0.000000
vn -0.102730 -0.994709 0.000000
vn 0.985213 -0.171332 0.000000
vn 0.985213 -0.171332 0.000000
usemtl actual_base
f 8//1 1//1 2//1
f 8//2 2//2 3//2
f 8//3 3//3 4//3
f 8//4 4//4 5//4
f 8//5 5//5 6//5
f 6//6 7//6 8//6
usemtl actual_roof
f 16//7 10//7 9//7
f 16//8 11//8 10//8
f 16//9 12//9 11//9
f 16//10 13//10 12//10
f 16//11 14//11 13//11
f 14//12 16//12 15//12
usemtl actual_wall
f 1//13 10//13 2//13
f 1//14 9//14 10//14
f 2//15 11//15 3//15
f 2//16 10//16 11//16
f 3//17 12//17 4//17
f 3//18 11//18 12//18
f 4//19 13//19 5//19
f 4//20 12//20 13//20
f 5//21 14//21 6//21
f 5//22 13//22 14//22
f 6//23 15//23 7//23
f 6//24 14//24 15//24
f 7//25 16//25 8//25
f 7//26 15//26 16//26
f 8//27 9//27 1//27
f 8//28 16//28 9//28
