# construction_5928_assumed_A_Casa
# source A_Casa
# h_campo 0.000000
# modeled_height 6.000000
# height_kind assumed
# local_origin_world_x 172001.034850
# local_origin_world_y 402500.144600
mtllib construction_artifacts.mtl

o construction_5928_assumed_A_Casa
v -9.005000 24.174000 0.000000
v -0.314000 23.712000 0.000000
v -0.309000 22.738000 0.000000
v 7.585000 22.220000 0.000000
v 6.600000 -0.601000 0.000000
v 10.397000 -1.062000 0.000000
v 11.149000 -22.320000 0.000000
v 2.040000 -24.174000 0.000000
v -8.919000 -15.478000 0.000000
v -11.149000 -12.048000 0.000000
v -9.953000 -1.026000 0.000000
v -10.008000 9.901000 0.000000
v -10.775000 16.551000 0.000000
v -9.005000 24.174000 6.000000
v -0.314000 23.712000 6.000000
v -0.309000 22.738000 6.000000
v 7.585000 22.220000 6.000000
v 6.600000 -0.601000 6.000000
v 10.397000 -1.062000 6.000000
v 11.149000 -22.320000 6.000000
v 2.040000 -24.174000 6.000000
v -8.919000 -15.478000 6.000000
v -11.149000 -12.048000 6.000000
v -9.953000 -1.026000 6.000000
v -10.008000 9.901000 6.000000
v -10.775000 16.551000 6.000000
vn 0.000000 0.000000 -1.000000
vn 0.000000 0.000000 -1.000000
vn 0.000000 0.000000 -1.000000
vn 0.000000 0.000000 -1.000000
vn 0.000000 0.000000 -1.000000
vn 0.000000 0.000000 -1.000000
vn 0.000000 0.000000 -1.000000
vn 0.000000 0.000000 -1.000000
vn 0.000000 0.000000 -1.000000
vn 0.000000 0.000000 -1.000000
vn 0.000000 0.000000 -1.000000
vn 0.000000 0.000000 1.000000
vn 0.000000 0.000000 1.000000
vn 0.000000 0.000000 1.000000
vn -0.000000 0.000000 1.000000
vn 0.000000 0.000000 1.000000
vn 0.000000 0.000000 1.000000
vn 0.000000 0.000000 1.000000
vn 0.000000 0.000000 1.000000
vn 0.000000 0.000000 1.000000
vn 0.000000 0.000000 1.000000
vn 0.000000 0.000000 1.000000
vn 0.053083 0.998590 0.000000
vn 0.053083 0.998590 -0.000000
vn 0.999987 0.005133 0.000000
vn 0.999987 0.005133 -0.000000
vn 0.065479 0.997854 0.000000
vn 0.065479 0.997854 -0.000000
vn 0.999070 -0.043122 0.000000
vn 0.999070 -0.043122 0.000000
vn 0.120527 0.992710 0.000000
vn 0.120527 0.992710 -0.000000
vn 0.999375 0.035353 0.000000
vn 0.999375 0.035353 -0.000000
vn 0.199446 -0.979909 0.000000
vn 0.199446 -0.979909 0.000000
vn -0.621587 -0.783345 0.000000
vn -0.621587 -0.783345 0.000000
vn -0.838388 -0.545074 0.000000
vn -0.838388 -0.545074 0.000000
vn -0.994164 0.107877 0.000000
vn -0.994164 0.107877 0.000000
vn -0.999987 -0.005033 0.000000
vn -0.999987 -0.005033 0.000000
vn -0.993414 -0.114579 0.000000
vn -0.993414 -0.114579 0.000000
vn -0.974087 0.226175 0.000000
vn -0.974087 0.226175 0.000000
usemtl assumed_base
f 13//1 1//1 2//1
f 13//2 2//2 3//2
f 13//3 3//3 4//3
f 13//4 4//4 5//4
f 5//5 6//5 7//5
f 13//6 5//6 7//6
f 13//7 7//7 8//7
f 8//8 9//8 10//8
f 8//9 10//9 11//9
f 8//10 11//10 12//10
f 8//11 12//11 13//11
usemtl assumed_roof
f 26//12 15//12 14//12
f 26//13 16//13 15//13
f 26//14 17//14 16//14
f 26//15 18//15 17//15
f 18//16 20//16 19//16
f 26//17 20//17 18//17
f 26//18 21//18 20//18
f 21//19 23//19 22//19
f 21//20 24//20 23//20
f 21//21 25//21 24//21
f 21//22 26//22 25//22
usemtl assumed_wall
f 1//23 15//23 2//23
f 1//24 14//24 15//24
f 2//25 16//25 3//25
f 2//26 15//26 16//26
f 3//27 17//27 4//27
f 3//28 16//28 17//28
f 4//29 18//29 5//29
f 4//30 17//30 18//30
f 5//31 19//31 6//31
f 5//32 18//32 19//32
f 6//33 20//33 7//33
f 6//34 19//34 20//34
f 7//35 21//35 8//35
f 7//36 20//36 21//36
f 8//37 22//37 9//37
f 8//38 21//38 22//38
f 9//39 23//39 10//39
f 9//40 22//40 23//40
f 10//41 24//41 11//41
f 10//42 23//42 24//42
f 11//43 25//43 12//43
f 11//44 24//44 25//44
f 12//45 26//45 13//45
f 12//46 25//46 26//46
f 13//47 14//47 1//47
f 13//48 26//48 14//48
