# construction_3412_assumed_A_Casa
# source A_Casa
# h_campo 0.000000
# modeled_height 6.000000
# height_kind assumed
# local_origin_world_x 172001.034850
# local_origin_world_y 402500.144600
mtllib construction_artifacts.mtl

o construction_3412_assumed_A_Casa
v -8.499500 -6.527000 0.000000
v -3.963500 6.921000 0.000000
v -0.046500 5.995000 0.000000
v 2.114500 8.822000 0.000000
v 8.499500 6.746000 0.000000
v 7.558500 2.897000 0.000000
v 4.955500 -6.088000 0.000000
v 1.883500 -5.530000 0.000000
v 1.124500 -8.822000 0.000000
v -8.499500 -6.527000 6.000000
v -3.963500 6.921000 6.000000
v -0.046500 5.995000 6.000000
v 2.114500 8.822000 6.000000
v 8.499500 6.746000 6.000000
v 7.558500 2.897000 6.000000
v 4.955500 -6.088000 6.000000
v 1.883500 -5.530000 6.000000
v 1.124500 -8.822000 6.000000
vn 0.000000 0.000000 -1.000000
vn 0.000000 0.000000 -1.000000
vn 0.000000 0.000000 -1.000000
vn 0.000000 0.000000 -1.000000
vn 0.000000 0.000000 -1.000000
vn 0.000000 -0.000000 -1.000000
vn 0.000000 0.000000 -1.000000
vn 0.000000 0.000000 1.000000
vn 0.000000 0.000000 1.000000
vn 0.000000 -0.000000 1.000000
vn 0.000000 0.000000 1.000000
vn 0.000000 0.000000 1.000000
vn 0.000000 0.000000 1.000000
vn 0.000000 0.000000 1.000000
vn -0.947550 0.319608 0.000000
vn -0.947550 0.319608 0.000000
vn 0.230064 0.973176 0.000000
vn 0.230064 0.973176 -0.000000
vn -0.794469 0.607304 0.000000
vn -0.794469 0.607304 0.000000
vn 0.309204 0.950996 0.000000
vn 0.309204 0.950996 -0.000000
vn 0.971391 -0.237485 0.000000
vn 0.971391 -0.237485 0.000000
vn 0.960505 -0.278263 0.000000
vn 0.960505 -0.278263 0.000000
vn -0.178716 -0.983901 0.000000
vn -0.178716 -0.983901 0.000000
vn 0.974436 -0.224665 0.000000
vn 0.974436 -0.224665 0.000000
vn -0.231962 -0.972725 0.000000
vn -0.231962 -0.972725 0.000000
usemtl assumed_base
f 9//1 1//1 2//1
f 9//2 2//2 3//2
f 9//3 3//3 4//3
f 4//4 5//4 6//4
f 4//5 6//5 7//5
f 4//6 7//6 8//6
f 4//7 8//7 9//7
usemtl assumed_roof
f 18//8 11//8 10//8
f 18//9 12//9 11//9
f 18//10 13//10 12//10
f 13//11 15//11 14//11
f 13//12 16//12 15//12
f 13//13 17//13 16//13
f 13//14 18//14 17//14
usemtl assumed_wall
f 1//15 11//15 2//15
f 1//16 10//16 11//16
f 2//17 12//17 3//17
f 2//18 11//18 12//18
f 3//19 13//19 4//19
f 3//20 12//20 13//20
f 4//21 14//21 5//21
f 4//22 13//22 14//22
f 5//23 15//23 6//23
f 5//24 14//24 15//24
f 6//25 16//25 7//25
f 6//26 15//26 16//26
f 7//27 17//27 8//27
f 7//28 16//28 17//28
f 8//29 18//29 9//29
f 8//30 17//30 18//30
f 9//31 10//31 1//31
f 9//32 18//32 10//32
