# construction_6432_assumed_A_Casa
# source A_Casa
# h_campo 0.000000
# modeled_height 6.000000
# height_kind assumed
# local_origin_world_x 172001.034850
# local_origin_world_y 402500.144600
mtllib construction_artifacts.mtl

o construction_6432_assumed_A_Casa
v -10.470000 0.880500 0.000000
v -6.848000 6.362500 0.000000
v 0.352000 3.700500 0.000000
v 0.356000 2.726500 0.000000
v 10.470000 2.338500 0.000000
v 10.352000 -6.180500 0.000000
v 3.240000 -6.362500 0.000000
v 3.237000 -5.575500 0.000000
v -0.442000 -5.509500 0.000000
v -0.442000 -2.824500 0.000000
v -10.470000 0.880500 6.000000
v -6.848000 6.362500 6.000000
v 0.352000 3.700500 6.000000
v 0.356000 2.726500 6.000000
v 10.470000 2.338500 6.000000
v 10.352000 -6.180500 6.000000
v 3.240000 -6.362500 6.000000
v 3.237000 -5.575500 6.000000
v -0.442000 -5.509500 6.000000
v -0.442000 -2.824500 6.000000
vn 0.000000 0.000000 -1.000000
vn 0.000000 0.000000 -1.000000
vn 0.000000 0.000000 -1.000000
vn 0.000000 0.000000 -1.000000
vn 0.000000 0.000000 -1.000000
vn -0.000000 0.000000 -1.000000
vn 0.000000 0.000000 -1.000000
vn 0.000000 0.000000 -1.000000
vn 0.000000 0.000000 1.000000
vn 0.000000 -0.000000 1.000000
vn 0.000000 0.000000 1.000000
vn 0.000000 0.000000 1.000000
vn -0.000000 0.000000 1.000000
vn 0.000000 0.000000 1.000000
vn 0.000000 0.000000 1.000000
vn 0.000000 0.000000 1.000000
vn -0.834338 0.551253 0.000000
vn -0.834338 0.551253 0.000000
vn 0.346780 0.937947 0.000000
vn 0.346780 0.937947 -0.000000
vn 0.999992 0.004107 0.000000
vn 0.999992 0.004107 -0.000000
vn 0.038334 0.999265 0.000000
vn 0.038334 0.999265 -0.000000
vn 0.999904 -0.013850 0.000000
vn 0.999904 -0.013850 0.000000
vn 0.025582 -0.999673 0.000000
vn 0.025582 -0.999673 0.000000
vn -0.999993 -0.003812 0.000000
vn -0.999993 -0.003812 0.000000
vn -0.017937 -0.999839 0.000000
vn -0.017937 -0.999839 0.000000
vn -1.000000 0.000000 0.000000
vn -1.000000 0.000000 0.000000
vn -0.346568 -0.938025 0.000000
vn -0.346568 -0.938025 0.000000
usemtl assumed_base
f 10//1 1//1 2//1
f 10//2 2//2 3//2
f 10//3 3//3 4//3
f 10//4 4//4 5//4
f 10//5 5//5 6//5
f 6//6 7//6 8//6
f 10//7 6//7 8//7
f 8//8 9//8 10//8
usemtl assumed_roof
f 20//9 12//9 11//9
f 20//10 13//10 12//10
f 20//11 14//11 13//11
f 20//12 15//12 14//12
f 20//13 16//13 15//13
f 16//14 18//14 17//14
f 20//15 18//15 16//15
f 18//16 20//16 19//16
usemtl assumed_wall
f 1//17 12//17 2//17
f 1//18 11//18 12//18
f 2//19 13//19 3//19
f 2//20 12//20 13//20
f 3//21 14//21 4//21
f 3//22 13//22 14//22
f 4//23 15//23 5//23
f 4//24 14//24 15//24
f 5//25 16//25 6//25
f 5//26 15//26 16//26
f 6//27 17//27 7//27
f 6//28 16//28 17//28
f 7//29 18//29 8//29
f 7//30 17//30 18//30
f 8//31 19//31 9//31
f 8//32 18//32 19//32
f 9//33 20//33 10//33
f 9//34 19//34 20//34
f 10//35 11//35 1//35
f 10//36 20//36 11//36
