# construction_1113_assumed_A_Casa
# source A_Casa
# h_campo 0.000000
# modeled_height 6.000000
# height_kind assumed
# local_origin_world_x 172001.034850
# local_origin_world_y 402500.144600
mtllib construction_artifacts.mtl

o construction_1113_assumed_A_Casa
v -7.100500 -4.655000 0.000000
v -0.170500 4.551000 0.000000
v 0.459500 6.718000 0.000000
v 2.143500 8.935000 0.000000
v 7.100500 7.018000 0.000000
v 5.406500 2.301000 0.000000
v 0.921500 -3.039000 0.000000
v 3.251500 -4.750000 0.000000
v 1.454500 -8.935000 0.000000
v -7.100500 -4.655000 6.000000
v -0.170500 4.551000 6.000000
v 0.459500 6.718000 6.000000
v 2.143500 8.935000 6.000000
v 7.100500 7.018000 6.000000
v 5.406500 2.301000 6.000000
v 0.921500 -3.039000 6.000000
v 3.251500 -4.750000 6.000000
v 1.454500 -8.935000 6.000000
vn 0.000000 0.000000 -1.000000
vn 0.000000 0.000000 -1.000000
vn 0.000000 0.000000 -1.000000
vn 0.000000 0.000000 -1.000000
vn 0.000000 0.000000 -1.000000
vn 0.000000 0.000000 -1.000000
vn 0.000000 0.000000 -1.000000
vn 0.000000 0.000000 1.000000
vn 0.000000 0.000000 1.000000
vn 0.000000 0.000000 1.000000
vn -0.000000 0.000000 1.000000
vn 0.000000 0.000000 1.000000
vn 0.000000 0.000000 1.000000
vn 0.000000 0.000000 1.000000
vn -0.798937 0.601415 0.000000
vn -0.798937 0.601415 0.000000
vn -0.960243 0.279166 0.000000
vn -0.960243 0.279166 0.000000
vn -0.796321 0.604874 0.000000
vn -0.796321 0.604874 0.000000
vn 0.360693 0.932685 0.000000
vn 0.360693 0.932685 -0.000000
vn 0.941149 -0.337992 0.000000
vn 0.941149 -0.337992 0.000000
vn 0.765747 -0.643142 0.000000
vn 0.765747 -0.643142 0.000000
vn 0.591888 0.806020 0.000000
vn 0.591888 0.806020 -0.000000
vn 0.918872 -0.394555 0.000000
vn 0.918872 -0.394555 0.000000
vn -0.447423 -0.894323 0.000000
vn -0.447423 -0.894323 0.000000
usemtl assumed_base
f 9//1 1//1 2//1
f 2//2 3//2 4//2
f 2//3 4//3 5//3
f 2//4 5//4 6//4
f 2//5 6//5 7//5
f 9//6 2//6 7//6
f 7//7 8//7 9//7
usemtl assumed_roof
f 18//8 11//8 10//8
f 11//9 13//9 12//9
f 11//10 14//10 13//10
f 11//11 15//11 14//11
f 11//12 16//12 15//12
f 18//13 16//13 11//13
f 16//14 18//14 17//14
usemtl assumed_wall
f 1//15 11//15 2//15
f 1//16 10//16 11//16
f 2//17 12//17 3//17
f 2//18 11//18 12//18
f 3//19 13//19 4//19
f 3//20 12//20 13//20
f 4//21 14//21 5//21
f 4//22 13//22 14//22
f 5//23 15//23 6//23
f 5//24 14//24 15//24
f 6//25 16//25 7//25
f 6//26 15//26 16//26
f 7//27 17//27 8//27
f 7//28 16//28 17//28
f 8//29 18//29 9//29
f 8//30 17//30 18//30
f 9//31 10//31 1//31
f 9//32 18//32 10//32
