# construction_1734_assumed_A_Casa
# source A_Casa
# h_campo 0.000000
# modeled_height 6.000000
# height_kind assumed
# local_origin_world_x 172001.034850
# local_origin_world_y 402500.144600
mtllib construction_artifacts.mtl

o construction_1734_assumed_A_Casa
v -5.225500 4.915500 0.000000
v -0.337500 5.319500 0.000000
v -0.346500 7.076500 0.000000
v 0.462500 8.387500 0.000000
v 3.828500 6.928500 0.000000
v 5.225500 -8.200500 0.000000
v -4.118500 -8.387500 0.000000
v -5.225500 4.915500 6.000000
v -0.337500 5.319500 6.000000
v -0.346500 7.076500 6.000000
v 0.462500 8.387500 6.000000
v 3.828500 6.928500 6.000000
v 5.225500 -8.200500 6.000000
v -4.118500 -8.387500 6.000000
vn 0.000000 0.000000 -1.000000
vn 0.000000 0.000000 -1.000000
vn 0.000000 0.000000 -1.000000
vn 0.000000 0.000000 -1.000000
vn 0.000000 -0.000000 -1.000000
vn 0.000000 -0.000000 1.000000
vn 0.000000 -0.000000 1.000000
vn 0.000000 0.000000 1.000000
vn 0.000000 0.000000 1.000000
vn 0.000000 0.000000 1.000000
vn -0.082371 0.996602 0.000000
vn -0.082371 0.996602 0.000000
vn -0.999987 -0.005122 0.000000
vn -0.999987 -0.005122 0.000000
vn -0.851011 0.525147 0.000000
vn -0.851011 0.525147 0.000000
vn 0.397699 0.917516 0.000000
vn 0.397699 0.917516 -0.000000
vn 0.995764 0.091948 0.000000
vn 0.995764 0.091948 -0.000000
vn 0.020009 -0.999800 0.000000
vn 0.020009 -0.999800 0.000000
vn -0.996556 -0.082928 0.000000
vn -0.996556 -0.082928 0.000000
usemtl assumed_base
f 7//1 1//1 2//1
f 2//2 3//2 4//2
f 2//3 4//3 5//3
f 7//4 2//4 5//4
f 5//5 6//5 7//5
usemtl assumed_roof
f 14//6 9//6 8//6
f 9//7 11//7 10//7
f 9//8 12//8 11//8
f 14//9 12//9 9//9
f 12//10 14//10 13//10
usemtl assumed_wall
f 1//11 9//11 2//11
f 1//12 8//12 9//12
f 2//13 10//13 3//13
f 2//14 9//14 10//14
f 3//15 11//15 4//15
f 3//16 10//16 11//16
f 4//17 12//17 5//17
f 4//18 11//18 12//18
f 5//19 13//19 6//19
f 5//20 12//20 13//20
f 6//21 14//21 7//21
f 6//22 13//22 14//22
f 7//23 8//23 1//23
f 7//24 14//24 8//24
