# construction_5091_assumed_A_Casa
# source A_Casa
# h_campo 0.000000
# modeled_height 6.000000
# height_kind assumed
# local_origin_world_x 172001.034850
# local_origin_world_y 402500.144600
mtllib construction_artifacts.mtl

o construction_5091_assumed_A_Casa
v 12.282000 -10.411000 0.000000
v 6.766000 -7.301000 0.000000
v 7.686000 -6.175000 0.000000
v 5.683000 -5.122000 0.000000
v -1.080000 -13.902000 0.000000
v -6.166000 -9.963000 0.000000
v -6.968000 -10.715000 0.000000
v -12.063000 -6.953000 0.000000
v -9.044000 -2.954000 0.000000
v -10.901000 -1.350000 0.000000
v -8.792000 1.680000 0.000000
v -16.725000 8.458000 0.000000
v -14.065000 11.413000 0.000000
v -11.942000 9.811000 0.000000
v -10.983000 10.956000 0.000000
v -8.106000 13.902000 0.000000
v -1.953000 8.946000 0.000000
v 1.568000 13.154000 0.000000
v 6.286000 10.069000 0.000000
v 0.962000 2.507000 0.000000
v 9.588000 -2.968000 0.000000
v 10.752000 -1.664000 0.000000
v 16.725000 -5.903000 0.000000
v 14.473000 -9.977000 0.000000
v 13.191000 -9.275000 0.000000
v 12.282000 -10.411000 6.000000
v 6.766000 -7.301000 6.000000
v 7.686000 -6.175000 6.000000
v 5.683000 -5.122000 6.000000
v -1.080000 -13.902000 6.000000
v -6.166000 -9.963000 6.000000
v -6.968000 -10.715000 6.000000
v -12.063000 -6.953000 6.000000
v -9.044000 -2.954000 6.000000
v -10.901000 -1.350000 6.000000
v -8.792000 1.680000 6.000000
v -16.725000 8.458000 6.000000
v -14.065000 11.413000 6.000000
v -11.942000 9.811000 6.000000
v -10.983000 10.956000 6.000000
v -8.106000 13.902000 6.000000
v -1.953000 8.946000 6.000000
v 1.568000 13.154000 6.000000
v 6.286000 10.069000 6.000000
v 0.962000 2.507000 6.000000
v 9.588000 -2.968000 6.000000
v 10.752000 -1.664000 6.000000
v 16.725000 -5.903000 6.000000
v 14.473000 -9.977000 6.000000
v 13.191000 -9.275000 6.000000
vn -0.000000 0.000000 -1.000000
vn 0.000000 0.000000 -1.000000
vn 0.000000 0.000000 -1.000000
vn -0.000000 0.000000 -1.000000
vn 0.000000 0.000000 -1.000000
vn -0.000000 0.000000 -1.000000
vn 0.000000 0.000000 -1.000000
vn 0.000000 0.000000 -1.000000
vn 0.000000 0.000000 -1.000000
vn 0.000000 0.000000 -1.000000
vn 0.000000 0.000000 -1.000000
vn 0.000000 0.000000 -1.000000
vn 0.000000 0.000000 -1.000000
vn 0.000000 0.000000 -1.000000
vn 0.000000 0.000000 -1.000000
vn 0.000000 0.000000 -1.000000
vn 0.000000 0.000000 -1.000000
vn 0.000000 0.000000 -1.000000
vn 0.000000 0.000000 -1.000000
vn 0.000000 0.000000 -1.000000
vn 0.000000 0.000000 -1.000000
vn 0.000000 0.000000 -1.000000
vn 0.000000 0.000000 -1.000000
vn 0.000000 0.000000 1.000000
vn 0.000000 0.000000 1.000000
vn 0.000000 0.000000 1.000000
vn 0.000000 0.000000 1.000000
vn 0.000000 0.000000 1.000000
vn 0.000000 0.000000 1.000000
vn 0.000000 0.000000 1.000000
vn 0.000000 0.000000 1.000000
vn 0.000000 0.000000 1.000000
vn 0.000000 0.000000 1.000000
vn 0.000000 0.000000 1.000000
vn 0.000000 0.000000 1.000000
vn 0.000000 0.000000 1.000000
vn 0.000000 0.000000 1.000000
vn -0.000000 0.000000 1.000000
vn 0.000000 0.000000 1.000000
vn -0.000000 0.000000 1.000000
vn 0.000000 0.000000 1.000000
vn 0.000000 0.000000 1.000000
vn 0.000000 0.000000 1.000000
vn 0.000000 0.000000 1.000000
vn 0.000000 -0.000000 1.000000
vn 0.000000 0.000000 1.000000
vn -0.491131 -0.871086 0.000000
vn -0.491131 -0.871086 0.000000
vn -0.774386 0.632713 0.000000
vn -0.774386 0.632713 0.000000
vn -0.465327 -0.885139 0.000000
vn -0.465327 -0.885139 0.000000
vn 0.792225 -0.610230 0.000000
vn 0.792225 -0.610230 0.000000
vn -0.612314 -0.790614 0.000000
vn -0.612314 -0.790614 0.000000
vn 0.684002 -0.729480 0.000000
vn 0.684002 -0.729480 0.000000
vn -0.593996 -0.804468 0.000000
vn -0.593996 -0.804468 0.000000
vn -0.798104 0.602520 0.000000
vn -0.798104 0.602520 0.000000
vn -0.653673 -0.756777 0.000000
vn -0.653673 -0.756777 0.000000
vn -0.820756 0.571279 0.000000
vn -0.820756 0.571279 0.000000
vn -0.649591 -0.760284 0.000000
vn -0.649591 -0.760284 0.000000
vn -0.743232 0.669034 0.000000
vn -0.743232 0.669034 0.000000
vn 0.602344 0.798237 0.000000
vn 0.602344 0.798237 -0.000000
vn -0.766627 0.642092 0.000000
vn -0.766627 0.642092 0.000000
vn -0.715435 0.698679 0.000000
vn -0.715435 0.698679 0.000000
vn 0.627285 0.778790 0.000000
vn 0.627285 0.778790 -0.000000
vn -0.766935 0.641725 0.000000
vn -0.766935 0.641725 0.000000
vn 0.547268 0.836957 0.000000
vn 0.547268 0.836957 -0.000000
vn 0.817674 -0.575681 0.000000
vn 0.817674 -0.575681 0.000000
vn 0.535881 0.844294 0.000000
vn 0.535881 0.844294 -0.000000
vn -0.746019 0.665925 0.000000
vn -0.746019 0.665925 0.000000
vn 0.578756 0.815501 0.000000
vn 0.578756 0.815501 -0.000000
vn 0.875189 -0.483781 0.000000
vn 0.875189 -0.483781 0.000000
vn -0.480290 -0.877110 0.000000
vn -0.480290 -0.877110 0.000000
vn 0.780802 -0.624779 0.000000
vn 0.780802 -0.624779 0.000000
usemtl assumed_base
f 25//1 1//1 2//1
f 25//2 2//2 3//2
f 4//3 5//3 6//3
f 6//4 7//4 8//4
f 4//5 6//5 8//5
f 4//6 8//6 9//6
f 4//7 9//7 10//7
f 4//8 10//8 11//8
f 4//9 11//9 12//9
f 3//10 4//10 12//10
f 25//11 3//11 12//11
f 25//12 12//12 13//12
f 25//13 13//13 14//13
f 25//14 14//14 15//14
f 15//15 16//15 17//15
f 17//16 18//16 19//16
f 17//17 19//17 20//17
f 15//18 17//18 20//18
f 25//19 15//19 20//19
f 25//20 20//20 21//20
f 25//21 21//21 22//21
f 25//22 22//22 23//22
f 23//23 24//23 25//23
usemtl assumed_roof
f 50//24 27//24 26//24
f 50//25 28//25 27//25
f 29//26 31//26 30//26
f 31//27 33//27 32//27
f 29//28 33//28 31//28
f 29//29 34//29 33//29
f 29//30 35//30 34//30
f 29//31 36//31 35//31
f 29//32 37//32 36//32
f 28//33 37//33 29//33
f 50//34 37//34 28//34
f 50//35 38//35 37//35
f 50//36 39//36 38//36
f 50//37 40//37 39//37
f 40//38 42//38 41//38
f 42//39 44//39 43//39
f 42//40 45//40 44//40
f 40//41 45//41 42//41
f 50//42 45//42 40//42
f 50//43 46//43 45//43
f 50//44 47//44 46//44
f 50//45 48//45 47//45
f 48//46 50//46 49//46
usemtl assumed_wall
f 1//47 27//47 2//47
f 1//48 26//48 27//48
f 2//49 28//49 3//49
f 2//50 27//50 28//50
f 3//51 29//51 4//51
f 3//52 28//52 29//52
f 4//53 30//53 5//53
f 4//54 29//54 30//54
f 5//55 31//55 6//55
f 5//56 30//56 31//56
f 6//57 32//57 7//57
f 6//58 31//58 32//58
f 7//59 33//59 8//59
f 7//60 32//60 33//60
f 8//61 34//61 9//61
f 8//62 33//62 34//62
f 9//63 35//63 10//63
f 9//64 34//64 35//64
f 10//65 36//65 11//65
f 10//66 35//66 36//66
f 11//67 37//67 12//67
f 11//68 36//68 37//68
f 12//69 38//69 13//69
f 12//70 37//70 38//70
f 13//71 39//71 14//71
f 13//72 38//72 39//72
f 14//73 40//73 15//73
f 14//74 39//74 40//74
f 15//75 41//75 16//75
f 15//76 40//76 41//76
f 16//77 42//77 17//77
f 16//78 41//78 42//78
f 17//79 43//79 18//79
f 17//80 42//80 43//80
f 18//81 44//81 19//81
f 18//82 43//82 44//82
f 19//83 45//83 20//83
f 19//84 44//84 45//84
f 20//85 46//85 21//85
f 20//86 45//86 46//86
f 21//87 47//87 22//87
f 21//88 46//88 47//88
f 22//89 48//89 23//89
f 22//90 47//90 48//90
f 23//91 49//91 24//91
f 23//92 48//92 49//92
f 24//93 50//93 25//93
f 24//94 49//94 50//94
f 25//95 26//95 1//95
f 25//96 50//96 26//96
