# construction_5487_assumed_A_Casa
# source A_Casa
# h_campo 0.000000
# modeled_height 6.000000
# height_kind assumed
# local_origin_world_x 172001.034850
# local_origin_world_y 402500.144600
mtllib construction_artifacts.mtl

o construction_5487_assumed_A_Casa
v -24.379000 11.966500 0.000000
v -7.675000 10.208500 0.000000
v 13.659000 7.210500 0.000000
v 13.123000 1.994500 0.000000
v 17.516000 3.225500 0.000000
v 18.909000 0.098500 0.000000
v 24.763000 1.280500 0.000000
v 26.769000 -6.481500 0.000000
v 25.520000 -6.712500 0.000000
v 25.966000 -8.874500 0.000000
v 12.028000 -11.966500 0.000000
v 9.274000 -3.744500 0.000000
v 5.595000 -4.592500 0.000000
v 4.016000 -0.665500 0.000000
v -2.805000 0.325500 0.000000
v -2.296000 2.506500 0.000000
v -12.690000 4.323500 0.000000
v -12.582000 5.180500 0.000000
v -26.769000 6.670500 0.000000
v -24.379000 11.966500 6.000000
v -7.675000 10.208500 6.000000
v 13.659000 7.210500 6.000000
v 13.123000 1.994500 6.000000
v 17.516000 3.225500 6.000000
v 18.909000 0.098500 6.000000
v 24.763000 1.280500 6.000000
v 26.769000 -6.481500 6.000000
v 25.520000 -6.712500 6.000000
v 25.966000 -8.874500 6.000000
v 12.028000 -11.966500 6.000000
v 9.274000 -3.744500 6.000000
v 5.595000 -4.592500 6.000000
v 4.016000 -0.665500 6.000000
v -2.805000 0.325500 6.000000
v -2.296000 2.506500 6.000000
v -12.690000 4.323500 6.000000
v -12.582000 5.180500 6.000000
v -26.769000 6.670500 6.000000
vn 0.000000 0.000000 -1.000000
vn 0.000000 0.000000 -1.000000
vn 0.000000 0.000000 -1.000000
vn 0.000000 0.000000 -1.000000
vn 0.000000 0.000000 -1.000000
vn 0.000000 0.000000 -1.000000
vn 0.000000 0.000000 -1.000000
vn 0.000000 -0.000000 -1.000000
vn 0.000000 0.000000 -1.000000
vn 0.000000 0.000000 -1.000000
vn 0.000000 0.000000 -1.000000
vn 0.000000 0.000000 -1.000000
vn 0.000000 0.000000 -1.000000
vn 0.000000 0.000000 -1.000000
vn 0.000000 0.000000 -1.000000
vn 0.000000 0.000000 -1.000000
vn 0.000000 0.000000 -1.000000
vn 0.000000 0.000000 1.000000
vn 0.000000 0.000000 1.000000
vn -0.000000 0.000000 1.000000
vn -0.000000 0.000000 1.000000
vn 0.000000 0.000000 1.000000
vn 0.000000 0.000000 1.000000
vn 0.000000 0.000000 1.000000
vn 0.000000 0.000000 1.000000
vn 0.000000 0.000000 1.000000
vn 0.000000 0.000000 1.000000
vn 0.000000 0.000000 1.000000
vn 0.000000 0.000000 1.000000
vn 0.000000 0.000000 1.000000
vn 0.000000 0.000000 1.000000
vn 0.000000 0.000000 1.000000
vn 0.000000 0.000000 1.000000
vn 0.000000 0.000000 1.000000
vn 0.104666 0.994507 0.000000
vn 0.104666 0.994507 -0.000000
vn 0.139160 0.990270 0.000000
vn 0.139160 0.990270 -0.000000
vn 0.994762 -0.102222 0.000000
vn 0.994762 -0.102222 0.000000
vn -0.269825 0.962909 0.000000
vn -0.269825 0.962909 0.000000
vn 0.913462 0.406924 0.000000
vn 0.913462 0.406924 -0.000000
vn -0.197919 0.980218 0.000000
vn -0.197919 0.980218 0.000000
vn 0.968190 0.250218 0.000000
vn 0.968190 0.250218 -0.000000
vn 0.181864 -0.983324 0.000000
vn 0.181864 -0.983324 0.000000
vn 0.979378 0.202036 0.000000
vn 0.979378 0.202036 -0.000000
vn 0.216574 -0.976266 0.000000
vn 0.216574 -0.976266 0.000000
vn -0.948221 -0.317611 0.000000
vn -0.948221 -0.317611 0.000000
vn 0.224608 -0.974449 0.000000
vn 0.224608 -0.974449 0.000000
vn -0.927807 -0.373060 0.000000
vn -0.927807 -0.373060 0.000000
vn -0.143777 -0.989610 0.000000
vn -0.143777 -0.989610 0.000000
vn -0.973831 0.227272 0.000000
vn -0.973831 0.227272 0.000000
vn -0.172201 -0.985062 0.000000
vn -0.172201 -0.985062 0.000000
vn -0.992153 0.125032 0.000000
vn -0.992153 0.125032 0.000000
vn -0.104451 -0.994530 0.000000
vn -0.104451 -0.994530 0.000000
vn -0.911483 0.411338 0.000000
vn -0.911483 0.411338 0.000000
usemtl assumed_base
f 19//1 1//1 2//1
f 19//2 2//2 3//2
f 4//3 5//3 6//3
f 6//4 7//4 8//4
f 4//5 6//5 8//5
f 4//6 8//6 9//6
f 4//7 9//7 10//7
f 4//8 10//8 11//8
f 4//9 11//9 12//9
f 3//10 4//10 12//10
f 3//11 12//11 13//11
f 3//12 13//12 14//12
f 3//13 14//13 15//13
f 3//14 15//14 16//14
f 3//15 16//15 17//15
f 3//16 17//16 18//16
f 3//17 18//17 19//17
usemtl assumed_roof
f 38//18 21//18 20//18
f 38//19 22//19 21//19
f 23//20 25//20 24//20
f 25//21 27//21 26//21
f 23//22 27//22 25//22
f 23//23 28//23 27//23
f 23//24 29//24 28//24
f 23//25 30//25 29//25
f 23//26 31//26 30//26
f 22//27 31//27 23//27
f 22//28 32//28 31//28
f 22//29 33//29 32//29
f 22//30 34//30 33//30
f 22//31 35//31 34//31
f 22//32 36//32 35//32
f 22//33 37//33 36//33
f 22//34 38//34 37//34
usemtl assumed_wall
f 1//35 21//35 2//35
f 1//36 20//36 21//36
f 2//37 22//37 3//37
f 2//38 21//38 22//38
f 3//39 23//39 4//39
f 3//40 22//40 23//40
f 4//41 24//41 5//41
f 4//42 23//42 24//42
f 5//43 25//43 6//43
f 5//44 24//44 25//44
f 6//45 26//45 7//45
f 6//46 25//46 26//46
f 7//47 27//47 8//47
f 7//48 26//48 27//48
f 8//49 28//49 9//49
f 8//50 27//50 28//50
f 9//51 29//51 10//51
f 9//52 28//52 29//52
f 10//53 30//53 11//53
f 10//54 29//54 30//54
f 11//55 31//55 12//55
f 11//56 30//56 31//56
f 12//57 32//57 13//57
f 12//58 31//58 32//58
f 13//59 33//59 14//59
f 13//60 32//60 33//60
f 14//61 34//61 15//61
f 14//62 33//62 34//62
f 15//63 35//63 16//63
f 15//64 34//64 35//64
f 16//65 36//65 17//65
f 16//66 35//66 36//66
f 17//67 37//67 18//67
f 17//68 36//68 37//68
f 18//69 38//69 19//69
f 18//70 37//70 38//70
f 19//71 20//71 1//71
f 19//72 38//72 20//72
