# construction_2255_assumed_A_Casa
# source A_Casa
# h_campo 0.000000
# modeled_height 6.000000
# height_kind assumed
# local_origin_world_x 172001.034850
# local_origin_world_y 402500.144600
mtllib construction_artifacts.mtl

o construction_2255_assumed_A_Casa
v -10.478500 0.866500 0.000000
v -8.355500 8.145500 0.000000
v -3.570500 5.282500 0.000000
v 3.609500 8.514500 0.000000
v 7.472500 -2.493500 0.000000
v 9.281500 -1.243500 0.000000
v 10.478500 -6.326500 0.000000
v -0.798500 -8.514500 0.000000
v -1.410500 -5.937500 0.000000
v -9.855500 -5.646500 0.000000
v -10.478500 0.866500 6.000000
v -8.355500 8.145500 6.000000
v -3.570500 5.282500 6.000000
v 3.609500 8.514500 6.000000
v 7.472500 -2.493500 6.000000
v 9.281500 -1.243500 6.000000
v 10.478500 -6.326500 6.000000
v -0.798500 -8.514500 6.000000
v -1.410500 -5.937500 6.000000
v -9.855500 -5.646500 6.000000
vn 0.000000 0.000000 -1.000000
vn 0.000000 0.000000 -1.000000
vn 0.000000 0.000000 -1.000000
vn 0.000000 0.000000 -1.000000
vn 0.000000 0.000000 -1.000000
vn 0.000000 0.000000 -1.000000
vn -0.000000 0.000000 -1.000000
vn 0.000000 0.000000 -1.000000
vn 0.000000 -0.000000 1.000000
vn 0.000000 0.000000 1.000000
vn 0.000000 0.000000 1.000000
vn 0.000000 0.000000 1.000000
vn -0.000000 0.000000 1.000000
vn -0.000000 0.000000 1.000000
vn 0.000000 0.000000 1.000000
vn 0.000000 0.000000 1.000000
vn -0.960001 0.279995 0.000000
vn -0.960001 0.279995 0.000000
vn 0.513440 0.858125 0.000000
vn 0.513440 0.858125 -0.000000
vn -0.410470 0.911874 0.000000
vn -0.410470 0.911874 0.000000
vn 0.943585 0.331129 0.000000
vn 0.943585 0.331129 -0.000000
vn -0.568477 0.822699 0.000000
vn -0.568477 0.822699 0.000000
vn 0.973374 0.229221 0.000000
vn 0.973374 0.229221 -0.000000
vn 0.190471 -0.981693 0.000000
vn 0.190471 -0.981693 0.000000
vn -0.972940 -0.231059 0.000000
vn -0.972940 -0.231059 0.000000
vn -0.034438 -0.999407 0.000000
vn -0.034438 -0.999407 0.000000
vn -0.995456 -0.095220 0.000000
vn -0.995456 -0.095220 0.000000
usemtl assumed_base
f 10//1 1//1 2//1
f 10//2 2//2 3//2
f 10//3 3//3 4//3
f 10//4 4//4 5//4
f 5//5 6//5 7//5
f 10//6 5//6 7//6
f 7//7 8//7 9//7
f 7//8 9//8 10//8
usemtl assumed_roof
f 20//9 12//9 11//9
f 20//10 13//10 12//10
f 20//11 14//11 13//11
f 20//12 15//12 14//12
f 15//13 17//13 16//13
f 20//14 17//14 15//14
f 17//15 19//15 18//15
f 17//16 20//16 19//16
usemtl assumed_wall
f 1//17 12//17 2//17
f 1//18 11//18 12//18
f 2//19 13//19 3//19
f 2//20 12//20 13//20
f 3//21 14//21 4//21
f 3//22 13//22 14//22
f 4//23 15//23 5//23
f 4//24 14//24 15//24
f 5//25 16//25 6//25
f 5//26 15//26 16//26
f 6//27 17//27 7//27
f 6//28 16//28 17//28
f 7//29 18//29 8//29
f 7//30 17//30 18//30
f 8//31 19//31 9//31
f 8//32 18//32 19//32
f 9//33 20//33 10//33
f 9//34 19//34 20//34
f 10//35 11//35 1//35
f 10//36 20//36 11//36
