# construction_2721_assumed_A_Casa
# source A_Casa
# h_campo 0.000000
# modeled_height 6.000000
# height_kind assumed
# local_origin_world_x 172001.034850
# local_origin_world_y 402500.144600
mtllib construction_artifacts.mtl

o construction_2721_assumed_A_Casa
v 4.803500 -19.790000 0.000000
v -0.530500 -19.623000 0.000000
v -0.533500 -18.757000 0.000000
v 2.079500 -18.748000 0.000000
v 2.276500 -13.383000 0.000000
v -0.366500 -13.392000 0.000000
v -0.383500 -8.475000 0.000000
v 1.780500 -8.468000 0.000000
v 2.221500 -1.463000 0.000000
v -0.346500 -1.472000 0.000000
v -0.409500 3.768000 0.000000
v -3.179500 4.191000 0.000000
v -3.419500 6.556000 0.000000
v -7.795500 7.035000 0.000000
v -8.690500 2.116000 0.000000
v -13.006500 2.781000 0.000000
v -12.442500 9.786000 0.000000
v -18.455500 9.441000 0.000000
v -18.200500 11.715000 0.000000
v -26.350500 12.645000 0.000000
v -25.648500 19.790000 0.000000
v 26.350500 16.970000 0.000000
v 25.720500 -2.110000 0.000000
v 21.329500 -1.862000 0.000000
v 21.621500 7.694000 0.000000
v 13.210500 8.020000 0.000000
v 13.202500 5.871000 0.000000
v 10.759500 5.863000 0.000000
v 10.725500 6.898000 0.000000
v 6.813500 7.117000 0.000000
v 6.283500 -0.506000 0.000000
v 5.448500 -0.509000 0.000000
v 4.803500 -19.790000 6.000000
v -0.530500 -19.623000 6.000000
v -0.533500 -18.757000 6.000000
v 2.079500 -18.748000 6.000000
v 2.276500 -13.383000 6.000000
v -0.366500 -13.392000 6.000000
v -0.383500 -8.475000 6.000000
v 1.780500 -8.468000 6.000000
v 2.221500 -1.463000 6.000000
v -0.346500 -1.472000 6.000000
v -0.409500 3.768000 6.000000
v -3.179500 4.191000 6.000000
v -3.419500 6.556000 6.000000
v -7.795500 7.035000 6.000000
v -8.690500 2.116000 6.000000
v -13.006500 2.781000 6.000000
v -12.442500 9.786000 6.000000
v -18.455500 9.441000 6.000000
v -18.200500 11.715000 6.000000
v -26.350500 12.645000 6.000000
v -25.648500 19.790000 6.000000
v 26.350500 16.970000 6.000000
v 25.720500 -2.110000 6.000000
v 21.329500 -1.862000 6.000000
v 21.621500 7.694000 6.000000
v 13.210500 8.020000 6.000000
v 13.202500 5.871000 6.000000
v 10.759500 5.863000 6.000000
v 10.725500 6.898000 6.000000
v 6.813500 7.117000 6.000000
v 6.283500 -0.506000 6.000000
v 5.448500 -0.509000 6.000000
vn 0.000000 0.000000 -1.000000
vn 0.000000 0.000000 -1.000000
vn 0.000000 0.000000 -1.000000
vn 0.000000 0.000000 -1.000000
vn 0.000000 0.000000 -1.000000
vn 0.000000 0.000000 -1.000000
vn 0.000000 0.000000 -1.000000
vn 0.000000 0.000000 -1.000000
vn 0.000000 0.000000 -1.000000
vn -0.000000 0.000000 -1.000000
vn 0.000000 0.000000 -1.000000
vn 0.000000 0.000000 -1.000000
vn 0.000000 0.000000 -1.000000
vn -0.000000 0.000000 -1.000000
vn 0.000000 0.000000 -1.000000
vn -0.000000 0.000000 -1.000000
vn 0.000000 0.000000 -1.000000
vn 0.000000 0.000000 -1.000000
vn 0.000000 0.000000 -1.000000
vn 0.000000 0.000000 -1.000000
vn 0.000000 0.000000 -1.000000
vn 0.000000 0.000000 -1.000000
vn 0.000000 0.000000 -1.000000
vn 0.000000 0.000000 -1.000000
vn 0.000000 0.000000 -1.000000
vn 0.000000 0.000000 -1.000000
vn 0.000000 0.000000 -1.000000
vn 0.000000 0.000000 -1.000000
vn 0.000000 0.000000 -1.000000
vn 0.000000 0.000000 -1.000000
vn 0.000000 0.000000 1.000000
vn 0.000000 0.000000 1.000000
vn 0.000000 0.000000 1.000000
vn 0.000000 0.000000 1.000000
vn 0.000000 0.000000 1.000000
vn 0.000000 -0.000000 1.000000
vn 0.000000 0.000000 1.000000
vn 0.000000 0.000000 1.000000
vn 0.000000 0.000000 1.000000
vn 0.000000 0.000000 1.000000
vn 0.000000 0.000000 1.000000
vn 0.000000 0.000000 1.000000
vn 0.000000 0.000000 1.000000
vn 0.000000 0.000000 1.000000
vn 0.000000 0.000000 1.000000
vn 0.000000 0.000000 1.000000
vn 0.000000 0.000000 1.000000
vn 0.000000 0.000000 1.000000
vn 0.000000 0.000000 1.000000
vn 0.000000 -0.000000 1.000000
vn 0.000000 0.000000 1.000000
vn 0.000000 0.000000 1.000000
vn 0.000000 0.000000 1.000000
vn 0.000000 0.000000 1.000000
vn 0.000000 0.000000 1.000000
vn 0.000000 0.000000 1.000000
vn 0.000000 0.000000 1.000000
vn 0.000000 0.000000 1.000000
vn 0.000000 -0.000000 1.000000
vn 0.000000 0.000000 1.000000
vn -0.031293 -0.999510 0.000000
vn -0.031293 -0.999510 0.000000
vn -0.999994 -0.003464 0.000000
vn -0.999994 -0.003464 0.000000
vn -0.003444 0.999994 0.000000
vn -0.003444 0.999994 0.000000
vn -0.999327 0.036695 0.000000
vn -0.999327 0.036695 0.000000
vn 0.003405 -0.999994 0.000000
vn 0.003405 -0.999994 0.000000
vn -0.999994 -0.003457 0.000000
vn -0.999994 -0.003457 0.000000
vn -0.003235 0.999995 0.000000
vn -0.003235 0.999995 0.000000
vn -0.998024 0.062831 0.000000
vn -0.998024 0.062831 0.000000
vn 0.003505 -0.999994 0.000000
vn 0.003505 -0.999994 0.000000
vn -0.999928 -0.012022 0.000000
vn -0.999928 -0.012022 0.000000
vn -0.150958 -0.988540 0.000000
vn -0.150958 -0.988540 0.000000
vn -0.994890 -0.100961 0.000000
vn -0.994890 -0.100961 0.000000
vn -0.108811 -0.994062 0.000000
vn -0.108811 -0.994062 0.000000
vn 0.983848 -0.179009 0.000000
vn 0.983848 -0.179009 0.000000
vn -0.152281 -0.988337 0.000000
vn -0.152281 -0.988337 0.000000
vn -0.996774 0.080254 0.000000
vn -0.996774 0.080254 0.000000
vn 0.057281 -0.998358 0.000000
vn 0.057281 -0.998358 0.000000
vn -0.993771 0.111439 0.000000
vn -0.993771 0.111439 0.000000
vn -0.113375 -0.993552 0.000000
vn -0.113375 -0.993552 0.000000
vn -0.995208 0.097780 0.000000
vn -0.995208 0.097780 0.000000
vn 0.054152 0.998533 0.000000
vn 0.054152 0.998533 -0.000000
vn 0.999455 -0.033001 0.000000
vn 0.999455 -0.033001 0.000000
vn -0.056389 -0.998409 0.000000
vn -0.056389 -0.998409 0.000000
vn -0.999533 0.030542 0.000000
vn -0.999533 0.030542 0.000000
vn -0.038730 -0.999250 0.000000
vn -0.038730 -0.999250 0.000000
vn 0.999993 -0.003723 0.000000
vn 0.999993 -0.003723 0.000000
vn 0.003275 -0.999995 0.000000
vn 0.003275 -0.999995 0.000000
vn -0.999461 -0.032833 0.000000
vn -0.999461 -0.032833 0.000000
vn -0.055894 -0.998437 0.000000
vn -0.055894 -0.998437 0.000000
vn 0.997592 -0.069359 0.000000
vn 0.997592 -0.069359 0.000000
vn 0.003593 -0.999994 0.000000
vn 0.003593 -0.999994 0.000000
vn 0.999441 -0.033434 0.000000
vn 0.999441 -0.033434 0.000000
usemtl assumed_base
f 1//1 2//1 3//1
f 1//2 3//2 4//2
f 32//3 1//3 4//3
f 32//4 4//4 5//4
f 32//5 5//5 6//5
f 6//6 7//6 8//6
f 32//7 6//7 8//7
f 32//8 8//8 9//8
f 32//9 9//9 10//9
f 32//10 10//10 11//10
f 11//11 12//11 13//11
f 32//12 11//12 13//12
f 14//13 15//13 16//13
f 14//14 16//14 17//14
f 13//15 14//15 17//15
f 17//16 18//16 19//16
f 19//17 20//17 21//17
f 17//18 19//18 21//18
f 13//19 17//19 21//19
f 13//20 21//20 22//20
f 22//21 23//21 24//21
f 22//22 24//22 25//22
f 22//23 25//23 26//23
f 13//24 22//24 26//24
f 26//25 27//25 28//25
f 26//26 28//26 29//26
f 26//27 29//27 30//27
f 13//28 26//28 30//28
f 32//29 13//29 30//29
f 30//30 31//30 32//30
usemtl assumed_roof
f 33//31 35//31 34//31
f 33//32 36//32 35//32
f 64//33 36//33 33//33
f 64//34 37//34 36//34
f 64//35 38//35 37//35
f 38//36 40//36 39//36
f 64//37 40//37 38//37
f 64//38 41//38 40//38
f 64//39 42//39 41//39
f 64//40 43//40 42//40
f 43//41 45//41 44//41
f 64//42 45//42 43//42
f 46//43 48//43 47//43
f 46//44 49//44 48//44
f 45//45 49//45 46//45
f 49//46 51//46 50//46
f 51//47 53//47 52//47
f 49//48 53//48 51//48
f 45//49 53//49 49//49
f 45//50 54//50 53//50
f 54//51 56//51 55//51
f 54//52 57//52 56//52
f 54//53 58//53 57//53
f 45//54 58//54 54//54
f 58//55 60//55 59//55
f 58//56 61//56 60//56
f 58//57 62//57 61//57
f 45//58 62//58 58//58
f 64//59 62//59 45//59
f 62//60 64//60 63//60
usemtl assumed_wall
f 1//61 34//61 2//61
f 1//62 33//62 34//62
f 2//63 35//63 3//63
f 2//64 34//64 35//64
f 3//65 36//65 4//65
f 3//66 35//66 36//66
f 4//67 37//67 5//67
f 4//68 36//68 37//68
f 5//69 38//69 6//69
f 5//70 37//70 38//70
f 6//71 39//71 7//71
f 6//72 38//72 39//72
f 7//73 40//73 8//73
f 7//74 39//74 40//74
f 8//75 41//75 9//75
f 8//76 40//76 41//76
f 9//77 42//77 10//77
f 9//78 41//78 42//78
f 10//79 43//79 11//79
f 10//80 42//80 43//80
f 11//81 44//81 12//81
f 11//82 43//82 44//82
f 12//83 45//83 13//83
f 12//84 44//84 45//84
f 13//85 46//85 14//85
f 13//86 45//86 46//86
f 14//87 47//87 15//87
f 14//88 46//88 47//88
f 15//89 48//89 16//89
f 15//90 47//90 48//90
f 16//91 49//91 17//91
f 16//92 48//92 49//92
f 17//93 50//93 18//93
f 17//94 49//94 50//94
f 18//95 51//95 19//95
f 18//96 50//96 51//96
f 19//97 52//97 20//97
f 19//98 51//98 52//98
f 20//99 53//99 21//99
f 20//100 52//100 53//100
f 21//101 54//101 22//101
f 21//102 53//102 54//102
f 22//103 55//103 23//103
f 22//104 54//104 55//104
f 23//105 56//105 24//105
f 23//106 55//106 56//106
f 24//107 57//107 25//107
f 24//108 56//108 57//108
f 25//109 58//109 26//109
f 25//110 57//110 58//110
f 26//111 59//111 27//111
f 26//112 58//112 59//112
f 27//113 60//113 28//113
f 27//114 59//114 60//114
f 28//115 61//115 29//115
f 28//116 60//116 61//116
f 29//117 62//117 30//117
f 29//118 61//118 62//118
f 30//119 63//119 31//119
f 30//120 62//120 63//120
f 31//121 64//121 32//121
f 31//122 63//122 64//122
f 32//123 33//123 1//123
f 32//124 64//124 33//124
