# construction_1657_assumed_A_Casa
# source A_Casa
# h_campo 0.000000
# modeled_height 6.000000
# height_kind assumed
# local_origin_world_x 172001.034850
# local_origin_world_y 402500.144600
mtllib construction_artifacts.mtl

o construction_1657_assumed_A_Casa
v -20.450000 -22.132000 0.000000
v -5.286000 25.678000 0.000000
v -1.960000 35.684000 0.000000
v 20.450000 22.150000 0.000000
v 18.913000 17.760000 0.000000
v 3.712000 -29.978000 0.000000
v -0.220000 -28.822000 0.000000
v -3.503000 -35.684000 0.000000
v -16.287000 -31.891000 0.000000
v -19.428000 -27.152000 0.000000
v -17.230000 -23.052000 0.000000
v -20.450000 -22.132000 6.000000
v -5.286000 25.678000 6.000000
v -1.960000 35.684000 6.000000
v 20.450000 22.150000 6.000000
v 18.913000 17.760000 6.000000
v 3.712000 -29.978000 6.000000
v -0.220000 -28.822000 6.000000
v -3.503000 -35.684000 6.000000
v -16.287000 -31.891000 6.000000
v -19.428000 -27.152000 6.000000
v -17.230000 -23.052000 6.000000
vn 0.000000 0.000000 -1.000000
vn 0.000000 0.000000 -1.000000
vn 0.000000 0.000000 -1.000000
vn 0.000000 0.000000 -1.000000
vn 0.000000 0.000000 -1.000000
vn 0.000000 0.000000 -1.000000
vn 0.000000 0.000000 -1.000000
vn 0.000000 0.000000 -1.000000
vn 0.000000 0.000000 -1.000000
vn 0.000000 -0.000000 1.000000
vn 0.000000 0.000000 1.000000
vn 0.000000 0.000000 1.000000
vn 0.000000 0.000000 1.000000
vn -0.000000 0.000000 1.000000
vn 0.000000 0.000000 1.000000
vn 0.000000 0.000000 1.000000
vn 0.000000 0.000000 1.000000
vn 0.000000 0.000000 1.000000
vn -0.953203 0.302330 0.000000
vn -0.953203 0.302330 0.000000
vn -0.948949 0.315431 0.000000
vn -0.948949 0.315431 0.000000
vn 0.516965 0.856006 0.000000
vn 0.516965 0.856006 -0.000000
vn 0.943825 -0.330446 0.000000
vn 0.943825 -0.330446 0.000000
vn 0.952859 -0.303415 0.000000
vn 0.952859 -0.303415 0.000000
vn -0.282061 -0.959397 0.000000
vn -0.282061 -0.959397 0.000000
vn 0.902074 -0.431581 0.000000
vn 0.902074 -0.431581 0.000000
vn -0.284443 -0.958693 0.000000
vn -0.284443 -0.958693 0.000000
vn -0.833536 -0.552466 0.000000
vn -0.833536 -0.552466 0.000000
vn -0.881339 0.472484 0.000000
vn -0.881339 0.472484 0.000000
vn -0.274721 -0.961524 0.000000
vn -0.274721 -0.961524 0.000000
usemtl assumed_base
f 11//1 1//1 2//1
f 11//2 2//2 3//2
f 11//3 3//3 4//3
f 11//4 4//4 5//4
f 11//5 5//5 6//5
f 11//6 6//6 7//6
f 11//7 7//7 8//7
f 11//8 8//8 9//8
f 9//9 10//9 11//9
usemtl assumed_roof
f 22//10 13//10 12//10
f 22//11 14//11 13//11
f 22//12 15//12 14//12
f 22//13 16//13 15//13
f 22//14 17//14 16//14
f 22//15 18//15 17//15
f 22//16 19//16 18//16
f 22//17 20//17 19//17
f 20//18 22//18 21//18
usemtl assumed_wall
f 1//19 13//19 2//19
f 1//20 12//20 13//20
f 2//21 14//21 3//21
f 2//22 13//22 14//22
f 3//23 15//23 4//23
f 3//24 14//24 15//24
f 4//25 16//25 5//25
f 4//26 15//26 16//26
f 5//27 17//27 6//27
f 5//28 16//28 17//28
f 6//29 18//29 7//29
f 6//30 17//30 18//30
f 7//31 19//31 8//31
f 7//32 18//32 19//32
f 8//33 20//33 9//33
f 8//34 19//34 20//34
f 9//35 21//35 10//35
f 9//36 20//36 21//36
f 10//37 22//37 11//37
f 10//38 21//38 22//38
f 11//39 12//39 1//39
f 11//40 22//40 12//40
