# construction_3763_assumed_A_Casa
# source A_Casa
# h_campo 0.000000
# modeled_height 6.000000
# height_kind assumed
# local_origin_world_x 172001.034850
# local_origin_world_y 402500.144600
mtllib construction_artifacts.mtl

o construction_3763_assumed_A_Casa
v 10.356500 20.476000 0.000000
v 7.152500 4.798000 0.000000
v 4.709500 5.674000 0.000000
v 1.720500 0.807000 0.000000
v 3.618500 -0.556000 0.000000
v 2.090500 -3.397000 0.000000
v 3.203500 -4.410000 0.000000
v -1.214500 -10.760000 0.000000
v 1.187500 -13.032000 0.000000
v 2.523500 -12.059000 0.000000
v 5.995500 -17.163000 0.000000
v 3.323500 -19.218000 0.000000
v 4.426500 -20.348000 0.000000
v 2.149500 -22.121000 0.000000
v -5.287500 -13.208000 0.000000
v -2.464500 -10.849000 0.000000
v -10.356500 -4.746000 0.000000
v -6.660500 -0.120000 0.000000
v -8.060500 0.786000 0.000000
v -2.971500 7.250000 0.000000
v -3.525500 8.080000 0.000000
v 7.614500 22.121000 0.000000
v 10.356500 20.476000 6.000000
v 7.152500 4.798000 6.000000
v 4.709500 5.674000 6.000000
v 1.720500 0.807000 6.000000
v 3.618500 -0.556000 6.000000
v 2.090500 -3.397000 6.000000
v 3.203500 -4.410000 6.000000
v -1.214500 -10.760000 6.000000
v 1.187500 -13.032000 6.000000
v 2.523500 -12.059000 6.000000
v 5.995500 -17.163000 6.000000
v 3.323500 -19.218000 6.000000
v 4.426500 -20.348000 6.000000
v 2.149500 -22.121000 6.000000
v -5.287500 -13.208000 6.000000
v -2.464500 -10.849000 6.000000
v -10.356500 -4.746000 6.000000
v -6.660500 -0.120000 6.000000
v -8.060500 0.786000 6.000000
v -2.971500 7.250000 6.000000
v -3.525500 8.080000 6.000000
v 7.614500 22.121000 6.000000
vn 0.000000 -0.000000 -1.000000
vn 0.000000 0.000000 -1.000000
vn 0.000000 0.000000 -1.000000
vn 0.000000 0.000000 -1.000000
vn 0.000000 -0.000000 -1.000000
vn 0.000000 -0.000000 -1.000000
vn 0.000000 0.000000 -1.000000
vn 0.000000 0.000000 -1.000000
vn 0.000000 0.000000 -1.000000
vn 0.000000 -0.000000 -1.000000
vn 0.000000 0.000000 -1.000000
vn 0.000000 -0.000000 -1.000000
vn 0.000000 0.000000 -1.000000
vn 0.000000 0.000000 -1.000000
vn 0.000000 0.000000 -1.000000
vn 0.000000 0.000000 -1.000000
vn 0.000000 0.000000 -1.000000
vn 0.000000 0.000000 -1.000000
vn 0.000000 0.000000 -1.000000
vn 0.000000 0.000000 -1.000000
vn 0.000000 0.000000 1.000000
vn 0.000000 0.000000 1.000000
vn 0.000000 0.000000 1.000000
vn 0.000000 0.000000 1.000000
vn 0.000000 0.000000 1.000000
vn 0.000000 0.000000 1.000000
vn -0.000000 0.000000 1.000000
vn 0.000000 0.000000 1.000000
vn 0.000000 0.000000 1.000000
vn 0.000000 0.000000 1.000000
vn 0.000000 0.000000 1.000000
vn 0.000000 0.000000 1.000000
vn 0.000000 0.000000 1.000000
vn 0.000000 0.000000 1.000000
vn 0.000000 0.000000 1.000000
vn 0.000000 0.000000 1.000000
vn 0.000000 0.000000 1.000000
vn 0.000000 -0.000000 1.000000
vn 0.000000 0.000000 1.000000
vn 0.000000 -0.000000 1.000000
vn 0.979750 -0.200224 0.000000
vn 0.979750 -0.200224 0.000000
vn -0.337532 -0.941314 0.000000
vn -0.337532 -0.941314 0.000000
vn 0.852133 -0.523325 0.000000
vn 0.852133 -0.523325 0.000000
vn 0.583301 0.812256 0.000000
vn 0.583301 0.812256 -0.000000
vn 0.880700 -0.473675 0.000000
vn 0.880700 -0.473675 0.000000
vn 0.673103 0.739549 0.000000
vn 0.673103 0.739549 -0.000000
vn 0.820868 -0.571118 0.000000
vn 0.820868 -0.571118 0.000000
vn 0.687174 0.726493 0.000000
vn 0.687174 0.726493 -0.000000
vn -0.588711 0.808343 0.000000
vn -0.588711 0.808343 0.000000
vn 0.826830 0.562452 0.000000
vn 0.826830 0.562452 -0.000000
vn 0.609639 -0.792679 0.000000
vn 0.609639 -0.792679 0.000000
vn 0.715604 0.698506 0.000000
vn 0.715604 0.698506 -0.000000
vn 0.614372 -0.789016 0.000000
vn 0.614372 -0.789016 0.000000
vn -0.767819 -0.640667 0.000000
vn -0.767819 -0.640667 0.000000
vn -0.641227 0.767352 0.000000
vn -0.641227 0.767352 0.000000
vn -0.611738 -0.791060 0.000000
vn -0.611738 -0.791060 0.000000
vn -0.781264 0.624201 0.000000
vn -0.781264 0.624201 0.000000
vn -0.543301 -0.839538 0.000000
vn -0.543301 -0.839538 0.000000
vn -0.785719 0.618584 0.000000
vn -0.785719 0.618584 0.000000
vn -0.831742 -0.555163 0.000000
vn -0.831742 -0.555163 0.000000
vn -0.783388 0.621533 0.000000
vn -0.783388 0.621533 0.000000
vn 0.514450 0.857521 0.000000
vn 0.514450 0.857521 -0.000000
usemtl assumed_base
f 22//1 1//1 2//1
f 22//2 2//2 3//2
f 22//3 3//3 4//3
f 4//4 5//4 6//4
f 6//5 7//5 8//5
f 4//6 6//6 8//6
f 9//7 10//7 11//7
f 9//8 11//8 12//8
f 8//9 9//9 12//9
f 12//10 13//10 14//10
f 8//11 12//11 14//11
f 8//12 14//12 15//12
f 8//13 15//13 16//13
f 4//14 8//14 16//14
f 22//15 4//15 16//15
f 16//16 17//16 18//16
f 22//17 16//17 18//17
f 18//18 19//18 20//18
f 22//19 18//19 20//19
f 20//20 21//20 22//20
usemtl assumed_roof
f 44//21 24//21 23//21
f 44//22 25//22 24//22
f 44//23 26//23 25//23
f 26//24 28//24 27//24
f 28//25 30//25 29//25
f 26//26 30//26 28//26
f 31//27 33//27 32//27
f 31//28 34//28 33//28
f 30//29 34//29 31//29
f 34//30 36//30 35//30
f 30//31 36//31 34//31
f 30//32 37//32 36//32
f 30//33 38//33 37//33
f 26//34 38//34 30//34
f 44//35 38//35 26//35
f 38//36 40//36 39//36
f 44//37 40//37 38//37
f 40//38 42//38 41//38
f 44//39 42//39 40//39
f 42//40 44//40 43//40
usemtl assumed_wall
f 1//41 24//41 2//41
f 1//42 23//42 24//42
f 2//43 25//43 3//43
f 2//44 24//44 25//44
f 3//45 26//45 4//45
f 3//46 25//46 26//46
f 4//47 27//47 5//47
f 4//48 26//48 27//48
f 5//49 28//49 6//49
f 5//50 27//50 28//50
f 6//51 29//51 7//51
f 6//52 28//52 29//52
f 7//53 30//53 8//53
f 7//54 29//54 30//54
f 8//55 31//55 9//55
f 8//56 30//56 31//56
f 9//57 32//57 10//57
f 9//58 31//58 32//58
f 10//59 33//59 11//59
f 10//60 32//60 33//60
f 11//61 34//61 12//61
f 11//62 33//62 34//62
f 12//63 35//63 13//63
f 12//64 34//64 35//64
f 13//65 36//65 14//65
f 13//66 35//66 36//66
f 14//67 37//67 15//67
f 14//68 36//68 37//68
f 15//69 38//69 16//69
f 15//70 37//70 38//70
f 16//71 39//71 17//71
f 16//72 38//72 39//72
f 17//73 40//73 18//73
f 17//74 39//74 40//74
f 18//75 41//75 19//75
f 18//76 40//76 41//76
f 19//77 42//77 20//77
f 19//78 41//78 42//78
f 20//79 43//79 21//79
f 20//80 42//80 43//80
f 21//81 44//81 22//81
f 21//82 43//82 44//82
f 22//83 23//83 1//83
f 22//84 44//84 23//84
