# construction_3362_assumed_A_Casa
# source A_Casa
# h_campo 0.000000
# modeled_height 6.000000
# height_kind assumed
# local_origin_world_x 172001.034850
# local_origin_world_y 402500.144600
mtllib construction_artifacts.mtl

o construction_3362_assumed_A_Casa
v -7.872500 6.733000 0.000000
v -0.816500 9.309000 0.000000
v -0.603500 8.503000 0.000000
v 1.613500 9.363000 0.000000
v 7.872500 -5.651000 0.000000
v -1.074500 -9.363000 0.000000
v -7.872500 6.733000 6.000000
v -0.816500 9.309000 6.000000
v -0.603500 8.503000 6.000000
v 1.613500 9.363000 6.000000
v 7.872500 -5.651000 6.000000
v -1.074500 -9.363000 6.000000
vn 0.000000 0.000000 -1.000000
vn 0.000000 0.000000 -1.000000
vn 0.000000 0.000000 -1.000000
vn 0.000000 -0.000000 -1.000000
vn 0.000000 -0.000000 1.000000
vn 0.000000 0.000000 1.000000
vn 0.000000 0.000000 1.000000
vn 0.000000 0.000000 1.000000
vn -0.342940 0.939357 0.000000
vn -0.342940 0.939357 0.000000
vn 0.966810 0.255497 0.000000
vn 0.966810 0.255497 -0.000000
vn -0.361655 0.932312 0.000000
vn -0.361655 0.932312 0.000000
vn 0.923008 0.384781 0.000000
vn 0.923008 0.384781 -0.000000
vn 0.383215 -0.923659 0.000000
vn 0.383215 -0.923659 0.000000
vn -0.921210 -0.389065 0.000000
vn -0.921210 -0.389065 0.000000
usemtl assumed_base
f 6//1 1//1 2//1
f 6//2 2//2 3//2
f 6//3 3//3 4//3
f 4//4 5//4 6//4
usemtl assumed_roof
f 12//5 8//5 7//5
f 12//6 9//6 8//6
f 12//7 10//7 9//7
f 10//8 12//8 11//8
usemtl assumed_wall
f 1//9 8//9 2//9
f 1//10 7//10 8//10
f 2//11 9//11 3//11
f 2//12 8//12 9//12
f 3//13 10//13 4//13
f 3//14 9//14 10//14
f 4//15 11//15 5//15
f 4//16 10//16 11//16
f 5//17 12//17 6//17
f 5//18 11//18 12//18
f 6//19 7//19 1//19
f 6//20 12//20 7//20
