# construction_3793_assumed_A_Casa
# source A_Casa
# h_campo 0.000000
# modeled_height 6.000000
# height_kind assumed
# local_origin_world_x 172001.034850
# local_origin_world_y 402500.144600
mtllib construction_artifacts.mtl

o construction_3793_assumed_A_Casa
v -2.732000 -7.621000 0.000000
v -8.379000 -0.838000 0.000000
v -7.404000 -0.052000 0.000000
v -9.155000 2.386000 0.000000
v -1.865000 7.621000 0.000000
v 0.865000 4.512000 0.000000
v 3.202000 6.246000 0.000000
v 3.944000 5.751000 0.000000
v 5.188000 6.790000 0.000000
v 7.521000 4.058000 0.000000
v 7.202000 3.468000 0.000000
v 9.155000 1.039000 0.000000
v -2.732000 -7.621000 6.000000
v -8.379000 -0.838000 6.000000
v -7.404000 -0.052000 6.000000
v -9.155000 2.386000 6.000000
v -1.865000 7.621000 6.000000
v 0.865000 4.512000 6.000000
v 3.202000 6.246000 6.000000
v 3.944000 5.751000 6.000000
v 5.188000 6.790000 6.000000
v 7.521000 4.058000 6.000000
v 7.202000 3.468000 6.000000
v 9.155000 1.039000 6.000000
vn 0.000000 0.000000 -1.000000
vn 0.000000 0.000000 -1.000000
vn -0.000000 0.000000 -1.000000
vn 0.000000 0.000000 -1.000000
vn 0.000000 0.000000 -1.000000
vn 0.000000 0.000000 -1.000000
vn 0.000000 0.000000 -1.000000
vn 0.000000 0.000000 -1.000000
vn 0.000000 0.000000 -1.000000
vn 0.000000 0.000000 -1.000000
vn 0.000000 0.000000 1.000000
vn 0.000000 0.000000 1.000000
vn 0.000000 0.000000 1.000000
vn 0.000000 0.000000 1.000000
vn 0.000000 0.000000 1.000000
vn 0.000000 0.000000 1.000000
vn 0.000000 0.000000 1.000000
vn -0.000000 0.000000 1.000000
vn 0.000000 0.000000 1.000000
vn 0.000000 0.000000 1.000000
vn -0.768528 -0.639817 0.000000
vn -0.768528 -0.639817 0.000000
vn -0.627612 0.778526 0.000000
vn -0.627612 0.778526 0.000000
vn -0.812223 -0.583348 0.000000
vn -0.812223 -0.583348 0.000000
vn -0.583292 0.812263 0.000000
vn -0.583292 0.812263 0.000000
vn 0.751423 0.659821 0.000000
vn 0.751423 0.659821 -0.000000
vn -0.595868 0.803082 0.000000
vn -0.595868 0.803082 0.000000
vn 0.554959 0.831878 0.000000
vn 0.554959 0.831878 -0.000000
vn -0.641034 0.767513 0.000000
vn -0.641034 0.767513 0.000000
vn 0.760454 0.649392 0.000000
vn 0.760454 0.649392 -0.000000
vn 0.879656 -0.475611 0.000000
vn 0.879656 -0.475611 0.000000
vn 0.779333 0.626610 0.000000
vn 0.779333 0.626610 -0.000000
vn 0.588835 -0.808254 0.000000
vn 0.588835 -0.808254 0.000000
usemtl assumed_base
f 12//1 1//1 2//1
f 12//2 2//2 3//2
f 12//3 3//3 4//3
f 4//4 5//4 6//4
f 12//5 4//5 6//5
f 12//6 6//6 7//6
f 12//7 7//7 8//7
f 8//8 9//8 10//8
f 8//9 10//9 11//9
f 8//10 11//10 12//10
usemtl assumed_roof
f 24//11 14//11 13//11
f 24//12 15//12 14//12
f 24//13 16//13 15//13
f 16//14 18//14 17//14
f 24//15 18//15 16//15
f 24//16 19//16 18//16
f 24//17 20//17 19//17
f 20//18 22//18 21//18
f 20//19 23//19 22//19
f 20//20 24//20 23//20
usemtl assumed_wall
f 1//21 14//21 2//21
f 1//22 13//22 14//22
f 2//23 15//23 3//23
f 2//24 14//24 15//24
f 3//25 16//25 4//25
f 3//26 15//26 16//26
f 4//27 17//27 5//27
f 4//28 16//28 17//28
f 5//29 18//29 6//29
f 5//30 17//30 18//30
f 6//31 19//31 7//31
f 6//32 18//32 19//32
f 7//33 20//33 8//33
f 7//34 19//34 20//34
f 8//35 21//35 9//35
f 8//36 20//36 21//36
f 9//37 22//37 10//37
f 9//38 21//38 22//38
f 10//39 23//39 11//39
f 10//40 22//40 23//40
f 11//41 24//41 12//41
f 11//42 23//42 24//42
f 12//43 13//43 1//43
f 12//44 24//44 13//44
