# construction_2751_assumed_A_Casa
# source A_Casa
# h_campo 0.000000
# modeled_height 6.000000
# height_kind assumed
# local_origin_world_x 172001.034850
# local_origin_world_y 402500.144600
mtllib construction_artifacts.mtl

o construction_2751_assumed_A_Casa
v -23.579500 -4.113000 0.000000
v 5.588500 4.182000 0.000000
v 6.601500 1.942000 0.000000
v 10.020500 4.957000 0.000000
v 12.309500 3.048000 0.000000
v 18.105500 7.781000 0.000000
v 23.579500 0.235000 0.000000
v 16.199500 -6.839000 0.000000
v 8.152500 1.039000 0.000000
v 2.857500 -2.959000 0.000000
v 1.780500 -1.533000 0.000000
v -22.009500 -7.781000 0.000000
v -23.579500 -4.113000 6.000000
v 5.588500 4.182000 6.000000
v 6.601500 1.942000 6.000000
v 10.020500 4.957000 6.000000
v 12.309500 3.048000 6.000000
v 18.105500 7.781000 6.000000
v 23.579500 0.235000 6.000000
v 16.199500 -6.839000 6.000000
v 8.152500 1.039000 6.000000
v 2.857500 -2.959000 6.000000
v 1.780500 -1.533000 6.000000
v -22.009500 -7.781000 6.000000
vn 0.000000 0.000000 -1.000000
vn 0.000000 0.000000 -1.000000
vn 0.000000 0.000000 -1.000000
vn 0.000000 0.000000 -1.000000
vn 0.000000 0.000000 -1.000000
vn 0.000000 0.000000 -1.000000
vn 0.000000 -0.000000 -1.000000
vn 0.000000 0.000000 -1.000000
vn 0.000000 0.000000 -1.000000
vn 0.000000 0.000000 -1.000000
vn 0.000000 -0.000000 1.000000
vn 0.000000 0.000000 1.000000
vn 0.000000 0.000000 1.000000
vn 0.000000 0.000000 1.000000
vn -0.000000 0.000000 1.000000
vn 0.000000 0.000000 1.000000
vn 0.000000 0.000000 1.000000
vn 0.000000 0.000000 1.000000
vn 0.000000 0.000000 1.000000
vn 0.000000 0.000000 1.000000
vn -0.273541 0.961860 0.000000
vn -0.273541 0.961860 0.000000
vn 0.911159 0.412055 0.000000
vn 0.911159 0.412055 -0.000000
vn -0.661404 0.750030 0.000000
vn -0.661404 0.750030 0.000000
vn 0.640481 0.767974 0.000000
vn 0.640481 0.767974 -0.000000
vn -0.632503 0.774558 0.000000
vn -0.632503 0.774558 0.000000
vn 0.809450 0.587189 0.000000
vn 0.809450 0.587189 -0.000000
vn 0.691982 -0.721915 0.000000
vn 0.691982 -0.721915 0.000000
vn -0.699563 -0.714571 0.000000
vn -0.699563 -0.714571 0.000000
vn 0.602577 -0.798061 0.000000
vn 0.602577 -0.798061 0.000000
vn -0.797981 -0.602683 0.000000
vn -0.797981 -0.602683 0.000000
vn 0.254017 -0.967200 0.000000
vn 0.254017 -0.967200 0.000000
vn -0.919326 -0.393496 0.000000
vn -0.919326 -0.393496 0.000000
usemtl assumed_base
f 12//1 1//1 2//1
f 12//2 2//2 3//2
f 3//3 4//3 5//3
f 12//4 3//4 5//4
f 5//5 6//5 7//5
f 5//6 7//6 8//6
f 5//7 8//7 9//7
f 12//8 5//8 9//8
f 9//9 10//9 11//9
f 9//10 11//10 12//10
usemtl assumed_roof
f 24//11 14//11 13//11
f 24//12 15//12 14//12
f 15//13 17//13 16//13
f 24//14 17//14 15//14
f 17//15 19//15 18//15
f 17//16 20//16 19//16
f 17//17 21//17 20//17
f 24//18 21//18 17//18
f 21//19 23//19 22//19
f 21//20 24//20 23//20
usemtl assumed_wall
f 1//21 14//21 2//21
f 1//22 13//22 14//22
f 2//23 15//23 3//23
f 2//24 14//24 15//24
f 3//25 16//25 4//25
f 3//26 15//26 16//26
f 4//27 17//27 5//27
f 4//28 16//28 17//28
f 5//29 18//29 6//29
f 5//30 17//30 18//30
f 6//31 19//31 7//31
f 6//32 18//32 19//32
f 7//33 20//33 8//33
f 7//34 19//34 20//34
f 8//35 21//35 9//35
f 8//36 20//36 21//36
f 9//37 22//37 10//37
f 9//38 21//38 22//38
f 10//39 23//39 11//39
f 10//40 22//40 23//40
f 11//41 24//41 12//41
f 11//42 23//42 24//42
f 12//43 13//43 1//43
f 12//44 24//44 13//44
