# construction_3632_assumed_A_Casa
# source A_Casa
# h_campo 0.000000
# modeled_height 6.000000
# height_kind assumed
# local_origin_world_x 172001.034850
# local_origin_world_y 402500.144600
mtllib construction_artifacts.mtl

o construction_3632_assumed_A_Casa
v -2.910500 14.978500 0.000000
v 5.083500 8.680500 0.000000
v 0.327500 1.766500 0.000000
v 11.165500 -7.019500 0.000000
v 4.777500 -14.978500 0.000000
v 1.809500 -12.601500 0.000000
v 0.439500 -14.224500 0.000000
v -9.338500 -6.879500 0.000000
v -8.518500 -6.059500 0.000000
v -11.165500 -4.011500 0.000000
v -6.019500 2.683500 0.000000
v -10.079500 5.804500 0.000000
v -2.910500 14.978500 6.000000
v 5.083500 8.680500 6.000000
v 0.327500 1.766500 6.000000
v 11.165500 -7.019500 6.000000
v 4.777500 -14.978500 6.000000
v 1.809500 -12.601500 6.000000
v 0.439500 -14.224500 6.000000
v -9.338500 -6.879500 6.000000
v -8.518500 -6.059500 6.000000
v -11.165500 -4.011500 6.000000
v -6.019500 2.683500 6.000000
v -10.079500 5.804500 6.000000
vn 0.000000 0.000000 -1.000000
vn 0.000000 0.000000 -1.000000
vn 0.000000 0.000000 -1.000000
vn 0.000000 0.000000 -1.000000
vn -0.000000 0.000000 -1.000000
vn -0.000000 0.000000 -1.000000
vn 0.000000 0.000000 -1.000000
vn 0.000000 0.000000 -1.000000
vn 0.000000 0.000000 -1.000000
vn 0.000000 0.000000 -1.000000
vn 0.000000 0.000000 1.000000
vn -0.000000 0.000000 1.000000
vn 0.000000 0.000000 1.000000
vn 0.000000 0.000000 1.000000
vn 0.000000 0.000000 1.000000
vn 0.000000 0.000000 1.000000
vn 0.000000 0.000000 1.000000
vn 0.000000 0.000000 1.000000
vn 0.000000 0.000000 1.000000
vn 0.000000 0.000000 1.000000
vn 0.618854 0.785506 0.000000
vn 0.618854 0.785506 -0.000000
vn 0.823896 -0.566741 0.000000
vn 0.823896 -0.566741 0.000000
vn 0.629734 0.776811 0.000000
vn 0.629734 0.776811 -0.000000
vn 0.779874 -0.625937 0.000000
vn 0.779874 -0.625937 0.000000
vn -0.625112 -0.780535 0.000000
vn -0.625112 -0.780535 0.000000
vn 0.764154 -0.645034 0.000000
vn 0.764154 -0.645034 0.000000
vn -0.600602 -0.799548 0.000000
vn -0.600602 -0.799548 0.000000
vn -0.707107 0.707107 0.000000
vn -0.707107 0.707107 0.000000
vn -0.611932 -0.790910 0.000000
vn -0.611932 -0.790910 0.000000
vn -0.792853 0.609413 0.000000
vn -0.792853 0.609413 0.000000
vn -0.609456 -0.792820 0.000000
vn -0.609456 -0.792820 0.000000
vn -0.787949 0.615741 0.000000
vn -0.787949 0.615741 0.000000
usemtl assumed_base
f 12//1 1//1 2//1
f 12//2 2//2 3//2
f 12//3 3//3 4//3
f 4//4 5//4 6//4
f 6//5 7//5 8//5
f 4//6 6//6 8//6
f 4//7 8//7 9//7
f 4//8 9//8 10//8
f 4//9 10//9 11//9
f 4//10 11//10 12//10
usemtl assumed_roof
f 24//11 14//11 13//11
f 24//12 15//12 14//12
f 24//13 16//13 15//13
f 16//14 18//14 17//14
f 18//15 20//15 19//15
f 16//16 20//16 18//16
f 16//17 21//17 20//17
f 16//18 22//18 21//18
f 16//19 23//19 22//19
f 16//20 24//20 23//20
usemtl assumed_wall
f 1//21 14//21 2//21
f 1//22 13//22 14//22
f 2//23 15//23 3//23
f 2//24 14//24 15//24
f 3//25 16//25 4//25
f 3//26 15//26 16//26
f 4//27 17//27 5//27
f 4//28 16//28 17//28
f 5//29 18//29 6//29
f 5//30 17//30 18//30
f 6//31 19//31 7//31
f 6//32 18//32 19//32
f 7//33 20//33 8//33
f 7//34 19//34 20//34
f 8//35 21//35 9//35
f 8//36 20//36 21//36
f 9//37 22//37 10//37
f 9//38 21//38 22//38
f 10//39 23//39 11//39
f 10//40 22//40 23//40
f 11//41 24//41 12//41
f 11//42 23//42 24//42
f 12//43 13//43 1//43
f 12//44 24//44 13//44
