# construction_6254_assumed_A_Casa
# source A_Casa
# h_campo 0.000000
# modeled_height 6.000000
# height_kind assumed
# local_origin_world_x 172001.034850
# local_origin_world_y 402500.144600
mtllib construction_artifacts.mtl

o construction_6254_assumed_A_Casa
v -2.017500 -0.871000 0.000000
v -4.571500 0.566000 0.000000
v -5.115500 -0.213000 0.000000
v -9.396500 2.557000 0.000000
v -8.794500 3.682000 0.000000
v -11.515500 4.781000 0.000000
v -9.382500 9.994000 0.000000
v 2.846500 4.263000 0.000000
v 11.515500 -4.378000 0.000000
v 6.502500 -9.994000 0.000000
v 4.174500 -8.176000 0.000000
v -2.604500 -1.482000 0.000000
v -2.017500 -0.871000 6.000000
v -4.571500 0.566000 6.000000
v -5.115500 -0.213000 6.000000
v -9.396500 2.557000 6.000000
v -8.794500 3.682000 6.000000
v -11.515500 4.781000 6.000000
v -9.382500 9.994000 6.000000
v 2.846500 4.263000 6.000000
v 11.515500 -4.378000 6.000000
v 6.502500 -9.994000 6.000000
v 4.174500 -8.176000 6.000000
v -2.604500 -1.482000 6.000000
vn -0.000000 0.000000 -1.000000
vn 0.000000 0.000000 -1.000000
vn 0.000000 0.000000 -1.000000
vn 0.000000 0.000000 -1.000000
vn 0.000000 0.000000 -1.000000
vn 0.000000 0.000000 -1.000000
vn 0.000000 0.000000 -1.000000
vn 0.000000 0.000000 -1.000000
vn 0.000000 0.000000 -1.000000
vn 0.000000 0.000000 -1.000000
vn 0.000000 0.000000 1.000000
vn 0.000000 0.000000 1.000000
vn 0.000000 0.000000 1.000000
vn 0.000000 0.000000 1.000000
vn 0.000000 0.000000 1.000000
vn 0.000000 -0.000000 1.000000
vn -0.000000 0.000000 1.000000
vn -0.000000 0.000000 1.000000
vn 0.000000 0.000000 1.000000
vn 0.000000 0.000000 1.000000
vn -0.490358 -0.871521 0.000000
vn -0.490358 -0.871521 0.000000
vn 0.819874 -0.572544 0.000000
vn 0.819874 -0.572544 0.000000
vn -0.543243 -0.839575 0.000000
vn -0.543243 -0.839575 0.000000
vn -0.881701 0.471808 0.000000
vn -0.881701 0.471808 0.000000
vn -0.374502 -0.927226 0.000000
vn -0.374502 -0.927226 0.000000
vn -0.925522 0.378695 0.000000
vn -0.925522 0.378695 0.000000
vn 0.424352 0.905497 0.000000
vn 0.424352 0.905497 -0.000000
vn 0.705962 0.708250 0.000000
vn 0.705962 0.708250 -0.000000
vn 0.746023 -0.665921 0.000000
vn 0.746023 -0.665921 0.000000
vn -0.615486 -0.788148 0.000000
vn -0.615486 -0.788148 0.000000
vn -0.702632 -0.711554 0.000000
vn -0.702632 -0.711554 0.000000
vn -0.721128 0.692802 0.000000
vn -0.721128 0.692802 0.000000
usemtl assumed_base
f 2//1 3//1 4//1
f 2//2 4//2 5//2
f 1//3 2//3 5//3
f 5//4 6//4 7//4
f 1//5 5//5 7//5
f 1//6 7//6 8//6
f 1//7 8//7 9//7
f 12//8 1//8 9//8
f 12//9 9//9 10//9
f 10//10 11//10 12//10
usemtl assumed_roof
f 14//11 16//11 15//11
f 14//12 17//12 16//12
f 13//13 17//13 14//13
f 17//14 19//14 18//14
f 13//15 19//15 17//15
f 13//16 20//16 19//16
f 13//17 21//17 20//17
f 24//18 21//18 13//18
f 24//19 22//19 21//19
f 22//20 24//20 23//20
usemtl assumed_wall
f 1//21 14//21 2//21
f 1//22 13//22 14//22
f 2//23 15//23 3//23
f 2//24 14//24 15//24
f 3//25 16//25 4//25
f 3//26 15//26 16//26
f 4//27 17//27 5//27
f 4//28 16//28 17//28
f 5//29 18//29 6//29
f 5//30 17//30 18//30
f 6//31 19//31 7//31
f 6//32 18//32 19//32
f 7//33 20//33 8//33
f 7//34 19//34 20//34
f 8//35 21//35 9//35
f 8//36 20//36 21//36
f 9//37 22//37 10//37
f 9//38 21//38 22//38
f 10//39 23//39 11//39
f 10//40 22//40 23//40
f 11//41 24//41 12//41
f 11//42 23//42 24//42
f 12//43 13//43 1//43
f 12//44 24//44 13//44
