# construction_5225_assumed_A_Casa
# source A_Casa
# h_campo 0.000000
# modeled_height 6.000000
# height_kind assumed
# local_origin_world_x 172001.034850
# local_origin_world_y 402500.144600
mtllib construction_artifacts.mtl

o construction_5225_assumed_A_Casa
v -19.947500 -13.288000 0.000000
v -23.750500 -7.032000 0.000000
v -7.908500 2.571000 0.000000
v -4.806500 3.514000 0.000000
v -3.637500 1.680000 0.000000
v 3.592500 5.875000 0.000000
v 2.437500 7.755000 0.000000
v -0.337500 6.226000 0.000000
v -3.283500 11.142000 0.000000
v 2.927500 15.069000 0.000000
v 10.745500 3.531000 0.000000
v 15.337500 6.336000 0.000000
v 11.132500 12.653000 0.000000
v 14.105500 14.724000 0.000000
v 20.976500 10.167000 0.000000
v 16.939500 7.565000 0.000000
v 23.750500 -3.499000 0.000000
v 9.559500 -12.522000 0.000000
v 5.866500 -7.052000 0.000000
v 1.062500 -10.755000 0.000000
v -1.569500 -6.811000 0.000000
v -2.601500 -7.497000 0.000000
v -3.785500 -5.663000 0.000000
v -17.526500 -15.069000 0.000000
v -19.099500 -12.774000 0.000000
v -19.947500 -13.288000 6.000000
v -23.750500 -7.032000 6.000000
v -7.908500 2.571000 6.000000
v -4.806500 3.514000 6.000000
v -3.637500 1.680000 6.000000
v 3.592500 5.875000 6.000000
v 2.437500 7.755000 6.000000
v -0.337500 6.226000 6.000000
v -3.283500 11.142000 6.000000
v 2.927500 15.069000 6.000000
v 10.745500 3.531000 6.000000
v 15.337500 6.336000 6.000000
v 11.132500 12.653000 6.000000
v 14.105500 14.724000 6.000000
v 20.976500 10.167000 6.000000
v 16.939500 7.565000 6.000000
v 23.750500 -3.499000 6.000000
v 9.559500 -12.522000 6.000000
v 5.866500 -7.052000 6.000000
v 1.062500 -10.755000 6.000000
v -1.569500 -6.811000 6.000000
v -2.601500 -7.497000 6.000000
v -3.785500 -5.663000 6.000000
v -17.526500 -15.069000 6.000000
v -19.099500 -12.774000 6.000000
vn -0.000000 0.000000 -1.000000
vn 0.000000 0.000000 -1.000000
vn 0.000000 0.000000 -1.000000
vn 0.000000 0.000000 -1.000000
vn 0.000000 0.000000 -1.000000
vn -0.000000 0.000000 -1.000000
vn 0.000000 0.000000 -1.000000
vn 0.000000 0.000000 -1.000000
vn 0.000000 0.000000 -1.000000
vn 0.000000 0.000000 -1.000000
vn 0.000000 0.000000 -1.000000
vn 0.000000 0.000000 -1.000000
vn 0.000000 0.000000 -1.000000
vn 0.000000 0.000000 -1.000000
vn 0.000000 0.000000 -1.000000
vn 0.000000 -0.000000 -1.000000
vn 0.000000 0.000000 -1.000000
vn 0.000000 0.000000 -1.000000
vn 0.000000 0.000000 -1.000000
vn 0.000000 0.000000 -1.000000
vn 0.000000 0.000000 -1.000000
vn 0.000000 0.000000 -1.000000
vn 0.000000 0.000000 -1.000000
vn 0.000000 0.000000 1.000000
vn 0.000000 -0.000000 1.000000
vn 0.000000 0.000000 1.000000
vn 0.000000 0.000000 1.000000
vn 0.000000 0.000000 1.000000
vn 0.000000 0.000000 1.000000
vn 0.000000 -0.000000 1.000000
vn 0.000000 0.000000 1.000000
vn -0.000000 -0.000000 1.000000
vn 0.000000 0.000000 1.000000
vn 0.000000 0.000000 1.000000
vn 0.000000 0.000000 1.000000
vn 0.000000 -0.000000 1.000000
vn -0.000000 0.000000 1.000000
vn -0.000000 0.000000 1.000000
vn 0.000000 0.000000 1.000000
vn 0.000000 0.000000 1.000000
vn 0.000000 0.000000 1.000000
vn 0.000000 0.000000 1.000000
vn 0.000000 0.000000 1.000000
vn 0.000000 0.000000 1.000000
vn 0.000000 0.000000 1.000000
vn 0.000000 0.000000 1.000000
vn -0.854502 -0.519449 0.000000
vn -0.854502 -0.519449 0.000000
vn -0.518372 0.855155 0.000000
vn -0.518372 0.855155 0.000000
vn -0.290855 0.956767 0.000000
vn -0.290855 0.956767 0.000000
vn 0.843264 0.537500 0.000000
vn 0.843264 0.537500 -0.000000
vn -0.501861 0.864948 0.000000
vn -0.501861 0.864948 0.000000
vn -0.852047 -0.523465 0.000000
vn -0.852047 -0.523465 0.000000
vn 0.482585 -0.875849 0.000000
vn 0.482585 -0.875849 0.000000
vn -0.857770 -0.514034 0.000000
vn -0.857770 -0.514034 0.000000
vn -0.534408 0.845227 0.000000
vn -0.534408 0.845227 0.000000
vn 0.827854 0.560943 0.000000
vn 0.827854 0.560943 -0.000000
vn -0.521285 0.853383 0.000000
vn -0.521285 0.853383 0.000000
vn -0.832435 -0.554122 0.000000
vn -0.832435 -0.554122 0.000000
vn -0.571590 0.820539 0.000000
vn -0.571590 0.820539 0.000000
vn 0.552711 0.833373 0.000000
vn 0.552711 0.833373 -0.000000
vn 0.541757 -0.840535 0.000000
vn 0.541757 -0.840535 0.000000
vn 0.851576 0.524231 0.000000
vn 0.851576 0.524231 -0.000000
vn 0.536552 -0.843867 0.000000
vn 0.536552 -0.843867 0.000000
vn -0.828796 -0.559551 0.000000
vn -0.828796 -0.559551 0.000000
vn 0.610499 -0.792017 0.000000
vn 0.610499 -0.792017 0.000000
vn -0.831791 -0.555089 0.000000
vn -0.831791 -0.555089 0.000000
vn 0.553582 -0.832794 0.000000
vn 0.553582 -0.832794 0.000000
vn -0.840135 -0.542377 0.000000
vn -0.840135 -0.542377 0.000000
vn 0.564858 -0.825188 0.000000
vn 0.564858 -0.825188 0.000000
vn -0.824849 -0.565354 0.000000
vn -0.824849 -0.565354 0.000000
vn 0.518346 -0.855171 0.000000
vn 0.518346 -0.855171 0.000000
usemtl assumed_base
f 25//1 1//1 2//1
f 25//2 2//2 3//2
f 25//3 3//3 4//3
f 25//4 4//4 5//4
f 25//5 5//5 6//5
f 7//6 8//6 9//6
f 7//7 9//7 10//7
f 6//8 7//8 10//8
f 6//9 10//9 11//9
f 25//10 6//10 11//10
f 12//11 13//11 14//11
f 14//12 15//12 16//12
f 12//13 14//13 16//13
f 12//14 16//14 17//14
f 11//15 12//15 17//15
f 11//16 17//16 18//16
f 11//17 18//17 19//17
f 11//18 19//18 20//18
f 11//19 20//19 21//19
f 11//20 21//20 22//20
f 11//21 22//21 23//21
f 25//22 11//22 23//22
f 23//23 24//23 25//23
usemtl assumed_roof
f 50//24 27//24 26//24
f 50//25 28//25 27//25
f 50//26 29//26 28//26
f 50//27 30//27 29//27
f 50//28 31//28 30//28
f 32//29 34//29 33//29
f 32//30 35//30 34//30
f 31//31 35//31 32//31
f 31//32 36//32 35//32
f 50//33 36//33 31//33
f 37//34 39//34 38//34
f 39//35 41//35 40//35
f 37//36 41//36 39//36
f 37//37 42//37 41//37
f 36//38 42//38 37//38
f 36//39 43//39 42//39
f 36//40 44//40 43//40
f 36//41 45//41 44//41
f 36//42 46//42 45//42
f 36//43 47//43 46//43
f 36//44 48//44 47//44
f 50//45 48//45 36//45
f 48//46 50//46 49//46
usemtl assumed_wall
f 1//47 27//47 2//47
f 1//48 26//48 27//48
f 2//49 28//49 3//49
f 2//50 27//50 28//50
f 3//51 29//51 4//51
f 3//52 28//52 29//52
f 4//53 30//53 5//53
f 4//54 29//54 30//54
f 5//55 31//55 6//55
f 5//56 30//56 31//56
f 6//57 32//57 7//57
f 6//58 31//58 32//58
f 7//59 33//59 8//59
f 7//60 32//60 33//60
f 8//61 34//61 9//61
f 8//62 33//62 34//62
f 9//63 35//63 10//63
f 9//64 34//64 35//64
f 10//65 36//65 11//65
f 10//66 35//66 36//66
f 11//67 37//67 12//67
f 11//68 36//68 37//68
f 12//69 38//69 13//69
f 12//70 37//70 38//70
f 13//71 39//71 14//71
f 13//72 38//72 39//72
f 14//73 40//73 15//73
f 14//74 39//74 40//74
f 15//75 41//75 16//75
f 15//76 40//76 41//76
f 16//77 42//77 17//77
f 16//78 41//78 42//78
f 17//79 43//79 18//79
f 17//80 42//80 43//80
f 18//81 44//81 19//81
f 18//82 43//82 44//82
f 19//83 45//83 20//83
f 19//84 44//84 45//84
f 20//85 46//85 21//85
f 20//86 45//86 46//86
f 21//87 47//87 22//87
f 21//88 46//88 47//88
f 22//89 48//89 23//89
f 22//90 47//90 48//90
f 23//91 49//91 24//91
f 23//92 48//92 49//92
f 24//93 50//93 25//93
f 24//94 49//94 50//94
f 25//95 26//95 1//95
f 25//96 50//96 26//96
