# construction_1400_assumed_A_Casa
# source A_Casa
# h_campo 0.000000
# modeled_height 6.000000
# height_kind assumed
# local_origin_world_x 172001.034850
# local_origin_world_y 402500.144600
mtllib construction_artifacts.mtl

o construction_1400_assumed_A_Casa
v -22.682500 2.827500 0.000000
v -16.317500 6.971500 0.000000
v -13.287500 2.971500 0.000000
v 4.013500 11.164500 0.000000
v 22.682500 0.045500 0.000000
v -5.700500 -11.164500 0.000000
v -7.101500 -6.538500 0.000000
v 7.744500 -1.023500 0.000000
v 1.981500 2.636500 0.000000
v -10.150500 -2.629500 0.000000
v -11.272500 -0.598500 0.000000
v -14.689500 -1.845500 0.000000
v -16.023500 1.275500 0.000000
v -20.075500 -0.751500 0.000000
v -22.682500 2.827500 6.000000
v -16.317500 6.971500 6.000000
v -13.287500 2.971500 6.000000
v 4.013500 11.164500 6.000000
v 22.682500 0.045500 6.000000
v -5.700500 -11.164500 6.000000
v -7.101500 -6.538500 6.000000
v 7.744500 -1.023500 6.000000
v 1.981500 2.636500 6.000000
v -10.150500 -2.629500 6.000000
v -11.272500 -0.598500 6.000000
v -14.689500 -1.845500 6.000000
v -16.023500 1.275500 6.000000
v -20.075500 -0.751500 6.000000
vn 0.000000 0.000000 -1.000000
vn 0.000000 0.000000 -1.000000
vn 0.000000 0.000000 -1.000000
vn 0.000000 0.000000 -1.000000
vn 0.000000 0.000000 -1.000000
vn 0.000000 -0.000000 -1.000000
vn 0.000000 0.000000 -1.000000
vn 0.000000 0.000000 -1.000000
vn 0.000000 0.000000 -1.000000
vn 0.000000 -0.000000 -1.000000
vn 0.000000 0.000000 -1.000000
vn 0.000000 0.000000 -1.000000
vn 0.000000 -0.000000 1.000000
vn 0.000000 0.000000 1.000000
vn 0.000000 0.000000 1.000000
vn 0.000000 0.000000 1.000000
vn 0.000000 0.000000 1.000000
vn 0.000000 0.000000 1.000000
vn -0.000000 0.000000 1.000000
vn 0.000000 0.000000 1.000000
vn 0.000000 0.000000 1.000000
vn 0.000000 0.000000 1.000000
vn 0.000000 0.000000 1.000000
vn 0.000000 0.000000 1.000000
vn -0.545613 0.838037 0.000000
vn -0.545613 0.838037 0.000000
vn 0.797121 0.603819 0.000000
vn 0.797121 0.603819 -0.000000
vn -0.427992 0.903783 0.000000
vn -0.427992 0.903783 0.000000
vn 0.511705 0.859161 0.000000
vn 0.511705 0.859161 -0.000000
vn 0.367342 -0.930086 0.000000
vn 0.367342 -0.930086 0.000000
vn -0.957071 -0.289852 0.000000
vn -0.957071 -0.289852 0.000000
vn -0.348229 0.937409 0.000000
vn -0.348229 0.937409 0.000000
vn -0.536108 -0.844150 0.000000
vn -0.536108 -0.844150 0.000000
vn 0.398168 -0.917313 0.000000
vn 0.398168 -0.917313 0.000000
vn -0.875314 -0.483556 0.000000
vn -0.875314 -0.483556 0.000000
vn 0.342824 -0.939399 0.000000
vn 0.342824 -0.939399 0.000000
vn -0.919526 -0.393030 0.000000
vn -0.919526 -0.393030 0.000000
vn 0.447390 -0.894339 0.000000
vn 0.447390 -0.894339 0.000000
vn -0.808296 -0.588776 0.000000
vn -0.808296 -0.588776 0.000000
usemtl assumed_base
f 14//1 1//1 2//1
f 14//2 2//2 3//2
f 5//3 6//3 7//3
f 5//4 7//4 8//4
f 4//5 5//5 8//5
f 4//6 8//6 9//6
f 3//7 4//7 9//7
f 9//8 10//8 11//8
f 3//9 9//9 11//9
f 3//10 11//10 12//10
f 3//11 12//11 13//11
f 3//12 13//12 14//12
usemtl assumed_roof
f 28//13 16//13 15//13
f 28//14 17//14 16//14
f 19//15 21//15 20//15
f 19//16 22//16 21//16
f 18//17 22//17 19//17
f 18//18 23//18 22//18
f 17//19 23//19 18//19
f 23//20 25//20 24//20
f 17//21 25//21 23//21
f 17//22 26//22 25//22
f 17//23 27//23 26//23
f 17//24 28//24 27//24
usemtl assumed_wall
f 1//25 16//25 2//25
f 1//26 15//26 16//26
f 2//27 17//27 3//27
f 2//28 16//28 17//28
f 3//29 18//29 4//29
f 3//30 17//30 18//30
f 4//31 19//31 5//31
f 4//32 18//32 19//32
f 5//33 20//33 6//33
f 5//34 19//34 20//34
f 6//35 21//35 7//35
f 6//36 20//36 21//36
f 7//37 22//37 8//37
f 7//38 21//38 22//38
f 8//39 23//39 9//39
f 8//40 22//40 23//40
f 9//41 24//41 10//41
f 9//42 23//42 24//42
f 10//43 25//43 11//43
f 10//44 24//44 25//44
f 11//45 26//45 12//45
f 11//46 25//46 26//46
f 12//47 27//47 13//47
f 12//48 26//48 27//48
f 13//49 28//49 14//49
f 13//50 27//50 28//50
f 14//51 15//51 1//51
f 14//52 28//52 15//52
