# construction_5259_actual_A_Casa
# source A_Casa
# h_campo 5.000000
# modeled_height 5.000000
# height_kind actual
# local_origin_world_x 172001.034850
# local_origin_world_y 402500.144600
mtllib construction_artifacts.mtl

o construction_5259_actual_A_Casa
v -3.540500 4.266000 0.000000
v 2.016500 5.288000 0.000000
v 3.540500 -3.680000 0.000000
v 2.318500 -4.287000 0.000000
v -1.198500 -5.288000 0.000000
v -3.540500 4.266000 5.000000
v 2.016500 5.288000 5.000000
v 3.540500 -3.680000 5.000000
v 2.318500 -4.287000 5.000000
v -1.198500 -5.288000 5.000000
vn 0.000000 0.000000 -1.000000
vn 0.000000 0.000000 -1.000000
vn 0.000000 0.000000 -1.000000
vn 0.000000 -0.000000 1.000000
vn 0.000000 0.000000 1.000000
vn 0.000000 0.000000 1.000000
vn -0.180879 0.983505 0.000000
vn -0.180879 0.983505 0.000000
vn 0.985866 0.167536 0.000000
vn 0.985866 0.167536 -0.000000
vn 0.444867 -0.895597 0.000000
vn 0.444867 -0.895597 0.000000
vn 0.273746 -0.961802 0.000000
vn 0.273746 -0.961802 0.000000
vn -0.971245 -0.238084 0.000000
vn -0.971245 -0.238084 0.000000
usemtl actual_base
f 5//1 1//1 2//1
f 5//2 2//2 3//2
f 3//3 4//3 5//3
usemtl actual_roof
f 10//4 7//4 6//4
f 10//5 8//5 7//5
f 8//6 10//6 9//6
usemtl actual_wall
f 1//7 7//7 2//7
f 1//8 6//8 7//8
f 2//9 8//9 3//9
f 2//10 7//10 8//10
f 3//11 9//11 4//11
f 3//12 8//12 9//12
f 4//13 10//13 5//13
f 4//14 9//14 10//14
f 5//15 6//15 1//15
f 5//16 10//16 6//16
