# construction_6587_assumed_A_Casa
# source A_Casa
# h_campo 0.000000
# modeled_height 6.000000
# height_kind assumed
# local_origin_world_x 172001.034850
# local_origin_world_y 402500.144600
mtllib construction_artifacts.mtl

o construction_6587_assumed_A_Casa
v -11.305500 -7.820000 0.000000
v -11.695500 9.531000 0.000000
v -4.256500 5.822000 0.000000
v 5.528500 3.627000 0.000000
v 5.891500 4.629000 0.000000
v 11.695500 3.207000 0.000000
v 4.192500 -3.088000 0.000000
v -4.407500 -1.505000 0.000000
v -6.109500 -9.531000 0.000000
v -11.305500 -7.820000 6.000000
v -11.695500 9.531000 6.000000
v -4.256500 5.822000 6.000000
v 5.528500 3.627000 6.000000
v 5.891500 4.629000 6.000000
v 11.695500 3.207000 6.000000
v 4.192500 -3.088000 6.000000
v -4.407500 -1.505000 6.000000
v -6.109500 -9.531000 6.000000
vn 0.000000 0.000000 -1.000000
vn 0.000000 0.000000 -1.000000
vn 0.000000 0.000000 -1.000000
vn 0.000000 -0.000000 -1.000000
vn 0.000000 0.000000 -1.000000
vn 0.000000 -0.000000 -1.000000
vn 0.000000 0.000000 -1.000000
vn 0.000000 0.000000 1.000000
vn 0.000000 -0.000000 1.000000
vn -0.000000 0.000000 1.000000
vn 0.000000 0.000000 1.000000
vn 0.000000 0.000000 1.000000
vn 0.000000 0.000000 1.000000
vn 0.000000 0.000000 1.000000
vn -0.999747 -0.022471 0.000000
vn -0.999747 -0.022471 0.000000
vn 0.446203 0.894932 0.000000
vn 0.446203 0.894932 -0.000000
vn 0.218883 0.975751 0.000000
vn 0.218883 0.975751 -0.000000
vn -0.940204 0.340613 0.000000
vn -0.940204 0.340613 0.000000
vn 0.237965 0.971274 0.000000
vn 0.237965 0.971274 -0.000000
vn 0.642742 -0.766083 0.000000
vn 0.642742 -0.766083 0.000000
vn -0.181029 -0.983478 0.000000
vn -0.181029 -0.983478 0.000000
vn 0.978246 -0.207448 0.000000
vn 0.978246 -0.207448 0.000000
vn -0.312771 -0.949829 0.000000
vn -0.312771 -0.949829 0.000000
usemtl assumed_base
f 9//1 1//1 2//1
f 9//2 2//2 3//2
f 4//3 5//3 6//3
f 4//4 6//4 7//4
f 3//5 4//5 7//5
f 3//6 7//6 8//6
f 3//7 8//7 9//7
usemtl assumed_roof
f 18//8 11//8 10//8
f 18//9 12//9 11//9
f 13//10 15//10 14//10
f 13//11 16//11 15//11
f 12//12 16//12 13//12
f 12//13 17//13 16//13
f 12//14 18//14 17//14
usemtl assumed_wall
f 1//15 11//15 2//15
f 1//16 10//16 11//16
f 2//17 12//17 3//17
f 2//18 11//18 12//18
f 3//19 13//19 4//19
f 3//20 12//20 13//20
f 4//21 14//21 5//21
f 4//22 13//22 14//22
f 5//23 15//23 6//23
f 5//24 14//24 15//24
f 6//25 16//25 7//25
f 6//26 15//26 16//26
f 7//27 17//27 8//27
f 7//28 16//28 17//28
f 8//29 18//29 9//29
f 8//30 17//30 18//30
f 9//31 10//31 1//31
f 9//32 18//32 10//32
