# construction_6569_assumed_A_Casa
# source A_Casa
# h_campo 0.000000
# modeled_height 6.000000
# height_kind assumed
# local_origin_world_x 172001.034850
# local_origin_world_y 402500.144600
mtllib construction_artifacts.mtl

o construction_6569_assumed_A_Casa
v -22.960000 -13.398500 0.000000
v -13.413000 -8.116500 0.000000
v -14.468000 -5.845500 0.000000
v -13.030000 -4.943500 0.000000
v -18.371000 6.691500 0.000000
v -6.063000 10.984500 0.000000
v -1.865000 14.193500 0.000000
v 1.867000 8.328500 0.000000
v 5.967000 10.766500 0.000000
v 8.860000 6.529500 0.000000
v 19.891000 15.823500 0.000000
v 22.960000 11.965500 0.000000
v 3.154000 -4.025500 0.000000
v -21.242000 -15.823500 0.000000
v -22.960000 -13.398500 6.000000
v -13.413000 -8.116500 6.000000
v -14.468000 -5.845500 6.000000
v -13.030000 -4.943500 6.000000
v -18.371000 6.691500 6.000000
v -6.063000 10.984500 6.000000
v -1.865000 14.193500 6.000000
v 1.867000 8.328500 6.000000
v 5.967000 10.766500 6.000000
v 8.860000 6.529500 6.000000
v 19.891000 15.823500 6.000000
v 22.960000 11.965500 6.000000
v 3.154000 -4.025500 6.000000
v -21.242000 -15.823500 6.000000
vn 0.000000 0.000000 -1.000000
vn 0.000000 0.000000 -1.000000
vn 0.000000 0.000000 -1.000000
vn 0.000000 0.000000 -1.000000
vn 0.000000 0.000000 -1.000000
vn 0.000000 0.000000 -1.000000
vn 0.000000 0.000000 -1.000000
vn 0.000000 0.000000 -1.000000
vn 0.000000 0.000000 -1.000000
vn 0.000000 0.000000 -1.000000
vn 0.000000 0.000000 -1.000000
vn 0.000000 0.000000 -1.000000
vn 0.000000 -0.000000 1.000000
vn 0.000000 -0.000000 1.000000
vn 0.000000 -0.000000 1.000000
vn 0.000000 0.000000 1.000000
vn 0.000000 0.000000 1.000000
vn 0.000000 0.000000 1.000000
vn 0.000000 0.000000 1.000000
vn 0.000000 0.000000 1.000000
vn 0.000000 0.000000 1.000000
vn 0.000000 0.000000 1.000000
vn 0.000000 0.000000 1.000000
vn 0.000000 0.000000 1.000000
vn -0.484109 0.875008 0.000000
vn -0.484109 0.875008 0.000000
vn -0.906916 -0.421311 0.000000
vn -0.906916 -0.421311 0.000000
vn -0.531375 0.847137 0.000000
vn -0.531375 0.847137 0.000000
vn -0.908819 -0.417190 0.000000
vn -0.908819 -0.417190 0.000000
vn -0.329339 0.944212 0.000000
vn -0.329339 0.944212 0.000000
vn -0.607303 0.794471 0.000000
vn -0.607303 0.794471 0.000000
vn 0.843679 0.536848 0.000000
vn 0.843679 0.536848 -0.000000
vn -0.511101 0.859521 0.000000
vn -0.511101 0.859521 0.000000
vn 0.825852 0.563887 0.000000
vn 0.825852 0.563887 -0.000000
vn -0.644328 0.764749 0.000000
vn -0.644328 0.764749 0.000000
vn 0.782588 0.622541 0.000000
vn 0.782588 0.622541 -0.000000
vn 0.628191 -0.778059 0.000000
vn 0.628191 -0.778059 0.000000
vn 0.435366 -0.900254 0.000000
vn 0.435366 -0.900254 0.000000
vn -0.815978 -0.578083 0.000000
vn -0.815978 -0.578083 0.000000
usemtl assumed_base
f 14//1 1//1 2//1
f 2//2 3//2 4//2
f 4//3 5//3 6//3
f 2//4 4//4 6//4
f 2//5 6//5 7//5
f 2//6 7//6 8//6
f 2//7 8//7 9//7
f 14//8 2//8 9//8
f 14//9 9//9 10//9
f 10//10 11//10 12//10
f 14//11 10//11 12//11
f 12//12 13//12 14//12
usemtl assumed_roof
f 28//13 16//13 15//13
f 16//14 18//14 17//14
f 18//15 20//15 19//15
f 16//16 20//16 18//16
f 16//17 21//17 20//17
f 16//18 22//18 21//18
f 16//19 23//19 22//19
f 28//20 23//20 16//20
f 28//21 24//21 23//21
f 24//22 26//22 25//22
f 28//23 26//23 24//23
f 26//24 28//24 27//24
usemtl assumed_wall
f 1//25 16//25 2//25
f 1//26 15//26 16//26
f 2//27 17//27 3//27
f 2//28 16//28 17//28
f 3//29 18//29 4//29
f 3//30 17//30 18//30
f 4//31 19//31 5//31
f 4//32 18//32 19//32
f 5//33 20//33 6//33
f 5//34 19//34 20//34
f 6//35 21//35 7//35
f 6//36 20//36 21//36
f 7//37 22//37 8//37
f 7//38 21//38 22//38
f 8//39 23//39 9//39
f 8//40 22//40 23//40
f 9//41 24//41 10//41
f 9//42 23//42 24//42
f 10//43 25//43 11//43
f 10//44 24//44 25//44
f 11//45 26//45 12//45
f 11//46 25//46 26//46
f 12//47 27//47 13//47
f 12//48 26//48 27//48
f 13//49 28//49 14//49
f 13//50 27//50 28//50
f 14//51 15//51 1//51
f 14//52 28//52 15//52
