# construction_3640_assumed_A_Casa
# source A_Casa
# h_campo 0.000000
# modeled_height 6.000000
# height_kind assumed
# local_origin_world_x 172001.034850
# local_origin_world_y 402500.144600
mtllib construction_artifacts.mtl

o construction_3640_assumed_A_Casa
v -9.115000 -4.274000 0.000000
v -10.163000 -3.740000 0.000000
v -7.209000 2.329000 0.000000
v -5.975000 1.897000 0.000000
v -4.518000 3.911000 0.000000
v -7.702000 6.475000 0.000000
v -3.665000 12.044000 0.000000
v -2.364000 11.544000 0.000000
v 0.967000 16.519000 0.000000
v 12.593000 8.466000 0.000000
v 8.658000 2.797000 0.000000
v 9.302000 2.278000 0.000000
v 6.139000 -2.645000 0.000000
v 7.903000 -4.576000 0.000000
v 4.549000 -11.575000 0.000000
v 2.825000 -10.943000 0.000000
v 0.593000 -16.519000 0.000000
v -12.593000 -10.059000 0.000000
v -9.115000 -4.274000 6.000000
v -10.163000 -3.740000 6.000000
v -7.209000 2.329000 6.000000
v -5.975000 1.897000 6.000000
v -4.518000 3.911000 6.000000
v -7.702000 6.475000 6.000000
v -3.665000 12.044000 6.000000
v -2.364000 11.544000 6.000000
v 0.967000 16.519000 6.000000
v 12.593000 8.466000 6.000000
v 8.658000 2.797000 6.000000
v 9.302000 2.278000 6.000000
v 6.139000 -2.645000 6.000000
v 7.903000 -4.576000 6.000000
v 4.549000 -11.575000 6.000000
v 2.825000 -10.943000 6.000000
v 0.593000 -16.519000 6.000000
v -12.593000 -10.059000 6.000000
vn 0.000000 0.000000 -1.000000
vn 0.000000 0.000000 -1.000000
vn 0.000000 0.000000 -1.000000
vn 0.000000 0.000000 -1.000000
vn 0.000000 0.000000 -1.000000
vn 0.000000 0.000000 -1.000000
vn 0.000000 0.000000 -1.000000
vn 0.000000 0.000000 -1.000000
vn 0.000000 0.000000 -1.000000
vn 0.000000 0.000000 -1.000000
vn 0.000000 0.000000 -1.000000
vn 0.000000 0.000000 -1.000000
vn 0.000000 0.000000 -1.000000
vn 0.000000 0.000000 -1.000000
vn 0.000000 0.000000 -1.000000
vn -0.000000 0.000000 -1.000000
vn 0.000000 -0.000000 1.000000
vn 0.000000 0.000000 1.000000
vn 0.000000 0.000000 1.000000
vn 0.000000 -0.000000 1.000000
vn 0.000000 0.000000 1.000000
vn 0.000000 0.000000 1.000000
vn 0.000000 0.000000 1.000000
vn 0.000000 0.000000 1.000000
vn 0.000000 0.000000 1.000000
vn 0.000000 0.000000 1.000000
vn 0.000000 0.000000 1.000000
vn 0.000000 0.000000 1.000000
vn 0.000000 0.000000 1.000000
vn 0.000000 0.000000 1.000000
vn -0.000000 0.000000 1.000000
vn 0.000000 0.000000 1.000000
vn -0.454002 -0.891001 0.000000
vn -0.454002 -0.891001 0.000000
vn -0.899147 0.437647 0.000000
vn -0.899147 0.437647 0.000000
vn 0.330419 0.943835 0.000000
vn 0.330419 0.943835 -0.000000
vn -0.810212 0.586137 0.000000
vn -0.810212 0.586137 0.000000
vn -0.627198 -0.778860 0.000000
vn -0.627198 -0.778860 0.000000
vn -0.809647 0.586918 0.000000
vn -0.809647 0.586918 0.000000
vn 0.358739 0.933438 0.000000
vn 0.358739 0.933438 -0.000000
vn -0.830944 0.556356 0.000000
vn -0.830944 0.556356 0.000000
vn 0.569412 0.822052 0.000000
vn 0.569412 0.822052 -0.000000
vn 0.821493 -0.570219 0.000000
vn 0.821493 -0.570219 0.000000
vn 0.627492 0.778623 0.000000
vn 0.627492 0.778623 -0.000000
vn 0.841317 -0.540542 0.000000
vn 0.841317 -0.540542 0.000000
vn 0.738312 0.674460 0.000000
vn 0.738312 0.674460 -0.000000
vn 0.901800 -0.432153 0.000000
vn 0.901800 -0.432153 0.000000
vn -0.344191 -0.938900 0.000000
vn -0.344191 -0.938900 0.000000
vn 0.928385 -0.371620 0.000000
vn 0.928385 -0.371620 0.000000
vn -0.439953 -0.898021 0.000000
vn -0.439953 -0.898021 0.000000
vn -0.857035 0.515258 0.000000
vn -0.857035 0.515258 0.000000
usemtl assumed_base
f 1//1 2//1 3//1
f 1//2 3//2 4//2
f 1//3 4//3 5//3
f 5//4 6//4 7//4
f 5//5 7//5 8//5
f 5//6 8//6 9//6
f 5//7 9//7 10//7
f 1//8 5//8 10//8
f 18//9 1//9 10//9
f 18//10 10//10 11//10
f 18//11 11//11 12//11
f 18//12 12//12 13//12
f 18//13 13//13 14//13
f 14//14 15//14 16//14
f 18//15 14//15 16//15
f 16//16 17//16 18//16
usemtl assumed_roof
f 19//17 21//17 20//17
f 19//18 22//18 21//18
f 19//19 23//19 22//19
f 23//20 25//20 24//20
f 23//21 26//21 25//21
f 23//22 27//22 26//22
f 23//23 28//23 27//23
f 19//24 28//24 23//24
f 36//25 28//25 19//25
f 36//26 29//26 28//26
f 36//27 30//27 29//27
f 36//28 31//28 30//28
f 36//29 32//29 31//29
f 32//30 34//30 33//30
f 36//31 34//31 32//31
f 34//32 36//32 35//32
usemtl assumed_wall
f 1//33 20//33 2//33
f 1//34 19//34 20//34
f 2//35 21//35 3//35
f 2//36 20//36 21//36
f 3//37 22//37 4//37
f 3//38 21//38 22//38
f 4//39 23//39 5//39
f 4//40 22//40 23//40
f 5//41 24//41 6//41
f 5//42 23//42 24//42
f 6//43 25//43 7//43
f 6//44 24//44 25//44
f 7//45 26//45 8//45
f 7//46 25//46 26//46
f 8//47 27//47 9//47
f 8//48 26//48 27//48
f 9//49 28//49 10//49
f 9//50 27//50 28//50
f 10//51 29//51 11//51
f 10//52 28//52 29//52
f 11//53 30//53 12//53
f 11//54 29//54 30//54
f 12//55 31//55 13//55
f 12//56 30//56 31//56
f 13//57 32//57 14//57
f 13//58 31//58 32//58
f 14//59 33//59 15//59
f 14//60 32//60 33//60
f 15//61 34//61 16//61
f 15//62 33//62 34//62
f 16//63 35//63 17//63
f 16//64 34//64 35//64
f 17//65 36//65 18//65
f 17//66 35//66 36//66
f 18//67 19//67 1//67
f 18//68 36//68 19//68
