# construction_3105_assumed_A_Casa
# source A_Casa
# h_campo 0.000000
# modeled_height 6.000000
# height_kind assumed
# local_origin_world_x 172001.034850
# local_origin_world_y 402500.144600
mtllib construction_artifacts.mtl

o construction_3105_assumed_A_Casa
v -28.614000 -11.855500 0.000000
v 17.086000 14.712500 0.000000
v 20.524000 15.432500 0.000000
v 28.614000 10.131500 0.000000
v 23.545000 6.572500 0.000000
v 22.302000 8.355500 0.000000
v 19.284000 6.568500 0.000000
v 20.087000 5.233500 0.000000
v 9.093000 -1.583500 0.000000
v 9.410000 -2.437500 0.000000
v -11.697000 -14.461500 0.000000
v -15.157000 -8.672500 0.000000
v -26.556000 -15.432500 0.000000
v -28.614000 -11.855500 6.000000
v 17.086000 14.712500 6.000000
v 20.524000 15.432500 6.000000
v 28.614000 10.131500 6.000000
v 23.545000 6.572500 6.000000
v 22.302000 8.355500 6.000000
v 19.284000 6.568500 6.000000
v 20.087000 5.233500 6.000000
v 9.093000 -1.583500 6.000000
v 9.410000 -2.437500 6.000000
v -11.697000 -14.461500 6.000000
v -15.157000 -8.672500 6.000000
v -26.556000 -15.432500 6.000000
vn 0.000000 0.000000 -1.000000
vn 0.000000 0.000000 -1.000000
vn 0.000000 0.000000 -1.000000
vn 0.000000 0.000000 -1.000000
vn 0.000000 -0.000000 -1.000000
vn 0.000000 -0.000000 -1.000000
vn 0.000000 0.000000 -1.000000
vn 0.000000 -0.000000 -1.000000
vn 0.000000 0.000000 -1.000000
vn 0.000000 0.000000 -1.000000
vn 0.000000 0.000000 -1.000000
vn 0.000000 -0.000000 1.000000
vn 0.000000 0.000000 1.000000
vn 0.000000 0.000000 1.000000
vn 0.000000 0.000000 1.000000
vn 0.000000 0.000000 1.000000
vn 0.000000 0.000000 1.000000
vn 0.000000 0.000000 1.000000
vn 0.000000 0.000000 1.000000
vn 0.000000 0.000000 1.000000
vn 0.000000 0.000000 1.000000
vn 0.000000 0.000000 1.000000
vn -0.502595 0.864522 0.000000
vn -0.502595 0.864522 0.000000
vn -0.204977 0.978767 0.000000
vn -0.204977 0.978767 0.000000
vn 0.548074 0.836430 0.000000
vn 0.548074 0.836430 -0.000000
vn 0.574621 -0.818419 0.000000
vn 0.574621 -0.818419 0.000000
vn -0.820333 -0.571886 0.000000
vn -0.820333 -0.571886 0.000000
vn 0.509498 -0.860472 0.000000
vn 0.509498 -0.860472 0.000000
vn 0.856926 0.515439 0.000000
vn 0.856926 0.515439 -0.000000
vn 0.526980 -0.849878 0.000000
vn 0.526980 -0.849878 0.000000
vn 0.937497 0.347994 0.000000
vn 0.937497 0.347994 -0.000000
vn 0.494986 -0.868901 0.000000
vn 0.494986 -0.868901 0.000000
vn -0.858368 -0.513034 0.000000
vn -0.858368 -0.513034 0.000000
vn 0.510084 -0.860125 0.000000
vn 0.510084 -0.860125 0.000000
vn -0.866778 -0.498694 0.000000
vn -0.866778 -0.498694 0.000000
usemtl assumed_base
f 13//1 1//1 2//1
f 13//2 2//2 3//2
f 3//3 4//3 5//3
f 3//4 5//4 6//4
f 3//5 6//5 7//5
f 7//6 8//6 9//6
f 3//7 7//7 9//7
f 9//8 10//8 11//8
f 3//9 9//9 11//9
f 3//10 11//10 12//10
f 3//11 12//11 13//11
usemtl assumed_roof
f 26//12 15//12 14//12
f 26//13 16//13 15//13
f 16//14 18//14 17//14
f 16//15 19//15 18//15
f 16//16 20//16 19//16
f 20//17 22//17 21//17
f 16//18 22//18 20//18
f 22//19 24//19 23//19
f 16//20 24//20 22//20
f 16//21 25//21 24//21
f 16//22 26//22 25//22
usemtl assumed_wall
f 1//23 15//23 2//23
f 1//24 14//24 15//24
f 2//25 16//25 3//25
f 2//26 15//26 16//26
f 3//27 17//27 4//27
f 3//28 16//28 17//28
f 4//29 18//29 5//29
f 4//30 17//30 18//30
f 5//31 19//31 6//31
f 5//32 18//32 19//32
f 6//33 20//33 7//33
f 6//34 19//34 20//34
f 7//35 21//35 8//35
f 7//36 20//36 21//36
f 8//37 22//37 9//37
f 8//38 21//38 22//38
f 9//39 23//39 10//39
f 9//40 22//40 23//40
f 10//41 24//41 11//41
f 10//42 23//42 24//42
f 11//43 25//43 12//43
f 11//44 24//44 25//44
f 12//45 26//45 13//45
f 12//46 25//46 26//46
f 13//47 14//47 1//47
f 13//48 26//48 14//48
