# construction_1903_assumed_A_Casa
# source A_Casa
# h_campo 0.000000
# modeled_height 6.000000
# height_kind assumed
# local_origin_world_x 172001.034850
# local_origin_world_y 402500.144600
mtllib construction_artifacts.mtl

o construction_1903_assumed_A_Casa
v -10.775000 -5.206000 0.000000
v -13.280000 -4.139000 0.000000
v -12.789000 -3.252000 0.000000
v -15.320000 -2.147000 0.000000
v -11.486000 4.991000 0.000000
v -4.450000 1.713000 0.000000
v -0.102000 10.115000 0.000000
v 15.320000 3.500000 0.000000
v 8.750000 -10.115000 0.000000
v 0.514000 -6.348000 0.000000
v -0.616000 -8.891000 0.000000
v -5.187000 -6.137000 0.000000
v -10.385000 -4.459000 0.000000
v -10.775000 -5.206000 6.000000
v -13.280000 -4.139000 6.000000
v -12.789000 -3.252000 6.000000
v -15.320000 -2.147000 6.000000
v -11.486000 4.991000 6.000000
v -4.450000 1.713000 6.000000
v -0.102000 10.115000 6.000000
v 15.320000 3.500000 6.000000
v 8.750000 -10.115000 6.000000
v 0.514000 -6.348000 6.000000
v -0.616000 -8.891000 6.000000
v -5.187000 -6.137000 6.000000
v -10.385000 -4.459000 6.000000
vn -0.000000 0.000000 -1.000000
vn 0.000000 0.000000 -1.000000
vn 0.000000 0.000000 -1.000000
vn 0.000000 0.000000 -1.000000
vn 0.000000 0.000000 -1.000000
vn 0.000000 0.000000 -1.000000
vn 0.000000 0.000000 -1.000000
vn 0.000000 0.000000 -1.000000
vn 0.000000 0.000000 -1.000000
vn -0.000000 0.000000 -1.000000
vn 0.000000 0.000000 -1.000000
vn 0.000000 0.000000 1.000000
vn 0.000000 0.000000 1.000000
vn 0.000000 -0.000000 1.000000
vn 0.000000 0.000000 1.000000
vn 0.000000 -0.000000 1.000000
vn 0.000000 0.000000 1.000000
vn 0.000000 0.000000 1.000000
vn 0.000000 0.000000 1.000000
vn -0.000000 0.000000 1.000000
vn 0.000000 0.000000 1.000000
vn 0.000000 0.000000 1.000000
vn -0.391879 -0.920017 0.000000
vn -0.391879 -0.920017 0.000000
vn -0.874901 0.484302 0.000000
vn -0.874901 0.484302 0.000000
vn -0.400116 -0.916465 0.000000
vn -0.400116 -0.916465 0.000000
vn -0.880962 0.473187 0.000000
vn -0.880962 0.473187 0.000000
vn 0.422307 0.906453 0.000000
vn 0.422307 0.906453 -0.000000
vn -0.888125 0.459601 0.000000
vn -0.888125 0.459601 0.000000
vn 0.394200 0.919025 0.000000
vn 0.394200 0.919025 -0.000000
vn 0.900623 -0.434601 0.000000
vn 0.900623 -0.434601 0.000000
vn -0.415940 -0.909392 0.000000
vn -0.415940 -0.909392 0.000000
vn 0.913841 -0.406072 0.000000
vn 0.913841 -0.406072 0.000000
vn -0.516066 -0.856549 0.000000
vn -0.516066 -0.856549 0.000000
vn -0.307206 -0.951643 0.000000
vn -0.307206 -0.951643 0.000000
vn 0.886458 -0.462809 0.000000
vn 0.886458 -0.462809 0.000000
usemtl assumed_base
f 13//1 1//1 2//1
f 13//2 2//2 3//2
f 3//3 4//3 5//3
f 13//4 3//4 5//4
f 13//5 5//5 6//5
f 6//6 7//6 8//6
f 13//7 6//7 8//7
f 8//8 9//8 10//8
f 13//9 8//9 10//9
f 10//10 11//10 12//10
f 10//11 12//11 13//11
usemtl assumed_roof
f 26//12 15//12 14//12
f 26//13 16//13 15//13
f 16//14 18//14 17//14
f 26//15 18//15 16//15
f 26//16 19//16 18//16
f 19//17 21//17 20//17
f 26//18 21//18 19//18
f 21//19 23//19 22//19
f 26//20 23//20 21//20
f 23//21 25//21 24//21
f 23//22 26//22 25//22
usemtl assumed_wall
f 1//23 15//23 2//23
f 1//24 14//24 15//24
f 2//25 16//25 3//25
f 2//26 15//26 16//26
f 3//27 17//27 4//27
f 3//28 16//28 17//28
f 4//29 18//29 5//29
f 4//30 17//30 18//30
f 5//31 19//31 6//31
f 5//32 18//32 19//32
f 6//33 20//33 7//33
f 6//34 19//34 20//34
f 7//35 21//35 8//35
f 7//36 20//36 21//36
f 8//37 22//37 9//37
f 8//38 21//38 22//38
f 9//39 23//39 10//39
f 9//40 22//40 23//40
f 10//41 24//41 11//41
f 10//42 23//42 24//42
f 11//43 25//43 12//43
f 11//44 24//44 25//44
f 12//45 26//45 13//45
f 12//46 25//46 26//46
f 13//47 14//47 1//47
f 13//48 26//48 14//48
