# construction_1493_assumed_A_Casa
# source A_Casa
# h_campo 0.000000
# modeled_height 6.000000
# height_kind assumed
# local_origin_world_x 172001.034850
# local_origin_world_y 402500.144600
mtllib construction_artifacts.mtl

o construction_1493_assumed_A_Casa
v 2.517000 4.561000 0.000000
v 3.099000 5.093000 0.000000
v 7.361000 0.752000 0.000000
v -2.547000 -7.786000 0.000000
v -6.591000 -3.928000 0.000000
v -3.770000 -1.429000 0.000000
v -7.361000 1.723000 0.000000
v -0.152000 7.786000 0.000000
v 2.517000 4.561000 6.000000
v 3.099000 5.093000 6.000000
v 7.361000 0.752000 6.000000
v -2.547000 -7.786000 6.000000
v -6.591000 -3.928000 6.000000
v -3.770000 -1.429000 6.000000
v -7.361000 1.723000 6.000000
v -0.152000 7.786000 6.000000
vn 0.000000 0.000000 -1.000000
vn 0.000000 -0.000000 -1.000000
vn 0.000000 -0.000000 -1.000000
vn 0.000000 0.000000 -1.000000
vn 0.000000 0.000000 -1.000000
vn 0.000000 0.000000 -1.000000
vn -0.000000 0.000000 1.000000
vn 0.000000 0.000000 1.000000
vn 0.000000 0.000000 1.000000
vn 0.000000 0.000000 1.000000
vn 0.000000 0.000000 1.000000
vn 0.000000 -0.000000 1.000000
vn -0.674690 0.738101 0.000000
vn -0.674690 0.738101 0.000000
vn 0.713570 0.700584 0.000000
vn 0.713570 0.700584 -0.000000
vn 0.652791 -0.757538 0.000000
vn 0.652791 -0.757538 0.000000
vn -0.690271 -0.723550 0.000000
vn -0.690271 -0.723550 0.000000
vn -0.663095 0.748535 0.000000
vn -0.663095 0.748535 0.000000
vn -0.659674 -0.751552 0.000000
vn -0.659674 -0.751552 0.000000
vn -0.643655 0.765316 0.000000
vn -0.643655 0.765316 0.000000
vn 0.770390 0.637573 0.000000
vn 0.770390 0.637573 -0.000000
usemtl assumed_base
f 1//1 2//1 3//1
f 1//2 3//2 4//2
f 8//3 1//3 4//3
f 4//4 5//4 6//4
f 8//5 4//5 6//5
f 6//6 7//6 8//6
usemtl assumed_roof
f 9//7 11//7 10//7
f 9//8 12//8 11//8
f 16//9 12//9 9//9
f 12//10 14//10 13//10
f 16//11 14//11 12//11
f 14//12 16//12 15//12
usemtl assumed_wall
f 1//13 10//13 2//13
f 1//14 9//14 10//14
f 2//15 11//15 3//15
f 2//16 10//16 11//16
f 3//17 12//17 4//17
f 3//18 11//18 12//18
f 4//19 13//19 5//19
f 4//20 12//20 13//20
f 5//21 14//21 6//21
f 5//22 13//22 14//22
f 6//23 15//23 7//23
f 6//24 14//24 15//24
f 7//25 16//25 8//25
f 7//26 15//26 16//26
f 8//27 9//27 1//27
f 8//28 16//28 9//28
