# construction_2777_assumed_A_Casa
# source A_Casa
# h_campo 0.000000
# modeled_height 6.000000
# height_kind assumed
# local_origin_world_x 172001.034850
# local_origin_world_y 402500.144600
mtllib construction_artifacts.mtl

o construction_2777_assumed_A_Casa
v -9.188500 -1.471500 0.000000
v -6.591500 4.633500 0.000000
v -3.082500 3.266500 0.000000
v -1.476500 7.054500 0.000000
v 9.188500 2.726500 0.000000
v 7.371500 -2.035500 0.000000
v 6.383500 -1.570500 0.000000
v 4.264500 -7.054500 0.000000
v -9.188500 -1.471500 6.000000
v -6.591500 4.633500 6.000000
v -3.082500 3.266500 6.000000
v -1.476500 7.054500 6.000000
v 9.188500 2.726500 6.000000
v 7.371500 -2.035500 6.000000
v 6.383500 -1.570500 6.000000
v 4.264500 -7.054500 6.000000
vn 0.000000 0.000000 -1.000000
vn 0.000000 0.000000 -1.000000
vn 0.000000 0.000000 -1.000000
vn 0.000000 0.000000 -1.000000
vn 0.000000 0.000000 -1.000000
vn 0.000000 0.000000 -1.000000
vn 0.000000 0.000000 1.000000
vn 0.000000 0.000000 1.000000
vn 0.000000 0.000000 1.000000
vn 0.000000 0.000000 1.000000
vn 0.000000 0.000000 1.000000
vn 0.000000 0.000000 1.000000
vn -0.920202 0.391444 0.000000
vn -0.920202 0.391444 0.000000
vn 0.362997 0.931790 0.000000
vn 0.362997 0.931790 -0.000000
vn -0.920672 0.390338 0.000000
vn -0.920672 0.390338 0.000000
vn 0.376030 0.926608 0.000000
vn 0.376030 0.926608 -0.000000
vn 0.934298 -0.356493 0.000000
vn 0.934298 -0.356493 0.000000
vn -0.425841 -0.904798 0.000000
vn -0.425841 -0.904798 0.000000
vn 0.932788 -0.360426 0.000000
vn 0.932788 -0.360426 0.000000
vn -0.383304 -0.923622 0.000000
vn -0.383304 -0.923622 0.000000
usemtl assumed_base
f 8//1 1//1 2//1
f 8//2 2//2 3//2
f 8//3 3//3 4//3
f 4//4 5//4 6//4
f 4//5 6//5 7//5
f 4//6 7//6 8//6
usemtl assumed_roof
f 16//7 10//7 9//7
f 16//8 11//8 10//8
f 16//9 12//9 11//9
f 12//10 14//10 13//10
f 12//11 15//11 14//11
f 12//12 16//12 15//12
usemtl assumed_wall
f 1//13 10//13 2//13
f 1//14 9//14 10//14
f 2//15 11//15 3//15
f 2//16 10//16 11//16
f 3//17 12//17 4//17
f 3//18 11//18 12//18
f 4//19 13//19 5//19
f 4//20 12//20 13//20
f 5//21 14//21 6//21
f 5//22 13//22 14//22
f 6//23 15//23 7//23
f 6//24 14//24 15//24
f 7//25 16//25 8//25
f 7//26 15//26 16//26
f 8//27 9//27 1//27
f 8//28 16//28 9//28
