# construction_4219_assumed_A_Casa
# source A_Casa
# h_campo 0.000000
# modeled_height 6.000000
# height_kind assumed
# local_origin_world_x 172001.034850
# local_origin_world_y 402500.144600
mtllib construction_artifacts.mtl

o construction_4219_assumed_A_Casa
v -27.195500 11.763000 0.000000
v -4.830500 14.609000 0.000000
v -3.987500 8.288000 0.000000
v 16.217500 10.762000 0.000000
v 16.718500 8.525000 0.000000
v 25.834500 9.340000 0.000000
v 27.195500 -3.848000 0.000000
v 18.168500 -4.739000 0.000000
v 18.366500 -7.268000 0.000000
v -3.016500 -9.099000 0.000000
v -2.927500 -12.615000 0.000000
v -23.601500 -14.609000 0.000000
v -24.393500 -4.721000 0.000000
v -25.570500 -4.713000 0.000000
v -27.195500 11.763000 6.000000
v -4.830500 14.609000 6.000000
v -3.987500 8.288000 6.000000
v 16.217500 10.762000 6.000000
v 16.718500 8.525000 6.000000
v 25.834500 9.340000 6.000000
v 27.195500 -3.848000 6.000000
v 18.168500 -4.739000 6.000000
v 18.366500 -7.268000 6.000000
v -3.016500 -9.099000 6.000000
v -2.927500 -12.615000 6.000000
v -23.601500 -14.609000 6.000000
v -24.393500 -4.721000 6.000000
v -25.570500 -4.713000 6.000000
vn 0.000000 0.000000 -1.000000
vn 0.000000 0.000000 -1.000000
vn 0.000000 0.000000 -1.000000
vn 0.000000 0.000000 -1.000000
vn 0.000000 0.000000 -1.000000
vn 0.000000 0.000000 -1.000000
vn 0.000000 0.000000 -1.000000
vn 0.000000 -0.000000 -1.000000
vn 0.000000 -0.000000 -1.000000
vn -0.000000 0.000000 -1.000000
vn -0.000000 0.000000 -1.000000
vn 0.000000 0.000000 -1.000000
vn 0.000000 -0.000000 1.000000
vn 0.000000 0.000000 1.000000
vn 0.000000 0.000000 1.000000
vn 0.000000 0.000000 1.000000
vn 0.000000 0.000000 1.000000
vn 0.000000 0.000000 1.000000
vn -0.000000 0.000000 1.000000
vn 0.000000 0.000000 1.000000
vn 0.000000 0.000000 1.000000
vn 0.000000 0.000000 1.000000
vn 0.000000 0.000000 1.000000
vn 0.000000 0.000000 1.000000
vn -0.126234 0.992000 0.000000
vn -0.126234 0.992000 0.000000
vn 0.991224 0.132195 0.000000
vn 0.991224 0.132195 -0.000000
vn -0.121537 0.992587 0.000000
vn -0.121537 0.992587 0.000000
vn 0.975826 0.218547 0.000000
vn 0.975826 0.218547 -0.000000
vn -0.089048 0.996027 0.000000
vn -0.089048 0.996027 0.000000
vn 0.994717 0.102655 0.000000
vn 0.994717 0.102655 -0.000000
vn 0.098227 -0.995164 0.000000
vn 0.098227 -0.995164 0.000000
vn 0.996949 0.078053 0.000000
vn 0.996949 0.078053 -0.000000
vn 0.085317 -0.996354 0.000000
vn 0.085317 -0.996354 0.000000
vn 0.999680 0.025305 0.000000
vn 0.999680 0.025305 -0.000000
vn 0.096004 -0.995381 0.000000
vn 0.096004 -0.995381 0.000000
vn -0.996808 -0.079841 0.000000
vn -0.996808 -0.079841 0.000000
vn -0.006797 -0.999977 0.000000
vn -0.006797 -0.999977 0.000000
vn -0.995171 -0.098152 0.000000
vn -0.995171 -0.098152 0.000000
usemtl assumed_base
f 14//1 1//1 2//1
f 14//2 2//2 3//2
f 14//3 3//3 4//3
f 14//4 4//4 5//4
f 14//5 5//5 6//5
f 14//6 6//6 7//6
f 14//7 7//7 8//7
f 8//8 9//8 10//8
f 10//9 11//9 12//9
f 10//10 12//10 13//10
f 8//11 10//11 13//11
f 8//12 13//12 14//12
usemtl assumed_roof
f 28//13 16//13 15//13
f 28//14 17//14 16//14
f 28//15 18//15 17//15
f 28//16 19//16 18//16
f 28//17 20//17 19//17
f 28//18 21//18 20//18
f 28//19 22//19 21//19
f 22//20 24//20 23//20
f 24//21 26//21 25//21
f 24//22 27//22 26//22
f 22//23 27//23 24//23
f 22//24 28//24 27//24
usemtl assumed_wall
f 1//25 16//25 2//25
f 1//26 15//26 16//26
f 2//27 17//27 3//27
f 2//28 16//28 17//28
f 3//29 18//29 4//29
f 3//30 17//30 18//30
f 4//31 19//31 5//31
f 4//32 18//32 19//32
f 5//33 20//33 6//33
f 5//34 19//34 20//34
f 6//35 21//35 7//35
f 6//36 20//36 21//36
f 7//37 22//37 8//37
f 7//38 21//38 22//38
f 8//39 23//39 9//39
f 8//40 22//40 23//40
f 9//41 24//41 10//41
f 9//42 23//42 24//42
f 10//43 25//43 11//43
f 10//44 24//44 25//44
f 11//45 26//45 12//45
f 11//46 25//46 26//46
f 12//47 27//47 13//47
f 12//48 26//48 27//48
f 13//49 28//49 14//49
f 13//50 27//50 28//50
f 14//51 15//51 1//51
f 14//52 28//52 15//52
