# construction_2519_assumed_A_Casa
# source A_Casa
# h_campo 0.000000
# modeled_height 6.000000
# height_kind assumed
# local_origin_world_x 172001.034850
# local_origin_world_y 402500.144600
mtllib construction_artifacts.mtl

o construction_2519_assumed_A_Casa
v -13.933000 -2.978000 0.000000
v -2.856000 13.873000 0.000000
v 9.041000 4.381000 0.000000
v 6.328000 0.899000 0.000000
v 13.933000 -4.977000 0.000000
v 7.324000 -13.873000 0.000000
v -3.695000 -5.235000 0.000000
v -5.936000 -8.341000 0.000000
v -13.933000 -2.978000 6.000000
v -2.856000 13.873000 6.000000
v 9.041000 4.381000 6.000000
v 6.328000 0.899000 6.000000
v 13.933000 -4.977000 6.000000
v 7.324000 -13.873000 6.000000
v -3.695000 -5.235000 6.000000
v -5.936000 -8.341000 6.000000
vn 0.000000 0.000000 -1.000000
vn 0.000000 0.000000 -1.000000
vn 0.000000 0.000000 -1.000000
vn 0.000000 0.000000 -1.000000
vn 0.000000 -0.000000 -1.000000
vn 0.000000 0.000000 -1.000000
vn 0.000000 -0.000000 1.000000
vn 0.000000 0.000000 1.000000
vn 0.000000 0.000000 1.000000
vn 0.000000 0.000000 1.000000
vn 0.000000 0.000000 1.000000
vn 0.000000 0.000000 1.000000
vn -0.835626 0.549299 0.000000
vn -0.835626 0.549299 0.000000
vn 0.623669 0.781689 0.000000
vn 0.623669 0.781689 -0.000000
vn 0.788827 -0.614615 0.000000
vn 0.788827 -0.614615 0.000000
vn 0.611409 0.791315 0.000000
vn 0.611409 0.791315 -0.000000
vn 0.802720 -0.596356 0.000000
vn 0.802720 -0.596356 0.000000
vn -0.616947 -0.787004 0.000000
vn -0.616947 -0.787004 0.000000
vn 0.810955 -0.585109 0.000000
vn 0.810955 -0.585109 0.000000
vn -0.556975 -0.830529 0.000000
vn -0.556975 -0.830529 0.000000
usemtl assumed_base
f 8//1 1//1 2//1
f 2//2 3//2 4//2
f 4//3 5//3 6//3
f 2//4 4//4 6//4
f 2//5 6//5 7//5
f 2//6 7//6 8//6
usemtl assumed_roof
f 16//7 10//7 9//7
f 10//8 12//8 11//8
f 12//9 14//9 13//9
f 10//10 14//10 12//10
f 10//11 15//11 14//11
f 10//12 16//12 15//12
usemtl assumed_wall
f 1//13 10//13 2//13
f 1//14 9//14 10//14
f 2//15 11//15 3//15
f 2//16 10//16 11//16
f 3//17 12//17 4//17
f 3//18 11//18 12//18
f 4//19 13//19 5//19
f 4//20 12//20 13//20
f 5//21 14//21 6//21
f 5//22 13//22 14//22
f 6//23 15//23 7//23
f 6//24 14//24 15//24
f 7//25 16//25 8//25
f 7//26 15//26 16//26
f 8//27 9//27 1//27
f 8//28 16//28 9//28
