# construction_1275_assumed_A_Casa
# source A_Casa
# h_campo 0.000000
# modeled_height 6.000000
# height_kind assumed
# local_origin_world_x 172001.034850
# local_origin_world_y 402500.144600
mtllib construction_artifacts.mtl

o construction_1275_assumed_A_Casa
v -7.967500 7.849000 0.000000
v -4.928500 8.179000 0.000000
v 2.275500 10.551000 0.000000
v 6.623500 -1.198000 0.000000
v 7.967500 -7.205000 0.000000
v -0.863500 -10.551000 0.000000
v -1.378500 -8.472000 0.000000
v -3.929500 -9.502000 0.000000
v -5.855500 -5.072000 0.000000
v -7.503500 0.861000 0.000000
v -5.940500 1.772000 0.000000
v -7.967500 7.849000 6.000000
v -4.928500 8.179000 6.000000
v 2.275500 10.551000 6.000000
v 6.623500 -1.198000 6.000000
v 7.967500 -7.205000 6.000000
v -0.863500 -10.551000 6.000000
v -1.378500 -8.472000 6.000000
v -3.929500 -9.502000 6.000000
v -5.855500 -5.072000 6.000000
v -7.503500 0.861000 6.000000
v -5.940500 1.772000 6.000000
vn 0.000000 0.000000 -1.000000
vn 0.000000 0.000000 -1.000000
vn 0.000000 0.000000 -1.000000
vn 0.000000 0.000000 -1.000000
vn 0.000000 0.000000 -1.000000
vn 0.000000 0.000000 -1.000000
vn 0.000000 0.000000 -1.000000
vn 0.000000 0.000000 -1.000000
vn 0.000000 0.000000 -1.000000
vn 0.000000 -0.000000 1.000000
vn 0.000000 0.000000 1.000000
vn -0.000000 0.000000 1.000000
vn 0.000000 0.000000 1.000000
vn 0.000000 0.000000 1.000000
vn 0.000000 0.000000 1.000000
vn 0.000000 0.000000 1.000000
vn 0.000000 0.000000 1.000000
vn 0.000000 0.000000 1.000000
vn -0.107954 0.994156 0.000000
vn -0.107954 0.994156 0.000000
vn -0.312745 0.949837 0.000000
vn -0.312745 0.949837 0.000000
vn 0.937839 0.347070 0.000000
vn 0.937839 0.347070 -0.000000
vn 0.975873 0.218341 0.000000
vn 0.975873 0.218341 -0.000000
vn 0.354313 -0.935127 0.000000
vn 0.354313 -0.935127 0.000000
vn -0.970662 -0.240448 0.000000
vn -0.970662 -0.240448 0.000000
vn 0.374397 -0.927269 0.000000
vn 0.374397 -0.927269 0.000000
vn -0.917077 -0.398711 0.000000
vn -0.917077 -0.398711 0.000000
vn -0.963520 -0.267635 0.000000
vn -0.963520 -0.267635 0.000000
vn -0.503562 0.863959 0.000000
vn -0.503562 0.863959 0.000000
vn -0.948621 -0.316415 0.000000
vn -0.948621 -0.316415 0.000000
usemtl assumed_base
f 11//1 1//1 2//1
f 11//2 2//2 3//2
f 11//3 3//3 4//3
f 11//4 4//4 5//4
f 5//5 6//5 7//5
f 11//6 5//6 7//6
f 11//7 7//7 8//7
f 11//8 8//8 9//8
f 9//9 10//9 11//9
usemtl assumed_roof
f 22//10 13//10 12//10
f 22//11 14//11 13//11
f 22//12 15//12 14//12
f 22//13 16//13 15//13
f 16//14 18//14 17//14
f 22//15 18//15 16//15
f 22//16 19//16 18//16
f 22//17 20//17 19//17
f 20//18 22//18 21//18
usemtl assumed_wall
f 1//19 13//19 2//19
f 1//20 12//20 13//20
f 2//21 14//21 3//21
f 2//22 13//22 14//22
f 3//23 15//23 4//23
f 3//24 14//24 15//24
f 4//25 16//25 5//25
f 4//26 15//26 16//26
f 5//27 17//27 6//27
f 5//28 16//28 17//28
f 6//29 18//29 7//29
f 6//30 17//30 18//30
f 7//31 19//31 8//31
f 7//32 18//32 19//32
f 8//33 20//33 9//33
f 8//34 19//34 20//34
f 9//35 21//35 10//35
f 9//36 20//36 21//36
f 10//37 22//37 11//37
f 10//38 21//38 22//38
f 11//39 12//39 1//39
f 11//40 22//40 12//40
