# construction_1023_assumed_A_Casa
# source A_Casa
# h_campo 0.000000
# modeled_height 6.000000
# height_kind assumed
# local_origin_world_x 172001.034850
# local_origin_world_y 402500.144600
mtllib construction_artifacts.mtl

o construction_1023_assumed_A_Casa
v -15.421000 9.990000 0.000000
v -14.715000 20.413000 0.000000
v 10.748000 19.659000 0.000000
v 10.658000 12.966000 0.000000
v 7.273000 12.949000 0.000000
v 6.198000 -6.704000 0.000000
v 10.105000 -8.988000 0.000000
v 12.017000 -8.050000 0.000000
v 15.421000 -14.820000 0.000000
v 3.809000 -20.413000 0.000000
v 0.346000 -14.153000 0.000000
v 1.442000 -13.870000 0.000000
v 2.878000 7.902000 0.000000
v -9.921000 7.838000 0.000000
v -10.209000 9.784000 0.000000
v -15.421000 9.990000 6.000000
v -14.715000 20.413000 6.000000
v 10.748000 19.659000 6.000000
v 10.658000 12.966000 6.000000
v 7.273000 12.949000 6.000000
v 6.198000 -6.704000 6.000000
v 10.105000 -8.988000 6.000000
v 12.017000 -8.050000 6.000000
v 15.421000 -14.820000 6.000000
v 3.809000 -20.413000 6.000000
v 0.346000 -14.153000 6.000000
v 1.442000 -13.870000 6.000000
v 2.878000 7.902000 6.000000
v -9.921000 7.838000 6.000000
v -10.209000 9.784000 6.000000
vn 0.000000 0.000000 -1.000000
vn 0.000000 0.000000 -1.000000
vn 0.000000 0.000000 -1.000000
vn 0.000000 0.000000 -1.000000
vn 0.000000 0.000000 -1.000000
vn 0.000000 0.000000 -1.000000
vn 0.000000 -0.000000 -1.000000
vn 0.000000 0.000000 -1.000000
vn 0.000000 0.000000 -1.000000
vn 0.000000 0.000000 -1.000000
vn 0.000000 0.000000 -1.000000
vn 0.000000 0.000000 -1.000000
vn -0.000000 0.000000 -1.000000
vn 0.000000 0.000000 1.000000
vn 0.000000 -0.000000 1.000000
vn 0.000000 0.000000 1.000000
vn 0.000000 0.000000 1.000000
vn -0.000000 0.000000 1.000000
vn 0.000000 0.000000 1.000000
vn 0.000000 0.000000 1.000000
vn 0.000000 0.000000 1.000000
vn 0.000000 0.000000 1.000000
vn 0.000000 0.000000 1.000000
vn 0.000000 0.000000 1.000000
vn -0.000000 0.000000 1.000000
vn 0.000000 0.000000 1.000000
vn -0.997714 0.067580 0.000000
vn -0.997714 0.067580 0.000000
vn 0.029599 0.999562 0.000000
vn 0.029599 0.999562 -0.000000
vn 0.999910 -0.013446 0.000000
vn 0.999910 -0.013446 0.000000
vn 0.005022 -0.999987 0.000000
vn 0.005022 -0.999987 0.000000
vn 0.998507 -0.054617 0.000000
vn 0.998507 -0.054617 0.000000
vn 0.504681 0.863306 0.000000
vn 0.504681 0.863306 -0.000000
vn -0.440439 0.897782 0.000000
vn -0.440439 0.897782 0.000000
vn 0.893422 0.449218 0.000000
vn 0.893422 0.449218 -0.000000
vn 0.433944 -0.900940 0.000000
vn 0.433944 -0.900940 0.000000
vn -0.875033 -0.484064 0.000000
vn -0.875033 -0.484064 0.000000
vn -0.250012 0.968243 0.000000
vn -0.250012 0.968243 0.000000
vn -0.997832 0.065813 0.000000
vn -0.997832 0.065813 0.000000
vn 0.005000 -0.999987 0.000000
vn 0.005000 -0.999987 0.000000
vn -0.989225 -0.146401 0.000000
vn -0.989225 -0.146401 0.000000
vn -0.039493 -0.999220 0.000000
vn -0.039493 -0.999220 0.000000
usemtl assumed_base
f 15//1 1//1 2//1
f 15//2 2//2 3//2
f 3//3 4//3 5//3
f 15//4 3//4 5//4
f 7//5 8//5 9//5
f 6//6 7//6 9//6
f 6//7 9//7 10//7
f 5//8 6//8 10//8
f 10//9 11//9 12//9
f 5//10 10//10 12//10
f 5//11 12//11 13//11
f 15//12 5//12 13//12
f 13//13 14//13 15//13
usemtl assumed_roof
f 30//14 17//14 16//14
f 30//15 18//15 17//15
f 18//16 20//16 19//16
f 30//17 20//17 18//17
f 22//18 24//18 23//18
f 21//19 24//19 22//19
f 21//20 25//20 24//20
f 20//21 25//21 21//21
f 25//22 27//22 26//22
f 20//23 27//23 25//23
f 20//24 28//24 27//24
f 30//25 28//25 20//25
f 28//26 30//26 29//26
usemtl assumed_wall
f 1//27 17//27 2//27
f 1//28 16//28 17//28
f 2//29 18//29 3//29
f 2//30 17//30 18//30
f 3//31 19//31 4//31
f 3//32 18//32 19//32
f 4//33 20//33 5//33
f 4//34 19//34 20//34
f 5//35 21//35 6//35
f 5//36 20//36 21//36
f 6//37 22//37 7//37
f 6//38 21//38 22//38
f 7//39 23//39 8//39
f 7//40 22//40 23//40
f 8//41 24//41 9//41
f 8//42 23//42 24//42
f 9//43 25//43 10//43
f 9//44 24//44 25//44
f 10//45 26//45 11//45
f 10//46 25//46 26//46
f 11//47 27//47 12//47
f 11//48 26//48 27//48
f 12//49 28//49 13//49
f 12//50 27//50 28//50
f 13//51 29//51 14//51
f 13//52 28//52 29//52
f 14//53 30//53 15//53
f 14//54 29//54 30//54
f 15//55 16//55 1//55
f 15//56 30//56 16//56
