# construction_4697_assumed_A_Casa
# source A_Casa
# h_campo 0.000000
# modeled_height 6.000000
# height_kind assumed
# local_origin_world_x 172001.034850
# local_origin_world_y 402500.144600
mtllib construction_artifacts.mtl

o construction_4697_assumed_A_Casa
v -25.212000 5.872500 0.000000
v -15.438000 11.482500 0.000000
v -13.587000 9.057500 0.000000
v -15.592000 8.098500 0.000000
v -13.870000 5.655500 0.000000
v -15.422000 4.663500 0.000000
v -13.793000 1.659500 0.000000
v -6.812000 6.160500 0.000000
v -4.229000 1.722500 0.000000
v -5.981000 0.407500 0.000000
v -1.823000 -5.055500 0.000000
v 1.349000 -3.260500 0.000000
v 1.302000 -1.705500 0.000000
v 3.032000 -0.666500 0.000000
v -0.975000 5.140500 0.000000
v 11.756000 13.737500 0.000000
v 18.742000 3.863500 0.000000
v 19.808000 4.218500 0.000000
v 21.407000 2.396500 0.000000
v 23.632000 3.893500 0.000000
v 25.212000 2.040500 0.000000
v 6.217000 -12.273500 0.000000
v 3.004000 -8.085500 0.000000
v -5.217000 -13.737500 0.000000
v -12.451000 -4.017500 0.000000
v -14.386000 -4.858500 0.000000
v -16.981000 -0.804500 0.000000
v -19.929000 -2.837500 0.000000
v -25.212000 5.872500 6.000000
v -15.438000 11.482500 6.000000
v -13.587000 9.057500 6.000000
v -15.592000 8.098500 6.000000
v -13.870000 5.655500 6.000000
v -15.422000 4.663500 6.000000
v -13.793000 1.659500 6.000000
v -6.812000 6.160500 6.000000
v -4.229000 1.722500 6.000000
v -5.981000 0.407500 6.000000
v -1.823000 -5.055500 6.000000
v 1.349000 -3.260500 6.000000
v 1.302000 -1.705500 6.000000
v 3.032000 -0.666500 6.000000
v -0.975000 5.140500 6.000000
v 11.756000 13.737500 6.000000
v 18.742000 3.863500 6.000000
v 19.808000 4.218500 6.000000
v 21.407000 2.396500 6.000000
v 23.632000 3.893500 6.000000
v 25.212000 2.040500 6.000000
v 6.217000 -12.273500 6.000000
v 3.004000 -8.085500 6.000000
v -5.217000 -13.737500 6.000000
v -12.451000 -4.017500 6.000000
v -14.386000 -4.858500 6.000000
v -16.981000 -0.804500 6.000000
v -19.929000 -2.837500 6.000000
vn 0.000000 0.000000 -1.000000
vn 0.000000 -0.000000 -1.000000
vn 0.000000 0.000000 -1.000000
vn 0.000000 0.000000 -1.000000
vn 0.000000 0.000000 -1.000000
vn 0.000000 0.000000 -1.000000
vn 0.000000 0.000000 -1.000000
vn 0.000000 0.000000 -1.000000
vn 0.000000 0.000000 -1.000000
vn 0.000000 0.000000 -1.000000
vn 0.000000 0.000000 -1.000000
vn 0.000000 0.000000 -1.000000
vn 0.000000 0.000000 -1.000000
vn 0.000000 0.000000 -1.000000
vn 0.000000 0.000000 -1.000000
vn 0.000000 0.000000 -1.000000
vn 0.000000 0.000000 -1.000000
vn 0.000000 0.000000 -1.000000
vn 0.000000 0.000000 -1.000000
vn 0.000000 0.000000 -1.000000
vn 0.000000 0.000000 -1.000000
vn 0.000000 0.000000 -1.000000
vn 0.000000 0.000000 -1.000000
vn 0.000000 -0.000000 -1.000000
vn 0.000000 0.000000 -1.000000
vn 0.000000 0.000000 -1.000000
vn 0.000000 -0.000000 1.000000
vn 0.000000 0.000000 1.000000
vn 0.000000 0.000000 1.000000
vn 0.000000 0.000000 1.000000
vn 0.000000 0.000000 1.000000
vn 0.000000 0.000000 1.000000
vn 0.000000 0.000000 1.000000
vn -0.000000 0.000000 1.000000
vn 0.000000 0.000000 1.000000
vn 0.000000 -0.000000 1.000000
vn 0.000000 -0.000000 1.000000
vn 0.000000 0.000000 1.000000
vn 0.000000 0.000000 1.000000
vn 0.000000 0.000000 1.000000
vn 0.000000 0.000000 1.000000
vn 0.000000 0.000000 1.000000
vn -0.000000 0.000000 1.000000
vn 0.000000 0.000000 1.000000
vn 0.000000 0.000000 1.000000
vn -0.000000 0.000000 1.000000
vn 0.000000 0.000000 1.000000
vn 0.000000 0.000000 1.000000
vn 0.000000 0.000000 1.000000
vn 0.000000 0.000000 1.000000
vn 0.000000 0.000000 1.000000
vn 0.000000 0.000000 1.000000
vn -0.497801 0.867291 0.000000
vn -0.497801 0.867291 0.000000
vn 0.794897 0.606744 0.000000
vn 0.794897 0.606744 -0.000000
vn 0.431487 -0.902119 0.000000
vn 0.431487 -0.902119 0.000000
vn 0.817357 0.576131 0.000000
vn 0.817357 0.576131 -0.000000
vn 0.538561 -0.842587 0.000000
vn 0.538561 -0.842587 0.000000
vn 0.879067 0.476698 0.000000
vn 0.879067 0.476698 -0.000000
vn -0.541883 0.840454 0.000000
vn -0.541883 0.840454 0.000000
vn 0.864273 0.503023 0.000000
vn 0.864273 0.503023 -0.000000
vn 0.600292 -0.799781 0.000000
vn 0.600292 -0.799781 0.000000
vn 0.795733 0.605648 0.000000
vn 0.795733 0.605648 -0.000000
vn -0.492500 0.870312 0.000000
vn -0.492500 0.870312 0.000000
vn -0.999544 -0.030211 0.000000
vn -0.999544 -0.030211 0.000000
vn -0.514860 0.857274 0.000000
vn -0.514860 0.857274 0.000000
vn -0.823069 -0.567942 0.000000
vn -0.823069 -0.567942 0.000000
vn -0.559633 0.828741 0.000000
vn -0.559633 0.828741 0.000000
vn 0.816340 0.577572 0.000000
vn 0.816340 0.577572 -0.000000
vn -0.315961 0.948772 0.000000
vn -0.315961 0.948772 0.000000
vn 0.751605 0.659614 0.000000
vn 0.751605 0.659614 -0.000000
vn -0.558223 0.829691 0.000000
vn -0.558223 0.829691 0.000000
vn 0.760935 0.648828 0.000000
vn 0.760935 0.648828 -0.000000
vn 0.601821 -0.798631 0.000000
vn 0.601821 -0.798631 0.000000
vn -0.793405 -0.608694 0.000000
vn -0.793405 -0.608694 0.000000
vn 0.566533 -0.824039 0.000000
vn 0.566533 -0.824039 0.000000
vn -0.802213 -0.597038 0.000000
vn -0.802213 -0.597038 0.000000
vn 0.398605 -0.917123 0.000000
vn 0.398605 -0.917123 0.000000
vn -0.842230 -0.539119 0.000000
vn -0.842230 -0.539119 0.000000
vn 0.567713 -0.823226 0.000000
vn 0.567713 -0.823226 0.000000
vn -0.855015 -0.518604 0.000000
vn -0.855015 -0.518604 0.000000
usemtl assumed_base
f 28//1 1//1 2//1
f 2//2 3//2 4//2
f 28//3 2//3 4//3
f 4//4 5//4 6//4
f 28//5 4//5 6//5
f 28//6 6//6 7//6
f 7//7 8//7 9//7
f 7//8 9//8 10//8
f 7//9 10//9 11//9
f 12//10 13//10 14//10
f 14//11 15//11 16//11
f 14//12 16//12 17//12
f 12//13 14//13 17//13
f 11//14 12//14 17//14
f 11//15 17//15 18//15
f 11//16 18//16 19//16
f 19//17 20//17 21//17
f 11//18 19//18 21//18
f 21//19 22//19 23//19
f 11//20 21//20 23//20
f 7//21 11//21 23//21
f 7//22 23//22 24//22
f 7//23 24//23 25//23
f 7//24 25//24 26//24
f 7//25 26//25 27//25
f 7//26 27//26 28//26
usemtl assumed_roof
f 56//27 30//27 29//27
f 30//28 32//28 31//28
f 56//29 32//29 30//29
f 32//30 34//30 33//30
f 56//31 34//31 32//31
f 56//32 35//32 34//32
f 35//33 37//33 36//33
f 35//34 38//34 37//34
f 35//35 39//35 38//35
f 40//36 42//36 41//36
f 42//37 44//37 43//37
f 42//38 45//38 44//38
f 40//39 45//39 42//39
f 39//40 45//40 40//40
f 39//41 46//41 45//41
f 39//42 47//42 46//42
f 47//43 49//43 48//43
f 39//44 49//44 47//44
f 49//45 51//45 50//45
f 39//46 51//46 49//46
f 35//47 51//47 39//47
f 35//48 52//48 51//48
f 35//49 53//49 52//49
f 35//50 54//50 53//50
f 35//51 55//51 54//51
f 35//52 56//52 55//52
usemtl assumed_wall
f 1//53 30//53 2//53
f 1//54 29//54 30//54
f 2//55 31//55 3//55
f 2//56 30//56 31//56
f 3//57 32//57 4//57
f 3//58 31//58 32//58
f 4//59 33//59 5//59
f 4//60 32//60 33//60
f 5//61 34//61 6//61
f 5//62 33//62 34//62
f 6//63 35//63 7//63
f 6//64 34//64 35//64
f 7//65 36//65 8//65
f 7//66 35//66 36//66
f 8//67 37//67 9//67
f 8//68 36//68 37//68
f 9//69 38//69 10//69
f 9//70 37//70 38//70
f 10//71 39//71 11//71
f 10//72 38//72 39//72
f 11//73 40//73 12//73
f 11//74 39//74 40//74
f 12//75 41//75 13//75
f 12//76 40//76 41//76
f 13//77 42//77 14//77
f 13//78 41//78 42//78
f 14//79 43//79 15//79
f 14//80 42//80 43//80
f 15//81 44//81 16//81
f 15//82 43//82 44//82
f 16//83 45//83 17//83
f 16//84 44//84 45//84
f 17//85 46//85 18//85
f 17//86 45//86 46//86
f 18//87 47//87 19//87
f 18//88 46//88 47//88
f 19//89 48//89 20//89
f 19//90 47//90 48//90
f 20//91 49//91 21//91
f 20//92 48//92 49//92
f 21//93 50//93 22//93
f 21//94 49//94 50//94
f 22//95 51//95 23//95
f 22//96 50//96 51//96
f 23//97 52//97 24//97
f 23//98 51//98 52//98
f 24//99 53//99 25//99
f 24//100 52//100 53//100
f 25//101 54//101 26//101
f 25//102 53//102 54//102
f 26//103 55//103 27//103
f 26//104 54//104 55//104
f 27//105 56//105 28//105
f 27//106 55//106 56//106
f 28//107 29//107 1//107
f 28//108 56//108 29//108
