# construction_4722_assumed_A_Casa
# source A_Casa
# h_campo 0.000000
# modeled_height 6.000000
# height_kind assumed
# local_origin_world_x 172001.034850
# local_origin_world_y 402500.144600
mtllib construction_artifacts.mtl

o construction_4722_assumed_A_Casa
v -5.949500 -1.789000 0.000000
v -2.777500 1.845000 0.000000
v 3.015500 6.040000 0.000000
v 4.389500 4.645000 0.000000
v -0.149500 0.774000 0.000000
v 5.949500 -2.696000 0.000000
v 3.384500 -6.040000 0.000000
v -5.949500 -1.789000 6.000000
v -2.777500 1.845000 6.000000
v 3.015500 6.040000 6.000000
v 4.389500 4.645000 6.000000
v -0.149500 0.774000 6.000000
v 5.949500 -2.696000 6.000000
v 3.384500 -6.040000 6.000000
vn 0.000000 0.000000 -1.000000
vn 0.000000 0.000000 -1.000000
vn 0.000000 0.000000 -1.000000
vn 0.000000 0.000000 -1.000000
vn 0.000000 0.000000 -1.000000
vn 0.000000 0.000000 1.000000
vn 0.000000 0.000000 1.000000
vn -0.000000 0.000000 1.000000
vn 0.000000 0.000000 1.000000
vn 0.000000 0.000000 1.000000
vn -0.753372 0.657594 0.000000
vn -0.753372 0.657594 0.000000
vn -0.586516 0.809938 0.000000
vn -0.586516 0.809938 0.000000
vn 0.712449 0.701724 0.000000
vn 0.712449 0.701724 -0.000000
vn 0.648898 -0.760875 0.000000
vn 0.648898 -0.760875 0.000000
vn 0.494511 0.869171 0.000000
vn 0.494511 0.869171 -0.000000
vn 0.793461 -0.608621 0.000000
vn 0.793461 -0.608621 0.000000
vn -0.414471 -0.910062 0.000000
vn -0.414471 -0.910062 0.000000
usemtl assumed_base
f 7//1 1//1 2//1
f 2//2 3//2 4//2
f 2//3 4//3 5//3
f 7//4 2//4 5//4
f 5//5 6//5 7//5
usemtl assumed_roof
f 14//6 9//6 8//6
f 9//7 11//7 10//7
f 9//8 12//8 11//8
f 14//9 12//9 9//9
f 12//10 14//10 13//10
usemtl assumed_wall
f 1//11 9//11 2//11
f 1//12 8//12 9//12
f 2//13 10//13 3//13
f 2//14 9//14 10//14
f 3//15 11//15 4//15
f 3//16 10//16 11//16
f 4//17 12//17 5//17
f 4//18 11//18 12//18
f 5//19 13//19 6//19
f 5//20 12//20 13//20
f 6//21 14//21 7//21
f 6//22 13//22 14//22
f 7//23 8//23 1//23
f 7//24 14//24 8//24
