# construction_0867_assumed_A_Casa
# source A_Casa
# h_campo 0.000000
# modeled_height 6.000000
# height_kind assumed
# local_origin_world_x 172001.034850
# local_origin_world_y 402500.144600
mtllib construction_artifacts.mtl

o construction_0867_assumed_A_Casa
v -14.147500 4.430500 0.000000
v -2.589500 10.272500 0.000000
v -1.120500 7.300500 0.000000
v 10.262500 13.447500 0.000000
v 13.481500 7.792500 0.000000
v 12.326500 7.232500 0.000000
v 14.147500 3.991500 0.000000
v -4.214500 -4.794500 0.000000
v -0.625500 -11.729500 0.000000
v -4.143500 -13.447500 0.000000
v -14.147500 4.430500 6.000000
v -2.589500 10.272500 6.000000
v -1.120500 7.300500 6.000000
v 10.262500 13.447500 6.000000
v 13.481500 7.792500 6.000000
v 12.326500 7.232500 6.000000
v 14.147500 3.991500 6.000000
v -4.214500 -4.794500 6.000000
v -0.625500 -11.729500 6.000000
v -4.143500 -13.447500 6.000000
vn 0.000000 0.000000 -1.000000
vn 0.000000 0.000000 -1.000000
vn 0.000000 0.000000 -1.000000
vn 0.000000 0.000000 -1.000000
vn 0.000000 0.000000 -1.000000
vn 0.000000 0.000000 -1.000000
vn 0.000000 0.000000 -1.000000
vn 0.000000 0.000000 -1.000000
vn 0.000000 0.000000 1.000000
vn 0.000000 0.000000 1.000000
vn 0.000000 0.000000 1.000000
vn 0.000000 0.000000 1.000000
vn -0.000000 0.000000 1.000000
vn 0.000000 0.000000 1.000000
vn 0.000000 0.000000 1.000000
vn 0.000000 0.000000 1.000000
vn -0.451101 0.892473 0.000000
vn -0.451101 0.892473 0.000000
vn 0.896469 0.443107 0.000000
vn 0.896469 0.443107 -0.000000
vn -0.475160 0.879900 0.000000
vn -0.475160 0.879900 0.000000
vn 0.869065 0.494698 0.000000
vn 0.869065 0.494698 -0.000000
vn 0.436274 -0.899814 0.000000
vn 0.436274 -0.899814 0.000000
vn 0.871813 0.489840 0.000000
vn 0.871813 0.489840 -0.000000
vn 0.431622 -0.902054 0.000000
vn 0.431622 -0.902054 0.000000
vn 0.888117 0.459618 0.000000
vn 0.888117 0.459618 -0.000000
vn 0.438816 -0.898577 0.000000
vn 0.438816 -0.898577 0.000000
vn -0.872666 -0.488318 0.000000
vn -0.872666 -0.488318 0.000000
usemtl assumed_base
f 1//1 2//1 3//1
f 3//2 4//2 5//2
f 1//3 3//3 5//3
f 1//4 5//4 6//4
f 1//5 6//5 7//5
f 1//6 7//6 8//6
f 10//7 1//7 8//7
f 8//8 9//8 10//8
usemtl assumed_roof
f 11//9 13//9 12//9
f 13//10 15//10 14//10
f 11//11 15//11 13//11
f 11//12 16//12 15//12
f 11//13 17//13 16//13
f 11//14 18//14 17//14
f 20//15 18//15 11//15
f 18//16 20//16 19//16
usemtl assumed_wall
f 1//17 12//17 2//17
f 1//18 11//18 12//18
f 2//19 13//19 3//19
f 2//20 12//20 13//20
f 3//21 14//21 4//21
f 3//22 13//22 14//22
f 4//23 15//23 5//23
f 4//24 14//24 15//24
f 5//25 16//25 6//25
f 5//26 15//26 16//26
f 6//27 17//27 7//27
f 6//28 16//28 17//28
f 7//29 18//29 8//29
f 7//30 17//30 18//30
f 8//31 19//31 9//31
f 8//32 18//32 19//32
f 9//33 20//33 10//33
f 9//34 19//34 20//34
f 10//35 11//35 1//35
f 10//36 20//36 11//36
