# construction_5394_assumed_A_Casa
# source A_Casa
# h_campo 0.000000
# modeled_height 6.000000
# height_kind assumed
# local_origin_world_x 172001.034850
# local_origin_world_y 402500.144600
mtllib construction_artifacts.mtl

o construction_5394_assumed_A_Casa
v -21.791500 9.476000 0.000000
v -16.536500 9.986000 0.000000
v -16.606500 13.977000 0.000000
v -2.500500 15.136000 0.000000
v 5.713500 9.134000 0.000000
v 8.762500 13.080000 0.000000
v 13.818500 10.146000 0.000000
v 10.574500 5.343000 0.000000
v 21.250500 -1.366000 0.000000
v 21.791500 -3.528000 0.000000
v 20.125500 -5.277000 0.000000
v 12.131500 -5.951000 0.000000
v 10.577500 -7.573000 0.000000
v 10.584500 -9.737000 0.000000
v 0.553500 -10.615000 0.000000
v 0.621500 -13.973000 0.000000
v -14.412500 -15.136000 0.000000
v -14.711500 -10.049000 0.000000
v -20.107500 -10.237000 0.000000
v -21.791500 9.476000 6.000000
v -16.536500 9.986000 6.000000
v -16.606500 13.977000 6.000000
v -2.500500 15.136000 6.000000
v 5.713500 9.134000 6.000000
v 8.762500 13.080000 6.000000
v 13.818500 10.146000 6.000000
v 10.574500 5.343000 6.000000
v 21.250500 -1.366000 6.000000
v 21.791500 -3.528000 6.000000
v 20.125500 -5.277000 6.000000
v 12.131500 -5.951000 6.000000
v 10.577500 -7.573000 6.000000
v 10.584500 -9.737000 6.000000
v 0.553500 -10.615000 6.000000
v 0.621500 -13.973000 6.000000
v -14.412500 -15.136000 6.000000
v -14.711500 -10.049000 6.000000
v -20.107500 -10.237000 6.000000
vn 0.000000 0.000000 -1.000000
vn 0.000000 0.000000 -1.000000
vn 0.000000 0.000000 -1.000000
vn 0.000000 0.000000 -1.000000
vn 0.000000 0.000000 -1.000000
vn 0.000000 0.000000 -1.000000
vn 0.000000 0.000000 -1.000000
vn 0.000000 0.000000 -1.000000
vn 0.000000 0.000000 -1.000000
vn 0.000000 0.000000 -1.000000
vn 0.000000 0.000000 -1.000000
vn 0.000000 0.000000 -1.000000
vn 0.000000 -0.000000 -1.000000
vn 0.000000 -0.000000 -1.000000
vn 0.000000 0.000000 -1.000000
vn 0.000000 0.000000 -1.000000
vn 0.000000 0.000000 -1.000000
vn 0.000000 -0.000000 1.000000
vn 0.000000 -0.000000 1.000000
vn 0.000000 0.000000 1.000000
vn 0.000000 0.000000 1.000000
vn 0.000000 0.000000 1.000000
vn 0.000000 0.000000 1.000000
vn 0.000000 0.000000 1.000000
vn 0.000000 0.000000 1.000000
vn 0.000000 0.000000 1.000000
vn 0.000000 0.000000 1.000000
vn 0.000000 0.000000 1.000000
vn 0.000000 0.000000 1.000000
vn 0.000000 0.000000 1.000000
vn 0.000000 0.000000 1.000000
vn 0.000000 0.000000 1.000000
vn 0.000000 0.000000 1.000000
vn 0.000000 0.000000 1.000000
vn -0.096597 0.995324 0.000000
vn -0.096597 0.995324 0.000000
vn -0.999846 -0.017537 0.000000
vn -0.999846 -0.017537 0.000000
vn -0.081888 0.996642 0.000000
vn -0.081888 0.996642 0.000000
vn 0.589982 0.807416 0.000000
vn 0.589982 0.807416 -0.000000
vn -0.791303 0.611425 0.000000
vn -0.791303 0.611425 0.000000
vn 0.501913 0.864918 0.000000
vn 0.501913 0.864918 -0.000000
vn 0.828691 -0.559707 0.000000
vn 0.828691 -0.559707 0.000000
vn 0.532079 0.846695 0.000000
vn 0.532079 0.846695 -0.000000
vn 0.970090 0.242747 0.000000
vn 0.970090 0.242747 -0.000000
vn 0.724079 -0.689717 0.000000
vn 0.724079 -0.689717 0.000000
vn 0.084015 -0.996464 0.000000
vn 0.084015 -0.996464 0.000000
vn 0.722081 -0.691809 0.000000
vn 0.722081 -0.691809 0.000000
vn 0.999995 0.003235 0.000000
vn 0.999995 0.003235 -0.000000
vn 0.087195 -0.996191 0.000000
vn 0.087195 -0.996191 0.000000
vn 0.999795 0.020246 0.000000
vn 0.999795 0.020246 -0.000000
vn 0.077128 -0.997021 0.000000
vn 0.077128 -0.997021 0.000000
vn -0.998277 -0.058676 0.000000
vn -0.998277 -0.058676 0.000000
vn 0.034819 -0.999394 0.000000
vn 0.034819 -0.999394 0.000000
vn -0.996371 -0.085116 0.000000
vn -0.996371 -0.085116 0.000000
usemtl assumed_base
f 19//1 1//1 2//1
f 2//2 3//2 4//2
f 19//3 2//3 4//3
f 19//4 4//4 5//4
f 5//5 6//5 7//5
f 19//6 5//6 7//6
f 19//7 7//7 8//7
f 19//8 8//8 9//8
f 19//9 9//9 10//9
f 10//10 11//10 12//10
f 19//11 10//11 12//11
f 19//12 12//12 13//12
f 13//13 14//13 15//13
f 15//14 16//14 17//14
f 13//15 15//15 17//15
f 13//16 17//16 18//16
f 13//17 18//17 19//17
usemtl assumed_roof
f 38//18 21//18 20//18
f 21//19 23//19 22//19
f 38//20 23//20 21//20
f 38//21 24//21 23//21
f 24//22 26//22 25//22
f 38//23 26//23 24//23
f 38//24 27//24 26//24
f 38//25 28//25 27//25
f 38//26 29//26 28//26
f 29//27 31//27 30//27
f 38//28 31//28 29//28
f 38//29 32//29 31//29
f 32//30 34//30 33//30
f 34//31 36//31 35//31
f 32//32 36//32 34//32
f 32//33 37//33 36//33
f 32//34 38//34 37//34
usemtl assumed_wall
f 1//35 21//35 2//35
f 1//36 20//36 21//36
f 2//37 22//37 3//37
f 2//38 21//38 22//38
f 3//39 23//39 4//39
f 3//40 22//40 23//40
f 4//41 24//41 5//41
f 4//42 23//42 24//42
f 5//43 25//43 6//43
f 5//44 24//44 25//44
f 6//45 26//45 7//45
f 6//46 25//46 26//46
f 7//47 27//47 8//47
f 7//48 26//48 27//48
f 8//49 28//49 9//49
f 8//50 27//50 28//50
f 9//51 29//51 10//51
f 9//52 28//52 29//52
f 10//53 30//53 11//53
f 10//54 29//54 30//54
f 11//55 31//55 12//55
f 11//56 30//56 31//56
f 12//57 32//57 13//57
f 12//58 31//58 32//58
f 13//59 33//59 14//59
f 13//60 32//60 33//60
f 14//61 34//61 15//61
f 14//62 33//62 34//62
f 15//63 35//63 16//63
f 15//64 34//64 35//64
f 16//65 36//65 17//65
f 16//66 35//66 36//66
f 17//67 37//67 18//67
f 17//68 36//68 37//68
f 18//69 38//69 19//69
f 18//70 37//70 38//70
f 19//71 20//71 1//71
f 19//72 38//72 20//72
