# construction_4721_assumed_A_Casa
# source A_Casa
# h_campo 0.000000
# modeled_height 6.000000
# height_kind assumed
# local_origin_world_x 172001.034850
# local_origin_world_y 402500.144600
mtllib construction_artifacts.mtl

o construction_4721_assumed_A_Casa
v 7.835500 2.472500 0.000000
v -1.775500 -8.285500 0.000000
v -7.835500 -3.245500 0.000000
v -2.271500 2.896500 0.000000
v -2.736500 3.140500 0.000000
v 1.630500 8.285500 0.000000
v 7.835500 2.472500 6.000000
v -1.775500 -8.285500 6.000000
v -7.835500 -3.245500 6.000000
v -2.271500 2.896500 6.000000
v -2.736500 3.140500 6.000000
v 1.630500 8.285500 6.000000
vn 0.000000 -0.000000 -1.000000
vn 0.000000 0.000000 -1.000000
vn 0.000000 0.000000 -1.000000
vn 0.000000 0.000000 -1.000000
vn 0.000000 0.000000 1.000000
vn 0.000000 0.000000 1.000000
vn 0.000000 0.000000 1.000000
vn 0.000000 -0.000000 1.000000
vn 0.745743 -0.666233 0.000000
vn 0.745743 -0.666233 0.000000
vn -0.639435 -0.768845 0.000000
vn -0.639435 -0.768845 0.000000
vn -0.741118 0.671374 0.000000
vn -0.741118 0.671374 0.000000
vn -0.464647 -0.885496 0.000000
vn -0.464647 -0.885496 0.000000
vn -0.762396 0.647111 0.000000
vn -0.762396 0.647111 0.000000
vn 0.683679 0.729783 0.000000
vn 0.683679 0.729783 -0.000000
usemtl assumed_base
f 6//1 1//1 2//1
f 2//2 3//2 4//2
f 6//3 2//3 4//3
f 4//4 5//4 6//4
usemtl assumed_roof
f 12//5 8//5 7//5
f 8//6 10//6 9//6
f 12//7 10//7 8//7
f 10//8 12//8 11//8
usemtl assumed_wall
f 1//9 8//9 2//9
f 1//10 7//10 8//10
f 2//11 9//11 3//11
f 2//12 8//12 9//12
f 3//13 10//13 4//13
f 3//14 9//14 10//14
f 4//15 11//15 5//15
f 4//16 10//16 11//16
f 5//17 12//17 6//17
f 5//18 11//18 12//18
f 6//19 7//19 1//19
f 6//20 12//20 7//20
