# construction_6555_assumed_A_Casa
# source A_Casa
# h_campo 0.000000
# modeled_height 6.000000
# height_kind assumed
# local_origin_world_x 172001.034850
# local_origin_world_y 402500.144600
mtllib construction_artifacts.mtl

o construction_6555_assumed_A_Casa
v -12.869500 -4.413500 0.000000
v -6.083500 0.286500 0.000000
v -8.275500 3.382500 0.000000
v 4.487500 12.589500 0.000000
v 12.869500 1.127500 0.000000
v -6.770500 -12.589500 0.000000
v -12.869500 -4.413500 6.000000
v -6.083500 0.286500 6.000000
v -8.275500 3.382500 6.000000
v 4.487500 12.589500 6.000000
v 12.869500 1.127500 6.000000
v -6.770500 -12.589500 6.000000
vn 0.000000 0.000000 -1.000000
vn 0.000000 0.000000 -1.000000
vn 0.000000 0.000000 -1.000000
vn 0.000000 -0.000000 -1.000000
vn 0.000000 -0.000000 1.000000
vn 0.000000 -0.000000 1.000000
vn 0.000000 0.000000 1.000000
vn 0.000000 0.000000 1.000000
vn -0.569374 0.822079 0.000000
vn -0.569374 0.822079 0.000000
vn -0.816149 -0.577842 0.000000
vn -0.816149 -0.577842 0.000000
vn -0.585043 0.811002 0.000000
vn -0.585043 0.811002 0.000000
vn 0.807192 0.590288 0.000000
vn 0.807192 0.590288 -0.000000
vn 0.572594 -0.819839 0.000000
vn 0.572594 -0.819839 0.000000
vn -0.801550 -0.597927 0.000000
vn -0.801550 -0.597927 0.000000
usemtl assumed_base
f 6//1 1//1 2//1
f 2//2 3//2 4//2
f 6//3 2//3 4//3
f 4//4 5//4 6//4
usemtl assumed_roof
f 12//5 8//5 7//5
f 8//6 10//6 9//6
f 12//7 10//7 8//7
f 10//8 12//8 11//8
usemtl assumed_wall
f 1//9 8//9 2//9
f 1//10 7//10 8//10
f 2//11 9//11 3//11
f 2//12 8//12 9//12
f 3//13 10//13 4//13
f 3//14 9//14 10//14
f 4//15 11//15 5//15
f 4//16 10//16 11//16
f 5//17 12//17 6//17
f 5//18 11//18 12//18
f 6//19 7//19 1//19
f 6//20 12//20 7//20
