# construction_0814_assumed_A_Casa
# source A_Casa
# h_campo 0.000000
# modeled_height 6.000000
# height_kind assumed
# local_origin_world_x 172001.034850
# local_origin_world_y 402500.144600
mtllib construction_artifacts.mtl

o construction_0814_assumed_A_Casa
v -6.181500 1.046000 0.000000
v -5.720500 4.833000 0.000000
v 0.669500 2.960000 0.000000
v 6.181500 0.336000 0.000000
v 5.605500 -4.833000 0.000000
v -1.373500 -4.228000 0.000000
v -1.369500 -2.508000 0.000000
v -2.828500 -1.886000 0.000000
v -2.531500 -0.178000 0.000000
v -6.181500 1.046000 6.000000
v -5.720500 4.833000 6.000000
v 0.669500 2.960000 6.000000
v 6.181500 0.336000 6.000000
v 5.605500 -4.833000 6.000000
v -1.373500 -4.228000 6.000000
v -1.369500 -2.508000 6.000000
v -2.828500 -1.886000 6.000000
v -2.531500 -0.178000 6.000000
vn 0.000000 0.000000 -1.000000
vn 0.000000 0.000000 -1.000000
vn 0.000000 0.000000 -1.000000
vn 0.000000 0.000000 -1.000000
vn 0.000000 0.000000 -1.000000
vn 0.000000 0.000000 -1.000000
vn 0.000000 0.000000 -1.000000
vn 0.000000 0.000000 1.000000
vn 0.000000 -0.000000 1.000000
vn 0.000000 0.000000 1.000000
vn -0.000000 0.000000 1.000000
vn 0.000000 0.000000 1.000000
vn 0.000000 0.000000 1.000000
vn 0.000000 0.000000 1.000000
vn -0.992672 0.120840 0.000000
vn -0.992672 0.120840 0.000000
vn 0.281280 0.959626 0.000000
vn 0.281280 0.959626 -0.000000
vn 0.429832 0.902909 0.000000
vn 0.429832 0.902909 -0.000000
vn 0.993849 -0.110748 0.000000
vn 0.993849 -0.110748 0.000000
vn -0.086365 -0.996264 0.000000
vn -0.086365 -0.996264 0.000000
vn -0.999997 0.002326 0.000000
vn -0.999997 0.002326 0.000000
vn -0.392168 -0.919893 0.000000
vn -0.392168 -0.919893 0.000000
vn -0.985216 0.171317 0.000000
vn -0.985216 0.171317 0.000000
vn -0.317942 -0.948110 0.000000
vn -0.317942 -0.948110 0.000000
usemtl assumed_base
f 9//1 1//1 2//1
f 9//2 2//2 3//2
f 9//3 3//3 4//3
f 9//4 4//4 5//4
f 5//5 6//5 7//5
f 9//6 5//6 7//6
f 7//7 8//7 9//7
usemtl assumed_roof
f 18//8 11//8 10//8
f 18//9 12//9 11//9
f 18//10 13//10 12//10
f 18//11 14//11 13//11
f 14//12 16//12 15//12
f 18//13 16//13 14//13
f 16//14 18//14 17//14
usemtl assumed_wall
f 1//15 11//15 2//15
f 1//16 10//16 11//16
f 2//17 12//17 3//17
f 2//18 11//18 12//18
f 3//19 13//19 4//19
f 3//20 12//20 13//20
f 4//21 14//21 5//21
f 4//22 13//22 14//22
f 5//23 15//23 6//23
f 5//24 14//24 15//24
f 6//25 16//25 7//25
f 6//26 15//26 16//26
f 7//27 17//27 8//27
f 7//28 16//28 17//28
f 8//29 18//29 9//29
f 8//30 17//30 18//30
f 9//31 10//31 1//31
f 9//32 18//32 10//32
