# construction_1502_assumed_A_Casa
# source A_Casa
# h_campo 0.000000
# modeled_height 6.000000
# height_kind assumed
# local_origin_world_x 172001.034850
# local_origin_world_y 402500.144600
mtllib construction_artifacts.mtl

o construction_1502_assumed_A_Casa
v -0.153000 4.816500 0.000000
v 0.090000 4.084500 0.000000
v 2.816000 4.964500 0.000000
v 0.704000 10.252500 0.000000
v 6.044000 11.999500 0.000000
v 12.672000 -3.814500 0.000000
v 8.388000 -8.009500 0.000000
v 7.064000 -4.652500 0.000000
v 3.756000 -5.331500 0.000000
v 4.506000 -6.946500 0.000000
v -8.153000 -11.999500 0.000000
v -12.672000 -0.450500 0.000000
v -0.153000 4.816500 6.000000
v 0.090000 4.084500 6.000000
v 2.816000 4.964500 6.000000
v 0.704000 10.252500 6.000000
v 6.044000 11.999500 6.000000
v 12.672000 -3.814500 6.000000
v 8.388000 -8.009500 6.000000
v 7.064000 -4.652500 6.000000
v 3.756000 -5.331500 6.000000
v 4.506000 -6.946500 6.000000
v -8.153000 -11.999500 6.000000
v -12.672000 -0.450500 6.000000
vn 0.000000 0.000000 -1.000000
vn 0.000000 0.000000 -1.000000
vn 0.000000 0.000000 -1.000000
vn 0.000000 0.000000 -1.000000
vn 0.000000 0.000000 -1.000000
vn 0.000000 0.000000 -1.000000
vn 0.000000 0.000000 -1.000000
vn 0.000000 0.000000 -1.000000
vn 0.000000 0.000000 -1.000000
vn -0.000000 0.000000 -1.000000
vn 0.000000 0.000000 1.000000
vn 0.000000 0.000000 1.000000
vn 0.000000 -0.000000 1.000000
vn -0.000000 0.000000 1.000000
vn -0.000000 0.000000 1.000000
vn 0.000000 0.000000 1.000000
vn 0.000000 0.000000 1.000000
vn 0.000000 0.000000 1.000000
vn 0.000000 0.000000 1.000000
vn 0.000000 0.000000 1.000000
vn 0.949072 0.315061 0.000000
vn 0.949072 0.315061 -0.000000
vn -0.307207 0.951643 0.000000
vn -0.307207 0.951643 0.000000
vn -0.928670 -0.370906 0.000000
vn -0.928670 -0.370906 0.000000
vn -0.310937 0.950431 0.000000
vn -0.310937 0.950431 0.000000
vn 0.922271 0.386544 0.000000
vn 0.922271 0.386544 -0.000000
vn 0.699646 -0.714490 0.000000
vn 0.699646 -0.714490 0.000000
vn -0.930262 -0.366895 0.000000
vn -0.930262 -0.366895 0.000000
vn 0.201068 -0.979577 0.000000
vn 0.201068 -0.979577 0.000000
vn 0.906971 0.421194 0.000000
vn 0.906971 0.421194 -0.000000
vn 0.370720 -0.928745 0.000000
vn 0.370720 -0.928745 0.000000
vn -0.931248 -0.364387 0.000000
vn -0.931248 -0.364387 0.000000
vn -0.387797 0.921745 0.000000
vn -0.387797 0.921745 0.000000
usemtl assumed_base
f 12//1 1//1 2//1
f 12//2 2//2 3//2
f 3//3 4//3 5//3
f 3//4 5//4 6//4
f 12//5 3//5 6//5
f 6//6 7//6 8//6
f 12//7 6//7 8//7
f 12//8 8//8 9//8
f 12//9 9//9 10//9
f 10//10 11//10 12//10
usemtl assumed_roof
f 24//11 14//11 13//11
f 24//12 15//12 14//12
f 15//13 17//13 16//13
f 15//14 18//14 17//14
f 24//15 18//15 15//15
f 18//16 20//16 19//16
f 24//17 20//17 18//17
f 24//18 21//18 20//18
f 24//19 22//19 21//19
f 22//20 24//20 23//20
usemtl assumed_wall
f 1//21 14//21 2//21
f 1//22 13//22 14//22
f 2//23 15//23 3//23
f 2//24 14//24 15//24
f 3//25 16//25 4//25
f 3//26 15//26 16//26
f 4//27 17//27 5//27
f 4//28 16//28 17//28
f 5//29 18//29 6//29
f 5//30 17//30 18//30
f 6//31 19//31 7//31
f 6//32 18//32 19//32
f 7//33 20//33 8//33
f 7//34 19//34 20//34
f 8//35 21//35 9//35
f 8//36 20//36 21//36
f 9//37 22//37 10//37
f 9//38 21//38 22//38
f 10//39 23//39 11//39
f 10//40 22//40 23//40
f 11//41 24//41 12//41
f 11//42 23//42 24//42
f 12//43 13//43 1//43
f 12//44 24//44 13//44
