# construction_7124_assumed_A_Casa
# source A_Casa
# h_campo 0.000000
# modeled_height 6.000000
# height_kind assumed
# local_origin_world_x 172001.034850
# local_origin_world_y 402500.144600
mtllib construction_artifacts.mtl

o construction_7124_assumed_A_Casa
v 6.765500 18.429000 0.000000
v 10.858500 13.434000 0.000000
v 12.983500 10.199000 0.000000
v 17.694500 14.139000 0.000000
v 21.916500 9.369000 0.000000
v 23.446500 10.903000 0.000000
v 29.744500 3.967000 0.000000
v 23.628500 -1.649000 0.000000
v 31.657500 -11.974000 0.000000
v 25.147500 -17.573000 0.000000
v 27.125500 -21.651000 0.000000
v 22.611500 -25.523000 0.000000
v 13.501500 -15.036000 0.000000
v 17.995500 -11.866000 0.000000
v 11.321500 -4.546000 0.000000
v 7.128500 -8.575000 0.000000
v -2.250500 -1.825000 0.000000
v -3.681500 -3.360000 0.000000
v -5.123500 -2.646000 0.000000
v -5.725500 -4.032000 0.000000
v -7.739500 -2.766000 0.000000
v -9.078500 -5.074000 0.000000
v -1.241500 -9.353000 0.000000
v -1.532500 -10.700000 0.000000
v -4.524500 -12.236000 0.000000
v 2.785500 -24.593000 0.000000
v -0.323500 -26.677000 0.000000
v -6.591500 -17.716000 0.000000
v -11.798500 -20.247000 0.000000
v -16.199500 -13.353000 0.000000
v -19.754500 -6.129000 0.000000
v -13.588500 -3.085000 0.000000
v -15.886500 -2.195000 0.000000
v -14.457500 0.745000 0.000000
v -19.089500 3.439000 0.000000
v -16.602500 6.863000 0.000000
v -9.952500 3.506000 0.000000
v -8.158500 6.430000 0.000000
v -10.137500 12.111000 0.000000
v -15.533500 10.495000 0.000000
v -15.228500 10.028000 0.000000
v -23.859500 6.287000 0.000000
v -28.268500 10.412000 0.000000
v -31.657500 17.340000 0.000000
v -13.769500 23.862000 0.000000
v -12.760500 20.016000 0.000000
v -9.519500 20.975000 0.000000
v -10.091500 23.383000 0.000000
v -0.042500 26.677000 0.000000
v 3.420500 16.670000 0.000000
v 6.765500 18.429000 6.000000
v 10.858500 13.434000 6.000000
v 12.983500 10.199000 6.000000
v 17.694500 14.139000 6.000000
v 21.916500 9.369000 6.000000
v 23.446500 10.903000 6.000000
v 29.744500 3.967000 6.000000
v 23.628500 -1.649000 6.000000
v 31.657500 -11.974000 6.000000
v 25.147500 -17.573000 6.000000
v 27.125500 -21.651000 6.000000
v 22.611500 -25.523000 6.000000
v 13.501500 -15.036000 6.000000
v 17.995500 -11.866000 6.000000
v 11.321500 -4.546000 6.000000
v 7.128500 -8.575000 6.000000
v -2.250500 -1.825000 6.000000
v -3.681500 -3.360000 6.000000
v -5.123500 -2.646000 6.000000
v -5.725500 -4.032000 6.000000
v -7.739500 -2.766000 6.000000
v -9.078500 -5.074000 6.000000
v -1.241500 -9.353000 6.000000
v -1.532500 -10.700000 6.000000
v -4.524500 -12.236000 6.000000
v 2.785500 -24.593000 6.000000
v -0.323500 -26.677000 6.000000
v -6.591500 -17.716000 6.000000
v -11.798500 -20.247000 6.000000
v -16.199500 -13.353000 6.000000
v -19.754500 -6.129000 6.000000
v -13.588500 -3.085000 6.000000
v -15.886500 -2.195000 6.000000
v -14.457500 0.745000 6.000000
v -19.089500 3.439000 6.000000
v -16.602500 6.863000 6.000000
v -9.952500 3.506000 6.000000
v -8.158500 6.430000 6.000000
v -10.137500 12.111000 6.000000
v -15.533500 10.495000 6.000000
v -15.228500 10.028000 6.000000
v -23.859500 6.287000 6.000000
v -28.268500 10.412000 6.000000
v -31.657500 17.340000 6.000000
v -13.769500 23.862000 6.000000
v -12.760500 20.016000 6.000000
v -9.519500 20.975000 6.000000
v -10.091500 23.383000 6.000000
v -0.042500 26.677000 6.000000
v 3.420500 16.670000 6.000000
vn 0.000000 0.000000 -1.000000
vn 0.000000 0.000000 -1.000000
vn 0.000000 0.000000 -1.000000
vn 0.000000 0.000000 -1.000000
vn 0.000000 0.000000 -1.000000
vn 0.000000 0.000000 -1.000000
vn 0.000000 0.000000 -1.000000
vn 0.000000 0.000000 -1.000000
vn 0.000000 0.000000 -1.000000
vn 0.000000 0.000000 -1.000000
vn -0.000000 0.000000 -1.000000
vn 0.000000 0.000000 -1.000000
vn 0.000000 0.000000 -1.000000
vn 0.000000 0.000000 -1.000000
vn 0.000000 0.000000 -1.000000
vn 0.000000 -0.000000 -1.000000
vn 0.000000 0.000000 -1.000000
vn 0.000000 0.000000 -1.000000
vn 0.000000 0.000000 -1.000000
vn 0.000000 0.000000 -1.000000
vn 0.000000 0.000000 -1.000000
vn 0.000000 0.000000 -1.000000
vn 0.000000 0.000000 -1.000000
vn 0.000000 0.000000 -1.000000
vn 0.000000 0.000000 -1.000000
vn 0.000000 0.000000 -1.000000
vn 0.000000 -0.000000 -1.000000
vn 0.000000 0.000000 -1.000000
vn 0.000000 0.000000 -1.000000
vn 0.000000 0.000000 -1.000000
vn 0.000000 0.000000 -1.000000
vn 0.000000 0.000000 -1.000000
vn 0.000000 0.000000 -1.000000
vn 0.000000 0.000000 -1.000000
vn 0.000000 0.000000 -1.000000
vn 0.000000 0.000000 -1.000000
vn 0.000000 0.000000 -1.000000
vn 0.000000 0.000000 -1.000000
vn 0.000000 0.000000 -1.000000
vn 0.000000 -0.000000 -1.000000
vn 0.000000 0.000000 -1.000000
vn 0.000000 0.000000 -1.000000
vn -0.000000 0.000000 -1.000000
vn 0.000000 0.000000 -1.000000
vn 0.000000 0.000000 -1.000000
vn 0.000000 0.000000 -1.000000
vn 0.000000 0.000000 -1.000000
vn 0.000000 0.000000 -1.000000
vn -0.000000 0.000000 1.000000
vn 0.000000 0.000000 1.000000
vn -0.000000 0.000000 1.000000
vn -0.000000 0.000000 1.000000
vn 0.000000 0.000000 1.000000
vn 0.000000 0.000000 1.000000
vn 0.000000 0.000000 1.000000
vn 0.000000 0.000000 1.000000
vn 0.000000 0.000000 1.000000
vn 0.000000 0.000000 1.000000
vn 0.000000 0.000000 1.000000
vn 0.000000 0.000000 1.000000
vn 0.000000 0.000000 1.000000
vn 0.000000 0.000000 1.000000
vn 0.000000 0.000000 1.000000
vn 0.000000 0.000000 1.000000
vn 0.000000 0.000000 1.000000
vn 0.000000 0.000000 1.000000
vn 0.000000 0.000000 1.000000
vn 0.000000 0.000000 1.000000
vn 0.000000 0.000000 1.000000
vn 0.000000 0.000000 1.000000
vn 0.000000 0.000000 1.000000
vn 0.000000 0.000000 1.000000
vn 0.000000 0.000000 1.000000
vn 0.000000 0.000000 1.000000
vn 0.000000 0.000000 1.000000
vn 0.000000 0.000000 1.000000
vn 0.000000 0.000000 1.000000
vn 0.000000 -0.000000 1.000000
vn 0.000000 0.000000 1.000000
vn 0.000000 0.000000 1.000000
vn 0.000000 0.000000 1.000000
vn 0.000000 -0.000000 1.000000
vn 0.000000 -0.000000 1.000000
vn 0.000000 0.000000 1.000000
vn 0.000000 0.000000 1.000000
vn 0.000000 0.000000 1.000000
vn 0.000000 0.000000 1.000000
vn 0.000000 0.000000 1.000000
vn 0.000000 0.000000 1.000000
vn 0.000000 0.000000 1.000000
vn 0.000000 0.000000 1.000000
vn 0.000000 0.000000 1.000000
vn 0.000000 0.000000 1.000000
vn 0.000000 0.000000 1.000000
vn 0.000000 0.000000 1.000000
vn -0.000000 0.000000 1.000000
vn 0.773488 0.633811 0.000000
vn 0.773488 0.633811 -0.000000
vn 0.835807 0.549023 0.000000
vn 0.835807 0.549023 -0.000000
vn -0.641545 0.767086 0.000000
vn -0.641545 0.767086 0.000000
vn 0.748811 0.662784 0.000000
vn 0.748811 0.662784 -0.000000
vn -0.708029 0.706183 0.000000
vn -0.708029 0.706183 0.000000
vn 0.740336 0.672237 0.000000
vn 0.740336 0.672237 -0.000000
vn 0.676357 -0.736574 0.000000
vn 0.676357 -0.736574 0.000000
vn 0.789410 0.613867 0.000000
vn 0.789410 0.613867 -0.000000
vn 0.652066 -0.758162 0.000000
vn 0.652066 -0.758162 0.000000
vn 0.899746 0.436414 0.000000
vn 0.899746 0.436414 -0.000000
vn 0.651068 -0.759019 0.000000
vn 0.651068 -0.759019 0.000000
vn -0.754931 -0.655804 0.000000
vn -0.754931 -0.655804 0.000000
vn -0.576412 0.817159 0.000000
vn -0.576412 0.817159 0.000000
vn -0.738962 -0.673747 0.000000
vn -0.738962 -0.673747 0.000000
vn 0.692865 -0.721068 0.000000
vn 0.692865 -0.721068 0.000000
vn -0.584141 -0.811653 0.000000
vn -0.584141 -0.811653 0.000000
vn 0.731451 -0.681894 0.000000
vn 0.731451 -0.681894 0.000000
vn -0.443730 -0.896161 0.000000
vn -0.443730 -0.896161 0.000000
vn 0.917217 -0.398387 0.000000
vn 0.917217 -0.398387 0.000000
vn -0.532189 -0.846626 0.000000
vn -0.532189 -0.846626 0.000000
vn 0.864973 -0.501819 0.000000
vn 0.864973 -0.501819 0.000000
vn 0.479221 0.877694 0.000000
vn 0.479221 0.877694 -0.000000
vn 0.977451 -0.211164 0.000000
vn 0.977451 -0.211164 0.000000
vn 0.456703 -0.889619 0.000000
vn 0.456703 -0.889619 0.000000
vn 0.860678 0.509149 0.000000
vn 0.860678 0.509149 -0.000000
vn 0.556795 -0.830650 0.000000
vn 0.556795 -0.830650 0.000000
vn -0.819434 -0.573174 0.000000
vn -0.819434 -0.573174 0.000000
vn 0.437167 -0.899380 0.000000
vn 0.437167 -0.899380 0.000000
vn -0.842890 -0.538085 0.000000
vn -0.842890 -0.538085 0.000000
vn -0.897241 -0.441541 0.000000
vn -0.897241 -0.441541 0.000000
vn -0.442671 0.896684 0.000000
vn -0.442671 0.896684 0.000000
vn -0.361153 -0.932506 0.000000
vn -0.361153 -0.932506 0.000000
vn -0.899388 0.437151 0.000000
vn -0.899388 0.437151 0.000000
vn -0.502757 -0.864428 0.000000
vn -0.502757 -0.864428 0.000000
vn -0.809094 0.587680 0.000000
vn -0.809094 0.587680 0.000000
vn 0.450647 0.892702 0.000000
vn 0.450647 0.892702 -0.000000
vn -0.852358 0.522958 0.000000
vn -0.852358 0.522958 0.000000
vn -0.944342 -0.328965 0.000000
vn -0.944342 -0.328965 0.000000
vn 0.286892 -0.957963 0.000000
vn 0.286892 -0.957963 0.000000
vn 0.837254 0.546815 0.000000
vn 0.837254 0.546815 -0.000000
vn 0.397688 -0.917521 0.000000
vn 0.397688 -0.917521 0.000000
vn -0.683197 -0.730234 0.000000
vn -0.683197 -0.730234 0.000000
vn -0.898283 -0.439417 0.000000
vn -0.898283 -0.439417 0.000000
vn -0.342544 0.939502 0.000000
vn -0.342544 0.939502 0.000000
vn 0.967266 0.253763 0.000000
vn 0.967266 0.253763 -0.000000
vn -0.283736 0.958903 0.000000
vn -0.283736 0.958903 0.000000
vn -0.972927 -0.231111 0.000000
vn -0.972927 -0.231111 0.000000
vn -0.311486 0.950251 0.000000
vn -0.311486 0.950251 0.000000
vn 0.945014 0.327029 0.000000
vn 0.945014 0.327029 -0.000000
vn -0.465430 0.885085 0.000000
vn -0.465430 0.885085 0.000000
usemtl assumed_base
f 50//1 1//1 2//1
f 50//2 2//2 3//2
f 3//3 4//3 5//3
f 5//4 6//4 7//4
f 3//5 5//5 7//5
f 3//6 7//6 8//6
f 50//7 3//7 8//7
f 50//8 8//8 9//8
f 50//9 9//9 10//9
f 50//10 10//10 11//10
f 11//11 12//11 13//11
f 11//12 13//12 14//12
f 50//13 11//13 14//13
f 50//14 14//14 15//14
f 50//15 15//15 16//15
f 50//16 16//16 17//16
f 50//17 17//17 18//17
f 50//18 18//18 19//18
f 19//19 20//19 21//19
f 50//20 19//20 21//20
f 50//21 21//21 22//21
f 22//22 23//22 24//22
f 22//23 24//23 25//23
f 22//24 25//24 26//24
f 22//25 26//25 27//25
f 22//26 27//26 28//26
f 22//27 28//27 29//27
f 22//28 29//28 30//28
f 50//29 22//29 30//29
f 30//30 31//30 32//30
f 50//31 30//31 32//31
f 32//32 33//32 34//32
f 34//33 35//33 36//33
f 34//34 36//34 37//34
f 32//35 34//35 37//35
f 50//36 32//36 37//36
f 50//37 37//37 38//37
f 50//38 38//38 39//38
f 50//39 39//39 40//39
f 40//40 41//40 42//40
f 40//41 42//41 43//41
f 50//42 40//42 43//42
f 50//43 43//43 44//43
f 44//44 45//44 46//44
f 50//45 44//45 46//45
f 50//46 46//46 47//46
f 50//47 47//47 48//47
f 48//48 49//48 50//48
usemtl assumed_roof
f 100//49 52//49 51//49
f 100//50 53//50 52//50
f 53//51 55//51 54//51
f 55//52 57//52 56//52
f 53//53 57//53 55//53
f 53//54 58//54 57//54
f 100//55 58//55 53//55
f 100//56 59//56 58//56
f 100//57 60//57 59//57
f 100//58 61//58 60//58
f 61//59 63//59 62//59
f 61//60 64//60 63//60
f 100//61 64//61 61//61
f 100//62 65//62 64//62
f 100//63 66//63 65//63
f 100//64 67//64 66//64
f 100//65 68//65 67//65
f 100//66 69//66 68//66
f 69//67 71//67 70//67
f 100//68 71//68 69//68
f 100//69 72//69 71//69
f 72//70 74//70 73//70
f 72//71 75//71 74//71
f 72//72 76//72 75//72
f 72//73 77//73 76//73
f 72//74 78//74 77//74
f 72//75 79//75 78//75
f 72//76 80//76 79//76
f 100//77 80//77 72//77
f 80//78 82//78 81//78
f 100//79 82//79 80//79
f 82//80 84//80 83//80
f 84//81 86//81 85//81
f 84//82 87//82 86//82
f 82//83 87//83 84//83
f 100//84 87//84 82//84
f 100//85 88//85 87//85
f 100//86 89//86 88//86
f 100//87 90//87 89//87
f 90//88 92//88 91//88
f 90//89 93//89 92//89
f 100//90 93//90 90//90
f 100//91 94//91 93//91
f 94//92 96//92 95//92
f 100//93 96//93 94//93
f 100//94 97//94 96//94
f 100//95 98//95 97//95
f 98//96 100//96 99//96
usemtl assumed_wall
f 1//97 52//97 2//97
f 1//98 51//98 52//98
f 2//99 53//99 3//99
f 2//100 52//100 53//100
f 3//101 54//101 4//101
f 3//102 53//102 54//102
f 4//103 55//103 5//103
f 4//104 54//104 55//104
f 5//105 56//105 6//105
f 5//106 55//106 56//106
f 6//107 57//107 7//107
f 6//108 56//108 57//108
f 7//109 58//109 8//109
f 7//110 57//110 58//110
f 8//111 59//111 9//111
f 8//112 58//112 59//112
f 9//113 60//113 10//113
f 9//114 59//114 60//114
f 10//115 61//115 11//115
f 10//116 60//116 61//116
f 11//117 62//117 12//117
f 11//118 61//118 62//118
f 12//119 63//119 13//119
f 12//120 62//120 63//120
f 13//121 64//121 14//121
f 13//122 63//122 64//122
f 14//123 65//123 15//123
f 14//124 64//124 65//124
f 15//125 66//125 16//125
f 15//126 65//126 66//126
f 16//127 67//127 17//127
f 16//128 66//128 67//128
f 17//129 68//129 18//129
f 17//130 67//130 68//130
f 18//131 69//131 19//131
f 18//132 68//132 69//132
f 19//133 70//133 20//133
f 19//134 69//134 70//134
f 20//135 71//135 21//135
f 20//136 70//136 71//136
f 21//137 72//137 22//137
f 21//138 71//138 72//138
f 22//139 73//139 23//139
f 22//140 72//140 73//140
f 23//141 74//141 24//141
f 23//142 73//142 74//142
f 24//143 75//143 25//143
f 24//144 74//144 75//144
f 25//145 76//145 26//145
f 25//146 75//146 76//146
f 26//147 77//147 27//147
f 26//148 76//148 77//148
f 27//149 78//149 28//149
f 27//150 77//150 78//150
f 28//151 79//151 29//151
f 28//152 78//152 79//152
f 29//153 80//153 30//153
f 29//154 79//154 80//154
f 30//155 81//155 31//155
f 30//156 80//156 81//156
f 31//157 82//157 32//157
f 31//158 81//158 82//158
f 32//159 83//159 33//159
f 32//160 82//160 83//160
f 33//161 84//161 34//161
f 33//162 83//162 84//162
f 34//163 85//163 35//163
f 34//164 84//164 85//164
f 35//165 86//165 36//165
f 35//166 85//166 86//166
f 36//167 87//167 37//167
f 36//168 86//168 87//168
f 37//169 88//169 38//169
f 37//170 87//170 88//170
f 38//171 89//171 39//171
f 38//172 88//172 89//172
f 39//173 90//173 40//173
f 39//174 89//174 90//174
f 40//175 91//175 41//175
f 40//176 90//176 91//176
f 41//177 92//177 42//177
f 41//178 91//178 92//178
f 42//179 93//179 43//179
f 42//180 92//180 93//180
f 43//181 94//181 44//181
f 43//182 93//182 94//182
f 44//183 95//183 45//183
f 44//184 94//184 95//184
f 45//185 96//185 46//185
f 45//186 95//186 96//186
f 46//187 97//187 47//187
f 46//188 96//188 97//188
f 47//189 98//189 48//189
f 47//190 97//190 98//190
f 48//191 99//191 49//191
f 48//192 98//192 99//192
f 49//193 100//193 50//193
f 49//194 99//194 100//194
f 50//195 51//195 1//195
f 50//196 100//196 51//196
