# construction_5570_assumed_A_Casa
# source A_Casa
# h_campo 0.000000
# modeled_height 6.000000
# height_kind assumed
# local_origin_world_x 172001.034850
# local_origin_world_y 402500.144600
mtllib construction_artifacts.mtl

o construction_5570_assumed_A_Casa
v 7.980000 13.941000 0.000000
v 8.871000 12.946000 0.000000
v 21.683000 13.137000 0.000000
v 24.984000 13.129000 0.000000
v 25.730000 -7.067000 0.000000
v 19.913000 -7.361000 0.000000
v 20.071000 -13.444000 0.000000
v 1.810000 -13.941000 0.000000
v 1.503000 -8.137000 0.000000
v -15.102000 -8.651000 0.000000
v -15.600000 -2.633000 0.000000
v -25.074000 2.492000 0.000000
v -25.212000 9.752000 0.000000
v -25.730000 9.749000 0.000000
v -25.706000 12.469000 0.000000
v 7.980000 13.941000 6.000000
v 8.871000 12.946000 6.000000
v 21.683000 13.137000 6.000000
v 24.984000 13.129000 6.000000
v 25.730000 -7.067000 6.000000
v 19.913000 -7.361000 6.000000
v 20.071000 -13.444000 6.000000
v 1.810000 -13.941000 6.000000
v 1.503000 -8.137000 6.000000
v -15.102000 -8.651000 6.000000
v -15.600000 -2.633000 6.000000
v -25.074000 2.492000 6.000000
v -25.212000 9.752000 6.000000
v -25.730000 9.749000 6.000000
v -25.706000 12.469000 6.000000
vn 0.000000 0.000000 -1.000000
vn 0.000000 0.000000 -1.000000
vn 0.000000 0.000000 -1.000000
vn 0.000000 0.000000 -1.000000
vn 0.000000 0.000000 -1.000000
vn 0.000000 0.000000 -1.000000
vn -0.000000 0.000000 -1.000000
vn 0.000000 0.000000 -1.000000
vn -0.000000 0.000000 -1.000000
vn 0.000000 0.000000 -1.000000
vn 0.000000 0.000000 -1.000000
vn 0.000000 0.000000 -1.000000
vn -0.000000 0.000000 -1.000000
vn 0.000000 0.000000 1.000000
vn 0.000000 0.000000 1.000000
vn 0.000000 0.000000 1.000000
vn -0.000000 0.000000 1.000000
vn 0.000000 0.000000 1.000000
vn 0.000000 0.000000 1.000000
vn 0.000000 0.000000 1.000000
vn 0.000000 0.000000 1.000000
vn 0.000000 0.000000 1.000000
vn 0.000000 0.000000 1.000000
vn 0.000000 0.000000 1.000000
vn 0.000000 0.000000 1.000000
vn 0.000000 0.000000 1.000000
vn 0.744967 0.667101 0.000000
vn 0.744967 0.667101 -0.000000
vn -0.014906 0.999889 0.000000
vn -0.014906 0.999889 0.000000
vn 0.002424 0.999997 0.000000
vn 0.002424 0.999997 -0.000000
vn 0.999318 0.036913 0.000000
vn 0.999318 0.036913 -0.000000
vn 0.050477 -0.998725 0.000000
vn 0.050477 -0.998725 0.000000
vn 0.999663 0.025965 0.000000
vn 0.999663 0.025965 -0.000000
vn 0.027206 -0.999630 0.000000
vn 0.027206 -0.999630 0.000000
vn -0.998604 -0.052821 0.000000
vn -0.998604 -0.052821 0.000000
vn 0.030940 -0.999521 0.000000
vn 0.030940 -0.999521 0.000000
vn -0.996594 -0.082470 0.000000
vn -0.996594 -0.082470 0.000000
vn -0.475799 -0.879554 0.000000
vn -0.475799 -0.879554 0.000000
vn -0.999819 -0.019005 0.000000
vn -0.999819 -0.019005 0.000000
vn 0.005791 -0.999983 0.000000
vn 0.005791 -0.999983 0.000000
vn -0.999961 0.008823 0.000000
vn -0.999961 0.008823 0.000000
vn -0.043656 0.999047 0.000000
vn -0.043656 0.999047 0.000000
usemtl assumed_base
f 15//1 1//1 2//1
f 2//2 3//2 4//2
f 15//3 2//3 4//3
f 15//4 4//4 5//4
f 15//5 5//5 6//5
f 15//6 6//6 7//6
f 7//7 8//7 9//7
f 15//8 7//8 9//8
f 9//9 10//9 11//9
f 15//10 9//10 11//10
f 11//11 12//11 13//11
f 15//12 11//12 13//12
f 13//13 14//13 15//13
usemtl assumed_roof
f 30//14 17//14 16//14
f 17//15 19//15 18//15
f 30//16 19//16 17//16
f 30//17 20//17 19//17
f 30//18 21//18 20//18
f 30//19 22//19 21//19
f 22//20 24//20 23//20
f 30//21 24//21 22//21
f 24//22 26//22 25//22
f 30//23 26//23 24//23
f 26//24 28//24 27//24
f 30//25 28//25 26//25
f 28//26 30//26 29//26
usemtl assumed_wall
f 1//27 17//27 2//27
f 1//28 16//28 17//28
f 2//29 18//29 3//29
f 2//30 17//30 18//30
f 3//31 19//31 4//31
f 3//32 18//32 19//32
f 4//33 20//33 5//33
f 4//34 19//34 20//34
f 5//35 21//35 6//35
f 5//36 20//36 21//36
f 6//37 22//37 7//37
f 6//38 21//38 22//38
f 7//39 23//39 8//39
f 7//40 22//40 23//40
f 8//41 24//41 9//41
f 8//42 23//42 24//42
f 9//43 25//43 10//43
f 9//44 24//44 25//44
f 10//45 26//45 11//45
f 10//46 25//46 26//46
f 11//47 27//47 12//47
f 11//48 26//48 27//48
f 12//49 28//49 13//49
f 12//50 27//50 28//50
f 13//51 29//51 14//51
f 13//52 28//52 29//52
f 14//53 30//53 15//53
f 14//54 29//54 30//54
f 15//55 16//55 1//55
f 15//56 30//56 16//56
