# construction_1642_assumed_A_Casa
# source A_Casa
# h_campo 0.000000
# modeled_height 6.000000
# height_kind assumed
# local_origin_world_x 172001.034850
# local_origin_world_y 402500.144600
mtllib construction_artifacts.mtl

o construction_1642_assumed_A_Casa
v -7.655500 -6.470500 0.000000
v -6.697500 -3.637500 0.000000
v -2.786500 8.300500 0.000000
v 7.655500 5.682500 0.000000
v 3.495500 -8.300500 0.000000
v -4.867500 -6.135500 0.000000
v -5.149500 -7.484500 0.000000
v -7.655500 -6.470500 6.000000
v -6.697500 -3.637500 6.000000
v -2.786500 8.300500 6.000000
v 7.655500 5.682500 6.000000
v 3.495500 -8.300500 6.000000
v -4.867500 -6.135500 6.000000
v -5.149500 -7.484500 6.000000
vn 0.000000 0.000000 -1.000000
vn 0.000000 0.000000 -1.000000
vn 0.000000 0.000000 -1.000000
vn 0.000000 -0.000000 -1.000000
vn 0.000000 0.000000 -1.000000
vn 0.000000 0.000000 1.000000
vn 0.000000 -0.000000 1.000000
vn 0.000000 0.000000 1.000000
vn 0.000000 0.000000 1.000000
vn 0.000000 0.000000 1.000000
vn -0.947303 0.320338 0.000000
vn -0.947303 0.320338 0.000000
vn -0.950303 0.311328 0.000000
vn -0.950303 0.311328 0.000000
vn 0.243191 0.969978 0.000000
vn 0.243191 0.969978 -0.000000
vn 0.958482 -0.285152 0.000000
vn 0.958482 -0.285152 0.000000
vn -0.250617 -0.968086 0.000000
vn -0.250617 -0.968086 0.000000
vn 0.978841 -0.204621 0.000000
vn 0.978841 -0.204621 0.000000
vn -0.375087 -0.926990 0.000000
vn -0.375087 -0.926990 0.000000
usemtl assumed_base
f 7//1 1//1 2//1
f 7//2 2//2 3//2
f 3//3 4//3 5//3
f 3//4 5//4 6//4
f 3//5 6//5 7//5
usemtl assumed_roof
f 14//6 9//6 8//6
f 14//7 10//7 9//7
f 10//8 12//8 11//8
f 10//9 13//9 12//9
f 10//10 14//10 13//10
usemtl assumed_wall
f 1//11 9//11 2//11
f 1//12 8//12 9//12
f 2//13 10//13 3//13
f 2//14 9//14 10//14
f 3//15 11//15 4//15
f 3//16 10//16 11//16
f 4//17 12//17 5//17
f 4//18 11//18 12//18
f 5//19 13//19 6//19
f 5//20 12//20 13//20
f 6//21 14//21 7//21
f 6//22 13//22 14//22
f 7//23 8//23 1//23
f 7//24 14//24 8//24
