# construction_6184_assumed_A_Casa
# source A_Casa
# h_campo 0.000000
# modeled_height 6.000000
# height_kind assumed
# local_origin_world_x 172001.034850
# local_origin_world_y 402500.144600
mtllib construction_artifacts.mtl

o construction_6184_assumed_A_Casa
v -13.183000 6.876000 0.000000
v -9.396000 7.007000 0.000000
v -6.867000 6.372000 0.000000
v 0.340000 4.950000 0.000000
v -2.529000 1.279000 0.000000
v 0.440000 0.296000 0.000000
v 2.937000 4.607000 0.000000
v 7.062000 3.985000 0.000000
v 7.693000 3.459000 0.000000
v 9.729000 7.542000 0.000000
v 13.867000 6.135000 0.000000
v 12.863000 2.975000 0.000000
v 14.944000 2.092000 0.000000
v 13.380000 -7.542000 0.000000
v 2.260000 -4.757000 0.000000
v -9.995000 -1.827000 0.000000
v -14.944000 0.309000 0.000000
v -13.183000 6.876000 6.000000
v -9.396000 7.007000 6.000000
v -6.867000 6.372000 6.000000
v 0.340000 4.950000 6.000000
v -2.529000 1.279000 6.000000
v 0.440000 0.296000 6.000000
v 2.937000 4.607000 6.000000
v 7.062000 3.985000 6.000000
v 7.693000 3.459000 6.000000
v 9.729000 7.542000 6.000000
v 13.867000 6.135000 6.000000
v 12.863000 2.975000 6.000000
v 14.944000 2.092000 6.000000
v 13.380000 -7.542000 6.000000
v 2.260000 -4.757000 6.000000
v -9.995000 -1.827000 6.000000
v -14.944000 0.309000 6.000000
vn 0.000000 0.000000 -1.000000
vn 0.000000 0.000000 -1.000000
vn 0.000000 0.000000 -1.000000
vn 0.000000 0.000000 -1.000000
vn 0.000000 0.000000 -1.000000
vn 0.000000 0.000000 -1.000000
vn 0.000000 0.000000 -1.000000
vn 0.000000 0.000000 -1.000000
vn 0.000000 0.000000 -1.000000
vn 0.000000 0.000000 -1.000000
vn 0.000000 0.000000 -1.000000
vn 0.000000 0.000000 -1.000000
vn 0.000000 0.000000 -1.000000
vn 0.000000 0.000000 -1.000000
vn 0.000000 0.000000 -1.000000
vn 0.000000 0.000000 1.000000
vn 0.000000 0.000000 1.000000
vn 0.000000 0.000000 1.000000
vn 0.000000 0.000000 1.000000
vn -0.000000 0.000000 1.000000
vn 0.000000 0.000000 1.000000
vn 0.000000 0.000000 1.000000
vn 0.000000 0.000000 1.000000
vn 0.000000 0.000000 1.000000
vn 0.000000 0.000000 1.000000
vn 0.000000 0.000000 1.000000
vn -0.000000 0.000000 1.000000
vn 0.000000 0.000000 1.000000
vn 0.000000 0.000000 1.000000
vn 0.000000 0.000000 1.000000
vn -0.034571 0.999402 0.000000
vn -0.034571 0.999402 0.000000
vn 0.243528 0.969894 0.000000
vn 0.243528 0.969894 -0.000000
vn 0.193576 0.981085 0.000000
vn 0.193576 0.981085 -0.000000
vn 0.787917 -0.615781 0.000000
vn 0.787917 -0.615781 0.000000
vn 0.314309 0.949321 0.000000
vn 0.314309 0.949321 -0.000000
vn -0.865325 0.501210 0.000000
vn -0.865325 0.501210 0.000000
vn 0.149102 0.988822 0.000000
vn 0.149102 0.988822 -0.000000
vn 0.640304 0.768121 0.000000
vn 0.640304 0.768121 -0.000000
vn -0.894909 0.446249 0.000000
vn -0.894909 0.446249 0.000000
vn 0.321919 0.946767 0.000000
vn 0.321919 0.946767 -0.000000
vn 0.953052 -0.302805 0.000000
vn 0.953052 -0.302805 0.000000
vn 0.390607 0.920558 0.000000
vn 0.390607 0.920558 -0.000000
vn 0.987077 -0.160244 0.000000
vn 0.987077 -0.160244 0.000000
vn -0.242946 -0.970040 0.000000
vn -0.242946 -0.970040 0.000000
vn -0.232532 -0.972589 0.000000
vn -0.232532 -0.972589 0.000000
vn -0.396269 -0.918134 0.000000
vn -0.396269 -0.918134 0.000000
vn -0.965875 0.259008 0.000000
vn -0.965875 0.259008 0.000000
usemtl assumed_base
f 17//1 1//1 2//1
f 17//2 2//2 3//2
f 17//3 3//3 4//3
f 17//4 4//4 5//4
f 17//5 5//5 6//5
f 6//6 7//6 8//6
f 6//7 8//7 9//7
f 9//8 10//8 11//8
f 6//9 9//9 11//9
f 6//10 11//10 12//10
f 6//11 12//11 13//11
f 6//12 13//12 14//12
f 17//13 6//13 14//13
f 17//14 14//14 15//14
f 15//15 16//15 17//15
usemtl assumed_roof
f 34//16 19//16 18//16
f 34//17 20//17 19//17
f 34//18 21//18 20//18
f 34//19 22//19 21//19
f 34//20 23//20 22//20
f 23//21 25//21 24//21
f 23//22 26//22 25//22
f 26//23 28//23 27//23
f 23//24 28//24 26//24
f 23//25 29//25 28//25
f 23//26 30//26 29//26
f 23//27 31//27 30//27
f 34//28 31//28 23//28
f 34//29 32//29 31//29
f 32//30 34//30 33//30
usemtl assumed_wall
f 1//31 19//31 2//31
f 1//32 18//32 19//32
f 2//33 20//33 3//33
f 2//34 19//34 20//34
f 3//35 21//35 4//35
f 3//36 20//36 21//36
f 4//37 22//37 5//37
f 4//38 21//38 22//38
f 5//39 23//39 6//39
f 5//40 22//40 23//40
f 6//41 24//41 7//41
f 6//42 23//42 24//42
f 7//43 25//43 8//43
f 7//44 24//44 25//44
f 8//45 26//45 9//45
f 8//46 25//46 26//46
f 9//47 27//47 10//47
f 9//48 26//48 27//48
f 10//49 28//49 11//49
f 10//50 27//50 28//50
f 11//51 29//51 12//51
f 11//52 28//52 29//52
f 12//53 30//53 13//53
f 12//54 29//54 30//54
f 13//55 31//55 14//55
f 13//56 30//56 31//56
f 14//57 32//57 15//57
f 14//58 31//58 32//58
f 15//59 33//59 16//59
f 15//60 32//60 33//60
f 16//61 34//61 17//61
f 16//62 33//62 34//62
f 17//63 18//63 1//63
f 17//64 34//64 18//64
