# construction_3555_assumed_A_Casa
# source A_Casa
# h_campo 0.000000
# modeled_height 6.000000
# height_kind assumed
# local_origin_world_x 172001.034850
# local_origin_world_y 402500.144600
mtllib construction_artifacts.mtl

o construction_3555_assumed_A_Casa
v -6.569000 0.940000 0.000000
v -7.730000 7.782000 0.000000
v -0.665000 9.145000 0.000000
v 1.844000 7.780000 0.000000
v 3.643000 2.445000 0.000000
v 7.810000 3.049000 0.000000
v 7.753000 3.577000 0.000000
v 14.752000 5.065000 0.000000
v 15.522000 2.190000 0.000000
v 11.039000 1.438000 0.000000
v 11.731000 -1.482000 0.000000
v 5.832000 -2.023000 0.000000
v 6.138000 -3.112000 0.000000
v -5.185000 -5.227000 0.000000
v -4.809000 -7.710000 0.000000
v -13.886000 -9.145000 0.000000
v -15.522000 -0.843000 0.000000
v -6.569000 0.940000 6.000000
v -7.730000 7.782000 6.000000
v -0.665000 9.145000 6.000000
v 1.844000 7.780000 6.000000
v 3.643000 2.445000 6.000000
v 7.810000 3.049000 6.000000
v 7.753000 3.577000 6.000000
v 14.752000 5.065000 6.000000
v 15.522000 2.190000 6.000000
v 11.039000 1.438000 6.000000
v 11.731000 -1.482000 6.000000
v 5.832000 -2.023000 6.000000
v 6.138000 -3.112000 6.000000
v -5.185000 -5.227000 6.000000
v -4.809000 -7.710000 6.000000
v -13.886000 -9.145000 6.000000
v -15.522000 -0.843000 6.000000
vn 0.000000 0.000000 -1.000000
vn 0.000000 0.000000 -1.000000
vn 0.000000 0.000000 -1.000000
vn 0.000000 0.000000 -1.000000
vn 0.000000 0.000000 -1.000000
vn 0.000000 0.000000 -1.000000
vn 0.000000 0.000000 -1.000000
vn 0.000000 0.000000 -1.000000
vn 0.000000 0.000000 -1.000000
vn 0.000000 0.000000 -1.000000
vn 0.000000 0.000000 -1.000000
vn 0.000000 0.000000 -1.000000
vn 0.000000 0.000000 -1.000000
vn 0.000000 0.000000 -1.000000
vn -0.000000 0.000000 -1.000000
vn 0.000000 -0.000000 1.000000
vn 0.000000 0.000000 1.000000
vn 0.000000 0.000000 1.000000
vn 0.000000 0.000000 1.000000
vn 0.000000 0.000000 1.000000
vn 0.000000 -0.000000 1.000000
vn -0.000000 0.000000 1.000000
vn 0.000000 0.000000 1.000000
vn 0.000000 0.000000 1.000000
vn -0.000000 0.000000 1.000000
vn 0.000000 0.000000 1.000000
vn 0.000000 0.000000 1.000000
vn 0.000000 0.000000 1.000000
vn 0.000000 0.000000 1.000000
vn 0.000000 0.000000 1.000000
vn -0.985907 -0.167296 0.000000
vn -0.985907 -0.167296 0.000000
vn -0.189430 0.981894 0.000000
vn -0.189430 0.981894 0.000000
vn 0.477895 0.878417 0.000000
vn 0.477895 0.878417 -0.000000
vn 0.947576 0.319529 0.000000
vn 0.947576 0.319529 -0.000000
vn -0.143449 0.989658 0.000000
vn -0.143449 0.989658 0.000000
vn -0.994223 -0.107331 0.000000
vn -0.994223 -0.107331 0.000000
vn -0.207954 0.978139 0.000000
vn -0.207954 0.978139 0.000000
vn 0.965956 0.258708 0.000000
vn 0.965956 0.258708 -0.000000
vn 0.165433 -0.986221 0.000000
vn 0.165433 -0.986221 0.000000
vn 0.973049 0.230599 0.000000
vn 0.973049 0.230599 -0.000000
vn 0.091327 -0.995821 0.000000
vn 0.091327 -0.995821 0.000000
vn 0.962716 0.270515 0.000000
vn 0.962716 0.270515 -0.000000
vn 0.183612 -0.982999 0.000000
vn 0.183612 -0.982999 0.000000
vn 0.988728 0.149723 0.000000
vn 0.988728 0.149723 -0.000000
vn 0.156153 -0.987733 0.000000
vn 0.156153 -0.987733 0.000000
vn -0.981131 -0.193343 0.000000
vn -0.981131 -0.193343 0.000000
vn -0.195316 0.980740 0.000000
vn -0.195316 0.980740 0.000000
usemtl assumed_base
f 1//1 2//1 3//1
f 1//2 3//2 4//2
f 1//3 4//3 5//3
f 17//4 1//4 5//4
f 17//5 5//5 6//5
f 6//6 7//6 8//6
f 6//7 8//7 9//7
f 17//8 6//8 9//8
f 17//9 9//9 10//9
f 17//10 10//10 11//10
f 17//11 11//11 12//11
f 17//12 12//12 13//12
f 17//13 13//13 14//13
f 17//14 14//14 15//14
f 15//15 16//15 17//15
usemtl assumed_roof
f 18//16 20//16 19//16
f 18//17 21//17 20//17
f 18//18 22//18 21//18
f 34//19 22//19 18//19
f 34//20 23//20 22//20
f 23//21 25//21 24//21
f 23//22 26//22 25//22
f 34//23 26//23 23//23
f 34//24 27//24 26//24
f 34//25 28//25 27//25
f 34//26 29//26 28//26
f 34//27 30//27 29//27
f 34//28 31//28 30//28
f 34//29 32//29 31//29
f 32//30 34//30 33//30
usemtl assumed_wall
f 1//31 19//31 2//31
f 1//32 18//32 19//32
f 2//33 20//33 3//33
f 2//34 19//34 20//34
f 3//35 21//35 4//35
f 3//36 20//36 21//36
f 4//37 22//37 5//37
f 4//38 21//38 22//38
f 5//39 23//39 6//39
f 5//40 22//40 23//40
f 6//41 24//41 7//41
f 6//42 23//42 24//42
f 7//43 25//43 8//43
f 7//44 24//44 25//44
f 8//45 26//45 9//45
f 8//46 25//46 26//46
f 9//47 27//47 10//47
f 9//48 26//48 27//48
f 10//49 28//49 11//49
f 10//50 27//50 28//50
f 11//51 29//51 12//51
f 11//52 28//52 29//52
f 12//53 30//53 13//53
f 12//54 29//54 30//54
f 13//55 31//55 14//55
f 13//56 30//56 31//56
f 14//57 32//57 15//57
f 14//58 31//58 32//58
f 15//59 33//59 16//59
f 15//60 32//60 33//60
f 16//61 34//61 17//61
f 16//62 33//62 34//62
f 17//63 18//63 1//63
f 17//64 34//64 18//64
