# construction_1955_assumed_A_Casa
# source A_Casa
# h_campo 0.000000
# modeled_height 6.000000
# height_kind assumed
# local_origin_world_x 172001.034850
# local_origin_world_y 402500.144600
mtllib construction_artifacts.mtl

o construction_1955_assumed_A_Casa
v -11.834000 -16.402000 0.000000
v -15.927000 -11.407000 0.000000
v -21.241000 -0.767000 0.000000
v 2.614000 15.462000 0.000000
v 9.530000 20.917000 0.000000
v 16.164000 13.724000 0.000000
v 10.560000 8.948000 0.000000
v 13.770000 2.555000 0.000000
v 16.945000 4.104000 0.000000
v 21.241000 -1.904000 0.000000
v 13.480000 -5.807000 0.000000
v 9.483000 -1.094000 0.000000
v 6.373000 7.420000 0.000000
v 4.396000 6.269000 0.000000
v 6.549000 1.235000 0.000000
v 3.799000 0.160000 0.000000
v 8.402000 -9.730000 0.000000
v 12.214000 -12.937000 0.000000
v 6.487000 -20.917000 0.000000
v 2.325000 -17.525000 0.000000
v -8.403000 -3.694000 0.000000
v -10.298000 -5.225000 0.000000
v -5.520000 -12.403000 0.000000
v -11.834000 -16.402000 6.000000
v -15.927000 -11.407000 6.000000
v -21.241000 -0.767000 6.000000
v 2.614000 15.462000 6.000000
v 9.530000 20.917000 6.000000
v 16.164000 13.724000 6.000000
v 10.560000 8.948000 6.000000
v 13.770000 2.555000 6.000000
v 16.945000 4.104000 6.000000
v 21.241000 -1.904000 6.000000
v 13.480000 -5.807000 6.000000
v 9.483000 -1.094000 6.000000
v 6.373000 7.420000 6.000000
v 4.396000 6.269000 6.000000
v 6.549000 1.235000 6.000000
v 3.799000 0.160000 6.000000
v 8.402000 -9.730000 6.000000
v 12.214000 -12.937000 6.000000
v 6.487000 -20.917000 6.000000
v 2.325000 -17.525000 6.000000
v -8.403000 -3.694000 6.000000
v -10.298000 -5.225000 6.000000
v -5.520000 -12.403000 6.000000
vn -0.000000 0.000000 -1.000000
vn 0.000000 0.000000 -1.000000
vn 0.000000 0.000000 -1.000000
vn 0.000000 0.000000 -1.000000
vn 0.000000 0.000000 -1.000000
vn 0.000000 0.000000 -1.000000
vn 0.000000 -0.000000 -1.000000
vn 0.000000 0.000000 -1.000000
vn 0.000000 -0.000000 -1.000000
vn 0.000000 0.000000 -1.000000
vn 0.000000 0.000000 -1.000000
vn 0.000000 0.000000 -1.000000
vn 0.000000 0.000000 -1.000000
vn 0.000000 0.000000 -1.000000
vn 0.000000 -0.000000 -1.000000
vn 0.000000 0.000000 -1.000000
vn 0.000000 -0.000000 -1.000000
vn 0.000000 0.000000 -1.000000
vn 0.000000 0.000000 -1.000000
vn 0.000000 0.000000 -1.000000
vn 0.000000 0.000000 -1.000000
vn 0.000000 0.000000 1.000000
vn 0.000000 0.000000 1.000000
vn -0.000000 0.000000 1.000000
vn 0.000000 0.000000 1.000000
vn 0.000000 0.000000 1.000000
vn -0.000000 0.000000 1.000000
vn 0.000000 0.000000 1.000000
vn 0.000000 0.000000 1.000000
vn 0.000000 0.000000 1.000000
vn 0.000000 0.000000 1.000000
vn 0.000000 0.000000 1.000000
vn 0.000000 0.000000 1.000000
vn 0.000000 0.000000 1.000000
vn 0.000000 0.000000 1.000000
vn 0.000000 0.000000 1.000000
vn 0.000000 0.000000 1.000000
vn 0.000000 0.000000 1.000000
vn 0.000000 0.000000 1.000000
vn -0.000000 0.000000 1.000000
vn 0.000000 0.000000 1.000000
vn 0.000000 0.000000 1.000000
vn -0.773488 -0.633811 0.000000
vn -0.773488 -0.633811 0.000000
vn -0.894629 -0.446810 0.000000
vn -0.894629 -0.446810 0.000000
vn -0.562490 0.826804 0.000000
vn -0.562490 0.826804 0.000000
vn -0.619295 0.785159 0.000000
vn -0.619295 0.785159 0.000000
vn 0.735093 0.677966 0.000000
vn 0.735093 0.677966 -0.000000
vn 0.648641 -0.761094 0.000000
vn 0.648641 -0.761094 0.000000
vn 0.893671 0.448723 0.000000
vn 0.893671 0.448723 -0.000000
vn -0.438474 0.898744 0.000000
vn -0.438474 0.898744 0.000000
vn 0.813441 0.581648 0.000000
vn 0.813441 0.581648 -0.000000
vn 0.449284 -0.893389 0.000000
vn 0.449284 -0.893389 0.000000
vn -0.762662 -0.646798 0.000000
vn -0.762662 -0.646798 0.000000
vn -0.939296 -0.343107 0.000000
vn -0.939296 -0.343107 0.000000
vn 0.503137 -0.864207 0.000000
vn 0.503137 -0.864207 0.000000
vn 0.919438 0.393236 0.000000
vn 0.919438 0.393236 -0.000000
vn 0.364080 -0.931368 0.000000
vn 0.364080 -0.931368 0.000000
vn 0.906616 0.421957 0.000000
vn 0.906616 0.421957 -0.000000
vn 0.643771 0.765218 0.000000
vn 0.643771 0.765218 -0.000000
vn 0.812431 -0.583057 0.000000
vn 0.812431 -0.583057 0.000000
vn -0.631756 -0.775167 0.000000
vn -0.631756 -0.775167 0.000000
vn -0.790167 -0.612892 0.000000
vn -0.790167 -0.612892 0.000000
vn 0.628442 -0.777856 0.000000
vn 0.628442 -0.777856 0.000000
vn 0.832443 0.554111 0.000000
vn 0.832443 0.554111 -0.000000
vn 0.535065 -0.844811 0.000000
vn 0.535065 -0.844811 0.000000
usemtl assumed_base
f 23//1 1//1 2//1
f 23//2 2//2 3//2
f 4//3 5//3 6//3
f 3//4 4//4 6//4
f 3//5 6//5 7//5
f 8//6 9//6 10//6
f 8//7 10//7 11//7
f 7//8 8//8 11//8
f 7//9 11//9 12//9
f 7//10 12//10 13//10
f 3//11 7//11 13//11
f 3//12 13//12 14//12
f 3//13 14//13 15//13
f 3//14 15//14 16//14
f 17//15 18//15 19//15
f 16//16 17//16 19//16
f 16//17 19//17 20//17
f 16//18 20//18 21//18
f 3//19 16//19 21//19
f 3//20 21//20 22//20
f 3//21 22//21 23//21
usemtl assumed_roof
f 46//22 25//22 24//22
f 46//23 26//23 25//23
f 27//24 29//24 28//24
f 26//25 29//25 27//25
f 26//26 30//26 29//26
f 31//27 33//27 32//27
f 31//28 34//28 33//28
f 30//29 34//29 31//29
f 30//30 35//30 34//30
f 30//31 36//31 35//31
f 26//32 36//32 30//32
f 26//33 37//33 36//33
f 26//34 38//34 37//34
f 26//35 39//35 38//35
f 40//36 42//36 41//36
f 39//37 42//37 40//37
f 39//38 43//38 42//38
f 39//39 44//39 43//39
f 26//40 44//40 39//40
f 26//41 45//41 44//41
f 26//42 46//42 45//42
usemtl assumed_wall
f 1//43 25//43 2//43
f 1//44 24//44 25//44
f 2//45 26//45 3//45
f 2//46 25//46 26//46
f 3//47 27//47 4//47
f 3//48 26//48 27//48
f 4//49 28//49 5//49
f 4//50 27//50 28//50
f 5//51 29//51 6//51
f 5//52 28//52 29//52
f 6//53 30//53 7//53
f 6//54 29//54 30//54
f 7//55 31//55 8//55
f 7//56 30//56 31//56
f 8//57 32//57 9//57
f 8//58 31//58 32//58
f 9//59 33//59 10//59
f 9//60 32//60 33//60
f 10//61 34//61 11//61
f 10//62 33//62 34//62
f 11//63 35//63 12//63
f 11//64 34//64 35//64
f 12//65 36//65 13//65
f 12//66 35//66 36//66
f 13//67 37//67 14//67
f 13//68 36//68 37//68
f 14//69 38//69 15//69
f 14//70 37//70 38//70
f 15//71 39//71 16//71
f 15//72 38//72 39//72
f 16//73 40//73 17//73
f 16//74 39//74 40//74
f 17//75 41//75 18//75
f 17//76 40//76 41//76
f 18//77 42//77 19//77
f 18//78 41//78 42//78
f 19//79 43//79 20//79
f 19//80 42//80 43//80
f 20//81 44//81 21//81
f 20//82 43//82 44//82
f 21//83 45//83 22//83
f 21//84 44//84 45//84
f 22//85 46//85 23//85
f 22//86 45//86 46//86
f 23//87 24//87 1//87
f 23//88 46//88 24//88
