# construction_2960_assumed_A_Casa
# source A_Casa
# h_campo 0.000000
# modeled_height 6.000000
# height_kind assumed
# local_origin_world_x 172001.034850
# local_origin_world_y 402500.144600
mtllib construction_artifacts.mtl

o construction_2960_assumed_A_Casa
v -8.068500 -10.099500 0.000000
v -2.905500 11.587500 0.000000
v 8.068500 5.867500 0.000000
v 6.481500 2.208500 0.000000
v 0.769500 4.683500 0.000000
v -1.276500 -2.699500 0.000000
v 0.854500 -3.401500 0.000000
v -0.993500 -11.587500 0.000000
v -8.068500 -10.099500 6.000000
v -2.905500 11.587500 6.000000
v 8.068500 5.867500 6.000000
v 6.481500 2.208500 6.000000
v 0.769500 4.683500 6.000000
v -1.276500 -2.699500 6.000000
v 0.854500 -3.401500 6.000000
v -0.993500 -11.587500 6.000000
vn 0.000000 0.000000 -1.000000
vn 0.000000 0.000000 -1.000000
vn 0.000000 0.000000 -1.000000
vn 0.000000 0.000000 -1.000000
vn 0.000000 0.000000 -1.000000
vn 0.000000 0.000000 -1.000000
vn 0.000000 0.000000 1.000000
vn 0.000000 0.000000 1.000000
vn 0.000000 0.000000 1.000000
vn 0.000000 0.000000 1.000000
vn 0.000000 0.000000 1.000000
vn 0.000000 0.000000 1.000000
vn -0.972812 0.231596 0.000000
vn -0.972812 0.231596 0.000000
vn 0.462212 0.886769 0.000000
vn 0.462212 0.886769 -0.000000
vn 0.917424 -0.397910 0.000000
vn 0.917424 -0.397910 0.000000
vn -0.397580 -0.917567 0.000000
vn -0.397580 -0.917567 0.000000
vn 0.963680 -0.267058 0.000000
vn 0.963680 -0.267058 0.000000
vn 0.312883 0.949792 0.000000
vn 0.312883 0.949792 -0.000000
vn 0.975453 -0.220210 0.000000
vn 0.975453 -0.220210 0.000000
vn -0.205815 -0.978591 0.000000
vn -0.205815 -0.978591 0.000000
usemtl assumed_base
f 8//1 1//1 2//1
f 2//2 3//2 4//2
f 2//3 4//3 5//3
f 2//4 5//4 6//4
f 8//5 2//5 6//5
f 6//6 7//6 8//6
usemtl assumed_roof
f 16//7 10//7 9//7
f 10//8 12//8 11//8
f 10//9 13//9 12//9
f 10//10 14//10 13//10
f 16//11 14//11 10//11
f 14//12 16//12 15//12
usemtl assumed_wall
f 1//13 10//13 2//13
f 1//14 9//14 10//14
f 2//15 11//15 3//15
f 2//16 10//16 11//16
f 3//17 12//17 4//17
f 3//18 11//18 12//18
f 4//19 13//19 5//19
f 4//20 12//20 13//20
f 5//21 14//21 6//21
f 5//22 13//22 14//22
f 6//23 15//23 7//23
f 6//24 14//24 15//24
f 7//25 16//25 8//25
f 7//26 15//26 16//26
f 8//27 9//27 1//27
f 8//28 16//28 9//28
