# construction_3437_assumed_A_Casa
# source A_Casa
# h_campo 0.000000
# modeled_height 6.000000
# height_kind assumed
# local_origin_world_x 172001.034850
# local_origin_world_y 402500.144600
mtllib construction_artifacts.mtl

o construction_3437_assumed_A_Casa
v -11.559500 -0.346500 0.000000
v 0.758500 10.878500 0.000000
v 5.872500 6.063500 0.000000
v 4.812500 5.250500 0.000000
v 5.752500 4.304500 0.000000
v 4.995500 3.594500 0.000000
v 5.744500 2.698500 0.000000
v 7.573500 4.121500 0.000000
v 11.559500 0.328500 0.000000
v 0.441500 -10.878500 0.000000
v -3.696500 -6.617500 0.000000
v -4.641500 -7.632500 0.000000
v -11.559500 -0.346500 6.000000
v 0.758500 10.878500 6.000000
v 5.872500 6.063500 6.000000
v 4.812500 5.250500 6.000000
v 5.752500 4.304500 6.000000
v 4.995500 3.594500 6.000000
v 5.744500 2.698500 6.000000
v 7.573500 4.121500 6.000000
v 11.559500 0.328500 6.000000
v 0.441500 -10.878500 6.000000
v -3.696500 -6.617500 6.000000
v -4.641500 -7.632500 6.000000
vn 0.000000 0.000000 -1.000000
vn 0.000000 0.000000 -1.000000
vn 0.000000 0.000000 -1.000000
vn 0.000000 0.000000 -1.000000
vn 0.000000 0.000000 -1.000000
vn 0.000000 0.000000 -1.000000
vn 0.000000 -0.000000 -1.000000
vn 0.000000 -0.000000 -1.000000
vn 0.000000 0.000000 -1.000000
vn 0.000000 0.000000 -1.000000
vn 0.000000 -0.000000 1.000000
vn 0.000000 0.000000 1.000000
vn 0.000000 0.000000 1.000000
vn 0.000000 0.000000 1.000000
vn 0.000000 0.000000 1.000000
vn -0.000000 0.000000 1.000000
vn 0.000000 0.000000 1.000000
vn 0.000000 0.000000 1.000000
vn 0.000000 0.000000 1.000000
vn 0.000000 0.000000 1.000000
vn -0.673553 0.739139 0.000000
vn -0.673553 0.739139 0.000000
vn 0.685502 0.728070 0.000000
vn 0.685502 0.728070 -0.000000
vn 0.608589 -0.793486 0.000000
vn 0.608589 -0.793486 0.000000
vn 0.709353 0.704854 0.000000
vn 0.709353 0.704854 -0.000000
vn 0.684101 -0.729387 0.000000
vn 0.684101 -0.729387 0.000000
vn 0.767238 0.641363 0.000000
vn 0.767238 0.641363 -0.000000
vn -0.614060 0.789259 0.000000
vn -0.614060 0.789259 0.000000
vn 0.689351 0.724427 0.000000
vn 0.689351 0.724427 -0.000000
vn 0.709920 -0.704282 0.000000
vn 0.709920 -0.704282 0.000000
vn -0.717385 -0.696677 0.000000
vn -0.717385 -0.696677 0.000000
vn 0.731894 -0.681419 0.000000
vn 0.731894 -0.681419 0.000000
vn -0.725183 -0.688556 0.000000
vn -0.725183 -0.688556 0.000000
usemtl assumed_base
f 12//1 1//1 2//1
f 2//2 3//2 4//2
f 12//3 2//3 4//3
f 4//4 5//4 6//4
f 12//5 4//5 6//5
f 7//6 8//6 9//6
f 7//7 9//7 10//7
f 6//8 7//8 10//8
f 6//9 10//9 11//9
f 6//10 11//10 12//10
usemtl assumed_roof
f 24//11 14//11 13//11
f 14//12 16//12 15//12
f 24//13 16//13 14//13
f 16//14 18//14 17//14
f 24//15 18//15 16//15
f 19//16 21//16 20//16
f 19//17 22//17 21//17
f 18//18 22//18 19//18
f 18//19 23//19 22//19
f 18//20 24//20 23//20
usemtl assumed_wall
f 1//21 14//21 2//21
f 1//22 13//22 14//22
f 2//23 15//23 3//23
f 2//24 14//24 15//24
f 3//25 16//25 4//25
f 3//26 15//26 16//26
f 4//27 17//27 5//27
f 4//28 16//28 17//28
f 5//29 18//29 6//29
f 5//30 17//30 18//30
f 6//31 19//31 7//31
f 6//32 18//32 19//32
f 7//33 20//33 8//33
f 7//34 19//34 20//34
f 8//35 21//35 9//35
f 8//36 20//36 21//36
f 9//37 22//37 10//37
f 9//38 21//38 22//38
f 10//39 23//39 11//39
f 10//40 22//40 23//40
f 11//41 24//41 12//41
f 11//42 23//42 24//42
f 12//43 13//43 1//43
f 12//44 24//44 13//44
