# construction_7086_assumed_A_Casa
# source A_Casa
# h_campo 0.000000
# modeled_height 6.000000
# height_kind assumed
# local_origin_world_x 172001.034850
# local_origin_world_y 402500.144600
mtllib construction_artifacts.mtl

o construction_7086_assumed_A_Casa
v 14.515500 -4.548000 0.000000
v 14.994500 -9.288000 0.000000
v 3.585500 -16.542000 0.000000
v -14.994500 8.736000 0.000000
v -10.207500 12.478000 0.000000
v -11.202500 14.118000 0.000000
v -8.807500 15.698000 0.000000
v -8.312500 15.258000 0.000000
v -7.253500 15.946000 0.000000
v -6.629500 15.152000 0.000000
v -4.372500 16.542000 0.000000
v -2.716500 14.160000 0.000000
v 0.769500 15.051000 0.000000
v 14.515500 -4.548000 6.000000
v 14.994500 -9.288000 6.000000
v 3.585500 -16.542000 6.000000
v -14.994500 8.736000 6.000000
v -10.207500 12.478000 6.000000
v -11.202500 14.118000 6.000000
v -8.807500 15.698000 6.000000
v -8.312500 15.258000 6.000000
v -7.253500 15.946000 6.000000
v -6.629500 15.152000 6.000000
v -4.372500 16.542000 6.000000
v -2.716500 14.160000 6.000000
v 0.769500 15.051000 6.000000
vn 0.000000 0.000000 -1.000000
vn 0.000000 0.000000 -1.000000
vn 0.000000 -0.000000 -1.000000
vn 0.000000 0.000000 -1.000000
vn 0.000000 0.000000 -1.000000
vn 0.000000 0.000000 -1.000000
vn 0.000000 0.000000 -1.000000
vn 0.000000 0.000000 -1.000000
vn 0.000000 0.000000 -1.000000
vn 0.000000 0.000000 -1.000000
vn 0.000000 0.000000 -1.000000
vn 0.000000 0.000000 1.000000
vn 0.000000 0.000000 1.000000
vn 0.000000 0.000000 1.000000
vn 0.000000 -0.000000 1.000000
vn 0.000000 0.000000 1.000000
vn 0.000000 0.000000 1.000000
vn 0.000000 0.000000 1.000000
vn 0.000000 0.000000 1.000000
vn 0.000000 0.000000 1.000000
vn 0.000000 0.000000 1.000000
vn 0.000000 0.000000 1.000000
vn 0.994933 0.100543 0.000000
vn 0.994933 0.100543 -0.000000
vn 0.536545 -0.843872 0.000000
vn 0.536545 -0.843872 0.000000
vn -0.805754 -0.592250 0.000000
vn -0.805754 -0.592250 0.000000
vn -0.615864 0.787852 0.000000
vn -0.615864 0.787852 0.000000
vn -0.854953 -0.518706 0.000000
vn -0.854953 -0.518706 0.000000
vn -0.550672 0.834722 0.000000
vn -0.550672 0.834722 0.000000
vn 0.664364 0.747409 0.000000
vn 0.664364 0.747409 -0.000000
vn -0.544794 0.838570 0.000000
vn -0.544794 0.838570 0.000000
vn 0.786250 0.617909 0.000000
vn 0.786250 0.617909 -0.000000
vn -0.524392 0.851477 0.000000
vn -0.524392 0.851477 0.000000
vn 0.821074 0.570822 0.000000
vn 0.821074 0.570822 -0.000000
vn -0.247633 0.968854 0.000000
vn -0.247633 0.968854 0.000000
vn 0.818708 0.574211 0.000000
vn 0.818708 0.574211 -0.000000
usemtl assumed_base
f 13//1 1//1 2//1
f 13//2 2//2 3//2
f 13//3 3//3 4//3
f 5//4 6//4 7//4
f 5//5 7//5 8//5
f 5//6 8//6 9//6
f 5//7 9//7 10//7
f 4//8 5//8 10//8
f 4//9 10//9 11//9
f 4//10 11//10 12//10
f 4//11 12//11 13//11
usemtl assumed_roof
f 26//12 15//12 14//12
f 26//13 16//13 15//13
f 26//14 17//14 16//14
f 18//15 20//15 19//15
f 18//16 21//16 20//16
f 18//17 22//17 21//17
f 18//18 23//18 22//18
f 17//19 23//19 18//19
f 17//20 24//20 23//20
f 17//21 25//21 24//21
f 17//22 26//22 25//22
usemtl assumed_wall
f 1//23 15//23 2//23
f 1//24 14//24 15//24
f 2//25 16//25 3//25
f 2//26 15//26 16//26
f 3//27 17//27 4//27
f 3//28 16//28 17//28
f 4//29 18//29 5//29
f 4//30 17//30 18//30
f 5//31 19//31 6//31
f 5//32 18//32 19//32
f 6//33 20//33 7//33
f 6//34 19//34 20//34
f 7//35 21//35 8//35
f 7//36 20//36 21//36
f 8//37 22//37 9//37
f 8//38 21//38 22//38
f 9//39 23//39 10//39
f 9//40 22//40 23//40
f 10//41 24//41 11//41
f 10//42 23//42 24//42
f 11//43 25//43 12//43
f 11//44 24//44 25//44
f 12//45 26//45 13//45
f 12//46 25//46 26//46
f 13//47 14//47 1//47
f 13//48 26//48 14//48
