# construction_5118_assumed_A_Casa
# source A_Casa
# h_campo 0.000000
# modeled_height 6.000000
# height_kind assumed
# local_origin_world_x 172001.034850
# local_origin_world_y 402500.144600
mtllib construction_artifacts.mtl

o construction_5118_assumed_A_Casa
v -14.341500 -0.160500 0.000000
v 13.240500 12.168500 0.000000
v 14.341500 9.636500 0.000000
v -4.485500 2.215500 0.000000
v -3.385500 0.099500 0.000000
v 1.006500 1.625500 0.000000
v 3.508500 -4.375500 0.000000
v 4.894500 -3.810500 0.000000
v 6.028500 -5.764500 0.000000
v -9.269500 -12.168500 0.000000
v -14.341500 -0.160500 6.000000
v 13.240500 12.168500 6.000000
v 14.341500 9.636500 6.000000
v -4.485500 2.215500 6.000000
v -3.385500 0.099500 6.000000
v 1.006500 1.625500 6.000000
v 3.508500 -4.375500 6.000000
v 4.894500 -3.810500 6.000000
v 6.028500 -5.764500 6.000000
v -9.269500 -12.168500 6.000000
vn 0.000000 0.000000 -1.000000
vn 0.000000 0.000000 -1.000000
vn 0.000000 0.000000 -1.000000
vn 0.000000 0.000000 -1.000000
vn 0.000000 0.000000 -1.000000
vn 0.000000 0.000000 -1.000000
vn 0.000000 0.000000 -1.000000
vn 0.000000 -0.000000 -1.000000
vn 0.000000 0.000000 1.000000
vn 0.000000 0.000000 1.000000
vn 0.000000 -0.000000 1.000000
vn 0.000000 0.000000 1.000000
vn 0.000000 0.000000 1.000000
vn 0.000000 0.000000 1.000000
vn 0.000000 0.000000 1.000000
vn 0.000000 0.000000 1.000000
vn -0.408082 0.912945 0.000000
vn -0.408082 0.912945 0.000000
vn 0.917053 0.398766 0.000000
vn 0.917053 0.398766 -0.000000
vn 0.366709 -0.930336 0.000000
vn 0.366709 -0.930336 0.000000
vn 0.887272 0.461247 0.000000
vn 0.887272 0.461247 -0.000000
vn -0.328204 0.944607 0.000000
vn -0.328204 0.944607 0.000000
vn 0.922990 0.384823 0.000000
vn 0.922990 0.384823 -0.000000
vn -0.377488 0.926015 0.000000
vn -0.377488 0.926015 0.000000
vn 0.864901 0.501943 0.000000
vn 0.864901 0.501943 -0.000000
vn 0.386148 -0.922437 0.000000
vn 0.386148 -0.922437 0.000000
vn -0.921196 -0.389099 0.000000
vn -0.921196 -0.389099 0.000000
usemtl assumed_base
f 1//1 2//1 3//1
f 1//2 3//2 4//2
f 10//3 1//3 4//3
f 10//4 4//4 5//4
f 10//5 5//5 6//5
f 10//6 6//6 7//6
f 10//7 7//7 8//7
f 8//8 9//8 10//8
usemtl assumed_roof
f 11//9 13//9 12//9
f 11//10 14//10 13//10
f 20//11 14//11 11//11
f 20//12 15//12 14//12
f 20//13 16//13 15//13
f 20//14 17//14 16//14
f 20//15 18//15 17//15
f 18//16 20//16 19//16
usemtl assumed_wall
f 1//17 12//17 2//17
f 1//18 11//18 12//18
f 2//19 13//19 3//19
f 2//20 12//20 13//20
f 3//21 14//21 4//21
f 3//22 13//22 14//22
f 4//23 15//23 5//23
f 4//24 14//24 15//24
f 5//25 16//25 6//25
f 5//26 15//26 16//26
f 6//27 17//27 7//27
f 6//28 16//28 17//28
f 7//29 18//29 8//29
f 7//30 17//30 18//30
f 8//31 19//31 9//31
f 8//32 18//32 19//32
f 9//33 20//33 10//33
f 9//34 19//34 20//34
f 10//35 11//35 1//35
f 10//36 20//36 11//36
