# construction_3474_assumed_A_Casa
# source A_Casa
# h_campo 0.000000
# modeled_height 6.000000
# height_kind assumed
# local_origin_world_x 172001.034850
# local_origin_world_y 402500.144600
mtllib construction_artifacts.mtl

o construction_3474_assumed_A_Casa
v -6.477500 15.396000 0.000000
v -0.877500 17.235000 0.000000
v 1.069500 10.184000 0.000000
v 4.446500 -1.771000 0.000000
v 6.477500 -16.692000 0.000000
v 1.309500 -17.235000 0.000000
v -0.278500 -16.793000 0.000000
v -2.143500 -10.260000 0.000000
v -5.881500 1.886000 0.000000
v -3.143500 2.979000 0.000000
v -6.477500 15.396000 6.000000
v -0.877500 17.235000 6.000000
v 1.069500 10.184000 6.000000
v 4.446500 -1.771000 6.000000
v 6.477500 -16.692000 6.000000
v 1.309500 -17.235000 6.000000
v -0.278500 -16.793000 6.000000
v -2.143500 -10.260000 6.000000
v -5.881500 1.886000 6.000000
v -3.143500 2.979000 6.000000
vn 0.000000 0.000000 -1.000000
vn 0.000000 0.000000 -1.000000
vn 0.000000 0.000000 -1.000000
vn 0.000000 0.000000 -1.000000
vn 0.000000 0.000000 -1.000000
vn 0.000000 0.000000 -1.000000
vn 0.000000 0.000000 -1.000000
vn 0.000000 0.000000 -1.000000
vn 0.000000 -0.000000 1.000000
vn 0.000000 0.000000 1.000000
vn -0.000000 0.000000 1.000000
vn 0.000000 0.000000 1.000000
vn 0.000000 0.000000 1.000000
vn 0.000000 0.000000 1.000000
vn 0.000000 0.000000 1.000000
vn 0.000000 0.000000 1.000000
vn -0.312000 0.950082 0.000000
vn -0.312000 0.950082 0.000000
vn 0.963926 0.266170 0.000000
vn 0.963926 0.266170 -0.000000
vn 0.962343 0.271839 0.000000
vn 0.962343 0.271839 -0.000000
vn 0.990863 0.134873 0.000000
vn 0.990863 0.134873 -0.000000
vn 0.104494 -0.994525 0.000000
vn 0.104494 -0.994525 0.000000
vn -0.268144 -0.963379 0.000000
vn -0.268144 -0.963379 0.000000
vn -0.961585 -0.274507 0.000000
vn -0.961585 -0.274507 0.000000
vn -0.955762 -0.294141 0.000000
vn -0.955762 -0.294141 0.000000
vn -0.370747 0.928734 0.000000
vn -0.370747 0.928734 0.000000
vn -0.965792 -0.259318 0.000000
vn -0.965792 -0.259318 0.000000
usemtl assumed_base
f 10//1 1//1 2//1
f 10//2 2//2 3//2
f 10//3 3//3 4//3
f 10//4 4//4 5//4
f 10//5 5//5 6//5
f 10//6 6//6 7//6
f 10//7 7//7 8//7
f 8//8 9//8 10//8
usemtl assumed_roof
f 20//9 12//9 11//9
f 20//10 13//10 12//10
f 20//11 14//11 13//11
f 20//12 15//12 14//12
f 20//13 16//13 15//13
f 20//14 17//14 16//14
f 20//15 18//15 17//15
f 18//16 20//16 19//16
usemtl assumed_wall
f 1//17 12//17 2//17
f 1//18 11//18 12//18
f 2//19 13//19 3//19
f 2//20 12//20 13//20
f 3//21 14//21 4//21
f 3//22 13//22 14//22
f 4//23 15//23 5//23
f 4//24 14//24 15//24
f 5//25 16//25 6//25
f 5//26 15//26 16//26
f 6//27 17//27 7//27
f 6//28 16//28 17//28
f 7//29 18//29 8//29
f 7//30 17//30 18//30
f 8//31 19//31 9//31
f 8//32 18//32 19//32
f 9//33 20//33 10//33
f 9//34 19//34 20//34
f 10//35 11//35 1//35
f 10//36 20//36 11//36
