# construction_3456_assumed_A_Casa
# source A_Casa
# h_campo 0.000000
# modeled_height 6.000000
# height_kind assumed
# local_origin_world_x 172001.034850
# local_origin_world_y 402500.144600
mtllib construction_artifacts.mtl

o construction_3456_assumed_A_Casa
v -14.556000 -11.920500 0.000000
v -10.769000 2.754500 0.000000
v -3.141000 0.193500 0.000000
v 0.250000 4.019500 0.000000
v -2.192000 6.420500 0.000000
v 1.073000 10.721500 0.000000
v -0.295000 11.364500 0.000000
v 4.693000 18.329500 0.000000
v 14.556000 11.395500 0.000000
v 9.057000 4.597500 0.000000
v 13.505000 1.497500 0.000000
v 6.555000 -7.725500 0.000000
v 2.581000 -4.553500 0.000000
v 2.537000 -7.074500 0.000000
v -0.619000 -5.786500 0.000000
v -2.626000 -11.151500 0.000000
v -1.148000 -11.794500 0.000000
v -3.030000 -18.329500 0.000000
v -14.144000 -14.662500 0.000000
v -13.169000 -12.199500 0.000000
v -14.556000 -11.920500 6.000000
v -10.769000 2.754500 6.000000
v -3.141000 0.193500 6.000000
v 0.250000 4.019500 6.000000
v -2.192000 6.420500 6.000000
v 1.073000 10.721500 6.000000
v -0.295000 11.364500 6.000000
v 4.693000 18.329500 6.000000
v 14.556000 11.395500 6.000000
v 9.057000 4.597500 6.000000
v 13.505000 1.497500 6.000000
v 6.555000 -7.725500 6.000000
v 2.581000 -4.553500 6.000000
v 2.537000 -7.074500 6.000000
v -0.619000 -5.786500 6.000000
v -2.626000 -11.151500 6.000000
v -1.148000 -11.794500 6.000000
v -3.030000 -18.329500 6.000000
v -14.144000 -14.662500 6.000000
v -13.169000 -12.199500 6.000000
vn 0.000000 0.000000 -1.000000
vn 0.000000 0.000000 -1.000000
vn 0.000000 0.000000 -1.000000
vn 0.000000 0.000000 -1.000000
vn 0.000000 0.000000 -1.000000
vn 0.000000 0.000000 -1.000000
vn 0.000000 0.000000 -1.000000
vn 0.000000 0.000000 -1.000000
vn 0.000000 0.000000 -1.000000
vn 0.000000 0.000000 -1.000000
vn 0.000000 0.000000 -1.000000
vn 0.000000 0.000000 -1.000000
vn 0.000000 0.000000 -1.000000
vn 0.000000 0.000000 -1.000000
vn 0.000000 0.000000 -1.000000
vn 0.000000 0.000000 -1.000000
vn 0.000000 0.000000 -1.000000
vn 0.000000 0.000000 -1.000000
vn 0.000000 -0.000000 1.000000
vn 0.000000 0.000000 1.000000
vn 0.000000 0.000000 1.000000
vn 0.000000 -0.000000 1.000000
vn 0.000000 -0.000000 1.000000
vn 0.000000 0.000000 1.000000
vn 0.000000 0.000000 1.000000
vn 0.000000 0.000000 1.000000
vn 0.000000 0.000000 1.000000
vn 0.000000 0.000000 1.000000
vn 0.000000 0.000000 1.000000
vn 0.000000 0.000000 1.000000
vn 0.000000 0.000000 1.000000
vn 0.000000 0.000000 1.000000
vn 0.000000 0.000000 1.000000
vn 0.000000 0.000000 1.000000
vn -0.000000 0.000000 1.000000
vn 0.000000 0.000000 1.000000
vn -0.968279 0.249872 0.000000
vn -0.968279 0.249872 0.000000
vn 0.318278 0.947998 0.000000
vn 0.318278 0.947998 -0.000000
vn -0.748369 0.663283 0.000000
vn -0.748369 0.663283 0.000000
vn -0.701095 -0.713067 0.000000
vn -0.701095 -0.713067 0.000000
vn -0.796498 0.604642 0.000000
vn -0.796498 0.604642 0.000000
vn -0.425383 -0.905014 0.000000
vn -0.425383 -0.905014 0.000000
vn -0.813015 0.582243 0.000000
vn -0.813015 0.582243 0.000000
vn 0.575126 0.818065 0.000000
vn 0.575126 0.818065 -0.000000
vn 0.777477 -0.628912 0.000000
vn 0.777477 -0.628912 0.000000
vn 0.571778 0.820409 0.000000
vn 0.571778 0.820409 -0.000000
vn 0.798637 -0.601813 0.000000
vn 0.798637 -0.601813 0.000000
vn -0.623831 -0.781559 0.000000
vn -0.623831 -0.781559 0.000000
vn 0.999848 -0.017451 0.000000
vn 0.999848 -0.017451 0.000000
vn -0.377856 -0.925864 0.000000
vn -0.377856 -0.925864 0.000000
vn 0.936609 -0.350377 0.000000
vn 0.936609 -0.350377 0.000000
vn 0.398930 0.916981 0.000000
vn 0.398930 0.916981 -0.000000
vn 0.960945 -0.276740 0.000000
vn 0.960945 -0.276740 0.000000
vn -0.313330 -0.949644 0.000000
vn -0.313330 -0.949644 0.000000
vn -0.929799 0.368069 0.000000
vn -0.929799 0.368069 0.000000
vn -0.197203 -0.980363 0.000000
vn -0.197203 -0.980363 0.000000
usemtl assumed_base
f 20//1 1//1 2//1
f 20//2 2//2 3//2
f 20//3 3//3 4//3
f 4//4 5//4 6//4
f 6//5 7//5 8//5
f 4//6 6//6 8//6
f 4//7 8//7 9//7
f 20//8 4//8 9//8
f 20//9 9//9 10//9
f 20//10 10//10 11//10
f 11//11 12//11 13//11
f 13//12 14//12 15//12
f 11//13 13//13 15//13
f 20//14 11//14 15//14
f 20//15 15//15 16//15
f 20//16 16//16 17//16
f 20//17 17//17 18//17
f 18//18 19//18 20//18
usemtl assumed_roof
f 40//19 22//19 21//19
f 40//20 23//20 22//20
f 40//21 24//21 23//21
f 24//22 26//22 25//22
f 26//23 28//23 27//23
f 24//24 28//24 26//24
f 24//25 29//25 28//25
f 40//26 29//26 24//26
f 40//27 30//27 29//27
f 40//28 31//28 30//28
f 31//29 33//29 32//29
f 33//30 35//30 34//30
f 31//31 35//31 33//31
f 40//32 35//32 31//32
f 40//33 36//33 35//33
f 40//34 37//34 36//34
f 40//35 38//35 37//35
f 38//36 40//36 39//36
usemtl assumed_wall
f 1//37 22//37 2//37
f 1//38 21//38 22//38
f 2//39 23//39 3//39
f 2//40 22//40 23//40
f 3//41 24//41 4//41
f 3//42 23//42 24//42
f 4//43 25//43 5//43
f 4//44 24//44 25//44
f 5//45 26//45 6//45
f 5//46 25//46 26//46
f 6//47 27//47 7//47
f 6//48 26//48 27//48
f 7//49 28//49 8//49
f 7//50 27//50 28//50
f 8//51 29//51 9//51
f 8//52 28//52 29//52
f 9//53 30//53 10//53
f 9//54 29//54 30//54
f 10//55 31//55 11//55
f 10//56 30//56 31//56
f 11//57 32//57 12//57
f 11//58 31//58 32//58
f 12//59 33//59 13//59
f 12//60 32//60 33//60
f 13//61 34//61 14//61
f 13//62 33//62 34//62
f 14//63 35//63 15//63
f 14//64 34//64 35//64
f 15//65 36//65 16//65
f 15//66 35//66 36//66
f 16//67 37//67 17//67
f 16//68 36//68 37//68
f 17//69 38//69 18//69
f 17//70 37//70 38//70
f 18//71 39//71 19//71
f 18//72 38//72 39//72
f 19//73 40//73 20//73
f 19//74 39//74 40//74
f 20//75 21//75 1//75
f 20//76 40//76 21//76
