# construction_1989_assumed_A_Casa
# source A_Casa
# h_campo 0.000000
# modeled_height 6.000000
# height_kind assumed
# local_origin_world_x 172001.034850
# local_origin_world_y 402500.144600
mtllib construction_artifacts.mtl

o construction_1989_assumed_A_Casa
v 26.786000 30.084000 0.000000
v 35.510000 15.791000 0.000000
v 32.350000 13.718000 0.000000
v 30.862000 15.660000 0.000000
v 26.256000 13.563000 0.000000
v 20.057000 24.405000 0.000000
v 11.863000 21.327000 0.000000
v 10.177000 25.444000 0.000000
v 7.066000 24.397000 0.000000
v 10.183000 14.546000 0.000000
v 0.935000 11.378000 0.000000
v 1.297000 9.863000 0.000000
v -6.909000 6.477000 0.000000
v -5.599000 3.902000 0.000000
v -2.760000 5.579000 0.000000
v -0.245000 -0.526000 0.000000
v 7.769000 -9.768000 0.000000
v -0.905000 -18.480000 0.000000
v -8.149000 -8.981000 0.000000
v -5.876000 -6.578000 0.000000
v -7.564000 -4.215000 0.000000
v -9.917000 -5.074000 0.000000
v -8.989000 -7.288000 0.000000
v -12.002000 -8.152000 0.000000
v -6.642000 -17.538000 0.000000
v -14.071000 -21.494000 0.000000
v -17.128000 -16.235000 0.000000
v -18.681000 -17.046000 0.000000
v -12.409000 -26.243000 0.000000
v -24.920000 -36.668000 0.000000
v -27.554000 -37.627000 0.000000
v -35.510000 -28.569000 0.000000
v -29.983000 -23.642000 0.000000
v -26.136000 -21.579000 0.000000
v -29.356000 -14.986000 0.000000
v -15.551000 -8.737000 0.000000
v -16.178000 -7.506000 0.000000
v -12.104000 -5.651000 0.000000
v -15.512000 1.628000 0.000000
v -16.981000 0.789000 0.000000
v -18.463000 3.910000 0.000000
v -16.516000 4.570000 0.000000
v -18.089000 8.561000 0.000000
v -22.349000 7.267000 0.000000
v -24.259000 11.242000 0.000000
v -23.714000 11.640000 0.000000
v -24.090000 13.154000 0.000000
v -14.006000 17.115000 0.000000
v -4.524000 20.791000 0.000000
v -5.741000 24.167000 0.000000
v 4.836000 27.949000 0.000000
v 4.604000 29.085000 0.000000
v 7.616000 30.145000 0.000000
v 5.609000 35.820000 0.000000
v 11.018000 37.627000 0.000000
v 13.109000 33.765000 0.000000
v 16.582000 35.166000 0.000000
v 19.611000 27.828000 0.000000
v 23.570000 30.145000 0.000000
v 24.253000 28.816000 0.000000
v 26.786000 30.084000 6.000000
v 35.510000 15.791000 6.000000
v 32.350000 13.718000 6.000000
v 30.862000 15.660000 6.000000
v 26.256000 13.563000 6.000000
v 20.057000 24.405000 6.000000
v 11.863000 21.327000 6.000000
v 10.177000 25.444000 6.000000
v 7.066000 24.397000 6.000000
v 10.183000 14.546000 6.000000
v 0.935000 11.378000 6.000000
v 1.297000 9.863000 6.000000
v -6.909000 6.477000 6.000000
v -5.599000 3.902000 6.000000
v -2.760000 5.579000 6.000000
v -0.245000 -0.526000 6.000000
v 7.769000 -9.768000 6.000000
v -0.905000 -18.480000 6.000000
v -8.149000 -8.981000 6.000000
v -5.876000 -6.578000 6.000000
v -7.564000 -4.215000 6.000000
v -9.917000 -5.074000 6.000000
v -8.989000 -7.288000 6.000000
v -12.002000 -8.152000 6.000000
v -6.642000 -17.538000 6.000000
v -14.071000 -21.494000 6.000000
v -17.128000 -16.235000 6.000000
v -18.681000 -17.046000 6.000000
v -12.409000 -26.243000 6.000000
v -24.920000 -36.668000 6.000000
v -27.554000 -37.627000 6.000000
v -35.510000 -28.569000 6.000000
v -29.983000 -23.642000 6.000000
v -26.136000 -21.579000 6.000000
v -29.356000 -14.986000 6.000000
v -15.551000 -8.737000 6.000000
v -16.178000 -7.506000 6.000000
v -12.104000 -5.651000 6.000000
v -15.512000 1.628000 6.000000
v -16.981000 0.789000 6.000000
v -18.463000 3.910000 6.000000
v -16.516000 4.570000 6.000000
v -18.089000 8.561000 6.000000
v -22.349000 7.267000 6.000000
v -24.259000 11.242000 6.000000
v -23.714000 11.640000 6.000000
v -24.090000 13.154000 6.000000
v -14.006000 17.115000 6.000000
v -4.524000 20.791000 6.000000
v -5.741000 24.167000 6.000000
v 4.836000 27.949000 6.000000
v 4.604000 29.085000 6.000000
v 7.616000 30.145000 6.000000
v 5.609000 35.820000 6.000000
v 11.018000 37.627000 6.000000
v 13.109000 33.765000 6.000000
v 16.582000 35.166000 6.000000
v 19.611000 27.828000 6.000000
v 23.570000 30.145000 6.000000
v 24.253000 28.816000 6.000000
vn 0.000000 0.000000 -1.000000
vn 0.000000 0.000000 -1.000000
vn 0.000000 0.000000 -1.000000
vn 0.000000 0.000000 -1.000000
vn 0.000000 -0.000000 -1.000000
vn 0.000000 0.000000 -1.000000
vn 0.000000 0.000000 -1.000000
vn 0.000000 -0.000000 -1.000000
vn 0.000000 -0.000000 -1.000000
vn 0.000000 0.000000 -1.000000
vn 0.000000 0.000000 -1.000000
vn 0.000000 0.000000 -1.000000
vn 0.000000 0.000000 -1.000000
vn 0.000000 0.000000 -1.000000
vn 0.000000 0.000000 -1.000000
vn 0.000000 0.000000 -1.000000
vn 0.000000 -0.000000 -1.000000
vn 0.000000 0.000000 -1.000000
vn 0.000000 -0.000000 -1.000000
vn 0.000000 0.000000 -1.000000
vn 0.000000 -0.000000 -1.000000
vn 0.000000 0.000000 -1.000000
vn 0.000000 0.000000 -1.000000
vn 0.000000 -0.000000 -1.000000
vn 0.000000 0.000000 -1.000000
vn 0.000000 0.000000 -1.000000
vn 0.000000 0.000000 -1.000000
vn 0.000000 0.000000 -1.000000
vn 0.000000 0.000000 -1.000000
vn 0.000000 0.000000 -1.000000
vn 0.000000 0.000000 -1.000000
vn -0.000000 0.000000 -1.000000
vn 0.000000 0.000000 -1.000000
vn 0.000000 0.000000 -1.000000
vn 0.000000 0.000000 -1.000000
vn 0.000000 0.000000 -1.000000
vn 0.000000 0.000000 -1.000000
vn 0.000000 0.000000 -1.000000
vn 0.000000 0.000000 -1.000000
vn 0.000000 0.000000 -1.000000
vn 0.000000 0.000000 -1.000000
vn 0.000000 0.000000 -1.000000
vn 0.000000 0.000000 -1.000000
vn 0.000000 0.000000 -1.000000
vn 0.000000 0.000000 -1.000000
vn 0.000000 0.000000 -1.000000
vn 0.000000 0.000000 -1.000000
vn 0.000000 0.000000 -1.000000
vn -0.000000 0.000000 -1.000000
vn 0.000000 0.000000 -1.000000
vn 0.000000 0.000000 -1.000000
vn 0.000000 0.000000 -1.000000
vn 0.000000 0.000000 -1.000000
vn 0.000000 0.000000 -1.000000
vn 0.000000 0.000000 -1.000000
vn 0.000000 0.000000 -1.000000
vn 0.000000 0.000000 -1.000000
vn 0.000000 0.000000 -1.000000
vn -0.000000 0.000000 1.000000
vn 0.000000 0.000000 1.000000
vn 0.000000 0.000000 1.000000
vn 0.000000 0.000000 1.000000
vn 0.000000 0.000000 1.000000
vn 0.000000 0.000000 1.000000
vn 0.000000 0.000000 1.000000
vn 0.000000 0.000000 1.000000
vn 0.000000 0.000000 1.000000
vn 0.000000 0.000000 1.000000
vn -0.000000 0.000000 1.000000
vn 0.000000 0.000000 1.000000
vn 0.000000 0.000000 1.000000
vn 0.000000 0.000000 1.000000
vn 0.000000 0.000000 1.000000
vn 0.000000 0.000000 1.000000
vn 0.000000 0.000000 1.000000
vn 0.000000 0.000000 1.000000
vn 0.000000 0.000000 1.000000
vn 0.000000 0.000000 1.000000
vn 0.000000 0.000000 1.000000
vn 0.000000 0.000000 1.000000
vn 0.000000 0.000000 1.000000
vn 0.000000 0.000000 1.000000
vn 0.000000 0.000000 1.000000
vn 0.000000 0.000000 1.000000
vn 0.000000 0.000000 1.000000
vn 0.000000 0.000000 1.000000
vn 0.000000 0.000000 1.000000
vn 0.000000 0.000000 1.000000
vn 0.000000 0.000000 1.000000
vn 0.000000 0.000000 1.000000
vn 0.000000 0.000000 1.000000
vn 0.000000 0.000000 1.000000
vn 0.000000 0.000000 1.000000
vn 0.000000 0.000000 1.000000
vn 0.000000 0.000000 1.000000
vn 0.000000 -0.000000 1.000000
vn 0.000000 0.000000 1.000000
vn 0.000000 0.000000 1.000000
vn 0.000000 0.000000 1.000000
vn 0.000000 0.000000 1.000000
vn 0.000000 0.000000 1.000000
vn 0.000000 0.000000 1.000000
vn 0.000000 0.000000 1.000000
vn 0.000000 0.000000 1.000000
vn 0.000000 0.000000 1.000000
vn 0.000000 0.000000 1.000000
vn 0.000000 0.000000 1.000000
vn 0.000000 0.000000 1.000000
vn 0.000000 0.000000 1.000000
vn 0.000000 0.000000 1.000000
vn 0.000000 -0.000000 1.000000
vn 0.000000 0.000000 1.000000
vn 0.000000 0.000000 1.000000
vn 0.000000 0.000000 1.000000
vn 0.000000 0.000000 1.000000
vn 0.000000 0.000000 1.000000
vn 0.853564 0.520989 0.000000
vn 0.853564 0.520989 -0.000000
vn 0.548518 -0.836139 0.000000
vn 0.548518 -0.836139 0.000000
vn -0.793777 -0.608208 0.000000
vn -0.793777 -0.608208 0.000000
vn 0.414354 -0.910116 0.000000
vn 0.414354 -0.910116 0.000000
vn -0.868120 -0.496354 0.000000
vn -0.868120 -0.496354 0.000000
vn 0.351649 -0.936132 0.000000
vn 0.351649 -0.936132 0.000000
vn -0.925407 -0.378974 0.000000
vn -0.925407 -0.378974 0.000000
vn 0.318968 -0.947765 0.000000
vn 0.318968 -0.947765 0.000000
vn 0.953411 0.301673 0.000000
vn 0.953411 0.301673 -0.000000
vn 0.324073 -0.946032 0.000000
vn 0.324073 -0.946032 0.000000
vn 0.972620 0.232402 0.000000
vn 0.972620 0.232402 -0.000000
vn 0.381430 -0.924398 0.000000
vn 0.381430 -0.924398 0.000000
vn 0.891290 0.453433 0.000000
vn 0.891290 0.453433 -0.000000
vn -0.508596 0.861005 0.000000
vn -0.508596 0.861005 0.000000
vn 0.924615 0.380902 0.000000
vn 0.924615 0.380902 -0.000000
vn 0.755516 0.655130 0.000000
vn 0.755516 0.655130 -0.000000
vn 0.708651 -0.705560 0.000000
vn 0.708651 -0.705560 0.000000
vn -0.795163 -0.606396 0.000000
vn -0.795163 -0.606396 0.000000
vn -0.726485 0.687183 0.000000
vn -0.726485 0.687183 0.000000
vn -0.813710 -0.581271 0.000000
vn -0.813710 -0.581271 0.000000
vn 0.342929 -0.939361 0.000000
vn 0.342929 -0.939361 0.000000
vn 0.922261 0.386567 0.000000
vn 0.922261 0.386567 -0.000000
vn 0.275648 -0.961259 0.000000
vn 0.275648 -0.961259 0.000000
vn 0.868380 0.495900 0.000000
vn 0.868380 0.495900 -0.000000
vn 0.470021 -0.882655 0.000000
vn 0.470021 -0.882655 0.000000
vn -0.864547 -0.502552 0.000000
vn -0.864547 -0.502552 0.000000
vn 0.462898 -0.886412 0.000000
vn 0.462898 -0.886412 0.000000
vn 0.826172 0.563418 0.000000
vn 0.826172 0.563418 -0.000000
vn 0.640154 -0.768246 0.000000
vn 0.640154 -0.768246 0.000000
vn 0.342115 -0.939658 0.000000
vn 0.342115 -0.939658 0.000000
vn -0.751332 -0.659925 0.000000
vn -0.751332 -0.659925 0.000000
vn -0.665428 0.746462 0.000000
vn -0.665428 0.746462 0.000000
vn -0.472596 0.881279 0.000000
vn -0.472596 0.881279 0.000000
vn -0.898559 -0.438853 0.000000
vn -0.898559 -0.438853 0.000000
vn -0.412380 0.911012 0.000000
vn -0.412380 0.911012 0.000000
vn -0.891073 -0.453861 0.000000
vn -0.891073 -0.453861 0.000000
vn -0.414392 0.910099 0.000000
vn -0.414392 0.910099 0.000000
vn -0.905652 -0.424023 0.000000
vn -0.905652 -0.424023 0.000000
vn 0.495948 -0.868352 0.000000
vn 0.495948 -0.868352 0.000000
vn -0.903331 -0.428945 0.000000
vn -0.903331 -0.428945 0.000000
vn -0.321039 0.947066 0.000000
vn -0.321039 0.947066 0.000000
vn -0.930346 -0.366684 0.000000
vn -0.930346 -0.366684 0.000000
vn 0.290643 -0.956832 0.000000
vn 0.290643 -0.956832 0.000000
vn -0.901346 -0.433100 0.000000
vn -0.901346 -0.433100 0.000000
vn -0.589756 0.807581 0.000000
vn -0.589756 0.807581 0.000000
vn -0.970518 -0.241027 0.000000
vn -0.970518 -0.241027 0.000000
vn -0.365607 0.930769 0.000000
vn -0.365607 0.930769 0.000000
vn -0.361469 0.932384 0.000000
vn -0.361469 0.932384 0.000000
vn -0.940742 -0.339124 0.000000
vn -0.940742 -0.339124 0.000000
vn -0.336692 0.941615 0.000000
vn -0.336692 0.941615 0.000000
vn -0.979776 -0.200095 0.000000
vn -0.979776 -0.200095 0.000000
vn -0.331968 0.943291 0.000000
vn -0.331968 0.943291 0.000000
vn -0.942779 -0.333420 0.000000
vn -0.942779 -0.333420 0.000000
vn -0.316859 0.948473 0.000000
vn -0.316859 0.948473 0.000000
vn 0.879379 0.476122 0.000000
vn 0.879379 0.476122 -0.000000
vn -0.374105 0.927386 0.000000
vn -0.374105 0.927386 0.000000
vn 0.924346 0.381554 0.000000
vn 0.924346 0.381554 -0.000000
vn -0.505104 0.863059 0.000000
vn -0.505104 0.863059 0.000000
vn 0.889420 0.457091 0.000000
vn 0.889420 0.457091 -0.000000
vn -0.447637 0.894215 0.000000
vn -0.447637 0.894215 0.000000
usemtl assumed_base
f 60//1 1//1 2//1
f 60//2 2//2 3//2
f 60//3 3//3 4//3
f 60//4 4//4 5//4
f 60//5 5//5 6//5
f 60//6 6//6 7//6
f 60//7 7//7 8//7
f 9//8 10//8 11//8
f 11//9 12//9 13//9
f 9//10 11//10 13//10
f 14//11 15//11 16//11
f 14//12 16//12 17//12
f 14//13 17//13 18//13
f 13//14 14//14 18//14
f 18//15 19//15 20//15
f 13//16 18//16 20//16
f 13//17 20//17 21//17
f 13//18 21//18 22//18
f 22//19 23//19 24//19
f 13//20 22//20 24//20
f 24//21 25//21 26//21
f 24//22 26//22 27//22
f 24//23 27//23 28//23
f 28//24 29//24 30//24
f 28//25 30//25 31//25
f 28//26 31//26 32//26
f 32//27 33//27 34//27
f 28//28 32//28 34//28
f 24//29 28//29 34//29
f 24//30 34//30 35//30
f 24//31 35//31 36//31
f 24//32 36//32 37//32
f 24//33 37//33 38//33
f 13//34 24//34 38//34
f 13//35 38//35 39//35
f 9//36 13//36 39//36
f 9//37 39//37 40//37
f 40//38 41//38 42//38
f 9//39 40//39 42//39
f 9//40 42//40 43//40
f 9//41 43//41 44//41
f 9//42 44//42 45//42
f 9//43 45//43 46//43
f 9//44 46//44 47//44
f 9//45 47//45 48//45
f 9//46 48//46 49//46
f 8//47 9//47 49//47
f 8//48 49//48 50//48
f 8//49 50//49 51//49
f 8//50 51//50 52//50
f 8//51 52//51 53//51
f 8//52 53//52 54//52
f 8//53 54//53 55//53
f 8//54 55//54 56//54
f 8//55 56//55 57//55
f 8//56 57//56 58//56
f 60//57 8//57 58//57
f 58//58 59//58 60//58
usemtl assumed_roof
f 120//59 62//59 61//59
f 120//60 63//60 62//60
f 120//61 64//61 63//61
f 120//62 65//62 64//62
f 120//63 66//63 65//63
f 120//64 67//64 66//64
f 120//65 68//65 67//65
f 69//66 71//66 70//66
f 71//67 73//67 72//67
f 69//68 73//68 71//68
f 74//69 76//69 75//69
f 74//70 77//70 76//70
f 74//71 78//71 77//71
f 73//72 78//72 74//72
f 78//73 80//73 79//73
f 73//74 80//74 78//74
f 73//75 81//75 80//75
f 73//76 82//76 81//76
f 82//77 84//77 83//77
f 73//78 84//78 82//78
f 84//79 86//79 85//79
f 84//80 87//80 86//80
f 84//81 88//81 87//81
f 88//82 90//82 89//82
f 88//83 91//83 90//83
f 88//84 92//84 91//84
f 92//85 94//85 93//85
f 88//86 94//86 92//86
f 84//87 94//87 88//87
f 84//88 95//88 94//88
f 84//89 96//89 95//89
f 84//90 97//90 96//90
f 84//91 98//91 97//91
f 73//92 98//92 84//92
f 73//93 99//93 98//93
f 69//94 99//94 73//94
f 69//95 100//95 99//95
f 100//96 102//96 101//96
f 69//97 102//97 100//97
f 69//98 103//98 102//98
f 69//99 104//99 103//99
f 69//100 105//100 104//100
f 69//101 106//101 105//101
f 69//102 107//102 106//102
f 69//103 108//103 107//103
f 69//104 109//104 108//104
f 68//105 109//105 69//105
f 68//106 110//106 109//106
f 68//107 111//107 110//107
f 68//108 112//108 111//108
f 68//109 113//109 112//109
f 68//110 114//110 113//110
f 68//111 115//111 114//111
f 68//112 116//112 115//112
f 68//113 117//113 116//113
f 68//114 118//114 117//114
f 120//115 118//115 68//115
f 118//116 120//116 119//116
usemtl assumed_wall
f 1//117 62//117 2//117
f 1//118 61//118 62//118
f 2//119 63//119 3//119
f 2//120 62//120 63//120
f 3//121 64//121 4//121
f 3//122 63//122 64//122
f 4//123 65//123 5//123
f 4//124 64//124 65//124
f 5//125 66//125 6//125
f 5//126 65//126 66//126
f 6//127 67//127 7//127
f 6//128 66//128 67//128
f 7//129 68//129 8//129
f 7//130 67//130 68//130
f 8//131 69//131 9//131
f 8//132 68//132 69//132
f 9//133 70//133 10//133
f 9//134 69//134 70//134
f 10//135 71//135 11//135
f 10//136 70//136 71//136
f 11//137 72//137 12//137
f 11//138 71//138 72//138
f 12//139 73//139 13//139
f 12//140 72//140 73//140
f 13//141 74//141 14//141
f 13//142 73//142 74//142
f 14//143 75//143 15//143
f 14//144 74//144 75//144
f 15//145 76//145 16//145
f 15//146 75//146 76//146
f 16//147 77//147 17//147
f 16//148 76//148 77//148
f 17//149 78//149 18//149
f 17//150 77//150 78//150
f 18//151 79//151 19//151
f 18//152 78//152 79//152
f 19//153 80//153 20//153
f 19//154 79//154 80//154
f 20//155 81//155 21//155
f 20//156 80//156 81//156
f 21//157 82//157 22//157
f 21//158 81//158 82//158
f 22//159 83//159 23//159
f 22//160 82//160 83//160
f 23//161 84//161 24//161
f 23//162 83//162 84//162
f 24//163 85//163 25//163
f 24//164 84//164 85//164
f 25//165 86//165 26//165
f 25//166 85//166 86//166
f 26//167 87//167 27//167
f 26//168 86//168 87//168
f 27//169 88//169 28//169
f 27//170 87//170 88//170
f 28//171 89//171 29//171
f 28//172 88//172 89//172
f 29//173 90//173 30//173
f 29//174 89//174 90//174
f 30//175 91//175 31//175
f 30//176 90//176 91//176
f 31//177 92//177 32//177
f 31//178 91//178 92//178
f 32//179 93//179 33//179
f 32//180 92//180 93//180
f 33//181 94//181 34//181
f 33//182 93//182 94//182
f 34//183 95//183 35//183
f 34//184 94//184 95//184
f 35//185 96//185 36//185
f 35//186 95//186 96//186
f 36//187 97//187 37//187
f 36//188 96//188 97//188
f 37//189 98//189 38//189
f 37//190 97//190 98//190
f 38//191 99//191 39//191
f 38//192 98//192 99//192
f 39//193 100//193 40//193
f 39//194 99//194 100//194
f 40//195 101//195 41//195
f 40//196 100//196 101//196
f 41//197 102//197 42//197
f 41//198 101//198 102//198
f 42//199 103//199 43//199
f 42//200 102//200 103//200
f 43//201 104//201 44//201
f 43//202 103//202 104//202
f 44//203 105//203 45//203
f 44//204 104//204 105//204
f 45//205 106//205 46//205
f 45//206 105//206 106//206
f 46//207 107//207 47//207
f 46//208 106//208 107//208
f 47//209 108//209 48//209
f 47//210 107//210 108//210
f 48//211 109//211 49//211
f 48//212 108//212 109//212
f 49//213 110//213 50//213
f 49//214 109//214 110//214
f 50//215 111//215 51//215
f 50//216 110//216 111//216
f 51//217 112//217 52//217
f 51//218 111//218 112//218
f 52//219 113//219 53//219
f 52//220 112//220 113//220
f 53//221 114//221 54//221
f 53//222 113//222 114//222
f 54//223 115//223 55//223
f 54//224 114//224 115//224
f 55//225 116//225 56//225
f 55//226 115//226 116//226
f 56//227 117//227 57//227
f 56//228 116//228 117//228
f 57//229 118//229 58//229
f 57//230 117//230 118//230
f 58//231 119//231 59//231
f 58//232 118//232 119//232
f 59//233 120//233 60//233
f 59//234 119//234 120//234
f 60//235 61//235 1//235
f 60//236 120//236 61//236
