# construction_3169_assumed_A_Casa
# source A_Casa
# h_campo 0.000000
# modeled_height 6.000000
# height_kind assumed
# local_origin_world_x 172001.034850
# local_origin_world_y 402500.144600
mtllib construction_artifacts.mtl

o construction_3169_assumed_A_Casa
v -1.106000 -7.413500 0.000000
v -1.827000 -5.070500 0.000000
v -4.425000 -5.780500 0.000000
v -4.970000 -3.536500 0.000000
v -20.460000 -9.384500 0.000000
v -21.105000 -5.054500 0.000000
v 20.000000 11.991500 0.000000
v 21.105000 9.716500 0.000000
v 13.465000 7.131500 0.000000
v 14.626000 3.833500 0.000000
v 13.444000 3.433500 0.000000
v 17.041000 -7.722500 0.000000
v 3.406000 -11.991500 0.000000
v 2.158000 -8.219500 0.000000
v 0.356000 -8.656500 0.000000
v -0.200000 -7.091500 0.000000
v -1.106000 -7.413500 6.000000
v -1.827000 -5.070500 6.000000
v -4.425000 -5.780500 6.000000
v -4.970000 -3.536500 6.000000
v -20.460000 -9.384500 6.000000
v -21.105000 -5.054500 6.000000
v 20.000000 11.991500 6.000000
v 21.105000 9.716500 6.000000
v 13.465000 7.131500 6.000000
v 14.626000 3.833500 6.000000
v 13.444000 3.433500 6.000000
v 17.041000 -7.722500 6.000000
v 3.406000 -11.991500 6.000000
v 2.158000 -8.219500 6.000000
v 0.356000 -8.656500 6.000000
v -0.200000 -7.091500 6.000000
vn -0.000000 0.000000 -1.000000
vn -0.000000 0.000000 -1.000000
vn 0.000000 0.000000 -1.000000
vn -0.000000 0.000000 -1.000000
vn 0.000000 -0.000000 -1.000000
vn 0.000000 0.000000 -1.000000
vn 0.000000 0.000000 -1.000000
vn 0.000000 0.000000 -1.000000
vn 0.000000 -0.000000 -1.000000
vn 0.000000 0.000000 -1.000000
vn 0.000000 0.000000 -1.000000
vn 0.000000 0.000000 -1.000000
vn 0.000000 0.000000 -1.000000
vn -0.000000 0.000000 -1.000000
vn 0.000000 0.000000 1.000000
vn 0.000000 0.000000 1.000000
vn 0.000000 0.000000 1.000000
vn 0.000000 -0.000000 1.000000
vn 0.000000 0.000000 1.000000
vn 0.000000 0.000000 1.000000
vn 0.000000 -0.000000 1.000000
vn 0.000000 -0.000000 1.000000
vn 0.000000 0.000000 1.000000
vn 0.000000 0.000000 1.000000
vn -0.000000 0.000000 1.000000
vn 0.000000 0.000000 1.000000
vn 0.000000 0.000000 1.000000
vn 0.000000 0.000000 1.000000
vn -0.955770 -0.294115 0.000000
vn -0.955770 -0.294115 0.000000
vn 0.263620 -0.964627 0.000000
vn 0.263620 -0.964627 0.000000
vn -0.971751 -0.236009 0.000000
vn -0.971751 -0.236009 0.000000
vn 0.353201 -0.935548 0.000000
vn 0.353201 -0.935548 0.000000
vn -0.989087 -0.147335 0.000000
vn -0.989087 -0.147335 0.000000
vn -0.383062 0.923723 0.000000
vn -0.383062 0.923723 0.000000
vn 0.899508 0.436904 0.000000
vn 0.899508 0.436904 -0.000000
vn 0.320502 -0.947248 0.000000
vn 0.320502 -0.947248 0.000000
vn 0.943259 0.332057 0.000000
vn 0.943259 0.332057 -0.000000
vn 0.320552 -0.947231 0.000000
vn 0.320552 -0.947231 0.000000
vn 0.951751 0.306871 0.000000
vn 0.951751 0.306871 -0.000000
vn 0.298789 -0.954319 0.000000
vn 0.298789 -0.954319 0.000000
vn -0.949386 -0.314113 0.000000
vn -0.949386 -0.314113 0.000000
vn 0.235677 -0.971831 0.000000
vn 0.235677 -0.971831 0.000000
vn -0.942299 -0.334772 0.000000
vn -0.942299 -0.334772 0.000000
vn 0.334887 -0.942258 0.000000
vn 0.334887 -0.942258 0.000000
usemtl assumed_base
f 16//1 1//1 2//1
f 2//2 3//2 4//2
f 4//3 5//3 6//3
f 4//4 6//4 7//4
f 7//5 8//5 9//5
f 4//6 7//6 9//6
f 2//7 4//7 9//7
f 16//8 2//8 9//8
f 9//9 10//9 11//9
f 16//10 9//10 11//10
f 16//11 11//11 12//11
f 12//12 13//12 14//12
f 16//13 12//13 14//13
f 14//14 15//14 16//14
usemtl assumed_roof
f 32//15 18//15 17//15
f 18//16 20//16 19//16
f 20//17 22//17 21//17
f 20//18 23//18 22//18
f 23//19 25//19 24//19
f 20//20 25//20 23//20
f 18//21 25//21 20//21
f 32//22 25//22 18//22
f 25//23 27//23 26//23
f 32//24 27//24 25//24
f 32//25 28//25 27//25
f 28//26 30//26 29//26
f 32//27 30//27 28//27
f 30//28 32//28 31//28
usemtl assumed_wall
f 1//29 18//29 2//29
f 1//30 17//30 18//30
f 2//31 19//31 3//31
f 2//32 18//32 19//32
f 3//33 20//33 4//33
f 3//34 19//34 20//34
f 4//35 21//35 5//35
f 4//36 20//36 21//36
f 5//37 22//37 6//37
f 5//38 21//38 22//38
f 6//39 23//39 7//39
f 6//40 22//40 23//40
f 7//41 24//41 8//41
f 7//42 23//42 24//42
f 8//43 25//43 9//43
f 8//44 24//44 25//44
f 9//45 26//45 10//45
f 9//46 25//46 26//46
f 10//47 27//47 11//47
f 10//48 26//48 27//48
f 11//49 28//49 12//49
f 11//50 27//50 28//50
f 12//51 29//51 13//51
f 12//52 28//52 29//52
f 13//53 30//53 14//53
f 13//54 29//54 30//54
f 14//55 31//55 15//55
f 14//56 30//56 31//56
f 15//57 32//57 16//57
f 15//58 31//58 32//58
f 16//59 17//59 1//59
f 16//60 32//60 17//60
