# construction_4112_assumed_A_Casa
# source A_Casa
# h_campo 0.000000
# modeled_height 6.000000
# height_kind assumed
# local_origin_world_x 172001.034850
# local_origin_world_y 402500.144600
mtllib construction_artifacts.mtl

o construction_4112_assumed_A_Casa
v -20.282000 -15.165000 0.000000
v -9.974000 -8.848000 0.000000
v -12.813000 -4.740000 0.000000
v -3.250000 1.478000 0.000000
v -4.270000 3.807000 0.000000
v -5.518000 3.128000 0.000000
v -10.973000 11.780000 0.000000
v -3.978000 16.807000 0.000000
v -2.539000 15.224000 0.000000
v 2.832000 18.545000 0.000000
v 7.451000 11.746000 0.000000
v 6.133000 10.814000 0.000000
v 8.196000 7.560000 0.000000
v -1.915000 1.496000 0.000000
v 1.882000 -3.298000 0.000000
v 13.717000 4.248000 0.000000
v 19.327000 -4.488000 0.000000
v 17.250000 -5.479000 0.000000
v 20.282000 -8.617000 0.000000
v 9.850000 -15.286000 0.000000
v 3.901000 -5.947000 0.000000
v -18.163000 -18.545000 0.000000
v -20.282000 -15.165000 6.000000
v -9.974000 -8.848000 6.000000
v -12.813000 -4.740000 6.000000
v -3.250000 1.478000 6.000000
v -4.270000 3.807000 6.000000
v -5.518000 3.128000 6.000000
v -10.973000 11.780000 6.000000
v -3.978000 16.807000 6.000000
v -2.539000 15.224000 6.000000
v 2.832000 18.545000 6.000000
v 7.451000 11.746000 6.000000
v 6.133000 10.814000 6.000000
v 8.196000 7.560000 6.000000
v -1.915000 1.496000 6.000000
v 1.882000 -3.298000 6.000000
v 13.717000 4.248000 6.000000
v 19.327000 -4.488000 6.000000
v 17.250000 -5.479000 6.000000
v 20.282000 -8.617000 6.000000
v 9.850000 -15.286000 6.000000
v 3.901000 -5.947000 6.000000
v -18.163000 -18.545000 6.000000
vn 0.000000 0.000000 -1.000000
vn 0.000000 0.000000 -1.000000
vn -0.000000 0.000000 -1.000000
vn 0.000000 0.000000 -1.000000
vn 0.000000 0.000000 -1.000000
vn 0.000000 0.000000 -1.000000
vn 0.000000 0.000000 -1.000000
vn 0.000000 0.000000 -1.000000
vn 0.000000 0.000000 -1.000000
vn 0.000000 0.000000 -1.000000
vn 0.000000 0.000000 -1.000000
vn 0.000000 0.000000 -1.000000
vn 0.000000 0.000000 -1.000000
vn 0.000000 0.000000 -1.000000
vn 0.000000 0.000000 -1.000000
vn 0.000000 0.000000 -1.000000
vn 0.000000 -0.000000 -1.000000
vn 0.000000 -0.000000 -1.000000
vn 0.000000 0.000000 -1.000000
vn 0.000000 0.000000 -1.000000
vn 0.000000 -0.000000 1.000000
vn 0.000000 -0.000000 1.000000
vn 0.000000 0.000000 1.000000
vn 0.000000 -0.000000 1.000000
vn 0.000000 0.000000 1.000000
vn 0.000000 -0.000000 1.000000
vn 0.000000 0.000000 1.000000
vn 0.000000 0.000000 1.000000
vn 0.000000 0.000000 1.000000
vn 0.000000 0.000000 1.000000
vn 0.000000 0.000000 1.000000
vn 0.000000 0.000000 1.000000
vn 0.000000 0.000000 1.000000
vn 0.000000 0.000000 1.000000
vn 0.000000 0.000000 1.000000
vn 0.000000 0.000000 1.000000
vn 0.000000 0.000000 1.000000
vn 0.000000 0.000000 1.000000
vn 0.000000 0.000000 1.000000
vn 0.000000 0.000000 1.000000
vn -0.522514 0.852631 0.000000
vn -0.522514 0.852631 0.000000
vn -0.822661 -0.568533 0.000000
vn -0.822661 -0.568533 0.000000
vn -0.545115 0.838361 0.000000
vn -0.545115 0.838361 0.000000
vn -0.916004 -0.401170 0.000000
vn -0.916004 -0.401170 0.000000
vn 0.477915 -0.878406 0.000000
vn 0.477915 -0.878406 0.000000
vn -0.845905 -0.533334 0.000000
vn -0.845905 -0.533334 0.000000
vn -0.583586 0.812051 0.000000
vn -0.583586 0.812051 0.000000
vn 0.739961 0.672650 0.000000
vn 0.739961 0.672650 -0.000000
vn -0.525908 0.850542 0.000000
vn -0.525908 0.850542 0.000000
vn 0.827171 0.561951 0.000000
vn 0.827171 0.561951 -0.000000
vn 0.577364 -0.816487 0.000000
vn 0.577364 -0.816487 0.000000
vn 0.844569 0.535447 0.000000
vn 0.844569 0.535447 -0.000000
vn 0.514334 -0.857590 0.000000
vn 0.514334 -0.857590 0.000000
vn 0.783907 0.620879 0.000000
vn 0.783907 0.620879 -0.000000
vn -0.537617 0.843189 0.000000
vn -0.537617 0.843189 0.000000
vn 0.841441 0.540349 0.000000
vn 0.841441 0.540349 -0.000000
vn 0.430625 -0.902531 0.000000
vn 0.430625 -0.902531 0.000000
vn 0.719149 0.694856 0.000000
vn 0.719149 0.694856 -0.000000
vn 0.538625 -0.842546 0.000000
vn 0.538625 -0.842546 0.000000
vn -0.843416 -0.537261 0.000000
vn -0.843416 -0.537261 0.000000
vn 0.495842 -0.868413 0.000000
vn 0.495842 -0.868413 0.000000
vn -0.847265 -0.531170 0.000000
vn -0.847265 -0.531170 0.000000
usemtl assumed_base
f 22//1 1//1 2//1
f 2//2 3//2 4//2
f 5//3 6//3 7//3
f 5//4 7//4 8//4
f 4//5 5//5 8//5
f 4//6 8//6 9//6
f 4//7 9//7 10//7
f 10//8 11//8 12//8
f 4//9 10//9 12//9
f 4//10 12//10 13//10
f 4//11 13//11 14//11
f 2//12 4//12 14//12
f 2//13 14//13 15//13
f 22//14 2//14 15//14
f 22//15 15//15 16//15
f 16//16 17//16 18//16
f 18//17 19//17 20//17
f 16//18 18//18 20//18
f 16//19 20//19 21//19
f 16//20 21//20 22//20
usemtl assumed_roof
f 44//21 24//21 23//21
f 24//22 26//22 25//22
f 27//23 29//23 28//23
f 27//24 30//24 29//24
f 26//25 30//25 27//25
f 26//26 31//26 30//26
f 26//27 32//27 31//27
f 32//28 34//28 33//28
f 26//29 34//29 32//29
f 26//30 35//30 34//30
f 26//31 36//31 35//31
f 24//32 36//32 26//32
f 24//33 37//33 36//33
f 44//34 37//34 24//34
f 44//35 38//35 37//35
f 38//36 40//36 39//36
f 40//37 42//37 41//37
f 38//38 42//38 40//38
f 38//39 43//39 42//39
f 38//40 44//40 43//40
usemtl assumed_wall
f 1//41 24//41 2//41
f 1//42 23//42 24//42
f 2//43 25//43 3//43
f 2//44 24//44 25//44
f 3//45 26//45 4//45
f 3//46 25//46 26//46
f 4//47 27//47 5//47
f 4//48 26//48 27//48
f 5//49 28//49 6//49
f 5//50 27//50 28//50
f 6//51 29//51 7//51
f 6//52 28//52 29//52
f 7//53 30//53 8//53
f 7//54 29//54 30//54
f 8//55 31//55 9//55
f 8//56 30//56 31//56
f 9//57 32//57 10//57
f 9//58 31//58 32//58
f 10//59 33//59 11//59
f 10//60 32//60 33//60
f 11//61 34//61 12//61
f 11//62 33//62 34//62
f 12//63 35//63 13//63
f 12//64 34//64 35//64
f 13//65 36//65 14//65
f 13//66 35//66 36//66
f 14//67 37//67 15//67
f 14//68 36//68 37//68
f 15//69 38//69 16//69
f 15//70 37//70 38//70
f 16//71 39//71 17//71
f 16//72 38//72 39//72
f 17//73 40//73 18//73
f 17//74 39//74 40//74
f 18//75 41//75 19//75
f 18//76 40//76 41//76
f 19//77 42//77 20//77
f 19//78 41//78 42//78
f 20//79 43//79 21//79
f 20//80 42//80 43//80
f 21//81 44//81 22//81
f 21//82 43//82 44//82
f 22//83 23//83 1//83
f 22//84 44//84 23//84
