# construction_4912_assumed_A_Casa
# source A_Casa
# h_campo 0.000000
# modeled_height 6.000000
# height_kind assumed
# local_origin_world_x 172001.034850
# local_origin_world_y 402500.144600
mtllib construction_artifacts.mtl

o construction_4912_assumed_A_Casa
v -14.664500 -3.509000 0.000000
v -12.728500 -1.324000 0.000000
v -14.201500 -0.016000 0.000000
v -11.238500 4.223000 0.000000
v -6.747500 1.577000 0.000000
v -3.295500 6.679000 0.000000
v -7.875500 9.401000 0.000000
v -3.632500 15.784000 0.000000
v -1.526500 14.428000 0.000000
v -0.683500 15.280000 0.000000
v 2.957500 13.174000 0.000000
v -1.674500 6.156000 0.000000
v 1.020500 3.514000 0.000000
v 5.415500 9.809000 0.000000
v 4.527500 10.399000 0.000000
v 6.568500 14.254000 0.000000
v 4.108500 15.519000 0.000000
v 5.764500 18.234000 0.000000
v 8.250500 17.109000 0.000000
v 9.895500 19.482000 0.000000
v 14.664500 16.799000 0.000000
v -9.259500 -19.482000 0.000000
v -13.129500 -16.934000 0.000000
v -6.671500 -8.578000 0.000000
v -14.664500 -3.509000 6.000000
v -12.728500 -1.324000 6.000000
v -14.201500 -0.016000 6.000000
v -11.238500 4.223000 6.000000
v -6.747500 1.577000 6.000000
v -3.295500 6.679000 6.000000
v -7.875500 9.401000 6.000000
v -3.632500 15.784000 6.000000
v -1.526500 14.428000 6.000000
v -0.683500 15.280000 6.000000
v 2.957500 13.174000 6.000000
v -1.674500 6.156000 6.000000
v 1.020500 3.514000 6.000000
v 5.415500 9.809000 6.000000
v 4.527500 10.399000 6.000000
v 6.568500 14.254000 6.000000
v 4.108500 15.519000 6.000000
v 5.764500 18.234000 6.000000
v 8.250500 17.109000 6.000000
v 9.895500 19.482000 6.000000
v 14.664500 16.799000 6.000000
v -9.259500 -19.482000 6.000000
v -13.129500 -16.934000 6.000000
v -6.671500 -8.578000 6.000000
vn 0.000000 0.000000 -1.000000
vn 0.000000 0.000000 -1.000000
vn 0.000000 0.000000 -1.000000
vn 0.000000 0.000000 -1.000000
vn 0.000000 0.000000 -1.000000
vn 0.000000 0.000000 -1.000000
vn 0.000000 0.000000 -1.000000
vn 0.000000 0.000000 -1.000000
vn 0.000000 0.000000 -1.000000
vn 0.000000 -0.000000 -1.000000
vn 0.000000 0.000000 -1.000000
vn 0.000000 0.000000 -1.000000
vn 0.000000 0.000000 -1.000000
vn 0.000000 0.000000 -1.000000
vn 0.000000 0.000000 -1.000000
vn 0.000000 0.000000 -1.000000
vn 0.000000 0.000000 -1.000000
vn 0.000000 0.000000 -1.000000
vn 0.000000 0.000000 -1.000000
vn 0.000000 0.000000 -1.000000
vn 0.000000 -0.000000 -1.000000
vn 0.000000 0.000000 -1.000000
vn 0.000000 0.000000 1.000000
vn 0.000000 -0.000000 1.000000
vn 0.000000 0.000000 1.000000
vn 0.000000 0.000000 1.000000
vn 0.000000 -0.000000 1.000000
vn 0.000000 0.000000 1.000000
vn 0.000000 -0.000000 1.000000
vn 0.000000 0.000000 1.000000
vn 0.000000 0.000000 1.000000
vn 0.000000 0.000000 1.000000
vn 0.000000 0.000000 1.000000
vn 0.000000 0.000000 1.000000
vn 0.000000 0.000000 1.000000
vn 0.000000 -0.000000 1.000000
vn 0.000000 0.000000 1.000000
vn 0.000000 -0.000000 1.000000
vn 0.000000 0.000000 1.000000
vn 0.000000 0.000000 1.000000
vn 0.000000 0.000000 1.000000
vn 0.000000 0.000000 1.000000
vn -0.000000 0.000000 1.000000
vn 0.000000 -0.000000 1.000000
vn -0.748467 0.663172 0.000000
vn -0.748467 0.663172 0.000000
vn -0.663986 -0.747745 0.000000
vn -0.663986 -0.747745 0.000000
vn -0.819622 0.572904 0.000000
vn -0.819622 0.572904 0.000000
vn 0.507624 0.861579 0.000000
vn 0.507624 0.861579 -0.000000
vn -0.828235 0.560381 0.000000
vn -0.828235 0.560381 0.000000
vn -0.510903 -0.859638 0.000000
vn -0.510903 -0.859638 0.000000
vn -0.832792 0.553586 0.000000
vn -0.832792 0.553586 0.000000
vn 0.541363 0.840789 0.000000
vn 0.541363 0.840789 -0.000000
vn -0.710851 0.703342 0.000000
vn -0.710851 0.703342 0.000000
vn 0.500689 0.865627 0.000000
vn 0.500689 0.865627 -0.000000
vn 0.834603 -0.550852 0.000000
vn 0.834603 -0.550852 0.000000
vn 0.700050 0.714094 0.000000
vn 0.700050 0.714094 -0.000000
vn -0.819935 0.572457 0.000000
vn -0.819935 0.572457 0.000000
vn -0.553401 -0.832915 0.000000
vn -0.553401 -0.832915 0.000000
vn -0.883777 0.467909 0.000000
vn -0.883777 0.467909 0.000000
vn -0.457307 -0.889309 0.000000
vn -0.457307 -0.889309 0.000000
vn -0.853725 0.520725 0.000000
vn -0.853725 0.520725 0.000000
vn 0.412284 0.911055 0.000000
vn 0.412284 0.911055 -0.000000
vn -0.821843 0.569714 0.000000
vn -0.821843 0.569714 0.000000
vn 0.490322 0.871541 0.000000
vn 0.490322 0.871541 -0.000000
vn 0.834836 -0.550498 0.000000
vn 0.834836 -0.550498 0.000000
vn -0.549910 -0.835224 0.000000
vn -0.549910 -0.835224 0.000000
vn -0.791235 0.611512 0.000000
vn -0.791235 0.611512 0.000000
vn -0.535562 -0.844496 0.000000
vn -0.535562 -0.844496 0.000000
usemtl assumed_base
f 24//1 1//1 2//1
f 2//2 3//2 4//2
f 24//3 2//3 4//3
f 24//4 4//4 5//4
f 24//5 5//5 6//5
f 6//6 7//6 8//6
f 6//7 8//7 9//7
f 24//8 6//8 9//8
f 24//9 9//9 10//9
f 10//10 11//10 12//10
f 24//11 10//11 12//11
f 24//12 12//12 13//12
f 24//13 13//13 14//13
f 14//14 15//14 16//14
f 16//15 17//15 18//15
f 16//16 18//16 19//16
f 14//17 16//17 19//17
f 14//18 19//18 20//18
f 14//19 20//19 21//19
f 24//20 14//20 21//20
f 24//21 21//21 22//21
f 22//22 23//22 24//22
usemtl assumed_roof
f 48//23 26//23 25//23
f 26//24 28//24 27//24
f 48//25 28//25 26//25
f 48//26 29//26 28//26
f 48//27 30//27 29//27
f 30//28 32//28 31//28
f 30//29 33//29 32//29
f 48//30 33//30 30//30
f 48//31 34//31 33//31
f 34//32 36//32 35//32
f 48//33 36//33 34//33
f 48//34 37//34 36//34
f 48//35 38//35 37//35
f 38//36 40//36 39//36
f 40//37 42//37 41//37
f 40//38 43//38 42//38
f 38//39 43//39 40//39
f 38//40 44//40 43//40
f 38//41 45//41 44//41
f 48//42 45//42 38//42
f 48//43 46//43 45//43
f 46//44 48//44 47//44
usemtl assumed_wall
f 1//45 26//45 2//45
f 1//46 25//46 26//46
f 2//47 27//47 3//47
f 2//48 26//48 27//48
f 3//49 28//49 4//49
f 3//50 27//50 28//50
f 4//51 29//51 5//51
f 4//52 28//52 29//52
f 5//53 30//53 6//53
f 5//54 29//54 30//54
f 6//55 31//55 7//55
f 6//56 30//56 31//56
f 7//57 32//57 8//57
f 7//58 31//58 32//58
f 8//59 33//59 9//59
f 8//60 32//60 33//60
f 9//61 34//61 10//61
f 9//62 33//62 34//62
f 10//63 35//63 11//63
f 10//64 34//64 35//64
f 11//65 36//65 12//65
f 11//66 35//66 36//66
f 12//67 37//67 13//67
f 12//68 36//68 37//68
f 13//69 38//69 14//69
f 13//70 37//70 38//70
f 14//71 39//71 15//71
f 14//72 38//72 39//72
f 15//73 40//73 16//73
f 15//74 39//74 40//74
f 16//75 41//75 17//75
f 16//76 40//76 41//76
f 17//77 42//77 18//77
f 17//78 41//78 42//78
f 18//79 43//79 19//79
f 18//80 42//80 43//80
f 19//81 44//81 20//81
f 19//82 43//82 44//82
f 20//83 45//83 21//83
f 20//84 44//84 45//84
f 21//85 46//85 22//85
f 21//86 45//86 46//86
f 22//87 47//87 23//87
f 22//88 46//88 47//88
f 23//89 48//89 24//89
f 23//90 47//90 48//90
f 24//91 25//91 1//91
f 24//92 48//92 25//92
