# construction_1706_assumed_A_Casa
# source A_Casa
# h_campo 0.000000
# modeled_height 6.000000
# height_kind assumed
# local_origin_world_x 172001.034850
# local_origin_world_y 402500.144600
mtllib construction_artifacts.mtl

o construction_1706_assumed_A_Casa
v -18.022000 -7.201000 0.000000
v -14.002000 5.786000 0.000000
v -3.974000 2.818000 0.000000
v -2.667000 8.193000 0.000000
v 0.583000 7.596000 0.000000
v 1.560000 11.933000 0.000000
v 5.721000 10.918000 0.000000
v 4.654000 5.139000 0.000000
v 18.022000 1.952000 0.000000
v 14.999000 -11.933000 0.000000
v 1.619000 -9.443000 0.000000
v 3.131000 -0.958000 0.000000
v -0.992000 -0.056000 0.000000
v -5.036000 -11.816000 0.000000
v -18.022000 -7.201000 6.000000
v -14.002000 5.786000 6.000000
v -3.974000 2.818000 6.000000
v -2.667000 8.193000 6.000000
v 0.583000 7.596000 6.000000
v 1.560000 11.933000 6.000000
v 5.721000 10.918000 6.000000
v 4.654000 5.139000 6.000000
v 18.022000 1.952000 6.000000
v 14.999000 -11.933000 6.000000
v 1.619000 -9.443000 6.000000
v 3.131000 -0.958000 6.000000
v -0.992000 -0.056000 6.000000
v -5.036000 -11.816000 6.000000
vn 0.000000 0.000000 -1.000000
vn 0.000000 0.000000 -1.000000
vn 0.000000 0.000000 -1.000000
vn 0.000000 0.000000 -1.000000
vn 0.000000 0.000000 -1.000000
vn 0.000000 0.000000 -1.000000
vn 0.000000 0.000000 -1.000000
vn 0.000000 0.000000 -1.000000
vn 0.000000 0.000000 -1.000000
vn 0.000000 0.000000 -1.000000
vn 0.000000 -0.000000 -1.000000
vn 0.000000 0.000000 -1.000000
vn 0.000000 0.000000 1.000000
vn 0.000000 -0.000000 1.000000
vn 0.000000 0.000000 1.000000
vn 0.000000 0.000000 1.000000
vn 0.000000 0.000000 1.000000
vn -0.000000 0.000000 1.000000
vn 0.000000 0.000000 1.000000
vn 0.000000 0.000000 1.000000
vn 0.000000 0.000000 1.000000
vn 0.000000 0.000000 1.000000
vn 0.000000 0.000000 1.000000
vn 0.000000 0.000000 1.000000
vn -0.955281 0.295698 0.000000
vn -0.955281 0.295698 0.000000
vn 0.283802 0.958883 0.000000
vn 0.283802 0.958883 -0.000000
vn -0.971686 0.236278 0.000000
vn -0.971686 0.236278 0.000000
vn 0.180669 0.983544 0.000000
vn 0.180669 0.983544 -0.000000
vn -0.975553 0.219764 0.000000
vn -0.975553 0.219764 0.000000
vn 0.236983 0.971514 0.000000
vn 0.236983 0.971514 -0.000000
vn 0.983379 -0.181565 0.000000
vn 0.983379 -0.181565 0.000000
vn 0.231906 0.972738 0.000000
vn 0.231906 0.972738 -0.000000
vn 0.977110 -0.212733 0.000000
vn 0.977110 -0.212733 0.000000
vn -0.182957 -0.983121 0.000000
vn -0.182957 -0.983121 0.000000
vn -0.984491 0.175433 0.000000
vn -0.984491 0.175433 0.000000
vn -0.213718 -0.976895 0.000000
vn -0.213718 -0.976895 0.000000
vn 0.945650 -0.325188 0.000000
vn 0.945650 -0.325188 0.000000
vn -0.334865 -0.942266 0.000000
vn -0.334865 -0.942266 0.000000
usemtl assumed_base
f 14//1 1//1 2//1
f 14//2 2//2 3//2
f 14//3 3//3 4//3
f 14//4 4//4 5//4
f 5//5 6//5 7//5
f 5//6 7//6 8//6
f 8//7 9//7 10//7
f 5//8 8//8 10//8
f 10//9 11//9 12//9
f 5//10 10//10 12//10
f 5//11 12//11 13//11
f 5//12 13//12 14//12
usemtl assumed_roof
f 28//13 16//13 15//13
f 28//14 17//14 16//14
f 28//15 18//15 17//15
f 28//16 19//16 18//16
f 19//17 21//17 20//17
f 19//18 22//18 21//18
f 22//19 24//19 23//19
f 19//20 24//20 22//20
f 24//21 26//21 25//21
f 19//22 26//22 24//22
f 19//23 27//23 26//23
f 19//24 28//24 27//24
usemtl assumed_wall
f 1//25 16//25 2//25
f 1//26 15//26 16//26
f 2//27 17//27 3//27
f 2//28 16//28 17//28
f 3//29 18//29 4//29
f 3//30 17//30 18//30
f 4//31 19//31 5//31
f 4//32 18//32 19//32
f 5//33 20//33 6//33
f 5//34 19//34 20//34
f 6//35 21//35 7//35
f 6//36 20//36 21//36
f 7//37 22//37 8//37
f 7//38 21//38 22//38
f 8//39 23//39 9//39
f 8//40 22//40 23//40
f 9//41 24//41 10//41
f 9//42 23//42 24//42
f 10//43 25//43 11//43
f 10//44 24//44 25//44
f 11//45 26//45 12//45
f 11//46 25//46 26//46
f 12//47 27//47 13//47
f 12//48 26//48 27//48
f 13//49 28//49 14//49
f 13//50 27//50 28//50
f 14//51 15//51 1//51
f 14//52 28//52 15//52
