# construction_3022_assumed_A_Casa
# source A_Casa
# h_campo 0.000000
# modeled_height 6.000000
# height_kind assumed
# local_origin_world_x 172001.034850
# local_origin_world_y 402500.144600
mtllib construction_artifacts.mtl

o construction_3022_assumed_A_Casa
v -30.727500 22.168500 0.000000
v -24.965500 26.179500 0.000000
v -3.806500 -4.652500 0.000000
v -0.062500 -2.165500 0.000000
v -6.812500 7.212500 0.000000
v 12.506500 20.714500 0.000000
v 30.727500 -5.699500 0.000000
v 1.200500 -26.179500 0.000000
v -10.002500 -9.143500 0.000000
v -17.038500 1.724500 0.000000
v -21.861500 -1.608500 0.000000
v -26.860500 5.175500 0.000000
v -22.150500 8.593500 0.000000
v -30.727500 22.168500 6.000000
v -24.965500 26.179500 6.000000
v -3.806500 -4.652500 6.000000
v -0.062500 -2.165500 6.000000
v -6.812500 7.212500 6.000000
v 12.506500 20.714500 6.000000
v 30.727500 -5.699500 6.000000
v 1.200500 -26.179500 6.000000
v -10.002500 -9.143500 6.000000
v -17.038500 1.724500 6.000000
v -21.861500 -1.608500 6.000000
v -26.860500 5.175500 6.000000
v -22.150500 8.593500 6.000000
vn 0.000000 0.000000 -1.000000
vn 0.000000 0.000000 -1.000000
vn 0.000000 0.000000 -1.000000
vn 0.000000 0.000000 -1.000000
vn 0.000000 0.000000 -1.000000
vn 0.000000 0.000000 -1.000000
vn 0.000000 -0.000000 -1.000000
vn -0.000000 0.000000 -1.000000
vn 0.000000 0.000000 -1.000000
vn 0.000000 0.000000 -1.000000
vn 0.000000 0.000000 -1.000000
vn 0.000000 0.000000 1.000000
vn -0.000000 -0.000000 1.000000
vn 0.000000 -0.000000 1.000000
vn -0.000000 0.000000 1.000000
vn -0.000000 0.000000 1.000000
vn 0.000000 0.000000 1.000000
vn 0.000000 0.000000 1.000000
vn 0.000000 0.000000 1.000000
vn 0.000000 0.000000 1.000000
vn 0.000000 0.000000 1.000000
vn 0.000000 0.000000 1.000000
vn -0.571319 0.820728 0.000000
vn -0.571319 0.820728 0.000000
vn 0.824516 0.565839 0.000000
vn 0.824516 0.565839 -0.000000
vn -0.553313 0.832973 0.000000
vn -0.553313 0.832973 0.000000
vn -0.811623 -0.584182 0.000000
vn -0.811623 -0.584182 0.000000
vn -0.572856 0.819656 0.000000
vn -0.572856 0.819656 0.000000
vn 0.823148 0.567827 0.000000
vn 0.823148 0.567827 -0.000000
vn 0.569929 -0.821694 0.000000
vn 0.569929 -0.821694 0.000000
vn -0.835527 -0.549449 0.000000
vn -0.835527 -0.549449 0.000000
vn -0.839438 -0.543456 0.000000
vn -0.839438 -0.543456 0.000000
vn 0.568518 -0.822671 0.000000
vn 0.568518 -0.822671 0.000000
vn -0.805041 -0.593219 0.000000
vn -0.805041 -0.593219 0.000000
vn -0.587334 0.809345 0.000000
vn -0.587334 0.809345 0.000000
vn -0.845396 -0.534141 0.000000
vn -0.845396 -0.534141 0.000000
usemtl assumed_base
f 13//1 1//1 2//1
f 13//2 2//2 3//2
f 4//3 5//3 6//3
f 4//4 6//4 7//4
f 3//5 4//5 7//5
f 3//6 7//6 8//6
f 3//7 8//7 9//7
f 3//8 9//8 10//8
f 13//9 3//9 10//9
f 13//10 10//10 11//10
f 11//11 12//11 13//11
usemtl assumed_roof
f 26//12 15//12 14//12
f 26//13 16//13 15//13
f 17//14 19//14 18//14
f 17//15 20//15 19//15
f 16//16 20//16 17//16
f 16//17 21//17 20//17
f 16//18 22//18 21//18
f 16//19 23//19 22//19
f 26//20 23//20 16//20
f 26//21 24//21 23//21
f 24//22 26//22 25//22
usemtl assumed_wall
f 1//23 15//23 2//23
f 1//24 14//24 15//24
f 2//25 16//25 3//25
f 2//26 15//26 16//26
f 3//27 17//27 4//27
f 3//28 16//28 17//28
f 4//29 18//29 5//29
f 4//30 17//30 18//30
f 5//31 19//31 6//31
f 5//32 18//32 19//32
f 6//33 20//33 7//33
f 6//34 19//34 20//34
f 7//35 21//35 8//35
f 7//36 20//36 21//36
f 8//37 22//37 9//37
f 8//38 21//38 22//38
f 9//39 23//39 10//39
f 9//40 22//40 23//40
f 10//41 24//41 11//41
f 10//42 23//42 24//42
f 11//43 25//43 12//43
f 11//44 24//44 25//44
f 12//45 26//45 13//45
f 12//46 25//46 26//46
f 13//47 14//47 1//47
f 13//48 26//48 14//48
