# construction_6408_assumed_A_Casa
# source A_Casa
# h_campo 0.000000
# modeled_height 6.000000
# height_kind assumed
# local_origin_world_x 172001.034850
# local_origin_world_y 402500.144600
mtllib construction_artifacts.mtl

o construction_6408_assumed_A_Casa
v -24.423000 -13.007500 0.000000
v -1.150000 7.421500 0.000000
v 1.903000 9.040500 0.000000
v 3.466000 6.460500 0.000000
v 5.157000 7.519500 0.000000
v 6.167000 5.769500 0.000000
v 19.244000 17.237500 0.000000
v 24.423000 11.401500 0.000000
v 0.756000 -9.104500 0.000000
v -1.104000 -6.658500 0.000000
v -9.412000 -14.592500 0.000000
v -12.759000 -11.092500 0.000000
v -20.816000 -17.237500 0.000000
v -24.423000 -13.007500 6.000000
v -1.150000 7.421500 6.000000
v 1.903000 9.040500 6.000000
v 3.466000 6.460500 6.000000
v 5.157000 7.519500 6.000000
v 6.167000 5.769500 6.000000
v 19.244000 17.237500 6.000000
v 24.423000 11.401500 6.000000
v 0.756000 -9.104500 6.000000
v -1.104000 -6.658500 6.000000
v -9.412000 -14.592500 6.000000
v -12.759000 -11.092500 6.000000
v -20.816000 -17.237500 6.000000
vn 0.000000 0.000000 -1.000000
vn 0.000000 0.000000 -1.000000
vn 0.000000 0.000000 -1.000000
vn 0.000000 0.000000 -1.000000
vn 0.000000 0.000000 -1.000000
vn 0.000000 0.000000 -1.000000
vn 0.000000 -0.000000 -1.000000
vn 0.000000 0.000000 -1.000000
vn 0.000000 0.000000 -1.000000
vn 0.000000 0.000000 -1.000000
vn 0.000000 0.000000 -1.000000
vn 0.000000 -0.000000 1.000000
vn 0.000000 0.000000 1.000000
vn 0.000000 0.000000 1.000000
vn 0.000000 0.000000 1.000000
vn 0.000000 0.000000 1.000000
vn 0.000000 0.000000 1.000000
vn -0.000000 0.000000 1.000000
vn 0.000000 0.000000 1.000000
vn 0.000000 0.000000 1.000000
vn 0.000000 0.000000 1.000000
vn 0.000000 0.000000 1.000000
vn -0.659695 0.751534 0.000000
vn -0.659695 0.751534 0.000000
vn -0.468499 0.883464 0.000000
vn -0.468499 0.883464 0.000000
vn 0.855291 0.518147 0.000000
vn 0.855291 0.518147 -0.000000
vn -0.530765 0.847519 0.000000
vn -0.530765 0.847519 0.000000
vn 0.866103 0.499865 0.000000
vn 0.866103 0.499865 -0.000000
vn -0.659339 0.751846 0.000000
vn -0.659339 0.751846 0.000000
vn 0.747954 0.663751 0.000000
vn 0.747954 0.663751 -0.000000
vn 0.654832 -0.755774 0.000000
vn 0.654832 -0.755774 0.000000
vn -0.795999 -0.605298 0.000000
vn -0.795999 -0.605298 0.000000
vn 0.690641 -0.723197 0.000000
vn 0.690641 -0.723197 0.000000
vn -0.722727 -0.691134 0.000000
vn -0.722727 -0.691134 0.000000
vn 0.606439 -0.795130 0.000000
vn 0.606439 -0.795130 0.000000
vn -0.760918 -0.648849 0.000000
vn -0.760918 -0.648849 0.000000
usemtl assumed_base
f 13//1 1//1 2//1
f 13//2 2//2 3//2
f 13//3 3//3 4//3
f 13//4 4//4 5//4
f 13//5 5//5 6//5
f 6//6 7//6 8//6
f 6//7 8//7 9//7
f 6//8 9//8 10//8
f 6//9 10//9 11//9
f 6//10 11//10 12//10
f 6//11 12//11 13//11
usemtl assumed_roof
f 26//12 15//12 14//12
f 26//13 16//13 15//13
f 26//14 17//14 16//14
f 26//15 18//15 17//15
f 26//16 19//16 18//16
f 19//17 21//17 20//17
f 19//18 22//18 21//18
f 19//19 23//19 22//19
f 19//20 24//20 23//20
f 19//21 25//21 24//21
f 19//22 26//22 25//22
usemtl assumed_wall
f 1//23 15//23 2//23
f 1//24 14//24 15//24
f 2//25 16//25 3//25
f 2//26 15//26 16//26
f 3//27 17//27 4//27
f 3//28 16//28 17//28
f 4//29 18//29 5//29
f 4//30 17//30 18//30
f 5//31 19//31 6//31
f 5//32 18//32 19//32
f 6//33 20//33 7//33
f 6//34 19//34 20//34
f 7//35 21//35 8//35
f 7//36 20//36 21//36
f 8//37 22//37 9//37
f 8//38 21//38 22//38
f 9//39 23//39 10//39
f 9//40 22//40 23//40
f 10//41 24//41 11//41
f 10//42 23//42 24//42
f 11//43 25//43 12//43
f 11//44 24//44 25//44
f 12//45 26//45 13//45
f 12//46 25//46 26//46
f 13//47 14//47 1//47
f 13//48 26//48 14//48
