# construction_7109_assumed_A_Casa
# source A_Casa
# h_campo 0.000000
# modeled_height 6.000000
# height_kind assumed
# local_origin_world_x 172001.034850
# local_origin_world_y 402500.144600
mtllib construction_artifacts.mtl

o construction_7109_assumed_A_Casa
v 28.513000 7.151500 0.000000
v 16.063000 -6.007500 0.000000
v 10.963000 0.117500 0.000000
v 6.226000 2.722500 0.000000
v 3.354000 -0.543500 0.000000
v 7.544000 -5.029500 0.000000
v 3.804000 -9.313500 0.000000
v 0.326000 -5.896500 0.000000
v -3.859000 -10.530500 0.000000
v 0.090000 -16.684500 0.000000
v 3.317000 -14.863500 0.000000
v 8.595000 -24.165500 0.000000
v 5.796000 -26.192500 0.000000
v 7.590000 -31.291500 0.000000
v 5.548000 -31.921500 0.000000
v -8.187000 -9.168500 0.000000
v -4.267000 -2.836500 0.000000
v -7.125000 -1.169500 0.000000
v -4.830000 4.289500 0.000000
v -10.073000 8.380500 0.000000
v -15.889000 3.984500 0.000000
v -17.272000 6.703500 0.000000
v -27.268000 1.545500 0.000000
v -28.889000 4.505500 0.000000
v -21.622000 8.458500 0.000000
v -16.496000 10.454500 0.000000
v -0.893000 22.361500 0.000000
v -6.412000 26.706500 0.000000
v -3.689000 31.921500 0.000000
v 9.770000 22.176500 0.000000
v 11.142000 21.267500 0.000000
v 28.889000 8.299500 0.000000
v 28.513000 7.151500 6.000000
v 16.063000 -6.007500 6.000000
v 10.963000 0.117500 6.000000
v 6.226000 2.722500 6.000000
v 3.354000 -0.543500 6.000000
v 7.544000 -5.029500 6.000000
v 3.804000 -9.313500 6.000000
v 0.326000 -5.896500 6.000000
v -3.859000 -10.530500 6.000000
v 0.090000 -16.684500 6.000000
v 3.317000 -14.863500 6.000000
v 8.595000 -24.165500 6.000000
v 5.796000 -26.192500 6.000000
v 7.590000 -31.291500 6.000000
v 5.548000 -31.921500 6.000000
v -8.187000 -9.168500 6.000000
v -4.267000 -2.836500 6.000000
v -7.125000 -1.169500 6.000000
v -4.830000 4.289500 6.000000
v -10.073000 8.380500 6.000000
v -15.889000 3.984500 6.000000
v -17.272000 6.703500 6.000000
v -27.268000 1.545500 6.000000
v -28.889000 4.505500 6.000000
v -21.622000 8.458500 6.000000
v -16.496000 10.454500 6.000000
v -0.893000 22.361500 6.000000
v -6.412000 26.706500 6.000000
v -3.689000 31.921500 6.000000
v 9.770000 22.176500 6.000000
v 11.142000 21.267500 6.000000
v 28.889000 8.299500 6.000000
vn 0.000000 0.000000 -1.000000
vn 0.000000 0.000000 -1.000000
vn 0.000000 0.000000 -1.000000
vn 0.000000 0.000000 -1.000000
vn 0.000000 -0.000000 -1.000000
vn 0.000000 0.000000 -1.000000
vn 0.000000 0.000000 -1.000000
vn 0.000000 0.000000 -1.000000
vn 0.000000 0.000000 -1.000000
vn 0.000000 0.000000 -1.000000
vn 0.000000 0.000000 -1.000000
vn -0.000000 -0.000000 -1.000000
vn 0.000000 0.000000 -1.000000
vn 0.000000 0.000000 -1.000000
vn 0.000000 0.000000 -1.000000
vn 0.000000 0.000000 -1.000000
vn -0.000000 0.000000 -1.000000
vn 0.000000 0.000000 -1.000000
vn -0.000000 0.000000 -1.000000
vn 0.000000 0.000000 -1.000000
vn 0.000000 0.000000 -1.000000
vn 0.000000 0.000000 -1.000000
vn -0.000000 0.000000 -1.000000
vn 0.000000 0.000000 -1.000000
vn 0.000000 0.000000 -1.000000
vn 0.000000 0.000000 -1.000000
vn 0.000000 0.000000 -1.000000
vn 0.000000 0.000000 -1.000000
vn 0.000000 0.000000 -1.000000
vn 0.000000 0.000000 -1.000000
vn 0.000000 0.000000 1.000000
vn 0.000000 0.000000 1.000000
vn 0.000000 0.000000 1.000000
vn 0.000000 0.000000 1.000000
vn 0.000000 0.000000 1.000000
vn 0.000000 0.000000 1.000000
vn -0.000000 0.000000 1.000000
vn 0.000000 0.000000 1.000000
vn 0.000000 0.000000 1.000000
vn 0.000000 0.000000 1.000000
vn 0.000000 0.000000 1.000000
vn 0.000000 0.000000 1.000000
vn 0.000000 0.000000 1.000000
vn 0.000000 0.000000 1.000000
vn 0.000000 0.000000 1.000000
vn 0.000000 0.000000 1.000000
vn 0.000000 0.000000 1.000000
vn 0.000000 0.000000 1.000000
vn 0.000000 0.000000 1.000000
vn 0.000000 0.000000 1.000000
vn 0.000000 0.000000 1.000000
vn 0.000000 0.000000 1.000000
vn 0.000000 0.000000 1.000000
vn 0.000000 0.000000 1.000000
vn 0.000000 0.000000 1.000000
vn 0.000000 0.000000 1.000000
vn 0.000000 0.000000 1.000000
vn 0.000000 0.000000 1.000000
vn 0.000000 0.000000 1.000000
vn 0.000000 0.000000 1.000000
vn 0.726405 -0.687267 0.000000
vn 0.726405 -0.687267 0.000000
vn -0.768478 -0.639876 0.000000
vn -0.768478 -0.639876 0.000000
vn -0.481869 -0.876243 0.000000
vn -0.481869 -0.876243 0.000000
vn 0.750951 -0.660358 0.000000
vn 0.750951 -0.660358 0.000000
vn 0.730806 0.682585 0.000000
vn 0.730806 0.682585 -0.000000
vn 0.753317 -0.657658 0.000000
vn 0.753317 -0.657658 0.000000
vn -0.700824 -0.713335 0.000000
vn -0.700824 -0.713335 0.000000
vn 0.742146 -0.670238 0.000000
vn 0.742146 -0.670238 0.000000
vn 0.841623 0.540066 0.000000
vn 0.841623 0.540066 -0.000000
vn -0.491452 0.870904 0.000000
vn -0.491452 0.870904 0.000000
vn 0.869747 0.493498 0.000000
vn 0.869747 0.493498 -0.000000
vn 0.586536 -0.809923 0.000000
vn 0.586536 -0.809923 0.000000
vn 0.943318 0.331891 0.000000
vn 0.943318 0.331891 -0.000000
vn 0.294809 -0.955556 0.000000
vn 0.294809 -0.955556 0.000000
vn -0.856109 -0.516796 0.000000
vn -0.856109 -0.516796 0.000000
vn -0.850254 0.526373 0.000000
vn -0.850254 0.526373 0.000000
vn -0.503833 -0.863801 0.000000
vn -0.503833 -0.863801 0.000000
vn -0.921848 0.387551 0.000000
vn -0.921848 0.387551 0.000000
vn -0.615168 -0.788396 0.000000
vn -0.615168 -0.788396 0.000000
vn 0.602981 -0.797756 0.000000
vn 0.602981 -0.797756 0.000000
vn -0.891325 -0.453366 0.000000
vn -0.891325 -0.453366 0.000000
vn 0.458557 -0.888665 0.000000
vn 0.458557 -0.888665 0.000000
vn -0.877090 -0.480325 0.000000
vn -0.877090 -0.480325 0.000000
vn -0.477844 0.878445 0.000000
vn -0.477844 0.878445 0.000000
vn -0.362850 0.931848 0.000000
vn -0.362850 0.931848 0.000000
vn -0.606656 0.794965 0.000000
vn -0.606656 0.794965 0.000000
vn -0.618582 -0.785720 0.000000
vn -0.618582 -0.785720 0.000000
vn -0.886436 0.462851 0.000000
vn -0.886436 0.462851 0.000000
vn 0.586464 0.809976 0.000000
vn 0.586464 0.809976 -0.000000
vn 0.552314 0.833636 0.000000
vn 0.552314 0.833636 -0.000000
vn 0.589988 0.807412 0.000000
vn 0.589988 0.807412 -0.000000
vn 0.950326 -0.311257 0.000000
vn 0.950326 -0.311257 0.000000
usemtl assumed_base
f 32//1 1//1 2//1
f 32//2 2//2 3//2
f 32//3 3//3 4//3
f 5//4 6//4 7//4
f 5//5 7//5 8//5
f 5//6 8//6 9//6
f 10//7 11//7 12//7
f 10//8 12//8 13//8
f 9//9 10//9 13//9
f 9//10 13//10 14//10
f 9//11 14//11 15//11
f 9//12 15//12 16//12
f 5//13 9//13 16//13
f 4//14 5//14 16//14
f 4//15 16//15 17//15
f 4//16 17//16 18//16
f 4//17 18//17 19//17
f 32//18 4//18 19//18
f 32//19 19//19 20//19
f 20//20 21//20 22//20
f 22//21 23//21 24//21
f 20//22 22//22 24//22
f 20//23 24//23 25//23
f 32//24 20//24 25//24
f 32//25 25//25 26//25
f 32//26 26//26 27//26
f 32//27 27//27 28//27
f 32//28 28//28 29//28
f 32//29 29//29 30//29
f 30//30 31//30 32//30
usemtl assumed_roof
f 64//31 34//31 33//31
f 64//32 35//32 34//32
f 64//33 36//33 35//33
f 37//34 39//34 38//34
f 37//35 40//35 39//35
f 37//36 41//36 40//36
f 42//37 44//37 43//37
f 42//38 45//38 44//38
f 41//39 45//39 42//39
f 41//40 46//40 45//40
f 41//41 47//41 46//41
f 41//42 48//42 47//42
f 37//43 48//43 41//43
f 36//44 48//44 37//44
f 36//45 49//45 48//45
f 36//46 50//46 49//46
f 36//47 51//47 50//47
f 64//48 51//48 36//48
f 64//49 52//49 51//49
f 52//50 54//50 53//50
f 54//51 56//51 55//51
f 52//52 56//52 54//52
f 52//53 57//53 56//53
f 64//54 57//54 52//54
f 64//55 58//55 57//55
f 64//56 59//56 58//56
f 64//57 60//57 59//57
f 64//58 61//58 60//58
f 64//59 62//59 61//59
f 62//60 64//60 63//60
usemtl assumed_wall
f 1//61 34//61 2//61
f 1//62 33//62 34//62
f 2//63 35//63 3//63
f 2//64 34//64 35//64
f 3//65 36//65 4//65
f 3//66 35//66 36//66
f 4//67 37//67 5//67
f 4//68 36//68 37//68
f 5//69 38//69 6//69
f 5//70 37//70 38//70
f 6//71 39//71 7//71
f 6//72 38//72 39//72
f 7//73 40//73 8//73
f 7//74 39//74 40//74
f 8//75 41//75 9//75
f 8//76 40//76 41//76
f 9//77 42//77 10//77
f 9//78 41//78 42//78
f 10//79 43//79 11//79
f 10//80 42//80 43//80
f 11//81 44//81 12//81
f 11//82 43//82 44//82
f 12//83 45//83 13//83
f 12//84 44//84 45//84
f 13//85 46//85 14//85
f 13//86 45//86 46//86
f 14//87 47//87 15//87
f 14//88 46//88 47//88
f 15//89 48//89 16//89
f 15//90 47//90 48//90
f 16//91 49//91 17//91
f 16//92 48//92 49//92
f 17//93 50//93 18//93
f 17//94 49//94 50//94
f 18//95 51//95 19//95
f 18//96 50//96 51//96
f 19//97 52//97 20//97
f 19//98 51//98 52//98
f 20//99 53//99 21//99
f 20//100 52//100 53//100
f 21//101 54//101 22//101
f 21//102 53//102 54//102
f 22//103 55//103 23//103
f 22//104 54//104 55//104
f 23//105 56//105 24//105
f 23//106 55//106 56//106
f 24//107 57//107 25//107
f 24//108 56//108 57//108
f 25//109 58//109 26//109
f 25//110 57//110 58//110
f 26//111 59//111 27//111
f 26//112 58//112 59//112
f 27//113 60//113 28//113
f 27//114 59//114 60//114
f 28//115 61//115 29//115
f 28//116 60//116 61//116
f 29//117 62//117 30//117
f 29//118 61//118 62//118
f 30//119 63//119 31//119
f 30//120 62//120 63//120
f 31//121 64//121 32//121
f 31//122 63//122 64//122
f 32//123 33//123 1//123
f 32//124 64//124 33//124
