# construction_5794_assumed_A_Casa
# source A_Casa
# h_campo 0.000000
# modeled_height 6.000000
# height_kind assumed
# local_origin_world_x 172001.034850
# local_origin_world_y 402500.144600
mtllib construction_artifacts.mtl

o construction_5794_assumed_A_Casa
v -6.861500 21.034500 0.000000
v 15.520500 -17.422500 0.000000
v 9.192500 -21.034500 0.000000
v 3.079500 -10.569500 0.000000
v 0.650500 -11.959500 0.000000
v -3.606500 -4.417500 0.000000
v -1.872500 -3.533500 0.000000
v -4.070500 0.226500 0.000000
v -1.224500 1.147500 0.000000
v -4.243500 5.968500 0.000000
v -3.433500 6.334500 0.000000
v -6.414500 11.156500 0.000000
v -5.174500 12.078500 0.000000
v -6.424500 14.659500 0.000000
v -9.132500 13.295500 0.000000
v -7.806500 10.259500 0.000000
v -12.551500 8.138500 0.000000
v -15.520500 12.668500 0.000000
v -13.267500 13.754500 0.000000
v -14.985500 16.918500 0.000000
v -6.861500 21.034500 6.000000
v 15.520500 -17.422500 6.000000
v 9.192500 -21.034500 6.000000
v 3.079500 -10.569500 6.000000
v 0.650500 -11.959500 6.000000
v -3.606500 -4.417500 6.000000
v -1.872500 -3.533500 6.000000
v -4.070500 0.226500 6.000000
v -1.224500 1.147500 6.000000
v -4.243500 5.968500 6.000000
v -3.433500 6.334500 6.000000
v -6.414500 11.156500 6.000000
v -5.174500 12.078500 6.000000
v -6.424500 14.659500 6.000000
v -9.132500 13.295500 6.000000
v -7.806500 10.259500 6.000000
v -12.551500 8.138500 6.000000
v -15.520500 12.668500 6.000000
v -13.267500 13.754500 6.000000
v -14.985500 16.918500 6.000000
vn 0.000000 0.000000 -1.000000
vn 0.000000 0.000000 -1.000000
vn -0.000000 0.000000 -1.000000
vn 0.000000 0.000000 -1.000000
vn 0.000000 0.000000 -1.000000
vn 0.000000 0.000000 -1.000000
vn 0.000000 0.000000 -1.000000
vn 0.000000 0.000000 -1.000000
vn 0.000000 0.000000 -1.000000
vn 0.000000 0.000000 -1.000000
vn 0.000000 0.000000 -1.000000
vn 0.000000 0.000000 -1.000000
vn 0.000000 0.000000 -1.000000
vn 0.000000 0.000000 -1.000000
vn 0.000000 0.000000 -1.000000
vn -0.000000 0.000000 -1.000000
vn 0.000000 0.000000 -1.000000
vn 0.000000 0.000000 -1.000000
vn 0.000000 0.000000 1.000000
vn 0.000000 0.000000 1.000000
vn 0.000000 0.000000 1.000000
vn 0.000000 0.000000 1.000000
vn 0.000000 0.000000 1.000000
vn 0.000000 0.000000 1.000000
vn 0.000000 0.000000 1.000000
vn 0.000000 0.000000 1.000000
vn 0.000000 0.000000 1.000000
vn 0.000000 0.000000 1.000000
vn 0.000000 0.000000 1.000000
vn 0.000000 0.000000 1.000000
vn -0.000000 0.000000 1.000000
vn 0.000000 0.000000 1.000000
vn 0.000000 0.000000 1.000000
vn 0.000000 0.000000 1.000000
vn 0.000000 0.000000 1.000000
vn 0.000000 0.000000 1.000000
vn 0.864280 0.503011 0.000000
vn 0.864280 0.503011 -0.000000
vn 0.495725 -0.868480 0.000000
vn 0.495725 -0.868480 0.000000
vn -0.863476 -0.504389 0.000000
vn -0.863476 -0.504389 0.000000
vn 0.496678 -0.867935 0.000000
vn 0.496678 -0.867935 0.000000
vn -0.870853 -0.491544 0.000000
vn -0.870853 -0.491544 0.000000
vn -0.454187 0.890906 0.000000
vn -0.454187 0.890906 0.000000
vn -0.863312 -0.504670 0.000000
vn -0.863312 -0.504670 0.000000
vn -0.307891 0.951421 0.000000
vn -0.307891 0.951421 0.000000
vn -0.847534 -0.530741 0.000000
vn -0.847534 -0.530741 0.000000
vn -0.411768 0.911289 0.000000
vn -0.411768 0.911289 0.000000
vn -0.850585 -0.525838 0.000000
vn -0.850585 -0.525838 0.000000
vn -0.596681 0.802478 0.000000
vn -0.596681 0.802478 0.000000
vn -0.900005 -0.435880 0.000000
vn -0.900005 -0.435880 0.000000
vn 0.449850 -0.893104 0.000000
vn 0.449850 -0.893104 0.000000
vn 0.916407 0.400249 0.000000
vn 0.916407 0.400249 -0.000000
vn 0.408083 -0.912945 0.000000
vn 0.408083 -0.912945 0.000000
vn -0.836371 -0.548164 0.000000
vn -0.836371 -0.548164 0.000000
vn -0.434212 0.900811 0.000000
vn -0.434212 0.900811 0.000000
vn -0.878807 -0.477178 0.000000
vn -0.878807 -0.477178 0.000000
vn -0.451951 0.892043 0.000000
vn -0.451951 0.892043 0.000000
usemtl assumed_base
f 1//1 2//1 3//1
f 1//2 3//2 4//2
f 4//3 5//3 6//3
f 4//4 6//4 7//4
f 4//5 7//5 8//5
f 4//6 8//6 9//6
f 1//7 4//7 9//7
f 9//8 10//8 11//8
f 1//9 9//9 11//9
f 11//10 12//10 13//10
f 1//11 11//11 13//11
f 1//12 13//12 14//12
f 20//13 1//13 14//13
f 20//14 14//14 15//14
f 20//15 15//15 16//15
f 16//16 17//16 18//16
f 16//17 18//17 19//17
f 16//18 19//18 20//18
usemtl assumed_roof
f 21//19 23//19 22//19
f 21//20 24//20 23//20
f 24//21 26//21 25//21
f 24//22 27//22 26//22
f 24//23 28//23 27//23
f 24//24 29//24 28//24
f 21//25 29//25 24//25
f 29//26 31//26 30//26
f 21//27 31//27 29//27
f 31//28 33//28 32//28
f 21//29 33//29 31//29
f 21//30 34//30 33//30
f 40//31 34//31 21//31
f 40//32 35//32 34//32
f 40//33 36//33 35//33
f 36//34 38//34 37//34
f 36//35 39//35 38//35
f 36//36 40//36 39//36
usemtl assumed_wall
f 1//37 22//37 2//37
f 1//38 21//38 22//38
f 2//39 23//39 3//39
f 2//40 22//40 23//40
f 3//41 24//41 4//41
f 3//42 23//42 24//42
f 4//43 25//43 5//43
f 4//44 24//44 25//44
f 5//45 26//45 6//45
f 5//46 25//46 26//46
f 6//47 27//47 7//47
f 6//48 26//48 27//48
f 7//49 28//49 8//49
f 7//50 27//50 28//50
f 8//51 29//51 9//51
f 8//52 28//52 29//52
f 9//53 30//53 10//53
f 9//54 29//54 30//54
f 10//55 31//55 11//55
f 10//56 30//56 31//56
f 11//57 32//57 12//57
f 11//58 31//58 32//58
f 12//59 33//59 13//59
f 12//60 32//60 33//60
f 13//61 34//61 14//61
f 13//62 33//62 34//62
f 14//63 35//63 15//63
f 14//64 34//64 35//64
f 15//65 36//65 16//65
f 15//66 35//66 36//66
f 16//67 37//67 17//67
f 16//68 36//68 37//68
f 17//69 38//69 18//69
f 17//70 37//70 38//70
f 18//71 39//71 19//71
f 18//72 38//72 39//72
f 19//73 40//73 20//73
f 19//74 39//74 40//74
f 20//75 21//75 1//75
f 20//76 40//76 21//76
