# construction_6691_assumed_A_Casa
# source A_Casa
# h_campo 0.000000
# modeled_height 6.000000
# height_kind assumed
# local_origin_world_x 172001.034850
# local_origin_world_y 402500.144600
mtllib construction_artifacts.mtl

o construction_6691_assumed_A_Casa
v -24.066500 -0.118500 0.000000
v -14.521500 8.430500 0.000000
v -14.051500 7.507500 0.000000
v -5.577500 10.788500 0.000000
v 3.589500 1.116500 0.000000
v 13.610500 10.428500 0.000000
v 15.561500 8.557500 0.000000
v 21.286500 13.745500 0.000000
v 24.066500 10.904500 0.000000
v 3.002500 -7.706500 0.000000
v -0.181500 -4.763500 0.000000
v -11.605500 -13.745500 0.000000
v -24.066500 -0.118500 6.000000
v -14.521500 8.430500 6.000000
v -14.051500 7.507500 6.000000
v -5.577500 10.788500 6.000000
v 3.589500 1.116500 6.000000
v 13.610500 10.428500 6.000000
v 15.561500 8.557500 6.000000
v 21.286500 13.745500 6.000000
v 24.066500 10.904500 6.000000
v 3.002500 -7.706500 6.000000
v -0.181500 -4.763500 6.000000
v -11.605500 -13.745500 6.000000
vn 0.000000 0.000000 -1.000000
vn 0.000000 0.000000 -1.000000
vn 0.000000 0.000000 -1.000000
vn 0.000000 0.000000 -1.000000
vn 0.000000 0.000000 -1.000000
vn 0.000000 0.000000 -1.000000
vn 0.000000 0.000000 -1.000000
vn 0.000000 -0.000000 -1.000000
vn 0.000000 0.000000 -1.000000
vn 0.000000 0.000000 -1.000000
vn 0.000000 0.000000 1.000000
vn 0.000000 0.000000 1.000000
vn 0.000000 -0.000000 1.000000
vn 0.000000 0.000000 1.000000
vn 0.000000 0.000000 1.000000
vn 0.000000 0.000000 1.000000
vn 0.000000 0.000000 1.000000
vn -0.000000 0.000000 1.000000
vn 0.000000 0.000000 1.000000
vn 0.000000 0.000000 1.000000
vn -0.667173 0.744902 0.000000
vn -0.667173 0.744902 0.000000
vn 0.891121 0.453767 0.000000
vn 0.891121 0.453767 -0.000000
vn -0.361065 0.932541 0.000000
vn -0.361065 0.932541 0.000000
vn 0.725801 0.687905 0.000000
vn 0.725801 0.687905 -0.000000
vn -0.680717 0.732546 0.000000
vn -0.680717 0.732546 0.000000
vn 0.692154 0.721749 0.000000
vn 0.692154 0.721749 -0.000000
vn -0.671499 0.741005 0.000000
vn -0.671499 0.741005 0.000000
vn 0.714738 0.699392 0.000000
vn 0.714738 0.699392 -0.000000
vn 0.662124 -0.749394 0.000000
vn 0.662124 -0.749394 0.000000
vn -0.678768 -0.734352 0.000000
vn -0.678768 -0.734352 0.000000
vn 0.618077 -0.786118 0.000000
vn 0.618077 -0.786118 0.000000
vn -0.737974 -0.674829 0.000000
vn -0.737974 -0.674829 0.000000
usemtl assumed_base
f 12//1 1//1 2//1
f 12//2 2//2 3//2
f 12//3 3//3 4//3
f 12//4 4//4 5//4
f 12//5 5//5 6//5
f 12//6 6//6 7//6
f 7//7 8//7 9//7
f 7//8 9//8 10//8
f 7//9 10//9 11//9
f 7//10 11//10 12//10
usemtl assumed_roof
f 24//11 14//11 13//11
f 24//12 15//12 14//12
f 24//13 16//13 15//13
f 24//14 17//14 16//14
f 24//15 18//15 17//15
f 24//16 19//16 18//16
f 19//17 21//17 20//17
f 19//18 22//18 21//18
f 19//19 23//19 22//19
f 19//20 24//20 23//20
usemtl assumed_wall
f 1//21 14//21 2//21
f 1//22 13//22 14//22
f 2//23 15//23 3//23
f 2//24 14//24 15//24
f 3//25 16//25 4//25
f 3//26 15//26 16//26
f 4//27 17//27 5//27
f 4//28 16//28 17//28
f 5//29 18//29 6//29
f 5//30 17//30 18//30
f 6//31 19//31 7//31
f 6//32 18//32 19//32
f 7//33 20//33 8//33
f 7//34 19//34 20//34
f 8//35 21//35 9//35
f 8//36 20//36 21//36
f 9//37 22//37 10//37
f 9//38 21//38 22//38
f 10//39 23//39 11//39
f 10//40 22//40 23//40
f 11//41 24//41 12//41
f 11//42 23//42 24//42
f 12//43 13//43 1//43
f 12//44 24//44 13//44
