# construction_4520_assumed_A_Casa
# source A_Casa
# h_campo 0.000000
# modeled_height 6.000000
# height_kind assumed
# local_origin_world_x 172001.034850
# local_origin_world_y 402500.144600
mtllib construction_artifacts.mtl

o construction_4520_assumed_A_Casa
v -6.496500 5.077500 0.000000
v 1.167500 9.401500 0.000000
v 2.660500 6.752500 0.000000
v 4.131500 7.519500 0.000000
v 6.091500 3.695500 0.000000
v 4.857500 3.049500 0.000000
v 6.496500 -0.399500 0.000000
v 3.025500 -2.016500 0.000000
v 4.884500 -5.007500 0.000000
v 0.956500 -7.235500 0.000000
v -4.263500 -9.401500 0.000000
v -5.138500 -7.614500 0.000000
v -3.927500 -6.934500 0.000000
v -4.824500 -5.955500 0.000000
v -1.455500 -3.540500 0.000000
v -6.496500 5.077500 6.000000
v 1.167500 9.401500 6.000000
v 2.660500 6.752500 6.000000
v 4.131500 7.519500 6.000000
v 6.091500 3.695500 6.000000
v 4.857500 3.049500 6.000000
v 6.496500 -0.399500 6.000000
v 3.025500 -2.016500 6.000000
v 4.884500 -5.007500 6.000000
v 0.956500 -7.235500 6.000000
v -4.263500 -9.401500 6.000000
v -5.138500 -7.614500 6.000000
v -3.927500 -6.934500 6.000000
v -4.824500 -5.955500 6.000000
v -1.455500 -3.540500 6.000000
vn 0.000000 0.000000 -1.000000
vn 0.000000 0.000000 -1.000000
vn 0.000000 0.000000 -1.000000
vn 0.000000 0.000000 -1.000000
vn 0.000000 0.000000 -1.000000
vn 0.000000 0.000000 -1.000000
vn 0.000000 0.000000 -1.000000
vn 0.000000 0.000000 -1.000000
vn 0.000000 0.000000 -1.000000
vn 0.000000 -0.000000 -1.000000
vn 0.000000 0.000000 -1.000000
vn 0.000000 0.000000 -1.000000
vn 0.000000 0.000000 -1.000000
vn 0.000000 -0.000000 1.000000
vn 0.000000 0.000000 1.000000
vn 0.000000 0.000000 1.000000
vn 0.000000 0.000000 1.000000
vn 0.000000 0.000000 1.000000
vn 0.000000 0.000000 1.000000
vn 0.000000 0.000000 1.000000
vn -0.000000 0.000000 1.000000
vn 0.000000 0.000000 1.000000
vn 0.000000 0.000000 1.000000
vn 0.000000 -0.000000 1.000000
vn 0.000000 0.000000 1.000000
vn 0.000000 -0.000000 1.000000
vn -0.491383 0.870944 0.000000
vn -0.491383 0.870944 0.000000
vn 0.871162 0.490995 0.000000
vn 0.871162 0.490995 -0.000000
vn -0.462339 0.886703 0.000000
vn -0.462339 0.886703 0.000000
vn 0.889914 0.456128 0.000000
vn 0.889914 0.456128 -0.000000
vn 0.463792 -0.885944 0.000000
vn 0.463792 -0.885944 0.000000
vn 0.903204 0.429212 0.000000
vn 0.903204 0.429212 -0.000000
vn 0.422285 -0.906463 0.000000
vn 0.422285 -0.906463 0.000000
vn 0.849320 0.527879 0.000000
vn 0.849320 0.527879 -0.000000
vn 0.493370 -0.869819 0.000000
vn 0.493370 -0.869819 0.000000
vn 0.383258 -0.923641 0.000000
vn 0.383258 -0.923641 0.000000
vn -0.898115 -0.439760 0.000000
vn -0.898115 -0.439760 0.000000
vn -0.489612 0.871941 0.000000
vn -0.489612 0.871941 0.000000
vn -0.737310 -0.675554 0.000000
vn -0.737310 -0.675554 0.000000
vn -0.582607 0.812754 0.000000
vn -0.582607 0.812754 0.000000
vn -0.863175 -0.504904 0.000000
vn -0.863175 -0.504904 0.000000
usemtl assumed_base
f 15//1 1//1 2//1
f 15//2 2//2 3//2
f 15//3 3//3 4//3
f 4//4 5//4 6//4
f 15//5 4//5 6//5
f 15//6 6//6 7//6
f 15//7 7//7 8//7
f 15//8 8//8 9//8
f 15//9 9//9 10//9
f 15//10 10//10 11//10
f 11//11 12//11 13//11
f 15//12 11//12 13//12
f 13//13 14//13 15//13
usemtl assumed_roof
f 30//14 17//14 16//14
f 30//15 18//15 17//15
f 30//16 19//16 18//16
f 19//17 21//17 20//17
f 30//18 21//18 19//18
f 30//19 22//19 21//19
f 30//20 23//20 22//20
f 30//21 24//21 23//21
f 30//22 25//22 24//22
f 30//23 26//23 25//23
f 26//24 28//24 27//24
f 30//25 28//25 26//25
f 28//26 30//26 29//26
usemtl assumed_wall
f 1//27 17//27 2//27
f 1//28 16//28 17//28
f 2//29 18//29 3//29
f 2//30 17//30 18//30
f 3//31 19//31 4//31
f 3//32 18//32 19//32
f 4//33 20//33 5//33
f 4//34 19//34 20//34
f 5//35 21//35 6//35
f 5//36 20//36 21//36
f 6//37 22//37 7//37
f 6//38 21//38 22//38
f 7//39 23//39 8//39
f 7//40 22//40 23//40
f 8//41 24//41 9//41
f 8//42 23//42 24//42
f 9//43 25//43 10//43
f 9//44 24//44 25//44
f 10//45 26//45 11//45
f 10//46 25//46 26//46
f 11//47 27//47 12//47
f 11//48 26//48 27//48
f 12//49 28//49 13//49
f 12//50 27//50 28//50
f 13//51 29//51 14//51
f 13//52 28//52 29//52
f 14//53 30//53 15//53
f 14//54 29//54 30//54
f 15//55 16//55 1//55
f 15//56 30//56 16//56
