# construction_1614_assumed_A_Casa
# source A_Casa
# h_campo 0.000000
# modeled_height 6.000000
# height_kind assumed
# local_origin_world_x 172001.034850
# local_origin_world_y 402500.144600
mtllib construction_artifacts.mtl

o construction_1614_assumed_A_Casa
v 2.238000 19.499000 0.000000
v 5.744000 24.215000 0.000000
v 14.936000 18.128000 0.000000
v 11.393000 12.665000 0.000000
v 11.987000 12.137000 0.000000
v 10.096000 9.413000 0.000000
v 9.259000 9.745000 0.000000
v 7.267000 6.516000 0.000000
v 4.931000 7.428000 0.000000
v 3.299000 4.088000 0.000000
v 5.060000 3.063000 0.000000
v 3.763000 -0.108000 0.000000
v 6.197000 -2.663000 0.000000
v 5.461000 -3.828000 0.000000
v 16.055000 -9.854000 0.000000
v 13.669000 -14.651000 0.000000
v 6.596000 -10.741000 0.000000
v 5.474000 -12.834000 0.000000
v 8.493000 -14.556000 0.000000
v 7.589000 -17.292000 0.000000
v 4.935000 -16.203000 0.000000
v 3.995000 -18.685000 0.000000
v 2.561000 -18.145000 0.000000
v 1.888000 -19.604000 0.000000
v 4.070000 -21.061000 0.000000
v 2.480000 -24.215000 0.000000
v 0.626000 -22.202000 0.000000
v 0.061000 -23.502000 0.000000
v -16.055000 -15.428000 0.000000
v 2.238000 19.499000 6.000000
v 5.744000 24.215000 6.000000
v 14.936000 18.128000 6.000000
v 11.393000 12.665000 6.000000
v 11.987000 12.137000 6.000000
v 10.096000 9.413000 6.000000
v 9.259000 9.745000 6.000000
v 7.267000 6.516000 6.000000
v 4.931000 7.428000 6.000000
v 3.299000 4.088000 6.000000
v 5.060000 3.063000 6.000000
v 3.763000 -0.108000 6.000000
v 6.197000 -2.663000 6.000000
v 5.461000 -3.828000 6.000000
v 16.055000 -9.854000 6.000000
v 13.669000 -14.651000 6.000000
v 6.596000 -10.741000 6.000000
v 5.474000 -12.834000 6.000000
v 8.493000 -14.556000 6.000000
v 7.589000 -17.292000 6.000000
v 4.935000 -16.203000 6.000000
v 3.995000 -18.685000 6.000000
v 2.561000 -18.145000 6.000000
v 1.888000 -19.604000 6.000000
v 4.070000 -21.061000 6.000000
v 2.480000 -24.215000 6.000000
v 0.626000 -22.202000 6.000000
v 0.061000 -23.502000 6.000000
v -16.055000 -15.428000 6.000000
vn 0.000000 0.000000 -1.000000
vn 0.000000 0.000000 -1.000000
vn 0.000000 -0.000000 -1.000000
vn 0.000000 0.000000 -1.000000
vn 0.000000 0.000000 -1.000000
vn 0.000000 0.000000 -1.000000
vn 0.000000 -0.000000 -1.000000
vn 0.000000 0.000000 -1.000000
vn 0.000000 0.000000 -1.000000
vn 0.000000 0.000000 -1.000000
vn 0.000000 0.000000 -1.000000
vn 0.000000 0.000000 -1.000000
vn 0.000000 0.000000 -1.000000
vn 0.000000 0.000000 -1.000000
vn 0.000000 0.000000 -1.000000
vn 0.000000 0.000000 -1.000000
vn 0.000000 0.000000 -1.000000
vn 0.000000 0.000000 -1.000000
vn 0.000000 0.000000 -1.000000
vn 0.000000 0.000000 -1.000000
vn 0.000000 0.000000 -1.000000
vn 0.000000 0.000000 -1.000000
vn 0.000000 0.000000 -1.000000
vn 0.000000 0.000000 -1.000000
vn 0.000000 0.000000 -1.000000
vn 0.000000 0.000000 -1.000000
vn -0.000000 0.000000 -1.000000
vn 0.000000 0.000000 1.000000
vn 0.000000 0.000000 1.000000
vn 0.000000 0.000000 1.000000
vn 0.000000 0.000000 1.000000
vn 0.000000 0.000000 1.000000
vn 0.000000 0.000000 1.000000
vn 0.000000 0.000000 1.000000
vn 0.000000 0.000000 1.000000
vn 0.000000 0.000000 1.000000
vn 0.000000 0.000000 1.000000
vn 0.000000 0.000000 1.000000
vn 0.000000 0.000000 1.000000
vn 0.000000 0.000000 1.000000
vn 0.000000 0.000000 1.000000
vn 0.000000 0.000000 1.000000
vn 0.000000 0.000000 1.000000
vn 0.000000 0.000000 1.000000
vn 0.000000 0.000000 1.000000
vn 0.000000 0.000000 1.000000
vn -0.000000 0.000000 1.000000
vn 0.000000 0.000000 1.000000
vn 0.000000 0.000000 1.000000
vn 0.000000 0.000000 1.000000
vn 0.000000 0.000000 1.000000
vn 0.000000 0.000000 1.000000
vn 0.000000 0.000000 1.000000
vn 0.000000 0.000000 1.000000
vn -0.802525 0.596618 0.000000
vn -0.802525 0.596618 0.000000
vn 0.552123 0.833763 0.000000
vn 0.552123 0.833763 -0.000000
vn 0.839001 -0.544130 0.000000
vn 0.839001 -0.544130 0.000000
vn 0.664364 0.747409 0.000000
vn 0.664364 0.747409 -0.000000
vn 0.821464 -0.570260 0.000000
vn 0.821464 -0.570260 0.000000
vn -0.368708 -0.929545 0.000000
vn -0.368708 -0.929545 0.000000
vn 0.851079 -0.525038 0.000000
vn 0.851079 -0.525038 0.000000
vn -0.363678 -0.931525 0.000000
vn -0.363678 -0.931525 0.000000
vn 0.898479 -0.439017 0.000000
vn 0.898479 -0.439017 0.000000
vn 0.503047 0.864259 0.000000
vn 0.503047 0.864259 -0.000000
vn 0.925570 -0.378576 0.000000
vn 0.925570 -0.378576 0.000000
vn 0.724044 0.689754 0.000000
vn 0.724044 0.689754 -0.000000
vn 0.845420 -0.534102 0.000000
vn 0.845420 -0.534102 0.000000
vn 0.494424 0.869221 0.000000
vn 0.494424 0.869221 -0.000000
vn 0.895358 -0.445346 0.000000
vn 0.895358 -0.445346 0.000000
vn -0.483803 -0.875177 0.000000
vn -0.483803 -0.875177 0.000000
vn 0.881348 -0.472467 0.000000
vn 0.881348 -0.472467 0.000000
vn 0.495457 0.868632 0.000000
vn 0.495457 0.868632 -0.000000
vn 0.949513 -0.313728 0.000000
vn 0.949513 -0.313728 0.000000
vn -0.379610 -0.925147 0.000000
vn -0.379610 -0.925147 0.000000
vn 0.935178 -0.354177 0.000000
vn 0.935178 -0.354177 0.000000
vn -0.352410 -0.935846 0.000000
vn -0.352410 -0.935846 0.000000
vn 0.908050 -0.418861 0.000000
vn 0.908050 -0.418861 0.000000
vn 0.555316 0.831640 0.000000
vn 0.555316 0.831640 -0.000000
vn 0.892950 -0.450156 0.000000
vn 0.892950 -0.450156 0.000000
vn -0.735559 -0.677460 0.000000
vn -0.735559 -0.677460 0.000000
vn 0.917126 -0.398597 0.000000
vn 0.917126 -0.398597 0.000000
vn -0.447924 -0.894072 0.000000
vn -0.447924 -0.894072 0.000000
vn -0.885853 0.463965 0.000000
vn -0.885853 0.463965 0.000000
usemtl assumed_base
f 29//1 1//1 2//1
f 2//2 3//2 4//2
f 4//3 5//3 6//3
f 2//4 4//4 6//4
f 2//5 6//5 7//5
f 2//6 7//6 8//6
f 2//7 8//7 9//7
f 29//8 2//8 9//8
f 29//9 9//9 10//9
f 29//10 10//10 11//10
f 29//11 11//11 12//11
f 29//12 12//12 13//12
f 29//13 13//13 14//13
f 14//14 15//14 16//14
f 14//15 16//15 17//15
f 29//16 14//16 17//16
f 29//17 17//17 18//17
f 29//18 18//18 19//18
f 19//19 20//19 21//19
f 29//20 19//20 21//20
f 21//21 22//21 23//21
f 29//22 21//22 23//22
f 29//23 23//23 24//23
f 29//24 24//24 25//24
f 25//25 26//25 27//25
f 29//26 25//26 27//26
f 27//27 28//27 29//27
usemtl assumed_roof
f 58//28 31//28 30//28
f 31//29 33//29 32//29
f 33//30 35//30 34//30
f 31//31 35//31 33//31
f 31//32 36//32 35//32
f 31//33 37//33 36//33
f 31//34 38//34 37//34
f 58//35 38//35 31//35
f 58//36 39//36 38//36
f 58//37 40//37 39//37
f 58//38 41//38 40//38
f 58//39 42//39 41//39
f 58//40 43//40 42//40
f 43//41 45//41 44//41
f 43//42 46//42 45//42
f 58//43 46//43 43//43
f 58//44 47//44 46//44
f 58//45 48//45 47//45
f 48//46 50//46 49//46
f 58//47 50//47 48//47
f 50//48 52//48 51//48
f 58//49 52//49 50//49
f 58//50 53//50 52//50
f 58//51 54//51 53//51
f 54//52 56//52 55//52
f 58//53 56//53 54//53
f 56//54 58//54 57//54
usemtl assumed_wall
f 1//55 31//55 2//55
f 1//56 30//56 31//56
f 2//57 32//57 3//57
f 2//58 31//58 32//58
f 3//59 33//59 4//59
f 3//60 32//60 33//60
f 4//61 34//61 5//61
f 4//62 33//62 34//62
f 5//63 35//63 6//63
f 5//64 34//64 35//64
f 6//65 36//65 7//65
f 6//66 35//66 36//66
f 7//67 37//67 8//67
f 7//68 36//68 37//68
f 8//69 38//69 9//69
f 8//70 37//70 38//70
f 9//71 39//71 10//71
f 9//72 38//72 39//72
f 10//73 40//73 11//73
f 10//74 39//74 40//74
f 11//75 41//75 12//75
f 11//76 40//76 41//76
f 12//77 42//77 13//77
f 12//78 41//78 42//78
f 13//79 43//79 14//79
f 13//80 42//80 43//80
f 14//81 44//81 15//81
f 14//82 43//82 44//82
f 15//83 45//83 16//83
f 15//84 44//84 45//84
f 16//85 46//85 17//85
f 16//86 45//86 46//86
f 17//87 47//87 18//87
f 17//88 46//88 47//88
f 18//89 48//89 19//89
f 18//90 47//90 48//90
f 19//91 49//91 20//91
f 19//92 48//92 49//92
f 20//93 50//93 21//93
f 20//94 49//94 50//94
f 21//95 51//95 22//95
f 21//96 50//96 51//96
f 22//97 52//97 23//97
f 22//98 51//98 52//98
f 23//99 53//99 24//99
f 23//100 52//100 53//100
f 24//101 54//101 25//101
f 24//102 53//102 54//102
f 25//103 55//103 26//103
f 25//104 54//104 55//104
f 26//105 56//105 27//105
f 26//106 55//106 56//106
f 27//107 57//107 28//107
f 27//108 56//108 57//108
f 28//109 58//109 29//109
f 28//110 57//110 58//110
f 29//111 30//111 1//111
f 29//112 58//112 30//112
