# construction_6792_assumed_A_Casa
# source A_Casa
# h_campo 0.000000
# modeled_height 6.000000
# height_kind assumed
# local_origin_world_x 172001.034850
# local_origin_world_y 402500.144600
mtllib construction_artifacts.mtl

o construction_6792_assumed_A_Casa
v -21.453500 18.138000 0.000000
v 13.619500 27.577000 0.000000
v 21.453500 13.746000 0.000000
v 14.720500 10.125000 0.000000
v 15.583500 8.470000 0.000000
v 11.247500 6.501000 0.000000
v 12.758500 4.427000 0.000000
v 8.931500 1.687000 0.000000
v 14.288500 -7.289000 0.000000
v 5.618500 -11.858000 0.000000
v 4.227500 -9.405000 0.000000
v 1.047500 -10.685000 0.000000
v 4.542500 -25.734000 0.000000
v -4.164500 -27.577000 0.000000
v -12.482500 4.437000 0.000000
v -17.214500 3.255000 0.000000
v -21.453500 18.138000 6.000000
v 13.619500 27.577000 6.000000
v 21.453500 13.746000 6.000000
v 14.720500 10.125000 6.000000
v 15.583500 8.470000 6.000000
v 11.247500 6.501000 6.000000
v 12.758500 4.427000 6.000000
v 8.931500 1.687000 6.000000
v 14.288500 -7.289000 6.000000
v 5.618500 -11.858000 6.000000
v 4.227500 -9.405000 6.000000
v 1.047500 -10.685000 6.000000
v 4.542500 -25.734000 6.000000
v -4.164500 -27.577000 6.000000
v -12.482500 4.437000 6.000000
v -17.214500 3.255000 6.000000
vn 0.000000 0.000000 -1.000000
vn 0.000000 0.000000 -1.000000
vn 0.000000 -0.000000 -1.000000
vn 0.000000 -0.000000 -1.000000
vn 0.000000 -0.000000 -1.000000
vn 0.000000 0.000000 -1.000000
vn 0.000000 0.000000 -1.000000
vn 0.000000 0.000000 -1.000000
vn 0.000000 -0.000000 -1.000000
vn -0.000000 0.000000 -1.000000
vn 0.000000 0.000000 -1.000000
vn 0.000000 0.000000 -1.000000
vn 0.000000 0.000000 -1.000000
vn 0.000000 0.000000 -1.000000
vn 0.000000 -0.000000 1.000000
vn 0.000000 0.000000 1.000000
vn 0.000000 0.000000 1.000000
vn 0.000000 0.000000 1.000000
vn 0.000000 0.000000 1.000000
vn 0.000000 0.000000 1.000000
vn 0.000000 0.000000 1.000000
vn 0.000000 0.000000 1.000000
vn 0.000000 0.000000 1.000000
vn 0.000000 0.000000 1.000000
vn 0.000000 0.000000 1.000000
vn 0.000000 0.000000 1.000000
vn 0.000000 0.000000 1.000000
vn 0.000000 0.000000 1.000000
vn -0.259878 0.965642 0.000000
vn -0.259878 0.965642 0.000000
vn 0.870118 0.492843 0.000000
vn 0.870118 0.492843 -0.000000
vn 0.473647 -0.880715 0.000000
vn 0.473647 -0.880715 0.000000
vn 0.886690 0.462365 0.000000
vn 0.886690 0.462365 -0.000000
vn 0.413471 -0.910517 0.000000
vn 0.413471 -0.910517 0.000000
vn 0.808247 0.588843 0.000000
vn 0.808247 0.588843 -0.000000
vn 0.582142 -0.813087 0.000000
vn 0.582142 -0.813087 0.000000
vn 0.858698 0.512483 0.000000
vn 0.858698 0.512483 -0.000000
vn 0.466213 -0.884672 0.000000
vn 0.466213 -0.884672 0.000000
vn -0.869875 -0.493272 0.000000
vn -0.869875 -0.493272 0.000000
vn 0.373402 -0.927670 0.000000
vn 0.373402 -0.927670 0.000000
vn 0.974076 0.226221 0.000000
vn 0.974076 0.226221 -0.000000
vn 0.207081 -0.978324 0.000000
vn 0.207081 -0.978324 0.000000
vn -0.967864 -0.251474 0.000000
vn -0.967864 -0.251474 0.000000
vn 0.242343 -0.970191 0.000000
vn 0.242343 -0.970191 0.000000
vn -0.961750 -0.273927 0.000000
vn -0.961750 -0.273927 0.000000
usemtl assumed_base
f 16//1 1//1 2//1
f 16//2 2//2 3//2
f 4//3 5//3 6//3
f 6//4 7//4 8//4
f 8//5 9//5 10//5
f 8//6 10//6 11//6
f 8//7 11//7 12//7
f 6//8 8//8 12//8
f 12//9 13//9 14//9
f 12//10 14//10 15//10
f 6//11 12//11 15//11
f 4//12 6//12 15//12
f 3//13 4//13 15//13
f 3//14 15//14 16//14
usemtl assumed_roof
f 32//15 18//15 17//15
f 32//16 19//16 18//16
f 20//17 22//17 21//17
f 22//18 24//18 23//18
f 24//19 26//19 25//19
f 24//20 27//20 26//20
f 24//21 28//21 27//21
f 22//22 28//22 24//22
f 28//23 30//23 29//23
f 28//24 31//24 30//24
f 22//25 31//25 28//25
f 20//26 31//26 22//26
f 19//27 31//27 20//27
f 19//28 32//28 31//28
usemtl assumed_wall
f 1//29 18//29 2//29
f 1//30 17//30 18//30
f 2//31 19//31 3//31
f 2//32 18//32 19//32
f 3//33 20//33 4//33
f 3//34 19//34 20//34
f 4//35 21//35 5//35
f 4//36 20//36 21//36
f 5//37 22//37 6//37
f 5//38 21//38 22//38
f 6//39 23//39 7//39
f 6//40 22//40 23//40
f 7//41 24//41 8//41
f 7//42 23//42 24//42
f 8//43 25//43 9//43
f 8//44 24//44 25//44
f 9//45 26//45 10//45
f 9//46 25//46 26//46
f 10//47 27//47 11//47
f 10//48 26//48 27//48
f 11//49 28//49 12//49
f 11//50 27//50 28//50
f 12//51 29//51 13//51
f 12//52 28//52 29//52
f 13//53 30//53 14//53
f 13//54 29//54 30//54
f 14//55 31//55 15//55
f 14//56 30//56 31//56
f 15//57 32//57 16//57
f 15//58 31//58 32//58
f 16//59 17//59 1//59
f 16//60 32//60 17//60
