# construction_4485_assumed_A_Casa
# source A_Casa
# h_campo 0.000000
# modeled_height 6.000000
# height_kind assumed
# local_origin_world_x 172001.034850
# local_origin_world_y 402500.144600
mtllib construction_artifacts.mtl

o construction_4485_assumed_A_Casa
v -11.645000 7.602000 0.000000
v -1.436000 12.932000 0.000000
v 3.087000 14.413000 0.000000
v 4.367000 12.063000 0.000000
v -2.647000 10.176000 0.000000
v 0.006000 6.757000 0.000000
v -2.658000 4.548000 0.000000
v 4.018000 -7.743000 0.000000
v 7.703000 -4.565000 0.000000
v 11.645000 -9.088000 0.000000
v 6.522000 -11.534000 0.000000
v 2.144000 -14.413000 0.000000
v -1.737000 -8.963000 0.000000
v -2.608000 -9.711000 0.000000
v -11.119000 4.707000 0.000000
v -9.760000 5.559000 0.000000
v -11.645000 7.602000 6.000000
v -1.436000 12.932000 6.000000
v 3.087000 14.413000 6.000000
v 4.367000 12.063000 6.000000
v -2.647000 10.176000 6.000000
v 0.006000 6.757000 6.000000
v -2.658000 4.548000 6.000000
v 4.018000 -7.743000 6.000000
v 7.703000 -4.565000 6.000000
v 11.645000 -9.088000 6.000000
v 6.522000 -11.534000 6.000000
v 2.144000 -14.413000 6.000000
v -1.737000 -8.963000 6.000000
v -2.608000 -9.711000 6.000000
v -11.119000 4.707000 6.000000
v -9.760000 5.559000 6.000000
vn 0.000000 0.000000 -1.000000
vn 0.000000 0.000000 -1.000000
vn 0.000000 -0.000000 -1.000000
vn 0.000000 0.000000 -1.000000
vn 0.000000 0.000000 -1.000000
vn 0.000000 0.000000 -1.000000
vn 0.000000 0.000000 -1.000000
vn 0.000000 0.000000 -1.000000
vn 0.000000 0.000000 -1.000000
vn 0.000000 0.000000 -1.000000
vn 0.000000 0.000000 -1.000000
vn 0.000000 0.000000 -1.000000
vn 0.000000 0.000000 -1.000000
vn 0.000000 0.000000 -1.000000
vn 0.000000 -0.000000 1.000000
vn 0.000000 0.000000 1.000000
vn 0.000000 0.000000 1.000000
vn 0.000000 0.000000 1.000000
vn 0.000000 0.000000 1.000000
vn -0.000000 0.000000 1.000000
vn 0.000000 0.000000 1.000000
vn -0.000000 0.000000 1.000000
vn 0.000000 0.000000 1.000000
vn 0.000000 0.000000 1.000000
vn 0.000000 0.000000 1.000000
vn 0.000000 0.000000 1.000000
vn 0.000000 0.000000 1.000000
vn 0.000000 0.000000 1.000000
vn -0.462809 0.886458 0.000000
vn -0.462809 0.886458 0.000000
vn -0.311181 0.950351 0.000000
vn -0.311181 0.950351 0.000000
vn 0.878181 0.478328 0.000000
vn 0.878181 0.478328 -0.000000
vn 0.259796 -0.965664 0.000000
vn 0.259796 -0.965664 0.000000
vn 0.790048 0.613044 0.000000
vn 0.790048 0.613044 -0.000000
vn 0.638307 -0.769782 0.000000
vn 0.638307 -0.769782 0.000000
vn 0.878741 0.477299 0.000000
vn 0.878741 0.477299 -0.000000
vn -0.653090 0.757280 0.000000
vn -0.653090 0.757280 0.000000
vn 0.753866 0.657028 0.000000
vn 0.753866 0.657028 -0.000000
vn 0.430863 -0.902417 0.000000
vn 0.430863 -0.902417 0.000000
vn 0.549448 -0.835528 0.000000
vn 0.549448 -0.835528 0.000000
vn -0.814571 -0.580064 0.000000
vn -0.814571 -0.580064 0.000000
vn 0.651508 -0.758641 0.000000
vn 0.651508 -0.758641 0.000000
vn -0.861155 -0.508343 0.000000
vn -0.861155 -0.508343 0.000000
vn -0.531175 0.847262 0.000000
vn -0.531175 0.847262 0.000000
vn -0.734955 -0.678116 0.000000
vn -0.734955 -0.678116 0.000000
usemtl assumed_base
f 16//1 1//1 2//1
f 16//2 2//2 3//2
f 3//3 4//3 5//3
f 16//4 3//4 5//4
f 16//5 5//5 6//5
f 16//6 6//6 7//6
f 16//7 7//7 8//7
f 8//8 9//8 10//8
f 8//9 10//9 11//9
f 16//10 8//10 11//10
f 16//11 11//11 12//11
f 16//12 12//12 13//12
f 16//13 13//13 14//13
f 14//14 15//14 16//14
usemtl assumed_roof
f 32//15 18//15 17//15
f 32//16 19//16 18//16
f 19//17 21//17 20//17
f 32//18 21//18 19//18
f 32//19 22//19 21//19
f 32//20 23//20 22//20
f 32//21 24//21 23//21
f 24//22 26//22 25//22
f 24//23 27//23 26//23
f 32//24 27//24 24//24
f 32//25 28//25 27//25
f 32//26 29//26 28//26
f 32//27 30//27 29//27
f 30//28 32//28 31//28
usemtl assumed_wall
f 1//29 18//29 2//29
f 1//30 17//30 18//30
f 2//31 19//31 3//31
f 2//32 18//32 19//32
f 3//33 20//33 4//33
f 3//34 19//34 20//34
f 4//35 21//35 5//35
f 4//36 20//36 21//36
f 5//37 22//37 6//37
f 5//38 21//38 22//38
f 6//39 23//39 7//39
f 6//40 22//40 23//40
f 7//41 24//41 8//41
f 7//42 23//42 24//42
f 8//43 25//43 9//43
f 8//44 24//44 25//44
f 9//45 26//45 10//45
f 9//46 25//46 26//46
f 10//47 27//47 11//47
f 10//48 26//48 27//48
f 11//49 28//49 12//49
f 11//50 27//50 28//50
f 12//51 29//51 13//51
f 12//52 28//52 29//52
f 13//53 30//53 14//53
f 13//54 29//54 30//54
f 14//55 31//55 15//55
f 14//56 30//56 31//56
f 15//57 32//57 16//57
f 15//58 31//58 32//58
f 16//59 17//59 1//59
f 16//60 32//60 17//60
