# construction_5211_assumed_A_Casa
# source A_Casa
# h_campo 0.000000
# modeled_height 6.000000
# height_kind assumed
# local_origin_world_x 172001.034850
# local_origin_world_y 402500.144600
mtllib construction_artifacts.mtl

o construction_5211_assumed_A_Casa
v -30.536000 -2.463500 0.000000
v -22.744000 -1.368500 0.000000
v -22.385000 -2.357500 0.000000
v -16.965000 -1.833500 0.000000
v -17.211000 -0.832500 0.000000
v -14.198000 -0.554500 0.000000
v -15.181000 8.317500 0.000000
v -13.066000 8.315500 0.000000
v -13.690000 14.669500 0.000000
v 18.897000 6.963500 0.000000
v 21.592000 15.112500 0.000000
v 23.890000 21.743500 0.000000
v 27.453000 20.470500 0.000000
v 24.626000 13.367500 0.000000
v 30.536000 8.899500 0.000000
v 20.836000 -0.481500 0.000000
v 5.582000 3.072500 0.000000
v 6.839000 -13.321500 0.000000
v -6.165000 -21.743500 0.000000
v -7.115000 -14.973500 0.000000
v -9.364000 -15.027500 0.000000
v -9.163000 -17.108500 0.000000
v -15.235000 -17.249500 0.000000
v -14.529000 -20.679500 0.000000
v -20.848000 -21.123500 0.000000
v -20.903000 -19.054500 0.000000
v -25.041000 -19.815500 0.000000
v -30.536000 -2.463500 6.000000
v -22.744000 -1.368500 6.000000
v -22.385000 -2.357500 6.000000
v -16.965000 -1.833500 6.000000
v -17.211000 -0.832500 6.000000
v -14.198000 -0.554500 6.000000
v -15.181000 8.317500 6.000000
v -13.066000 8.315500 6.000000
v -13.690000 14.669500 6.000000
v 18.897000 6.963500 6.000000
v 21.592000 15.112500 6.000000
v 23.890000 21.743500 6.000000
v 27.453000 20.470500 6.000000
v 24.626000 13.367500 6.000000
v 30.536000 8.899500 6.000000
v 20.836000 -0.481500 6.000000
v 5.582000 3.072500 6.000000
v 6.839000 -13.321500 6.000000
v -6.165000 -21.743500 6.000000
v -7.115000 -14.973500 6.000000
v -9.364000 -15.027500 6.000000
v -9.163000 -17.108500 6.000000
v -15.235000 -17.249500 6.000000
v -14.529000 -20.679500 6.000000
v -20.848000 -21.123500 6.000000
v -20.903000 -19.054500 6.000000
v -25.041000 -19.815500 6.000000
v -9.098000 6.828500 0.000000
v -6.787000 -12.916500 0.000000
v -0.454000 -9.053500 0.000000
v -1.868000 8.014500 0.000000
v -4.825000 8.219500 0.000000
v -4.522000 7.015500 0.000000
v -9.098000 6.828500 6.000000
v -6.787000 -12.916500 6.000000
v -0.454000 -9.053500 6.000000
v -1.868000 8.014500 6.000000
v -4.825000 8.219500 6.000000
v -4.522000 7.015500 6.000000
vn 0.000000 0.000000 -1.000000
vn 0.000000 0.000000 -1.000000
vn 0.000000 0.000000 -1.000000
vn 0.000000 0.000000 -1.000000
vn 0.000000 0.000000 -1.000000
vn 0.000000 0.000000 -1.000000
vn 0.000000 0.000000 -1.000000
vn 0.000000 0.000000 -1.000000
vn 0.000000 0.000000 -1.000000
vn 0.000000 0.000000 -1.000000
vn 0.000000 0.000000 -1.000000
vn 0.000000 0.000000 -1.000000
vn 0.000000 0.000000 -1.000000
vn 0.000000 0.000000 -1.000000
vn 0.000000 0.000000 -1.000000
vn 0.000000 0.000000 -1.000000
vn 0.000000 -0.000000 -1.000000
vn 0.000000 0.000000 -1.000000
vn 0.000000 0.000000 -1.000000
vn 0.000000 0.000000 -1.000000
vn 0.000000 -0.000000 -1.000000
vn 0.000000 0.000000 -1.000000
vn 0.000000 -0.000000 -1.000000
vn 0.000000 0.000000 -1.000000
vn 0.000000 0.000000 -1.000000
vn 0.000000 0.000000 -1.000000
vn 0.000000 -0.000000 -1.000000
vn 0.000000 0.000000 -1.000000
vn -0.000000 0.000000 -1.000000
vn 0.000000 -0.000000 1.000000
vn 0.000000 0.000000 1.000000
vn 0.000000 0.000000 1.000000
vn 0.000000 -0.000000 1.000000
vn 0.000000 0.000000 1.000000
vn 0.000000 -0.000000 1.000000
vn -0.000000 -0.000000 1.000000
vn 0.000000 0.000000 1.000000
vn 0.000000 0.000000 1.000000
vn 0.000000 0.000000 1.000000
vn 0.000000 0.000000 1.000000
vn 0.000000 0.000000 1.000000
vn 0.000000 0.000000 1.000000
vn 0.000000 0.000000 1.000000
vn 0.000000 0.000000 1.000000
vn 0.000000 0.000000 1.000000
vn 0.000000 0.000000 1.000000
vn 0.000000 0.000000 1.000000
vn 0.000000 0.000000 1.000000
vn 0.000000 0.000000 1.000000
vn 0.000000 0.000000 1.000000
vn 0.000000 0.000000 1.000000
vn 0.000000 0.000000 1.000000
vn 0.000000 0.000000 1.000000
vn 0.000000 0.000000 1.000000
vn 0.000000 0.000000 1.000000
vn 0.000000 0.000000 1.000000
vn -0.000000 0.000000 1.000000
vn 0.000000 0.000000 1.000000
vn -0.139161 0.990270 0.000000
vn -0.139161 0.990270 0.000000
vn 0.939988 0.341209 0.000000
vn 0.939988 0.341209 -0.000000
vn -0.096230 0.995359 0.000000
vn -0.096230 0.995359 0.000000
vn -0.971105 -0.238653 0.000000
vn -0.971105 -0.238653 0.000000
vn -0.091877 0.995770 0.000000
vn -0.091877 0.995770 0.000000
vn -0.993918 -0.110124 0.000000
vn -0.993918 -0.110124 0.000000
vn 0.000946 1.000000 0.000000
vn 0.000946 1.000000 -0.000000
vn -0.995212 -0.097736 0.000000
vn -0.995212 -0.097736 0.000000
vn 0.230128 0.973160 0.000000
vn 0.230128 0.973160 -0.000000
vn -0.949426 0.313990 0.000000
vn -0.949426 0.313990 0.000000
vn -0.944869 0.327448 0.000000
vn -0.944869 0.327448 0.000000
vn 0.336454 0.941700 0.000000
vn 0.336454 0.941700 -0.000000
vn 0.929116 -0.369789 0.000000
vn 0.929116 -0.369789 0.000000
vn 0.603062 0.797694 0.000000
vn 0.603062 0.797694 -0.000000
vn 0.695188 -0.718828 0.000000
vn 0.695188 -0.718828 0.000000
vn -0.226911 -0.973916 0.000000
vn -0.226911 -0.973916 0.000000
vn 0.997073 0.076450 0.000000
vn 0.997073 0.076450 -0.000000
vn 0.543599 -0.839345 0.000000
vn 0.543599 -0.839345 0.000000
vn -0.990298 -0.138963 0.000000
vn -0.990298 -0.138963 0.000000
vn 0.024004 -0.999712 0.000000
vn 0.024004 -0.999712 0.000000
vn 0.995368 0.096141 0.000000
vn 0.995368 0.096141 -0.000000
vn 0.023215 -0.999730 0.000000
vn 0.023215 -0.999730 0.000000
vn 0.979467 0.201605 0.000000
vn 0.979467 0.201605 -0.000000
vn 0.070091 -0.997541 0.000000
vn 0.070091 -0.997541 0.000000
vn -0.999647 -0.026574 0.000000
vn -0.999647 -0.026574 0.000000
vn 0.180872 -0.983507 0.000000
vn 0.180872 -0.983507 0.000000
vn -0.953339 -0.301902 0.000000
vn -0.953339 -0.301902 0.000000
vn -0.993220 -0.116249 0.000000
vn -0.993220 -0.116249 0.000000
vn 0.520746 -0.853711 0.000000
vn 0.520746 -0.853711 0.000000
vn 0.996586 0.082562 0.000000
vn 0.996586 0.082562 -0.000000
vn 0.069161 0.997606 0.000000
vn 0.069161 0.997606 -0.000000
vn -0.969762 -0.244051 0.000000
vn -0.969762 -0.244051 0.000000
vn -0.040831 0.999166 0.000000
vn -0.040831 0.999166 0.000000
usemtl assumed_base
f 27//1 1//1 2//1
f 27//2 2//2 3//2
f 27//3 3//3 4//3
f 4//4 5//4 6//4
f 27//5 4//5 6//5
f 6//6 7//6 8//6
f 8//7 9//7 10//7
f 6//8 8//8 10//8
f 10//9 11//9 12//9
f 10//10 12//10 13//10
f 10//11 13//11 14//11
f 10//12 14//12 15//12
f 6//13 10//13 15//13
f 15//14 16//14 17//14
f 6//15 15//15 17//15
f 27//16 6//16 17//16
f 17//17 18//17 19//17
f 17//18 19//18 20//18
f 17//19 20//19 21//19
f 27//20 17//20 21//20
f 21//21 22//21 23//21
f 27//22 21//22 23//22
f 23//23 24//23 25//23
f 23//24 25//24 26//24
f 23//25 26//25 27//25
f 60//26 56//26 55//26
f 60//27 57//27 56//27
f 60//28 58//28 57//28
f 58//29 60//29 59//29
usemtl assumed_roof
f 54//30 29//30 28//30
f 54//31 30//31 29//31
f 54//32 31//32 30//32
f 31//33 33//33 32//33
f 54//34 33//34 31//34
f 33//35 35//35 34//35
f 35//36 37//36 36//36
f 33//37 37//37 35//37
f 37//38 39//38 38//38
f 37//39 40//39 39//39
f 37//40 41//40 40//40
f 37//41 42//41 41//41
f 33//42 42//42 37//42
f 42//43 44//43 43//43
f 33//44 44//44 42//44
f 54//45 44//45 33//45
f 44//46 46//46 45//46
f 44//47 47//47 46//47
f 44//48 48//48 47//48
f 54//49 48//49 44//49
f 48//50 50//50 49//50
f 54//51 50//51 48//51
f 50//52 52//52 51//52
f 50//53 53//53 52//53
f 50//54 54//54 53//54
f 66//55 61//55 62//55
f 66//56 62//56 63//56
f 66//57 63//57 64//57
f 64//58 65//58 66//58
usemtl assumed_wall
f 1//59 29//59 2//59
f 1//60 28//60 29//60
f 2//61 30//61 3//61
f 2//62 29//62 30//62
f 3//63 31//63 4//63
f 3//64 30//64 31//64
f 4//65 32//65 5//65
f 4//66 31//66 32//66
f 5//67 33//67 6//67
f 5//68 32//68 33//68
f 6//69 34//69 7//69
f 6//70 33//70 34//70
f 7//71 35//71 8//71
f 7//72 34//72 35//72
f 8//73 36//73 9//73
f 8//74 35//74 36//74
f 9//75 37//75 10//75
f 9//76 36//76 37//76
f 10//77 38//77 11//77
f 10//78 37//78 38//78
f 11//79 39//79 12//79
f 11//80 38//80 39//80
f 12//81 40//81 13//81
f 12//82 39//82 40//82
f 13//83 41//83 14//83
f 13//84 40//84 41//84
f 14//85 42//85 15//85
f 14//86 41//86 42//86
f 15//87 43//87 16//87
f 15//88 42//88 43//88
f 16//89 44//89 17//89
f 16//90 43//90 44//90
f 17//91 45//91 18//91
f 17//92 44//92 45//92
f 18//93 46//93 19//93
f 18//94 45//94 46//94
f 19//95 47//95 20//95
f 19//96 46//96 47//96
f 20//97 48//97 21//97
f 20//98 47//98 48//98
f 21//99 49//99 22//99
f 21//100 48//100 49//100
f 22//101 50//101 23//101
f 22//102 49//102 50//102
f 23//103 51//103 24//103
f 23//104 50//104 51//104
f 24//105 52//105 25//105
f 24//106 51//106 52//106
f 25//107 53//107 26//107
f 25//108 52//108 53//108
f 26//109 54//109 27//109
f 26//110 53//110 54//110
f 27//111 28//111 1//111
f 27//112 54//112 28//112
f 55//113 56//113 62//113
f 55//114 62//114 61//114
f 56//115 57//115 63//115
f 56//116 63//116 62//116
f 57//117 58//117 64//117
f 57//118 64//118 63//118
f 58//119 59//119 65//119
f 58//120 65//120 64//120
f 59//121 60//121 66//121
f 59//122 66//122 65//122
f 60//123 55//123 61//123
f 60//124 61//124 66//124
