# construction_4635_assumed_A_Casa
# source A_Casa
# h_campo 0.000000
# modeled_height 6.000000
# height_kind assumed
# local_origin_world_x 172001.034850
# local_origin_world_y 402500.144600
mtllib construction_artifacts.mtl

o construction_4635_assumed_A_Casa
v -9.017500 3.713000 0.000000
v -7.482500 9.131000 0.000000
v 1.051500 5.954000 0.000000
v 1.598500 6.967000 0.000000
v 3.106500 6.129000 0.000000
v 3.741500 7.759000 0.000000
v 8.038500 5.884000 0.000000
v 9.017500 -6.794000 0.000000
v 5.165500 -7.085000 0.000000
v 4.587500 -9.131000 0.000000
v -2.674500 -7.097000 0.000000
v -1.597500 -2.545000 0.000000
v -3.353500 -1.135000 0.000000
v -3.124500 1.045000 0.000000
v -9.017500 3.713000 6.000000
v -7.482500 9.131000 6.000000
v 1.051500 5.954000 6.000000
v 1.598500 6.967000 6.000000
v 3.106500 6.129000 6.000000
v 3.741500 7.759000 6.000000
v 8.038500 5.884000 6.000000
v 9.017500 -6.794000 6.000000
v 5.165500 -7.085000 6.000000
v 4.587500 -9.131000 6.000000
v -2.674500 -7.097000 6.000000
v -1.597500 -2.545000 6.000000
v -3.353500 -1.135000 6.000000
v -3.124500 1.045000 6.000000
vn 0.000000 0.000000 -1.000000
vn 0.000000 0.000000 -1.000000
vn 0.000000 0.000000 -1.000000
vn 0.000000 0.000000 -1.000000
vn 0.000000 0.000000 -1.000000
vn 0.000000 0.000000 -1.000000
vn 0.000000 0.000000 -1.000000
vn 0.000000 0.000000 -1.000000
vn 0.000000 0.000000 -1.000000
vn 0.000000 0.000000 -1.000000
vn 0.000000 0.000000 -1.000000
vn 0.000000 0.000000 -1.000000
vn 0.000000 0.000000 1.000000
vn 0.000000 -0.000000 1.000000
vn 0.000000 0.000000 1.000000
vn 0.000000 0.000000 1.000000
vn -0.000000 0.000000 1.000000
vn 0.000000 0.000000 1.000000
vn -0.000000 0.000000 1.000000
vn 0.000000 0.000000 1.000000
vn 0.000000 0.000000 1.000000
vn 0.000000 0.000000 1.000000
vn 0.000000 0.000000 1.000000
vn 0.000000 0.000000 1.000000
vn -0.962131 0.272586 0.000000
vn -0.962131 0.272586 0.000000
vn 0.348884 0.937166 0.000000
vn 0.348884 0.937166 -0.000000
vn -0.879913 0.475135 0.000000
vn -0.879913 0.475135 0.000000
vn 0.485741 0.874103 0.000000
vn 0.485741 0.874103 -0.000000
vn -0.931790 0.362998 0.000000
vn -0.931790 0.362998 0.000000
vn 0.399935 0.916544 0.000000
vn 0.399935 0.916544 -0.000000
vn 0.997032 0.076991 0.000000
vn 0.997032 0.076991 -0.000000
vn 0.075331 -0.997159 0.000000
vn 0.075331 -0.997159 0.000000
vn 0.962336 -0.271862 0.000000
vn 0.962336 -0.271862 0.000000
vn -0.269709 -0.962942 0.000000
vn -0.269709 -0.962942 0.000000
vn -0.973133 0.230243 0.000000
vn -0.973133 0.230243 0.000000
vn -0.626102 -0.779741 0.000000
vn -0.626102 -0.779741 0.000000
vn -0.994528 0.104471 0.000000
vn -0.994528 0.104471 0.000000
vn -0.412440 -0.910985 0.000000
vn -0.412440 -0.910985 0.000000
usemtl assumed_base
f 14//1 1//1 2//1
f 14//2 2//2 3//2
f 3//3 4//3 5//3
f 14//4 3//4 5//4
f 5//5 6//5 7//5
f 14//6 5//6 7//6
f 14//7 7//7 8//7
f 14//8 8//8 9//8
f 14//9 9//9 10//9
f 10//10 11//10 12//10
f 14//11 10//11 12//11
f 12//12 13//12 14//12
usemtl assumed_roof
f 28//13 16//13 15//13
f 28//14 17//14 16//14
f 17//15 19//15 18//15
f 28//16 19//16 17//16
f 19//17 21//17 20//17
f 28//18 21//18 19//18
f 28//19 22//19 21//19
f 28//20 23//20 22//20
f 28//21 24//21 23//21
f 24//22 26//22 25//22
f 28//23 26//23 24//23
f 26//24 28//24 27//24
usemtl assumed_wall
f 1//25 16//25 2//25
f 1//26 15//26 16//26
f 2//27 17//27 3//27
f 2//28 16//28 17//28
f 3//29 18//29 4//29
f 3//30 17//30 18//30
f 4//31 19//31 5//31
f 4//32 18//32 19//32
f 5//33 20//33 6//33
f 5//34 19//34 20//34
f 6//35 21//35 7//35
f 6//36 20//36 21//36
f 7//37 22//37 8//37
f 7//38 21//38 22//38
f 8//39 23//39 9//39
f 8//40 22//40 23//40
f 9//41 24//41 10//41
f 9//42 23//42 24//42
f 10//43 25//43 11//43
f 10//44 24//44 25//44
f 11//45 26//45 12//45
f 11//46 25//46 26//46
f 12//47 27//47 13//47
f 12//48 26//48 27//48
f 13//49 28//49 14//49
f 13//50 27//50 28//50
f 14//51 15//51 1//51
f 14//52 28//52 15//52
