# construction_3140_assumed_A_Casa
# source A_Casa
# h_campo 0.000000
# modeled_height 6.000000
# height_kind assumed
# local_origin_world_x 172001.034850
# local_origin_world_y 402500.144600
mtllib construction_artifacts.mtl

o construction_3140_assumed_A_Casa
v -7.580000 15.305000 0.000000
v 4.477000 19.934000 0.000000
v 7.311000 11.500000 0.000000
v 13.652000 13.341000 0.000000
v 14.462000 10.621000 0.000000
v 8.909000 9.158000 0.000000
v 22.597000 -10.559000 0.000000
v 15.549000 -15.408000 0.000000
v 13.158000 -11.873000 0.000000
v 10.353000 -14.266000 0.000000
v 8.738000 -16.597000 0.000000
v 7.472000 -15.874000 0.000000
v 6.098000 -19.934000 0.000000
v 1.317000 -18.963000 0.000000
v -2.215000 -17.399000 0.000000
v -8.813000 -12.490000 0.000000
v -10.945000 -8.585000 0.000000
v -16.699000 -3.117000 0.000000
v -22.226000 2.878000 0.000000
v -22.597000 6.070000 0.000000
v -21.636000 7.650000 0.000000
v -11.196000 12.375000 0.000000
v -7.032000 14.640000 0.000000
v -7.580000 15.305000 6.000000
v 4.477000 19.934000 6.000000
v 7.311000 11.500000 6.000000
v 13.652000 13.341000 6.000000
v 14.462000 10.621000 6.000000
v 8.909000 9.158000 6.000000
v 22.597000 -10.559000 6.000000
v 15.549000 -15.408000 6.000000
v 13.158000 -11.873000 6.000000
v 10.353000 -14.266000 6.000000
v 8.738000 -16.597000 6.000000
v 7.472000 -15.874000 6.000000
v 6.098000 -19.934000 6.000000
v 1.317000 -18.963000 6.000000
v -2.215000 -17.399000 6.000000
v -8.813000 -12.490000 6.000000
v -10.945000 -8.585000 6.000000
v -16.699000 -3.117000 6.000000
v -22.226000 2.878000 6.000000
v -22.597000 6.070000 6.000000
v -21.636000 7.650000 6.000000
v -11.196000 12.375000 6.000000
v -7.032000 14.640000 6.000000
vn 0.000000 0.000000 -1.000000
vn 0.000000 0.000000 -1.000000
vn 0.000000 0.000000 -1.000000
vn 0.000000 0.000000 -1.000000
vn 0.000000 0.000000 -1.000000
vn 0.000000 0.000000 -1.000000
vn 0.000000 0.000000 -1.000000
vn 0.000000 0.000000 -1.000000
vn 0.000000 0.000000 -1.000000
vn 0.000000 0.000000 -1.000000
vn 0.000000 0.000000 -1.000000
vn 0.000000 0.000000 -1.000000
vn 0.000000 0.000000 -1.000000
vn 0.000000 0.000000 -1.000000
vn 0.000000 -0.000000 -1.000000
vn 0.000000 0.000000 -1.000000
vn 0.000000 0.000000 -1.000000
vn 0.000000 0.000000 -1.000000
vn 0.000000 0.000000 -1.000000
vn 0.000000 0.000000 -1.000000
vn 0.000000 0.000000 -1.000000
vn 0.000000 -0.000000 1.000000
vn -0.000000 0.000000 1.000000
vn -0.000000 0.000000 1.000000
vn 0.000000 0.000000 1.000000
vn 0.000000 0.000000 1.000000
vn 0.000000 0.000000 1.000000
vn 0.000000 0.000000 1.000000
vn 0.000000 0.000000 1.000000
vn 0.000000 0.000000 1.000000
vn 0.000000 0.000000 1.000000
vn 0.000000 0.000000 1.000000
vn 0.000000 0.000000 1.000000
vn 0.000000 0.000000 1.000000
vn 0.000000 0.000000 1.000000
vn 0.000000 0.000000 1.000000
vn 0.000000 0.000000 1.000000
vn 0.000000 0.000000 1.000000
vn 0.000000 0.000000 1.000000
vn 0.000000 0.000000 1.000000
vn 0.000000 0.000000 1.000000
vn 0.000000 0.000000 1.000000
vn -0.358419 0.933561 0.000000
vn -0.358419 0.933561 0.000000
vn 0.947916 0.318520 0.000000
vn 0.947916 0.318520 -0.000000
vn -0.278819 0.960344 0.000000
vn -0.278819 0.960344 0.000000
vn 0.958406 0.285408 0.000000
vn 0.958406 0.285408 -0.000000
vn 0.254768 -0.967002 0.000000
vn 0.254768 -0.967002 0.000000
vn 0.821455 0.570273 0.000000
vn 0.821455 0.570273 -0.000000
vn 0.566807 -0.823851 0.000000
vn 0.566807 -0.823851 0.000000
vn -0.828319 -0.560257 0.000000
vn -0.828319 -0.560257 0.000000
vn 0.649025 -0.760767 0.000000
vn 0.649025 -0.760767 0.000000
vn 0.821989 -0.569503 0.000000
vn 0.821989 -0.569503 0.000000
vn -0.495917 -0.868370 0.000000
vn -0.495917 -0.868370 0.000000
vn 0.947227 -0.320564 0.000000
vn 0.947227 -0.320564 0.000000
vn -0.199032 -0.979993 0.000000
vn -0.199032 -0.979993 0.000000
vn -0.404889 -0.914366 0.000000
vn -0.404889 -0.914366 0.000000
vn -0.596922 -0.802300 0.000000
vn -0.596922 -0.802300 0.000000
vn -0.877707 -0.479199 0.000000
vn -0.877707 -0.479199 0.000000
vn -0.688862 -0.724892 0.000000
vn -0.688862 -0.724892 0.000000
vn -0.735222 -0.677827 0.000000
vn -0.735222 -0.677827 0.000000
vn -0.993313 -0.115451 0.000000
vn -0.993313 -0.115451 0.000000
vn -0.854376 0.519655 0.000000
vn -0.854376 0.519655 0.000000
vn -0.412323 0.911038 0.000000
vn -0.412323 0.911038 0.000000
vn -0.477832 0.878451 0.000000
vn -0.477832 0.878451 0.000000
vn -0.771729 -0.635951 0.000000
vn -0.771729 -0.635951 0.000000
usemtl assumed_base
f 23//1 1//1 2//1
f 23//2 2//2 3//2
f 3//3 4//3 5//3
f 3//4 5//4 6//4
f 23//5 3//5 6//5
f 23//6 6//6 7//6
f 7//7 8//7 9//7
f 23//8 7//8 9//8
f 23//9 9//9 10//9
f 23//10 10//10 11//10
f 23//11 11//11 12//11
f 23//12 12//12 13//12
f 23//13 13//13 14//13
f 23//14 14//14 15//14
f 23//15 15//15 16//15
f 23//16 16//16 17//16
f 23//17 17//17 18//17
f 23//18 18//18 19//18
f 23//19 19//19 20//19
f 20//20 21//20 22//20
f 20//21 22//21 23//21
usemtl assumed_roof
f 46//22 25//22 24//22
f 46//23 26//23 25//23
f 26//24 28//24 27//24
f 26//25 29//25 28//25
f 46//26 29//26 26//26
f 46//27 30//27 29//27
f 30//28 32//28 31//28
f 46//29 32//29 30//29
f 46//30 33//30 32//30
f 46//31 34//31 33//31
f 46//32 35//32 34//32
f 46//33 36//33 35//33
f 46//34 37//34 36//34
f 46//35 38//35 37//35
f 46//36 39//36 38//36
f 46//37 40//37 39//37
f 46//38 41//38 40//38
f 46//39 42//39 41//39
f 46//40 43//40 42//40
f 43//41 45//41 44//41
f 43//42 46//42 45//42
usemtl assumed_wall
f 1//43 25//43 2//43
f 1//44 24//44 25//44
f 2//45 26//45 3//45
f 2//46 25//46 26//46
f 3//47 27//47 4//47
f 3//48 26//48 27//48
f 4//49 28//49 5//49
f 4//50 27//50 28//50
f 5//51 29//51 6//51
f 5//52 28//52 29//52
f 6//53 30//53 7//53
f 6//54 29//54 30//54
f 7//55 31//55 8//55
f 7//56 30//56 31//56
f 8//57 32//57 9//57
f 8//58 31//58 32//58
f 9//59 33//59 10//59
f 9//60 32//60 33//60
f 10//61 34//61 11//61
f 10//62 33//62 34//62
f 11//63 35//63 12//63
f 11//64 34//64 35//64
f 12//65 36//65 13//65
f 12//66 35//66 36//66
f 13//67 37//67 14//67
f 13//68 36//68 37//68
f 14//69 38//69 15//69
f 14//70 37//70 38//70
f 15//71 39//71 16//71
f 15//72 38//72 39//72
f 16//73 40//73 17//73
f 16//74 39//74 40//74
f 17//75 41//75 18//75
f 17//76 40//76 41//76
f 18//77 42//77 19//77
f 18//78 41//78 42//78
f 19//79 43//79 20//79
f 19//80 42//80 43//80
f 20//81 44//81 21//81
f 20//82 43//82 44//82
f 21//83 45//83 22//83
f 21//84 44//84 45//84
f 22//85 46//85 23//85
f 22//86 45//86 46//86
f 23//87 24//87 1//87
f 23//88 46//88 24//88
