# construction_2844_assumed_A_Casa
# source A_Casa
# h_campo 0.000000
# modeled_height 6.000000
# height_kind assumed
# local_origin_world_x 172001.034850
# local_origin_world_y 402500.144600
mtllib construction_artifacts.mtl

o construction_2844_assumed_A_Casa
v 4.296500 14.085500 0.000000
v 12.666500 12.116500 0.000000
v 11.362500 4.875500 0.000000
v 5.425500 6.097500 0.000000
v 4.871500 2.920500 0.000000
v 13.735500 0.826500 0.000000
v 10.412500 -14.771500 0.000000
v 5.815500 -13.694500 0.000000
v 5.106500 -16.038500 0.000000
v -2.310500 -15.126500 0.000000
v -13.735500 -11.744500 0.000000
v -10.228500 2.515500 0.000000
v -6.315500 1.573500 0.000000
v -6.308500 0.245500 0.000000
v 0.630500 -1.236500 0.000000
v 1.897500 3.385500 0.000000
v -9.223500 6.415500 0.000000
v -7.095500 16.038500 0.000000
v 4.060500 13.350500 0.000000
v 4.296500 14.085500 6.000000
v 12.666500 12.116500 6.000000
v 11.362500 4.875500 6.000000
v 5.425500 6.097500 6.000000
v 4.871500 2.920500 6.000000
v 13.735500 0.826500 6.000000
v 10.412500 -14.771500 6.000000
v 5.815500 -13.694500 6.000000
v 5.106500 -16.038500 6.000000
v -2.310500 -15.126500 6.000000
v -13.735500 -11.744500 6.000000
v -10.228500 2.515500 6.000000
v -6.315500 1.573500 6.000000
v -6.308500 0.245500 6.000000
v 0.630500 -1.236500 6.000000
v 1.897500 3.385500 6.000000
v -9.223500 6.415500 6.000000
v -7.095500 16.038500 6.000000
v 4.060500 13.350500 6.000000
vn 0.000000 0.000000 -1.000000
vn 0.000000 0.000000 -1.000000
vn 0.000000 0.000000 -1.000000
vn 0.000000 0.000000 -1.000000
vn 0.000000 0.000000 -1.000000
vn 0.000000 0.000000 -1.000000
vn 0.000000 0.000000 -1.000000
vn 0.000000 0.000000 -1.000000
vn 0.000000 0.000000 -1.000000
vn 0.000000 0.000000 -1.000000
vn 0.000000 0.000000 -1.000000
vn 0.000000 0.000000 -1.000000
vn 0.000000 0.000000 -1.000000
vn 0.000000 0.000000 -1.000000
vn 0.000000 -0.000000 -1.000000
vn 0.000000 0.000000 -1.000000
vn 0.000000 0.000000 -1.000000
vn -0.000000 0.000000 1.000000
vn 0.000000 0.000000 1.000000
vn 0.000000 0.000000 1.000000
vn 0.000000 0.000000 1.000000
vn 0.000000 0.000000 1.000000
vn 0.000000 0.000000 1.000000
vn 0.000000 0.000000 1.000000
vn 0.000000 0.000000 1.000000
vn 0.000000 0.000000 1.000000
vn 0.000000 0.000000 1.000000
vn 0.000000 0.000000 1.000000
vn 0.000000 0.000000 1.000000
vn 0.000000 0.000000 1.000000
vn 0.000000 0.000000 1.000000
vn 0.000000 0.000000 1.000000
vn 0.000000 0.000000 1.000000
vn 0.000000 0.000000 1.000000
vn 0.228994 0.973428 0.000000
vn 0.228994 0.973428 -0.000000
vn 0.984169 -0.177235 0.000000
vn 0.984169 -0.177235 0.000000
vn -0.201602 -0.979468 0.000000
vn -0.201602 -0.979468 0.000000
vn 0.985134 -0.171786 0.000000
vn 0.985134 -0.171786 0.000000
vn 0.229908 0.973212 0.000000
vn 0.229908 0.973212 -0.000000
vn 0.978051 -0.208364 0.000000
vn 0.978051 -0.208364 0.000000
vn -0.228107 -0.973636 0.000000
vn -0.228107 -0.973636 0.000000
vn 0.957172 -0.289520 0.000000
vn 0.957172 -0.289520 0.000000
vn -0.122042 -0.992525 0.000000
vn -0.122042 -0.992525 0.000000
vn -0.283843 -0.958871 0.000000
vn -0.283843 -0.958871 0.000000
vn -0.971065 0.238817 0.000000
vn -0.971065 0.238817 0.000000
vn 0.234049 0.972225 0.000000
vn 0.234049 0.972225 -0.000000
vn 0.999986 0.005271 0.000000
vn 0.999986 0.005271 -0.000000
vn 0.208865 0.977944 0.000000
vn 0.208865 0.977944 -0.000000
vn -0.964421 0.264371 0.000000
vn -0.964421 0.264371 0.000000
vn -0.262875 -0.964830 0.000000
vn -0.262875 -0.964830 0.000000
vn -0.976411 0.215920 0.000000
vn -0.976411 0.215920 0.000000
vn 0.234243 0.972178 0.000000
vn 0.234243 0.972178 -0.000000
vn -0.952123 0.305716 0.000000
vn -0.952123 0.305716 0.000000
usemtl assumed_base
f 19//1 1//1 2//1
f 19//2 2//2 3//2
f 19//3 3//3 4//3
f 19//4 4//4 5//4
f 5//5 6//5 7//5
f 5//6 7//6 8//6
f 19//7 5//7 8//7
f 19//8 8//8 9//8
f 9//9 10//9 11//9
f 9//10 11//10 12//10
f 12//11 13//11 14//11
f 9//12 12//12 14//12
f 9//13 14//13 15//13
f 9//14 15//14 16//14
f 19//15 9//15 16//15
f 19//16 16//16 17//16
f 17//17 18//17 19//17
usemtl assumed_roof
f 38//18 21//18 20//18
f 38//19 22//19 21//19
f 38//20 23//20 22//20
f 38//21 24//21 23//21
f 24//22 26//22 25//22
f 24//23 27//23 26//23
f 38//24 27//24 24//24
f 38//25 28//25 27//25
f 28//26 30//26 29//26
f 28//27 31//27 30//27
f 31//28 33//28 32//28
f 28//29 33//29 31//29
f 28//30 34//30 33//30
f 28//31 35//31 34//31
f 38//32 35//32 28//32
f 38//33 36//33 35//33
f 36//34 38//34 37//34
usemtl assumed_wall
f 1//35 21//35 2//35
f 1//36 20//36 21//36
f 2//37 22//37 3//37
f 2//38 21//38 22//38
f 3//39 23//39 4//39
f 3//40 22//40 23//40
f 4//41 24//41 5//41
f 4//42 23//42 24//42
f 5//43 25//43 6//43
f 5//44 24//44 25//44
f 6//45 26//45 7//45
f 6//46 25//46 26//46
f 7//47 27//47 8//47
f 7//48 26//48 27//48
f 8//49 28//49 9//49
f 8//50 27//50 28//50
f 9//51 29//51 10//51
f 9//52 28//52 29//52
f 10//53 30//53 11//53
f 10//54 29//54 30//54
f 11//55 31//55 12//55
f 11//56 30//56 31//56
f 12//57 32//57 13//57
f 12//58 31//58 32//58
f 13//59 33//59 14//59
f 13//60 32//60 33//60
f 14//61 34//61 15//61
f 14//62 33//62 34//62
f 15//63 35//63 16//63
f 15//64 34//64 35//64
f 16//65 36//65 17//65
f 16//66 35//66 36//66
f 17//67 37//67 18//67
f 17//68 36//68 37//68
f 18//69 38//69 19//69
f 18//70 37//70 38//70
f 19//71 20//71 1//71
f 19//72 38//72 20//72
