# construction_1541_assumed_A_Casa
# source A_Casa
# h_campo 0.000000
# modeled_height 6.000000
# height_kind assumed
# local_origin_world_x 172001.034850
# local_origin_world_y 402500.144600
mtllib construction_artifacts.mtl

o construction_1541_assumed_A_Casa
v -0.277000 10.633000 0.000000
v 0.037000 11.301000 0.000000
v 3.740000 10.860000 0.000000
v 4.462000 11.487000 0.000000
v 5.880000 11.890000 0.000000
v 6.933000 11.843000 0.000000
v 7.918000 11.115000 0.000000
v 8.068000 10.342000 0.000000
v 12.389000 9.825000 0.000000
v 11.406000 2.813000 0.000000
v 10.373000 2.846000 0.000000
v 9.750000 -1.404000 0.000000
v 8.709000 -3.584000 0.000000
v -4.184000 -1.322000 0.000000
v -5.225000 -7.554000 0.000000
v -6.255000 -11.890000 0.000000
v -12.389000 -10.688000 0.000000
v -11.612000 -6.283000 0.000000
v -8.889000 8.058000 0.000000
v -1.485000 7.351000 0.000000
v -1.204000 10.617000 0.000000
v -0.277000 10.633000 6.000000
v 0.037000 11.301000 6.000000
v 3.740000 10.860000 6.000000
v 4.462000 11.487000 6.000000
v 5.880000 11.890000 6.000000
v 6.933000 11.843000 6.000000
v 7.918000 11.115000 6.000000
v 8.068000 10.342000 6.000000
v 12.389000 9.825000 6.000000
v 11.406000 2.813000 6.000000
v 10.373000 2.846000 6.000000
v 9.750000 -1.404000 6.000000
v 8.709000 -3.584000 6.000000
v -4.184000 -1.322000 6.000000
v -5.225000 -7.554000 6.000000
v -6.255000 -11.890000 6.000000
v -12.389000 -10.688000 6.000000
v -11.612000 -6.283000 6.000000
v -8.889000 8.058000 6.000000
v -1.485000 7.351000 6.000000
v -1.204000 10.617000 6.000000
vn 0.000000 0.000000 -1.000000
vn 0.000000 0.000000 -1.000000
vn 0.000000 0.000000 -1.000000
vn 0.000000 0.000000 -1.000000
vn 0.000000 0.000000 -1.000000
vn 0.000000 0.000000 -1.000000
vn 0.000000 0.000000 -1.000000
vn 0.000000 0.000000 -1.000000
vn 0.000000 0.000000 -1.000000
vn 0.000000 0.000000 -1.000000
vn 0.000000 0.000000 -1.000000
vn 0.000000 0.000000 -1.000000
vn 0.000000 0.000000 -1.000000
vn 0.000000 0.000000 -1.000000
vn 0.000000 0.000000 -1.000000
vn -0.000000 0.000000 -1.000000
vn 0.000000 0.000000 -1.000000
vn 0.000000 0.000000 -1.000000
vn 0.000000 0.000000 -1.000000
vn 0.000000 0.000000 1.000000
vn 0.000000 0.000000 1.000000
vn 0.000000 0.000000 1.000000
vn 0.000000 0.000000 1.000000
vn -0.000000 0.000000 1.000000
vn -0.000000 0.000000 1.000000
vn -0.000000 0.000000 1.000000
vn 0.000000 0.000000 1.000000
vn 0.000000 0.000000 1.000000
vn 0.000000 0.000000 1.000000
vn 0.000000 0.000000 1.000000
vn 0.000000 0.000000 1.000000
vn 0.000000 0.000000 1.000000
vn 0.000000 0.000000 1.000000
vn 0.000000 0.000000 1.000000
vn 0.000000 0.000000 1.000000
vn 0.000000 0.000000 1.000000
vn 0.000000 0.000000 1.000000
vn 0.000000 0.000000 1.000000
vn -0.905003 0.425406 0.000000
vn -0.905003 0.425406 0.000000
vn 0.118257 0.992983 0.000000
vn 0.118257 0.992983 -0.000000
vn -0.655687 0.755033 0.000000
vn -0.655687 0.755033 0.000000
vn -0.273377 0.961907 0.000000
vn -0.273377 0.961907 0.000000
vn 0.044590 0.999005 0.000000
vn 0.044590 0.999005 -0.000000
vn 0.594368 0.804193 0.000000
vn 0.594368 0.804193 -0.000000
vn 0.981688 0.190496 0.000000
vn 0.981688 0.190496 -0.000000
vn 0.118801 0.992918 0.000000
vn 0.118801 0.992918 -0.000000
vn 0.990316 -0.138831 0.000000
vn 0.990316 -0.138831 0.000000
vn -0.031930 -0.999490 0.000000
vn -0.031930 -0.999490 0.000000
vn 0.989426 -0.145038 0.000000
vn 0.989426 -0.145038 0.000000
vn 0.902393 -0.430913 0.000000
vn 0.902393 -0.430913 0.000000
vn -0.172805 -0.984956 0.000000
vn -0.172805 -0.984956 0.000000
vn 0.986334 -0.164758 0.000000
vn 0.986334 -0.164758 0.000000
vn 0.972926 -0.231115 0.000000
vn 0.972926 -0.231115 0.000000
vn -0.192300 -0.981336 0.000000
vn -0.192300 -0.981336 0.000000
vn -0.984797 0.173709 0.000000
vn -0.984797 0.173709 0.000000
vn -0.982447 0.186542 0.000000
vn -0.982447 0.186542 0.000000
vn 0.095057 0.995472 0.000000
vn 0.095057 0.995472 -0.000000
vn -0.996319 0.085721 0.000000
vn -0.996319 0.085721 0.000000
vn -0.017257 0.999851 0.000000
vn -0.017257 0.999851 0.000000
usemtl assumed_base
f 1//1 2//1 3//1
f 3//2 4//2 5//2
f 3//3 5//3 6//3
f 3//4 6//4 7//4
f 3//5 7//5 8//5
f 1//6 3//6 8//6
f 21//7 1//7 8//7
f 21//8 8//8 9//8
f 21//9 9//9 10//9
f 21//10 10//10 11//10
f 21//11 11//11 12//11
f 21//12 12//12 13//12
f 14//13 15//13 16//13
f 14//14 16//14 17//14
f 14//15 17//15 18//15
f 14//16 18//16 19//16
f 13//17 14//17 19//17
f 13//18 19//18 20//18
f 13//19 20//19 21//19
usemtl assumed_roof
f 22//20 24//20 23//20
f 24//21 26//21 25//21
f 24//22 27//22 26//22
f 24//23 28//23 27//23
f 24//24 29//24 28//24
f 22//25 29//25 24//25
f 42//26 29//26 22//26
f 42//27 30//27 29//27
f 42//28 31//28 30//28
f 42//29 32//29 31//29
f 42//30 33//30 32//30
f 42//31 34//31 33//31
f 35//32 37//32 36//32
f 35//33 38//33 37//33
f 35//34 39//34 38//34
f 35//35 40//35 39//35
f 34//36 40//36 35//36
f 34//37 41//37 40//37
f 34//38 42//38 41//38
usemtl assumed_wall
f 1//39 23//39 2//39
f 1//40 22//40 23//40
f 2//41 24//41 3//41
f 2//42 23//42 24//42
f 3//43 25//43 4//43
f 3//44 24//44 25//44
f 4//45 26//45 5//45
f 4//46 25//46 26//46
f 5//47 27//47 6//47
f 5//48 26//48 27//48
f 6//49 28//49 7//49
f 6//50 27//50 28//50
f 7//51 29//51 8//51
f 7//52 28//52 29//52
f 8//53 30//53 9//53
f 8//54 29//54 30//54
f 9//55 31//55 10//55
f 9//56 30//56 31//56
f 10//57 32//57 11//57
f 10//58 31//58 32//58
f 11//59 33//59 12//59
f 11//60 32//60 33//60
f 12//61 34//61 13//61
f 12//62 33//62 34//62
f 13//63 35//63 14//63
f 13//64 34//64 35//64
f 14//65 36//65 15//65
f 14//66 35//66 36//66
f 15//67 37//67 16//67
f 15//68 36//68 37//68
f 16//69 38//69 17//69
f 16//70 37//70 38//70
f 17//71 39//71 18//71
f 17//72 38//72 39//72
f 18//73 40//73 19//73
f 18//74 39//74 40//74
f 19//75 41//75 20//75
f 19//76 40//76 41//76
f 20//77 42//77 21//77
f 20//78 41//78 42//78
f 21//79 22//79 1//79
f 21//80 42//80 22//80
