# construction_6464_assumed_A_Casa
# source A_Casa
# h_campo 0.000000
# modeled_height 6.000000
# height_kind assumed
# local_origin_world_x 172001.034850
# local_origin_world_y 402500.144600
mtllib construction_artifacts.mtl

o construction_6464_assumed_A_Casa
v -0.429000 -9.461500 0.000000
v 5.009000 -10.191500 0.000000
v 6.213000 -3.092500 0.000000
v 10.150000 -3.786500 0.000000
v 8.218000 -14.924500 0.000000
v -8.484000 -12.103500 0.000000
v -10.150000 12.445500 0.000000
v -6.288000 12.374500 0.000000
v -6.489000 14.626500 0.000000
v 0.797000 14.924500 0.000000
v 0.796000 13.971500 0.000000
v 6.995000 14.177500 0.000000
v 7.811000 3.434500 0.000000
v 3.604000 3.142500 0.000000
v 3.602000 1.843500 0.000000
v 3.034000 -2.727500 0.000000
v -4.243000 -2.720500 0.000000
v -3.970000 -9.441500 0.000000
v -0.530000 -10.026500 0.000000
v -0.429000 -9.461500 6.000000
v 5.009000 -10.191500 6.000000
v 6.213000 -3.092500 6.000000
v 10.150000 -3.786500 6.000000
v 8.218000 -14.924500 6.000000
v -8.484000 -12.103500 6.000000
v -10.150000 12.445500 6.000000
v -6.288000 12.374500 6.000000
v -6.489000 14.626500 6.000000
v 0.797000 14.924500 6.000000
v 0.796000 13.971500 6.000000
v 6.995000 14.177500 6.000000
v 7.811000 3.434500 6.000000
v 3.604000 3.142500 6.000000
v 3.602000 1.843500 6.000000
v 3.034000 -2.727500 6.000000
v -4.243000 -2.720500 6.000000
v -3.970000 -9.441500 6.000000
v -0.530000 -10.026500 6.000000
vn 0.000000 0.000000 -1.000000
vn 0.000000 0.000000 -1.000000
vn 0.000000 0.000000 -1.000000
vn 0.000000 0.000000 -1.000000
vn 0.000000 -0.000000 -1.000000
vn 0.000000 0.000000 -1.000000
vn 0.000000 0.000000 -1.000000
vn 0.000000 0.000000 -1.000000
vn 0.000000 0.000000 -1.000000
vn 0.000000 0.000000 -1.000000
vn 0.000000 0.000000 -1.000000
vn 0.000000 0.000000 -1.000000
vn 0.000000 0.000000 -1.000000
vn 0.000000 -0.000000 -1.000000
vn 0.000000 0.000000 -1.000000
vn 0.000000 0.000000 -1.000000
vn 0.000000 0.000000 -1.000000
vn -0.000000 0.000000 1.000000
vn 0.000000 0.000000 1.000000
vn -0.000000 0.000000 1.000000
vn 0.000000 0.000000 1.000000
vn 0.000000 0.000000 1.000000
vn 0.000000 -0.000000 1.000000
vn 0.000000 -0.000000 1.000000
vn 0.000000 0.000000 1.000000
vn 0.000000 0.000000 1.000000
vn -0.000000 0.000000 1.000000
vn 0.000000 0.000000 1.000000
vn 0.000000 0.000000 1.000000
vn 0.000000 0.000000 1.000000
vn 0.000000 0.000000 1.000000
vn 0.000000 0.000000 1.000000
vn 0.000000 0.000000 1.000000
vn 0.000000 0.000000 1.000000
vn 0.133047 0.991110 0.000000
vn 0.133047 0.991110 -0.000000
vn -0.985921 0.167213 0.000000
vn -0.985921 0.167213 0.000000
vn 0.173600 0.984816 0.000000
vn 0.173600 0.984816 -0.000000
vn 0.985287 -0.170908 0.000000
vn 0.985287 -0.170908 0.000000
vn -0.166543 -0.986034 0.000000
vn -0.166543 -0.986034 0.000000
vn -0.997705 -0.067709 0.000000
vn -0.997705 -0.067709 0.000000
vn 0.018381 0.999831 0.000000
vn 0.018381 0.999831 -0.000000
vn -0.996041 -0.088901 0.000000
vn -0.996041 -0.088901 0.000000
vn -0.040866 0.999165 0.000000
vn -0.040866 0.999165 0.000000
vn 0.999999 -0.001049 0.000000
vn 0.999999 -0.001049 0.000000
vn -0.033213 0.999448 0.000000
vn -0.033213 0.999448 0.000000
vn 0.997128 0.075738 0.000000
vn 0.997128 0.075738 -0.000000
vn 0.069242 -0.997600 0.000000
vn 0.069242 -0.997600 0.000000
vn 0.999999 -0.001540 0.000000
vn 0.999999 -0.001540 0.000000
vn 0.992368 -0.123313 0.000000
vn 0.992368 -0.123313 0.000000
vn -0.000962 -1.000000 0.000000
vn -0.000962 -1.000000 0.000000
vn 0.999176 0.040585 0.000000
vn 0.999176 0.040585 -0.000000
vn 0.167651 0.985846 0.000000
vn 0.167651 0.985846 -0.000000
vn -0.984395 0.175972 0.000000
vn -0.984395 0.175972 0.000000
usemtl assumed_base
f 19//1 1//1 2//1
f 2//2 3//2 4//2
f 2//3 4//3 5//3
f 19//4 2//4 5//4
f 19//5 5//5 6//5
f 6//6 7//6 8//6
f 8//7 9//7 10//7
f 6//8 8//8 10//8
f 6//9 10//9 11//9
f 11//10 12//10 13//10
f 11//11 13//11 14//11
f 11//12 14//12 15//12
f 11//13 15//13 16//13
f 11//14 16//14 17//14
f 6//15 11//15 17//15
f 6//16 17//16 18//16
f 6//17 18//17 19//17
usemtl assumed_roof
f 38//18 21//18 20//18
f 21//19 23//19 22//19
f 21//20 24//20 23//20
f 38//21 24//21 21//21
f 38//22 25//22 24//22
f 25//23 27//23 26//23
f 27//24 29//24 28//24
f 25//25 29//25 27//25
f 25//26 30//26 29//26
f 30//27 32//27 31//27
f 30//28 33//28 32//28
f 30//29 34//29 33//29
f 30//30 35//30 34//30
f 30//31 36//31 35//31
f 25//32 36//32 30//32
f 25//33 37//33 36//33
f 25//34 38//34 37//34
usemtl assumed_wall
f 1//35 21//35 2//35
f 1//36 20//36 21//36
f 2//37 22//37 3//37
f 2//38 21//38 22//38
f 3//39 23//39 4//39
f 3//40 22//40 23//40
f 4//41 24//41 5//41
f 4//42 23//42 24//42
f 5//43 25//43 6//43
f 5//44 24//44 25//44
f 6//45 26//45 7//45
f 6//46 25//46 26//46
f 7//47 27//47 8//47
f 7//48 26//48 27//48
f 8//49 28//49 9//49
f 8//50 27//50 28//50
f 9//51 29//51 10//51
f 9//52 28//52 29//52
f 10//53 30//53 11//53
f 10//54 29//54 30//54
f 11//55 31//55 12//55
f 11//56 30//56 31//56
f 12//57 32//57 13//57
f 12//58 31//58 32//58
f 13//59 33//59 14//59
f 13//60 32//60 33//60
f 14//61 34//61 15//61
f 14//62 33//62 34//62
f 15//63 35//63 16//63
f 15//64 34//64 35//64
f 16//65 36//65 17//65
f 16//66 35//66 36//66
f 17//67 37//67 18//67
f 17//68 36//68 37//68
f 18//69 38//69 19//69
f 18//70 37//70 38//70
f 19//71 20//71 1//71
f 19//72 38//72 20//72
