# construction_0093_assumed_A_Grande_construcao
# source A_Grande_construcao
# h_campo 0.000000
# modeled_height 6.000000
# height_kind assumed
# local_origin_world_x 172001.034850
# local_origin_world_y 402500.144600
mtllib construction_artifacts.mtl

o construction_0093_assumed_A_Grande_construcao
v -12.016500 75.740000 0.000000
v -8.663500 71.044000 0.000000
v -2.056500 62.412000 0.000000
v 0.764500 64.440000 0.000000
v 5.959500 56.789000 0.000000
v 3.108500 55.704000 0.000000
v 8.824500 47.462000 0.000000
v 14.276500 50.341000 0.000000
v 52.024500 -3.927000 0.000000
v 52.952500 -8.462000 0.000000
v 51.258500 -11.017000 0.000000
v 58.428500 -22.449000 0.000000
v 13.129500 -53.792000 0.000000
v 10.585500 -49.268000 0.000000
v -25.984500 -75.740000 0.000000
v -58.428500 -31.836000 0.000000
v -6.926500 5.449000 0.000000
v -38.377500 48.979000 0.000000
v -34.046500 54.001000 0.000000
v -36.695500 57.666000 0.000000
v -12.016500 75.740000 6.000000
v -8.663500 71.044000 6.000000
v -2.056500 62.412000 6.000000
v 0.764500 64.440000 6.000000
v 5.959500 56.789000 6.000000
v 3.108500 55.704000 6.000000
v 8.824500 47.462000 6.000000
v 14.276500 50.341000 6.000000
v 52.024500 -3.927000 6.000000
v 52.952500 -8.462000 6.000000
v 51.258500 -11.017000 6.000000
v 58.428500 -22.449000 6.000000
v 13.129500 -53.792000 6.000000
v 10.585500 -49.268000 6.000000
v -25.984500 -75.740000 6.000000
v -58.428500 -31.836000 6.000000
v -6.926500 5.449000 6.000000
v -38.377500 48.979000 6.000000
v -34.046500 54.001000 6.000000
v -36.695500 57.666000 6.000000
vn 0.000000 0.000000 -1.000000
vn 0.000000 0.000000 -1.000000
vn 0.000000 0.000000 -1.000000
vn 0.000000 0.000000 -1.000000
vn 0.000000 0.000000 -1.000000
vn 0.000000 0.000000 -1.000000
vn 0.000000 0.000000 -1.000000
vn 0.000000 0.000000 -1.000000
vn 0.000000 0.000000 -1.000000
vn 0.000000 0.000000 -1.000000
vn 0.000000 0.000000 -1.000000
vn 0.000000 0.000000 -1.000000
vn -0.000000 0.000000 -1.000000
vn 0.000000 0.000000 -1.000000
vn -0.000000 0.000000 -1.000000
vn 0.000000 0.000000 -1.000000
vn 0.000000 0.000000 -1.000000
vn 0.000000 0.000000 -1.000000
vn 0.000000 0.000000 1.000000
vn 0.000000 0.000000 1.000000
vn -0.000000 0.000000 1.000000
vn -0.000000 0.000000 1.000000
vn 0.000000 0.000000 1.000000
vn 0.000000 0.000000 1.000000
vn -0.000000 0.000000 1.000000
vn 0.000000 0.000000 1.000000
vn 0.000000 0.000000 1.000000
vn 0.000000 0.000000 1.000000
vn 0.000000 0.000000 1.000000
vn 0.000000 0.000000 1.000000
vn 0.000000 0.000000 1.000000
vn 0.000000 0.000000 1.000000
vn 0.000000 0.000000 1.000000
vn 0.000000 0.000000 1.000000
vn 0.000000 0.000000 1.000000
vn 0.000000 0.000000 1.000000
vn 0.813839 0.581091 0.000000
vn 0.813839 0.581091 -0.000000
vn 0.794089 0.607802 0.000000
vn 0.794089 0.607802 -0.000000
vn -0.583713 0.811960 0.000000
vn -0.583713 0.811960 0.000000
vn 0.827312 0.561742 0.000000
vn 0.827312 0.561742 -0.000000
vn 0.355682 -0.934607 0.000000
vn 0.355682 -0.934607 0.000000
vn 0.821725 0.569884 0.000000
vn 0.821725 0.569884 -0.000000
vn -0.466956 0.884281 0.000000
vn -0.466956 0.884281 0.000000
vn 0.820931 0.571027 0.000000
vn 0.820931 0.571027 -0.000000
vn 0.979699 0.200476 0.000000
vn 0.979699 0.200476 -0.000000
vn 0.833453 -0.552591 0.000000
vn 0.833453 -0.552591 0.000000
vn 0.847165 0.531331 0.000000
vn 0.847165 0.531331 -0.000000
vn 0.568991 -0.822344 0.000000
vn 0.568991 -0.822344 0.000000
vn -0.871637 -0.490151 0.000000
vn -0.871637 -0.490151 0.000000
vn 0.586369 -0.810044 0.000000
vn 0.586369 -0.810044 0.000000
vn -0.804236 -0.594311 0.000000
vn -0.804236 -0.594311 0.000000
vn -0.586411 0.810013 0.000000
vn -0.586411 0.810013 0.000000
vn -0.810567 -0.585646 0.000000
vn -0.810567 -0.585646 0.000000
vn -0.757284 0.653086 0.000000
vn -0.757284 0.653086 0.000000
vn -0.810463 -0.585789 0.000000
vn -0.810463 -0.585789 0.000000
vn -0.590855 0.806778 0.000000
vn -0.590855 0.806778 0.000000
usemtl assumed_base
f 20//1 1//1 2//1
f 20//2 2//2 3//2
f 3//3 4//3 5//3
f 20//4 3//4 5//4
f 20//5 5//5 6//5
f 20//6 6//6 7//6
f 7//7 8//7 9//7
f 20//8 7//8 9//8
f 20//9 9//9 10//9
f 20//10 10//10 11//10
f 20//11 11//11 12//11
f 12//12 13//12 14//12
f 14//13 15//13 16//13
f 12//14 14//14 16//14
f 12//15 16//15 17//15
f 12//16 17//16 18//16
f 12//17 18//17 19//17
f 12//18 19//18 20//18
usemtl assumed_roof
f 40//19 22//19 21//19
f 40//20 23//20 22//20
f 23//21 25//21 24//21
f 40//22 25//22 23//22
f 40//23 26//23 25//23
f 40//24 27//24 26//24
f 27//25 29//25 28//25
f 40//26 29//26 27//26
f 40//27 30//27 29//27
f 40//28 31//28 30//28
f 40//29 32//29 31//29
f 32//30 34//30 33//30
f 34//31 36//31 35//31
f 32//32 36//32 34//32
f 32//33 37//33 36//33
f 32//34 38//34 37//34
f 32//35 39//35 38//35
f 32//36 40//36 39//36
usemtl assumed_wall
f 1//37 22//37 2//37
f 1//38 21//38 22//38
f 2//39 23//39 3//39
f 2//40 22//40 23//40
f 3//41 24//41 4//41
f 3//42 23//42 24//42
f 4//43 25//43 5//43
f 4//44 24//44 25//44
f 5//45 26//45 6//45
f 5//46 25//46 26//46
f 6//47 27//47 7//47
f 6//48 26//48 27//48
f 7//49 28//49 8//49
f 7//50 27//50 28//50
f 8//51 29//51 9//51
f 8//52 28//52 29//52
f 9//53 30//53 10//53
f 9//54 29//54 30//54
f 10//55 31//55 11//55
f 10//56 30//56 31//56
f 11//57 32//57 12//57
f 11//58 31//58 32//58
f 12//59 33//59 13//59
f 12//60 32//60 33//60
f 13//61 34//61 14//61
f 13//62 33//62 34//62
f 14//63 35//63 15//63
f 14//64 34//64 35//64
f 15//65 36//65 16//65
f 15//66 35//66 36//66
f 16//67 37//67 17//67
f 16//68 36//68 37//68
f 17//69 38//69 18//69
f 17//70 37//70 38//70
f 18//71 39//71 19//71
f 18//72 38//72 39//72
f 19//73 40//73 20//73
f 19//74 39//74 40//74
f 20//75 21//75 1//75
f 20//76 40//76 21//76
