# construction_0378_assumed_A_Casa
# source A_Casa
# h_campo 0.000000
# modeled_height 6.000000
# height_kind assumed
# local_origin_world_x 172001.034850
# local_origin_world_y 402500.144600
mtllib construction_artifacts.mtl

o construction_0378_assumed_A_Casa
v -9.635000 1.475500 0.000000
v -7.951000 11.633500 0.000000
v -2.961000 10.842500 0.000000
v -4.446000 3.841500 0.000000
v -0.106000 3.238500 0.000000
v -0.375000 1.569500 0.000000
v 9.635000 -0.144500 0.000000
v 7.616000 -10.790500 0.000000
v 1.206000 -9.301500 0.000000
v 0.942000 -11.633500 0.000000
v -7.355000 -10.187500 0.000000
v -6.409000 -4.297500 0.000000
v -7.663000 -4.232500 0.000000
v -6.376000 1.498500 0.000000
v -9.635000 1.475500 6.000000
v -7.951000 11.633500 6.000000
v -2.961000 10.842500 6.000000
v -4.446000 3.841500 6.000000
v -0.106000 3.238500 6.000000
v -0.375000 1.569500 6.000000
v 9.635000 -0.144500 6.000000
v 7.616000 -10.790500 6.000000
v 1.206000 -9.301500 6.000000
v 0.942000 -11.633500 6.000000
v -7.355000 -10.187500 6.000000
v -6.409000 -4.297500 6.000000
v -7.663000 -4.232500 6.000000
v -6.376000 1.498500 6.000000
vn -0.000000 0.000000 -1.000000
vn 0.000000 0.000000 -1.000000
vn 0.000000 0.000000 -1.000000
vn 0.000000 0.000000 -1.000000
vn 0.000000 0.000000 -1.000000
vn 0.000000 0.000000 -1.000000
vn 0.000000 0.000000 -1.000000
vn 0.000000 0.000000 -1.000000
vn 0.000000 0.000000 -1.000000
vn 0.000000 0.000000 -1.000000
vn 0.000000 -0.000000 -1.000000
vn 0.000000 0.000000 -1.000000
vn 0.000000 0.000000 1.000000
vn 0.000000 -0.000000 1.000000
vn 0.000000 0.000000 1.000000
vn 0.000000 0.000000 1.000000
vn 0.000000 0.000000 1.000000
vn -0.000000 0.000000 1.000000
vn 0.000000 0.000000 1.000000
vn 0.000000 0.000000 1.000000
vn 0.000000 0.000000 1.000000
vn 0.000000 0.000000 1.000000
vn 0.000000 0.000000 1.000000
vn 0.000000 -0.000000 1.000000
vn -0.986535 0.163548 0.000000
vn -0.986535 0.163548 0.000000
vn 0.156562 0.987668 0.000000
vn 0.156562 0.987668 -0.000000
vn 0.978236 -0.207496 0.000000
vn 0.978236 -0.207496 0.000000
vn 0.137618 0.990485 0.000000
vn 0.137618 0.990485 -0.000000
vn 0.987259 -0.159121 0.000000
vn 0.987259 -0.159121 0.000000
vn 0.168773 0.985655 0.000000
vn 0.168773 0.985655 -0.000000
vn 0.982488 -0.186328 0.000000
vn 0.982488 -0.186328 0.000000
vn -0.226269 -0.974065 0.000000
vn -0.226269 -0.974065 0.000000
vn 0.993653 -0.112489 0.000000
vn 0.993653 -0.112489 0.000000
vn -0.171692 -0.985151 0.000000
vn -0.171692 -0.985151 0.000000
vn -0.987346 0.158579 0.000000
vn -0.987346 0.158579 0.000000
vn -0.051765 -0.998659 0.000000
vn -0.051765 -0.998659 0.000000
vn -0.975700 0.219111 0.000000
vn -0.975700 0.219111 0.000000
vn 0.007057 -0.999975 0.000000
vn 0.007057 -0.999975 0.000000
usemtl assumed_base
f 14//1 1//1 2//1
f 14//2 2//2 3//2
f 14//3 3//3 4//3
f 14//4 4//4 5//4
f 14//5 5//5 6//5
f 14//6 6//6 7//6
f 14//7 7//7 8//7
f 14//8 8//8 9//8
f 14//9 9//9 10//9
f 10//10 11//10 12//10
f 14//11 10//11 12//11
f 12//12 13//12 14//12
usemtl assumed_roof
f 28//13 16//13 15//13
f 28//14 17//14 16//14
f 28//15 18//15 17//15
f 28//16 19//16 18//16
f 28//17 20//17 19//17
f 28//18 21//18 20//18
f 28//19 22//19 21//19
f 28//20 23//20 22//20
f 28//21 24//21 23//21
f 24//22 26//22 25//22
f 28//23 26//23 24//23
f 26//24 28//24 27//24
usemtl assumed_wall
f 1//25 16//25 2//25
f 1//26 15//26 16//26
f 2//27 17//27 3//27
f 2//28 16//28 17//28
f 3//29 18//29 4//29
f 3//30 17//30 18//30
f 4//31 19//31 5//31
f 4//32 18//32 19//32
f 5//33 20//33 6//33
f 5//34 19//34 20//34
f 6//35 21//35 7//35
f 6//36 20//36 21//36
f 7//37 22//37 8//37
f 7//38 21//38 22//38
f 8//39 23//39 9//39
f 8//40 22//40 23//40
f 9//41 24//41 10//41
f 9//42 23//42 24//42
f 10//43 25//43 11//43
f 10//44 24//44 25//44
f 11//45 26//45 12//45
f 11//46 25//46 26//46
f 12//47 27//47 13//47
f 12//48 26//48 27//48
f 13//49 28//49 14//49
f 13//50 27//50 28//50
f 14//51 15//51 1//51
f 14//52 28//52 15//52
