# construction_3749_assumed_A_Casa
# source A_Casa
# h_campo 0.000000
# modeled_height 6.000000
# height_kind assumed
# local_origin_world_x 172001.034850
# local_origin_world_y 402500.144600
mtllib construction_artifacts.mtl

o construction_3749_assumed_A_Casa
v -0.076500 -10.102000 0.000000
v -4.643500 -8.546000 0.000000
v -4.646500 -7.912000 0.000000
v -12.450500 -5.531000 0.000000
v -12.457500 -4.218000 0.000000
v -7.554500 9.751000 0.000000
v -6.366500 11.203000 0.000000
v -3.661500 10.346000 0.000000
v -2.811500 11.516000 0.000000
v 12.457500 6.192000 0.000000
v 6.452500 -11.516000 0.000000
v 0.334500 -9.583000 0.000000
v -0.076500 -10.102000 6.000000
v -4.643500 -8.546000 6.000000
v -4.646500 -7.912000 6.000000
v -12.450500 -5.531000 6.000000
v -12.457500 -4.218000 6.000000
v -7.554500 9.751000 6.000000
v -6.366500 11.203000 6.000000
v -3.661500 10.346000 6.000000
v -2.811500 11.516000 6.000000
v 12.457500 6.192000 6.000000
v 6.452500 -11.516000 6.000000
v 0.334500 -9.583000 6.000000
vn -0.000000 0.000000 -1.000000
vn 0.000000 0.000000 -1.000000
vn 0.000000 0.000000 -1.000000
vn 0.000000 0.000000 -1.000000
vn 0.000000 0.000000 -1.000000
vn 0.000000 0.000000 -1.000000
vn 0.000000 0.000000 -1.000000
vn 0.000000 0.000000 -1.000000
vn 0.000000 0.000000 -1.000000
vn 0.000000 0.000000 -1.000000
vn 0.000000 0.000000 1.000000
vn 0.000000 0.000000 1.000000
vn 0.000000 0.000000 1.000000
vn 0.000000 0.000000 1.000000
vn 0.000000 0.000000 1.000000
vn 0.000000 0.000000 1.000000
vn 0.000000 0.000000 1.000000
vn 0.000000 0.000000 1.000000
vn 0.000000 -0.000000 1.000000
vn 0.000000 0.000000 1.000000
vn -0.322501 -0.946569 0.000000
vn -0.322501 -0.946569 0.000000
vn -0.999989 -0.004732 0.000000
vn -0.999989 -0.004732 0.000000
vn -0.291820 -0.956473 0.000000
vn -0.291820 -0.956473 0.000000
vn -0.999986 -0.005331 0.000000
vn -0.999986 -0.005331 0.000000
vn -0.943566 0.331184 0.000000
vn -0.943566 0.331184 0.000000
vn -0.773957 0.633238 0.000000
vn -0.773957 0.633238 0.000000
vn 0.302025 0.953300 0.000000
vn 0.302025 0.953300 -0.000000
vn -0.809035 0.587760 0.000000
vn -0.809035 0.587760 0.000000
vn 0.329240 0.944246 0.000000
vn 0.329240 0.944246 -0.000000
vn 0.947029 -0.321149 0.000000
vn 0.947029 -0.321149 0.000000
vn -0.301273 -0.953538 0.000000
vn -0.301273 -0.953538 0.000000
vn 0.783954 -0.620819 0.000000
vn 0.783954 -0.620819 0.000000
usemtl assumed_base
f 12//1 1//1 2//1
f 12//2 2//2 3//2
f 3//3 4//3 5//3
f 12//4 3//4 5//4
f 12//5 5//5 6//5
f 12//6 6//6 7//6
f 12//7 7//7 8//7
f 12//8 8//8 9//8
f 12//9 9//9 10//9
f 10//10 11//10 12//10
usemtl assumed_roof
f 24//11 14//11 13//11
f 24//12 15//12 14//12
f 15//13 17//13 16//13
f 24//14 17//14 15//14
f 24//15 18//15 17//15
f 24//16 19//16 18//16
f 24//17 20//17 19//17
f 24//18 21//18 20//18
f 24//19 22//19 21//19
f 22//20 24//20 23//20
usemtl assumed_wall
f 1//21 14//21 2//21
f 1//22 13//22 14//22
f 2//23 15//23 3//23
f 2//24 14//24 15//24
f 3//25 16//25 4//25
f 3//26 15//26 16//26
f 4//27 17//27 5//27
f 4//28 16//28 17//28
f 5//29 18//29 6//29
f 5//30 17//30 18//30
f 6//31 19//31 7//31
f 6//32 18//32 19//32
f 7//33 20//33 8//33
f 7//34 19//34 20//34
f 8//35 21//35 9//35
f 8//36 20//36 21//36
f 9//37 22//37 10//37
f 9//38 21//38 22//38
f 10//39 23//39 11//39
f 10//40 22//40 23//40
f 11//41 24//41 12//41
f 11//42 23//42 24//42
f 12//43 13//43 1//43
f 12//44 24//44 13//44
