# construction_3115_assumed_A_Casa
# source A_Casa
# h_campo 0.000000
# modeled_height 6.000000
# height_kind assumed
# local_origin_world_x 172001.034850
# local_origin_world_y 402500.144600
mtllib construction_artifacts.mtl

o construction_3115_assumed_A_Casa
v 2.997500 -3.243000 0.000000
v 0.513500 -0.051000 0.000000
v -1.194500 -1.461000 0.000000
v 1.340500 -5.134000 0.000000
v -1.154500 -6.605000 0.000000
v 3.874500 -13.162000 0.000000
v 2.754500 -13.706000 0.000000
v 8.049500 -20.164000 0.000000
v 8.982500 -19.818000 0.000000
v 8.272500 -18.787000 0.000000
v 11.012500 -17.326000 0.000000
v 8.345500 -11.678000 0.000000
v 22.942500 -5.068000 0.000000
v 24.393500 -7.218000 0.000000
v 28.795500 -15.124000 0.000000
v 26.791500 -15.984000 0.000000
v 27.268500 -18.363000 0.000000
v 11.659500 -25.446000 0.000000
v 13.380500 -30.046000 0.000000
v 8.485500 -31.089000 0.000000
v -20.185500 4.358000 0.000000
v -23.280500 3.112000 0.000000
v -28.795500 11.557000 0.000000
v -25.948500 13.628000 0.000000
v -23.586500 8.254000 0.000000
v -22.565500 8.974000 0.000000
v -21.264500 7.443000 0.000000
v -16.224500 9.529000 0.000000
v -16.246500 10.463000 0.000000
v -21.746500 16.577000 0.000000
v -17.338500 19.871000 0.000000
v -8.388500 10.421000 0.000000
v -7.132500 11.387000 0.000000
v -10.108500 14.291000 0.000000
v -8.106500 16.400000 0.000000
v -16.149500 24.987000 0.000000
v -9.357500 31.089000 0.000000
v 1.560500 20.157000 0.000000
v 0.629500 18.946000 0.000000
v 12.315500 7.919000 0.000000
v 11.207500 6.353000 0.000000
v 18.530500 -1.774000 0.000000
v 14.714500 -5.705000 0.000000
v 14.211500 -4.949000 0.000000
v 9.075500 -8.205000 0.000000
v 3.980500 -3.123000 0.000000
v 2.997500 -3.243000 6.000000
v 0.513500 -0.051000 6.000000
v -1.194500 -1.461000 6.000000
v 1.340500 -5.134000 6.000000
v -1.154500 -6.605000 6.000000
v 3.874500 -13.162000 6.000000
v 2.754500 -13.706000 6.000000
v 8.049500 -20.164000 6.000000
v 8.982500 -19.818000 6.000000
v 8.272500 -18.787000 6.000000
v 11.012500 -17.326000 6.000000
v 8.345500 -11.678000 6.000000
v 22.942500 -5.068000 6.000000
v 24.393500 -7.218000 6.000000
v 28.795500 -15.124000 6.000000
v 26.791500 -15.984000 6.000000
v 27.268500 -18.363000 6.000000
v 11.659500 -25.446000 6.000000
v 13.380500 -30.046000 6.000000
v 8.485500 -31.089000 6.000000
v -20.185500 4.358000 6.000000
v -23.280500 3.112000 6.000000
v -28.795500 11.557000 6.000000
v -25.948500 13.628000 6.000000
v -23.586500 8.254000 6.000000
v -22.565500 8.974000 6.000000
v -21.264500 7.443000 6.000000
v -16.224500 9.529000 6.000000
v -16.246500 10.463000 6.000000
v -21.746500 16.577000 6.000000
v -17.338500 19.871000 6.000000
v -8.388500 10.421000 6.000000
v -7.132500 11.387000 6.000000
v -10.108500 14.291000 6.000000
v -8.106500 16.400000 6.000000
v -16.149500 24.987000 6.000000
v -9.357500 31.089000 6.000000
v 1.560500 20.157000 6.000000
v 0.629500 18.946000 6.000000
v 12.315500 7.919000 6.000000
v 11.207500 6.353000 6.000000
v 18.530500 -1.774000 6.000000
v 14.714500 -5.705000 6.000000
v 14.211500 -4.949000 6.000000
v 9.075500 -8.205000 6.000000
v 3.980500 -3.123000 6.000000
vn -0.000000 0.000000 -1.000000
vn 0.000000 0.000000 -1.000000
vn 0.000000 0.000000 -1.000000
vn 0.000000 0.000000 -1.000000
vn 0.000000 0.000000 -1.000000
vn 0.000000 0.000000 -1.000000
vn 0.000000 0.000000 -1.000000
vn 0.000000 0.000000 -1.000000
vn 0.000000 0.000000 -1.000000
vn 0.000000 0.000000 -1.000000
vn 0.000000 0.000000 -1.000000
vn 0.000000 0.000000 -1.000000
vn 0.000000 0.000000 -1.000000
vn 0.000000 0.000000 -1.000000
vn 0.000000 0.000000 -1.000000
vn 0.000000 0.000000 -1.000000
vn -0.000000 -0.000000 -1.000000
vn -0.000000 -0.000000 -1.000000
vn -0.000000 0.000000 -1.000000
vn -0.000000 0.000000 -1.000000
vn 0.000000 0.000000 -1.000000
vn 0.000000 0.000000 -1.000000
vn 0.000000 0.000000 -1.000000
vn 0.000000 0.000000 -1.000000
vn 0.000000 0.000000 -1.000000
vn 0.000000 0.000000 -1.000000
vn 0.000000 0.000000 -1.000000
vn 0.000000 0.000000 -1.000000
vn 0.000000 0.000000 -1.000000
vn 0.000000 0.000000 -1.000000
vn 0.000000 0.000000 -1.000000
vn 0.000000 0.000000 -1.000000
vn 0.000000 0.000000 -1.000000
vn 0.000000 0.000000 -1.000000
vn 0.000000 0.000000 -1.000000
vn 0.000000 0.000000 -1.000000
vn 0.000000 0.000000 -1.000000
vn 0.000000 0.000000 -1.000000
vn 0.000000 0.000000 -1.000000
vn 0.000000 0.000000 -1.000000
vn 0.000000 0.000000 -1.000000
vn 0.000000 0.000000 -1.000000
vn 0.000000 0.000000 -1.000000
vn -0.000000 0.000000 -1.000000
vn 0.000000 0.000000 1.000000
vn 0.000000 0.000000 1.000000
vn 0.000000 0.000000 1.000000
vn 0.000000 -0.000000 1.000000
vn 0.000000 -0.000000 1.000000
vn 0.000000 0.000000 1.000000
vn 0.000000 0.000000 1.000000
vn 0.000000 0.000000 1.000000
vn 0.000000 0.000000 1.000000
vn 0.000000 0.000000 1.000000
vn 0.000000 0.000000 1.000000
vn -0.000000 0.000000 1.000000
vn 0.000000 0.000000 1.000000
vn 0.000000 0.000000 1.000000
vn 0.000000 0.000000 1.000000
vn 0.000000 0.000000 1.000000
vn 0.000000 0.000000 1.000000
vn 0.000000 0.000000 1.000000
vn 0.000000 0.000000 1.000000
vn 0.000000 0.000000 1.000000
vn -0.000000 0.000000 1.000000
vn 0.000000 0.000000 1.000000
vn 0.000000 0.000000 1.000000
vn 0.000000 0.000000 1.000000
vn 0.000000 0.000000 1.000000
vn 0.000000 0.000000 1.000000
vn 0.000000 0.000000 1.000000
vn 0.000000 0.000000 1.000000
vn 0.000000 0.000000 1.000000
vn 0.000000 0.000000 1.000000
vn 0.000000 0.000000 1.000000
vn 0.000000 0.000000 1.000000
vn 0.000000 0.000000 1.000000
vn 0.000000 0.000000 1.000000
vn 0.000000 0.000000 1.000000
vn 0.000000 0.000000 1.000000
vn 0.000000 0.000000 1.000000
vn 0.000000 0.000000 1.000000
vn 0.000000 -0.000000 1.000000
vn 0.000000 0.000000 1.000000
vn 0.000000 0.000000 1.000000
vn 0.000000 0.000000 1.000000
vn -0.000000 0.000000 1.000000
vn 0.000000 0.000000 1.000000
vn -0.789192 -0.614146 0.000000
vn -0.789192 -0.614146 0.000000
vn 0.636625 -0.771174 0.000000
vn 0.636625 -0.771174 0.000000
vn 0.823014 0.568021 0.000000
vn 0.823014 0.568021 -0.000000
vn 0.507880 -0.861428 0.000000
vn 0.507880 -0.861428 0.000000
vn 0.793491 0.608581 0.000000
vn 0.793491 0.608581 -0.000000
vn 0.436904 -0.899508 0.000000
vn 0.436904 -0.899508 0.000000
vn 0.773301 0.634039 0.000000
vn 0.773301 0.634039 -0.000000
vn -0.347707 0.937603 0.000000
vn -0.347707 0.937603 0.000000
vn -0.823599 -0.567173 0.000000
vn -0.823599 -0.567173 0.000000
vn -0.470505 0.882398 0.000000
vn -0.470505 0.882398 0.000000
vn -0.904256 -0.426992 0.000000
vn -0.904256 -0.426992 0.000000
vn -0.412510 0.910953 0.000000
vn -0.412510 0.910953 0.000000
vn 0.828893 0.559407 0.000000
vn 0.828893 0.559407 -0.000000
vn 0.873698 0.486468 0.000000
vn 0.873698 0.486468 -0.000000
vn 0.394362 -0.918955 0.000000
vn 0.394362 -0.918955 0.000000
vn 0.980485 0.196592 0.000000
vn 0.980485 0.196592 -0.000000
vn 0.413223 -0.910630 0.000000
vn 0.413223 -0.910630 0.000000
vn 0.936597 0.350409 0.000000
vn 0.936597 0.350409 -0.000000
vn 0.208396 -0.978044 0.000000
vn 0.208396 -0.978044 0.000000
vn -0.777504 -0.628878 0.000000
vn -0.777504 -0.628878 0.000000
vn 0.373457 -0.927648 0.000000
vn 0.373457 -0.927648 0.000000
vn -0.837275 -0.546782 0.000000
vn -0.837275 -0.546782 0.000000
vn -0.588256 0.808675 0.000000
vn -0.588256 0.808675 0.000000
vn 0.915476 0.402373 0.000000
vn 0.915476 0.402373 -0.000000
vn -0.576306 0.817234 0.000000
vn -0.576306 0.817234 0.000000
vn 0.762025 0.647547 0.000000
vn 0.762025 0.647547 -0.000000
vn -0.382427 0.923986 0.000000
vn -0.382427 0.923986 0.000000
vn -0.999723 -0.023548 0.000000
vn -0.999723 -0.023548 0.000000
vn -0.743451 -0.668790 0.000000
vn -0.743451 -0.668790 0.000000
vn -0.598603 0.801046 0.000000
vn -0.598603 0.801046 0.000000
vn 0.726054 0.687638 0.000000
vn 0.726054 0.687638 -0.000000
vn -0.609650 0.792671 0.000000
vn -0.609650 0.792671 0.000000
vn -0.698396 -0.715712 0.000000
vn -0.698396 -0.715712 0.000000
vn -0.725266 0.688469 0.000000
vn -0.725266 0.688469 0.000000
vn -0.729847 -0.683610 0.000000
vn -0.729847 -0.683610 0.000000
vn -0.668311 0.743882 0.000000
vn -0.668311 0.743882 0.000000
vn 0.707560 0.706654 0.000000
vn 0.707560 0.706654 -0.000000
vn 0.792794 -0.609489 0.000000
vn 0.792794 -0.609489 0.000000
vn 0.686302 0.727317 0.000000
vn 0.686302 0.727317 -0.000000
vn 0.816332 -0.577583 0.000000
vn 0.816332 -0.577583 0.000000
vn 0.742899 0.669404 0.000000
vn 0.742899 0.669404 -0.000000
vn 0.717524 -0.696533 0.000000
vn 0.717524 -0.696533 0.000000
vn -0.832558 -0.553938 0.000000
vn -0.832558 -0.553938 0.000000
vn 0.535428 -0.844581 0.000000
vn 0.535428 -0.844581 0.000000
vn -0.706203 -0.708009 0.000000
vn -0.706203 -0.708009 0.000000
vn 0.121176 -0.992631 0.000000
vn 0.121176 -0.992631 0.000000
usemtl assumed_base
f 46//1 1//1 2//1
f 3//2 4//2 5//2
f 5//3 6//3 7//3
f 9//4 10//4 11//4
f 11//5 12//5 13//5
f 9//6 11//6 13//6
f 9//7 13//7 14//7
f 9//8 14//8 15//8
f 8//9 9//9 15//9
f 8//10 15//10 16//10
f 8//11 16//11 17//11
f 8//12 17//12 18//12
f 7//13 8//13 18//13
f 7//14 18//14 19//14
f 7//15 19//15 20//15
f 5//16 7//16 20//16
f 5//17 20//17 21//17
f 3//18 5//18 21//18
f 2//19 3//19 21//19
f 21//20 22//20 23//20
f 23//21 24//21 25//21
f 21//22 23//22 25//22
f 21//23 25//23 26//23
f 21//24 26//24 27//24
f 2//25 21//25 27//25
f 2//26 27//26 28//26
f 2//27 28//27 29//27
f 2//28 29//28 30//28
f 2//29 30//29 31//29
f 46//30 2//30 31//30
f 46//31 31//31 32//31
f 46//32 32//32 33//32
f 33//33 34//33 35//33
f 46//34 33//34 35//34
f 35//35 36//35 37//35
f 46//36 35//36 37//36
f 37//37 38//37 39//37
f 46//38 37//38 39//38
f 46//39 39//39 40//39
f 46//40 40//40 41//40
f 46//41 41//41 42//41
f 42//42 43//42 44//42
f 46//43 42//43 44//43
f 44//44 45//44 46//44
usemtl assumed_roof
f 92//45 48//45 47//45
f 49//46 51//46 50//46
f 51//47 53//47 52//47
f 55//48 57//48 56//48
f 57//49 59//49 58//49
f 55//50 59//50 57//50
f 55//51 60//51 59//51
f 55//52 61//52 60//52
f 54//53 61//53 55//53
f 54//54 62//54 61//54
f 54//55 63//55 62//55
f 54//56 64//56 63//56
f 53//57 64//57 54//57
f 53//58 65//58 64//58
f 53//59 66//59 65//59
f 51//60 66//60 53//60
f 51//61 67//61 66//61
f 49//62 67//62 51//62
f 48//63 67//63 49//63
f 67//64 69//64 68//64
f 69//65 71//65 70//65
f 67//66 71//66 69//66
f 67//67 72//67 71//67
f 67//68 73//68 72//68
f 48//69 73//69 67//69
f 48//70 74//70 73//70
f 48//71 75//71 74//71
f 48//72 76//72 75//72
f 48//73 77//73 76//73
f 92//74 77//74 48//74
f 92//75 78//75 77//75
f 92//76 79//76 78//76
f 79//77 81//77 80//77
f 92//78 81//78 79//78
f 81//79 83//79 82//79
f 92//80 83//80 81//80
f 83//81 85//81 84//81
f 92//82 85//82 83//82
f 92//83 86//83 85//83
f 92//84 87//84 86//84
f 92//85 88//85 87//85
f 88//86 90//86 89//86
f 92//87 90//87 88//87
f 90//88 92//88 91//88
usemtl assumed_wall
f 1//89 48//89 2//89
f 1//90 47//90 48//90
f 2//91 49//91 3//91
f 2//92 48//92 49//92
f 3//93 50//93 4//93
f 3//94 49//94 50//94
f 4//95 51//95 5//95
f 4//96 50//96 51//96
f 5//97 52//97 6//97
f 5//98 51//98 52//98
f 6//99 53//99 7//99
f 6//100 52//100 53//100
f 7//101 54//101 8//101
f 7//102 53//102 54//102
f 8//103 55//103 9//103
f 8//104 54//104 55//104
f 9//105 56//105 10//105
f 9//106 55//106 56//106
f 10//107 57//107 11//107
f 10//108 56//108 57//108
f 11//109 58//109 12//109
f 11//110 57//110 58//110
f 12//111 59//111 13//111
f 12//112 58//112 59//112
f 13//113 60//113 14//113
f 13//114 59//114 60//114
f 14//115 61//115 15//115
f 14//116 60//116 61//116
f 15//117 62//117 16//117
f 15//118 61//118 62//118
f 16//119 63//119 17//119
f 16//120 62//120 63//120
f 17//121 64//121 18//121
f 17//122 63//122 64//122
f 18//123 65//123 19//123
f 18//124 64//124 65//124
f 19//125 66//125 20//125
f 19//126 65//126 66//126
f 20//127 67//127 21//127
f 20//128 66//128 67//128
f 21//129 68//129 22//129
f 21//130 67//130 68//130
f 22//131 69//131 23//131
f 22//132 68//132 69//132
f 23//133 70//133 24//133
f 23//134 69//134 70//134
f 24//135 71//135 25//135
f 24//136 70//136 71//136
f 25//137 72//137 26//137
f 25//138 71//138 72//138
f 26//139 73//139 27//139
f 26//140 72//140 73//140
f 27//141 74//141 28//141
f 27//142 73//142 74//142
f 28//143 75//143 29//143
f 28//144 74//144 75//144
f 29//145 76//145 30//145
f 29//146 75//146 76//146
f 30//147 77//147 31//147
f 30//148 76//148 77//148
f 31//149 78//149 32//149
f 31//150 77//150 78//150
f 32//151 79//151 33//151
f 32//152 78//152 79//152
f 33//153 80//153 34//153
f 33//154 79//154 80//154
f 34//155 81//155 35//155
f 34//156 80//156 81//156
f 35//157 82//157 36//157
f 35//158 81//158 82//158
f 36//159 83//159 37//159
f 36//160 82//160 83//160
f 37//161 84//161 38//161
f 37//162 83//162 84//162
f 38//163 85//163 39//163
f 38//164 84//164 85//164
f 39//165 86//165 40//165
f 39//166 85//166 86//166
f 40//167 87//167 41//167
f 40//168 86//168 87//168
f 41//169 88//169 42//169
f 41//170 87//170 88//170
f 42//171 89//171 43//171
f 42//172 88//172 89//172
f 43//173 90//173 44//173
f 43//174 89//174 90//174
f 44//175 91//175 45//175
f 44//176 90//176 91//176
f 45//177 92//177 46//177
f 45//178 91//178 92//178
f 46//179 47//179 1//179
f 46//180 92//180 47//180
