# construction_1927_assumed_A_Casa
# source A_Casa
# h_campo 0.000000
# modeled_height 6.000000
# height_kind assumed
# local_origin_world_x 172001.034850
# local_origin_world_y 402500.144600
mtllib construction_artifacts.mtl

o construction_1927_assumed_A_Casa
v -17.391000 11.411500 0.000000
v -4.068000 20.243500 0.000000
v -1.517000 16.053500 0.000000
v -0.213000 16.050500 0.000000
v 6.201000 6.431500 0.000000
v -0.488000 2.268500 0.000000
v 0.562000 0.017500 0.000000
v 0.714000 -5.918500 0.000000
v 17.391000 -11.474500 0.000000
v 14.902000 -16.817500 0.000000
v -0.764000 -11.838500 0.000000
v -1.856000 -20.243500 0.000000
v -10.446000 -12.867500 0.000000
v -9.678000 -7.631500 0.000000
v -10.501000 -0.669500 0.000000
v -17.391000 11.411500 6.000000
v -4.068000 20.243500 6.000000
v -1.517000 16.053500 6.000000
v -0.213000 16.050500 6.000000
v 6.201000 6.431500 6.000000
v -0.488000 2.268500 6.000000
v 0.562000 0.017500 6.000000
v 0.714000 -5.918500 6.000000
v 17.391000 -11.474500 6.000000
v 14.902000 -16.817500 6.000000
v -0.764000 -11.838500 6.000000
v -1.856000 -20.243500 6.000000
v -10.446000 -12.867500 6.000000
v -9.678000 -7.631500 6.000000
v -10.501000 -0.669500 6.000000
vn 0.000000 0.000000 -1.000000
vn 0.000000 0.000000 -1.000000
vn 0.000000 0.000000 -1.000000
vn 0.000000 0.000000 -1.000000
vn 0.000000 0.000000 -1.000000
vn 0.000000 0.000000 -1.000000
vn 0.000000 0.000000 -1.000000
vn 0.000000 0.000000 -1.000000
vn 0.000000 0.000000 -1.000000
vn 0.000000 0.000000 -1.000000
vn 0.000000 0.000000 -1.000000
vn 0.000000 0.000000 -1.000000
vn 0.000000 0.000000 -1.000000
vn 0.000000 -0.000000 1.000000
vn 0.000000 0.000000 1.000000
vn 0.000000 0.000000 1.000000
vn 0.000000 0.000000 1.000000
vn 0.000000 0.000000 1.000000
vn 0.000000 0.000000 1.000000
vn -0.000000 0.000000 1.000000
vn 0.000000 0.000000 1.000000
vn 0.000000 0.000000 1.000000
vn 0.000000 0.000000 1.000000
vn 0.000000 0.000000 1.000000
vn 0.000000 0.000000 1.000000
vn 0.000000 0.000000 1.000000
vn -0.552533 0.833491 0.000000
vn -0.552533 0.833491 0.000000
vn 0.854147 0.520031 0.000000
vn 0.854147 0.520031 -0.000000
vn 0.002301 0.999997 0.000000
vn 0.002301 0.999997 -0.000000
vn 0.831997 0.554780 0.000000
vn 0.831997 0.554780 -0.000000
vn 0.528389 -0.849002 0.000000
vn 0.528389 -0.849002 0.000000
vn 0.906255 0.422731 0.000000
vn 0.906255 0.422731 -0.000000
vn 0.999672 0.025598 0.000000
vn 0.999672 0.025598 -0.000000
vn 0.316074 0.948734 0.000000
vn 0.316074 0.948734 -0.000000
vn 0.906469 -0.422272 0.000000
vn 0.906469 -0.422272 0.000000
vn -0.302892 -0.953025 0.000000
vn -0.302892 -0.953025 0.000000
vn 0.991665 -0.128840 0.000000
vn 0.991665 -0.128840 0.000000
vn -0.651460 -0.758683 0.000000
vn -0.651460 -0.758683 0.000000
vn -0.989413 0.145124 0.000000
vn -0.989413 0.145124 0.000000
vn -0.993085 -0.117396 0.000000
vn -0.993085 -0.117396 0.000000
vn -0.868659 -0.495411 0.000000
vn -0.868659 -0.495411 0.000000
usemtl assumed_base
f 15//1 1//1 2//1
f 15//2 2//2 3//2
f 15//3 3//3 4//3
f 15//4 4//4 5//4
f 15//5 5//5 6//5
f 15//6 6//6 7//6
f 15//7 7//7 8//7
f 8//8 9//8 10//8
f 15//9 8//9 10//9
f 15//10 10//10 11//10
f 15//11 11//11 12//11
f 12//12 13//12 14//12
f 12//13 14//13 15//13
usemtl assumed_roof
f 30//14 17//14 16//14
f 30//15 18//15 17//15
f 30//16 19//16 18//16
f 30//17 20//17 19//17
f 30//18 21//18 20//18
f 30//19 22//19 21//19
f 30//20 23//20 22//20
f 23//21 25//21 24//21
f 30//22 25//22 23//22
f 30//23 26//23 25//23
f 30//24 27//24 26//24
f 27//25 29//25 28//25
f 27//26 30//26 29//26
usemtl assumed_wall
f 1//27 17//27 2//27
f 1//28 16//28 17//28
f 2//29 18//29 3//29
f 2//30 17//30 18//30
f 3//31 19//31 4//31
f 3//32 18//32 19//32
f 4//33 20//33 5//33
f 4//34 19//34 20//34
f 5//35 21//35 6//35
f 5//36 20//36 21//36
f 6//37 22//37 7//37
f 6//38 21//38 22//38
f 7//39 23//39 8//39
f 7//40 22//40 23//40
f 8//41 24//41 9//41
f 8//42 23//42 24//42
f 9//43 25//43 10//43
f 9//44 24//44 25//44
f 10//45 26//45 11//45
f 10//46 25//46 26//46
f 11//47 27//47 12//47
f 11//48 26//48 27//48
f 12//49 28//49 13//49
f 12//50 27//50 28//50
f 13//51 29//51 14//51
f 13//52 28//52 29//52
f 14//53 30//53 15//53
f 14//54 29//54 30//54
f 15//55 16//55 1//55
f 15//56 30//56 16//56
