# construction_3780_assumed_A_Casa
# source A_Casa
# h_campo 0.000000
# modeled_height 6.000000
# height_kind assumed
# local_origin_world_x 172001.034850
# local_origin_world_y 402500.144600
mtllib construction_artifacts.mtl

o construction_3780_assumed_A_Casa
v -14.122000 -14.288000 0.000000
v -2.924000 -5.389000 0.000000
v -9.117000 10.305000 0.000000
v 7.474000 17.951000 0.000000
v 12.275000 7.258000 0.000000
v 5.520000 4.242000 0.000000
v 6.005000 2.067000 0.000000
v 2.377000 0.591000 0.000000
v 3.919000 -4.174000 0.000000
v 11.650000 2.938000 0.000000
v 14.122000 0.085000 0.000000
v 4.760000 -7.973000 0.000000
v 2.420000 -5.239000 0.000000
v -11.966000 -17.951000 0.000000
v -14.122000 -14.288000 6.000000
v -2.924000 -5.389000 6.000000
v -9.117000 10.305000 6.000000
v 7.474000 17.951000 6.000000
v 12.275000 7.258000 6.000000
v 5.520000 4.242000 6.000000
v 6.005000 2.067000 6.000000
v 2.377000 0.591000 6.000000
v 3.919000 -4.174000 6.000000
v 11.650000 2.938000 6.000000
v 14.122000 0.085000 6.000000
v 4.760000 -7.973000 6.000000
v 2.420000 -5.239000 6.000000
v -11.966000 -17.951000 6.000000
vn 0.000000 0.000000 -1.000000
vn 0.000000 0.000000 -1.000000
vn 0.000000 -0.000000 -1.000000
vn 0.000000 0.000000 -1.000000
vn 0.000000 -0.000000 -1.000000
vn 0.000000 0.000000 -1.000000
vn 0.000000 0.000000 -1.000000
vn 0.000000 0.000000 -1.000000
vn 0.000000 0.000000 -1.000000
vn 0.000000 0.000000 -1.000000
vn 0.000000 0.000000 -1.000000
vn 0.000000 -0.000000 -1.000000
vn 0.000000 -0.000000 1.000000
vn 0.000000 -0.000000 1.000000
vn 0.000000 0.000000 1.000000
vn 0.000000 0.000000 1.000000
vn 0.000000 0.000000 1.000000
vn 0.000000 0.000000 1.000000
vn 0.000000 0.000000 1.000000
vn 0.000000 0.000000 1.000000
vn -0.000000 0.000000 1.000000
vn 0.000000 0.000000 1.000000
vn 0.000000 0.000000 1.000000
vn 0.000000 0.000000 1.000000
vn -0.622160 0.782890 0.000000
vn -0.622160 0.782890 0.000000
vn -0.930196 -0.367064 0.000000
vn -0.930196 -0.367064 0.000000
vn -0.418544 0.908196 0.000000
vn -0.418544 0.908196 0.000000
vn 0.912268 0.409595 0.000000
vn 0.912268 0.409595 -0.000000
vn 0.407693 -0.913119 0.000000
vn 0.407693 -0.913119 0.000000
vn 0.976028 0.217643 0.000000
vn 0.976028 0.217643 -0.000000
vn 0.376843 -0.926277 0.000000
vn 0.376843 -0.926277 0.000000
vn 0.951422 0.307889 0.000000
vn 0.951422 0.307889 -0.000000
vn -0.677030 0.735956 0.000000
vn -0.677030 0.735956 0.000000
vn 0.755768 0.654840 0.000000
vn 0.755768 0.654840 -0.000000
vn 0.652350 -0.757918 0.000000
vn 0.652350 -0.757918 0.000000
vn -0.759727 -0.650242 0.000000
vn -0.759727 -0.650242 0.000000
vn 0.662162 -0.749360 0.000000
vn 0.662162 -0.749360 0.000000
vn -0.861801 -0.507246 0.000000
vn -0.861801 -0.507246 0.000000
usemtl assumed_base
f 14//1 1//1 2//1
f 2//2 3//2 4//2
f 4//3 5//3 6//3
f 2//4 4//4 6//4
f 6//5 7//5 8//5
f 2//6 6//6 8//6
f 14//7 2//7 8//7
f 9//8 10//8 11//8
f 9//9 11//9 12//9
f 8//10 9//10 12//10
f 8//11 12//11 13//11
f 8//12 13//12 14//12
usemtl assumed_roof
f 28//13 16//13 15//13
f 16//14 18//14 17//14
f 18//15 20//15 19//15
f 16//16 20//16 18//16
f 20//17 22//17 21//17
f 16//18 22//18 20//18
f 28//19 22//19 16//19
f 23//20 25//20 24//20
f 23//21 26//21 25//21
f 22//22 26//22 23//22
f 22//23 27//23 26//23
f 22//24 28//24 27//24
usemtl assumed_wall
f 1//25 16//25 2//25
f 1//26 15//26 16//26
f 2//27 17//27 3//27
f 2//28 16//28 17//28
f 3//29 18//29 4//29
f 3//30 17//30 18//30
f 4//31 19//31 5//31
f 4//32 18//32 19//32
f 5//33 20//33 6//33
f 5//34 19//34 20//34
f 6//35 21//35 7//35
f 6//36 20//36 21//36
f 7//37 22//37 8//37
f 7//38 21//38 22//38
f 8//39 23//39 9//39
f 8//40 22//40 23//40
f 9//41 24//41 10//41
f 9//42 23//42 24//42
f 10//43 25//43 11//43
f 10//44 24//44 25//44
f 11//45 26//45 12//45
f 11//46 25//46 26//46
f 12//47 27//47 13//47
f 12//48 26//48 27//48
f 13//49 28//49 14//49
f 13//50 27//50 28//50
f 14//51 15//51 1//51
f 14//52 28//52 15//52
