# construction_4569_assumed_A_Casa
# source A_Casa
# h_campo 0.000000
# modeled_height 6.000000
# height_kind assumed
# local_origin_world_x 172001.034850
# local_origin_world_y 402500.144600
mtllib construction_artifacts.mtl

o construction_4569_assumed_A_Casa
v -8.011000 2.000000 0.000000
v 3.617000 8.407000 0.000000
v 6.259000 4.340000 0.000000
v 4.493000 3.126000 0.000000
v 8.011000 -2.429000 0.000000
v -1.861000 -8.407000 0.000000
v -8.011000 2.000000 6.000000
v 3.617000 8.407000 6.000000
v 6.259000 4.340000 6.000000
v 4.493000 3.126000 6.000000
v 8.011000 -2.429000 6.000000
v -1.861000 -8.407000 6.000000
vn 0.000000 0.000000 -1.000000
vn 0.000000 0.000000 -1.000000
vn 0.000000 0.000000 -1.000000
vn 0.000000 -0.000000 -1.000000
vn 0.000000 -0.000000 1.000000
vn 0.000000 0.000000 1.000000
vn 0.000000 0.000000 1.000000
vn 0.000000 0.000000 1.000000
vn -0.482589 0.875847 0.000000
vn -0.482589 0.875847 0.000000
vn 0.838590 0.544764 0.000000
vn 0.838590 0.544764 -0.000000
vn 0.566489 -0.824069 0.000000
vn 0.566489 -0.824069 0.000000
vn 0.844831 0.535034 0.000000
vn 0.844831 0.535034 -0.000000
vn 0.517983 -0.855391 0.000000
vn 0.517983 -0.855391 0.000000
vn -0.860912 -0.508754 0.000000
vn -0.860912 -0.508754 0.000000
usemtl assumed_base
f 6//1 1//1 2//1
f 2//2 3//2 4//2
f 6//3 2//3 4//3
f 4//4 5//4 6//4
usemtl assumed_roof
f 12//5 8//5 7//5
f 8//6 10//6 9//6
f 12//7 10//7 8//7
f 10//8 12//8 11//8
usemtl assumed_wall
f 1//9 8//9 2//9
f 1//10 7//10 8//10
f 2//11 9//11 3//11
f 2//12 8//12 9//12
f 3//13 10//13 4//13
f 3//14 9//14 10//14
f 4//15 11//15 5//15
f 4//16 10//16 11//16
f 5//17 12//17 6//17
f 5//18 11//18 12//18
f 6//19 7//19 1//19
f 6//20 12//20 7//20
