# construction_5648_assumed_A_Casa
# source A_Casa
# h_campo 0.000000
# modeled_height 6.000000
# height_kind assumed
# local_origin_world_x 172001.034850
# local_origin_world_y 402500.144600
mtllib construction_artifacts.mtl

o construction_5648_assumed_A_Casa
v -7.804000 -10.144500 0.000000
v -5.453000 -7.605500 0.000000
v -17.725000 2.487500 0.000000
v -15.034000 5.903500 0.000000
v -22.847000 12.687500 0.000000
v -14.319000 22.590500 0.000000
v -12.062000 21.084500 0.000000
v -10.760000 20.215500 0.000000
v -13.306000 17.137500 0.000000
v -6.209000 10.573500 0.000000
v -7.258000 9.497500 0.000000
v -0.872000 4.935500 0.000000
v 2.023000 9.083500 0.000000
v 17.268000 27.402500 0.000000
v 22.847000 23.111500 0.000000
v 15.392000 14.061500 0.000000
v 16.124000 13.469500 0.000000
v -1.721000 -8.830500 0.000000
v 1.137000 -15.051500 0.000000
v 4.566000 -12.641500 0.000000
v 9.643000 -17.876500 0.000000
v 4.371000 -24.917500 0.000000
v 2.028000 -21.867500 0.000000
v -5.096000 -27.402500 0.000000
v -8.825000 -22.325500 0.000000
v -9.763000 -23.157500 0.000000
v -14.593000 -16.971500 0.000000
v -7.267000 -10.938500 0.000000
v -7.804000 -10.144500 6.000000
v -5.453000 -7.605500 6.000000
v -17.725000 2.487500 6.000000
v -15.034000 5.903500 6.000000
v -22.847000 12.687500 6.000000
v -14.319000 22.590500 6.000000
v -12.062000 21.084500 6.000000
v -10.760000 20.215500 6.000000
v -13.306000 17.137500 6.000000
v -6.209000 10.573500 6.000000
v -7.258000 9.497500 6.000000
v -0.872000 4.935500 6.000000
v 2.023000 9.083500 6.000000
v 17.268000 27.402500 6.000000
v 22.847000 23.111500 6.000000
v 15.392000 14.061500 6.000000
v 16.124000 13.469500 6.000000
v -1.721000 -8.830500 6.000000
v 1.137000 -15.051500 6.000000
v 4.566000 -12.641500 6.000000
v 9.643000 -17.876500 6.000000
v 4.371000 -24.917500 6.000000
v 2.028000 -21.867500 6.000000
v -5.096000 -27.402500 6.000000
v -8.825000 -22.325500 6.000000
v -9.763000 -23.157500 6.000000
v -14.593000 -16.971500 6.000000
v -7.267000 -10.938500 6.000000
vn 0.000000 0.000000 -1.000000
vn 0.000000 0.000000 -1.000000
vn 0.000000 0.000000 -1.000000
vn 0.000000 0.000000 -1.000000
vn 0.000000 0.000000 -1.000000
vn 0.000000 0.000000 -1.000000
vn 0.000000 0.000000 -1.000000
vn 0.000000 0.000000 -1.000000
vn 0.000000 0.000000 -1.000000
vn 0.000000 0.000000 -1.000000
vn 0.000000 0.000000 -1.000000
vn 0.000000 0.000000 -1.000000
vn 0.000000 0.000000 -1.000000
vn 0.000000 0.000000 -1.000000
vn 0.000000 0.000000 -1.000000
vn 0.000000 0.000000 -1.000000
vn 0.000000 0.000000 -1.000000
vn 0.000000 0.000000 -1.000000
vn 0.000000 0.000000 -1.000000
vn 0.000000 0.000000 -1.000000
vn 0.000000 0.000000 -1.000000
vn 0.000000 0.000000 -1.000000
vn 0.000000 0.000000 -1.000000
vn 0.000000 -0.000000 -1.000000
vn 0.000000 0.000000 -1.000000
vn 0.000000 0.000000 -1.000000
vn 0.000000 -0.000000 1.000000
vn 0.000000 0.000000 1.000000
vn 0.000000 -0.000000 1.000000
vn 0.000000 0.000000 1.000000
vn 0.000000 0.000000 1.000000
vn 0.000000 0.000000 1.000000
vn 0.000000 0.000000 1.000000
vn 0.000000 0.000000 1.000000
vn 0.000000 0.000000 1.000000
vn 0.000000 -0.000000 1.000000
vn 0.000000 0.000000 1.000000
vn 0.000000 0.000000 1.000000
vn 0.000000 0.000000 1.000000
vn 0.000000 0.000000 1.000000
vn 0.000000 0.000000 1.000000
vn 0.000000 0.000000 1.000000
vn 0.000000 0.000000 1.000000
vn -0.000000 0.000000 1.000000
vn -0.000000 0.000000 1.000000
vn 0.000000 0.000000 1.000000
vn 0.000000 0.000000 1.000000
vn 0.000000 0.000000 1.000000
vn 0.000000 0.000000 1.000000
vn 0.000000 0.000000 1.000000
vn 0.000000 0.000000 1.000000
vn 0.000000 -0.000000 1.000000
vn -0.733750 0.679420 0.000000
vn -0.733750 0.679420 0.000000
vn -0.635206 -0.772342 0.000000
vn -0.635206 -0.772342 0.000000
vn -0.785536 0.618816 0.000000
vn -0.785536 0.618816 0.000000
vn -0.655633 -0.755080 0.000000
vn -0.655633 -0.755080 0.000000
vn -0.757753 0.652541 0.000000
vn -0.757753 0.652541 0.000000
vn 0.555040 0.831823 0.000000
vn 0.555040 0.831823 -0.000000
vn 0.555142 0.831755 0.000000
vn 0.555142 0.831755 -0.000000
vn 0.770555 -0.637373 0.000000
vn 0.770555 -0.637373 0.000000
vn 0.679002 0.734137 0.000000
vn 0.679002 0.734137 -0.000000
vn 0.716033 -0.698066 0.000000
vn 0.716033 -0.698066 0.000000
vn 0.581286 0.813699 0.000000
vn 0.581286 0.813699 -0.000000
vn -0.820030 0.572321 0.000000
vn -0.820030 0.572321 0.000000
vn -0.768651 0.639668 0.000000
vn -0.768651 0.639668 0.000000
vn 0.609663 0.792661 0.000000
vn 0.609663 0.792661 -0.000000
vn 0.771844 -0.635812 0.000000
vn 0.771844 -0.635812 0.000000
vn 0.628831 0.777542 0.000000
vn 0.628831 0.777542 -0.000000
vn 0.780783 -0.624802 0.000000
vn 0.780783 -0.624802 0.000000
vn 0.908693 0.417464 0.000000
vn 0.908693 0.417464 -0.000000
vn -0.575015 0.818143 0.000000
vn -0.575015 0.818143 0.000000
vn 0.717857 0.696191 0.000000
vn 0.717857 0.696191 -0.000000
vn 0.800477 -0.599363 0.000000
vn 0.800477 -0.599363 0.000000
vn -0.793020 -0.609195 0.000000
vn -0.793020 -0.609195 0.000000
vn 0.613534 -0.789668 0.000000
vn 0.613534 -0.789668 0.000000
vn -0.805961 -0.591969 0.000000
vn -0.805961 -0.591969 0.000000
vn 0.663571 -0.748113 0.000000
vn 0.663571 -0.748113 0.000000
vn -0.788198 -0.615421 0.000000
vn -0.788198 -0.615421 0.000000
vn -0.635696 0.771939 0.000000
vn -0.635696 0.771939 0.000000
vn -0.828340 -0.560225 0.000000
vn -0.828340 -0.560225 0.000000
usemtl assumed_base
f 28//1 1//1 2//1
f 2//2 3//2 4//2
f 4//3 5//3 6//3
f 6//4 7//4 8//4
f 6//5 8//5 9//5
f 4//6 6//6 9//6
f 2//7 4//7 9//7
f 9//8 10//8 11//8
f 2//9 9//9 11//9
f 2//10 11//10 12//10
f 2//11 12//11 13//11
f 2//12 13//12 14//12
f 28//13 2//13 14//13
f 28//14 14//14 15//14
f 28//15 15//15 16//15
f 28//16 16//16 17//16
f 28//17 17//17 18//17
f 28//18 18//18 19//18
f 19//19 20//19 21//19
f 19//20 21//20 22//20
f 19//21 22//21 23//21
f 28//22 19//22 23//22
f 28//23 23//23 24//23
f 28//24 24//24 25//24
f 28//25 25//25 26//25
f 26//26 27//26 28//26
usemtl assumed_roof
f 56//27 30//27 29//27
f 30//28 32//28 31//28
f 32//29 34//29 33//29
f 34//30 36//30 35//30
f 34//31 37//31 36//31
f 32//32 37//32 34//32
f 30//33 37//33 32//33
f 37//34 39//34 38//34
f 30//35 39//35 37//35
f 30//36 40//36 39//36
f 30//37 41//37 40//37
f 30//38 42//38 41//38
f 56//39 42//39 30//39
f 56//40 43//40 42//40
f 56//41 44//41 43//41
f 56//42 45//42 44//42
f 56//43 46//43 45//43
f 56//44 47//44 46//44
f 47//45 49//45 48//45
f 47//46 50//46 49//46
f 47//47 51//47 50//47
f 56//48 51//48 47//48
f 56//49 52//49 51//49
f 56//50 53//50 52//50
f 56//51 54//51 53//51
f 54//52 56//52 55//52
usemtl assumed_wall
f 1//53 30//53 2//53
f 1//54 29//54 30//54
f 2//55 31//55 3//55
f 2//56 30//56 31//56
f 3//57 32//57 4//57
f 3//58 31//58 32//58
f 4//59 33//59 5//59
f 4//60 32//60 33//60
f 5//61 34//61 6//61
f 5//62 33//62 34//62
f 6//63 35//63 7//63
f 6//64 34//64 35//64
f 7//65 36//65 8//65
f 7//66 35//66 36//66
f 8//67 37//67 9//67
f 8//68 36//68 37//68
f 9//69 38//69 10//69
f 9//70 37//70 38//70
f 10//71 39//71 11//71
f 10//72 38//72 39//72
f 11//73 40//73 12//73
f 11//74 39//74 40//74
f 12//75 41//75 13//75
f 12//76 40//76 41//76
f 13//77 42//77 14//77
f 13//78 41//78 42//78
f 14//79 43//79 15//79
f 14//80 42//80 43//80
f 15//81 44//81 16//81
f 15//82 43//82 44//82
f 16//83 45//83 17//83
f 16//84 44//84 45//84
f 17//85 46//85 18//85
f 17//86 45//86 46//86
f 18//87 47//87 19//87
f 18//88 46//88 47//88
f 19//89 48//89 20//89
f 19//90 47//90 48//90
f 20//91 49//91 21//91
f 20//92 48//92 49//92
f 21//93 50//93 22//93
f 21//94 49//94 50//94
f 22//95 51//95 23//95
f 22//96 50//96 51//96
f 23//97 52//97 24//97
f 23//98 51//98 52//98
f 24//99 53//99 25//99
f 24//100 52//100 53//100
f 25//101 54//101 26//101
f 25//102 53//102 54//102
f 26//103 55//103 27//103
f 26//104 54//104 55//104
f 27//105 56//105 28//105
f 27//106 55//106 56//106
f 28//107 29//107 1//107
f 28//108 56//108 29//108
