# construction_4428_assumed_A_Casa
# source A_Casa
# h_campo 0.000000
# modeled_height 6.000000
# height_kind assumed
# local_origin_world_x 172001.034850
# local_origin_world_y 402500.144600
mtllib construction_artifacts.mtl

o construction_4428_assumed_A_Casa
v -12.700500 3.218500 0.000000
v -1.471500 7.296500 0.000000
v 2.521500 5.805500 0.000000
v 3.498500 7.067500 0.000000
v 12.700500 1.160500 0.000000
v 7.087500 -7.296500 0.000000
v -1.989500 -1.162500 0.000000
v -0.832500 0.806500 0.000000
v -10.994500 -1.604500 0.000000
v -12.700500 3.218500 6.000000
v -1.471500 7.296500 6.000000
v 2.521500 5.805500 6.000000
v 3.498500 7.067500 6.000000
v 12.700500 1.160500 6.000000
v 7.087500 -7.296500 6.000000
v -1.989500 -1.162500 6.000000
v -0.832500 0.806500 6.000000
v -10.994500 -1.604500 6.000000
vn 0.000000 0.000000 -1.000000
vn 0.000000 0.000000 -1.000000
vn 0.000000 0.000000 -1.000000
vn 0.000000 0.000000 -1.000000
vn 0.000000 -0.000000 -1.000000
vn 0.000000 0.000000 -1.000000
vn 0.000000 0.000000 -1.000000
vn 0.000000 -0.000000 1.000000
vn 0.000000 0.000000 1.000000
vn -0.000000 0.000000 1.000000
vn 0.000000 0.000000 1.000000
vn 0.000000 0.000000 1.000000
vn 0.000000 0.000000 1.000000
vn 0.000000 0.000000 1.000000
vn -0.341353 0.939935 0.000000
vn -0.341353 0.939935 0.000000
vn 0.349812 0.936820 0.000000
vn 0.349812 0.936820 -0.000000
vn -0.790733 0.612161 0.000000
vn -0.790733 0.612161 0.000000
vn 0.540203 0.841535 0.000000
vn 0.540203 0.841535 -0.000000
vn 0.833185 -0.552994 0.000000
vn 0.833185 -0.552994 0.000000
vn -0.559913 -0.828551 0.000000
vn -0.559913 -0.828551 0.000000
vn -0.862171 0.506618 0.000000
vn -0.862171 0.506618 0.000000
vn 0.230848 -0.972990 0.000000
vn 0.230848 -0.972990 0.000000
vn -0.942759 -0.333474 0.000000
vn -0.942759 -0.333474 0.000000
usemtl assumed_base
f 9//1 1//1 2//1
f 9//2 2//2 3//2
f 3//3 4//3 5//3
f 3//4 5//4 6//4
f 3//5 6//5 7//5
f 3//6 7//6 8//6
f 3//7 8//7 9//7
usemtl assumed_roof
f 18//8 11//8 10//8
f 18//9 12//9 11//9
f 12//10 14//10 13//10
f 12//11 15//11 14//11
f 12//12 16//12 15//12
f 12//13 17//13 16//13
f 12//14 18//14 17//14
usemtl assumed_wall
f 1//15 11//15 2//15
f 1//16 10//16 11//16
f 2//17 12//17 3//17
f 2//18 11//18 12//18
f 3//19 13//19 4//19
f 3//20 12//20 13//20
f 4//21 14//21 5//21
f 4//22 13//22 14//22
f 5//23 15//23 6//23
f 5//24 14//24 15//24
f 6//25 16//25 7//25
f 6//26 15//26 16//26
f 7//27 17//27 8//27
f 7//28 16//28 17//28
f 8//29 18//29 9//29
f 8//30 17//30 18//30
f 9//31 10//31 1//31
f 9//32 18//32 10//32
