# construction_5951_assumed_A_Casa
# source A_Casa
# h_campo 0.000000
# modeled_height 6.000000
# height_kind assumed
# local_origin_world_x 172001.034850
# local_origin_world_y 402500.144600
mtllib construction_artifacts.mtl

o construction_5951_assumed_A_Casa
v 1.161500 -19.995500 0.000000
v -4.384500 -7.124500 0.000000
v -2.015500 -5.906500 0.000000
v -4.313500 0.439500 0.000000
v -3.400500 0.662500 0.000000
v -7.843500 12.260500 0.000000
v -5.821500 13.348500 0.000000
v -7.525500 17.979500 0.000000
v -2.621500 19.995500 0.000000
v -0.587500 15.110500 0.000000
v -2.192500 14.645500 0.000000
v 6.793500 -6.720500 0.000000
v 4.969500 -7.205500 0.000000
v 7.843500 -15.668500 0.000000
v 4.906500 -16.395500 0.000000
v 5.592500 -18.456500 0.000000
v 1.161500 -19.995500 6.000000
v -4.384500 -7.124500 6.000000
v -2.015500 -5.906500 6.000000
v -4.313500 0.439500 6.000000
v -3.400500 0.662500 6.000000
v -7.843500 12.260500 6.000000
v -5.821500 13.348500 6.000000
v -7.525500 17.979500 6.000000
v -2.621500 19.995500 6.000000
v -0.587500 15.110500 6.000000
v -2.192500 14.645500 6.000000
v 6.793500 -6.720500 6.000000
v 4.969500 -7.205500 6.000000
v 7.843500 -15.668500 6.000000
v 4.906500 -16.395500 6.000000
v 5.592500 -18.456500 6.000000
vn -0.000000 0.000000 -1.000000
vn 0.000000 0.000000 -1.000000
vn 0.000000 0.000000 -1.000000
vn 0.000000 0.000000 -1.000000
vn 0.000000 0.000000 -1.000000
vn 0.000000 0.000000 -1.000000
vn 0.000000 0.000000 -1.000000
vn 0.000000 0.000000 -1.000000
vn 0.000000 0.000000 -1.000000
vn 0.000000 0.000000 -1.000000
vn 0.000000 0.000000 -1.000000
vn 0.000000 0.000000 -1.000000
vn 0.000000 0.000000 -1.000000
vn 0.000000 0.000000 -1.000000
vn 0.000000 0.000000 1.000000
vn 0.000000 0.000000 1.000000
vn 0.000000 0.000000 1.000000
vn 0.000000 0.000000 1.000000
vn 0.000000 0.000000 1.000000
vn 0.000000 0.000000 1.000000
vn 0.000000 -0.000000 1.000000
vn 0.000000 0.000000 1.000000
vn 0.000000 0.000000 1.000000
vn -0.000000 0.000000 1.000000
vn 0.000000 0.000000 1.000000
vn 0.000000 0.000000 1.000000
vn 0.000000 0.000000 1.000000
vn 0.000000 0.000000 1.000000
vn -0.918372 -0.395718 0.000000
vn -0.918372 -0.395718 0.000000
vn -0.457246 0.889340 0.000000
vn -0.457246 0.889340 0.000000
vn -0.940251 -0.340482 0.000000
vn -0.940251 -0.340482 0.000000
vn -0.237275 0.971443 0.000000
vn -0.237275 0.971443 0.000000
vn -0.933824 -0.357732 0.000000
vn -0.933824 -0.357732 0.000000
vn -0.473840 0.880611 0.000000
vn -0.473840 0.880611 0.000000
vn -0.938485 -0.345320 0.000000
vn -0.938485 -0.345320 0.000000
vn -0.380219 0.924897 0.000000
vn -0.380219 0.924897 0.000000
vn 0.923172 0.384387 0.000000
vn 0.923172 0.384387 -0.000000
vn 0.278276 -0.960501 0.000000
vn 0.278276 -0.960501 0.000000
vn 0.921793 0.387683 0.000000
vn 0.921793 0.387683 -0.000000
vn 0.256970 -0.966419 0.000000
vn 0.256970 -0.966419 0.000000
vn 0.946889 0.321560 0.000000
vn 0.946889 0.321560 -0.000000
vn 0.240280 -0.970704 0.000000
vn 0.240280 -0.970704 0.000000
vn 0.948821 0.315813 0.000000
vn 0.948821 0.315813 -0.000000
vn 0.328099 -0.944643 0.000000
vn 0.328099 -0.944643 0.000000
usemtl assumed_base
f 16//1 1//1 2//1
f 16//2 2//2 3//2
f 16//3 3//3 4//3
f 16//4 4//4 5//4
f 16//5 5//5 6//5
f 16//6 6//6 7//6
f 7//7 8//7 9//7
f 9//8 10//8 11//8
f 7//9 9//9 11//9
f 7//10 11//10 12//10
f 7//11 12//11 13//11
f 7//12 13//12 14//12
f 7//13 14//13 15//13
f 7//14 15//14 16//14
usemtl assumed_roof
f 32//15 18//15 17//15
f 32//16 19//16 18//16
f 32//17 20//17 19//17
f 32//18 21//18 20//18
f 32//19 22//19 21//19
f 32//20 23//20 22//20
f 23//21 25//21 24//21
f 25//22 27//22 26//22
f 23//23 27//23 25//23
f 23//24 28//24 27//24
f 23//25 29//25 28//25
f 23//26 30//26 29//26
f 23//27 31//27 30//27
f 23//28 32//28 31//28
usemtl assumed_wall
f 1//29 18//29 2//29
f 1//30 17//30 18//30
f 2//31 19//31 3//31
f 2//32 18//32 19//32
f 3//33 20//33 4//33
f 3//34 19//34 20//34
f 4//35 21//35 5//35
f 4//36 20//36 21//36
f 5//37 22//37 6//37
f 5//38 21//38 22//38
f 6//39 23//39 7//39
f 6//40 22//40 23//40
f 7//41 24//41 8//41
f 7//42 23//42 24//42
f 8//43 25//43 9//43
f 8//44 24//44 25//44
f 9//45 26//45 10//45
f 9//46 25//46 26//46
f 10//47 27//47 11//47
f 10//48 26//48 27//48
f 11//49 28//49 12//49
f 11//50 27//50 28//50
f 12//51 29//51 13//51
f 12//52 28//52 29//52
f 13//53 30//53 14//53
f 13//54 29//54 30//54
f 14//55 31//55 15//55
f 14//56 30//56 31//56
f 15//57 32//57 16//57
f 15//58 31//58 32//58
f 16//59 17//59 1//59
f 16//60 32//60 17//60
