# construction_3462_assumed_A_Casa
# source A_Casa
# h_campo 0.000000
# modeled_height 6.000000
# height_kind assumed
# local_origin_world_x 172001.034850
# local_origin_world_y 402500.144600
mtllib construction_artifacts.mtl

o construction_3462_assumed_A_Casa
v -8.320500 11.990500 0.000000
v -6.343500 11.996500 0.000000
v -6.035500 14.139500 0.000000
v 0.196500 17.263500 0.000000
v 8.320500 1.443500 0.000000
v 5.564500 -0.776500 0.000000
v -0.661500 -2.307500 0.000000
v -0.684500 -11.909500 0.000000
v 3.362500 -10.895500 0.000000
v 5.348500 -10.801500 0.000000
v 5.763500 -15.065500 0.000000
v -3.558500 -17.263500 0.000000
v -3.504500 -1.716500 0.000000
v -6.148500 -1.753500 0.000000
v -6.153500 0.035500 0.000000
v -7.676500 0.060500 0.000000
v -8.320500 11.990500 6.000000
v -6.343500 11.996500 6.000000
v -6.035500 14.139500 6.000000
v 0.196500 17.263500 6.000000
v 8.320500 1.443500 6.000000
v 5.564500 -0.776500 6.000000
v -0.661500 -2.307500 6.000000
v -0.684500 -11.909500 6.000000
v 3.362500 -10.895500 6.000000
v 5.348500 -10.801500 6.000000
v 5.763500 -15.065500 6.000000
v -3.558500 -17.263500 6.000000
v -3.504500 -1.716500 6.000000
v -6.148500 -1.753500 6.000000
v -6.153500 0.035500 6.000000
v -7.676500 0.060500 6.000000
vn 0.000000 0.000000 -1.000000
vn 0.000000 0.000000 -1.000000
vn 0.000000 0.000000 -1.000000
vn 0.000000 0.000000 -1.000000
vn 0.000000 0.000000 -1.000000
vn 0.000000 0.000000 -1.000000
vn 0.000000 0.000000 -1.000000
vn 0.000000 -0.000000 -1.000000
vn 0.000000 0.000000 -1.000000
vn -0.000000 0.000000 -1.000000
vn 0.000000 0.000000 -1.000000
vn 0.000000 0.000000 -1.000000
vn 0.000000 0.000000 -1.000000
vn 0.000000 0.000000 -1.000000
vn 0.000000 -0.000000 1.000000
vn 0.000000 0.000000 1.000000
vn 0.000000 0.000000 1.000000
vn 0.000000 0.000000 1.000000
vn 0.000000 0.000000 1.000000
vn 0.000000 0.000000 1.000000
vn -0.000000 0.000000 1.000000
vn 0.000000 0.000000 1.000000
vn 0.000000 0.000000 1.000000
vn 0.000000 0.000000 1.000000
vn 0.000000 0.000000 1.000000
vn 0.000000 0.000000 1.000000
vn 0.000000 0.000000 1.000000
vn 0.000000 0.000000 1.000000
vn -0.003035 0.999995 0.000000
vn -0.003035 0.999995 0.000000
vn -0.989829 0.142262 0.000000
vn -0.989829 0.142262 0.000000
vn -0.448131 0.893968 0.000000
vn -0.448131 0.893968 0.000000
vn 0.889562 0.456814 0.000000
vn 0.889562 0.456814 -0.000000
vn 0.627310 -0.778769 0.000000
vn 0.627310 -0.778769 0.000000
vn 0.238791 -0.971071 0.000000
vn 0.238791 -0.971071 0.000000
vn 0.999997 -0.002395 0.000000
vn 0.999997 -0.002395 0.000000
vn -0.243043 0.970015 0.000000
vn -0.243043 0.970015 0.000000
vn -0.047278 0.998882 0.000000
vn -0.047278 0.998882 0.000000
vn 0.995297 0.096869 0.000000
vn 0.995297 0.096869 -0.000000
vn 0.229493 -0.973310 0.000000
vn 0.229493 -0.973310 0.000000
vn -0.999994 0.003473 0.000000
vn -0.999994 0.003473 0.000000
vn 0.013993 -0.999902 0.000000
vn 0.013993 -0.999902 0.000000
vn -0.999996 -0.002795 0.000000
vn -0.999996 -0.002795 0.000000
vn -0.016413 -0.999865 0.000000
vn -0.016413 -0.999865 0.000000
vn -0.998546 -0.053903 0.000000
vn -0.998546 -0.053903 0.000000
usemtl assumed_base
f 16//1 1//1 2//1
f 16//2 2//2 3//2
f 16//3 3//3 4//3
f 16//4 4//4 5//4
f 5//5 6//5 7//5
f 8//6 9//6 10//6
f 8//7 10//7 11//7
f 8//8 11//8 12//8
f 7//9 8//9 12//9
f 7//10 12//10 13//10
f 5//11 7//11 13//11
f 5//12 13//12 14//12
f 5//13 14//13 15//13
f 5//14 15//14 16//14
usemtl assumed_roof
f 32//15 18//15 17//15
f 32//16 19//16 18//16
f 32//17 20//17 19//17
f 32//18 21//18 20//18
f 21//19 23//19 22//19
f 24//20 26//20 25//20
f 24//21 27//21 26//21
f 24//22 28//22 27//22
f 23//23 28//23 24//23
f 23//24 29//24 28//24
f 21//25 29//25 23//25
f 21//26 30//26 29//26
f 21//27 31//27 30//27
f 21//28 32//28 31//28
usemtl assumed_wall
f 1//29 18//29 2//29
f 1//30 17//30 18//30
f 2//31 19//31 3//31
f 2//32 18//32 19//32
f 3//33 20//33 4//33
f 3//34 19//34 20//34
f 4//35 21//35 5//35
f 4//36 20//36 21//36
f 5//37 22//37 6//37
f 5//38 21//38 22//38
f 6//39 23//39 7//39
f 6//40 22//40 23//40
f 7//41 24//41 8//41
f 7//42 23//42 24//42
f 8//43 25//43 9//43
f 8//44 24//44 25//44
f 9//45 26//45 10//45
f 9//46 25//46 26//46
f 10//47 27//47 11//47
f 10//48 26//48 27//48
f 11//49 28//49 12//49
f 11//50 27//50 28//50
f 12//51 29//51 13//51
f 12//52 28//52 29//52
f 13//53 30//53 14//53
f 13//54 29//54 30//54
f 14//55 31//55 15//55
f 14//56 30//56 31//56
f 15//57 32//57 16//57
f 15//58 31//58 32//58
f 16//59 17//59 1//59
f 16//60 32//60 17//60
