# construction_2767_assumed_A_Casa
# source A_Casa
# h_campo 0.000000
# modeled_height 6.000000
# height_kind assumed
# local_origin_world_x 172001.034850
# local_origin_world_y 402500.144600
mtllib construction_artifacts.mtl

o construction_2767_assumed_A_Casa
v 1.544000 -8.191000 0.000000
v -1.919000 -7.007000 0.000000
v -0.568000 -3.431000 0.000000
v -6.247000 -0.858000 0.000000
v -3.373000 6.043000 0.000000
v -2.668000 5.627000 0.000000
v -1.605000 8.191000 0.000000
v 3.791000 5.841000 0.000000
v 2.880000 3.602000 0.000000
v 6.247000 2.066000 0.000000
v 1.544000 -8.191000 6.000000
v -1.919000 -7.007000 6.000000
v -0.568000 -3.431000 6.000000
v -6.247000 -0.858000 6.000000
v -3.373000 6.043000 6.000000
v -2.668000 5.627000 6.000000
v -1.605000 8.191000 6.000000
v 3.791000 5.841000 6.000000
v 2.880000 3.602000 6.000000
v 6.247000 2.066000 6.000000
vn 0.000000 0.000000 -1.000000
vn 0.000000 0.000000 -1.000000
vn 0.000000 0.000000 -1.000000
vn 0.000000 0.000000 -1.000000
vn -0.000000 0.000000 -1.000000
vn 0.000000 0.000000 -1.000000
vn 0.000000 0.000000 -1.000000
vn 0.000000 0.000000 -1.000000
vn 0.000000 0.000000 1.000000
vn 0.000000 0.000000 1.000000
vn 0.000000 0.000000 1.000000
vn 0.000000 0.000000 1.000000
vn 0.000000 0.000000 1.000000
vn 0.000000 0.000000 1.000000
vn -0.000000 0.000000 1.000000
vn 0.000000 0.000000 1.000000
vn -0.323514 -0.946223 0.000000
vn -0.323514 -0.946223 0.000000
vn -0.935466 0.353416 0.000000
vn -0.935466 0.353416 0.000000
vn -0.412691 -0.910871 0.000000
vn -0.412691 -0.910871 0.000000
vn -0.923144 0.384454 0.000000
vn -0.923144 0.384454 0.000000
vn 0.508194 0.861243 0.000000
vn 0.508194 0.861243 -0.000000
vn -0.923758 0.382978 0.000000
vn -0.923758 0.382978 0.000000
vn 0.399285 0.916827 0.000000
vn 0.399285 0.916827 -0.000000
vn 0.926264 -0.376876 0.000000
vn 0.926264 -0.376876 0.000000
vn 0.415044 0.909801 0.000000
vn 0.415044 0.909801 -0.000000
vn 0.909002 -0.416792 0.000000
vn 0.909002 -0.416792 0.000000
usemtl assumed_base
f 10//1 1//1 2//1
f 10//2 2//2 3//2
f 10//3 3//3 4//3
f 4//4 5//4 6//4
f 10//5 4//5 6//5
f 6//6 7//6 8//6
f 6//7 8//7 9//7
f 6//8 9//8 10//8
usemtl assumed_roof
f 20//9 12//9 11//9
f 20//10 13//10 12//10
f 20//11 14//11 13//11
f 14//12 16//12 15//12
f 20//13 16//13 14//13
f 16//14 18//14 17//14
f 16//15 19//15 18//15
f 16//16 20//16 19//16
usemtl assumed_wall
f 1//17 12//17 2//17
f 1//18 11//18 12//18
f 2//19 13//19 3//19
f 2//20 12//20 13//20
f 3//21 14//21 4//21
f 3//22 13//22 14//22
f 4//23 15//23 5//23
f 4//24 14//24 15//24
f 5//25 16//25 6//25
f 5//26 15//26 16//26
f 6//27 17//27 7//27
f 6//28 16//28 17//28
f 7//29 18//29 8//29
f 7//30 17//30 18//30
f 8//31 19//31 9//31
f 8//32 18//32 19//32
f 9//33 20//33 10//33
f 9//34 19//34 20//34
f 10//35 11//35 1//35
f 10//36 20//36 11//36
