# construction_7056_assumed_A_Casa
# source A_Casa
# h_campo 0.000000
# modeled_height 6.000000
# height_kind assumed
# local_origin_world_x 172001.034850
# local_origin_world_y 402500.144600
mtllib construction_artifacts.mtl

o construction_7056_assumed_A_Casa
v -0.717500 6.707000 0.000000
v 7.871500 2.952000 0.000000
v 5.492500 -6.387000 0.000000
v 3.104500 -5.432000 0.000000
v 3.106500 -4.926000 0.000000
v -0.695500 -3.423000 0.000000
v -1.919500 -6.707000 0.000000
v -7.871500 -4.730000 0.000000
v -6.733500 -0.522000 0.000000
v -3.939500 -1.264000 0.000000
v -0.717500 6.707000 6.000000
v 7.871500 2.952000 6.000000
v 5.492500 -6.387000 6.000000
v 3.104500 -5.432000 6.000000
v 3.106500 -4.926000 6.000000
v -0.695500 -3.423000 6.000000
v -1.919500 -6.707000 6.000000
v -7.871500 -4.730000 6.000000
v -6.733500 -0.522000 6.000000
v -3.939500 -1.264000 6.000000
vn 0.000000 0.000000 -1.000000
vn 0.000000 0.000000 -1.000000
vn 0.000000 0.000000 -1.000000
vn 0.000000 0.000000 -1.000000
vn 0.000000 0.000000 -1.000000
vn 0.000000 0.000000 -1.000000
vn 0.000000 -0.000000 -1.000000
vn 0.000000 0.000000 -1.000000
vn 0.000000 0.000000 1.000000
vn 0.000000 0.000000 1.000000
vn 0.000000 0.000000 1.000000
vn -0.000000 0.000000 1.000000
vn 0.000000 0.000000 1.000000
vn 0.000000 0.000000 1.000000
vn 0.000000 0.000000 1.000000
vn 0.000000 0.000000 1.000000
vn 0.400578 0.916263 0.000000
vn 0.400578 0.916263 -0.000000
vn 0.969053 -0.246855 0.000000
vn 0.969053 -0.246855 0.000000
vn -0.371324 -0.928504 0.000000
vn -0.371324 -0.928504 0.000000
vn -0.999992 0.003953 0.000000
vn -0.999992 0.003953 0.000000
vn -0.367634 -0.929970 0.000000
vn -0.367634 -0.929970 0.000000
vn 0.937031 -0.349247 0.000000
vn 0.937031 -0.349247 0.000000
vn -0.315223 -0.949018 0.000000
vn -0.315223 -0.949018 0.000000
vn -0.965323 0.261059 0.000000
vn -0.965323 0.261059 0.000000
vn 0.256672 0.966499 0.000000
vn 0.256672 0.966499 -0.000000
vn -0.927123 0.374757 0.000000
vn -0.927123 0.374757 0.000000
usemtl assumed_base
f 10//1 1//1 2//1
f 2//2 3//2 4//2
f 2//3 4//3 5//3
f 10//4 2//4 5//4
f 10//5 5//5 6//5
f 10//6 6//6 7//6
f 10//7 7//7 8//7
f 8//8 9//8 10//8
usemtl assumed_roof
f 20//9 12//9 11//9
f 12//10 14//10 13//10
f 12//11 15//11 14//11
f 20//12 15//12 12//12
f 20//13 16//13 15//13
f 20//14 17//14 16//14
f 20//15 18//15 17//15
f 18//16 20//16 19//16
usemtl assumed_wall
f 1//17 12//17 2//17
f 1//18 11//18 12//18
f 2//19 13//19 3//19
f 2//20 12//20 13//20
f 3//21 14//21 4//21
f 3//22 13//22 14//22
f 4//23 15//23 5//23
f 4//24 14//24 15//24
f 5//25 16//25 6//25
f 5//26 15//26 16//26
f 6//27 17//27 7//27
f 6//28 16//28 17//28
f 7//29 18//29 8//29
f 7//30 17//30 18//30
f 8//31 19//31 9//31
f 8//32 18//32 19//32
f 9//33 20//33 10//33
f 9//34 19//34 20//34
f 10//35 11//35 1//35
f 10//36 20//36 11//36
