# construction_0097_assumed_A_Grande_construcao
# source A_Grande_construcao
# h_campo 0.000000
# modeled_height 6.000000
# height_kind assumed
# local_origin_world_x 172001.034850
# local_origin_world_y 402500.144600
mtllib construction_artifacts.mtl

o construction_0097_assumed_A_Grande_construcao
v -58.676500 -43.590000 0.000000
v -56.135500 -4.785000 0.000000
v -79.048500 -3.695000 0.000000
v -77.572500 26.197000 0.000000
v -22.161500 23.622000 0.000000
v -20.877500 39.439000 0.000000
v 4.374500 38.039000 0.000000
v 4.615500 42.692000 0.000000
v 19.294500 41.626000 0.000000
v 19.658500 45.115000 0.000000
v 35.615500 44.032000 0.000000
v 35.325500 39.999000 0.000000
v 79.048500 37.040000 0.000000
v 74.469500 -20.603000 0.000000
v 0.844500 -15.156000 0.000000
v 0.872500 -14.207000 0.000000
v -12.908500 -13.193000 0.000000
v -12.925500 -14.534000 0.000000
v -21.549500 -14.117000 0.000000
v -22.910500 -38.938000 0.000000
v -28.158500 -38.923000 0.000000
v -28.116500 -41.744000 0.000000
v -33.768500 -41.601000 0.000000
v -33.507500 -38.466000 0.000000
v -38.513500 -37.996000 0.000000
v -38.824500 -45.115000 0.000000
v -58.676500 -43.590000 6.000000
v -56.135500 -4.785000 6.000000
v -79.048500 -3.695000 6.000000
v -77.572500 26.197000 6.000000
v -22.161500 23.622000 6.000000
v -20.877500 39.439000 6.000000
v 4.374500 38.039000 6.000000
v 4.615500 42.692000 6.000000
v 19.294500 41.626000 6.000000
v 19.658500 45.115000 6.000000
v 35.615500 44.032000 6.000000
v 35.325500 39.999000 6.000000
v 79.048500 37.040000 6.000000
v 74.469500 -20.603000 6.000000
v 0.844500 -15.156000 6.000000
v 0.872500 -14.207000 6.000000
v -12.908500 -13.193000 6.000000
v -12.925500 -14.534000 6.000000
v -21.549500 -14.117000 6.000000
v -22.910500 -38.938000 6.000000
v -28.158500 -38.923000 6.000000
v -28.116500 -41.744000 6.000000
v -33.768500 -41.601000 6.000000
v -33.507500 -38.466000 6.000000
v -38.513500 -37.996000 6.000000
v -38.824500 -45.115000 6.000000
vn 0.000000 0.000000 -1.000000
vn 0.000000 0.000000 -1.000000
vn 0.000000 0.000000 -1.000000
vn 0.000000 0.000000 -1.000000
vn 0.000000 0.000000 -1.000000
vn 0.000000 0.000000 -1.000000
vn 0.000000 0.000000 -1.000000
vn 0.000000 0.000000 -1.000000
vn 0.000000 0.000000 -1.000000
vn 0.000000 0.000000 -1.000000
vn 0.000000 0.000000 -1.000000
vn 0.000000 0.000000 -1.000000
vn 0.000000 0.000000 -1.000000
vn 0.000000 0.000000 -1.000000
vn 0.000000 0.000000 -1.000000
vn 0.000000 0.000000 -1.000000
vn 0.000000 0.000000 -1.000000
vn 0.000000 0.000000 -1.000000
vn 0.000000 0.000000 -1.000000
vn 0.000000 0.000000 -1.000000
vn 0.000000 0.000000 -1.000000
vn 0.000000 0.000000 -1.000000
vn 0.000000 0.000000 -1.000000
vn 0.000000 0.000000 -1.000000
vn 0.000000 0.000000 1.000000
vn 0.000000 0.000000 1.000000
vn 0.000000 -0.000000 1.000000
vn 0.000000 0.000000 1.000000
vn 0.000000 0.000000 1.000000
vn 0.000000 0.000000 1.000000
vn 0.000000 0.000000 1.000000
vn 0.000000 0.000000 1.000000
vn 0.000000 0.000000 1.000000
vn 0.000000 0.000000 1.000000
vn 0.000000 0.000000 1.000000
vn -0.000000 0.000000 1.000000
vn 0.000000 0.000000 1.000000
vn 0.000000 0.000000 1.000000
vn 0.000000 0.000000 1.000000
vn 0.000000 0.000000 1.000000
vn 0.000000 0.000000 1.000000
vn 0.000000 0.000000 1.000000
vn 0.000000 0.000000 1.000000
vn 0.000000 0.000000 1.000000
vn 0.000000 0.000000 1.000000
vn 0.000000 0.000000 1.000000
vn 0.000000 0.000000 1.000000
vn 0.000000 0.000000 1.000000
vn -0.997863 0.065341 0.000000
vn -0.997863 0.065341 0.000000
vn -0.047518 -0.998870 0.000000
vn -0.047518 -0.998870 0.000000
vn -0.998783 0.049318 0.000000
vn -0.998783 0.049318 0.000000
vn 0.046421 0.998922 0.000000
vn 0.046421 0.998922 -0.000000
vn -0.996721 0.080912 0.000000
vn -0.996721 0.080912 0.000000
vn 0.055356 0.998467 0.000000
vn 0.055356 0.998467 -0.000000
vn -0.998661 0.051725 0.000000
vn -0.998661 0.051725 0.000000
vn 0.072430 0.997373 0.000000
vn 0.072430 0.997373 -0.000000
vn -0.994602 0.103765 0.000000
vn -0.994602 0.103765 0.000000
vn 0.067714 0.997705 0.000000
vn 0.067714 0.997705 -0.000000
vn 0.997425 -0.071722 0.000000
vn 0.997425 -0.071722 0.000000
vn 0.067522 0.997718 0.000000
vn 0.067522 0.997718 -0.000000
vn 0.996860 -0.079188 0.000000
vn 0.996860 -0.079188 0.000000
vn -0.073781 -0.997274 0.000000
vn -0.073781 -0.997274 0.000000
vn -0.999565 0.029492 0.000000
vn -0.999565 0.029492 0.000000
vn -0.073381 -0.997304 0.000000
vn -0.073381 -0.997304 0.000000
vn 0.999920 -0.012676 0.000000
vn 0.999920 -0.012676 0.000000
vn -0.048297 -0.998833 0.000000
vn -0.048297 -0.998833 0.000000
vn 0.998500 -0.054750 0.000000
vn 0.998500 -0.054750 0.000000
vn -0.002858 -0.999996 0.000000
vn -0.002858 -0.999996 0.000000
vn 0.999889 0.014887 0.000000
vn 0.999889 0.014887 -0.000000
vn -0.025293 -0.999680 0.000000
vn -0.025293 -0.999680 0.000000
vn -0.996552 0.082967 0.000000
vn -0.996552 0.082967 0.000000
vn -0.093476 -0.995622 0.000000
vn -0.093476 -0.995622 0.000000
vn 0.999047 -0.043644 0.000000
vn 0.999047 -0.043644 0.000000
vn -0.076593 -0.997062 0.000000
vn -0.076593 -0.997062 0.000000
usemtl assumed_base
f 26//1 1//1 2//1
f 2//2 3//2 4//2
f 2//3 4//3 5//3
f 5//4 6//4 7//4
f 2//5 5//5 7//5
f 7//6 8//6 9//6
f 2//7 7//7 9//7
f 9//8 10//8 11//8
f 2//9 9//9 11//9
f 2//10 11//10 12//10
f 2//11 12//11 13//11
f 2//12 13//12 14//12
f 14//13 15//13 16//13
f 2//14 14//14 16//14
f 2//15 16//15 17//15
f 2//16 17//16 18//16
f 2//17 18//17 19//17
f 2//18 19//18 20//18
f 2//19 20//19 21//19
f 2//20 21//20 22//20
f 22//21 23//21 24//21
f 2//22 22//22 24//22
f 2//23 24//23 25//23
f 2//24 25//24 26//24
usemtl assumed_roof
f 52//25 28//25 27//25
f 28//26 30//26 29//26
f 28//27 31//27 30//27
f 31//28 33//28 32//28
f 28//29 33//29 31//29
f 33//30 35//30 34//30
f 28//31 35//31 33//31
f 35//32 37//32 36//32
f 28//33 37//33 35//33
f 28//34 38//34 37//34
f 28//35 39//35 38//35
f 28//36 40//36 39//36
f 40//37 42//37 41//37
f 28//38 42//38 40//38
f 28//39 43//39 42//39
f 28//40 44//40 43//40
f 28//41 45//41 44//41
f 28//42 46//42 45//42
f 28//43 47//43 46//43
f 28//44 48//44 47//44
f 48//45 50//45 49//45
f 28//46 50//46 48//46
f 28//47 51//47 50//47
f 28//48 52//48 51//48
usemtl assumed_wall
f 1//49 28//49 2//49
f 1//50 27//50 28//50
f 2//51 29//51 3//51
f 2//52 28//52 29//52
f 3//53 30//53 4//53
f 3//54 29//54 30//54
f 4//55 31//55 5//55
f 4//56 30//56 31//56
f 5//57 32//57 6//57
f 5//58 31//58 32//58
f 6//59 33//59 7//59
f 6//60 32//60 33//60
f 7//61 34//61 8//61
f 7//62 33//62 34//62
f 8//63 35//63 9//63
f 8//64 34//64 35//64
f 9//65 36//65 10//65
f 9//66 35//66 36//66
f 10//67 37//67 11//67
f 10//68 36//68 37//68
f 11//69 38//69 12//69
f 11//70 37//70 38//70
f 12//71 39//71 13//71
f 12//72 38//72 39//72
f 13//73 40//73 14//73
f 13//74 39//74 40//74
f 14//75 41//75 15//75
f 14//76 40//76 41//76
f 15//77 42//77 16//77
f 15//78 41//78 42//78
f 16//79 43//79 17//79
f 16//80 42//80 43//80
f 17//81 44//81 18//81
f 17//82 43//82 44//82
f 18//83 45//83 19//83
f 18//84 44//84 45//84
f 19//85 46//85 20//85
f 19//86 45//86 46//86
f 20//87 47//87 21//87
f 20//88 46//88 47//88
f 21//89 48//89 22//89
f 21//90 47//90 48//90
f 22//91 49//91 23//91
f 22//92 48//92 49//92
f 23//93 50//93 24//93
f 23//94 49//94 50//94
f 24//95 51//95 25//95
f 24//96 50//96 51//96
f 25//97 52//97 26//97
f 25//98 51//98 52//98
f 26//99 27//99 1//99
f 26//100 52//100 27//100
