# construction_6010_assumed_A_Casa
# source A_Casa
# h_campo 0.000000
# modeled_height 6.000000
# height_kind assumed
# local_origin_world_x 172001.034850
# local_origin_world_y 402500.144600
mtllib construction_artifacts.mtl

o construction_6010_assumed_A_Casa
v -8.586500 -6.071500 0.000000
v -8.226500 0.127500 0.000000
v -5.456500 0.141500 0.000000
v -5.203500 5.177500 0.000000
v -4.313500 9.203500 0.000000
v 1.583500 8.816500 0.000000
v 1.112500 6.890500 0.000000
v 3.237500 6.901500 0.000000
v 3.047500 4.358500 0.000000
v 8.500500 3.968500 0.000000
v 8.586500 -3.000500 0.000000
v 7.403500 -9.203500 0.000000
v -2.291500 -8.063500 0.000000
v -2.122500 -6.443500 0.000000
v -8.586500 -6.071500 6.000000
v -8.226500 0.127500 6.000000
v -5.456500 0.141500 6.000000
v -5.203500 5.177500 6.000000
v -4.313500 9.203500 6.000000
v 1.583500 8.816500 6.000000
v 1.112500 6.890500 6.000000
v 3.237500 6.901500 6.000000
v 3.047500 4.358500 6.000000
v 8.500500 3.968500 6.000000
v 8.586500 -3.000500 6.000000
v 7.403500 -9.203500 6.000000
v -2.291500 -8.063500 6.000000
v -2.122500 -6.443500 6.000000
vn 0.000000 0.000000 -1.000000
vn 0.000000 0.000000 -1.000000
vn 0.000000 0.000000 -1.000000
vn 0.000000 0.000000 -1.000000
vn 0.000000 0.000000 -1.000000
vn 0.000000 0.000000 -1.000000
vn 0.000000 0.000000 -1.000000
vn 0.000000 0.000000 -1.000000
vn 0.000000 0.000000 -1.000000
vn 0.000000 0.000000 -1.000000
vn 0.000000 0.000000 -1.000000
vn 0.000000 0.000000 -1.000000
vn 0.000000 0.000000 1.000000
vn 0.000000 0.000000 1.000000
vn 0.000000 0.000000 1.000000
vn 0.000000 0.000000 1.000000
vn 0.000000 0.000000 1.000000
vn 0.000000 -0.000000 1.000000
vn 0.000000 0.000000 1.000000
vn 0.000000 0.000000 1.000000
vn 0.000000 0.000000 1.000000
vn 0.000000 0.000000 1.000000
vn -0.000000 0.000000 1.000000
vn 0.000000 0.000000 1.000000
vn -0.998318 0.057976 0.000000
vn -0.998318 0.057976 0.000000
vn -0.005054 0.999987 0.000000
vn -0.005054 0.999987 0.000000
vn -0.998740 0.050175 0.000000
vn -0.998740 0.050175 0.000000
vn -0.976426 0.215852 0.000000
vn -0.976426 0.215852 0.000000
vn 0.065486 0.997854 0.000000
vn 0.065486 0.997854 -0.000000
vn 0.971376 -0.237548 0.000000
vn 0.971376 -0.237548 0.000000
vn -0.005176 0.999987 0.000000
vn -0.005176 0.999987 0.000000
vn 0.997220 -0.074507 0.000000
vn 0.997220 -0.074507 0.000000
vn 0.071338 0.997452 0.000000
vn 0.071338 0.997452 -0.000000
vn 0.999924 0.012339 0.000000
vn 0.999924 0.012339 -0.000000
vn 0.982296 -0.187338 0.000000
vn 0.982296 -0.187338 0.000000
vn -0.116782 -0.993158 0.000000
vn -0.116782 -0.993158 0.000000
vn -0.994603 0.103758 0.000000
vn -0.994603 0.103758 0.000000
vn -0.057454 -0.998348 0.000000
vn -0.057454 -0.998348 0.000000
usemtl assumed_base
f 14//1 1//1 2//1
f 14//2 2//2 3//2
f 14//3 3//3 4//3
f 14//4 4//4 5//4
f 5//5 6//5 7//5
f 14//6 5//6 7//6
f 14//7 7//7 8//7
f 14//8 8//8 9//8
f 14//9 9//9 10//9
f 14//10 10//10 11//10
f 14//11 11//11 12//11
f 12//12 13//12 14//12
usemtl assumed_roof
f 28//13 16//13 15//13
f 28//14 17//14 16//14
f 28//15 18//15 17//15
f 28//16 19//16 18//16
f 19//17 21//17 20//17
f 28//18 21//18 19//18
f 28//19 22//19 21//19
f 28//20 23//20 22//20
f 28//21 24//21 23//21
f 28//22 25//22 24//22
f 28//23 26//23 25//23
f 26//24 28//24 27//24
usemtl assumed_wall
f 1//25 16//25 2//25
f 1//26 15//26 16//26
f 2//27 17//27 3//27
f 2//28 16//28 17//28
f 3//29 18//29 4//29
f 3//30 17//30 18//30
f 4//31 19//31 5//31
f 4//32 18//32 19//32
f 5//33 20//33 6//33
f 5//34 19//34 20//34
f 6//35 21//35 7//35
f 6//36 20//36 21//36
f 7//37 22//37 8//37
f 7//38 21//38 22//38
f 8//39 23//39 9//39
f 8//40 22//40 23//40
f 9//41 24//41 10//41
f 9//42 23//42 24//42
f 10//43 25//43 11//43
f 10//44 24//44 25//44
f 11//45 26//45 12//45
f 11//46 25//46 26//46
f 12//47 27//47 13//47
f 12//48 26//48 27//48
f 13//49 28//49 14//49
f 13//50 27//50 28//50
f 14//51 15//51 1//51
f 14//52 28//52 15//52
