# construction_0293_assumed_A_Casa
# source A_Casa
# h_campo 0.000000
# modeled_height 6.000000
# height_kind assumed
# local_origin_world_x 172001.034850
# local_origin_world_y 402500.144600
mtllib construction_artifacts.mtl

o construction_0293_assumed_A_Casa
v -8.339500 -0.098000 0.000000
v 0.283500 5.859000 0.000000
v 1.464500 5.864000 0.000000
v 1.443500 6.842000 0.000000
v 6.846500 7.594000 0.000000
v 8.339500 -4.772000 0.000000
v 2.835500 -5.540000 0.000000
v 2.575500 -3.492000 0.000000
v -3.262500 -7.594000 0.000000
v -8.339500 -0.098000 6.000000
v 0.283500 5.859000 6.000000
v 1.464500 5.864000 6.000000
v 1.443500 6.842000 6.000000
v 6.846500 7.594000 6.000000
v 8.339500 -4.772000 6.000000
v 2.835500 -5.540000 6.000000
v 2.575500 -3.492000 6.000000
v -3.262500 -7.594000 6.000000
vn 0.000000 0.000000 -1.000000
vn 0.000000 0.000000 -1.000000
vn 0.000000 0.000000 -1.000000
vn 0.000000 0.000000 -1.000000
vn 0.000000 -0.000000 -1.000000
vn 0.000000 0.000000 -1.000000
vn 0.000000 0.000000 -1.000000
vn 0.000000 -0.000000 1.000000
vn 0.000000 0.000000 1.000000
vn 0.000000 -0.000000 1.000000
vn 0.000000 0.000000 1.000000
vn 0.000000 0.000000 1.000000
vn 0.000000 0.000000 1.000000
vn 0.000000 0.000000 1.000000
vn -0.568386 0.822762 0.000000
vn -0.568386 0.822762 0.000000
vn -0.004234 0.999991 0.000000
vn -0.004234 0.999991 0.000000
vn -0.999770 -0.021467 0.000000
vn -0.999770 -0.021467 0.000000
vn -0.137853 0.990453 0.000000
vn -0.137853 0.990453 0.000000
vn 0.992790 0.119864 0.000000
vn 0.992790 0.119864 -0.000000
vn 0.138196 -0.990405 0.000000
vn 0.138196 -0.990405 0.000000
vn -0.992038 -0.125942 0.000000
vn -0.992038 -0.125942 0.000000
vn 0.574910 -0.818217 0.000000
vn 0.574910 -0.818217 0.000000
vn -0.827967 -0.560777 0.000000
vn -0.827967 -0.560777 0.000000
usemtl assumed_base
f 9//1 1//1 2//1
f 9//2 2//2 3//2
f 3//3 4//3 5//3
f 9//4 3//4 5//4
f 5//5 6//5 7//5
f 5//6 7//6 8//6
f 5//7 8//7 9//7
usemtl assumed_roof
f 18//8 11//8 10//8
f 18//9 12//9 11//9
f 12//10 14//10 13//10
f 18//11 14//11 12//11
f 14//12 16//12 15//12
f 14//13 17//13 16//13
f 14//14 18//14 17//14
usemtl assumed_wall
f 1//15 11//15 2//15
f 1//16 10//16 11//16
f 2//17 12//17 3//17
f 2//18 11//18 12//18
f 3//19 13//19 4//19
f 3//20 12//20 13//20
f 4//21 14//21 5//21
f 4//22 13//22 14//22
f 5//23 15//23 6//23
f 5//24 14//24 15//24
f 6//25 16//25 7//25
f 6//26 15//26 16//26
f 7//27 17//27 8//27
f 7//28 16//28 17//28
f 8//29 18//29 9//29
f 8//30 17//30 18//30
f 9//31 10//31 1//31
f 9//32 18//32 10//32
