# construction_1877_assumed_A_Casa
# source A_Casa
# h_campo 0.000000
# modeled_height 6.000000
# height_kind assumed
# local_origin_world_x 172001.034850
# local_origin_world_y 402500.144600
mtllib construction_artifacts.mtl

o construction_1877_assumed_A_Casa
v -0.912550 -0.366550 0.000000
v -1.177350 0.366450 0.000000
v 1.177350 0.366550 0.000000
v -0.912550 -0.366550 6.000000
v -1.177350 0.366450 6.000000
v 1.177350 0.366550 6.000000
vn 0.000000 0.000000 -1.000000
vn 0.000000 -0.000000 1.000000
vn -0.940511 -0.339764 0.000000
vn -0.940511 -0.339764 0.000000
vn -0.000042 1.000000 0.000000
vn -0.000042 1.000000 0.000000
vn 0.331008 -0.943628 0.000000
vn 0.331008 -0.943628 0.000000
usemtl assumed_base
f 1//1 2//1 3//1
usemtl assumed_roof
f 4//2 6//2 5//2
usemtl assumed_wall
f 1//3 5//3 2//3
f 1//4 4//4 5//4
f 2//5 6//5 3//5
f 2//6 5//6 6//6
f 3//7 4//7 1//7
f 3//8 6//8 4//8
