# construction_2125_assumed_A_Casa
# source A_Casa
# h_campo 0.000000
# modeled_height 6.000000
# height_kind assumed
# local_origin_world_x 172001.034850
# local_origin_world_y 402500.144600
mtllib construction_artifacts.mtl

o construction_2125_assumed_A_Casa
v -12.493500 4.203000 0.000000
v 6.759500 10.607000 0.000000
v 5.416500 14.576000 0.000000
v 9.304500 15.328000 0.000000
v 12.493500 5.170000 0.000000
v 1.256500 2.260000 0.000000
v 1.711500 -0.080000 0.000000
v 0.030500 -0.681000 0.000000
v 4.537500 -13.711000 0.000000
v 0.282500 -15.089000 0.000000
v -0.065500 -13.642000 0.000000
v -4.991500 -15.328000 0.000000
v -12.493500 4.203000 6.000000
v 6.759500 10.607000 6.000000
v 5.416500 14.576000 6.000000
v 9.304500 15.328000 6.000000
v 12.493500 5.170000 6.000000
v 1.256500 2.260000 6.000000
v 1.711500 -0.080000 6.000000
v 0.030500 -0.681000 6.000000
v 4.537500 -13.711000 6.000000
v 0.282500 -15.089000 6.000000
v -0.065500 -13.642000 6.000000
v -4.991500 -15.328000 6.000000
vn 0.000000 0.000000 -1.000000
vn 0.000000 0.000000 -1.000000
vn 0.000000 0.000000 -1.000000
vn 0.000000 0.000000 -1.000000
vn 0.000000 0.000000 -1.000000
vn 0.000000 0.000000 -1.000000
vn 0.000000 0.000000 -1.000000
vn 0.000000 0.000000 -1.000000
vn 0.000000 -0.000000 -1.000000
vn 0.000000 0.000000 -1.000000
vn 0.000000 -0.000000 1.000000
vn -0.000000 0.000000 1.000000
vn 0.000000 0.000000 1.000000
vn -0.000000 0.000000 1.000000
vn 0.000000 0.000000 1.000000
vn 0.000000 0.000000 1.000000
vn 0.000000 -0.000000 1.000000
vn 0.000000 0.000000 1.000000
vn 0.000000 0.000000 1.000000
vn 0.000000 0.000000 1.000000
vn -0.315621 0.948885 0.000000
vn -0.315621 0.948885 0.000000
vn -0.947242 -0.320520 0.000000
vn -0.947242 -0.320520 0.000000
vn -0.189896 0.981804 0.000000
vn -0.189896 0.981804 0.000000
vn 0.954088 0.299526 0.000000
vn 0.954088 0.299526 -0.000000
vn 0.250696 -0.968066 0.000000
vn 0.250696 -0.968066 0.000000
vn 0.981615 0.190870 0.000000
vn 0.981615 0.190870 -0.000000
vn 0.336656 -0.941628 0.000000
vn 0.336656 -0.941628 0.000000
vn 0.945062 0.326891 0.000000
vn 0.945062 0.326891 -0.000000
vn 0.308100 -0.951354 0.000000
vn 0.308100 -0.951354 0.000000
vn -0.972277 -0.233830 0.000000
vn -0.972277 -0.233830 0.000000
vn 0.323823 -0.946118 0.000000
vn 0.323823 -0.946118 0.000000
vn -0.933504 -0.358566 0.000000
vn -0.933504 -0.358566 0.000000
usemtl assumed_base
f 2//1 3//1 4//1
f 2//2 4//2 5//2
f 1//3 2//3 5//3
f 1//4 5//4 6//4
f 1//5 6//5 7//5
f 1//6 7//6 8//6
f 12//7 1//7 8//7
f 8//8 9//8 10//8
f 8//9 10//9 11//9
f 8//10 11//10 12//10
usemtl assumed_roof
f 14//11 16//11 15//11
f 14//12 17//12 16//12
f 13//13 17//13 14//13
f 13//14 18//14 17//14
f 13//15 19//15 18//15
f 13//16 20//16 19//16
f 24//17 20//17 13//17
f 20//18 22//18 21//18
f 20//19 23//19 22//19
f 20//20 24//20 23//20
usemtl assumed_wall
f 1//21 14//21 2//21
f 1//22 13//22 14//22
f 2//23 15//23 3//23
f 2//24 14//24 15//24
f 3//25 16//25 4//25
f 3//26 15//26 16//26
f 4//27 17//27 5//27
f 4//28 16//28 17//28
f 5//29 18//29 6//29
f 5//30 17//30 18//30
f 6//31 19//31 7//31
f 6//32 18//32 19//32
f 7//33 20//33 8//33
f 7//34 19//34 20//34
f 8//35 21//35 9//35
f 8//36 20//36 21//36
f 9//37 22//37 10//37
f 9//38 21//38 22//38
f 10//39 23//39 11//39
f 10//40 22//40 23//40
f 11//41 24//41 12//41
f 11//42 23//42 24//42
f 12//43 13//43 1//43
f 12//44 24//44 13//44
