# construction_5894_assumed_A_Casa
# source A_Casa
# h_campo 0.000000
# modeled_height 6.000000
# height_kind assumed
# local_origin_world_x 172001.034850
# local_origin_world_y 402500.144600
mtllib construction_artifacts.mtl

o construction_5894_assumed_A_Casa
v -20.932000 0.623000 0.000000
v -15.572000 3.340000 0.000000
v -14.330000 1.826000 0.000000
v -3.967000 8.271000 0.000000
v -3.219000 7.304000 0.000000
v -0.570000 9.435000 0.000000
v 1.886000 6.380000 0.000000
v 10.845000 12.440000 0.000000
v 16.443000 15.509000 0.000000
v 17.065000 14.457000 0.000000
v 19.238000 15.940000 0.000000
v 20.932000 13.613000 0.000000
v 8.741000 3.242000 0.000000
v 7.146000 5.021000 0.000000
v -3.289000 -0.834000 0.000000
v -0.743000 -5.490000 0.000000
v -8.949000 -14.176000 0.000000
v -19.329000 -15.940000 0.000000
v -20.932000 0.623000 6.000000
v -15.572000 3.340000 6.000000
v -14.330000 1.826000 6.000000
v -3.967000 8.271000 6.000000
v -3.219000 7.304000 6.000000
v -0.570000 9.435000 6.000000
v 1.886000 6.380000 6.000000
v 10.845000 12.440000 6.000000
v 16.443000 15.509000 6.000000
v 17.065000 14.457000 6.000000
v 19.238000 15.940000 6.000000
v 20.932000 13.613000 6.000000
v 8.741000 3.242000 6.000000
v 7.146000 5.021000 6.000000
v -3.289000 -0.834000 6.000000
v -0.743000 -5.490000 6.000000
v -8.949000 -14.176000 6.000000
v -19.329000 -15.940000 6.000000
vn 0.000000 0.000000 -1.000000
vn 0.000000 0.000000 -1.000000
vn 0.000000 0.000000 -1.000000
vn 0.000000 0.000000 -1.000000
vn 0.000000 0.000000 -1.000000
vn 0.000000 0.000000 -1.000000
vn 0.000000 0.000000 -1.000000
vn 0.000000 0.000000 -1.000000
vn 0.000000 0.000000 -1.000000
vn 0.000000 0.000000 -1.000000
vn 0.000000 0.000000 -1.000000
vn 0.000000 0.000000 -1.000000
vn 0.000000 -0.000000 -1.000000
vn 0.000000 0.000000 -1.000000
vn 0.000000 0.000000 -1.000000
vn 0.000000 0.000000 -1.000000
vn 0.000000 -0.000000 1.000000
vn 0.000000 0.000000 1.000000
vn 0.000000 0.000000 1.000000
vn 0.000000 0.000000 1.000000
vn 0.000000 0.000000 1.000000
vn 0.000000 0.000000 1.000000
vn 0.000000 0.000000 1.000000
vn 0.000000 0.000000 1.000000
vn -0.000000 0.000000 1.000000
vn 0.000000 0.000000 1.000000
vn 0.000000 0.000000 1.000000
vn -0.000000 0.000000 1.000000
vn 0.000000 0.000000 1.000000
vn 0.000000 0.000000 1.000000
vn 0.000000 0.000000 1.000000
vn 0.000000 0.000000 1.000000
vn -0.452133 0.891951 0.000000
vn -0.452133 0.891951 0.000000
vn 0.773138 0.634238 0.000000
vn 0.773138 0.634238 -0.000000
vn -0.528119 0.849170 0.000000
vn -0.528119 0.849170 0.000000
vn 0.790979 0.611843 0.000000
vn 0.790979 0.611843 -0.000000
vn -0.626809 0.779173 0.000000
vn -0.626809 0.779173 0.000000
vn 0.779373 0.626560 0.000000
vn 0.779373 0.626560 -0.000000
vn -0.560278 0.828305 0.000000
vn -0.560278 0.828305 0.000000
vn -0.480728 0.876870 0.000000
vn -0.480728 0.876870 0.000000
vn 0.860796 0.508950 0.000000
vn 0.860796 0.508950 -0.000000
vn -0.563702 0.825978 0.000000
vn -0.563702 0.825978 0.000000
vn 0.808466 0.588543 0.000000
vn 0.808466 0.588543 -0.000000
vn 0.647962 -0.761673 0.000000
vn 0.647962 -0.761673 0.000000
vn -0.744562 -0.667553 0.000000
vn -0.744562 -0.667553 0.000000
vn 0.489328 -0.872100 0.000000
vn 0.489328 -0.872100 0.000000
vn 0.877391 0.479776 0.000000
vn 0.877391 0.479776 -0.000000
vn 0.726906 -0.686737 0.000000
vn 0.726906 -0.686737 0.000000
vn 0.167540 -0.985865 0.000000
vn 0.167540 -0.985865 0.000000
vn -0.995349 -0.096332 0.000000
vn -0.995349 -0.096332 0.000000
usemtl assumed_base
f 18//1 1//1 2//1
f 18//2 2//2 3//2
f 18//3 3//3 4//3
f 18//4 4//4 5//4
f 18//5 5//5 6//5
f 18//6 6//6 7//6
f 7//7 8//7 9//7
f 7//8 9//8 10//8
f 10//9 11//9 12//9
f 7//10 10//10 12//10
f 12//11 13//11 14//11
f 7//12 12//12 14//12
f 7//13 14//13 15//13
f 18//14 7//14 15//14
f 18//15 15//15 16//15
f 16//16 17//16 18//16
usemtl assumed_roof
f 36//17 20//17 19//17
f 36//18 21//18 20//18
f 36//19 22//19 21//19
f 36//20 23//20 22//20
f 36//21 24//21 23//21
f 36//22 25//22 24//22
f 25//23 27//23 26//23
f 25//24 28//24 27//24
f 28//25 30//25 29//25
f 25//26 30//26 28//26
f 30//27 32//27 31//27
f 25//28 32//28 30//28
f 25//29 33//29 32//29
f 36//30 33//30 25//30
f 36//31 34//31 33//31
f 34//32 36//32 35//32
usemtl assumed_wall
f 1//33 20//33 2//33
f 1//34 19//34 20//34
f 2//35 21//35 3//35
f 2//36 20//36 21//36
f 3//37 22//37 4//37
f 3//38 21//38 22//38
f 4//39 23//39 5//39
f 4//40 22//40 23//40
f 5//41 24//41 6//41
f 5//42 23//42 24//42
f 6//43 25//43 7//43
f 6//44 24//44 25//44
f 7//45 26//45 8//45
f 7//46 25//46 26//46
f 8//47 27//47 9//47
f 8//48 26//48 27//48
f 9//49 28//49 10//49
f 9//50 27//50 28//50
f 10//51 29//51 11//51
f 10//52 28//52 29//52
f 11//53 30//53 12//53
f 11//54 29//54 30//54
f 12//55 31//55 13//55
f 12//56 30//56 31//56
f 13//57 32//57 14//57
f 13//58 31//58 32//58
f 14//59 33//59 15//59
f 14//60 32//60 33//60
f 15//61 34//61 16//61
f 15//62 33//62 34//62
f 16//63 35//63 17//63
f 16//64 34//64 35//64
f 17//65 36//65 18//65
f 17//66 35//66 36//66
f 18//67 19//67 1//67
f 18//68 36//68 19//68
