# construction_3312_assumed_A_Casa
# source A_Casa
# h_campo 0.000000
# modeled_height 6.000000
# height_kind assumed
# local_origin_world_x 172001.034850
# local_origin_world_y 402500.144600
mtllib construction_artifacts.mtl

o construction_3312_assumed_A_Casa
v -13.773500 -3.518500 0.000000
v 0.578500 -1.316500 0.000000
v -0.151500 3.653500 0.000000
v -10.571500 2.529500 0.000000
v -11.998500 9.872500 0.000000
v 6.676500 12.599500 0.000000
v 9.009500 -2.832500 0.000000
v 12.558500 -2.297500 0.000000
v 13.773500 -10.169500 0.000000
v -2.431500 -12.599500 0.000000
v -2.866500 -10.115500 0.000000
v -12.591500 -11.187500 0.000000
v -13.773500 -3.518500 6.000000
v 0.578500 -1.316500 6.000000
v -0.151500 3.653500 6.000000
v -10.571500 2.529500 6.000000
v -11.998500 9.872500 6.000000
v 6.676500 12.599500 6.000000
v 9.009500 -2.832500 6.000000
v 12.558500 -2.297500 6.000000
v 13.773500 -10.169500 6.000000
v -2.431500 -12.599500 6.000000
v -2.866500 -10.115500 6.000000
v -12.591500 -11.187500 6.000000
vn 0.000000 0.000000 -1.000000
vn -0.000000 0.000000 -1.000000
vn 0.000000 0.000000 -1.000000
vn 0.000000 0.000000 -1.000000
vn 0.000000 0.000000 -1.000000
vn 0.000000 0.000000 -1.000000
vn 0.000000 0.000000 -1.000000
vn 0.000000 -0.000000 -1.000000
vn 0.000000 0.000000 -1.000000
vn 0.000000 0.000000 -1.000000
vn 0.000000 -0.000000 1.000000
vn 0.000000 0.000000 1.000000
vn 0.000000 -0.000000 1.000000
vn 0.000000 -0.000000 1.000000
vn -0.000000 0.000000 1.000000
vn 0.000000 0.000000 1.000000
vn 0.000000 0.000000 1.000000
vn 0.000000 0.000000 1.000000
vn 0.000000 0.000000 1.000000
vn 0.000000 0.000000 1.000000
vn -0.151654 0.988434 0.000000
vn -0.151654 0.988434 0.000000
vn -0.989384 -0.145322 0.000000
vn -0.989384 -0.145322 0.000000
vn 0.107247 -0.994232 0.000000
vn 0.107247 -0.994232 0.000000
vn -0.981636 -0.190766 0.000000
vn -0.981636 -0.190766 0.000000
vn -0.144492 0.989506 0.000000
vn -0.144492 0.989506 0.000000
vn 0.988765 0.149481 0.000000
vn 0.988765 0.149481 -0.000000
vn -0.149063 0.988828 0.000000
vn -0.149063 0.988828 0.000000
vn 0.988298 0.152538 0.000000
vn 0.988298 0.152538 -0.000000
vn 0.148296 -0.988943 0.000000
vn 0.148296 -0.988943 0.000000
vn -0.985010 -0.172496 0.000000
vn -0.985010 -0.172496 0.000000
vn 0.109568 -0.993979 0.000000
vn 0.109568 -0.993979 0.000000
vn -0.988330 -0.152328 0.000000
vn -0.988330 -0.152328 0.000000
usemtl assumed_base
f 12//1 1//1 2//1
f 3//2 4//2 5//2
f 3//3 5//3 6//3
f 2//4 3//4 6//4
f 2//5 6//5 7//5
f 12//6 2//6 7//6
f 12//7 7//7 8//7
f 8//8 9//8 10//8
f 8//9 10//9 11//9
f 8//10 11//10 12//10
usemtl assumed_roof
f 24//11 14//11 13//11
f 15//12 17//12 16//12
f 15//13 18//13 17//13
f 14//14 18//14 15//14
f 14//15 19//15 18//15
f 24//16 19//16 14//16
f 24//17 20//17 19//17
f 20//18 22//18 21//18
f 20//19 23//19 22//19
f 20//20 24//20 23//20
usemtl assumed_wall
f 1//21 14//21 2//21
f 1//22 13//22 14//22
f 2//23 15//23 3//23
f 2//24 14//24 15//24
f 3//25 16//25 4//25
f 3//26 15//26 16//26
f 4//27 17//27 5//27
f 4//28 16//28 17//28
f 5//29 18//29 6//29
f 5//30 17//30 18//30
f 6//31 19//31 7//31
f 6//32 18//32 19//32
f 7//33 20//33 8//33
f 7//34 19//34 20//34
f 8//35 21//35 9//35
f 8//36 20//36 21//36
f 9//37 22//37 10//37
f 9//38 21//38 22//38
f 10//39 23//39 11//39
f 10//40 22//40 23//40
f 11//41 24//41 12//41
f 11//42 23//42 24//42
f 12//43 13//43 1//43
f 12//44 24//44 13//44
