# construction_4880_assumed_A_Casa
# source A_Casa
# h_campo 0.000000
# modeled_height 6.000000
# height_kind assumed
# local_origin_world_x 172001.034850
# local_origin_world_y 402500.144600
mtllib construction_artifacts.mtl

o construction_4880_assumed_A_Casa
v -4.939000 -5.853000 0.000000
v -7.884000 -4.791000 0.000000
v -7.123000 -2.909000 0.000000
v -10.642000 -0.983000 0.000000
v -7.857000 4.527000 0.000000
v -9.011000 5.260000 0.000000
v -6.900000 9.468000 0.000000
v -2.642000 7.309000 0.000000
v -0.932000 10.561000 0.000000
v 8.066000 5.997000 0.000000
v 6.374000 3.050000 0.000000
v 10.642000 0.448000 0.000000
v 4.798000 -10.561000 0.000000
v -1.687000 -7.317000 0.000000
v -4.616000 -5.183000 0.000000
v -4.939000 -5.853000 6.000000
v -7.884000 -4.791000 6.000000
v -7.123000 -2.909000 6.000000
v -10.642000 -0.983000 6.000000
v -7.857000 4.527000 6.000000
v -9.011000 5.260000 6.000000
v -6.900000 9.468000 6.000000
v -2.642000 7.309000 6.000000
v -0.932000 10.561000 6.000000
v 8.066000 5.997000 6.000000
v 6.374000 3.050000 6.000000
v 10.642000 0.448000 6.000000
v 4.798000 -10.561000 6.000000
v -1.687000 -7.317000 6.000000
v -4.616000 -5.183000 6.000000
vn -0.000000 0.000000 -1.000000
vn 0.000000 0.000000 -1.000000
vn 0.000000 0.000000 -1.000000
vn 0.000000 0.000000 -1.000000
vn 0.000000 0.000000 -1.000000
vn 0.000000 0.000000 -1.000000
vn 0.000000 0.000000 -1.000000
vn 0.000000 0.000000 -1.000000
vn 0.000000 0.000000 -1.000000
vn 0.000000 0.000000 -1.000000
vn 0.000000 0.000000 -1.000000
vn 0.000000 0.000000 -1.000000
vn 0.000000 0.000000 -1.000000
vn 0.000000 0.000000 1.000000
vn 0.000000 0.000000 1.000000
vn 0.000000 0.000000 1.000000
vn 0.000000 0.000000 1.000000
vn 0.000000 -0.000000 1.000000
vn 0.000000 0.000000 1.000000
vn 0.000000 -0.000000 1.000000
vn 0.000000 0.000000 1.000000
vn 0.000000 0.000000 1.000000
vn 0.000000 0.000000 1.000000
vn 0.000000 0.000000 1.000000
vn -0.000000 0.000000 1.000000
vn 0.000000 0.000000 1.000000
vn -0.339228 -0.940704 0.000000
vn -0.339228 -0.940704 0.000000
vn -0.927077 0.374870 0.000000
vn -0.927077 0.374870 0.000000
vn -0.480109 -0.877209 0.000000
vn -0.480109 -0.877209 0.000000
vn -0.892475 0.451097 0.000000
vn -0.892475 0.451097 0.000000
vn -0.536165 -0.844113 0.000000
vn -0.536165 -0.844113 0.000000
vn -0.893832 0.448403 0.000000
vn -0.893832 0.448403 0.000000
vn 0.452234 0.891899 0.000000
vn 0.452234 0.891899 -0.000000
vn -0.885095 0.465410 0.000000
vn -0.885095 0.465410 0.000000
vn 0.452360 0.891835 0.000000
vn 0.452360 0.891835 -0.000000
vn 0.867227 -0.497913 0.000000
vn 0.867227 -0.497913 0.000000
vn 0.520543 0.853835 0.000000
vn 0.520543 0.853835 -0.000000
vn 0.883266 -0.468872 0.000000
vn 0.883266 -0.468872 0.000000
vn -0.447379 -0.894344 0.000000
vn -0.447379 -0.894344 0.000000
vn -0.588861 -0.808235 0.000000
vn -0.588861 -0.808235 0.000000
vn 0.900787 -0.434260 0.000000
vn 0.900787 -0.434260 0.000000
usemtl assumed_base
f 15//1 1//1 2//1
f 15//2 2//2 3//2
f 3//3 4//3 5//3
f 15//4 3//4 5//4
f 5//5 6//5 7//5
f 15//6 5//6 7//6
f 15//7 7//7 8//7
f 15//8 8//8 9//8
f 15//9 9//9 10//9
f 15//10 10//10 11//10
f 15//11 11//11 12//11
f 15//12 12//12 13//12
f 13//13 14//13 15//13
usemtl assumed_roof
f 30//14 17//14 16//14
f 30//15 18//15 17//15
f 18//16 20//16 19//16
f 30//17 20//17 18//17
f 20//18 22//18 21//18
f 30//19 22//19 20//19
f 30//20 23//20 22//20
f 30//21 24//21 23//21
f 30//22 25//22 24//22
f 30//23 26//23 25//23
f 30//24 27//24 26//24
f 30//25 28//25 27//25
f 28//26 30//26 29//26
usemtl assumed_wall
f 1//27 17//27 2//27
f 1//28 16//28 17//28
f 2//29 18//29 3//29
f 2//30 17//30 18//30
f 3//31 19//31 4//31
f 3//32 18//32 19//32
f 4//33 20//33 5//33
f 4//34 19//34 20//34
f 5//35 21//35 6//35
f 5//36 20//36 21//36
f 6//37 22//37 7//37
f 6//38 21//38 22//38
f 7//39 23//39 8//39
f 7//40 22//40 23//40
f 8//41 24//41 9//41
f 8//42 23//42 24//42
f 9//43 25//43 10//43
f 9//44 24//44 25//44
f 10//45 26//45 11//45
f 10//46 25//46 26//46
f 11//47 27//47 12//47
f 11//48 26//48 27//48
f 12//49 28//49 13//49
f 12//50 27//50 28//50
f 13//51 29//51 14//51
f 13//52 28//52 29//52
f 14//53 30//53 15//53
f 14//54 29//54 30//54
f 15//55 16//55 1//55
f 15//56 30//56 16//56
