# construction_0606_assumed_A_Casa
# source A_Casa
# h_campo 0.000000
# modeled_height 6.000000
# height_kind assumed
# local_origin_world_x 172001.034850
# local_origin_world_y 402500.144600
mtllib construction_artifacts.mtl

o construction_0606_assumed_A_Casa
v -11.781500 3.926000 0.000000
v -5.548500 5.297000 0.000000
v -6.395500 10.403000 0.000000
v 1.410500 11.785000 0.000000
v 2.927500 2.260000 0.000000
v 10.016500 4.276000 0.000000
v 11.781500 -5.494000 0.000000
v 3.065500 -6.956000 0.000000
v 3.700500 -9.778000 0.000000
v -9.139500 -11.785000 0.000000
v -11.781500 3.926000 6.000000
v -5.548500 5.297000 6.000000
v -6.395500 10.403000 6.000000
v 1.410500 11.785000 6.000000
v 2.927500 2.260000 6.000000
v 10.016500 4.276000 6.000000
v 11.781500 -5.494000 6.000000
v 3.065500 -6.956000 6.000000
v 3.700500 -9.778000 6.000000
v -9.139500 -11.785000 6.000000
vn 0.000000 0.000000 -1.000000
vn 0.000000 0.000000 -1.000000
vn 0.000000 0.000000 -1.000000
vn 0.000000 0.000000 -1.000000
vn 0.000000 0.000000 -1.000000
vn 0.000000 -0.000000 -1.000000
vn 0.000000 0.000000 -1.000000
vn 0.000000 -0.000000 -1.000000
vn 0.000000 -0.000000 1.000000
vn 0.000000 -0.000000 1.000000
vn 0.000000 0.000000 1.000000
vn 0.000000 0.000000 1.000000
vn 0.000000 0.000000 1.000000
vn 0.000000 0.000000 1.000000
vn 0.000000 0.000000 1.000000
vn 0.000000 0.000000 1.000000
vn -0.214823 0.976653 0.000000
vn -0.214823 0.976653 0.000000
vn -0.986519 -0.163647 0.000000
vn -0.986519 -0.163647 0.000000
vn -0.174332 0.984687 0.000000
vn -0.174332 0.984687 0.000000
vn 0.987554 0.157283 0.000000
vn 0.987554 0.157283 -0.000000
vn -0.273538 0.961861 0.000000
vn -0.273538 0.961861 0.000000
vn 0.984071 0.177777 0.000000
vn 0.984071 0.177777 -0.000000
vn 0.165426 -0.986222 0.000000
vn 0.165426 -0.986222 0.000000
vn 0.975606 0.219529 0.000000
vn 0.975606 0.219529 -0.000000
vn 0.154433 -0.988003 0.000000
vn 0.154433 -0.988003 0.000000
vn -0.986154 -0.165834 0.000000
vn -0.986154 -0.165834 0.000000
usemtl assumed_base
f 10//1 1//1 2//1
f 2//2 3//2 4//2
f 10//3 2//3 4//3
f 10//4 4//4 5//4
f 10//5 5//5 6//5
f 6//6 7//6 8//6
f 10//7 6//7 8//7
f 8//8 9//8 10//8
usemtl assumed_roof
f 20//9 12//9 11//9
f 12//10 14//10 13//10
f 20//11 14//11 12//11
f 20//12 15//12 14//12
f 20//13 16//13 15//13
f 16//14 18//14 17//14
f 20//15 18//15 16//15
f 18//16 20//16 19//16
usemtl assumed_wall
f 1//17 12//17 2//17
f 1//18 11//18 12//18
f 2//19 13//19 3//19
f 2//20 12//20 13//20
f 3//21 14//21 4//21
f 3//22 13//22 14//22
f 4//23 15//23 5//23
f 4//24 14//24 15//24
f 5//25 16//25 6//25
f 5//26 15//26 16//26
f 6//27 17//27 7//27
f 6//28 16//28 17//28
f 7//29 18//29 8//29
f 7//30 17//30 18//30
f 8//31 19//31 9//31
f 8//32 18//32 19//32
f 9//33 20//33 10//33
f 9//34 19//34 20//34
f 10//35 11//35 1//35
f 10//36 20//36 11//36
