# construction_5990_assumed_A_Casa
# source A_Casa
# h_campo 0.000000
# modeled_height 6.000000
# height_kind assumed
# local_origin_world_x 172001.034850
# local_origin_world_y 402500.144600
mtllib construction_artifacts.mtl

o construction_5990_assumed_A_Casa
v -23.895000 -7.992000 0.000000
v -17.689000 18.566000 0.000000
v 7.975000 12.100000 0.000000
v 8.784000 14.661000 0.000000
v 23.895000 10.646000 0.000000
v 16.862000 -18.566000 0.000000
v 1.258000 -14.425000 0.000000
v 4.842000 -0.686000 0.000000
v -8.803000 2.661000 0.000000
v -11.784000 -11.256000 0.000000
v -23.895000 -7.992000 6.000000
v -17.689000 18.566000 6.000000
v 7.975000 12.100000 6.000000
v 8.784000 14.661000 6.000000
v 23.895000 10.646000 6.000000
v 16.862000 -18.566000 6.000000
v 1.258000 -14.425000 6.000000
v 4.842000 -0.686000 6.000000
v -8.803000 2.661000 6.000000
v -11.784000 -11.256000 6.000000
vn 0.000000 0.000000 -1.000000
vn 0.000000 0.000000 -1.000000
vn 0.000000 0.000000 -1.000000
vn 0.000000 0.000000 -1.000000
vn 0.000000 -0.000000 -1.000000
vn 0.000000 0.000000 -1.000000
vn 0.000000 0.000000 -1.000000
vn 0.000000 0.000000 -1.000000
vn 0.000000 0.000000 1.000000
vn -0.000000 0.000000 1.000000
vn 0.000000 0.000000 1.000000
vn 0.000000 0.000000 1.000000
vn 0.000000 0.000000 1.000000
vn 0.000000 0.000000 1.000000
vn 0.000000 0.000000 1.000000
vn 0.000000 0.000000 1.000000
vn -0.973767 0.227547 0.000000
vn -0.973767 0.227547 0.000000
vn 0.244313 0.969696 0.000000
vn 0.244313 0.969696 -0.000000
vn -0.953555 0.301220 0.000000
vn -0.953555 0.301220 0.000000
vn 0.256791 0.966467 0.000000
vn 0.256791 0.966467 -0.000000
vn 0.972220 -0.234069 0.000000
vn 0.972220 -0.234069 0.000000
vn -0.256502 -0.966544 0.000000
vn -0.256502 -0.966544 0.000000
vn -0.967619 0.252416 0.000000
vn -0.967619 0.252416 0.000000
vn -0.238229 -0.971209 0.000000
vn -0.238229 -0.971209 0.000000
vn 0.977820 -0.209448 0.000000
vn 0.977820 -0.209448 0.000000
vn -0.260222 -0.965549 0.000000
vn -0.260222 -0.965549 0.000000
usemtl assumed_base
f 10//1 1//1 2//1
f 3//2 4//2 5//2
f 3//3 5//3 6//3
f 6//4 7//4 8//4
f 3//5 6//5 8//5
f 2//6 3//6 8//6
f 2//7 8//7 9//7
f 2//8 9//8 10//8
usemtl assumed_roof
f 20//9 12//9 11//9
f 13//10 15//10 14//10
f 13//11 16//11 15//11
f 16//12 18//12 17//12
f 13//13 18//13 16//13
f 12//14 18//14 13//14
f 12//15 19//15 18//15
f 12//16 20//16 19//16
usemtl assumed_wall
f 1//17 12//17 2//17
f 1//18 11//18 12//18
f 2//19 13//19 3//19
f 2//20 12//20 13//20
f 3//21 14//21 4//21
f 3//22 13//22 14//22
f 4//23 15//23 5//23
f 4//24 14//24 15//24
f 5//25 16//25 6//25
f 5//26 15//26 16//26
f 6//27 17//27 7//27
f 6//28 16//28 17//28
f 7//29 18//29 8//29
f 7//30 17//30 18//30
f 8//31 19//31 9//31
f 8//32 18//32 19//32
f 9//33 20//33 10//33
f 9//34 19//34 20//34
f 10//35 11//35 1//35
f 10//36 20//36 11//36
