# construction_7265_assumed_A_Ruinas
# source A_Ruinas
# h_campo 0.000000
# modeled_height 6.000000
# height_kind assumed
# local_origin_world_x 172001.034850
# local_origin_world_y 402500.144600
mtllib construction_artifacts.mtl

o construction_7265_assumed_A_Ruinas
v -4.271500 -0.013500 0.000000
v 2.675500 6.655500 0.000000
v 7.777500 1.688500 0.000000
v 5.148500 -0.849500 0.000000
v 6.039500 -1.446500 0.000000
v 3.381500 -3.578500 0.000000
v 0.442500 -1.562500 0.000000
v -4.333500 -6.655500 0.000000
v -7.777500 -3.138500 0.000000
v -4.271500 -0.013500 6.000000
v 2.675500 6.655500 6.000000
v 7.777500 1.688500 6.000000
v 5.148500 -0.849500 6.000000
v 6.039500 -1.446500 6.000000
v 3.381500 -3.578500 6.000000
v 0.442500 -1.562500 6.000000
v -4.333500 -6.655500 6.000000
v -7.777500 -3.138500 6.000000
vn 0.000000 0.000000 -1.000000
vn 0.000000 0.000000 -1.000000
vn 0.000000 -0.000000 -1.000000
vn 0.000000 0.000000 -1.000000
vn 0.000000 0.000000 -1.000000
vn 0.000000 0.000000 -1.000000
vn 0.000000 0.000000 -1.000000
vn 0.000000 0.000000 1.000000
vn 0.000000 0.000000 1.000000
vn 0.000000 0.000000 1.000000
vn 0.000000 0.000000 1.000000
vn 0.000000 0.000000 1.000000
vn 0.000000 0.000000 1.000000
vn 0.000000 0.000000 1.000000
vn -0.692525 0.721394 0.000000
vn -0.692525 0.721394 0.000000
vn 0.697564 0.716523 0.000000
vn 0.697564 0.716523 -0.000000
vn 0.694546 -0.719449 0.000000
vn 0.694546 -0.719449 0.000000
vn 0.556635 0.830757 0.000000
vn 0.556635 0.830757 -0.000000
vn 0.625697 -0.780066 0.000000
vn 0.625697 -0.780066 0.000000
vn -0.565659 -0.824639 0.000000
vn -0.565659 -0.824639 0.000000
vn 0.729443 -0.684041 0.000000
vn 0.729443 -0.684041 0.000000
vn -0.714483 -0.699653 0.000000
vn -0.714483 -0.699653 0.000000
vn -0.665381 0.746504 0.000000
vn -0.665381 0.746504 0.000000
usemtl assumed_base
f 1//1 2//1 3//1
f 9//2 1//2 3//2
f 4//3 5//3 6//3
f 4//4 6//4 7//4
f 3//5 4//5 7//5
f 9//6 3//6 7//6
f 7//7 8//7 9//7
usemtl assumed_roof
f 10//8 12//8 11//8
f 18//9 12//9 10//9
f 13//10 15//10 14//10
f 13//11 16//11 15//11
f 12//12 16//12 13//12
f 18//13 16//13 12//13
f 16//14 18//14 17//14
usemtl assumed_wall
f 1//15 11//15 2//15
f 1//16 10//16 11//16
f 2//17 12//17 3//17
f 2//18 11//18 12//18
f 3//19 13//19 4//19
f 3//20 12//20 13//20
f 4//21 14//21 5//21
f 4//22 13//22 14//22
f 5//23 15//23 6//23
f 5//24 14//24 15//24
f 6//25 16//25 7//25
f 6//26 15//26 16//26
f 7//27 17//27 8//27
f 7//28 16//28 17//28
f 8//29 18//29 9//29
f 8//30 17//30 18//30
f 9//31 10//31 1//31
f 9//32 18//32 10//32
