# construction_5234_assumed_A_Casa
# source A_Casa
# h_campo 0.000000
# modeled_height 6.000000
# height_kind assumed
# local_origin_world_x 172001.034850
# local_origin_world_y 402500.144600
mtllib construction_artifacts.mtl

o construction_5234_assumed_A_Casa
v -18.316500 -16.715000 0.000000
v -3.248500 -9.192000 0.000000
v -0.442500 -6.489000 0.000000
v -4.029500 -2.020000 0.000000
v 0.665500 1.066000 0.000000
v 2.639500 -2.271000 0.000000
v 11.864500 5.543000 0.000000
v 7.624500 18.138000 0.000000
v 13.488500 19.875000 0.000000
v 18.316500 4.386000 0.000000
v -0.850500 -12.048000 0.000000
v -16.755500 -19.875000 0.000000
v -18.316500 -16.715000 6.000000
v -3.248500 -9.192000 6.000000
v -0.442500 -6.489000 6.000000
v -4.029500 -2.020000 6.000000
v 0.665500 1.066000 6.000000
v 2.639500 -2.271000 6.000000
v 11.864500 5.543000 6.000000
v 7.624500 18.138000 6.000000
v 13.488500 19.875000 6.000000
v 18.316500 4.386000 6.000000
v -0.850500 -12.048000 6.000000
v -16.755500 -19.875000 6.000000
vn 0.000000 0.000000 -1.000000
vn 0.000000 0.000000 -1.000000
vn 0.000000 0.000000 -1.000000
vn 0.000000 0.000000 -1.000000
vn 0.000000 0.000000 -1.000000
vn 0.000000 0.000000 -1.000000
vn 0.000000 0.000000 -1.000000
vn 0.000000 0.000000 -1.000000
vn 0.000000 0.000000 -1.000000
vn 0.000000 0.000000 -1.000000
vn 0.000000 -0.000000 1.000000
vn 0.000000 -0.000000 1.000000
vn 0.000000 0.000000 1.000000
vn 0.000000 0.000000 1.000000
vn 0.000000 -0.000000 1.000000
vn -0.000000 0.000000 1.000000
vn 0.000000 0.000000 1.000000
vn 0.000000 0.000000 1.000000
vn 0.000000 0.000000 1.000000
vn 0.000000 0.000000 1.000000
vn -0.446691 0.894688 0.000000
vn -0.446691 0.894688 0.000000
vn -0.693765 0.720201 0.000000
vn -0.693765 0.720201 0.000000
vn -0.779863 -0.625950 0.000000
vn -0.779863 -0.625950 0.000000
vn -0.549267 0.835647 0.000000
vn -0.549267 0.835647 0.000000
vn 0.860685 0.509138 0.000000
vn 0.860685 0.509138 -0.000000
vn -0.646339 0.763050 0.000000
vn -0.646339 0.763050 0.000000
vn -0.947739 -0.319048 0.000000
vn -0.947739 -0.319048 0.000000
vn -0.284016 0.958820 0.000000
vn -0.284016 0.958820 0.000000
vn 0.954696 0.297584 0.000000
vn 0.954696 0.297584 -0.000000
vn 0.650909 -0.759156 0.000000
vn 0.650909 -0.759156 0.000000
vn 0.441541 -0.897241 0.000000
vn 0.441541 -0.897241 0.000000
vn -0.896573 -0.442896 0.000000
vn -0.896573 -0.442896 0.000000
usemtl assumed_base
f 12//1 1//1 2//1
f 3//2 4//2 5//2
f 3//3 5//3 6//3
f 3//4 6//4 7//4
f 7//5 8//5 9//5
f 7//6 9//6 10//6
f 3//7 7//7 10//7
f 2//8 3//8 10//8
f 12//9 2//9 10//9
f 10//10 11//10 12//10
usemtl assumed_roof
f 24//11 14//11 13//11
f 15//12 17//12 16//12
f 15//13 18//13 17//13
f 15//14 19//14 18//14
f 19//15 21//15 20//15
f 19//16 22//16 21//16
f 15//17 22//17 19//17
f 14//18 22//18 15//18
f 24//19 22//19 14//19
f 22//20 24//20 23//20
usemtl assumed_wall
f 1//21 14//21 2//21
f 1//22 13//22 14//22
f 2//23 15//23 3//23
f 2//24 14//24 15//24
f 3//25 16//25 4//25
f 3//26 15//26 16//26
f 4//27 17//27 5//27
f 4//28 16//28 17//28
f 5//29 18//29 6//29
f 5//30 17//30 18//30
f 6//31 19//31 7//31
f 6//32 18//32 19//32
f 7//33 20//33 8//33
f 7//34 19//34 20//34
f 8//35 21//35 9//35
f 8//36 20//36 21//36
f 9//37 22//37 10//37
f 9//38 21//38 22//38
f 10//39 23//39 11//39
f 10//40 22//40 23//40
f 11//41 24//41 12//41
f 11//42 23//42 24//42
f 12//43 13//43 1//43
f 12//44 24//44 13//44
