# construction_5367_assumed_A_Casa
# source A_Casa
# h_campo 0.000000
# modeled_height 6.000000
# height_kind assumed
# local_origin_world_x 172001.034850
# local_origin_world_y 402500.144600
mtllib construction_artifacts.mtl

o construction_5367_assumed_A_Casa
v -12.260000 4.402000 0.000000
v 7.896000 10.334000 0.000000
v 12.260000 -2.242000 0.000000
v 2.562000 -5.415000 0.000000
v 1.375000 -3.246000 0.000000
v -2.628000 -4.556000 0.000000
v -1.344000 -8.356000 0.000000
v -7.304000 -10.334000 0.000000
v -12.260000 4.402000 6.000000
v 7.896000 10.334000 6.000000
v 12.260000 -2.242000 6.000000
v 2.562000 -5.415000 6.000000
v 1.375000 -3.246000 6.000000
v -2.628000 -4.556000 6.000000
v -1.344000 -8.356000 6.000000
v -7.304000 -10.334000 6.000000
vn 0.000000 0.000000 -1.000000
vn 0.000000 -0.000000 -1.000000
vn 0.000000 0.000000 -1.000000
vn 0.000000 0.000000 -1.000000
vn 0.000000 0.000000 -1.000000
vn 0.000000 -0.000000 -1.000000
vn 0.000000 -0.000000 1.000000
vn 0.000000 0.000000 1.000000
vn 0.000000 0.000000 1.000000
vn 0.000000 0.000000 1.000000
vn 0.000000 0.000000 1.000000
vn 0.000000 0.000000 1.000000
vn -0.282331 0.959317 0.000000
vn -0.282331 0.959317 0.000000
vn 0.944736 0.327833 0.000000
vn 0.944736 0.327833 -0.000000
vn 0.310960 -0.950423 0.000000
vn 0.310960 -0.950423 0.000000
vn -0.877230 -0.480070 0.000000
vn -0.877230 -0.480070 0.000000
vn 0.311023 -0.950402 0.000000
vn 0.311023 -0.950402 0.000000
vn 0.947379 0.320114 0.000000
vn 0.947379 0.320114 -0.000000
vn 0.314985 -0.949097 0.000000
vn 0.314985 -0.949097 0.000000
vn -0.947831 -0.318774 0.000000
vn -0.947831 -0.318774 0.000000
usemtl assumed_base
f 8//1 1//1 2//1
f 2//2 3//2 4//2
f 2//3 4//3 5//3
f 2//4 5//4 6//4
f 8//5 2//5 6//5
f 6//6 7//6 8//6
usemtl assumed_roof
f 16//7 10//7 9//7
f 10//8 12//8 11//8
f 10//9 13//9 12//9
f 10//10 14//10 13//10
f 16//11 14//11 10//11
f 14//12 16//12 15//12
usemtl assumed_wall
f 1//13 10//13 2//13
f 1//14 9//14 10//14
f 2//15 11//15 3//15
f 2//16 10//16 11//16
f 3//17 12//17 4//17
f 3//18 11//18 12//18
f 4//19 13//19 5//19
f 4//20 12//20 13//20
f 5//21 14//21 6//21
f 5//22 13//22 14//22
f 6//23 15//23 7//23
f 6//24 14//24 15//24
f 7//25 16//25 8//25
f 7//26 15//26 16//26
f 8//27 9//27 1//27
f 8//28 16//28 9//28
