# construction_3993_assumed_A_Casa
# source A_Casa
# h_campo 0.000000
# modeled_height 6.000000
# height_kind assumed
# local_origin_world_x 172001.034850
# local_origin_world_y 402500.144600
mtllib construction_artifacts.mtl

o construction_3993_assumed_A_Casa
v -7.824000 -2.161500 0.000000
v -3.049000 6.948500 0.000000
v 7.824000 0.826500 0.000000
v 5.900000 -2.266500 0.000000
v 4.697000 -2.081500 0.000000
v 1.628000 -6.948500 0.000000
v -7.824000 -2.161500 6.000000
v -3.049000 6.948500 6.000000
v 7.824000 0.826500 6.000000
v 5.900000 -2.266500 6.000000
v 4.697000 -2.081500 6.000000
v 1.628000 -6.948500 6.000000
vn 0.000000 0.000000 -1.000000
vn 0.000000 0.000000 -1.000000
vn 0.000000 0.000000 -1.000000
vn 0.000000 0.000000 -1.000000
vn 0.000000 0.000000 1.000000
vn 0.000000 0.000000 1.000000
vn 0.000000 0.000000 1.000000
vn 0.000000 0.000000 1.000000
vn -0.885708 0.464243 0.000000
vn -0.885708 0.464243 0.000000
vn 0.490623 0.871372 0.000000
vn 0.490623 0.871372 -0.000000
vn 0.849122 -0.528196 0.000000
vn 0.849122 -0.528196 0.000000
vn -0.151995 -0.988381 0.000000
vn -0.151995 -0.988381 0.000000
vn 0.845873 -0.533385 0.000000
vn 0.845873 -0.533385 0.000000
vn -0.451814 -0.892112 0.000000
vn -0.451814 -0.892112 0.000000
usemtl assumed_base
f 6//1 1//1 2//1
f 2//2 3//2 4//2
f 2//3 4//3 5//3
f 2//4 5//4 6//4
usemtl assumed_roof
f 12//5 8//5 7//5
f 8//6 10//6 9//6
f 8//7 11//7 10//7
f 8//8 12//8 11//8
usemtl assumed_wall
f 1//9 8//9 2//9
f 1//10 7//10 8//10
f 2//11 9//11 3//11
f 2//12 8//12 9//12
f 3//13 10//13 4//13
f 3//14 9//14 10//14
f 4//15 11//15 5//15
f 4//16 10//16 11//16
f 5//17 12//17 6//17
f 5//18 11//18 12//18
f 6//19 7//19 1//19
f 6//20 12//20 7//20
