# construction_4309_assumed_A_Casa
# source A_Casa
# h_campo 0.000000
# modeled_height 6.000000
# height_kind assumed
# local_origin_world_x 172001.034850
# local_origin_world_y 402500.144600
mtllib construction_artifacts.mtl

o construction_4309_assumed_A_Casa
v -10.790000 5.138500 0.000000
v -9.451000 5.435500 0.000000
v -9.824000 6.572500 0.000000
v -2.788000 8.352500 0.000000
v -3.395000 10.842500 0.000000
v 4.184000 12.941500 0.000000
v 10.790000 -10.334500 0.000000
v 3.274000 -12.383500 0.000000
v 2.610000 -11.071500 0.000000
v -4.539000 -12.941500 0.000000
v -5.071000 -10.313500 0.000000
v -3.835000 -9.624500 0.000000
v -4.547000 -6.554500 0.000000
v -5.925000 -6.561500 0.000000
v -6.479000 -4.540500 0.000000
v -7.869000 -4.724500 0.000000
v -10.790000 5.138500 6.000000
v -9.451000 5.435500 6.000000
v -9.824000 6.572500 6.000000
v -2.788000 8.352500 6.000000
v -3.395000 10.842500 6.000000
v 4.184000 12.941500 6.000000
v 10.790000 -10.334500 6.000000
v 3.274000 -12.383500 6.000000
v 2.610000 -11.071500 6.000000
v -4.539000 -12.941500 6.000000
v -5.071000 -10.313500 6.000000
v -3.835000 -9.624500 6.000000
v -4.547000 -6.554500 6.000000
v -5.925000 -6.561500 6.000000
v -6.479000 -4.540500 6.000000
v -7.869000 -4.724500 6.000000
vn 0.000000 0.000000 -1.000000
vn 0.000000 0.000000 -1.000000
vn 0.000000 0.000000 -1.000000
vn 0.000000 0.000000 -1.000000
vn 0.000000 0.000000 -1.000000
vn 0.000000 -0.000000 -1.000000
vn 0.000000 0.000000 -1.000000
vn 0.000000 0.000000 -1.000000
vn 0.000000 0.000000 -1.000000
vn 0.000000 0.000000 -1.000000
vn 0.000000 0.000000 -1.000000
vn 0.000000 0.000000 -1.000000
vn 0.000000 0.000000 -1.000000
vn 0.000000 0.000000 -1.000000
vn 0.000000 0.000000 1.000000
vn 0.000000 -0.000000 1.000000
vn 0.000000 -0.000000 1.000000
vn 0.000000 -0.000000 1.000000
vn 0.000000 0.000000 1.000000
vn 0.000000 0.000000 1.000000
vn 0.000000 0.000000 1.000000
vn 0.000000 0.000000 1.000000
vn 0.000000 -0.000000 1.000000
vn 0.000000 0.000000 1.000000
vn 0.000000 0.000000 1.000000
vn 0.000000 0.000000 1.000000
vn 0.000000 0.000000 1.000000
vn 0.000000 0.000000 1.000000
vn -0.216544 0.976273 0.000000
vn -0.216544 0.976273 0.000000
vn -0.950177 -0.311711 0.000000
vn -0.950177 -0.311711 0.000000
vn -0.245258 0.969458 0.000000
vn -0.245258 0.969458 0.000000
vn -0.971549 -0.236839 0.000000
vn -0.971549 -0.236839 0.000000
vn -0.266903 0.963723 0.000000
vn -0.266903 0.963723 0.000000
vn 0.962006 0.273028 0.000000
vn 0.962006 0.273028 -0.000000
vn 0.263020 -0.964790 0.000000
vn 0.263020 -0.964790 0.000000
vn -0.892240 -0.451561 0.000000
vn -0.892240 -0.451561 0.000000
vn 0.253061 -0.967450 0.000000
vn 0.253061 -0.967450 0.000000
vn -0.980119 -0.198411 0.000000
vn -0.980119 -0.198411 0.000000
vn -0.486902 0.873456 0.000000
vn -0.486902 0.873456 0.000000
vn -0.974145 -0.225925 0.000000
vn -0.974145 -0.225925 0.000000
vn 0.005080 -0.999987 0.000000
vn 0.005080 -0.999987 0.000000
vn -0.964422 -0.264369 0.000000
vn -0.964422 -0.264369 0.000000
vn 0.131229 -0.991352 0.000000
vn 0.131229 -0.991352 0.000000
vn -0.958834 -0.283966 0.000000
vn -0.958834 -0.283966 0.000000
usemtl assumed_base
f 16//1 1//1 2//1
f 2//2 3//2 4//2
f 16//3 2//3 4//3
f 4//4 5//4 6//4
f 16//5 4//5 6//5
f 6//6 7//6 8//6
f 6//7 8//7 9//7
f 6//8 9//8 10//8
f 10//9 11//9 12//9
f 6//10 10//10 12//10
f 6//11 12//11 13//11
f 6//12 13//12 14//12
f 6//13 14//13 15//13
f 6//14 15//14 16//14
usemtl assumed_roof
f 32//15 18//15 17//15
f 18//16 20//16 19//16
f 32//17 20//17 18//17
f 20//18 22//18 21//18
f 32//19 22//19 20//19
f 22//20 24//20 23//20
f 22//21 25//21 24//21
f 22//22 26//22 25//22
f 26//23 28//23 27//23
f 22//24 28//24 26//24
f 22//25 29//25 28//25
f 22//26 30//26 29//26
f 22//27 31//27 30//27
f 22//28 32//28 31//28
usemtl assumed_wall
f 1//29 18//29 2//29
f 1//30 17//30 18//30
f 2//31 19//31 3//31
f 2//32 18//32 19//32
f 3//33 20//33 4//33
f 3//34 19//34 20//34
f 4//35 21//35 5//35
f 4//36 20//36 21//36
f 5//37 22//37 6//37
f 5//38 21//38 22//38
f 6//39 23//39 7//39
f 6//40 22//40 23//40
f 7//41 24//41 8//41
f 7//42 23//42 24//42
f 8//43 25//43 9//43
f 8//44 24//44 25//44
f 9//45 26//45 10//45
f 9//46 25//46 26//46
f 10//47 27//47 11//47
f 10//48 26//48 27//48
f 11//49 28//49 12//49
f 11//50 27//50 28//50
f 12//51 29//51 13//51
f 12//52 28//52 29//52
f 13//53 30//53 14//53
f 13//54 29//54 30//54
f 14//55 31//55 15//55
f 14//56 30//56 31//56
f 15//57 32//57 16//57
f 15//58 31//58 32//58
f 16//59 17//59 1//59
f 16//60 32//60 17//60
