# construction_5133_assumed_A_Casa
# source A_Casa
# h_campo 0.000000
# modeled_height 6.000000
# height_kind assumed
# local_origin_world_x 172001.034850
# local_origin_world_y 402500.144600
mtllib construction_artifacts.mtl

o construction_5133_assumed_A_Casa
v -3.270500 10.441000 0.000000
v 3.918500 13.281000 0.000000
v 7.388500 -2.543000 0.000000
v 19.397500 -0.744000 0.000000
v 20.378500 -6.495000 0.000000
v 22.225500 -6.350000 0.000000
v 23.434500 -12.203000 0.000000
v 17.631500 -13.146000 0.000000
v 17.477500 -12.513000 0.000000
v 13.317500 -12.793000 0.000000
v 13.148500 -11.364000 0.000000
v 1.731500 -12.656000 0.000000
v 0.030500 -18.468000 0.000000
v -12.422500 -16.285000 0.000000
v -10.014500 -10.344000 0.000000
v -7.877500 7.991000 0.000000
v -14.966500 13.329000 0.000000
v -21.063500 6.175000 0.000000
v -23.434500 8.000000 0.000000
v -17.504500 15.635000 0.000000
v -16.870500 15.334000 0.000000
v -13.934500 18.468000 0.000000
v -4.488500 12.000000 0.000000
v -4.889500 11.387000 0.000000
v -3.270500 10.441000 6.000000
v 3.918500 13.281000 6.000000
v 7.388500 -2.543000 6.000000
v 19.397500 -0.744000 6.000000
v 20.378500 -6.495000 6.000000
v 22.225500 -6.350000 6.000000
v 23.434500 -12.203000 6.000000
v 17.631500 -13.146000 6.000000
v 17.477500 -12.513000 6.000000
v 13.317500 -12.793000 6.000000
v 13.148500 -11.364000 6.000000
v 1.731500 -12.656000 6.000000
v 0.030500 -18.468000 6.000000
v -12.422500 -16.285000 6.000000
v -10.014500 -10.344000 6.000000
v -7.877500 7.991000 6.000000
v -14.966500 13.329000 6.000000
v -21.063500 6.175000 6.000000
v -23.434500 8.000000 6.000000
v -17.504500 15.635000 6.000000
v -16.870500 15.334000 6.000000
v -13.934500 18.468000 6.000000
v -4.488500 12.000000 6.000000
v -4.889500 11.387000 6.000000
vn 0.000000 0.000000 -1.000000
vn 0.000000 0.000000 -1.000000
vn 0.000000 0.000000 -1.000000
vn 0.000000 0.000000 -1.000000
vn 0.000000 0.000000 -1.000000
vn 0.000000 0.000000 -1.000000
vn 0.000000 0.000000 -1.000000
vn -0.000000 0.000000 -1.000000
vn 0.000000 0.000000 -1.000000
vn 0.000000 0.000000 -1.000000
vn 0.000000 0.000000 -1.000000
vn 0.000000 0.000000 -1.000000
vn 0.000000 0.000000 -1.000000
vn 0.000000 -0.000000 -1.000000
vn 0.000000 0.000000 -1.000000
vn -0.000000 0.000000 -1.000000
vn 0.000000 0.000000 -1.000000
vn -0.000000 0.000000 -1.000000
vn 0.000000 0.000000 -1.000000
vn 0.000000 0.000000 -1.000000
vn 0.000000 0.000000 -1.000000
vn 0.000000 0.000000 -1.000000
vn -0.000000 0.000000 1.000000
vn 0.000000 0.000000 1.000000
vn -0.000000 0.000000 1.000000
vn -0.000000 0.000000 1.000000
vn 0.000000 0.000000 1.000000
vn 0.000000 0.000000 1.000000
vn 0.000000 0.000000 1.000000
vn 0.000000 0.000000 1.000000
vn 0.000000 0.000000 1.000000
vn 0.000000 0.000000 1.000000
vn 0.000000 0.000000 1.000000
vn 0.000000 0.000000 1.000000
vn 0.000000 0.000000 1.000000
vn 0.000000 0.000000 1.000000
vn 0.000000 0.000000 1.000000
vn 0.000000 0.000000 1.000000
vn 0.000000 0.000000 1.000000
vn 0.000000 0.000000 1.000000
vn 0.000000 0.000000 1.000000
vn 0.000000 0.000000 1.000000
vn 0.000000 0.000000 1.000000
vn 0.000000 0.000000 1.000000
vn -0.367417 0.930056 0.000000
vn -0.367417 0.930056 0.000000
vn 0.976790 0.214198 0.000000
vn 0.976790 0.214198 -0.000000
vn -0.148151 0.988965 0.000000
vn -0.148151 0.988965 0.000000
vn 0.985761 0.168150 0.000000
vn 0.985761 0.168150 -0.000000
vn -0.078265 0.996933 0.000000
vn -0.078265 0.996933 0.000000
vn 0.979326 0.202290 0.000000
vn 0.979326 0.202290 -0.000000
vn 0.160398 -0.987052 0.000000
vn 0.160398 -0.987052 0.000000
vn -0.971658 -0.236391 0.000000
vn -0.971658 -0.236391 0.000000
vn 0.067156 -0.997743 0.000000
vn 0.067156 -0.997743 0.000000
vn -0.993079 -0.117446 0.000000
vn -0.993079 -0.117446 0.000000
vn 0.112447 -0.993658 0.000000
vn 0.112447 -0.993658 0.000000
vn 0.959741 -0.280888 0.000000
vn 0.959741 -0.280888 0.000000
vn -0.172666 -0.984980 0.000000
vn -0.172666 -0.984980 0.000000
vn -0.926767 0.375636 0.000000
vn -0.926767 0.375636 0.000000
vn -0.993276 0.115769 0.000000
vn -0.993276 0.115769 0.000000
vn -0.601531 -0.798849 0.000000
vn -0.601531 -0.798849 0.000000
vn 0.761093 -0.648642 0.000000
vn 0.761093 -0.648642 0.000000
vn -0.609953 -0.792438 0.000000
vn -0.609953 -0.792438 0.000000
vn -0.789770 0.613403 0.000000
vn -0.789770 0.613403 0.000000
vn 0.428882 0.903360 0.000000
vn 0.428882 0.903360 -0.000000
vn -0.729784 0.683678 0.000000
vn -0.729784 0.683678 0.000000
vn 0.564978 0.825106 0.000000
vn 0.564978 0.825106 -0.000000
vn 0.836849 -0.547433 0.000000
vn 0.836849 -0.547433 0.000000
vn 0.504501 0.863411 0.000000
vn 0.504501 0.863411 -0.000000
usemtl assumed_base
f 1//1 2//1 3//1
f 24//2 1//2 3//2
f 3//3 4//3 5//3
f 5//4 6//4 7//4
f 3//5 5//5 7//5
f 7//6 8//6 9//6
f 3//7 7//7 9//7
f 9//8 10//8 11//8
f 3//9 9//9 11//9
f 24//10 3//10 11//10
f 24//11 11//11 12//11
f 24//12 12//12 13//12
f 13//13 14//13 15//13
f 24//14 13//14 15//14
f 24//15 15//15 16//15
f 24//16 16//16 17//16
f 17//17 18//17 19//17
f 17//18 19//18 20//18
f 17//19 20//19 21//19
f 24//20 17//20 21//20
f 24//21 21//21 22//21
f 22//22 23//22 24//22
usemtl assumed_roof
f 25//23 27//23 26//23
f 48//24 27//24 25//24
f 27//25 29//25 28//25
f 29//26 31//26 30//26
f 27//27 31//27 29//27
f 31//28 33//28 32//28
f 27//29 33//29 31//29
f 33//30 35//30 34//30
f 27//31 35//31 33//31
f 48//32 35//32 27//32
f 48//33 36//33 35//33
f 48//34 37//34 36//34
f 37//35 39//35 38//35
f 48//36 39//36 37//36
f 48//37 40//37 39//37
f 48//38 41//38 40//38
f 41//39 43//39 42//39
f 41//40 44//40 43//40
f 41//41 45//41 44//41
f 48//42 45//42 41//42
f 48//43 46//43 45//43
f 46//44 48//44 47//44
usemtl assumed_wall
f 1//45 26//45 2//45
f 1//46 25//46 26//46
f 2//47 27//47 3//47
f 2//48 26//48 27//48
f 3//49 28//49 4//49
f 3//50 27//50 28//50
f 4//51 29//51 5//51
f 4//52 28//52 29//52
f 5//53 30//53 6//53
f 5//54 29//54 30//54
f 6//55 31//55 7//55
f 6//56 30//56 31//56
f 7//57 32//57 8//57
f 7//58 31//58 32//58
f 8//59 33//59 9//59
f 8//60 32//60 33//60
f 9//61 34//61 10//61
f 9//62 33//62 34//62
f 10//63 35//63 11//63
f 10//64 34//64 35//64
f 11//65 36//65 12//65
f 11//66 35//66 36//66
f 12//67 37//67 13//67
f 12//68 36//68 37//68
f 13//69 38//69 14//69
f 13//70 37//70 38//70
f 14//71 39//71 15//71
f 14//72 38//72 39//72
f 15//73 40//73 16//73
f 15//74 39//74 40//74
f 16//75 41//75 17//75
f 16//76 40//76 41//76
f 17//77 42//77 18//77
f 17//78 41//78 42//78
f 18//79 43//79 19//79
f 18//80 42//80 43//80
f 19//81 44//81 20//81
f 19//82 43//82 44//82
f 20//83 45//83 21//83
f 20//84 44//84 45//84
f 21//85 46//85 22//85
f 21//86 45//86 46//86
f 22//87 47//87 23//87
f 22//88 46//88 47//88
f 23//89 48//89 24//89
f 23//90 47//90 48//90
f 24//91 25//91 1//91
f 24//92 48//92 25//92
