# construction_3438_assumed_A_Casa
# source A_Casa
# h_campo 0.000000
# modeled_height 6.000000
# height_kind assumed
# local_origin_world_x 172001.034850
# local_origin_world_y 402500.144600
mtllib construction_artifacts.mtl

o construction_3438_assumed_A_Casa
v -4.511000 -1.264500 0.000000
v -1.103000 3.968500 0.000000
v 4.511000 -0.464500 0.000000
v 2.120000 -3.919500 0.000000
v 0.197000 -2.202500 0.000000
v -1.263000 -3.968500 0.000000
v -4.511000 -1.264500 6.000000
v -1.103000 3.968500 6.000000
v 4.511000 -0.464500 6.000000
v 2.120000 -3.919500 6.000000
v 0.197000 -2.202500 6.000000
v -1.263000 -3.968500 6.000000
vn 0.000000 0.000000 -1.000000
vn 0.000000 0.000000 -1.000000
vn 0.000000 0.000000 -1.000000
vn 0.000000 -0.000000 -1.000000
vn 0.000000 -0.000000 1.000000
vn 0.000000 0.000000 1.000000
vn 0.000000 0.000000 1.000000
vn 0.000000 0.000000 1.000000
vn -0.837964 0.545725 0.000000
vn -0.837964 0.545725 0.000000
vn 0.619721 0.784822 0.000000
vn 0.619721 0.784822 -0.000000
vn 0.822295 -0.569061 0.000000
vn 0.822295 -0.569061 0.000000
vn -0.666023 -0.745931 0.000000
vn -0.666023 -0.745931 0.000000
vn 0.770719 -0.637175 0.000000
vn 0.770719 -0.637175 0.000000
vn -0.639812 -0.768532 0.000000
vn -0.639812 -0.768532 0.000000
usemtl assumed_base
f 6//1 1//1 2//1
f 2//2 3//2 4//2
f 2//3 4//3 5//3
f 2//4 5//4 6//4
usemtl assumed_roof
f 12//5 8//5 7//5
f 8//6 10//6 9//6
f 8//7 11//7 10//7
f 8//8 12//8 11//8
usemtl assumed_wall
f 1//9 8//9 2//9
f 1//10 7//10 8//10
f 2//11 9//11 3//11
f 2//12 8//12 9//12
f 3//13 10//13 4//13
f 3//14 9//14 10//14
f 4//15 11//15 5//15
f 4//16 10//16 11//16
f 5//17 12//17 6//17
f 5//18 11//18 12//18
f 6//19 7//19 1//19
f 6//20 12//20 7//20
