# construction_5780_assumed_A_Casa
# source A_Casa
# h_campo 0.000000
# modeled_height 6.000000
# height_kind assumed
# local_origin_world_x 172001.034850
# local_origin_world_y 402500.144600
mtllib construction_artifacts.mtl

o construction_5780_assumed_A_Casa
v -15.309000 0.440000 0.000000
v -13.614000 1.020000 0.000000
v -14.763000 3.096000 0.000000
v -11.511000 5.054000 0.000000
v -10.715000 3.687000 0.000000
v -6.197000 6.378000 0.000000
v -9.633000 12.414000 0.000000
v -0.774000 17.758000 0.000000
v 3.863000 10.796000 0.000000
v 4.963000 11.314000 0.000000
v 8.564000 5.683000 0.000000
v 10.601000 6.528000 0.000000
v 14.226000 1.150000 0.000000
v 11.721000 -0.733000 0.000000
v 15.309000 -5.820000 0.000000
v 7.362000 -10.443000 0.000000
v 8.372000 -12.278000 0.000000
v 6.044000 -13.452000 0.000000
v 6.688000 -14.300000 0.000000
v 1.094000 -17.673000 0.000000
v 0.147000 -15.851000 0.000000
v -3.130000 -17.758000 0.000000
v -8.512000 -9.469000 0.000000
v -11.208000 -11.617000 0.000000
v -15.309000 0.440000 6.000000
v -13.614000 1.020000 6.000000
v -14.763000 3.096000 6.000000
v -11.511000 5.054000 6.000000
v -10.715000 3.687000 6.000000
v -6.197000 6.378000 6.000000
v -9.633000 12.414000 6.000000
v -0.774000 17.758000 6.000000
v 3.863000 10.796000 6.000000
v 4.963000 11.314000 6.000000
v 8.564000 5.683000 6.000000
v 10.601000 6.528000 6.000000
v 14.226000 1.150000 6.000000
v 11.721000 -0.733000 6.000000
v 15.309000 -5.820000 6.000000
v 7.362000 -10.443000 6.000000
v 8.372000 -12.278000 6.000000
v 6.044000 -13.452000 6.000000
v 6.688000 -14.300000 6.000000
v 1.094000 -17.673000 6.000000
v 0.147000 -15.851000 6.000000
v -3.130000 -17.758000 6.000000
v -8.512000 -9.469000 6.000000
v -11.208000 -11.617000 6.000000
vn 0.000000 0.000000 -1.000000
vn 0.000000 0.000000 -1.000000
vn 0.000000 0.000000 -1.000000
vn 0.000000 0.000000 -1.000000
vn 0.000000 0.000000 -1.000000
vn 0.000000 0.000000 -1.000000
vn 0.000000 0.000000 -1.000000
vn 0.000000 0.000000 -1.000000
vn 0.000000 0.000000 -1.000000
vn 0.000000 0.000000 -1.000000
vn 0.000000 0.000000 -1.000000
vn 0.000000 0.000000 -1.000000
vn 0.000000 -0.000000 -1.000000
vn 0.000000 -0.000000 -1.000000
vn 0.000000 -0.000000 -1.000000
vn 0.000000 0.000000 -1.000000
vn 0.000000 -0.000000 -1.000000
vn 0.000000 0.000000 -1.000000
vn 0.000000 0.000000 -1.000000
vn 0.000000 0.000000 -1.000000
vn 0.000000 0.000000 -1.000000
vn 0.000000 0.000000 -1.000000
vn 0.000000 0.000000 1.000000
vn 0.000000 -0.000000 1.000000
vn 0.000000 0.000000 1.000000
vn 0.000000 -0.000000 1.000000
vn 0.000000 0.000000 1.000000
vn 0.000000 -0.000000 1.000000
vn 0.000000 0.000000 1.000000
vn 0.000000 0.000000 1.000000
vn 0.000000 0.000000 1.000000
vn 0.000000 0.000000 1.000000
vn 0.000000 0.000000 1.000000
vn 0.000000 0.000000 1.000000
vn 0.000000 0.000000 1.000000
vn 0.000000 0.000000 1.000000
vn 0.000000 0.000000 1.000000
vn 0.000000 0.000000 1.000000
vn 0.000000 0.000000 1.000000
vn 0.000000 0.000000 1.000000
vn 0.000000 0.000000 1.000000
vn 0.000000 0.000000 1.000000
vn 0.000000 0.000000 1.000000
vn 0.000000 0.000000 1.000000
vn -0.323753 0.946141 0.000000
vn -0.323753 0.946141 0.000000
vn -0.874931 -0.484247 0.000000
vn -0.874931 -0.484247 0.000000
vn -0.515812 0.856702 0.000000
vn -0.515812 0.856702 0.000000
vn 0.864168 0.503203 0.000000
vn 0.864168 0.503203 -0.000000
vn -0.511725 0.859150 0.000000
vn -0.511725 0.859150 0.000000
vn -0.869057 -0.494712 0.000000
vn -0.869057 -0.494712 0.000000
vn -0.516527 0.856271 0.000000
vn -0.516527 0.856271 0.000000
vn 0.832289 0.554342 0.000000
vn 0.832289 0.554342 -0.000000
vn -0.426035 0.904707 0.000000
vn -0.426035 0.904707 0.000000
vn 0.842464 0.538752 0.000000
vn 0.842464 0.538752 -0.000000
vn -0.383166 0.923679 0.000000
vn -0.383166 0.923679 0.000000
vn 0.829217 0.558927 0.000000
vn 0.829217 0.558927 -0.000000
vn 0.600868 -0.799349 0.000000
vn 0.600868 -0.799349 0.000000
vn 0.817182 0.576380 0.000000
vn 0.817182 0.576380 -0.000000
vn 0.502836 -0.864382 0.000000
vn 0.502836 -0.864382 0.000000
vn 0.876065 0.482194 0.000000
vn 0.876065 0.482194 -0.000000
vn 0.450279 -0.892888 0.000000
vn 0.450279 -0.892888 0.000000
vn 0.796379 0.604797 0.000000
vn 0.796379 0.604797 -0.000000
vn 0.516363 -0.856370 0.000000
vn 0.516363 -0.856370 0.000000
vn -0.887304 -0.461184 0.000000
vn -0.887304 -0.461184 0.000000
vn 0.502969 -0.864305 0.000000
vn 0.502969 -0.864305 0.000000
vn -0.838714 -0.544572 0.000000
vn -0.838714 -0.544572 0.000000
vn 0.623137 -0.782113 0.000000
vn 0.623137 -0.782113 0.000000
vn -0.946734 -0.322017 0.000000
vn -0.946734 -0.322017 0.000000
usemtl assumed_base
f 24//1 1//1 2//1
f 2//2 3//2 4//2
f 24//3 2//3 4//3
f 24//4 4//4 5//4
f 24//5 5//5 6//5
f 6//6 7//6 8//6
f 24//7 6//7 8//7
f 24//8 8//8 9//8
f 24//9 9//9 10//9
f 24//10 10//10 11//10
f 24//11 11//11 12//11
f 12//12 13//12 14//12
f 14//13 15//13 16//13
f 12//14 14//14 16//14
f 16//15 17//15 18//15
f 12//16 16//16 18//16
f 18//17 19//17 20//17
f 12//18 18//18 20//18
f 12//19 20//19 21//19
f 12//20 21//20 22//20
f 12//21 22//21 23//21
f 12//22 23//22 24//22
usemtl assumed_roof
f 48//23 26//23 25//23
f 26//24 28//24 27//24
f 48//25 28//25 26//25
f 48//26 29//26 28//26
f 48//27 30//27 29//27
f 30//28 32//28 31//28
f 48//29 32//29 30//29
f 48//30 33//30 32//30
f 48//31 34//31 33//31
f 48//32 35//32 34//32
f 48//33 36//33 35//33
f 36//34 38//34 37//34
f 38//35 40//35 39//35
f 36//36 40//36 38//36
f 40//37 42//37 41//37
f 36//38 42//38 40//38
f 42//39 44//39 43//39
f 36//40 44//40 42//40
f 36//41 45//41 44//41
f 36//42 46//42 45//42
f 36//43 47//43 46//43
f 36//44 48//44 47//44
usemtl assumed_wall
f 1//45 26//45 2//45
f 1//46 25//46 26//46
f 2//47 27//47 3//47
f 2//48 26//48 27//48
f 3//49 28//49 4//49
f 3//50 27//50 28//50
f 4//51 29//51 5//51
f 4//52 28//52 29//52
f 5//53 30//53 6//53
f 5//54 29//54 30//54
f 6//55 31//55 7//55
f 6//56 30//56 31//56
f 7//57 32//57 8//57
f 7//58 31//58 32//58
f 8//59 33//59 9//59
f 8//60 32//60 33//60
f 9//61 34//61 10//61
f 9//62 33//62 34//62
f 10//63 35//63 11//63
f 10//64 34//64 35//64
f 11//65 36//65 12//65
f 11//66 35//66 36//66
f 12//67 37//67 13//67
f 12//68 36//68 37//68
f 13//69 38//69 14//69
f 13//70 37//70 38//70
f 14//71 39//71 15//71
f 14//72 38//72 39//72
f 15//73 40//73 16//73
f 15//74 39//74 40//74
f 16//75 41//75 17//75
f 16//76 40//76 41//76
f 17//77 42//77 18//77
f 17//78 41//78 42//78
f 18//79 43//79 19//79
f 18//80 42//80 43//80
f 19//81 44//81 20//81
f 19//82 43//82 44//82
f 20//83 45//83 21//83
f 20//84 44//84 45//84
f 21//85 46//85 22//85
f 21//86 45//86 46//86
f 22//87 47//87 23//87
f 22//88 46//88 47//88
f 23//89 48//89 24//89
f 23//90 47//90 48//90
f 24//91 25//91 1//91
f 24//92 48//92 25//92
