# construction_6188_assumed_A_Casa
# source A_Casa
# h_campo 0.000000
# modeled_height 6.000000
# height_kind assumed
# local_origin_world_x 172001.034850
# local_origin_world_y 402500.144600
mtllib construction_artifacts.mtl

o construction_6188_assumed_A_Casa
v -6.308500 12.571000 0.000000
v -3.311500 13.964000 0.000000
v -1.718500 10.688000 0.000000
v 1.264500 11.955000 0.000000
v 2.803500 8.249000 0.000000
v 12.252500 12.943000 0.000000
v 14.317500 8.550000 0.000000
v 15.067500 8.962000 0.000000
v 19.551500 0.083000 0.000000
v 9.406500 -4.682000 0.000000
v 10.686500 -7.601000 0.000000
v 0.576500 -12.582000 0.000000
v 2.901500 -17.812000 0.000000
v -13.684500 -26.005000 0.000000
v -16.483500 -20.025000 0.000000
v -0.655500 -11.611000 0.000000
v -19.551500 22.505000 0.000000
v -14.158500 26.005000 0.000000
v -6.308500 12.571000 6.000000
v -3.311500 13.964000 6.000000
v -1.718500 10.688000 6.000000
v 1.264500 11.955000 6.000000
v 2.803500 8.249000 6.000000
v 12.252500 12.943000 6.000000
v 14.317500 8.550000 6.000000
v 15.067500 8.962000 6.000000
v 19.551500 0.083000 6.000000
v 9.406500 -4.682000 6.000000
v 10.686500 -7.601000 6.000000
v 0.576500 -12.582000 6.000000
v 2.901500 -17.812000 6.000000
v -13.684500 -26.005000 6.000000
v -16.483500 -20.025000 6.000000
v -0.655500 -11.611000 6.000000
v -19.551500 22.505000 6.000000
v -14.158500 26.005000 6.000000
vn 0.000000 0.000000 -1.000000
vn 0.000000 0.000000 -1.000000
vn 0.000000 0.000000 -1.000000
vn 0.000000 0.000000 -1.000000
vn 0.000000 0.000000 -1.000000
vn 0.000000 0.000000 -1.000000
vn 0.000000 0.000000 -1.000000
vn 0.000000 0.000000 -1.000000
vn 0.000000 0.000000 -1.000000
vn 0.000000 0.000000 -1.000000
vn 0.000000 0.000000 -1.000000
vn 0.000000 -0.000000 -1.000000
vn 0.000000 0.000000 -1.000000
vn -0.000000 0.000000 -1.000000
vn 0.000000 0.000000 -1.000000
vn 0.000000 0.000000 -1.000000
vn -0.000000 0.000000 1.000000
vn -0.000000 0.000000 1.000000
vn 0.000000 0.000000 1.000000
vn 0.000000 0.000000 1.000000
vn -0.000000 0.000000 1.000000
vn -0.000000 0.000000 1.000000
vn 0.000000 0.000000 1.000000
vn 0.000000 0.000000 1.000000
vn 0.000000 0.000000 1.000000
vn 0.000000 0.000000 1.000000
vn 0.000000 0.000000 1.000000
vn 0.000000 0.000000 1.000000
vn 0.000000 0.000000 1.000000
vn 0.000000 0.000000 1.000000
vn 0.000000 0.000000 1.000000
vn 0.000000 0.000000 1.000000
vn -0.421494 0.906831 0.000000
vn -0.421494 0.906831 0.000000
vn 0.899314 0.437304 0.000000
vn 0.899314 0.437304 -0.000000
vn -0.390938 0.920417 0.000000
vn -0.390938 0.920417 0.000000
vn 0.923533 0.383518 0.000000
vn 0.923533 0.383518 -0.000000
vn -0.444899 0.895581 0.000000
vn -0.444899 0.895581 0.000000
vn 0.905001 0.425410 0.000000
vn 0.905001 0.425410 -0.000000
vn -0.481470 0.876463 0.000000
vn -0.481470 0.876463 0.000000
vn 0.892631 0.450789 0.000000
vn 0.892631 0.450789 -0.000000
vn 0.425131 -0.905132 0.000000
vn 0.425131 -0.905132 0.000000
vn 0.915819 0.401592 0.000000
vn 0.915819 0.401592 -0.000000
vn 0.441953 -0.897038 0.000000
vn 0.441953 -0.897038 0.000000
vn 0.913776 0.406220 0.000000
vn 0.913776 0.406220 -0.000000
vn 0.442884 -0.896579 0.000000
vn 0.442884 -0.896579 0.000000
vn -0.905699 -0.423922 0.000000
vn -0.905699 -0.423922 0.000000
vn -0.469389 0.882991 0.000000
vn -0.469389 0.882991 0.000000
vn -0.874781 -0.484519 0.000000
vn -0.874781 -0.484519 0.000000
vn -0.544392 0.838831 0.000000
vn -0.544392 0.838831 0.000000
vn 0.863401 0.504518 0.000000
vn 0.863401 0.504518 -0.000000
usemtl assumed_base
f 1//1 2//1 3//1
f 3//2 4//2 5//2
f 1//3 3//3 5//3
f 5//4 6//4 7//4
f 7//5 8//5 9//5
f 5//6 7//6 9//6
f 1//7 5//7 9//7
f 1//8 9//8 10//8
f 1//9 10//9 11//9
f 1//10 11//10 12//10
f 18//11 1//11 12//11
f 12//12 13//12 14//12
f 12//13 14//13 15//13
f 12//14 15//14 16//14
f 18//15 12//15 16//15
f 16//16 17//16 18//16
usemtl assumed_roof
f 19//17 21//17 20//17
f 21//18 23//18 22//18
f 19//19 23//19 21//19
f 23//20 25//20 24//20
f 25//21 27//21 26//21
f 23//22 27//22 25//22
f 19//23 27//23 23//23
f 19//24 28//24 27//24
f 19//25 29//25 28//25
f 19//26 30//26 29//26
f 36//27 30//27 19//27
f 30//28 32//28 31//28
f 30//29 33//29 32//29
f 30//30 34//30 33//30
f 36//31 34//31 30//31
f 34//32 36//32 35//32
usemtl assumed_wall
f 1//33 20//33 2//33
f 1//34 19//34 20//34
f 2//35 21//35 3//35
f 2//36 20//36 21//36
f 3//37 22//37 4//37
f 3//38 21//38 22//38
f 4//39 23//39 5//39
f 4//40 22//40 23//40
f 5//41 24//41 6//41
f 5//42 23//42 24//42
f 6//43 25//43 7//43
f 6//44 24//44 25//44
f 7//45 26//45 8//45
f 7//46 25//46 26//46
f 8//47 27//47 9//47
f 8//48 26//48 27//48
f 9//49 28//49 10//49
f 9//50 27//50 28//50
f 10//51 29//51 11//51
f 10//52 28//52 29//52
f 11//53 30//53 12//53
f 11//54 29//54 30//54
f 12//55 31//55 13//55
f 12//56 30//56 31//56
f 13//57 32//57 14//57
f 13//58 31//58 32//58
f 14//59 33//59 15//59
f 14//60 32//60 33//60
f 15//61 34//61 16//61
f 15//62 33//62 34//62
f 16//63 35//63 17//63
f 16//64 34//64 35//64
f 17//65 36//65 18//65
f 17//66 35//66 36//66
f 18//67 19//67 1//67
f 18//68 36//68 19//68
