# construction_0926_assumed_A_Casa
# source A_Casa
# h_campo 0.000000
# modeled_height 6.000000
# height_kind assumed
# local_origin_world_x 172001.034850
# local_origin_world_y 402500.144600
mtllib construction_artifacts.mtl

o construction_0926_assumed_A_Casa
v -7.542000 -1.743000 0.000000
v -0.000000 1.495000 0.000000
v 1.075000 -0.170000 0.000000
v 3.392000 3.428000 0.000000
v 1.859000 3.946000 0.000000
v 4.037000 7.374000 0.000000
v 7.542000 5.042000 0.000000
v 2.889000 -4.272000 0.000000
v -5.334000 -7.374000 0.000000
v -7.542000 -1.743000 6.000000
v -0.000000 1.495000 6.000000
v 1.075000 -0.170000 6.000000
v 3.392000 3.428000 6.000000
v 1.859000 3.946000 6.000000
v 4.037000 7.374000 6.000000
v 7.542000 5.042000 6.000000
v 2.889000 -4.272000 6.000000
v -5.334000 -7.374000 6.000000
vn 0.000000 0.000000 -1.000000
vn 0.000000 0.000000 -1.000000
vn 0.000000 0.000000 -1.000000
vn 0.000000 0.000000 -1.000000
vn 0.000000 0.000000 -1.000000
vn 0.000000 0.000000 -1.000000
vn 0.000000 0.000000 -1.000000
vn 0.000000 -0.000000 1.000000
vn 0.000000 0.000000 1.000000
vn 0.000000 -0.000000 1.000000
vn 0.000000 0.000000 1.000000
vn 0.000000 0.000000 1.000000
vn 0.000000 0.000000 1.000000
vn 0.000000 0.000000 1.000000
vn -0.394507 0.918893 0.000000
vn -0.394507 0.918893 0.000000
vn 0.840111 0.542414 0.000000
vn 0.840111 0.542414 -0.000000
vn -0.840753 0.541419 0.000000
vn -0.840753 0.541419 0.000000
vn -0.320118 -0.947378 0.000000
vn -0.320118 -0.947378 0.000000
vn -0.844047 0.536270 0.000000
vn -0.844047 0.536270 0.000000
vn 0.553933 0.832562 0.000000
vn 0.553933 0.832562 -0.000000
vn 0.894581 -0.446906 0.000000
vn 0.894581 -0.446906 0.000000
vn 0.352956 -0.935640 0.000000
vn 0.352956 -0.935640 0.000000
vn -0.930986 -0.365054 0.000000
vn -0.930986 -0.365054 0.000000
usemtl assumed_base
f 9//1 1//1 2//1
f 9//2 2//2 3//2
f 4//3 5//3 6//3
f 4//4 6//4 7//4
f 3//5 4//5 7//5
f 9//6 3//6 7//6
f 7//7 8//7 9//7
usemtl assumed_roof
f 18//8 11//8 10//8
f 18//9 12//9 11//9
f 13//10 15//10 14//10
f 13//11 16//11 15//11
f 12//12 16//12 13//12
f 18//13 16//13 12//13
f 16//14 18//14 17//14
usemtl assumed_wall
f 1//15 11//15 2//15
f 1//16 10//16 11//16
f 2//17 12//17 3//17
f 2//18 11//18 12//18
f 3//19 13//19 4//19
f 3//20 12//20 13//20
f 4//21 14//21 5//21
f 4//22 13//22 14//22
f 5//23 15//23 6//23
f 5//24 14//24 15//24
f 6//25 16//25 7//25
f 6//26 15//26 16//26
f 7//27 17//27 8//27
f 7//28 16//28 17//28
f 8//29 18//29 9//29
f 8//30 17//30 18//30
f 9//31 10//31 1//31
f 9//32 18//32 10//32
