# construction_0722_assumed_A_Casa
# source A_Casa
# h_campo 0.000000
# modeled_height 6.000000
# height_kind assumed
# local_origin_world_x 172001.034850
# local_origin_world_y 402500.144600
mtllib construction_artifacts.mtl

o construction_0722_assumed_A_Casa
v -5.087500 -11.367500 0.000000
v -2.122500 4.040500 0.000000
v -4.316500 4.639500 0.000000
v -3.090500 10.749500 0.000000
v -0.558500 10.133500 0.000000
v 0.025500 12.109500 0.000000
v 5.087500 11.029500 0.000000
v -0.245500 -12.109500 0.000000
v -5.087500 -11.367500 6.000000
v -2.122500 4.040500 6.000000
v -4.316500 4.639500 6.000000
v -3.090500 10.749500 6.000000
v -0.558500 10.133500 6.000000
v 0.025500 12.109500 6.000000
v 5.087500 11.029500 6.000000
v -0.245500 -12.109500 6.000000
vn 0.000000 0.000000 -1.000000
vn 0.000000 0.000000 -1.000000
vn 0.000000 0.000000 -1.000000
vn 0.000000 0.000000 -1.000000
vn 0.000000 0.000000 -1.000000
vn 0.000000 -0.000000 -1.000000
vn 0.000000 0.000000 1.000000
vn 0.000000 0.000000 1.000000
vn 0.000000 -0.000000 1.000000
vn 0.000000 0.000000 1.000000
vn 0.000000 -0.000000 1.000000
vn 0.000000 0.000000 1.000000
vn -0.981984 0.188966 0.000000
vn -0.981984 0.188966 0.000000
vn -0.263378 -0.964693 0.000000
vn -0.263378 -0.964693 0.000000
vn -0.980457 0.196733 0.000000
vn -0.980457 0.196733 0.000000
vn 0.236391 0.971658 0.000000
vn 0.236391 0.971658 -0.000000
vn -0.958994 0.283427 0.000000
vn -0.958994 0.283427 0.000000
vn 0.208658 0.977989 0.000000
vn 0.208658 0.977989 -0.000000
vn 0.974454 -0.224589 0.000000
vn 0.974454 -0.224589 0.000000
vn -0.151474 -0.988461 0.000000
vn -0.151474 -0.988461 0.000000
usemtl assumed_base
f 8//1 1//1 2//1
f 2//2 3//2 4//2
f 2//3 4//3 5//3
f 8//4 2//4 5//4
f 8//5 5//5 6//5
f 6//6 7//6 8//6
usemtl assumed_roof
f 16//7 10//7 9//7
f 10//8 12//8 11//8
f 10//9 13//9 12//9
f 16//10 13//10 10//10
f 16//11 14//11 13//11
f 14//12 16//12 15//12
usemtl assumed_wall
f 1//13 10//13 2//13
f 1//14 9//14 10//14
f 2//15 11//15 3//15
f 2//16 10//16 11//16
f 3//17 12//17 4//17
f 3//18 11//18 12//18
f 4//19 13//19 5//19
f 4//20 12//20 13//20
f 5//21 14//21 6//21
f 5//22 13//22 14//22
f 6//23 15//23 7//23
f 6//24 14//24 15//24
f 7//25 16//25 8//25
f 7//26 15//26 16//26
f 8//27 9//27 1//27
f 8//28 16//28 9//28
