# construction_2685_assumed_A_Casa
# source A_Casa
# h_campo 0.000000
# modeled_height 6.000000
# height_kind assumed
# local_origin_world_x 172001.034850
# local_origin_world_y 402500.144600
mtllib construction_artifacts.mtl

o construction_2685_assumed_A_Casa
v -5.272500 15.350000 0.000000
v -0.677500 15.225000 0.000000
v -0.585500 6.716000 0.000000
v 0.486500 6.692000 0.000000
v 0.542500 3.397000 0.000000
v 5.115500 3.666000 0.000000
v 5.272500 -4.006000 0.000000
v 3.363500 -3.888000 0.000000
v 3.344500 -7.882000 0.000000
v 4.977500 -7.874000 0.000000
v 5.005500 -13.402000 0.000000
v 3.077500 -13.412000 0.000000
v 3.085500 -15.341000 0.000000
v -4.734500 -15.350000 0.000000
v -5.272500 15.350000 6.000000
v -0.677500 15.225000 6.000000
v -0.585500 6.716000 6.000000
v 0.486500 6.692000 6.000000
v 0.542500 3.397000 6.000000
v 5.115500 3.666000 6.000000
v 5.272500 -4.006000 6.000000
v 3.363500 -3.888000 6.000000
v 3.344500 -7.882000 6.000000
v 4.977500 -7.874000 6.000000
v 5.005500 -13.402000 6.000000
v 3.077500 -13.412000 6.000000
v 3.085500 -15.341000 6.000000
v -4.734500 -15.350000 6.000000
vn 0.000000 0.000000 -1.000000
vn 0.000000 0.000000 -1.000000
vn 0.000000 0.000000 -1.000000
vn 0.000000 0.000000 -1.000000
vn 0.000000 0.000000 -1.000000
vn 0.000000 -0.000000 -1.000000
vn 0.000000 0.000000 -1.000000
vn 0.000000 0.000000 -1.000000
vn 0.000000 0.000000 -1.000000
vn 0.000000 -0.000000 -1.000000
vn 0.000000 0.000000 -1.000000
vn 0.000000 -0.000000 -1.000000
vn 0.000000 -0.000000 1.000000
vn 0.000000 0.000000 1.000000
vn 0.000000 0.000000 1.000000
vn 0.000000 0.000000 1.000000
vn 0.000000 0.000000 1.000000
vn 0.000000 0.000000 1.000000
vn 0.000000 0.000000 1.000000
vn 0.000000 0.000000 1.000000
vn 0.000000 0.000000 1.000000
vn 0.000000 0.000000 1.000000
vn 0.000000 0.000000 1.000000
vn 0.000000 0.000000 1.000000
vn 0.027193 0.999630 0.000000
vn 0.027193 0.999630 -0.000000
vn 0.999942 0.010811 0.000000
vn 0.999942 0.010811 -0.000000
vn 0.022382 0.999749 0.000000
vn 0.022382 0.999749 -0.000000
vn 0.999856 0.016993 0.000000
vn 0.999856 0.016993 -0.000000
vn -0.058722 0.998274 0.000000
vn -0.058722 0.998274 0.000000
vn 0.999791 0.020460 0.000000
vn 0.999791 0.020460 -0.000000
vn -0.061695 -0.998095 0.000000
vn -0.061695 -0.998095 0.000000
vn 0.999989 -0.004757 0.000000
vn 0.999989 -0.004757 0.000000
vn -0.004899 0.999988 0.000000
vn -0.004899 0.999988 0.000000
vn 0.999987 0.005065 0.000000
vn 0.999987 0.005065 -0.000000
vn 0.005187 -0.999987 0.000000
vn 0.005187 -0.999987 0.000000
vn 0.999991 0.004147 0.000000
vn 0.999991 0.004147 -0.000000
vn 0.001151 -0.999999 0.000000
vn 0.001151 -0.999999 0.000000
vn -0.999846 -0.017522 0.000000
vn -0.999846 -0.017522 0.000000
usemtl assumed_base
f 14//1 1//1 2//1
f 14//2 2//2 3//2
f 14//3 3//3 4//3
f 14//4 4//4 5//4
f 14//5 5//5 6//5
f 6//6 7//6 8//6
f 14//7 6//7 8//7
f 14//8 8//8 9//8
f 14//9 9//9 10//9
f 10//10 11//10 12//10
f 14//11 10//11 12//11
f 12//12 13//12 14//12
usemtl assumed_roof
f 28//13 16//13 15//13
f 28//14 17//14 16//14
f 28//15 18//15 17//15
f 28//16 19//16 18//16
f 28//17 20//17 19//17
f 20//18 22//18 21//18
f 28//19 22//19 20//19
f 28//20 23//20 22//20
f 28//21 24//21 23//21
f 24//22 26//22 25//22
f 28//23 26//23 24//23
f 26//24 28//24 27//24
usemtl assumed_wall
f 1//25 16//25 2//25
f 1//26 15//26 16//26
f 2//27 17//27 3//27
f 2//28 16//28 17//28
f 3//29 18//29 4//29
f 3//30 17//30 18//30
f 4//31 19//31 5//31
f 4//32 18//32 19//32
f 5//33 20//33 6//33
f 5//34 19//34 20//34
f 6//35 21//35 7//35
f 6//36 20//36 21//36
f 7//37 22//37 8//37
f 7//38 21//38 22//38
f 8//39 23//39 9//39
f 8//40 22//40 23//40
f 9//41 24//41 10//41
f 9//42 23//42 24//42
f 10//43 25//43 11//43
f 10//44 24//44 25//44
f 11//45 26//45 12//45
f 11//46 25//46 26//46
f 12//47 27//47 13//47
f 12//48 26//48 27//48
f 13//49 28//49 14//49
f 13//50 27//50 28//50
f 14//51 15//51 1//51
f 14//52 28//52 15//52
