# construction_1636_assumed_A_Casa
# source A_Casa
# h_campo 0.000000
# modeled_height 6.000000
# height_kind assumed
# local_origin_world_x 172001.034850
# local_origin_world_y 402500.144600
mtllib construction_artifacts.mtl

o construction_1636_assumed_A_Casa
v -2.453000 -3.858500 0.000000
v -12.969000 8.028500 0.000000
v -4.564000 15.535500 0.000000
v 0.895000 9.895500 0.000000
v -0.773000 8.493500 0.000000
v -0.207000 7.585500 0.000000
v 3.712000 10.922500 0.000000
v 8.699000 5.314500 0.000000
v 9.922000 5.590500 0.000000
v 12.746000 3.053500 0.000000
v 9.070000 0.673500 0.000000
v 10.643000 -3.534500 0.000000
v 10.039000 -4.076500 0.000000
v 12.969000 -14.405500 0.000000
v 9.669000 -15.535500 0.000000
v 5.088000 -1.178500 0.000000
v 3.503000 1.027500 0.000000
v -2.453000 -3.858500 6.000000
v -12.969000 8.028500 6.000000
v -4.564000 15.535500 6.000000
v 0.895000 9.895500 6.000000
v -0.773000 8.493500 6.000000
v -0.207000 7.585500 6.000000
v 3.712000 10.922500 6.000000
v 8.699000 5.314500 6.000000
v 9.922000 5.590500 6.000000
v 12.746000 3.053500 6.000000
v 9.070000 0.673500 6.000000
v 10.643000 -3.534500 6.000000
v 10.039000 -4.076500 6.000000
v 12.969000 -14.405500 6.000000
v 9.669000 -15.535500 6.000000
v 5.088000 -1.178500 6.000000
v 3.503000 1.027500 6.000000
vn -0.000000 0.000000 -1.000000
vn 0.000000 0.000000 -1.000000
vn 0.000000 0.000000 -1.000000
vn 0.000000 0.000000 -1.000000
vn 0.000000 0.000000 -1.000000
vn 0.000000 0.000000 -1.000000
vn 0.000000 0.000000 -1.000000
vn 0.000000 0.000000 -1.000000
vn 0.000000 0.000000 -1.000000
vn 0.000000 0.000000 -1.000000
vn 0.000000 0.000000 -1.000000
vn 0.000000 0.000000 -1.000000
vn 0.000000 -0.000000 -1.000000
vn -0.000000 0.000000 -1.000000
vn 0.000000 0.000000 -1.000000
vn 0.000000 0.000000 1.000000
vn 0.000000 0.000000 1.000000
vn 0.000000 0.000000 1.000000
vn 0.000000 0.000000 1.000000
vn 0.000000 0.000000 1.000000
vn 0.000000 -0.000000 1.000000
vn 0.000000 0.000000 1.000000
vn 0.000000 0.000000 1.000000
vn 0.000000 0.000000 1.000000
vn -0.000000 0.000000 1.000000
vn 0.000000 0.000000 1.000000
vn 0.000000 0.000000 1.000000
vn 0.000000 0.000000 1.000000
vn 0.000000 0.000000 1.000000
vn 0.000000 0.000000 1.000000
vn -0.748979 -0.662594 0.000000
vn -0.748979 -0.662594 0.000000
vn -0.666141 0.745826 0.000000
vn -0.666141 0.745826 0.000000
vn 0.718543 0.695483 0.000000
vn 0.718543 0.695483 -0.000000
vn 0.643429 -0.765506 0.000000
vn 0.643429 -0.765506 0.000000
vn 0.848628 0.528990 0.000000
vn 0.848628 0.528990 -0.000000
vn -0.648308 0.761378 0.000000
vn -0.648308 0.761378 0.000000
vn 0.747270 0.664521 0.000000
vn 0.747270 0.664521 -0.000000
vn -0.220138 0.975469 0.000000
vn -0.220138 0.975469 0.000000
vn 0.668295 0.743896 0.000000
vn 0.668295 0.743896 -0.000000
vn 0.543478 -0.839423 0.000000
vn 0.543478 -0.839423 0.000000
vn 0.936695 0.350147 0.000000
vn 0.936695 0.350147 -0.000000
vn 0.667875 -0.744274 0.000000
vn 0.667875 -0.744274 0.000000
vn 0.962042 0.272900 0.000000
vn 0.962042 0.272900 -0.000000
vn 0.323958 -0.946072 0.000000
vn 0.323958 -0.946072 0.000000
vn -0.952679 -0.303979 0.000000
vn -0.952679 -0.303979 0.000000
vn -0.812113 -0.583499 0.000000
vn -0.812113 -0.583499 0.000000
vn 0.634241 -0.773135 0.000000
vn 0.634241 -0.773135 0.000000
usemtl assumed_base
f 17//1 1//1 2//1
f 2//2 3//2 4//2
f 2//3 4//3 5//3
f 17//4 2//4 5//4
f 17//5 5//5 6//5
f 17//6 6//6 7//6
f 17//7 7//7 8//7
f 17//8 8//8 9//8
f 17//9 9//9 10//9
f 17//10 10//10 11//10
f 17//11 11//11 12//11
f 17//12 12//12 13//12
f 13//13 14//13 15//13
f 13//14 15//14 16//14
f 13//15 16//15 17//15
usemtl assumed_roof
f 34//16 19//16 18//16
f 19//17 21//17 20//17
f 19//18 22//18 21//18
f 34//19 22//19 19//19
f 34//20 23//20 22//20
f 34//21 24//21 23//21
f 34//22 25//22 24//22
f 34//23 26//23 25//23
f 34//24 27//24 26//24
f 34//25 28//25 27//25
f 34//26 29//26 28//26
f 34//27 30//27 29//27
f 30//28 32//28 31//28
f 30//29 33//29 32//29
f 30//30 34//30 33//30
usemtl assumed_wall
f 1//31 19//31 2//31
f 1//32 18//32 19//32
f 2//33 20//33 3//33
f 2//34 19//34 20//34
f 3//35 21//35 4//35
f 3//36 20//36 21//36
f 4//37 22//37 5//37
f 4//38 21//38 22//38
f 5//39 23//39 6//39
f 5//40 22//40 23//40
f 6//41 24//41 7//41
f 6//42 23//42 24//42
f 7//43 25//43 8//43
f 7//44 24//44 25//44
f 8//45 26//45 9//45
f 8//46 25//46 26//46
f 9//47 27//47 10//47
f 9//48 26//48 27//48
f 10//49 28//49 11//49
f 10//50 27//50 28//50
f 11//51 29//51 12//51
f 11//52 28//52 29//52
f 12//53 30//53 13//53
f 12//54 29//54 30//54
f 13//55 31//55 14//55
f 13//56 30//56 31//56
f 14//57 32//57 15//57
f 14//58 31//58 32//58
f 15//59 33//59 16//59
f 15//60 32//60 33//60
f 16//61 34//61 17//61
f 16//62 33//62 34//62
f 17//63 18//63 1//63
f 17//64 34//64 18//64
