# construction_2267_assumed_A_Casa
# source A_Casa
# h_campo 0.000000
# modeled_height 6.000000
# height_kind assumed
# local_origin_world_x 172001.034850
# local_origin_world_y 402500.144600
mtllib construction_artifacts.mtl

o construction_2267_assumed_A_Casa
v -11.842000 -2.743000 0.000000
v -13.020000 0.211000 0.000000
v -12.034000 0.355000 0.000000
v -12.510000 1.857000 0.000000
v -6.942000 3.644000 0.000000
v -4.963000 -2.507000 0.000000
v -2.252000 -0.710000 0.000000
v -3.930000 3.596000 0.000000
v 7.785000 7.892000 0.000000
v 9.374000 3.788000 0.000000
v 11.094000 3.873000 0.000000
v 13.020000 -1.923000 0.000000
v 4.042000 -4.852000 0.000000
v 3.619000 -3.652000 0.000000
v -0.573000 -4.976000 0.000000
v -6.959000 -7.892000 0.000000
v -8.168000 -3.901000 0.000000
v -10.392000 -4.329000 0.000000
v -10.931000 -2.751000 0.000000
v -11.842000 -2.743000 6.000000
v -13.020000 0.211000 6.000000
v -12.034000 0.355000 6.000000
v -12.510000 1.857000 6.000000
v -6.942000 3.644000 6.000000
v -4.963000 -2.507000 6.000000
v -2.252000 -0.710000 6.000000
v -3.930000 3.596000 6.000000
v 7.785000 7.892000 6.000000
v 9.374000 3.788000 6.000000
v 11.094000 3.873000 6.000000
v 13.020000 -1.923000 6.000000
v 4.042000 -4.852000 6.000000
v 3.619000 -3.652000 6.000000
v -0.573000 -4.976000 6.000000
v -6.959000 -7.892000 6.000000
v -8.168000 -3.901000 6.000000
v -10.392000 -4.329000 6.000000
v -10.931000 -2.751000 6.000000
vn 0.000000 0.000000 -1.000000
vn 0.000000 0.000000 -1.000000
vn 0.000000 0.000000 -1.000000
vn 0.000000 0.000000 -1.000000
vn 0.000000 0.000000 -1.000000
vn 0.000000 0.000000 -1.000000
vn 0.000000 0.000000 -1.000000
vn 0.000000 0.000000 -1.000000
vn 0.000000 0.000000 -1.000000
vn 0.000000 0.000000 -1.000000
vn 0.000000 0.000000 -1.000000
vn 0.000000 0.000000 -1.000000
vn 0.000000 0.000000 -1.000000
vn 0.000000 0.000000 -1.000000
vn -0.000000 0.000000 -1.000000
vn 0.000000 0.000000 -1.000000
vn -0.000000 0.000000 -1.000000
vn 0.000000 0.000000 1.000000
vn 0.000000 0.000000 1.000000
vn 0.000000 0.000000 1.000000
vn 0.000000 -0.000000 1.000000
vn 0.000000 0.000000 1.000000
vn 0.000000 -0.000000 1.000000
vn 0.000000 0.000000 1.000000
vn 0.000000 0.000000 1.000000
vn 0.000000 0.000000 1.000000
vn 0.000000 0.000000 1.000000
vn 0.000000 0.000000 1.000000
vn 0.000000 0.000000 1.000000
vn -0.000000 0.000000 1.000000
vn 0.000000 0.000000 1.000000
vn 0.000000 0.000000 1.000000
vn 0.000000 0.000000 1.000000
vn 0.000000 0.000000 1.000000
vn -0.928867 -0.370415 0.000000
vn -0.928867 -0.370415 0.000000
vn -0.144512 0.989503 0.000000
vn -0.144512 0.989503 0.000000
vn -0.953275 -0.302103 0.000000
vn -0.953275 -0.302103 0.000000
vn -0.305588 0.952164 0.000000
vn -0.305588 0.952164 0.000000
vn 0.951943 0.306275 0.000000
vn 0.951943 0.306275 -0.000000
vn -0.552499 0.833514 0.000000
vn -0.552499 0.833514 0.000000
vn -0.931753 -0.363094 0.000000
vn -0.931753 -0.363094 0.000000
vn -0.344290 0.938863 0.000000
vn -0.344290 0.938863 0.000000
vn 0.932541 0.361064 0.000000
vn 0.932541 0.361064 -0.000000
vn -0.049358 0.998781 0.000000
vn -0.049358 0.998781 0.000000
vn 0.948978 0.315343 0.000000
vn 0.948978 0.315343 -0.000000
vn 0.310154 -0.950686 0.000000
vn 0.310154 -0.950686 0.000000
vn -0.943121 -0.332450 0.000000
vn -0.943121 -0.332450 0.000000
vn 0.301175 -0.953569 0.000000
vn 0.301175 -0.953569 0.000000
vn 0.415369 -0.909653 0.000000
vn 0.415369 -0.909653 0.000000
vn -0.957051 -0.289921 0.000000
vn -0.957051 -0.289921 0.000000
vn 0.188978 -0.981981 0.000000
vn 0.188978 -0.981981 0.000000
vn -0.946319 -0.323236 0.000000
vn -0.946319 -0.323236 0.000000
vn -0.008781 -0.999961 0.000000
vn -0.008781 -0.999961 0.000000
usemtl assumed_base
f 19//1 1//1 2//1
f 19//2 2//2 3//2
f 19//3 3//3 4//3
f 19//4 4//4 5//4
f 19//5 5//5 6//5
f 7//6 8//6 9//6
f 7//7 9//7 10//7
f 6//8 7//8 10//8
f 6//9 10//9 11//9
f 6//10 11//10 12//10
f 19//11 6//11 12//11
f 12//12 13//12 14//12
f 19//13 12//13 14//13
f 19//14 14//14 15//14
f 15//15 16//15 17//15
f 19//16 15//16 17//16
f 17//17 18//17 19//17
usemtl assumed_roof
f 38//18 21//18 20//18
f 38//19 22//19 21//19
f 38//20 23//20 22//20
f 38//21 24//21 23//21
f 38//22 25//22 24//22
f 26//23 28//23 27//23
f 26//24 29//24 28//24
f 25//25 29//25 26//25
f 25//26 30//26 29//26
f 25//27 31//27 30//27
f 38//28 31//28 25//28
f 31//29 33//29 32//29
f 38//30 33//30 31//30
f 38//31 34//31 33//31
f 34//32 36//32 35//32
f 38//33 36//33 34//33
f 36//34 38//34 37//34
usemtl assumed_wall
f 1//35 21//35 2//35
f 1//36 20//36 21//36
f 2//37 22//37 3//37
f 2//38 21//38 22//38
f 3//39 23//39 4//39
f 3//40 22//40 23//40
f 4//41 24//41 5//41
f 4//42 23//42 24//42
f 5//43 25//43 6//43
f 5//44 24//44 25//44
f 6//45 26//45 7//45
f 6//46 25//46 26//46
f 7//47 27//47 8//47
f 7//48 26//48 27//48
f 8//49 28//49 9//49
f 8//50 27//50 28//50
f 9//51 29//51 10//51
f 9//52 28//52 29//52
f 10//53 30//53 11//53
f 10//54 29//54 30//54
f 11//55 31//55 12//55
f 11//56 30//56 31//56
f 12//57 32//57 13//57
f 12//58 31//58 32//58
f 13//59 33//59 14//59
f 13//60 32//60 33//60
f 14//61 34//61 15//61
f 14//62 33//62 34//62
f 15//63 35//63 16//63
f 15//64 34//64 35//64
f 16//65 36//65 17//65
f 16//66 35//66 36//66
f 17//67 37//67 18//67
f 17//68 36//68 37//68
f 18//69 38//69 19//69
f 18//70 37//70 38//70
f 19//71 20//71 1//71
f 19//72 38//72 20//72
