# construction_3915_assumed_A_Casa
# source A_Casa
# h_campo 0.000000
# modeled_height 6.000000
# height_kind assumed
# local_origin_world_x 172001.034850
# local_origin_world_y 402500.144600
mtllib construction_artifacts.mtl

o construction_3915_assumed_A_Casa
v -15.989500 2.036000 0.000000
v -6.575500 3.685000 0.000000
v -7.980500 9.998000 0.000000
v -1.988500 11.313000 0.000000
v 9.710500 13.304000 0.000000
v 10.431500 9.867000 0.000000
v 13.986500 10.346000 0.000000
v 15.386500 3.230000 0.000000
v 13.835500 2.949000 0.000000
v 15.989500 -10.060000 0.000000
v 0.594500 -13.304000 0.000000
v -0.006500 -8.305000 0.000000
v -1.381500 -8.294000 0.000000
v -2.168500 -3.027000 0.000000
v 5.961500 -1.609000 0.000000
v 5.797500 1.370000 0.000000
v -0.070500 0.495000 0.000000
v -15.290500 -2.536000 0.000000
v -15.989500 2.036000 6.000000
v -6.575500 3.685000 6.000000
v -7.980500 9.998000 6.000000
v -1.988500 11.313000 6.000000
v 9.710500 13.304000 6.000000
v 10.431500 9.867000 6.000000
v 13.986500 10.346000 6.000000
v 15.386500 3.230000 6.000000
v 13.835500 2.949000 6.000000
v 15.989500 -10.060000 6.000000
v 0.594500 -13.304000 6.000000
v -0.006500 -8.305000 6.000000
v -1.381500 -8.294000 6.000000
v -2.168500 -3.027000 6.000000
v 5.961500 -1.609000 6.000000
v 5.797500 1.370000 6.000000
v -0.070500 0.495000 6.000000
v -15.290500 -2.536000 6.000000
vn 0.000000 0.000000 -1.000000
vn 0.000000 0.000000 -1.000000
vn 0.000000 0.000000 -1.000000
vn 0.000000 0.000000 -1.000000
vn 0.000000 0.000000 -1.000000
vn 0.000000 0.000000 -1.000000
vn 0.000000 -0.000000 -1.000000
vn 0.000000 -0.000000 -1.000000
vn 0.000000 0.000000 -1.000000
vn 0.000000 0.000000 -1.000000
vn 0.000000 0.000000 -1.000000
vn 0.000000 0.000000 -1.000000
vn 0.000000 0.000000 -1.000000
vn 0.000000 0.000000 -1.000000
vn 0.000000 0.000000 -1.000000
vn 0.000000 0.000000 -1.000000
vn 0.000000 -0.000000 1.000000
vn 0.000000 -0.000000 1.000000
vn 0.000000 0.000000 1.000000
vn 0.000000 0.000000 1.000000
vn 0.000000 0.000000 1.000000
vn 0.000000 0.000000 1.000000
vn 0.000000 0.000000 1.000000
vn 0.000000 0.000000 1.000000
vn 0.000000 0.000000 1.000000
vn 0.000000 0.000000 1.000000
vn 0.000000 -0.000000 1.000000
vn 0.000000 -0.000000 1.000000
vn 0.000000 0.000000 1.000000
vn 0.000000 0.000000 1.000000
vn 0.000000 0.000000 1.000000
vn 0.000000 0.000000 1.000000
vn -0.172538 0.985003 0.000000
vn -0.172538 0.985003 0.000000
vn -0.976118 -0.217242 0.000000
vn -0.976118 -0.217242 0.000000
vn -0.214358 0.976755 0.000000
vn -0.214358 0.976755 0.000000
vn -0.167773 0.985826 0.000000
vn -0.167773 0.985826 0.000000
vn 0.978698 0.205307 0.000000
vn 0.978698 0.205307 -0.000000
vn -0.133533 0.991044 0.000000
vn -0.133533 0.991044 0.000000
vn 0.981191 0.193039 0.000000
vn 0.981191 0.193039 -0.000000
vn 0.178271 -0.983981 0.000000
vn 0.178271 -0.983981 0.000000
vn 0.986568 0.163354 0.000000
vn 0.986568 0.163354 -0.000000
vn 0.206190 -0.978512 0.000000
vn 0.206190 -0.978512 0.000000
vn -0.992851 -0.119365 0.000000
vn -0.992851 -0.119365 0.000000
vn -0.008000 -0.999968 0.000000
vn -0.008000 -0.999968 0.000000
vn -0.989020 -0.147780 0.000000
vn -0.989020 -0.147780 0.000000
vn -0.171822 0.985128 0.000000
vn -0.171822 0.985128 0.000000
vn -0.998488 -0.054969 0.000000
vn -0.998488 -0.054969 0.000000
vn 0.147483 -0.989065 0.000000
vn 0.147483 -0.989065 0.000000
vn 0.195311 -0.980741 0.000000
vn 0.195311 -0.980741 0.000000
vn -0.988514 -0.151131 0.000000
vn -0.988514 -0.151131 0.000000
usemtl assumed_base
f 18//1 1//1 2//1
f 2//2 3//2 4//2
f 2//3 4//3 5//3
f 18//4 2//4 5//4
f 18//5 5//5 6//5
f 18//6 6//6 7//6
f 7//7 8//7 9//7
f 9//8 10//8 11//8
f 7//9 9//9 11//9
f 12//10 13//10 14//10
f 12//11 14//11 15//11
f 11//12 12//12 15//12
f 7//13 11//13 15//13
f 7//14 15//14 16//14
f 7//15 16//15 17//15
f 7//16 17//16 18//16
usemtl assumed_roof
f 36//17 20//17 19//17
f 20//18 22//18 21//18
f 20//19 23//19 22//19
f 36//20 23//20 20//20
f 36//21 24//21 23//21
f 36//22 25//22 24//22
f 25//23 27//23 26//23
f 27//24 29//24 28//24
f 25//25 29//25 27//25
f 30//26 32//26 31//26
f 30//27 33//27 32//27
f 29//28 33//28 30//28
f 25//29 33//29 29//29
f 25//30 34//30 33//30
f 25//31 35//31 34//31
f 25//32 36//32 35//32
usemtl assumed_wall
f 1//33 20//33 2//33
f 1//34 19//34 20//34
f 2//35 21//35 3//35
f 2//36 20//36 21//36
f 3//37 22//37 4//37
f 3//38 21//38 22//38
f 4//39 23//39 5//39
f 4//40 22//40 23//40
f 5//41 24//41 6//41
f 5//42 23//42 24//42
f 6//43 25//43 7//43
f 6//44 24//44 25//44
f 7//45 26//45 8//45
f 7//46 25//46 26//46
f 8//47 27//47 9//47
f 8//48 26//48 27//48
f 9//49 28//49 10//49
f 9//50 27//50 28//50
f 10//51 29//51 11//51
f 10//52 28//52 29//52
f 11//53 30//53 12//53
f 11//54 29//54 30//54
f 12//55 31//55 13//55
f 12//56 30//56 31//56
f 13//57 32//57 14//57
f 13//58 31//58 32//58
f 14//59 33//59 15//59
f 14//60 32//60 33//60
f 15//61 34//61 16//61
f 15//62 33//62 34//62
f 16//63 35//63 17//63
f 16//64 34//64 35//64
f 17//65 36//65 18//65
f 17//66 35//66 36//66
f 18//67 19//67 1//67
f 18//68 36//68 19//68
