# construction_6585_assumed_A_Casa
# source A_Casa
# h_campo 0.000000
# modeled_height 6.000000
# height_kind assumed
# local_origin_world_x 172001.034850
# local_origin_world_y 402500.144600
mtllib construction_artifacts.mtl

o construction_6585_assumed_A_Casa
v -11.354500 3.158500 0.000000
v -8.265500 1.353500 0.000000
v -6.935500 3.091500 0.000000
v -8.042500 4.063500 0.000000
v -1.399500 19.757500 0.000000
v 10.444500 18.760500 0.000000
v 20.534500 17.732500 0.000000
v 16.945500 9.293500 0.000000
v 7.981500 12.216500 0.000000
v 0.758500 -2.311500 0.000000
v -2.409500 -0.596500 0.000000
v -5.011500 -3.925500 0.000000
v 2.048500 -8.421500 0.000000
v -5.460500 -19.757500 0.000000
v -12.052500 -14.507500 0.000000
v -14.160500 -17.823500 0.000000
v -19.925500 -13.916500 0.000000
v -20.534500 -11.379500 0.000000
v -19.027500 -9.156500 0.000000
v -11.354500 3.158500 6.000000
v -8.265500 1.353500 6.000000
v -6.935500 3.091500 6.000000
v -8.042500 4.063500 6.000000
v -1.399500 19.757500 6.000000
v 10.444500 18.760500 6.000000
v 20.534500 17.732500 6.000000
v 16.945500 9.293500 6.000000
v 7.981500 12.216500 6.000000
v 0.758500 -2.311500 6.000000
v -2.409500 -0.596500 6.000000
v -5.011500 -3.925500 6.000000
v 2.048500 -8.421500 6.000000
v -5.460500 -19.757500 6.000000
v -12.052500 -14.507500 6.000000
v -14.160500 -17.823500 6.000000
v -19.925500 -13.916500 6.000000
v -20.534500 -11.379500 6.000000
v -19.027500 -9.156500 6.000000
vn 0.000000 0.000000 -1.000000
vn 0.000000 0.000000 -1.000000
vn 0.000000 0.000000 -1.000000
vn 0.000000 0.000000 -1.000000
vn 0.000000 0.000000 -1.000000
vn 0.000000 0.000000 -1.000000
vn 0.000000 -0.000000 -1.000000
vn 0.000000 0.000000 -1.000000
vn 0.000000 0.000000 -1.000000
vn 0.000000 0.000000 -1.000000
vn 0.000000 0.000000 -1.000000
vn 0.000000 0.000000 -1.000000
vn 0.000000 0.000000 -1.000000
vn 0.000000 0.000000 -1.000000
vn 0.000000 0.000000 -1.000000
vn 0.000000 -0.000000 -1.000000
vn 0.000000 0.000000 -1.000000
vn 0.000000 0.000000 1.000000
vn 0.000000 -0.000000 1.000000
vn 0.000000 0.000000 1.000000
vn 0.000000 0.000000 1.000000
vn 0.000000 0.000000 1.000000
vn 0.000000 0.000000 1.000000
vn 0.000000 0.000000 1.000000
vn 0.000000 0.000000 1.000000
vn 0.000000 0.000000 1.000000
vn 0.000000 0.000000 1.000000
vn 0.000000 0.000000 1.000000
vn 0.000000 0.000000 1.000000
vn 0.000000 0.000000 1.000000
vn -0.000000 0.000000 1.000000
vn 0.000000 0.000000 1.000000
vn 0.000000 0.000000 1.000000
vn 0.000000 -0.000000 1.000000
vn 0.504514 0.863404 0.000000
vn 0.504514 0.863404 -0.000000
vn -0.794150 0.607721 0.000000
vn -0.794150 0.607721 0.000000
vn -0.659801 -0.751440 0.000000
vn -0.659801 -0.751440 0.000000
vn -0.920899 0.389801 0.000000
vn -0.920899 0.389801 0.000000
vn 0.083881 0.996476 0.000000
vn 0.083881 0.996476 -0.000000
vn 0.101358 0.994850 0.000000
vn 0.101358 0.994850 -0.000000
vn 0.920236 -0.391365 0.000000
vn 0.920236 -0.391365 0.000000
vn -0.310016 -0.950731 0.000000
vn -0.310016 -0.950731 0.000000
vn 0.895436 -0.445191 0.000000
vn 0.895436 -0.445191 0.000000
vn -0.476069 -0.879408 0.000000
vn -0.476069 -0.879408 0.000000
vn 0.787884 -0.615823 0.000000
vn 0.787884 -0.615823 0.000000
vn 0.537154 0.843484 0.000000
vn 0.537154 0.843484 -0.000000
vn 0.833687 -0.552237 0.000000
vn 0.833687 -0.552237 0.000000
vn -0.622986 -0.782233 0.000000
vn -0.622986 -0.782233 0.000000
vn 0.843913 -0.536480 0.000000
vn 0.843913 -0.536480 0.000000
vn -0.561013 -0.827807 0.000000
vn -0.561013 -0.827807 0.000000
vn -0.972377 -0.233416 0.000000
vn -0.972377 -0.233416 0.000000
vn -0.827729 0.561128 0.000000
vn -0.827729 0.561128 0.000000
vn -0.848737 0.528815 0.000000
vn -0.848737 0.528815 0.000000
usemtl assumed_base
f 19//1 1//1 2//1
f 3//2 4//2 5//2
f 3//3 5//3 6//3
f 2//4 3//4 6//4
f 19//5 2//5 6//5
f 6//6 7//6 8//6
f 6//7 8//7 9//7
f 19//8 6//8 9//8
f 9//9 10//9 11//9
f 19//10 9//10 11//10
f 19//11 11//11 12//11
f 19//12 12//12 13//12
f 13//13 14//13 15//13
f 19//14 13//14 15//14
f 19//15 15//15 16//15
f 19//16 16//16 17//16
f 17//17 18//17 19//17
usemtl assumed_roof
f 38//18 21//18 20//18
f 22//19 24//19 23//19
f 22//20 25//20 24//20
f 21//21 25//21 22//21
f 38//22 25//22 21//22
f 25//23 27//23 26//23
f 25//24 28//24 27//24
f 38//25 28//25 25//25
f 28//26 30//26 29//26
f 38//27 30//27 28//27
f 38//28 31//28 30//28
f 38//29 32//29 31//29
f 32//30 34//30 33//30
f 38//31 34//31 32//31
f 38//32 35//32 34//32
f 38//33 36//33 35//33
f 36//34 38//34 37//34
usemtl assumed_wall
f 1//35 21//35 2//35
f 1//36 20//36 21//36
f 2//37 22//37 3//37
f 2//38 21//38 22//38
f 3//39 23//39 4//39
f 3//40 22//40 23//40
f 4//41 24//41 5//41
f 4//42 23//42 24//42
f 5//43 25//43 6//43
f 5//44 24//44 25//44
f 6//45 26//45 7//45
f 6//46 25//46 26//46
f 7//47 27//47 8//47
f 7//48 26//48 27//48
f 8//49 28//49 9//49
f 8//50 27//50 28//50
f 9//51 29//51 10//51
f 9//52 28//52 29//52
f 10//53 30//53 11//53
f 10//54 29//54 30//54
f 11//55 31//55 12//55
f 11//56 30//56 31//56
f 12//57 32//57 13//57
f 12//58 31//58 32//58
f 13//59 33//59 14//59
f 13//60 32//60 33//60
f 14//61 34//61 15//61
f 14//62 33//62 34//62
f 15//63 35//63 16//63
f 15//64 34//64 35//64
f 16//65 36//65 17//65
f 16//66 35//66 36//66
f 17//67 37//67 18//67
f 17//68 36//68 37//68
f 18//69 38//69 19//69
f 18//70 37//70 38//70
f 19//71 20//71 1//71
f 19//72 38//72 20//72
