# construction_2140_assumed_A_Casa
# source A_Casa
# h_campo 0.000000
# modeled_height 6.000000
# height_kind assumed
# local_origin_world_x 172001.034850
# local_origin_world_y 402500.144600
mtllib construction_artifacts.mtl

o construction_2140_assumed_A_Casa
v -18.512000 -26.362500 0.000000
v -13.392000 -18.171500 0.000000
v -12.456000 -18.865500 0.000000
v -5.657000 -11.252500 0.000000
v -1.736000 -13.779500 0.000000
v -7.078000 -19.745500 0.000000
v -3.788000 -21.904500 0.000000
v 2.629000 -11.347500 0.000000
v -2.388000 -7.205500 0.000000
v -0.183000 -4.308500 0.000000
v -3.182000 -2.036500 0.000000
v -10.858000 -2.748500 0.000000
v -11.286000 0.611500 0.000000
v -12.556000 3.913500 0.000000
v -0.684000 3.886500 0.000000
v 6.191000 18.391500 0.000000
v -1.378000 22.491500 0.000000
v -6.313000 22.407500 0.000000
v -7.166000 25.192500 0.000000
v -12.226000 21.993500 0.000000
v -13.681000 23.460500 0.000000
v -12.821000 25.093500 0.000000
v -5.708000 29.390500 0.000000
v -6.195000 30.479500 0.000000
v -2.434000 32.055500 0.000000
v -0.275000 31.748500 0.000000
v -0.520000 28.003500 0.000000
v 18.512000 22.302500 0.000000
v 10.848000 4.825500 0.000000
v 18.078000 1.185500 0.000000
v 0.844000 -31.389500 0.000000
v -6.727000 -27.029500 0.000000
v -9.791000 -32.055500 0.000000
v -18.512000 -26.362500 6.000000
v -13.392000 -18.171500 6.000000
v -12.456000 -18.865500 6.000000
v -5.657000 -11.252500 6.000000
v -1.736000 -13.779500 6.000000
v -7.078000 -19.745500 6.000000
v -3.788000 -21.904500 6.000000
v 2.629000 -11.347500 6.000000
v -2.388000 -7.205500 6.000000
v -0.183000 -4.308500 6.000000
v -3.182000 -2.036500 6.000000
v -10.858000 -2.748500 6.000000
v -11.286000 0.611500 6.000000
v -12.556000 3.913500 6.000000
v -0.684000 3.886500 6.000000
v 6.191000 18.391500 6.000000
v -1.378000 22.491500 6.000000
v -6.313000 22.407500 6.000000
v -7.166000 25.192500 6.000000
v -12.226000 21.993500 6.000000
v -13.681000 23.460500 6.000000
v -12.821000 25.093500 6.000000
v -5.708000 29.390500 6.000000
v -6.195000 30.479500 6.000000
v -2.434000 32.055500 6.000000
v -0.275000 31.748500 6.000000
v -0.520000 28.003500 6.000000
v 18.512000 22.302500 6.000000
v 10.848000 4.825500 6.000000
v 18.078000 1.185500 6.000000
v 0.844000 -31.389500 6.000000
v -6.727000 -27.029500 6.000000
v -9.791000 -32.055500 6.000000
vn 0.000000 0.000000 -1.000000
vn 0.000000 0.000000 -1.000000
vn 0.000000 0.000000 -1.000000
vn 0.000000 -0.000000 -1.000000
vn 0.000000 0.000000 -1.000000
vn 0.000000 0.000000 -1.000000
vn 0.000000 0.000000 -1.000000
vn 0.000000 0.000000 -1.000000
vn -0.000000 0.000000 -1.000000
vn 0.000000 0.000000 -1.000000
vn 0.000000 0.000000 -1.000000
vn 0.000000 0.000000 -1.000000
vn 0.000000 0.000000 -1.000000
vn 0.000000 0.000000 -1.000000
vn -0.000000 0.000000 -1.000000
vn 0.000000 0.000000 -1.000000
vn 0.000000 0.000000 -1.000000
vn -0.000000 0.000000 -1.000000
vn 0.000000 0.000000 -1.000000
vn 0.000000 0.000000 -1.000000
vn 0.000000 0.000000 -1.000000
vn 0.000000 0.000000 -1.000000
vn 0.000000 0.000000 -1.000000
vn 0.000000 0.000000 -1.000000
vn 0.000000 0.000000 -1.000000
vn 0.000000 0.000000 -1.000000
vn 0.000000 0.000000 -1.000000
vn 0.000000 0.000000 -1.000000
vn 0.000000 -0.000000 -1.000000
vn 0.000000 0.000000 -1.000000
vn 0.000000 0.000000 -1.000000
vn 0.000000 0.000000 1.000000
vn 0.000000 0.000000 1.000000
vn 0.000000 -0.000000 1.000000
vn 0.000000 0.000000 1.000000
vn 0.000000 0.000000 1.000000
vn 0.000000 0.000000 1.000000
vn 0.000000 0.000000 1.000000
vn 0.000000 0.000000 1.000000
vn 0.000000 0.000000 1.000000
vn 0.000000 0.000000 1.000000
vn 0.000000 -0.000000 1.000000
vn 0.000000 0.000000 1.000000
vn 0.000000 0.000000 1.000000
vn 0.000000 -0.000000 1.000000
vn 0.000000 0.000000 1.000000
vn 0.000000 0.000000 1.000000
vn 0.000000 0.000000 1.000000
vn 0.000000 -0.000000 1.000000
vn 0.000000 0.000000 1.000000
vn 0.000000 0.000000 1.000000
vn 0.000000 0.000000 1.000000
vn 0.000000 0.000000 1.000000
vn -0.000000 0.000000 1.000000
vn 0.000000 0.000000 1.000000
vn 0.000000 -0.000000 1.000000
vn 0.000000 0.000000 1.000000
vn 0.000000 0.000000 1.000000
vn 0.000000 0.000000 1.000000
vn -0.000000 0.000000 1.000000
vn 0.000000 0.000000 1.000000
vn 0.000000 0.000000 1.000000
vn -0.847969 0.530045 0.000000
vn -0.847969 0.530045 0.000000
vn 0.595597 0.803283 0.000000
vn 0.595597 0.803283 -0.000000
vn -0.745856 0.666107 0.000000
vn -0.745856 0.666107 0.000000
vn 0.541722 0.840558 0.000000
vn 0.541722 0.840558 -0.000000
vn 0.744993 -0.667072 0.000000
vn 0.744993 -0.667072 0.000000
vn 0.548645 0.836055 0.000000
vn 0.548645 0.836055 -0.000000
vn -0.854522 0.519415 0.000000
vn -0.854522 0.519415 0.000000
vn -0.636655 -0.771149 0.000000
vn -0.636655 -0.771149 0.000000
vn -0.795728 0.605654 0.000000
vn -0.795728 0.605654 0.000000
vn -0.603863 -0.797088 0.000000
vn -0.603863 -0.797088 0.000000
vn 0.092360 -0.995726 0.000000
vn 0.092360 -0.995726 0.000000
vn -0.991984 -0.126360 0.000000
vn -0.991984 -0.126360 0.000000
vn -0.933346 -0.358979 0.000000
vn -0.933346 -0.358979 0.000000
vn 0.002274 0.999997 0.000000
vn 0.002274 0.999997 -0.000000
vn -0.903636 0.428301 0.000000
vn -0.903636 0.428301 0.000000
vn -0.476294 -0.879286 0.000000
vn -0.476294 -0.879286 0.000000
vn 0.017019 -0.999855 0.000000
vn 0.017019 -0.999855 0.000000
vn -0.956157 -0.292855 0.000000
vn -0.956157 -0.292855 0.000000
vn 0.534376 -0.845247 0.000000
vn 0.534376 -0.845247 0.000000
vn -0.710005 -0.704197 0.000000
vn -0.710005 -0.704197 0.000000
vn -0.884801 0.465970 0.000000
vn -0.884801 0.465970 0.000000
vn -0.517077 0.855939 0.000000
vn -0.517077 0.855939 0.000000
vn -0.912876 -0.408237 0.000000
vn -0.912876 -0.408237 0.000000
vn -0.386478 0.922299 0.000000
vn -0.386478 0.922299 0.000000
vn 0.140779 0.990041 0.000000
vn 0.140779 0.990041 -0.000000
vn 0.997867 -0.065281 0.000000
vn 0.997867 -0.065281 0.000000
vn 0.286951 0.957945 0.000000
vn 0.286951 0.957945 -0.000000
vn 0.915814 -0.401602 0.000000
vn 0.915814 -0.401602 0.000000
vn 0.449683 0.893188 0.000000
vn 0.449683 0.893188 -0.000000
vn 0.883918 -0.467642 0.000000
vn 0.883918 -0.467642 0.000000
vn -0.499045 -0.866576 0.000000
vn -0.499045 -0.866576 0.000000
vn 0.853844 -0.520529 0.000000
vn 0.853844 -0.520529 0.000000
vn -0.546631 -0.837374 0.000000
vn -0.546631 -0.837374 0.000000
usemtl assumed_base
f 33//1 1//1 2//1
f 33//2 2//2 3//2
f 33//3 3//3 4//3
f 4//4 5//4 6//4
f 33//5 4//5 6//5
f 33//6 6//6 7//6
f 33//7 7//7 8//7
f 8//8 9//8 10//8
f 11//9 12//9 13//9
f 11//10 13//10 14//10
f 11//11 14//11 15//11
f 10//12 11//12 15//12
f 8//13 10//13 15//13
f 8//14 15//14 16//14
f 17//15 18//15 19//15
f 19//16 20//16 21//16
f 19//17 21//17 22//17
f 19//18 22//18 23//18
f 17//19 19//19 23//19
f 16//20 17//20 23//20
f 16//21 23//21 24//21
f 24//22 25//22 26//22
f 24//23 26//23 27//23
f 16//24 24//24 27//24
f 16//25 27//25 28//25
f 8//26 16//26 28//26
f 8//27 28//27 29//27
f 8//28 29//28 30//28
f 8//29 30//29 31//29
f 8//30 31//30 32//30
f 8//31 32//31 33//31
usemtl assumed_roof
f 66//32 35//32 34//32
f 66//33 36//33 35//33
f 66//34 37//34 36//34
f 37//35 39//35 38//35
f 66//36 39//36 37//36
f 66//37 40//37 39//37
f 66//38 41//38 40//38
f 41//39 43//39 42//39
f 44//40 46//40 45//40
f 44//41 47//41 46//41
f 44//42 48//42 47//42
f 43//43 48//43 44//43
f 41//44 48//44 43//44
f 41//45 49//45 48//45
f 50//46 52//46 51//46
f 52//47 54//47 53//47
f 52//48 55//48 54//48
f 52//49 56//49 55//49
f 50//50 56//50 52//50
f 49//51 56//51 50//51
f 49//52 57//52 56//52
f 57//53 59//53 58//53
f 57//54 60//54 59//54
f 49//55 60//55 57//55
f 49//56 61//56 60//56
f 41//57 61//57 49//57
f 41//58 62//58 61//58
f 41//59 63//59 62//59
f 41//60 64//60 63//60
f 41//61 65//61 64//61
f 41//62 66//62 65//62
usemtl assumed_wall
f 1//63 35//63 2//63
f 1//64 34//64 35//64
f 2//65 36//65 3//65
f 2//66 35//66 36//66
f 3//67 37//67 4//67
f 3//68 36//68 37//68
f 4//69 38//69 5//69
f 4//70 37//70 38//70
f 5//71 39//71 6//71
f 5//72 38//72 39//72
f 6//73 40//73 7//73
f 6//74 39//74 40//74
f 7//75 41//75 8//75
f 7//76 40//76 41//76
f 8//77 42//77 9//77
f 8//78 41//78 42//78
f 9//79 43//79 10//79
f 9//80 42//80 43//80
f 10//81 44//81 11//81
f 10//82 43//82 44//82
f 11//83 45//83 12//83
f 11//84 44//84 45//84
f 12//85 46//85 13//85
f 12//86 45//86 46//86
f 13//87 47//87 14//87
f 13//88 46//88 47//88
f 14//89 48//89 15//89
f 14//90 47//90 48//90
f 15//91 49//91 16//91
f 15//92 48//92 49//92
f 16//93 50//93 17//93
f 16//94 49//94 50//94
f 17//95 51//95 18//95
f 17//96 50//96 51//96
f 18//97 52//97 19//97
f 18//98 51//98 52//98
f 19//99 53//99 20//99
f 19//100 52//100 53//100
f 20//101 54//101 21//101
f 20//102 53//102 54//102
f 21//103 55//103 22//103
f 21//104 54//104 55//104
f 22//105 56//105 23//105
f 22//106 55//106 56//106
f 23//107 57//107 24//107
f 23//108 56//108 57//108
f 24//109 58//109 25//109
f 24//110 57//110 58//110
f 25//111 59//111 26//111
f 25//112 58//112 59//112
f 26//113 60//113 27//113
f 26//114 59//114 60//114
f 27//115 61//115 28//115
f 27//116 60//116 61//116
f 28//117 62//117 29//117
f 28//118 61//118 62//118
f 29//119 63//119 30//119
f 29//120 62//120 63//120
f 30//121 64//121 31//121
f 30//122 63//122 64//122
f 31//123 65//123 32//123
f 31//124 64//124 65//124
f 32//125 66//125 33//125
f 32//126 65//126 66//126
f 33//127 34//127 1//127
f 33//128 66//128 34//128
