# construction_3430_assumed_A_Casa
# source A_Casa
# h_campo 0.000000
# modeled_height 6.000000
# height_kind assumed
# local_origin_world_x 172001.034850
# local_origin_world_y 402500.144600
mtllib construction_artifacts.mtl

o construction_3430_assumed_A_Casa
v 13.096000 0.271000 0.000000
v 7.849000 -8.554000 0.000000
v -13.483000 1.019000 0.000000
v -10.291000 8.376000 0.000000
v 0.206000 6.139000 0.000000
v 1.074000 8.554000 0.000000
v 5.065000 7.116000 0.000000
v 3.855000 4.522000 0.000000
v 6.114000 3.319000 0.000000
v 7.671000 5.689000 0.000000
v 13.483000 2.555000 0.000000
v 12.467000 0.326000 0.000000
v 13.096000 0.271000 6.000000
v 7.849000 -8.554000 6.000000
v -13.483000 1.019000 6.000000
v -10.291000 8.376000 6.000000
v 0.206000 6.139000 6.000000
v 1.074000 8.554000 6.000000
v 5.065000 7.116000 6.000000
v 3.855000 4.522000 6.000000
v 6.114000 3.319000 6.000000
v 7.671000 5.689000 6.000000
v 13.483000 2.555000 6.000000
v 12.467000 0.326000 6.000000
vn 0.000000 -0.000000 -1.000000
vn -0.000000 0.000000 -1.000000
vn 0.000000 0.000000 -1.000000
vn 0.000000 0.000000 -1.000000
vn 0.000000 0.000000 -1.000000
vn 0.000000 0.000000 -1.000000
vn 0.000000 0.000000 -1.000000
vn 0.000000 0.000000 -1.000000
vn 0.000000 0.000000 -1.000000
vn 0.000000 0.000000 -1.000000
vn 0.000000 0.000000 1.000000
vn 0.000000 0.000000 1.000000
vn 0.000000 0.000000 1.000000
vn 0.000000 0.000000 1.000000
vn -0.000000 0.000000 1.000000
vn 0.000000 0.000000 1.000000
vn 0.000000 0.000000 1.000000
vn 0.000000 0.000000 1.000000
vn 0.000000 0.000000 1.000000
vn 0.000000 0.000000 1.000000
vn 0.859549 -0.511054 0.000000
vn 0.859549 -0.511054 0.000000
vn -0.409426 -0.912344 0.000000
vn -0.409426 -0.912344 0.000000
vn -0.917375 0.398024 0.000000
vn -0.917375 0.398024 0.000000
vn 0.208428 0.978038 0.000000
vn 0.208428 0.978038 -0.000000
vn -0.941061 0.338236 0.000000
vn -0.941061 0.338236 0.000000
vn 0.338978 0.940794 0.000000
vn 0.338978 0.940794 -0.000000
vn 0.906255 -0.422732 0.000000
vn 0.906255 -0.422732 0.000000
vn 0.470041 0.882645 0.000000
vn 0.470041 0.882645 -0.000000
vn -0.835775 0.549072 0.000000
vn -0.835775 0.549072 0.000000
vn 0.474624 0.880189 0.000000
vn 0.474624 0.880189 -0.000000
vn 0.909933 -0.414756 0.000000
vn 0.909933 -0.414756 0.000000
vn 0.087108 0.996199 0.000000
vn 0.087108 0.996199 -0.000000
usemtl assumed_base
f 12//1 1//1 2//1
f 12//2 2//2 3//2
f 12//3 3//3 4//3
f 5//4 6//4 7//4
f 5//5 7//5 8//5
f 4//6 5//6 8//6
f 4//7 8//7 9//7
f 12//8 4//8 9//8
f 12//9 9//9 10//9
f 10//10 11//10 12//10
usemtl assumed_roof
f 24//11 14//11 13//11
f 24//12 15//12 14//12
f 24//13 16//13 15//13
f 17//14 19//14 18//14
f 17//15 20//15 19//15
f 16//16 20//16 17//16
f 16//17 21//17 20//17
f 24//18 21//18 16//18
f 24//19 22//19 21//19
f 22//20 24//20 23//20
usemtl assumed_wall
f 1//21 14//21 2//21
f 1//22 13//22 14//22
f 2//23 15//23 3//23
f 2//24 14//24 15//24
f 3//25 16//25 4//25
f 3//26 15//26 16//26
f 4//27 17//27 5//27
f 4//28 16//28 17//28
f 5//29 18//29 6//29
f 5//30 17//30 18//30
f 6//31 19//31 7//31
f 6//32 18//32 19//32
f 7//33 20//33 8//33
f 7//34 19//34 20//34
f 8//35 21//35 9//35
f 8//36 20//36 21//36
f 9//37 22//37 10//37
f 9//38 21//38 22//38
f 10//39 23//39 11//39
f 10//40 22//40 23//40
f 11//41 24//41 12//41
f 11//42 23//42 24//42
f 12//43 13//43 1//43
f 12//44 24//44 13//44
