# construction_6898_assumed_A_Casa
# source A_Casa
# h_campo 0.000000
# modeled_height 6.000000
# height_kind assumed
# local_origin_world_x 172001.034850
# local_origin_world_y 402500.144600
mtllib construction_artifacts.mtl

o construction_6898_assumed_A_Casa
v -10.437000 2.853500 0.000000
v -8.185000 7.157500 0.000000
v 6.786000 0.085500 0.000000
v 5.974000 -1.758500 0.000000
v 10.437000 -3.909500 0.000000
v 8.759000 -7.157500 0.000000
v -10.437000 2.853500 6.000000
v -8.185000 7.157500 6.000000
v 6.786000 0.085500 6.000000
v 5.974000 -1.758500 6.000000
v 10.437000 -3.909500 6.000000
v 8.759000 -7.157500 6.000000
vn 0.000000 0.000000 -1.000000
vn 0.000000 0.000000 -1.000000
vn 0.000000 0.000000 -1.000000
vn 0.000000 0.000000 -1.000000
vn 0.000000 0.000000 1.000000
vn 0.000000 0.000000 1.000000
vn 0.000000 0.000000 1.000000
vn 0.000000 0.000000 1.000000
vn -0.886041 0.463607 0.000000
vn -0.886041 0.463607 0.000000
vn 0.427123 0.904194 0.000000
vn 0.427123 0.904194 -0.000000
vn 0.915198 -0.403005 0.000000
vn 0.915198 -0.403005 0.000000
vn 0.434168 0.900832 0.000000
vn 0.434168 0.900832 -0.000000
vn 0.888441 -0.458991 0.000000
vn 0.888441 -0.458991 0.000000
vn -0.462410 -0.886666 0.000000
vn -0.462410 -0.886666 0.000000
usemtl assumed_base
f 6//1 1//1 2//1
f 2//2 3//2 4//2
f 6//3 2//3 4//3
f 4//4 5//4 6//4
usemtl assumed_roof
f 12//5 8//5 7//5
f 8//6 10//6 9//6
f 12//7 10//7 8//7
f 10//8 12//8 11//8
usemtl assumed_wall
f 1//9 8//9 2//9
f 1//10 7//10 8//10
f 2//11 9//11 3//11
f 2//12 8//12 9//12
f 3//13 10//13 4//13
f 3//14 9//14 10//14
f 4//15 11//15 5//15
f 4//16 10//16 11//16
f 5//17 12//17 6//17
f 5//18 11//18 12//18
f 6//19 7//19 1//19
f 6//20 12//20 7//20
