# construction_0614_assumed_A_Casa
# source A_Casa
# h_campo 0.000000
# modeled_height 6.000000
# height_kind assumed
# local_origin_world_x 172001.034850
# local_origin_world_y 402500.144600
mtllib construction_artifacts.mtl

o construction_0614_assumed_A_Casa
v -10.367000 8.351000 0.000000
v 4.973000 11.871000 0.000000
v 10.367000 -10.282000 0.000000
v 4.002000 -11.871000 0.000000
v 2.394000 -6.869000 0.000000
v -6.724000 -8.464000 0.000000
v -10.367000 8.351000 6.000000
v 4.973000 11.871000 6.000000
v 10.367000 -10.282000 6.000000
v 4.002000 -11.871000 6.000000
v 2.394000 -6.869000 6.000000
v -6.724000 -8.464000 6.000000
vn 0.000000 0.000000 -1.000000
vn 0.000000 -0.000000 -1.000000
vn 0.000000 0.000000 -1.000000
vn 0.000000 0.000000 -1.000000
vn 0.000000 -0.000000 1.000000
vn 0.000000 0.000000 1.000000
vn 0.000000 0.000000 1.000000
vn 0.000000 0.000000 1.000000
vn -0.223653 0.974669 0.000000
vn -0.223653 0.974669 0.000000
vn 0.971613 0.236577 0.000000
vn 0.971613 0.236577 -0.000000
vn 0.242213 -0.970223 0.000000
vn 0.242213 -0.970223 0.000000
vn -0.952017 -0.306046 0.000000
vn -0.952017 -0.306046 0.000000
vn 0.172312 -0.985042 0.000000
vn 0.172312 -0.985042 0.000000
vn -0.977326 -0.211739 0.000000
vn -0.977326 -0.211739 0.000000
usemtl assumed_base
f 6//1 1//1 2//1
f 2//2 3//2 4//2
f 2//3 4//3 5//3
f 2//4 5//4 6//4
usemtl assumed_roof
f 12//5 8//5 7//5
f 8//6 10//6 9//6
f 8//7 11//7 10//7
f 8//8 12//8 11//8
usemtl assumed_wall
f 1//9 8//9 2//9
f 1//10 7//10 8//10
f 2//11 9//11 3//11
f 2//12 8//12 9//12
f 3//13 10//13 4//13
f 3//14 9//14 10//14
f 4//15 11//15 5//15
f 4//16 10//16 11//16
f 5//17 12//17 6//17
f 5//18 11//18 12//18
f 6//19 7//19 1//19
f 6//20 12//20 7//20
