# construction_4298_assumed_A_Casa
# source A_Casa
# h_campo 0.000000
# modeled_height 6.000000
# height_kind assumed
# local_origin_world_x 172001.034850
# local_origin_world_y 402500.144600
mtllib construction_artifacts.mtl

o construction_4298_assumed_A_Casa
v -17.756000 -30.993500 0.000000
v -17.067000 -20.535500 0.000000
v -6.995000 -21.579500 0.000000
v -6.271000 -16.349500 0.000000
v -15.854000 -15.083500 0.000000
v -14.561000 0.959500 0.000000
v -13.734000 0.962500 0.000000
v -12.394000 13.311500 0.000000
v -11.433000 13.348500 0.000000
v -10.363000 25.595500 0.000000
v -9.014000 25.600500 0.000000
v -8.179000 32.956500 0.000000
v 15.748000 29.345500 0.000000
v 15.228000 23.626500 0.000000
v 17.657000 23.466500 0.000000
v 15.580000 9.680500 0.000000
v 17.756000 9.434500 0.000000
v 15.591000 -8.043500 0.000000
v 13.500000 -8.067500 0.000000
v 12.132000 -17.465500 0.000000
v 10.934000 -17.470500 0.000000
v 9.875000 -32.956500 0.000000
v -17.756000 -30.993500 6.000000
v -17.067000 -20.535500 6.000000
v -6.995000 -21.579500 6.000000
v -6.271000 -16.349500 6.000000
v -15.854000 -15.083500 6.000000
v -14.561000 0.959500 6.000000
v -13.734000 0.962500 6.000000
v -12.394000 13.311500 6.000000
v -11.433000 13.348500 6.000000
v -10.363000 25.595500 6.000000
v -9.014000 25.600500 6.000000
v -8.179000 32.956500 6.000000
v 15.748000 29.345500 6.000000
v 15.228000 23.626500 6.000000
v 17.657000 23.466500 6.000000
v 15.580000 9.680500 6.000000
v 17.756000 9.434500 6.000000
v 15.591000 -8.043500 6.000000
v 13.500000 -8.067500 6.000000
v 12.132000 -17.465500 6.000000
v 10.934000 -17.470500 6.000000
v 9.875000 -32.956500 6.000000
vn 0.000000 0.000000 -1.000000
vn 0.000000 0.000000 -1.000000
vn 0.000000 0.000000 -1.000000
vn 0.000000 0.000000 -1.000000
vn 0.000000 0.000000 -1.000000
vn 0.000000 0.000000 -1.000000
vn 0.000000 0.000000 -1.000000
vn 0.000000 0.000000 -1.000000
vn 0.000000 0.000000 -1.000000
vn 0.000000 0.000000 -1.000000
vn 0.000000 0.000000 -1.000000
vn 0.000000 0.000000 -1.000000
vn 0.000000 0.000000 -1.000000
vn 0.000000 0.000000 -1.000000
vn 0.000000 0.000000 -1.000000
vn 0.000000 0.000000 -1.000000
vn 0.000000 0.000000 -1.000000
vn 0.000000 0.000000 -1.000000
vn 0.000000 0.000000 -1.000000
vn 0.000000 0.000000 -1.000000
vn 0.000000 0.000000 1.000000
vn 0.000000 0.000000 1.000000
vn 0.000000 0.000000 1.000000
vn 0.000000 0.000000 1.000000
vn 0.000000 0.000000 1.000000
vn 0.000000 0.000000 1.000000
vn 0.000000 0.000000 1.000000
vn 0.000000 0.000000 1.000000
vn 0.000000 0.000000 1.000000
vn 0.000000 0.000000 1.000000
vn 0.000000 0.000000 1.000000
vn 0.000000 0.000000 1.000000
vn 0.000000 0.000000 1.000000
vn 0.000000 0.000000 1.000000
vn 0.000000 0.000000 1.000000
vn 0.000000 0.000000 1.000000
vn 0.000000 0.000000 1.000000
vn 0.000000 0.000000 1.000000
vn 0.000000 0.000000 1.000000
vn 0.000000 0.000000 1.000000
vn -0.997837 0.065740 0.000000
vn -0.997837 0.065740 0.000000
vn 0.103101 0.994671 0.000000
vn 0.103101 0.994671 -0.000000
vn -0.990554 0.137124 0.000000
vn -0.990554 0.137124 0.000000
vn -0.130971 -0.991386 0.000000
vn -0.130971 -0.991386 0.000000
vn -0.996768 0.080335 0.000000
vn -0.996768 0.080335 0.000000
vn -0.003628 0.999993 0.000000
vn -0.003628 0.999993 0.000000
vn -0.994164 0.107878 0.000000
vn -0.994164 0.107878 0.000000
vn -0.038473 0.999260 0.000000
vn -0.038473 0.999260 0.000000
vn -0.996205 0.087037 0.000000
vn -0.996205 0.087037 0.000000
vn -0.003706 0.999993 0.000000
vn -0.003706 0.999993 0.000000
vn -0.993619 0.112788 0.000000
vn -0.993619 0.112788 0.000000
vn 0.149228 0.988803 0.000000
vn 0.149228 0.988803 -0.000000
vn 0.995892 -0.090551 0.000000
vn 0.995892 -0.090551 0.000000
vn 0.065728 0.997838 0.000000
vn 0.065728 0.997838 -0.000000
vn 0.988840 -0.148979 0.000000
vn 0.988840 -0.148979 0.000000
vn 0.112336 0.993670 0.000000
vn 0.112336 0.993670 -0.000000
vn 0.992415 -0.122930 0.000000
vn 0.992415 -0.122930 0.000000
vn 0.011477 -0.999934 0.000000
vn 0.011477 -0.999934 0.000000
vn 0.989571 -0.144045 0.000000
vn 0.989571 -0.144045 0.000000
vn 0.004174 -0.999991 0.000000
vn 0.004174 -0.999991 0.000000
vn 0.997670 -0.068225 0.000000
vn 0.997670 -0.068225 0.000000
vn -0.070865 -0.997486 0.000000
vn -0.070865 -0.997486 0.000000
usemtl assumed_base
f 22//1 1//1 2//1
f 22//2 2//2 3//2
f 22//3 3//3 4//3
f 4//4 5//4 6//4
f 22//5 4//5 6//5
f 22//6 6//6 7//6
f 22//7 7//7 8//7
f 22//8 8//8 9//8
f 22//9 9//9 10//9
f 22//10 10//10 11//10
f 22//11 11//11 12//11
f 12//12 13//12 14//12
f 14//13 15//13 16//13
f 12//14 14//14 16//14
f 16//15 17//15 18//15
f 12//16 16//16 18//16
f 12//17 18//17 19//17
f 12//18 19//18 20//18
f 12//19 20//19 21//19
f 12//20 21//20 22//20
usemtl assumed_roof
f 44//21 24//21 23//21
f 44//22 25//22 24//22
f 44//23 26//23 25//23
f 26//24 28//24 27//24
f 44//25 28//25 26//25
f 44//26 29//26 28//26
f 44//27 30//27 29//27
f 44//28 31//28 30//28
f 44//29 32//29 31//29
f 44//30 33//30 32//30
f 44//31 34//31 33//31
f 34//32 36//32 35//32
f 36//33 38//33 37//33
f 34//34 38//34 36//34
f 38//35 40//35 39//35
f 34//36 40//36 38//36
f 34//37 41//37 40//37
f 34//38 42//38 41//38
f 34//39 43//39 42//39
f 34//40 44//40 43//40
usemtl assumed_wall
f 1//41 24//41 2//41
f 1//42 23//42 24//42
f 2//43 25//43 3//43
f 2//44 24//44 25//44
f 3//45 26//45 4//45
f 3//46 25//46 26//46
f 4//47 27//47 5//47
f 4//48 26//48 27//48
f 5//49 28//49 6//49
f 5//50 27//50 28//50
f 6//51 29//51 7//51
f 6//52 28//52 29//52
f 7//53 30//53 8//53
f 7//54 29//54 30//54
f 8//55 31//55 9//55
f 8//56 30//56 31//56
f 9//57 32//57 10//57
f 9//58 31//58 32//58
f 10//59 33//59 11//59
f 10//60 32//60 33//60
f 11//61 34//61 12//61
f 11//62 33//62 34//62
f 12//63 35//63 13//63
f 12//64 34//64 35//64
f 13//65 36//65 14//65
f 13//66 35//66 36//66
f 14//67 37//67 15//67
f 14//68 36//68 37//68
f 15//69 38//69 16//69
f 15//70 37//70 38//70
f 16//71 39//71 17//71
f 16//72 38//72 39//72
f 17//73 40//73 18//73
f 17//74 39//74 40//74
f 18//75 41//75 19//75
f 18//76 40//76 41//76
f 19//77 42//77 20//77
f 19//78 41//78 42//78
f 20//79 43//79 21//79
f 20//80 42//80 43//80
f 21//81 44//81 22//81
f 21//82 43//82 44//82
f 22//83 23//83 1//83
f 22//84 44//84 23//84
