# construction_3647_assumed_A_Casa
# source A_Casa
# h_campo 0.000000
# modeled_height 6.000000
# height_kind assumed
# local_origin_world_x 172001.034850
# local_origin_world_y 402500.144600
mtllib construction_artifacts.mtl

o construction_3647_assumed_A_Casa
v -1.796000 -10.557000 0.000000
v -4.210000 -12.495000 0.000000
v -3.627000 -13.957000 0.000000
v -9.560000 -17.471000 0.000000
v -17.713000 -5.983000 0.000000
v -10.034000 -0.316000 0.000000
v -12.680000 3.322000 0.000000
v -6.978000 7.331000 0.000000
v -1.959000 0.650000 0.000000
v 1.690000 3.044000 0.000000
v 5.350000 8.505000 0.000000
v 3.608000 9.394000 0.000000
v 4.045000 10.307000 0.000000
v 5.203000 12.725000 0.000000
v 8.143000 11.549000 0.000000
v 11.498000 17.471000 0.000000
v 17.713000 14.322000 0.000000
v 14.351000 8.298000 0.000000
v 5.857000 -8.438000 0.000000
v 0.397000 -1.281000 0.000000
v -0.230000 -1.951000 0.000000
v 2.928000 -6.462000 0.000000
v -2.105000 -9.758000 0.000000
v -1.796000 -10.557000 6.000000
v -4.210000 -12.495000 6.000000
v -3.627000 -13.957000 6.000000
v -9.560000 -17.471000 6.000000
v -17.713000 -5.983000 6.000000
v -10.034000 -0.316000 6.000000
v -12.680000 3.322000 6.000000
v -6.978000 7.331000 6.000000
v -1.959000 0.650000 6.000000
v 1.690000 3.044000 6.000000
v 5.350000 8.505000 6.000000
v 3.608000 9.394000 6.000000
v 4.045000 10.307000 6.000000
v 5.203000 12.725000 6.000000
v 8.143000 11.549000 6.000000
v 11.498000 17.471000 6.000000
v 17.713000 14.322000 6.000000
v 14.351000 8.298000 6.000000
v 5.857000 -8.438000 6.000000
v 0.397000 -1.281000 6.000000
v -0.230000 -1.951000 6.000000
v 2.928000 -6.462000 6.000000
v -2.105000 -9.758000 6.000000
vn 0.000000 -0.000000 -1.000000
vn 0.000000 -0.000000 -1.000000
vn 0.000000 0.000000 -1.000000
vn -0.000000 0.000000 -1.000000
vn 0.000000 0.000000 -1.000000
vn 0.000000 0.000000 -1.000000
vn 0.000000 0.000000 -1.000000
vn 0.000000 0.000000 -1.000000
vn 0.000000 0.000000 -1.000000
vn 0.000000 0.000000 -1.000000
vn 0.000000 0.000000 -1.000000
vn 0.000000 0.000000 -1.000000
vn 0.000000 0.000000 -1.000000
vn 0.000000 0.000000 -1.000000
vn 0.000000 0.000000 -1.000000
vn 0.000000 0.000000 -1.000000
vn 0.000000 0.000000 -1.000000
vn 0.000000 0.000000 -1.000000
vn 0.000000 0.000000 -1.000000
vn 0.000000 0.000000 -1.000000
vn 0.000000 -0.000000 -1.000000
vn 0.000000 0.000000 1.000000
vn 0.000000 0.000000 1.000000
vn 0.000000 0.000000 1.000000
vn 0.000000 0.000000 1.000000
vn 0.000000 0.000000 1.000000
vn 0.000000 0.000000 1.000000
vn 0.000000 0.000000 1.000000
vn 0.000000 -0.000000 1.000000
vn 0.000000 0.000000 1.000000
vn 0.000000 0.000000 1.000000
vn 0.000000 -0.000000 1.000000
vn 0.000000 0.000000 1.000000
vn 0.000000 0.000000 1.000000
vn 0.000000 0.000000 1.000000
vn 0.000000 0.000000 1.000000
vn 0.000000 0.000000 1.000000
vn 0.000000 0.000000 1.000000
vn -0.000000 0.000000 1.000000
vn 0.000000 0.000000 1.000000
vn 0.000000 0.000000 1.000000
vn 0.000000 0.000000 1.000000
vn 0.626034 -0.779796 0.000000
vn 0.626034 -0.779796 0.000000
vn 0.928871 0.370405 0.000000
vn 0.928871 0.370405 -0.000000
vn 0.509604 -0.860409 0.000000
vn 0.509604 -0.860409 0.000000
vn -0.815500 -0.578758 0.000000
vn -0.815500 -0.578758 0.000000
vn -0.593796 0.804616 0.000000
vn -0.593796 0.804616 0.000000
vn -0.808717 -0.588198 0.000000
vn -0.808717 -0.588198 0.000000
vn -0.575156 0.818044 0.000000
vn -0.575156 0.818044 0.000000
vn 0.799526 0.600632 0.000000
vn 0.799526 0.600632 -0.000000
vn -0.548551 0.836117 0.000000
vn -0.548551 0.836117 0.000000
vn -0.830690 0.556735 0.000000
vn -0.830690 0.556735 0.000000
vn -0.454561 -0.890715 0.000000
vn -0.454561 -0.890715 0.000000
vn -0.902000 0.431735 0.000000
vn -0.902000 0.431735 0.000000
vn -0.901907 0.431931 0.000000
vn -0.901907 0.431931 0.000000
vn 0.371391 0.928477 0.000000
vn 0.371391 0.928477 -0.000000
vn -0.870073 0.492924 0.000000
vn -0.870073 0.492924 0.000000
vn 0.451972 0.892032 0.000000
vn 0.451972 0.892032 -0.000000
vn 0.873212 -0.487340 0.000000
vn 0.873212 -0.487340 0.000000
vn 0.891726 -0.452576 0.000000
vn 0.891726 -0.452576 0.000000
vn -0.795054 -0.606538 0.000000
vn -0.795054 -0.606538 0.000000
vn 0.730149 -0.683288 0.000000
vn 0.730149 -0.683288 0.000000
vn 0.819206 0.573499 0.000000
vn 0.819206 0.573499 -0.000000
vn 0.547854 -0.836574 0.000000
vn 0.547854 -0.836574 0.000000
vn 0.932682 0.360699 0.000000
vn 0.932682 0.360699 -0.000000
usemtl assumed_base
f 23//1 1//1 2//1
f 2//2 3//2 4//2
f 23//3 2//3 4//3
f 23//4 4//4 5//4
f 23//5 5//5 6//5
f 23//6 6//6 7//6
f 23//7 7//7 8//7
f 23//8 8//8 9//8
f 11//9 12//9 13//9
f 11//10 13//10 14//10
f 11//11 14//11 15//11
f 10//12 11//12 15//12
f 15//13 16//13 17//13
f 10//14 15//14 17//14
f 10//15 17//15 18//15
f 9//16 10//16 18//16
f 18//17 19//17 20//17
f 9//18 18//18 20//18
f 9//19 20//19 21//19
f 23//20 9//20 21//20
f 21//21 22//21 23//21
usemtl assumed_roof
f 46//22 25//22 24//22
f 25//23 27//23 26//23
f 46//24 27//24 25//24
f 46//25 28//25 27//25
f 46//26 29//26 28//26
f 46//27 30//27 29//27
f 46//28 31//28 30//28
f 46//29 32//29 31//29
f 34//30 36//30 35//30
f 34//31 37//31 36//31
f 34//32 38//32 37//32
f 33//33 38//33 34//33
f 38//34 40//34 39//34
f 33//35 40//35 38//35
f 33//36 41//36 40//36
f 32//37 41//37 33//37
f 41//38 43//38 42//38
f 32//39 43//39 41//39
f 32//40 44//40 43//40
f 46//41 44//41 32//41
f 44//42 46//42 45//42
usemtl assumed_wall
f 1//43 25//43 2//43
f 1//44 24//44 25//44
f 2//45 26//45 3//45
f 2//46 25//46 26//46
f 3//47 27//47 4//47
f 3//48 26//48 27//48
f 4//49 28//49 5//49
f 4//50 27//50 28//50
f 5//51 29//51 6//51
f 5//52 28//52 29//52
f 6//53 30//53 7//53
f 6//54 29//54 30//54
f 7//55 31//55 8//55
f 7//56 30//56 31//56
f 8//57 32//57 9//57
f 8//58 31//58 32//58
f 9//59 33//59 10//59
f 9//60 32//60 33//60
f 10//61 34//61 11//61
f 10//62 33//62 34//62
f 11//63 35//63 12//63
f 11//64 34//64 35//64
f 12//65 36//65 13//65
f 12//66 35//66 36//66
f 13//67 37//67 14//67
f 13//68 36//68 37//68
f 14//69 38//69 15//69
f 14//70 37//70 38//70
f 15//71 39//71 16//71
f 15//72 38//72 39//72
f 16//73 40//73 17//73
f 16//74 39//74 40//74
f 17//75 41//75 18//75
f 17//76 40//76 41//76
f 18//77 42//77 19//77
f 18//78 41//78 42//78
f 19//79 43//79 20//79
f 19//80 42//80 43//80
f 20//81 44//81 21//81
f 20//82 43//82 44//82
f 21//83 45//83 22//83
f 21//84 44//84 45//84
f 22//85 46//85 23//85
f 22//86 45//86 46//86
f 23//87 24//87 1//87
f 23//88 46//88 24//88
