# construction_4605_assumed_A_Casa
# source A_Casa
# h_campo 0.000000
# modeled_height 6.000000
# height_kind assumed
# local_origin_world_x 172001.034850
# local_origin_world_y 402500.144600
mtllib construction_artifacts.mtl

o construction_4605_assumed_A_Casa
v -19.820500 18.088500 0.000000
v -9.591500 21.306500 0.000000
v -8.601500 18.405500 0.000000
v -1.454500 20.562500 0.000000
v 4.918500 3.107500 0.000000
v 11.571500 5.541500 0.000000
v 19.820500 -17.096500 0.000000
v 16.775500 -19.449500 0.000000
v 16.556500 -18.327500 0.000000
v 8.347500 -21.306500 0.000000
v 6.961500 -17.888500 0.000000
v 4.330500 -19.213500 0.000000
v -0.323500 -8.487500 0.000000
v 0.910500 -8.113500 0.000000
v -3.947500 3.663500 0.000000
v -11.586500 1.516500 0.000000
v -13.679500 7.527500 0.000000
v -15.741500 7.246500 0.000000
v -19.820500 18.088500 6.000000
v -9.591500 21.306500 6.000000
v -8.601500 18.405500 6.000000
v -1.454500 20.562500 6.000000
v 4.918500 3.107500 6.000000
v 11.571500 5.541500 6.000000
v 19.820500 -17.096500 6.000000
v 16.775500 -19.449500 6.000000
v 16.556500 -18.327500 6.000000
v 8.347500 -21.306500 6.000000
v 6.961500 -17.888500 6.000000
v 4.330500 -19.213500 6.000000
v -0.323500 -8.487500 6.000000
v 0.910500 -8.113500 6.000000
v -3.947500 3.663500 6.000000
v -11.586500 1.516500 6.000000
v -13.679500 7.527500 6.000000
v -15.741500 7.246500 6.000000
vn 0.000000 0.000000 -1.000000
vn 0.000000 0.000000 -1.000000
vn 0.000000 0.000000 -1.000000
vn 0.000000 0.000000 -1.000000
vn 0.000000 0.000000 -1.000000
vn 0.000000 0.000000 -1.000000
vn 0.000000 0.000000 -1.000000
vn 0.000000 0.000000 -1.000000
vn 0.000000 0.000000 -1.000000
vn 0.000000 0.000000 -1.000000
vn 0.000000 0.000000 -1.000000
vn 0.000000 0.000000 -1.000000
vn 0.000000 -0.000000 -1.000000
vn 0.000000 0.000000 -1.000000
vn 0.000000 0.000000 -1.000000
vn 0.000000 0.000000 -1.000000
vn 0.000000 -0.000000 1.000000
vn 0.000000 0.000000 1.000000
vn 0.000000 0.000000 1.000000
vn -0.000000 0.000000 1.000000
vn 0.000000 0.000000 1.000000
vn 0.000000 0.000000 1.000000
vn 0.000000 0.000000 1.000000
vn 0.000000 0.000000 1.000000
vn 0.000000 0.000000 1.000000
vn 0.000000 0.000000 1.000000
vn 0.000000 0.000000 1.000000
vn 0.000000 0.000000 1.000000
vn 0.000000 0.000000 1.000000
vn 0.000000 0.000000 1.000000
vn 0.000000 0.000000 1.000000
vn 0.000000 0.000000 1.000000
vn -0.300096 0.953909 0.000000
vn -0.300096 0.953909 0.000000
vn 0.946408 0.322973 0.000000
vn 0.946408 0.322973 -0.000000
vn -0.288933 0.957349 0.000000
vn -0.288933 0.957349 0.000000
vn 0.939348 0.342966 0.000000
vn 0.939348 0.342966 -0.000000
vn -0.343578 0.939124 0.000000
vn -0.343578 0.939124 0.000000
vn 0.939567 0.342366 0.000000
vn 0.939567 0.342366 -0.000000
vn 0.611455 -0.791279 0.000000
vn 0.611455 -0.791279 0.000000
vn -0.981479 -0.191572 0.000000
vn -0.981479 -0.191572 0.000000
vn 0.341127 -0.940017 0.000000
vn 0.341127 -0.940017 0.000000
vn -0.926709 -0.375781 0.000000
vn -0.926709 -0.375781 0.000000
vn 0.449792 -0.893134 0.000000
vn 0.449792 -0.893134 0.000000
vn -0.917366 -0.398044 0.000000
vn -0.917366 -0.398044 0.000000
vn -0.290050 0.957011 0.000000
vn -0.290050 0.957011 0.000000
vn -0.924439 -0.381330 0.000000
vn -0.924439 -0.381330 0.000000
vn 0.270574 -0.962699 0.000000
vn 0.270574 -0.962699 0.000000
vn -0.944389 -0.328831 0.000000
vn -0.944389 -0.328831 0.000000
vn 0.135027 -0.990842 0.000000
vn 0.135027 -0.990842 0.000000
vn -0.935953 -0.352126 0.000000
vn -0.935953 -0.352126 0.000000
usemtl assumed_base
f 18//1 1//1 2//1
f 18//2 2//2 3//2
f 18//3 3//3 4//3
f 5//4 6//4 7//4
f 7//5 8//5 9//5
f 5//6 7//6 9//6
f 5//7 9//7 10//7
f 4//8 5//8 10//8
f 4//9 10//9 11//9
f 4//10 11//10 12//10
f 12//11 13//11 14//11
f 4//12 12//12 14//12
f 4//13 14//13 15//13
f 4//14 15//14 16//14
f 4//15 16//15 17//15
f 4//16 17//16 18//16
usemtl assumed_roof
f 36//17 20//17 19//17
f 36//18 21//18 20//18
f 36//19 22//19 21//19
f 23//20 25//20 24//20
f 25//21 27//21 26//21
f 23//22 27//22 25//22
f 23//23 28//23 27//23
f 22//24 28//24 23//24
f 22//25 29//25 28//25
f 22//26 30//26 29//26
f 30//27 32//27 31//27
f 22//28 32//28 30//28
f 22//29 33//29 32//29
f 22//30 34//30 33//30
f 22//31 35//31 34//31
f 22//32 36//32 35//32
usemtl assumed_wall
f 1//33 20//33 2//33
f 1//34 19//34 20//34
f 2//35 21//35 3//35
f 2//36 20//36 21//36
f 3//37 22//37 4//37
f 3//38 21//38 22//38
f 4//39 23//39 5//39
f 4//40 22//40 23//40
f 5//41 24//41 6//41
f 5//42 23//42 24//42
f 6//43 25//43 7//43
f 6//44 24//44 25//44
f 7//45 26//45 8//45
f 7//46 25//46 26//46
f 8//47 27//47 9//47
f 8//48 26//48 27//48
f 9//49 28//49 10//49
f 9//50 27//50 28//50
f 10//51 29//51 11//51
f 10//52 28//52 29//52
f 11//53 30//53 12//53
f 11//54 29//54 30//54
f 12//55 31//55 13//55
f 12//56 30//56 31//56
f 13//57 32//57 14//57
f 13//58 31//58 32//58
f 14//59 33//59 15//59
f 14//60 32//60 33//60
f 15//61 34//61 16//61
f 15//62 33//62 34//62
f 16//63 35//63 17//63
f 16//64 34//64 35//64
f 17//65 36//65 18//65
f 17//66 35//66 36//66
f 18//67 19//67 1//67
f 18//68 36//68 19//68
