# construction_3684_assumed_A_Casa
# source A_Casa
# h_campo 0.000000
# modeled_height 6.000000
# height_kind assumed
# local_origin_world_x 172001.034850
# local_origin_world_y 402500.144600
mtllib construction_artifacts.mtl

o construction_3684_assumed_A_Casa
v -24.849500 -11.816000 0.000000
v -21.631500 -0.646000 0.000000
v 1.268500 -1.849000 0.000000
v 1.207500 12.175000 0.000000
v 5.127500 12.139000 0.000000
v 4.793500 1.201000 0.000000
v 12.709500 0.975000 0.000000
v 12.790500 7.539000 0.000000
v 23.327500 7.863000 0.000000
v 23.421500 5.257000 0.000000
v 24.849500 5.252000 0.000000
v 24.800500 1.079000 0.000000
v 23.762500 1.082000 0.000000
v 23.753500 -1.978000 0.000000
v 15.622500 -1.613000 0.000000
v 15.594500 -2.751000 0.000000
v 7.425500 -2.412000 0.000000
v 7.252500 -5.345000 0.000000
v 1.822500 -7.088000 0.000000
v -3.196500 -6.504000 0.000000
v -2.930500 -10.956000 0.000000
v -6.322500 -12.009000 0.000000
v -8.358500 -12.003000 0.000000
v -8.354500 -10.317000 0.000000
v -22.235500 -9.664000 0.000000
v -22.941500 -12.175000 0.000000
v -24.849500 -11.816000 6.000000
v -21.631500 -0.646000 6.000000
v 1.268500 -1.849000 6.000000
v 1.207500 12.175000 6.000000
v 5.127500 12.139000 6.000000
v 4.793500 1.201000 6.000000
v 12.709500 0.975000 6.000000
v 12.790500 7.539000 6.000000
v 23.327500 7.863000 6.000000
v 23.421500 5.257000 6.000000
v 24.849500 5.252000 6.000000
v 24.800500 1.079000 6.000000
v 23.762500 1.082000 6.000000
v 23.753500 -1.978000 6.000000
v 15.622500 -1.613000 6.000000
v 15.594500 -2.751000 6.000000
v 7.425500 -2.412000 6.000000
v 7.252500 -5.345000 6.000000
v 1.822500 -7.088000 6.000000
v -3.196500 -6.504000 6.000000
v -2.930500 -10.956000 6.000000
v -6.322500 -12.009000 6.000000
v -8.358500 -12.003000 6.000000
v -8.354500 -10.317000 6.000000
v -22.235500 -9.664000 6.000000
v -22.941500 -12.175000 6.000000
vn 0.000000 0.000000 -1.000000
vn 0.000000 0.000000 -1.000000
vn 0.000000 0.000000 -1.000000
vn 0.000000 0.000000 -1.000000
vn 0.000000 0.000000 -1.000000
vn 0.000000 0.000000 -1.000000
vn 0.000000 0.000000 -1.000000
vn 0.000000 0.000000 -1.000000
vn 0.000000 0.000000 -1.000000
vn 0.000000 0.000000 -1.000000
vn 0.000000 0.000000 -1.000000
vn 0.000000 0.000000 -1.000000
vn 0.000000 0.000000 -1.000000
vn 0.000000 0.000000 -1.000000
vn 0.000000 0.000000 -1.000000
vn 0.000000 0.000000 -1.000000
vn 0.000000 0.000000 -1.000000
vn 0.000000 0.000000 -1.000000
vn 0.000000 0.000000 -1.000000
vn 0.000000 0.000000 -1.000000
vn -0.000000 0.000000 -1.000000
vn 0.000000 0.000000 -1.000000
vn 0.000000 -0.000000 -1.000000
vn 0.000000 0.000000 -1.000000
vn 0.000000 -0.000000 1.000000
vn 0.000000 -0.000000 1.000000
vn 0.000000 0.000000 1.000000
vn 0.000000 0.000000 1.000000
vn 0.000000 0.000000 1.000000
vn 0.000000 0.000000 1.000000
vn 0.000000 0.000000 1.000000
vn 0.000000 0.000000 1.000000
vn 0.000000 0.000000 1.000000
vn 0.000000 0.000000 1.000000
vn 0.000000 0.000000 1.000000
vn 0.000000 0.000000 1.000000
vn -0.000000 0.000000 1.000000
vn 0.000000 0.000000 1.000000
vn 0.000000 0.000000 1.000000
vn 0.000000 0.000000 1.000000
vn 0.000000 0.000000 1.000000
vn 0.000000 0.000000 1.000000
vn 0.000000 0.000000 1.000000
vn 0.000000 0.000000 1.000000
vn 0.000000 0.000000 1.000000
vn 0.000000 0.000000 1.000000
vn 0.000000 0.000000 1.000000
vn 0.000000 0.000000 1.000000
vn -0.960918 0.276834 0.000000
vn -0.960918 0.276834 0.000000
vn 0.052460 0.998623 0.000000
vn 0.052460 0.998623 -0.000000
vn -0.999991 -0.004350 0.000000
vn -0.999991 -0.004350 0.000000
vn 0.009183 0.999958 0.000000
vn 0.009183 0.999958 -0.000000
vn 0.999534 -0.030522 0.000000
vn 0.999534 -0.030522 0.000000
vn 0.028538 0.999593 0.000000
vn 0.028538 0.999593 -0.000000
vn -0.999924 0.012339 0.000000
vn -0.999924 0.012339 0.000000
vn -0.030734 0.999528 0.000000
vn -0.030734 0.999528 0.000000
vn 0.999350 0.036047 0.000000
vn 0.999350 0.036047 -0.000000
vn 0.003501 0.999994 0.000000
vn 0.003501 0.999994 -0.000000
vn 0.999931 -0.011741 0.000000
vn 0.999931 -0.011741 0.000000
vn -0.002890 -0.999996 0.000000
vn -0.002890 -0.999996 0.000000
vn 0.999996 -0.002941 0.000000
vn 0.999996 -0.002941 0.000000
vn -0.044845 -0.998994 0.000000
vn -0.044845 -0.998994 0.000000
vn 0.999697 -0.024597 0.000000
vn 0.999697 -0.024597 0.000000
vn -0.041463 -0.999140 0.000000
vn -0.041463 -0.999140 0.000000
vn 0.998265 -0.058882 0.000000
vn 0.998265 -0.058882 0.000000
vn 0.305635 -0.952149 0.000000
vn 0.305635 -0.952149 0.000000
vn -0.115578 -0.993298 0.000000
vn -0.115578 -0.993298 0.000000
vn 0.998220 0.059642 0.000000
vn 0.998220 0.059642 -0.000000
vn 0.296479 -0.955039 0.000000
vn 0.296479 -0.955039 0.000000
vn -0.002947 -0.999996 0.000000
vn -0.002947 -0.999996 0.000000
vn -0.999997 0.002372 0.000000
vn -0.999997 0.002372 0.000000
vn -0.046991 -0.998895 0.000000
vn -0.046991 -0.998895 0.000000
vn 0.962673 -0.270668 0.000000
vn 0.962673 -0.270668 0.000000
vn -0.184910 -0.982755 0.000000
vn -0.184910 -0.982755 0.000000
usemtl assumed_base
f 26//1 1//1 2//1
f 3//2 4//2 5//2
f 3//3 5//3 6//3
f 3//4 6//4 7//4
f 7//5 8//5 9//5
f 7//6 9//6 10//6
f 7//7 10//7 11//7
f 11//8 12//8 13//8
f 7//9 11//9 13//9
f 3//10 7//10 13//10
f 13//11 14//11 15//11
f 3//12 13//12 15//12
f 3//13 15//13 16//13
f 2//14 3//14 16//14
f 2//15 16//15 17//15
f 2//16 17//16 18//16
f 2//17 18//17 19//17
f 2//18 19//18 20//18
f 2//19 20//19 21//19
f 21//20 22//20 23//20
f 21//21 23//21 24//21
f 2//22 21//22 24//22
f 2//23 24//23 25//23
f 2//24 25//24 26//24
usemtl assumed_roof
f 52//25 28//25 27//25
f 29//26 31//26 30//26
f 29//27 32//27 31//27
f 29//28 33//28 32//28
f 33//29 35//29 34//29
f 33//30 36//30 35//30
f 33//31 37//31 36//31
f 37//32 39//32 38//32
f 33//33 39//33 37//33
f 29//34 39//34 33//34
f 39//35 41//35 40//35
f 29//36 41//36 39//36
f 29//37 42//37 41//37
f 28//38 42//38 29//38
f 28//39 43//39 42//39
f 28//40 44//40 43//40
f 28//41 45//41 44//41
f 28//42 46//42 45//42
f 28//43 47//43 46//43
f 47//44 49//44 48//44
f 47//45 50//45 49//45
f 28//46 50//46 47//46
f 28//47 51//47 50//47
f 28//48 52//48 51//48
usemtl assumed_wall
f 1//49 28//49 2//49
f 1//50 27//50 28//50
f 2//51 29//51 3//51
f 2//52 28//52 29//52
f 3//53 30//53 4//53
f 3//54 29//54 30//54
f 4//55 31//55 5//55
f 4//56 30//56 31//56
f 5//57 32//57 6//57
f 5//58 31//58 32//58
f 6//59 33//59 7//59
f 6//60 32//60 33//60
f 7//61 34//61 8//61
f 7//62 33//62 34//62
f 8//63 35//63 9//63
f 8//64 34//64 35//64
f 9//65 36//65 10//65
f 9//66 35//66 36//66
f 10//67 37//67 11//67
f 10//68 36//68 37//68
f 11//69 38//69 12//69
f 11//70 37//70 38//70
f 12//71 39//71 13//71
f 12//72 38//72 39//72
f 13//73 40//73 14//73
f 13//74 39//74 40//74
f 14//75 41//75 15//75
f 14//76 40//76 41//76
f 15//77 42//77 16//77
f 15//78 41//78 42//78
f 16//79 43//79 17//79
f 16//80 42//80 43//80
f 17//81 44//81 18//81
f 17//82 43//82 44//82
f 18//83 45//83 19//83
f 18//84 44//84 45//84
f 19//85 46//85 20//85
f 19//86 45//86 46//86
f 20//87 47//87 21//87
f 20//88 46//88 47//88
f 21//89 48//89 22//89
f 21//90 47//90 48//90
f 22//91 49//91 23//91
f 22//92 48//92 49//92
f 23//93 50//93 24//93
f 23//94 49//94 50//94
f 24//95 51//95 25//95
f 24//96 50//96 51//96
f 25//97 52//97 26//97
f 25//98 51//98 52//98
f 26//99 27//99 1//99
f 26//100 52//100 27//100
