# construction_0897_assumed_A_Casa
# source A_Casa
# h_campo 0.000000
# modeled_height 6.000000
# height_kind assumed
# local_origin_world_x 172001.034850
# local_origin_world_y 402500.144600
mtllib construction_artifacts.mtl

o construction_0897_assumed_A_Casa
v 3.900500 0.253500 0.000000
v -15.759500 -2.530500 0.000000
v -15.896500 -6.835500 0.000000
v -20.413500 -6.889500 0.000000
v -20.488500 -3.361500 0.000000
v -35.509500 -5.394500 0.000000
v -35.972500 0.830500 0.000000
v -32.321500 1.310500 0.000000
v -34.207500 16.522500 0.000000
v -4.323500 19.969500 0.000000
v -3.446500 14.723500 0.000000
v -15.479500 13.393500 0.000000
v -15.661500 14.539500 0.000000
v -19.200500 14.003500 0.000000
v -18.980500 11.138500 0.000000
v -26.867500 10.289500 0.000000
v -27.131500 12.952500 0.000000
v -30.198500 12.407500 0.000000
v -29.075500 2.193500 0.000000
v -10.391500 4.537500 0.000000
v -10.835500 7.144500 0.000000
v -4.882500 8.235500 0.000000
v -4.599500 7.303500 0.000000
v 6.310500 8.439500 0.000000
v 6.760500 18.745500 0.000000
v 13.346500 18.355500 0.000000
v 13.363500 10.522500 0.000000
v 22.051500 10.125500 0.000000
v 23.886500 18.793500 0.000000
v 35.972500 16.213500 0.000000
v 33.979500 7.779500 0.000000
v 31.954500 -17.318500 0.000000
v 23.436500 -17.033500 0.000000
v 23.035500 -13.573500 0.000000
v 17.831500 -13.382500 0.000000
v 17.610500 -9.842500 0.000000
v 14.823500 -9.792500 0.000000
v 14.861500 -6.612500 0.000000
v 13.220500 -6.615500 0.000000
v 13.455500 -16.650500 0.000000
v 16.165500 -17.262500 0.000000
v 15.971500 -15.577500 0.000000
v 20.241500 -15.568500 0.000000
v 20.542500 -19.647500 0.000000
v 11.810500 -19.969500 0.000000
v 10.235500 -19.062500 0.000000
v 10.184500 -16.399500 0.000000
v 9.397500 -16.176500 0.000000
v 8.709500 1.118500 0.000000
v 8.079500 0.914500 0.000000
v 7.062500 3.361500 0.000000
v 3.900500 0.253500 6.000000
v -15.759500 -2.530500 6.000000
v -15.896500 -6.835500 6.000000
v -20.413500 -6.889500 6.000000
v -20.488500 -3.361500 6.000000
v -35.509500 -5.394500 6.000000
v -35.972500 0.830500 6.000000
v -32.321500 1.310500 6.000000
v -34.207500 16.522500 6.000000
v -4.323500 19.969500 6.000000
v -3.446500 14.723500 6.000000
v -15.479500 13.393500 6.000000
v -15.661500 14.539500 6.000000
v -19.200500 14.003500 6.000000
v -18.980500 11.138500 6.000000
v -26.867500 10.289500 6.000000
v -27.131500 12.952500 6.000000
v -30.198500 12.407500 6.000000
v -29.075500 2.193500 6.000000
v -10.391500 4.537500 6.000000
v -10.835500 7.144500 6.000000
v -4.882500 8.235500 6.000000
v -4.599500 7.303500 6.000000
v 6.310500 8.439500 6.000000
v 6.760500 18.745500 6.000000
v 13.346500 18.355500 6.000000
v 13.363500 10.522500 6.000000
v 22.051500 10.125500 6.000000
v 23.886500 18.793500 6.000000
v 35.972500 16.213500 6.000000
v 33.979500 7.779500 6.000000
v 31.954500 -17.318500 6.000000
v 23.436500 -17.033500 6.000000
v 23.035500 -13.573500 6.000000
v 17.831500 -13.382500 6.000000
v 17.610500 -9.842500 6.000000
v 14.823500 -9.792500 6.000000
v 14.861500 -6.612500 6.000000
v 13.220500 -6.615500 6.000000
v 13.455500 -16.650500 6.000000
v 16.165500 -17.262500 6.000000
v 15.971500 -15.577500 6.000000
v 20.241500 -15.568500 6.000000
v 20.542500 -19.647500 6.000000
v 11.810500 -19.969500 6.000000
v 10.235500 -19.062500 6.000000
v 10.184500 -16.399500 6.000000
v 9.397500 -16.176500 6.000000
v 8.709500 1.118500 6.000000
v 8.079500 0.914500 6.000000
v 7.062500 3.361500 6.000000
vn 0.000000 0.000000 -1.000000
vn 0.000000 0.000000 -1.000000
vn 0.000000 0.000000 -1.000000
vn 0.000000 0.000000 -1.000000
vn 0.000000 0.000000 -1.000000
vn 0.000000 0.000000 -1.000000
vn 0.000000 0.000000 -1.000000
vn 0.000000 0.000000 -1.000000
vn 0.000000 0.000000 -1.000000
vn 0.000000 0.000000 -1.000000
vn 0.000000 0.000000 -1.000000
vn 0.000000 0.000000 -1.000000
vn -0.000000 0.000000 -1.000000
vn 0.000000 0.000000 -1.000000
vn 0.000000 0.000000 -1.000000
vn 0.000000 0.000000 -1.000000
vn 0.000000 0.000000 -1.000000
vn 0.000000 0.000000 -1.000000
vn -0.000000 0.000000 -1.000000
vn 0.000000 0.000000 -1.000000
vn 0.000000 0.000000 -1.000000
vn 0.000000 0.000000 -1.000000
vn 0.000000 0.000000 -1.000000
vn 0.000000 0.000000 -1.000000
vn 0.000000 0.000000 -1.000000
vn 0.000000 0.000000 -1.000000
vn 0.000000 0.000000 -1.000000
vn 0.000000 0.000000 -1.000000
vn 0.000000 0.000000 -1.000000
vn 0.000000 0.000000 -1.000000
vn 0.000000 0.000000 -1.000000
vn 0.000000 0.000000 -1.000000
vn 0.000000 0.000000 -1.000000
vn 0.000000 0.000000 -1.000000
vn 0.000000 0.000000 -1.000000
vn 0.000000 0.000000 -1.000000
vn 0.000000 0.000000 -1.000000
vn 0.000000 0.000000 -1.000000
vn 0.000000 0.000000 -1.000000
vn 0.000000 0.000000 -1.000000
vn 0.000000 -0.000000 -1.000000
vn 0.000000 -0.000000 -1.000000
vn 0.000000 0.000000 -1.000000
vn 0.000000 0.000000 -1.000000
vn 0.000000 0.000000 -1.000000
vn -0.000000 0.000000 -1.000000
vn -0.000000 0.000000 -1.000000
vn 0.000000 0.000000 -1.000000
vn -0.000000 0.000000 -1.000000
vn 0.000000 0.000000 1.000000
vn 0.000000 0.000000 1.000000
vn 0.000000 0.000000 1.000000
vn 0.000000 0.000000 1.000000
vn 0.000000 0.000000 1.000000
vn 0.000000 0.000000 1.000000
vn 0.000000 0.000000 1.000000
vn -0.000000 0.000000 1.000000
vn 0.000000 0.000000 1.000000
vn 0.000000 0.000000 1.000000
vn 0.000000 0.000000 1.000000
vn 0.000000 0.000000 1.000000
vn 0.000000 0.000000 1.000000
vn 0.000000 0.000000 1.000000
vn 0.000000 0.000000 1.000000
vn 0.000000 -0.000000 1.000000
vn 0.000000 0.000000 1.000000
vn 0.000000 0.000000 1.000000
vn 0.000000 0.000000 1.000000
vn 0.000000 0.000000 1.000000
vn 0.000000 0.000000 1.000000
vn 0.000000 0.000000 1.000000
vn 0.000000 0.000000 1.000000
vn 0.000000 0.000000 1.000000
vn 0.000000 -0.000000 1.000000
vn 0.000000 0.000000 1.000000
vn 0.000000 0.000000 1.000000
vn 0.000000 0.000000 1.000000
vn 0.000000 0.000000 1.000000
vn 0.000000 0.000000 1.000000
vn -0.000000 0.000000 1.000000
vn 0.000000 0.000000 1.000000
vn 0.000000 0.000000 1.000000
vn 0.000000 0.000000 1.000000
vn 0.000000 0.000000 1.000000
vn 0.000000 0.000000 1.000000
vn 0.000000 0.000000 1.000000
vn 0.000000 -0.000000 1.000000
vn -0.000000 0.000000 1.000000
vn 0.000000 0.000000 1.000000
vn 0.000000 0.000000 1.000000
vn 0.000000 0.000000 1.000000
vn 0.000000 0.000000 1.000000
vn 0.000000 0.000000 1.000000
vn 0.000000 0.000000 1.000000
vn 0.000000 0.000000 1.000000
vn 0.000000 0.000000 1.000000
vn 0.000000 0.000000 1.000000
vn 0.000000 0.000000 1.000000
vn 0.140209 -0.990122 0.000000
vn 0.140209 -0.990122 0.000000
vn 0.999494 -0.031807 0.000000
vn 0.999494 -0.031807 0.000000
vn 0.011954 -0.999929 0.000000
vn 0.011954 -0.999929 0.000000
vn -0.999774 -0.021254 0.000000
vn -0.999774 -0.021254 0.000000
vn 0.134121 -0.990965 0.000000
vn 0.134121 -0.990965 0.000000
vn -0.997245 -0.074173 0.000000
vn -0.997245 -0.074173 0.000000
vn -0.130349 0.991468 0.000000
vn -0.130349 0.991468 0.000000
vn -0.992402 -0.123039 0.000000
vn -0.992402 -0.123039 0.000000
vn -0.114586 0.993413 0.000000
vn -0.114586 0.993413 0.000000
vn 0.986313 0.164887 0.000000
vn 0.986313 0.164887 -0.000000
vn 0.109860 -0.993947 0.000000
vn 0.109860 -0.993947 0.000000
vn -0.987623 -0.156848 0.000000
vn -0.987623 -0.156848 0.000000
vn 0.149747 -0.988724 0.000000
vn 0.149747 -0.988724 0.000000
vn 0.997065 0.076563 0.000000
vn 0.997065 0.076563 -0.000000
vn 0.107027 -0.994256 0.000000
vn 0.107027 -0.994256 0.000000
vn -0.995122 -0.098653 0.000000
vn -0.995122 -0.098653 0.000000
vn 0.174957 -0.984576 0.000000
vn 0.174957 -0.984576 0.000000
vn 0.994010 0.109289 0.000000
vn 0.994010 0.109289 -0.000000
vn -0.124479 0.992222 0.000000
vn -0.124479 0.992222 0.000000
vn -0.985805 -0.167893 0.000000
vn -0.985805 -0.167893 0.000000
vn -0.180267 0.983618 0.000000
vn -0.180267 0.983618 0.000000
vn 0.956860 0.290549 0.000000
vn 0.956860 0.290549 -0.000000
vn -0.103565 0.994623 0.000000
vn -0.103565 0.994623 0.000000
vn -0.999048 0.043622 0.000000
vn -0.999048 0.043622 0.000000
vn 0.059113 0.998251 0.000000
vn 0.059113 0.998251 -0.000000
vn 0.999998 0.002170 0.000000
vn 0.999998 0.002170 -0.000000
vn 0.045648 0.998958 0.000000
vn 0.045648 0.998958 -0.000000
vn -0.978318 0.207108 0.000000
vn -0.978318 0.207108 0.000000
vn 0.208766 0.977966 0.000000
vn 0.208766 0.977966 -0.000000
vn 0.973197 -0.229972 0.000000
vn 0.973197 -0.229972 0.000000
vn 0.996761 -0.080422 0.000000
vn 0.996761 -0.080422 0.000000
vn -0.033440 -0.999441 0.000000
vn -0.033440 -0.999441 0.000000
vn -0.993351 -0.115125 0.000000
vn -0.993351 -0.115125 0.000000
vn -0.036678 -0.999327 0.000000
vn -0.036678 -0.999327 0.000000
vn -0.998057 -0.062308 0.000000
vn -0.998057 -0.062308 0.000000
vn -0.017938 -0.999839 0.000000
vn -0.017938 -0.999839 0.000000
vn -0.999929 0.011949 0.000000
vn -0.999929 0.011949 0.000000
vn 0.001828 -0.999998 0.000000
vn 0.001828 -0.999998 0.000000
vn 0.999726 0.023412 0.000000
vn 0.999726 0.023412 -0.000000
vn 0.220283 0.975436 0.000000
vn 0.220283 0.975436 -0.000000
vn -0.993437 -0.114378 0.000000
vn -0.993437 -0.114378 0.000000
vn -0.002108 0.999998 0.000000
vn -0.002108 0.999998 0.000000
vn 0.997288 0.073592 0.000000
vn 0.997288 0.073592 -0.000000
vn 0.036851 -0.999321 0.000000
vn 0.036851 -0.999321 0.000000
vn -0.499040 -0.866579 0.000000
vn -0.499040 -0.866579 0.000000
vn -0.999817 -0.019148 0.000000
vn -0.999817 -0.019148 0.000000
vn -0.272621 -0.962121 0.000000
vn -0.272621 -0.962121 0.000000
vn -0.999210 -0.039749 0.000000
vn -0.999210 -0.039749 0.000000
vn 0.308062 -0.951366 0.000000
vn 0.308062 -0.951366 0.000000
vn -0.923423 -0.383785 0.000000
vn -0.923423 -0.383785 0.000000
vn 0.700991 -0.713170 0.000000
vn 0.700991 -0.713170 0.000000
usemtl assumed_base
f 51//1 1//1 2//1
f 2//2 3//2 4//2
f 2//3 4//3 5//3
f 51//4 2//4 5//4
f 51//5 5//5 6//5
f 51//6 6//6 7//6
f 51//7 7//7 8//7
f 9//8 10//8 11//8
f 11//9 12//9 13//9
f 9//10 11//10 13//10
f 9//11 13//11 14//11
f 9//12 14//12 15//12
f 15//13 16//13 17//13
f 9//14 15//14 17//14
f 9//15 17//15 18//15
f 8//16 9//16 18//16
f 8//17 18//17 19//17
f 51//18 8//18 19//18
f 51//19 19//19 20//19
f 51//20 20//20 21//20
f 21//21 22//21 23//21
f 51//22 21//22 23//22
f 51//23 23//23 24//23
f 51//24 24//24 25//24
f 51//25 25//25 26//25
f 51//26 26//26 27//26
f 51//27 27//27 28//27
f 28//28 29//28 30//28
f 51//29 28//29 30//29
f 51//30 30//30 31//30
f 51//31 31//31 32//31
f 32//32 33//32 34//32
f 51//33 32//33 34//33
f 34//34 35//34 36//34
f 51//35 34//35 36//35
f 36//36 37//36 38//36
f 51//37 36//37 38//37
f 41//38 42//38 43//38
f 41//39 43//39 44//39
f 40//40 41//40 44//40
f 40//41 44//41 45//41
f 39//42 40//42 45//42
f 39//43 45//43 46//43
f 39//44 46//44 47//44
f 39//45 47//45 48//45
f 39//46 48//46 49//46
f 38//47 39//47 49//47
f 51//48 38//48 49//48
f 49//49 50//49 51//49
usemtl assumed_roof
f 102//50 53//50 52//50
f 53//51 55//51 54//51
f 53//52 56//52 55//52
f 102//53 56//53 53//53
f 102//54 57//54 56//54
f 102//55 58//55 57//55
f 102//56 59//56 58//56
f 60//57 62//57 61//57
f 62//58 64//58 63//58
f 60//59 64//59 62//59
f 60//60 65//60 64//60
f 60//61 66//61 65//61
f 66//62 68//62 67//62
f 60//63 68//63 66//63
f 60//64 69//64 68//64
f 59//65 69//65 60//65
f 59//66 70//66 69//66
f 102//67 70//67 59//67
f 102//68 71//68 70//68
f 102//69 72//69 71//69
f 72//70 74//70 73//70
f 102//71 74//71 72//71
f 102//72 75//72 74//72
f 102//73 76//73 75//73
f 102//74 77//74 76//74
f 102//75 78//75 77//75
f 102//76 79//76 78//76
f 79//77 81//77 80//77
f 102//78 81//78 79//78
f 102//79 82//79 81//79
f 102//80 83//80 82//80
f 83//81 85//81 84//81
f 102//82 85//82 83//82
f 85//83 87//83 86//83
f 102//84 87//84 85//84
f 87//85 89//85 88//85
f 102//86 89//86 87//86
f 92//87 94//87 93//87
f 92//88 95//88 94//88
f 91//89 95//89 92//89
f 91//90 96//90 95//90
f 90//91 96//91 91//91
f 90//92 97//92 96//92
f 90//93 98//93 97//93
f 90//94 99//94 98//94
f 90//95 100//95 99//95
f 89//96 100//96 90//96
f 102//97 100//97 89//97
f 100//98 102//98 101//98
usemtl assumed_wall
f 1//99 53//99 2//99
f 1//100 52//100 53//100
f 2//101 54//101 3//101
f 2//102 53//102 54//102
f 3//103 55//103 4//103
f 3//104 54//104 55//104
f 4//105 56//105 5//105
f 4//106 55//106 56//106
f 5//107 57//107 6//107
f 5//108 56//108 57//108
f 6//109 58//109 7//109
f 6//110 57//110 58//110
f 7//111 59//111 8//111
f 7//112 58//112 59//112
f 8//113 60//113 9//113
f 8//114 59//114 60//114
f 9//115 61//115 10//115
f 9//116 60//116 61//116
f 10//117 62//117 11//117
f 10//118 61//118 62//118
f 11//119 63//119 12//119
f 11//120 62//120 63//120
f 12//121 64//121 13//121
f 12//122 63//122 64//122
f 13//123 65//123 14//123
f 13//124 64//124 65//124
f 14//125 66//125 15//125
f 14//126 65//126 66//126
f 15//127 67//127 16//127
f 15//128 66//128 67//128
f 16//129 68//129 17//129
f 16//130 67//130 68//130
f 17//131 69//131 18//131
f 17//132 68//132 69//132
f 18//133 70//133 19//133
f 18//134 69//134 70//134
f 19//135 71//135 20//135
f 19//136 70//136 71//136
f 20//137 72//137 21//137
f 20//138 71//138 72//138
f 21//139 73//139 22//139
f 21//140 72//140 73//140
f 22//141 74//141 23//141
f 22//142 73//142 74//142
f 23//143 75//143 24//143
f 23//144 74//144 75//144
f 24//145 76//145 25//145
f 24//146 75//146 76//146
f 25//147 77//147 26//147
f 25//148 76//148 77//148
f 26//149 78//149 27//149
f 26//150 77//150 78//150
f 27//151 79//151 28//151
f 27//152 78//152 79//152
f 28//153 80//153 29//153
f 28//154 79//154 80//154
f 29//155 81//155 30//155
f 29//156 80//156 81//156
f 30//157 82//157 31//157
f 30//158 81//158 82//158
f 31//159 83//159 32//159
f 31//160 82//160 83//160
f 32//161 84//161 33//161
f 32//162 83//162 84//162
f 33//163 85//163 34//163
f 33//164 84//164 85//164
f 34//165 86//165 35//165
f 34//166 85//166 86//166
f 35//167 87//167 36//167
f 35//168 86//168 87//168
f 36//169 88//169 37//169
f 36//170 87//170 88//170
f 37//171 89//171 38//171
f 37//172 88//172 89//172
f 38//173 90//173 39//173
f 38//174 89//174 90//174
f 39//175 91//175 40//175
f 39//176 90//176 91//176
f 40//177 92//177 41//177
f 40//178 91//178 92//178
f 41//179 93//179 42//179
f 41//180 92//180 93//180
f 42//181 94//181 43//181
f 42//182 93//182 94//182
f 43//183 95//183 44//183
f 43//184 94//184 95//184
f 44//185 96//185 45//185
f 44//186 95//186 96//186
f 45//187 97//187 46//187
f 45//188 96//188 97//188
f 46//189 98//189 47//189
f 46//190 97//190 98//190
f 47//191 99//191 48//191
f 47//192 98//192 99//192
f 48//193 100//193 49//193
f 48//194 99//194 100//194
f 49//195 101//195 50//195
f 49//196 100//196 101//196
f 50//197 102//197 51//197
f 50//198 101//198 102//198
f 51//199 52//199 1//199
f 51//200 102//200 52//200
