# construction_4463_assumed_A_Casa
# source A_Casa
# h_campo 0.000000
# modeled_height 6.000000
# height_kind assumed
# local_origin_world_x 172001.034850
# local_origin_world_y 402500.144600
mtllib construction_artifacts.mtl

o construction_4463_assumed_A_Casa
v -3.661500 -2.393500 0.000000
v 0.068500 4.305500 0.000000
v 3.661500 2.355500 0.000000
v -0.256500 -4.305500 0.000000
v -3.661500 -2.393500 6.000000
v 0.068500 4.305500 6.000000
v 3.661500 2.355500 6.000000
v -0.256500 -4.305500 6.000000
vn 0.000000 0.000000 -1.000000
vn 0.000000 -0.000000 -1.000000
vn 0.000000 -0.000000 1.000000
vn 0.000000 0.000000 1.000000
vn -0.873695 0.486473 0.000000
vn -0.873695 0.486473 0.000000
vn 0.477000 0.878903 0.000000
vn 0.477000 0.878903 -0.000000
vn 0.861948 -0.506998 0.000000
vn 0.861948 -0.506998 0.000000
vn -0.489617 -0.871938 0.000000
vn -0.489617 -0.871938 0.000000
usemtl assumed_base
f 4//1 1//1 2//1
f 2//2 3//2 4//2
usemtl assumed_roof
f 8//3 6//3 5//3
f 6//4 8//4 7//4
usemtl assumed_wall
f 1//5 6//5 2//5
f 1//6 5//6 6//6
f 2//7 7//7 3//7
f 2//8 6//8 7//8
f 3//9 8//9 4//9
f 3//10 7//10 8//10
f 4//11 5//11 1//11
f 4//12 8//12 5//12
