# construction_1661_assumed_A_Casa
# source A_Casa
# h_campo 0.000000
# modeled_height 6.000000
# height_kind assumed
# local_origin_world_x 172001.034850
# local_origin_world_y 402500.144600
mtllib construction_artifacts.mtl

o construction_1661_assumed_A_Casa
v -12.782500 4.642000 0.000000
v -11.908500 8.393000 0.000000
v -0.749500 6.505000 0.000000
v 0.020500 11.165000 0.000000
v 4.344500 10.622000 0.000000
v 3.057500 0.568000 0.000000
v 12.782500 -3.313000 0.000000
v 9.569500 -11.165000 0.000000
v 5.866500 -9.507000 0.000000
v 6.552500 -7.669000 0.000000
v 1.922500 -6.082000 0.000000
v 2.418500 -2.702000 0.000000
v -1.508500 -1.972000 0.000000
v -0.929500 1.551000 0.000000
v -7.015500 2.990000 0.000000
v -12.782500 4.642000 6.000000
v -11.908500 8.393000 6.000000
v -0.749500 6.505000 6.000000
v 0.020500 11.165000 6.000000
v 4.344500 10.622000 6.000000
v 3.057500 0.568000 6.000000
v 12.782500 -3.313000 6.000000
v 9.569500 -11.165000 6.000000
v 5.866500 -9.507000 6.000000
v 6.552500 -7.669000 6.000000
v 1.922500 -6.082000 6.000000
v 2.418500 -2.702000 6.000000
v -1.508500 -1.972000 6.000000
v -0.929500 1.551000 6.000000
v -7.015500 2.990000 6.000000
vn 0.000000 0.000000 -1.000000
vn 0.000000 0.000000 -1.000000
vn 0.000000 0.000000 -1.000000
vn 0.000000 0.000000 -1.000000
vn 0.000000 0.000000 -1.000000
vn 0.000000 0.000000 -1.000000
vn 0.000000 0.000000 -1.000000
vn 0.000000 0.000000 -1.000000
vn 0.000000 0.000000 -1.000000
vn 0.000000 0.000000 -1.000000
vn 0.000000 0.000000 -1.000000
vn 0.000000 -0.000000 -1.000000
vn 0.000000 0.000000 -1.000000
vn 0.000000 0.000000 1.000000
vn 0.000000 -0.000000 1.000000
vn 0.000000 0.000000 1.000000
vn -0.000000 0.000000 1.000000
vn 0.000000 0.000000 1.000000
vn 0.000000 0.000000 1.000000
vn 0.000000 0.000000 1.000000
vn 0.000000 0.000000 1.000000
vn 0.000000 0.000000 1.000000
vn 0.000000 0.000000 1.000000
vn 0.000000 0.000000 1.000000
vn 0.000000 0.000000 1.000000
vn 0.000000 0.000000 1.000000
vn -0.973912 0.226926 0.000000
vn -0.973912 0.226926 0.000000
vn 0.166820 0.985987 0.000000
vn 0.166820 0.985987 -0.000000
vn -0.986622 0.163025 0.000000
vn -0.986622 0.163025 0.000000
vn 0.124600 0.992207 0.000000
vn 0.124600 0.992207 -0.000000
vn 0.991906 -0.126973 0.000000
vn 0.991906 -0.126973 0.000000
vn 0.370650 0.928773 0.000000
vn 0.370650 0.928773 -0.000000
vn 0.925513 -0.378715 0.000000
vn 0.925513 -0.378715 0.000000
vn -0.408652 -0.912690 0.000000
vn -0.408652 -0.912690 0.000000
vn -0.936873 0.349671 0.000000
vn -0.936873 0.349671 0.000000
vn -0.324246 -0.945973 0.000000
vn -0.324246 -0.945973 0.000000
vn -0.989404 0.145191 0.000000
vn -0.989404 0.145191 0.000000
vn -0.182762 -0.983157 0.000000
vn -0.182762 -0.983157 0.000000
vn -0.986762 0.162173 0.000000
vn -0.986762 0.162173 0.000000
vn -0.230100 -0.973167 0.000000
vn -0.230100 -0.973167 0.000000
vn -0.275382 -0.961335 0.000000
vn -0.275382 -0.961335 0.000000
usemtl assumed_base
f 15//1 1//1 2//1
f 15//2 2//2 3//2
f 3//3 4//3 5//3
f 3//4 5//4 6//4
f 6//5 7//5 8//5
f 3//6 6//6 8//6
f 8//7 9//7 10//7
f 3//8 8//8 10//8
f 10//9 11//9 12//9
f 3//10 10//10 12//10
f 12//11 13//11 14//11
f 3//12 12//12 14//12
f 3//13 14//13 15//13
usemtl assumed_roof
f 30//14 17//14 16//14
f 30//15 18//15 17//15
f 18//16 20//16 19//16
f 18//17 21//17 20//17
f 21//18 23//18 22//18
f 18//19 23//19 21//19
f 23//20 25//20 24//20
f 18//21 25//21 23//21
f 25//22 27//22 26//22
f 18//23 27//23 25//23
f 27//24 29//24 28//24
f 18//25 29//25 27//25
f 18//26 30//26 29//26
usemtl assumed_wall
f 1//27 17//27 2//27
f 1//28 16//28 17//28
f 2//29 18//29 3//29
f 2//30 17//30 18//30
f 3//31 19//31 4//31
f 3//32 18//32 19//32
f 4//33 20//33 5//33
f 4//34 19//34 20//34
f 5//35 21//35 6//35
f 5//36 20//36 21//36
f 6//37 22//37 7//37
f 6//38 21//38 22//38
f 7//39 23//39 8//39
f 7//40 22//40 23//40
f 8//41 24//41 9//41
f 8//42 23//42 24//42
f 9//43 25//43 10//43
f 9//44 24//44 25//44
f 10//45 26//45 11//45
f 10//46 25//46 26//46
f 11//47 27//47 12//47
f 11//48 26//48 27//48
f 12//49 28//49 13//49
f 12//50 27//50 28//50
f 13//51 29//51 14//51
f 13//52 28//52 29//52
f 14//53 30//53 15//53
f 14//54 29//54 30//54
f 15//55 16//55 1//55
f 15//56 30//56 16//56
