# construction_0414_assumed_A_Casa
# source A_Casa
# h_campo 0.000000
# modeled_height 6.000000
# height_kind assumed
# local_origin_world_x 172001.034850
# local_origin_world_y 402500.144600
mtllib construction_artifacts.mtl

o construction_0414_assumed_A_Casa
v -0.356500 11.618000 0.000000
v 12.328500 1.816000 0.000000
v 1.759500 -11.618000 0.000000
v -10.803500 -0.918000 0.000000
v -12.328500 0.630000 0.000000
v -7.577500 6.422000 0.000000
v -5.738500 5.432000 0.000000
v -0.356500 11.618000 6.000000
v 12.328500 1.816000 6.000000
v 1.759500 -11.618000 6.000000
v -10.803500 -0.918000 6.000000
v -12.328500 0.630000 6.000000
v -7.577500 6.422000 6.000000
v -5.738500 5.432000 6.000000
vn 0.000000 0.000000 -1.000000
vn 0.000000 0.000000 -1.000000
vn 0.000000 -0.000000 -1.000000
vn 0.000000 0.000000 -1.000000
vn 0.000000 0.000000 -1.000000
vn -0.000000 0.000000 1.000000
vn 0.000000 0.000000 1.000000
vn 0.000000 0.000000 1.000000
vn 0.000000 0.000000 1.000000
vn 0.000000 0.000000 1.000000
vn 0.611446 0.791286 0.000000
vn 0.611446 0.791286 -0.000000
vn 0.785928 -0.618318 0.000000
vn 0.785928 -0.618318 0.000000
vn -0.648403 -0.761298 0.000000
vn -0.648403 -0.761298 0.000000
vn -0.712379 -0.701795 0.000000
vn -0.712379 -0.701795 0.000000
vn -0.773166 0.634204 0.000000
vn -0.773166 0.634204 0.000000
vn 0.474014 0.880517 0.000000
vn 0.474014 0.880517 -0.000000
vn -0.754432 0.656378 0.000000
vn -0.754432 0.656378 0.000000
usemtl assumed_base
f 7//1 1//1 2//1
f 7//2 2//2 3//2
f 7//3 3//3 4//3
f 7//4 4//4 5//4
f 5//5 6//5 7//5
usemtl assumed_roof
f 14//6 9//6 8//6
f 14//7 10//7 9//7
f 14//8 11//8 10//8
f 14//9 12//9 11//9
f 12//10 14//10 13//10
usemtl assumed_wall
f 1//11 9//11 2//11
f 1//12 8//12 9//12
f 2//13 10//13 3//13
f 2//14 9//14 10//14
f 3//15 11//15 4//15
f 3//16 10//16 11//16
f 4//17 12//17 5//17
f 4//18 11//18 12//18
f 5//19 13//19 6//19
f 5//20 12//20 13//20
f 6//21 14//21 7//21
f 6//22 13//22 14//22
f 7//23 8//23 1//23
f 7//24 14//24 8//24
