# construction_1230_assumed_A_Casa
# source A_Casa
# h_campo 0.000000
# modeled_height 6.000000
# height_kind assumed
# local_origin_world_x 172001.034850
# local_origin_world_y 402500.144600
mtllib construction_artifacts.mtl

o construction_1230_assumed_A_Casa
v -19.726500 11.247000 0.000000
v 4.137500 15.491000 0.000000
v 5.199500 11.321000 0.000000
v 6.842500 11.473000 0.000000
v 13.558500 13.952000 0.000000
v 19.726500 -2.365000 0.000000
v 9.555500 -5.590000 0.000000
v 8.368500 -2.179000 0.000000
v 11.084500 -1.119000 0.000000
v 9.218500 4.334000 0.000000
v 3.191500 4.321000 0.000000
v 8.682500 -10.944000 0.000000
v 4.660500 -12.090000 0.000000
v 5.234500 -14.723000 0.000000
v 0.853500 -15.491000 0.000000
v -1.095500 -10.480000 0.000000
v 3.305500 -9.080000 0.000000
v 2.287500 -6.132000 0.000000
v -3.923500 -8.527000 0.000000
v -7.506500 1.960000 0.000000
v -17.641500 2.022000 0.000000
v -19.726500 11.247000 6.000000
v 4.137500 15.491000 6.000000
v 5.199500 11.321000 6.000000
v 6.842500 11.473000 6.000000
v 13.558500 13.952000 6.000000
v 19.726500 -2.365000 6.000000
v 9.555500 -5.590000 6.000000
v 8.368500 -2.179000 6.000000
v 11.084500 -1.119000 6.000000
v 9.218500 4.334000 6.000000
v 3.191500 4.321000 6.000000
v 8.682500 -10.944000 6.000000
v 4.660500 -12.090000 6.000000
v 5.234500 -14.723000 6.000000
v 0.853500 -15.491000 6.000000
v -1.095500 -10.480000 6.000000
v 3.305500 -9.080000 6.000000
v 2.287500 -6.132000 6.000000
v -3.923500 -8.527000 6.000000
v -7.506500 1.960000 6.000000
v -17.641500 2.022000 6.000000
vn 0.000000 0.000000 -1.000000
vn 0.000000 0.000000 -1.000000
vn 0.000000 0.000000 -1.000000
vn 0.000000 0.000000 -1.000000
vn -0.000000 0.000000 -1.000000
vn 0.000000 0.000000 -1.000000
vn 0.000000 -0.000000 -1.000000
vn 0.000000 0.000000 -1.000000
vn 0.000000 0.000000 -1.000000
vn 0.000000 0.000000 -1.000000
vn 0.000000 0.000000 -1.000000
vn 0.000000 -0.000000 -1.000000
vn -0.000000 0.000000 -1.000000
vn 0.000000 0.000000 -1.000000
vn 0.000000 0.000000 -1.000000
vn 0.000000 -0.000000 -1.000000
vn 0.000000 0.000000 -1.000000
vn 0.000000 0.000000 -1.000000
vn 0.000000 0.000000 -1.000000
vn 0.000000 -0.000000 1.000000
vn 0.000000 0.000000 1.000000
vn 0.000000 0.000000 1.000000
vn 0.000000 0.000000 1.000000
vn 0.000000 0.000000 1.000000
vn 0.000000 0.000000 1.000000
vn 0.000000 0.000000 1.000000
vn 0.000000 0.000000 1.000000
vn 0.000000 0.000000 1.000000
vn 0.000000 0.000000 1.000000
vn 0.000000 0.000000 1.000000
vn 0.000000 0.000000 1.000000
vn 0.000000 0.000000 1.000000
vn 0.000000 0.000000 1.000000
vn 0.000000 0.000000 1.000000
vn 0.000000 0.000000 1.000000
vn 0.000000 0.000000 1.000000
vn 0.000000 0.000000 1.000000
vn 0.000000 0.000000 1.000000
vn -0.175094 0.984552 0.000000
vn -0.175094 0.984552 0.000000
vn 0.969067 0.246798 0.000000
vn 0.969067 0.246798 -0.000000
vn -0.092120 0.995748 0.000000
vn -0.092120 0.995748 0.000000
vn -0.346281 0.938131 0.000000
vn -0.346281 0.938131 0.000000
vn 0.935400 0.353591 0.000000
vn 0.935400 0.353591 -0.000000
vn 0.302248 -0.953229 0.000000
vn 0.302248 -0.953229 0.000000
vn -0.944448 -0.328660 0.000000
vn -0.944448 -0.328660 0.000000
vn -0.363572 0.931566 0.000000
vn -0.363572 0.931566 0.000000
vn -0.946137 -0.323765 0.000000
vn -0.946137 -0.323765 0.000000
vn 0.002157 -0.999998 0.000000
vn 0.002157 -0.999998 0.000000
vn 0.940974 0.338479 0.000000
vn 0.940974 0.338479 -0.000000
vn 0.274026 -0.961722 0.000000
vn 0.274026 -0.961722 0.000000
vn 0.977052 0.213000 0.000000
vn 0.977052 0.213000 -0.000000
vn 0.172669 -0.984980 0.000000
vn 0.172669 -0.984980 0.000000
vn -0.931987 -0.362491 0.000000
vn -0.931987 -0.362491 0.000000
vn -0.303141 0.952946 0.000000
vn -0.303141 0.952946 0.000000
vn -0.945230 -0.326406 0.000000
vn -0.945230 -0.326406 0.000000
vn 0.359784 -0.933036 0.000000
vn 0.359784 -0.933036 0.000000
vn -0.946293 -0.323311 0.000000
vn -0.946293 -0.323311 0.000000
vn -0.006117 -0.999981 0.000000
vn -0.006117 -0.999981 0.000000
vn -0.975397 -0.220456 0.000000
vn -0.975397 -0.220456 0.000000
usemtl assumed_base
f 21//1 1//1 2//1
f 21//2 2//2 3//2
f 21//3 3//3 4//3
f 21//4 4//4 5//4
f 6//5 7//5 8//5
f 6//6 8//6 9//6
f 5//7 6//7 9//7
f 5//8 9//8 10//8
f 5//9 10//9 11//9
f 21//10 5//10 11//10
f 11//11 12//11 13//11
f 13//12 14//12 15//12
f 13//13 15//13 16//13
f 13//14 16//14 17//14
f 11//15 13//15 17//15
f 11//16 17//16 18//16
f 11//17 18//17 19//17
f 11//18 19//18 20//18
f 11//19 20//19 21//19
usemtl assumed_roof
f 42//20 23//20 22//20
f 42//21 24//21 23//21
f 42//22 25//22 24//22
f 42//23 26//23 25//23
f 27//24 29//24 28//24
f 27//25 30//25 29//25
f 26//26 30//26 27//26
f 26//27 31//27 30//27
f 26//28 32//28 31//28
f 42//29 32//29 26//29
f 32//30 34//30 33//30
f 34//31 36//31 35//31
f 34//32 37//32 36//32
f 34//33 38//33 37//33
f 32//34 38//34 34//34
f 32//35 39//35 38//35
f 32//36 40//36 39//36
f 32//37 41//37 40//37
f 32//38 42//38 41//38
usemtl assumed_wall
f 1//39 23//39 2//39
f 1//40 22//40 23//40
f 2//41 24//41 3//41
f 2//42 23//42 24//42
f 3//43 25//43 4//43
f 3//44 24//44 25//44
f 4//45 26//45 5//45
f 4//46 25//46 26//46
f 5//47 27//47 6//47
f 5//48 26//48 27//48
f 6//49 28//49 7//49
f 6//50 27//50 28//50
f 7//51 29//51 8//51
f 7//52 28//52 29//52
f 8//53 30//53 9//53
f 8//54 29//54 30//54
f 9//55 31//55 10//55
f 9//56 30//56 31//56
f 10//57 32//57 11//57
f 10//58 31//58 32//58
f 11//59 33//59 12//59
f 11//60 32//60 33//60
f 12//61 34//61 13//61
f 12//62 33//62 34//62
f 13//63 35//63 14//63
f 13//64 34//64 35//64
f 14//65 36//65 15//65
f 14//66 35//66 36//66
f 15//67 37//67 16//67
f 15//68 36//68 37//68
f 16//69 38//69 17//69
f 16//70 37//70 38//70
f 17//71 39//71 18//71
f 17//72 38//72 39//72
f 18//73 40//73 19//73
f 18//74 39//74 40//74
f 19//75 41//75 20//75
f 19//76 40//76 41//76
f 20//77 42//77 21//77
f 20//78 41//78 42//78
f 21//79 22//79 1//79
f 21//80 42//80 22//80
