# construction_5035_assumed_A_Casa
# source A_Casa
# h_campo 0.000000
# modeled_height 6.000000
# height_kind assumed
# local_origin_world_x 172001.034850
# local_origin_world_y 402500.144600
mtllib construction_artifacts.mtl

o construction_5035_assumed_A_Casa
v 9.104000 -29.301000 0.000000
v 9.310000 -30.076000 0.000000
v 11.597000 -28.799000 0.000000
v 16.884000 -37.070000 0.000000
v -5.223000 -50.807000 0.000000
v -6.993000 -47.696000 0.000000
v -19.451000 -58.450000 0.000000
v -24.537000 -63.147000 0.000000
v -30.439000 -63.346000 0.000000
v -35.665000 -60.235000 0.000000
v -37.665000 -54.900000 0.000000
v -37.379000 -48.085000 0.000000
v -38.314000 -23.165000 0.000000
v -37.639000 -23.162000 0.000000
v -39.431000 -2.293000 0.000000
v -19.319000 -1.214000 0.000000
v -20.118000 3.437000 0.000000
v -13.559000 3.571000 0.000000
v -14.302000 10.734000 0.000000
v -16.242000 10.724000 0.000000
v -17.115000 23.452000 0.000000
v -9.816000 23.994000 0.000000
v -9.192000 33.897000 0.000000
v -15.819000 33.864000 0.000000
v -16.204000 39.983000 0.000000
v -14.804000 40.058000 0.000000
v -15.678000 49.446000 0.000000
v -8.665000 49.869000 0.000000
v -8.693000 55.316000 0.000000
v -8.244000 63.346000 0.000000
v 3.126000 62.442000 0.000000
v 3.325000 56.406000 0.000000
v 11.943000 56.449000 0.000000
v 12.955000 36.167000 0.000000
v 28.387000 36.076000 0.000000
v 28.453000 22.923000 0.000000
v 32.735000 6.502000 0.000000
v 35.147000 -3.486000 0.000000
v 36.350000 -7.999000 0.000000
v 39.431000 -23.701000 0.000000
v 33.887000 -28.114000 0.000000
v 31.384000 -23.286000 0.000000
v 23.805000 -25.213000 0.000000
v 16.528000 -30.107000 0.000000
v 14.882000 -24.837000 0.000000
v -6.269000 -34.067000 0.000000
v -5.227000 -36.793000 0.000000
v -1.021000 -34.782000 0.000000
v 0.745000 -37.084000 0.000000
v 4.027000 -35.667000 0.000000
v 2.295000 -33.383000 0.000000
v 9.104000 -29.301000 6.000000
v 9.310000 -30.076000 6.000000
v 11.597000 -28.799000 6.000000
v 16.884000 -37.070000 6.000000
v -5.223000 -50.807000 6.000000
v -6.993000 -47.696000 6.000000
v -19.451000 -58.450000 6.000000
v -24.537000 -63.147000 6.000000
v -30.439000 -63.346000 6.000000
v -35.665000 -60.235000 6.000000
v -37.665000 -54.900000 6.000000
v -37.379000 -48.085000 6.000000
v -38.314000 -23.165000 6.000000
v -37.639000 -23.162000 6.000000
v -39.431000 -2.293000 6.000000
v -19.319000 -1.214000 6.000000
v -20.118000 3.437000 6.000000
v -13.559000 3.571000 6.000000
v -14.302000 10.734000 6.000000
v -16.242000 10.724000 6.000000
v -17.115000 23.452000 6.000000
v -9.816000 23.994000 6.000000
v -9.192000 33.897000 6.000000
v -15.819000 33.864000 6.000000
v -16.204000 39.983000 6.000000
v -14.804000 40.058000 6.000000
v -15.678000 49.446000 6.000000
v -8.665000 49.869000 6.000000
v -8.693000 55.316000 6.000000
v -8.244000 63.346000 6.000000
v 3.126000 62.442000 6.000000
v 3.325000 56.406000 6.000000
v 11.943000 56.449000 6.000000
v 12.955000 36.167000 6.000000
v 28.387000 36.076000 6.000000
v 28.453000 22.923000 6.000000
v 32.735000 6.502000 6.000000
v 35.147000 -3.486000 6.000000
v 36.350000 -7.999000 6.000000
v 39.431000 -23.701000 6.000000
v 33.887000 -28.114000 6.000000
v 31.384000 -23.286000 6.000000
v 23.805000 -25.213000 6.000000
v 16.528000 -30.107000 6.000000
v 14.882000 -24.837000 6.000000
v -6.269000 -34.067000 6.000000
v -5.227000 -36.793000 6.000000
v -1.021000 -34.782000 6.000000
v 0.745000 -37.084000 6.000000
v 4.027000 -35.667000 6.000000
v 2.295000 -33.383000 6.000000
v 13.527000 -8.017000 0.000000
v 13.982000 -12.373000 0.000000
v 22.354000 -10.678000 0.000000
v 21.527000 -6.619000 0.000000
v 13.527000 -8.017000 6.000000
v 13.982000 -12.373000 6.000000
v 22.354000 -10.678000 6.000000
v 21.527000 -6.619000 6.000000
vn 0.000000 0.000000 -1.000000
vn 0.000000 0.000000 -1.000000
vn 0.000000 0.000000 -1.000000
vn 0.000000 0.000000 -1.000000
vn 0.000000 0.000000 -1.000000
vn 0.000000 0.000000 -1.000000
vn 0.000000 0.000000 -1.000000
vn 0.000000 0.000000 -1.000000
vn 0.000000 0.000000 -1.000000
vn 0.000000 0.000000 -1.000000
vn 0.000000 0.000000 -1.000000
vn 0.000000 0.000000 -1.000000
vn 0.000000 0.000000 -1.000000
vn 0.000000 0.000000 -1.000000
vn 0.000000 0.000000 -1.000000
vn -0.000000 0.000000 -1.000000
vn 0.000000 0.000000 -1.000000
vn 0.000000 0.000000 -1.000000
vn -0.000000 0.000000 -1.000000
vn 0.000000 0.000000 -1.000000
vn 0.000000 0.000000 -1.000000
vn 0.000000 0.000000 -1.000000
vn 0.000000 0.000000 -1.000000
vn 0.000000 0.000000 -1.000000
vn 0.000000 0.000000 -1.000000
vn 0.000000 0.000000 -1.000000
vn 0.000000 0.000000 -1.000000
vn 0.000000 0.000000 -1.000000
vn 0.000000 0.000000 -1.000000
vn 0.000000 0.000000 -1.000000
vn 0.000000 0.000000 -1.000000
vn 0.000000 0.000000 -1.000000
vn 0.000000 0.000000 -1.000000
vn 0.000000 0.000000 -1.000000
vn 0.000000 0.000000 -1.000000
vn 0.000000 0.000000 -1.000000
vn 0.000000 -0.000000 -1.000000
vn 0.000000 0.000000 -1.000000
vn 0.000000 0.000000 -1.000000
vn 0.000000 0.000000 -1.000000
vn 0.000000 0.000000 -1.000000
vn 0.000000 0.000000 -1.000000
vn 0.000000 0.000000 -1.000000
vn 0.000000 0.000000 -1.000000
vn 0.000000 0.000000 -1.000000
vn 0.000000 0.000000 -1.000000
vn 0.000000 0.000000 -1.000000
vn -0.000000 0.000000 -1.000000
vn 0.000000 0.000000 -1.000000
vn 0.000000 0.000000 -1.000000
vn 0.000000 0.000000 -1.000000
vn 0.000000 0.000000 1.000000
vn -0.000000 0.000000 1.000000
vn -0.000000 0.000000 1.000000
vn 0.000000 0.000000 1.000000
vn 0.000000 0.000000 1.000000
vn 0.000000 0.000000 1.000000
vn 0.000000 0.000000 1.000000
vn 0.000000 0.000000 1.000000
vn 0.000000 0.000000 1.000000
vn 0.000000 0.000000 1.000000
vn 0.000000 0.000000 1.000000
vn 0.000000 -0.000000 1.000000
vn 0.000000 -0.000000 1.000000
vn 0.000000 -0.000000 1.000000
vn 0.000000 0.000000 1.000000
vn 0.000000 0.000000 1.000000
vn 0.000000 -0.000000 1.000000
vn 0.000000 -0.000000 1.000000
vn 0.000000 0.000000 1.000000
vn 0.000000 0.000000 1.000000
vn 0.000000 0.000000 1.000000
vn 0.000000 -0.000000 1.000000
vn 0.000000 -0.000000 1.000000
vn 0.000000 0.000000 1.000000
vn 0.000000 0.000000 1.000000
vn 0.000000 0.000000 1.000000
vn 0.000000 0.000000 1.000000
vn 0.000000 0.000000 1.000000
vn 0.000000 0.000000 1.000000
vn 0.000000 0.000000 1.000000
vn 0.000000 0.000000 1.000000
vn 0.000000 0.000000 1.000000
vn 0.000000 0.000000 1.000000
vn 0.000000 0.000000 1.000000
vn 0.000000 0.000000 1.000000
vn 0.000000 0.000000 1.000000
vn 0.000000 0.000000 1.000000
vn 0.000000 0.000000 1.000000
vn 0.000000 0.000000 1.000000
vn 0.000000 0.000000 1.000000
vn 0.000000 0.000000 1.000000
vn 0.000000 0.000000 1.000000
vn 0.000000 0.000000 1.000000
vn 0.000000 0.000000 1.000000
vn -0.000000 0.000000 1.000000
vn 0.000000 0.000000 1.000000
vn 0.000000 0.000000 1.000000
vn 0.000000 0.000000 1.000000
vn 0.000000 0.000000 1.000000
vn 0.000000 0.000000 1.000000
vn 0.000000 0.000000 1.000000
vn 0.966442 0.256886 0.000000
vn 0.966442 0.256886 -0.000000
vn -0.487522 0.873111 0.000000
vn -0.487522 0.873111 0.000000
vn 0.842569 0.538588 0.000000
vn 0.842569 0.538588 -0.000000
vn 0.527790 -0.849375 0.000000
vn 0.527790 -0.849375 0.000000
vn -0.869170 -0.494513 0.000000
vn -0.869170 -0.494513 0.000000
vn 0.653440 -0.756979 0.000000
vn 0.653440 -0.756979 0.000000
vn 0.678454 -0.734643 0.000000
vn 0.678454 -0.734643 0.000000
vn 0.033698 -0.999432 0.000000
vn 0.033698 -0.999432 0.000000
vn -0.511519 -0.859272 0.000000
vn -0.511519 -0.859272 0.000000
vn -0.936365 -0.351027 0.000000
vn -0.936365 -0.351027 0.000000
vn -0.999121 0.041929 0.000000
vn -0.999121 0.041929 0.000000
vn -0.999297 -0.037494 0.000000
vn -0.999297 -0.037494 0.000000
vn -0.004444 0.999990 0.000000
vn -0.004444 0.999990 0.000000
vn -0.996334 -0.085554 0.000000
vn -0.996334 -0.085554 0.000000
vn -0.053573 0.998564 0.000000
vn -0.053573 0.998564 0.000000
vn -0.985563 -0.169311 0.000000
vn -0.985563 -0.169311 0.000000
vn -0.020426 0.999791 0.000000
vn -0.020426 0.999791 0.000000
vn -0.994663 -0.103174 0.000000
vn -0.994663 -0.103174 0.000000
vn 0.005155 -0.999987 0.000000
vn 0.005155 -0.999987 0.000000
vn -0.997656 -0.068428 0.000000
vn -0.997656 -0.068428 0.000000
vn -0.074053 0.997254 0.000000
vn -0.074053 0.997254 0.000000
vn -0.998021 0.062886 0.000000
vn -0.998021 0.062886 0.000000
vn 0.004980 -0.999988 0.000000
vn 0.004980 -0.999988 0.000000
vn -0.998026 -0.062795 0.000000
vn -0.998026 -0.062795 0.000000
vn -0.053495 0.998568 0.000000
vn -0.053495 0.998568 0.000000
vn -0.995694 -0.092697 0.000000
vn -0.995694 -0.092697 0.000000
vn -0.060207 0.998186 0.000000
vn -0.060207 0.998186 0.000000
vn -0.999987 -0.005140 0.000000
vn -0.999987 -0.005140 0.000000
vn -0.998440 0.055828 0.000000
vn -0.998440 0.055828 0.000000
vn 0.079257 0.996854 0.000000
vn 0.079257 0.996854 -0.000000
vn 0.999457 0.032951 0.000000
vn 0.999457 0.032951 -0.000000
vn -0.004989 0.999988 0.000000
vn -0.004989 0.999988 0.000000
vn 0.998757 0.049834 0.000000
vn 0.998757 0.049834 -0.000000
vn 0.005897 0.999983 0.000000
vn 0.005897 0.999983 -0.000000
vn 0.999987 0.005018 0.000000
vn 0.999987 0.005018 -0.000000
vn 0.967642 0.252326 0.000000
vn 0.967642 0.252326 -0.000000
vn 0.972058 0.234742 0.000000
vn 0.972058 0.234742 -0.000000
vn 0.966260 0.257569 0.000000
vn 0.966260 0.257569 -0.000000
vn 0.981288 0.192545 0.000000
vn 0.981288 0.192545 -0.000000
vn 0.622783 -0.782395 0.000000
vn 0.622783 -0.782395 0.000000
vn -0.887785 -0.460258 0.000000
vn -0.887785 -0.460258 0.000000
vn 0.246415 -0.969164 0.000000
vn 0.246415 -0.969164 0.000000
vn 0.558064 -0.829798 0.000000
vn 0.558064 -0.829798 0.000000
vn -0.954525 -0.298131 0.000000
vn -0.954525 -0.298131 0.000000
vn 0.399962 -0.916532 0.000000
vn 0.399962 -0.916532 0.000000
vn 0.934085 0.357050 0.000000
vn 0.934085 0.357050 -0.000000
vn -0.431357 0.902181 0.000000
vn -0.431357 0.902181 0.000000
vn 0.793418 0.608678 0.000000
vn 0.793418 0.608678 -0.000000
vn -0.396382 0.918085 0.000000
vn -0.396382 0.918085 0.000000
vn -0.796807 -0.604234 0.000000
vn -0.796807 -0.604234 0.000000
vn -0.514181 0.857682 0.000000
vn -0.514181 0.857682 0.000000
vn -0.994589 -0.103888 0.000000
vn -0.994589 -0.103888 0.000000
vn 0.198434 -0.980114 0.000000
vn 0.198434 -0.980114 0.000000
vn 0.979869 0.199643 0.000000
vn 0.979869 0.199643 -0.000000
vn -0.172141 0.985072 0.000000
vn -0.172141 0.985072 0.000000
usemtl assumed_base
f 51//1 1//1 2//1
f 2//2 3//2 4//2
f 51//3 2//3 4//3
f 4//4 5//4 6//4
f 7//5 8//5 9//5
f 6//6 7//6 9//6
f 6//7 9//7 10//7
f 4//8 6//8 10//8
f 4//9 10//9 11//9
f 4//10 11//10 12//10
f 12//11 13//11 14//11
f 14//12 15//12 16//12
f 12//13 14//13 16//13
f 16//14 17//14 18//14
f 12//15 16//15 18//15
f 19//16 20//16 21//16
f 19//17 21//17 22//17
f 18//18 19//18 22//18
f 23//19 24//19 25//19
f 23//20 25//20 26//20
f 23//21 26//21 27//21
f 23//22 27//22 28//22
f 28//23 29//23 30//23
f 28//24 30//24 31//24
f 23//25 28//25 31//25
f 22//26 23//26 31//26
f 18//27 22//27 31//27
f 18//28 31//28 32//28
f 18//29 32//29 33//29
f 12//30 18//30 33//30
f 12//31 33//31 34//31
f 12//32 34//32 35//32
f 12//33 35//33 36//33
f 12//34 36//34 37//34
f 12//35 37//35 38//35
f 12//36 38//36 39//36
f 39//37 40//37 41//37
f 39//38 41//38 42//38
f 39//39 42//39 43//39
f 39//40 43//40 44//40
f 39//41 44//41 45//41
f 39//42 45//42 46//42
f 12//43 39//43 46//43
f 12//44 46//44 47//44
f 47//45 48//45 49//45
f 12//46 47//46 49//46
f 4//47 12//47 49//47
f 4//48 49//48 50//48
f 4//49 50//49 51//49
f 106//50 104//50 103//50
f 104//51 106//51 105//51
usemtl assumed_roof
f 102//52 53//52 52//52
f 53//53 55//53 54//53
f 102//54 55//54 53//54
f 55//55 57//55 56//55
f 58//56 60//56 59//56
f 57//57 60//57 58//57
f 57//58 61//58 60//58
f 55//59 61//59 57//59
f 55//60 62//60 61//60
f 55//61 63//61 62//61
f 63//62 65//62 64//62
f 65//63 67//63 66//63
f 63//64 67//64 65//64
f 67//65 69//65 68//65
f 63//66 69//66 67//66
f 70//67 72//67 71//67
f 70//68 73//68 72//68
f 69//69 73//69 70//69
f 74//70 76//70 75//70
f 74//71 77//71 76//71
f 74//72 78//72 77//72
f 74//73 79//73 78//73
f 79//74 81//74 80//74
f 79//75 82//75 81//75
f 74//76 82//76 79//76
f 73//77 82//77 74//77
f 69//78 82//78 73//78
f 69//79 83//79 82//79
f 69//80 84//80 83//80
f 63//81 84//81 69//81
f 63//82 85//82 84//82
f 63//83 86//83 85//83
f 63//84 87//84 86//84
f 63//85 88//85 87//85
f 63//86 89//86 88//86
f 63//87 90//87 89//87
f 90//88 92//88 91//88
f 90//89 93//89 92//89
f 90//90 94//90 93//90
f 90//91 95//91 94//91
f 90//92 96//92 95//92
f 90//93 97//93 96//93
f 63//94 97//94 90//94
f 63//95 98//95 97//95
f 98//96 100//96 99//96
f 63//97 100//97 98//97
f 55//98 100//98 63//98
f 55//99 101//99 100//99
f 55//100 102//100 101//100
f 110//101 107//101 108//101
f 108//102 109//102 110//102
usemtl assumed_wall
f 1//103 53//103 2//103
f 1//104 52//104 53//104
f 2//105 54//105 3//105
f 2//106 53//106 54//106
f 3//107 55//107 4//107
f 3//108 54//108 55//108
f 4//109 56//109 5//109
f 4//110 55//110 56//110
f 5//111 57//111 6//111
f 5//112 56//112 57//112
f 6//113 58//113 7//113
f 6//114 57//114 58//114
f 7//115 59//115 8//115
f 7//116 58//116 59//116
f 8//117 60//117 9//117
f 8//118 59//118 60//118
f 9//119 61//119 10//119
f 9//120 60//120 61//120
f 10//121 62//121 11//121
f 10//122 61//122 62//122
f 11//123 63//123 12//123
f 11//124 62//124 63//124
f 12//125 64//125 13//125
f 12//126 63//126 64//126
f 13//127 65//127 14//127
f 13//128 64//128 65//128
f 14//129 66//129 15//129
f 14//130 65//130 66//130
f 15//131 67//131 16//131
f 15//132 66//132 67//132
f 16//133 68//133 17//133
f 16//134 67//134 68//134
f 17//135 69//135 18//135
f 17//136 68//136 69//136
f 18//137 70//137 19//137
f 18//138 69//138 70//138
f 19//139 71//139 20//139
f 19//140 70//140 71//140
f 20//141 72//141 21//141
f 20//142 71//142 72//142
f 21//143 73//143 22//143
f 21//144 72//144 73//144
f 22//145 74//145 23//145
f 22//146 73//146 74//146
f 23//147 75//147 24//147
f 23//148 74//148 75//148
f 24//149 76//149 25//149
f 24//150 75//150 76//150
f 25//151 77//151 26//151
f 25//152 76//152 77//152
f 26//153 78//153 27//153
f 26//154 77//154 78//154
f 27//155 79//155 28//155
f 27//156 78//156 79//156
f 28//157 80//157 29//157
f 28//158 79//158 80//158
f 29//159 81//159 30//159
f 29//160 80//160 81//160
f 30//161 82//161 31//161
f 30//162 81//162 82//162
f 31//163 83//163 32//163
f 31//164 82//164 83//164
f 32//165 84//165 33//165
f 32//166 83//166 84//166
f 33//167 85//167 34//167
f 33//168 84//168 85//168
f 34//169 86//169 35//169
f 34//170 85//170 86//170
f 35//171 87//171 36//171
f 35//172 86//172 87//172
f 36//173 88//173 37//173
f 36//174 87//174 88//174
f 37//175 89//175 38//175
f 37//176 88//176 89//176
f 38//177 90//177 39//177
f 38//178 89//178 90//178
f 39//179 91//179 40//179
f 39//180 90//180 91//180
f 40//181 92//181 41//181
f 40//182 91//182 92//182
f 41//183 93//183 42//183
f 41//184 92//184 93//184
f 42//185 94//185 43//185
f 42//186 93//186 94//186
f 43//187 95//187 44//187
f 43//188 94//188 95//188
f 44//189 96//189 45//189
f 44//190 95//190 96//190
f 45//191 97//191 46//191
f 45//192 96//192 97//192
f 46//193 98//193 47//193
f 46//194 97//194 98//194
f 47//195 99//195 48//195
f 47//196 98//196 99//196
f 48//197 100//197 49//197
f 48//198 99//198 100//198
f 49//199 101//199 50//199
f 49//200 100//200 101//200
f 50//201 102//201 51//201
f 50//202 101//202 102//202
f 51//203 52//203 1//203
f 51//204 102//204 52//204
f 103//205 104//205 108//205
f 103//206 108//206 107//206
f 104//207 105//207 109//207
f 104//208 109//208 108//208
f 105//209 106//209 110//209
f 105//210 110//210 109//210
f 106//211 103//211 107//211
f 106//212 107//212 110//212
