# construction_6628_assumed_A_Casa
# source A_Casa
# h_campo 0.000000
# modeled_height 6.000000
# height_kind assumed
# local_origin_world_x 172001.034850
# local_origin_world_y 402500.144600
mtllib construction_artifacts.mtl

o construction_6628_assumed_A_Casa
v -15.466500 22.028500 0.000000
v -6.764500 26.095500 0.000000
v -2.697500 17.432500 0.000000
v 0.658500 18.845500 0.000000
v 4.434500 11.027500 0.000000
v 8.706500 13.096500 0.000000
v 15.388500 -1.069500 0.000000
v 14.050500 -1.615500 0.000000
v 15.466500 -6.622500 0.000000
v 13.233500 -7.469500 0.000000
v 12.227500 -5.608500 0.000000
v 4.666500 -6.534500 0.000000
v 4.232500 -4.223500 0.000000
v 0.541500 -5.724500 0.000000
v 1.841500 -10.465500 0.000000
v 5.080500 -9.071500 0.000000
v 11.181500 -23.433500 0.000000
v 5.403500 -26.095500 0.000000
v -5.144500 -4.632500 0.000000
v -11.185500 4.450500 0.000000
v -7.700500 6.147500 0.000000
v -15.466500 22.028500 6.000000
v -6.764500 26.095500 6.000000
v -2.697500 17.432500 6.000000
v 0.658500 18.845500 6.000000
v 4.434500 11.027500 6.000000
v 8.706500 13.096500 6.000000
v 15.388500 -1.069500 6.000000
v 14.050500 -1.615500 6.000000
v 15.466500 -6.622500 6.000000
v 13.233500 -7.469500 6.000000
v 12.227500 -5.608500 6.000000
v 4.666500 -6.534500 6.000000
v 4.232500 -4.223500 6.000000
v 0.541500 -5.724500 6.000000
v 1.841500 -10.465500 6.000000
v 5.080500 -9.071500 6.000000
v 11.181500 -23.433500 6.000000
v 5.403500 -26.095500 6.000000
v -5.144500 -4.632500 6.000000
v -11.185500 4.450500 6.000000
v -7.700500 6.147500 6.000000
vn 0.000000 0.000000 -1.000000
vn 0.000000 0.000000 -1.000000
vn 0.000000 0.000000 -1.000000
vn 0.000000 0.000000 -1.000000
vn 0.000000 0.000000 -1.000000
vn 0.000000 0.000000 -1.000000
vn 0.000000 0.000000 -1.000000
vn 0.000000 0.000000 -1.000000
vn -0.000000 0.000000 -1.000000
vn 0.000000 0.000000 -1.000000
vn -0.000000 0.000000 -1.000000
vn 0.000000 0.000000 -1.000000
vn 0.000000 0.000000 -1.000000
vn 0.000000 0.000000 -1.000000
vn 0.000000 0.000000 -1.000000
vn 0.000000 0.000000 -1.000000
vn 0.000000 0.000000 -1.000000
vn 0.000000 0.000000 -1.000000
vn 0.000000 0.000000 -1.000000
vn 0.000000 -0.000000 1.000000
vn 0.000000 0.000000 1.000000
vn 0.000000 0.000000 1.000000
vn 0.000000 0.000000 1.000000
vn -0.000000 0.000000 1.000000
vn -0.000000 0.000000 1.000000
vn 0.000000 0.000000 1.000000
vn 0.000000 0.000000 1.000000
vn 0.000000 0.000000 1.000000
vn 0.000000 0.000000 1.000000
vn 0.000000 0.000000 1.000000
vn 0.000000 0.000000 1.000000
vn 0.000000 0.000000 1.000000
vn 0.000000 0.000000 1.000000
vn -0.000000 0.000000 1.000000
vn 0.000000 0.000000 1.000000
vn 0.000000 0.000000 1.000000
vn 0.000000 0.000000 1.000000
vn 0.000000 0.000000 1.000000
vn -0.423404 0.905941 0.000000
vn -0.423404 0.905941 0.000000
vn 0.905209 0.424967 0.000000
vn 0.905209 0.424967 -0.000000
vn -0.388045 0.921641 0.000000
vn -0.388045 0.921641 0.000000
vn 0.900471 0.434917 0.000000
vn 0.900471 0.434917 -0.000000
vn -0.435886 0.900002 0.000000
vn -0.435886 0.900002 0.000000
vn 0.904433 0.426615 0.000000
vn 0.904433 0.426615 -0.000000
vn 0.377824 -0.925877 0.000000
vn 0.377824 -0.925877 0.000000
vn 0.962260 0.272131 0.000000
vn 0.962260 0.272131 -0.000000
vn 0.354654 -0.934998 0.000000
vn 0.354654 -0.934998 0.000000
vn -0.879696 -0.475537 0.000000
vn -0.879696 -0.475537 0.000000
vn 0.121562 -0.992584 0.000000
vn 0.121562 -0.992584 0.000000
vn -0.982819 -0.184571 0.000000
vn -0.982819 -0.184571 0.000000
vn 0.376707 -0.926333 0.000000
vn 0.376707 -0.926333 0.000000
vn 0.964401 0.264442 0.000000
vn 0.964401 0.264442 -0.000000
vn -0.395322 0.918543 0.000000
vn -0.395322 0.918543 0.000000
vn 0.920397 0.390986 0.000000
vn 0.920397 0.390986 -0.000000
vn 0.418440 -0.908244 0.000000
vn 0.418440 -0.908244 0.000000
vn -0.897475 -0.441065 0.000000
vn -0.897475 -0.441065 0.000000
vn -0.832656 -0.553790 0.000000
vn -0.832656 -0.553790 0.000000
vn -0.437798 0.899073 0.000000
vn -0.437798 0.899073 0.000000
vn -0.898341 -0.439299 0.000000
vn -0.898341 -0.439299 0.000000
usemtl assumed_base
f 21//1 1//1 2//1
f 21//2 2//2 3//2
f 21//3 3//3 4//3
f 21//4 4//4 5//4
f 5//5 6//5 7//5
f 21//6 5//6 7//6
f 21//7 7//7 8//7
f 21//8 8//8 9//8
f 9//9 10//9 11//9
f 21//10 9//10 11//10
f 11//11 12//11 13//11
f 21//12 11//12 13//12
f 21//13 13//13 14//13
f 21//14 14//14 15//14
f 15//15 16//15 17//15
f 15//16 17//16 18//16
f 21//17 15//17 18//17
f 21//18 18//18 19//18
f 19//19 20//19 21//19
usemtl assumed_roof
f 42//20 23//20 22//20
f 42//21 24//21 23//21
f 42//22 25//22 24//22
f 42//23 26//23 25//23
f 26//24 28//24 27//24
f 42//25 28//25 26//25
f 42//26 29//26 28//26
f 42//27 30//27 29//27
f 30//28 32//28 31//28
f 42//29 32//29 30//29
f 32//30 34//30 33//30
f 42//31 34//31 32//31
f 42//32 35//32 34//32
f 42//33 36//33 35//33
f 36//34 38//34 37//34
f 36//35 39//35 38//35
f 42//36 39//36 36//36
f 42//37 40//37 39//37
f 40//38 42//38 41//38
usemtl assumed_wall
f 1//39 23//39 2//39
f 1//40 22//40 23//40
f 2//41 24//41 3//41
f 2//42 23//42 24//42
f 3//43 25//43 4//43
f 3//44 24//44 25//44
f 4//45 26//45 5//45
f 4//46 25//46 26//46
f 5//47 27//47 6//47
f 5//48 26//48 27//48
f 6//49 28//49 7//49
f 6//50 27//50 28//50
f 7//51 29//51 8//51
f 7//52 28//52 29//52
f 8//53 30//53 9//53
f 8//54 29//54 30//54
f 9//55 31//55 10//55
f 9//56 30//56 31//56
f 10//57 32//57 11//57
f 10//58 31//58 32//58
f 11//59 33//59 12//59
f 11//60 32//60 33//60
f 12//61 34//61 13//61
f 12//62 33//62 34//62
f 13//63 35//63 14//63
f 13//64 34//64 35//64
f 14//65 36//65 15//65
f 14//66 35//66 36//66
f 15//67 37//67 16//67
f 15//68 36//68 37//68
f 16//69 38//69 17//69
f 16//70 37//70 38//70
f 17//71 39//71 18//71
f 17//72 38//72 39//72
f 18//73 40//73 19//73
f 18//74 39//74 40//74
f 19//75 41//75 20//75
f 19//76 40//76 41//76
f 20//77 42//77 21//77
f 20//78 41//78 42//78
f 21//79 22//79 1//79
f 21//80 42//80 22//80
