# construction_7028_assumed_A_Casa
# source A_Casa
# h_campo 0.000000
# modeled_height 6.000000
# height_kind assumed
# local_origin_world_x 172001.034850
# local_origin_world_y 402500.144600
mtllib construction_artifacts.mtl

o construction_7028_assumed_A_Casa
v 3.667000 -27.932500 0.000000
v -1.706000 -25.594500 0.000000
v -0.231000 -21.225500 0.000000
v 1.737000 -21.820500 0.000000
v 3.085000 -17.776500 0.000000
v -1.393000 -11.168500 0.000000
v 0.167000 -9.808500 0.000000
v -2.180000 -6.696500 0.000000
v -7.966000 -9.216500 0.000000
v -9.052000 -7.311500 0.000000
v -5.066000 -4.490500 0.000000
v -6.416000 -2.751500 0.000000
v 2.293000 3.009500 0.000000
v 0.361000 5.276500 0.000000
v -3.125000 3.027500 0.000000
v -4.940000 5.717500 0.000000
v -11.155000 1.397500 0.000000
v -12.420000 4.069500 0.000000
v -11.487000 4.670500 0.000000
v -15.532000 10.984500 0.000000
v -3.818000 27.932500 0.000000
v 5.238000 14.068500 0.000000
v 12.242000 3.767500 0.000000
v 11.329000 3.244500 0.000000
v 15.532000 -3.531500 0.000000
v 3.667000 -27.932500 6.000000
v -1.706000 -25.594500 6.000000
v -0.231000 -21.225500 6.000000
v 1.737000 -21.820500 6.000000
v 3.085000 -17.776500 6.000000
v -1.393000 -11.168500 6.000000
v 0.167000 -9.808500 6.000000
v -2.180000 -6.696500 6.000000
v -7.966000 -9.216500 6.000000
v -9.052000 -7.311500 6.000000
v -5.066000 -4.490500 6.000000
v -6.416000 -2.751500 6.000000
v 2.293000 3.009500 6.000000
v 0.361000 5.276500 6.000000
v -3.125000 3.027500 6.000000
v -4.940000 5.717500 6.000000
v -11.155000 1.397500 6.000000
v -12.420000 4.069500 6.000000
v -11.487000 4.670500 6.000000
v -15.532000 10.984500 6.000000
v -3.818000 27.932500 6.000000
v 5.238000 14.068500 6.000000
v 12.242000 3.767500 6.000000
v 11.329000 3.244500 6.000000
v 15.532000 -3.531500 6.000000
vn 0.000000 0.000000 -1.000000
vn 0.000000 0.000000 -1.000000
vn 0.000000 0.000000 -1.000000
vn 0.000000 0.000000 -1.000000
vn 0.000000 0.000000 -1.000000
vn 0.000000 0.000000 -1.000000
vn 0.000000 0.000000 -1.000000
vn 0.000000 0.000000 -1.000000
vn 0.000000 0.000000 -1.000000
vn 0.000000 0.000000 -1.000000
vn -0.000000 0.000000 -1.000000
vn 0.000000 0.000000 -1.000000
vn 0.000000 0.000000 -1.000000
vn -0.000000 0.000000 -1.000000
vn 0.000000 0.000000 -1.000000
vn 0.000000 0.000000 -1.000000
vn -0.000000 0.000000 -1.000000
vn 0.000000 0.000000 -1.000000
vn 0.000000 0.000000 -1.000000
vn 0.000000 0.000000 -1.000000
vn 0.000000 0.000000 -1.000000
vn 0.000000 0.000000 -1.000000
vn 0.000000 0.000000 -1.000000
vn 0.000000 0.000000 1.000000
vn 0.000000 0.000000 1.000000
vn 0.000000 0.000000 1.000000
vn 0.000000 0.000000 1.000000
vn 0.000000 0.000000 1.000000
vn 0.000000 0.000000 1.000000
vn 0.000000 0.000000 1.000000
vn 0.000000 0.000000 1.000000
vn 0.000000 0.000000 1.000000
vn 0.000000 0.000000 1.000000
vn 0.000000 0.000000 1.000000
vn 0.000000 0.000000 1.000000
vn 0.000000 0.000000 1.000000
vn 0.000000 0.000000 1.000000
vn 0.000000 0.000000 1.000000
vn 0.000000 0.000000 1.000000
vn 0.000000 0.000000 1.000000
vn 0.000000 0.000000 1.000000
vn 0.000000 0.000000 1.000000
vn 0.000000 -0.000000 1.000000
vn -0.000000 0.000000 1.000000
vn 0.000000 0.000000 1.000000
vn 0.000000 0.000000 1.000000
vn -0.399001 -0.916951 0.000000
vn -0.399001 -0.916951 0.000000
vn -0.947462 0.319869 0.000000
vn -0.947462 0.319869 0.000000
vn 0.289400 0.957208 0.000000
vn 0.289400 0.957208 -0.000000
vn -0.948683 0.316228 0.000000
vn -0.948683 0.316228 0.000000
vn -0.827825 -0.560987 0.000000
vn -0.827825 -0.560987 0.000000
vn -0.657135 0.753773 0.000000
vn -0.657135 0.753773 0.000000
vn -0.798396 -0.602132 0.000000
vn -0.798396 -0.602132 0.000000
vn 0.399305 -0.916818 0.000000
vn 0.399305 -0.916818 0.000000
vn -0.868748 -0.495255 0.000000
vn -0.868748 -0.495255 0.000000
vn -0.577688 0.816258 0.000000
vn -0.577688 0.816258 0.000000
vn -0.789914 -0.613217 0.000000
vn -0.789914 -0.613217 0.000000
vn -0.551713 0.834034 0.000000
vn -0.551713 0.834034 0.000000
vn -0.761102 -0.648632 0.000000
vn -0.761102 -0.648632 0.000000
vn 0.542121 -0.840300 0.000000
vn 0.542121 -0.840300 0.000000
vn -0.828956 -0.559314 0.000000
vn -0.828956 -0.559314 0.000000
vn 0.570755 -0.821121 0.000000
vn 0.570755 -0.821121 0.000000
vn -0.903827 -0.427897 0.000000
vn -0.903827 -0.427897 0.000000
vn -0.541532 0.840680 0.000000
vn -0.541532 0.840680 0.000000
vn -0.842027 -0.539436 0.000000
vn -0.842027 -0.539436 0.000000
vn -0.822629 0.568579 0.000000
vn -0.822629 0.568579 0.000000
vn 0.837216 0.546872 0.000000
vn 0.837216 0.546872 -0.000000
vn 0.826952 0.562273 0.000000
vn 0.826952 0.562273 -0.000000
vn 0.497060 -0.867716 0.000000
vn 0.497060 -0.867716 0.000000
vn 0.849797 0.527110 0.000000
vn 0.849797 0.527110 -0.000000
vn 0.899319 -0.437294 0.000000
vn 0.899319 -0.437294 0.000000
usemtl assumed_base
f 1//1 2//1 3//1
f 1//2 3//2 4//2
f 25//3 1//3 4//3
f 25//4 4//4 5//4
f 25//5 5//5 6//5
f 25//6 6//6 7//6
f 25//7 7//7 8//7
f 8//8 9//8 10//8
f 25//9 8//9 10//9
f 25//10 10//10 11//10
f 25//11 11//11 12//11
f 25//12 12//12 13//12
f 25//13 13//13 14//13
f 14//14 15//14 16//14
f 16//15 17//15 18//15
f 16//16 18//16 19//16
f 16//17 19//17 20//17
f 14//18 16//18 20//18
f 14//19 20//19 21//19
f 14//20 21//20 22//20
f 14//21 22//21 23//21
f 14//22 23//22 24//22
f 14//23 24//23 25//23
usemtl assumed_roof
f 26//24 28//24 27//24
f 26//25 29//25 28//25
f 50//26 29//26 26//26
f 50//27 30//27 29//27
f 50//28 31//28 30//28
f 50//29 32//29 31//29
f 50//30 33//30 32//30
f 33//31 35//31 34//31
f 50//32 35//32 33//32
f 50//33 36//33 35//33
f 50//34 37//34 36//34
f 50//35 38//35 37//35
f 50//36 39//36 38//36
f 39//37 41//37 40//37
f 41//38 43//38 42//38
f 41//39 44//39 43//39
f 41//40 45//40 44//40
f 39//41 45//41 41//41
f 39//42 46//42 45//42
f 39//43 47//43 46//43
f 39//44 48//44 47//44
f 39//45 49//45 48//45
f 39//46 50//46 49//46
usemtl assumed_wall
f 1//47 27//47 2//47
f 1//48 26//48 27//48
f 2//49 28//49 3//49
f 2//50 27//50 28//50
f 3//51 29//51 4//51
f 3//52 28//52 29//52
f 4//53 30//53 5//53
f 4//54 29//54 30//54
f 5//55 31//55 6//55
f 5//56 30//56 31//56
f 6//57 32//57 7//57
f 6//58 31//58 32//58
f 7//59 33//59 8//59
f 7//60 32//60 33//60
f 8//61 34//61 9//61
f 8//62 33//62 34//62
f 9//63 35//63 10//63
f 9//64 34//64 35//64
f 10//65 36//65 11//65
f 10//66 35//66 36//66
f 11//67 37//67 12//67
f 11//68 36//68 37//68
f 12//69 38//69 13//69
f 12//70 37//70 38//70
f 13//71 39//71 14//71
f 13//72 38//72 39//72
f 14//73 40//73 15//73
f 14//74 39//74 40//74
f 15//75 41//75 16//75
f 15//76 40//76 41//76
f 16//77 42//77 17//77
f 16//78 41//78 42//78
f 17//79 43//79 18//79
f 17//80 42//80 43//80
f 18//81 44//81 19//81
f 18//82 43//82 44//82
f 19//83 45//83 20//83
f 19//84 44//84 45//84
f 20//85 46//85 21//85
f 20//86 45//86 46//86
f 21//87 47//87 22//87
f 21//88 46//88 47//88
f 22//89 48//89 23//89
f 22//90 47//90 48//90
f 23//91 49//91 24//91
f 23//92 48//92 49//92
f 24//93 50//93 25//93
f 24//94 49//94 50//94
f 25//95 26//95 1//95
f 25//96 50//96 26//96
