# construction_2446_assumed_A_Casa
# source A_Casa
# h_campo 0.000000
# modeled_height 6.000000
# height_kind assumed
# local_origin_world_x 172001.034850
# local_origin_world_y 402500.144600
mtllib construction_artifacts.mtl

o construction_2446_assumed_A_Casa
v -7.927500 5.238500 0.000000
v 2.897500 5.308500 0.000000
v 7.714500 4.358500 0.000000
v 7.927500 -4.710500 0.000000
v 3.057500 -5.112500 0.000000
v -7.907500 -5.308500 0.000000
v -7.927500 5.238500 6.000000
v 2.897500 5.308500 6.000000
v 7.714500 4.358500 6.000000
v 7.927500 -4.710500 6.000000
v 3.057500 -5.112500 6.000000
v -7.907500 -5.308500 6.000000
vn 0.000000 0.000000 -1.000000
vn 0.000000 0.000000 -1.000000
vn 0.000000 0.000000 -1.000000
vn 0.000000 0.000000 -1.000000
vn 0.000000 -0.000000 1.000000
vn 0.000000 0.000000 1.000000
vn 0.000000 0.000000 1.000000
vn 0.000000 0.000000 1.000000
vn -0.006466 0.999979 0.000000
vn -0.006466 0.999979 0.000000
vn 0.193491 0.981102 0.000000
vn 0.193491 0.981102 -0.000000
vn 0.999724 0.023480 0.000000
vn 0.999724 0.023480 -0.000000
vn 0.082266 -0.996610 0.000000
vn 0.082266 -0.996610 0.000000
vn 0.017872 -0.999840 0.000000
vn 0.017872 -0.999840 0.000000
vn -0.999998 -0.001896 0.000000
vn -0.999998 -0.001896 0.000000
usemtl assumed_base
f 6//1 1//1 2//1
f 6//2 2//2 3//2
f 6//3 3//3 4//3
f 4//4 5//4 6//4
usemtl assumed_roof
f 12//5 8//5 7//5
f 12//6 9//6 8//6
f 12//7 10//7 9//7
f 10//8 12//8 11//8
usemtl assumed_wall
f 1//9 8//9 2//9
f 1//10 7//10 8//10
f 2//11 9//11 3//11
f 2//12 8//12 9//12
f 3//13 10//13 4//13
f 3//14 9//14 10//14
f 4//15 11//15 5//15
f 4//16 10//16 11//16
f 5//17 12//17 6//17
f 5//18 11//18 12//18
f 6//19 7//19 1//19
f 6//20 12//20 7//20
