# construction_3787_assumed_A_Casa
# source A_Casa
# h_campo 0.000000
# modeled_height 6.000000
# height_kind assumed
# local_origin_world_x 172001.034850
# local_origin_world_y 402500.144600
mtllib construction_artifacts.mtl

o construction_3787_assumed_A_Casa
v -11.372500 5.638000 0.000000
v -10.003500 5.928000 0.000000
v -10.317500 7.443000 0.000000
v -2.771500 9.552000 0.000000
v -3.200500 11.425000 0.000000
v -0.519500 12.028000 0.000000
v 5.774500 8.623000 0.000000
v 7.963500 0.875000 0.000000
v 6.953500 0.688000 0.000000
v 8.149500 -3.292000 0.000000
v 9.125500 -3.026000 0.000000
v 11.372500 -11.010000 0.000000
v 7.301500 -12.028000 0.000000
v 6.118500 -5.194000 0.000000
v -1.531500 -7.011000 0.000000
v -1.897500 -6.048000 0.000000
v -6.009500 -7.627000 0.000000
v -8.267500 0.301000 0.000000
v -9.714500 -0.081000 0.000000
v -11.372500 5.638000 6.000000
v -10.003500 5.928000 6.000000
v -10.317500 7.443000 6.000000
v -2.771500 9.552000 6.000000
v -3.200500 11.425000 6.000000
v -0.519500 12.028000 6.000000
v 5.774500 8.623000 6.000000
v 7.963500 0.875000 6.000000
v 6.953500 0.688000 6.000000
v 8.149500 -3.292000 6.000000
v 9.125500 -3.026000 6.000000
v 11.372500 -11.010000 6.000000
v 7.301500 -12.028000 6.000000
v 6.118500 -5.194000 6.000000
v -1.531500 -7.011000 6.000000
v -1.897500 -6.048000 6.000000
v -6.009500 -7.627000 6.000000
v -8.267500 0.301000 6.000000
v -9.714500 -0.081000 6.000000
vn 0.000000 0.000000 -1.000000
vn 0.000000 0.000000 -1.000000
vn 0.000000 0.000000 -1.000000
vn 0.000000 0.000000 -1.000000
vn 0.000000 0.000000 -1.000000
vn 0.000000 0.000000 -1.000000
vn 0.000000 0.000000 -1.000000
vn 0.000000 0.000000 -1.000000
vn 0.000000 -0.000000 -1.000000
vn 0.000000 0.000000 -1.000000
vn 0.000000 0.000000 -1.000000
vn 0.000000 0.000000 -1.000000
vn 0.000000 -0.000000 -1.000000
vn 0.000000 0.000000 -1.000000
vn 0.000000 0.000000 -1.000000
vn 0.000000 0.000000 -1.000000
vn 0.000000 0.000000 -1.000000
vn 0.000000 0.000000 1.000000
vn 0.000000 -0.000000 1.000000
vn 0.000000 -0.000000 1.000000
vn 0.000000 -0.000000 1.000000
vn 0.000000 0.000000 1.000000
vn 0.000000 0.000000 1.000000
vn 0.000000 0.000000 1.000000
vn -0.000000 0.000000 1.000000
vn 0.000000 0.000000 1.000000
vn 0.000000 0.000000 1.000000
vn 0.000000 0.000000 1.000000
vn 0.000000 0.000000 1.000000
vn 0.000000 0.000000 1.000000
vn 0.000000 0.000000 1.000000
vn 0.000000 0.000000 1.000000
vn 0.000000 0.000000 1.000000
vn 0.000000 0.000000 1.000000
vn -0.207235 0.978291 0.000000
vn -0.207235 0.978291 0.000000
vn -0.979190 -0.202948 0.000000
vn -0.979190 -0.202948 0.000000
vn -0.269171 0.963092 0.000000
vn -0.269171 0.963092 0.000000
vn -0.974758 -0.223263 0.000000
vn -0.974758 -0.223263 0.000000
vn -0.219434 0.975627 0.000000
vn -0.219434 0.975627 0.000000
vn 0.475824 0.879541 0.000000
vn 0.475824 0.879541 -0.000000
vn 0.962331 0.271882 0.000000
vn 0.962331 0.271882 -0.000000
vn 0.182054 -0.983288 0.000000
vn 0.182054 -0.983288 0.000000
vn 0.957694 0.287789 0.000000
vn 0.957694 0.287789 -0.000000
vn -0.262950 0.964809 0.000000
vn -0.262950 0.964809 0.000000
vn 0.962604 0.270913 0.000000
vn 0.962604 0.270913 -0.000000
vn 0.242592 -0.970128 0.000000
vn 0.242592 -0.970128 0.000000
vn -0.985346 -0.170568 0.000000
vn -0.985346 -0.170568 0.000000
vn 0.231087 -0.972933 0.000000
vn 0.231087 -0.972933 0.000000
vn -0.934764 -0.355269 0.000000
vn -0.934764 -0.355269 0.000000
vn 0.358477 -0.933539 0.000000
vn 0.358477 -0.933539 0.000000
vn -0.961753 -0.273920 0.000000
vn -0.961753 -0.273920 0.000000
vn 0.255250 -0.966875 0.000000
vn 0.255250 -0.966875 0.000000
vn -0.960452 -0.278445 0.000000
vn -0.960452 -0.278445 0.000000
usemtl assumed_base
f 19//1 1//1 2//1
f 2//2 3//2 4//2
f 19//3 2//3 4//3
f 4//4 5//4 6//4
f 19//5 4//5 6//5
f 19//6 6//6 7//6
f 7//7 8//7 9//7
f 10//8 11//8 12//8
f 10//9 12//9 13//9
f 9//10 10//10 13//10
f 7//11 9//11 13//11
f 7//12 13//12 14//12
f 7//13 14//13 15//13
f 7//14 15//14 16//14
f 7//15 16//15 17//15
f 7//16 17//16 18//16
f 7//17 18//17 19//17
usemtl assumed_roof
f 38//18 21//18 20//18
f 21//19 23//19 22//19
f 38//20 23//20 21//20
f 23//21 25//21 24//21
f 38//22 25//22 23//22
f 38//23 26//23 25//23
f 26//24 28//24 27//24
f 29//25 31//25 30//25
f 29//26 32//26 31//26
f 28//27 32//27 29//27
f 26//28 32//28 28//28
f 26//29 33//29 32//29
f 26//30 34//30 33//30
f 26//31 35//31 34//31
f 26//32 36//32 35//32
f 26//33 37//33 36//33
f 26//34 38//34 37//34
usemtl assumed_wall
f 1//35 21//35 2//35
f 1//36 20//36 21//36
f 2//37 22//37 3//37
f 2//38 21//38 22//38
f 3//39 23//39 4//39
f 3//40 22//40 23//40
f 4//41 24//41 5//41
f 4//42 23//42 24//42
f 5//43 25//43 6//43
f 5//44 24//44 25//44
f 6//45 26//45 7//45
f 6//46 25//46 26//46
f 7//47 27//47 8//47
f 7//48 26//48 27//48
f 8//49 28//49 9//49
f 8//50 27//50 28//50
f 9//51 29//51 10//51
f 9//52 28//52 29//52
f 10//53 30//53 11//53
f 10//54 29//54 30//54
f 11//55 31//55 12//55
f 11//56 30//56 31//56
f 12//57 32//57 13//57
f 12//58 31//58 32//58
f 13//59 33//59 14//59
f 13//60 32//60 33//60
f 14//61 34//61 15//61
f 14//62 33//62 34//62
f 15//63 35//63 16//63
f 15//64 34//64 35//64
f 16//65 36//65 17//65
f 16//66 35//66 36//66
f 17//67 37//67 18//67
f 17//68 36//68 37//68
f 18//69 38//69 19//69
f 18//70 37//70 38//70
f 19//71 20//71 1//71
f 19//72 38//72 20//72
