# construction_5168_assumed_A_Casa
# source A_Casa
# h_campo 0.000000
# modeled_height 6.000000
# height_kind assumed
# local_origin_world_x 172001.034850
# local_origin_world_y 402500.144600
mtllib construction_artifacts.mtl

o construction_5168_assumed_A_Casa
v -6.849500 14.180000 0.000000
v -3.446500 13.593000 0.000000
v 4.895500 6.327000 0.000000
v 14.440500 -2.492000 0.000000
v 12.061500 -4.668000 0.000000
v 13.125500 -6.616000 0.000000
v 11.307500 -8.340000 0.000000
v 13.185500 -10.172000 0.000000
v 6.854500 -14.180000 0.000000
v -4.464500 -4.513000 0.000000
v -1.518500 -0.830000 0.000000
v -4.665500 1.824000 0.000000
v -10.554500 2.076000 0.000000
v -10.091500 4.889000 0.000000
v -14.440500 6.103000 0.000000
v -12.978500 11.648000 0.000000
v -9.417500 10.668000 0.000000
v -6.849500 14.180000 6.000000
v -3.446500 13.593000 6.000000
v 4.895500 6.327000 6.000000
v 14.440500 -2.492000 6.000000
v 12.061500 -4.668000 6.000000
v 13.125500 -6.616000 6.000000
v 11.307500 -8.340000 6.000000
v 13.185500 -10.172000 6.000000
v 6.854500 -14.180000 6.000000
v -4.464500 -4.513000 6.000000
v -1.518500 -0.830000 6.000000
v -4.665500 1.824000 6.000000
v -10.554500 2.076000 6.000000
v -10.091500 4.889000 6.000000
v -14.440500 6.103000 6.000000
v -12.978500 11.648000 6.000000
v -9.417500 10.668000 6.000000
vn 0.000000 0.000000 -1.000000
vn 0.000000 0.000000 -1.000000
vn 0.000000 0.000000 -1.000000
vn 0.000000 0.000000 -1.000000
vn 0.000000 0.000000 -1.000000
vn 0.000000 0.000000 -1.000000
vn 0.000000 0.000000 -1.000000
vn -0.000000 0.000000 -1.000000
vn 0.000000 0.000000 -1.000000
vn 0.000000 0.000000 -1.000000
vn 0.000000 0.000000 -1.000000
vn 0.000000 0.000000 -1.000000
vn 0.000000 -0.000000 -1.000000
vn 0.000000 0.000000 -1.000000
vn 0.000000 0.000000 -1.000000
vn 0.000000 0.000000 1.000000
vn -0.000000 0.000000 1.000000
vn 0.000000 0.000000 1.000000
vn 0.000000 0.000000 1.000000
vn 0.000000 0.000000 1.000000
vn 0.000000 0.000000 1.000000
vn 0.000000 0.000000 1.000000
vn 0.000000 0.000000 1.000000
vn 0.000000 0.000000 1.000000
vn 0.000000 0.000000 1.000000
vn 0.000000 0.000000 1.000000
vn 0.000000 0.000000 1.000000
vn 0.000000 0.000000 1.000000
vn 0.000000 0.000000 1.000000
vn 0.000000 0.000000 1.000000
vn 0.169984 0.985447 0.000000
vn 0.169984 0.985447 -0.000000
vn 0.656801 0.754064 0.000000
vn 0.656801 0.754064 -0.000000
vn 0.678622 0.734488 0.000000
vn 0.678622 0.734488 -0.000000
vn 0.674924 -0.737888 0.000000
vn 0.674924 -0.737888 0.000000
vn 0.877620 0.479357 0.000000
vn 0.877620 0.479357 -0.000000
vn 0.688099 -0.725617 0.000000
vn 0.688099 -0.725617 0.000000
vn 0.698286 0.715819 0.000000
vn 0.698286 0.715819 -0.000000
vn 0.534896 -0.844918 0.000000
vn 0.534896 -0.844918 0.000000
vn -0.649435 -0.760417 0.000000
vn -0.649435 -0.760417 0.000000
vn -0.780910 0.624643 0.000000
vn -0.780910 0.624643 0.000000
vn -0.644689 -0.764445 0.000000
vn -0.644689 -0.764445 0.000000
vn -0.042753 -0.999086 0.000000
vn -0.042753 -0.999086 0.000000
vn -0.986724 0.162408 0.000000
vn -0.986724 0.162408 0.000000
vn -0.268866 -0.963178 0.000000
vn -0.268866 -0.963178 0.000000
vn -0.966955 0.254948 0.000000
vn -0.966955 0.254948 0.000000
vn 0.265339 0.964155 0.000000
vn 0.265339 0.964155 -0.000000
vn -0.807223 0.590247 0.000000
vn -0.807223 0.590247 0.000000
usemtl assumed_base
f 17//1 1//1 2//1
f 17//2 2//2 3//2
f 17//3 3//3 4//3
f 17//4 4//4 5//4
f 17//5 5//5 6//5
f 17//6 6//6 7//6
f 17//7 7//7 8//7
f 8//8 9//8 10//8
f 8//9 10//9 11//9
f 17//10 8//10 11//10
f 17//11 11//11 12//11
f 12//12 13//12 14//12
f 17//13 12//13 14//13
f 17//14 14//14 15//14
f 15//15 16//15 17//15
usemtl assumed_roof
f 34//16 19//16 18//16
f 34//17 20//17 19//17
f 34//18 21//18 20//18
f 34//19 22//19 21//19
f 34//20 23//20 22//20
f 34//21 24//21 23//21
f 34//22 25//22 24//22
f 25//23 27//23 26//23
f 25//24 28//24 27//24
f 34//25 28//25 25//25
f 34//26 29//26 28//26
f 29//27 31//27 30//27
f 34//28 31//28 29//28
f 34//29 32//29 31//29
f 32//30 34//30 33//30
usemtl assumed_wall
f 1//31 19//31 2//31
f 1//32 18//32 19//32
f 2//33 20//33 3//33
f 2//34 19//34 20//34
f 3//35 21//35 4//35
f 3//36 20//36 21//36
f 4//37 22//37 5//37
f 4//38 21//38 22//38
f 5//39 23//39 6//39
f 5//40 22//40 23//40
f 6//41 24//41 7//41
f 6//42 23//42 24//42
f 7//43 25//43 8//43
f 7//44 24//44 25//44
f 8//45 26//45 9//45
f 8//46 25//46 26//46
f 9//47 27//47 10//47
f 9//48 26//48 27//48
f 10//49 28//49 11//49
f 10//50 27//50 28//50
f 11//51 29//51 12//51
f 11//52 28//52 29//52
f 12//53 30//53 13//53
f 12//54 29//54 30//54
f 13//55 31//55 14//55
f 13//56 30//56 31//56
f 14//57 32//57 15//57
f 14//58 31//58 32//58
f 15//59 33//59 16//59
f 15//60 32//60 33//60
f 16//61 34//61 17//61
f 16//62 33//62 34//62
f 17//63 18//63 1//63
f 17//64 34//64 18//64
