# construction_2089_assumed_A_Casa
# source A_Casa
# h_campo 0.000000
# modeled_height 6.000000
# height_kind assumed
# local_origin_world_x 172001.034850
# local_origin_world_y 402500.144600
mtllib construction_artifacts.mtl

o construction_2089_assumed_A_Casa
v -18.950500 -14.240000 0.000000
v -13.644500 -10.247000 0.000000
v -11.631500 -6.898000 0.000000
v -13.207500 -4.596000 0.000000
v -9.444500 0.940000 0.000000
v -11.501500 3.259000 0.000000
v -17.971500 8.889000 0.000000
v -14.140500 13.451000 0.000000
v -11.993500 11.384000 0.000000
v -8.597500 20.074000 0.000000
v -7.258500 19.836000 0.000000
v -5.420500 23.477000 0.000000
v 2.763500 20.249000 0.000000
v -1.149500 11.716000 0.000000
v 3.857500 9.817000 0.000000
v 4.909500 13.186000 0.000000
v 6.134500 12.911000 0.000000
v 8.749500 17.368000 0.000000
v 16.527500 13.968000 0.000000
v 16.367500 12.856000 0.000000
v 18.950500 11.558000 0.000000
v 15.841500 3.954000 0.000000
v 17.858500 3.066000 0.000000
v 16.884500 1.391000 0.000000
v 11.644500 -3.716000 0.000000
v 5.501500 -6.413000 0.000000
v -0.141500 -8.165000 0.000000
v 3.426500 -12.837000 0.000000
v -10.838500 -23.477000 0.000000
v -18.950500 -14.240000 6.000000
v -13.644500 -10.247000 6.000000
v -11.631500 -6.898000 6.000000
v -13.207500 -4.596000 6.000000
v -9.444500 0.940000 6.000000
v -11.501500 3.259000 6.000000
v -17.971500 8.889000 6.000000
v -14.140500 13.451000 6.000000
v -11.993500 11.384000 6.000000
v -8.597500 20.074000 6.000000
v -7.258500 19.836000 6.000000
v -5.420500 23.477000 6.000000
v 2.763500 20.249000 6.000000
v -1.149500 11.716000 6.000000
v 3.857500 9.817000 6.000000
v 4.909500 13.186000 6.000000
v 6.134500 12.911000 6.000000
v 8.749500 17.368000 6.000000
v 16.527500 13.968000 6.000000
v 16.367500 12.856000 6.000000
v 18.950500 11.558000 6.000000
v 15.841500 3.954000 6.000000
v 17.858500 3.066000 6.000000
v 16.884500 1.391000 6.000000
v 11.644500 -3.716000 6.000000
v 5.501500 -6.413000 6.000000
v -0.141500 -8.165000 6.000000
v 3.426500 -12.837000 6.000000
v -10.838500 -23.477000 6.000000
vn 0.000000 0.000000 -1.000000
vn 0.000000 0.000000 -1.000000
vn 0.000000 0.000000 -1.000000
vn 0.000000 0.000000 -1.000000
vn 0.000000 0.000000 -1.000000
vn 0.000000 0.000000 -1.000000
vn 0.000000 0.000000 -1.000000
vn 0.000000 0.000000 -1.000000
vn 0.000000 0.000000 -1.000000
vn 0.000000 0.000000 -1.000000
vn 0.000000 0.000000 -1.000000
vn 0.000000 0.000000 -1.000000
vn 0.000000 0.000000 -1.000000
vn 0.000000 0.000000 -1.000000
vn 0.000000 0.000000 -1.000000
vn 0.000000 0.000000 -1.000000
vn 0.000000 0.000000 -1.000000
vn 0.000000 0.000000 -1.000000
vn 0.000000 -0.000000 -1.000000
vn 0.000000 0.000000 -1.000000
vn 0.000000 0.000000 -1.000000
vn 0.000000 0.000000 -1.000000
vn 0.000000 0.000000 -1.000000
vn 0.000000 -0.000000 -1.000000
vn 0.000000 0.000000 -1.000000
vn 0.000000 0.000000 -1.000000
vn 0.000000 -0.000000 -1.000000
vn 0.000000 0.000000 1.000000
vn 0.000000 0.000000 1.000000
vn 0.000000 -0.000000 1.000000
vn 0.000000 -0.000000 1.000000
vn 0.000000 0.000000 1.000000
vn 0.000000 0.000000 1.000000
vn 0.000000 0.000000 1.000000
vn 0.000000 -0.000000 1.000000
vn 0.000000 0.000000 1.000000
vn 0.000000 0.000000 1.000000
vn 0.000000 0.000000 1.000000
vn 0.000000 0.000000 1.000000
vn 0.000000 0.000000 1.000000
vn 0.000000 0.000000 1.000000
vn 0.000000 0.000000 1.000000
vn 0.000000 0.000000 1.000000
vn 0.000000 0.000000 1.000000
vn 0.000000 0.000000 1.000000
vn 0.000000 0.000000 1.000000
vn 0.000000 0.000000 1.000000
vn 0.000000 0.000000 1.000000
vn 0.000000 0.000000 1.000000
vn 0.000000 0.000000 1.000000
vn 0.000000 0.000000 1.000000
vn 0.000000 0.000000 1.000000
vn 0.000000 0.000000 1.000000
vn 0.000000 0.000000 1.000000
vn -0.601300 0.799023 0.000000
vn -0.601300 0.799023 0.000000
vn -0.857086 0.515173 0.000000
vn -0.857086 0.515173 0.000000
vn -0.825149 -0.564915 0.000000
vn -0.825149 -0.564915 0.000000
vn -0.827029 0.562159 0.000000
vn -0.827029 0.562159 0.000000
vn -0.748103 -0.663583 0.000000
vn -0.748103 -0.663583 0.000000
vn -0.656438 -0.754380 0.000000
vn -0.656438 -0.754380 0.000000
vn -0.765794 0.643086 0.000000
vn -0.765794 0.643086 0.000000
vn 0.693558 0.720401 0.000000
vn 0.693558 0.720401 -0.000000
vn -0.931404 0.363987 0.000000
vn -0.931404 0.363987 0.000000
vn 0.175002 0.984568 0.000000
vn 0.175002 0.984568 -0.000000
vn -0.892704 0.450643 0.000000
vn -0.892704 0.450643 0.000000
vn 0.366918 0.930253 0.000000
vn 0.366918 0.930253 -0.000000
vn 0.908982 -0.416834 0.000000
vn 0.908982 -0.416834 0.000000
vn 0.354620 0.935010 0.000000
vn 0.354620 0.935010 -0.000000
vn -0.954545 0.298065 0.000000
vn -0.954545 0.298065 0.000000
vn 0.219038 0.975716 0.000000
vn 0.219038 0.975716 -0.000000
vn -0.862506 0.506047 0.000000
vn -0.862506 0.506047 0.000000
vn 0.400535 0.916282 0.000000
vn 0.400535 0.916282 -0.000000
vn 0.989807 -0.142418 0.000000
vn 0.989807 -0.142418 0.000000
vn 0.449012 0.893526 0.000000
vn 0.449012 0.893526 -0.000000
vn 0.925621 -0.378453 0.000000
vn 0.925621 -0.378453 0.000000
vn 0.402936 0.915228 0.000000
vn 0.402936 0.915228 -0.000000
vn 0.864471 -0.502683 0.000000
vn 0.864471 -0.502683 0.000000
vn 0.697960 -0.716137 0.000000
vn 0.697960 -0.716137 0.000000
vn 0.401999 -0.915640 0.000000
vn 0.401999 -0.915640 0.000000
vn 0.296511 -0.955029 0.000000
vn 0.296511 -0.955029 0.000000
vn 0.794744 0.606945 0.000000
vn 0.794744 0.606945 -0.000000
vn 0.597885 -0.801582 0.000000
vn 0.597885 -0.801582 0.000000
vn -0.751381 -0.659868 0.000000
vn -0.751381 -0.659868 0.000000
usemtl assumed_base
f 29//1 1//1 2//1
f 29//2 2//2 3//2
f 3//3 4//3 5//3
f 29//4 3//4 5//4
f 6//5 7//5 8//5
f 5//6 6//6 8//6
f 5//7 8//7 9//7
f 5//8 9//8 10//8
f 5//9 10//9 11//9
f 29//10 5//10 11//10
f 29//11 11//11 12//11
f 12//12 13//12 14//12
f 29//13 12//13 14//13
f 29//14 14//14 15//14
f 15//15 16//15 17//15
f 29//16 15//16 17//16
f 29//17 17//17 18//17
f 18//18 19//18 20//18
f 20//19 21//19 22//19
f 18//20 20//20 22//20
f 22//21 23//21 24//21
f 18//22 22//22 24//22
f 18//23 24//23 25//23
f 18//24 25//24 26//24
f 18//25 26//25 27//25
f 29//26 18//26 27//26
f 27//27 28//27 29//27
usemtl assumed_roof
f 58//28 31//28 30//28
f 58//29 32//29 31//29
f 32//30 34//30 33//30
f 58//31 34//31 32//31
f 35//32 37//32 36//32
f 34//33 37//33 35//33
f 34//34 38//34 37//34
f 34//35 39//35 38//35
f 34//36 40//36 39//36
f 58//37 40//37 34//37
f 58//38 41//38 40//38
f 41//39 43//39 42//39
f 58//40 43//40 41//40
f 58//41 44//41 43//41
f 44//42 46//42 45//42
f 58//43 46//43 44//43
f 58//44 47//44 46//44
f 47//45 49//45 48//45
f 49//46 51//46 50//46
f 47//47 51//47 49//47
f 51//48 53//48 52//48
f 47//49 53//49 51//49
f 47//50 54//50 53//50
f 47//51 55//51 54//51
f 47//52 56//52 55//52
f 58//53 56//53 47//53
f 56//54 58//54 57//54
usemtl assumed_wall
f 1//55 31//55 2//55
f 1//56 30//56 31//56
f 2//57 32//57 3//57
f 2//58 31//58 32//58
f 3//59 33//59 4//59
f 3//60 32//60 33//60
f 4//61 34//61 5//61
f 4//62 33//62 34//62
f 5//63 35//63 6//63
f 5//64 34//64 35//64
f 6//65 36//65 7//65
f 6//66 35//66 36//66
f 7//67 37//67 8//67
f 7//68 36//68 37//68
f 8//69 38//69 9//69
f 8//70 37//70 38//70
f 9//71 39//71 10//71
f 9//72 38//72 39//72
f 10//73 40//73 11//73
f 10//74 39//74 40//74
f 11//75 41//75 12//75
f 11//76 40//76 41//76
f 12//77 42//77 13//77
f 12//78 41//78 42//78
f 13//79 43//79 14//79
f 13//80 42//80 43//80
f 14//81 44//81 15//81
f 14//82 43//82 44//82
f 15//83 45//83 16//83
f 15//84 44//84 45//84
f 16//85 46//85 17//85
f 16//86 45//86 46//86
f 17//87 47//87 18//87
f 17//88 46//88 47//88
f 18//89 48//89 19//89
f 18//90 47//90 48//90
f 19//91 49//91 20//91
f 19//92 48//92 49//92
f 20//93 50//93 21//93
f 20//94 49//94 50//94
f 21//95 51//95 22//95
f 21//96 50//96 51//96
f 22//97 52//97 23//97
f 22//98 51//98 52//98
f 23//99 53//99 24//99
f 23//100 52//100 53//100
f 24//101 54//101 25//101
f 24//102 53//102 54//102
f 25//103 55//103 26//103
f 25//104 54//104 55//104
f 26//105 56//105 27//105
f 26//106 55//106 56//106
f 27//107 57//107 28//107
f 27//108 56//108 57//108
f 28//109 58//109 29//109
f 28//110 57//110 58//110
f 29//111 30//111 1//111
f 29//112 58//112 30//112
