# construction_6671_assumed_A_Cruz_vermelha_portuguesa
# source A_Cruz_vermelha_portuguesa
# h_campo 0.000000
# modeled_height 6.000000
# height_kind assumed
# local_origin_world_x 172001.034850
# local_origin_world_y 402500.144600
mtllib construction_artifacts.mtl

o construction_6671_assumed_A_Cruz_vermelha_portuguesa
v -2.602500 -16.237000 0.000000
v -20.835500 -3.737000 0.000000
v -17.108500 1.116000 0.000000
v -20.041500 3.224000 0.000000
v -13.244500 12.252000 0.000000
v -12.369500 11.596000 0.000000
v -7.233500 18.859000 0.000000
v -6.005500 20.579000 0.000000
v 7.490500 11.106000 0.000000
v 6.486500 9.499000 0.000000
v 8.040500 8.003000 0.000000
v 9.437500 9.640000 0.000000
v 15.811500 5.273000 0.000000
v 14.457500 3.327000 0.000000
v 15.375500 2.446000 0.000000
v 12.919500 -0.995000 0.000000
v 20.835500 -7.363000 0.000000
v 11.206500 -20.579000 0.000000
v 0.076500 -12.302000 0.000000
v -2.602500 -16.237000 6.000000
v -20.835500 -3.737000 6.000000
v -17.108500 1.116000 6.000000
v -20.041500 3.224000 6.000000
v -13.244500 12.252000 6.000000
v -12.369500 11.596000 6.000000
v -7.233500 18.859000 6.000000
v -6.005500 20.579000 6.000000
v 7.490500 11.106000 6.000000
v 6.486500 9.499000 6.000000
v 8.040500 8.003000 6.000000
v 9.437500 9.640000 6.000000
v 15.811500 5.273000 6.000000
v 14.457500 3.327000 6.000000
v 15.375500 2.446000 6.000000
v 12.919500 -0.995000 6.000000
v 20.835500 -7.363000 6.000000
v 11.206500 -20.579000 6.000000
v 0.076500 -12.302000 6.000000
vn -0.000000 0.000000 -1.000000
vn 0.000000 0.000000 -1.000000
vn 0.000000 0.000000 -1.000000
vn 0.000000 0.000000 -1.000000
vn 0.000000 0.000000 -1.000000
vn 0.000000 0.000000 -1.000000
vn 0.000000 0.000000 -1.000000
vn 0.000000 0.000000 -1.000000
vn 0.000000 0.000000 -1.000000
vn 0.000000 0.000000 -1.000000
vn 0.000000 0.000000 -1.000000
vn 0.000000 0.000000 -1.000000
vn 0.000000 0.000000 -1.000000
vn 0.000000 0.000000 -1.000000
vn 0.000000 0.000000 -1.000000
vn 0.000000 0.000000 -1.000000
vn 0.000000 0.000000 -1.000000
vn 0.000000 0.000000 1.000000
vn 0.000000 0.000000 1.000000
vn 0.000000 -0.000000 1.000000
vn 0.000000 0.000000 1.000000
vn 0.000000 0.000000 1.000000
vn 0.000000 0.000000 1.000000
vn 0.000000 0.000000 1.000000
vn 0.000000 0.000000 1.000000
vn 0.000000 -0.000000 1.000000
vn 0.000000 0.000000 1.000000
vn 0.000000 0.000000 1.000000
vn 0.000000 0.000000 1.000000
vn 0.000000 0.000000 1.000000
vn 0.000000 0.000000 1.000000
vn 0.000000 0.000000 1.000000
vn 0.000000 0.000000 1.000000
vn 0.000000 0.000000 1.000000
vn -0.565447 -0.824784 0.000000
vn -0.565447 -0.824784 0.000000
vn -0.793104 0.609087 0.000000
vn -0.793104 0.609087 0.000000
vn -0.583619 -0.812028 0.000000
vn -0.583619 -0.812028 0.000000
vn -0.798894 0.601471 0.000000
vn -0.798894 0.601471 0.000000
vn 0.599854 0.800110 0.000000
vn 0.599854 0.800110 -0.000000
vn -0.816482 0.577372 0.000000
vn -0.816482 0.577372 0.000000
vn -0.813861 0.581059 0.000000
vn -0.813861 0.581059 0.000000
vn 0.574512 0.818496 0.000000
vn 0.574512 0.818496 -0.000000
vn 0.848087 -0.529857 0.000000
vn 0.848087 -0.529857 0.000000
vn 0.693535 0.720423 0.000000
vn 0.693535 0.720423 -0.000000
vn -0.760665 0.649144 0.000000
vn -0.760665 0.649144 0.000000
vn 0.565199 0.824955 0.000000
vn 0.565199 0.824955 -0.000000
vn 0.820854 -0.571139 0.000000
vn 0.820854 -0.571139 0.000000
vn 0.692417 0.721497 0.000000
vn 0.692417 0.721497 -0.000000
vn 0.813941 -0.580947 0.000000
vn 0.813941 -0.580947 0.000000
vn 0.626805 0.779176 0.000000
vn 0.626805 0.779176 -0.000000
vn 0.808231 -0.588866 0.000000
vn 0.808231 -0.588866 0.000000
vn -0.596742 -0.802433 0.000000
vn -0.596742 -0.802433 0.000000
vn 0.826614 -0.562770 0.000000
vn 0.826614 -0.562770 0.000000
usemtl assumed_base
f 19//1 1//1 2//1
f 19//2 2//2 3//2
f 3//3 4//3 5//3
f 19//4 3//4 5//4
f 19//5 5//5 6//5
f 19//6 6//6 7//6
f 19//7 7//7 8//7
f 8//8 9//8 10//8
f 19//9 8//9 10//9
f 19//10 10//10 11//10
f 19//11 11//11 12//11
f 19//12 12//12 13//12
f 19//13 13//13 14//13
f 19//14 14//14 15//14
f 19//15 15//15 16//15
f 19//16 16//16 17//16
f 17//17 18//17 19//17
usemtl assumed_roof
f 38//18 21//18 20//18
f 38//19 22//19 21//19
f 22//20 24//20 23//20
f 38//21 24//21 22//21
f 38//22 25//22 24//22
f 38//23 26//23 25//23
f 38//24 27//24 26//24
f 27//25 29//25 28//25
f 38//26 29//26 27//26
f 38//27 30//27 29//27
f 38//28 31//28 30//28
f 38//29 32//29 31//29
f 38//30 33//30 32//30
f 38//31 34//31 33//31
f 38//32 35//32 34//32
f 38//33 36//33 35//33
f 36//34 38//34 37//34
usemtl assumed_wall
f 1//35 21//35 2//35
f 1//36 20//36 21//36
f 2//37 22//37 3//37
f 2//38 21//38 22//38
f 3//39 23//39 4//39
f 3//40 22//40 23//40
f 4//41 24//41 5//41
f 4//42 23//42 24//42
f 5//43 25//43 6//43
f 5//44 24//44 25//44
f 6//45 26//45 7//45
f 6//46 25//46 26//46
f 7//47 27//47 8//47
f 7//48 26//48 27//48
f 8//49 28//49 9//49
f 8//50 27//50 28//50
f 9//51 29//51 10//51
f 9//52 28//52 29//52
f 10//53 30//53 11//53
f 10//54 29//54 30//54
f 11//55 31//55 12//55
f 11//56 30//56 31//56
f 12//57 32//57 13//57
f 12//58 31//58 32//58
f 13//59 33//59 14//59
f 13//60 32//60 33//60
f 14//61 34//61 15//61
f 14//62 33//62 34//62
f 15//63 35//63 16//63
f 15//64 34//64 35//64
f 16//65 36//65 17//65
f 16//66 35//66 36//66
f 17//67 37//67 18//67
f 17//68 36//68 37//68
f 18//69 38//69 19//69
f 18//70 37//70 38//70
f 19//71 20//71 1//71
f 19//72 38//72 20//72
