# construction_4956_assumed_A_Casa
# source A_Casa
# h_campo 0.000000
# modeled_height 6.000000
# height_kind assumed
# local_origin_world_x 172001.034850
# local_origin_world_y 402500.144600
mtllib construction_artifacts.mtl

o construction_4956_assumed_A_Casa
v -7.143500 1.986000 0.000000
v -4.197500 8.676000 0.000000
v -0.692500 7.345000 0.000000
v -1.496500 5.191000 0.000000
v 7.143500 0.076000 0.000000
v 2.087500 -8.676000 0.000000
v -0.152500 -7.620000 0.000000
v 1.333500 -4.169000 0.000000
v -4.810500 -0.715000 0.000000
v -4.198500 0.370000 0.000000
v -7.143500 1.986000 6.000000
v -4.197500 8.676000 6.000000
v -0.692500 7.345000 6.000000
v -1.496500 5.191000 6.000000
v 7.143500 0.076000 6.000000
v 2.087500 -8.676000 6.000000
v -0.152500 -7.620000 6.000000
v 1.333500 -4.169000 6.000000
v -4.810500 -0.715000 6.000000
v -4.198500 0.370000 6.000000
vn 0.000000 0.000000 -1.000000
vn 0.000000 0.000000 -1.000000
vn 0.000000 0.000000 -1.000000
vn 0.000000 0.000000 -1.000000
vn 0.000000 0.000000 -1.000000
vn 0.000000 0.000000 -1.000000
vn 0.000000 0.000000 -1.000000
vn 0.000000 0.000000 -1.000000
vn 0.000000 -0.000000 1.000000
vn 0.000000 0.000000 1.000000
vn 0.000000 0.000000 1.000000
vn -0.000000 0.000000 1.000000
vn 0.000000 0.000000 1.000000
vn 0.000000 0.000000 1.000000
vn 0.000000 0.000000 1.000000
vn 0.000000 0.000000 1.000000
vn -0.915194 0.403014 0.000000
vn -0.915194 0.403014 0.000000
vn 0.355008 0.934863 0.000000
vn 0.355008 0.934863 -0.000000
vn 0.936864 -0.349693 0.000000
vn 0.936864 -0.349693 0.000000
vn 0.509434 0.860510 0.000000
vn 0.509434 0.860510 -0.000000
vn 0.865896 -0.500225 0.000000
vn 0.865896 -0.500225 0.000000
vn -0.426419 -0.904526 0.000000
vn -0.426419 -0.904526 0.000000
vn -0.918469 0.395493 0.000000
vn -0.918469 0.395493 0.000000
vn -0.490046 -0.871697 0.000000
vn -0.490046 -0.871697 0.000000
vn -0.870996 0.491290 0.000000
vn -0.870996 0.491290 0.000000
vn -0.481061 -0.876687 0.000000
vn -0.481061 -0.876687 0.000000
usemtl assumed_base
f 10//1 1//1 2//1
f 10//2 2//2 3//2
f 10//3 3//3 4//3
f 10//4 4//4 5//4
f 5//5 6//5 7//5
f 5//6 7//6 8//6
f 10//7 5//7 8//7
f 8//8 9//8 10//8
usemtl assumed_roof
f 20//9 12//9 11//9
f 20//10 13//10 12//10
f 20//11 14//11 13//11
f 20//12 15//12 14//12
f 15//13 17//13 16//13
f 15//14 18//14 17//14
f 20//15 18//15 15//15
f 18//16 20//16 19//16
usemtl assumed_wall
f 1//17 12//17 2//17
f 1//18 11//18 12//18
f 2//19 13//19 3//19
f 2//20 12//20 13//20
f 3//21 14//21 4//21
f 3//22 13//22 14//22
f 4//23 15//23 5//23
f 4//24 14//24 15//24
f 5//25 16//25 6//25
f 5//26 15//26 16//26
f 6//27 17//27 7//27
f 6//28 16//28 17//28
f 7//29 18//29 8//29
f 7//30 17//30 18//30
f 8//31 19//31 9//31
f 8//32 18//32 19//32
f 9//33 20//33 10//33
f 9//34 19//34 20//34
f 10//35 11//35 1//35
f 10//36 20//36 11//36
