# construction_0154_assumed_A_Grande_construcao
# source A_Grande_construcao
# h_campo 0.000000
# modeled_height 6.000000
# height_kind assumed
# local_origin_world_x 172001.034850
# local_origin_world_y 402500.144600
mtllib construction_artifacts.mtl

o construction_0154_assumed_A_Grande_construcao
v 14.976500 -66.396500 0.000000
v 14.456500 -32.634500 0.000000
v -10.877500 -33.247500 0.000000
v -15.325500 -29.180500 0.000000
v -23.525500 -29.222500 0.000000
v -23.718500 4.927500 0.000000
v -27.323500 4.993500 0.000000
v -27.688500 35.683500 0.000000
v -32.684500 35.658500 0.000000
v -33.427500 65.925500 0.000000
v 18.277500 66.480500 0.000000
v 18.289500 66.027500 0.000000
v 18.592500 54.192500 0.000000
v 28.391500 54.726500 0.000000
v 25.343500 61.499500 0.000000
v 28.793500 63.034500 0.000000
v 32.503500 54.662500 0.000000
v 32.148500 41.275500 0.000000
v 29.513500 41.262500 0.000000
v 29.739500 21.701500 0.000000
v 26.514500 21.684500 0.000000
v 26.552500 5.770500 0.000000
v 31.507500 5.373500 0.000000
v 31.614500 -7.379500 0.000000
v 33.427500 -7.412500 0.000000
v 32.966500 -66.480500 0.000000
v 14.976500 -66.396500 6.000000
v 14.456500 -32.634500 6.000000
v -10.877500 -33.247500 6.000000
v -15.325500 -29.180500 6.000000
v -23.525500 -29.222500 6.000000
v -23.718500 4.927500 6.000000
v -27.323500 4.993500 6.000000
v -27.688500 35.683500 6.000000
v -32.684500 35.658500 6.000000
v -33.427500 65.925500 6.000000
v 18.277500 66.480500 6.000000
v 18.289500 66.027500 6.000000
v 18.592500 54.192500 6.000000
v 28.391500 54.726500 6.000000
v 25.343500 61.499500 6.000000
v 28.793500 63.034500 6.000000
v 32.503500 54.662500 6.000000
v 32.148500 41.275500 6.000000
v 29.513500 41.262500 6.000000
v 29.739500 21.701500 6.000000
v 26.514500 21.684500 6.000000
v 26.552500 5.770500 6.000000
v 31.507500 5.373500 6.000000
v 31.614500 -7.379500 6.000000
v 33.427500 -7.412500 6.000000
v 32.966500 -66.480500 6.000000
vn 0.000000 0.000000 -1.000000
vn -0.000000 0.000000 -1.000000
vn -0.000000 0.000000 -1.000000
vn 0.000000 0.000000 -1.000000
vn 0.000000 0.000000 -1.000000
vn 0.000000 0.000000 -1.000000
vn -0.000000 0.000000 -1.000000
vn 0.000000 0.000000 -1.000000
vn 0.000000 0.000000 -1.000000
vn 0.000000 0.000000 -1.000000
vn 0.000000 0.000000 -1.000000
vn 0.000000 0.000000 -1.000000
vn 0.000000 0.000000 -1.000000
vn 0.000000 0.000000 -1.000000
vn 0.000000 0.000000 -1.000000
vn 0.000000 0.000000 -1.000000
vn 0.000000 0.000000 -1.000000
vn 0.000000 0.000000 -1.000000
vn 0.000000 0.000000 -1.000000
vn 0.000000 0.000000 -1.000000
vn 0.000000 0.000000 -1.000000
vn 0.000000 0.000000 -1.000000
vn 0.000000 0.000000 -1.000000
vn 0.000000 0.000000 -1.000000
vn 0.000000 0.000000 1.000000
vn 0.000000 0.000000 1.000000
vn 0.000000 0.000000 1.000000
vn 0.000000 0.000000 1.000000
vn 0.000000 0.000000 1.000000
vn 0.000000 0.000000 1.000000
vn 0.000000 0.000000 1.000000
vn 0.000000 0.000000 1.000000
vn 0.000000 0.000000 1.000000
vn 0.000000 0.000000 1.000000
vn -0.000000 0.000000 1.000000
vn 0.000000 0.000000 1.000000
vn 0.000000 -0.000000 1.000000
vn -0.000000 0.000000 1.000000
vn 0.000000 0.000000 1.000000
vn -0.000000 0.000000 1.000000
vn 0.000000 0.000000 1.000000
vn 0.000000 0.000000 1.000000
vn 0.000000 0.000000 1.000000
vn 0.000000 0.000000 1.000000
vn 0.000000 0.000000 1.000000
vn 0.000000 0.000000 1.000000
vn 0.000000 0.000000 1.000000
vn 0.000000 0.000000 1.000000
vn -0.999881 -0.015400 0.000000
vn -0.999881 -0.015400 0.000000
vn 0.024190 -0.999707 0.000000
vn 0.024190 -0.999707 0.000000
vn -0.674792 -0.738008 0.000000
vn -0.674792 -0.738008 0.000000
vn 0.005122 -0.999987 0.000000
vn 0.005122 -0.999987 0.000000
vn -0.999984 -0.005651 0.000000
vn -0.999984 -0.005651 0.000000
vn -0.018305 -0.999832 0.000000
vn -0.018305 -0.999832 0.000000
vn -0.999929 -0.011892 0.000000
vn -0.999929 -0.011892 0.000000
vn 0.005004 -0.999987 0.000000
vn 0.005004 -0.999987 0.000000
vn -0.999699 -0.024541 0.000000
vn -0.999699 -0.024541 0.000000
vn -0.010733 0.999942 0.000000
vn -0.010733 0.999942 0.000000
vn 0.999649 0.026481 0.000000
vn 0.999649 0.026481 -0.000000
vn 0.999672 0.025594 0.000000
vn 0.999672 0.025594 -0.000000
vn -0.054415 0.998518 0.000000
vn -0.054415 0.998518 0.000000
vn -0.911914 -0.410381 0.000000
vn -0.911914 -0.410381 0.000000
vn -0.406507 0.913648 0.000000
vn -0.406507 0.913648 0.000000
vn 0.914252 0.405145 0.000000
vn 0.914252 0.405145 -0.000000
vn 0.999649 -0.026509 0.000000
vn 0.999649 -0.026509 0.000000
vn 0.004934 -0.999988 0.000000
vn 0.004934 -0.999988 0.000000
vn 0.999933 0.011553 0.000000
vn 0.999933 0.011553 -0.000000
vn 0.005271 -0.999986 0.000000
vn 0.005271 -0.999986 0.000000
vn 0.999997 0.002388 0.000000
vn 0.999997 0.002388 -0.000000
vn 0.079865 0.996806 0.000000
vn 0.079865 0.996806 -0.000000
vn 0.999965 0.008390 0.000000
vn 0.999965 0.008390 -0.000000
vn 0.018199 0.999834 0.000000
vn 0.018199 0.999834 -0.000000
vn 0.999970 -0.007804 0.000000
vn 0.999970 -0.007804 0.000000
vn -0.004669 -0.999989 0.000000
vn -0.004669 -0.999989 0.000000
usemtl assumed_base
f 26//1 1//1 2//1
f 2//2 3//2 4//2
f 4//3 5//3 6//3
f 2//4 4//4 6//4
f 6//5 7//5 8//5
f 2//6 6//6 8//6
f 8//7 9//7 10//7
f 2//8 8//8 10//8
f 26//9 2//9 10//9
f 10//10 11//10 12//10
f 10//11 12//11 13//11
f 26//12 10//12 13//12
f 14//13 15//13 16//13
f 14//14 16//14 17//14
f 13//15 14//15 17//15
f 13//16 17//16 18//16
f 13//17 18//17 19//17
f 13//18 19//18 20//18
f 13//19 20//19 21//19
f 13//20 21//20 22//20
f 26//21 13//21 22//21
f 22//22 23//22 24//22
f 26//23 22//23 24//23
f 24//24 25//24 26//24
usemtl assumed_roof
f 52//25 28//25 27//25
f 28//26 30//26 29//26
f 30//27 32//27 31//27
f 28//28 32//28 30//28
f 32//29 34//29 33//29
f 28//30 34//30 32//30
f 34//31 36//31 35//31
f 28//32 36//32 34//32
f 52//33 36//33 28//33
f 36//34 38//34 37//34
f 36//35 39//35 38//35
f 52//36 39//36 36//36
f 40//37 42//37 41//37
f 40//38 43//38 42//38
f 39//39 43//39 40//39
f 39//40 44//40 43//40
f 39//41 45//41 44//41
f 39//42 46//42 45//42
f 39//43 47//43 46//43
f 39//44 48//44 47//44
f 52//45 48//45 39//45
f 48//46 50//46 49//46
f 52//47 50//47 48//47
f 50//48 52//48 51//48
usemtl assumed_wall
f 1//49 28//49 2//49
f 1//50 27//50 28//50
f 2//51 29//51 3//51
f 2//52 28//52 29//52
f 3//53 30//53 4//53
f 3//54 29//54 30//54
f 4//55 31//55 5//55
f 4//56 30//56 31//56
f 5//57 32//57 6//57
f 5//58 31//58 32//58
f 6//59 33//59 7//59
f 6//60 32//60 33//60
f 7//61 34//61 8//61
f 7//62 33//62 34//62
f 8//63 35//63 9//63
f 8//64 34//64 35//64
f 9//65 36//65 10//65
f 9//66 35//66 36//66
f 10//67 37//67 11//67
f 10//68 36//68 37//68
f 11//69 38//69 12//69
f 11//70 37//70 38//70
f 12//71 39//71 13//71
f 12//72 38//72 39//72
f 13//73 40//73 14//73
f 13//74 39//74 40//74
f 14//75 41//75 15//75
f 14//76 40//76 41//76
f 15//77 42//77 16//77
f 15//78 41//78 42//78
f 16//79 43//79 17//79
f 16//80 42//80 43//80
f 17//81 44//81 18//81
f 17//82 43//82 44//82
f 18//83 45//83 19//83
f 18//84 44//84 45//84
f 19//85 46//85 20//85
f 19//86 45//86 46//86
f 20//87 47//87 21//87
f 20//88 46//88 47//88
f 21//89 48//89 22//89
f 21//90 47//90 48//90
f 22//91 49//91 23//91
f 22//92 48//92 49//92
f 23//93 50//93 24//93
f 23//94 49//94 50//94
f 24//95 51//95 25//95
f 24//96 50//96 51//96
f 25//97 52//97 26//97
f 25//98 51//98 52//98
f 26//99 27//99 1//99
f 26//100 52//100 27//100
