# construction_6998_assumed_A_Casa
# source A_Casa
# h_campo 0.000000
# modeled_height 6.000000
# height_kind assumed
# local_origin_world_x 172001.034850
# local_origin_world_y 402500.144600
mtllib construction_artifacts.mtl

o construction_6998_assumed_A_Casa
v 0.101500 -22.276000 0.000000
v 0.053500 -20.838000 0.000000
v -3.868500 -21.026000 0.000000
v -3.385500 -31.240000 0.000000
v -5.745500 -31.335000 0.000000
v -6.124500 -32.775000 0.000000
v -10.068500 -32.974000 0.000000
v -10.283500 -32.042000 0.000000
v -16.847500 -32.124000 0.000000
v -17.723500 -22.022000 0.000000
v -4.913500 -21.186000 0.000000
v -5.284500 -16.028000 0.000000
v -22.457500 -15.334000 0.000000
v -22.999500 -8.784000 0.000000
v -22.782500 5.006000 0.000000
v -21.354500 5.009000 0.000000
v -21.126500 13.854000 0.000000
v -18.198500 21.445000 0.000000
v -12.136500 29.684000 0.000000
v -8.345500 32.974000 0.000000
v -2.004500 26.515000 0.000000
v -7.676500 19.906000 0.000000
v -10.342500 15.709000 0.000000
v -10.740500 12.865000 0.000000
v -8.919500 12.655000 0.000000
v -8.697500 3.552000 0.000000
v -9.901500 -6.025000 0.000000
v -6.799500 -6.591000 0.000000
v -6.761500 -8.176000 0.000000
v -1.261500 -10.468000 0.000000
v -0.679500 -14.849000 0.000000
v 18.275500 -18.630000 0.000000
v 17.873500 -25.137000 0.000000
v 22.999500 -25.823000 0.000000
v 22.712500 -28.049000 0.000000
v 17.418500 -27.610000 0.000000
v 16.850500 -30.028000 0.000000
v 3.248500 -27.956000 0.000000
v 3.709500 -22.696000 0.000000
v 0.101500 -22.276000 6.000000
v 0.053500 -20.838000 6.000000
v -3.868500 -21.026000 6.000000
v -3.385500 -31.240000 6.000000
v -5.745500 -31.335000 6.000000
v -6.124500 -32.775000 6.000000
v -10.068500 -32.974000 6.000000
v -10.283500 -32.042000 6.000000
v -16.847500 -32.124000 6.000000
v -17.723500 -22.022000 6.000000
v -4.913500 -21.186000 6.000000
v -5.284500 -16.028000 6.000000
v -22.457500 -15.334000 6.000000
v -22.999500 -8.784000 6.000000
v -22.782500 5.006000 6.000000
v -21.354500 5.009000 6.000000
v -21.126500 13.854000 6.000000
v -18.198500 21.445000 6.000000
v -12.136500 29.684000 6.000000
v -8.345500 32.974000 6.000000
v -2.004500 26.515000 6.000000
v -7.676500 19.906000 6.000000
v -10.342500 15.709000 6.000000
v -10.740500 12.865000 6.000000
v -8.919500 12.655000 6.000000
v -8.697500 3.552000 6.000000
v -9.901500 -6.025000 6.000000
v -6.799500 -6.591000 6.000000
v -6.761500 -8.176000 6.000000
v -1.261500 -10.468000 6.000000
v -0.679500 -14.849000 6.000000
v 18.275500 -18.630000 6.000000
v 17.873500 -25.137000 6.000000
v 22.999500 -25.823000 6.000000
v 22.712500 -28.049000 6.000000
v 17.418500 -27.610000 6.000000
v 16.850500 -30.028000 6.000000
v 3.248500 -27.956000 6.000000
v 3.709500 -22.696000 6.000000
vn 0.000000 0.000000 -1.000000
vn 0.000000 -0.000000 -1.000000
vn 0.000000 0.000000 -1.000000
vn 0.000000 0.000000 -1.000000
vn 0.000000 0.000000 -1.000000
vn 0.000000 0.000000 -1.000000
vn 0.000000 0.000000 -1.000000
vn 0.000000 0.000000 -1.000000
vn -0.000000 0.000000 -1.000000
vn -0.000000 0.000000 -1.000000
vn 0.000000 0.000000 -1.000000
vn 0.000000 0.000000 -1.000000
vn 0.000000 0.000000 -1.000000
vn 0.000000 0.000000 -1.000000
vn 0.000000 0.000000 -1.000000
vn 0.000000 0.000000 -1.000000
vn 0.000000 0.000000 -1.000000
vn 0.000000 0.000000 -1.000000
vn 0.000000 0.000000 -1.000000
vn 0.000000 0.000000 -1.000000
vn 0.000000 0.000000 -1.000000
vn 0.000000 0.000000 -1.000000
vn 0.000000 0.000000 -1.000000
vn 0.000000 0.000000 -1.000000
vn 0.000000 0.000000 -1.000000
vn 0.000000 0.000000 -1.000000
vn 0.000000 0.000000 -1.000000
vn 0.000000 0.000000 -1.000000
vn 0.000000 0.000000 -1.000000
vn 0.000000 0.000000 -1.000000
vn 0.000000 0.000000 -1.000000
vn 0.000000 0.000000 -1.000000
vn 0.000000 0.000000 -1.000000
vn 0.000000 0.000000 -1.000000
vn 0.000000 0.000000 -1.000000
vn 0.000000 0.000000 -1.000000
vn 0.000000 0.000000 -1.000000
vn 0.000000 0.000000 1.000000
vn 0.000000 0.000000 1.000000
vn 0.000000 0.000000 1.000000
vn 0.000000 0.000000 1.000000
vn 0.000000 0.000000 1.000000
vn 0.000000 0.000000 1.000000
vn 0.000000 -0.000000 1.000000
vn 0.000000 0.000000 1.000000
vn 0.000000 0.000000 1.000000
vn 0.000000 0.000000 1.000000
vn 0.000000 0.000000 1.000000
vn 0.000000 0.000000 1.000000
vn 0.000000 0.000000 1.000000
vn 0.000000 0.000000 1.000000
vn 0.000000 0.000000 1.000000
vn 0.000000 0.000000 1.000000
vn 0.000000 0.000000 1.000000
vn 0.000000 0.000000 1.000000
vn 0.000000 0.000000 1.000000
vn 0.000000 0.000000 1.000000
vn 0.000000 0.000000 1.000000
vn 0.000000 0.000000 1.000000
vn 0.000000 0.000000 1.000000
vn -0.000000 0.000000 1.000000
vn 0.000000 0.000000 1.000000
vn 0.000000 0.000000 1.000000
vn 0.000000 0.000000 1.000000
vn 0.000000 0.000000 1.000000
vn 0.000000 0.000000 1.000000
vn 0.000000 0.000000 1.000000
vn 0.000000 -0.000000 1.000000
vn -0.000000 0.000000 1.000000
vn 0.000000 0.000000 1.000000
vn 0.000000 0.000000 1.000000
vn 0.000000 0.000000 1.000000
vn 0.000000 0.000000 1.000000
vn 0.000000 0.000000 1.000000
vn -0.999443 -0.033361 0.000000
vn -0.999443 -0.033361 0.000000
vn 0.047880 -0.998853 0.000000
vn 0.047880 -0.998853 0.000000
vn 0.998884 0.047235 0.000000
vn 0.998884 0.047235 -0.000000
vn 0.040222 -0.999191 0.000000
vn 0.040222 -0.999191 0.000000
vn 0.967066 -0.254526 0.000000
vn 0.967066 -0.254526 0.000000
vn 0.050392 -0.998730 0.000000
vn 0.050392 -0.998730 0.000000
vn -0.974409 -0.224783 0.000000
vn -0.974409 -0.224783 0.000000
vn 0.012491 -0.999922 0.000000
vn 0.012491 -0.999922 0.000000
vn -0.996261 -0.086391 0.000000
vn -0.996261 -0.086391 0.000000
vn -0.065123 0.997877 0.000000
vn -0.065123 0.997877 0.000000
vn -0.997423 -0.071742 0.000000
vn -0.997423 -0.071742 0.000000
vn -0.040379 -0.999184 0.000000
vn -0.040379 -0.999184 0.000000
vn -0.996594 -0.082466 0.000000
vn -0.996594 -0.082466 0.000000
vn -0.999876 0.015734 0.000000
vn -0.999876 0.015734 0.000000
vn -0.002101 0.999998 0.000000
vn -0.002101 0.999998 0.000000
vn -0.999668 0.025769 0.000000
vn -0.999668 0.025769 0.000000
vn -0.933000 0.359877 0.000000
vn -0.933000 0.359877 0.000000
vn -0.805468 0.592639 0.000000
vn -0.805468 0.592639 0.000000
vn -0.655439 0.755249 0.000000
vn -0.655439 0.755249 0.000000
vn 0.713595 0.700558 0.000000
vn 0.713595 0.700558 -0.000000
vn 0.758851 -0.651264 0.000000
vn 0.758851 -0.651264 0.000000
vn 0.844100 -0.536186 0.000000
vn 0.844100 -0.536186 0.000000
vn 0.990349 -0.138593 0.000000
vn 0.990349 -0.138593 0.000000
vn 0.114562 0.993416 0.000000
vn 0.114562 0.993416 -0.000000
vn 0.999703 0.024380 0.000000
vn 0.999703 0.024380 -0.000000
vn 0.992190 -0.124736 0.000000
vn 0.992190 -0.124736 0.000000
vn 0.179499 0.983758 0.000000
vn 0.179499 0.983758 -0.000000
vn 0.999713 0.023968 0.000000
vn 0.999713 0.023968 -0.000000
vn 0.384663 0.923057 0.000000
vn 0.384663 0.923057 -0.000000
vn 0.991291 0.131689 0.000000
vn 0.991291 0.131689 -0.000000
vn 0.195619 0.980680 0.000000
vn 0.195619 0.980680 -0.000000
vn 0.998097 -0.061662 0.000000
vn 0.998097 -0.061662 0.000000
vn 0.132645 0.991164 0.000000
vn 0.132645 0.991164 -0.000000
vn 0.991791 -0.127872 0.000000
vn 0.991791 -0.127872 0.000000
vn -0.082640 -0.996579 0.000000
vn -0.082640 -0.996579 0.000000
vn 0.973502 -0.228680 0.000000
vn 0.973502 -0.228680 0.000000
vn -0.150593 -0.988596 0.000000
vn -0.150593 -0.988596 0.000000
vn -0.996181 0.087308 0.000000
vn -0.996181 0.087308 0.000000
vn -0.115627 -0.993293 0.000000
vn -0.115627 -0.993293 0.000000
usemtl assumed_base
f 39//1 1//1 2//1
f 3//2 4//2 5//2
f 3//3 5//3 6//3
f 3//4 6//4 7//4
f 3//5 7//5 8//5
f 3//6 8//6 9//6
f 9//7 10//7 11//7
f 3//8 9//8 11//8
f 3//9 11//9 12//9
f 2//10 3//10 12//10
f 39//11 2//11 12//11
f 12//12 13//12 14//12
f 12//13 14//13 15//13
f 39//14 12//14 15//14
f 39//15 15//15 16//15
f 16//16 17//16 18//16
f 16//17 18//17 19//17
f 16//18 19//18 20//18
f 16//19 20//19 21//19
f 16//20 21//20 22//20
f 16//21 22//21 23//21
f 16//22 23//22 24//22
f 16//23 24//23 25//23
f 16//24 25//24 26//24
f 16//25 26//25 27//25
f 39//26 16//26 27//26
f 27//27 28//27 29//27
f 39//28 27//28 29//28
f 29//29 30//29 31//29
f 39//30 29//30 31//30
f 39//31 31//31 32//31
f 39//32 32//32 33//32
f 33//33 34//33 35//33
f 39//34 33//34 35//34
f 39//35 35//35 36//35
f 39//36 36//36 37//36
f 37//37 38//37 39//37
usemtl assumed_roof
f 78//38 41//38 40//38
f 42//39 44//39 43//39
f 42//40 45//40 44//40
f 42//41 46//41 45//41
f 42//42 47//42 46//42
f 42//43 48//43 47//43
f 48//44 50//44 49//44
f 42//45 50//45 48//45
f 42//46 51//46 50//46
f 41//47 51//47 42//47
f 78//48 51//48 41//48
f 51//49 53//49 52//49
f 51//50 54//50 53//50
f 78//51 54//51 51//51
f 78//52 55//52 54//52
f 55//53 57//53 56//53
f 55//54 58//54 57//54
f 55//55 59//55 58//55
f 55//56 60//56 59//56
f 55//57 61//57 60//57
f 55//58 62//58 61//58
f 55//59 63//59 62//59
f 55//60 64//60 63//60
f 55//61 65//61 64//61
f 55//62 66//62 65//62
f 78//63 66//63 55//63
f 66//64 68//64 67//64
f 78//65 68//65 66//65
f 68//66 70//66 69//66
f 78//67 70//67 68//67
f 78//68 71//68 70//68
f 78//69 72//69 71//69
f 72//70 74//70 73//70
f 78//71 74//71 72//71
f 78//72 75//72 74//72
f 78//73 76//73 75//73
f 76//74 78//74 77//74
usemtl assumed_wall
f 1//75 41//75 2//75
f 1//76 40//76 41//76
f 2//77 42//77 3//77
f 2//78 41//78 42//78
f 3//79 43//79 4//79
f 3//80 42//80 43//80
f 4//81 44//81 5//81
f 4//82 43//82 44//82
f 5//83 45//83 6//83
f 5//84 44//84 45//84
f 6//85 46//85 7//85
f 6//86 45//86 46//86
f 7//87 47//87 8//87
f 7//88 46//88 47//88
f 8//89 48//89 9//89
f 8//90 47//90 48//90
f 9//91 49//91 10//91
f 9//92 48//92 49//92
f 10//93 50//93 11//93
f 10//94 49//94 50//94
f 11//95 51//95 12//95
f 11//96 50//96 51//96
f 12//97 52//97 13//97
f 12//98 51//98 52//98
f 13//99 53//99 14//99
f 13//100 52//100 53//100
f 14//101 54//101 15//101
f 14//102 53//102 54//102
f 15//103 55//103 16//103
f 15//104 54//104 55//104
f 16//105 56//105 17//105
f 16//106 55//106 56//106
f 17//107 57//107 18//107
f 17//108 56//108 57//108
f 18//109 58//109 19//109
f 18//110 57//110 58//110
f 19//111 59//111 20//111
f 19//112 58//112 59//112
f 20//113 60//113 21//113
f 20//114 59//114 60//114
f 21//115 61//115 22//115
f 21//116 60//116 61//116
f 22//117 62//117 23//117
f 22//118 61//118 62//118
f 23//119 63//119 24//119
f 23//120 62//120 63//120
f 24//121 64//121 25//121
f 24//122 63//122 64//122
f 25//123 65//123 26//123
f 25//124 64//124 65//124
f 26//125 66//125 27//125
f 26//126 65//126 66//126
f 27//127 67//127 28//127
f 27//128 66//128 67//128
f 28//129 68//129 29//129
f 28//130 67//130 68//130
f 29//131 69//131 30//131
f 29//132 68//132 69//132
f 30//133 70//133 31//133
f 30//134 69//134 70//134
f 31//135 71//135 32//135
f 31//136 70//136 71//136
f 32//137 72//137 33//137
f 32//138 71//138 72//138
f 33//139 73//139 34//139
f 33//140 72//140 73//140
f 34//141 74//141 35//141
f 34//142 73//142 74//142
f 35//143 75//143 36//143
f 35//144 74//144 75//144
f 36//145 76//145 37//145
f 36//146 75//146 76//146
f 37//147 77//147 38//147
f 37//148 76//148 77//148
f 38//149 78//149 39//149
f 38//150 77//150 78//150
f 39//151 40//151 1//151
f 39//152 78//152 40//152
