# construction_0054_assumed_A_Estufa
# source A_Estufa
# h_campo 0.000000
# modeled_height 6.000000
# height_kind assumed
# local_origin_world_x 172001.034850
# local_origin_world_y 402500.144600
mtllib construction_artifacts.mtl

o construction_0054_assumed_A_Estufa
v 1.544500 21.066000 0.000000
v 20.313500 5.464000 0.000000
v -1.419500 -21.066000 0.000000
v -20.313500 -5.703000 0.000000
v -15.354500 0.182000 0.000000
v -17.699500 2.433000 0.000000
v -9.171500 14.252000 0.000000
v -5.939500 11.542000 0.000000
v 1.544500 21.066000 6.000000
v 20.313500 5.464000 6.000000
v -1.419500 -21.066000 6.000000
v -20.313500 -5.703000 6.000000
v -15.354500 0.182000 6.000000
v -17.699500 2.433000 6.000000
v -9.171500 14.252000 6.000000
v -5.939500 11.542000 6.000000
vn 0.000000 0.000000 -1.000000
vn 0.000000 0.000000 -1.000000
vn 0.000000 0.000000 -1.000000
vn 0.000000 -0.000000 -1.000000
vn 0.000000 0.000000 -1.000000
vn 0.000000 0.000000 -1.000000
vn -0.000000 0.000000 1.000000
vn 0.000000 0.000000 1.000000
vn 0.000000 0.000000 1.000000
vn 0.000000 0.000000 1.000000
vn 0.000000 0.000000 1.000000
vn 0.000000 0.000000 1.000000
vn 0.639245 0.769003 0.000000
vn 0.639245 0.769003 -0.000000
vn 0.773577 -0.633703 0.000000
vn 0.773577 -0.633703 0.000000
vn -0.630880 -0.775880 0.000000
vn -0.630880 -0.775880 0.000000
vn -0.764706 0.644380 0.000000
vn -0.764706 0.644380 0.000000
vn -0.692500 -0.721418 0.000000
vn -0.692500 -0.721418 0.000000
vn -0.810938 0.585132 0.000000
vn -0.810938 0.585132 0.000000
vn 0.642513 0.766274 0.000000
vn 0.642513 0.766274 -0.000000
vn -0.786284 0.617865 0.000000
vn -0.786284 0.617865 0.000000
usemtl assumed_base
f 8//1 1//1 2//1
f 8//2 2//2 3//2
f 3//3 4//3 5//3
f 8//4 3//4 5//4
f 8//5 5//5 6//5
f 6//6 7//6 8//6
usemtl assumed_roof
f 16//7 10//7 9//7
f 16//8 11//8 10//8
f 11//9 13//9 12//9
f 16//10 13//10 11//10
f 16//11 14//11 13//11
f 14//12 16//12 15//12
usemtl assumed_wall
f 1//13 10//13 2//13
f 1//14 9//14 10//14
f 2//15 11//15 3//15
f 2//16 10//16 11//16
f 3//17 12//17 4//17
f 3//18 11//18 12//18
f 4//19 13//19 5//19
f 4//20 12//20 13//20
f 5//21 14//21 6//21
f 5//22 13//22 14//22
f 6//23 15//23 7//23
f 6//24 14//24 15//24
f 7//25 16//25 8//25
f 7//26 15//26 16//26
f 8//27 9//27 1//27
f 8//28 16//28 9//28
