# construction_2017_assumed_A_Casa
# source A_Casa
# h_campo 0.000000
# modeled_height 6.000000
# height_kind assumed
# local_origin_world_x 172001.034850
# local_origin_world_y 402500.144600
mtllib construction_artifacts.mtl

o construction_2017_assumed_A_Casa
v -3.245500 -3.766000 0.000000
v -2.101500 -1.579000 0.000000
v 1.023500 -2.264000 0.000000
v 3.386500 3.063000 0.000000
v 2.001500 5.454000 0.000000
v -0.268500 9.481000 0.000000
v -3.153500 7.678000 0.000000
v -8.830500 17.769000 0.000000
v 1.709500 22.984000 0.000000
v 3.579500 18.523000 0.000000
v 9.272500 21.897000 0.000000
v 7.830500 27.519000 0.000000
v 13.700500 29.116000 0.000000
v 15.815500 21.007000 0.000000
v 17.324500 18.214000 0.000000
v 10.155500 16.999000 0.000000
v 10.885500 7.031000 0.000000
v 10.955500 4.557000 0.000000
v 12.998500 3.838000 0.000000
v 15.693500 6.815000 0.000000
v 17.236500 3.188000 0.000000
v 17.192500 -1.976000 0.000000
v 16.781500 -3.863000 0.000000
v 13.406500 -2.221000 0.000000
v 11.566500 -6.633000 0.000000
v 14.911500 -8.307000 0.000000
v 13.275500 -13.569000 0.000000
v 5.615500 -29.116000 0.000000
v -3.003500 -26.827000 0.000000
v -1.270500 -22.848000 0.000000
v -3.175500 -21.633000 0.000000
v -4.658500 -22.010000 0.000000
v -6.690500 -20.084000 0.000000
v -5.014500 -17.419000 0.000000
v -8.637500 -15.700000 0.000000
v -8.673500 -14.216000 0.000000
v -17.324500 -11.741000 0.000000
v -14.331500 -0.833000 0.000000
v -15.431500 -0.203000 0.000000
v -14.545500 2.861000 0.000000
v -8.387500 1.244000 0.000000
v -9.035500 -2.115000 0.000000
v -3.245500 -3.766000 6.000000
v -2.101500 -1.579000 6.000000
v 1.023500 -2.264000 6.000000
v 3.386500 3.063000 6.000000
v 2.001500 5.454000 6.000000
v -0.268500 9.481000 6.000000
v -3.153500 7.678000 6.000000
v -8.830500 17.769000 6.000000
v 1.709500 22.984000 6.000000
v 3.579500 18.523000 6.000000
v 9.272500 21.897000 6.000000
v 7.830500 27.519000 6.000000
v 13.700500 29.116000 6.000000
v 15.815500 21.007000 6.000000
v 17.324500 18.214000 6.000000
v 10.155500 16.999000 6.000000
v 10.885500 7.031000 6.000000
v 10.955500 4.557000 6.000000
v 12.998500 3.838000 6.000000
v 15.693500 6.815000 6.000000
v 17.236500 3.188000 6.000000
v 17.192500 -1.976000 6.000000
v 16.781500 -3.863000 6.000000
v 13.406500 -2.221000 6.000000
v 11.566500 -6.633000 6.000000
v 14.911500 -8.307000 6.000000
v 13.275500 -13.569000 6.000000
v 5.615500 -29.116000 6.000000
v -3.003500 -26.827000 6.000000
v -1.270500 -22.848000 6.000000
v -3.175500 -21.633000 6.000000
v -4.658500 -22.010000 6.000000
v -6.690500 -20.084000 6.000000
v -5.014500 -17.419000 6.000000
v -8.637500 -15.700000 6.000000
v -8.673500 -14.216000 6.000000
v -17.324500 -11.741000 6.000000
v -14.331500 -0.833000 6.000000
v -15.431500 -0.203000 6.000000
v -14.545500 2.861000 6.000000
v -8.387500 1.244000 6.000000
v -9.035500 -2.115000 6.000000
vn 0.000000 0.000000 -1.000000
vn 0.000000 0.000000 -1.000000
vn -0.000000 0.000000 -1.000000
vn 0.000000 0.000000 -1.000000
vn 0.000000 0.000000 -1.000000
vn 0.000000 0.000000 -1.000000
vn 0.000000 0.000000 -1.000000
vn 0.000000 0.000000 -1.000000
vn 0.000000 0.000000 -1.000000
vn 0.000000 -0.000000 -1.000000
vn 0.000000 -0.000000 -1.000000
vn 0.000000 0.000000 -1.000000
vn 0.000000 0.000000 -1.000000
vn 0.000000 0.000000 -1.000000
vn 0.000000 0.000000 -1.000000
vn 0.000000 0.000000 -1.000000
vn 0.000000 0.000000 -1.000000
vn 0.000000 0.000000 -1.000000
vn 0.000000 0.000000 -1.000000
vn 0.000000 0.000000 -1.000000
vn 0.000000 0.000000 -1.000000
vn 0.000000 0.000000 -1.000000
vn 0.000000 0.000000 -1.000000
vn 0.000000 0.000000 -1.000000
vn 0.000000 0.000000 -1.000000
vn 0.000000 0.000000 -1.000000
vn 0.000000 0.000000 -1.000000
vn 0.000000 0.000000 -1.000000
vn 0.000000 0.000000 -1.000000
vn 0.000000 0.000000 -1.000000
vn -0.000000 0.000000 -1.000000
vn 0.000000 0.000000 -1.000000
vn 0.000000 0.000000 -1.000000
vn 0.000000 0.000000 -1.000000
vn 0.000000 0.000000 -1.000000
vn 0.000000 -0.000000 -1.000000
vn -0.000000 0.000000 -1.000000
vn 0.000000 0.000000 -1.000000
vn 0.000000 0.000000 -1.000000
vn 0.000000 0.000000 -1.000000
vn 0.000000 0.000000 1.000000
vn 0.000000 0.000000 1.000000
vn 0.000000 0.000000 1.000000
vn 0.000000 -0.000000 1.000000
vn 0.000000 0.000000 1.000000
vn 0.000000 -0.000000 1.000000
vn 0.000000 0.000000 1.000000
vn 0.000000 -0.000000 1.000000
vn 0.000000 0.000000 1.000000
vn 0.000000 0.000000 1.000000
vn 0.000000 0.000000 1.000000
vn 0.000000 0.000000 1.000000
vn 0.000000 0.000000 1.000000
vn 0.000000 0.000000 1.000000
vn 0.000000 0.000000 1.000000
vn 0.000000 0.000000 1.000000
vn -0.000000 0.000000 1.000000
vn 0.000000 0.000000 1.000000
vn 0.000000 0.000000 1.000000
vn 0.000000 0.000000 1.000000
vn 0.000000 0.000000 1.000000
vn 0.000000 0.000000 1.000000
vn -0.000000 0.000000 1.000000
vn 0.000000 0.000000 1.000000
vn 0.000000 0.000000 1.000000
vn 0.000000 0.000000 1.000000
vn 0.000000 0.000000 1.000000
vn 0.000000 0.000000 1.000000
vn 0.000000 0.000000 1.000000
vn 0.000000 0.000000 1.000000
vn 0.000000 0.000000 1.000000
vn 0.000000 0.000000 1.000000
vn 0.000000 0.000000 1.000000
vn 0.000000 0.000000 1.000000
vn 0.000000 0.000000 1.000000
vn 0.000000 0.000000 1.000000
vn 0.000000 0.000000 1.000000
vn 0.000000 0.000000 1.000000
vn 0.000000 0.000000 1.000000
vn 0.000000 0.000000 1.000000
vn -0.886093 0.463507 0.000000
vn -0.886093 0.463507 0.000000
vn 0.214116 0.976808 0.000000
vn 0.214116 0.976808 -0.000000
vn -0.914101 0.405486 0.000000
vn -0.914101 0.405486 0.000000
vn -0.865311 -0.501236 0.000000
vn -0.865311 -0.501236 0.000000
vn -0.871130 -0.491052 0.000000
vn -0.871130 -0.491052 0.000000
vn 0.529973 -0.848015 0.000000
vn 0.529973 -0.848015 0.000000
vn -0.871546 -0.490315 0.000000
vn -0.871546 -0.490315 0.000000
vn -0.443468 0.896290 0.000000
vn -0.443468 0.896290 0.000000
vn 0.922249 0.386596 0.000000
vn 0.922249 0.386596 -0.000000
vn -0.509844 0.860267 0.000000
vn -0.509844 0.860267 0.000000
vn -0.968645 -0.248450 0.000000
vn -0.968645 -0.248450 0.000000
vn -0.262519 0.964927 0.000000
vn -0.262519 0.964927 0.000000
vn 0.967629 0.252378 0.000000
vn 0.967629 0.252378 -0.000000
vn 0.879803 0.475339 0.000000
vn 0.879803 0.475339 -0.000000
vn 0.167097 -0.985940 0.000000
vn 0.167097 -0.985940 0.000000
vn 0.997329 0.073039 0.000000
vn 0.997329 0.073039 -0.000000
vn 0.999600 0.028283 0.000000
vn 0.999600 0.028283 -0.000000
vn 0.331975 0.943288 0.000000
vn 0.331975 0.943288 -0.000000
vn -0.741347 0.671122 0.000000
vn -0.741347 0.671122 0.000000
vn 0.920192 0.391468 0.000000
vn 0.920192 0.391468 -0.000000
vn 0.999964 -0.008520 0.000000
vn 0.999964 -0.008520 0.000000
vn 0.977092 -0.212817 0.000000
vn 0.977092 -0.212817 0.000000
vn -0.437489 -0.899224 0.000000
vn -0.437489 -0.899224 0.000000
vn 0.922953 -0.384912 0.000000
vn 0.922953 -0.384912 0.000000
vn 0.447534 0.894267 0.000000
vn 0.447534 0.894267 -0.000000
vn 0.954912 -0.296890 0.000000
vn 0.954912 -0.296890 0.000000
vn 0.897031 -0.441967 0.000000
vn 0.897031 -0.441967 0.000000
vn -0.256678 -0.966497 0.000000
vn -0.256678 -0.966497 0.000000
vn -0.916817 0.399307 0.000000
vn -0.916817 0.399307 0.000000
vn -0.537734 -0.843114 0.000000
vn -0.537734 -0.843114 0.000000
vn 0.246378 -0.969174 0.000000
vn 0.246378 -0.969174 0.000000
vn -0.687923 -0.725784 0.000000
vn -0.687923 -0.725784 0.000000
vn -0.846514 0.532367 0.000000
vn -0.846514 0.532367 0.000000
vn -0.428665 -0.903463 0.000000
vn -0.428665 -0.903463 0.000000
vn -0.999706 -0.024252 0.000000
vn -0.999706 -0.024252 0.000000
vn -0.275059 -0.961427 0.000000
vn -0.275059 -0.961427 0.000000
vn -0.964357 0.264606 0.000000
vn -0.964357 0.264606 0.000000
vn -0.496988 -0.867757 0.000000
vn -0.496988 -0.867757 0.000000
vn -0.960644 0.277784 0.000000
vn -0.960644 0.277784 0.000000
vn 0.253975 0.967211 0.000000
vn 0.253975 0.967211 -0.000000
vn 0.981896 -0.189422 0.000000
vn 0.981896 -0.189422 0.000000
vn 0.274217 0.961668 0.000000
vn 0.274217 0.961668 -0.000000
usemtl assumed_base
f 1//1 2//1 3//1
f 4//2 5//2 6//2
f 6//3 7//3 8//3
f 6//4 8//4 9//4
f 4//5 6//5 9//5
f 4//6 9//6 10//6
f 4//7 10//7 11//7
f 11//8 12//8 13//8
f 4//9 11//9 13//9
f 14//10 15//10 16//10
f 13//11 14//11 16//11
f 4//12 13//12 16//12
f 3//13 4//13 16//13
f 3//14 16//14 17//14
f 3//15 17//15 18//15
f 3//16 18//16 19//16
f 19//17 20//17 21//17
f 3//18 19//18 21//18
f 1//19 3//19 21//19
f 21//20 22//20 23//20
f 21//21 23//21 24//21
f 1//22 21//22 24//22
f 1//23 24//23 25//23
f 1//24 25//24 26//24
f 1//25 26//25 27//25
f 42//26 1//26 27//26
f 42//27 27//27 28//27
f 28//28 29//28 30//28
f 42//29 28//29 30//29
f 42//30 30//30 31//30
f 31//31 32//31 33//31
f 31//32 33//32 34//32
f 42//33 31//33 34//33
f 34//34 35//34 36//34
f 42//35 34//35 36//35
f 42//36 36//36 37//36
f 42//37 37//37 38//37
f 42//38 38//38 39//38
f 42//39 39//39 40//39
f 40//40 41//40 42//40
usemtl assumed_roof
f 43//41 45//41 44//41
f 46//42 48//42 47//42
f 48//43 50//43 49//43
f 48//44 51//44 50//44
f 46//45 51//45 48//45
f 46//46 52//46 51//46
f 46//47 53//47 52//47
f 53//48 55//48 54//48
f 46//49 55//49 53//49
f 56//50 58//50 57//50
f 55//51 58//51 56//51
f 46//52 58//52 55//52
f 45//53 58//53 46//53
f 45//54 59//54 58//54
f 45//55 60//55 59//55
f 45//56 61//56 60//56
f 61//57 63//57 62//57
f 45//58 63//58 61//58
f 43//59 63//59 45//59
f 63//60 65//60 64//60
f 63//61 66//61 65//61
f 43//62 66//62 63//62
f 43//63 67//63 66//63
f 43//64 68//64 67//64
f 43//65 69//65 68//65
f 84//66 69//66 43//66
f 84//67 70//67 69//67
f 70//68 72//68 71//68
f 84//69 72//69 70//69
f 84//70 73//70 72//70
f 73//71 75//71 74//71
f 73//72 76//72 75//72
f 84//73 76//73 73//73
f 76//74 78//74 77//74
f 84//75 78//75 76//75
f 84//76 79//76 78//76
f 84//77 80//77 79//77
f 84//78 81//78 80//78
f 84//79 82//79 81//79
f 82//80 84//80 83//80
usemtl assumed_wall
f 1//81 44//81 2//81
f 1//82 43//82 44//82
f 2//83 45//83 3//83
f 2//84 44//84 45//84
f 3//85 46//85 4//85
f 3//86 45//86 46//86
f 4//87 47//87 5//87
f 4//88 46//88 47//88
f 5//89 48//89 6//89
f 5//90 47//90 48//90
f 6//91 49//91 7//91
f 6//92 48//92 49//92
f 7//93 50//93 8//93
f 7//94 49//94 50//94
f 8//95 51//95 9//95
f 8//96 50//96 51//96
f 9//97 52//97 10//97
f 9//98 51//98 52//98
f 10//99 53//99 11//99
f 10//100 52//100 53//100
f 11//101 54//101 12//101
f 11//102 53//102 54//102
f 12//103 55//103 13//103
f 12//104 54//104 55//104
f 13//105 56//105 14//105
f 13//106 55//106 56//106
f 14//107 57//107 15//107
f 14//108 56//108 57//108
f 15//109 58//109 16//109
f 15//110 57//110 58//110
f 16//111 59//111 17//111
f 16//112 58//112 59//112
f 17//113 60//113 18//113
f 17//114 59//114 60//114
f 18//115 61//115 19//115
f 18//116 60//116 61//116
f 19//117 62//117 20//117
f 19//118 61//118 62//118
f 20//119 63//119 21//119
f 20//120 62//120 63//120
f 21//121 64//121 22//121
f 21//122 63//122 64//122
f 22//123 65//123 23//123
f 22//124 64//124 65//124
f 23//125 66//125 24//125
f 23//126 65//126 66//126
f 24//127 67//127 25//127
f 24//128 66//128 67//128
f 25//129 68//129 26//129
f 25//130 67//130 68//130
f 26//131 69//131 27//131
f 26//132 68//132 69//132
f 27//133 70//133 28//133
f 27//134 69//134 70//134
f 28//135 71//135 29//135
f 28//136 70//136 71//136
f 29//137 72//137 30//137
f 29//138 71//138 72//138
f 30//139 73//139 31//139
f 30//140 72//140 73//140
f 31//141 74//141 32//141
f 31//142 73//142 74//142
f 32//143 75//143 33//143
f 32//144 74//144 75//144
f 33//145 76//145 34//145
f 33//146 75//146 76//146
f 34//147 77//147 35//147
f 34//148 76//148 77//148
f 35//149 78//149 36//149
f 35//150 77//150 78//150
f 36//151 79//151 37//151
f 36//152 78//152 79//152
f 37//153 80//153 38//153
f 37//154 79//154 80//154
f 38//155 81//155 39//155
f 38//156 80//156 81//156
f 39//157 82//157 40//157
f 39//158 81//158 82//158
f 40//159 83//159 41//159
f 40//160 82//160 83//160
f 41//161 84//161 42//161
f 41//162 83//162 84//162
f 42//163 43//163 1//163
f 42//164 84//164 43//164
