# construction_6750_assumed_A_Casa
# source A_Casa
# h_campo 0.000000
# modeled_height 6.000000
# height_kind assumed
# local_origin_world_x 172001.034850
# local_origin_world_y 402500.144600
mtllib construction_artifacts.mtl

o construction_6750_assumed_A_Casa
v 8.017500 3.283000 0.000000
v 7.416500 1.867000 0.000000
v 6.329500 2.505000 0.000000
v 5.482500 1.513000 0.000000
v 2.467500 2.936000 0.000000
v 7.609500 11.859000 0.000000
v 13.329500 7.922000 0.000000
v 12.783500 6.859000 0.000000
v 15.191500 5.420000 0.000000
v 14.289500 4.126000 0.000000
v 22.969500 -2.159000 0.000000
v 16.106500 -11.859000 0.000000
v 9.734500 -6.903000 0.000000
v 7.606500 -10.414000 0.000000
v 2.527500 -6.478000 0.000000
v -0.261500 -9.600000 0.000000
v -2.604500 -7.740000 0.000000
v -4.726500 -10.729000 0.000000
v -8.935500 -7.293000 0.000000
v -5.256500 -2.464000 0.000000
v -10.354500 0.032000 0.000000
v -11.216500 -1.431000 0.000000
v -18.897500 4.015000 0.000000
v -18.311500 5.001000 0.000000
v -22.969500 8.283000 0.000000
v -20.573500 11.040000 0.000000
v -16.188500 7.484000 0.000000
v -11.255500 3.845000 0.000000
v -9.698500 5.611000 0.000000
v -1.273500 -0.174000 0.000000
v -3.242500 -2.524000 0.000000
v -0.862500 -4.098000 0.000000
v 1.396500 -0.319000 0.000000
v 7.662500 -3.690000 0.000000
v 10.504500 0.233000 0.000000
v 9.927500 0.569000 0.000000
v 10.547500 2.196000 0.000000
v 8.017500 3.283000 6.000000
v 7.416500 1.867000 6.000000
v 6.329500 2.505000 6.000000
v 5.482500 1.513000 6.000000
v 2.467500 2.936000 6.000000
v 7.609500 11.859000 6.000000
v 13.329500 7.922000 6.000000
v 12.783500 6.859000 6.000000
v 15.191500 5.420000 6.000000
v 14.289500 4.126000 6.000000
v 22.969500 -2.159000 6.000000
v 16.106500 -11.859000 6.000000
v 9.734500 -6.903000 6.000000
v 7.606500 -10.414000 6.000000
v 2.527500 -6.478000 6.000000
v -0.261500 -9.600000 6.000000
v -2.604500 -7.740000 6.000000
v -4.726500 -10.729000 6.000000
v -8.935500 -7.293000 6.000000
v -5.256500 -2.464000 6.000000
v -10.354500 0.032000 6.000000
v -11.216500 -1.431000 6.000000
v -18.897500 4.015000 6.000000
v -18.311500 5.001000 6.000000
v -22.969500 8.283000 6.000000
v -20.573500 11.040000 6.000000
v -16.188500 7.484000 6.000000
v -11.255500 3.845000 6.000000
v -9.698500 5.611000 6.000000
v -1.273500 -0.174000 6.000000
v -3.242500 -2.524000 6.000000
v -0.862500 -4.098000 6.000000
v 1.396500 -0.319000 6.000000
v 7.662500 -3.690000 6.000000
v 10.504500 0.233000 6.000000
v 9.927500 0.569000 6.000000
v 10.547500 2.196000 6.000000
vn 0.000000 0.000000 -1.000000
vn -0.000000 0.000000 -1.000000
vn 0.000000 0.000000 -1.000000
vn -0.000000 0.000000 -1.000000
vn 0.000000 0.000000 -1.000000
vn 0.000000 0.000000 -1.000000
vn 0.000000 0.000000 -1.000000
vn 0.000000 0.000000 -1.000000
vn 0.000000 0.000000 -1.000000
vn 0.000000 0.000000 -1.000000
vn 0.000000 0.000000 -1.000000
vn -0.000000 0.000000 -1.000000
vn 0.000000 0.000000 -1.000000
vn -0.000000 0.000000 -1.000000
vn 0.000000 0.000000 -1.000000
vn -0.000000 0.000000 -1.000000
vn -0.000000 0.000000 -1.000000
vn 0.000000 0.000000 -1.000000
vn 0.000000 0.000000 -1.000000
vn 0.000000 0.000000 -1.000000
vn 0.000000 0.000000 -1.000000
vn 0.000000 0.000000 -1.000000
vn 0.000000 0.000000 -1.000000
vn 0.000000 0.000000 -1.000000
vn 0.000000 0.000000 -1.000000
vn 0.000000 0.000000 -1.000000
vn 0.000000 0.000000 -1.000000
vn 0.000000 0.000000 -1.000000
vn 0.000000 0.000000 -1.000000
vn 0.000000 0.000000 -1.000000
vn 0.000000 0.000000 -1.000000
vn 0.000000 0.000000 -1.000000
vn 0.000000 0.000000 -1.000000
vn 0.000000 -0.000000 -1.000000
vn 0.000000 0.000000 -1.000000
vn 0.000000 0.000000 1.000000
vn 0.000000 0.000000 1.000000
vn 0.000000 0.000000 1.000000
vn 0.000000 0.000000 1.000000
vn 0.000000 0.000000 1.000000
vn 0.000000 0.000000 1.000000
vn 0.000000 -0.000000 1.000000
vn 0.000000 0.000000 1.000000
vn 0.000000 0.000000 1.000000
vn -0.000000 0.000000 1.000000
vn 0.000000 0.000000 1.000000
vn 0.000000 0.000000 1.000000
vn 0.000000 0.000000 1.000000
vn 0.000000 0.000000 1.000000
vn 0.000000 0.000000 1.000000
vn 0.000000 0.000000 1.000000
vn 0.000000 0.000000 1.000000
vn 0.000000 0.000000 1.000000
vn 0.000000 0.000000 1.000000
vn 0.000000 0.000000 1.000000
vn 0.000000 0.000000 1.000000
vn -0.000000 0.000000 1.000000
vn 0.000000 0.000000 1.000000
vn -0.000000 0.000000 1.000000
vn 0.000000 0.000000 1.000000
vn 0.000000 0.000000 1.000000
vn 0.000000 0.000000 1.000000
vn 0.000000 0.000000 1.000000
vn 0.000000 0.000000 1.000000
vn 0.000000 0.000000 1.000000
vn 0.000000 0.000000 1.000000
vn 0.000000 0.000000 1.000000
vn 0.000000 0.000000 1.000000
vn 0.000000 0.000000 1.000000
vn 0.000000 -0.000000 1.000000
vn 0.920518 -0.390700 0.000000
vn 0.920518 -0.390700 0.000000
vn -0.506188 -0.862423 0.000000
vn -0.506188 -0.862423 0.000000
vn 0.760500 -0.649338 0.000000
vn 0.760500 -0.649338 0.000000
vn -0.426822 -0.904335 0.000000
vn -0.426822 -0.904335 0.000000
vn -0.866433 0.499294 0.000000
vn -0.866433 0.499294 0.000000
vn 0.566969 0.823739 0.000000
vn 0.566969 0.823739 -0.000000
vn 0.889521 -0.456894 0.000000
vn 0.889521 -0.456894 0.000000
vn 0.512975 0.858404 0.000000
vn 0.512975 0.858404 -0.000000
vn 0.820362 -0.571844 0.000000
vn 0.820362 -0.571844 0.000000
vn 0.586478 0.809965 0.000000
vn 0.586478 0.809965 -0.000000
vn 0.816335 -0.577578 0.000000
vn 0.816335 -0.577578 0.000000
vn -0.613941 -0.789352 0.000000
vn -0.613941 -0.789352 0.000000
vn 0.855185 -0.518323 0.000000
vn 0.855185 -0.518323 0.000000
vn -0.612550 -0.790432 0.000000
vn -0.612550 -0.790432 0.000000
vn 0.745760 -0.666215 0.000000
vn 0.745760 -0.666215 0.000000
vn -0.621756 -0.783211 0.000000
vn -0.621756 -0.783211 0.000000
vn 0.815407 -0.578887 0.000000
vn 0.815407 -0.578887 0.000000
vn -0.632386 -0.774654 0.000000
vn -0.632386 -0.774654 0.000000
vn -0.795451 0.606018 0.000000
vn -0.795451 0.606018 0.000000
vn -0.439728 -0.898131 0.000000
vn -0.439728 -0.898131 0.000000
vn 0.861571 -0.507638 0.000000
vn 0.861571 -0.507638 0.000000
vn -0.578392 -0.815759 0.000000
vn -0.578392 -0.815759 0.000000
vn -0.859639 0.510901 0.000000
vn -0.859639 0.510901 0.000000
vn -0.575980 -0.817464 0.000000
vn -0.575980 -0.817464 0.000000
vn -0.754794 0.655962 0.000000
vn -0.754794 0.655962 0.000000
vn 0.629866 0.776704 0.000000
vn 0.629866 0.776704 -0.000000
vn 0.593639 0.804732 0.000000
vn 0.593639 0.804732 -0.000000
vn -0.750098 0.661327 0.000000
vn -0.750098 0.661327 0.000000
vn 0.566051 0.824370 0.000000
vn 0.566051 0.824370 -0.000000
vn 0.766507 -0.642235 0.000000
vn 0.766507 -0.642235 0.000000
vn 0.551623 0.834093 0.000000
vn 0.551623 0.834093 -0.000000
vn -0.858334 0.513092 0.000000
vn -0.858334 0.513092 0.000000
vn 0.473773 0.880647 0.000000
vn 0.473773 0.880647 -0.000000
vn -0.809824 0.586673 0.000000
vn -0.809824 0.586673 0.000000
vn -0.503219 -0.864159 0.000000
vn -0.503219 -0.864159 0.000000
vn -0.934451 0.356091 0.000000
vn -0.934451 0.356091 0.000000
vn -0.394752 -0.918788 0.000000
vn -0.394752 -0.918788 0.000000
usemtl assumed_base
f 1//1 2//1 3//1
f 3//2 4//2 5//2
f 1//3 3//3 5//3
f 1//4 5//4 6//4
f 37//5 1//5 6//5
f 6//6 7//6 8//6
f 37//7 6//7 8//7
f 37//8 8//8 9//8
f 37//9 9//9 10//9
f 37//10 10//10 11//10
f 37//11 11//11 12//11
f 13//12 14//12 15//12
f 15//13 16//13 17//13
f 17//14 18//14 19//14
f 15//15 17//15 19//15
f 15//16 19//16 20//16
f 21//17 22//17 23//17
f 21//18 23//18 24//18
f 20//19 21//19 24//19
f 15//20 20//20 24//20
f 15//21 24//21 25//21
f 25//22 26//22 27//22
f 25//23 27//23 28//23
f 28//24 29//24 30//24
f 25//25 28//25 30//25
f 25//26 30//26 31//26
f 15//27 25//27 31//27
f 15//28 31//28 32//28
f 13//29 15//29 32//29
f 13//30 32//30 33//30
f 12//31 13//31 33//31
f 12//32 33//32 34//32
f 12//33 34//33 35//33
f 37//34 12//34 35//34
f 35//35 36//35 37//35
usemtl assumed_roof
f 38//36 40//36 39//36
f 40//37 42//37 41//37
f 38//38 42//38 40//38
f 38//39 43//39 42//39
f 74//40 43//40 38//40
f 43//41 45//41 44//41
f 74//42 45//42 43//42
f 74//43 46//43 45//43
f 74//44 47//44 46//44
f 74//45 48//45 47//45
f 74//46 49//46 48//46
f 50//47 52//47 51//47
f 52//48 54//48 53//48
f 54//49 56//49 55//49
f 52//50 56//50 54//50
f 52//51 57//51 56//51
f 58//52 60//52 59//52
f 58//53 61//53 60//53
f 57//54 61//54 58//54
f 52//55 61//55 57//55
f 52//56 62//56 61//56
f 62//57 64//57 63//57
f 62//58 65//58 64//58
f 65//59 67//59 66//59
f 62//60 67//60 65//60
f 62//61 68//61 67//61
f 52//62 68//62 62//62
f 52//63 69//63 68//63
f 50//64 69//64 52//64
f 50//65 70//65 69//65
f 49//66 70//66 50//66
f 49//67 71//67 70//67
f 49//68 72//68 71//68
f 74//69 72//69 49//69
f 72//70 74//70 73//70
usemtl assumed_wall
f 1//71 39//71 2//71
f 1//72 38//72 39//72
f 2//73 40//73 3//73
f 2//74 39//74 40//74
f 3//75 41//75 4//75
f 3//76 40//76 41//76
f 4//77 42//77 5//77
f 4//78 41//78 42//78
f 5//79 43//79 6//79
f 5//80 42//80 43//80
f 6//81 44//81 7//81
f 6//82 43//82 44//82
f 7//83 45//83 8//83
f 7//84 44//84 45//84
f 8//85 46//85 9//85
f 8//86 45//86 46//86
f 9//87 47//87 10//87
f 9//88 46//88 47//88
f 10//89 48//89 11//89
f 10//90 47//90 48//90
f 11//91 49//91 12//91
f 11//92 48//92 49//92
f 12//93 50//93 13//93
f 12//94 49//94 50//94
f 13//95 51//95 14//95
f 13//96 50//96 51//96
f 14//97 52//97 15//97
f 14//98 51//98 52//98
f 15//99 53//99 16//99
f 15//100 52//100 53//100
f 16//101 54//101 17//101
f 16//102 53//102 54//102
f 17//103 55//103 18//103
f 17//104 54//104 55//104
f 18//105 56//105 19//105
f 18//106 55//106 56//106
f 19//107 57//107 20//107
f 19//108 56//108 57//108
f 20//109 58//109 21//109
f 20//110 57//110 58//110
f 21//111 59//111 22//111
f 21//112 58//112 59//112
f 22//113 60//113 23//113
f 22//114 59//114 60//114
f 23//115 61//115 24//115
f 23//116 60//116 61//116
f 24//117 62//117 25//117
f 24//118 61//118 62//118
f 25//119 63//119 26//119
f 25//120 62//120 63//120
f 26//121 64//121 27//121
f 26//122 63//122 64//122
f 27//123 65//123 28//123
f 27//124 64//124 65//124
f 28//125 66//125 29//125
f 28//126 65//126 66//126
f 29//127 67//127 30//127
f 29//128 66//128 67//128
f 30//129 68//129 31//129
f 30//130 67//130 68//130
f 31//131 69//131 32//131
f 31//132 68//132 69//132
f 32//133 70//133 33//133
f 32//134 69//134 70//134
f 33//135 71//135 34//135
f 33//136 70//136 71//136
f 34//137 72//137 35//137
f 34//138 71//138 72//138
f 35//139 73//139 36//139
f 35//140 72//140 73//140
f 36//141 74//141 37//141
f 36//142 73//142 74//142
f 37//143 38//143 1//143
f 37//144 74//144 38//144
