# construction_5334_assumed_A_Casa
# source A_Casa
# h_campo 0.000000
# modeled_height 6.000000
# height_kind assumed
# local_origin_world_x 172001.034850
# local_origin_world_y 402500.144600
mtllib construction_artifacts.mtl

o construction_5334_assumed_A_Casa
v -29.109000 1.438500 0.000000
v -21.159000 3.474500 0.000000
v -20.478000 0.532500 0.000000
v 5.668000 7.219500 0.000000
v 3.844000 15.321500 0.000000
v -8.509000 12.223500 0.000000
v -15.595000 37.714500 0.000000
v 11.455000 44.937500 0.000000
v 15.891000 27.434500 0.000000
v 14.533000 26.874500 0.000000
v 28.686000 -24.646500 0.000000
v 29.109000 -26.560500 0.000000
v -10.612000 -36.864500 0.000000
v -8.983000 -42.985500 0.000000
v -16.715000 -44.937500 0.000000
v -21.595000 -27.484500 0.000000
v 15.909000 -17.272500 0.000000
v 11.916000 -2.245500 0.000000
v -25.695000 -12.018500 0.000000
v -29.109000 1.438500 6.000000
v -21.159000 3.474500 6.000000
v -20.478000 0.532500 6.000000
v 5.668000 7.219500 6.000000
v 3.844000 15.321500 6.000000
v -8.509000 12.223500 6.000000
v -15.595000 37.714500 6.000000
v 11.455000 44.937500 6.000000
v 15.891000 27.434500 6.000000
v 14.533000 26.874500 6.000000
v 28.686000 -24.646500 6.000000
v 29.109000 -26.560500 6.000000
v -10.612000 -36.864500 6.000000
v -8.983000 -42.985500 6.000000
v -16.715000 -44.937500 6.000000
v -21.595000 -27.484500 6.000000
v 15.909000 -17.272500 6.000000
v 11.916000 -2.245500 6.000000
v -25.695000 -12.018500 6.000000
vn 0.000000 0.000000 -1.000000
vn 0.000000 0.000000 -1.000000
vn 0.000000 0.000000 -1.000000
vn -0.000000 0.000000 -1.000000
vn 0.000000 0.000000 -1.000000
vn 0.000000 0.000000 -1.000000
vn 0.000000 0.000000 -1.000000
vn 0.000000 0.000000 -1.000000
vn 0.000000 0.000000 -1.000000
vn 0.000000 0.000000 -1.000000
vn 0.000000 -0.000000 -1.000000
vn -0.000000 0.000000 -1.000000
vn 0.000000 0.000000 -1.000000
vn -0.000000 0.000000 -1.000000
vn 0.000000 0.000000 -1.000000
vn 0.000000 0.000000 -1.000000
vn 0.000000 -0.000000 -1.000000
vn 0.000000 -0.000000 1.000000
vn 0.000000 0.000000 1.000000
vn 0.000000 0.000000 1.000000
vn 0.000000 0.000000 1.000000
vn 0.000000 -0.000000 1.000000
vn 0.000000 -0.000000 1.000000
vn 0.000000 0.000000 1.000000
vn 0.000000 0.000000 1.000000
vn -0.000000 0.000000 1.000000
vn 0.000000 0.000000 1.000000
vn 0.000000 0.000000 1.000000
vn 0.000000 0.000000 1.000000
vn 0.000000 0.000000 1.000000
vn 0.000000 0.000000 1.000000
vn 0.000000 0.000000 1.000000
vn 0.000000 0.000000 1.000000
vn 0.000000 0.000000 1.000000
vn -0.248094 0.968736 0.000000
vn -0.248094 0.968736 0.000000
vn 0.974240 0.225512 0.000000
vn 0.974240 0.225512 -0.000000
vn -0.247781 0.968816 0.000000
vn -0.247781 0.968816 0.000000
vn -0.975583 -0.219633 0.000000
vn -0.975583 -0.219633 0.000000
vn 0.243256 -0.969962 0.000000
vn 0.243256 -0.969962 0.000000
vn -0.963468 -0.267825 0.000000
vn -0.963468 -0.267825 0.000000
vn -0.257985 0.966149 0.000000
vn -0.257985 0.966149 0.000000
vn 0.969352 0.245675 0.000000
vn 0.969352 0.245675 -0.000000
vn 0.381229 -0.924481 0.000000
vn 0.381229 -0.924481 0.000000
vn 0.964278 0.264891 0.000000
vn 0.964278 0.264891 -0.000000
vn 0.976438 0.215796 0.000000
vn 0.976438 0.215796 -0.000000
vn 0.251098 -0.967962 0.000000
vn 0.251098 -0.967962 0.000000
vn 0.966363 0.257181 0.000000
vn 0.966363 0.257181 -0.000000
vn 0.244777 -0.969579 0.000000
vn 0.244777 -0.969579 0.000000
vn -0.963062 -0.269280 0.000000
vn -0.963062 -0.269280 0.000000
vn -0.262726 0.964871 0.000000
vn -0.262726 0.964871 0.000000
vn -0.966462 -0.256810 0.000000
vn -0.966462 -0.256810 0.000000
vn 0.251493 -0.967859 0.000000
vn 0.251493 -0.967859 0.000000
vn -0.969293 -0.245907 0.000000
vn -0.969293 -0.245907 0.000000
usemtl assumed_base
f 19//1 1//1 2//1
f 19//2 2//2 3//2
f 19//3 3//3 4//3
f 5//4 6//4 7//4
f 5//5 7//5 8//5
f 4//6 5//6 8//6
f 8//7 9//7 10//7
f 4//8 8//8 10//8
f 4//9 10//9 11//9
f 4//10 11//10 12//10
f 13//11 14//11 15//11
f 13//12 15//12 16//12
f 12//13 13//13 16//13
f 12//14 16//14 17//14
f 12//15 17//15 18//15
f 4//16 12//16 18//16
f 4//17 18//17 19//17
usemtl assumed_roof
f 38//18 21//18 20//18
f 38//19 22//19 21//19
f 38//20 23//20 22//20
f 24//21 26//21 25//21
f 24//22 27//22 26//22
f 23//23 27//23 24//23
f 27//24 29//24 28//24
f 23//25 29//25 27//25
f 23//26 30//26 29//26
f 23//27 31//27 30//27
f 32//28 34//28 33//28
f 32//29 35//29 34//29
f 31//30 35//30 32//30
f 31//31 36//31 35//31
f 31//32 37//32 36//32
f 23//33 37//33 31//33
f 23//34 38//34 37//34
usemtl assumed_wall
f 1//35 21//35 2//35
f 1//36 20//36 21//36
f 2//37 22//37 3//37
f 2//38 21//38 22//38
f 3//39 23//39 4//39
f 3//40 22//40 23//40
f 4//41 24//41 5//41
f 4//42 23//42 24//42
f 5//43 25//43 6//43
f 5//44 24//44 25//44
f 6//45 26//45 7//45
f 6//46 25//46 26//46
f 7//47 27//47 8//47
f 7//48 26//48 27//48
f 8//49 28//49 9//49
f 8//50 27//50 28//50
f 9//51 29//51 10//51
f 9//52 28//52 29//52
f 10//53 30//53 11//53
f 10//54 29//54 30//54
f 11//55 31//55 12//55
f 11//56 30//56 31//56
f 12//57 32//57 13//57
f 12//58 31//58 32//58
f 13//59 33//59 14//59
f 13//60 32//60 33//60
f 14//61 34//61 15//61
f 14//62 33//62 34//62
f 15//63 35//63 16//63
f 15//64 34//64 35//64
f 16//65 36//65 17//65
f 16//66 35//66 36//66
f 17//67 37//67 18//67
f 17//68 36//68 37//68
f 18//69 38//69 19//69
f 18//70 37//70 38//70
f 19//71 20//71 1//71
f 19//72 38//72 20//72
