# construction_3108_assumed_A_Casa
# source A_Casa
# h_campo 0.000000
# modeled_height 6.000000
# height_kind assumed
# local_origin_world_x 172001.034850
# local_origin_world_y 402500.144600
mtllib construction_artifacts.mtl

o construction_3108_assumed_A_Casa
v -3.774000 9.414000 0.000000
v -3.697000 10.008000 0.000000
v 12.616000 0.716000 0.000000
v 6.818000 -10.598000 0.000000
v 4.482000 -9.011000 0.000000
v 3.668000 -10.387000 0.000000
v -12.616000 -0.147000 0.000000
v -6.376000 10.598000 0.000000
v -3.774000 9.414000 6.000000
v -3.697000 10.008000 6.000000
v 12.616000 0.716000 6.000000
v 6.818000 -10.598000 6.000000
v 4.482000 -9.011000 6.000000
v 3.668000 -10.387000 6.000000
v -12.616000 -0.147000 6.000000
v -6.376000 10.598000 6.000000
vn 0.000000 0.000000 -1.000000
vn 0.000000 0.000000 -1.000000
vn 0.000000 0.000000 -1.000000
vn 0.000000 0.000000 -1.000000
vn 0.000000 0.000000 -1.000000
vn 0.000000 0.000000 -1.000000
vn -0.000000 0.000000 1.000000
vn 0.000000 0.000000 1.000000
vn 0.000000 0.000000 1.000000
vn 0.000000 0.000000 1.000000
vn 0.000000 0.000000 1.000000
vn 0.000000 0.000000 1.000000
vn -0.991703 0.128554 0.000000
vn -0.991703 0.128554 0.000000
vn 0.494945 0.868924 0.000000
vn 0.494945 0.868924 -0.000000
vn 0.889947 -0.456064 0.000000
vn 0.889947 -0.456064 0.000000
vn -0.561952 -0.827170 0.000000
vn -0.561952 -0.827170 0.000000
vn 0.860677 -0.509151 0.000000
vn 0.860677 -0.509151 0.000000
vn -0.532333 -0.846535 0.000000
vn -0.532333 -0.846535 0.000000
vn -0.864755 0.502194 0.000000
vn -0.864755 0.502194 0.000000
vn 0.414172 0.910199 0.000000
vn 0.414172 0.910199 -0.000000
usemtl assumed_base
f 1//1 2//1 3//1
f 8//2 1//2 3//2
f 8//3 3//3 4//3
f 8//4 4//4 5//4
f 8//5 5//5 6//5
f 6//6 7//6 8//6
usemtl assumed_roof
f 9//7 11//7 10//7
f 16//8 11//8 9//8
f 16//9 12//9 11//9
f 16//10 13//10 12//10
f 16//11 14//11 13//11
f 14//12 16//12 15//12
usemtl assumed_wall
f 1//13 10//13 2//13
f 1//14 9//14 10//14
f 2//15 11//15 3//15
f 2//16 10//16 11//16
f 3//17 12//17 4//17
f 3//18 11//18 12//18
f 4//19 13//19 5//19
f 4//20 12//20 13//20
f 5//21 14//21 6//21
f 5//22 13//22 14//22
f 6//23 15//23 7//23
f 6//24 14//24 15//24
f 7//25 16//25 8//25
f 7//26 15//26 16//26
f 8//27 9//27 1//27
f 8//28 16//28 9//28
