# construction_7085_assumed_A_Casa
# source A_Casa
# h_campo 0.000000
# modeled_height 6.000000
# height_kind assumed
# local_origin_world_x 172001.034850
# local_origin_world_y 402500.144600
mtllib construction_artifacts.mtl

o construction_7085_assumed_A_Casa
v 19.658700 26.783450 0.000000
v 25.230500 14.358550 0.000000
v 17.138500 10.489550 0.000000
v 16.594500 11.515550 0.000000
v 13.228500 9.980550 0.000000
v 14.077500 -7.975450 0.000000
v 15.201500 -23.400450 0.000000
v 5.665500 -25.049450 0.000000
v 5.653500 -22.722450 0.000000
v -0.939500 -22.789450 0.000000
v -0.234500 -15.551450 0.000000
v 5.121500 -14.175450 0.000000
v 5.126500 -8.509450 0.000000
v 5.204500 2.704550 0.000000
v 1.768500 1.895550 0.000000
v 1.275500 5.923550 0.000000
v -2.079500 5.906550 0.000000
v -3.634500 -26.783450 0.000000
v -25.230500 -24.784450 0.000000
v -15.139500 7.307550 0.000000
v -13.790500 7.314550 0.000000
v -13.898500 12.002550 0.000000
v -11.165500 11.931550 0.000000
v 6.833500 20.673550 0.000000
v 19.658700 26.783450 6.000000
v 25.230500 14.358550 6.000000
v 17.138500 10.489550 6.000000
v 16.594500 11.515550 6.000000
v 13.228500 9.980550 6.000000
v 14.077500 -7.975450 6.000000
v 15.201500 -23.400450 6.000000
v 5.665500 -25.049450 6.000000
v 5.653500 -22.722450 6.000000
v -0.939500 -22.789450 6.000000
v -0.234500 -15.551450 6.000000
v 5.121500 -14.175450 6.000000
v 5.126500 -8.509450 6.000000
v 5.204500 2.704550 6.000000
v 1.768500 1.895550 6.000000
v 1.275500 5.923550 6.000000
v -2.079500 5.906550 6.000000
v -3.634500 -26.783450 6.000000
v -25.230500 -24.784450 6.000000
v -15.139500 7.307550 6.000000
v -13.790500 7.314550 6.000000
v -13.898500 12.002550 6.000000
v -11.165500 11.931550 6.000000
v 6.833500 20.673550 6.000000
vn 0.000000 0.000000 -1.000000
vn 0.000000 0.000000 -1.000000
vn 0.000000 0.000000 -1.000000
vn 0.000000 0.000000 -1.000000
vn 0.000000 0.000000 -1.000000
vn 0.000000 0.000000 -1.000000
vn 0.000000 -0.000000 -1.000000
vn 0.000000 0.000000 -1.000000
vn -0.000000 0.000000 -1.000000
vn 0.000000 0.000000 -1.000000
vn 0.000000 0.000000 -1.000000
vn 0.000000 0.000000 -1.000000
vn 0.000000 0.000000 -1.000000
vn 0.000000 0.000000 -1.000000
vn 0.000000 0.000000 -1.000000
vn 0.000000 0.000000 -1.000000
vn 0.000000 0.000000 -1.000000
vn 0.000000 0.000000 -1.000000
vn 0.000000 0.000000 -1.000000
vn 0.000000 0.000000 -1.000000
vn 0.000000 0.000000 -1.000000
vn 0.000000 0.000000 -1.000000
vn -0.000000 0.000000 1.000000
vn 0.000000 0.000000 1.000000
vn 0.000000 0.000000 1.000000
vn 0.000000 0.000000 1.000000
vn 0.000000 0.000000 1.000000
vn 0.000000 0.000000 1.000000
vn 0.000000 0.000000 1.000000
vn 0.000000 0.000000 1.000000
vn 0.000000 0.000000 1.000000
vn 0.000000 0.000000 1.000000
vn 0.000000 0.000000 1.000000
vn 0.000000 0.000000 1.000000
vn 0.000000 0.000000 1.000000
vn 0.000000 0.000000 1.000000
vn 0.000000 0.000000 1.000000
vn 0.000000 0.000000 1.000000
vn 0.000000 0.000000 1.000000
vn 0.000000 0.000000 1.000000
vn 0.000000 0.000000 1.000000
vn 0.000000 0.000000 1.000000
vn 0.000000 -0.000000 1.000000
vn 0.000000 0.000000 1.000000
vn 0.912454 0.409179 0.000000
vn 0.912454 0.409179 -0.000000
vn 0.431357 -0.902181 0.000000
vn 0.431357 -0.902181 0.000000
vn -0.883495 -0.468442 0.000000
vn -0.883495 -0.468442 0.000000
vn 0.414923 -0.909857 0.000000
vn 0.414923 -0.909857 0.000000
vn 0.998884 0.047229 0.000000
vn 0.998884 0.047229 -0.000000
vn 0.997356 0.072676 0.000000
vn 0.997356 0.072676 -0.000000
vn 0.170395 -0.985376 0.000000
vn 0.170395 -0.985376 0.000000
vn -0.999987 -0.005157 0.000000
vn -0.999987 -0.005157 0.000000
vn 0.010162 -0.999948 0.000000
vn 0.010162 -0.999948 0.000000
vn -0.995290 0.096944 0.000000
vn -0.995290 0.096944 0.000000
vn -0.248828 0.968548 0.000000
vn -0.248828 0.968548 0.000000
vn -1.000000 0.000882 0.000000
vn -1.000000 0.000882 0.000000
vn -0.999976 0.006955 0.000000
vn -0.999976 0.006955 0.000000
vn 0.229181 -0.973384 0.000000
vn 0.229181 -0.973384 0.000000
vn -0.992593 -0.121487 0.000000
vn -0.992593 -0.121487 0.000000
vn 0.005067 -0.999987 0.000000
vn 0.005067 -0.999987 0.000000
vn 0.998871 -0.047514 0.000000
vn 0.998871 -0.047514 0.000000
vn -0.092169 -0.995743 0.000000
vn -0.092169 -0.995743 0.000000
vn -0.953952 0.299960 0.000000
vn -0.953952 0.299960 0.000000
vn -0.005189 0.999987 0.000000
vn -0.005189 0.999987 0.000000
vn -0.999735 -0.023031 0.000000
vn -0.999735 -0.023031 0.000000
vn 0.025970 0.999663 0.000000
vn 0.025970 0.999663 -0.000000
vn -0.436889 0.899515 0.000000
vn -0.436889 0.899515 0.000000
vn -0.430086 0.902788 0.000000
vn -0.430086 0.902788 0.000000
usemtl assumed_base
f 24//1 1//1 2//1
f 2//2 3//2 4//2
f 24//3 2//3 4//3
f 24//4 4//4 5//4
f 24//5 5//5 6//5
f 24//6 6//6 7//6
f 24//7 7//7 8//7
f 24//8 8//8 9//8
f 9//9 10//9 11//9
f 9//10 11//10 12//10
f 24//11 9//11 12//11
f 24//12 12//12 13//12
f 24//13 13//13 14//13
f 24//14 14//14 15//14
f 24//15 15//15 16//15
f 24//16 16//16 17//16
f 17//17 18//17 19//17
f 24//18 17//18 19//18
f 19//19 20//19 21//19
f 24//20 19//20 21//20
f 21//21 22//21 23//21
f 21//22 23//22 24//22
usemtl assumed_roof
f 48//23 26//23 25//23
f 26//24 28//24 27//24
f 48//25 28//25 26//25
f 48//26 29//26 28//26
f 48//27 30//27 29//27
f 48//28 31//28 30//28
f 48//29 32//29 31//29
f 48//30 33//30 32//30
f 33//31 35//31 34//31
f 33//32 36//32 35//32
f 48//33 36//33 33//33
f 48//34 37//34 36//34
f 48//35 38//35 37//35
f 48//36 39//36 38//36
f 48//37 40//37 39//37
f 48//38 41//38 40//38
f 41//39 43//39 42//39
f 48//40 43//40 41//40
f 43//41 45//41 44//41
f 48//42 45//42 43//42
f 45//43 47//43 46//43
f 45//44 48//44 47//44
usemtl assumed_wall
f 1//45 26//45 2//45
f 1//46 25//46 26//46
f 2//47 27//47 3//47
f 2//48 26//48 27//48
f 3//49 28//49 4//49
f 3//50 27//50 28//50
f 4//51 29//51 5//51
f 4//52 28//52 29//52
f 5//53 30//53 6//53
f 5//54 29//54 30//54
f 6//55 31//55 7//55
f 6//56 30//56 31//56
f 7//57 32//57 8//57
f 7//58 31//58 32//58
f 8//59 33//59 9//59
f 8//60 32//60 33//60
f 9//61 34//61 10//61
f 9//62 33//62 34//62
f 10//63 35//63 11//63
f 10//64 34//64 35//64
f 11//65 36//65 12//65
f 11//66 35//66 36//66
f 12//67 37//67 13//67
f 12//68 36//68 37//68
f 13//69 38//69 14//69
f 13//70 37//70 38//70
f 14//71 39//71 15//71
f 14//72 38//72 39//72
f 15//73 40//73 16//73
f 15//74 39//74 40//74
f 16//75 41//75 17//75
f 16//76 40//76 41//76
f 17//77 42//77 18//77
f 17//78 41//78 42//78
f 18//79 43//79 19//79
f 18//80 42//80 43//80
f 19//81 44//81 20//81
f 19//82 43//82 44//82
f 20//83 45//83 21//83
f 20//84 44//84 45//84
f 21//85 46//85 22//85
f 21//86 45//86 46//86
f 22//87 47//87 23//87
f 22//88 46//88 47//88
f 23//89 48//89 24//89
f 23//90 47//90 48//90
f 24//91 25//91 1//91
f 24//92 48//92 25//92
