# construction_2122_assumed_A_Casa
# source A_Casa
# h_campo 0.000000
# modeled_height 6.000000
# height_kind assumed
# local_origin_world_x 172001.034850
# local_origin_world_y 402500.144600
mtllib construction_artifacts.mtl

o construction_2122_assumed_A_Casa
v 10.530500 -23.067000 0.000000
v -0.153500 -18.053000 0.000000
v -1.499500 -11.076000 0.000000
v -2.502500 -11.225000 0.000000
v -3.408500 -6.476000 0.000000
v 0.152500 -5.525000 0.000000
v -0.425500 -1.198000 0.000000
v -0.962500 2.757000 0.000000
v -2.012500 9.876000 0.000000
v -1.413500 9.891000 0.000000
v -2.743500 16.632000 0.000000
v -5.731500 15.469000 0.000000
v -6.115500 16.844000 0.000000
v -9.188500 15.251000 0.000000
v -10.530500 17.809000 0.000000
v -3.568500 23.067000 0.000000
v -2.211500 19.859000 0.000000
v 1.742500 19.865000 0.000000
v 4.316500 8.998000 0.000000
v 5.128500 3.962000 0.000000
v 7.305500 -4.053000 0.000000
v 10.530500 -23.067000 6.000000
v -0.153500 -18.053000 6.000000
v -1.499500 -11.076000 6.000000
v -2.502500 -11.225000 6.000000
v -3.408500 -6.476000 6.000000
v 0.152500 -5.525000 6.000000
v -0.425500 -1.198000 6.000000
v -0.962500 2.757000 6.000000
v -2.012500 9.876000 6.000000
v -1.413500 9.891000 6.000000
v -2.743500 16.632000 6.000000
v -5.731500 15.469000 6.000000
v -6.115500 16.844000 6.000000
v -9.188500 15.251000 6.000000
v -10.530500 17.809000 6.000000
v -3.568500 23.067000 6.000000
v -2.211500 19.859000 6.000000
v 1.742500 19.865000 6.000000
v 4.316500 8.998000 6.000000
v 5.128500 3.962000 6.000000
v 7.305500 -4.053000 6.000000
vn 0.000000 -0.000000 -1.000000
vn 0.000000 0.000000 -1.000000
vn 0.000000 0.000000 -1.000000
vn 0.000000 0.000000 -1.000000
vn 0.000000 0.000000 -1.000000
vn -0.000000 0.000000 -1.000000
vn 0.000000 0.000000 -1.000000
vn 0.000000 0.000000 -1.000000
vn 0.000000 0.000000 -1.000000
vn 0.000000 0.000000 -1.000000
vn -0.000000 0.000000 -1.000000
vn -0.000000 0.000000 -1.000000
vn 0.000000 0.000000 -1.000000
vn 0.000000 0.000000 -1.000000
vn 0.000000 0.000000 -1.000000
vn 0.000000 0.000000 -1.000000
vn 0.000000 0.000000 -1.000000
vn 0.000000 0.000000 -1.000000
vn 0.000000 0.000000 -1.000000
vn 0.000000 0.000000 1.000000
vn 0.000000 0.000000 1.000000
vn 0.000000 0.000000 1.000000
vn 0.000000 0.000000 1.000000
vn 0.000000 0.000000 1.000000
vn 0.000000 0.000000 1.000000
vn 0.000000 0.000000 1.000000
vn 0.000000 0.000000 1.000000
vn 0.000000 0.000000 1.000000
vn 0.000000 0.000000 1.000000
vn 0.000000 0.000000 1.000000
vn 0.000000 0.000000 1.000000
vn 0.000000 0.000000 1.000000
vn 0.000000 0.000000 1.000000
vn 0.000000 0.000000 1.000000
vn 0.000000 0.000000 1.000000
vn -0.000000 0.000000 1.000000
vn 0.000000 0.000000 1.000000
vn 0.000000 0.000000 1.000000
vn -0.424842 -0.905268 0.000000
vn -0.424842 -0.905268 0.000000
vn -0.981895 -0.189427 0.000000
vn -0.981895 -0.189427 0.000000
vn 0.146942 -0.989145 0.000000
vn 0.146942 -0.989145 0.000000
vn -0.982284 -0.187397 0.000000
vn -0.982284 -0.187397 0.000000
vn -0.258017 0.966140 0.000000
vn -0.258017 0.966140 0.000000
vn -0.991196 -0.132404 0.000000
vn -0.991196 -0.132404 0.000000
vn -0.990908 -0.134543 0.000000
vn -0.990908 -0.134543 0.000000
vn -0.989297 -0.145914 0.000000
vn -0.989297 -0.145914 0.000000
vn -0.025034 0.999687 0.000000
vn -0.025034 0.999687 0.000000
vn -0.981087 -0.193569 0.000000
vn -0.981087 -0.193569 0.000000
vn 0.362717 -0.931899 0.000000
vn 0.362717 -0.931899 0.000000
vn -0.963146 -0.268980 0.000000
vn -0.963146 -0.268980 0.000000
vn 0.460224 -0.887803 0.000000
vn 0.460224 -0.887803 0.000000
vn -0.885533 -0.464576 0.000000
vn -0.885533 -0.464576 0.000000
vn -0.602674 0.797987 0.000000
vn -0.602674 0.797987 0.000000
vn 0.920991 0.389584 0.000000
vn 0.920991 0.389584 -0.000000
vn -0.001517 0.999999 0.000000
vn -0.001517 0.999999 0.000000
vn 0.973076 0.230486 0.000000
vn 0.973076 0.230486 -0.000000
vn 0.987249 0.159183 0.000000
vn 0.987249 0.159183 -0.000000
vn 0.965036 0.262119 0.000000
vn 0.965036 0.262119 -0.000000
vn 0.985919 0.167224 0.000000
vn 0.985919 0.167224 -0.000000
usemtl assumed_base
f 21//1 1//1 2//1
f 21//2 2//2 3//2
f 21//3 3//3 4//3
f 21//4 4//4 5//4
f 21//5 5//5 6//5
f 21//6 6//6 7//6
f 21//7 7//7 8//7
f 21//8 8//8 9//8
f 21//9 9//9 10//9
f 21//10 10//10 11//10
f 11//11 12//11 13//11
f 13//12 14//12 15//12
f 11//13 13//13 15//13
f 11//14 15//14 16//14
f 21//15 11//15 16//15
f 21//16 16//16 17//16
f 17//17 18//17 19//17
f 17//18 19//18 20//18
f 17//19 20//19 21//19
usemtl assumed_roof
f 42//20 23//20 22//20
f 42//21 24//21 23//21
f 42//22 25//22 24//22
f 42//23 26//23 25//23
f 42//24 27//24 26//24
f 42//25 28//25 27//25
f 42//26 29//26 28//26
f 42//27 30//27 29//27
f 42//28 31//28 30//28
f 42//29 32//29 31//29
f 32//30 34//30 33//30
f 34//31 36//31 35//31
f 32//32 36//32 34//32
f 32//33 37//33 36//33
f 42//34 37//34 32//34
f 42//35 38//35 37//35
f 38//36 40//36 39//36
f 38//37 41//37 40//37
f 38//38 42//38 41//38
usemtl assumed_wall
f 1//39 23//39 2//39
f 1//40 22//40 23//40
f 2//41 24//41 3//41
f 2//42 23//42 24//42
f 3//43 25//43 4//43
f 3//44 24//44 25//44
f 4//45 26//45 5//45
f 4//46 25//46 26//46
f 5//47 27//47 6//47
f 5//48 26//48 27//48
f 6//49 28//49 7//49
f 6//50 27//50 28//50
f 7//51 29//51 8//51
f 7//52 28//52 29//52
f 8//53 30//53 9//53
f 8//54 29//54 30//54
f 9//55 31//55 10//55
f 9//56 30//56 31//56
f 10//57 32//57 11//57
f 10//58 31//58 32//58
f 11//59 33//59 12//59
f 11//60 32//60 33//60
f 12//61 34//61 13//61
f 12//62 33//62 34//62
f 13//63 35//63 14//63
f 13//64 34//64 35//64
f 14//65 36//65 15//65
f 14//66 35//66 36//66
f 15//67 37//67 16//67
f 15//68 36//68 37//68
f 16//69 38//69 17//69
f 16//70 37//70 38//70
f 17//71 39//71 18//71
f 17//72 38//72 39//72
f 18//73 40//73 19//73
f 18//74 39//74 40//74
f 19//75 41//75 20//75
f 19//76 40//76 41//76
f 20//77 42//77 21//77
f 20//78 41//78 42//78
f 21//79 22//79 1//79
f 21//80 42//80 22//80
