# construction_2034_assumed_A_Casa
# source A_Casa
# h_campo 0.000000
# modeled_height 6.000000
# height_kind assumed
# local_origin_world_x 172001.034850
# local_origin_world_y 402500.144600
mtllib construction_artifacts.mtl

o construction_2034_assumed_A_Casa
v -14.359000 1.326500 0.000000
v -5.296000 9.057500 0.000000
v 2.619000 0.552500 0.000000
v 4.078000 1.489500 0.000000
v 14.359000 -5.770500 0.000000
v 11.888000 -9.057500 0.000000
v 1.162000 -0.873500 0.000000
v -6.040000 -7.294500 0.000000
v -14.359000 1.326500 6.000000
v -5.296000 9.057500 6.000000
v 2.619000 0.552500 6.000000
v 4.078000 1.489500 6.000000
v 14.359000 -5.770500 6.000000
v 11.888000 -9.057500 6.000000
v 1.162000 -0.873500 6.000000
v -6.040000 -7.294500 6.000000
vn 0.000000 0.000000 -1.000000
vn 0.000000 0.000000 -1.000000
vn 0.000000 0.000000 -1.000000
vn 0.000000 0.000000 -1.000000
vn 0.000000 -0.000000 -1.000000
vn 0.000000 0.000000 -1.000000
vn 0.000000 -0.000000 1.000000
vn 0.000000 0.000000 1.000000
vn -0.000000 0.000000 1.000000
vn 0.000000 0.000000 1.000000
vn 0.000000 0.000000 1.000000
vn 0.000000 0.000000 1.000000
vn -0.648985 0.760801 0.000000
vn -0.648985 0.760801 0.000000
vn 0.732042 0.681260 0.000000
vn 0.732042 0.681260 -0.000000
vn -0.540379 0.841422 0.000000
vn -0.540379 0.841422 0.000000
vn 0.576833 0.816862 0.000000
vn 0.576833 0.816862 -0.000000
vn 0.799328 -0.600895 0.000000
vn 0.799328 -0.600895 0.000000
vn -0.606597 -0.795010 0.000000
vn -0.606597 -0.795010 0.000000
vn 0.665476 -0.746419 0.000000
vn 0.665476 -0.746419 0.000000
vn -0.719598 -0.694390 0.000000
vn -0.719598 -0.694390 0.000000
usemtl assumed_base
f 8//1 1//1 2//1
f 8//2 2//2 3//2
f 3//3 4//3 5//3
f 3//4 5//4 6//4
f 3//5 6//5 7//5
f 3//6 7//6 8//6
usemtl assumed_roof
f 16//7 10//7 9//7
f 16//8 11//8 10//8
f 11//9 13//9 12//9
f 11//10 14//10 13//10
f 11//11 15//11 14//11
f 11//12 16//12 15//12
usemtl assumed_wall
f 1//13 10//13 2//13
f 1//14 9//14 10//14
f 2//15 11//15 3//15
f 2//16 10//16 11//16
f 3//17 12//17 4//17
f 3//18 11//18 12//18
f 4//19 13//19 5//19
f 4//20 12//20 13//20
f 5//21 14//21 6//21
f 5//22 13//22 14//22
f 6//23 15//23 7//23
f 6//24 14//24 15//24
f 7//25 16//25 8//25
f 7//26 15//26 16//26
f 8//27 9//27 1//27
f 8//28 16//28 9//28
