# construction_5632_assumed_A_Casa
# source A_Casa
# h_campo 0.000000
# modeled_height 6.000000
# height_kind assumed
# local_origin_world_x 172001.034850
# local_origin_world_y 402500.144600
mtllib construction_artifacts.mtl

o construction_5632_assumed_A_Casa
v 18.352850 -11.136050 0.000000
v -2.529150 -4.623050 0.000000
v -6.814150 -3.199050 0.000000
v -7.365150 -5.560050 0.000000
v -11.700150 -4.087050 0.000000
v -10.863150 -1.607050 0.000000
v -13.714150 -0.517050 0.000000
v -16.662150 -1.451050 0.000000
v -22.022850 11.135850 0.000000
v -17.963250 11.135850 0.000000
v -16.633150 8.730950 0.000000
v -11.796150 9.280950 0.000000
v -11.276150 10.192950 0.000000
v -4.462150 8.284950 0.000000
v -4.729150 6.968950 0.000000
v 0.483850 5.227950 0.000000
v 1.438850 7.639950 0.000000
v 1.273550 11.135950 0.000000
v 9.617750 11.136050 0.000000
v 12.895850 2.439950 0.000000
v 17.577850 4.370950 0.000000
v 22.022850 -8.650050 0.000000
v 18.535850 -9.821050 0.000000
v 18.352850 -11.136050 6.000000
v -2.529150 -4.623050 6.000000
v -6.814150 -3.199050 6.000000
v -7.365150 -5.560050 6.000000
v -11.700150 -4.087050 6.000000
v -10.863150 -1.607050 6.000000
v -13.714150 -0.517050 6.000000
v -16.662150 -1.451050 6.000000
v -22.022850 11.135850 6.000000
v -17.963250 11.135850 6.000000
v -16.633150 8.730950 6.000000
v -11.796150 9.280950 6.000000
v -11.276150 10.192950 6.000000
v -4.462150 8.284950 6.000000
v -4.729150 6.968950 6.000000
v 0.483850 5.227950 6.000000
v 1.438850 7.639950 6.000000
v 1.273550 11.135950 6.000000
v 9.617750 11.136050 6.000000
v 12.895850 2.439950 6.000000
v 17.577850 4.370950 6.000000
v 22.022850 -8.650050 6.000000
v 18.535850 -9.821050 6.000000
vn -0.000000 0.000000 -1.000000
vn 0.000000 0.000000 -1.000000
vn 0.000000 0.000000 -1.000000
vn -0.000000 0.000000 -1.000000
vn 0.000000 0.000000 -1.000000
vn 0.000000 0.000000 -1.000000
vn -0.000000 0.000000 -1.000000
vn 0.000000 0.000000 -1.000000
vn 0.000000 0.000000 -1.000000
vn 0.000000 0.000000 -1.000000
vn 0.000000 0.000000 -1.000000
vn 0.000000 0.000000 -1.000000
vn 0.000000 0.000000 -1.000000
vn 0.000000 0.000000 -1.000000
vn 0.000000 0.000000 -1.000000
vn 0.000000 0.000000 -1.000000
vn 0.000000 0.000000 -1.000000
vn 0.000000 0.000000 -1.000000
vn 0.000000 0.000000 -1.000000
vn 0.000000 0.000000 -1.000000
vn 0.000000 0.000000 -1.000000
vn 0.000000 0.000000 1.000000
vn 0.000000 0.000000 1.000000
vn 0.000000 0.000000 1.000000
vn 0.000000 0.000000 1.000000
vn 0.000000 0.000000 1.000000
vn 0.000000 0.000000 1.000000
vn 0.000000 0.000000 1.000000
vn 0.000000 0.000000 1.000000
vn -0.000000 0.000000 1.000000
vn 0.000000 0.000000 1.000000
vn 0.000000 0.000000 1.000000
vn 0.000000 0.000000 1.000000
vn 0.000000 0.000000 1.000000
vn 0.000000 0.000000 1.000000
vn 0.000000 0.000000 1.000000
vn 0.000000 0.000000 1.000000
vn 0.000000 0.000000 1.000000
vn -0.000000 0.000000 1.000000
vn 0.000000 0.000000 1.000000
vn 0.000000 0.000000 1.000000
vn 0.000000 0.000000 1.000000
vn -0.297749 -0.954644 0.000000
vn -0.297749 -0.954644 0.000000
vn -0.315364 -0.948971 0.000000
vn -0.315364 -0.948971 0.000000
vn 0.973832 -0.227269 0.000000
vn 0.973832 -0.227269 0.000000
vn -0.321727 -0.946833 0.000000
vn -0.321727 -0.946833 0.000000
vn -0.947492 0.319779 0.000000
vn -0.947492 0.319779 0.000000
vn -0.357112 -0.934061 0.000000
vn -0.357112 -0.934061 0.000000
vn 0.302029 -0.953299 0.000000
vn 0.302029 -0.953299 0.000000
vn -0.920034 -0.391838 0.000000
vn -0.920034 -0.391838 0.000000
vn 0.000000 1.000000 0.000000
vn 0.000000 1.000000 0.000000
vn 0.875076 0.483986 0.000000
vn 0.875076 0.483986 -0.000000
vn -0.112979 0.993597 0.000000
vn -0.112979 0.993597 0.000000
vn -0.868712 0.495318 0.000000
vn -0.868712 0.495318 0.000000
vn 0.269640 0.962961 0.000000
vn 0.269640 0.962961 -0.000000
vn 0.980033 -0.198836 0.000000
vn 0.980033 -0.198836 0.000000
vn 0.316774 0.948501 0.000000
vn 0.316774 0.948501 -0.000000
vn -0.929774 0.368132 0.000000
vn -0.929774 0.368132 0.000000
vn -0.998884 -0.047230 0.000000
vn -0.998884 -0.047230 0.000000
vn -0.000012 1.000000 0.000000
vn -0.000012 1.000000 0.000000
vn 0.935724 0.352733 0.000000
vn 0.935724 0.352733 -0.000000
vn -0.381276 0.924461 0.000000
vn -0.381276 0.924461 0.000000
vn 0.946376 0.323066 0.000000
vn 0.946376 0.323066 -0.000000
vn 0.318347 -0.947974 0.000000
vn 0.318347 -0.947974 0.000000
vn 0.990455 -0.137835 0.000000
vn 0.990455 -0.137835 0.000000
usemtl assumed_base
f 23//1 1//1 2//1
f 23//2 2//2 3//2
f 3//3 4//3 5//3
f 3//4 5//4 6//4
f 23//5 3//5 6//5
f 23//6 6//6 7//6
f 7//7 8//7 9//7
f 23//8 7//8 9//8
f 9//9 10//9 11//9
f 23//10 9//10 11//10
f 23//11 11//11 12//11
f 23//12 12//12 13//12
f 13//13 14//13 15//13
f 23//14 13//14 15//14
f 23//15 15//15 16//15
f 23//16 16//16 17//16
f 23//17 17//17 18//17
f 18//18 19//18 20//18
f 23//19 18//19 20//19
f 23//20 20//20 21//20
f 21//21 22//21 23//21
usemtl assumed_roof
f 46//22 25//22 24//22
f 46//23 26//23 25//23
f 26//24 28//24 27//24
f 26//25 29//25 28//25
f 46//26 29//26 26//26
f 46//27 30//27 29//27
f 30//28 32//28 31//28
f 46//29 32//29 30//29
f 32//30 34//30 33//30
f 46//31 34//31 32//31
f 46//32 35//32 34//32
f 46//33 36//33 35//33
f 36//34 38//34 37//34
f 46//35 38//35 36//35
f 46//36 39//36 38//36
f 46//37 40//37 39//37
f 46//38 41//38 40//38
f 41//39 43//39 42//39
f 46//40 43//40 41//40
f 46//41 44//41 43//41
f 44//42 46//42 45//42
usemtl assumed_wall
f 1//43 25//43 2//43
f 1//44 24//44 25//44
f 2//45 26//45 3//45
f 2//46 25//46 26//46
f 3//47 27//47 4//47
f 3//48 26//48 27//48
f 4//49 28//49 5//49
f 4//50 27//50 28//50
f 5//51 29//51 6//51
f 5//52 28//52 29//52
f 6//53 30//53 7//53
f 6//54 29//54 30//54
f 7//55 31//55 8//55
f 7//56 30//56 31//56
f 8//57 32//57 9//57
f 8//58 31//58 32//58
f 9//59 33//59 10//59
f 9//60 32//60 33//60
f 10//61 34//61 11//61
f 10//62 33//62 34//62
f 11//63 35//63 12//63
f 11//64 34//64 35//64
f 12//65 36//65 13//65
f 12//66 35//66 36//66
f 13//67 37//67 14//67
f 13//68 36//68 37//68
f 14//69 38//69 15//69
f 14//70 37//70 38//70
f 15//71 39//71 16//71
f 15//72 38//72 39//72
f 16//73 40//73 17//73
f 16//74 39//74 40//74
f 17//75 41//75 18//75
f 17//76 40//76 41//76
f 18//77 42//77 19//77
f 18//78 41//78 42//78
f 19//79 43//79 20//79
f 19//80 42//80 43//80
f 20//81 44//81 21//81
f 20//82 43//82 44//82
f 21//83 45//83 22//83
f 21//84 44//84 45//84
f 22//85 46//85 23//85
f 22//86 45//86 46//86
f 23//87 24//87 1//87
f 23//88 46//88 24//88
