# construction_5853_assumed_A_Casa
# source A_Casa
# h_campo 0.000000
# modeled_height 6.000000
# height_kind assumed
# local_origin_world_x 172001.034850
# local_origin_world_y 402500.144600
mtllib construction_artifacts.mtl

o construction_5853_assumed_A_Casa
v -36.115000 -17.907000 0.000000
v -1.153000 3.733000 0.000000
v 0.347000 1.488000 0.000000
v 4.988000 3.588000 0.000000
v 3.349000 6.719000 0.000000
v 33.290000 25.253000 0.000000
v 36.115000 21.019000 0.000000
v 15.185000 8.002000 0.000000
v 16.876000 4.870000 0.000000
v 18.743000 5.565000 0.000000
v 22.047000 0.288000 0.000000
v 16.301000 -3.073000 0.000000
v 13.839000 1.915000 0.000000
v 7.806000 -1.215000 0.000000
v 10.253000 -5.407000 0.000000
v -21.513000 -24.308000 0.000000
v -23.379000 -21.098000 0.000000
v -31.195000 -25.253000 0.000000
v -36.115000 -17.907000 6.000000
v -1.153000 3.733000 6.000000
v 0.347000 1.488000 6.000000
v 4.988000 3.588000 6.000000
v 3.349000 6.719000 6.000000
v 33.290000 25.253000 6.000000
v 36.115000 21.019000 6.000000
v 15.185000 8.002000 6.000000
v 16.876000 4.870000 6.000000
v 18.743000 5.565000 6.000000
v 22.047000 0.288000 6.000000
v 16.301000 -3.073000 6.000000
v 13.839000 1.915000 6.000000
v 7.806000 -1.215000 6.000000
v 10.253000 -5.407000 6.000000
v -21.513000 -24.308000 6.000000
v -23.379000 -21.098000 6.000000
v -31.195000 -25.253000 6.000000
vn 0.000000 0.000000 -1.000000
vn 0.000000 0.000000 -1.000000
vn 0.000000 0.000000 -1.000000
vn 0.000000 0.000000 -1.000000
vn 0.000000 0.000000 -1.000000
vn 0.000000 -0.000000 -1.000000
vn 0.000000 0.000000 -1.000000
vn 0.000000 0.000000 -1.000000
vn 0.000000 0.000000 -1.000000
vn 0.000000 -0.000000 -1.000000
vn 0.000000 0.000000 -1.000000
vn 0.000000 0.000000 -1.000000
vn 0.000000 0.000000 -1.000000
vn 0.000000 -0.000000 -1.000000
vn 0.000000 0.000000 -1.000000
vn 0.000000 0.000000 -1.000000
vn 0.000000 -0.000000 1.000000
vn 0.000000 0.000000 1.000000
vn 0.000000 0.000000 1.000000
vn 0.000000 -0.000000 1.000000
vn 0.000000 0.000000 1.000000
vn 0.000000 0.000000 1.000000
vn 0.000000 0.000000 1.000000
vn 0.000000 0.000000 1.000000
vn 0.000000 0.000000 1.000000
vn 0.000000 0.000000 1.000000
vn 0.000000 0.000000 1.000000
vn 0.000000 0.000000 1.000000
vn 0.000000 0.000000 1.000000
vn 0.000000 0.000000 1.000000
vn 0.000000 0.000000 1.000000
vn 0.000000 0.000000 1.000000
vn -0.526299 0.850299 0.000000
vn -0.526299 0.850299 0.000000
vn 0.831480 0.555555 0.000000
vn 0.831480 0.555555 -0.000000
vn -0.412249 0.911071 0.000000
vn -0.412249 0.911071 0.000000
vn -0.885953 -0.463774 0.000000
vn -0.885953 -0.463774 0.000000
vn -0.526336 0.850277 0.000000
vn -0.526336 0.850277 0.000000
vn 0.831839 0.555018 0.000000
vn 0.831839 0.555018 -0.000000
vn 0.528123 -0.849168 0.000000
vn 0.528123 -0.849168 0.000000
vn 0.879938 0.475088 0.000000
vn 0.879938 0.475088 -0.000000
vn -0.348867 0.937172 0.000000
vn -0.348867 0.937172 0.000000
vn 0.847574 0.530677 0.000000
vn 0.847574 0.530677 -0.000000
vn 0.504898 -0.863179 0.000000
vn 0.504898 -0.863179 0.000000
vn -0.896716 -0.442605 0.000000
vn -0.896716 -0.442605 0.000000
vn 0.460523 -0.887648 0.000000
vn 0.460523 -0.887648 0.000000
vn 0.863629 0.504127 0.000000
vn 0.863629 0.504127 -0.000000
vn 0.511337 -0.859380 0.000000
vn 0.511337 -0.859380 0.000000
vn -0.864540 -0.502564 0.000000
vn -0.864540 -0.502564 0.000000
vn 0.469397 -0.882987 0.000000
vn 0.469397 -0.882987 0.000000
vn -0.830865 -0.556474 0.000000
vn -0.830865 -0.556474 0.000000
usemtl assumed_base
f 18//1 1//1 2//1
f 18//2 2//2 3//2
f 18//3 3//3 4//3
f 4//4 5//4 6//4
f 18//5 4//5 6//5
f 6//6 7//6 8//6
f 18//7 6//7 8//7
f 18//8 8//8 9//8
f 18//9 9//9 10//9
f 10//10 11//10 12//10
f 10//11 12//11 13//11
f 10//12 13//12 14//12
f 18//13 10//13 14//13
f 14//14 15//14 16//14
f 14//15 16//15 17//15
f 14//16 17//16 18//16
usemtl assumed_roof
f 36//17 20//17 19//17
f 36//18 21//18 20//18
f 36//19 22//19 21//19
f 22//20 24//20 23//20
f 36//21 24//21 22//21
f 24//22 26//22 25//22
f 36//23 26//23 24//23
f 36//24 27//24 26//24
f 36//25 28//25 27//25
f 28//26 30//26 29//26
f 28//27 31//27 30//27
f 28//28 32//28 31//28
f 36//29 32//29 28//29
f 32//30 34//30 33//30
f 32//31 35//31 34//31
f 32//32 36//32 35//32
usemtl assumed_wall
f 1//33 20//33 2//33
f 1//34 19//34 20//34
f 2//35 21//35 3//35
f 2//36 20//36 21//36
f 3//37 22//37 4//37
f 3//38 21//38 22//38
f 4//39 23//39 5//39
f 4//40 22//40 23//40
f 5//41 24//41 6//41
f 5//42 23//42 24//42
f 6//43 25//43 7//43
f 6//44 24//44 25//44
f 7//45 26//45 8//45
f 7//46 25//46 26//46
f 8//47 27//47 9//47
f 8//48 26//48 27//48
f 9//49 28//49 10//49
f 9//50 27//50 28//50
f 10//51 29//51 11//51
f 10//52 28//52 29//52
f 11//53 30//53 12//53
f 11//54 29//54 30//54
f 12//55 31//55 13//55
f 12//56 30//56 31//56
f 13//57 32//57 14//57
f 13//58 31//58 32//58
f 14//59 33//59 15//59
f 14//60 32//60 33//60
f 15//61 34//61 16//61
f 15//62 33//62 34//62
f 16//63 35//63 17//63
f 16//64 34//64 35//64
f 17//65 36//65 18//65
f 17//66 35//66 36//66
f 18//67 19//67 1//67
f 18//68 36//68 19//68
