# construction_2909_assumed_A_Casa
# source A_Casa
# h_campo 0.000000
# modeled_height 6.000000
# height_kind assumed
# local_origin_world_x 172001.034850
# local_origin_world_y 402500.144600
mtllib construction_artifacts.mtl

o construction_2909_assumed_A_Casa
v -11.847000 -7.042500 0.000000
v -10.071000 -5.247500 0.000000
v -11.597000 -2.085500 0.000000
v -5.402000 0.630500 0.000000
v -8.110000 6.540500 0.000000
v -5.619000 7.457500 0.000000
v -6.195000 8.669500 0.000000
v -4.856000 9.412500 0.000000
v -6.676000 12.545500 0.000000
v -2.746000 14.521500 0.000000
v -1.004000 11.359500 0.000000
v 2.532000 12.962500 0.000000
v 6.132000 6.273500 0.000000
v 4.526000 5.392500 0.000000
v 7.612000 -2.406500 0.000000
v 8.873000 -1.633500 0.000000
v 11.847000 -7.367500 0.000000
v 9.001000 -8.519500 0.000000
v 6.878000 -4.716500 0.000000
v 3.530000 -6.054500 0.000000
v 5.789000 -10.477500 0.000000
v -0.695000 -14.521500 0.000000
v -4.147000 -11.088500 0.000000
v -5.610000 -13.582500 0.000000
v -11.847000 -7.042500 6.000000
v -10.071000 -5.247500 6.000000
v -11.597000 -2.085500 6.000000
v -5.402000 0.630500 6.000000
v -8.110000 6.540500 6.000000
v -5.619000 7.457500 6.000000
v -6.195000 8.669500 6.000000
v -4.856000 9.412500 6.000000
v -6.676000 12.545500 6.000000
v -2.746000 14.521500 6.000000
v -1.004000 11.359500 6.000000
v 2.532000 12.962500 6.000000
v 6.132000 6.273500 6.000000
v 4.526000 5.392500 6.000000
v 7.612000 -2.406500 6.000000
v 8.873000 -1.633500 6.000000
v 11.847000 -7.367500 6.000000
v 9.001000 -8.519500 6.000000
v 6.878000 -4.716500 6.000000
v 3.530000 -6.054500 6.000000
v 5.789000 -10.477500 6.000000
v -0.695000 -14.521500 6.000000
v -4.147000 -11.088500 6.000000
v -5.610000 -13.582500 6.000000
vn 0.000000 0.000000 -1.000000
vn 0.000000 0.000000 -1.000000
vn 0.000000 0.000000 -1.000000
vn 0.000000 0.000000 -1.000000
vn 0.000000 0.000000 -1.000000
vn 0.000000 0.000000 -1.000000
vn 0.000000 0.000000 -1.000000
vn 0.000000 0.000000 -1.000000
vn 0.000000 0.000000 -1.000000
vn 0.000000 0.000000 -1.000000
vn 0.000000 0.000000 -1.000000
vn 0.000000 0.000000 -1.000000
vn 0.000000 0.000000 -1.000000
vn 0.000000 0.000000 -1.000000
vn 0.000000 0.000000 -1.000000
vn 0.000000 0.000000 -1.000000
vn 0.000000 0.000000 -1.000000
vn 0.000000 -0.000000 -1.000000
vn 0.000000 -0.000000 -1.000000
vn 0.000000 0.000000 -1.000000
vn 0.000000 0.000000 -1.000000
vn 0.000000 0.000000 -1.000000
vn 0.000000 0.000000 1.000000
vn 0.000000 0.000000 1.000000
vn 0.000000 -0.000000 1.000000
vn 0.000000 0.000000 1.000000
vn 0.000000 -0.000000 1.000000
vn 0.000000 -0.000000 1.000000
vn 0.000000 0.000000 1.000000
vn 0.000000 -0.000000 1.000000
vn 0.000000 0.000000 1.000000
vn 0.000000 0.000000 1.000000
vn 0.000000 0.000000 1.000000
vn 0.000000 0.000000 1.000000
vn 0.000000 0.000000 1.000000
vn -0.000000 0.000000 1.000000
vn 0.000000 0.000000 1.000000
vn 0.000000 0.000000 1.000000
vn 0.000000 0.000000 1.000000
vn 0.000000 0.000000 1.000000
vn 0.000000 0.000000 1.000000
vn 0.000000 0.000000 1.000000
vn 0.000000 0.000000 1.000000
vn 0.000000 0.000000 1.000000
vn -0.710859 0.703335 0.000000
vn -0.710859 0.703335 0.000000
vn -0.900605 -0.434638 0.000000
vn -0.900605 -0.434638 0.000000
vn -0.401524 0.915848 0.000000
vn -0.401524 0.915848 0.000000
vn -0.909109 -0.416559 0.000000
vn -0.909109 -0.416559 0.000000
vn -0.345461 0.938433 0.000000
vn -0.345461 0.938433 0.000000
vn -0.903191 -0.429239 0.000000
vn -0.903191 -0.429239 0.000000
vn -0.485199 0.874404 0.000000
vn -0.485199 0.874404 0.000000
vn -0.864688 -0.502309 0.000000
vn -0.864688 -0.502309 0.000000
vn -0.449213 0.893425 0.000000
vn -0.449213 0.893425 0.000000
vn 0.875876 0.482535 0.000000
vn 0.875876 0.482535 -0.000000
vn -0.412891 0.910781 0.000000
vn -0.412891 0.910781 0.000000
vn 0.880568 0.473919 0.000000
vn 0.880568 0.473919 -0.000000
vn 0.480954 -0.876746 0.000000
vn 0.480954 -0.876746 0.000000
vn 0.929852 0.367935 0.000000
vn 0.929852 0.367935 -0.000000
vn -0.522625 0.852562 0.000000
vn -0.522625 0.852562 0.000000
vn 0.887703 0.460417 0.000000
vn 0.887703 0.460417 -0.000000
vn 0.375206 -0.926941 0.000000
vn 0.375206 -0.926941 0.000000
vn -0.873159 -0.487435 0.000000
vn -0.873159 -0.487435 0.000000
vn 0.371104 -0.928591 0.000000
vn 0.371104 -0.928591 0.000000
vn 0.890569 0.454849 0.000000
vn 0.890569 0.454849 -0.000000
vn 0.529199 -0.848498 0.000000
vn 0.529199 -0.848498 0.000000
vn -0.705153 -0.709055 0.000000
vn -0.705153 -0.709055 0.000000
vn 0.862547 -0.505977 0.000000
vn 0.862547 -0.505977 0.000000
vn -0.723672 -0.690144 0.000000
vn -0.723672 -0.690144 0.000000
usemtl assumed_base
f 24//1 1//1 2//1
f 24//2 2//2 3//2
f 24//3 3//3 4//3
f 4//4 5//4 6//4
f 6//5 7//5 8//5
f 4//6 6//6 8//6
f 24//7 4//7 8//7
f 8//8 9//8 10//8
f 24//9 8//9 10//9
f 24//10 10//10 11//10
f 24//11 11//11 12//11
f 12//12 13//12 14//12
f 24//13 12//13 14//13
f 15//14 16//14 17//14
f 15//15 17//15 18//15
f 14//16 15//16 18//16
f 14//17 18//17 19//17
f 14//18 19//18 20//18
f 20//19 21//19 22//19
f 14//20 20//20 22//20
f 14//21 22//21 23//21
f 14//22 23//22 24//22
usemtl assumed_roof
f 48//23 26//23 25//23
f 48//24 27//24 26//24
f 48//25 28//25 27//25
f 28//26 30//26 29//26
f 30//27 32//27 31//27
f 28//28 32//28 30//28
f 48//29 32//29 28//29
f 32//30 34//30 33//30
f 48//31 34//31 32//31
f 48//32 35//32 34//32
f 48//33 36//33 35//33
f 36//34 38//34 37//34
f 48//35 38//35 36//35
f 39//36 41//36 40//36
f 39//37 42//37 41//37
f 38//38 42//38 39//38
f 38//39 43//39 42//39
f 38//40 44//40 43//40
f 44//41 46//41 45//41
f 38//42 46//42 44//42
f 38//43 47//43 46//43
f 38//44 48//44 47//44
usemtl assumed_wall
f 1//45 26//45 2//45
f 1//46 25//46 26//46
f 2//47 27//47 3//47
f 2//48 26//48 27//48
f 3//49 28//49 4//49
f 3//50 27//50 28//50
f 4//51 29//51 5//51
f 4//52 28//52 29//52
f 5//53 30//53 6//53
f 5//54 29//54 30//54
f 6//55 31//55 7//55
f 6//56 30//56 31//56
f 7//57 32//57 8//57
f 7//58 31//58 32//58
f 8//59 33//59 9//59
f 8//60 32//60 33//60
f 9//61 34//61 10//61
f 9//62 33//62 34//62
f 10//63 35//63 11//63
f 10//64 34//64 35//64
f 11//65 36//65 12//65
f 11//66 35//66 36//66
f 12//67 37//67 13//67
f 12//68 36//68 37//68
f 13//69 38//69 14//69
f 13//70 37//70 38//70
f 14//71 39//71 15//71
f 14//72 38//72 39//72
f 15//73 40//73 16//73
f 15//74 39//74 40//74
f 16//75 41//75 17//75
f 16//76 40//76 41//76
f 17//77 42//77 18//77
f 17//78 41//78 42//78
f 18//79 43//79 19//79
f 18//80 42//80 43//80
f 19//81 44//81 20//81
f 19//82 43//82 44//82
f 20//83 45//83 21//83
f 20//84 44//84 45//84
f 21//85 46//85 22//85
f 21//86 45//86 46//86
f 22//87 47//87 23//87
f 22//88 46//88 47//88
f 23//89 48//89 24//89
f 23//90 47//90 48//90
f 24//91 25//91 1//91
f 24//92 48//92 25//92
