# construction_4961_assumed_A_Casa
# source A_Casa
# h_campo 0.000000
# modeled_height 6.000000
# height_kind assumed
# local_origin_world_x 172001.034850
# local_origin_world_y 402500.144600
mtllib construction_artifacts.mtl

o construction_4961_assumed_A_Casa
v -12.627500 -3.710500 0.000000
v -9.330500 -1.273500 0.000000
v -11.532500 1.831500 0.000000
v -6.886500 4.953500 0.000000
v -7.739500 6.134500 0.000000
v -1.788500 10.020500 0.000000
v 6.951500 0.703500 0.000000
v 12.627500 -1.627500 0.000000
v 3.436500 -7.748500 0.000000
v 0.449500 -3.484500 0.000000
v -8.472500 -10.020500 0.000000
v -12.627500 -3.710500 6.000000
v -9.330500 -1.273500 6.000000
v -11.532500 1.831500 6.000000
v -6.886500 4.953500 6.000000
v -7.739500 6.134500 6.000000
v -1.788500 10.020500 6.000000
v 6.951500 0.703500 6.000000
v 12.627500 -1.627500 6.000000
v 3.436500 -7.748500 6.000000
v 0.449500 -3.484500 6.000000
v -8.472500 -10.020500 6.000000
vn 0.000000 0.000000 -1.000000
vn 0.000000 0.000000 -1.000000
vn 0.000000 0.000000 -1.000000
vn 0.000000 0.000000 -1.000000
vn 0.000000 0.000000 -1.000000
vn 0.000000 -0.000000 -1.000000
vn 0.000000 0.000000 -1.000000
vn 0.000000 0.000000 -1.000000
vn 0.000000 -0.000000 -1.000000
vn 0.000000 0.000000 1.000000
vn 0.000000 -0.000000 1.000000
vn 0.000000 -0.000000 1.000000
vn 0.000000 -0.000000 1.000000
vn 0.000000 0.000000 1.000000
vn 0.000000 0.000000 1.000000
vn 0.000000 0.000000 1.000000
vn 0.000000 0.000000 1.000000
vn 0.000000 0.000000 1.000000
vn -0.594405 0.804166 0.000000
vn -0.594405 0.804166 0.000000
vn -0.815699 -0.578476 0.000000
vn -0.815699 -0.578476 0.000000
vn -0.557747 0.830011 0.000000
vn -0.557747 0.830011 0.000000
vn -0.810661 -0.585516 0.000000
vn -0.810661 -0.585516 0.000000
vn -0.546753 0.837294 0.000000
vn -0.546753 0.837294 0.000000
vn 0.729330 0.684162 0.000000
vn 0.729330 0.684162 -0.000000
vn 0.379889 0.925032 0.000000
vn 0.379889 0.925032 -0.000000
vn 0.554303 -0.832315 0.000000
vn 0.554303 -0.832315 0.000000
vn -0.819033 -0.573746 0.000000
vn -0.819033 -0.573746 0.000000
vn 0.590964 -0.806698 0.000000
vn 0.590964 -0.806698 0.000000
vn -0.835193 -0.549957 0.000000
vn -0.835193 -0.549957 0.000000
usemtl assumed_base
f 11//1 1//1 2//1
f 2//2 3//2 4//2
f 11//3 2//3 4//3
f 4//4 5//4 6//4
f 11//5 4//5 6//5
f 7//6 8//6 9//6
f 6//7 7//7 9//7
f 6//8 9//8 10//8
f 6//9 10//9 11//9
usemtl assumed_roof
f 22//10 13//10 12//10
f 13//11 15//11 14//11
f 22//12 15//12 13//12
f 15//13 17//13 16//13
f 22//14 17//14 15//14
f 18//15 20//15 19//15
f 17//16 20//16 18//16
f 17//17 21//17 20//17
f 17//18 22//18 21//18
usemtl assumed_wall
f 1//19 13//19 2//19
f 1//20 12//20 13//20
f 2//21 14//21 3//21
f 2//22 13//22 14//22
f 3//23 15//23 4//23
f 3//24 14//24 15//24
f 4//25 16//25 5//25
f 4//26 15//26 16//26
f 5//27 17//27 6//27
f 5//28 16//28 17//28
f 6//29 18//29 7//29
f 6//30 17//30 18//30
f 7//31 19//31 8//31
f 7//32 18//32 19//32
f 8//33 20//33 9//33
f 8//34 19//34 20//34
f 9//35 21//35 10//35
f 9//36 20//36 21//36
f 10//37 22//37 11//37
f 10//38 21//38 22//38
f 11//39 12//39 1//39
f 11//40 22//40 12//40
