# construction_0144_assumed_A_Grande_construcao
# source A_Grande_construcao
# h_campo 0.000000
# modeled_height 6.000000
# height_kind assumed
# local_origin_world_x 172001.034850
# local_origin_world_y 402500.144600
mtllib construction_artifacts.mtl

o construction_0144_assumed_A_Grande_construcao
v -31.779500 108.295500 0.000000
v 91.733500 41.941500 0.000000
v 48.735500 -37.360500 0.000000
v 97.252500 -63.828500 0.000000
v 72.935500 -108.520500 0.000000
v 38.946500 -90.728500 0.000000
v 37.632500 -93.616500 0.000000
v -5.158500 -70.059500 0.000000
v -3.723500 -66.889500 0.000000
v -97.252500 -17.915500 0.000000
v -59.946500 46.846500 0.000000
v -65.281500 49.073500 0.000000
v -61.831500 55.294500 0.000000
v -69.374500 59.489500 0.000000
v -42.262500 108.520500 0.000000
v -34.328500 103.748500 0.000000
v -31.779500 108.295500 6.000000
v 91.733500 41.941500 6.000000
v 48.735500 -37.360500 6.000000
v 97.252500 -63.828500 6.000000
v 72.935500 -108.520500 6.000000
v 38.946500 -90.728500 6.000000
v 37.632500 -93.616500 6.000000
v -5.158500 -70.059500 6.000000
v -3.723500 -66.889500 6.000000
v -97.252500 -17.915500 6.000000
v -59.946500 46.846500 6.000000
v -65.281500 49.073500 6.000000
v -61.831500 55.294500 6.000000
v -69.374500 59.489500 6.000000
v -42.262500 108.520500 6.000000
v -34.328500 103.748500 6.000000
vn 0.000000 0.000000 -1.000000
vn 0.000000 0.000000 -1.000000
vn 0.000000 0.000000 -1.000000
vn 0.000000 0.000000 -1.000000
vn 0.000000 0.000000 -1.000000
vn 0.000000 0.000000 -1.000000
vn 0.000000 0.000000 -1.000000
vn 0.000000 0.000000 -1.000000
vn 0.000000 0.000000 -1.000000
vn 0.000000 -0.000000 -1.000000
vn 0.000000 0.000000 -1.000000
vn 0.000000 0.000000 -1.000000
vn 0.000000 0.000000 -1.000000
vn 0.000000 0.000000 -1.000000
vn -0.000000 0.000000 1.000000
vn 0.000000 0.000000 1.000000
vn 0.000000 0.000000 1.000000
vn 0.000000 0.000000 1.000000
vn 0.000000 0.000000 1.000000
vn 0.000000 0.000000 1.000000
vn 0.000000 0.000000 1.000000
vn 0.000000 0.000000 1.000000
vn 0.000000 0.000000 1.000000
vn 0.000000 0.000000 1.000000
vn 0.000000 0.000000 1.000000
vn 0.000000 0.000000 1.000000
vn 0.000000 0.000000 1.000000
vn 0.000000 0.000000 1.000000
vn 0.473254 0.880926 0.000000
vn 0.473254 0.880926 -0.000000
vn 0.879093 -0.476650 0.000000
vn 0.879093 -0.476650 0.000000
vn 0.478910 0.877864 0.000000
vn 0.478910 0.877864 -0.000000
vn 0.878395 -0.477936 0.000000
vn 0.878395 -0.477936 0.000000
vn -0.463766 -0.885958 0.000000
vn -0.463766 -0.885958 0.000000
vn 0.910215 -0.414135 0.000000
vn 0.910215 -0.414135 0.000000
vn -0.482264 -0.876026 0.000000
vn -0.482264 -0.876026 0.000000
vn -0.911005 0.412395 0.000000
vn -0.911005 0.412395 0.000000
vn -0.463878 -0.885899 0.000000
vn -0.463878 -0.885899 0.000000
vn -0.866514 0.499153 0.000000
vn -0.866514 0.499153 0.000000
vn -0.385217 -0.922826 0.000000
vn -0.385217 -0.922826 0.000000
vn -0.874522 0.484986 0.000000
vn -0.874522 0.484986 0.000000
vn -0.486036 -0.873939 0.000000
vn -0.486036 -0.873939 0.000000
vn -0.875121 0.483904 0.000000
vn -0.875121 0.483904 0.000000
vn 0.515417 0.856940 0.000000
vn 0.515417 0.856940 -0.000000
vn -0.872287 0.488995 0.000000
vn -0.872287 0.488995 0.000000
usemtl assumed_base
f 16//1 1//1 2//1
f 16//2 2//2 3//2
f 3//3 4//3 5//3
f 16//4 3//4 5//4
f 16//5 5//5 6//5
f 16//6 6//6 7//6
f 7//7 8//7 9//7
f 16//8 7//8 9//8
f 9//9 10//9 11//9
f 16//10 9//10 11//10
f 16//11 11//11 12//11
f 16//12 12//12 13//12
f 16//13 13//13 14//13
f 14//14 15//14 16//14
usemtl assumed_roof
f 32//15 18//15 17//15
f 32//16 19//16 18//16
f 19//17 21//17 20//17
f 32//18 21//18 19//18
f 32//19 22//19 21//19
f 32//20 23//20 22//20
f 23//21 25//21 24//21
f 32//22 25//22 23//22
f 25//23 27//23 26//23
f 32//24 27//24 25//24
f 32//25 28//25 27//25
f 32//26 29//26 28//26
f 32//27 30//27 29//27
f 30//28 32//28 31//28
usemtl assumed_wall
f 1//29 18//29 2//29
f 1//30 17//30 18//30
f 2//31 19//31 3//31
f 2//32 18//32 19//32
f 3//33 20//33 4//33
f 3//34 19//34 20//34
f 4//35 21//35 5//35
f 4//36 20//36 21//36
f 5//37 22//37 6//37
f 5//38 21//38 22//38
f 6//39 23//39 7//39
f 6//40 22//40 23//40
f 7//41 24//41 8//41
f 7//42 23//42 24//42
f 8//43 25//43 9//43
f 8//44 24//44 25//44
f 9//45 26//45 10//45
f 9//46 25//46 26//46
f 10//47 27//47 11//47
f 10//48 26//48 27//48
f 11//49 28//49 12//49
f 11//50 27//50 28//50
f 12//51 29//51 13//51
f 12//52 28//52 29//52
f 13//53 30//53 14//53
f 13//54 29//54 30//54
f 14//55 31//55 15//55
f 14//56 30//56 31//56
f 15//57 32//57 16//57
f 15//58 31//58 32//58
f 16//59 17//59 1//59
f 16//60 32//60 17//60
