# construction_5623_assumed_A_Casa
# source A_Casa
# h_campo 0.000000
# modeled_height 6.000000
# height_kind assumed
# local_origin_world_x 172001.034850
# local_origin_world_y 402500.144600
mtllib construction_artifacts.mtl

o construction_5623_assumed_A_Casa
v -8.399500 0.164500 0.000000
v -5.842500 2.440500 0.000000
v -8.359500 7.355500 0.000000
v -5.905500 9.923500 0.000000
v -6.897500 11.859500 0.000000
v -2.320500 14.442500 0.000000
v -0.014500 10.852500 0.000000
v 2.283500 11.643500 0.000000
v 3.439500 10.303500 0.000000
v 3.414500 7.449500 0.000000
v -0.837500 4.925500 0.000000
v 8.399500 -9.695500 0.000000
v 2.804500 -14.442500 0.000000
v -8.399500 0.164500 6.000000
v -5.842500 2.440500 6.000000
v -8.359500 7.355500 6.000000
v -5.905500 9.923500 6.000000
v -6.897500 11.859500 6.000000
v -2.320500 14.442500 6.000000
v -0.014500 10.852500 6.000000
v 2.283500 11.643500 6.000000
v 3.439500 10.303500 6.000000
v 3.414500 7.449500 6.000000
v -0.837500 4.925500 6.000000
v 8.399500 -9.695500 6.000000
v 2.804500 -14.442500 6.000000
vn 0.000000 0.000000 -1.000000
vn 0.000000 0.000000 -1.000000
vn 0.000000 0.000000 -1.000000
vn 0.000000 0.000000 -1.000000
vn 0.000000 0.000000 -1.000000
vn 0.000000 0.000000 -1.000000
vn 0.000000 0.000000 -1.000000
vn 0.000000 0.000000 -1.000000
vn 0.000000 0.000000 -1.000000
vn 0.000000 0.000000 -1.000000
vn 0.000000 0.000000 -1.000000
vn 0.000000 0.000000 1.000000
vn 0.000000 0.000000 1.000000
vn 0.000000 0.000000 1.000000
vn 0.000000 -0.000000 1.000000
vn 0.000000 0.000000 1.000000
vn -0.000000 0.000000 1.000000
vn 0.000000 0.000000 1.000000
vn -0.000000 0.000000 1.000000
vn 0.000000 0.000000 1.000000
vn 0.000000 0.000000 1.000000
vn 0.000000 0.000000 1.000000
vn -0.664871 0.746958 0.000000
vn -0.664871 0.746958 0.000000
vn -0.890076 -0.455813 0.000000
vn -0.890076 -0.455813 0.000000
vn -0.722972 0.690877 0.000000
vn -0.722972 0.690877 0.000000
vn -0.889971 -0.456018 0.000000
vn -0.889971 -0.456018 0.000000
vn -0.491480 0.870889 0.000000
vn -0.491480 0.870889 0.000000
vn 0.841376 0.540450 0.000000
vn 0.841376 0.540450 -0.000000
vn -0.325471 0.945552 0.000000
vn -0.325471 0.945552 0.000000
vn 0.757179 0.653208 0.000000
vn 0.757179 0.653208 -0.000000
vn 0.999962 -0.008759 0.000000
vn 0.999962 -0.008759 0.000000
vn 0.510445 -0.859910 0.000000
vn 0.510445 -0.859910 0.000000
vn 0.845419 0.534104 0.000000
vn 0.845419 0.534104 -0.000000
vn 0.646956 -0.762527 0.000000
vn 0.646956 -0.762527 0.000000
vn -0.793467 -0.608613 0.000000
vn -0.793467 -0.608613 0.000000
usemtl assumed_base
f 13//1 1//1 2//1
f 13//2 2//2 3//2
f 13//3 3//3 4//3
f 4//4 5//4 6//4
f 4//5 6//5 7//5
f 7//6 8//6 9//6
f 4//7 7//7 9//7
f 4//8 9//8 10//8
f 4//9 10//9 11//9
f 13//10 4//10 11//10
f 11//11 12//11 13//11
usemtl assumed_roof
f 26//12 15//12 14//12
f 26//13 16//13 15//13
f 26//14 17//14 16//14
f 17//15 19//15 18//15
f 17//16 20//16 19//16
f 20//17 22//17 21//17
f 17//18 22//18 20//18
f 17//19 23//19 22//19
f 17//20 24//20 23//20
f 26//21 24//21 17//21
f 24//22 26//22 25//22
usemtl assumed_wall
f 1//23 15//23 2//23
f 1//24 14//24 15//24
f 2//25 16//25 3//25
f 2//26 15//26 16//26
f 3//27 17//27 4//27
f 3//28 16//28 17//28
f 4//29 18//29 5//29
f 4//30 17//30 18//30
f 5//31 19//31 6//31
f 5//32 18//32 19//32
f 6//33 20//33 7//33
f 6//34 19//34 20//34
f 7//35 21//35 8//35
f 7//36 20//36 21//36
f 8//37 22//37 9//37
f 8//38 21//38 22//38
f 9//39 23//39 10//39
f 9//40 22//40 23//40
f 10//41 24//41 11//41
f 10//42 23//42 24//42
f 11//43 25//43 12//43
f 11//44 24//44 25//44
f 12//45 26//45 13//45
f 12//46 25//46 26//46
f 13//47 14//47 1//47
f 13//48 26//48 14//48
