# construction_6102_assumed_A_Casa
# source A_Casa
# h_campo 0.000000
# modeled_height 6.000000
# height_kind assumed
# local_origin_world_x 172001.034850
# local_origin_world_y 402500.144600
mtllib construction_artifacts.mtl

o construction_6102_assumed_A_Casa
v 3.021000 -10.289000 0.000000
v -11.541000 -0.913000 0.000000
v -8.275000 4.197000 0.000000
v -11.190000 5.105000 0.000000
v -11.336000 7.434000 0.000000
v -10.013000 9.979000 0.000000
v -4.445000 10.289000 0.000000
v -4.495000 3.927000 0.000000
v -1.098000 3.154000 0.000000
v 2.779000 10.270000 0.000000
v 11.541000 4.914000 0.000000
v 3.021000 -10.289000 6.000000
v -11.541000 -0.913000 6.000000
v -8.275000 4.197000 6.000000
v -11.190000 5.105000 6.000000
v -11.336000 7.434000 6.000000
v -10.013000 9.979000 6.000000
v -4.445000 10.289000 6.000000
v -4.495000 3.927000 6.000000
v -1.098000 3.154000 6.000000
v 2.779000 10.270000 6.000000
v 11.541000 4.914000 6.000000
vn 0.000000 0.000000 -1.000000
vn 0.000000 0.000000 -1.000000
vn 0.000000 0.000000 -1.000000
vn 0.000000 0.000000 -1.000000
vn 0.000000 0.000000 -1.000000
vn 0.000000 0.000000 -1.000000
vn 0.000000 0.000000 -1.000000
vn 0.000000 0.000000 -1.000000
vn 0.000000 0.000000 -1.000000
vn 0.000000 0.000000 1.000000
vn 0.000000 0.000000 1.000000
vn 0.000000 0.000000 1.000000
vn 0.000000 -0.000000 1.000000
vn -0.000000 0.000000 1.000000
vn 0.000000 0.000000 1.000000
vn 0.000000 0.000000 1.000000
vn 0.000000 0.000000 1.000000
vn 0.000000 0.000000 1.000000
vn -0.541359 -0.840792 0.000000
vn -0.541359 -0.840792 0.000000
vn -0.842601 0.538539 0.000000
vn -0.842601 0.538539 0.000000
vn -0.297398 -0.954753 0.000000
vn -0.297398 -0.954753 0.000000
vn -0.998041 -0.062565 0.000000
vn -0.998041 -0.062565 0.000000
vn -0.887274 0.461243 0.000000
vn -0.887274 0.461243 0.000000
vn -0.055589 0.998454 0.000000
vn -0.055589 0.998454 0.000000
vn 0.999969 -0.007859 0.000000
vn 0.999969 -0.007859 0.000000
vn 0.221882 0.975074 0.000000
vn 0.221882 0.975074 -0.000000
vn -0.878127 0.478428 0.000000
vn -0.878127 0.478428 0.000000
vn 0.521552 0.853219 0.000000
vn 0.521552 0.853219 -0.000000
vn 0.872351 -0.488879 0.000000
vn 0.872351 -0.488879 0.000000
usemtl assumed_base
f 11//1 1//1 2//1
f 3//2 4//2 5//2
f 3//3 5//3 6//3
f 3//4 6//4 7//4
f 3//5 7//5 8//5
f 2//6 3//6 8//6
f 2//7 8//7 9//7
f 11//8 2//8 9//8
f 9//9 10//9 11//9
usemtl assumed_roof
f 22//10 13//10 12//10
f 14//11 16//11 15//11
f 14//12 17//12 16//12
f 14//13 18//13 17//13
f 14//14 19//14 18//14
f 13//15 19//15 14//15
f 13//16 20//16 19//16
f 22//17 20//17 13//17
f 20//18 22//18 21//18
usemtl assumed_wall
f 1//19 13//19 2//19
f 1//20 12//20 13//20
f 2//21 14//21 3//21
f 2//22 13//22 14//22
f 3//23 15//23 4//23
f 3//24 14//24 15//24
f 4//25 16//25 5//25
f 4//26 15//26 16//26
f 5//27 17//27 6//27
f 5//28 16//28 17//28
f 6//29 18//29 7//29
f 6//30 17//30 18//30
f 7//31 19//31 8//31
f 7//32 18//32 19//32
f 8//33 20//33 9//33
f 8//34 19//34 20//34
f 9//35 21//35 10//35
f 9//36 20//36 21//36
f 10//37 22//37 11//37
f 10//38 21//38 22//38
f 11//39 12//39 1//39
f 11//40 22//40 12//40
