# construction_4004_assumed_A_Casa
# source A_Casa
# h_campo 0.000000
# modeled_height 6.000000
# height_kind assumed
# local_origin_world_x 172001.034850
# local_origin_world_y 402500.144600
mtllib construction_artifacts.mtl

o construction_4004_assumed_A_Casa
v -9.981500 3.935000 0.000000
v 0.869500 9.946000 0.000000
v 9.981500 -2.573000 0.000000
v 8.150500 -4.085000 0.000000
v 3.613500 1.507000 0.000000
v -2.257500 -2.607000 0.000000
v 1.421500 -8.267000 0.000000
v -1.168500 -9.946000 0.000000
v -9.981500 3.935000 6.000000
v 0.869500 9.946000 6.000000
v 9.981500 -2.573000 6.000000
v 8.150500 -4.085000 6.000000
v 3.613500 1.507000 6.000000
v -2.257500 -2.607000 6.000000
v 1.421500 -8.267000 6.000000
v -1.168500 -9.946000 6.000000
vn 0.000000 0.000000 -1.000000
vn 0.000000 0.000000 -1.000000
vn 0.000000 0.000000 -1.000000
vn 0.000000 0.000000 -1.000000
vn 0.000000 0.000000 -1.000000
vn 0.000000 0.000000 -1.000000
vn 0.000000 0.000000 1.000000
vn 0.000000 0.000000 1.000000
vn -0.000000 0.000000 1.000000
vn 0.000000 0.000000 1.000000
vn 0.000000 0.000000 1.000000
vn 0.000000 0.000000 1.000000
vn -0.484575 0.874750 0.000000
vn -0.484575 0.874750 0.000000
vn 0.808513 0.588479 0.000000
vn 0.808513 0.588479 -0.000000
vn 0.636740 -0.771079 0.000000
vn 0.636740 -0.771079 0.000000
vn -0.776556 -0.630049 0.000000
vn -0.776556 -0.630049 0.000000
vn 0.573865 -0.818950 0.000000
vn 0.573865 -0.818950 0.000000
vn 0.838444 0.544988 0.000000
vn 0.838444 0.544988 -0.000000
vn 0.543963 -0.839109 0.000000
vn 0.543963 -0.839109 0.000000
vn -0.844222 -0.535994 0.000000
vn -0.844222 -0.535994 0.000000
usemtl assumed_base
f 2//1 3//1 4//1
f 2//2 4//2 5//2
f 1//3 2//3 5//3
f 1//4 5//4 6//4
f 8//5 1//5 6//5
f 6//6 7//6 8//6
usemtl assumed_roof
f 10//7 12//7 11//7
f 10//8 13//8 12//8
f 9//9 13//9 10//9
f 9//10 14//10 13//10
f 16//11 14//11 9//11
f 14//12 16//12 15//12
usemtl assumed_wall
f 1//13 10//13 2//13
f 1//14 9//14 10//14
f 2//15 11//15 3//15
f 2//16 10//16 11//16
f 3//17 12//17 4//17
f 3//18 11//18 12//18
f 4//19 13//19 5//19
f 4//20 12//20 13//20
f 5//21 14//21 6//21
f 5//22 13//22 14//22
f 6//23 15//23 7//23
f 6//24 14//24 15//24
f 7//25 16//25 8//25
f 7//26 15//26 16//26
f 8//27 9//27 1//27
f 8//28 16//28 9//28
