# construction_5724_assumed_A_Casa
# source A_Casa
# h_campo 0.000000
# modeled_height 6.000000
# height_kind assumed
# local_origin_world_x 172001.034850
# local_origin_world_y 402500.144600
mtllib construction_artifacts.mtl

o construction_5724_assumed_A_Casa
v 2.437500 -1.580000 0.000000
v 2.137500 -3.421000 0.000000
v -12.499500 -7.050000 0.000000
v -12.819500 -1.811000 0.000000
v -1.260500 2.143000 0.000000
v -1.265500 3.101000 0.000000
v 12.379500 7.050000 0.000000
v 12.819500 -0.491000 0.000000
v 2.437500 -1.580000 6.000000
v 2.137500 -3.421000 6.000000
v -12.499500 -7.050000 6.000000
v -12.819500 -1.811000 6.000000
v -1.260500 2.143000 6.000000
v -1.265500 3.101000 6.000000
v 12.379500 7.050000 6.000000
v 12.819500 -0.491000 6.000000
vn 0.000000 0.000000 -1.000000
vn 0.000000 0.000000 -1.000000
vn 0.000000 0.000000 -1.000000
vn -0.000000 0.000000 -1.000000
vn 0.000000 0.000000 -1.000000
vn 0.000000 0.000000 -1.000000
vn 0.000000 0.000000 1.000000
vn 0.000000 0.000000 1.000000
vn 0.000000 0.000000 1.000000
vn 0.000000 0.000000 1.000000
vn 0.000000 0.000000 1.000000
vn -0.000000 0.000000 1.000000
vn 0.986982 -0.160833 0.000000
vn 0.986982 -0.160833 0.000000
vn 0.240647 -0.970613 0.000000
vn 0.240647 -0.970613 0.000000
vn -0.998140 -0.060967 0.000000
vn -0.998140 -0.060967 0.000000
vn -0.323659 0.946174 0.000000
vn -0.323659 0.946174 0.000000
vn -0.999986 -0.005219 0.000000
vn -0.999986 -0.005219 0.000000
vn -0.278002 0.960581 0.000000
vn -0.278002 0.960581 0.000000
vn 0.998302 0.058249 0.000000
vn 0.998302 0.058249 -0.000000
vn 0.104321 -0.994544 0.000000
vn 0.104321 -0.994544 0.000000
usemtl assumed_base
f 1//1 2//1 3//1
f 1//2 3//2 4//2
f 8//3 1//3 4//3
f 8//4 4//4 5//4
f 8//5 5//5 6//5
f 6//6 7//6 8//6
usemtl assumed_roof
f 9//7 11//7 10//7
f 9//8 12//8 11//8
f 16//9 12//9 9//9
f 16//10 13//10 12//10
f 16//11 14//11 13//11
f 14//12 16//12 15//12
usemtl assumed_wall
f 1//13 10//13 2//13
f 1//14 9//14 10//14
f 2//15 11//15 3//15
f 2//16 10//16 11//16
f 3//17 12//17 4//17
f 3//18 11//18 12//18
f 4//19 13//19 5//19
f 4//20 12//20 13//20
f 5//21 14//21 6//21
f 5//22 13//22 14//22
f 6//23 15//23 7//23
f 6//24 14//24 15//24
f 7//25 16//25 8//25
f 7//26 15//26 16//26
f 8//27 9//27 1//27
f 8//28 16//28 9//28
