# construction_6005_assumed_A_Casa
# source A_Casa
# h_campo 0.000000
# modeled_height 6.000000
# height_kind assumed
# local_origin_world_x 172001.034850
# local_origin_world_y 402500.144600
mtllib construction_artifacts.mtl

o construction_6005_assumed_A_Casa
v -7.467500 0.880500 0.000000
v -6.544500 0.567500 0.000000
v 0.383500 4.582500 0.000000
v -1.021500 6.495500 0.000000
v 10.559500 14.433500 0.000000
v 11.094500 13.958500 0.000000
v 12.581500 14.890500 0.000000
v 19.678500 6.833500 0.000000
v 15.984500 4.241500 0.000000
v 16.914500 3.296500 0.000000
v 9.698500 -2.722500 0.000000
v 8.964500 -1.867500 0.000000
v 4.375500 -5.860500 0.000000
v 5.385500 -7.234500 0.000000
v -3.892500 -14.890500 0.000000
v -8.054500 -10.063500 0.000000
v -8.971500 -11.099500 0.000000
v -14.515500 -5.025500 0.000000
v -16.054500 -4.946500 0.000000
v -19.678500 0.381500 0.000000
v -15.200500 3.881500 0.000000
v -10.865500 -1.949500 0.000000
v -7.467500 0.880500 6.000000
v -6.544500 0.567500 6.000000
v 0.383500 4.582500 6.000000
v -1.021500 6.495500 6.000000
v 10.559500 14.433500 6.000000
v 11.094500 13.958500 6.000000
v 12.581500 14.890500 6.000000
v 19.678500 6.833500 6.000000
v 15.984500 4.241500 6.000000
v 16.914500 3.296500 6.000000
v 9.698500 -2.722500 6.000000
v 8.964500 -1.867500 6.000000
v 4.375500 -5.860500 6.000000
v 5.385500 -7.234500 6.000000
v -3.892500 -14.890500 6.000000
v -8.054500 -10.063500 6.000000
v -8.971500 -11.099500 6.000000
v -14.515500 -5.025500 6.000000
v -16.054500 -4.946500 6.000000
v -19.678500 0.381500 6.000000
v -15.200500 3.881500 6.000000
v -10.865500 -1.949500 6.000000
vn 0.000000 0.000000 -1.000000
vn 0.000000 0.000000 -1.000000
vn 0.000000 0.000000 -1.000000
vn 0.000000 0.000000 -1.000000
vn 0.000000 0.000000 -1.000000
vn 0.000000 0.000000 -1.000000
vn 0.000000 0.000000 -1.000000
vn 0.000000 0.000000 -1.000000
vn 0.000000 0.000000 -1.000000
vn 0.000000 0.000000 -1.000000
vn 0.000000 0.000000 -1.000000
vn 0.000000 0.000000 -1.000000
vn 0.000000 0.000000 -1.000000
vn 0.000000 0.000000 -1.000000
vn 0.000000 0.000000 -1.000000
vn 0.000000 0.000000 -1.000000
vn 0.000000 -0.000000 -1.000000
vn 0.000000 0.000000 -1.000000
vn -0.000000 0.000000 -1.000000
vn 0.000000 0.000000 -1.000000
vn 0.000000 0.000000 1.000000
vn 0.000000 0.000000 1.000000
vn 0.000000 -0.000000 1.000000
vn 0.000000 0.000000 1.000000
vn 0.000000 0.000000 1.000000
vn 0.000000 0.000000 1.000000
vn 0.000000 0.000000 1.000000
vn 0.000000 0.000000 1.000000
vn 0.000000 0.000000 1.000000
vn 0.000000 0.000000 1.000000
vn 0.000000 0.000000 1.000000
vn -0.000000 0.000000 1.000000
vn 0.000000 0.000000 1.000000
vn 0.000000 0.000000 1.000000
vn 0.000000 0.000000 1.000000
vn 0.000000 0.000000 1.000000
vn 0.000000 0.000000 1.000000
vn 0.000000 0.000000 1.000000
vn 0.000000 0.000000 1.000000
vn -0.000000 0.000000 1.000000
vn 0.321148 0.947029 0.000000
vn 0.321148 0.947029 -0.000000
vn -0.501415 0.865207 0.000000
vn -0.501415 0.865207 0.000000
vn -0.805976 -0.591948 0.000000
vn -0.805976 -0.591948 0.000000
vn -0.565371 0.824837 0.000000
vn -0.565371 0.824837 0.000000
vn 0.663930 0.747795 0.000000
vn 0.663930 0.747795 -0.000000
vn -0.531074 0.847325 0.000000
vn -0.531074 0.847325 0.000000
vn 0.750397 0.660987 0.000000
vn 0.750397 0.660987 -0.000000
vn 0.574384 -0.818586 0.000000
vn 0.574384 -0.818586 0.000000
vn 0.712741 0.701427 0.000000
vn 0.712741 0.701427 -0.000000
vn 0.640540 -0.767925 0.000000
vn 0.640540 -0.767925 0.000000
vn -0.758755 -0.651376 0.000000
vn -0.758755 -0.651376 0.000000
vn 0.656419 -0.754397 0.000000
vn 0.656419 -0.754397 0.000000
vn 0.805733 0.592278 0.000000
vn 0.805733 0.592278 -0.000000
vn 0.636465 -0.771306 0.000000
vn 0.636465 -0.771306 0.000000
vn -0.757348 -0.653011 0.000000
vn -0.757348 -0.653011 0.000000
vn 0.748803 -0.662792 0.000000
vn 0.748803 -0.662792 0.000000
vn -0.738596 -0.674148 0.000000
vn -0.738596 -0.674148 0.000000
vn -0.051265 -0.998685 0.000000
vn -0.051265 -0.998685 0.000000
vn -0.826857 -0.562412 0.000000
vn -0.826857 -0.562412 0.000000
vn -0.615815 0.787891 0.000000
vn -0.615815 0.787891 0.000000
vn 0.802520 0.596625 0.000000
vn 0.802520 0.596625 -0.000000
vn -0.639962 0.768407 0.000000
vn -0.639962 0.768407 0.000000
usemtl assumed_base
f 22//1 1//1 2//1
f 22//2 2//2 3//2
f 3//3 4//3 5//3
f 3//4 5//4 6//4
f 3//5 6//5 7//5
f 3//6 7//6 8//6
f 22//7 3//7 8//7
f 22//8 8//8 9//8
f 22//9 9//9 10//9
f 10//10 11//10 12//10
f 22//11 10//11 12//11
f 22//12 12//12 13//12
f 22//13 13//13 14//13
f 22//14 14//14 15//14
f 22//15 15//15 16//15
f 22//16 16//16 17//16
f 22//17 17//17 18//17
f 22//18 18//18 19//18
f 22//19 19//19 20//19
f 20//20 21//20 22//20
usemtl assumed_roof
f 44//21 24//21 23//21
f 44//22 25//22 24//22
f 25//23 27//23 26//23
f 25//24 28//24 27//24
f 25//25 29//25 28//25
f 25//26 30//26 29//26
f 44//27 30//27 25//27
f 44//28 31//28 30//28
f 44//29 32//29 31//29
f 32//30 34//30 33//30
f 44//31 34//31 32//31
f 44//32 35//32 34//32
f 44//33 36//33 35//33
f 44//34 37//34 36//34
f 44//35 38//35 37//35
f 44//36 39//36 38//36
f 44//37 40//37 39//37
f 44//38 41//38 40//38
f 44//39 42//39 41//39
f 42//40 44//40 43//40
usemtl assumed_wall
f 1//41 24//41 2//41
f 1//42 23//42 24//42
f 2//43 25//43 3//43
f 2//44 24//44 25//44
f 3//45 26//45 4//45
f 3//46 25//46 26//46
f 4//47 27//47 5//47
f 4//48 26//48 27//48
f 5//49 28//49 6//49
f 5//50 27//50 28//50
f 6//51 29//51 7//51
f 6//52 28//52 29//52
f 7//53 30//53 8//53
f 7//54 29//54 30//54
f 8//55 31//55 9//55
f 8//56 30//56 31//56
f 9//57 32//57 10//57
f 9//58 31//58 32//58
f 10//59 33//59 11//59
f 10//60 32//60 33//60
f 11//61 34//61 12//61
f 11//62 33//62 34//62
f 12//63 35//63 13//63
f 12//64 34//64 35//64
f 13//65 36//65 14//65
f 13//66 35//66 36//66
f 14//67 37//67 15//67
f 14//68 36//68 37//68
f 15//69 38//69 16//69
f 15//70 37//70 38//70
f 16//71 39//71 17//71
f 16//72 38//72 39//72
f 17//73 40//73 18//73
f 17//74 39//74 40//74
f 18//75 41//75 19//75
f 18//76 40//76 41//76
f 19//77 42//77 20//77
f 19//78 41//78 42//78
f 20//79 43//79 21//79
f 20//80 42//80 43//80
f 21//81 44//81 22//81
f 21//82 43//82 44//82
f 22//83 23//83 1//83
f 22//84 44//84 23//84
