# construction_4847_assumed_A_Casa
# source A_Casa
# h_campo 0.000000
# modeled_height 6.000000
# height_kind assumed
# local_origin_world_x 172001.034850
# local_origin_world_y 402500.144600
mtllib construction_artifacts.mtl

o construction_4847_assumed_A_Casa
v -10.731500 7.124500 0.000000
v -2.635500 10.251500 0.000000
v 2.074500 5.991500 0.000000
v 6.113500 10.834500 0.000000
v 10.731500 8.159500 0.000000
v 6.429500 1.814500 0.000000
v 2.799500 -7.428500 0.000000
v 2.893500 -9.350500 0.000000
v -0.404500 -10.834500 0.000000
v -5.502500 -3.085500 0.000000
v -8.815500 1.602500 0.000000
v -10.731500 7.124500 6.000000
v -2.635500 10.251500 6.000000
v 2.074500 5.991500 6.000000
v 6.113500 10.834500 6.000000
v 10.731500 8.159500 6.000000
v 6.429500 1.814500 6.000000
v 2.799500 -7.428500 6.000000
v 2.893500 -9.350500 6.000000
v -0.404500 -10.834500 6.000000
v -5.502500 -3.085500 6.000000
v -8.815500 1.602500 6.000000
vn 0.000000 0.000000 -1.000000
vn 0.000000 0.000000 -1.000000
vn 0.000000 0.000000 -1.000000
vn 0.000000 0.000000 -1.000000
vn 0.000000 0.000000 -1.000000
vn 0.000000 0.000000 -1.000000
vn 0.000000 0.000000 -1.000000
vn -0.000000 0.000000 -1.000000
vn 0.000000 0.000000 -1.000000
vn 0.000000 -0.000000 1.000000
vn 0.000000 0.000000 1.000000
vn 0.000000 0.000000 1.000000
vn 0.000000 0.000000 1.000000
vn 0.000000 0.000000 1.000000
vn -0.000000 0.000000 1.000000
vn 0.000000 0.000000 1.000000
vn 0.000000 0.000000 1.000000
vn 0.000000 0.000000 1.000000
vn -0.360299 0.932837 0.000000
vn -0.360299 0.932837 0.000000
vn 0.670790 0.741648 0.000000
vn 0.670790 0.741648 -0.000000
vn -0.767974 0.640481 0.000000
vn -0.767974 0.640481 0.000000
vn 0.501236 0.865311 0.000000
vn 0.501236 0.865311 -0.000000
vn 0.827690 -0.561186 0.000000
vn 0.827690 -0.561186 0.000000
vn 0.930792 -0.365550 0.000000
vn 0.930792 -0.365550 0.000000
vn 0.998806 0.048849 0.000000
vn 0.998806 0.048849 -0.000000
vn 0.410342 -0.911932 0.000000
vn 0.410342 -0.911932 0.000000
vn -0.835418 -0.549615 0.000000
vn -0.835418 -0.549615 0.000000
vn -0.816654 -0.577128 0.000000
vn -0.816654 -0.577128 0.000000
vn -0.944746 -0.327804 0.000000
vn -0.944746 -0.327804 0.000000
usemtl assumed_base
f 11//1 1//1 2//1
f 11//2 2//2 3//2
f 3//3 4//3 5//3
f 11//4 3//4 5//4
f 11//5 5//5 6//5
f 11//6 6//6 7//6
f 11//7 7//7 8//7
f 8//8 9//8 10//8
f 8//9 10//9 11//9
usemtl assumed_roof
f 22//10 13//10 12//10
f 22//11 14//11 13//11
f 14//12 16//12 15//12
f 22//13 16//13 14//13
f 22//14 17//14 16//14
f 22//15 18//15 17//15
f 22//16 19//16 18//16
f 19//17 21//17 20//17
f 19//18 22//18 21//18
usemtl assumed_wall
f 1//19 13//19 2//19
f 1//20 12//20 13//20
f 2//21 14//21 3//21
f 2//22 13//22 14//22
f 3//23 15//23 4//23
f 3//24 14//24 15//24
f 4//25 16//25 5//25
f 4//26 15//26 16//26
f 5//27 17//27 6//27
f 5//28 16//28 17//28
f 6//29 18//29 7//29
f 6//30 17//30 18//30
f 7//31 19//31 8//31
f 7//32 18//32 19//32
f 8//33 20//33 9//33
f 8//34 19//34 20//34
f 9//35 21//35 10//35
f 9//36 20//36 21//36
f 10//37 22//37 11//37
f 10//38 21//38 22//38
f 11//39 12//39 1//39
f 11//40 22//40 12//40
