# construction_0239_assumed_A_Casa
# source A_Casa
# h_campo 0.000000
# modeled_height 6.000000
# height_kind assumed
# local_origin_world_x 172001.034850
# local_origin_world_y 402500.144600
mtllib construction_artifacts.mtl

o construction_0239_assumed_A_Casa
v -14.767000 4.776000 0.000000
v -9.844000 4.868000 0.000000
v -9.952000 6.195000 0.000000
v 13.670000 8.270000 0.000000
v 14.767000 -4.058000 0.000000
v 13.721000 -4.063000 0.000000
v 13.712000 -6.739000 0.000000
v -2.290000 -8.270000 0.000000
v -9.126000 -8.136000 0.000000
v -9.136000 -6.056000 0.000000
v -13.443000 -5.908000 0.000000
v -14.767000 4.776000 6.000000
v -9.844000 4.868000 6.000000
v -9.952000 6.195000 6.000000
v 13.670000 8.270000 6.000000
v 14.767000 -4.058000 6.000000
v 13.721000 -4.063000 6.000000
v 13.712000 -6.739000 6.000000
v -2.290000 -8.270000 6.000000
v -9.126000 -8.136000 6.000000
v -9.136000 -6.056000 6.000000
v -13.443000 -5.908000 6.000000
vn 0.000000 0.000000 -1.000000
vn 0.000000 0.000000 -1.000000
vn 0.000000 0.000000 -1.000000
vn 0.000000 0.000000 -1.000000
vn 0.000000 0.000000 -1.000000
vn 0.000000 0.000000 -1.000000
vn 0.000000 0.000000 -1.000000
vn -0.000000 0.000000 -1.000000
vn 0.000000 0.000000 -1.000000
vn 0.000000 -0.000000 1.000000
vn 0.000000 -0.000000 1.000000
vn 0.000000 0.000000 1.000000
vn 0.000000 0.000000 1.000000
vn 0.000000 0.000000 1.000000
vn -0.000000 0.000000 1.000000
vn 0.000000 0.000000 1.000000
vn 0.000000 0.000000 1.000000
vn 0.000000 0.000000 1.000000
vn -0.018685 0.999825 0.000000
vn -0.018685 0.999825 0.000000
vn -0.996704 -0.081118 0.000000
vn -0.996704 -0.081118 0.000000
vn -0.087505 0.996164 0.000000
vn -0.087505 0.996164 0.000000
vn 0.996064 0.088634 0.000000
vn 0.996064 0.088634 -0.000000
vn 0.004780 -0.999989 0.000000
vn 0.004780 -0.999989 0.000000
vn 0.999994 -0.003363 0.000000
vn 0.999994 -0.003363 0.000000
vn 0.095241 -0.995454 0.000000
vn 0.095241 -0.995454 0.000000
vn -0.019598 -0.999808 0.000000
vn -0.019598 -0.999808 0.000000
vn -0.999988 -0.004808 0.000000
vn -0.999988 -0.004808 0.000000
vn -0.034342 -0.999410 0.000000
vn -0.034342 -0.999410 0.000000
vn -0.992409 -0.122983 0.000000
vn -0.992409 -0.122983 0.000000
usemtl assumed_base
f 11//1 1//1 2//1
f 2//2 3//2 4//2
f 11//3 2//3 4//3
f 4//4 5//4 6//4
f 11//5 4//5 6//5
f 11//6 6//6 7//6
f 7//7 8//7 9//7
f 7//8 9//8 10//8
f 7//9 10//9 11//9
usemtl assumed_roof
f 22//10 13//10 12//10
f 13//11 15//11 14//11
f 22//12 15//12 13//12
f 15//13 17//13 16//13
f 22//14 17//14 15//14
f 22//15 18//15 17//15
f 18//16 20//16 19//16
f 18//17 21//17 20//17
f 18//18 22//18 21//18
usemtl assumed_wall
f 1//19 13//19 2//19
f 1//20 12//20 13//20
f 2//21 14//21 3//21
f 2//22 13//22 14//22
f 3//23 15//23 4//23
f 3//24 14//24 15//24
f 4//25 16//25 5//25
f 4//26 15//26 16//26
f 5//27 17//27 6//27
f 5//28 16//28 17//28
f 6//29 18//29 7//29
f 6//30 17//30 18//30
f 7//31 19//31 8//31
f 7//32 18//32 19//32
f 8//33 20//33 9//33
f 8//34 19//34 20//34
f 9//35 21//35 10//35
f 9//36 20//36 21//36
f 10//37 22//37 11//37
f 10//38 21//38 22//38
f 11//39 12//39 1//39
f 11//40 22//40 12//40
