# construction_5705_assumed_A_Casa
# source A_Casa
# h_campo 0.000000
# modeled_height 6.000000
# height_kind assumed
# local_origin_world_x 172001.034850
# local_origin_world_y 402500.144600
mtllib construction_artifacts.mtl

o construction_5705_assumed_A_Casa
v -13.212500 -5.885000 0.000000
v -12.202500 7.869000 0.000000
v -0.629500 7.051000 0.000000
v -0.567500 3.544000 0.000000
v 1.984500 3.523000 0.000000
v 2.797500 7.372000 0.000000
v 13.212500 6.345000 0.000000
v 12.677500 -7.869000 0.000000
v -1.886500 -6.739000 0.000000
v -1.364500 -3.297000 0.000000
v -2.882500 -3.304000 0.000000
v -2.977500 -6.644000 0.000000
v -13.212500 -5.885000 6.000000
v -12.202500 7.869000 6.000000
v -0.629500 7.051000 6.000000
v -0.567500 3.544000 6.000000
v 1.984500 3.523000 6.000000
v 2.797500 7.372000 6.000000
v 13.212500 6.345000 6.000000
v 12.677500 -7.869000 6.000000
v -1.886500 -6.739000 6.000000
v -1.364500 -3.297000 6.000000
v -2.882500 -3.304000 6.000000
v -2.977500 -6.644000 6.000000
vn 0.000000 0.000000 -1.000000
vn 0.000000 0.000000 -1.000000
vn 0.000000 0.000000 -1.000000
vn 0.000000 0.000000 -1.000000
vn 0.000000 0.000000 -1.000000
vn 0.000000 0.000000 -1.000000
vn 0.000000 0.000000 -1.000000
vn 0.000000 0.000000 -1.000000
vn 0.000000 0.000000 -1.000000
vn 0.000000 0.000000 -1.000000
vn 0.000000 0.000000 1.000000
vn 0.000000 0.000000 1.000000
vn 0.000000 0.000000 1.000000
vn -0.000000 0.000000 1.000000
vn 0.000000 0.000000 1.000000
vn 0.000000 0.000000 1.000000
vn 0.000000 0.000000 1.000000
vn 0.000000 0.000000 1.000000
vn 0.000000 0.000000 1.000000
vn 0.000000 0.000000 1.000000
vn -0.997315 0.073236 0.000000
vn -0.997315 0.073236 0.000000
vn 0.070506 0.997511 0.000000
vn 0.070506 0.997511 -0.000000
vn 0.999844 0.017676 0.000000
vn 0.999844 0.017676 -0.000000
vn 0.008229 0.999966 0.000000
vn 0.008229 0.999966 -0.000000
vn -0.978412 0.206664 0.000000
vn -0.978412 0.206664 0.000000
vn 0.098132 0.995173 0.000000
vn 0.098132 0.995173 -0.000000
vn 0.999292 -0.037612 0.000000
vn 0.999292 -0.037612 0.000000
vn -0.077356 -0.997004 0.000000
vn -0.077356 -0.997004 0.000000
vn -0.988695 0.149942 0.000000
vn -0.988695 0.149942 0.000000
vn 0.004611 -0.999989 0.000000
vn 0.004611 -0.999989 0.000000
vn 0.999596 -0.028432 0.000000
vn 0.999596 -0.028432 0.000000
vn -0.073954 -0.997262 0.000000
vn -0.073954 -0.997262 0.000000
usemtl assumed_base
f 12//1 1//1 2//1
f 2//2 3//2 4//2
f 5//3 6//3 7//3
f 5//4 7//4 8//4
f 4//5 5//5 8//5
f 2//6 4//6 8//6
f 8//7 9//7 10//7
f 2//8 8//8 10//8
f 2//9 10//9 11//9
f 2//10 11//10 12//10
usemtl assumed_roof
f 24//11 14//11 13//11
f 14//12 16//12 15//12
f 17//13 19//13 18//13
f 17//14 20//14 19//14
f 16//15 20//15 17//15
f 14//16 20//16 16//16
f 20//17 22//17 21//17
f 14//18 22//18 20//18
f 14//19 23//19 22//19
f 14//20 24//20 23//20
usemtl assumed_wall
f 1//21 14//21 2//21
f 1//22 13//22 14//22
f 2//23 15//23 3//23
f 2//24 14//24 15//24
f 3//25 16//25 4//25
f 3//26 15//26 16//26
f 4//27 17//27 5//27
f 4//28 16//28 17//28
f 5//29 18//29 6//29
f 5//30 17//30 18//30
f 6//31 19//31 7//31
f 6//32 18//32 19//32
f 7//33 20//33 8//33
f 7//34 19//34 20//34
f 8//35 21//35 9//35
f 8//36 20//36 21//36
f 9//37 22//37 10//37
f 9//38 21//38 22//38
f 10//39 23//39 11//39
f 10//40 22//40 23//40
f 11//41 24//41 12//41
f 11//42 23//42 24//42
f 12//43 13//43 1//43
f 12//44 24//44 13//44
