# construction_4259_assumed_A_Casa
# source A_Casa
# h_campo 0.000000
# modeled_height 6.000000
# height_kind assumed
# local_origin_world_x 172001.034850
# local_origin_world_y 402500.144600
mtllib construction_artifacts.mtl

o construction_4259_assumed_A_Casa
v -10.012500 6.215000 0.000000
v -1.638500 11.181000 0.000000
v 0.296500 6.962000 0.000000
v 4.209500 9.461000 0.000000
v 10.012500 0.336000 0.000000
v 7.146500 -1.314000 0.000000
v 9.991500 -5.890000 0.000000
v 1.741500 -11.181000 0.000000
v -7.000500 1.341000 0.000000
v -10.012500 6.215000 6.000000
v -1.638500 11.181000 6.000000
v 0.296500 6.962000 6.000000
v 4.209500 9.461000 6.000000
v 10.012500 0.336000 6.000000
v 7.146500 -1.314000 6.000000
v 9.991500 -5.890000 6.000000
v 1.741500 -11.181000 6.000000
v -7.000500 1.341000 6.000000
vn 0.000000 0.000000 -1.000000
vn 0.000000 0.000000 -1.000000
vn 0.000000 0.000000 -1.000000
vn 0.000000 0.000000 -1.000000
vn 0.000000 0.000000 -1.000000
vn 0.000000 0.000000 -1.000000
vn -0.000000 0.000000 -1.000000
vn 0.000000 -0.000000 1.000000
vn 0.000000 0.000000 1.000000
vn 0.000000 0.000000 1.000000
vn -0.000000 0.000000 1.000000
vn 0.000000 0.000000 1.000000
vn 0.000000 0.000000 1.000000
vn 0.000000 0.000000 1.000000
vn -0.510078 0.860128 0.000000
vn -0.510078 0.860128 0.000000
vn 0.908959 0.416885 0.000000
vn 0.908959 0.416885 -0.000000
vn -0.538241 0.842791 0.000000
vn -0.538241 0.842791 0.000000
vn 0.843821 0.536624 0.000000
vn 0.843821 0.536624 -0.000000
vn 0.498937 -0.866638 0.000000
vn 0.498937 -0.866638 0.000000
vn 0.849247 0.527996 0.000000
vn 0.849247 0.527996 -0.000000
vn 0.539850 -0.841761 0.000000
vn 0.539850 -0.841761 0.000000
vn -0.819951 -0.572434 0.000000
vn -0.819951 -0.572434 0.000000
vn -0.850674 -0.525694 0.000000
vn -0.850674 -0.525694 0.000000
usemtl assumed_base
f 9//1 1//1 2//1
f 9//2 2//2 3//2
f 9//3 3//3 4//3
f 9//4 4//4 5//4
f 9//5 5//5 6//5
f 9//6 6//6 7//6
f 7//7 8//7 9//7
usemtl assumed_roof
f 18//8 11//8 10//8
f 18//9 12//9 11//9
f 18//10 13//10 12//10
f 18//11 14//11 13//11
f 18//12 15//12 14//12
f 18//13 16//13 15//13
f 16//14 18//14 17//14
usemtl assumed_wall
f 1//15 11//15 2//15
f 1//16 10//16 11//16
f 2//17 12//17 3//17
f 2//18 11//18 12//18
f 3//19 13//19 4//19
f 3//20 12//20 13//20
f 4//21 14//21 5//21
f 4//22 13//22 14//22
f 5//23 15//23 6//23
f 5//24 14//24 15//24
f 6//25 16//25 7//25
f 6//26 15//26 16//26
f 7//27 17//27 8//27
f 7//28 16//28 17//28
f 8//29 18//29 9//29
f 8//30 17//30 18//30
f 9//31 10//31 1//31
f 9//32 18//32 10//32
