# construction_2747_assumed_A_Casa
# source A_Casa
# h_campo 0.000000
# modeled_height 6.000000
# height_kind assumed
# local_origin_world_x 172001.034850
# local_origin_world_y 402500.144600
mtllib construction_artifacts.mtl

o construction_2747_assumed_A_Casa
v 2.224000 6.340500 0.000000
v 7.293000 8.481500 0.000000
v 11.051000 0.328500 0.000000
v 6.781000 -1.470500 0.000000
v 9.837000 -8.165500 0.000000
v 2.929000 -10.933500 0.000000
v 3.539000 -12.153500 0.000000
v -0.907000 -13.820500 0.000000
v -2.707000 -9.395500 0.000000
v -4.936000 -10.460500 0.000000
v -8.090000 -3.653500 0.000000
v -5.701000 -2.335500 0.000000
v -11.051000 9.323500 0.000000
v -5.835000 11.605500 0.000000
v -6.119000 12.194500 0.000000
v -1.454000 13.820500 0.000000
v 2.224000 6.340500 6.000000
v 7.293000 8.481500 6.000000
v 11.051000 0.328500 6.000000
v 6.781000 -1.470500 6.000000
v 9.837000 -8.165500 6.000000
v 2.929000 -10.933500 6.000000
v 3.539000 -12.153500 6.000000
v -0.907000 -13.820500 6.000000
v -2.707000 -9.395500 6.000000
v -4.936000 -10.460500 6.000000
v -8.090000 -3.653500 6.000000
v -5.701000 -2.335500 6.000000
v -11.051000 9.323500 6.000000
v -5.835000 11.605500 6.000000
v -6.119000 12.194500 6.000000
v -1.454000 13.820500 6.000000
vn 0.000000 0.000000 -1.000000
vn 0.000000 0.000000 -1.000000
vn 0.000000 0.000000 -1.000000
vn 0.000000 0.000000 -1.000000
vn 0.000000 0.000000 -1.000000
vn 0.000000 -0.000000 -1.000000
vn 0.000000 0.000000 -1.000000
vn 0.000000 -0.000000 -1.000000
vn 0.000000 0.000000 -1.000000
vn 0.000000 0.000000 -1.000000
vn 0.000000 0.000000 -1.000000
vn 0.000000 0.000000 -1.000000
vn 0.000000 0.000000 -1.000000
vn 0.000000 0.000000 -1.000000
vn -0.000000 0.000000 1.000000
vn 0.000000 0.000000 1.000000
vn 0.000000 0.000000 1.000000
vn 0.000000 0.000000 1.000000
vn 0.000000 0.000000 1.000000
vn 0.000000 0.000000 1.000000
vn 0.000000 0.000000 1.000000
vn 0.000000 0.000000 1.000000
vn 0.000000 0.000000 1.000000
vn 0.000000 0.000000 1.000000
vn 0.000000 0.000000 1.000000
vn 0.000000 0.000000 1.000000
vn 0.000000 0.000000 1.000000
vn 0.000000 -0.000000 1.000000
vn -0.389089 0.921200 0.000000
vn -0.389089 0.921200 0.000000
vn 0.908168 0.418606 0.000000
vn 0.908168 0.418606 -0.000000
vn 0.388260 -0.921550 0.000000
vn 0.388260 -0.921550 0.000000
vn 0.909709 0.415246 0.000000
vn 0.909709 0.415246 -0.000000
vn 0.371947 -0.928254 0.000000
vn 0.371947 -0.928254 0.000000
vn 0.894427 0.447214 0.000000
vn 0.894427 0.447214 -0.000000
vn 0.351077 -0.936346 0.000000
vn 0.351077 -0.936346 0.000000
vn -0.926295 -0.376798 0.000000
vn -0.926295 -0.376798 0.000000
vn 0.431112 -0.902299 0.000000
vn 0.431112 -0.902299 0.000000
vn -0.907334 -0.420410 0.000000
vn -0.907334 -0.420410 0.000000
vn -0.483058 0.875588 0.000000
vn -0.483058 0.875588 0.000000
vn -0.908879 -0.417060 0.000000
vn -0.908879 -0.417060 0.000000
vn -0.400819 0.916157 0.000000
vn -0.400819 0.916157 0.000000
vn -0.900758 -0.434321 0.000000
vn -0.900758 -0.434321 0.000000
vn -0.329133 0.944284 0.000000
vn -0.329133 0.944284 0.000000
vn 0.897383 0.441253 0.000000
vn 0.897383 0.441253 -0.000000
usemtl assumed_base
f 1//1 2//1 3//1
f 1//2 3//2 4//2
f 1//3 4//3 5//3
f 1//4 5//4 6//4
f 16//5 1//5 6//5
f 6//6 7//6 8//6
f 16//7 6//7 8//7
f 16//8 8//8 9//8
f 16//9 9//9 10//9
f 10//10 11//10 12//10
f 16//11 10//11 12//11
f 12//12 13//12 14//12
f 16//13 12//13 14//13
f 14//14 15//14 16//14
usemtl assumed_roof
f 17//15 19//15 18//15
f 17//16 20//16 19//16
f 17//17 21//17 20//17
f 17//18 22//18 21//18
f 32//19 22//19 17//19
f 22//20 24//20 23//20
f 32//21 24//21 22//21
f 32//22 25//22 24//22
f 32//23 26//23 25//23
f 26//24 28//24 27//24
f 32//25 28//25 26//25
f 28//26 30//26 29//26
f 32//27 30//27 28//27
f 30//28 32//28 31//28
usemtl assumed_wall
f 1//29 18//29 2//29
f 1//30 17//30 18//30
f 2//31 19//31 3//31
f 2//32 18//32 19//32
f 3//33 20//33 4//33
f 3//34 19//34 20//34
f 4//35 21//35 5//35
f 4//36 20//36 21//36
f 5//37 22//37 6//37
f 5//38 21//38 22//38
f 6//39 23//39 7//39
f 6//40 22//40 23//40
f 7//41 24//41 8//41
f 7//42 23//42 24//42
f 8//43 25//43 9//43
f 8//44 24//44 25//44
f 9//45 26//45 10//45
f 9//46 25//46 26//46
f 10//47 27//47 11//47
f 10//48 26//48 27//48
f 11//49 28//49 12//49
f 11//50 27//50 28//50
f 12//51 29//51 13//51
f 12//52 28//52 29//52
f 13//53 30//53 14//53
f 13//54 29//54 30//54
f 14//55 31//55 15//55
f 14//56 30//56 31//56
f 15//57 32//57 16//57
f 15//58 31//58 32//58
f 16//59 17//59 1//59
f 16//60 32//60 17//60
