# construction_0356_assumed_A_Casa
# source A_Casa
# h_campo 0.000000
# modeled_height 6.000000
# height_kind assumed
# local_origin_world_x 172001.034850
# local_origin_world_y 402500.144600
mtllib construction_artifacts.mtl

o construction_0356_assumed_A_Casa
v -1.595500 16.610500 0.000000
v 0.119500 17.308500 0.000000
v 4.258500 3.274500 0.000000
v 6.886500 4.028500 0.000000
v 9.995500 -6.537500 0.000000
v 7.057500 -7.292500 0.000000
v 9.228500 -14.849500 0.000000
v -2.543500 -18.417500 0.000000
v -8.316500 -0.076500 0.000000
v -5.104500 0.807500 0.000000
v -9.995500 16.100500 0.000000
v -2.439500 18.417500 0.000000
v -1.595500 16.610500 6.000000
v 0.119500 17.308500 6.000000
v 4.258500 3.274500 6.000000
v 6.886500 4.028500 6.000000
v 9.995500 -6.537500 6.000000
v 7.057500 -7.292500 6.000000
v 9.228500 -14.849500 6.000000
v -2.543500 -18.417500 6.000000
v -8.316500 -0.076500 6.000000
v -5.104500 0.807500 6.000000
v -9.995500 16.100500 6.000000
v -2.439500 18.417500 6.000000
v -0.042500 -0.788500 0.000000
v -4.075500 -2.167500 0.000000
v -1.631500 -9.283500 0.000000
v 5.870500 -7.112500 0.000000
v 3.368500 1.044500 0.000000
v -0.043500 -0.186500 0.000000
v -0.042500 -0.788500 6.000000
v -4.075500 -2.167500 6.000000
v -1.631500 -9.283500 6.000000
v 5.870500 -7.112500 6.000000
v 3.368500 1.044500 6.000000
v -0.043500 -0.186500 6.000000
vn 0.000000 0.000000 -1.000000
vn 0.000000 0.000000 -1.000000
vn 0.000000 0.000000 -1.000000
vn 0.000000 0.000000 -1.000000
vn 0.000000 0.000000 -1.000000
vn 0.000000 0.000000 -1.000000
vn 0.000000 -0.000000 -1.000000
vn 0.000000 0.000000 -1.000000
vn 0.000000 0.000000 -1.000000
vn 0.000000 0.000000 -1.000000
vn 0.000000 0.000000 -1.000000
vn 0.000000 -0.000000 -1.000000
vn 0.000000 0.000000 -1.000000
vn 0.000000 0.000000 -1.000000
vn -0.000000 0.000000 1.000000
vn 0.000000 0.000000 1.000000
vn -0.000000 0.000000 1.000000
vn 0.000000 0.000000 1.000000
vn 0.000000 0.000000 1.000000
vn 0.000000 0.000000 1.000000
vn 0.000000 0.000000 1.000000
vn 0.000000 0.000000 1.000000
vn 0.000000 0.000000 1.000000
vn 0.000000 -0.000000 1.000000
vn 0.000000 0.000000 1.000000
vn 0.000000 0.000000 1.000000
vn 0.000000 0.000000 1.000000
vn 0.000000 0.000000 1.000000
vn -0.376971 0.926225 0.000000
vn -0.376971 0.926225 0.000000
vn 0.959155 0.282880 0.000000
vn 0.959155 0.282880 -0.000000
vn -0.275784 0.961220 0.000000
vn -0.275784 0.961220 0.000000
vn 0.959332 0.282279 0.000000
vn 0.959332 0.282279 -0.000000
vn 0.248891 -0.968532 0.000000
vn 0.248891 -0.968532 0.000000
vn 0.961125 0.276115 0.000000
vn 0.961125 0.276115 -0.000000
vn 0.290062 -0.957008 0.000000
vn 0.290062 -0.957008 0.000000
vn -0.953864 -0.300238 0.000000
vn -0.953864 -0.300238 0.000000
vn -0.265352 0.964152 0.000000
vn -0.265352 0.964152 0.000000
vn -0.952474 -0.304620 0.000000
vn -0.952474 -0.304620 0.000000
vn -0.293170 0.956060 0.000000
vn -0.293170 0.956060 0.000000
vn 0.906042 0.423187 0.000000
vn 0.906042 0.423187 -0.000000
vn -0.323538 0.946215 0.000000
vn -0.323538 0.946215 0.000000
vn -0.945773 -0.324827 0.000000
vn -0.945773 -0.324827 0.000000
vn 0.277983 -0.960586 0.000000
vn 0.277983 -0.960586 0.000000
vn 0.956037 0.293246 0.000000
vn 0.956037 0.293246 -0.000000
vn -0.339373 0.940652 0.000000
vn -0.339373 0.940652 0.000000
vn -0.999999 -0.001661 0.000000
vn -0.999999 -0.001661 0.000000
usemtl assumed_base
f 1//1 2//1 3//1
f 12//2 1//2 3//2
f 3//3 4//3 5//3
f 3//4 5//4 6//4
f 12//5 3//5 6//5
f 12//6 6//6 7//6
f 12//7 7//7 8//7
f 8//8 9//8 10//8
f 12//9 8//9 10//9
f 10//10 11//10 12//10
f 25//11 27//11 26//11
f 25//12 28//12 27//12
f 30//13 28//13 25//13
f 28//14 30//14 29//14
usemtl assumed_roof
f 13//15 15//15 14//15
f 24//16 15//16 13//16
f 15//17 17//17 16//17
f 15//18 18//18 17//18
f 24//19 18//19 15//19
f 24//20 19//20 18//20
f 24//21 20//21 19//21
f 20//22 22//22 21//22
f 24//23 22//23 20//23
f 22//24 24//24 23//24
f 31//25 32//25 33//25
f 31//26 33//26 34//26
f 36//27 31//27 34//27
f 34//28 35//28 36//28
usemtl assumed_wall
f 1//29 14//29 2//29
f 1//30 13//30 14//30
f 2//31 15//31 3//31
f 2//32 14//32 15//32
f 3//33 16//33 4//33
f 3//34 15//34 16//34
f 4//35 17//35 5//35
f 4//36 16//36 17//36
f 5//37 18//37 6//37
f 5//38 17//38 18//38
f 6//39 19//39 7//39
f 6//40 18//40 19//40
f 7//41 20//41 8//41
f 7//42 19//42 20//42
f 8//43 21//43 9//43
f 8//44 20//44 21//44
f 9//45 22//45 10//45
f 9//46 21//46 22//46
f 10//47 23//47 11//47
f 10//48 22//48 23//48
f 11//49 24//49 12//49
f 11//50 23//50 24//50
f 12//51 13//51 1//51
f 12//52 24//52 13//52
f 25//53 26//53 32//53
f 25//54 32//54 31//54
f 26//55 27//55 33//55
f 26//56 33//56 32//56
f 27//57 28//57 34//57
f 27//58 34//58 33//58
f 28//59 29//59 35//59
f 28//60 35//60 34//60
f 29//61 30//61 36//61
f 29//62 36//62 35//62
f 30//63 25//63 31//63
f 30//64 31//64 36//64
