# construction_6695_assumed_A_Casa
# source A_Casa
# h_campo 0.000000
# modeled_height 6.000000
# height_kind assumed
# local_origin_world_x 172001.034850
# local_origin_world_y 402500.144600
mtllib construction_artifacts.mtl

o construction_6695_assumed_A_Casa
v -20.755500 72.273500 0.000000
v -16.695500 73.335500 0.000000
v 3.970500 -11.955500 0.000000
v 9.174500 -10.727500 0.000000
v 10.369500 -20.877500 0.000000
v 6.284500 -21.511500 0.000000
v 9.198500 -33.244500 0.000000
v 11.891500 -32.798500 0.000000
v 12.135500 -35.448500 0.000000
v 10.229500 -36.023500 0.000000
v 12.298500 -45.918500 0.000000
v 15.080500 -45.269500 0.000000
v 15.942500 -49.667500 0.000000
v 13.429500 -50.112500 0.000000
v 15.124500 -57.898500 0.000000
v 18.063500 -57.203500 0.000000
v 20.755500 -69.431500 0.000000
v 15.210500 -73.335500 0.000000
v 11.602500 -58.687500 0.000000
v 3.181500 -24.432500 0.000000
v -8.610500 22.808500 0.000000
v -20.755500 72.273500 6.000000
v -16.695500 73.335500 6.000000
v 3.970500 -11.955500 6.000000
v 9.174500 -10.727500 6.000000
v 10.369500 -20.877500 6.000000
v 6.284500 -21.511500 6.000000
v 9.198500 -33.244500 6.000000
v 11.891500 -32.798500 6.000000
v 12.135500 -35.448500 6.000000
v 10.229500 -36.023500 6.000000
v 12.298500 -45.918500 6.000000
v 15.080500 -45.269500 6.000000
v 15.942500 -49.667500 6.000000
v 13.429500 -50.112500 6.000000
v 15.124500 -57.898500 6.000000
v 18.063500 -57.203500 6.000000
v 20.755500 -69.431500 6.000000
v 15.210500 -73.335500 6.000000
v 11.602500 -58.687500 6.000000
v 3.181500 -24.432500 6.000000
v -8.610500 22.808500 6.000000
vn 0.000000 0.000000 -1.000000
vn 0.000000 0.000000 -1.000000
vn 0.000000 0.000000 -1.000000
vn 0.000000 0.000000 -1.000000
vn 0.000000 0.000000 -1.000000
vn 0.000000 0.000000 -1.000000
vn 0.000000 0.000000 -1.000000
vn 0.000000 0.000000 -1.000000
vn 0.000000 0.000000 -1.000000
vn 0.000000 0.000000 -1.000000
vn 0.000000 0.000000 -1.000000
vn 0.000000 0.000000 -1.000000
vn 0.000000 0.000000 -1.000000
vn 0.000000 0.000000 -1.000000
vn 0.000000 0.000000 -1.000000
vn 0.000000 0.000000 -1.000000
vn 0.000000 -0.000000 -1.000000
vn -0.000000 0.000000 -1.000000
vn 0.000000 0.000000 -1.000000
vn 0.000000 0.000000 1.000000
vn -0.000000 -0.000000 1.000000
vn -0.000000 0.000000 1.000000
vn 0.000000 0.000000 1.000000
vn 0.000000 0.000000 1.000000
vn 0.000000 0.000000 1.000000
vn -0.000000 0.000000 1.000000
vn 0.000000 0.000000 1.000000
vn 0.000000 0.000000 1.000000
vn 0.000000 0.000000 1.000000
vn -0.000000 0.000000 1.000000
vn 0.000000 0.000000 1.000000
vn 0.000000 0.000000 1.000000
vn 0.000000 0.000000 1.000000
vn -0.000000 0.000000 1.000000
vn 0.000000 0.000000 1.000000
vn 0.000000 0.000000 1.000000
vn 0.000000 0.000000 1.000000
vn 0.000000 0.000000 1.000000
vn -0.253062 0.967450 0.000000
vn -0.253062 0.967450 0.000000
vn 0.971878 0.235486 0.000000
vn 0.971878 0.235486 -0.000000
vn -0.229665 0.973270 0.000000
vn -0.229665 0.973270 0.000000
vn 0.993141 0.116926 0.000000
vn 0.993141 0.116926 -0.000000
vn 0.153366 -0.988169 0.000000
vn 0.153366 -0.988169 0.000000
vn 0.970516 0.241037 0.000000
vn 0.970516 0.241037 -0.000000
vn -0.163389 0.986562 0.000000
vn -0.163389 0.986562 0.000000
vn 0.995788 0.091688 0.000000
vn 0.995788 0.091688 -0.000000
vn 0.288822 -0.957383 0.000000
vn 0.288822 -0.957383 0.000000
vn 0.978831 0.204669 0.000000
vn 0.978831 0.204669 -0.000000
vn -0.227185 0.973852 0.000000
vn -0.227185 0.973852 0.000000
vn 0.981329 0.192339 0.000000
vn 0.981329 0.192339 -0.000000
vn 0.174366 -0.984681 0.000000
vn 0.174366 -0.984681 0.000000
vn 0.977114 0.212716 0.000000
vn 0.977114 0.212716 -0.000000
vn -0.230128 0.973160 0.000000
vn -0.230128 0.973160 0.000000
vn 0.976614 0.215002 0.000000
vn 0.976614 0.215002 -0.000000
vn 0.575687 -0.817670 0.000000
vn 0.575687 -0.817670 0.000000
vn -0.970979 -0.239165 0.000000
vn -0.970979 -0.239165 0.000000
vn -0.971087 -0.238725 0.000000
vn -0.971087 -0.238725 0.000000
vn -0.970231 -0.242183 0.000000
vn -0.970231 -0.242183 0.000000
vn -0.971156 -0.238445 0.000000
vn -0.971156 -0.238445 0.000000
usemtl assumed_base
f 21//1 1//1 2//1
f 21//2 2//2 3//2
f 3//3 4//3 5//3
f 3//4 5//4 6//4
f 21//5 3//5 6//5
f 21//6 6//6 7//6
f 7//7 8//7 9//7
f 7//8 9//8 10//8
f 7//9 10//9 11//9
f 21//10 7//10 11//10
f 11//11 12//11 13//11
f 11//12 13//12 14//12
f 21//13 11//13 14//13
f 21//14 14//14 15//14
f 15//15 16//15 17//15
f 15//16 17//16 18//16
f 15//17 18//17 19//17
f 15//18 19//18 20//18
f 15//19 20//19 21//19
usemtl assumed_roof
f 42//20 23//20 22//20
f 42//21 24//21 23//21
f 24//22 26//22 25//22
f 24//23 27//23 26//23
f 42//24 27//24 24//24
f 42//25 28//25 27//25
f 28//26 30//26 29//26
f 28//27 31//27 30//27
f 28//28 32//28 31//28
f 42//29 32//29 28//29
f 32//30 34//30 33//30
f 32//31 35//31 34//31
f 42//32 35//32 32//32
f 42//33 36//33 35//33
f 36//34 38//34 37//34
f 36//35 39//35 38//35
f 36//36 40//36 39//36
f 36//37 41//37 40//37
f 36//38 42//38 41//38
usemtl assumed_wall
f 1//39 23//39 2//39
f 1//40 22//40 23//40
f 2//41 24//41 3//41
f 2//42 23//42 24//42
f 3//43 25//43 4//43
f 3//44 24//44 25//44
f 4//45 26//45 5//45
f 4//46 25//46 26//46
f 5//47 27//47 6//47
f 5//48 26//48 27//48
f 6//49 28//49 7//49
f 6//50 27//50 28//50
f 7//51 29//51 8//51
f 7//52 28//52 29//52
f 8//53 30//53 9//53
f 8//54 29//54 30//54
f 9//55 31//55 10//55
f 9//56 30//56 31//56
f 10//57 32//57 11//57
f 10//58 31//58 32//58
f 11//59 33//59 12//59
f 11//60 32//60 33//60
f 12//61 34//61 13//61
f 12//62 33//62 34//62
f 13//63 35//63 14//63
f 13//64 34//64 35//64
f 14//65 36//65 15//65
f 14//66 35//66 36//66
f 15//67 37//67 16//67
f 15//68 36//68 37//68
f 16//69 38//69 17//69
f 16//70 37//70 38//70
f 17//71 39//71 18//71
f 17//72 38//72 39//72
f 18//73 40//73 19//73
f 18//74 39//74 40//74
f 19//75 41//75 20//75
f 19//76 40//76 41//76
f 20//77 42//77 21//77
f 20//78 41//78 42//78
f 21//79 22//79 1//79
f 21//80 42//80 22//80
