# construction_3770_assumed_A_Casa
# source A_Casa
# h_campo 0.000000
# modeled_height 6.000000
# height_kind assumed
# local_origin_world_x 172001.034850
# local_origin_world_y 402500.144600
mtllib construction_artifacts.mtl

o construction_3770_assumed_A_Casa
v -9.609500 1.584000 0.000000
v -7.636500 3.041000 0.000000
v -6.382500 1.348000 0.000000
v -4.868500 2.478000 0.000000
v 5.426500 9.844000 0.000000
v 9.609500 3.561000 0.000000
v -0.735500 -2.771000 0.000000
v 3.156500 -6.703000 0.000000
v -1.126500 -9.844000 0.000000
v -4.905500 -6.327000 0.000000
v -9.609500 1.584000 6.000000
v -7.636500 3.041000 6.000000
v -6.382500 1.348000 6.000000
v -4.868500 2.478000 6.000000
v 5.426500 9.844000 6.000000
v 9.609500 3.561000 6.000000
v -0.735500 -2.771000 6.000000
v 3.156500 -6.703000 6.000000
v -1.126500 -9.844000 6.000000
v -4.905500 -6.327000 6.000000
vn 0.000000 0.000000 -1.000000
vn 0.000000 0.000000 -1.000000
vn 0.000000 0.000000 -1.000000
vn 0.000000 0.000000 -1.000000
vn 0.000000 -0.000000 -1.000000
vn 0.000000 0.000000 -1.000000
vn 0.000000 0.000000 -1.000000
vn -0.000000 0.000000 -1.000000
vn 0.000000 0.000000 1.000000
vn 0.000000 0.000000 1.000000
vn 0.000000 -0.000000 1.000000
vn 0.000000 0.000000 1.000000
vn 0.000000 0.000000 1.000000
vn 0.000000 0.000000 1.000000
vn -0.000000 0.000000 1.000000
vn 0.000000 0.000000 1.000000
vn -0.594047 0.804430 0.000000
vn -0.594047 0.804430 0.000000
vn 0.803574 0.595205 0.000000
vn 0.803574 0.595205 -0.000000
vn -0.598135 0.801395 0.000000
vn -0.598135 0.801395 0.000000
vn -0.581888 0.813269 0.000000
vn -0.581888 0.813269 0.000000
vn 0.832397 0.554180 0.000000
vn 0.832397 0.554180 -0.000000
vn 0.522054 -0.852913 0.000000
vn 0.522054 -0.852913 0.000000
vn 0.710713 0.703483 0.000000
vn 0.710713 0.703483 -0.000000
vn 0.591380 -0.806393 0.000000
vn 0.591380 -0.806393 0.000000
vn -0.681275 -0.732027 0.000000
vn -0.681275 -0.732027 0.000000
vn -0.859528 -0.511088 0.000000
vn -0.859528 -0.511088 0.000000
usemtl assumed_base
f 10//1 1//1 2//1
f 10//2 2//2 3//2
f 10//3 3//3 4//3
f 10//4 4//4 5//4
f 5//5 6//5 7//5
f 10//6 5//6 7//6
f 10//7 7//7 8//7
f 8//8 9//8 10//8
usemtl assumed_roof
f 20//9 12//9 11//9
f 20//10 13//10 12//10
f 20//11 14//11 13//11
f 20//12 15//12 14//12
f 15//13 17//13 16//13
f 20//14 17//14 15//14
f 20//15 18//15 17//15
f 18//16 20//16 19//16
usemtl assumed_wall
f 1//17 12//17 2//17
f 1//18 11//18 12//18
f 2//19 13//19 3//19
f 2//20 12//20 13//20
f 3//21 14//21 4//21
f 3//22 13//22 14//22
f 4//23 15//23 5//23
f 4//24 14//24 15//24
f 5//25 16//25 6//25
f 5//26 15//26 16//26
f 6//27 17//27 7//27
f 6//28 16//28 17//28
f 7//29 18//29 8//29
f 7//30 17//30 18//30
f 8//31 19//31 9//31
f 8//32 18//32 19//32
f 9//33 20//33 10//33
f 9//34 19//34 20//34
f 10//35 11//35 1//35
f 10//36 20//36 11//36
