# construction_2988_assumed_A_Casa
# source A_Casa
# h_campo 0.000000
# modeled_height 6.000000
# height_kind assumed
# local_origin_world_x 172001.034850
# local_origin_world_y 402500.144600
mtllib construction_artifacts.mtl

o construction_2988_assumed_A_Casa
v -0.949500 -25.946000 0.000000
v -20.880500 -21.228000 0.000000
v -20.537500 -19.893000 0.000000
v -30.449500 -17.223000 0.000000
v -29.382500 -14.076000 0.000000
v -38.341500 -12.098000 0.000000
v -39.444500 -15.317000 0.000000
v -49.904500 -12.631000 0.000000
v -49.075500 -9.285000 0.000000
v -38.772500 33.558000 0.000000
v -34.018500 32.295000 0.000000
v -33.676500 33.776000 0.000000
v -8.661500 27.468000 0.000000
v -9.615500 23.208000 0.000000
v 4.154500 19.619000 0.000000
v 5.273500 23.770000 0.000000
v 36.047500 16.039000 0.000000
v 35.111500 12.071000 0.000000
v 43.668500 9.999000 0.000000
v 41.420500 -0.368000 0.000000
v 45.828500 -1.631000 0.000000
v 44.894500 -6.494000 0.000000
v 49.904500 -7.628000 0.000000
v 43.414500 -32.644000 0.000000
v 33.850500 -29.973000 0.000000
v 32.895500 -33.776000 0.000000
v -0.934500 -25.160000 0.000000
v -0.949500 -25.946000 6.000000
v -20.880500 -21.228000 6.000000
v -20.537500 -19.893000 6.000000
v -30.449500 -17.223000 6.000000
v -29.382500 -14.076000 6.000000
v -38.341500 -12.098000 6.000000
v -39.444500 -15.317000 6.000000
v -49.904500 -12.631000 6.000000
v -49.075500 -9.285000 6.000000
v -38.772500 33.558000 6.000000
v -34.018500 32.295000 6.000000
v -33.676500 33.776000 6.000000
v -8.661500 27.468000 6.000000
v -9.615500 23.208000 6.000000
v 4.154500 19.619000 6.000000
v 5.273500 23.770000 6.000000
v 36.047500 16.039000 6.000000
v 35.111500 12.071000 6.000000
v 43.668500 9.999000 6.000000
v 41.420500 -0.368000 6.000000
v 45.828500 -1.631000 6.000000
v 44.894500 -6.494000 6.000000
v 49.904500 -7.628000 6.000000
v 43.414500 -32.644000 6.000000
v 33.850500 -29.973000 6.000000
v 32.895500 -33.776000 6.000000
v -0.934500 -25.160000 6.000000
vn -0.000000 0.000000 -1.000000
vn 0.000000 0.000000 -1.000000
vn 0.000000 0.000000 -1.000000
vn 0.000000 0.000000 -1.000000
vn 0.000000 0.000000 -1.000000
vn -0.000000 0.000000 -1.000000
vn 0.000000 0.000000 -1.000000
vn 0.000000 0.000000 -1.000000
vn 0.000000 0.000000 -1.000000
vn 0.000000 0.000000 -1.000000
vn 0.000000 0.000000 -1.000000
vn 0.000000 0.000000 -1.000000
vn 0.000000 0.000000 -1.000000
vn 0.000000 0.000000 -1.000000
vn 0.000000 0.000000 -1.000000
vn 0.000000 0.000000 -1.000000
vn 0.000000 0.000000 -1.000000
vn 0.000000 0.000000 -1.000000
vn 0.000000 0.000000 -1.000000
vn 0.000000 0.000000 -1.000000
vn 0.000000 0.000000 -1.000000
vn 0.000000 0.000000 -1.000000
vn 0.000000 0.000000 -1.000000
vn 0.000000 0.000000 -1.000000
vn -0.000000 0.000000 -1.000000
vn 0.000000 0.000000 1.000000
vn 0.000000 0.000000 1.000000
vn 0.000000 0.000000 1.000000
vn 0.000000 0.000000 1.000000
vn 0.000000 0.000000 1.000000
vn 0.000000 0.000000 1.000000
vn 0.000000 0.000000 1.000000
vn 0.000000 0.000000 1.000000
vn 0.000000 0.000000 1.000000
vn 0.000000 0.000000 1.000000
vn 0.000000 0.000000 1.000000
vn 0.000000 0.000000 1.000000
vn 0.000000 0.000000 1.000000
vn 0.000000 -0.000000 1.000000
vn 0.000000 0.000000 1.000000
vn 0.000000 0.000000 1.000000
vn 0.000000 0.000000 1.000000
vn 0.000000 0.000000 1.000000
vn 0.000000 0.000000 1.000000
vn 0.000000 0.000000 1.000000
vn 0.000000 0.000000 1.000000
vn 0.000000 0.000000 1.000000
vn 0.000000 0.000000 1.000000
vn -0.000000 0.000000 1.000000
vn 0.000000 0.000000 1.000000
vn -0.230351 -0.973108 0.000000
vn -0.230351 -0.973108 0.000000
vn -0.968543 0.248847 0.000000
vn -0.968543 0.248847 0.000000
vn -0.260099 -0.965582 0.000000
vn -0.260099 -0.965582 0.000000
vn -0.947046 0.321099 0.000000
vn -0.947046 0.321099 0.000000
vn -0.215592 -0.976484 0.000000
vn -0.215592 -0.976484 0.000000
vn 0.946005 -0.324152 0.000000
vn 0.946005 -0.324152 0.000000
vn -0.248718 -0.968576 0.000000
vn -0.248718 -0.968576 0.000000
vn -0.970652 0.240487 0.000000
vn -0.970652 0.240487 0.000000
vn -0.972281 0.233817 0.000000
vn -0.972281 0.233817 0.000000
vn 0.256764 0.966474 0.000000
vn 0.256764 0.966474 -0.000000
vn -0.974358 0.225004 0.000000
vn -0.974358 0.225004 0.000000
vn 0.244514 0.969646 0.000000
vn 0.244514 0.969646 -0.000000
vn 0.975830 -0.218531 0.000000
vn 0.975830 -0.218531 0.000000
vn 0.252213 0.967672 0.000000
vn 0.252213 0.967672 -0.000000
vn -0.965533 0.260282 0.000000
vn -0.965533 0.260282 0.000000
vn 0.243648 0.969864 0.000000
vn 0.243648 0.969864 -0.000000
vn 0.973288 -0.229586 0.000000
vn 0.973288 -0.229586 0.000000
vn 0.235340 0.971913 0.000000
vn 0.235340 0.971913 -0.000000
vn 0.977288 -0.211917 0.000000
vn 0.977288 -0.211917 0.000000
vn 0.275441 0.961318 0.000000
vn 0.275441 0.961318 -0.000000
vn 0.982051 -0.188615 0.000000
vn 0.982051 -0.188615 0.000000
vn 0.220763 0.975328 0.000000
vn 0.220763 0.975328 -0.000000
vn 0.967956 -0.251121 0.000000
vn 0.967956 -0.251121 0.000000
vn -0.268984 -0.963145 0.000000
vn -0.268984 -0.963145 0.000000
vn 0.969887 -0.243556 0.000000
vn 0.969887 -0.243556 0.000000
vn -0.246806 -0.969065 0.000000
vn -0.246806 -0.969065 0.000000
vn 0.999818 -0.019080 0.000000
vn 0.999818 -0.019080 0.000000
usemtl assumed_base
f 27//1 1//1 2//1
f 27//2 2//2 3//2
f 27//3 3//3 4//3
f 27//4 4//4 5//4
f 6//5 7//5 8//5
f 6//6 8//6 9//6
f 5//7 6//7 9//7
f 5//8 9//8 10//8
f 27//9 5//9 10//9
f 27//10 10//10 11//10
f 27//11 11//11 12//11
f 12//12 13//12 14//12
f 27//13 12//13 14//13
f 27//14 14//14 15//14
f 27//15 15//15 16//15
f 27//16 16//16 17//16
f 27//17 17//17 18//17
f 27//18 18//18 19//18
f 27//19 19//19 20//19
f 27//20 20//20 21//20
f 27//21 21//21 22//21
f 27//22 22//22 23//22
f 23//23 24//23 25//23
f 27//24 23//24 25//24
f 25//25 26//25 27//25
usemtl assumed_roof
f 54//26 29//26 28//26
f 54//27 30//27 29//27
f 54//28 31//28 30//28
f 54//29 32//29 31//29
f 33//30 35//30 34//30
f 33//31 36//31 35//31
f 32//32 36//32 33//32
f 32//33 37//33 36//33
f 54//34 37//34 32//34
f 54//35 38//35 37//35
f 54//36 39//36 38//36
f 39//37 41//37 40//37
f 54//38 41//38 39//38
f 54//39 42//39 41//39
f 54//40 43//40 42//40
f 54//41 44//41 43//41
f 54//42 45//42 44//42
f 54//43 46//43 45//43
f 54//44 47//44 46//44
f 54//45 48//45 47//45
f 54//46 49//46 48//46
f 54//47 50//47 49//47
f 50//48 52//48 51//48
f 54//49 52//49 50//49
f 52//50 54//50 53//50
usemtl assumed_wall
f 1//51 29//51 2//51
f 1//52 28//52 29//52
f 2//53 30//53 3//53
f 2//54 29//54 30//54
f 3//55 31//55 4//55
f 3//56 30//56 31//56
f 4//57 32//57 5//57
f 4//58 31//58 32//58
f 5//59 33//59 6//59
f 5//60 32//60 33//60
f 6//61 34//61 7//61
f 6//62 33//62 34//62
f 7//63 35//63 8//63
f 7//64 34//64 35//64
f 8//65 36//65 9//65
f 8//66 35//66 36//66
f 9//67 37//67 10//67
f 9//68 36//68 37//68
f 10//69 38//69 11//69
f 10//70 37//70 38//70
f 11//71 39//71 12//71
f 11//72 38//72 39//72
f 12//73 40//73 13//73
f 12//74 39//74 40//74
f 13//75 41//75 14//75
f 13//76 40//76 41//76
f 14//77 42//77 15//77
f 14//78 41//78 42//78
f 15//79 43//79 16//79
f 15//80 42//80 43//80
f 16//81 44//81 17//81
f 16//82 43//82 44//82
f 17//83 45//83 18//83
f 17//84 44//84 45//84
f 18//85 46//85 19//85
f 18//86 45//86 46//86
f 19//87 47//87 20//87
f 19//88 46//88 47//88
f 20//89 48//89 21//89
f 20//90 47//90 48//90
f 21//91 49//91 22//91
f 21//92 48//92 49//92
f 22//93 50//93 23//93
f 22//94 49//94 50//94
f 23//95 51//95 24//95
f 23//96 50//96 51//96
f 24//97 52//97 25//97
f 24//98 51//98 52//98
f 25//99 53//99 26//99
f 25//100 52//100 53//100
f 26//101 54//101 27//101
f 26//102 53//102 54//102
f 27//103 28//103 1//103
f 27//104 54//104 28//104
