# construction_3452_assumed_A_Casa
# source A_Casa
# h_campo 0.000000
# modeled_height 6.000000
# height_kind assumed
# local_origin_world_x 172001.034850
# local_origin_world_y 402500.144600
mtllib construction_artifacts.mtl

o construction_3452_assumed_A_Casa
v -13.864500 -0.607500 0.000000
v 8.652500 14.997500 0.000000
v 13.864500 6.276500 0.000000
v 6.831500 1.632500 0.000000
v 11.585500 -6.807500 0.000000
v 8.228500 -9.348500 0.000000
v -2.338500 -14.997500 0.000000
v -7.041500 -7.236500 0.000000
v -8.784500 -8.147500 0.000000
v -13.864500 -0.607500 6.000000
v 8.652500 14.997500 6.000000
v 13.864500 6.276500 6.000000
v 6.831500 1.632500 6.000000
v 11.585500 -6.807500 6.000000
v 8.228500 -9.348500 6.000000
v -2.338500 -14.997500 6.000000
v -7.041500 -7.236500 6.000000
v -8.784500 -8.147500 6.000000
vn 0.000000 0.000000 -1.000000
vn 0.000000 0.000000 -1.000000
vn 0.000000 0.000000 -1.000000
vn 0.000000 0.000000 -1.000000
vn 0.000000 -0.000000 -1.000000
vn 0.000000 0.000000 -1.000000
vn 0.000000 0.000000 -1.000000
vn 0.000000 -0.000000 1.000000
vn 0.000000 0.000000 1.000000
vn 0.000000 0.000000 1.000000
vn 0.000000 0.000000 1.000000
vn 0.000000 0.000000 1.000000
vn 0.000000 0.000000 1.000000
vn 0.000000 0.000000 1.000000
vn -0.569612 0.821914 0.000000
vn -0.569612 0.821914 0.000000
vn 0.858386 0.513004 0.000000
vn 0.858386 0.513004 -0.000000
vn 0.551026 -0.834488 0.000000
vn 0.551026 -0.834488 0.000000
vn 0.871289 0.490771 0.000000
vn 0.871289 0.490771 -0.000000
vn 0.603528 -0.797342 0.000000
vn 0.603528 -0.797342 0.000000
vn 0.471450 -0.881893 0.000000
vn 0.471450 -0.881893 0.000000
vn -0.855229 -0.518250 0.000000
vn -0.855229 -0.518250 0.000000
vn 0.463209 -0.886249 0.000000
vn 0.463209 -0.886249 0.000000
vn -0.829333 -0.558755 0.000000
vn -0.829333 -0.558755 0.000000
usemtl assumed_base
f 9//1 1//1 2//1
f 9//2 2//2 3//2
f 9//3 3//3 4//3
f 4//4 5//4 6//4
f 4//5 6//5 7//5
f 4//6 7//6 8//6
f 4//7 8//7 9//7
usemtl assumed_roof
f 18//8 11//8 10//8
f 18//9 12//9 11//9
f 18//10 13//10 12//10
f 13//11 15//11 14//11
f 13//12 16//12 15//12
f 13//13 17//13 16//13
f 13//14 18//14 17//14
usemtl assumed_wall
f 1//15 11//15 2//15
f 1//16 10//16 11//16
f 2//17 12//17 3//17
f 2//18 11//18 12//18
f 3//19 13//19 4//19
f 3//20 12//20 13//20
f 4//21 14//21 5//21
f 4//22 13//22 14//22
f 5//23 15//23 6//23
f 5//24 14//24 15//24
f 6//25 16//25 7//25
f 6//26 15//26 16//26
f 7//27 17//27 8//27
f 7//28 16//28 17//28
f 8//29 18//29 9//29
f 8//30 17//30 18//30
f 9//31 10//31 1//31
f 9//32 18//32 10//32
