# construction_1083_assumed_A_Casa
# source A_Casa
# h_campo 0.000000
# modeled_height 6.000000
# height_kind assumed
# local_origin_world_x 172001.034850
# local_origin_world_y 402500.144600
mtllib construction_artifacts.mtl

o construction_1083_assumed_A_Casa
v 7.171000 -5.225500 0.000000
v -5.377000 -6.227500 0.000000
v -5.530000 -8.452500 0.000000
v 4.981000 -7.993500 0.000000
v 5.129000 -12.597500 0.000000
v -10.152000 -13.597500 0.000000
v -10.549000 -5.198500 0.000000
v -5.869000 -4.822500 0.000000
v -7.160000 9.737500 0.000000
v -4.058000 12.998500 0.000000
v 5.378000 13.597500 0.000000
v 5.440000 11.827500 0.000000
v 9.955000 11.747500 0.000000
v 10.549000 -4.570500 0.000000
v 6.906000 -4.567500 0.000000
v 7.171000 -5.225500 6.000000
v -5.377000 -6.227500 6.000000
v -5.530000 -8.452500 6.000000
v 4.981000 -7.993500 6.000000
v 5.129000 -12.597500 6.000000
v -10.152000 -13.597500 6.000000
v -10.549000 -5.198500 6.000000
v -5.869000 -4.822500 6.000000
v -7.160000 9.737500 6.000000
v -4.058000 12.998500 6.000000
v 5.378000 13.597500 6.000000
v 5.440000 11.827500 6.000000
v 9.955000 11.747500 6.000000
v 10.549000 -4.570500 6.000000
v 6.906000 -4.567500 6.000000
vn 0.000000 -0.000000 -1.000000
vn 0.000000 0.000000 -1.000000
vn 0.000000 -0.000000 -1.000000
vn 0.000000 0.000000 -1.000000
vn -0.000000 0.000000 -1.000000
vn 0.000000 0.000000 -1.000000
vn 0.000000 0.000000 -1.000000
vn -0.000000 0.000000 -1.000000
vn 0.000000 0.000000 -1.000000
vn 0.000000 0.000000 -1.000000
vn 0.000000 0.000000 -1.000000
vn 0.000000 0.000000 -1.000000
vn 0.000000 -0.000000 -1.000000
vn 0.000000 0.000000 1.000000
vn -0.000000 0.000000 1.000000
vn 0.000000 0.000000 1.000000
vn 0.000000 0.000000 1.000000
vn 0.000000 0.000000 1.000000
vn 0.000000 0.000000 1.000000
vn 0.000000 0.000000 1.000000
vn 0.000000 0.000000 1.000000
vn 0.000000 0.000000 1.000000
vn -0.000000 0.000000 1.000000
vn 0.000000 0.000000 1.000000
vn 0.000000 -0.000000 1.000000
vn 0.000000 0.000000 1.000000
vn 0.079600 -0.996827 0.000000
vn 0.079600 -0.996827 0.000000
vn 0.997644 -0.068602 0.000000
vn 0.997644 -0.068602 0.000000
vn -0.043627 0.999048 0.000000
vn -0.043627 0.999048 0.000000
vn 0.999484 0.032129 0.000000
vn 0.999484 0.032129 -0.000000
vn 0.065301 -0.997866 0.000000
vn 0.065301 -0.997866 0.000000
vn -0.998885 -0.047215 0.000000
vn -0.998885 -0.047215 0.000000
vn -0.080084 0.996788 0.000000
vn -0.080084 0.996788 0.000000
vn -0.996092 -0.088321 0.000000
vn -0.996092 -0.088321 0.000000
vn -0.724550 0.689222 0.000000
vn -0.724550 0.689222 0.000000
vn -0.063353 0.997991 0.000000
vn -0.063353 0.997991 0.000000
vn 0.999387 0.035007 0.000000
vn 0.999387 0.035007 -0.000000
vn 0.017716 0.999843 0.000000
vn 0.017716 0.999843 -0.000000
vn 0.999338 0.036377 0.000000
vn 0.999338 0.036377 -0.000000
vn -0.000823 -1.000000 0.000000
vn -0.000823 -1.000000 0.000000
vn 0.927599 0.373577 0.000000
vn 0.927599 0.373577 -0.000000
usemtl assumed_base
f 15//1 1//1 2//1
f 3//2 4//2 5//2
f 3//3 5//3 6//3
f 2//4 3//4 6//4
f 2//5 6//5 7//5
f 15//6 2//6 7//6
f 15//7 7//7 8//7
f 15//8 8//8 9//8
f 15//9 9//9 10//9
f 10//10 11//10 12//10
f 15//11 10//11 12//11
f 15//12 12//12 13//12
f 13//13 14//13 15//13
usemtl assumed_roof
f 30//14 17//14 16//14
f 18//15 20//15 19//15
f 18//16 21//16 20//16
f 17//17 21//17 18//17
f 17//18 22//18 21//18
f 30//19 22//19 17//19
f 30//20 23//20 22//20
f 30//21 24//21 23//21
f 30//22 25//22 24//22
f 25//23 27//23 26//23
f 30//24 27//24 25//24
f 30//25 28//25 27//25
f 28//26 30//26 29//26
usemtl assumed_wall
f 1//27 17//27 2//27
f 1//28 16//28 17//28
f 2//29 18//29 3//29
f 2//30 17//30 18//30
f 3//31 19//31 4//31
f 3//32 18//32 19//32
f 4//33 20//33 5//33
f 4//34 19//34 20//34
f 5//35 21//35 6//35
f 5//36 20//36 21//36
f 6//37 22//37 7//37
f 6//38 21//38 22//38
f 7//39 23//39 8//39
f 7//40 22//40 23//40
f 8//41 24//41 9//41
f 8//42 23//42 24//42
f 9//43 25//43 10//43
f 9//44 24//44 25//44
f 10//45 26//45 11//45
f 10//46 25//46 26//46
f 11//47 27//47 12//47
f 11//48 26//48 27//48
f 12//49 28//49 13//49
f 12//50 27//50 28//50
f 13//51 29//51 14//51
f 13//52 28//52 29//52
f 14//53 30//53 15//53
f 14//54 29//54 30//54
f 15//55 16//55 1//55
f 15//56 30//56 16//56
