# construction_4945_assumed_A_Casa
# source A_Casa
# h_campo 0.000000
# modeled_height 6.000000
# height_kind assumed
# local_origin_world_x 172001.034850
# local_origin_world_y 402500.144600
mtllib construction_artifacts.mtl

o construction_4945_assumed_A_Casa
v -10.114000 -9.958500 0.000000
v -8.947000 -7.386500 0.000000
v -1.990000 -0.368500 0.000000
v -5.618000 2.920500 0.000000
v -1.725000 7.259500 0.000000
v 1.577000 10.597500 0.000000
v 3.379000 12.551500 0.000000
v 5.990000 10.992500 0.000000
v 10.114000 7.199500 0.000000
v 8.465000 4.727500 0.000000
v 5.781000 1.897500 0.000000
v 8.851000 -0.697500 0.000000
v 5.613000 -4.300500 0.000000
v 2.871000 -1.502500 0.000000
v -6.501000 -12.551500 0.000000
v -10.114000 -9.958500 6.000000
v -8.947000 -7.386500 6.000000
v -1.990000 -0.368500 6.000000
v -5.618000 2.920500 6.000000
v -1.725000 7.259500 6.000000
v 1.577000 10.597500 6.000000
v 3.379000 12.551500 6.000000
v 5.990000 10.992500 6.000000
v 10.114000 7.199500 6.000000
v 8.465000 4.727500 6.000000
v 5.781000 1.897500 6.000000
v 8.851000 -0.697500 6.000000
v 5.613000 -4.300500 6.000000
v 2.871000 -1.502500 6.000000
v -6.501000 -12.551500 6.000000
vn 0.000000 0.000000 -1.000000
vn 0.000000 0.000000 -1.000000
vn 0.000000 0.000000 -1.000000
vn 0.000000 0.000000 -1.000000
vn 0.000000 0.000000 -1.000000
vn 0.000000 0.000000 -1.000000
vn 0.000000 0.000000 -1.000000
vn 0.000000 0.000000 -1.000000
vn 0.000000 0.000000 -1.000000
vn 0.000000 -0.000000 -1.000000
vn 0.000000 0.000000 -1.000000
vn 0.000000 0.000000 -1.000000
vn 0.000000 0.000000 -1.000000
vn 0.000000 0.000000 1.000000
vn 0.000000 -0.000000 1.000000
vn 0.000000 -0.000000 1.000000
vn 0.000000 0.000000 1.000000
vn 0.000000 0.000000 1.000000
vn 0.000000 0.000000 1.000000
vn 0.000000 0.000000 1.000000
vn 0.000000 0.000000 1.000000
vn 0.000000 0.000000 1.000000
vn 0.000000 0.000000 1.000000
vn 0.000000 0.000000 1.000000
vn 0.000000 0.000000 1.000000
vn 0.000000 0.000000 1.000000
vn -0.910645 0.413189 0.000000
vn -0.910645 0.413189 0.000000
vn -0.710186 0.704014 0.000000
vn -0.710186 0.704014 0.000000
vn -0.671646 -0.740873 0.000000
vn -0.671646 -0.740873 0.000000
vn -0.744325 0.667817 0.000000
vn -0.744325 0.667817 0.000000
vn -0.710930 0.703263 0.000000
vn -0.710930 0.703263 0.000000
vn -0.735121 0.677936 0.000000
vn -0.735121 0.677936 0.000000
vn 0.512657 0.858594 0.000000
vn 0.512657 0.858594 -0.000000
vn 0.676952 0.736027 0.000000
vn 0.676952 0.736027 -0.000000
vn 0.831895 -0.554933 0.000000
vn 0.831895 -0.554933 0.000000
vn 0.725575 -0.688143 0.000000
vn 0.725575 -0.688143 0.000000
vn 0.645552 0.763716 0.000000
vn 0.645552 0.763716 -0.000000
vn 0.743776 -0.668429 0.000000
vn 0.743776 -0.668429 0.000000
vn -0.714218 -0.699923 0.000000
vn -0.714218 -0.699923 0.000000
vn 0.762608 -0.646861 0.000000
vn 0.762608 -0.646861 0.000000
vn -0.583066 -0.812425 0.000000
vn -0.583066 -0.812425 0.000000
usemtl assumed_base
f 15//1 1//1 2//1
f 15//2 2//2 3//2
f 3//3 4//3 5//3
f 3//4 5//4 6//4
f 3//5 6//5 7//5
f 15//6 3//6 7//6
f 15//7 7//7 8//7
f 15//8 8//8 9//8
f 9//9 10//9 11//9
f 11//10 12//10 13//10
f 11//11 13//11 14//11
f 9//12 11//12 14//12
f 9//13 14//13 15//13
usemtl assumed_roof
f 30//14 17//14 16//14
f 30//15 18//15 17//15
f 18//16 20//16 19//16
f 18//17 21//17 20//17
f 18//18 22//18 21//18
f 30//19 22//19 18//19
f 30//20 23//20 22//20
f 30//21 24//21 23//21
f 24//22 26//22 25//22
f 26//23 28//23 27//23
f 26//24 29//24 28//24
f 24//25 29//25 26//25
f 24//26 30//26 29//26
usemtl assumed_wall
f 1//27 17//27 2//27
f 1//28 16//28 17//28
f 2//29 18//29 3//29
f 2//30 17//30 18//30
f 3//31 19//31 4//31
f 3//32 18//32 19//32
f 4//33 20//33 5//33
f 4//34 19//34 20//34
f 5//35 21//35 6//35
f 5//36 20//36 21//36
f 6//37 22//37 7//37
f 6//38 21//38 22//38
f 7//39 23//39 8//39
f 7//40 22//40 23//40
f 8//41 24//41 9//41
f 8//42 23//42 24//42
f 9//43 25//43 10//43
f 9//44 24//44 25//44
f 10//45 26//45 11//45
f 10//46 25//46 26//46
f 11//47 27//47 12//47
f 11//48 26//48 27//48
f 12//49 28//49 13//49
f 12//50 27//50 28//50
f 13//51 29//51 14//51
f 13//52 28//52 29//52
f 14//53 30//53 15//53
f 14//54 29//54 30//54
f 15//55 16//55 1//55
f 15//56 30//56 16//56
