# construction_5758_assumed_A_Casa
# source A_Casa
# h_campo 0.000000
# modeled_height 6.000000
# height_kind assumed
# local_origin_world_x 172001.034850
# local_origin_world_y 402500.144600
mtllib construction_artifacts.mtl

o construction_5758_assumed_A_Casa
v -15.102000 -2.070500 0.000000
v -13.385000 -1.097500 0.000000
v -9.070000 -3.679500 0.000000
v 0.336000 1.052500 0.000000
v -1.160000 4.543500 0.000000
v 8.942000 9.143500 0.000000
v 10.516000 5.820500 0.000000
v 11.784000 6.544500 0.000000
v 15.102000 -0.314500 0.000000
v -2.148000 -9.143500 0.000000
v -8.235000 -4.508500 0.000000
v -10.079000 -7.809500 0.000000
v -12.740000 -5.671500 0.000000
v -15.102000 -2.070500 6.000000
v -13.385000 -1.097500 6.000000
v -9.070000 -3.679500 6.000000
v 0.336000 1.052500 6.000000
v -1.160000 4.543500 6.000000
v 8.942000 9.143500 6.000000
v 10.516000 5.820500 6.000000
v 11.784000 6.544500 6.000000
v 15.102000 -0.314500 6.000000
v -2.148000 -9.143500 6.000000
v -8.235000 -4.508500 6.000000
v -10.079000 -7.809500 6.000000
v -12.740000 -5.671500 6.000000
vn 0.000000 0.000000 -1.000000
vn 0.000000 0.000000 -1.000000
vn 0.000000 0.000000 -1.000000
vn 0.000000 0.000000 -1.000000
vn 0.000000 0.000000 -1.000000
vn 0.000000 0.000000 -1.000000
vn 0.000000 0.000000 -1.000000
vn 0.000000 -0.000000 -1.000000
vn 0.000000 0.000000 -1.000000
vn 0.000000 0.000000 -1.000000
vn 0.000000 0.000000 -1.000000
vn 0.000000 0.000000 1.000000
vn 0.000000 -0.000000 1.000000
vn 0.000000 0.000000 1.000000
vn 0.000000 -0.000000 1.000000
vn 0.000000 0.000000 1.000000
vn 0.000000 0.000000 1.000000
vn -0.000000 0.000000 1.000000
vn 0.000000 0.000000 1.000000
vn 0.000000 0.000000 1.000000
vn 0.000000 0.000000 1.000000
vn 0.000000 0.000000 1.000000
vn -0.493025 0.870015 0.000000
vn -0.493025 0.870015 0.000000
vn 0.513472 0.858106 0.000000
vn 0.513472 0.858106 -0.000000
vn -0.449416 0.893323 0.000000
vn -0.449416 0.893323 0.000000
vn -0.919159 -0.393888 0.000000
vn -0.919159 -0.393888 0.000000
vn -0.414414 0.910089 0.000000
vn -0.414414 0.910089 0.000000
vn 0.903743 0.428075 0.000000
vn 0.903743 0.428075 -0.000000
vn -0.495844 0.868412 0.000000
vn -0.495844 0.868412 0.000000
vn 0.900204 0.435468 0.000000
vn 0.900204 0.435468 -0.000000
vn 0.455616 -0.890177 0.000000
vn 0.455616 -0.890177 0.000000
vn -0.605819 -0.795603 0.000000
vn -0.605819 -0.795603 0.000000
vn 0.873020 -0.487685 0.000000
vn 0.873020 -0.487685 0.000000
vn -0.626337 -0.779552 0.000000
vn -0.626337 -0.779552 0.000000
vn -0.836171 -0.548469 0.000000
vn -0.836171 -0.548469 0.000000
usemtl assumed_base
f 13//1 1//1 2//1
f 13//2 2//2 3//2
f 13//3 3//3 4//3
f 4//4 5//4 6//4
f 4//5 6//5 7//5
f 13//6 4//6 7//6
f 7//7 8//7 9//7
f 7//8 9//8 10//8
f 7//9 10//9 11//9
f 13//10 7//10 11//10
f 11//11 12//11 13//11
usemtl assumed_roof
f 26//12 15//12 14//12
f 26//13 16//13 15//13
f 26//14 17//14 16//14
f 17//15 19//15 18//15
f 17//16 20//16 19//16
f 26//17 20//17 17//17
f 20//18 22//18 21//18
f 20//19 23//19 22//19
f 20//20 24//20 23//20
f 26//21 24//21 20//21
f 24//22 26//22 25//22
usemtl assumed_wall
f 1//23 15//23 2//23
f 1//24 14//24 15//24
f 2//25 16//25 3//25
f 2//26 15//26 16//26
f 3//27 17//27 4//27
f 3//28 16//28 17//28
f 4//29 18//29 5//29
f 4//30 17//30 18//30
f 5//31 19//31 6//31
f 5//32 18//32 19//32
f 6//33 20//33 7//33
f 6//34 19//34 20//34
f 7//35 21//35 8//35
f 7//36 20//36 21//36
f 8//37 22//37 9//37
f 8//38 21//38 22//38
f 9//39 23//39 10//39
f 9//40 22//40 23//40
f 10//41 24//41 11//41
f 10//42 23//42 24//42
f 11//43 25//43 12//43
f 11//44 24//44 25//44
f 12//45 26//45 13//45
f 12//46 25//46 26//46
f 13//47 14//47 1//47
f 13//48 26//48 14//48
