# construction_2588_assumed_A_Casa
# source A_Casa
# h_campo 0.000000
# modeled_height 6.000000
# height_kind assumed
# local_origin_world_x 172001.034850
# local_origin_world_y 402500.144600
mtllib construction_artifacts.mtl

o construction_2588_assumed_A_Casa
v -4.674000 6.379500 0.000000
v -1.769000 2.264500 0.000000
v 1.543000 4.734500 0.000000
v 2.744000 3.112500 0.000000
v 7.037000 6.851500 0.000000
v 9.978000 3.420500 0.000000
v -0.237000 -4.534500 0.000000
v -3.701000 -6.851500 0.000000
v -9.978000 3.291500 0.000000
v -4.674000 6.379500 6.000000
v -1.769000 2.264500 6.000000
v 1.543000 4.734500 6.000000
v 2.744000 3.112500 6.000000
v 7.037000 6.851500 6.000000
v 9.978000 3.420500 6.000000
v -0.237000 -4.534500 6.000000
v -3.701000 -6.851500 6.000000
v -9.978000 3.291500 6.000000
vn 0.000000 0.000000 -1.000000
vn 0.000000 0.000000 -1.000000
vn 0.000000 0.000000 -1.000000
vn 0.000000 0.000000 -1.000000
vn 0.000000 0.000000 -1.000000
vn 0.000000 0.000000 -1.000000
vn -0.000000 0.000000 -1.000000
vn -0.000000 0.000000 1.000000
vn 0.000000 0.000000 1.000000
vn 0.000000 0.000000 1.000000
vn 0.000000 0.000000 1.000000
vn -0.000000 0.000000 1.000000
vn 0.000000 0.000000 1.000000
vn 0.000000 0.000000 1.000000
vn 0.816940 0.576722 0.000000
vn 0.816940 0.576722 -0.000000
vn -0.597829 0.801624 0.000000
vn -0.597829 0.801624 0.000000
vn 0.803671 0.595073 0.000000
vn 0.803671 0.595073 -0.000000
vn -0.656774 0.754087 0.000000
vn -0.656774 0.754087 0.000000
vn 0.759241 0.650810 0.000000
vn 0.759241 0.650810 -0.000000
vn 0.614422 -0.788978 0.000000
vn 0.614422 -0.788978 0.000000
vn 0.555973 -0.831200 0.000000
vn 0.555973 -0.831200 0.000000
vn -0.850340 -0.526233 0.000000
vn -0.850340 -0.526233 0.000000
vn -0.503141 0.864204 0.000000
vn -0.503141 0.864204 0.000000
usemtl assumed_base
f 9//1 1//1 2//1
f 2//2 3//2 4//2
f 4//3 5//3 6//3
f 2//4 4//4 6//4
f 2//5 6//5 7//5
f 9//6 2//6 7//6
f 7//7 8//7 9//7
usemtl assumed_roof
f 18//8 11//8 10//8
f 11//9 13//9 12//9
f 13//10 15//10 14//10
f 11//11 15//11 13//11
f 11//12 16//12 15//12
f 18//13 16//13 11//13
f 16//14 18//14 17//14
usemtl assumed_wall
f 1//15 11//15 2//15
f 1//16 10//16 11//16
f 2//17 12//17 3//17
f 2//18 11//18 12//18
f 3//19 13//19 4//19
f 3//20 12//20 13//20
f 4//21 14//21 5//21
f 4//22 13//22 14//22
f 5//23 15//23 6//23
f 5//24 14//24 15//24
f 6//25 16//25 7//25
f 6//26 15//26 16//26
f 7//27 17//27 8//27
f 7//28 16//28 17//28
f 8//29 18//29 9//29
f 8//30 17//30 18//30
f 9//31 10//31 1//31
f 9//32 18//32 10//32
