# construction_4999_assumed_A_Casa
# source A_Casa
# h_campo 0.000000
# modeled_height 6.000000
# height_kind assumed
# local_origin_world_x 172001.034850
# local_origin_world_y 402500.144600
mtllib construction_artifacts.mtl

o construction_4999_assumed_A_Casa
v -19.964000 -23.077500 0.000000
v -13.913000 -3.493500 0.000000
v -4.568000 -3.823500 0.000000
v 15.698000 24.902500 0.000000
v 19.964000 22.068500 0.000000
v 5.308000 0.245500 0.000000
v 7.719000 -1.304500 0.000000
v 4.925000 -5.646500 0.000000
v 2.210000 -4.096500 0.000000
v 0.519000 -6.860500 0.000000
v -3.625000 -9.947500 0.000000
v -9.640000 -8.311500 0.000000
v -14.657000 -24.902500 0.000000
v -19.964000 -23.077500 6.000000
v -13.913000 -3.493500 6.000000
v -4.568000 -3.823500 6.000000
v 15.698000 24.902500 6.000000
v 19.964000 22.068500 6.000000
v 5.308000 0.245500 6.000000
v 7.719000 -1.304500 6.000000
v 4.925000 -5.646500 6.000000
v 2.210000 -4.096500 6.000000
v 0.519000 -6.860500 6.000000
v -3.625000 -9.947500 6.000000
v -9.640000 -8.311500 6.000000
v -14.657000 -24.902500 6.000000
vn 0.000000 0.000000 -1.000000
vn 0.000000 0.000000 -1.000000
vn 0.000000 0.000000 -1.000000
vn 0.000000 0.000000 -1.000000
vn 0.000000 0.000000 -1.000000
vn 0.000000 0.000000 -1.000000
vn 0.000000 0.000000 -1.000000
vn 0.000000 0.000000 -1.000000
vn 0.000000 0.000000 -1.000000
vn 0.000000 0.000000 -1.000000
vn 0.000000 -0.000000 -1.000000
vn 0.000000 -0.000000 1.000000
vn 0.000000 0.000000 1.000000
vn 0.000000 0.000000 1.000000
vn 0.000000 0.000000 1.000000
vn 0.000000 0.000000 1.000000
vn -0.000000 0.000000 1.000000
vn 0.000000 0.000000 1.000000
vn 0.000000 0.000000 1.000000
vn 0.000000 0.000000 1.000000
vn 0.000000 0.000000 1.000000
vn 0.000000 0.000000 1.000000
vn -0.955433 0.295207 0.000000
vn -0.955433 0.295207 0.000000
vn 0.035291 0.999377 0.000000
vn 0.035291 0.999377 -0.000000
vn -0.817118 0.576471 0.000000
vn -0.817118 0.576471 0.000000
vn 0.553348 0.832950 0.000000
vn 0.553348 0.832950 -0.000000
vn 0.830161 -0.557524 0.000000
vn 0.830161 -0.557524 0.000000
vn 0.540775 0.841167 0.000000
vn 0.540775 0.841167 -0.000000
vn 0.840939 -0.541130 0.000000
vn 0.840939 -0.541130 0.000000
vn -0.495794 -0.868440 0.000000
vn -0.495794 -0.868440 0.000000
vn 0.853022 -0.521874 0.000000
vn 0.853022 -0.521874 0.000000
vn 0.597396 -0.801946 0.000000
vn 0.597396 -0.801946 0.000000
vn -0.262452 -0.964945 0.000000
vn -0.262452 -0.964945 0.000000
vn 0.957194 -0.289449 0.000000
vn 0.957194 -0.289449 0.000000
vn -0.325194 -0.945647 0.000000
vn -0.325194 -0.945647 0.000000
usemtl assumed_base
f 13//1 1//1 2//1
f 3//2 4//2 5//2
f 3//3 5//3 6//3
f 3//4 6//4 7//4
f 7//5 8//5 9//5
f 3//6 7//6 9//6
f 2//7 3//7 9//7
f 2//8 9//8 10//8
f 2//9 10//9 11//9
f 2//10 11//10 12//10
f 2//11 12//11 13//11
usemtl assumed_roof
f 26//12 15//12 14//12
f 16//13 18//13 17//13
f 16//14 19//14 18//14
f 16//15 20//15 19//15
f 20//16 22//16 21//16
f 16//17 22//17 20//17
f 15//18 22//18 16//18
f 15//19 23//19 22//19
f 15//20 24//20 23//20
f 15//21 25//21 24//21
f 15//22 26//22 25//22
usemtl assumed_wall
f 1//23 15//23 2//23
f 1//24 14//24 15//24
f 2//25 16//25 3//25
f 2//26 15//26 16//26
f 3//27 17//27 4//27
f 3//28 16//28 17//28
f 4//29 18//29 5//29
f 4//30 17//30 18//30
f 5//31 19//31 6//31
f 5//32 18//32 19//32
f 6//33 20//33 7//33
f 6//34 19//34 20//34
f 7//35 21//35 8//35
f 7//36 20//36 21//36
f 8//37 22//37 9//37
f 8//38 21//38 22//38
f 9//39 23//39 10//39
f 9//40 22//40 23//40
f 10//41 24//41 11//41
f 10//42 23//42 24//42
f 11//43 25//43 12//43
f 11//44 24//44 25//44
f 12//45 26//45 13//45
f 12//46 25//46 26//46
f 13//47 14//47 1//47
f 13//48 26//48 14//48
