# construction_6763_assumed_A_Casa
# source A_Casa
# h_campo 0.000000
# modeled_height 6.000000
# height_kind assumed
# local_origin_world_x 172001.034850
# local_origin_world_y 402500.144600
mtllib construction_artifacts.mtl

o construction_6763_assumed_A_Casa
v 1.189500 -22.380500 0.000000
v -0.745500 -15.836500 0.000000
v -5.146500 -17.269500 0.000000
v -5.367500 -16.432500 0.000000
v -8.434500 -17.192500 0.000000
v -12.263500 -5.398500 0.000000
v -11.637500 -4.682500 0.000000
v -13.236500 -0.457500 0.000000
v -8.432500 0.795500 0.000000
v -10.598500 6.834500 0.000000
v -12.855500 6.182500 0.000000
v -15.048500 11.917500 0.000000
v -10.903500 13.048500 0.000000
v -12.482500 18.158500 0.000000
v -0.898500 22.380500 0.000000
v 1.787500 16.540500 0.000000
v -0.694500 14.599500 0.000000
v -0.193500 12.331500 0.000000
v -3.235500 11.621500 0.000000
v -1.890500 5.651500 0.000000
v 5.706500 8.159500 0.000000
v 8.627500 1.609500 0.000000
v 15.048500 -18.264500 0.000000
v 1.189500 -22.380500 6.000000
v -0.745500 -15.836500 6.000000
v -5.146500 -17.269500 6.000000
v -5.367500 -16.432500 6.000000
v -8.434500 -17.192500 6.000000
v -12.263500 -5.398500 6.000000
v -11.637500 -4.682500 6.000000
v -13.236500 -0.457500 6.000000
v -8.432500 0.795500 6.000000
v -10.598500 6.834500 6.000000
v -12.855500 6.182500 6.000000
v -15.048500 11.917500 6.000000
v -10.903500 13.048500 6.000000
v -12.482500 18.158500 6.000000
v -0.898500 22.380500 6.000000
v 1.787500 16.540500 6.000000
v -0.694500 14.599500 6.000000
v -0.193500 12.331500 6.000000
v -3.235500 11.621500 6.000000
v -1.890500 5.651500 6.000000
v 5.706500 8.159500 6.000000
v 8.627500 1.609500 6.000000
v 15.048500 -18.264500 6.000000
vn -0.000000 0.000000 -1.000000
vn 0.000000 0.000000 -1.000000
vn -0.000000 0.000000 -1.000000
vn -0.000000 0.000000 -1.000000
vn 0.000000 0.000000 -1.000000
vn 0.000000 0.000000 -1.000000
vn 0.000000 0.000000 -1.000000
vn 0.000000 0.000000 -1.000000
vn 0.000000 0.000000 -1.000000
vn -0.000000 0.000000 -1.000000
vn 0.000000 0.000000 -1.000000
vn 0.000000 0.000000 -1.000000
vn 0.000000 0.000000 -1.000000
vn 0.000000 0.000000 -1.000000
vn 0.000000 0.000000 -1.000000
vn 0.000000 0.000000 -1.000000
vn 0.000000 0.000000 -1.000000
vn 0.000000 0.000000 -1.000000
vn 0.000000 0.000000 -1.000000
vn 0.000000 0.000000 -1.000000
vn 0.000000 0.000000 -1.000000
vn 0.000000 0.000000 1.000000
vn 0.000000 0.000000 1.000000
vn 0.000000 0.000000 1.000000
vn 0.000000 0.000000 1.000000
vn 0.000000 0.000000 1.000000
vn 0.000000 0.000000 1.000000
vn 0.000000 0.000000 1.000000
vn 0.000000 0.000000 1.000000
vn 0.000000 0.000000 1.000000
vn 0.000000 0.000000 1.000000
vn 0.000000 0.000000 1.000000
vn 0.000000 0.000000 1.000000
vn 0.000000 0.000000 1.000000
vn -0.000000 0.000000 1.000000
vn 0.000000 0.000000 1.000000
vn 0.000000 0.000000 1.000000
vn 0.000000 0.000000 1.000000
vn 0.000000 0.000000 1.000000
vn 0.000000 0.000000 1.000000
vn 0.000000 0.000000 1.000000
vn 0.000000 0.000000 1.000000
vn -0.958956 -0.283554 0.000000
vn -0.958956 -0.283554 0.000000
vn 0.309609 -0.950864 0.000000
vn 0.309609 -0.950864 0.000000
vn -0.966865 -0.255289 0.000000
vn -0.966865 -0.255289 0.000000
vn 0.240525 -0.970643 0.000000
vn 0.240525 -0.970643 0.000000
vn -0.951130 -0.308791 0.000000
vn -0.951130 -0.308791 0.000000
vn -0.752837 0.658207 0.000000
vn -0.752837 0.658207 0.000000
vn -0.935261 -0.353960 0.000000
vn -0.935261 -0.353960 0.000000
vn -0.252381 0.967628 0.000000
vn -0.252381 0.967628 0.000000
vn -0.941286 -0.337610 0.000000
vn -0.941286 -0.337610 0.000000
vn 0.277531 -0.960717 0.000000
vn 0.277531 -0.960717 0.000000
vn -0.934041 -0.357167 0.000000
vn -0.934041 -0.357167 0.000000
vn -0.263236 0.964732 0.000000
vn -0.263236 0.964732 0.000000
vn -0.955427 -0.295229 0.000000
vn -0.955427 -0.295229 0.000000
vn -0.342433 0.939542 0.000000
vn -0.342433 0.939542 0.000000
vn 0.908514 0.417854 0.000000
vn 0.908514 0.417854 -0.000000
vn 0.616026 -0.787726 0.000000
vn 0.616026 -0.787726 0.000000
vn 0.976460 0.215699 0.000000
vn 0.976460 0.215699 -0.000000
vn 0.227290 -0.973827 0.000000
vn 0.227290 -0.973827 0.000000
vn 0.975548 0.219784 0.000000
vn 0.975548 0.219784 -0.000000
vn -0.313489 0.949592 0.000000
vn -0.313489 0.949592 0.000000
vn 0.913299 0.407290 0.000000
vn 0.913299 0.407290 -0.000000
vn 0.951568 0.307438 0.000000
vn 0.951568 0.307438 -0.000000
vn 0.284701 -0.958616 0.000000
vn 0.284701 -0.958616 0.000000
usemtl assumed_base
f 23//1 1//1 2//1
f 2//2 3//2 4//2
f 4//3 5//3 6//3
f 2//4 4//4 6//4
f 23//5 2//5 6//5
f 23//6 6//6 7//6
f 23//7 7//7 8//7
f 23//8 8//8 9//8
f 23//9 9//9 10//9
f 10//10 11//10 12//10
f 23//11 10//11 12//11
f 23//12 12//12 13//12
f 23//13 13//13 14//13
f 14//14 15//14 16//14
f 14//15 16//15 17//15
f 14//16 17//16 18//16
f 14//17 18//17 19//17
f 14//18 19//18 20//18
f 23//19 14//19 20//19
f 23//20 20//20 21//20
f 21//21 22//21 23//21
usemtl assumed_roof
f 46//22 25//22 24//22
f 25//23 27//23 26//23
f 27//24 29//24 28//24
f 25//25 29//25 27//25
f 46//26 29//26 25//26
f 46//27 30//27 29//27
f 46//28 31//28 30//28
f 46//29 32//29 31//29
f 46//30 33//30 32//30
f 33//31 35//31 34//31
f 46//32 35//32 33//32
f 46//33 36//33 35//33
f 46//34 37//34 36//34
f 37//35 39//35 38//35
f 37//36 40//36 39//36
f 37//37 41//37 40//37
f 37//38 42//38 41//38
f 37//39 43//39 42//39
f 46//40 43//40 37//40
f 46//41 44//41 43//41
f 44//42 46//42 45//42
usemtl assumed_wall
f 1//43 25//43 2//43
f 1//44 24//44 25//44
f 2//45 26//45 3//45
f 2//46 25//46 26//46
f 3//47 27//47 4//47
f 3//48 26//48 27//48
f 4//49 28//49 5//49
f 4//50 27//50 28//50
f 5//51 29//51 6//51
f 5//52 28//52 29//52
f 6//53 30//53 7//53
f 6//54 29//54 30//54
f 7//55 31//55 8//55
f 7//56 30//56 31//56
f 8//57 32//57 9//57
f 8//58 31//58 32//58
f 9//59 33//59 10//59
f 9//60 32//60 33//60
f 10//61 34//61 11//61
f 10//62 33//62 34//62
f 11//63 35//63 12//63
f 11//64 34//64 35//64
f 12//65 36//65 13//65
f 12//66 35//66 36//66
f 13//67 37//67 14//67
f 13//68 36//68 37//68
f 14//69 38//69 15//69
f 14//70 37//70 38//70
f 15//71 39//71 16//71
f 15//72 38//72 39//72
f 16//73 40//73 17//73
f 16//74 39//74 40//74
f 17//75 41//75 18//75
f 17//76 40//76 41//76
f 18//77 42//77 19//77
f 18//78 41//78 42//78
f 19//79 43//79 20//79
f 19//80 42//80 43//80
f 20//81 44//81 21//81
f 20//82 43//82 44//82
f 21//83 45//83 22//83
f 21//84 44//84 45//84
f 22//85 46//85 23//85
f 22//86 45//86 46//86
f 23//87 24//87 1//87
f 23//88 46//88 24//88
