# construction_5952_assumed_A_Casa
# source A_Casa
# h_campo 0.000000
# modeled_height 6.000000
# height_kind assumed
# local_origin_world_x 172001.034850
# local_origin_world_y 402500.144600
mtllib construction_artifacts.mtl

o construction_5952_assumed_A_Casa
v -9.932000 -12.340500 0.000000
v -9.214000 -5.917500 0.000000
v -6.875000 -1.159500 0.000000
v -8.492000 -0.253500 0.000000
v -5.855000 5.793500 0.000000
v -4.058000 4.687500 0.000000
v 0.657000 13.810500 0.000000
v 4.410000 7.705500 0.000000
v 1.619000 1.732500 0.000000
v 9.932000 -3.673500 0.000000
v 3.542000 -8.840500 0.000000
v 0.570000 -10.528500 0.000000
v 0.231000 -13.810500 0.000000
v -9.932000 -12.340500 6.000000
v -9.214000 -5.917500 6.000000
v -6.875000 -1.159500 6.000000
v -8.492000 -0.253500 6.000000
v -5.855000 5.793500 6.000000
v -4.058000 4.687500 6.000000
v 0.657000 13.810500 6.000000
v 4.410000 7.705500 6.000000
v 1.619000 1.732500 6.000000
v 9.932000 -3.673500 6.000000
v 3.542000 -8.840500 6.000000
v 0.570000 -10.528500 6.000000
v 0.231000 -13.810500 6.000000
vn 0.000000 0.000000 -1.000000
vn 0.000000 0.000000 -1.000000
vn 0.000000 0.000000 -1.000000
vn 0.000000 0.000000 -1.000000
vn 0.000000 0.000000 -1.000000
vn 0.000000 0.000000 -1.000000
vn 0.000000 0.000000 -1.000000
vn 0.000000 0.000000 -1.000000
vn 0.000000 0.000000 -1.000000
vn 0.000000 -0.000000 -1.000000
vn 0.000000 0.000000 -1.000000
vn 0.000000 0.000000 1.000000
vn 0.000000 0.000000 1.000000
vn 0.000000 -0.000000 1.000000
vn 0.000000 0.000000 1.000000
vn 0.000000 0.000000 1.000000
vn 0.000000 -0.000000 1.000000
vn 0.000000 0.000000 1.000000
vn 0.000000 0.000000 1.000000
vn 0.000000 0.000000 1.000000
vn 0.000000 0.000000 1.000000
vn 0.000000 0.000000 1.000000
vn -0.993810 0.111094 0.000000
vn -0.993810 0.111094 0.000000
vn -0.897425 0.441168 0.000000
vn -0.897425 0.441168 0.000000
vn -0.488800 -0.872396 0.000000
vn -0.488800 -0.872396 0.000000
vn -0.916633 0.399729 0.000000
vn -0.916633 0.399729 0.000000
vn 0.524150 0.851626 0.000000
vn 0.524150 0.851626 -0.000000
vn -0.888368 0.459131 0.000000
vn -0.888368 0.459131 0.000000
vn 0.851903 0.523700 0.000000
vn 0.851903 0.523700 -0.000000
vn 0.905974 -0.423334 0.000000
vn 0.905974 -0.423334 0.000000
vn 0.545169 0.838326 0.000000
vn 0.545169 0.838326 -0.000000
vn 0.628768 -0.777593 0.000000
vn 0.628768 -0.777593 0.000000
vn 0.493869 -0.869537 0.000000
vn 0.493869 -0.869537 0.000000
vn 0.994708 -0.102744 0.000000
vn 0.994708 -0.102744 0.000000
vn -0.143153 -0.989701 0.000000
vn -0.143153 -0.989701 0.000000
usemtl assumed_base
f 13//1 1//1 2//1
f 13//2 2//2 3//2
f 3//3 4//3 5//3
f 13//4 3//4 5//4
f 13//5 5//5 6//5
f 13//6 6//6 7//6
f 7//7 8//7 9//7
f 13//8 7//8 9//8
f 9//9 10//9 11//9
f 9//10 11//10 12//10
f 9//11 12//11 13//11
usemtl assumed_roof
f 26//12 15//12 14//12
f 26//13 16//13 15//13
f 16//14 18//14 17//14
f 26//15 18//15 16//15
f 26//16 19//16 18//16
f 26//17 20//17 19//17
f 20//18 22//18 21//18
f 26//19 22//19 20//19
f 22//20 24//20 23//20
f 22//21 25//21 24//21
f 22//22 26//22 25//22
usemtl assumed_wall
f 1//23 15//23 2//23
f 1//24 14//24 15//24
f 2//25 16//25 3//25
f 2//26 15//26 16//26
f 3//27 17//27 4//27
f 3//28 16//28 17//28
f 4//29 18//29 5//29
f 4//30 17//30 18//30
f 5//31 19//31 6//31
f 5//32 18//32 19//32
f 6//33 20//33 7//33
f 6//34 19//34 20//34
f 7//35 21//35 8//35
f 7//36 20//36 21//36
f 8//37 22//37 9//37
f 8//38 21//38 22//38
f 9//39 23//39 10//39
f 9//40 22//40 23//40
f 10//41 24//41 11//41
f 10//42 23//42 24//42
f 11//43 25//43 12//43
f 11//44 24//44 25//44
f 12//45 26//45 13//45
f 12//46 25//46 26//46
f 13//47 14//47 1//47
f 13//48 26//48 14//48
