# construction_1095_assumed_A_Casa
# source A_Casa
# h_campo 0.000000
# modeled_height 6.000000
# height_kind assumed
# local_origin_world_x 172001.034850
# local_origin_world_y 402500.144600
mtllib construction_artifacts.mtl

o construction_1095_assumed_A_Casa
v -17.322000 -0.328500 0.000000
v -15.272000 0.210500 0.000000
v -16.703000 3.828500 0.000000
v 1.931000 11.520500 0.000000
v 4.086000 6.468500 0.000000
v -0.765000 3.959500 0.000000
v 0.455000 0.533500 0.000000
v 5.558000 2.764500 0.000000
v 4.826000 4.054500 0.000000
v 15.116000 7.916500 0.000000
v 17.322000 2.999500 0.000000
v 9.688000 0.121500 0.000000
v 10.757000 -2.459500 0.000000
v -2.470000 -7.592500 0.000000
v -1.376000 -10.241500 0.000000
v -4.278000 -11.512500 0.000000
v -5.540000 -8.838500 0.000000
v -7.050000 -9.654500 0.000000
v -7.572000 -7.917500 0.000000
v -14.911000 -11.520500 0.000000
v -16.679000 -8.028500 0.000000
v -14.578000 -6.984500 0.000000
v -17.322000 -0.328500 6.000000
v -15.272000 0.210500 6.000000
v -16.703000 3.828500 6.000000
v 1.931000 11.520500 6.000000
v 4.086000 6.468500 6.000000
v -0.765000 3.959500 6.000000
v 0.455000 0.533500 6.000000
v 5.558000 2.764500 6.000000
v 4.826000 4.054500 6.000000
v 15.116000 7.916500 6.000000
v 17.322000 2.999500 6.000000
v 9.688000 0.121500 6.000000
v 10.757000 -2.459500 6.000000
v -2.470000 -7.592500 6.000000
v -1.376000 -10.241500 6.000000
v -4.278000 -11.512500 6.000000
v -5.540000 -8.838500 6.000000
v -7.050000 -9.654500 6.000000
v -7.572000 -7.917500 6.000000
v -14.911000 -11.520500 6.000000
v -16.679000 -8.028500 6.000000
v -14.578000 -6.984500 6.000000
vn 0.000000 0.000000 -1.000000
vn 0.000000 0.000000 -1.000000
vn 0.000000 0.000000 -1.000000
vn 0.000000 -0.000000 -1.000000
vn 0.000000 0.000000 -1.000000
vn 0.000000 0.000000 -1.000000
vn 0.000000 0.000000 -1.000000
vn 0.000000 0.000000 -1.000000
vn 0.000000 0.000000 -1.000000
vn 0.000000 0.000000 -1.000000
vn 0.000000 0.000000 -1.000000
vn 0.000000 0.000000 -1.000000
vn 0.000000 0.000000 -1.000000
vn 0.000000 -0.000000 -1.000000
vn 0.000000 0.000000 -1.000000
vn -0.000000 0.000000 -1.000000
vn 0.000000 0.000000 -1.000000
vn 0.000000 0.000000 -1.000000
vn 0.000000 -0.000000 -1.000000
vn 0.000000 0.000000 -1.000000
vn 0.000000 0.000000 1.000000
vn 0.000000 -0.000000 1.000000
vn 0.000000 -0.000000 1.000000
vn 0.000000 0.000000 1.000000
vn 0.000000 0.000000 1.000000
vn 0.000000 0.000000 1.000000
vn 0.000000 0.000000 1.000000
vn 0.000000 -0.000000 1.000000
vn 0.000000 0.000000 1.000000
vn 0.000000 0.000000 1.000000
vn 0.000000 0.000000 1.000000
vn 0.000000 0.000000 1.000000
vn -0.000000 0.000000 1.000000
vn 0.000000 0.000000 1.000000
vn 0.000000 0.000000 1.000000
vn 0.000000 0.000000 1.000000
vn 0.000000 0.000000 1.000000
vn 0.000000 0.000000 1.000000
vn 0.000000 0.000000 1.000000
vn 0.000000 -0.000000 1.000000
vn -0.254284 0.967130 0.000000
vn -0.254284 0.967130 0.000000
vn -0.929906 -0.367798 0.000000
vn -0.929906 -0.367798 0.000000
vn -0.381563 0.924343 0.000000
vn -0.381563 0.924343 0.000000
vn 0.919812 0.392359 0.000000
vn 0.919812 0.392359 -0.000000
vn 0.459403 -0.888228 0.000000
vn 0.459403 -0.888228 0.000000
vn 0.942053 0.335465 0.000000
vn 0.942053 0.335465 -0.000000
vn -0.400583 0.916260 0.000000
vn -0.400583 0.916260 0.000000
vn -0.869733 -0.493523 0.000000
vn -0.869733 -0.493523 0.000000
vn -0.351383 0.936232 0.000000
vn -0.351383 0.936232 0.000000
vn 0.912383 0.409338 0.000000
vn 0.912383 0.409338 -0.000000
vn 0.352762 -0.935713 0.000000
vn 0.352762 -0.935713 0.000000
vn 0.923890 0.382657 0.000000
vn 0.923890 0.382657 -0.000000
vn 0.361783 -0.932262 0.000000
vn 0.361783 -0.932262 0.000000
vn 0.924280 0.381715 0.000000
vn 0.924280 0.381715 -0.000000
vn 0.401183 -0.915998 0.000000
vn 0.401183 -0.915998 0.000000
vn -0.904343 -0.426807 0.000000
vn -0.904343 -0.426807 0.000000
vn 0.475420 -0.879759 0.000000
vn 0.475420 -0.879759 0.000000
vn -0.957690 -0.287803 0.000000
vn -0.957690 -0.287803 0.000000
vn 0.440695 -0.897657 0.000000
vn 0.440695 -0.897657 0.000000
vn -0.892168 -0.451705 0.000000
vn -0.892168 -0.451705 0.000000
vn -0.444996 0.895533 0.000000
vn -0.444996 0.895533 0.000000
vn -0.924517 -0.381141 0.000000
vn -0.924517 -0.381141 0.000000
usemtl assumed_base
f 22//1 1//1 2//1
f 2//2 3//2 4//2
f 22//3 2//3 4//3
f 4//4 5//4 6//4
f 22//5 4//5 6//5
f 22//6 6//6 7//6
f 22//7 7//7 8//7
f 8//8 9//8 10//8
f 8//9 10//9 11//9
f 22//10 8//10 11//10
f 22//11 11//11 12//11
f 22//12 12//12 13//12
f 22//13 13//13 14//13
f 14//14 15//14 16//14
f 14//15 16//15 17//15
f 17//16 18//16 19//16
f 14//17 17//17 19//17
f 22//18 14//18 19//18
f 22//19 19//19 20//19
f 20//20 21//20 22//20
usemtl assumed_roof
f 44//21 24//21 23//21
f 24//22 26//22 25//22
f 44//23 26//23 24//23
f 26//24 28//24 27//24
f 44//25 28//25 26//25
f 44//26 29//26 28//26
f 44//27 30//27 29//27
f 30//28 32//28 31//28
f 30//29 33//29 32//29
f 44//30 33//30 30//30
f 44//31 34//31 33//31
f 44//32 35//32 34//32
f 44//33 36//33 35//33
f 36//34 38//34 37//34
f 36//35 39//35 38//35
f 39//36 41//36 40//36
f 36//37 41//37 39//37
f 44//38 41//38 36//38
f 44//39 42//39 41//39
f 42//40 44//40 43//40
usemtl assumed_wall
f 1//41 24//41 2//41
f 1//42 23//42 24//42
f 2//43 25//43 3//43
f 2//44 24//44 25//44
f 3//45 26//45 4//45
f 3//46 25//46 26//46
f 4//47 27//47 5//47
f 4//48 26//48 27//48
f 5//49 28//49 6//49
f 5//50 27//50 28//50
f 6//51 29//51 7//51
f 6//52 28//52 29//52
f 7//53 30//53 8//53
f 7//54 29//54 30//54
f 8//55 31//55 9//55
f 8//56 30//56 31//56
f 9//57 32//57 10//57
f 9//58 31//58 32//58
f 10//59 33//59 11//59
f 10//60 32//60 33//60
f 11//61 34//61 12//61
f 11//62 33//62 34//62
f 12//63 35//63 13//63
f 12//64 34//64 35//64
f 13//65 36//65 14//65
f 13//66 35//66 36//66
f 14//67 37//67 15//67
f 14//68 36//68 37//68
f 15//69 38//69 16//69
f 15//70 37//70 38//70
f 16//71 39//71 17//71
f 16//72 38//72 39//72
f 17//73 40//73 18//73
f 17//74 39//74 40//74
f 18//75 41//75 19//75
f 18//76 40//76 41//76
f 19//77 42//77 20//77
f 19//78 41//78 42//78
f 20//79 43//79 21//79
f 20//80 42//80 43//80
f 21//81 44//81 22//81
f 21//82 43//82 44//82
f 22//83 23//83 1//83
f 22//84 44//84 23//84
