# construction_7057_assumed_A_Casa
# source A_Casa
# h_campo 0.000000
# modeled_height 6.000000
# height_kind assumed
# local_origin_world_x 172001.034850
# local_origin_world_y 402500.144600
mtllib construction_artifacts.mtl

o construction_7057_assumed_A_Casa
v 7.116500 24.280500 0.000000
v 7.235500 21.073500 0.000000
v 0.371500 21.771500 0.000000
v -0.450500 19.797500 0.000000
v 6.875500 19.067500 0.000000
v 6.873500 18.330500 0.000000
v 15.991500 18.204500 0.000000
v 15.830500 13.651500 0.000000
v 10.294500 14.021500 0.000000
v 10.668500 7.813500 0.000000
v 12.252500 7.710500 0.000000
v 10.649500 -9.222500 0.000000
v -4.862500 -6.148500 0.000000
v -4.958500 -8.715500 0.000000
v 16.005500 -14.412500 0.000000
v 16.541500 -12.515500 0.000000
v 28.647500 -17.222500 0.000000
v 25.033500 -28.631500 0.000000
v -10.157500 -17.621500 0.000000
v -21.460500 -14.068500 0.000000
v -21.141500 -12.800500 0.000000
v -26.163500 -11.408500 0.000000
v -25.925500 -10.661500 0.000000
v -28.647500 -9.729500 0.000000
v -27.524500 -5.729500 0.000000
v -25.419500 -5.735500 0.000000
v -24.506500 -2.757500 0.000000
v -22.863500 -2.910500 0.000000
v -21.417500 3.775500 0.000000
v -20.677500 8.110500 0.000000
v -11.481500 7.868500 0.000000
v -11.201500 16.414500 0.000000
v -10.217500 16.411500 0.000000
v -4.083500 25.482500 0.000000
v -3.120500 28.617500 0.000000
v 9.047500 28.631500 0.000000
v 9.036500 24.982500 0.000000
v 7.116500 24.280500 6.000000
v 7.235500 21.073500 6.000000
v 0.371500 21.771500 6.000000
v -0.450500 19.797500 6.000000
v 6.875500 19.067500 6.000000
v 6.873500 18.330500 6.000000
v 15.991500 18.204500 6.000000
v 15.830500 13.651500 6.000000
v 10.294500 14.021500 6.000000
v 10.668500 7.813500 6.000000
v 12.252500 7.710500 6.000000
v 10.649500 -9.222500 6.000000
v -4.862500 -6.148500 6.000000
v -4.958500 -8.715500 6.000000
v 16.005500 -14.412500 6.000000
v 16.541500 -12.515500 6.000000
v 28.647500 -17.222500 6.000000
v 25.033500 -28.631500 6.000000
v -10.157500 -17.621500 6.000000
v -21.460500 -14.068500 6.000000
v -21.141500 -12.800500 6.000000
v -26.163500 -11.408500 6.000000
v -25.925500 -10.661500 6.000000
v -28.647500 -9.729500 6.000000
v -27.524500 -5.729500 6.000000
v -25.419500 -5.735500 6.000000
v -24.506500 -2.757500 6.000000
v -22.863500 -2.910500 6.000000
v -21.417500 3.775500 6.000000
v -20.677500 8.110500 6.000000
v -11.481500 7.868500 6.000000
v -11.201500 16.414500 6.000000
v -10.217500 16.411500 6.000000
v -4.083500 25.482500 6.000000
v -3.120500 28.617500 6.000000
v 9.047500 28.631500 6.000000
v 9.036500 24.982500 6.000000
v -3.262500 -0.143500 0.000000
v 4.385500 -1.719500 0.000000
v 4.819500 2.036500 0.000000
v -2.831500 2.471500 0.000000
v -3.262500 -0.143500 6.000000
v 4.385500 -1.719500 6.000000
v 4.819500 2.036500 6.000000
v -2.831500 2.471500 6.000000
vn 0.000000 -0.000000 -1.000000
vn 0.000000 0.000000 -1.000000
vn 0.000000 0.000000 -1.000000
vn 0.000000 0.000000 -1.000000
vn 0.000000 0.000000 -1.000000
vn 0.000000 0.000000 -1.000000
vn 0.000000 -0.000000 -1.000000
vn 0.000000 0.000000 -1.000000
vn 0.000000 -0.000000 -1.000000
vn 0.000000 0.000000 -1.000000
vn 0.000000 0.000000 -1.000000
vn 0.000000 0.000000 -1.000000
vn 0.000000 -0.000000 -1.000000
vn 0.000000 0.000000 -1.000000
vn 0.000000 0.000000 -1.000000
vn 0.000000 0.000000 -1.000000
vn 0.000000 0.000000 -1.000000
vn 0.000000 0.000000 -1.000000
vn 0.000000 0.000000 -1.000000
vn 0.000000 0.000000 -1.000000
vn 0.000000 0.000000 -1.000000
vn 0.000000 0.000000 -1.000000
vn 0.000000 0.000000 -1.000000
vn 0.000000 0.000000 -1.000000
vn 0.000000 0.000000 -1.000000
vn 0.000000 0.000000 -1.000000
vn 0.000000 0.000000 -1.000000
vn 0.000000 0.000000 -1.000000
vn 0.000000 0.000000 -1.000000
vn 0.000000 0.000000 -1.000000
vn -0.000000 0.000000 -1.000000
vn -0.000000 0.000000 -1.000000
vn -0.000000 0.000000 -1.000000
vn 0.000000 0.000000 -1.000000
vn 0.000000 0.000000 -1.000000
vn 0.000000 -0.000000 -1.000000
vn 0.000000 0.000000 -1.000000
vn 0.000000 0.000000 1.000000
vn 0.000000 0.000000 1.000000
vn 0.000000 0.000000 1.000000
vn 0.000000 0.000000 1.000000
vn 0.000000 0.000000 1.000000
vn 0.000000 0.000000 1.000000
vn 0.000000 0.000000 1.000000
vn 0.000000 0.000000 1.000000
vn 0.000000 0.000000 1.000000
vn -0.000000 0.000000 1.000000
vn 0.000000 0.000000 1.000000
vn 0.000000 0.000000 1.000000
vn 0.000000 0.000000 1.000000
vn 0.000000 0.000000 1.000000
vn 0.000000 0.000000 1.000000
vn 0.000000 0.000000 1.000000
vn 0.000000 0.000000 1.000000
vn 0.000000 0.000000 1.000000
vn 0.000000 0.000000 1.000000
vn 0.000000 0.000000 1.000000
vn 0.000000 0.000000 1.000000
vn 0.000000 -0.000000 1.000000
vn 0.000000 0.000000 1.000000
vn 0.000000 0.000000 1.000000
vn 0.000000 0.000000 1.000000
vn 0.000000 0.000000 1.000000
vn 0.000000 0.000000 1.000000
vn 0.000000 0.000000 1.000000
vn 0.000000 0.000000 1.000000
vn 0.000000 0.000000 1.000000
vn 0.000000 0.000000 1.000000
vn 0.000000 0.000000 1.000000
vn 0.000000 0.000000 1.000000
vn 0.000000 0.000000 1.000000
vn -0.000000 0.000000 1.000000
vn 0.000000 0.000000 1.000000
vn 0.000000 -0.000000 1.000000
vn 0.999312 0.037081 0.000000
vn 0.999312 0.037081 -0.000000
vn -0.101168 -0.994869 0.000000
vn -0.101168 -0.994869 0.000000
vn 0.923160 -0.384416 0.000000
vn 0.923160 -0.384416 0.000000
vn 0.099154 0.995072 0.000000
vn 0.099154 0.995072 -0.000000
vn 0.999996 -0.002714 0.000000
vn 0.999996 -0.002714 0.000000
vn 0.013818 0.999905 0.000000
vn 0.013818 0.999905 -0.000000
vn 0.999375 -0.035339 0.000000
vn 0.999375 -0.035339 0.000000
vn -0.066686 -0.997774 0.000000
vn -0.066686 -0.997774 0.000000
vn 0.998190 0.060136 0.000000
vn 0.998190 0.060136 -0.000000
vn 0.064888 0.997893 0.000000
vn 0.064888 0.997893 -0.000000
vn 0.995549 -0.094246 0.000000
vn 0.995549 -0.094246 0.000000
vn -0.194389 -0.980925 0.000000
vn -0.194389 -0.980925 0.000000
vn 0.999301 -0.037372 0.000000
vn 0.999301 -0.037372 0.000000
vn 0.262241 0.965002 0.000000
vn 0.262241 0.965002 -0.000000
vn -0.962324 0.271906 0.000000
vn -0.962324 0.271906 0.000000
vn 0.362387 0.932028 0.000000
vn 0.362387 0.932028 -0.000000
vn 0.953315 -0.301979 0.000000
vn 0.953315 -0.301979 0.000000
vn -0.298592 -0.954381 0.000000
vn -0.298592 -0.954381 0.000000
vn -0.299875 -0.953979 0.000000
vn -0.299875 -0.953979 0.000000
vn -0.969782 0.243975 0.000000
vn -0.969782 0.243975 0.000000
vn -0.267109 -0.963666 0.000000
vn -0.267109 -0.963666 0.000000
vn -0.952808 0.303572 0.000000
vn -0.952808 0.303572 0.000000
vn -0.323933 -0.946080 0.000000
vn -0.323933 -0.946080 0.000000
vn -0.962776 0.270299 0.000000
vn -0.962776 0.270299 0.000000
vn 0.002850 0.999996 0.000000
vn 0.002850 0.999996 -0.000000
vn -0.956077 0.293116 0.000000
vn -0.956077 0.293116 0.000000
vn 0.092721 0.995692 0.000000
vn 0.092721 0.995692 -0.000000
vn -0.977403 0.211386 0.000000
vn -0.977403 0.211386 0.000000
vn -0.985741 0.168270 0.000000
vn -0.985741 0.168270 0.000000
vn 0.026307 0.999654 0.000000
vn 0.026307 0.999654 -0.000000
vn -0.999464 0.032746 0.000000
vn -0.999464 0.032746 0.000000
vn 0.003049 0.999995 0.000000
vn 0.003049 0.999995 -0.000000
vn -0.828379 0.560167 0.000000
vn -0.828379 0.560167 0.000000
vn -0.955917 0.293636 0.000000
vn -0.955917 0.293636 0.000000
vn -0.001151 0.999999 0.000000
vn -0.001151 0.999999 0.000000
vn 0.999995 -0.003015 0.000000
vn 0.999995 -0.003015 0.000000
vn 0.343392 -0.939192 0.000000
vn 0.343392 -0.939192 0.000000
vn -0.201826 -0.979421 0.000000
vn -0.201826 -0.979421 0.000000
vn 0.993390 -0.114785 0.000000
vn 0.993390 -0.114785 0.000000
vn 0.056764 0.998388 0.000000
vn 0.056764 0.998388 -0.000000
vn -0.986688 0.162624 0.000000
vn -0.986688 0.162624 0.000000
usemtl assumed_base
f 1//1 2//1 3//1
f 4//2 5//2 6//2
f 6//3 7//3 8//3
f 4//4 6//4 8//4
f 4//5 8//5 9//5
f 4//6 9//6 10//6
f 10//7 11//7 12//7
f 4//8 10//8 12//8
f 4//9 12//9 13//9
f 15//10 16//10 17//10
f 15//11 17//11 18//11
f 14//12 15//12 18//12
f 14//13 18//13 19//13
f 13//14 14//14 19//14
f 4//15 13//15 19//15
f 4//16 19//16 20//16
f 3//17 4//17 20//17
f 3//18 20//18 21//18
f 3//19 21//19 22//19
f 3//20 22//20 23//20
f 23//21 24//21 25//21
f 23//22 25//22 26//22
f 23//23 26//23 27//23
f 23//24 27//24 28//24
f 29//25 30//25 31//25
f 28//26 29//26 31//26
f 23//27 28//27 31//27
f 3//28 23//28 31//28
f 31//29 32//29 33//29
f 3//30 31//30 33//30
f 3//31 33//31 34//31
f 1//32 3//32 34//32
f 37//33 1//33 34//33
f 37//34 34//34 35//34
f 35//35 36//35 37//35
f 78//36 76//36 75//36
f 76//37 78//37 77//37
usemtl assumed_roof
f 38//38 40//38 39//38
f 41//39 43//39 42//39
f 43//40 45//40 44//40
f 41//41 45//41 43//41
f 41//42 46//42 45//42
f 41//43 47//43 46//43
f 47//44 49//44 48//44
f 41//45 49//45 47//45
f 41//46 50//46 49//46
f 52//47 54//47 53//47
f 52//48 55//48 54//48
f 51//49 55//49 52//49
f 51//50 56//50 55//50
f 50//51 56//51 51//51
f 41//52 56//52 50//52
f 41//53 57//53 56//53
f 40//54 57//54 41//54
f 40//55 58//55 57//55
f 40//56 59//56 58//56
f 40//57 60//57 59//57
f 60//58 62//58 61//58
f 60//59 63//59 62//59
f 60//60 64//60 63//60
f 60//61 65//61 64//61
f 66//62 68//62 67//62
f 65//63 68//63 66//63
f 60//64 68//64 65//64
f 40//65 68//65 60//65
f 68//66 70//66 69//66
f 40//67 70//67 68//67
f 40//68 71//68 70//68
f 38//69 71//69 40//69
f 74//70 71//70 38//70
f 74//71 72//71 71//71
f 72//72 74//72 73//72
f 82//73 79//73 80//73
f 80//74 81//74 82//74
usemtl assumed_wall
f 1//75 39//75 2//75
f 1//76 38//76 39//76
f 2//77 40//77 3//77
f 2//78 39//78 40//78
f 3//79 41//79 4//79
f 3//80 40//80 41//80
f 4//81 42//81 5//81
f 4//82 41//82 42//82
f 5//83 43//83 6//83
f 5//84 42//84 43//84
f 6//85 44//85 7//85
f 6//86 43//86 44//86
f 7//87 45//87 8//87
f 7//88 44//88 45//88
f 8//89 46//89 9//89
f 8//90 45//90 46//90
f 9//91 47//91 10//91
f 9//92 46//92 47//92
f 10//93 48//93 11//93
f 10//94 47//94 48//94
f 11//95 49//95 12//95
f 11//96 48//96 49//96
f 12//97 50//97 13//97
f 12//98 49//98 50//98
f 13//99 51//99 14//99
f 13//100 50//100 51//100
f 14//101 52//101 15//101
f 14//102 51//102 52//102
f 15//103 53//103 16//103
f 15//104 52//104 53//104
f 16//105 54//105 17//105
f 16//106 53//106 54//106
f 17//107 55//107 18//107
f 17//108 54//108 55//108
f 18//109 56//109 19//109
f 18//110 55//110 56//110
f 19//111 57//111 20//111
f 19//112 56//112 57//112
f 20//113 58//113 21//113
f 20//114 57//114 58//114
f 21//115 59//115 22//115
f 21//116 58//116 59//116
f 22//117 60//117 23//117
f 22//118 59//118 60//118
f 23//119 61//119 24//119
f 23//120 60//120 61//120
f 24//121 62//121 25//121
f 24//122 61//122 62//122
f 25//123 63//123 26//123
f 25//124 62//124 63//124
f 26//125 64//125 27//125
f 26//126 63//126 64//126
f 27//127 65//127 28//127
f 27//128 64//128 65//128
f 28//129 66//129 29//129
f 28//130 65//130 66//130
f 29//131 67//131 30//131
f 29//132 66//132 67//132
f 30//133 68//133 31//133
f 30//134 67//134 68//134
f 31//135 69//135 32//135
f 31//136 68//136 69//136
f 32//137 70//137 33//137
f 32//138 69//138 70//138
f 33//139 71//139 34//139
f 33//140 70//140 71//140
f 34//141 72//141 35//141
f 34//142 71//142 72//142
f 35//143 73//143 36//143
f 35//144 72//144 73//144
f 36//145 74//145 37//145
f 36//146 73//146 74//146
f 37//147 38//147 1//147
f 37//148 74//148 38//148
f 75//149 76//149 80//149
f 75//150 80//150 79//150
f 76//151 77//151 81//151
f 76//152 81//152 80//152
f 77//153 78//153 82//153
f 77//154 82//154 81//154
f 78//155 75//155 79//155
f 78//156 79//156 82//156
