# construction_6063_assumed_A_Casa
# source A_Casa
# h_campo 0.000000
# modeled_height 6.000000
# height_kind assumed
# local_origin_world_x 172001.034850
# local_origin_world_y 402500.144600
mtllib construction_artifacts.mtl

o construction_6063_assumed_A_Casa
v -25.035000 -7.802000 0.000000
v -21.099000 1.987000 0.000000
v 5.690000 7.475000 0.000000
v 7.778000 12.616000 0.000000
v 9.862000 11.763000 0.000000
v 11.520000 16.627000 0.000000
v 22.116000 20.099000 0.000000
v 25.035000 19.320000 0.000000
v 20.893000 8.051000 0.000000
v 17.784000 9.034000 0.000000
v 9.724000 -10.192000 0.000000
v 11.025000 -10.524000 0.000000
v 7.255000 -20.099000 0.000000
v -25.035000 -7.802000 6.000000
v -21.099000 1.987000 6.000000
v 5.690000 7.475000 6.000000
v 7.778000 12.616000 6.000000
v 9.862000 11.763000 6.000000
v 11.520000 16.627000 6.000000
v 22.116000 20.099000 6.000000
v 25.035000 19.320000 6.000000
v 20.893000 8.051000 6.000000
v 17.784000 9.034000 6.000000
v 9.724000 -10.192000 6.000000
v 11.025000 -10.524000 6.000000
v 7.255000 -20.099000 6.000000
vn 0.000000 0.000000 -1.000000
vn 0.000000 0.000000 -1.000000
vn 0.000000 0.000000 -1.000000
vn 0.000000 0.000000 -1.000000
vn 0.000000 0.000000 -1.000000
vn 0.000000 0.000000 -1.000000
vn 0.000000 0.000000 -1.000000
vn 0.000000 0.000000 -1.000000
vn 0.000000 -0.000000 -1.000000
vn 0.000000 0.000000 -1.000000
vn 0.000000 -0.000000 -1.000000
vn 0.000000 0.000000 1.000000
vn 0.000000 0.000000 1.000000
vn 0.000000 -0.000000 1.000000
vn 0.000000 0.000000 1.000000
vn 0.000000 0.000000 1.000000
vn 0.000000 0.000000 1.000000
vn -0.000000 0.000000 1.000000
vn 0.000000 0.000000 1.000000
vn 0.000000 0.000000 1.000000
vn 0.000000 0.000000 1.000000
vn 0.000000 0.000000 1.000000
vn -0.927808 0.373057 0.000000
vn -0.927808 0.373057 0.000000
vn -0.200692 0.979654 0.000000
vn -0.200692 0.979654 0.000000
vn -0.926500 0.376295 0.000000
vn -0.926500 0.376295 0.000000
vn 0.378806 0.925476 0.000000
vn 0.378806 0.925476 -0.000000
vn -0.946521 0.322642 0.000000
vn -0.946521 0.322642 0.000000
vn -0.311381 0.950285 0.000000
vn -0.311381 0.950285 0.000000
vn 0.257848 0.966185 0.000000
vn 0.257848 0.966185 -0.000000
vn 0.938606 -0.344991 0.000000
vn 0.938606 -0.344991 0.000000
vn -0.301469 -0.953476 0.000000
vn -0.301469 -0.953476 0.000000
vn 0.922237 -0.386624 0.000000
vn 0.922237 -0.386624 0.000000
vn 0.247264 0.968948 0.000000
vn 0.247264 0.968948 -0.000000
vn 0.930474 -0.366359 0.000000
vn 0.930474 -0.366359 0.000000
vn -0.355895 -0.934526 0.000000
vn -0.355895 -0.934526 0.000000
usemtl assumed_base
f 13//1 1//1 2//1
f 13//2 2//2 3//2
f 13//3 3//3 4//3
f 13//4 4//4 5//4
f 13//5 5//5 6//5
f 6//6 7//6 8//6
f 6//7 8//7 9//7
f 6//8 9//8 10//8
f 6//9 10//9 11//9
f 13//10 6//10 11//10
f 11//11 12//11 13//11
usemtl assumed_roof
f 26//12 15//12 14//12
f 26//13 16//13 15//13
f 26//14 17//14 16//14
f 26//15 18//15 17//15
f 26//16 19//16 18//16
f 19//17 21//17 20//17
f 19//18 22//18 21//18
f 19//19 23//19 22//19
f 19//20 24//20 23//20
f 26//21 24//21 19//21
f 24//22 26//22 25//22
usemtl assumed_wall
f 1//23 15//23 2//23
f 1//24 14//24 15//24
f 2//25 16//25 3//25
f 2//26 15//26 16//26
f 3//27 17//27 4//27
f 3//28 16//28 17//28
f 4//29 18//29 5//29
f 4//30 17//30 18//30
f 5//31 19//31 6//31
f 5//32 18//32 19//32
f 6//33 20//33 7//33
f 6//34 19//34 20//34
f 7//35 21//35 8//35
f 7//36 20//36 21//36
f 8//37 22//37 9//37
f 8//38 21//38 22//38
f 9//39 23//39 10//39
f 9//40 22//40 23//40
f 10//41 24//41 11//41
f 10//42 23//42 24//42
f 11//43 25//43 12//43
f 11//44 24//44 25//44
f 12//45 26//45 13//45
f 12//46 25//46 26//46
f 13//47 14//47 1//47
f 13//48 26//48 14//48
