# construction_0103_assumed_A_Grande_construcao
# source A_Grande_construcao
# h_campo 0.000000
# modeled_height 6.000000
# height_kind assumed
# local_origin_world_x 172001.034850
# local_origin_world_y 402500.144600
mtllib construction_artifacts.mtl

o construction_0103_assumed_A_Grande_construcao
v -50.097000 17.137500 0.000000
v -28.985000 36.395500 0.000000
v -23.757000 31.188500 0.000000
v -9.519000 44.609500 0.000000
v 50.097000 -19.804500 0.000000
v 36.058000 -32.421500 0.000000
v 30.907000 -27.013500 0.000000
v 16.084000 -41.147500 0.000000
v 13.864000 -38.635500 0.000000
v 7.454000 -44.609500 0.000000
v -45.038000 11.496500 0.000000
v -50.097000 17.137500 6.000000
v -28.985000 36.395500 6.000000
v -23.757000 31.188500 6.000000
v -9.519000 44.609500 6.000000
v 50.097000 -19.804500 6.000000
v 36.058000 -32.421500 6.000000
v 30.907000 -27.013500 6.000000
v 16.084000 -41.147500 6.000000
v 13.864000 -38.635500 6.000000
v 7.454000 -44.609500 6.000000
v -45.038000 11.496500 6.000000
vn 0.000000 0.000000 -1.000000
vn 0.000000 0.000000 -1.000000
vn 0.000000 0.000000 -1.000000
vn 0.000000 0.000000 -1.000000
vn 0.000000 0.000000 -1.000000
vn 0.000000 0.000000 -1.000000
vn 0.000000 0.000000 -1.000000
vn 0.000000 0.000000 -1.000000
vn -0.000000 0.000000 -1.000000
vn 0.000000 -0.000000 1.000000
vn 0.000000 0.000000 1.000000
vn -0.000000 0.000000 1.000000
vn -0.000000 0.000000 1.000000
vn 0.000000 0.000000 1.000000
vn 0.000000 0.000000 1.000000
vn 0.000000 0.000000 1.000000
vn 0.000000 0.000000 1.000000
vn 0.000000 0.000000 1.000000
vn -0.673922 0.738802 0.000000
vn -0.673922 0.738802 0.000000
vn 0.705682 0.708528 0.000000
vn 0.705682 0.708528 -0.000000
vn -0.685921 0.727676 0.000000
vn -0.685921 0.727676 0.000000
vn 0.733912 0.679245 0.000000
vn 0.733912 0.679245 -0.000000
vn 0.668435 -0.743771 0.000000
vn 0.668435 -0.743771 0.000000
vn -0.724103 -0.689692 0.000000
vn -0.724103 -0.689692 0.000000
vn 0.690087 -0.723727 0.000000
vn 0.690087 -0.723727 0.000000
vn -0.749315 -0.662213 0.000000
vn -0.749315 -0.662213 0.000000
vn 0.681789 -0.731548 0.000000
vn 0.681789 -0.731548 0.000000
vn -0.730234 -0.683197 0.000000
vn -0.730234 -0.683197 0.000000
vn -0.744468 -0.667659 0.000000
vn -0.744468 -0.667659 0.000000
usemtl assumed_base
f 11//1 1//1 2//1
f 11//2 2//2 3//2
f 3//3 4//3 5//3
f 11//4 3//4 5//4
f 5//5 6//5 7//5
f 11//6 5//6 7//6
f 7//7 8//7 9//7
f 11//8 7//8 9//8
f 9//9 10//9 11//9
usemtl assumed_roof
f 22//10 13//10 12//10
f 22//11 14//11 13//11
f 14//12 16//12 15//12
f 22//13 16//13 14//13
f 16//14 18//14 17//14
f 22//15 18//15 16//15
f 18//16 20//16 19//16
f 22//17 20//17 18//17
f 20//18 22//18 21//18
usemtl assumed_wall
f 1//19 13//19 2//19
f 1//20 12//20 13//20
f 2//21 14//21 3//21
f 2//22 13//22 14//22
f 3//23 15//23 4//23
f 3//24 14//24 15//24
f 4//25 16//25 5//25
f 4//26 15//26 16//26
f 5//27 17//27 6//27
f 5//28 16//28 17//28
f 6//29 18//29 7//29
f 6//30 17//30 18//30
f 7//31 19//31 8//31
f 7//32 18//32 19//32
f 8//33 20//33 9//33
f 8//34 19//34 20//34
f 9//35 21//35 10//35
f 9//36 20//36 21//36
f 10//37 22//37 11//37
f 10//38 21//38 22//38
f 11//39 12//39 1//39
f 11//40 22//40 12//40
