# construction_3089_assumed_A_Casa
# source A_Casa
# h_campo 0.000000
# modeled_height 6.000000
# height_kind assumed
# local_origin_world_x 172001.034850
# local_origin_world_y 402500.144600
mtllib construction_artifacts.mtl

o construction_3089_assumed_A_Casa
v 31.525500 9.308500 0.000000
v 27.924500 -17.147500 0.000000
v -31.381500 -9.644500 0.000000
v -30.680500 -2.373500 0.000000
v -31.525500 -1.853500 0.000000
v -30.035500 11.188500 0.000000
v -29.007500 11.309500 0.000000
v -28.302500 17.147500 0.000000
v 31.525500 9.308500 6.000000
v 27.924500 -17.147500 6.000000
v -31.381500 -9.644500 6.000000
v -30.680500 -2.373500 6.000000
v -31.525500 -1.853500 6.000000
v -30.035500 11.188500 6.000000
v -29.007500 11.309500 6.000000
v -28.302500 17.147500 6.000000
vn 0.000000 0.000000 -1.000000
vn 0.000000 -0.000000 -1.000000
vn 0.000000 0.000000 -1.000000
vn 0.000000 0.000000 -1.000000
vn 0.000000 0.000000 -1.000000
vn 0.000000 0.000000 -1.000000
vn 0.000000 0.000000 1.000000
vn 0.000000 0.000000 1.000000
vn 0.000000 -0.000000 1.000000
vn 0.000000 0.000000 1.000000
vn 0.000000 0.000000 1.000000
vn 0.000000 0.000000 1.000000
vn 0.990863 -0.134869 0.000000
vn 0.990863 -0.134869 0.000000
vn -0.125513 -0.992092 0.000000
vn -0.125513 -0.992092 0.000000
vn -0.995385 0.095965 0.000000
vn -0.995385 0.095965 0.000000
vn -0.524097 -0.851658 0.000000
vn -0.524097 -0.851658 0.000000
vn -0.993537 0.113508 0.000000
vn -0.993537 0.113508 0.000000
vn -0.116897 0.993144 0.000000
vn -0.116897 0.993144 0.000000
vn -0.992787 0.119890 0.000000
vn -0.992787 0.119890 0.000000
vn 0.129915 0.991525 0.000000
vn 0.129915 0.991525 -0.000000
usemtl assumed_base
f 8//1 1//1 2//1
f 8//2 2//2 3//2
f 4//3 5//3 6//3
f 4//4 6//4 7//4
f 3//5 4//5 7//5
f 3//6 7//6 8//6
usemtl assumed_roof
f 16//7 10//7 9//7
f 16//8 11//8 10//8
f 12//9 14//9 13//9
f 12//10 15//10 14//10
f 11//11 15//11 12//11
f 11//12 16//12 15//12
usemtl assumed_wall
f 1//13 10//13 2//13
f 1//14 9//14 10//14
f 2//15 11//15 3//15
f 2//16 10//16 11//16
f 3//17 12//17 4//17
f 3//18 11//18 12//18
f 4//19 13//19 5//19
f 4//20 12//20 13//20
f 5//21 14//21 6//21
f 5//22 13//22 14//22
f 6//23 15//23 7//23
f 6//24 14//24 15//24
f 7//25 16//25 8//25
f 7//26 15//26 16//26
f 8//27 9//27 1//27
f 8//28 16//28 9//28
