# construction_6098_assumed_A_Casa
# source A_Casa
# h_campo 0.000000
# modeled_height 6.000000
# height_kind assumed
# local_origin_world_x 172001.034850
# local_origin_world_y 402500.144600
mtllib construction_artifacts.mtl

o construction_6098_assumed_A_Casa
v -12.221500 -3.109500 0.000000
v 4.358500 9.723500 0.000000
v 12.221500 0.173500 0.000000
v -1.011500 -9.723500 0.000000
v -3.931500 -5.856500 0.000000
v -8.009500 -8.860500 0.000000
v -12.221500 -3.109500 6.000000
v 4.358500 9.723500 6.000000
v 12.221500 0.173500 6.000000
v -1.011500 -9.723500 6.000000
v -3.931500 -5.856500 6.000000
v -8.009500 -8.860500 6.000000
vn 0.000000 0.000000 -1.000000
vn 0.000000 -0.000000 -1.000000
vn 0.000000 0.000000 -1.000000
vn 0.000000 0.000000 -1.000000
vn 0.000000 -0.000000 1.000000
vn 0.000000 0.000000 1.000000
vn 0.000000 0.000000 1.000000
vn 0.000000 0.000000 1.000000
vn -0.612080 0.790796 0.000000
vn -0.612080 0.790796 0.000000
vn 0.771998 0.635625 0.000000
vn 0.771998 0.635625 -0.000000
vn 0.598925 -0.800805 0.000000
vn 0.598925 -0.800805 0.000000
vn -0.798039 -0.602605 0.000000
vn -0.798039 -0.602605 0.000000
vn 0.593091 -0.805135 0.000000
vn 0.593091 -0.805135 0.000000
vn -0.806766 -0.590871 0.000000
vn -0.806766 -0.590871 0.000000
usemtl assumed_base
f 6//1 1//1 2//1
f 2//2 3//2 4//2
f 2//3 4//3 5//3
f 2//4 5//4 6//4
usemtl assumed_roof
f 12//5 8//5 7//5
f 8//6 10//6 9//6
f 8//7 11//7 10//7
f 8//8 12//8 11//8
usemtl assumed_wall
f 1//9 8//9 2//9
f 1//10 7//10 8//10
f 2//11 9//11 3//11
f 2//12 8//12 9//12
f 3//13 10//13 4//13
f 3//14 9//14 10//14
f 4//15 11//15 5//15
f 4//16 10//16 11//16
f 5//17 12//17 6//17
f 5//18 11//18 12//18
f 6//19 7//19 1//19
f 6//20 12//20 7//20
