# construction_6185_assumed_A_Casa
# source A_Casa
# h_campo 0.000000
# modeled_height 6.000000
# height_kind assumed
# local_origin_world_x 172001.034850
# local_origin_world_y 402500.144600
mtllib construction_artifacts.mtl

o construction_6185_assumed_A_Casa
v -14.431000 -4.676000 0.000000
v -11.175000 1.389000 0.000000
v -9.454000 0.745000 0.000000
v -6.098000 6.435000 0.000000
v -10.183000 8.664000 0.000000
v -6.526000 15.210000 0.000000
v 8.308000 7.144000 0.000000
v 10.325000 9.823000 0.000000
v 15.816000 7.077000 0.000000
v 8.899000 -3.557000 0.000000
v 4.103000 -0.465000 0.000000
v -3.667000 -15.210000 0.000000
v -15.816000 -8.346000 0.000000
v -13.919000 -4.792000 0.000000
v -14.431000 -4.676000 6.000000
v -11.175000 1.389000 6.000000
v -9.454000 0.745000 6.000000
v -6.098000 6.435000 6.000000
v -10.183000 8.664000 6.000000
v -6.526000 15.210000 6.000000
v 8.308000 7.144000 6.000000
v 10.325000 9.823000 6.000000
v 15.816000 7.077000 6.000000
v 8.899000 -3.557000 6.000000
v 4.103000 -0.465000 6.000000
v -3.667000 -15.210000 6.000000
v -15.816000 -8.346000 6.000000
v -13.919000 -4.792000 6.000000
vn 0.000000 0.000000 -1.000000
vn 0.000000 0.000000 -1.000000
vn 0.000000 0.000000 -1.000000
vn 0.000000 0.000000 -1.000000
vn 0.000000 0.000000 -1.000000
vn 0.000000 0.000000 -1.000000
vn 0.000000 0.000000 -1.000000
vn 0.000000 0.000000 -1.000000
vn 0.000000 0.000000 -1.000000
vn 0.000000 0.000000 -1.000000
vn 0.000000 0.000000 -1.000000
vn 0.000000 0.000000 -1.000000
vn 0.000000 -0.000000 1.000000
vn 0.000000 0.000000 1.000000
vn 0.000000 0.000000 1.000000
vn 0.000000 -0.000000 1.000000
vn 0.000000 0.000000 1.000000
vn 0.000000 0.000000 1.000000
vn -0.000000 0.000000 1.000000
vn 0.000000 0.000000 1.000000
vn 0.000000 0.000000 1.000000
vn 0.000000 0.000000 1.000000
vn -0.000000 0.000000 1.000000
vn 0.000000 0.000000 1.000000
vn -0.881063 0.472999 0.000000
vn -0.881063 0.472999 0.000000
vn 0.350467 0.936575 0.000000
vn 0.350467 0.936575 -0.000000
vn -0.861342 0.508025 0.000000
vn -0.861342 0.508025 0.000000
vn -0.478988 -0.877822 0.000000
vn -0.478988 -0.877822 0.000000
vn -0.873004 0.487714 0.000000
vn -0.873004 0.487714 0.000000
vn 0.477698 0.878524 0.000000
vn 0.477698 0.878524 -0.000000
vn -0.798889 0.601478 0.000000
vn -0.798889 0.601478 0.000000
vn 0.447279 0.894395 0.000000
vn 0.447279 0.894395 -0.000000
vn 0.838267 -0.545260 0.000000
vn 0.838267 -0.545260 0.000000
vn -0.541855 -0.840472 0.000000
vn -0.541855 -0.840472 0.000000
vn 0.884684 -0.466191 0.000000
vn 0.884684 -0.466191 0.000000
vn -0.491904 -0.870650 0.000000
vn -0.491904 -0.870650 0.000000
vn -0.882195 0.470885 0.000000
vn -0.882195 0.470885 0.000000
vn -0.220962 -0.975282 0.000000
vn -0.220962 -0.975282 0.000000
usemtl assumed_base
f 14//1 1//1 2//1
f 14//2 2//2 3//2
f 4//3 5//3 6//3
f 4//4 6//4 7//4
f 3//5 4//5 7//5
f 14//6 3//6 7//6
f 7//7 8//7 9//7
f 14//8 7//8 9//8
f 9//9 10//9 11//9
f 14//10 9//10 11//10
f 14//11 11//11 12//11
f 12//12 13//12 14//12
usemtl assumed_roof
f 28//13 16//13 15//13
f 28//14 17//14 16//14
f 18//15 20//15 19//15
f 18//16 21//16 20//16
f 17//17 21//17 18//17
f 28//18 21//18 17//18
f 21//19 23//19 22//19
f 28//20 23//20 21//20
f 23//21 25//21 24//21
f 28//22 25//22 23//22
f 28//23 26//23 25//23
f 26//24 28//24 27//24
usemtl assumed_wall
f 1//25 16//25 2//25
f 1//26 15//26 16//26
f 2//27 17//27 3//27
f 2//28 16//28 17//28
f 3//29 18//29 4//29
f 3//30 17//30 18//30
f 4//31 19//31 5//31
f 4//32 18//32 19//32
f 5//33 20//33 6//33
f 5//34 19//34 20//34
f 6//35 21//35 7//35
f 6//36 20//36 21//36
f 7//37 22//37 8//37
f 7//38 21//38 22//38
f 8//39 23//39 9//39
f 8//40 22//40 23//40
f 9//41 24//41 10//41
f 9//42 23//42 24//42
f 10//43 25//43 11//43
f 10//44 24//44 25//44
f 11//45 26//45 12//45
f 11//46 25//46 26//46
f 12//47 27//47 13//47
f 12//48 26//48 27//48
f 13//49 28//49 14//49
f 13//50 27//50 28//50
f 14//51 15//51 1//51
f 14//52 28//52 15//52
