# construction_3460_assumed_A_Casa
# source A_Casa
# h_campo 0.000000
# modeled_height 6.000000
# height_kind assumed
# local_origin_world_x 172001.034850
# local_origin_world_y 402500.144600
mtllib construction_artifacts.mtl

o construction_3460_assumed_A_Casa
v -22.466500 -1.786500 0.000000
v 20.112500 23.002500 0.000000
v 22.466500 19.217500 0.000000
v 17.822500 17.235500 0.000000
v 20.423500 13.435500 0.000000
v 9.577500 7.367500 0.000000
v 7.914500 9.917500 0.000000
v 2.210500 6.836500 0.000000
v 3.336500 4.473500 0.000000
v -5.543500 0.041500 0.000000
v -4.909500 -1.281500 0.000000
v -8.791500 -3.375500 0.000000
v -4.607500 -11.475500 0.000000
v 2.400500 -7.502500 0.000000
v -1.187500 -1.915500 0.000000
v 6.242500 1.659500 0.000000
v 12.829500 -9.855500 0.000000
v -9.750500 -23.002500 0.000000
v -22.466500 -1.786500 6.000000
v 20.112500 23.002500 6.000000
v 22.466500 19.217500 6.000000
v 17.822500 17.235500 6.000000
v 20.423500 13.435500 6.000000
v 9.577500 7.367500 6.000000
v 7.914500 9.917500 6.000000
v 2.210500 6.836500 6.000000
v 3.336500 4.473500 6.000000
v -5.543500 0.041500 6.000000
v -4.909500 -1.281500 6.000000
v -8.791500 -3.375500 6.000000
v -4.607500 -11.475500 6.000000
v 2.400500 -7.502500 6.000000
v -1.187500 -1.915500 6.000000
v 6.242500 1.659500 6.000000
v 12.829500 -9.855500 6.000000
v -9.750500 -23.002500 6.000000
vn 0.000000 -0.000000 -1.000000
vn 0.000000 0.000000 -1.000000
vn 0.000000 -0.000000 -1.000000
vn 0.000000 0.000000 -1.000000
vn 0.000000 0.000000 -1.000000
vn 0.000000 0.000000 -1.000000
vn 0.000000 0.000000 -1.000000
vn 0.000000 0.000000 -1.000000
vn 0.000000 0.000000 -1.000000
vn 0.000000 0.000000 -1.000000
vn 0.000000 0.000000 -1.000000
vn 0.000000 0.000000 -1.000000
vn 0.000000 0.000000 -1.000000
vn 0.000000 0.000000 -1.000000
vn 0.000000 0.000000 -1.000000
vn 0.000000 -0.000000 -1.000000
vn 0.000000 0.000000 1.000000
vn 0.000000 0.000000 1.000000
vn 0.000000 0.000000 1.000000
vn 0.000000 0.000000 1.000000
vn 0.000000 0.000000 1.000000
vn 0.000000 0.000000 1.000000
vn 0.000000 0.000000 1.000000
vn 0.000000 0.000000 1.000000
vn 0.000000 0.000000 1.000000
vn -0.000000 0.000000 1.000000
vn 0.000000 -0.000000 1.000000
vn 0.000000 0.000000 1.000000
vn 0.000000 0.000000 1.000000
vn 0.000000 -0.000000 1.000000
vn -0.000000 0.000000 1.000000
vn 0.000000 0.000000 1.000000
vn -0.503133 0.864209 0.000000
vn -0.503133 0.864209 0.000000
vn 0.849168 0.528122 0.000000
vn 0.849168 0.528122 -0.000000
vn 0.392533 -0.919738 0.000000
vn 0.392533 -0.919738 0.000000
vn 0.825206 0.564832 0.000000
vn 0.825206 0.564832 -0.000000
vn 0.488251 -0.872704 0.000000
vn 0.488251 -0.872704 0.000000
vn -0.837617 -0.546258 0.000000
vn -0.837617 -0.546258 0.000000
vn 0.475249 -0.879851 0.000000
vn 0.475249 -0.879851 0.000000
vn 0.902748 0.430171 0.000000
vn 0.902748 0.430171 -0.000000
vn 0.446569 -0.894749 0.000000
vn 0.446569 -0.894749 0.000000
vn 0.901799 0.432155 0.000000
vn 0.901799 0.432155 -0.000000
vn 0.474749 -0.880121 0.000000
vn 0.474749 -0.880121 0.000000
vn 0.888471 0.458933 0.000000
vn 0.888471 0.458933 -0.000000
vn -0.493182 0.869926 0.000000
vn -0.493182 0.869926 0.000000
vn -0.841428 -0.540369 0.000000
vn -0.841428 -0.540369 0.000000
vn -0.433579 0.901116 0.000000
vn -0.433579 0.901116 0.000000
vn 0.868016 0.496537 0.000000
vn 0.868016 0.496537 -0.000000
vn 0.503166 -0.864189 0.000000
vn 0.503166 -0.864189 0.000000
vn -0.857735 -0.514091 0.000000
vn -0.857735 -0.514091 0.000000
usemtl assumed_base
f 2//1 3//1 4//1
f 1//2 2//2 4//2
f 4//3 5//3 6//3
f 4//4 6//4 7//4
f 1//5 4//5 7//5
f 1//6 7//6 8//6
f 1//7 8//7 9//7
f 1//8 9//8 10//8
f 1//9 10//9 11//9
f 1//10 11//10 12//10
f 18//11 1//11 12//11
f 18//12 12//12 13//12
f 18//13 13//13 14//13
f 14//14 15//14 16//14
f 14//15 16//15 17//15
f 14//16 17//16 18//16
usemtl assumed_roof
f 20//17 22//17 21//17
f 19//18 22//18 20//18
f 22//19 24//19 23//19
f 22//20 25//20 24//20
f 19//21 25//21 22//21
f 19//22 26//22 25//22
f 19//23 27//23 26//23
f 19//24 28//24 27//24
f 19//25 29//25 28//25
f 19//26 30//26 29//26
f 36//27 30//27 19//27
f 36//28 31//28 30//28
f 36//29 32//29 31//29
f 32//30 34//30 33//30
f 32//31 35//31 34//31
f 32//32 36//32 35//32
usemtl assumed_wall
f 1//33 20//33 2//33
f 1//34 19//34 20//34
f 2//35 21//35 3//35
f 2//36 20//36 21//36
f 3//37 22//37 4//37
f 3//38 21//38 22//38
f 4//39 23//39 5//39
f 4//40 22//40 23//40
f 5//41 24//41 6//41
f 5//42 23//42 24//42
f 6//43 25//43 7//43
f 6//44 24//44 25//44
f 7//45 26//45 8//45
f 7//46 25//46 26//46
f 8//47 27//47 9//47
f 8//48 26//48 27//48
f 9//49 28//49 10//49
f 9//50 27//50 28//50
f 10//51 29//51 11//51
f 10//52 28//52 29//52
f 11//53 30//53 12//53
f 11//54 29//54 30//54
f 12//55 31//55 13//55
f 12//56 30//56 31//56
f 13//57 32//57 14//57
f 13//58 31//58 32//58
f 14//59 33//59 15//59
f 14//60 32//60 33//60
f 15//61 34//61 16//61
f 15//62 33//62 34//62
f 16//63 35//63 17//63
f 16//64 34//64 35//64
f 17//65 36//65 18//65
f 17//66 35//66 36//66
f 18//67 19//67 1//67
f 18//68 36//68 19//68
