# construction_6803_assumed_A_Casa
# source A_Casa
# h_campo 0.000000
# modeled_height 6.000000
# height_kind assumed
# local_origin_world_x 172001.034850
# local_origin_world_y 402500.144600
mtllib construction_artifacts.mtl

o construction_6803_assumed_A_Casa
v -4.875500 -3.975500 0.000000
v -3.514500 4.951500 0.000000
v -2.353500 4.585500 0.000000
v -2.281500 5.792500 0.000000
v 1.818500 5.225500 0.000000
v 1.733500 3.617500 0.000000
v 4.875500 2.937500 0.000000
v 2.738500 -5.792500 0.000000
v -4.875500 -3.975500 6.000000
v -3.514500 4.951500 6.000000
v -2.353500 4.585500 6.000000
v -2.281500 5.792500 6.000000
v 1.818500 5.225500 6.000000
v 1.733500 3.617500 6.000000
v 4.875500 2.937500 6.000000
v 2.738500 -5.792500 6.000000
vn 0.000000 0.000000 -1.000000
vn 0.000000 0.000000 -1.000000
vn 0.000000 0.000000 -1.000000
vn 0.000000 0.000000 -1.000000
vn 0.000000 0.000000 -1.000000
vn 0.000000 0.000000 -1.000000
vn 0.000000 0.000000 1.000000
vn 0.000000 0.000000 1.000000
vn 0.000000 0.000000 1.000000
vn 0.000000 0.000000 1.000000
vn 0.000000 0.000000 1.000000
vn 0.000000 0.000000 1.000000
vn -0.988577 0.150717 0.000000
vn -0.988577 0.150717 0.000000
vn 0.300660 0.953732 0.000000
vn 0.300660 0.953732 -0.000000
vn -0.998226 0.059546 0.000000
vn -0.998226 0.059546 0.000000
vn 0.136989 0.990573 0.000000
vn 0.136989 0.990573 -0.000000
vn 0.998606 -0.052787 0.000000
vn 0.998606 -0.052787 0.000000
vn 0.211526 0.977372 0.000000
vn 0.211526 0.977372 -0.000000
vn 0.971322 -0.237768 0.000000
vn 0.971322 -0.237768 0.000000
vn -0.232121 -0.972687 0.000000
vn -0.232121 -0.972687 0.000000
usemtl assumed_base
f 8//1 1//1 2//1
f 8//2 2//2 3//2
f 8//3 3//3 4//3
f 4//4 5//4 6//4
f 8//5 4//5 6//5
f 6//6 7//6 8//6
usemtl assumed_roof
f 16//7 10//7 9//7
f 16//8 11//8 10//8
f 16//9 12//9 11//9
f 12//10 14//10 13//10
f 16//11 14//11 12//11
f 14//12 16//12 15//12
usemtl assumed_wall
f 1//13 10//13 2//13
f 1//14 9//14 10//14
f 2//15 11//15 3//15
f 2//16 10//16 11//16
f 3//17 12//17 4//17
f 3//18 11//18 12//18
f 4//19 13//19 5//19
f 4//20 12//20 13//20
f 5//21 14//21 6//21
f 5//22 13//22 14//22
f 6//23 15//23 7//23
f 6//24 14//24 15//24
f 7//25 16//25 8//25
f 7//26 15//26 16//26
f 8//27 9//27 1//27
f 8//28 16//28 9//28
