# construction_0977_assumed_A_Casa
# source A_Casa
# h_campo 0.000000
# modeled_height 6.000000
# height_kind assumed
# local_origin_world_x 172001.034850
# local_origin_world_y 402500.144600
mtllib construction_artifacts.mtl

o construction_0977_assumed_A_Casa
v -25.022000 -10.929000 0.000000
v -14.817000 -8.234000 0.000000
v -15.482000 -4.329000 0.000000
v -6.586000 -2.703000 0.000000
v -9.563000 8.222000 0.000000
v -3.396000 9.404000 0.000000
v 0.271000 -5.299000 0.000000
v 5.699000 -3.425000 0.000000
v 0.787000 12.638000 0.000000
v 16.664000 16.803000 0.000000
v 21.203000 -0.539000 0.000000
v 22.974000 -0.531000 0.000000
v 25.022000 -10.386000 0.000000
v 17.303000 -12.158000 0.000000
v 17.816000 -13.584000 0.000000
v 11.840000 -14.639000 0.000000
v 10.730000 -10.294000 0.000000
v -16.523000 -15.957000 0.000000
v -16.541000 -14.908000 0.000000
v -21.198000 -16.803000 0.000000
v -25.022000 -10.929000 6.000000
v -14.817000 -8.234000 6.000000
v -15.482000 -4.329000 6.000000
v -6.586000 -2.703000 6.000000
v -9.563000 8.222000 6.000000
v -3.396000 9.404000 6.000000
v 0.271000 -5.299000 6.000000
v 5.699000 -3.425000 6.000000
v 0.787000 12.638000 6.000000
v 16.664000 16.803000 6.000000
v 21.203000 -0.539000 6.000000
v 22.974000 -0.531000 6.000000
v 25.022000 -10.386000 6.000000
v 17.303000 -12.158000 6.000000
v 17.816000 -13.584000 6.000000
v 11.840000 -14.639000 6.000000
v 10.730000 -10.294000 6.000000
v -16.523000 -15.957000 6.000000
v -16.541000 -14.908000 6.000000
v -21.198000 -16.803000 6.000000
vn 0.000000 0.000000 -1.000000
vn 0.000000 0.000000 -1.000000
vn 0.000000 0.000000 -1.000000
vn 0.000000 0.000000 -1.000000
vn 0.000000 0.000000 -1.000000
vn 0.000000 0.000000 -1.000000
vn 0.000000 0.000000 -1.000000
vn 0.000000 0.000000 -1.000000
vn 0.000000 0.000000 -1.000000
vn 0.000000 0.000000 -1.000000
vn 0.000000 0.000000 -1.000000
vn 0.000000 0.000000 -1.000000
vn 0.000000 0.000000 -1.000000
vn -0.000000 0.000000 -1.000000
vn 0.000000 0.000000 -1.000000
vn 0.000000 -0.000000 -1.000000
vn 0.000000 0.000000 -1.000000
vn 0.000000 0.000000 -1.000000
vn 0.000000 -0.000000 1.000000
vn 0.000000 -0.000000 1.000000
vn 0.000000 0.000000 1.000000
vn 0.000000 -0.000000 1.000000
vn -0.000000 0.000000 1.000000
vn 0.000000 0.000000 1.000000
vn 0.000000 0.000000 1.000000
vn 0.000000 -0.000000 1.000000
vn 0.000000 0.000000 1.000000
vn 0.000000 0.000000 1.000000
vn -0.000000 0.000000 1.000000
vn 0.000000 0.000000 1.000000
vn 0.000000 0.000000 1.000000
vn 0.000000 0.000000 1.000000
vn 0.000000 0.000000 1.000000
vn 0.000000 0.000000 1.000000
vn 0.000000 0.000000 1.000000
vn 0.000000 0.000000 1.000000
vn -0.255333 0.966853 0.000000
vn -0.255333 0.966853 0.000000
vn -0.985808 -0.167878 0.000000
vn -0.985808 -0.167878 0.000000
vn -0.179800 0.983703 0.000000
vn -0.179800 0.983703 0.000000
vn -0.964821 -0.262908 0.000000
vn -0.964821 -0.262908 0.000000
vn -0.188239 0.982123 0.000000
vn -0.188239 0.982123 0.000000
vn 0.970278 0.241992 0.000000
vn 0.970278 0.241992 -0.000000
vn -0.326345 0.945251 0.000000
vn -0.326345 0.945251 0.000000
vn -0.956287 -0.292429 0.000000
vn -0.956287 -0.292429 0.000000
vn -0.253744 0.967272 0.000000
vn -0.253744 0.967272 0.000000
vn 0.967413 0.253205 0.000000
vn 0.967413 0.253205 -0.000000
vn -0.004517 0.999990 0.000000
vn -0.004517 0.999990 0.000000
vn 0.979082 0.203466 0.000000
vn 0.979082 0.203466 -0.000000
vn 0.223744 -0.974648 0.000000
vn 0.223744 -0.974648 0.000000
vn 0.940963 0.338509 0.000000
vn 0.940963 0.338509 -0.000000
vn 0.173851 -0.984772 0.000000
vn 0.173851 -0.984772 0.000000
vn -0.968884 -0.247517 0.000000
vn -0.968884 -0.247517 0.000000
vn 0.203448 -0.979086 0.000000
vn 0.203448 -0.979086 0.000000
vn -0.999853 -0.017157 0.000000
vn -0.999853 -0.017157 0.000000
vn 0.376905 -0.926252 0.000000
vn 0.376905 -0.926252 0.000000
vn -0.838059 -0.545580 0.000000
vn -0.838059 -0.545580 0.000000
usemtl assumed_base
f 20//1 1//1 2//1
f 2//2 3//2 4//2
f 20//3 2//3 4//3
f 4//4 5//4 6//4
f 4//5 6//5 7//5
f 20//6 4//6 7//6
f 20//7 7//7 8//7
f 8//8 9//8 10//8
f 8//9 10//9 11//9
f 8//10 11//10 12//10
f 8//11 12//11 13//11
f 8//12 13//12 14//12
f 8//13 14//13 15//13
f 15//14 16//14 17//14
f 8//15 15//15 17//15
f 8//16 17//16 18//16
f 8//17 18//17 19//17
f 8//18 19//18 20//18
usemtl assumed_roof
f 40//19 22//19 21//19
f 22//20 24//20 23//20
f 40//21 24//21 22//21
f 24//22 26//22 25//22
f 24//23 27//23 26//23
f 40//24 27//24 24//24
f 40//25 28//25 27//25
f 28//26 30//26 29//26
f 28//27 31//27 30//27
f 28//28 32//28 31//28
f 28//29 33//29 32//29
f 28//30 34//30 33//30
f 28//31 35//31 34//31
f 35//32 37//32 36//32
f 28//33 37//33 35//33
f 28//34 38//34 37//34
f 28//35 39//35 38//35
f 28//36 40//36 39//36
usemtl assumed_wall
f 1//37 22//37 2//37
f 1//38 21//38 22//38
f 2//39 23//39 3//39
f 2//40 22//40 23//40
f 3//41 24//41 4//41
f 3//42 23//42 24//42
f 4//43 25//43 5//43
f 4//44 24//44 25//44
f 5//45 26//45 6//45
f 5//46 25//46 26//46
f 6//47 27//47 7//47
f 6//48 26//48 27//48
f 7//49 28//49 8//49
f 7//50 27//50 28//50
f 8//51 29//51 9//51
f 8//52 28//52 29//52
f 9//53 30//53 10//53
f 9//54 29//54 30//54
f 10//55 31//55 11//55
f 10//56 30//56 31//56
f 11//57 32//57 12//57
f 11//58 31//58 32//58
f 12//59 33//59 13//59
f 12//60 32//60 33//60
f 13//61 34//61 14//61
f 13//62 33//62 34//62
f 14//63 35//63 15//63
f 14//64 34//64 35//64
f 15//65 36//65 16//65
f 15//66 35//66 36//66
f 16//67 37//67 17//67
f 16//68 36//68 37//68
f 17//69 38//69 18//69
f 17//70 37//70 38//70
f 18//71 39//71 19//71
f 18//72 38//72 39//72
f 19//73 40//73 20//73
f 19//74 39//74 40//74
f 20//75 21//75 1//75
f 20//76 40//76 21//76
