# construction_3179_actual_A_Casa
# source A_Casa
# h_campo 5.000000
# modeled_height 5.000000
# height_kind actual
# local_origin_world_x 172001.034850
# local_origin_world_y 402500.144600
mtllib construction_artifacts.mtl

o construction_3179_actual_A_Casa
v -11.596000 0.192000 0.000000
v 4.725000 11.753000 0.000000
v 11.596000 2.516000 0.000000
v 4.597000 -2.852000 0.000000
v 6.057000 -5.455000 0.000000
v -2.556000 -11.753000 0.000000
v -11.596000 0.192000 5.000000
v 4.725000 11.753000 5.000000
v 11.596000 2.516000 5.000000
v 4.597000 -2.852000 5.000000
v 6.057000 -5.455000 5.000000
v -2.556000 -11.753000 5.000000
vn 0.000000 0.000000 -1.000000
vn 0.000000 -0.000000 -1.000000
vn 0.000000 0.000000 -1.000000
vn 0.000000 -0.000000 -1.000000
vn 0.000000 -0.000000 1.000000
vn 0.000000 0.000000 1.000000
vn 0.000000 0.000000 1.000000
vn 0.000000 0.000000 1.000000
vn -0.578027 0.816018 0.000000
vn -0.578027 0.816018 0.000000
vn 0.802360 0.596840 0.000000
vn 0.802360 0.596840 -0.000000
vn 0.608581 -0.793491 0.000000
vn 0.608581 -0.793491 0.000000
vn 0.872174 0.489195 0.000000
vn 0.872174 0.489195 -0.000000
vn 0.590254 -0.807218 0.000000
vn 0.590254 -0.807218 0.000000
vn -0.797389 -0.603466 0.000000
vn -0.797389 -0.603466 0.000000
usemtl actual_base
f 6//1 1//1 2//1
f 2//2 3//2 4//2
f 6//3 2//3 4//3
f 4//4 5//4 6//4
usemtl actual_roof
f 12//5 8//5 7//5
f 8//6 10//6 9//6
f 12//7 10//7 8//7
f 10//8 12//8 11//8
usemtl actual_wall
f 1//9 8//9 2//9
f 1//10 7//10 8//10
f 2//11 9//11 3//11
f 2//12 8//12 9//12
f 3//13 10//13 4//13
f 3//14 9//14 10//14
f 4//15 11//15 5//15
f 4//16 10//16 11//16
f 5//17 12//17 6//17
f 5//18 11//18 12//18
f 6//19 7//19 1//19
f 6//20 12//20 7//20
