# construction_3370_assumed_A_Casa
# source A_Casa
# h_campo 0.000000
# modeled_height 6.000000
# height_kind assumed
# local_origin_world_x 172001.034850
# local_origin_world_y 402500.144600
mtllib construction_artifacts.mtl

o construction_3370_assumed_A_Casa
v -23.378000 20.211000 0.000000
v -8.502000 26.034000 0.000000
v -4.349000 15.168000 0.000000
v 0.455000 17.096000 0.000000
v 3.065000 10.779000 0.000000
v 0.619000 9.712000 0.000000
v 1.736000 6.961000 0.000000
v 8.850000 9.031000 0.000000
v 9.922000 4.619000 0.000000
v 19.119000 7.440000 0.000000
v 23.378000 -2.001000 0.000000
v 13.609000 -4.264000 0.000000
v 16.107000 -13.668000 0.000000
v 19.645000 -12.874000 0.000000
v 21.819000 -22.192000 0.000000
v 16.983000 -23.352000 0.000000
v 17.361000 -25.014000 0.000000
v 13.302000 -26.034000 0.000000
v 3.578000 -3.685000 0.000000
v 1.474000 -3.690000 0.000000
v 6.933000 -18.231000 0.000000
v -4.248000 -22.916000 0.000000
v -9.508000 -9.545000 0.000000
v -11.650000 -10.267000 0.000000
v -23.378000 20.211000 6.000000
v -8.502000 26.034000 6.000000
v -4.349000 15.168000 6.000000
v 0.455000 17.096000 6.000000
v 3.065000 10.779000 6.000000
v 0.619000 9.712000 6.000000
v 1.736000 6.961000 6.000000
v 8.850000 9.031000 6.000000
v 9.922000 4.619000 6.000000
v 19.119000 7.440000 6.000000
v 23.378000 -2.001000 6.000000
v 13.609000 -4.264000 6.000000
v 16.107000 -13.668000 6.000000
v 19.645000 -12.874000 6.000000
v 21.819000 -22.192000 6.000000
v 16.983000 -23.352000 6.000000
v 17.361000 -25.014000 6.000000
v 13.302000 -26.034000 6.000000
v 3.578000 -3.685000 6.000000
v 1.474000 -3.690000 6.000000
v 6.933000 -18.231000 6.000000
v -4.248000 -22.916000 6.000000
v -9.508000 -9.545000 6.000000
v -11.650000 -10.267000 6.000000
vn 0.000000 0.000000 -1.000000
vn 0.000000 0.000000 -1.000000
vn 0.000000 0.000000 -1.000000
vn 0.000000 0.000000 -1.000000
vn 0.000000 0.000000 -1.000000
vn 0.000000 0.000000 -1.000000
vn 0.000000 0.000000 -1.000000
vn 0.000000 0.000000 -1.000000
vn 0.000000 0.000000 -1.000000
vn 0.000000 -0.000000 -1.000000
vn 0.000000 0.000000 -1.000000
vn 0.000000 0.000000 -1.000000
vn 0.000000 0.000000 -1.000000
vn 0.000000 -0.000000 -1.000000
vn 0.000000 -0.000000 -1.000000
vn -0.000000 0.000000 -1.000000
vn 0.000000 0.000000 -1.000000
vn 0.000000 0.000000 -1.000000
vn 0.000000 0.000000 -1.000000
vn 0.000000 -0.000000 -1.000000
vn 0.000000 0.000000 -1.000000
vn 0.000000 0.000000 -1.000000
vn 0.000000 -0.000000 1.000000
vn 0.000000 0.000000 1.000000
vn 0.000000 0.000000 1.000000
vn 0.000000 0.000000 1.000000
vn 0.000000 0.000000 1.000000
vn 0.000000 0.000000 1.000000
vn 0.000000 0.000000 1.000000
vn 0.000000 0.000000 1.000000
vn 0.000000 0.000000 1.000000
vn 0.000000 0.000000 1.000000
vn -0.000000 0.000000 1.000000
vn 0.000000 0.000000 1.000000
vn 0.000000 0.000000 1.000000
vn 0.000000 0.000000 1.000000
vn 0.000000 0.000000 1.000000
vn 0.000000 0.000000 1.000000
vn 0.000000 0.000000 1.000000
vn 0.000000 0.000000 1.000000
vn 0.000000 0.000000 1.000000
vn 0.000000 0.000000 1.000000
vn 0.000000 0.000000 1.000000
vn 0.000000 0.000000 1.000000
vn -0.364506 0.931201 0.000000
vn -0.364506 0.931201 0.000000
vn 0.934099 0.357014 0.000000
vn 0.934099 0.357014 -0.000000
vn -0.372456 0.928050 0.000000
vn -0.372456 0.928050 0.000000
vn 0.924220 0.381861 0.000000
vn 0.924220 0.381861 -0.000000
vn 0.399836 -0.916587 0.000000
vn 0.399836 -0.916587 0.000000
vn 0.926536 0.376205 0.000000
vn 0.926536 0.376205 -0.000000
vn -0.279388 0.960178 0.000000
vn -0.279388 0.960178 0.000000
vn 0.971728 0.236104 0.000000
vn 0.971728 0.236104 -0.000000
vn -0.293246 0.956037 0.000000
vn -0.293246 0.956037 0.000000
vn 0.911540 0.411212 0.000000
vn 0.911540 0.411212 -0.000000
vn 0.225675 -0.974203 0.000000
vn 0.225675 -0.974203 0.000000
vn 0.966484 0.256729 0.000000
vn 0.966484 0.256729 -0.000000
vn -0.218974 0.975731 0.000000
vn -0.218974 0.975731 0.000000
vn 0.973846 0.227210 0.000000
vn 0.973846 0.227210 -0.000000
vn 0.233251 -0.972416 0.000000
vn 0.233251 -0.972416 0.000000
vn 0.975098 0.221773 0.000000
vn 0.975098 0.221773 -0.000000
vn 0.243716 -0.969847 0.000000
vn 0.243716 -0.969847 0.000000
vn -0.916964 -0.398969 0.000000
vn -0.916964 -0.398969 0.000000
vn 0.002376 -0.999997 0.000000
vn 0.002376 -0.999997 0.000000
vn 0.936199 0.351469 0.000000
vn 0.936199 0.351469 -0.000000
vn 0.386460 -0.922306 0.000000
vn 0.386460 -0.922306 0.000000
vn -0.930583 -0.366081 0.000000
vn -0.930583 -0.366081 0.000000
vn 0.319411 -0.947616 0.000000
vn 0.319411 -0.947616 0.000000
vn -0.933287 -0.359131 0.000000
vn -0.933287 -0.359131 0.000000
usemtl assumed_base
f 24//1 1//1 2//1
f 24//2 2//2 3//2
f 24//3 3//3 4//3
f 4//4 5//4 6//4
f 24//5 4//5 6//5
f 24//6 6//6 7//6
f 24//7 7//7 8//7
f 24//8 8//8 9//8
f 24//9 9//9 10//9
f 10//10 11//10 12//10
f 13//11 14//11 15//11
f 13//12 15//12 16//12
f 12//13 13//13 16//13
f 16//14 17//14 18//14
f 12//15 16//15 18//15
f 12//16 18//16 19//16
f 10//17 12//17 19//17
f 10//18 19//18 20//18
f 24//19 10//19 20//19
f 20//20 21//20 22//20
f 20//21 22//21 23//21
f 20//22 23//22 24//22
usemtl assumed_roof
f 48//23 26//23 25//23
f 48//24 27//24 26//24
f 48//25 28//25 27//25
f 28//26 30//26 29//26
f 48//27 30//27 28//27
f 48//28 31//28 30//28
f 48//29 32//29 31//29
f 48//30 33//30 32//30
f 48//31 34//31 33//31
f 34//32 36//32 35//32
f 37//33 39//33 38//33
f 37//34 40//34 39//34
f 36//35 40//35 37//35
f 40//36 42//36 41//36
f 36//37 42//37 40//37
f 36//38 43//38 42//38
f 34//39 43//39 36//39
f 34//40 44//40 43//40
f 48//41 44//41 34//41
f 44//42 46//42 45//42
f 44//43 47//43 46//43
f 44//44 48//44 47//44
usemtl assumed_wall
f 1//45 26//45 2//45
f 1//46 25//46 26//46
f 2//47 27//47 3//47
f 2//48 26//48 27//48
f 3//49 28//49 4//49
f 3//50 27//50 28//50
f 4//51 29//51 5//51
f 4//52 28//52 29//52
f 5//53 30//53 6//53
f 5//54 29//54 30//54
f 6//55 31//55 7//55
f 6//56 30//56 31//56
f 7//57 32//57 8//57
f 7//58 31//58 32//58
f 8//59 33//59 9//59
f 8//60 32//60 33//60
f 9//61 34//61 10//61
f 9//62 33//62 34//62
f 10//63 35//63 11//63
f 10//64 34//64 35//64
f 11//65 36//65 12//65
f 11//66 35//66 36//66
f 12//67 37//67 13//67
f 12//68 36//68 37//68
f 13//69 38//69 14//69
f 13//70 37//70 38//70
f 14//71 39//71 15//71
f 14//72 38//72 39//72
f 15//73 40//73 16//73
f 15//74 39//74 40//74
f 16//75 41//75 17//75
f 16//76 40//76 41//76
f 17//77 42//77 18//77
f 17//78 41//78 42//78
f 18//79 43//79 19//79
f 18//80 42//80 43//80
f 19//81 44//81 20//81
f 19//82 43//82 44//82
f 20//83 45//83 21//83
f 20//84 44//84 45//84
f 21//85 46//85 22//85
f 21//86 45//86 46//86
f 22//87 47//87 23//87
f 22//88 46//88 47//88
f 23//89 48//89 24//89
f 23//90 47//90 48//90
f 24//91 25//91 1//91
f 24//92 48//92 25//92
