# construction_4672_assumed_A_Casa
# source A_Casa
# h_campo 0.000000
# modeled_height 6.000000
# height_kind assumed
# local_origin_world_x 172001.034850
# local_origin_world_y 402500.144600
mtllib construction_artifacts.mtl

o construction_4672_assumed_A_Casa
v -18.555500 9.520000 0.000000
v -13.455500 9.770000 0.000000
v -13.442500 7.311000 0.000000
v 7.973500 7.446000 0.000000
v 7.849500 12.562000 0.000000
v 18.555500 12.952000 0.000000
v 17.562500 -12.952000 0.000000
v 11.631500 -12.841000 0.000000
v 12.274500 1.749000 0.000000
v 9.687500 2.059000 0.000000
v 9.695500 0.429000 0.000000
v -18.453500 0.512000 0.000000
v -18.555500 9.520000 6.000000
v -13.455500 9.770000 6.000000
v -13.442500 7.311000 6.000000
v 7.973500 7.446000 6.000000
v 7.849500 12.562000 6.000000
v 18.555500 12.952000 6.000000
v 17.562500 -12.952000 6.000000
v 11.631500 -12.841000 6.000000
v 12.274500 1.749000 6.000000
v 9.687500 2.059000 6.000000
v 9.695500 0.429000 6.000000
v -18.453500 0.512000 6.000000
vn 0.000000 0.000000 -1.000000
vn 0.000000 0.000000 -1.000000
vn 0.000000 0.000000 -1.000000
vn 0.000000 0.000000 -1.000000
vn 0.000000 0.000000 -1.000000
vn 0.000000 0.000000 -1.000000
vn 0.000000 0.000000 -1.000000
vn 0.000000 0.000000 -1.000000
vn 0.000000 0.000000 -1.000000
vn 0.000000 -0.000000 -1.000000
vn 0.000000 -0.000000 1.000000
vn 0.000000 0.000000 1.000000
vn 0.000000 0.000000 1.000000
vn 0.000000 -0.000000 1.000000
vn 0.000000 0.000000 1.000000
vn 0.000000 0.000000 1.000000
vn -0.000000 0.000000 1.000000
vn 0.000000 0.000000 1.000000
vn 0.000000 0.000000 1.000000
vn 0.000000 0.000000 1.000000
vn -0.048961 0.998801 0.000000
vn -0.048961 0.998801 0.000000
vn 0.999986 0.005287 0.000000
vn 0.999986 0.005287 -0.000000
vn -0.006304 0.999980 0.000000
vn -0.006304 0.999980 0.000000
vn -0.999706 -0.024231 0.000000
vn -0.999706 -0.024231 0.000000
vn -0.036404 0.999337 0.000000
vn -0.036404 0.999337 0.000000
vn 0.999266 -0.038306 0.000000
vn 0.999266 -0.038306 0.000000
vn -0.018712 -0.999825 0.000000
vn -0.018712 -0.999825 0.000000
vn -0.999030 0.044029 0.000000
vn -0.999030 0.044029 0.000000
vn -0.118979 -0.992897 0.000000
vn -0.118979 -0.992897 0.000000
vn 0.999988 0.004908 0.000000
vn 0.999988 0.004908 -0.000000
vn -0.002949 -0.999996 0.000000
vn -0.002949 -0.999996 0.000000
vn -0.999936 -0.011323 0.000000
vn -0.999936 -0.011323 0.000000
usemtl assumed_base
f 12//1 1//1 2//1
f 12//2 2//2 3//2
f 12//3 3//3 4//3
f 4//4 5//4 6//4
f 6//5 7//5 8//5
f 6//6 8//6 9//6
f 4//7 6//7 9//7
f 4//8 9//8 10//8
f 12//9 4//9 10//9
f 10//10 11//10 12//10
usemtl assumed_roof
f 24//11 14//11 13//11
f 24//12 15//12 14//12
f 24//13 16//13 15//13
f 16//14 18//14 17//14
f 18//15 20//15 19//15
f 18//16 21//16 20//16
f 16//17 21//17 18//17
f 16//18 22//18 21//18
f 24//19 22//19 16//19
f 22//20 24//20 23//20
usemtl assumed_wall
f 1//21 14//21 2//21
f 1//22 13//22 14//22
f 2//23 15//23 3//23
f 2//24 14//24 15//24
f 3//25 16//25 4//25
f 3//26 15//26 16//26
f 4//27 17//27 5//27
f 4//28 16//28 17//28
f 5//29 18//29 6//29
f 5//30 17//30 18//30
f 6//31 19//31 7//31
f 6//32 18//32 19//32
f 7//33 20//33 8//33
f 7//34 19//34 20//34
f 8//35 21//35 9//35
f 8//36 20//36 21//36
f 9//37 22//37 10//37
f 9//38 21//38 22//38
f 10//39 23//39 11//39
f 10//40 22//40 23//40
f 11//41 24//41 12//41
f 11//42 23//42 24//42
f 12//43 13//43 1//43
f 12//44 24//44 13//44
