# construction_1854_assumed_A_Casa
# source A_Casa
# h_campo 0.000000
# modeled_height 6.000000
# height_kind assumed
# local_origin_world_x 172001.034850
# local_origin_world_y 402500.144600
mtllib construction_artifacts.mtl

o construction_1854_assumed_A_Casa
v -5.132500 -9.234500 0.000000
v -1.122500 -1.631500 0.000000
v -3.924500 -0.212500 0.000000
v -1.138500 6.602500 0.000000
v 1.026500 5.838500 0.000000
v 2.248500 10.952500 0.000000
v 5.132500 10.772500 0.000000
v 3.765500 -3.423500 0.000000
v 2.449500 -3.124500 0.000000
v -0.901500 -10.952500 0.000000
v -5.132500 -9.234500 6.000000
v -1.122500 -1.631500 6.000000
v -3.924500 -0.212500 6.000000
v -1.138500 6.602500 6.000000
v 1.026500 5.838500 6.000000
v 2.248500 10.952500 6.000000
v 5.132500 10.772500 6.000000
v 3.765500 -3.423500 6.000000
v 2.449500 -3.124500 6.000000
v -0.901500 -10.952500 6.000000
vn 0.000000 0.000000 -1.000000
vn 0.000000 0.000000 -1.000000
vn 0.000000 0.000000 -1.000000
vn 0.000000 0.000000 -1.000000
vn 0.000000 0.000000 -1.000000
vn 0.000000 0.000000 -1.000000
vn 0.000000 0.000000 -1.000000
vn 0.000000 0.000000 -1.000000
vn 0.000000 0.000000 1.000000
vn 0.000000 0.000000 1.000000
vn 0.000000 0.000000 1.000000
vn 0.000000 -0.000000 1.000000
vn 0.000000 0.000000 1.000000
vn 0.000000 0.000000 1.000000
vn 0.000000 0.000000 1.000000
vn 0.000000 0.000000 1.000000
vn -0.884514 0.466513 0.000000
vn -0.884514 0.466513 0.000000
vn -0.451793 -0.892123 0.000000
vn -0.451793 -0.892123 0.000000
vn -0.925640 0.378405 0.000000
vn -0.925640 0.378405 0.000000
vn 0.332775 0.943006 0.000000
vn 0.332775 0.943006 -0.000000
vn -0.972618 0.232409 0.000000
vn -0.972618 0.232409 0.000000
vn 0.062292 0.998058 0.000000
vn 0.062292 0.998058 -0.000000
vn 0.995396 -0.095851 0.000000
vn 0.995396 -0.095851 0.000000
vn -0.221557 -0.975147 0.000000
vn -0.221557 -0.975147 0.000000
vn 0.919309 -0.393537 0.000000
vn 0.919309 -0.393537 0.000000
vn -0.376218 -0.926531 0.000000
vn -0.376218 -0.926531 0.000000
usemtl assumed_base
f 10//1 1//1 2//1
f 2//2 3//2 4//2
f 10//3 2//3 4//3
f 10//4 4//4 5//4
f 10//5 5//5 6//5
f 10//6 6//6 7//6
f 7//7 8//7 9//7
f 7//8 9//8 10//8
usemtl assumed_roof
f 20//9 12//9 11//9
f 12//10 14//10 13//10
f 20//11 14//11 12//11
f 20//12 15//12 14//12
f 20//13 16//13 15//13
f 20//14 17//14 16//14
f 17//15 19//15 18//15
f 17//16 20//16 19//16
usemtl assumed_wall
f 1//17 12//17 2//17
f 1//18 11//18 12//18
f 2//19 13//19 3//19
f 2//20 12//20 13//20
f 3//21 14//21 4//21
f 3//22 13//22 14//22
f 4//23 15//23 5//23
f 4//24 14//24 15//24
f 5//25 16//25 6//25
f 5//26 15//26 16//26
f 6//27 17//27 7//27
f 6//28 16//28 17//28
f 7//29 18//29 8//29
f 7//30 17//30 18//30
f 8//31 19//31 9//31
f 8//32 18//32 19//32
f 9//33 20//33 10//33
f 9//34 19//34 20//34
f 10//35 11//35 1//35
f 10//36 20//36 11//36
