# construction_7080_assumed_A_Casa
# source A_Casa
# h_campo 0.000000
# modeled_height 6.000000
# height_kind assumed
# local_origin_world_x 172001.034850
# local_origin_world_y 402500.144600
mtllib construction_artifacts.mtl

o construction_7080_assumed_A_Casa
v -34.105000 22.098500 0.000000
v -24.119000 23.590500 0.000000
v -19.988000 23.611500 0.000000
v -19.751000 14.421500 0.000000
v -19.204000 10.292500 0.000000
v -22.722000 9.874500 0.000000
v -21.536000 8.742500 0.000000
v -18.755000 9.220500 0.000000
v -18.562000 8.525500 0.000000
v -6.769000 10.693500 0.000000
v -7.304000 12.250500 0.000000
v -15.581000 10.943500 0.000000
v -15.755000 20.365500 0.000000
v -12.868000 20.379500 0.000000
v 5.435000 23.465500 0.000000
v 7.582000 15.571500 0.000000
v 4.549000 15.155500 0.000000
v 5.650000 10.081500 0.000000
v 3.733000 9.882500 0.000000
v 7.190000 -2.643500 0.000000
v 18.742000 1.419500 0.000000
v 14.922000 10.843500 0.000000
v 26.960000 14.488500 0.000000
v 27.411000 12.888500 0.000000
v 34.399000 14.968500 0.000000
v 37.875000 2.844500 0.000000
v 38.266000 0.569500 0.000000
v 40.413000 -7.240500 0.000000
v 35.352000 -8.490500 0.000000
v 36.032000 -10.542500 0.000000
v 26.349000 -13.877500 0.000000
v 25.840000 -12.355500 0.000000
v 22.885000 -13.589500 0.000000
v 20.756000 -4.903500 0.000000
v 29.996000 -1.709500 0.000000
v 29.013000 0.243500 0.000000
v 27.020000 -0.612500 0.000000
v 26.676000 1.244500 0.000000
v 20.892000 -0.682500 0.000000
v 20.763000 -2.424500 0.000000
v 10.172000 -5.242500 0.000000
v 14.528000 -20.370500 0.000000
v 12.674000 -21.422500 0.000000
v 8.293000 -22.772500 0.000000
v 3.898000 -7.497500 0.000000
v -10.201000 -10.991500 0.000000
v -8.492000 -16.167500 0.000000
v -10.350000 -16.579500 0.000000
v -9.918000 -18.318500 0.000000
v -27.461000 -23.611500 0.000000
v -33.511000 -2.019500 0.000000
v -38.234000 11.846500 0.000000
v -40.413000 18.683500 0.000000
v -33.742000 20.172500 0.000000
v -34.105000 22.098500 6.000000
v -24.119000 23.590500 6.000000
v -19.988000 23.611500 6.000000
v -19.751000 14.421500 6.000000
v -19.204000 10.292500 6.000000
v -22.722000 9.874500 6.000000
v -21.536000 8.742500 6.000000
v -18.755000 9.220500 6.000000
v -18.562000 8.525500 6.000000
v -6.769000 10.693500 6.000000
v -7.304000 12.250500 6.000000
v -15.581000 10.943500 6.000000
v -15.755000 20.365500 6.000000
v -12.868000 20.379500 6.000000
v 5.435000 23.465500 6.000000
v 7.582000 15.571500 6.000000
v 4.549000 15.155500 6.000000
v 5.650000 10.081500 6.000000
v 3.733000 9.882500 6.000000
v 7.190000 -2.643500 6.000000
v 18.742000 1.419500 6.000000
v 14.922000 10.843500 6.000000
v 26.960000 14.488500 6.000000
v 27.411000 12.888500 6.000000
v 34.399000 14.968500 6.000000
v 37.875000 2.844500 6.000000
v 38.266000 0.569500 6.000000
v 40.413000 -7.240500 6.000000
v 35.352000 -8.490500 6.000000
v 36.032000 -10.542500 6.000000
v 26.349000 -13.877500 6.000000
v 25.840000 -12.355500 6.000000
v 22.885000 -13.589500 6.000000
v 20.756000 -4.903500 6.000000
v 29.996000 -1.709500 6.000000
v 29.013000 0.243500 6.000000
v 27.020000 -0.612500 6.000000
v 26.676000 1.244500 6.000000
v 20.892000 -0.682500 6.000000
v 20.763000 -2.424500 6.000000
v 10.172000 -5.242500 6.000000
v 14.528000 -20.370500 6.000000
v 12.674000 -21.422500 6.000000
v 8.293000 -22.772500 6.000000
v 3.898000 -7.497500 6.000000
v -10.201000 -10.991500 6.000000
v -8.492000 -16.167500 6.000000
v -10.350000 -16.579500 6.000000
v -9.918000 -18.318500 6.000000
v -27.461000 -23.611500 6.000000
v -33.511000 -2.019500 6.000000
v -38.234000 11.846500 6.000000
v -40.413000 18.683500 6.000000
v -33.742000 20.172500 6.000000
v -23.498000 1.314500 0.000000
v -22.874000 -0.779500 0.000000
v -20.448000 -0.306500 0.000000
v -20.176000 -0.793500 0.000000
v -14.146000 0.664500 0.000000
v -12.455000 -7.085500 0.000000
v -5.762000 -5.511500 0.000000
v -7.644000 1.899500 0.000000
v -4.836000 2.402500 0.000000
v -5.603000 5.159500 0.000000
v -8.219000 4.466500 0.000000
v -8.754000 6.981500 0.000000
v -17.406000 4.914500 0.000000
v -16.933000 2.516500 0.000000
v -23.498000 1.314500 6.000000
v -22.874000 -0.779500 6.000000
v -20.448000 -0.306500 6.000000
v -20.176000 -0.793500 6.000000
v -14.146000 0.664500 6.000000
v -12.455000 -7.085500 6.000000
v -5.762000 -5.511500 6.000000
v -7.644000 1.899500 6.000000
v -4.836000 2.402500 6.000000
v -5.603000 5.159500 6.000000
v -8.219000 4.466500 6.000000
v -8.754000 6.981500 6.000000
v -17.406000 4.914500 6.000000
v -16.933000 2.516500 6.000000
vn 0.000000 0.000000 -1.000000
vn 0.000000 0.000000 -1.000000
vn 0.000000 0.000000 -1.000000
vn 0.000000 0.000000 -1.000000
vn 0.000000 0.000000 -1.000000
vn 0.000000 0.000000 -1.000000
vn 0.000000 0.000000 -1.000000
vn -0.000000 0.000000 -1.000000
vn 0.000000 0.000000 -1.000000
vn 0.000000 0.000000 -1.000000
vn 0.000000 0.000000 -1.000000
vn 0.000000 -0.000000 -1.000000
vn 0.000000 0.000000 -1.000000
vn 0.000000 0.000000 -1.000000
vn 0.000000 0.000000 -1.000000
vn 0.000000 0.000000 -1.000000
vn 0.000000 0.000000 -1.000000
vn 0.000000 0.000000 -1.000000
vn 0.000000 0.000000 -1.000000
vn 0.000000 0.000000 -1.000000
vn 0.000000 0.000000 -1.000000
vn 0.000000 0.000000 -1.000000
vn 0.000000 -0.000000 -1.000000
vn 0.000000 -0.000000 -1.000000
vn 0.000000 -0.000000 -1.000000
vn 0.000000 0.000000 -1.000000
vn 0.000000 0.000000 -1.000000
vn 0.000000 0.000000 -1.000000
vn 0.000000 0.000000 -1.000000
vn 0.000000 0.000000 -1.000000
vn 0.000000 0.000000 -1.000000
vn -0.000000 0.000000 -1.000000
vn 0.000000 0.000000 -1.000000
vn 0.000000 0.000000 -1.000000
vn 0.000000 0.000000 -1.000000
vn 0.000000 0.000000 -1.000000
vn 0.000000 0.000000 -1.000000
vn 0.000000 0.000000 -1.000000
vn 0.000000 0.000000 -1.000000
vn 0.000000 0.000000 -1.000000
vn 0.000000 -0.000000 -1.000000
vn 0.000000 0.000000 -1.000000
vn 0.000000 0.000000 -1.000000
vn 0.000000 0.000000 -1.000000
vn 0.000000 0.000000 -1.000000
vn 0.000000 0.000000 -1.000000
vn 0.000000 0.000000 -1.000000
vn 0.000000 0.000000 -1.000000
vn 0.000000 0.000000 -1.000000
vn 0.000000 0.000000 -1.000000
vn 0.000000 -0.000000 -1.000000
vn 0.000000 0.000000 -1.000000
vn 0.000000 0.000000 -1.000000
vn 0.000000 0.000000 -1.000000
vn 0.000000 0.000000 -1.000000
vn 0.000000 -0.000000 -1.000000
vn 0.000000 0.000000 -1.000000
vn 0.000000 0.000000 -1.000000
vn 0.000000 0.000000 -1.000000
vn 0.000000 0.000000 -1.000000
vn 0.000000 0.000000 -1.000000
vn 0.000000 0.000000 -1.000000
vn 0.000000 0.000000 -1.000000
vn 0.000000 0.000000 -1.000000
vn 0.000000 -0.000000 1.000000
vn 0.000000 0.000000 1.000000
vn -0.000000 0.000000 1.000000
vn 0.000000 0.000000 1.000000
vn 0.000000 0.000000 1.000000
vn 0.000000 0.000000 1.000000
vn -0.000000 0.000000 1.000000
vn 0.000000 0.000000 1.000000
vn 0.000000 0.000000 1.000000
vn 0.000000 -0.000000 1.000000
vn 0.000000 -0.000000 1.000000
vn 0.000000 0.000000 1.000000
vn 0.000000 0.000000 1.000000
vn -0.000000 0.000000 1.000000
vn 0.000000 0.000000 1.000000
vn 0.000000 0.000000 1.000000
vn -0.000000 0.000000 1.000000
vn 0.000000 0.000000 1.000000
vn 0.000000 -0.000000 1.000000
vn 0.000000 0.000000 1.000000
vn 0.000000 0.000000 1.000000
vn 0.000000 0.000000 1.000000
vn 0.000000 0.000000 1.000000
vn 0.000000 0.000000 1.000000
vn 0.000000 0.000000 1.000000
vn 0.000000 0.000000 1.000000
vn 0.000000 0.000000 1.000000
vn 0.000000 0.000000 1.000000
vn 0.000000 -0.000000 1.000000
vn 0.000000 0.000000 1.000000
vn 0.000000 0.000000 1.000000
vn 0.000000 0.000000 1.000000
vn 0.000000 0.000000 1.000000
vn -0.000000 0.000000 1.000000
vn 0.000000 0.000000 1.000000
vn 0.000000 0.000000 1.000000
vn 0.000000 0.000000 1.000000
vn -0.000000 0.000000 1.000000
vn 0.000000 0.000000 1.000000
vn 0.000000 0.000000 1.000000
vn 0.000000 0.000000 1.000000
vn 0.000000 0.000000 1.000000
vn 0.000000 0.000000 1.000000
vn 0.000000 0.000000 1.000000
vn 0.000000 0.000000 1.000000
vn 0.000000 0.000000 1.000000
vn 0.000000 0.000000 1.000000
vn 0.000000 0.000000 1.000000
vn 0.000000 0.000000 1.000000
vn 0.000000 0.000000 1.000000
vn 0.000000 0.000000 1.000000
vn 0.000000 -0.000000 1.000000
vn 0.000000 0.000000 1.000000
vn 0.000000 0.000000 1.000000
vn 0.000000 0.000000 1.000000
vn 0.000000 0.000000 1.000000
vn 0.000000 0.000000 1.000000
vn -0.000000 0.000000 1.000000
vn 0.000000 0.000000 1.000000
vn 0.000000 0.000000 1.000000
vn 0.000000 0.000000 1.000000
vn -0.000000 0.000000 1.000000
vn 0.000000 0.000000 1.000000
vn 0.000000 0.000000 1.000000
vn -0.147769 0.989022 0.000000
vn -0.147769 0.989022 0.000000
vn -0.005083 0.999987 0.000000
vn -0.005083 0.999987 0.000000
vn 0.999668 0.025780 0.000000
vn 0.999668 0.025780 -0.000000
vn 0.991339 0.131330 0.000000
vn 0.991339 0.131330 -0.000000
vn 0.117988 -0.993015 0.000000
vn 0.117988 -0.993015 0.000000
vn 0.690447 0.723383 0.000000
vn 0.690447 0.723383 -0.000000
vn -0.169397 0.985548 0.000000
vn -0.169397 0.985548 0.000000
vn 0.963538 0.267572 0.000000
vn 0.963538 0.267572 -0.000000
vn -0.180808 0.983518 0.000000
vn -0.180808 0.983518 0.000000
vn -0.945727 -0.324961 0.000000
vn -0.945727 -0.324961 0.000000
vn 0.155975 -0.987761 0.000000
vn 0.155975 -0.987761 0.000000
vn -0.999830 -0.018464 0.000000
vn -0.999830 -0.018464 0.000000
vn -0.004849 0.999988 0.000000
vn -0.004849 0.999988 0.000000
vn -0.166260 0.986082 0.000000
vn -0.166260 0.986082 0.000000
vn 0.964947 0.262445 0.000000
vn 0.964947 0.262445 -0.000000
vn 0.135886 -0.990725 0.000000
vn 0.135886 -0.990725 0.000000
vn 0.977258 0.212054 0.000000
vn 0.977258 0.212054 -0.000000
vn 0.103253 -0.994655 0.000000
vn 0.103253 -0.994655 0.000000
vn 0.963962 0.266040 0.000000
vn 0.963962 0.266040 -0.000000
vn -0.331790 0.943353 0.000000
vn -0.331790 0.943353 0.000000
vn -0.926758 -0.375659 0.000000
vn -0.926758 -0.375659 0.000000
vn -0.289798 0.957088 0.000000
vn -0.289798 0.957088 0.000000
vn 0.962494 0.271303 0.000000
vn 0.962494 0.271303 -0.000000
vn -0.285284 0.958443 0.000000
vn -0.285284 0.958443 0.000000
vn 0.961272 0.275601 0.000000
vn 0.961272 0.275601 -0.000000
vn 0.985550 0.169385 0.000000
vn 0.985550 0.169385 -0.000000
vn 0.964229 0.265070 0.000000
vn 0.964229 0.265070 -0.000000
vn 0.239781 -0.970827 0.000000
vn 0.239781 -0.970827 0.000000
vn 0.949237 0.314562 0.000000
vn 0.949237 0.314562 -0.000000
vn 0.325645 -0.945492 0.000000
vn 0.325645 -0.945492 0.000000
vn -0.948371 -0.317162 0.000000
vn -0.948371 -0.317162 0.000000
vn 0.385347 -0.922772 0.000000
vn 0.385347 -0.922772 0.000000
vn -0.971250 -0.238060 0.000000
vn -0.971250 -0.238060 0.000000
vn -0.326703 0.945127 0.000000
vn -0.326703 0.945127 0.000000
vn -0.893235 -0.449590 0.000000
vn -0.893235 -0.449590 0.000000
vn 0.394643 -0.918835 0.000000
vn 0.394643 -0.918835 0.000000
vn -0.983271 -0.182146 0.000000
vn -0.983271 -0.182146 0.000000
vn 0.316080 -0.948732 0.000000
vn 0.316080 -0.948732 0.000000
vn 0.997269 -0.073851 0.000000
vn 0.997269 -0.073851 0.000000
vn 0.257129 -0.966377 0.000000
vn 0.257129 -0.966377 0.000000
vn 0.960956 0.276701 0.000000
vn 0.960956 0.276701 -0.000000
vn 0.493510 -0.869740 0.000000
vn 0.493510 -0.869740 0.000000
vn 0.294484 -0.955656 0.000000
vn 0.294484 -0.955656 0.000000
vn -0.961012 -0.276507 0.000000
vn -0.961012 -0.276507 0.000000
vn 0.240543 -0.970639 0.000000
vn 0.240543 -0.970639 0.000000
vn 0.949578 0.313530 0.000000
vn 0.949578 0.313530 -0.000000
vn 0.216485 -0.976286 0.000000
vn 0.216485 -0.976286 0.000000
vn 0.970503 0.241091 0.000000
vn 0.970503 0.241091 -0.000000
vn 0.288855 -0.957373 0.000000
vn 0.288855 -0.957373 0.000000
vn -0.962915 -0.269805 0.000000
vn -0.962915 -0.269805 0.000000
vn -0.946595 -0.322426 0.000000
vn -0.946595 -0.322426 0.000000
vn -0.952781 -0.303658 0.000000
vn -0.952781 -0.303658 0.000000
vn -0.217844 0.975984 0.000000
vn -0.217844 0.975984 0.000000
vn -0.982698 -0.185213 0.000000
vn -0.982698 -0.185213 0.000000
vn -0.958354 -0.285584 0.000000
vn -0.958354 -0.285584 0.000000
vn 0.191368 -0.981518 0.000000
vn 0.191368 -0.981518 0.000000
vn -0.873056 -0.487620 0.000000
vn -0.873056 -0.487620 0.000000
vn 0.235019 -0.971991 0.000000
vn 0.235019 -0.971991 0.000000
vn -0.977013 -0.213178 0.000000
vn -0.977013 -0.213178 0.000000
vn 0.228926 -0.973444 0.000000
vn 0.228926 -0.973444 0.000000
vn 0.969236 0.246134 0.000000
vn 0.969236 0.246134 -0.000000
vn 0.176324 -0.984332 0.000000
vn 0.176324 -0.984332 0.000000
vn 0.963413 0.268022 0.000000
vn 0.963413 0.268022 -0.000000
vn -0.256075 0.966657 0.000000
vn -0.256075 0.966657 0.000000
vn 0.978114 0.208068 0.000000
vn 0.978114 0.208068 -0.000000
vn -0.232365 0.972629 0.000000
vn -0.232365 0.972629 0.000000
vn -0.981097 -0.193519 0.000000
vn -0.981097 -0.193519 0.000000
vn -0.180098 0.983649 0.000000
vn -0.180098 0.983649 0.000000
usemtl assumed_base
f 54//1 1//1 2//1
f 54//2 2//2 3//2
f 54//3 3//3 4//3
f 54//4 4//4 5//4
f 54//5 5//5 6//5
f 54//6 6//6 7//6
f 7//7 8//7 9//7
f 11//8 12//8 13//8
f 11//9 13//9 14//9
f 11//10 14//10 15//10
f 10//11 11//11 15//11
f 15//12 16//12 17//12
f 10//13 15//13 17//13
f 10//14 17//14 18//14
f 9//15 10//15 18//15
f 9//16 18//16 19//16
f 9//17 19//17 20//17
f 7//18 9//18 20//18
f 21//19 22//19 23//19
f 21//20 23//20 24//20
f 21//21 24//21 25//21
f 21//22 25//22 26//22
f 27//23 28//23 29//23
f 26//24 27//24 29//24
f 29//25 30//25 31//25
f 26//26 29//26 31//26
f 26//27 31//27 32//27
f 26//28 32//28 33//28
f 33//29 34//29 35//29
f 26//30 33//30 35//30
f 26//31 35//31 36//31
f 36//32 37//32 38//32
f 26//33 36//33 38//33
f 21//34 26//34 38//34
f 20//35 21//35 38//35
f 20//36 38//36 39//36
f 20//37 39//37 40//37
f 20//38 40//38 41//38
f 7//39 20//39 41//39
f 41//40 42//40 43//40
f 41//41 43//41 44//41
f 41//42 44//42 45//42
f 7//43 41//43 45//43
f 7//44 45//44 46//44
f 54//45 7//45 46//45
f 54//46 46//46 47//46
f 54//47 47//47 48//47
f 54//48 48//48 49//48
f 54//49 49//49 50//49
f 54//50 50//50 51//50
f 54//51 51//51 52//51
f 52//52 53//52 54//52
f 122//53 110//53 109//53
f 122//54 111//54 110//54
f 122//55 112//55 111//55
f 122//56 113//56 112//56
f 113//57 115//57 114//57
f 113//58 116//58 115//58
f 122//59 116//59 113//59
f 122//60 117//60 116//60
f 117//61 119//61 118//61
f 122//62 119//62 117//62
f 122//63 120//63 119//63
f 120//64 122//64 121//64
usemtl assumed_roof
f 108//65 56//65 55//65
f 108//66 57//66 56//66
f 108//67 58//67 57//67
f 108//68 59//68 58//68
f 108//69 60//69 59//69
f 108//70 61//70 60//70
f 61//71 63//71 62//71
f 65//72 67//72 66//72
f 65//73 68//73 67//73
f 65//74 69//74 68//74
f 64//75 69//75 65//75
f 69//76 71//76 70//76
f 64//77 71//77 69//77
f 64//78 72//78 71//78
f 63//79 72//79 64//79
f 63//80 73//80 72//80
f 63//81 74//81 73//81
f 61//82 74//82 63//82
f 75//83 77//83 76//83
f 75//84 78//84 77//84
f 75//85 79//85 78//85
f 75//86 80//86 79//86
f 81//87 83//87 82//87
f 80//88 83//88 81//88
f 83//89 85//89 84//89
f 80//90 85//90 83//90
f 80//91 86//91 85//91
f 80//92 87//92 86//92
f 87//93 89//93 88//93
f 80//94 89//94 87//94
f 80//95 90//95 89//95
f 90//96 92//96 91//96
f 80//97 92//97 90//97
f 75//98 92//98 80//98
f 74//99 92//99 75//99
f 74//100 93//100 92//100
f 74//101 94//101 93//101
f 74//102 95//102 94//102
f 61//103 95//103 74//103
f 95//104 97//104 96//104
f 95//105 98//105 97//105
f 95//106 99//106 98//106
f 61//107 99//107 95//107
f 61//108 100//108 99//108
f 108//109 100//109 61//109
f 108//110 101//110 100//110
f 108//111 102//111 101//111
f 108//112 103//112 102//112
f 108//113 104//113 103//113
f 108//114 105//114 104//114
f 108//115 106//115 105//115
f 106//116 108//116 107//116
f 136//117 123//117 124//117
f 136//118 124//118 125//118
f 136//119 125//119 126//119
f 136//120 126//120 127//120
f 127//121 128//121 129//121
f 127//122 129//122 130//122
f 136//123 127//123 130//123
f 136//124 130//124 131//124
f 131//125 132//125 133//125
f 136//126 131//126 133//126
f 136//127 133//127 134//127
f 134//128 135//128 136//128
usemtl assumed_wall
f 1//129 56//129 2//129
f 1//130 55//130 56//130
f 2//131 57//131 3//131
f 2//132 56//132 57//132
f 3//133 58//133 4//133
f 3//134 57//134 58//134
f 4//135 59//135 5//135
f 4//136 58//136 59//136
f 5//137 60//137 6//137
f 5//138 59//138 60//138
f 6//139 61//139 7//139
f 6//140 60//140 61//140
f 7//141 62//141 8//141
f 7//142 61//142 62//142
f 8//143 63//143 9//143
f 8//144 62//144 63//144
f 9//145 64//145 10//145
f 9//146 63//146 64//146
f 10//147 65//147 11//147
f 10//148 64//148 65//148
f 11//149 66//149 12//149
f 11//150 65//150 66//150
f 12//151 67//151 13//151
f 12//152 66//152 67//152
f 13//153 68//153 14//153
f 13//154 67//154 68//154
f 14//155 69//155 15//155
f 14//156 68//156 69//156
f 15//157 70//157 16//157
f 15//158 69//158 70//158
f 16//159 71//159 17//159
f 16//160 70//160 71//160
f 17//161 72//161 18//161
f 17//162 71//162 72//162
f 18//163 73//163 19//163
f 18//164 72//164 73//164
f 19//165 74//165 20//165
f 19//166 73//166 74//166
f 20//167 75//167 21//167
f 20//168 74//168 75//168
f 21//169 76//169 22//169
f 21//170 75//170 76//170
f 22//171 77//171 23//171
f 22//172 76//172 77//172
f 23//173 78//173 24//173
f 23//174 77//174 78//174
f 24//175 79//175 25//175
f 24//176 78//176 79//176
f 25//177 80//177 26//177
f 25//178 79//178 80//178
f 26//179 81//179 27//179
f 26//180 80//180 81//180
f 27//181 82//181 28//181
f 27//182 81//182 82//182
f 28//183 83//183 29//183
f 28//184 82//184 83//184
f 29//185 84//185 30//185
f 29//186 83//186 84//186
f 30//187 85//187 31//187
f 30//188 84//188 85//188
f 31//189 86//189 32//189
f 31//190 85//190 86//190
f 32//191 87//191 33//191
f 32//192 86//192 87//192
f 33//193 88//193 34//193
f 33//194 87//194 88//194
f 34//195 89//195 35//195
f 34//196 88//196 89//196
f 35//197 90//197 36//197
f 35//198 89//198 90//198
f 36//199 91//199 37//199
f 36//200 90//200 91//200
f 37//201 92//201 38//201
f 37//202 91//202 92//202
f 38//203 93//203 39//203
f 38//204 92//204 93//204
f 39//205 94//205 40//205
f 39//206 93//206 94//206
f 40//207 95//207 41//207
f 40//208 94//208 95//208
f 41//209 96//209 42//209
f 41//210 95//210 96//210
f 42//211 97//211 43//211
f 42//212 96//212 97//212
f 43//213 98//213 44//213
f 43//214 97//214 98//214
f 44//215 99//215 45//215
f 44//216 98//216 99//216
f 45//217 100//217 46//217
f 45//218 99//218 100//218
f 46//219 101//219 47//219
f 46//220 100//220 101//220
f 47//221 102//221 48//221
f 47//222 101//222 102//222
f 48//223 103//223 49//223
f 48//224 102//224 103//224
f 49//225 104//225 50//225
f 49//226 103//226 104//226
f 50//227 105//227 51//227
f 50//228 104//228 105//228
f 51//229 106//229 52//229
f 51//230 105//230 106//230
f 52//231 107//231 53//231
f 52//232 106//232 107//232
f 53//233 108//233 54//233
f 53//234 107//234 108//234
f 54//235 55//235 1//235
f 54//236 108//236 55//236
f 109//237 110//237 124//237
f 109//238 124//238 123//238
f 110//239 111//239 125//239
f 110//240 125//240 124//240
f 111//241 112//241 126//241
f 111//242 126//242 125//242
f 112//243 113//243 127//243
f 112//244 127//244 126//244
f 113//245 114//245 128//245
f 113//246 128//246 127//246
f 114//247 115//247 129//247
f 114//248 129//248 128//248
f 115//249 116//249 130//249
f 115//250 130//250 129//250
f 116//251 117//251 131//251
f 116//252 131//252 130//252
f 117//253 118//253 132//253
f 117//254 132//254 131//254
f 118//255 119//255 133//255
f 118//256 133//256 132//256
f 119//257 120//257 134//257
f 119//258 134//258 133//258
f 120//259 121//259 135//259
f 120//260 135//260 134//260
f 121//261 122//261 136//261
f 121//262 136//262 135//262
f 122//263 109//263 123//263
f 122//264 123//264 136//264
