# construction_3701_assumed_A_Casa
# source A_Casa
# h_campo 0.000000
# modeled_height 6.000000
# height_kind assumed
# local_origin_world_x 172001.034850
# local_origin_world_y 402500.144600
mtllib construction_artifacts.mtl

o construction_3701_assumed_A_Casa
v -8.499500 3.335500 0.000000
v -3.368500 5.413500 0.000000
v -2.440500 2.291500 0.000000
v 6.262500 5.423500 0.000000
v 8.499500 -0.055500 0.000000
v -5.143500 -5.423500 0.000000
v -8.499500 3.335500 6.000000
v -3.368500 5.413500 6.000000
v -2.440500 2.291500 6.000000
v 6.262500 5.423500 6.000000
v 8.499500 -0.055500 6.000000
v -5.143500 -5.423500 6.000000
vn 0.000000 0.000000 -1.000000
vn 0.000000 0.000000 -1.000000
vn 0.000000 0.000000 -1.000000
vn 0.000000 -0.000000 -1.000000
vn 0.000000 -0.000000 1.000000
vn 0.000000 0.000000 1.000000
vn 0.000000 0.000000 1.000000
vn 0.000000 0.000000 1.000000
vn -0.375374 0.926874 0.000000
vn -0.375374 0.926874 0.000000
vn 0.958550 0.284925 0.000000
vn 0.958550 0.284925 -0.000000
vn -0.338616 0.940925 0.000000
vn -0.338616 0.940925 0.000000
vn 0.925808 0.377995 0.000000
vn 0.925808 0.377995 -0.000000
vn 0.366140 -0.930560 0.000000
vn 0.366140 -0.930560 0.000000
vn -0.933804 -0.357786 0.000000
vn -0.933804 -0.357786 0.000000
usemtl assumed_base
f 6//1 1//1 2//1
f 6//2 2//2 3//2
f 6//3 3//3 4//3
f 4//4 5//4 6//4
usemtl assumed_roof
f 12//5 8//5 7//5
f 12//6 9//6 8//6
f 12//7 10//7 9//7
f 10//8 12//8 11//8
usemtl assumed_wall
f 1//9 8//9 2//9
f 1//10 7//10 8//10
f 2//11 9//11 3//11
f 2//12 8//12 9//12
f 3//13 10//13 4//13
f 3//14 9//14 10//14
f 4//15 11//15 5//15
f 4//16 10//16 11//16
f 5//17 12//17 6//17
f 5//18 11//18 12//18
f 6//19 7//19 1//19
f 6//20 12//20 7//20
