# construction_7170_assumed_A_Ruinas
# source A_Ruinas
# h_campo 0.000000
# modeled_height 6.000000
# height_kind assumed
# local_origin_world_x 172001.034850
# local_origin_world_y 402500.144600
mtllib construction_artifacts.mtl

o construction_7170_assumed_A_Ruinas
v -9.433500 0.347000 0.000000
v -7.853500 4.680000 0.000000
v -1.575500 3.544000 0.000000
v 9.433500 1.292000 0.000000
v 6.670500 -4.680000 0.000000
v -4.806500 -3.306000 0.000000
v -3.432500 -0.775000 0.000000
v -9.433500 0.347000 6.000000
v -7.853500 4.680000 6.000000
v -1.575500 3.544000 6.000000
v 9.433500 1.292000 6.000000
v 6.670500 -4.680000 6.000000
v -4.806500 -3.306000 6.000000
v -3.432500 -0.775000 6.000000
vn 0.000000 0.000000 -1.000000
vn 0.000000 0.000000 -1.000000
vn 0.000000 0.000000 -1.000000
vn 0.000000 0.000000 -1.000000
vn 0.000000 0.000000 -1.000000
vn 0.000000 0.000000 1.000000
vn 0.000000 -0.000000 1.000000
vn 0.000000 0.000000 1.000000
vn -0.000000 0.000000 1.000000
vn 0.000000 0.000000 1.000000
vn -0.939489 0.342579 0.000000
vn -0.939489 0.342579 0.000000
vn 0.178058 0.984020 0.000000
vn 0.178058 0.984020 -0.000000
vn 0.200410 0.979712 0.000000
vn 0.200410 0.979712 -0.000000
vn 0.907572 -0.419896 0.000000
vn 0.907572 -0.419896 0.000000
vn -0.118869 -0.992910 0.000000
vn -0.118869 -0.992910 0.000000
vn -0.878849 0.477100 0.000000
vn -0.878849 0.477100 0.000000
vn -0.183784 -0.982967 0.000000
vn -0.183784 -0.982967 0.000000
usemtl assumed_base
f 7//1 1//1 2//1
f 7//2 2//2 3//2
f 7//3 3//3 4//3
f 7//4 4//4 5//4
f 5//5 6//5 7//5
usemtl assumed_roof
f 14//6 9//6 8//6
f 14//7 10//7 9//7
f 14//8 11//8 10//8
f 14//9 12//9 11//9
f 12//10 14//10 13//10
usemtl assumed_wall
f 1//11 9//11 2//11
f 1//12 8//12 9//12
f 2//13 10//13 3//13
f 2//14 9//14 10//14
f 3//15 11//15 4//15
f 3//16 10//16 11//16
f 4//17 12//17 5//17
f 4//18 11//18 12//18
f 5//19 13//19 6//19
f 5//20 12//20 13//20
f 6//21 14//21 7//21
f 6//22 13//22 14//22
f 7//23 8//23 1//23
f 7//24 14//24 8//24
