# construction_1048_assumed_A_Casa
# source A_Casa
# h_campo 0.000000
# modeled_height 6.000000
# height_kind assumed
# local_origin_world_x 172001.034850
# local_origin_world_y 402500.144600
mtllib construction_artifacts.mtl

o construction_1048_assumed_A_Casa
v -4.850000 -13.017000 0.000000
v -5.067000 -1.606000 0.000000
v -10.775000 4.838000 0.000000
v -10.287000 20.136000 0.000000
v -7.484000 20.333000 0.000000
v -2.594000 17.222000 0.000000
v -1.888000 18.001000 0.000000
v 7.800000 7.332000 0.000000
v 6.339000 5.979000 0.000000
v 8.169000 3.211000 0.000000
v 8.198000 0.505000 0.000000
v 10.362000 0.453000 0.000000
v 10.775000 -13.947000 0.000000
v 8.885000 -13.678000 0.000000
v 8.668000 -16.335000 0.000000
v 6.539000 -17.916000 0.000000
v 1.766000 -20.333000 0.000000
v -4.112000 -18.819000 0.000000
v -4.310000 -12.770000 0.000000
v -4.850000 -13.017000 6.000000
v -5.067000 -1.606000 6.000000
v -10.775000 4.838000 6.000000
v -10.287000 20.136000 6.000000
v -7.484000 20.333000 6.000000
v -2.594000 17.222000 6.000000
v -1.888000 18.001000 6.000000
v 7.800000 7.332000 6.000000
v 6.339000 5.979000 6.000000
v 8.169000 3.211000 6.000000
v 8.198000 0.505000 6.000000
v 10.362000 0.453000 6.000000
v 10.775000 -13.947000 6.000000
v 8.885000 -13.678000 6.000000
v 8.668000 -16.335000 6.000000
v 6.539000 -17.916000 6.000000
v 1.766000 -20.333000 6.000000
v -4.112000 -18.819000 6.000000
v -4.310000 -12.770000 6.000000
vn -0.000000 0.000000 -1.000000
vn 0.000000 0.000000 -1.000000
vn 0.000000 0.000000 -1.000000
vn 0.000000 0.000000 -1.000000
vn 0.000000 0.000000 -1.000000
vn 0.000000 0.000000 -1.000000
vn 0.000000 0.000000 -1.000000
vn 0.000000 0.000000 -1.000000
vn 0.000000 0.000000 -1.000000
vn 0.000000 0.000000 -1.000000
vn 0.000000 0.000000 -1.000000
vn 0.000000 -0.000000 -1.000000
vn 0.000000 0.000000 -1.000000
vn 0.000000 0.000000 -1.000000
vn 0.000000 0.000000 -1.000000
vn 0.000000 0.000000 -1.000000
vn 0.000000 0.000000 -1.000000
vn 0.000000 0.000000 1.000000
vn 0.000000 0.000000 1.000000
vn 0.000000 0.000000 1.000000
vn 0.000000 -0.000000 1.000000
vn 0.000000 -0.000000 1.000000
vn 0.000000 0.000000 1.000000
vn 0.000000 0.000000 1.000000
vn 0.000000 0.000000 1.000000
vn 0.000000 0.000000 1.000000
vn 0.000000 0.000000 1.000000
vn 0.000000 0.000000 1.000000
vn 0.000000 0.000000 1.000000
vn -0.000000 0.000000 1.000000
vn 0.000000 0.000000 1.000000
vn 0.000000 0.000000 1.000000
vn 0.000000 0.000000 1.000000
vn 0.000000 0.000000 1.000000
vn -0.999819 -0.019013 0.000000
vn -0.999819 -0.019013 0.000000
vn -0.748562 -0.663065 0.000000
vn -0.748562 -0.663065 0.000000
vn -0.999492 0.031883 0.000000
vn -0.999492 0.031883 0.000000
vn -0.070109 0.997539 0.000000
vn -0.070109 0.997539 0.000000
vn 0.536775 0.843725 0.000000
vn 0.536775 0.843725 -0.000000
vn -0.740972 0.671536 0.000000
vn -0.740972 0.671536 0.000000
vn 0.740323 0.672251 0.000000
vn 0.740323 0.672251 -0.000000
vn 0.679468 -0.733705 0.000000
vn 0.679468 -0.733705 0.000000
vn 0.834177 0.551497 0.000000
vn 0.834177 0.551497 -0.000000
vn 0.999943 0.010716 0.000000
vn 0.999943 0.010716 -0.000000
vn 0.024023 0.999711 0.000000
vn 0.024023 0.999711 -0.000000
vn 0.999589 0.028669 0.000000
vn 0.999589 0.028669 -0.000000
vn -0.140908 -0.990023 0.000000
vn -0.140908 -0.990023 0.000000
vn 0.996682 -0.081400 0.000000
vn 0.996682 -0.081400 0.000000
vn 0.596192 -0.802842 0.000000
vn 0.596192 -0.802842 0.000000
vn 0.451768 -0.892135 0.000000
vn 0.451768 -0.892135 0.000000
vn -0.249430 -0.968393 0.000000
vn -0.249430 -0.968393 0.000000
vn -0.999465 -0.032715 0.000000
vn -0.999465 -0.032715 0.000000
vn 0.415959 -0.909383 0.000000
vn 0.415959 -0.909383 0.000000
usemtl assumed_base
f 19//1 1//1 2//1
f 2//2 3//2 4//2
f 2//3 4//3 5//3
f 2//4 5//4 6//4
f 19//5 2//5 6//5
f 19//6 6//6 7//6
f 7//7 8//7 9//7
f 19//8 7//8 9//8
f 19//9 9//9 10//9
f 19//10 10//10 11//10
f 19//11 11//11 12//11
f 12//12 13//12 14//12
f 19//13 12//13 14//13
f 19//14 14//14 15//14
f 19//15 15//15 16//15
f 19//16 16//16 17//16
f 17//17 18//17 19//17
usemtl assumed_roof
f 38//18 21//18 20//18
f 21//19 23//19 22//19
f 21//20 24//20 23//20
f 21//21 25//21 24//21
f 38//22 25//22 21//22
f 38//23 26//23 25//23
f 26//24 28//24 27//24
f 38//25 28//25 26//25
f 38//26 29//26 28//26
f 38//27 30//27 29//27
f 38//28 31//28 30//28
f 31//29 33//29 32//29
f 38//30 33//30 31//30
f 38//31 34//31 33//31
f 38//32 35//32 34//32
f 38//33 36//33 35//33
f 36//34 38//34 37//34
usemtl assumed_wall
f 1//35 21//35 2//35
f 1//36 20//36 21//36
f 2//37 22//37 3//37
f 2//38 21//38 22//38
f 3//39 23//39 4//39
f 3//40 22//40 23//40
f 4//41 24//41 5//41
f 4//42 23//42 24//42
f 5//43 25//43 6//43
f 5//44 24//44 25//44
f 6//45 26//45 7//45
f 6//46 25//46 26//46
f 7//47 27//47 8//47
f 7//48 26//48 27//48
f 8//49 28//49 9//49
f 8//50 27//50 28//50
f 9//51 29//51 10//51
f 9//52 28//52 29//52
f 10//53 30//53 11//53
f 10//54 29//54 30//54
f 11//55 31//55 12//55
f 11//56 30//56 31//56
f 12//57 32//57 13//57
f 12//58 31//58 32//58
f 13//59 33//59 14//59
f 13//60 32//60 33//60
f 14//61 34//61 15//61
f 14//62 33//62 34//62
f 15//63 35//63 16//63
f 15//64 34//64 35//64
f 16//65 36//65 17//65
f 16//66 35//66 36//66
f 17//67 37//67 18//67
f 17//68 36//68 37//68
f 18//69 38//69 19//69
f 18//70 37//70 38//70
f 19//71 20//71 1//71
f 19//72 38//72 20//72
