# construction_4218_assumed_A_Casa
# source A_Casa
# h_campo 0.000000
# modeled_height 6.000000
# height_kind assumed
# local_origin_world_x 172001.034850
# local_origin_world_y 402500.144600
mtllib construction_artifacts.mtl

o construction_4218_assumed_A_Casa
v -10.181000 1.720000 0.000000
v 2.087000 10.227000 0.000000
v 6.573000 4.179000 0.000000
v 5.634000 3.528000 0.000000
v 10.181000 -3.602000 0.000000
v 0.673000 -10.227000 0.000000
v -3.616000 -4.051000 0.000000
v -5.393000 -5.704000 0.000000
v -10.181000 1.720000 6.000000
v 2.087000 10.227000 6.000000
v 6.573000 4.179000 6.000000
v 5.634000 3.528000 6.000000
v 10.181000 -3.602000 6.000000
v 0.673000 -10.227000 6.000000
v -3.616000 -4.051000 6.000000
v -5.393000 -5.704000 6.000000
vn 0.000000 0.000000 -1.000000
vn 0.000000 0.000000 -1.000000
vn 0.000000 -0.000000 -1.000000
vn 0.000000 -0.000000 -1.000000
vn 0.000000 0.000000 -1.000000
vn 0.000000 0.000000 -1.000000
vn 0.000000 -0.000000 1.000000
vn 0.000000 0.000000 1.000000
vn 0.000000 0.000000 1.000000
vn 0.000000 0.000000 1.000000
vn 0.000000 0.000000 1.000000
vn 0.000000 0.000000 1.000000
vn -0.569833 0.821760 0.000000
vn -0.569833 0.821760 0.000000
vn 0.803176 0.595742 0.000000
vn 0.803176 0.595742 -0.000000
vn 0.569756 -0.821814 0.000000
vn 0.569756 -0.821814 0.000000
vn 0.843140 0.537694 0.000000
vn 0.843140 0.537694 -0.000000
vn 0.571689 -0.820471 0.000000
vn 0.571689 -0.820471 0.000000
vn -0.821363 -0.570406 0.000000
vn -0.821363 -0.570406 0.000000
vn 0.681099 -0.732192 0.000000
vn 0.681099 -0.732192 0.000000
vn -0.840383 -0.541993 0.000000
vn -0.840383 -0.541993 0.000000
usemtl assumed_base
f 8//1 1//1 2//1
f 2//2 3//2 4//2
f 4//3 5//3 6//3
f 2//4 4//4 6//4
f 2//5 6//5 7//5
f 2//6 7//6 8//6
usemtl assumed_roof
f 16//7 10//7 9//7
f 10//8 12//8 11//8
f 12//9 14//9 13//9
f 10//10 14//10 12//10
f 10//11 15//11 14//11
f 10//12 16//12 15//12
usemtl assumed_wall
f 1//13 10//13 2//13
f 1//14 9//14 10//14
f 2//15 11//15 3//15
f 2//16 10//16 11//16
f 3//17 12//17 4//17
f 3//18 11//18 12//18
f 4//19 13//19 5//19
f 4//20 12//20 13//20
f 5//21 14//21 6//21
f 5//22 13//22 14//22
f 6//23 15//23 7//23
f 6//24 14//24 15//24
f 7//25 16//25 8//25
f 7//26 15//26 16//26
f 8//27 9//27 1//27
f 8//28 16//28 9//28
