# construction_0510_assumed_A_Casa
# source A_Casa
# h_campo 0.000000
# modeled_height 6.000000
# height_kind assumed
# local_origin_world_x 172001.034850
# local_origin_world_y 402500.144600
mtllib construction_artifacts.mtl

o construction_0510_assumed_A_Casa
v 6.447500 -3.909000 0.000000
v 8.968500 -8.274000 0.000000
v 6.224500 -10.373000 0.000000
v 5.442500 -9.305000 0.000000
v 1.883500 -11.615000 0.000000
v -1.142500 -6.643000 0.000000
v -1.643500 -6.626000 0.000000
v -9.608500 6.182000 0.000000
v -4.192500 9.131000 0.000000
v -1.612500 4.678000 0.000000
v 0.114500 5.454000 0.000000
v -1.333500 7.837000 0.000000
v 4.549500 11.615000 0.000000
v 9.608500 3.288000 0.000000
v 3.588500 -0.579000 0.000000
v 5.712500 -4.395000 0.000000
v 6.447500 -3.909000 6.000000
v 8.968500 -8.274000 6.000000
v 6.224500 -10.373000 6.000000
v 5.442500 -9.305000 6.000000
v 1.883500 -11.615000 6.000000
v -1.142500 -6.643000 6.000000
v -1.643500 -6.626000 6.000000
v -9.608500 6.182000 6.000000
v -4.192500 9.131000 6.000000
v -1.612500 4.678000 6.000000
v 0.114500 5.454000 6.000000
v -1.333500 7.837000 6.000000
v 4.549500 11.615000 6.000000
v 9.608500 3.288000 6.000000
v 3.588500 -0.579000 6.000000
v 5.712500 -4.395000 6.000000
vn 0.000000 0.000000 -1.000000
vn 0.000000 0.000000 -1.000000
vn 0.000000 -0.000000 -1.000000
vn 0.000000 0.000000 -1.000000
vn 0.000000 0.000000 -1.000000
vn 0.000000 0.000000 -1.000000
vn -0.000000 0.000000 -1.000000
vn 0.000000 0.000000 -1.000000
vn 0.000000 0.000000 -1.000000
vn 0.000000 0.000000 -1.000000
vn 0.000000 0.000000 -1.000000
vn 0.000000 0.000000 -1.000000
vn 0.000000 0.000000 -1.000000
vn 0.000000 0.000000 -1.000000
vn -0.000000 0.000000 1.000000
vn 0.000000 0.000000 1.000000
vn 0.000000 0.000000 1.000000
vn 0.000000 0.000000 1.000000
vn 0.000000 0.000000 1.000000
vn 0.000000 0.000000 1.000000
vn 0.000000 0.000000 1.000000
vn -0.000000 0.000000 1.000000
vn 0.000000 0.000000 1.000000
vn 0.000000 0.000000 1.000000
vn 0.000000 -0.000000 1.000000
vn -0.000000 0.000000 1.000000
vn 0.000000 0.000000 1.000000
vn 0.000000 0.000000 1.000000
vn 0.865951 0.500129 0.000000
vn 0.865951 0.500129 -0.000000
vn 0.607568 -0.794267 0.000000
vn 0.607568 -0.794267 0.000000
vn -0.806837 -0.590774 0.000000
vn -0.806837 -0.590774 0.000000
vn 0.544433 -0.838804 0.000000
vn 0.544433 -0.838804 0.000000
vn -0.854232 -0.519892 0.000000
vn -0.854232 -0.519892 0.000000
vn -0.033913 -0.999425 0.000000
vn -0.033913 -0.999425 0.000000
vn -0.849188 -0.528091 0.000000
vn -0.849188 -0.528091 0.000000
vn -0.478204 0.878249 0.000000
vn -0.478204 0.878249 0.000000
vn 0.865262 0.501320 0.000000
vn 0.865262 0.501320 -0.000000
vn -0.409860 0.912149 0.000000
vn -0.409860 0.912149 0.000000
vn -0.854600 -0.519287 0.000000
vn -0.854600 -0.519287 0.000000
vn -0.540360 0.841434 0.000000
vn -0.540360 0.841434 0.000000
vn 0.854636 0.519227 0.000000
vn 0.854636 0.519227 -0.000000
vn 0.540461 -0.841369 0.000000
vn 0.540461 -0.841369 0.000000
vn 0.873768 0.486343 0.000000
vn 0.873768 0.486343 -0.000000
vn -0.551553 0.834140 0.000000
vn -0.551553 0.834140 0.000000
usemtl assumed_base
f 16//1 1//1 2//1
f 16//2 2//2 3//2
f 16//3 3//3 4//3
f 16//4 4//4 5//4
f 16//5 5//5 6//5
f 16//6 6//6 7//6
f 16//7 7//7 8//7
f 8//8 9//8 10//8
f 16//9 8//9 10//9
f 16//10 10//10 11//10
f 11//11 12//11 13//11
f 11//12 13//12 14//12
f 11//13 14//13 15//13
f 11//14 15//14 16//14
usemtl assumed_roof
f 32//15 18//15 17//15
f 32//16 19//16 18//16
f 32//17 20//17 19//17
f 32//18 21//18 20//18
f 32//19 22//19 21//19
f 32//20 23//20 22//20
f 32//21 24//21 23//21
f 24//22 26//22 25//22
f 32//23 26//23 24//23
f 32//24 27//24 26//24
f 27//25 29//25 28//25
f 27//26 30//26 29//26
f 27//27 31//27 30//27
f 27//28 32//28 31//28
usemtl assumed_wall
f 1//29 18//29 2//29
f 1//30 17//30 18//30
f 2//31 19//31 3//31
f 2//32 18//32 19//32
f 3//33 20//33 4//33
f 3//34 19//34 20//34
f 4//35 21//35 5//35
f 4//36 20//36 21//36
f 5//37 22//37 6//37
f 5//38 21//38 22//38
f 6//39 23//39 7//39
f 6//40 22//40 23//40
f 7//41 24//41 8//41
f 7//42 23//42 24//42
f 8//43 25//43 9//43
f 8//44 24//44 25//44
f 9//45 26//45 10//45
f 9//46 25//46 26//46
f 10//47 27//47 11//47
f 10//48 26//48 27//48
f 11//49 28//49 12//49
f 11//50 27//50 28//50
f 12//51 29//51 13//51
f 12//52 28//52 29//52
f 13//53 30//53 14//53
f 13//54 29//54 30//54
f 14//55 31//55 15//55
f 14//56 30//56 31//56
f 15//57 32//57 16//57
f 15//58 31//58 32//58
f 16//59 17//59 1//59
f 16//60 32//60 17//60
