# construction_7219_assumed_A_Ruinas
# source A_Ruinas
# h_campo 0.000000
# modeled_height 6.000000
# height_kind assumed
# local_origin_world_x 172001.034850
# local_origin_world_y 402500.144600
mtllib construction_artifacts.mtl

o construction_7219_assumed_A_Ruinas
v -4.438500 3.700500 0.000000
v 3.089500 7.724500 0.000000
v 6.687500 -3.759500 0.000000
v -4.312500 -7.724500 0.000000
v -6.687500 0.115500 0.000000
v -3.509500 1.213500 0.000000
v -4.438500 3.700500 6.000000
v 3.089500 7.724500 6.000000
v 6.687500 -3.759500 6.000000
v -4.312500 -7.724500 6.000000
v -6.687500 0.115500 6.000000
v -3.509500 1.213500 6.000000
vn 0.000000 0.000000 -1.000000
vn 0.000000 0.000000 -1.000000
vn 0.000000 -0.000000 -1.000000
vn 0.000000 0.000000 -1.000000
vn 0.000000 -0.000000 1.000000
vn -0.000000 0.000000 1.000000
vn 0.000000 0.000000 1.000000
vn 0.000000 -0.000000 1.000000
vn -0.471415 0.881912 0.000000
vn -0.471415 0.881912 0.000000
vn 0.954261 0.298975 0.000000
vn 0.954261 0.298975 -0.000000
vn 0.339098 -0.940751 0.000000
vn 0.339098 -0.940751 0.000000
vn -0.957050 -0.289923 0.000000
vn -0.957050 -0.289923 0.000000
vn -0.326559 0.945177 0.000000
vn -0.326559 0.945177 0.000000
vn -0.936777 -0.349926 0.000000
vn -0.936777 -0.349926 0.000000
usemtl assumed_base
f 6//1 1//1 2//1
f 6//2 2//2 3//2
f 6//3 3//3 4//3
f 4//4 5//4 6//4
usemtl assumed_roof
f 12//5 8//5 7//5
f 12//6 9//6 8//6
f 12//7 10//7 9//7
f 10//8 12//8 11//8
usemtl assumed_wall
f 1//9 8//9 2//9
f 1//10 7//10 8//10
f 2//11 9//11 3//11
f 2//12 8//12 9//12
f 3//13 10//13 4//13
f 3//14 9//14 10//14
f 4//15 11//15 5//15
f 4//16 10//16 11//16
f 5//17 12//17 6//17
f 5//18 11//18 12//18
f 6//19 7//19 1//19
f 6//20 12//20 7//20
