# construction_0742_assumed_A_Capela
# source A_Capela
# h_campo 0.000000
# modeled_height 6.000000
# height_kind assumed
# local_origin_world_x 172001.034850
# local_origin_world_y 402500.144600
mtllib construction_artifacts.mtl

o construction_0742_assumed_A_Capela
v -3.896000 3.261500 0.000000
v 2.146000 3.780500 0.000000
v 3.540000 3.614500 0.000000
v 3.896000 0.884500 0.000000
v 2.075000 0.685500 0.000000
v 2.298000 -3.246500 0.000000
v -3.291000 -3.780500 0.000000
v -3.896000 3.261500 6.000000
v 2.146000 3.780500 6.000000
v 3.540000 3.614500 6.000000
v 3.896000 0.884500 6.000000
v 2.075000 0.685500 6.000000
v 2.298000 -3.246500 6.000000
v -3.291000 -3.780500 6.000000
vn 0.000000 0.000000 -1.000000
vn 0.000000 0.000000 -1.000000
vn 0.000000 -0.000000 -1.000000
vn 0.000000 0.000000 -1.000000
vn 0.000000 -0.000000 -1.000000
vn 0.000000 -0.000000 1.000000
vn 0.000000 0.000000 1.000000
vn 0.000000 0.000000 1.000000
vn 0.000000 0.000000 1.000000
vn 0.000000 0.000000 1.000000
vn -0.085584 0.996331 0.000000
vn -0.085584 0.996331 0.000000
vn 0.118246 0.992984 0.000000
vn 0.118246 0.992984 -0.000000
vn 0.991604 0.129308 0.000000
vn 0.991604 0.129308 -0.000000
vn 0.108634 -0.994082 0.000000
vn 0.108634 -0.994082 0.000000
vn 0.998396 0.056623 0.000000
vn 0.998396 0.056623 -0.000000
vn 0.095112 -0.995467 0.000000
vn 0.095112 -0.995467 0.000000
vn -0.996330 -0.085598 0.000000
vn -0.996330 -0.085598 0.000000
usemtl assumed_base
f 7//1 1//1 2//1
f 7//2 2//2 3//2
f 3//3 4//3 5//3
f 7//4 3//4 5//4
f 5//5 6//5 7//5
usemtl assumed_roof
f 14//6 9//6 8//6
f 14//7 10//7 9//7
f 10//8 12//8 11//8
f 14//9 12//9 10//9
f 12//10 14//10 13//10
usemtl assumed_wall
f 1//11 9//11 2//11
f 1//12 8//12 9//12
f 2//13 10//13 3//13
f 2//14 9//14 10//14
f 3//15 11//15 4//15
f 3//16 10//16 11//16
f 4//17 12//17 5//17
f 4//18 11//18 12//18
f 5//19 13//19 6//19
f 5//20 12//20 13//20
f 6//21 14//21 7//21
f 6//22 13//22 14//22
f 7//23 8//23 1//23
f 7//24 14//24 8//24
