# construction_0045_assumed_A_Cemiterio
# source A_Cemiterio
# h_campo 0.000000
# modeled_height 6.000000
# height_kind assumed
# local_origin_world_x 172001.034850
# local_origin_world_y 402500.144600
mtllib construction_artifacts.mtl

o construction_0045_assumed_A_Cemiterio
v -42.511000 -14.217500 0.000000
v -32.616000 32.303500 0.000000
v -8.193000 26.376500 0.000000
v 30.007000 33.609500 0.000000
v 42.511000 -15.181500 0.000000
v 4.308000 -23.187500 0.000000
v 6.114000 -32.544500 0.000000
v 5.577000 -33.609500 0.000000
v -42.511000 -14.217500 6.000000
v -32.616000 32.303500 6.000000
v -8.193000 26.376500 6.000000
v 30.007000 33.609500 6.000000
v 42.511000 -15.181500 6.000000
v 4.308000 -23.187500 6.000000
v 6.114000 -32.544500 6.000000
v 5.577000 -33.609500 6.000000
vn 0.000000 0.000000 -1.000000
vn 0.000000 0.000000 -1.000000
vn 0.000000 0.000000 -1.000000
vn 0.000000 0.000000 -1.000000
vn 0.000000 0.000000 -1.000000
vn 0.000000 0.000000 -1.000000
vn 0.000000 0.000000 1.000000
vn 0.000000 0.000000 1.000000
vn -0.000000 0.000000 1.000000
vn 0.000000 0.000000 1.000000
vn 0.000000 0.000000 1.000000
vn 0.000000 0.000000 1.000000
vn -0.978119 0.208046 0.000000
vn -0.978119 0.208046 0.000000
vn 0.235836 0.971793 0.000000
vn 0.235836 0.971793 -0.000000
vn -0.186040 0.982542 0.000000
vn -0.186040 0.982542 0.000000
vn 0.968695 0.248254 0.000000
vn 0.968695 0.248254 -0.000000
vn 0.205109 -0.978739 0.000000
vn 0.205109 -0.978739 0.000000
vn 0.981878 0.189513 0.000000
vn 0.981878 0.189513 -0.000000
vn 0.892913 -0.450229 0.000000
vn 0.892913 -0.450229 0.000000
vn -0.373996 -0.927430 0.000000
vn -0.373996 -0.927430 0.000000
usemtl assumed_base
f 8//1 1//1 2//1
f 8//2 2//2 3//2
f 3//3 4//3 5//3
f 3//4 5//4 6//4
f 8//5 3//5 6//5
f 6//6 7//6 8//6
usemtl assumed_roof
f 16//7 10//7 9//7
f 16//8 11//8 10//8
f 11//9 13//9 12//9
f 11//10 14//10 13//10
f 16//11 14//11 11//11
f 14//12 16//12 15//12
usemtl assumed_wall
f 1//13 10//13 2//13
f 1//14 9//14 10//14
f 2//15 11//15 3//15
f 2//16 10//16 11//16
f 3//17 12//17 4//17
f 3//18 11//18 12//18
f 4//19 13//19 5//19
f 4//20 12//20 13//20
f 5//21 14//21 6//21
f 5//22 13//22 14//22
f 6//23 15//23 7//23
f 6//24 14//24 15//24
f 7//25 16//25 8//25
f 7//26 15//26 16//26
f 8//27 9//27 1//27
f 8//28 16//28 9//28
