# construction_3947_assumed_A_Casa
# source A_Casa
# h_campo 0.000000
# modeled_height 6.000000
# height_kind assumed
# local_origin_world_x 172001.034850
# local_origin_world_y 402500.144600
mtllib construction_artifacts.mtl

o construction_3947_assumed_A_Casa
v -14.142500 -9.536500 0.000000
v -1.976500 -1.778500 0.000000
v -4.934500 2.748500 0.000000
v -0.230500 5.724500 0.000000
v -1.840500 8.062500 0.000000
v 1.712500 9.668500 0.000000
v 2.148500 10.134500 0.000000
v -1.878500 16.427500 0.000000
v 3.926500 20.233500 0.000000
v 11.031500 9.043500 0.000000
v 2.836500 4.082500 0.000000
v 4.462500 2.063500 0.000000
v 7.238500 3.818500 0.000000
v 10.241500 -1.365500 0.000000
v 12.464500 -0.514500 0.000000
v 14.142500 -3.029500 0.000000
v 12.571500 -4.688500 0.000000
v 4.805500 -12.017500 0.000000
v -3.590500 -20.233500 0.000000
v -5.925500 -17.821500 0.000000
v -1.399500 -12.620500 0.000000
v -2.569500 -10.685500 0.000000
v -1.450500 -9.905500 0.000000
v -2.824500 -7.650500 0.000000
v -11.995500 -13.340500 0.000000
v -14.142500 -9.536500 6.000000
v -1.976500 -1.778500 6.000000
v -4.934500 2.748500 6.000000
v -0.230500 5.724500 6.000000
v -1.840500 8.062500 6.000000
v 1.712500 9.668500 6.000000
v 2.148500 10.134500 6.000000
v -1.878500 16.427500 6.000000
v 3.926500 20.233500 6.000000
v 11.031500 9.043500 6.000000
v 2.836500 4.082500 6.000000
v 4.462500 2.063500 6.000000
v 7.238500 3.818500 6.000000
v 10.241500 -1.365500 6.000000
v 12.464500 -0.514500 6.000000
v 14.142500 -3.029500 6.000000
v 12.571500 -4.688500 6.000000
v 4.805500 -12.017500 6.000000
v -3.590500 -20.233500 6.000000
v -5.925500 -17.821500 6.000000
v -1.399500 -12.620500 6.000000
v -2.569500 -10.685500 6.000000
v -1.450500 -9.905500 6.000000
v -2.824500 -7.650500 6.000000
v -11.995500 -13.340500 6.000000
vn 0.000000 0.000000 -1.000000
vn 0.000000 0.000000 -1.000000
vn 0.000000 0.000000 -1.000000
vn 0.000000 0.000000 -1.000000
vn 0.000000 0.000000 -1.000000
vn 0.000000 0.000000 -1.000000
vn 0.000000 0.000000 -1.000000
vn 0.000000 0.000000 -1.000000
vn 0.000000 0.000000 -1.000000
vn 0.000000 0.000000 -1.000000
vn 0.000000 0.000000 -1.000000
vn 0.000000 0.000000 -1.000000
vn 0.000000 0.000000 -1.000000
vn 0.000000 0.000000 -1.000000
vn 0.000000 -0.000000 -1.000000
vn 0.000000 -0.000000 -1.000000
vn 0.000000 0.000000 -1.000000
vn 0.000000 0.000000 -1.000000
vn 0.000000 0.000000 -1.000000
vn 0.000000 0.000000 -1.000000
vn 0.000000 0.000000 -1.000000
vn 0.000000 0.000000 -1.000000
vn 0.000000 0.000000 -1.000000
vn 0.000000 -0.000000 1.000000
vn 0.000000 -0.000000 1.000000
vn 0.000000 -0.000000 1.000000
vn 0.000000 0.000000 1.000000
vn 0.000000 0.000000 1.000000
vn 0.000000 -0.000000 1.000000
vn -0.000000 0.000000 1.000000
vn 0.000000 0.000000 1.000000
vn 0.000000 0.000000 1.000000
vn 0.000000 0.000000 1.000000
vn 0.000000 0.000000 1.000000
vn 0.000000 0.000000 1.000000
vn -0.000000 0.000000 1.000000
vn 0.000000 0.000000 1.000000
vn 0.000000 0.000000 1.000000
vn 0.000000 0.000000 1.000000
vn 0.000000 0.000000 1.000000
vn 0.000000 -0.000000 1.000000
vn 0.000000 0.000000 1.000000
vn 0.000000 0.000000 1.000000
vn 0.000000 0.000000 1.000000
vn 0.000000 0.000000 1.000000
vn 0.000000 0.000000 1.000000
vn -0.537665 0.843159 0.000000
vn -0.537665 0.843159 0.000000
vn -0.837136 -0.546995 0.000000
vn -0.837136 -0.546995 0.000000
vn -0.534642 0.845079 0.000000
vn -0.534642 0.845079 0.000000
vn -0.823610 -0.567157 0.000000
vn -0.823610 -0.567157 0.000000
vn -0.411889 0.911234 0.000000
vn -0.411889 0.911234 0.000000
vn -0.730221 0.683211 0.000000
vn -0.730221 0.683211 0.000000
vn -0.842303 -0.539004 0.000000
vn -0.842303 -0.539004 0.000000
vn -0.548301 0.836281 0.000000
vn -0.548301 0.836281 0.000000
vn 0.844205 0.536021 0.000000
vn 0.844205 0.536021 -0.000000
vn 0.517869 -0.855460 0.000000
vn 0.517869 -0.855460 0.000000
vn 0.778832 0.627232 0.000000
vn 0.778832 0.627232 -0.000000
vn -0.534371 0.845250 0.000000
vn -0.534371 0.845250 0.000000
vn 0.865301 0.501253 0.000000
vn 0.865301 0.501253 -0.000000
vn -0.357515 0.933907 0.000000
vn -0.357515 0.933907 0.000000
vn 0.831847 0.555005 0.000000
vn 0.831847 0.555005 -0.000000
vn 0.726102 -0.687587 0.000000
vn 0.726102 -0.687587 0.000000
vn 0.686348 -0.727273 0.000000
vn 0.686348 -0.727273 0.000000
vn 0.699404 -0.714727 0.000000
vn 0.699404 -0.714727 0.000000
vn -0.718482 -0.695545 0.000000
vn -0.718482 -0.695545 0.000000
vn -0.754362 0.656459 0.000000
vn -0.754362 0.656459 0.000000
vn -0.855732 -0.517419 0.000000
vn -0.855732 -0.517419 0.000000
vn -0.571838 0.820367 0.000000
vn -0.571838 0.820367 0.000000
vn -0.853964 -0.520331 0.000000
vn -0.853964 -0.520331 0.000000
vn 0.527206 -0.849737 0.000000
vn 0.527206 -0.849737 0.000000
vn -0.870865 -0.491522 0.000000
vn -0.870865 -0.491522 0.000000
usemtl assumed_base
f 25//1 1//1 2//1
f 2//2 3//2 4//2
f 4//3 5//3 6//3
f 2//4 4//4 6//4
f 2//5 6//5 7//5
f 7//6 8//6 9//6
f 7//7 9//7 10//7
f 7//8 10//8 11//8
f 2//9 7//9 11//9
f 2//10 11//10 12//10
f 25//11 2//11 12//11
f 25//12 12//12 13//12
f 14//13 15//13 16//13
f 14//14 16//14 17//14
f 14//15 17//15 18//15
f 13//16 14//16 18//16
f 13//17 18//17 19//17
f 19//18 20//18 21//18
f 13//19 19//19 21//19
f 21//20 22//20 23//20
f 13//21 21//21 23//21
f 13//22 23//22 24//22
f 13//23 24//23 25//23
usemtl assumed_roof
f 50//24 27//24 26//24
f 27//25 29//25 28//25
f 29//26 31//26 30//26
f 27//27 31//27 29//27
f 27//28 32//28 31//28
f 32//29 34//29 33//29
f 32//30 35//30 34//30
f 32//31 36//31 35//31
f 27//32 36//32 32//32
f 27//33 37//33 36//33
f 50//34 37//34 27//34
f 50//35 38//35 37//35
f 39//36 41//36 40//36
f 39//37 42//37 41//37
f 39//38 43//38 42//38
f 38//39 43//39 39//39
f 38//40 44//40 43//40
f 44//41 46//41 45//41
f 38//42 46//42 44//42
f 46//43 48//43 47//43
f 38//44 48//44 46//44
f 38//45 49//45 48//45
f 38//46 50//46 49//46
usemtl assumed_wall
f 1//47 27//47 2//47
f 1//48 26//48 27//48
f 2//49 28//49 3//49
f 2//50 27//50 28//50
f 3//51 29//51 4//51
f 3//52 28//52 29//52
f 4//53 30//53 5//53
f 4//54 29//54 30//54
f 5//55 31//55 6//55
f 5//56 30//56 31//56
f 6//57 32//57 7//57
f 6//58 31//58 32//58
f 7//59 33//59 8//59
f 7//60 32//60 33//60
f 8//61 34//61 9//61
f 8//62 33//62 34//62
f 9//63 35//63 10//63
f 9//64 34//64 35//64
f 10//65 36//65 11//65
f 10//66 35//66 36//66
f 11//67 37//67 12//67
f 11//68 36//68 37//68
f 12//69 38//69 13//69
f 12//70 37//70 38//70
f 13//71 39//71 14//71
f 13//72 38//72 39//72
f 14//73 40//73 15//73
f 14//74 39//74 40//74
f 15//75 41//75 16//75
f 15//76 40//76 41//76
f 16//77 42//77 17//77
f 16//78 41//78 42//78
f 17//79 43//79 18//79
f 17//80 42//80 43//80
f 18//81 44//81 19//81
f 18//82 43//82 44//82
f 19//83 45//83 20//83
f 19//84 44//84 45//84
f 20//85 46//85 21//85
f 20//86 45//86 46//86
f 21//87 47//87 22//87
f 21//88 46//88 47//88
f 22//89 48//89 23//89
f 22//90 47//90 48//90
f 23//91 49//91 24//91
f 23//92 48//92 49//92
f 24//93 50//93 25//93
f 24//94 49//94 50//94
f 25//95 26//95 1//95
f 25//96 50//96 26//96
