# construction_3159_assumed_A_Casa
# source A_Casa
# h_campo 0.000000
# modeled_height 6.000000
# height_kind assumed
# local_origin_world_x 172001.034850
# local_origin_world_y 402500.144600
mtllib construction_artifacts.mtl

o construction_3159_assumed_A_Casa
v -31.928500 11.969500 0.000000
v -30.674500 13.702500 0.000000
v 0.378500 3.994500 0.000000
v 3.809500 16.554500 0.000000
v 4.875500 20.571500 0.000000
v 13.992500 17.517500 0.000000
v 16.521500 22.433500 0.000000
v 21.482500 21.658500 0.000000
v 17.934500 4.089500 0.000000
v 31.928500 0.039500 0.000000
v 30.025500 -5.413500 0.000000
v 27.949500 -5.016500 0.000000
v 24.060500 -16.700500 0.000000
v 7.787500 -11.899500 0.000000
v 4.685500 -22.433500 0.000000
v -13.489500 -18.668500 0.000000
v -31.928500 11.969500 6.000000
v -30.674500 13.702500 6.000000
v 0.378500 3.994500 6.000000
v 3.809500 16.554500 6.000000
v 4.875500 20.571500 6.000000
v 13.992500 17.517500 6.000000
v 16.521500 22.433500 6.000000
v 21.482500 21.658500 6.000000
v 17.934500 4.089500 6.000000
v 31.928500 0.039500 6.000000
v 30.025500 -5.413500 6.000000
v 27.949500 -5.016500 6.000000
v 24.060500 -16.700500 6.000000
v 7.787500 -11.899500 6.000000
v 4.685500 -22.433500 6.000000
v -13.489500 -18.668500 6.000000
vn 0.000000 0.000000 -1.000000
vn 0.000000 0.000000 -1.000000
vn 0.000000 0.000000 -1.000000
vn 0.000000 0.000000 -1.000000
vn 0.000000 0.000000 -1.000000
vn 0.000000 0.000000 -1.000000
vn 0.000000 0.000000 -1.000000
vn 0.000000 0.000000 -1.000000
vn 0.000000 0.000000 -1.000000
vn 0.000000 0.000000 -1.000000
vn 0.000000 0.000000 -1.000000
vn 0.000000 0.000000 -1.000000
vn 0.000000 0.000000 -1.000000
vn 0.000000 0.000000 -1.000000
vn 0.000000 0.000000 1.000000
vn 0.000000 -0.000000 1.000000
vn 0.000000 0.000000 1.000000
vn 0.000000 0.000000 1.000000
vn 0.000000 0.000000 1.000000
vn 0.000000 0.000000 1.000000
vn 0.000000 0.000000 1.000000
vn 0.000000 0.000000 1.000000
vn 0.000000 0.000000 1.000000
vn 0.000000 0.000000 1.000000
vn 0.000000 0.000000 1.000000
vn 0.000000 0.000000 1.000000
vn 0.000000 0.000000 1.000000
vn 0.000000 0.000000 1.000000
vn -0.810149 0.586224 0.000000
vn -0.810149 0.586224 0.000000
vn 0.298385 0.954446 0.000000
vn 0.298385 0.954446 -0.000000
vn -0.964656 0.263514 0.000000
vn -0.964656 0.263514 0.000000
vn -0.966546 0.256494 0.000000
vn -0.966546 0.256494 0.000000
vn 0.317631 0.948214 0.000000
vn 0.317631 0.948214 -0.000000
vn -0.889231 0.457458 0.000000
vn -0.889231 0.457458 0.000000
vn 0.154347 0.988017 0.000000
vn 0.154347 0.988017 -0.000000
vn 0.980212 -0.197950 0.000000
vn 0.980212 -0.197950 0.000000
vn 0.278001 0.960581 0.000000
vn 0.278001 0.960581 -0.000000
vn 0.944158 -0.329494 0.000000
vn 0.944158 -0.329494 0.000000
vn -0.187830 -0.982202 0.000000
vn -0.187830 -0.982202 0.000000
vn 0.948821 -0.315814 0.000000
vn 0.948821 -0.315814 0.000000
vn -0.282970 -0.959129 0.000000
vn -0.282970 -0.959129 0.000000
vn 0.959273 -0.282482 0.000000
vn 0.959273 -0.282482 0.000000
vn -0.202846 -0.979211 0.000000
vn -0.202846 -0.979211 0.000000
vn -0.856799 -0.515651 0.000000
vn -0.856799 -0.515651 0.000000
usemtl assumed_base
f 16//1 1//1 2//1
f 16//2 2//2 3//2
f 4//3 5//3 6//3
f 3//4 4//4 6//4
f 16//5 3//5 6//5
f 6//6 7//6 8//6
f 16//7 6//7 8//7
f 16//8 8//8 9//8
f 16//9 9//9 10//9
f 10//10 11//10 12//10
f 16//11 10//11 12//11
f 12//12 13//12 14//12
f 16//13 12//13 14//13
f 14//14 15//14 16//14
usemtl assumed_roof
f 32//15 18//15 17//15
f 32//16 19//16 18//16
f 20//17 22//17 21//17
f 19//18 22//18 20//18
f 32//19 22//19 19//19
f 22//20 24//20 23//20
f 32//21 24//21 22//21
f 32//22 25//22 24//22
f 32//23 26//23 25//23
f 26//24 28//24 27//24
f 32//25 28//25 26//25
f 28//26 30//26 29//26
f 32//27 30//27 28//27
f 30//28 32//28 31//28
usemtl assumed_wall
f 1//29 18//29 2//29
f 1//30 17//30 18//30
f 2//31 19//31 3//31
f 2//32 18//32 19//32
f 3//33 20//33 4//33
f 3//34 19//34 20//34
f 4//35 21//35 5//35
f 4//36 20//36 21//36
f 5//37 22//37 6//37
f 5//38 21//38 22//38
f 6//39 23//39 7//39
f 6//40 22//40 23//40
f 7//41 24//41 8//41
f 7//42 23//42 24//42
f 8//43 25//43 9//43
f 8//44 24//44 25//44
f 9//45 26//45 10//45
f 9//46 25//46 26//46
f 10//47 27//47 11//47
f 10//48 26//48 27//48
f 11//49 28//49 12//49
f 11//50 27//50 28//50
f 12//51 29//51 13//51
f 12//52 28//52 29//52
f 13//53 30//53 14//53
f 13//54 29//54 30//54
f 14//55 31//55 15//55
f 14//56 30//56 31//56
f 15//57 32//57 16//57
f 15//58 31//58 32//58
f 16//59 17//59 1//59
f 16//60 32//60 17//60
