# construction_2992_assumed_A_Casa
# source A_Casa
# h_campo 0.000000
# modeled_height 6.000000
# height_kind assumed
# local_origin_world_x 172001.034850
# local_origin_world_y 402500.144600
mtllib construction_artifacts.mtl

o construction_2992_assumed_A_Casa
v -13.259000 -11.499500 0.000000
v -9.232000 -7.148500 0.000000
v -10.624000 -5.173500 0.000000
v -12.779000 2.887500 0.000000
v -11.895000 3.058500 0.000000
v -13.311000 8.522500 0.000000
v -12.541000 8.717500 0.000000
v -13.858000 16.216500 0.000000
v 4.194000 17.796500 0.000000
v 8.613000 14.830500 0.000000
v 10.223000 12.390500 0.000000
v 9.897000 8.431500 0.000000
v 10.508000 6.021500 0.000000
v 11.987000 6.032500 0.000000
v 12.802000 1.576500 0.000000
v 9.295000 0.628500 0.000000
v 9.424000 -1.544500 0.000000
v 10.447000 -1.448500 0.000000
v 13.858000 -12.067500 0.000000
v 5.469000 -14.502500 0.000000
v 0.838000 -15.609500 0.000000
v -1.668000 -13.276500 0.000000
v -6.465000 -17.796500 0.000000
v -13.259000 -11.499500 6.000000
v -9.232000 -7.148500 6.000000
v -10.624000 -5.173500 6.000000
v -12.779000 2.887500 6.000000
v -11.895000 3.058500 6.000000
v -13.311000 8.522500 6.000000
v -12.541000 8.717500 6.000000
v -13.858000 16.216500 6.000000
v 4.194000 17.796500 6.000000
v 8.613000 14.830500 6.000000
v 10.223000 12.390500 6.000000
v 9.897000 8.431500 6.000000
v 10.508000 6.021500 6.000000
v 11.987000 6.032500 6.000000
v 12.802000 1.576500 6.000000
v 9.295000 0.628500 6.000000
v 9.424000 -1.544500 6.000000
v 10.447000 -1.448500 6.000000
v 13.858000 -12.067500 6.000000
v 5.469000 -14.502500 6.000000
v 0.838000 -15.609500 6.000000
v -1.668000 -13.276500 6.000000
v -6.465000 -17.796500 6.000000
vn 0.000000 0.000000 -1.000000
vn 0.000000 0.000000 -1.000000
vn 0.000000 0.000000 -1.000000
vn 0.000000 0.000000 -1.000000
vn 0.000000 0.000000 -1.000000
vn 0.000000 0.000000 -1.000000
vn 0.000000 0.000000 -1.000000
vn 0.000000 0.000000 -1.000000
vn 0.000000 0.000000 -1.000000
vn 0.000000 0.000000 -1.000000
vn 0.000000 0.000000 -1.000000
vn 0.000000 0.000000 -1.000000
vn 0.000000 0.000000 -1.000000
vn 0.000000 -0.000000 -1.000000
vn 0.000000 0.000000 -1.000000
vn 0.000000 0.000000 -1.000000
vn 0.000000 0.000000 -1.000000
vn 0.000000 -0.000000 -1.000000
vn 0.000000 0.000000 -1.000000
vn 0.000000 0.000000 -1.000000
vn 0.000000 0.000000 -1.000000
vn 0.000000 0.000000 1.000000
vn 0.000000 0.000000 1.000000
vn 0.000000 0.000000 1.000000
vn 0.000000 0.000000 1.000000
vn 0.000000 0.000000 1.000000
vn 0.000000 0.000000 1.000000
vn 0.000000 0.000000 1.000000
vn 0.000000 -0.000000 1.000000
vn 0.000000 0.000000 1.000000
vn 0.000000 0.000000 1.000000
vn 0.000000 0.000000 1.000000
vn 0.000000 0.000000 1.000000
vn 0.000000 0.000000 1.000000
vn 0.000000 0.000000 1.000000
vn 0.000000 0.000000 1.000000
vn 0.000000 0.000000 1.000000
vn 0.000000 0.000000 1.000000
vn 0.000000 0.000000 1.000000
vn 0.000000 0.000000 1.000000
vn 0.000000 0.000000 1.000000
vn 0.000000 0.000000 1.000000
vn -0.733904 0.679253 0.000000
vn -0.733904 0.679253 0.000000
vn -0.817381 -0.576098 0.000000
vn -0.817381 -0.576098 0.000000
vn -0.966074 -0.258267 0.000000
vn -0.966074 -0.258267 0.000000
vn -0.189918 0.981800 0.000000
vn -0.189918 0.981800 0.000000
vn -0.968022 -0.250864 0.000000
vn -0.968022 -0.250864 0.000000
vn -0.245497 0.969397 0.000000
vn -0.245497 0.969397 0.000000
vn -0.984926 -0.172976 0.000000
vn -0.984926 -0.172976 0.000000
vn -0.087192 0.996192 0.000000
vn -0.087192 0.996192 0.000000
vn 0.557299 0.830312 0.000000
vn 0.557299 0.830312 -0.000000
vn 0.834672 0.550747 0.000000
vn 0.834672 0.550747 -0.000000
vn 0.996627 -0.082066 0.000000
vn 0.996627 -0.082066 0.000000
vn 0.969333 0.245752 0.000000
vn 0.969333 0.245752 -0.000000
vn -0.007437 0.999972 0.000000
vn -0.007437 0.999972 0.000000
vn 0.983682 0.179915 0.000000
vn 0.983682 0.179915 -0.000000
vn 0.260951 -0.965352 0.000000
vn 0.260951 -0.965352 0.000000
vn 0.998243 0.059261 0.000000
vn 0.998243 0.059261 -0.000000
vn -0.093431 0.995626 0.000000
vn -0.093431 0.995626 0.000000
vn 0.952087 0.305826 0.000000
vn 0.952087 0.305826 -0.000000
vn 0.278756 -0.960362 0.000000
vn 0.278756 -0.960362 0.000000
vn 0.232491 -0.972599 0.000000
vn 0.232491 -0.972599 0.000000
vn -0.681392 -0.731919 0.000000
vn -0.681392 -0.731919 0.000000
vn 0.685781 -0.727808 0.000000
vn 0.685781 -0.727808 0.000000
vn -0.679772 -0.733424 0.000000
vn -0.679772 -0.733424 0.000000
usemtl assumed_base
f 23//1 1//1 2//1
f 2//2 3//2 4//2
f 2//3 4//3 5//3
f 2//4 5//4 6//4
f 2//5 6//5 7//5
f 23//6 2//6 7//6
f 23//7 7//7 8//7
f 23//8 8//8 9//8
f 23//9 9//9 10//9
f 23//10 10//10 11//10
f 23//11 11//11 12//11
f 23//12 12//12 13//12
f 23//13 13//13 14//13
f 14//14 15//14 16//14
f 23//15 14//15 16//15
f 23//16 16//16 17//16
f 23//17 17//17 18//17
f 18//18 19//18 20//18
f 18//19 20//19 21//19
f 18//20 21//20 22//20
f 18//21 22//21 23//21
usemtl assumed_roof
f 46//22 25//22 24//22
f 25//23 27//23 26//23
f 25//24 28//24 27//24
f 25//25 29//25 28//25
f 25//26 30//26 29//26
f 46//27 30//27 25//27
f 46//28 31//28 30//28
f 46//29 32//29 31//29
f 46//30 33//30 32//30
f 46//31 34//31 33//31
f 46//32 35//32 34//32
f 46//33 36//33 35//33
f 46//34 37//34 36//34
f 37//35 39//35 38//35
f 46//36 39//36 37//36
f 46//37 40//37 39//37
f 46//38 41//38 40//38
f 41//39 43//39 42//39
f 41//40 44//40 43//40
f 41//41 45//41 44//41
f 41//42 46//42 45//42
usemtl assumed_wall
f 1//43 25//43 2//43
f 1//44 24//44 25//44
f 2//45 26//45 3//45
f 2//46 25//46 26//46
f 3//47 27//47 4//47
f 3//48 26//48 27//48
f 4//49 28//49 5//49
f 4//50 27//50 28//50
f 5//51 29//51 6//51
f 5//52 28//52 29//52
f 6//53 30//53 7//53
f 6//54 29//54 30//54
f 7//55 31//55 8//55
f 7//56 30//56 31//56
f 8//57 32//57 9//57
f 8//58 31//58 32//58
f 9//59 33//59 10//59
f 9//60 32//60 33//60
f 10//61 34//61 11//61
f 10//62 33//62 34//62
f 11//63 35//63 12//63
f 11//64 34//64 35//64
f 12//65 36//65 13//65
f 12//66 35//66 36//66
f 13//67 37//67 14//67
f 13//68 36//68 37//68
f 14//69 38//69 15//69
f 14//70 37//70 38//70
f 15//71 39//71 16//71
f 15//72 38//72 39//72
f 16//73 40//73 17//73
f 16//74 39//74 40//74
f 17//75 41//75 18//75
f 17//76 40//76 41//76
f 18//77 42//77 19//77
f 18//78 41//78 42//78
f 19//79 43//79 20//79
f 19//80 42//80 43//80
f 20//81 44//81 21//81
f 20//82 43//82 44//82
f 21//83 45//83 22//83
f 21//84 44//84 45//84
f 22//85 46//85 23//85
f 22//86 45//86 46//86
f 23//87 24//87 1//87
f 23//88 46//88 24//88
