# construction_6323_assumed_A_Casa
# source A_Casa
# h_campo 0.000000
# modeled_height 6.000000
# height_kind assumed
# local_origin_world_x 172001.034850
# local_origin_world_y 402500.144600
mtllib construction_artifacts.mtl

o construction_6323_assumed_A_Casa
v -3.426500 -14.924500 0.000000
v -11.099500 13.105500 0.000000
v -6.310500 14.067500 0.000000
v 0.476500 14.924500 0.000000
v 1.499500 11.501500 0.000000
v 2.321500 6.598500 0.000000
v 0.516500 5.473500 0.000000
v 1.015500 3.028500 0.000000
v 7.286500 4.130500 0.000000
v 6.294500 13.133500 0.000000
v 8.851500 13.302500 0.000000
v 10.390500 -3.192500 0.000000
v 9.581500 -3.186500 0.000000
v 11.099500 -14.444500 0.000000
v -3.426500 -14.924500 6.000000
v -11.099500 13.105500 6.000000
v -6.310500 14.067500 6.000000
v 0.476500 14.924500 6.000000
v 1.499500 11.501500 6.000000
v 2.321500 6.598500 6.000000
v 0.516500 5.473500 6.000000
v 1.015500 3.028500 6.000000
v 7.286500 4.130500 6.000000
v 6.294500 13.133500 6.000000
v 8.851500 13.302500 6.000000
v 10.390500 -3.192500 6.000000
v 9.581500 -3.186500 6.000000
v 11.099500 -14.444500 6.000000
vn -0.000000 0.000000 -1.000000
vn 0.000000 0.000000 -1.000000
vn 0.000000 0.000000 -1.000000
vn 0.000000 0.000000 -1.000000
vn 0.000000 0.000000 -1.000000
vn 0.000000 0.000000 -1.000000
vn 0.000000 0.000000 -1.000000
vn 0.000000 0.000000 -1.000000
vn 0.000000 0.000000 -1.000000
vn 0.000000 0.000000 -1.000000
vn 0.000000 0.000000 -1.000000
vn 0.000000 0.000000 -1.000000
vn 0.000000 0.000000 1.000000
vn 0.000000 0.000000 1.000000
vn -0.000000 0.000000 1.000000
vn 0.000000 0.000000 1.000000
vn 0.000000 0.000000 1.000000
vn 0.000000 0.000000 1.000000
vn 0.000000 0.000000 1.000000
vn 0.000000 0.000000 1.000000
vn 0.000000 0.000000 1.000000
vn -0.000000 0.000000 1.000000
vn 0.000000 0.000000 1.000000
vn 0.000000 0.000000 1.000000
vn -0.964515 -0.264029 0.000000
vn -0.964515 -0.264029 0.000000
vn -0.196943 0.980415 0.000000
vn -0.196943 0.980415 0.000000
vn -0.125276 0.992122 0.000000
vn -0.125276 0.992122 0.000000
vn 0.958126 0.286346 0.000000
vn 0.958126 0.286346 -0.000000
vn 0.986236 0.165345 0.000000
vn 0.986236 0.165345 -0.000000
vn 0.528942 -0.848658 0.000000
vn 0.528942 -0.848658 0.000000
vn 0.979802 0.199968 0.000000
vn 0.979802 0.199968 -0.000000
vn -0.173077 0.984908 0.000000
vn -0.173077 0.984908 0.000000
vn -0.993984 -0.109523 0.000000
vn -0.993984 -0.109523 0.000000
vn -0.065949 0.997823 0.000000
vn -0.065949 0.997823 0.000000
vn 0.995676 0.092898 0.000000
vn 0.995676 0.092898 -0.000000
vn -0.007416 -0.999972 0.000000
vn -0.007416 -0.999972 0.000000
vn 0.991032 0.133628 0.000000
vn 0.991032 0.133628 -0.000000
vn 0.033026 -0.999454 0.000000
vn 0.033026 -0.999454 0.000000
usemtl assumed_base
f 14//1 1//1 2//1
f 14//2 2//2 3//2
f 3//3 4//3 5//3
f 3//4 5//4 6//4
f 3//5 6//5 7//5
f 3//6 7//6 8//6
f 14//7 3//7 8//7
f 14//8 8//8 9//8
f 14//9 9//9 10//9
f 10//10 11//10 12//10
f 10//11 12//11 13//11
f 10//12 13//12 14//12
usemtl assumed_roof
f 28//13 16//13 15//13
f 28//14 17//14 16//14
f 17//15 19//15 18//15
f 17//16 20//16 19//16
f 17//17 21//17 20//17
f 17//18 22//18 21//18
f 28//19 22//19 17//19
f 28//20 23//20 22//20
f 28//21 24//21 23//21
f 24//22 26//22 25//22
f 24//23 27//23 26//23
f 24//24 28//24 27//24
usemtl assumed_wall
f 1//25 16//25 2//25
f 1//26 15//26 16//26
f 2//27 17//27 3//27
f 2//28 16//28 17//28
f 3//29 18//29 4//29
f 3//30 17//30 18//30
f 4//31 19//31 5//31
f 4//32 18//32 19//32
f 5//33 20//33 6//33
f 5//34 19//34 20//34
f 6//35 21//35 7//35
f 6//36 20//36 21//36
f 7//37 22//37 8//37
f 7//38 21//38 22//38
f 8//39 23//39 9//39
f 8//40 22//40 23//40
f 9//41 24//41 10//41
f 9//42 23//42 24//42
f 10//43 25//43 11//43
f 10//44 24//44 25//44
f 11//45 26//45 12//45
f 11//46 25//46 26//46
f 12//47 27//47 13//47
f 12//48 26//48 27//48
f 13//49 28//49 14//49
f 13//50 27//50 28//50
f 14//51 15//51 1//51
f 14//52 28//52 15//52
