# construction_0524_assumed_A_Casa
# source A_Casa
# h_campo 0.000000
# modeled_height 6.000000
# height_kind assumed
# local_origin_world_x 172001.034850
# local_origin_world_y 402500.144600
mtllib construction_artifacts.mtl

o construction_0524_assumed_A_Casa
v -7.357500 -3.374500 0.000000
v -12.509500 -13.111500 0.000000
v -17.428500 -12.911500 0.000000
v -15.801500 -6.803500 0.000000
v -12.511500 -1.503500 0.000000
v -7.751500 7.795500 0.000000
v -6.165500 13.663500 0.000000
v -3.638500 22.600500 0.000000
v -0.331500 21.619500 0.000000
v -0.616500 19.734500 0.000000
v 2.550500 18.696500 0.000000
v 0.508500 11.069500 0.000000
v -1.617500 11.859500 0.000000
v -3.535500 7.704500 0.000000
v 17.428500 -2.884500 0.000000
v 12.071500 -13.479500 0.000000
v 9.438500 -12.312500 0.000000
v 8.044500 -14.694500 0.000000
v 3.223500 -11.725500 0.000000
v -2.004500 -22.600500 0.000000
v -11.868500 -17.549500 0.000000
v -5.008500 -3.798500 0.000000
v -3.798500 -4.087500 0.000000
v -2.837500 -2.438500 0.000000
v -7.316500 -0.408500 0.000000
v -8.118500 -3.040500 0.000000
v -7.357500 -3.374500 6.000000
v -12.509500 -13.111500 6.000000
v -17.428500 -12.911500 6.000000
v -15.801500 -6.803500 6.000000
v -12.511500 -1.503500 6.000000
v -7.751500 7.795500 6.000000
v -6.165500 13.663500 6.000000
v -3.638500 22.600500 6.000000
v -0.331500 21.619500 6.000000
v -0.616500 19.734500 6.000000
v 2.550500 18.696500 6.000000
v 0.508500 11.069500 6.000000
v -1.617500 11.859500 6.000000
v -3.535500 7.704500 6.000000
v 17.428500 -2.884500 6.000000
v 12.071500 -13.479500 6.000000
v 9.438500 -12.312500 6.000000
v 8.044500 -14.694500 6.000000
v 3.223500 -11.725500 6.000000
v -2.004500 -22.600500 6.000000
v -11.868500 -17.549500 6.000000
v -5.008500 -3.798500 6.000000
v -3.798500 -4.087500 6.000000
v -2.837500 -2.438500 6.000000
v -7.316500 -0.408500 6.000000
v -8.118500 -3.040500 6.000000
vn 0.000000 -0.000000 -1.000000
vn 0.000000 0.000000 -1.000000
vn 0.000000 0.000000 -1.000000
vn -0.000000 0.000000 -1.000000
vn 0.000000 0.000000 -1.000000
vn 0.000000 0.000000 -1.000000
vn 0.000000 0.000000 -1.000000
vn 0.000000 0.000000 -1.000000
vn 0.000000 0.000000 -1.000000
vn 0.000000 0.000000 -1.000000
vn 0.000000 0.000000 -1.000000
vn 0.000000 0.000000 -1.000000
vn 0.000000 0.000000 -1.000000
vn 0.000000 0.000000 -1.000000
vn 0.000000 0.000000 -1.000000
vn 0.000000 0.000000 -1.000000
vn 0.000000 0.000000 -1.000000
vn -0.000000 0.000000 -1.000000
vn 0.000000 0.000000 -1.000000
vn 0.000000 0.000000 -1.000000
vn 0.000000 0.000000 -1.000000
vn 0.000000 -0.000000 -1.000000
vn 0.000000 -0.000000 -1.000000
vn 0.000000 0.000000 -1.000000
vn 0.000000 0.000000 1.000000
vn 0.000000 0.000000 1.000000
vn 0.000000 0.000000 1.000000
vn 0.000000 0.000000 1.000000
vn 0.000000 -0.000000 1.000000
vn 0.000000 0.000000 1.000000
vn 0.000000 0.000000 1.000000
vn 0.000000 0.000000 1.000000
vn 0.000000 0.000000 1.000000
vn 0.000000 0.000000 1.000000
vn 0.000000 0.000000 1.000000
vn 0.000000 0.000000 1.000000
vn 0.000000 0.000000 1.000000
vn 0.000000 0.000000 1.000000
vn 0.000000 0.000000 1.000000
vn 0.000000 0.000000 1.000000
vn 0.000000 0.000000 1.000000
vn 0.000000 0.000000 1.000000
vn 0.000000 0.000000 1.000000
vn 0.000000 0.000000 1.000000
vn 0.000000 0.000000 1.000000
vn 0.000000 0.000000 1.000000
vn 0.000000 0.000000 1.000000
vn 0.000000 0.000000 1.000000
vn 0.883896 -0.467683 0.000000
vn 0.883896 -0.467683 0.000000
vn -0.040625 -0.999174 0.000000
vn -0.040625 -0.999174 0.000000
vn -0.966306 0.257397 0.000000
vn -0.966306 0.257397 0.000000
vn -0.849615 0.527403 0.000000
vn -0.849615 0.527403 0.000000
vn -0.890156 0.455656 0.000000
vn -0.890156 0.455656 0.000000
vn -0.965361 0.260917 0.000000
vn -0.965361 0.260917 0.000000
vn -0.962272 0.272089 0.000000
vn -0.962272 0.272089 0.000000
vn 0.284394 0.958707 0.000000
vn 0.284394 0.958707 -0.000000
vn 0.988763 -0.149495 0.000000
vn 0.988763 -0.149495 0.000000
vn 0.311453 0.950262 0.000000
vn 0.311453 0.950262 -0.000000
vn 0.965978 -0.258624 0.000000
vn 0.965978 -0.258624 0.000000
vn -0.348319 -0.937376 0.000000
vn -0.348319 -0.937376 0.000000
vn 0.907934 -0.419114 0.000000
vn 0.907934 -0.419114 0.000000
vn 0.450855 0.892597 0.000000
vn 0.450855 0.892597 -0.000000
vn 0.892414 -0.451218 0.000000
vn 0.892414 -0.451218 0.000000
vn -0.405204 -0.914226 0.000000
vn -0.405204 -0.914226 0.000000
vn 0.863068 -0.505087 0.000000
vn 0.863068 -0.505087 0.000000
vn -0.524383 -0.851482 0.000000
vn -0.524383 -0.851482 0.000000
vn 0.901264 -0.433270 0.000000
vn 0.901264 -0.433270 0.000000
vn -0.455783 -0.890091 0.000000
vn -0.455783 -0.890091 0.000000
vn -0.894830 0.446406 0.000000
vn -0.894830 0.446406 0.000000
vn 0.232309 0.972642 0.000000
vn 0.232309 0.972642 -0.000000
vn -0.863988 0.503513 0.000000
vn -0.863988 0.503513 0.000000
vn -0.412807 -0.910819 0.000000
vn -0.412807 -0.910819 0.000000
vn 0.956577 -0.291480 0.000000
vn 0.956577 -0.291480 0.000000
vn 0.401892 0.915687 0.000000
vn 0.401892 0.915687 -0.000000
usemtl assumed_base
f 26//1 1//1 2//1
f 26//2 2//2 3//2
f 26//3 3//3 4//3
f 26//4 4//4 5//4
f 26//5 5//5 6//5
f 26//6 6//6 7//6
f 26//7 7//7 8//7
f 8//8 9//8 10//8
f 10//9 11//9 12//9
f 8//10 10//10 12//10
f 8//11 12//11 13//11
f 8//12 13//12 14//12
f 14//13 15//13 16//13
f 14//14 16//14 17//14
f 14//15 17//15 18//15
f 14//16 18//16 19//16
f 19//17 20//17 21//17
f 19//18 21//18 22//18
f 19//19 22//19 23//19
f 19//20 23//20 24//20
f 14//21 19//21 24//21
f 14//22 24//22 25//22
f 8//23 14//23 25//23
f 8//24 25//24 26//24
usemtl assumed_roof
f 52//25 28//25 27//25
f 52//26 29//26 28//26
f 52//27 30//27 29//27
f 52//28 31//28 30//28
f 52//29 32//29 31//29
f 52//30 33//30 32//30
f 52//31 34//31 33//31
f 34//32 36//32 35//32
f 36//33 38//33 37//33
f 34//34 38//34 36//34
f 34//35 39//35 38//35
f 34//36 40//36 39//36
f 40//37 42//37 41//37
f 40//38 43//38 42//38
f 40//39 44//39 43//39
f 40//40 45//40 44//40
f 45//41 47//41 46//41
f 45//42 48//42 47//42
f 45//43 49//43 48//43
f 45//44 50//44 49//44
f 40//45 50//45 45//45
f 40//46 51//46 50//46
f 34//47 51//47 40//47
f 34//48 52//48 51//48
usemtl assumed_wall
f 1//49 28//49 2//49
f 1//50 27//50 28//50
f 2//51 29//51 3//51
f 2//52 28//52 29//52
f 3//53 30//53 4//53
f 3//54 29//54 30//54
f 4//55 31//55 5//55
f 4//56 30//56 31//56
f 5//57 32//57 6//57
f 5//58 31//58 32//58
f 6//59 33//59 7//59
f 6//60 32//60 33//60
f 7//61 34//61 8//61
f 7//62 33//62 34//62
f 8//63 35//63 9//63
f 8//64 34//64 35//64
f 9//65 36//65 10//65
f 9//66 35//66 36//66
f 10//67 37//67 11//67
f 10//68 36//68 37//68
f 11//69 38//69 12//69
f 11//70 37//70 38//70
f 12//71 39//71 13//71
f 12//72 38//72 39//72
f 13//73 40//73 14//73
f 13//74 39//74 40//74
f 14//75 41//75 15//75
f 14//76 40//76 41//76
f 15//77 42//77 16//77
f 15//78 41//78 42//78
f 16//79 43//79 17//79
f 16//80 42//80 43//80
f 17//81 44//81 18//81
f 17//82 43//82 44//82
f 18//83 45//83 19//83
f 18//84 44//84 45//84
f 19//85 46//85 20//85
f 19//86 45//86 46//86
f 20//87 47//87 21//87
f 20//88 46//88 47//88
f 21//89 48//89 22//89
f 21//90 47//90 48//90
f 22//91 49//91 23//91
f 22//92 48//92 49//92
f 23//93 50//93 24//93
f 23//94 49//94 50//94
f 24//95 51//95 25//95
f 24//96 50//96 51//96
f 25//97 52//97 26//97
f 25//98 51//98 52//98
f 26//99 27//99 1//99
f 26//100 52//100 27//100
