# construction_3930_assumed_A_Casa
# source A_Casa
# h_campo 0.000000
# modeled_height 6.000000
# height_kind assumed
# local_origin_world_x 172001.034850
# local_origin_world_y 402500.144600
mtllib construction_artifacts.mtl

o construction_3930_assumed_A_Casa
v -11.473000 0.347500 0.000000
v -8.510000 7.236500 0.000000
v -1.519000 4.218500 0.000000
v 11.473000 -2.415500 0.000000
v 8.882000 -7.236500 0.000000
v 0.195000 -2.833500 0.000000
v -1.663000 -6.474500 0.000000
v -6.518000 -4.840500 0.000000
v -5.449000 -2.806500 0.000000
v -11.473000 0.347500 6.000000
v -8.510000 7.236500 6.000000
v -1.519000 4.218500 6.000000
v 11.473000 -2.415500 6.000000
v 8.882000 -7.236500 6.000000
v 0.195000 -2.833500 6.000000
v -1.663000 -6.474500 6.000000
v -6.518000 -4.840500 6.000000
v -5.449000 -2.806500 6.000000
vn 0.000000 0.000000 -1.000000
vn 0.000000 0.000000 -1.000000
vn 0.000000 0.000000 -1.000000
vn 0.000000 0.000000 -1.000000
vn 0.000000 0.000000 -1.000000
vn 0.000000 0.000000 -1.000000
vn 0.000000 0.000000 -1.000000
vn 0.000000 0.000000 1.000000
vn 0.000000 -0.000000 1.000000
vn 0.000000 0.000000 1.000000
vn 0.000000 0.000000 1.000000
vn -0.000000 0.000000 1.000000
vn 0.000000 0.000000 1.000000
vn 0.000000 0.000000 1.000000
vn -0.918634 0.395110 0.000000
vn -0.918634 0.395110 0.000000
vn 0.396343 0.918103 0.000000
vn 0.396343 0.918103 -0.000000
vn 0.454766 0.890611 0.000000
vn 0.454766 0.890611 -0.000000
vn 0.880846 -0.473402 0.000000
vn 0.880846 -0.473402 0.000000
vn -0.452094 -0.891970 0.000000
vn -0.452094 -0.891970 0.000000
vn 0.890728 -0.454538 0.000000
vn 0.890728 -0.454538 0.000000
vn -0.318979 -0.947762 0.000000
vn -0.318979 -0.947762 0.000000
vn -0.885192 0.465226 0.000000
vn -0.885192 0.465226 0.000000
vn -0.463842 -0.885918 0.000000
vn -0.463842 -0.885918 0.000000
usemtl assumed_base
f 9//1 1//1 2//1
f 9//2 2//2 3//2
f 9//3 3//3 4//3
f 4//4 5//4 6//4
f 9//5 4//5 6//5
f 9//6 6//6 7//6
f 7//7 8//7 9//7
usemtl assumed_roof
f 18//8 11//8 10//8
f 18//9 12//9 11//9
f 18//10 13//10 12//10
f 13//11 15//11 14//11
f 18//12 15//12 13//12
f 18//13 16//13 15//13
f 16//14 18//14 17//14
usemtl assumed_wall
f 1//15 11//15 2//15
f 1//16 10//16 11//16
f 2//17 12//17 3//17
f 2//18 11//18 12//18
f 3//19 13//19 4//19
f 3//20 12//20 13//20
f 4//21 14//21 5//21
f 4//22 13//22 14//22
f 5//23 15//23 6//23
f 5//24 14//24 15//24
f 6//25 16//25 7//25
f 6//26 15//26 16//26
f 7//27 17//27 8//27
f 7//28 16//28 17//28
f 8//29 18//29 9//29
f 8//30 17//30 18//30
f 9//31 10//31 1//31
f 9//32 18//32 10//32
