# construction_3766_assumed_A_Casa
# source A_Casa
# h_campo 0.000000
# modeled_height 6.000000
# height_kind assumed
# local_origin_world_x 172001.034850
# local_origin_world_y 402500.144600
mtllib construction_artifacts.mtl

o construction_3766_assumed_A_Casa
v -10.301000 1.439000 0.000000
v -9.021000 1.737000 0.000000
v -9.647000 6.953000 0.000000
v 8.265000 9.722000 0.000000
v 10.301000 -0.253000 0.000000
v 5.785000 -1.123000 0.000000
v 6.802000 -7.585000 0.000000
v -6.864000 -9.722000 0.000000
v -7.497000 -5.466000 0.000000
v -9.183000 -5.638000 0.000000
v -10.301000 1.439000 6.000000
v -9.021000 1.737000 6.000000
v -9.647000 6.953000 6.000000
v 8.265000 9.722000 6.000000
v 10.301000 -0.253000 6.000000
v 5.785000 -1.123000 6.000000
v 6.802000 -7.585000 6.000000
v -6.864000 -9.722000 6.000000
v -7.497000 -5.466000 6.000000
v -9.183000 -5.638000 6.000000
vn 0.000000 0.000000 -1.000000
vn 0.000000 0.000000 -1.000000
vn 0.000000 0.000000 -1.000000
vn 0.000000 -0.000000 -1.000000
vn 0.000000 0.000000 -1.000000
vn 0.000000 -0.000000 -1.000000
vn 0.000000 0.000000 -1.000000
vn 0.000000 0.000000 -1.000000
vn 0.000000 -0.000000 1.000000
vn 0.000000 -0.000000 1.000000
vn 0.000000 0.000000 1.000000
vn 0.000000 0.000000 1.000000
vn 0.000000 0.000000 1.000000
vn 0.000000 0.000000 1.000000
vn 0.000000 0.000000 1.000000
vn 0.000000 0.000000 1.000000
vn -0.226749 0.973953 0.000000
vn -0.226749 0.973953 0.000000
vn -0.992875 -0.119160 0.000000
vn -0.992875 -0.119160 0.000000
vn -0.152774 0.988261 0.000000
vn -0.152774 0.988261 0.000000
vn 0.979799 0.199987 0.000000
vn 0.979799 0.199987 -0.000000
vn 0.189170 -0.981944 0.000000
vn 0.189170 -0.981944 0.000000
vn 0.987841 0.155468 0.000000
vn 0.987841 0.155468 -0.000000
vn 0.154496 -0.987993 0.000000
vn 0.154496 -0.987993 0.000000
vn -0.989120 -0.147113 0.000000
vn -0.989120 -0.147113 0.000000
vn 0.101490 -0.994837 0.000000
vn 0.101490 -0.994837 0.000000
vn -0.987751 -0.156041 0.000000
vn -0.987751 -0.156041 0.000000
usemtl assumed_base
f 10//1 1//1 2//1
f 2//2 3//2 4//2
f 10//3 2//3 4//3
f 4//4 5//4 6//4
f 10//5 4//5 6//5
f 6//6 7//6 8//6
f 6//7 8//7 9//7
f 6//8 9//8 10//8
usemtl assumed_roof
f 20//9 12//9 11//9
f 12//10 14//10 13//10
f 20//11 14//11 12//11
f 14//12 16//12 15//12
f 20//13 16//13 14//13
f 16//14 18//14 17//14
f 16//15 19//15 18//15
f 16//16 20//16 19//16
usemtl assumed_wall
f 1//17 12//17 2//17
f 1//18 11//18 12//18
f 2//19 13//19 3//19
f 2//20 12//20 13//20
f 3//21 14//21 4//21
f 3//22 13//22 14//22
f 4//23 15//23 5//23
f 4//24 14//24 15//24
f 5//25 16//25 6//25
f 5//26 15//26 16//26
f 6//27 17//27 7//27
f 6//28 16//28 17//28
f 7//29 18//29 8//29
f 7//30 17//30 18//30
f 8//31 19//31 9//31
f 8//32 18//32 19//32
f 9//33 20//33 10//33
f 9//34 19//34 20//34
f 10//35 11//35 1//35
f 10//36 20//36 11//36
