# construction_6851_assumed_A_Casa
# source A_Casa
# h_campo 0.000000
# modeled_height 6.000000
# height_kind assumed
# local_origin_world_x 172001.034850
# local_origin_world_y 402500.144600
mtllib construction_artifacts.mtl

o construction_6851_assumed_A_Casa
v -6.959500 7.429000 0.000000
v 3.634500 7.406000 0.000000
v 3.623500 4.379000 0.000000
v 6.959500 4.120000 0.000000
v 6.083500 -7.429000 0.000000
v 1.266500 -6.948000 0.000000
v 1.269500 -6.145000 0.000000
v -5.707500 -5.394000 0.000000
v -6.959500 7.429000 6.000000
v 3.634500 7.406000 6.000000
v 3.623500 4.379000 6.000000
v 6.959500 4.120000 6.000000
v 6.083500 -7.429000 6.000000
v 1.266500 -6.948000 6.000000
v 1.269500 -6.145000 6.000000
v -5.707500 -5.394000 6.000000
vn 0.000000 0.000000 -1.000000
vn 0.000000 0.000000 -1.000000
vn 0.000000 0.000000 -1.000000
vn 0.000000 0.000000 -1.000000
vn 0.000000 0.000000 -1.000000
vn 0.000000 0.000000 -1.000000
vn 0.000000 -0.000000 1.000000
vn 0.000000 0.000000 1.000000
vn 0.000000 0.000000 1.000000
vn 0.000000 0.000000 1.000000
vn 0.000000 0.000000 1.000000
vn 0.000000 0.000000 1.000000
vn 0.002171 0.999998 0.000000
vn 0.002171 0.999998 -0.000000
vn 0.999993 -0.003634 0.000000
vn 0.999993 -0.003634 0.000000
vn 0.077405 0.997000 0.000000
vn 0.077405 0.997000 -0.000000
vn 0.997136 -0.075633 0.000000
vn 0.997136 -0.075633 0.000000
vn -0.099361 -0.995051 0.000000
vn -0.099361 -0.995051 0.000000
vn -0.999993 0.003736 0.000000
vn -0.999993 0.003736 0.000000
vn -0.107021 -0.994257 0.000000
vn -0.107021 -0.994257 0.000000
vn -0.995267 -0.097175 0.000000
vn -0.995267 -0.097175 0.000000
usemtl assumed_base
f 8//1 1//1 2//1
f 8//2 2//2 3//2
f 8//3 3//3 4//3
f 4//4 5//4 6//4
f 4//5 6//5 7//5
f 4//6 7//6 8//6
usemtl assumed_roof
f 16//7 10//7 9//7
f 16//8 11//8 10//8
f 16//9 12//9 11//9
f 12//10 14//10 13//10
f 12//11 15//11 14//11
f 12//12 16//12 15//12
usemtl assumed_wall
f 1//13 10//13 2//13
f 1//14 9//14 10//14
f 2//15 11//15 3//15
f 2//16 10//16 11//16
f 3//17 12//17 4//17
f 3//18 11//18 12//18
f 4//19 13//19 5//19
f 4//20 12//20 13//20
f 5//21 14//21 6//21
f 5//22 13//22 14//22
f 6//23 15//23 7//23
f 6//24 14//24 15//24
f 7//25 16//25 8//25
f 7//26 15//26 16//26
f 8//27 9//27 1//27
f 8//28 16//28 9//28
