# construction_1066_assumed_A_Casa
# source A_Casa
# h_campo 0.000000
# modeled_height 6.000000
# height_kind assumed
# local_origin_world_x 172001.034850
# local_origin_world_y 402500.144600
mtllib construction_artifacts.mtl

o construction_1066_assumed_A_Casa
v -11.282500 -5.452500 0.000000
v -9.209500 8.285500 0.000000
v -3.015500 7.119500 0.000000
v -2.551500 8.740500 0.000000
v 5.029500 7.058500 0.000000
v 4.901500 5.809500 0.000000
v 11.282500 4.526500 0.000000
v 8.751500 -8.740500 0.000000
v -11.282500 -5.452500 6.000000
v -9.209500 8.285500 6.000000
v -3.015500 7.119500 6.000000
v -2.551500 8.740500 6.000000
v 5.029500 7.058500 6.000000
v 4.901500 5.809500 6.000000
v 11.282500 4.526500 6.000000
v 8.751500 -8.740500 6.000000
vn 0.000000 0.000000 -1.000000
vn 0.000000 0.000000 -1.000000
vn 0.000000 0.000000 -1.000000
vn 0.000000 0.000000 -1.000000
vn 0.000000 0.000000 -1.000000
vn 0.000000 0.000000 -1.000000
vn 0.000000 0.000000 1.000000
vn 0.000000 0.000000 1.000000
vn 0.000000 0.000000 1.000000
vn 0.000000 0.000000 1.000000
vn 0.000000 0.000000 1.000000
vn 0.000000 0.000000 1.000000
vn -0.988806 0.149206 0.000000
vn -0.988806 0.149206 0.000000
vn 0.184997 0.982739 0.000000
vn 0.184997 0.982739 -0.000000
vn -0.961390 0.275191 0.000000
vn -0.961390 0.275191 0.000000
vn 0.216603 0.976260 0.000000
vn 0.216603 0.976260 -0.000000
vn 0.994790 -0.101948 0.000000
vn 0.994790 -0.101948 0.000000
vn 0.197121 0.980379 0.000000
vn 0.197121 0.980379 -0.000000
vn 0.982285 -0.187394 0.000000
vn 0.982285 -0.187394 0.000000
vn -0.161954 -0.986798 0.000000
vn -0.161954 -0.986798 0.000000
usemtl assumed_base
f 8//1 1//1 2//1
f 8//2 2//2 3//2
f 8//3 3//3 4//3
f 4//4 5//4 6//4
f 8//5 4//5 6//5
f 6//6 7//6 8//6
usemtl assumed_roof
f 16//7 10//7 9//7
f 16//8 11//8 10//8
f 16//9 12//9 11//9
f 12//10 14//10 13//10
f 16//11 14//11 12//11
f 14//12 16//12 15//12
usemtl assumed_wall
f 1//13 10//13 2//13
f 1//14 9//14 10//14
f 2//15 11//15 3//15
f 2//16 10//16 11//16
f 3//17 12//17 4//17
f 3//18 11//18 12//18
f 4//19 13//19 5//19
f 4//20 12//20 13//20
f 5//21 14//21 6//21
f 5//22 13//22 14//22
f 6//23 15//23 7//23
f 6//24 14//24 15//24
f 7//25 16//25 8//25
f 7//26 15//26 16//26
f 8//27 9//27 1//27
f 8//28 16//28 9//28
