# construction_6397_assumed_A_Casa
# source A_Casa
# h_campo 0.000000
# modeled_height 6.000000
# height_kind assumed
# local_origin_world_x 172001.034850
# local_origin_world_y 402500.144600
mtllib construction_artifacts.mtl

o construction_6397_assumed_A_Casa
v -9.599000 -7.590000 0.000000
v -3.375000 -5.841000 0.000000
v -3.652000 -4.964000 0.000000
v -7.869000 -6.107000 0.000000
v -10.182000 2.066000 0.000000
v -11.473000 1.443000 0.000000
v -15.258000 12.366000 0.000000
v -10.527000 13.686000 0.000000
v -1.645000 16.808000 0.000000
v 0.345000 16.806000 0.000000
v 1.784000 13.154000 0.000000
v -1.111000 10.129000 0.000000
v -2.180000 12.449000 0.000000
v -4.676000 11.464000 0.000000
v -5.030000 12.493000 0.000000
v -9.483000 10.878000 0.000000
v -7.211000 5.606000 0.000000
v -6.233000 5.605000 0.000000
v -4.928000 2.551000 0.000000
v -0.795000 4.648000 0.000000
v 0.325000 2.783000 0.000000
v 4.905000 4.178000 0.000000
v 6.968000 0.011000 0.000000
v 10.797000 1.585000 0.000000
v 15.258000 -8.318000 0.000000
v 3.145000 -13.975000 0.000000
v 3.937000 -15.274000 0.000000
v 0.909000 -16.216000 0.000000
v 0.142000 -14.925000 0.000000
v -7.111000 -16.808000 0.000000
v -9.599000 -7.590000 6.000000
v -3.375000 -5.841000 6.000000
v -3.652000 -4.964000 6.000000
v -7.869000 -6.107000 6.000000
v -10.182000 2.066000 6.000000
v -11.473000 1.443000 6.000000
v -15.258000 12.366000 6.000000
v -10.527000 13.686000 6.000000
v -1.645000 16.808000 6.000000
v 0.345000 16.806000 6.000000
v 1.784000 13.154000 6.000000
v -1.111000 10.129000 6.000000
v -2.180000 12.449000 6.000000
v -4.676000 11.464000 6.000000
v -5.030000 12.493000 6.000000
v -9.483000 10.878000 6.000000
v -7.211000 5.606000 6.000000
v -6.233000 5.605000 6.000000
v -4.928000 2.551000 6.000000
v -0.795000 4.648000 6.000000
v 0.325000 2.783000 6.000000
v 4.905000 4.178000 6.000000
v 6.968000 0.011000 6.000000
v 10.797000 1.585000 6.000000
v 15.258000 -8.318000 6.000000
v 3.145000 -13.975000 6.000000
v 3.937000 -15.274000 6.000000
v 0.909000 -16.216000 6.000000
v 0.142000 -14.925000 6.000000
v -7.111000 -16.808000 6.000000
vn 0.000000 0.000000 -1.000000
vn -0.000000 0.000000 -1.000000
vn -0.000000 0.000000 -1.000000
vn 0.000000 0.000000 -1.000000
vn 0.000000 0.000000 -1.000000
vn 0.000000 0.000000 -1.000000
vn 0.000000 0.000000 -1.000000
vn 0.000000 0.000000 -1.000000
vn 0.000000 0.000000 -1.000000
vn -0.000000 0.000000 -1.000000
vn 0.000000 0.000000 -1.000000
vn 0.000000 0.000000 -1.000000
vn 0.000000 0.000000 -1.000000
vn 0.000000 0.000000 -1.000000
vn 0.000000 0.000000 -1.000000
vn 0.000000 0.000000 -1.000000
vn 0.000000 0.000000 -1.000000
vn 0.000000 0.000000 -1.000000
vn 0.000000 0.000000 -1.000000
vn 0.000000 0.000000 -1.000000
vn 0.000000 0.000000 -1.000000
vn 0.000000 0.000000 -1.000000
vn 0.000000 0.000000 -1.000000
vn 0.000000 0.000000 -1.000000
vn 0.000000 0.000000 -1.000000
vn 0.000000 -0.000000 -1.000000
vn 0.000000 0.000000 -1.000000
vn 0.000000 0.000000 -1.000000
vn 0.000000 -0.000000 1.000000
vn 0.000000 0.000000 1.000000
vn 0.000000 0.000000 1.000000
vn 0.000000 0.000000 1.000000
vn 0.000000 0.000000 1.000000
vn 0.000000 0.000000 1.000000
vn -0.000000 0.000000 1.000000
vn 0.000000 0.000000 1.000000
vn 0.000000 0.000000 1.000000
vn 0.000000 0.000000 1.000000
vn 0.000000 0.000000 1.000000
vn 0.000000 0.000000 1.000000
vn 0.000000 0.000000 1.000000
vn 0.000000 0.000000 1.000000
vn 0.000000 0.000000 1.000000
vn 0.000000 0.000000 1.000000
vn 0.000000 0.000000 1.000000
vn 0.000000 -0.000000 1.000000
vn 0.000000 0.000000 1.000000
vn 0.000000 0.000000 1.000000
vn 0.000000 0.000000 1.000000
vn 0.000000 0.000000 1.000000
vn 0.000000 0.000000 1.000000
vn 0.000000 0.000000 1.000000
vn 0.000000 0.000000 1.000000
vn 0.000000 0.000000 1.000000
vn 0.000000 0.000000 1.000000
vn 0.000000 0.000000 1.000000
vn -0.270531 0.962711 0.000000
vn -0.270531 0.962711 0.000000
vn -0.953566 -0.301183 0.000000
vn -0.953566 -0.301183 0.000000
vn 0.261606 -0.965175 0.000000
vn 0.261606 -0.965175 0.000000
vn -0.962210 -0.272310 0.000000
vn -0.962210 -0.272310 0.000000
vn 0.434612 -0.900618 0.000000
vn 0.434612 -0.900618 0.000000
vn -0.944880 -0.327417 0.000000
vn -0.944880 -0.327417 0.000000
vn -0.268746 0.963211 0.000000
vn -0.268746 0.963211 0.000000
vn -0.331609 0.943417 0.000000
vn -0.331609 0.943417 0.000000
vn 0.001005 0.999999 0.000000
vn 0.001005 0.999999 -0.000000
vn 0.930379 0.366598 0.000000
vn 0.930379 0.366598 -0.000000
vn 0.722460 -0.691412 0.000000
vn 0.722460 -0.691412 0.000000
vn -0.908223 -0.418487 0.000000
vn -0.908223 -0.418487 0.000000
vn 0.367082 -0.930189 0.000000
vn 0.367082 -0.930189 0.000000
vn -0.945607 -0.325311 0.000000
vn -0.945607 -0.325311 0.000000
vn 0.340946 -0.940083 0.000000
vn 0.340946 -0.940083 0.000000
vn 0.918350 0.395769 0.000000
vn 0.918350 0.395769 -0.000000
vn 0.001022 0.999999 0.000000
vn 0.001022 0.999999 -0.000000
vn 0.919565 0.392938 0.000000
vn 0.919565 0.392938 -0.000000
vn -0.452471 0.891779 0.000000
vn -0.452471 0.891779 0.000000
vn 0.857290 0.514834 0.000000
vn 0.857290 0.514834 -0.000000
vn -0.291369 0.956611 0.000000
vn -0.291369 0.956611 0.000000
vn 0.896184 0.443683 0.000000
vn 0.896184 0.443683 -0.000000
vn -0.380203 0.924903 0.000000
vn -0.380203 0.924903 0.000000
vn 0.911761 0.410721 0.000000
vn 0.911761 0.410721 -0.000000
vn 0.423148 -0.906061 0.000000
vn 0.423148 -0.906061 0.000000
vn 0.853818 0.520572 0.000000
vn 0.853818 0.520572 -0.000000
vn 0.297054 -0.954861 0.000000
vn 0.297054 -0.954861 0.000000
vn -0.859718 -0.510770 0.000000
vn -0.859718 -0.510770 0.000000
vn 0.251286 -0.967913 0.000000
vn 0.251286 -0.967913 0.000000
vn -0.965452 -0.260582 0.000000
vn -0.965452 -0.260582 0.000000
usemtl assumed_base
f 30//1 1//1 2//1
f 3//2 4//2 5//2
f 5//3 6//3 7//3
f 3//4 5//4 7//4
f 3//5 7//5 8//5
f 8//6 9//6 10//6
f 8//7 10//7 11//7
f 11//8 12//8 13//8
f 8//9 11//9 13//9
f 13//10 14//10 15//10
f 8//11 13//11 15//11
f 8//12 15//12 16//12
f 3//13 8//13 16//13
f 3//14 16//14 17//14
f 3//15 17//15 18//15
f 2//16 3//16 18//16
f 2//17 18//17 19//17
f 2//18 19//18 20//18
f 2//19 20//19 21//19
f 30//20 2//20 21//20
f 30//21 21//21 22//21
f 30//22 22//22 23//22
f 30//23 23//23 24//23
f 30//24 24//24 25//24
f 30//25 25//25 26//25
f 26//26 27//26 28//26
f 26//27 28//27 29//27
f 26//28 29//28 30//28
usemtl assumed_roof
f 60//29 32//29 31//29
f 33//30 35//30 34//30
f 35//31 37//31 36//31
f 33//32 37//32 35//32
f 33//33 38//33 37//33
f 38//34 40//34 39//34
f 38//35 41//35 40//35
f 41//36 43//36 42//36
f 38//37 43//37 41//37
f 43//38 45//38 44//38
f 38//39 45//39 43//39
f 38//40 46//40 45//40
f 33//41 46//41 38//41
f 33//42 47//42 46//42
f 33//43 48//43 47//43
f 32//44 48//44 33//44
f 32//45 49//45 48//45
f 32//46 50//46 49//46
f 32//47 51//47 50//47
f 60//48 51//48 32//48
f 60//49 52//49 51//49
f 60//50 53//50 52//50
f 60//51 54//51 53//51
f 60//52 55//52 54//52
f 60//53 56//53 55//53
f 56//54 58//54 57//54
f 56//55 59//55 58//55
f 56//56 60//56 59//56
usemtl assumed_wall
f 1//57 32//57 2//57
f 1//58 31//58 32//58
f 2//59 33//59 3//59
f 2//60 32//60 33//60
f 3//61 34//61 4//61
f 3//62 33//62 34//62
f 4//63 35//63 5//63
f 4//64 34//64 35//64
f 5//65 36//65 6//65
f 5//66 35//66 36//66
f 6//67 37//67 7//67
f 6//68 36//68 37//68
f 7//69 38//69 8//69
f 7//70 37//70 38//70
f 8//71 39//71 9//71
f 8//72 38//72 39//72
f 9//73 40//73 10//73
f 9//74 39//74 40//74
f 10//75 41//75 11//75
f 10//76 40//76 41//76
f 11//77 42//77 12//77
f 11//78 41//78 42//78
f 12//79 43//79 13//79
f 12//80 42//80 43//80
f 13//81 44//81 14//81
f 13//82 43//82 44//82
f 14//83 45//83 15//83
f 14//84 44//84 45//84
f 15//85 46//85 16//85
f 15//86 45//86 46//86
f 16//87 47//87 17//87
f 16//88 46//88 47//88
f 17//89 48//89 18//89
f 17//90 47//90 48//90
f 18//91 49//91 19//91
f 18//92 48//92 49//92
f 19//93 50//93 20//93
f 19//94 49//94 50//94
f 20//95 51//95 21//95
f 20//96 50//96 51//96
f 21//97 52//97 22//97
f 21//98 51//98 52//98
f 22//99 53//99 23//99
f 22//100 52//100 53//100
f 23//101 54//101 24//101
f 23//102 53//102 54//102
f 24//103 55//103 25//103
f 24//104 54//104 55//104
f 25//105 56//105 26//105
f 25//106 55//106 56//106
f 26//107 57//107 27//107
f 26//108 56//108 57//108
f 27//109 58//109 28//109
f 27//110 57//110 58//110
f 28//111 59//111 29//111
f 28//112 58//112 59//112
f 29//113 60//113 30//113
f 29//114 59//114 60//114
f 30//115 31//115 1//115
f 30//116 60//116 31//116
