# construction_4055_assumed_A_Casa
# source A_Casa
# h_campo 0.000000
# modeled_height 6.000000
# height_kind assumed
# local_origin_world_x 172001.034850
# local_origin_world_y 402500.144600
mtllib construction_artifacts.mtl

o construction_4055_assumed_A_Casa
v -30.160500 -19.693500 0.000000
v -22.881500 -16.153500 0.000000
v -23.468500 -14.883500 0.000000
v -15.854500 -11.078500 0.000000
v -16.969500 -9.177500 0.000000
v -0.166500 5.362500 0.000000
v -0.742500 7.046500 0.000000
v 4.403500 11.241500 0.000000
v 5.354500 9.831500 0.000000
v 23.003500 24.574500 0.000000
v 27.375500 26.096500 0.000000
v 30.160500 19.872500 0.000000
v 25.799500 18.556500 0.000000
v -26.687500 -26.096500 0.000000
v -30.160500 -19.693500 6.000000
v -22.881500 -16.153500 6.000000
v -23.468500 -14.883500 6.000000
v -15.854500 -11.078500 6.000000
v -16.969500 -9.177500 6.000000
v -0.166500 5.362500 6.000000
v -0.742500 7.046500 6.000000
v 4.403500 11.241500 6.000000
v 5.354500 9.831500 6.000000
v 23.003500 24.574500 6.000000
v 27.375500 26.096500 6.000000
v 30.160500 19.872500 6.000000
v 25.799500 18.556500 6.000000
v -26.687500 -26.096500 6.000000
vn 0.000000 0.000000 -1.000000
vn 0.000000 0.000000 -1.000000
vn 0.000000 0.000000 -1.000000
vn 0.000000 0.000000 -1.000000
vn 0.000000 0.000000 -1.000000
vn 0.000000 0.000000 -1.000000
vn 0.000000 0.000000 -1.000000
vn 0.000000 0.000000 -1.000000
vn 0.000000 0.000000 -1.000000
vn 0.000000 0.000000 -1.000000
vn 0.000000 -0.000000 -1.000000
vn 0.000000 0.000000 -1.000000
vn 0.000000 -0.000000 1.000000
vn 0.000000 -0.000000 1.000000
vn 0.000000 0.000000 1.000000
vn 0.000000 -0.000000 1.000000
vn 0.000000 0.000000 1.000000
vn 0.000000 -0.000000 1.000000
vn 0.000000 0.000000 1.000000
vn 0.000000 0.000000 1.000000
vn 0.000000 0.000000 1.000000
vn 0.000000 0.000000 1.000000
vn 0.000000 0.000000 1.000000
vn 0.000000 0.000000 1.000000
vn -0.437352 0.899290 0.000000
vn -0.437352 0.899290 0.000000
vn -0.907729 -0.419557 0.000000
vn -0.907729 -0.419557 0.000000
vn -0.447026 0.894521 0.000000
vn -0.447026 0.894521 0.000000
vn -0.862575 -0.505929 0.000000
vn -0.862575 -0.505929 0.000000
vn -0.654350 0.756192 0.000000
vn -0.654350 0.756192 0.000000
vn -0.946182 -0.323635 0.000000
vn -0.946182 -0.323635 0.000000
vn -0.631851 0.775090 0.000000
vn -0.631851 0.775090 0.000000
vn 0.829053 0.559170 0.000000
vn 0.829053 0.559170 -0.000000
vn -0.641095 0.767462 0.000000
vn -0.641095 0.767462 0.000000
vn -0.328772 0.944409 0.000000
vn -0.328772 0.944409 0.000000
vn 0.912787 0.408437 0.000000
vn 0.912787 0.408437 -0.000000
vn 0.288898 -0.957360 0.000000
vn 0.288898 -0.957360 0.000000
vn 0.647977 -0.761660 0.000000
vn 0.647977 -0.761660 0.000000
vn -0.879021 -0.476783 0.000000
vn -0.879021 -0.476783 0.000000
usemtl assumed_base
f 14//1 1//1 2//1
f 2//2 3//2 4//2
f 14//3 2//3 4//3
f 4//4 5//4 6//4
f 14//5 4//5 6//5
f 6//6 7//6 8//6
f 6//7 8//7 9//7
f 14//8 6//8 9//8
f 14//9 9//9 10//9
f 14//10 10//10 11//10
f 11//11 12//11 13//11
f 11//12 13//12 14//12
usemtl assumed_roof
f 28//13 16//13 15//13
f 16//14 18//14 17//14
f 28//15 18//15 16//15
f 18//16 20//16 19//16
f 28//17 20//17 18//17
f 20//18 22//18 21//18
f 20//19 23//19 22//19
f 28//20 23//20 20//20
f 28//21 24//21 23//21
f 28//22 25//22 24//22
f 25//23 27//23 26//23
f 25//24 28//24 27//24
usemtl assumed_wall
f 1//25 16//25 2//25
f 1//26 15//26 16//26
f 2//27 17//27 3//27
f 2//28 16//28 17//28
f 3//29 18//29 4//29
f 3//30 17//30 18//30
f 4//31 19//31 5//31
f 4//32 18//32 19//32
f 5//33 20//33 6//33
f 5//34 19//34 20//34
f 6//35 21//35 7//35
f 6//36 20//36 21//36
f 7//37 22//37 8//37
f 7//38 21//38 22//38
f 8//39 23//39 9//39
f 8//40 22//40 23//40
f 9//41 24//41 10//41
f 9//42 23//42 24//42
f 10//43 25//43 11//43
f 10//44 24//44 25//44
f 11//45 26//45 12//45
f 11//46 25//46 26//46
f 12//47 27//47 13//47
f 12//48 26//48 27//48
f 13//49 28//49 14//49
f 13//50 27//50 28//50
f 14//51 15//51 1//51
f 14//52 28//52 15//52
