# construction_5068_assumed_A_Casa
# source A_Casa
# h_campo 0.000000
# modeled_height 6.000000
# height_kind assumed
# local_origin_world_x 172001.034850
# local_origin_world_y 402500.144600
mtllib construction_artifacts.mtl

o construction_5068_assumed_A_Casa
v -14.374000 0.206500 0.000000
v -12.762000 1.015500 0.000000
v -12.392000 5.626500 0.000000
v -13.893000 5.155500 0.000000
v -13.957000 17.802500 0.000000
v -6.160000 18.221500 0.000000
v -3.394000 16.085500 0.000000
v -3.551000 8.229500 0.000000
v -7.789000 6.872500 0.000000
v -7.190000 2.505500 0.000000
v -5.533000 2.752500 0.000000
v -4.172000 -2.427500 0.000000
v 0.165000 -1.365500 0.000000
v 0.669000 -3.863500 0.000000
v 2.790000 -3.572500 0.000000
v 3.134000 -4.919500 0.000000
v 12.398000 -2.610500 0.000000
v 14.374000 -9.851500 0.000000
v 8.591000 -11.257500 0.000000
v 8.954000 -13.602500 0.000000
v -9.559000 -18.221500 0.000000
v -14.374000 0.206500 6.000000
v -12.762000 1.015500 6.000000
v -12.392000 5.626500 6.000000
v -13.893000 5.155500 6.000000
v -13.957000 17.802500 6.000000
v -6.160000 18.221500 6.000000
v -3.394000 16.085500 6.000000
v -3.551000 8.229500 6.000000
v -7.789000 6.872500 6.000000
v -7.190000 2.505500 6.000000
v -5.533000 2.752500 6.000000
v -4.172000 -2.427500 6.000000
v 0.165000 -1.365500 6.000000
v 0.669000 -3.863500 6.000000
v 2.790000 -3.572500 6.000000
v 3.134000 -4.919500 6.000000
v 12.398000 -2.610500 6.000000
v 14.374000 -9.851500 6.000000
v 8.591000 -11.257500 6.000000
v 8.954000 -13.602500 6.000000
v -9.559000 -18.221500 6.000000
vn 0.000000 0.000000 -1.000000
vn 0.000000 0.000000 -1.000000
vn -0.000000 0.000000 -1.000000
vn 0.000000 0.000000 -1.000000
vn 0.000000 0.000000 -1.000000
vn 0.000000 0.000000 -1.000000
vn 0.000000 0.000000 -1.000000
vn 0.000000 0.000000 -1.000000
vn 0.000000 0.000000 -1.000000
vn 0.000000 0.000000 -1.000000
vn 0.000000 0.000000 -1.000000
vn 0.000000 0.000000 -1.000000
vn 0.000000 0.000000 -1.000000
vn 0.000000 0.000000 -1.000000
vn 0.000000 0.000000 -1.000000
vn 0.000000 0.000000 -1.000000
vn 0.000000 -0.000000 -1.000000
vn 0.000000 0.000000 -1.000000
vn 0.000000 -0.000000 -1.000000
vn 0.000000 0.000000 1.000000
vn 0.000000 0.000000 1.000000
vn 0.000000 0.000000 1.000000
vn 0.000000 -0.000000 1.000000
vn 0.000000 0.000000 1.000000
vn 0.000000 0.000000 1.000000
vn 0.000000 0.000000 1.000000
vn 0.000000 -0.000000 1.000000
vn 0.000000 0.000000 1.000000
vn 0.000000 0.000000 1.000000
vn 0.000000 0.000000 1.000000
vn 0.000000 0.000000 1.000000
vn 0.000000 0.000000 1.000000
vn 0.000000 0.000000 1.000000
vn 0.000000 0.000000 1.000000
vn 0.000000 0.000000 1.000000
vn 0.000000 0.000000 1.000000
vn 0.000000 0.000000 1.000000
vn 0.000000 0.000000 1.000000
vn -0.448544 0.893761 0.000000
vn -0.448544 0.893761 0.000000
vn -0.996796 0.079986 0.000000
vn -0.996796 0.079986 0.000000
vn 0.299397 -0.954129 0.000000
vn 0.299397 -0.954129 0.000000
vn -0.999987 -0.005060 0.000000
vn -0.999987 -0.005060 0.000000
vn -0.053661 0.998559 0.000000
vn -0.053661 0.998559 0.000000
vn 0.611203 0.791474 0.000000
vn 0.611203 0.791474 -0.000000
vn 0.999800 -0.019981 0.000000
vn 0.999800 -0.019981 0.000000
vn 0.304947 -0.952369 0.000000
vn 0.304947 -0.952369 0.000000
vn 0.990724 0.135893 0.000000
vn 0.990724 0.135893 -0.000000
vn -0.147436 0.989072 0.000000
vn -0.147436 0.989072 0.000000
vn 0.967174 0.254116 0.000000
vn 0.967174 0.254116 -0.000000
vn -0.237843 0.971304 0.000000
vn -0.237843 0.971304 0.000000
vn 0.980247 0.197776 0.000000
vn 0.980247 0.197776 -0.000000
vn -0.135926 0.990719 0.000000
vn -0.135926 0.990719 0.000000
vn 0.968903 0.247441 0.000000
vn 0.968903 0.247441 -0.000000
vn -0.241846 0.970315 0.000000
vn -0.241846 0.970315 0.000000
vn 0.964724 0.263264 0.000000
vn 0.964724 0.263264 -0.000000
vn 0.236244 -0.971694 0.000000
vn 0.236244 -0.971694 0.000000
vn 0.988230 0.152975 0.000000
vn 0.988230 0.152975 -0.000000
vn 0.242079 -0.970256 0.000000
vn 0.242079 -0.970256 0.000000
vn -0.967519 -0.252800 0.000000
vn -0.967519 -0.252800 0.000000
usemtl assumed_base
f 21//1 1//1 2//1
f 21//2 2//2 3//2
f 3//3 4//3 5//3
f 3//4 5//4 6//4
f 3//5 6//5 7//5
f 3//6 7//6 8//6
f 3//7 8//7 9//7
f 21//8 3//8 9//8
f 21//9 9//9 10//9
f 21//10 10//10 11//10
f 21//11 11//11 12//11
f 21//12 12//12 13//12
f 21//13 13//13 14//13
f 21//14 14//14 15//14
f 21//15 15//15 16//15
f 21//16 16//16 17//16
f 17//17 18//17 19//17
f 21//18 17//18 19//18
f 19//19 20//19 21//19
usemtl assumed_roof
f 42//20 23//20 22//20
f 42//21 24//21 23//21
f 24//22 26//22 25//22
f 24//23 27//23 26//23
f 24//24 28//24 27//24
f 24//25 29//25 28//25
f 24//26 30//26 29//26
f 42//27 30//27 24//27
f 42//28 31//28 30//28
f 42//29 32//29 31//29
f 42//30 33//30 32//30
f 42//31 34//31 33//31
f 42//32 35//32 34//32
f 42//33 36//33 35//33
f 42//34 37//34 36//34
f 42//35 38//35 37//35
f 38//36 40//36 39//36
f 42//37 40//37 38//37
f 40//38 42//38 41//38
usemtl assumed_wall
f 1//39 23//39 2//39
f 1//40 22//40 23//40
f 2//41 24//41 3//41
f 2//42 23//42 24//42
f 3//43 25//43 4//43
f 3//44 24//44 25//44
f 4//45 26//45 5//45
f 4//46 25//46 26//46
f 5//47 27//47 6//47
f 5//48 26//48 27//48
f 6//49 28//49 7//49
f 6//50 27//50 28//50
f 7//51 29//51 8//51
f 7//52 28//52 29//52
f 8//53 30//53 9//53
f 8//54 29//54 30//54
f 9//55 31//55 10//55
f 9//56 30//56 31//56
f 10//57 32//57 11//57
f 10//58 31//58 32//58
f 11//59 33//59 12//59
f 11//60 32//60 33//60
f 12//61 34//61 13//61
f 12//62 33//62 34//62
f 13//63 35//63 14//63
f 13//64 34//64 35//64
f 14//65 36//65 15//65
f 14//66 35//66 36//66
f 15//67 37//67 16//67
f 15//68 36//68 37//68
f 16//69 38//69 17//69
f 16//70 37//70 38//70
f 17//71 39//71 18//71
f 17//72 38//72 39//72
f 18//73 40//73 19//73
f 18//74 39//74 40//74
f 19//75 41//75 20//75
f 19//76 40//76 41//76
f 20//77 42//77 21//77
f 20//78 41//78 42//78
f 21//79 22//79 1//79
f 21//80 42//80 22//80
