# construction_4103_assumed_A_Casa
# source A_Casa
# h_campo 0.000000
# modeled_height 6.000000
# height_kind assumed
# local_origin_world_x 172001.034850
# local_origin_world_y 402500.144600
mtllib construction_artifacts.mtl

o construction_4103_assumed_A_Casa
v -10.585000 4.015000 0.000000
v -0.873000 10.696000 0.000000
v 4.223000 3.931000 0.000000
v 6.245000 2.263000 0.000000
v 9.165000 -1.066000 0.000000
v 10.585000 -4.923000 0.000000
v 6.444000 -6.734000 0.000000
v 7.672000 -9.375000 0.000000
v 4.108000 -10.696000 0.000000
v 2.638000 -7.447000 0.000000
v -2.796000 -9.270000 0.000000
v -3.389000 -7.467000 0.000000
v -5.804000 -2.792000 0.000000
v -10.585000 4.015000 6.000000
v -0.873000 10.696000 6.000000
v 4.223000 3.931000 6.000000
v 6.245000 2.263000 6.000000
v 9.165000 -1.066000 6.000000
v 10.585000 -4.923000 6.000000
v 6.444000 -6.734000 6.000000
v 7.672000 -9.375000 6.000000
v 4.108000 -10.696000 6.000000
v 2.638000 -7.447000 6.000000
v -2.796000 -9.270000 6.000000
v -3.389000 -7.467000 6.000000
v -5.804000 -2.792000 6.000000
vn 0.000000 0.000000 -1.000000
vn 0.000000 0.000000 -1.000000
vn 0.000000 0.000000 -1.000000
vn 0.000000 0.000000 -1.000000
vn 0.000000 0.000000 -1.000000
vn 0.000000 0.000000 -1.000000
vn 0.000000 0.000000 -1.000000
vn -0.000000 0.000000 -1.000000
vn 0.000000 0.000000 -1.000000
vn 0.000000 0.000000 -1.000000
vn -0.000000 0.000000 -1.000000
vn 0.000000 -0.000000 1.000000
vn 0.000000 0.000000 1.000000
vn 0.000000 0.000000 1.000000
vn 0.000000 0.000000 1.000000
vn -0.000000 0.000000 1.000000
vn 0.000000 0.000000 1.000000
vn 0.000000 0.000000 1.000000
vn 0.000000 0.000000 1.000000
vn 0.000000 0.000000 1.000000
vn 0.000000 0.000000 1.000000
vn 0.000000 0.000000 1.000000
vn -0.566759 0.823883 0.000000
vn -0.566759 0.823883 0.000000
vn 0.798737 0.601680 0.000000
vn 0.798737 0.601680 -0.000000
vn 0.636349 0.771401 0.000000
vn 0.636349 0.771401 -0.000000
vn 0.751779 0.659415 0.000000
vn 0.751779 0.659415 -0.000000
vn 0.938422 0.345491 0.000000
vn 0.938422 0.345491 -0.000000
vn 0.400691 -0.916213 0.000000
vn 0.400691 -0.916213 0.000000
vn 0.906770 0.421626 0.000000
vn 0.906770 0.421626 -0.000000
vn 0.347546 -0.937663 0.000000
vn 0.347546 -0.937663 0.000000
vn -0.911085 -0.412218 0.000000
vn -0.911085 -0.412218 0.000000
vn 0.318059 -0.948071 0.000000
vn 0.318059 -0.948071 0.000000
vn -0.949940 -0.312432 0.000000
vn -0.949940 -0.312432 0.000000
vn -0.888458 -0.458958 0.000000
vn -0.888458 -0.458958 0.000000
vn -0.818322 -0.574761 0.000000
vn -0.818322 -0.574761 0.000000
usemtl assumed_base
f 13//1 1//1 2//1
f 13//2 2//2 3//2
f 13//3 3//3 4//3
f 13//4 4//4 5//4
f 13//5 5//5 6//5
f 13//6 6//6 7//6
f 13//7 7//7 8//7
f 8//8 9//8 10//8
f 13//9 8//9 10//9
f 10//10 11//10 12//10
f 10//11 12//11 13//11
usemtl assumed_roof
f 26//12 15//12 14//12
f 26//13 16//13 15//13
f 26//14 17//14 16//14
f 26//15 18//15 17//15
f 26//16 19//16 18//16
f 26//17 20//17 19//17
f 26//18 21//18 20//18
f 21//19 23//19 22//19
f 26//20 23//20 21//20
f 23//21 25//21 24//21
f 23//22 26//22 25//22
usemtl assumed_wall
f 1//23 15//23 2//23
f 1//24 14//24 15//24
f 2//25 16//25 3//25
f 2//26 15//26 16//26
f 3//27 17//27 4//27
f 3//28 16//28 17//28
f 4//29 18//29 5//29
f 4//30 17//30 18//30
f 5//31 19//31 6//31
f 5//32 18//32 19//32
f 6//33 20//33 7//33
f 6//34 19//34 20//34
f 7//35 21//35 8//35
f 7//36 20//36 21//36
f 8//37 22//37 9//37
f 8//38 21//38 22//38
f 9//39 23//39 10//39
f 9//40 22//40 23//40
f 10//41 24//41 11//41
f 10//42 23//42 24//42
f 11//43 25//43 12//43
f 11//44 24//44 25//44
f 12//45 26//45 13//45
f 12//46 25//46 26//46
f 13//47 14//47 1//47
f 13//48 26//48 14//48
