# construction_4379_assumed_A_Casa
# source A_Casa
# h_campo 0.000000
# modeled_height 6.000000
# height_kind assumed
# local_origin_world_x 172001.034850
# local_origin_world_y 402500.144600
mtllib construction_artifacts.mtl

o construction_4379_assumed_A_Casa
v 3.786000 -3.182000 0.000000
v 5.061000 -4.297000 0.000000
v 5.930000 -3.237000 0.000000
v 11.350000 -9.892000 0.000000
v 4.236000 -14.131000 0.000000
v 9.079000 -19.978000 0.000000
v -5.868000 -31.788000 0.000000
v -12.721000 -24.134000 0.000000
v -10.098000 -22.007000 0.000000
v -12.000000 -19.681000 0.000000
v -11.083000 -18.906000 0.000000
v -13.230000 -16.549000 0.000000
v -8.874000 -13.326000 0.000000
v -20.413000 -0.201000 0.000000
v -15.739000 3.799000 0.000000
v -9.553000 -3.478000 0.000000
v -6.743000 -1.204000 0.000000
v -9.351000 1.577000 0.000000
v -7.193000 2.889000 0.000000
v -14.140000 12.185000 0.000000
v -13.697000 12.489000 0.000000
v -15.842000 15.514000 0.000000
v -9.197000 21.131000 0.000000
v -6.815000 18.164000 0.000000
v -3.148000 21.213000 0.000000
v 2.911000 14.044000 0.000000
v 4.843000 15.681000 0.000000
v -0.077000 21.941000 0.000000
v 1.116000 22.990000 0.000000
v 0.216000 24.626000 0.000000
v 8.406000 30.366000 0.000000
v 9.486000 29.379000 0.000000
v 13.496000 31.788000 0.000000
v 20.413000 22.078000 0.000000
v 13.345000 16.964000 0.000000
v 17.547000 10.923000 0.000000
v 12.647000 6.747000 0.000000
v 15.468000 2.726000 0.000000
v 12.650000 0.884000 0.000000
v 7.806000 6.151000 0.000000
v 4.710000 3.681000 0.000000
v 3.593000 4.973000 0.000000
v -0.854000 1.395000 0.000000
v 3.136000 -3.367000 0.000000
v 3.786000 -3.182000 6.000000
v 5.061000 -4.297000 6.000000
v 5.930000 -3.237000 6.000000
v 11.350000 -9.892000 6.000000
v 4.236000 -14.131000 6.000000
v 9.079000 -19.978000 6.000000
v -5.868000 -31.788000 6.000000
v -12.721000 -24.134000 6.000000
v -10.098000 -22.007000 6.000000
v -12.000000 -19.681000 6.000000
v -11.083000 -18.906000 6.000000
v -13.230000 -16.549000 6.000000
v -8.874000 -13.326000 6.000000
v -20.413000 -0.201000 6.000000
v -15.739000 3.799000 6.000000
v -9.553000 -3.478000 6.000000
v -6.743000 -1.204000 6.000000
v -9.351000 1.577000 6.000000
v -7.193000 2.889000 6.000000
v -14.140000 12.185000 6.000000
v -13.697000 12.489000 6.000000
v -15.842000 15.514000 6.000000
v -9.197000 21.131000 6.000000
v -6.815000 18.164000 6.000000
v -3.148000 21.213000 6.000000
v 2.911000 14.044000 6.000000
v 4.843000 15.681000 6.000000
v -0.077000 21.941000 6.000000
v 1.116000 22.990000 6.000000
v 0.216000 24.626000 6.000000
v 8.406000 30.366000 6.000000
v 9.486000 29.379000 6.000000
v 13.496000 31.788000 6.000000
v 20.413000 22.078000 6.000000
v 13.345000 16.964000 6.000000
v 17.547000 10.923000 6.000000
v 12.647000 6.747000 6.000000
v 15.468000 2.726000 6.000000
v 12.650000 0.884000 6.000000
v 7.806000 6.151000 6.000000
v 4.710000 3.681000 6.000000
v 3.593000 4.973000 6.000000
v -0.854000 1.395000 6.000000
v 3.136000 -3.367000 6.000000
vn 0.000000 0.000000 -1.000000
vn 0.000000 0.000000 -1.000000
vn 0.000000 0.000000 -1.000000
vn 0.000000 0.000000 -1.000000
vn 0.000000 -0.000000 -1.000000
vn 0.000000 -0.000000 -1.000000
vn 0.000000 0.000000 -1.000000
vn 0.000000 0.000000 -1.000000
vn 0.000000 0.000000 -1.000000
vn 0.000000 0.000000 -1.000000
vn 0.000000 0.000000 -1.000000
vn 0.000000 0.000000 -1.000000
vn 0.000000 0.000000 -1.000000
vn 0.000000 0.000000 -1.000000
vn 0.000000 0.000000 -1.000000
vn -0.000000 0.000000 -1.000000
vn 0.000000 0.000000 -1.000000
vn 0.000000 0.000000 -1.000000
vn 0.000000 0.000000 -1.000000
vn 0.000000 0.000000 -1.000000
vn 0.000000 0.000000 -1.000000
vn 0.000000 0.000000 -1.000000
vn 0.000000 0.000000 -1.000000
vn 0.000000 0.000000 -1.000000
vn 0.000000 0.000000 -1.000000
vn 0.000000 0.000000 -1.000000
vn 0.000000 0.000000 -1.000000
vn 0.000000 0.000000 -1.000000
vn 0.000000 0.000000 -1.000000
vn 0.000000 0.000000 -1.000000
vn 0.000000 0.000000 -1.000000
vn 0.000000 0.000000 -1.000000
vn 0.000000 0.000000 -1.000000
vn 0.000000 0.000000 -1.000000
vn 0.000000 0.000000 -1.000000
vn 0.000000 0.000000 -1.000000
vn 0.000000 -0.000000 -1.000000
vn 0.000000 0.000000 -1.000000
vn 0.000000 0.000000 -1.000000
vn 0.000000 0.000000 -1.000000
vn 0.000000 0.000000 -1.000000
vn 0.000000 0.000000 -1.000000
vn -0.000000 0.000000 1.000000
vn -0.000000 0.000000 1.000000
vn 0.000000 0.000000 1.000000
vn 0.000000 0.000000 1.000000
vn 0.000000 0.000000 1.000000
vn 0.000000 0.000000 1.000000
vn 0.000000 0.000000 1.000000
vn 0.000000 0.000000 1.000000
vn 0.000000 0.000000 1.000000
vn 0.000000 0.000000 1.000000
vn 0.000000 -0.000000 1.000000
vn 0.000000 0.000000 1.000000
vn 0.000000 0.000000 1.000000
vn 0.000000 0.000000 1.000000
vn 0.000000 0.000000 1.000000
vn 0.000000 0.000000 1.000000
vn 0.000000 0.000000 1.000000
vn 0.000000 0.000000 1.000000
vn 0.000000 0.000000 1.000000
vn 0.000000 0.000000 1.000000
vn 0.000000 0.000000 1.000000
vn 0.000000 0.000000 1.000000
vn -0.000000 0.000000 1.000000
vn -0.000000 0.000000 1.000000
vn 0.000000 0.000000 1.000000
vn 0.000000 -0.000000 1.000000
vn 0.000000 -0.000000 1.000000
vn 0.000000 0.000000 1.000000
vn 0.000000 0.000000 1.000000
vn 0.000000 0.000000 1.000000
vn 0.000000 0.000000 1.000000
vn 0.000000 0.000000 1.000000
vn -0.000000 0.000000 1.000000
vn 0.000000 0.000000 1.000000
vn 0.000000 0.000000 1.000000
vn 0.000000 0.000000 1.000000
vn 0.000000 0.000000 1.000000
vn 0.000000 0.000000 1.000000
vn 0.000000 0.000000 1.000000
vn 0.000000 0.000000 1.000000
vn 0.000000 0.000000 1.000000
vn 0.000000 0.000000 1.000000
vn 0.658296 0.752760 0.000000
vn 0.658296 0.752760 -0.000000
vn -0.773339 0.633992 0.000000
vn -0.773339 0.633992 0.000000
vn 0.775383 0.631491 0.000000
vn 0.775383 0.631491 -0.000000
vn 0.511883 -0.859055 0.000000
vn 0.511883 -0.859055 0.000000
vn 0.770129 0.637888 0.000000
vn 0.770129 0.637888 -0.000000
vn 0.619959 -0.784634 0.000000
vn 0.619959 -0.784634 0.000000
vn -0.745015 -0.667048 0.000000
vn -0.745015 -0.667048 0.000000
vn -0.629845 0.776721 0.000000
vn -0.629845 0.776721 0.000000
vn -0.774135 -0.633020 0.000000
vn -0.774135 -0.633020 0.000000
vn -0.645494 0.763765 0.000000
vn -0.645494 0.763765 0.000000
vn -0.739273 -0.673406 0.000000
vn -0.739273 -0.673406 0.000000
vn -0.594791 0.803881 0.000000
vn -0.594791 0.803881 0.000000
vn -0.751026 -0.660273 0.000000
vn -0.751026 -0.660273 0.000000
vn -0.650202 0.759761 0.000000
vn -0.650202 0.759761 0.000000
vn 0.761911 0.647682 0.000000
vn 0.761911 0.647682 -0.000000
vn -0.629071 0.777348 0.000000
vn -0.629071 0.777348 0.000000
vn -0.729431 -0.684055 0.000000
vn -0.729431 -0.684055 0.000000
vn -0.519495 0.854474 0.000000
vn -0.519495 0.854474 0.000000
vn -0.801033 -0.598620 0.000000
vn -0.801033 -0.598620 0.000000
vn -0.565818 0.824530 0.000000
vn -0.565818 0.824530 0.000000
vn -0.815733 -0.578429 0.000000
vn -0.815733 -0.578429 0.000000
vn -0.645561 0.763709 0.000000
vn -0.645561 0.763709 0.000000
vn 0.779791 0.626040 0.000000
vn 0.779791 0.626040 -0.000000
vn -0.639338 0.768926 0.000000
vn -0.639338 0.768926 0.000000
vn 0.763758 0.645503 0.000000
vn 0.763758 0.645503 -0.000000
vn -0.646455 0.762952 0.000000
vn -0.646455 0.762952 0.000000
vn -0.786231 -0.617932 0.000000
vn -0.786231 -0.617932 0.000000
vn -0.660330 0.750976 0.000000
vn -0.660330 0.750976 0.000000
vn -0.876171 -0.482001 0.000000
vn -0.876171 -0.482001 0.000000
vn -0.573932 0.818903 0.000000
vn -0.573932 0.818903 0.000000
vn 0.674610 0.738175 0.000000
vn 0.674610 0.738175 -0.000000
vn -0.514967 0.857210 0.000000
vn -0.514967 0.857210 0.000000
vn 0.814475 0.580198 0.000000
vn 0.814475 0.580198 -0.000000
vn 0.586193 -0.810171 0.000000
vn 0.586193 -0.810171 0.000000
vn 0.820933 0.571025 0.000000
vn 0.820933 0.571025 -0.000000
vn 0.648640 -0.761096 0.000000
vn 0.648640 -0.761096 0.000000
vn 0.818629 0.574323 0.000000
vn 0.818629 0.574323 -0.000000
vn 0.547137 -0.837043 0.000000
vn 0.547137 -0.837043 0.000000
vn -0.736045 -0.676932 0.000000
vn -0.736045 -0.676932 0.000000
vn 0.623648 -0.781706 0.000000
vn 0.623648 -0.781706 0.000000
vn -0.756481 -0.654016 0.000000
vn -0.756481 -0.654016 0.000000
vn 0.626872 -0.779122 0.000000
vn 0.626872 -0.779122 0.000000
vn 0.766503 0.642240 0.000000
vn 0.766503 0.642240 -0.000000
vn -0.273744 0.961803 0.000000
vn -0.273744 0.961803 0.000000
usemtl assumed_base
f 44//1 1//1 2//1
f 2//2 3//2 4//2
f 44//3 2//3 4//3
f 44//4 4//4 5//4
f 5//5 6//5 7//5
f 44//6 5//6 7//6
f 7//7 8//7 9//7
f 44//8 7//8 9//8
f 9//9 10//9 11//9
f 44//10 9//10 11//10
f 11//11 12//11 13//11
f 44//12 11//12 13//12
f 13//13 14//13 15//13
f 13//14 15//14 16//14
f 44//15 13//15 16//15
f 44//16 16//16 17//16
f 44//17 17//17 18//17
f 44//18 18//18 19//18
f 44//19 19//19 20//19
f 44//20 20//20 21//20
f 44//21 21//21 22//21
f 22//22 23//22 24//22
f 24//23 25//23 26//23
f 22//24 24//24 26//24
f 27//25 28//25 29//25
f 29//26 30//26 31//26
f 27//27 29//27 31//27
f 27//28 31//28 32//28
f 27//29 32//29 33//29
f 27//30 33//30 34//30
f 26//31 27//31 34//31
f 26//32 34//32 35//32
f 26//33 35//33 36//33
f 22//34 26//34 36//34
f 22//35 36//35 37//35
f 37//36 38//36 39//36
f 37//37 39//37 40//37
f 22//38 37//38 40//38
f 40//39 41//39 42//39
f 22//40 40//40 42//40
f 22//41 42//41 43//41
f 22//42 43//42 44//42
usemtl assumed_roof
f 88//43 46//43 45//43
f 46//44 48//44 47//44
f 88//45 48//45 46//45
f 88//46 49//46 48//46
f 49//47 51//47 50//47
f 88//48 51//48 49//48
f 51//49 53//49 52//49
f 88//50 53//50 51//50
f 53//51 55//51 54//51
f 88//52 55//52 53//52
f 55//53 57//53 56//53
f 88//54 57//54 55//54
f 57//55 59//55 58//55
f 57//56 60//56 59//56
f 88//57 60//57 57//57
f 88//58 61//58 60//58
f 88//59 62//59 61//59
f 88//60 63//60 62//60
f 88//61 64//61 63//61
f 88//62 65//62 64//62
f 88//63 66//63 65//63
f 66//64 68//64 67//64
f 68//65 70//65 69//65
f 66//66 70//66 68//66
f 71//67 73//67 72//67
f 73//68 75//68 74//68
f 71//69 75//69 73//69
f 71//70 76//70 75//70
f 71//71 77//71 76//71
f 71//72 78//72 77//72
f 70//73 78//73 71//73
f 70//74 79//74 78//74
f 70//75 80//75 79//75
f 66//76 80//76 70//76
f 66//77 81//77 80//77
f 81//78 83//78 82//78
f 81//79 84//79 83//79
f 66//80 84//80 81//80
f 84//81 86//81 85//81
f 66//82 86//82 84//82
f 66//83 87//83 86//83
f 66//84 88//84 87//84
usemtl assumed_wall
f 1//85 46//85 2//85
f 1//86 45//86 46//86
f 2//87 47//87 3//87
f 2//88 46//88 47//88
f 3//89 48//89 4//89
f 3//90 47//90 48//90
f 4//91 49//91 5//91
f 4//92 48//92 49//92
f 5//93 50//93 6//93
f 5//94 49//94 50//94
f 6//95 51//95 7//95
f 6//96 50//96 51//96
f 7//97 52//97 8//97
f 7//98 51//98 52//98
f 8//99 53//99 9//99
f 8//100 52//100 53//100
f 9//101 54//101 10//101
f 9//102 53//102 54//102
f 10//103 55//103 11//103
f 10//104 54//104 55//104
f 11//105 56//105 12//105
f 11//106 55//106 56//106
f 12//107 57//107 13//107
f 12//108 56//108 57//108
f 13//109 58//109 14//109
f 13//110 57//110 58//110
f 14//111 59//111 15//111
f 14//112 58//112 59//112
f 15//113 60//113 16//113
f 15//114 59//114 60//114
f 16//115 61//115 17//115
f 16//116 60//116 61//116
f 17//117 62//117 18//117
f 17//118 61//118 62//118
f 18//119 63//119 19//119
f 18//120 62//120 63//120
f 19//121 64//121 20//121
f 19//122 63//122 64//122
f 20//123 65//123 21//123
f 20//124 64//124 65//124
f 21//125 66//125 22//125
f 21//126 65//126 66//126
f 22//127 67//127 23//127
f 22//128 66//128 67//128
f 23//129 68//129 24//129
f 23//130 67//130 68//130
f 24//131 69//131 25//131
f 24//132 68//132 69//132
f 25//133 70//133 26//133
f 25//134 69//134 70//134
f 26//135 71//135 27//135
f 26//136 70//136 71//136
f 27//137 72//137 28//137
f 27//138 71//138 72//138
f 28//139 73//139 29//139
f 28//140 72//140 73//140
f 29//141 74//141 30//141
f 29//142 73//142 74//142
f 30//143 75//143 31//143
f 30//144 74//144 75//144
f 31//145 76//145 32//145
f 31//146 75//146 76//146
f 32//147 77//147 33//147
f 32//148 76//148 77//148
f 33//149 78//149 34//149
f 33//150 77//150 78//150
f 34//151 79//151 35//151
f 34//152 78//152 79//152
f 35//153 80//153 36//153
f 35//154 79//154 80//154
f 36//155 81//155 37//155
f 36//156 80//156 81//156
f 37//157 82//157 38//157
f 37//158 81//158 82//158
f 38//159 83//159 39//159
f 38//160 82//160 83//160
f 39//161 84//161 40//161
f 39//162 83//162 84//162
f 40//163 85//163 41//163
f 40//164 84//164 85//164
f 41//165 86//165 42//165
f 41//166 85//166 86//166
f 42//167 87//167 43//167
f 42//168 86//168 87//168
f 43//169 88//169 44//169
f 43//170 87//170 88//170
f 44//171 45//171 1//171
f 44//172 88//172 45//172
