# construction_4384_assumed_A_Casa
# source A_Casa
# h_campo 0.000000
# modeled_height 6.000000
# height_kind assumed
# local_origin_world_x 172001.034850
# local_origin_world_y 402500.144600
mtllib construction_artifacts.mtl

o construction_4384_assumed_A_Casa
v -10.079500 3.455000 0.000000
v -3.467500 10.588000 0.000000
v -0.857500 7.869000 0.000000
v 0.944500 9.710000 0.000000
v 3.208500 7.353000 0.000000
v 0.888500 5.482000 0.000000
v 10.079500 -2.596000 0.000000
v 2.516500 -10.588000 0.000000
v -10.079500 3.455000 6.000000
v -3.467500 10.588000 6.000000
v -0.857500 7.869000 6.000000
v 0.944500 9.710000 6.000000
v 3.208500 7.353000 6.000000
v 0.888500 5.482000 6.000000
v 10.079500 -2.596000 6.000000
v 2.516500 -10.588000 6.000000
vn 0.000000 0.000000 -1.000000
vn 0.000000 0.000000 -1.000000
vn 0.000000 0.000000 -1.000000
vn 0.000000 0.000000 -1.000000
vn 0.000000 0.000000 -1.000000
vn 0.000000 0.000000 -1.000000
vn 0.000000 0.000000 1.000000
vn 0.000000 0.000000 1.000000
vn -0.000000 0.000000 1.000000
vn 0.000000 0.000000 1.000000
vn 0.000000 0.000000 1.000000
vn 0.000000 0.000000 1.000000
vn -0.733383 0.679816 0.000000
vn -0.733383 0.679816 0.000000
vn 0.721419 0.692499 0.000000
vn 0.721419 0.692499 -0.000000
vn -0.714636 0.699497 0.000000
vn -0.714636 0.699497 0.000000
vn 0.721192 0.692736 0.000000
vn 0.721192 0.692736 -0.000000
vn 0.627759 -0.778408 0.000000
vn 0.627759 -0.778408 0.000000
vn 0.660164 0.751122 0.000000
vn 0.660164 0.751122 -0.000000
vn 0.726332 -0.687344 0.000000
vn 0.726332 -0.687344 0.000000
vn -0.744419 -0.667713 0.000000
vn -0.744419 -0.667713 0.000000
usemtl assumed_base
f 8//1 1//1 2//1
f 8//2 2//2 3//2
f 3//3 4//3 5//3
f 3//4 5//4 6//4
f 8//5 3//5 6//5
f 6//6 7//6 8//6
usemtl assumed_roof
f 16//7 10//7 9//7
f 16//8 11//8 10//8
f 11//9 13//9 12//9
f 11//10 14//10 13//10
f 16//11 14//11 11//11
f 14//12 16//12 15//12
usemtl assumed_wall
f 1//13 10//13 2//13
f 1//14 9//14 10//14
f 2//15 11//15 3//15
f 2//16 10//16 11//16
f 3//17 12//17 4//17
f 3//18 11//18 12//18
f 4//19 13//19 5//19
f 4//20 12//20 13//20
f 5//21 14//21 6//21
f 5//22 13//22 14//22
f 6//23 15//23 7//23
f 6//24 14//24 15//24
f 7//25 16//25 8//25
f 7//26 15//26 16//26
f 8//27 9//27 1//27
f 8//28 16//28 9//28
