# construction_6482_assumed_A_Casa
# source A_Casa
# h_campo 0.000000
# modeled_height 6.000000
# height_kind assumed
# local_origin_world_x 172001.034850
# local_origin_world_y 402500.144600
mtllib construction_artifacts.mtl

o construction_6482_assumed_A_Casa
v -71.750500 -43.013000 0.000000
v -65.397500 43.986000 0.000000
v 33.257500 36.059000 0.000000
v 41.756500 36.101000 0.000000
v 41.764500 41.907000 0.000000
v 71.750500 40.009000 0.000000
v 68.869500 -20.564000 0.000000
v 34.768500 -30.487000 0.000000
v 39.087500 16.168000 0.000000
v 34.862500 18.727000 0.000000
v 8.479500 21.212000 0.000000
v 6.271500 0.028000 0.000000
v 1.135500 -34.792000 0.000000
v -16.292500 -32.490000 0.000000
v -17.886500 -39.783000 0.000000
v -29.137500 -43.368000 0.000000
v -54.063500 -43.986000 0.000000
v -71.750500 -43.013000 6.000000
v -65.397500 43.986000 6.000000
v 33.257500 36.059000 6.000000
v 41.756500 36.101000 6.000000
v 41.764500 41.907000 6.000000
v 71.750500 40.009000 6.000000
v 68.869500 -20.564000 6.000000
v 34.768500 -30.487000 6.000000
v 39.087500 16.168000 6.000000
v 34.862500 18.727000 6.000000
v 8.479500 21.212000 6.000000
v 6.271500 0.028000 6.000000
v 1.135500 -34.792000 6.000000
v -16.292500 -32.490000 6.000000
v -17.886500 -39.783000 6.000000
v -29.137500 -43.368000 6.000000
v -54.063500 -43.986000 6.000000
v -51.547500 -23.826000 0.000000
v -26.302500 -26.279000 0.000000
v -24.298500 5.149000 0.000000
v -12.450500 3.348000 0.000000
v -10.680500 21.040000 0.000000
v -47.653500 24.117000 0.000000
v -51.547500 -23.826000 6.000000
v -26.302500 -26.279000 6.000000
v -24.298500 5.149000 6.000000
v -12.450500 3.348000 6.000000
v -10.680500 21.040000 6.000000
v -47.653500 24.117000 6.000000
vn 0.000000 0.000000 -1.000000
vn 0.000000 0.000000 -1.000000
vn 0.000000 0.000000 -1.000000
vn 0.000000 0.000000 -1.000000
vn -0.000000 0.000000 -1.000000
vn 0.000000 0.000000 -1.000000
vn 0.000000 0.000000 -1.000000
vn 0.000000 0.000000 -1.000000
vn 0.000000 0.000000 -1.000000
vn 0.000000 0.000000 -1.000000
vn 0.000000 0.000000 -1.000000
vn 0.000000 0.000000 -1.000000
vn 0.000000 0.000000 -1.000000
vn 0.000000 0.000000 -1.000000
vn 0.000000 0.000000 -1.000000
vn 0.000000 -0.000000 -1.000000
vn 0.000000 0.000000 -1.000000
vn 0.000000 0.000000 -1.000000
vn 0.000000 0.000000 -1.000000
vn 0.000000 0.000000 1.000000
vn 0.000000 0.000000 1.000000
vn -0.000000 0.000000 1.000000
vn -0.000000 0.000000 1.000000
vn 0.000000 0.000000 1.000000
vn 0.000000 0.000000 1.000000
vn 0.000000 0.000000 1.000000
vn 0.000000 0.000000 1.000000
vn 0.000000 0.000000 1.000000
vn 0.000000 -0.000000 1.000000
vn 0.000000 0.000000 1.000000
vn 0.000000 0.000000 1.000000
vn 0.000000 0.000000 1.000000
vn 0.000000 0.000000 1.000000
vn 0.000000 0.000000 1.000000
vn 0.000000 0.000000 1.000000
vn 0.000000 0.000000 1.000000
vn 0.000000 0.000000 1.000000
vn 0.000000 -0.000000 1.000000
vn -0.997344 0.072830 0.000000
vn -0.997344 0.072830 0.000000
vn 0.080093 0.996787 0.000000
vn 0.080093 0.996787 -0.000000
vn -0.004942 0.999988 0.000000
vn -0.004942 0.999988 0.000000
vn -0.999999 0.001378 0.000000
vn -0.999999 0.001378 0.000000
vn 0.063170 0.998003 0.000000
vn 0.063170 0.998003 -0.000000
vn 0.998871 -0.047509 0.000000
vn 0.998871 -0.047509 0.000000
vn 0.279400 -0.960175 0.000000
vn 0.279400 -0.960175 0.000000
vn -0.995742 0.092179 0.000000
vn -0.995742 0.092179 0.000000
vn -0.518064 -0.855342 0.000000
vn -0.518064 -0.855342 0.000000
vn -0.093774 -0.995593 0.000000
vn -0.093774 -0.995593 0.000000
vn 0.994612 -0.103668 0.000000
vn 0.994612 -0.103668 0.000000
vn 0.989296 -0.145923 0.000000
vn 0.989296 -0.145923 0.000000
vn -0.130949 -0.991389 0.000000
vn -0.130949 -0.991389 0.000000
vn 0.976938 -0.213525 0.000000
vn 0.976938 -0.213525 0.000000
vn 0.303599 -0.952800 0.000000
vn 0.303599 -0.952800 0.000000
vn 0.024786 -0.999693 0.000000
vn 0.024786 -0.999693 0.000000
vn -0.054929 -0.998490 0.000000
vn -0.054929 -0.998490 0.000000
vn -0.096712 -0.995312 0.000000
vn -0.096712 -0.995312 0.000000
vn 0.997973 -0.063636 0.000000
vn 0.997973 -0.063636 0.000000
vn -0.150282 -0.988643 0.000000
vn -0.150282 -0.988643 0.000000
vn 0.995033 -0.099548 0.000000
vn 0.995033 -0.099548 0.000000
vn 0.082936 0.996555 0.000000
vn 0.082936 0.996555 -0.000000
vn -0.996718 0.080955 0.000000
vn -0.996718 0.080955 0.000000
usemtl assumed_base
f 17//1 1//1 2//1
f 4//2 5//2 6//2
f 4//3 6//3 7//3
f 3//4 4//4 7//4
f 7//5 8//5 9//5
f 3//6 7//6 9//6
f 3//7 9//7 10//7
f 2//8 3//8 10//8
f 2//9 10//9 11//9
f 17//10 2//10 11//10
f 17//11 11//11 12//11
f 12//12 13//12 14//12
f 17//13 12//13 14//13
f 17//14 14//14 15//14
f 15//15 16//15 17//15
f 40//16 36//16 35//16
f 40//17 37//17 36//17
f 40//18 38//18 37//18
f 38//19 40//19 39//19
usemtl assumed_roof
f 34//20 19//20 18//20
f 21//21 23//21 22//21
f 21//22 24//22 23//22
f 20//23 24//23 21//23
f 24//24 26//24 25//24
f 20//25 26//25 24//25
f 20//26 27//26 26//26
f 19//27 27//27 20//27
f 19//28 28//28 27//28
f 34//29 28//29 19//29
f 34//30 29//30 28//30
f 29//31 31//31 30//31
f 34//32 31//32 29//32
f 34//33 32//33 31//33
f 32//34 34//34 33//34
f 46//35 41//35 42//35
f 46//36 42//36 43//36
f 46//37 43//37 44//37
f 44//38 45//38 46//38
usemtl assumed_wall
f 1//39 19//39 2//39
f 1//40 18//40 19//40
f 2//41 20//41 3//41
f 2//42 19//42 20//42
f 3//43 21//43 4//43
f 3//44 20//44 21//44
f 4//45 22//45 5//45
f 4//46 21//46 22//46
f 5//47 23//47 6//47
f 5//48 22//48 23//48
f 6//49 24//49 7//49
f 6//50 23//50 24//50
f 7//51 25//51 8//51
f 7//52 24//52 25//52
f 8//53 26//53 9//53
f 8//54 25//54 26//54
f 9//55 27//55 10//55
f 9//56 26//56 27//56
f 10//57 28//57 11//57
f 10//58 27//58 28//58
f 11//59 29//59 12//59
f 11//60 28//60 29//60
f 12//61 30//61 13//61
f 12//62 29//62 30//62
f 13//63 31//63 14//63
f 13//64 30//64 31//64
f 14//65 32//65 15//65
f 14//66 31//66 32//66
f 15//67 33//67 16//67
f 15//68 32//68 33//68
f 16//69 34//69 17//69
f 16//70 33//70 34//70
f 17//71 18//71 1//71
f 17//72 34//72 18//72
f 35//73 36//73 42//73
f 35//74 42//74 41//74
f 36//75 37//75 43//75
f 36//76 43//76 42//76
f 37//77 38//77 44//77
f 37//78 44//78 43//78
f 38//79 39//79 45//79
f 38//80 45//80 44//80
f 39//81 40//81 46//81
f 39//82 46//82 45//82
f 40//83 35//83 41//83
f 40//84 41//84 46//84
