# construction_5499_assumed_A_Casa
# source A_Casa
# h_campo 0.000000
# modeled_height 6.000000
# height_kind assumed
# local_origin_world_x 172001.034850
# local_origin_world_y 402500.144600
mtllib construction_artifacts.mtl

o construction_5499_assumed_A_Casa
v -16.470000 -4.851000 0.000000
v -13.454000 12.770000 0.000000
v -0.088000 10.712000 0.000000
v -1.559000 3.681000 0.000000
v 1.082000 1.425000 0.000000
v 3.903000 1.008000 0.000000
v 9.548000 4.286000 0.000000
v 11.595000 1.142000 0.000000
v 12.808000 2.056000 0.000000
v 16.470000 -3.922000 0.000000
v 10.343000 -6.365000 0.000000
v 8.491000 -3.986000 0.000000
v 5.873000 -6.029000 0.000000
v 3.900000 -3.173000 0.000000
v 1.901000 -4.975000 0.000000
v 3.278000 -7.930000 0.000000
v -4.318000 -12.770000 0.000000
v -7.554000 -10.708000 0.000000
v -9.415000 -6.441000 0.000000
v -16.470000 -4.851000 6.000000
v -13.454000 12.770000 6.000000
v -0.088000 10.712000 6.000000
v -1.559000 3.681000 6.000000
v 1.082000 1.425000 6.000000
v 3.903000 1.008000 6.000000
v 9.548000 4.286000 6.000000
v 11.595000 1.142000 6.000000
v 12.808000 2.056000 6.000000
v 16.470000 -3.922000 6.000000
v 10.343000 -6.365000 6.000000
v 8.491000 -3.986000 6.000000
v 5.873000 -6.029000 6.000000
v 3.900000 -3.173000 6.000000
v 1.901000 -4.975000 6.000000
v 3.278000 -7.930000 6.000000
v -4.318000 -12.770000 6.000000
v -7.554000 -10.708000 6.000000
v -9.415000 -6.441000 6.000000
vn 0.000000 0.000000 -1.000000
vn 0.000000 0.000000 -1.000000
vn 0.000000 0.000000 -1.000000
vn 0.000000 0.000000 -1.000000
vn 0.000000 0.000000 -1.000000
vn 0.000000 0.000000 -1.000000
vn 0.000000 0.000000 -1.000000
vn 0.000000 0.000000 -1.000000
vn 0.000000 -0.000000 -1.000000
vn 0.000000 0.000000 -1.000000
vn 0.000000 0.000000 -1.000000
vn 0.000000 0.000000 -1.000000
vn 0.000000 0.000000 -1.000000
vn 0.000000 0.000000 -1.000000
vn 0.000000 0.000000 -1.000000
vn 0.000000 0.000000 -1.000000
vn 0.000000 0.000000 -1.000000
vn 0.000000 0.000000 1.000000
vn 0.000000 -0.000000 1.000000
vn 0.000000 0.000000 1.000000
vn 0.000000 0.000000 1.000000
vn 0.000000 0.000000 1.000000
vn 0.000000 0.000000 1.000000
vn 0.000000 0.000000 1.000000
vn -0.000000 0.000000 1.000000
vn 0.000000 0.000000 1.000000
vn 0.000000 0.000000 1.000000
vn 0.000000 0.000000 1.000000
vn 0.000000 0.000000 1.000000
vn 0.000000 0.000000 1.000000
vn 0.000000 0.000000 1.000000
vn -0.000000 0.000000 1.000000
vn 0.000000 0.000000 1.000000
vn 0.000000 0.000000 1.000000
vn -0.985666 0.168706 0.000000
vn -0.985666 0.168706 0.000000
vn 0.152179 0.988353 0.000000
vn 0.152179 0.988353 -0.000000
vn 0.978808 -0.204783 0.000000
vn 0.978808 -0.204783 0.000000
vn 0.649510 0.760353 0.000000
vn 0.649510 0.760353 -0.000000
vn 0.146231 0.989250 0.000000
vn 0.146231 0.989250 -0.000000
vn -0.502165 0.864772 0.000000
vn -0.502165 0.864772 0.000000
vn 0.838029 0.545625 0.000000
vn 0.838029 0.545625 -0.000000
vn -0.601789 0.798655 0.000000
vn -0.601789 0.798655 0.000000
vn 0.852724 0.522361 0.000000
vn 0.852724 0.522361 -0.000000
vn 0.370371 -0.928884 0.000000
vn 0.370371 -0.928884 0.000000
vn -0.789084 -0.614285 0.000000
vn -0.789084 -0.614285 0.000000
vn 0.615212 -0.788362 0.000000
vn 0.615212 -0.788362 0.000000
vn -0.822762 -0.568386 0.000000
vn -0.822762 -0.568386 0.000000
vn 0.669560 -0.742758 0.000000
vn 0.669560 -0.742758 0.000000
vn 0.906418 0.422382 0.000000
vn 0.906418 0.422382 -0.000000
vn 0.537364 -0.843350 0.000000
vn 0.537364 -0.843350 0.000000
vn -0.537381 -0.843339 0.000000
vn -0.537381 -0.843339 0.000000
vn -0.916615 -0.399771 0.000000
vn -0.916615 -0.399771 0.000000
vn -0.219858 -0.975532 0.000000
vn -0.219858 -0.975532 0.000000
usemtl assumed_base
f 19//1 1//1 2//1
f 19//2 2//2 3//2
f 19//3 3//3 4//3
f 19//4 4//4 5//4
f 19//5 5//5 6//5
f 6//6 7//6 8//6
f 19//7 6//7 8//7
f 8//8 9//8 10//8
f 8//9 10//9 11//9
f 8//10 11//10 12//10
f 8//11 12//11 13//11
f 8//12 13//12 14//12
f 19//13 8//13 14//13
f 19//14 14//14 15//14
f 19//15 15//15 16//15
f 19//16 16//16 17//16
f 17//17 18//17 19//17
usemtl assumed_roof
f 38//18 21//18 20//18
f 38//19 22//19 21//19
f 38//20 23//20 22//20
f 38//21 24//21 23//21
f 38//22 25//22 24//22
f 25//23 27//23 26//23
f 38//24 27//24 25//24
f 27//25 29//25 28//25
f 27//26 30//26 29//26
f 27//27 31//27 30//27
f 27//28 32//28 31//28
f 27//29 33//29 32//29
f 38//30 33//30 27//30
f 38//31 34//31 33//31
f 38//32 35//32 34//32
f 38//33 36//33 35//33
f 36//34 38//34 37//34
usemtl assumed_wall
f 1//35 21//35 2//35
f 1//36 20//36 21//36
f 2//37 22//37 3//37
f 2//38 21//38 22//38
f 3//39 23//39 4//39
f 3//40 22//40 23//40
f 4//41 24//41 5//41
f 4//42 23//42 24//42
f 5//43 25//43 6//43
f 5//44 24//44 25//44
f 6//45 26//45 7//45
f 6//46 25//46 26//46
f 7//47 27//47 8//47
f 7//48 26//48 27//48
f 8//49 28//49 9//49
f 8//50 27//50 28//50
f 9//51 29//51 10//51
f 9//52 28//52 29//52
f 10//53 30//53 11//53
f 10//54 29//54 30//54
f 11//55 31//55 12//55
f 11//56 30//56 31//56
f 12//57 32//57 13//57
f 12//58 31//58 32//58
f 13//59 33//59 14//59
f 13//60 32//60 33//60
f 14//61 34//61 15//61
f 14//62 33//62 34//62
f 15//63 35//63 16//63
f 15//64 34//64 35//64
f 16//65 36//65 17//65
f 16//66 35//66 36//66
f 17//67 37//67 18//67
f 17//68 36//68 37//68
f 18//69 38//69 19//69
f 18//70 37//70 38//70
f 19//71 20//71 1//71
f 19//72 38//72 20//72
