# construction_0727_assumed_A_Casa
# source A_Casa
# h_campo 0.000000
# modeled_height 6.000000
# height_kind assumed
# local_origin_world_x 172001.034850
# local_origin_world_y 402500.144600
mtllib construction_artifacts.mtl

o construction_0727_assumed_A_Casa
v -19.307500 26.876500 0.000000
v 1.213500 30.455500 0.000000
v 3.831500 20.665500 0.000000
v 6.266500 5.417500 0.000000
v 9.538500 5.216500 0.000000
v 10.359500 -1.900500 0.000000
v 14.848500 -1.107500 0.000000
v 15.354500 -4.571500 0.000000
v 18.325500 -4.051500 0.000000
v 19.307500 -12.027500 0.000000
v 9.195500 -12.990500 0.000000
v 11.693500 -28.440500 0.000000
v -7.925500 -30.455500 0.000000
v -19.307500 26.876500 6.000000
v 1.213500 30.455500 6.000000
v 3.831500 20.665500 6.000000
v 6.266500 5.417500 6.000000
v 9.538500 5.216500 6.000000
v 10.359500 -1.900500 6.000000
v 14.848500 -1.107500 6.000000
v 15.354500 -4.571500 6.000000
v 18.325500 -4.051500 6.000000
v 19.307500 -12.027500 6.000000
v 9.195500 -12.990500 6.000000
v 11.693500 -28.440500 6.000000
v -7.925500 -30.455500 6.000000
vn 0.000000 0.000000 -1.000000
vn 0.000000 0.000000 -1.000000
vn 0.000000 0.000000 -1.000000
vn 0.000000 0.000000 -1.000000
vn 0.000000 0.000000 -1.000000
vn 0.000000 0.000000 -1.000000
vn 0.000000 0.000000 -1.000000
vn 0.000000 0.000000 -1.000000
vn 0.000000 -0.000000 -1.000000
vn 0.000000 0.000000 -1.000000
vn 0.000000 -0.000000 -1.000000
vn 0.000000 -0.000000 1.000000
vn 0.000000 0.000000 1.000000
vn 0.000000 0.000000 1.000000
vn 0.000000 0.000000 1.000000
vn 0.000000 0.000000 1.000000
vn 0.000000 0.000000 1.000000
vn 0.000000 0.000000 1.000000
vn -0.000000 0.000000 1.000000
vn 0.000000 0.000000 1.000000
vn 0.000000 0.000000 1.000000
vn 0.000000 0.000000 1.000000
vn -0.171813 0.985130 0.000000
vn -0.171813 0.985130 0.000000
vn 0.966055 0.258338 0.000000
vn 0.966055 0.258338 -0.000000
vn 0.987488 0.157695 0.000000
vn 0.987488 0.157695 -0.000000
vn 0.061315 0.998118 0.000000
vn 0.061315 0.998118 -0.000000
vn 0.993412 0.114598 0.000000
vn 0.993412 0.114598 -0.000000
vn -0.173961 0.984753 0.000000
vn -0.173961 0.984753 0.000000
vn 0.989499 0.144540 0.000000
vn 0.989499 0.144540 -0.000000
vn -0.172404 0.985026 0.000000
vn -0.172404 0.985026 0.000000
vn 0.992506 0.122197 0.000000
vn 0.992506 0.122197 -0.000000
vn 0.094804 -0.995496 0.000000
vn 0.094804 -0.995496 0.000000
vn 0.987180 0.159610 0.000000
vn 0.987180 0.159610 -0.000000
vn 0.102169 -0.994767 0.000000
vn 0.102169 -0.994767 0.000000
vn -0.980857 -0.194728 0.000000
vn -0.980857 -0.194728 0.000000
usemtl assumed_base
f 13//1 1//1 2//1
f 13//2 2//2 3//2
f 13//3 3//3 4//3
f 13//4 4//4 5//4
f 13//5 5//5 6//5
f 13//6 6//6 7//6
f 13//7 7//7 8//7
f 8//8 9//8 10//8
f 8//9 10//9 11//9
f 13//10 8//10 11//10
f 11//11 12//11 13//11
usemtl assumed_roof
f 26//12 15//12 14//12
f 26//13 16//13 15//13
f 26//14 17//14 16//14
f 26//15 18//15 17//15
f 26//16 19//16 18//16
f 26//17 20//17 19//17
f 26//18 21//18 20//18
f 21//19 23//19 22//19
f 21//20 24//20 23//20
f 26//21 24//21 21//21
f 24//22 26//22 25//22
usemtl assumed_wall
f 1//23 15//23 2//23
f 1//24 14//24 15//24
f 2//25 16//25 3//25
f 2//26 15//26 16//26
f 3//27 17//27 4//27
f 3//28 16//28 17//28
f 4//29 18//29 5//29
f 4//30 17//30 18//30
f 5//31 19//31 6//31
f 5//32 18//32 19//32
f 6//33 20//33 7//33
f 6//34 19//34 20//34
f 7//35 21//35 8//35
f 7//36 20//36 21//36
f 8//37 22//37 9//37
f 8//38 21//38 22//38
f 9//39 23//39 10//39
f 9//40 22//40 23//40
f 10//41 24//41 11//41
f 10//42 23//42 24//42
f 11//43 25//43 12//43
f 11//44 24//44 25//44
f 12//45 26//45 13//45
f 12//46 25//46 26//46
f 13//47 14//47 1//47
f 13//48 26//48 14//48
