# construction_0367_assumed_A_Casa
# source A_Casa
# h_campo 0.000000
# modeled_height 6.000000
# height_kind assumed
# local_origin_world_x 172001.034850
# local_origin_world_y 402500.144600
mtllib construction_artifacts.mtl

o construction_0367_assumed_A_Casa
v -68.522500 14.129500 0.000000
v -68.035500 18.899500 0.000000
v -71.782500 19.392500 0.000000
v -70.296500 36.206500 0.000000
v -68.853500 36.214500 0.000000
v -67.361500 37.445500 0.000000
v -67.067500 40.662500 0.000000
v 65.368500 29.089500 0.000000
v 64.965500 22.109500 0.000000
v 71.782500 21.667500 0.000000
v 67.367500 -30.311500 0.000000
v 62.616500 -30.079500 0.000000
v 62.456500 -38.374500 0.000000
v 50.685500 -40.662500 0.000000
v 51.618500 -26.499500 0.000000
v 54.542500 -26.630500 0.000000
v 58.231500 20.778500 0.000000
v 41.619500 21.699500 0.000000
v 41.641500 17.278500 0.000000
v 2.111500 20.239500 0.000000
v 0.913500 18.662500 0.000000
v -17.016500 20.307500 0.000000
v -17.188500 21.804500 0.000000
v -20.971500 21.876500 0.000000
v -20.963500 20.397500 0.000000
v -26.317500 20.571500 0.000000
v -26.326500 22.270500 0.000000
v -29.376500 22.254500 0.000000
v -29.574500 10.854500 0.000000
v -44.377500 11.893500 0.000000
v -68.522500 14.129500 6.000000
v -68.035500 18.899500 6.000000
v -71.782500 19.392500 6.000000
v -70.296500 36.206500 6.000000
v -68.853500 36.214500 6.000000
v -67.361500 37.445500 6.000000
v -67.067500 40.662500 6.000000
v 65.368500 29.089500 6.000000
v 64.965500 22.109500 6.000000
v 71.782500 21.667500 6.000000
v 67.367500 -30.311500 6.000000
v 62.616500 -30.079500 6.000000
v 62.456500 -38.374500 6.000000
v 50.685500 -40.662500 6.000000
v 51.618500 -26.499500 6.000000
v 54.542500 -26.630500 6.000000
v 58.231500 20.778500 6.000000
v 41.619500 21.699500 6.000000
v 41.641500 17.278500 6.000000
v 2.111500 20.239500 6.000000
v 0.913500 18.662500 6.000000
v -17.016500 20.307500 6.000000
v -17.188500 21.804500 6.000000
v -20.971500 21.876500 6.000000
v -20.963500 20.397500 6.000000
v -26.317500 20.571500 6.000000
v -26.326500 22.270500 6.000000
v -29.376500 22.254500 6.000000
v -29.574500 10.854500 6.000000
v -44.377500 11.893500 6.000000
vn 0.000000 0.000000 -1.000000
vn 0.000000 0.000000 -1.000000
vn 0.000000 0.000000 -1.000000
vn 0.000000 0.000000 -1.000000
vn 0.000000 0.000000 -1.000000
vn 0.000000 0.000000 -1.000000
vn 0.000000 0.000000 -1.000000
vn 0.000000 0.000000 -1.000000
vn 0.000000 -0.000000 -1.000000
vn 0.000000 0.000000 -1.000000
vn -0.000000 0.000000 -1.000000
vn 0.000000 0.000000 -1.000000
vn 0.000000 0.000000 -1.000000
vn 0.000000 0.000000 -1.000000
vn 0.000000 0.000000 -1.000000
vn 0.000000 0.000000 -1.000000
vn 0.000000 0.000000 -1.000000
vn 0.000000 0.000000 -1.000000
vn 0.000000 0.000000 -1.000000
vn 0.000000 0.000000 -1.000000
vn 0.000000 0.000000 -1.000000
vn 0.000000 0.000000 -1.000000
vn 0.000000 0.000000 -1.000000
vn 0.000000 0.000000 -1.000000
vn 0.000000 0.000000 -1.000000
vn 0.000000 0.000000 -1.000000
vn 0.000000 0.000000 -1.000000
vn 0.000000 0.000000 -1.000000
vn 0.000000 0.000000 1.000000
vn 0.000000 0.000000 1.000000
vn 0.000000 0.000000 1.000000
vn 0.000000 0.000000 1.000000
vn 0.000000 0.000000 1.000000
vn 0.000000 0.000000 1.000000
vn 0.000000 0.000000 1.000000
vn 0.000000 0.000000 1.000000
vn 0.000000 0.000000 1.000000
vn 0.000000 0.000000 1.000000
vn 0.000000 0.000000 1.000000
vn 0.000000 0.000000 1.000000
vn 0.000000 0.000000 1.000000
vn 0.000000 0.000000 1.000000
vn 0.000000 0.000000 1.000000
vn 0.000000 0.000000 1.000000
vn 0.000000 0.000000 1.000000
vn 0.000000 0.000000 1.000000
vn 0.000000 0.000000 1.000000
vn 0.000000 0.000000 1.000000
vn 0.000000 0.000000 1.000000
vn 0.000000 0.000000 1.000000
vn 0.000000 0.000000 1.000000
vn 0.000000 0.000000 1.000000
vn 0.000000 0.000000 1.000000
vn 0.000000 0.000000 1.000000
vn 0.000000 -0.000000 1.000000
vn 0.000000 0.000000 1.000000
vn -0.994829 0.101568 0.000000
vn -0.994829 0.101568 0.000000
vn -0.130448 -0.991455 0.000000
vn -0.130448 -0.991455 0.000000
vn -0.996117 0.088036 0.000000
vn -0.996117 0.088036 0.000000
vn -0.005544 0.999985 0.000000
vn -0.005544 0.999985 0.000000
vn -0.636414 0.771348 0.000000
vn -0.636414 0.771348 0.000000
vn -0.995850 0.091010 0.000000
vn -0.995850 0.091010 0.000000
vn 0.087054 0.996204 0.000000
vn 0.087054 0.996204 -0.000000
vn 0.998337 -0.057640 0.000000
vn 0.998337 -0.057640 0.000000
vn 0.064702 0.997905 0.000000
vn 0.064702 0.997905 -0.000000
vn 0.996412 -0.084633 0.000000
vn 0.996412 -0.084633 0.000000
vn -0.048774 -0.998810 0.000000
vn -0.048774 -0.998810 0.000000
vn 0.999814 -0.019285 0.000000
vn 0.999814 -0.019285 0.000000
vn 0.190805 -0.981628 0.000000
vn 0.190805 -0.981628 0.000000
vn -0.997837 0.065733 0.000000
vn -0.997837 0.065733 0.000000
vn 0.044757 0.998998 0.000000
vn 0.044757 0.998998 -0.000000
vn -0.996986 0.077578 0.000000
vn -0.996986 0.077578 0.000000
vn -0.055357 -0.998467 0.000000
vn -0.055357 -0.998467 0.000000
vn 0.999988 0.004976 0.000000
vn 0.999988 0.004976 -0.000000
vn -0.074696 -0.997206 0.000000
vn -0.074696 -0.997206 0.000000
vn 0.796289 -0.604917 0.000000
vn 0.796289 -0.604917 0.000000
vn -0.091362 -0.995818 0.000000
vn -0.091362 -0.995818 0.000000
vn -0.993464 -0.114146 0.000000
vn -0.993464 -0.114146 0.000000
vn -0.019029 -0.999819 0.000000
vn -0.019029 -0.999819 0.000000
vn 0.999985 0.005409 0.000000
vn 0.999985 0.005409 -0.000000
vn -0.032482 -0.999472 0.000000
vn -0.032482 -0.999472 0.000000
vn -0.999986 -0.005297 0.000000
vn -0.999986 -0.005297 0.000000
vn 0.005246 -0.999986 0.000000
vn 0.005246 -0.999986 0.000000
vn 0.999849 -0.017366 0.000000
vn 0.999849 -0.017366 0.000000
vn -0.070016 -0.997546 0.000000
vn -0.070016 -0.997546 0.000000
vn -0.092213 -0.995739 0.000000
vn -0.092213 -0.995739 0.000000
usemtl assumed_base
f 30//1 1//1 2//1
f 2//2 3//2 4//2
f 30//3 2//3 4//3
f 30//4 4//4 5//4
f 30//5 5//5 6//5
f 30//6 6//6 7//6
f 7//7 8//7 9//7
f 9//8 10//8 11//8
f 9//9 11//9 12//9
f 12//10 13//10 14//10
f 12//11 14//11 15//11
f 12//12 15//12 16//12
f 9//13 12//13 16//13
f 9//14 16//14 17//14
f 7//15 9//15 17//15
f 7//16 17//16 18//16
f 7//17 18//17 19//17
f 7//18 19//18 20//18
f 7//19 20//19 21//19
f 21//20 22//20 23//20
f 7//21 21//21 23//21
f 7//22 23//22 24//22
f 7//23 24//23 25//23
f 25//24 26//24 27//24
f 7//25 25//25 27//25
f 7//26 27//26 28//26
f 30//27 7//27 28//27
f 28//28 29//28 30//28
usemtl assumed_roof
f 60//29 32//29 31//29
f 32//30 34//30 33//30
f 60//31 34//31 32//31
f 60//32 35//32 34//32
f 60//33 36//33 35//33
f 60//34 37//34 36//34
f 37//35 39//35 38//35
f 39//36 41//36 40//36
f 39//37 42//37 41//37
f 42//38 44//38 43//38
f 42//39 45//39 44//39
f 42//40 46//40 45//40
f 39//41 46//41 42//41
f 39//42 47//42 46//42
f 37//43 47//43 39//43
f 37//44 48//44 47//44
f 37//45 49//45 48//45
f 37//46 50//46 49//46
f 37//47 51//47 50//47
f 51//48 53//48 52//48
f 37//49 53//49 51//49
f 37//50 54//50 53//50
f 37//51 55//51 54//51
f 55//52 57//52 56//52
f 37//53 57//53 55//53
f 37//54 58//54 57//54
f 60//55 58//55 37//55
f 58//56 60//56 59//56
usemtl assumed_wall
f 1//57 32//57 2//57
f 1//58 31//58 32//58
f 2//59 33//59 3//59
f 2//60 32//60 33//60
f 3//61 34//61 4//61
f 3//62 33//62 34//62
f 4//63 35//63 5//63
f 4//64 34//64 35//64
f 5//65 36//65 6//65
f 5//66 35//66 36//66
f 6//67 37//67 7//67
f 6//68 36//68 37//68
f 7//69 38//69 8//69
f 7//70 37//70 38//70
f 8//71 39//71 9//71
f 8//72 38//72 39//72
f 9//73 40//73 10//73
f 9//74 39//74 40//74
f 10//75 41//75 11//75
f 10//76 40//76 41//76
f 11//77 42//77 12//77
f 11//78 41//78 42//78
f 12//79 43//79 13//79
f 12//80 42//80 43//80
f 13//81 44//81 14//81
f 13//82 43//82 44//82
f 14//83 45//83 15//83
f 14//84 44//84 45//84
f 15//85 46//85 16//85
f 15//86 45//86 46//86
f 16//87 47//87 17//87
f 16//88 46//88 47//88
f 17//89 48//89 18//89
f 17//90 47//90 48//90
f 18//91 49//91 19//91
f 18//92 48//92 49//92
f 19//93 50//93 20//93
f 19//94 49//94 50//94
f 20//95 51//95 21//95
f 20//96 50//96 51//96
f 21//97 52//97 22//97
f 21//98 51//98 52//98
f 22//99 53//99 23//99
f 22//100 52//100 53//100
f 23//101 54//101 24//101
f 23//102 53//102 54//102
f 24//103 55//103 25//103
f 24//104 54//104 55//104
f 25//105 56//105 26//105
f 25//106 55//106 56//106
f 26//107 57//107 27//107
f 26//108 56//108 57//108
f 27//109 58//109 28//109
f 27//110 57//110 58//110
f 28//111 59//111 29//111
f 28//112 58//112 59//112
f 29//113 60//113 30//113
f 29//114 59//114 60//114
f 30//115 31//115 1//115
f 30//116 60//116 31//116
