# construction_1040_assumed_A_Casa
# source A_Casa
# h_campo 0.000000
# modeled_height 6.000000
# height_kind assumed
# local_origin_world_x 172001.034850
# local_origin_world_y 402500.144600
mtllib construction_artifacts.mtl

o construction_1040_assumed_A_Casa
v -17.736000 20.487500 0.000000
v -12.336000 22.601500 0.000000
v -10.882000 22.284500 0.000000
v -10.446000 24.821500 0.000000
v 3.911000 22.390500 0.000000
v 3.155000 19.109500 0.000000
v 4.609000 18.961500 0.000000
v 9.731000 14.797500 0.000000
v 10.451000 12.961500 0.000000
v 13.154000 13.609500 0.000000
v 17.736000 0.075500 0.000000
v 14.941000 -0.711500 0.000000
v 15.693000 -2.732500 0.000000
v 14.272000 -8.984500 0.000000
v 13.243000 -10.195500 0.000000
v 15.541000 -12.333500 0.000000
v 6.321000 -23.200500 0.000000
v 4.723000 -22.096500 0.000000
v -2.312000 -24.821500 0.000000
v -3.190000 -22.352500 0.000000
v -1.077000 -21.367500 0.000000
v -4.084000 -13.684500 0.000000
v -2.098000 -12.066500 0.000000
v -2.966000 -11.545500 0.000000
v 4.121000 -3.903500 0.000000
v -0.362000 8.470500 0.000000
v -12.401000 10.930500 0.000000
v -14.971000 17.904500 0.000000
v -16.701000 17.663500 0.000000
v -17.736000 20.487500 6.000000
v -12.336000 22.601500 6.000000
v -10.882000 22.284500 6.000000
v -10.446000 24.821500 6.000000
v 3.911000 22.390500 6.000000
v 3.155000 19.109500 6.000000
v 4.609000 18.961500 6.000000
v 9.731000 14.797500 6.000000
v 10.451000 12.961500 6.000000
v 13.154000 13.609500 6.000000
v 17.736000 0.075500 6.000000
v 14.941000 -0.711500 6.000000
v 15.693000 -2.732500 6.000000
v 14.272000 -8.984500 6.000000
v 13.243000 -10.195500 6.000000
v 15.541000 -12.333500 6.000000
v 6.321000 -23.200500 6.000000
v 4.723000 -22.096500 6.000000
v -2.312000 -24.821500 6.000000
v -3.190000 -22.352500 6.000000
v -1.077000 -21.367500 6.000000
v -4.084000 -13.684500 6.000000
v -2.098000 -12.066500 6.000000
v -2.966000 -11.545500 6.000000
v 4.121000 -3.903500 6.000000
v -0.362000 8.470500 6.000000
v -12.401000 10.930500 6.000000
v -14.971000 17.904500 6.000000
v -16.701000 17.663500 6.000000
vn 0.000000 0.000000 -1.000000
vn 0.000000 0.000000 -1.000000
vn 0.000000 0.000000 -1.000000
vn 0.000000 0.000000 -1.000000
vn 0.000000 0.000000 -1.000000
vn 0.000000 0.000000 -1.000000
vn 0.000000 0.000000 -1.000000
vn 0.000000 0.000000 -1.000000
vn 0.000000 0.000000 -1.000000
vn 0.000000 0.000000 -1.000000
vn 0.000000 0.000000 -1.000000
vn 0.000000 0.000000 -1.000000
vn 0.000000 -0.000000 -1.000000
vn 0.000000 0.000000 -1.000000
vn 0.000000 0.000000 -1.000000
vn -0.000000 0.000000 -1.000000
vn 0.000000 0.000000 -1.000000
vn 0.000000 0.000000 -1.000000
vn 0.000000 0.000000 -1.000000
vn 0.000000 0.000000 -1.000000
vn 0.000000 0.000000 -1.000000
vn 0.000000 0.000000 -1.000000
vn 0.000000 -0.000000 -1.000000
vn 0.000000 0.000000 -1.000000
vn 0.000000 0.000000 -1.000000
vn 0.000000 0.000000 -1.000000
vn 0.000000 0.000000 -1.000000
vn 0.000000 -0.000000 1.000000
vn 0.000000 0.000000 1.000000
vn 0.000000 0.000000 1.000000
vn 0.000000 0.000000 1.000000
vn 0.000000 0.000000 1.000000
vn 0.000000 0.000000 1.000000
vn -0.000000 0.000000 1.000000
vn 0.000000 0.000000 1.000000
vn 0.000000 0.000000 1.000000
vn 0.000000 0.000000 1.000000
vn 0.000000 0.000000 1.000000
vn 0.000000 0.000000 1.000000
vn 0.000000 0.000000 1.000000
vn 0.000000 0.000000 1.000000
vn 0.000000 0.000000 1.000000
vn 0.000000 0.000000 1.000000
vn 0.000000 0.000000 1.000000
vn 0.000000 0.000000 1.000000
vn 0.000000 0.000000 1.000000
vn 0.000000 -0.000000 1.000000
vn 0.000000 0.000000 1.000000
vn 0.000000 0.000000 1.000000
vn 0.000000 0.000000 1.000000
vn 0.000000 0.000000 1.000000
vn 0.000000 0.000000 1.000000
vn 0.000000 0.000000 1.000000
vn 0.000000 0.000000 1.000000
vn -0.364542 0.931187 0.000000
vn -0.364542 0.931187 0.000000
vn 0.213015 0.977049 0.000000
vn 0.213015 0.977049 -0.000000
vn -0.985552 0.169374 0.000000
vn -0.985552 0.169374 0.000000
vn 0.166949 0.985966 0.000000
vn 0.166949 0.985966 -0.000000
vn 0.974466 -0.224534 0.000000
vn 0.974466 -0.224534 0.000000
vn 0.101265 0.994859 0.000000
vn 0.101265 0.994859 -0.000000
vn 0.630809 0.775938 0.000000
vn 0.630809 0.775938 -0.000000
vn 0.930973 0.365088 0.000000
vn 0.930973 0.365088 -0.000000
vn -0.233128 0.972446 0.000000
vn -0.233128 0.972446 0.000000
vn 0.947189 0.320675 0.000000
vn 0.947189 0.320675 -0.000000
vn 0.271035 -0.962570 0.000000
vn 0.271035 -0.962570 0.000000
vn 0.937222 0.348734 0.000000
vn 0.937222 0.348734 -0.000000
vn 0.975130 -0.221635 0.000000
vn 0.975130 -0.221635 0.000000
vn 0.762048 -0.647521 0.000000
vn 0.762048 -0.647521 0.000000
vn 0.681160 0.732135 0.000000
vn 0.681160 0.732135 -0.000000
vn 0.762526 -0.646958 0.000000
vn 0.762526 -0.646958 0.000000
vn -0.568407 -0.822748 0.000000
vn -0.568407 -0.822748 0.000000
vn 0.361199 -0.932489 0.000000
vn 0.361199 -0.932489 0.000000
vn -0.942199 -0.335055 0.000000
vn -0.942199 -0.335055 0.000000
vn -0.422510 0.906358 0.000000
vn -0.422510 0.906358 0.000000
vn -0.931218 -0.364463 0.000000
vn -0.931218 -0.364463 0.000000
vn -0.631621 0.775277 0.000000
vn -0.631621 0.775277 0.000000
vn -0.514641 -0.857406 0.000000
vn -0.514641 -0.857406 0.000000
vn -0.733231 0.679980 0.000000
vn -0.733231 0.679980 0.000000
vn -0.940199 -0.340626 0.000000
vn -0.940199 -0.340626 0.000000
vn -0.200199 -0.979755 0.000000
vn -0.200199 -0.979755 0.000000
vn -0.938316 -0.345780 0.000000
vn -0.938316 -0.345780 0.000000
vn 0.137974 -0.990436 0.000000
vn 0.137974 -0.990436 0.000000
vn -0.938926 -0.344118 0.000000
vn -0.938926 -0.344118 0.000000
usemtl assumed_base
f 29//1 1//1 2//1
f 29//2 2//2 3//2
f 3//3 4//3 5//3
f 29//4 3//4 5//4
f 6//5 7//5 8//5
f 6//6 8//6 9//6
f 9//7 10//7 11//7
f 6//8 9//8 11//8
f 6//9 11//9 12//9
f 6//10 12//10 13//10
f 6//11 13//11 14//11
f 6//12 14//12 15//12
f 15//13 16//13 17//13
f 6//14 15//14 17//14
f 18//15 19//15 20//15
f 18//16 20//16 21//16
f 18//17 21//17 22//17
f 17//18 18//18 22//18
f 17//19 22//19 23//19
f 23//20 24//20 25//20
f 17//21 23//21 25//21
f 6//22 17//22 25//22
f 6//23 25//23 26//23
f 5//24 6//24 26//24
f 5//25 26//25 27//25
f 5//26 27//26 28//26
f 5//27 28//27 29//27
usemtl assumed_roof
f 58//28 31//28 30//28
f 58//29 32//29 31//29
f 32//30 34//30 33//30
f 58//31 34//31 32//31
f 35//32 37//32 36//32
f 35//33 38//33 37//33
f 38//34 40//34 39//34
f 35//35 40//35 38//35
f 35//36 41//36 40//36
f 35//37 42//37 41//37
f 35//38 43//38 42//38
f 35//39 44//39 43//39
f 44//40 46//40 45//40
f 35//41 46//41 44//41
f 47//42 49//42 48//42
f 47//43 50//43 49//43
f 47//44 51//44 50//44
f 46//45 51//45 47//45
f 46//46 52//46 51//46
f 52//47 54//47 53//47
f 46//48 54//48 52//48
f 35//49 54//49 46//49
f 35//50 55//50 54//50
f 34//51 55//51 35//51
f 34//52 56//52 55//52
f 34//53 57//53 56//53
f 34//54 58//54 57//54
usemtl assumed_wall
f 1//55 31//55 2//55
f 1//56 30//56 31//56
f 2//57 32//57 3//57
f 2//58 31//58 32//58
f 3//59 33//59 4//59
f 3//60 32//60 33//60
f 4//61 34//61 5//61
f 4//62 33//62 34//62
f 5//63 35//63 6//63
f 5//64 34//64 35//64
f 6//65 36//65 7//65
f 6//66 35//66 36//66
f 7//67 37//67 8//67
f 7//68 36//68 37//68
f 8//69 38//69 9//69
f 8//70 37//70 38//70
f 9//71 39//71 10//71
f 9//72 38//72 39//72
f 10//73 40//73 11//73
f 10//74 39//74 40//74
f 11//75 41//75 12//75
f 11//76 40//76 41//76
f 12//77 42//77 13//77
f 12//78 41//78 42//78
f 13//79 43//79 14//79
f 13//80 42//80 43//80
f 14//81 44//81 15//81
f 14//82 43//82 44//82
f 15//83 45//83 16//83
f 15//84 44//84 45//84
f 16//85 46//85 17//85
f 16//86 45//86 46//86
f 17//87 47//87 18//87
f 17//88 46//88 47//88
f 18//89 48//89 19//89
f 18//90 47//90 48//90
f 19//91 49//91 20//91
f 19//92 48//92 49//92
f 20//93 50//93 21//93
f 20//94 49//94 50//94
f 21//95 51//95 22//95
f 21//96 50//96 51//96
f 22//97 52//97 23//97
f 22//98 51//98 52//98
f 23//99 53//99 24//99
f 23//100 52//100 53//100
f 24//101 54//101 25//101
f 24//102 53//102 54//102
f 25//103 55//103 26//103
f 25//104 54//104 55//104
f 26//105 56//105 27//105
f 26//106 55//106 56//106
f 27//107 57//107 28//107
f 27//108 56//108 57//108
f 28//109 58//109 29//109
f 28//110 57//110 58//110
f 29//111 30//111 1//111
f 29//112 58//112 30//112
