# construction_5898_assumed_A_Casa
# source A_Casa
# h_campo 0.000000
# modeled_height 6.000000
# height_kind assumed
# local_origin_world_x 172001.034850
# local_origin_world_y 402500.144600
mtllib construction_artifacts.mtl

o construction_5898_assumed_A_Casa
v -12.742000 5.892500 0.000000
v -11.217000 11.435500 0.000000
v 5.058000 4.667500 0.000000
v 3.886000 1.610500 0.000000
v 12.742000 -1.104500 0.000000
v 10.346000 -11.401500 0.000000
v 1.471000 -8.505500 0.000000
v 0.043000 -11.435500 0.000000
v -10.139000 -6.681500 0.000000
v -7.884000 -0.860500 0.000000
v -9.514000 -0.119500 0.000000
v -7.872000 3.962500 0.000000
v -12.742000 5.892500 6.000000
v -11.217000 11.435500 6.000000
v 5.058000 4.667500 6.000000
v 3.886000 1.610500 6.000000
v 12.742000 -1.104500 6.000000
v 10.346000 -11.401500 6.000000
v 1.471000 -8.505500 6.000000
v 0.043000 -11.435500 6.000000
v -10.139000 -6.681500 6.000000
v -7.884000 -0.860500 6.000000
v -9.514000 -0.119500 6.000000
v -7.872000 3.962500 6.000000
vn 0.000000 0.000000 -1.000000
vn 0.000000 0.000000 -1.000000
vn 0.000000 0.000000 -1.000000
vn 0.000000 0.000000 -1.000000
vn 0.000000 0.000000 -1.000000
vn 0.000000 0.000000 -1.000000
vn 0.000000 0.000000 -1.000000
vn 0.000000 0.000000 -1.000000
vn 0.000000 -0.000000 -1.000000
vn 0.000000 0.000000 -1.000000
vn 0.000000 0.000000 1.000000
vn 0.000000 -0.000000 1.000000
vn -0.000000 0.000000 1.000000
vn 0.000000 0.000000 1.000000
vn 0.000000 0.000000 1.000000
vn 0.000000 0.000000 1.000000
vn 0.000000 0.000000 1.000000
vn 0.000000 0.000000 1.000000
vn 0.000000 0.000000 1.000000
vn 0.000000 -0.000000 1.000000
vn -0.964175 0.265266 0.000000
vn -0.964175 0.265266 0.000000
vn 0.383975 0.923344 0.000000
vn 0.383975 0.923344 -0.000000
vn 0.933731 -0.357976 0.000000
vn 0.933731 -0.357976 0.000000
vn 0.293107 0.956080 0.000000
vn 0.293107 0.956080 -0.000000
vn 0.973980 -0.226635 0.000000
vn 0.973980 -0.226635 0.000000
vn -0.310212 -0.950667 0.000000
vn -0.310212 -0.950667 0.000000
vn 0.898922 -0.438109 0.000000
vn 0.898922 -0.438109 0.000000
vn -0.423061 -0.906101 0.000000
vn -0.423061 -0.906101 0.000000
vn -0.932476 0.361232 0.000000
vn -0.932476 0.361232 0.000000
vn -0.413845 -0.910347 0.000000
vn -0.413845 -0.910347 0.000000
vn -0.927754 0.373193 0.000000
vn -0.927754 0.373193 0.000000
vn -0.368427 -0.929657 0.000000
vn -0.368427 -0.929657 0.000000
usemtl assumed_base
f 12//1 1//1 2//1
f 12//2 2//2 3//2
f 12//3 3//3 4//3
f 12//4 4//4 5//4
f 12//5 5//5 6//5
f 12//6 6//6 7//6
f 12//7 7//7 8//7
f 8//8 9//8 10//8
f 12//9 8//9 10//9
f 10//10 11//10 12//10
usemtl assumed_roof
f 24//11 14//11 13//11
f 24//12 15//12 14//12
f 24//13 16//13 15//13
f 24//14 17//14 16//14
f 24//15 18//15 17//15
f 24//16 19//16 18//16
f 24//17 20//17 19//17
f 20//18 22//18 21//18
f 24//19 22//19 20//19
f 22//20 24//20 23//20
usemtl assumed_wall
f 1//21 14//21 2//21
f 1//22 13//22 14//22
f 2//23 15//23 3//23
f 2//24 14//24 15//24
f 3//25 16//25 4//25
f 3//26 15//26 16//26
f 4//27 17//27 5//27
f 4//28 16//28 17//28
f 5//29 18//29 6//29
f 5//30 17//30 18//30
f 6//31 19//31 7//31
f 6//32 18//32 19//32
f 7//33 20//33 8//33
f 7//34 19//34 20//34
f 8//35 21//35 9//35
f 8//36 20//36 21//36
f 9//37 22//37 10//37
f 9//38 21//38 22//38
f 10//39 23//39 11//39
f 10//40 22//40 23//40
f 11//41 24//41 12//41
f 11//42 23//42 24//42
f 12//43 13//43 1//43
f 12//44 24//44 13//44
