# construction_1028_assumed_A_Casa
# source A_Casa
# h_campo 0.000000
# modeled_height 6.000000
# height_kind assumed
# local_origin_world_x 172001.034850
# local_origin_world_y 402500.144600
mtllib construction_artifacts.mtl

o construction_1028_assumed_A_Casa
v -12.349850 -45.176500 0.000000
v -16.471850 -35.340500 0.000000
v -23.315850 -18.070500 0.000000
v -20.015850 -17.322500 0.000000
v -16.161850 -26.551500 0.000000
v -12.743850 -25.696500 0.000000
v -14.847850 -18.220500 0.000000
v -13.565850 -17.686500 0.000000
v -15.391850 -13.788500 0.000000
v -19.834850 -14.813500 0.000000
v -21.884850 -9.227500 0.000000
v -14.152850 -6.451500 0.000000
v -16.234850 0.703500 0.000000
v -20.260850 11.139500 0.000000
v -27.287850 8.437500 0.000000
v -29.412850 14.610500 0.000000
v -22.876850 16.980500 0.000000
v -29.764150 34.727300 0.000000
v -29.764050 44.307900 0.000000
v -27.317850 45.176500 0.000000
v -20.974850 30.437500 0.000000
v -18.059850 31.526500 0.000000
v -15.720850 25.428500 0.000000
v -3.544850 30.137500 0.000000
v -4.281850 31.333500 0.000000
v 2.361150 33.650500 0.000000
v 4.860150 34.803500 0.000000
v 14.781150 39.427500 0.000000
v 17.088150 34.440500 0.000000
v 23.464150 37.259500 0.000000
v 29.764150 23.577500 0.000000
v 23.174150 19.380500 0.000000
v 28.642150 4.161500 0.000000
v 17.684150 0.285500 0.000000
v 10.807150 16.412500 0.000000
v 20.771150 19.936500 0.000000
v 19.309150 24.592500 0.000000
v 1.313150 18.345500 0.000000
v 0.341150 20.182500 0.000000
v -7.957850 17.193500 0.000000
v -5.479850 10.518500 0.000000
v -9.228850 8.531500 0.000000
v -11.962850 14.128500 0.000000
v -14.610850 19.874500 0.000000
v -17.333850 18.828500 0.000000
v -10.958850 4.655500 0.000000
v -8.737850 5.434500 0.000000
v -9.132850 6.737500 0.000000
v 0.608150 9.823500 0.000000
v 3.545150 3.618500 0.000000
v 6.983150 5.348500 0.000000
v 9.685150 -0.973500 0.000000
v 6.727150 -1.774500 0.000000
v 12.311150 -17.218500 0.000000
v 6.298150 -19.717500 0.000000
v 3.948150 -20.315500 0.000000
v 3.521150 -18.681500 0.000000
v -0.205850 -19.791500 0.000000
v 1.310150 -26.872500 0.000000
v -3.954850 -29.018500 0.000000
v -1.584850 -37.680500 0.000000
v -12.349850 -45.176500 6.000000
v -16.471850 -35.340500 6.000000
v -23.315850 -18.070500 6.000000
v -20.015850 -17.322500 6.000000
v -16.161850 -26.551500 6.000000
v -12.743850 -25.696500 6.000000
v -14.847850 -18.220500 6.000000
v -13.565850 -17.686500 6.000000
v -15.391850 -13.788500 6.000000
v -19.834850 -14.813500 6.000000
v -21.884850 -9.227500 6.000000
v -14.152850 -6.451500 6.000000
v -16.234850 0.703500 6.000000
v -20.260850 11.139500 6.000000
v -27.287850 8.437500 6.000000
v -29.412850 14.610500 6.000000
v -22.876850 16.980500 6.000000
v -29.764150 34.727300 6.000000
v -29.764050 44.307900 6.000000
v -27.317850 45.176500 6.000000
v -20.974850 30.437500 6.000000
v -18.059850 31.526500 6.000000
v -15.720850 25.428500 6.000000
v -3.544850 30.137500 6.000000
v -4.281850 31.333500 6.000000
v 2.361150 33.650500 6.000000
v 4.860150 34.803500 6.000000
v 14.781150 39.427500 6.000000
v 17.088150 34.440500 6.000000
v 23.464150 37.259500 6.000000
v 29.764150 23.577500 6.000000
v 23.174150 19.380500 6.000000
v 28.642150 4.161500 6.000000
v 17.684150 0.285500 6.000000
v 10.807150 16.412500 6.000000
v 20.771150 19.936500 6.000000
v 19.309150 24.592500 6.000000
v 1.313150 18.345500 6.000000
v 0.341150 20.182500 6.000000
v -7.957850 17.193500 6.000000
v -5.479850 10.518500 6.000000
v -9.228850 8.531500 6.000000
v -11.962850 14.128500 6.000000
v -14.610850 19.874500 6.000000
v -17.333850 18.828500 6.000000
v -10.958850 4.655500 6.000000
v -8.737850 5.434500 6.000000
v -9.132850 6.737500 6.000000
v 0.608150 9.823500 6.000000
v 3.545150 3.618500 6.000000
v 6.983150 5.348500 6.000000
v 9.685150 -0.973500 6.000000
v 6.727150 -1.774500 6.000000
v 12.311150 -17.218500 6.000000
v 6.298150 -19.717500 6.000000
v 3.948150 -20.315500 6.000000
v 3.521150 -18.681500 6.000000
v -0.205850 -19.791500 6.000000
v 1.310150 -26.872500 6.000000
v -3.954850 -29.018500 6.000000
v -1.584850 -37.680500 6.000000
vn -0.000000 0.000000 -1.000000
vn 0.000000 0.000000 -1.000000
vn 0.000000 0.000000 -1.000000
vn 0.000000 0.000000 -1.000000
vn 0.000000 0.000000 -1.000000
vn 0.000000 0.000000 -1.000000
vn 0.000000 0.000000 -1.000000
vn 0.000000 0.000000 -1.000000
vn -0.000000 0.000000 -1.000000
vn 0.000000 0.000000 -1.000000
vn 0.000000 0.000000 -1.000000
vn 0.000000 0.000000 -1.000000
vn -0.000000 0.000000 -1.000000
vn 0.000000 0.000000 -1.000000
vn 0.000000 0.000000 -1.000000
vn 0.000000 0.000000 -1.000000
vn 0.000000 0.000000 -1.000000
vn 0.000000 0.000000 -1.000000
vn 0.000000 0.000000 -1.000000
vn 0.000000 0.000000 -1.000000
vn 0.000000 0.000000 -1.000000
vn 0.000000 0.000000 -1.000000
vn 0.000000 0.000000 -1.000000
vn 0.000000 0.000000 -1.000000
vn 0.000000 0.000000 -1.000000
vn 0.000000 0.000000 -1.000000
vn 0.000000 0.000000 -1.000000
vn 0.000000 0.000000 -1.000000
vn 0.000000 0.000000 -1.000000
vn -0.000000 0.000000 -1.000000
vn 0.000000 0.000000 -1.000000
vn 0.000000 0.000000 -1.000000
vn 0.000000 0.000000 -1.000000
vn 0.000000 0.000000 -1.000000
vn 0.000000 0.000000 -1.000000
vn 0.000000 0.000000 -1.000000
vn 0.000000 0.000000 -1.000000
vn 0.000000 0.000000 -1.000000
vn 0.000000 0.000000 -1.000000
vn -0.000000 0.000000 -1.000000
vn 0.000000 0.000000 -1.000000
vn 0.000000 0.000000 -1.000000
vn 0.000000 0.000000 -1.000000
vn 0.000000 0.000000 -1.000000
vn 0.000000 0.000000 -1.000000
vn 0.000000 0.000000 -1.000000
vn 0.000000 0.000000 -1.000000
vn 0.000000 0.000000 -1.000000
vn 0.000000 0.000000 -1.000000
vn 0.000000 0.000000 -1.000000
vn 0.000000 0.000000 -1.000000
vn 0.000000 0.000000 -1.000000
vn -0.000000 0.000000 -1.000000
vn 0.000000 0.000000 -1.000000
vn 0.000000 0.000000 -1.000000
vn 0.000000 0.000000 -1.000000
vn 0.000000 0.000000 -1.000000
vn 0.000000 0.000000 -1.000000
vn 0.000000 0.000000 -1.000000
vn 0.000000 0.000000 1.000000
vn 0.000000 0.000000 1.000000
vn 0.000000 -0.000000 1.000000
vn 0.000000 0.000000 1.000000
vn 0.000000 0.000000 1.000000
vn 0.000000 0.000000 1.000000
vn 0.000000 0.000000 1.000000
vn 0.000000 0.000000 1.000000
vn 0.000000 0.000000 1.000000
vn 0.000000 -0.000000 1.000000
vn 0.000000 0.000000 1.000000
vn 0.000000 0.000000 1.000000
vn 0.000000 0.000000 1.000000
vn 0.000000 0.000000 1.000000
vn 0.000000 0.000000 1.000000
vn 0.000000 0.000000 1.000000
vn 0.000000 0.000000 1.000000
vn 0.000000 0.000000 1.000000
vn 0.000000 0.000000 1.000000
vn 0.000000 0.000000 1.000000
vn -0.000000 0.000000 1.000000
vn 0.000000 -0.000000 1.000000
vn 0.000000 0.000000 1.000000
vn 0.000000 0.000000 1.000000
vn 0.000000 0.000000 1.000000
vn 0.000000 0.000000 1.000000
vn -0.000000 0.000000 1.000000
vn 0.000000 0.000000 1.000000
vn 0.000000 0.000000 1.000000
vn 0.000000 0.000000 1.000000
vn 0.000000 0.000000 1.000000
vn 0.000000 0.000000 1.000000
vn 0.000000 0.000000 1.000000
vn -0.000000 0.000000 1.000000
vn 0.000000 0.000000 1.000000
vn 0.000000 0.000000 1.000000
vn 0.000000 0.000000 1.000000
vn 0.000000 0.000000 1.000000
vn 0.000000 0.000000 1.000000
vn 0.000000 0.000000 1.000000
vn 0.000000 0.000000 1.000000
vn 0.000000 0.000000 1.000000
vn 0.000000 0.000000 1.000000
vn 0.000000 0.000000 1.000000
vn 0.000000 -0.000000 1.000000
vn -0.000000 0.000000 1.000000
vn -0.000000 0.000000 1.000000
vn -0.000000 0.000000 1.000000
vn 0.000000 0.000000 1.000000
vn 0.000000 0.000000 1.000000
vn 0.000000 0.000000 1.000000
vn 0.000000 0.000000 1.000000
vn 0.000000 0.000000 1.000000
vn 0.000000 0.000000 1.000000
vn 0.000000 0.000000 1.000000
vn 0.000000 0.000000 1.000000
vn 0.000000 0.000000 1.000000
vn 0.000000 0.000000 1.000000
vn 0.000000 0.000000 1.000000
vn -0.922287 -0.386505 0.000000
vn -0.922287 -0.386505 0.000000
vn -0.929660 -0.368419 0.000000
vn -0.929660 -0.368419 0.000000
vn -0.221059 0.975260 0.000000
vn -0.221059 0.975260 0.000000
vn 0.922772 0.385347 0.000000
vn 0.922772 0.385347 -0.000000
vn -0.242669 0.970109 0.000000
vn -0.242669 0.970109 0.000000
vn -0.962605 -0.270910 0.000000
vn -0.962605 -0.270910 0.000000
vn -0.384513 0.923120 0.000000
vn -0.384513 0.923120 0.000000
vn -0.905565 -0.424208 0.000000
vn -0.905565 -0.424208 0.000000
vn 0.224795 -0.974406 0.000000
vn 0.224795 -0.974406 0.000000
vn -0.938779 -0.344521 0.000000
vn -0.938779 -0.344521 0.000000
vn -0.337909 0.941179 0.000000
vn -0.337909 0.941179 0.000000
vn -0.960176 -0.279397 0.000000
vn -0.960176 -0.279397 0.000000
vn -0.932981 -0.359925 0.000000
vn -0.932981 -0.359925 0.000000
vn 0.358899 -0.933376 0.000000
vn 0.358899 -0.933376 0.000000
vn -0.945544 -0.325495 0.000000
vn -0.945544 -0.325495 0.000000
vn -0.340888 0.940104 0.000000
vn -0.340888 0.940104 0.000000
vn -0.932257 -0.361797 0.000000
vn -0.932257 -0.361797 0.000000
vn -1.000000 0.000010 0.000000
vn -1.000000 0.000010 0.000000
vn -0.334613 0.942356 0.000000
vn -0.334613 0.942356 0.000000
vn 0.918551 0.395303 0.000000
vn 0.918551 0.395303 -0.000000
vn -0.349961 0.936764 0.000000
vn -0.349961 0.936764 0.000000
vn 0.933673 0.358127 0.000000
vn 0.933673 0.358127 -0.000000
vn -0.360708 0.932679 0.000000
vn -0.360708 0.932679 0.000000
vn -0.851340 -0.524614 0.000000
vn -0.851340 -0.524614 0.000000
vn -0.329331 0.944215 0.000000
vn -0.329331 0.944215 0.000000
vn -0.418943 0.908013 0.000000
vn -0.418943 0.908013 0.000000
vn -0.422450 0.906386 0.000000
vn -0.422450 0.906386 0.000000
vn 0.907592 0.419854 0.000000
vn 0.907592 0.419854 -0.000000
vn -0.404368 0.914597 0.000000
vn -0.404368 0.914597 0.000000
vn 0.908332 0.418250 0.000000
vn 0.908332 0.418250 -0.000000
vn 0.537182 -0.843466 0.000000
vn 0.537182 -0.843466 0.000000
vn 0.941101 0.338126 0.000000
vn 0.941101 0.338126 -0.000000
vn 0.333468 -0.942761 0.000000
vn 0.333468 -0.942761 0.000000
vn -0.919857 -0.392253 0.000000
vn -0.919857 -0.392253 0.000000
vn -0.333434 0.942774 0.000000
vn -0.333434 0.942774 0.000000
vn -0.954071 -0.299581 0.000000
vn -0.954071 -0.299581 0.000000
vn 0.327936 -0.944700 0.000000
vn 0.327936 -0.944700 0.000000
vn -0.883893 -0.467689 0.000000
vn -0.883893 -0.467689 0.000000
vn 0.338856 -0.940838 0.000000
vn 0.338856 -0.940838 0.000000
vn 0.937484 0.348028 0.000000
vn 0.937484 0.348028 -0.000000
vn 0.468299 -0.883570 0.000000
vn 0.468299 -0.883570 0.000000
vn -0.898531 -0.438911 0.000000
vn -0.898531 -0.438911 0.000000
vn -0.908200 -0.418537 0.000000
vn -0.908200 -0.418537 0.000000
vn 0.358589 -0.933496 0.000000
vn 0.358589 -0.933496 0.000000
vn 0.911990 0.410212 0.000000
vn 0.911990 0.410212 -0.000000
vn -0.330975 0.943640 0.000000
vn -0.330975 0.943640 0.000000
vn -0.956994 -0.290109 0.000000
vn -0.956994 -0.290109 0.000000
vn -0.302012 0.953304 0.000000
vn -0.302012 0.953304 0.000000
vn 0.903862 0.427823 0.000000
vn 0.903862 0.427823 -0.000000
vn -0.449499 0.893281 0.000000
vn -0.449499 0.893281 0.000000
vn 0.919536 0.393006 0.000000
vn 0.919536 0.393006 -0.000000
vn 0.261377 -0.965237 0.000000
vn 0.261377 -0.965237 0.000000
vn 0.940418 0.340022 0.000000
vn 0.940418 0.340022 -0.000000
vn 0.383776 -0.923426 0.000000
vn 0.383776 -0.923426 0.000000
vn 0.246609 -0.969115 0.000000
vn 0.246609 -0.969115 0.000000
vn -0.967510 -0.252832 0.000000
vn -0.967510 -0.252832 0.000000
vn 0.285436 -0.958398 0.000000
vn 0.285436 -0.958398 0.000000
vn 0.977841 0.209350 0.000000
vn 0.977841 0.209350 -0.000000
vn 0.377448 -0.926031 0.000000
vn 0.377448 -0.926031 0.000000
vn 0.964548 0.263909 0.000000
vn 0.964548 0.263909 -0.000000
vn 0.571440 -0.820644 0.000000
vn 0.571440 -0.820644 0.000000
usemtl assumed_base
f 61//1 1//1 2//1
f 2//2 3//2 4//2
f 2//3 4//3 5//3
f 61//4 2//4 5//4
f 61//5 5//5 6//5
f 61//6 6//6 7//6
f 61//7 7//7 8//7
f 61//8 8//8 9//8
f 9//9 10//9 11//9
f 9//10 11//10 12//10
f 61//11 9//11 12//11
f 61//12 12//12 13//12
f 14//13 15//13 16//13
f 14//14 16//14 17//14
f 14//15 17//15 18//15
f 14//16 18//16 19//16
f 13//17 14//17 19//17
f 61//18 13//18 19//18
f 61//19 19//19 20//19
f 61//20 20//20 21//20
f 21//21 22//21 23//21
f 24//22 25//22 26//22
f 24//23 26//23 27//23
f 24//24 27//24 28//24
f 24//25 28//25 29//25
f 23//26 24//26 29//26
f 29//27 30//27 31//27
f 29//28 31//28 32//28
f 29//29 32//29 33//29
f 33//30 34//30 35//30
f 33//31 35//31 36//31
f 29//32 33//32 36//32
f 29//33 36//33 37//33
f 23//34 29//34 37//34
f 37//35 38//35 39//35
f 23//36 37//36 39//36
f 23//37 39//37 40//37
f 21//38 23//38 40//38
f 21//39 40//39 41//39
f 41//40 42//40 43//40
f 41//41 43//41 44//41
f 21//42 41//42 44//42
f 21//43 44//43 45//43
f 61//44 21//44 45//44
f 47//45 48//45 49//45
f 47//46 49//46 50//46
f 46//47 47//47 50//47
f 50//48 51//48 52//48
f 46//49 50//49 52//49
f 46//50 52//50 53//50
f 46//51 53//51 54//51
f 46//52 54//52 55//52
f 55//53 56//53 57//53
f 46//54 55//54 57//54
f 46//55 57//55 58//55
f 45//56 46//56 58//56
f 45//57 58//57 59//57
f 45//58 59//58 60//58
f 45//59 60//59 61//59
usemtl assumed_roof
f 122//60 63//60 62//60
f 63//61 65//61 64//61
f 63//62 66//62 65//62
f 122//63 66//63 63//63
f 122//64 67//64 66//64
f 122//65 68//65 67//65
f 122//66 69//66 68//66
f 122//67 70//67 69//67
f 70//68 72//68 71//68
f 70//69 73//69 72//69
f 122//70 73//70 70//70
f 122//71 74//71 73//71
f 75//72 77//72 76//72
f 75//73 78//73 77//73
f 75//74 79//74 78//74
f 75//75 80//75 79//75
f 74//76 80//76 75//76
f 122//77 80//77 74//77
f 122//78 81//78 80//78
f 122//79 82//79 81//79
f 82//80 84//80 83//80
f 85//81 87//81 86//81
f 85//82 88//82 87//82
f 85//83 89//83 88//83
f 85//84 90//84 89//84
f 84//85 90//85 85//85
f 90//86 92//86 91//86
f 90//87 93//87 92//87
f 90//88 94//88 93//88
f 94//89 96//89 95//89
f 94//90 97//90 96//90
f 90//91 97//91 94//91
f 90//92 98//92 97//92
f 84//93 98//93 90//93
f 98//94 100//94 99//94
f 84//95 100//95 98//95
f 84//96 101//96 100//96
f 82//97 101//97 84//97
f 82//98 102//98 101//98
f 102//99 104//99 103//99
f 102//100 105//100 104//100
f 82//101 105//101 102//101
f 82//102 106//102 105//102
f 122//103 106//103 82//103
f 108//104 110//104 109//104
f 108//105 111//105 110//105
f 107//106 111//106 108//106
f 111//107 113//107 112//107
f 107//108 113//108 111//108
f 107//109 114//109 113//109
f 107//110 115//110 114//110
f 107//111 116//111 115//111
f 116//112 118//112 117//112
f 107//113 118//113 116//113
f 107//114 119//114 118//114
f 106//115 119//115 107//115
f 106//116 120//116 119//116
f 106//117 121//117 120//117
f 106//118 122//118 121//118
usemtl assumed_wall
f 1//119 63//119 2//119
f 1//120 62//120 63//120
f 2//121 64//121 3//121
f 2//122 63//122 64//122
f 3//123 65//123 4//123
f 3//124 64//124 65//124
f 4//125 66//125 5//125
f 4//126 65//126 66//126
f 5//127 67//127 6//127
f 5//128 66//128 67//128
f 6//129 68//129 7//129
f 6//130 67//130 68//130
f 7//131 69//131 8//131
f 7//132 68//132 69//132
f 8//133 70//133 9//133
f 8//134 69//134 70//134
f 9//135 71//135 10//135
f 9//136 70//136 71//136
f 10//137 72//137 11//137
f 10//138 71//138 72//138
f 11//139 73//139 12//139
f 11//140 72//140 73//140
f 12//141 74//141 13//141
f 12//142 73//142 74//142
f 13//143 75//143 14//143
f 13//144 74//144 75//144
f 14//145 76//145 15//145
f 14//146 75//146 76//146
f 15//147 77//147 16//147
f 15//148 76//148 77//148
f 16//149 78//149 17//149
f 16//150 77//150 78//150
f 17//151 79//151 18//151
f 17//152 78//152 79//152
f 18//153 80//153 19//153
f 18//154 79//154 80//154
f 19//155 81//155 20//155
f 19//156 80//156 81//156
f 20//157 82//157 21//157
f 20//158 81//158 82//158
f 21//159 83//159 22//159
f 21//160 82//160 83//160
f 22//161 84//161 23//161
f 22//162 83//162 84//162
f 23//163 85//163 24//163
f 23//164 84//164 85//164
f 24//165 86//165 25//165
f 24//166 85//166 86//166
f 25//167 87//167 26//167
f 25//168 86//168 87//168
f 26//169 88//169 27//169
f 26//170 87//170 88//170
f 27//171 89//171 28//171
f 27//172 88//172 89//172
f 28//173 90//173 29//173
f 28//174 89//174 90//174
f 29//175 91//175 30//175
f 29//176 90//176 91//176
f 30//177 92//177 31//177
f 30//178 91//178 92//178
f 31//179 93//179 32//179
f 31//180 92//180 93//180
f 32//181 94//181 33//181
f 32//182 93//182 94//182
f 33//183 95//183 34//183
f 33//184 94//184 95//184
f 34//185 96//185 35//185
f 34//186 95//186 96//186
f 35//187 97//187 36//187
f 35//188 96//188 97//188
f 36//189 98//189 37//189
f 36//190 97//190 98//190
f 37//191 99//191 38//191
f 37//192 98//192 99//192
f 38//193 100//193 39//193
f 38//194 99//194 100//194
f 39//195 101//195 40//195
f 39//196 100//196 101//196
f 40//197 102//197 41//197
f 40//198 101//198 102//198
f 41//199 103//199 42//199
f 41//200 102//200 103//200
f 42//201 104//201 43//201
f 42//202 103//202 104//202
f 43//203 105//203 44//203
f 43//204 104//204 105//204
f 44//205 106//205 45//205
f 44//206 105//206 106//206
f 45//207 107//207 46//207
f 45//208 106//208 107//208
f 46//209 108//209 47//209
f 46//210 107//210 108//210
f 47//211 109//211 48//211
f 47//212 108//212 109//212
f 48//213 110//213 49//213
f 48//214 109//214 110//214
f 49//215 111//215 50//215
f 49//216 110//216 111//216
f 50//217 112//217 51//217
f 50//218 111//218 112//218
f 51//219 113//219 52//219
f 51//220 112//220 113//220
f 52//221 114//221 53//221
f 52//222 113//222 114//222
f 53//223 115//223 54//223
f 53//224 114//224 115//224
f 54//225 116//225 55//225
f 54//226 115//226 116//226
f 55//227 117//227 56//227
f 55//228 116//228 117//228
f 56//229 118//229 57//229
f 56//230 117//230 118//230
f 57//231 119//231 58//231
f 57//232 118//232 119//232
f 58//233 120//233 59//233
f 58//234 119//234 120//234
f 59//235 121//235 60//235
f 59//236 120//236 121//236
f 60//237 122//237 61//237
f 60//238 121//238 122//238
f 61//239 62//239 1//239
f 61//240 122//240 62//240
