# construction_6607_assumed_A_Casa
# source A_Casa
# h_campo 0.000000
# modeled_height 6.000000
# height_kind assumed
# local_origin_world_x 172001.034850
# local_origin_world_y 402500.144600
mtllib construction_artifacts.mtl

o construction_6607_assumed_A_Casa
v -11.345000 -4.952500 0.000000
v -13.681000 -0.597500 0.000000
v -4.955000 2.219500 0.000000
v -6.674000 7.205500 0.000000
v 2.019000 9.606500 0.000000
v 3.131000 4.417500 0.000000
v 10.138000 6.735500 0.000000
v 13.681000 -4.843500 0.000000
v -1.289000 -9.606500 0.000000
v -3.765000 -2.341500 0.000000
v -11.345000 -4.952500 6.000000
v -13.681000 -0.597500 6.000000
v -4.955000 2.219500 6.000000
v -6.674000 7.205500 6.000000
v 2.019000 9.606500 6.000000
v 3.131000 4.417500 6.000000
v 10.138000 6.735500 6.000000
v 13.681000 -4.843500 6.000000
v -1.289000 -9.606500 6.000000
v -3.765000 -2.341500 6.000000
vn -0.000000 0.000000 -1.000000
vn 0.000000 0.000000 -1.000000
vn 0.000000 0.000000 -1.000000
vn 0.000000 0.000000 -1.000000
vn 0.000000 0.000000 -1.000000
vn 0.000000 0.000000 -1.000000
vn 0.000000 0.000000 -1.000000
vn -0.000000 0.000000 -1.000000
vn 0.000000 0.000000 1.000000
vn 0.000000 0.000000 1.000000
vn 0.000000 -0.000000 1.000000
vn 0.000000 -0.000000 1.000000
vn 0.000000 0.000000 1.000000
vn 0.000000 0.000000 1.000000
vn -0.000000 0.000000 1.000000
vn 0.000000 0.000000 1.000000
vn -0.881230 -0.472687 0.000000
vn -0.881230 -0.472687 0.000000
vn -0.307216 0.951640 0.000000
vn -0.307216 0.951640 0.000000
vn -0.945391 -0.325938 0.000000
vn -0.945391 -0.325938 0.000000
vn -0.266231 0.963909 0.000000
vn -0.266231 0.963909 0.000000
vn 0.977800 0.209542 0.000000
vn 0.977800 0.209542 -0.000000
vn -0.314073 0.949399 0.000000
vn -0.314073 0.949399 0.000000
vn 0.956237 0.292594 0.000000
vn 0.956237 0.292594 -0.000000
vn 0.303193 -0.952929 0.000000
vn 0.303193 -0.952929 0.000000
vn -0.946538 -0.322592 0.000000
vn -0.946538 -0.322592 0.000000
vn 0.325679 -0.945480 0.000000
vn 0.325679 -0.945480 0.000000
usemtl assumed_base
f 10//1 1//1 2//1
f 10//2 2//2 3//2
f 3//3 4//3 5//3
f 10//4 3//4 5//4
f 10//5 5//5 6//5
f 10//6 6//6 7//6
f 10//7 7//7 8//7
f 8//8 9//8 10//8
usemtl assumed_roof
f 20//9 12//9 11//9
f 20//10 13//10 12//10
f 13//11 15//11 14//11
f 20//12 15//12 13//12
f 20//13 16//13 15//13
f 20//14 17//14 16//14
f 20//15 18//15 17//15
f 18//16 20//16 19//16
usemtl assumed_wall
f 1//17 12//17 2//17
f 1//18 11//18 12//18
f 2//19 13//19 3//19
f 2//20 12//20 13//20
f 3//21 14//21 4//21
f 3//22 13//22 14//22
f 4//23 15//23 5//23
f 4//24 14//24 15//24
f 5//25 16//25 6//25
f 5//26 15//26 16//26
f 6//27 17//27 7//27
f 6//28 16//28 17//28
f 7//29 18//29 8//29
f 7//30 17//30 18//30
f 8//31 19//31 9//31
f 8//32 18//32 19//32
f 9//33 20//33 10//33
f 9//34 19//34 20//34
f 10//35 11//35 1//35
f 10//36 20//36 11//36
