# construction_5421_assumed_A_Casa
# source A_Casa
# h_campo 0.000000
# modeled_height 6.000000
# height_kind assumed
# local_origin_world_x 172001.034850
# local_origin_world_y 402500.144600
mtllib construction_artifacts.mtl

o construction_5421_assumed_A_Casa
v -10.298000 5.541500 0.000000
v -1.790000 14.810500 0.000000
v 0.081000 13.813500 0.000000
v 0.807000 14.774500 0.000000
v 5.088000 11.060500 0.000000
v -1.563000 4.235500 0.000000
v 10.298000 -10.767500 0.000000
v 5.775000 -14.810500 0.000000
v -10.298000 5.541500 6.000000
v -1.790000 14.810500 6.000000
v 0.081000 13.813500 6.000000
v 0.807000 14.774500 6.000000
v 5.088000 11.060500 6.000000
v -1.563000 4.235500 6.000000
v 10.298000 -10.767500 6.000000
v 5.775000 -14.810500 6.000000
vn 0.000000 0.000000 -1.000000
vn 0.000000 0.000000 -1.000000
vn 0.000000 0.000000 -1.000000
vn 0.000000 0.000000 -1.000000
vn 0.000000 0.000000 -1.000000
vn 0.000000 0.000000 -1.000000
vn 0.000000 0.000000 1.000000
vn -0.000000 0.000000 1.000000
vn 0.000000 0.000000 1.000000
vn -0.000000 0.000000 1.000000
vn 0.000000 0.000000 1.000000
vn 0.000000 0.000000 1.000000
vn -0.736702 0.676218 0.000000
vn -0.736702 0.676218 0.000000
vn 0.470270 0.882523 0.000000
vn 0.470270 0.882523 -0.000000
vn -0.797903 0.602786 0.000000
vn -0.797903 0.602786 0.000000
vn 0.655313 0.755357 0.000000
vn 0.655313 0.755357 -0.000000
vn 0.716177 -0.697919 0.000000
vn 0.716177 -0.697919 0.000000
vn 0.784462 0.620176 0.000000
vn 0.784462 0.620176 -0.000000
vn 0.666438 -0.745560 0.000000
vn 0.666438 -0.745560 0.000000
vn -0.784777 -0.619778 0.000000
vn -0.784777 -0.619778 0.000000
usemtl assumed_base
f 1//1 2//1 3//1
f 3//2 4//2 5//2
f 1//3 3//3 5//3
f 1//4 5//4 6//4
f 8//5 1//5 6//5
f 6//6 7//6 8//6
usemtl assumed_roof
f 9//7 11//7 10//7
f 11//8 13//8 12//8
f 9//9 13//9 11//9
f 9//10 14//10 13//10
f 16//11 14//11 9//11
f 14//12 16//12 15//12
usemtl assumed_wall
f 1//13 10//13 2//13
f 1//14 9//14 10//14
f 2//15 11//15 3//15
f 2//16 10//16 11//16
f 3//17 12//17 4//17
f 3//18 11//18 12//18
f 4//19 13//19 5//19
f 4//20 12//20 13//20
f 5//21 14//21 6//21
f 5//22 13//22 14//22
f 6//23 15//23 7//23
f 6//24 14//24 15//24
f 7//25 16//25 8//25
f 7//26 15//26 16//26
f 8//27 9//27 1//27
f 8//28 16//28 9//28
