# construction_4506_assumed_A_Casa
# source A_Casa
# h_campo 0.000000
# modeled_height 6.000000
# height_kind assumed
# local_origin_world_x 172001.034850
# local_origin_world_y 402500.144600
mtllib construction_artifacts.mtl

o construction_4506_assumed_A_Casa
v -15.479500 -15.371500 0.000000
v -17.460500 -10.581500 0.000000
v -10.178500 -7.357500 0.000000
v -11.809500 -3.695500 0.000000
v -13.400500 -4.382500 0.000000
v -15.990500 2.067500 0.000000
v -14.254500 3.138500 0.000000
v -15.640500 6.820500 0.000000
v -5.984500 11.541500 0.000000
v -5.971500 10.813500 0.000000
v 15.231500 19.902500 0.000000
v 17.142500 15.436500 0.000000
v 6.439500 11.742500 0.000000
v 8.790500 5.920500 0.000000
v 1.993500 3.594500 0.000000
v 3.340500 -0.127500 0.000000
v 11.343500 2.883500 0.000000
v 17.460500 -10.424500 0.000000
v 12.014500 -13.108500 0.000000
v 7.689500 -4.247500 0.000000
v 3.359500 -5.715500 0.000000
v 3.744500 -7.916500 0.000000
v 1.229500 -8.598500 0.000000
v 2.874500 -12.957500 0.000000
v -0.231500 -13.415500 0.000000
v 0.444500 -14.897500 0.000000
v -10.842500 -19.902500 0.000000
v -13.515500 -14.643500 0.000000
v -15.479500 -15.371500 6.000000
v -17.460500 -10.581500 6.000000
v -10.178500 -7.357500 6.000000
v -11.809500 -3.695500 6.000000
v -13.400500 -4.382500 6.000000
v -15.990500 2.067500 6.000000
v -14.254500 3.138500 6.000000
v -15.640500 6.820500 6.000000
v -5.984500 11.541500 6.000000
v -5.971500 10.813500 6.000000
v 15.231500 19.902500 6.000000
v 17.142500 15.436500 6.000000
v 6.439500 11.742500 6.000000
v 8.790500 5.920500 6.000000
v 1.993500 3.594500 6.000000
v 3.340500 -0.127500 6.000000
v 11.343500 2.883500 6.000000
v 17.460500 -10.424500 6.000000
v 12.014500 -13.108500 6.000000
v 7.689500 -4.247500 6.000000
v 3.359500 -5.715500 6.000000
v 3.744500 -7.916500 6.000000
v 1.229500 -8.598500 6.000000
v 2.874500 -12.957500 6.000000
v -0.231500 -13.415500 6.000000
v 0.444500 -14.897500 6.000000
v -10.842500 -19.902500 6.000000
v -13.515500 -14.643500 6.000000
vn -0.000000 0.000000 -1.000000
vn 0.000000 0.000000 -1.000000
vn -0.000000 0.000000 -1.000000
vn 0.000000 0.000000 -1.000000
vn 0.000000 0.000000 -1.000000
vn 0.000000 0.000000 -1.000000
vn 0.000000 0.000000 -1.000000
vn 0.000000 0.000000 -1.000000
vn 0.000000 0.000000 -1.000000
vn 0.000000 0.000000 -1.000000
vn 0.000000 0.000000 -1.000000
vn 0.000000 0.000000 -1.000000
vn 0.000000 -0.000000 -1.000000
vn 0.000000 0.000000 -1.000000
vn 0.000000 0.000000 -1.000000
vn 0.000000 0.000000 -1.000000
vn 0.000000 0.000000 -1.000000
vn 0.000000 -0.000000 -1.000000
vn 0.000000 0.000000 -1.000000
vn 0.000000 0.000000 -1.000000
vn 0.000000 -0.000000 -1.000000
vn 0.000000 0.000000 -1.000000
vn 0.000000 0.000000 -1.000000
vn 0.000000 0.000000 -1.000000
vn 0.000000 0.000000 -1.000000
vn -0.000000 0.000000 -1.000000
vn 0.000000 0.000000 1.000000
vn 0.000000 -0.000000 1.000000
vn 0.000000 0.000000 1.000000
vn 0.000000 0.000000 1.000000
vn 0.000000 0.000000 1.000000
vn 0.000000 0.000000 1.000000
vn 0.000000 -0.000000 1.000000
vn 0.000000 0.000000 1.000000
vn 0.000000 0.000000 1.000000
vn 0.000000 0.000000 1.000000
vn 0.000000 0.000000 1.000000
vn 0.000000 0.000000 1.000000
vn 0.000000 0.000000 1.000000
vn 0.000000 0.000000 1.000000
vn 0.000000 0.000000 1.000000
vn 0.000000 0.000000 1.000000
vn 0.000000 0.000000 1.000000
vn 0.000000 0.000000 1.000000
vn 0.000000 0.000000 1.000000
vn 0.000000 0.000000 1.000000
vn 0.000000 0.000000 1.000000
vn 0.000000 0.000000 1.000000
vn 0.000000 0.000000 1.000000
vn 0.000000 0.000000 1.000000
vn -0.000000 0.000000 1.000000
vn 0.000000 0.000000 1.000000
vn -0.924090 -0.382176 0.000000
vn -0.924090 -0.382176 0.000000
vn -0.404833 0.914391 0.000000
vn -0.404833 0.914391 0.000000
vn -0.913492 -0.406856 0.000000
vn -0.913492 -0.406856 0.000000
vn 0.396425 -0.918067 0.000000
vn 0.396425 -0.918067 0.000000
vn -0.927980 -0.372631 0.000000
vn -0.927980 -0.372631 0.000000
vn -0.525054 0.851069 0.000000
vn -0.525054 0.851069 0.000000
vn -0.935890 -0.352293 0.000000
vn -0.935890 -0.352293 0.000000
vn -0.439232 0.898374 0.000000
vn -0.439232 0.898374 0.000000
vn 0.999841 0.017854 0.000000
vn 0.999841 0.017854 -0.000000
vn -0.393993 0.919114 0.000000
vn -0.393993 0.919114 0.000000
vn 0.919368 0.393397 0.000000
vn 0.919368 0.393397 -0.000000
vn 0.326252 -0.945283 0.000000
vn 0.326252 -0.945283 0.000000
vn 0.927252 0.374437 0.000000
vn 0.927252 0.374437 -0.000000
vn 0.323776 -0.946134 0.000000
vn 0.323776 -0.946134 0.000000
vn 0.940316 0.340302 0.000000
vn 0.940316 0.340302 -0.000000
vn -0.352136 0.935949 0.000000
vn -0.352136 0.935949 0.000000
vn 0.908612 0.417642 0.000000
vn 0.908612 0.417642 -0.000000
vn 0.442067 -0.896982 0.000000
vn 0.442067 -0.896982 0.000000
vn -0.898666 -0.438633 0.000000
vn -0.898666 -0.438633 0.000000
vn 0.321079 -0.947052 0.000000
vn 0.321079 -0.947052 0.000000
vn 0.985044 0.172304 0.000000
vn 0.985044 0.172304 -0.000000
vn 0.261721 -0.965144 0.000000
vn 0.261721 -0.965144 0.000000
vn 0.935595 0.353075 0.000000
vn 0.935595 0.353075 -0.000000
vn 0.145879 -0.989302 0.000000
vn 0.145879 -0.989302 0.000000
vn 0.909819 0.415005 0.000000
vn 0.909819 0.415005 -0.000000
vn 0.405364 -0.914155 0.000000
vn 0.405364 -0.914155 0.000000
vn -0.891458 -0.453103 0.000000
vn -0.891458 -0.453103 0.000000
vn 0.347563 -0.937657 0.000000
vn 0.347563 -0.937657 0.000000
usemtl assumed_base
f 28//1 1//1 2//1
f 28//2 2//2 3//2
f 4//3 5//3 6//3
f 4//4 6//4 7//4
f 3//5 4//5 7//5
f 3//6 7//6 8//6
f 3//7 8//7 9//7
f 3//8 9//8 10//8
f 10//9 11//9 12//9
f 10//10 12//10 13//10
f 3//11 10//11 13//11
f 28//12 3//12 13//12
f 13//13 14//13 15//13
f 28//14 13//14 15//14
f 28//15 15//15 16//15
f 28//16 16//16 17//16
f 17//17 18//17 19//17
f 17//18 19//18 20//18
f 17//19 20//19 21//19
f 28//20 17//20 21//20
f 21//21 22//21 23//21
f 28//22 21//22 23//22
f 28//23 23//23 24//23
f 28//24 24//24 25//24
f 28//25 25//25 26//25
f 26//26 27//26 28//26
usemtl assumed_roof
f 56//27 30//27 29//27
f 56//28 31//28 30//28
f 32//29 34//29 33//29
f 32//30 35//30 34//30
f 31//31 35//31 32//31
f 31//32 36//32 35//32
f 31//33 37//33 36//33
f 31//34 38//34 37//34
f 38//35 40//35 39//35
f 38//36 41//36 40//36
f 31//37 41//37 38//37
f 56//38 41//38 31//38
f 41//39 43//39 42//39
f 56//40 43//40 41//40
f 56//41 44//41 43//41
f 56//42 45//42 44//42
f 45//43 47//43 46//43
f 45//44 48//44 47//44
f 45//45 49//45 48//45
f 56//46 49//46 45//46
f 49//47 51//47 50//47
f 56//48 51//48 49//48
f 56//49 52//49 51//49
f 56//50 53//50 52//50
f 56//51 54//51 53//51
f 54//52 56//52 55//52
usemtl assumed_wall
f 1//53 30//53 2//53
f 1//54 29//54 30//54
f 2//55 31//55 3//55
f 2//56 30//56 31//56
f 3//57 32//57 4//57
f 3//58 31//58 32//58
f 4//59 33//59 5//59
f 4//60 32//60 33//60
f 5//61 34//61 6//61
f 5//62 33//62 34//62
f 6//63 35//63 7//63
f 6//64 34//64 35//64
f 7//65 36//65 8//65
f 7//66 35//66 36//66
f 8//67 37//67 9//67
f 8//68 36//68 37//68
f 9//69 38//69 10//69
f 9//70 37//70 38//70
f 10//71 39//71 11//71
f 10//72 38//72 39//72
f 11//73 40//73 12//73
f 11//74 39//74 40//74
f 12//75 41//75 13//75
f 12//76 40//76 41//76
f 13//77 42//77 14//77
f 13//78 41//78 42//78
f 14//79 43//79 15//79
f 14//80 42//80 43//80
f 15//81 44//81 16//81
f 15//82 43//82 44//82
f 16//83 45//83 17//83
f 16//84 44//84 45//84
f 17//85 46//85 18//85
f 17//86 45//86 46//86
f 18//87 47//87 19//87
f 18//88 46//88 47//88
f 19//89 48//89 20//89
f 19//90 47//90 48//90
f 20//91 49//91 21//91
f 20//92 48//92 49//92
f 21//93 50//93 22//93
f 21//94 49//94 50//94
f 22//95 51//95 23//95
f 22//96 50//96 51//96
f 23//97 52//97 24//97
f 23//98 51//98 52//98
f 24//99 53//99 25//99
f 24//100 52//100 53//100
f 25//101 54//101 26//101
f 25//102 53//102 54//102
f 26//103 55//103 27//103
f 26//104 54//104 55//104
f 27//105 56//105 28//105
f 27//106 55//106 56//106
f 28//107 29//107 1//107
f 28//108 56//108 29//108
