# construction_4642_assumed_A_Casa
# source A_Casa
# h_campo 0.000000
# modeled_height 6.000000
# height_kind assumed
# local_origin_world_x 172001.034850
# local_origin_world_y 402500.144600
mtllib construction_artifacts.mtl

o construction_4642_assumed_A_Casa
v -22.477000 -15.473000 0.000000
v -15.514000 11.362000 0.000000
v -17.057000 11.523000 0.000000
v -15.924000 16.430000 0.000000
v -7.990000 14.577000 0.000000
v -9.538000 9.080000 0.000000
v 22.477000 -5.686000 0.000000
v 20.347000 -10.297000 0.000000
v 1.399000 -1.326000 0.000000
v -0.924000 -5.752000 0.000000
v -14.225000 0.314000 0.000000
v -18.076000 -16.430000 0.000000
v -22.477000 -15.473000 6.000000
v -15.514000 11.362000 6.000000
v -17.057000 11.523000 6.000000
v -15.924000 16.430000 6.000000
v -7.990000 14.577000 6.000000
v -9.538000 9.080000 6.000000
v 22.477000 -5.686000 6.000000
v 20.347000 -10.297000 6.000000
v 1.399000 -1.326000 6.000000
v -0.924000 -5.752000 6.000000
v -14.225000 0.314000 6.000000
v -18.076000 -16.430000 6.000000
vn 0.000000 0.000000 -1.000000
vn 0.000000 0.000000 -1.000000
vn 0.000000 0.000000 -1.000000
vn 0.000000 0.000000 -1.000000
vn 0.000000 0.000000 -1.000000
vn 0.000000 0.000000 -1.000000
vn 0.000000 0.000000 -1.000000
vn 0.000000 0.000000 -1.000000
vn 0.000000 0.000000 -1.000000
vn 0.000000 -0.000000 -1.000000
vn 0.000000 -0.000000 1.000000
vn 0.000000 0.000000 1.000000
vn 0.000000 -0.000000 1.000000
vn -0.000000 0.000000 1.000000
vn 0.000000 0.000000 1.000000
vn 0.000000 0.000000 1.000000
vn 0.000000 0.000000 1.000000
vn 0.000000 0.000000 1.000000
vn 0.000000 0.000000 1.000000
vn 0.000000 0.000000 1.000000
vn -0.967946 0.251157 0.000000
vn -0.967946 0.251157 0.000000
vn -0.103779 -0.994600 0.000000
vn -0.103779 -0.994600 0.000000
vn -0.974364 0.224976 0.000000
vn -0.974364 0.224976 0.000000
vn 0.227431 0.973794 0.000000
vn 0.227431 0.973794 -0.000000
vn 0.962561 -0.271065 0.000000
vn 0.962561 -0.271065 0.000000
vn 0.418821 0.908069 0.000000
vn 0.418821 0.908069 -0.000000
vn 0.907821 -0.419358 0.000000
vn 0.907821 -0.419358 0.000000
vn -0.427916 -0.903818 0.000000
vn -0.427916 -0.903818 0.000000
vn 0.885451 -0.464732 0.000000
vn 0.885451 -0.464732 0.000000
vn -0.414942 -0.909848 0.000000
vn -0.414942 -0.909848 0.000000
vn 0.974557 -0.224141 0.000000
vn 0.974557 -0.224141 0.000000
vn -0.212485 -0.977164 0.000000
vn -0.212485 -0.977164 0.000000
usemtl assumed_base
f 12//1 1//1 2//1
f 2//2 3//2 4//2
f 2//3 4//3 5//3
f 2//4 5//4 6//4
f 2//5 6//5 7//5
f 2//6 7//6 8//6
f 2//7 8//7 9//7
f 2//8 9//8 10//8
f 2//9 10//9 11//9
f 2//10 11//10 12//10
usemtl assumed_roof
f 24//11 14//11 13//11
f 14//12 16//12 15//12
f 14//13 17//13 16//13
f 14//14 18//14 17//14
f 14//15 19//15 18//15
f 14//16 20//16 19//16
f 14//17 21//17 20//17
f 14//18 22//18 21//18
f 14//19 23//19 22//19
f 14//20 24//20 23//20
usemtl assumed_wall
f 1//21 14//21 2//21
f 1//22 13//22 14//22
f 2//23 15//23 3//23
f 2//24 14//24 15//24
f 3//25 16//25 4//25
f 3//26 15//26 16//26
f 4//27 17//27 5//27
f 4//28 16//28 17//28
f 5//29 18//29 6//29
f 5//30 17//30 18//30
f 6//31 19//31 7//31
f 6//32 18//32 19//32
f 7//33 20//33 8//33
f 7//34 19//34 20//34
f 8//35 21//35 9//35
f 8//36 20//36 21//36
f 9//37 22//37 10//37
f 9//38 21//38 22//38
f 10//39 23//39 11//39
f 10//40 22//40 23//40
f 11//41 24//41 12//41
f 11//42 23//42 24//42
f 12//43 13//43 1//43
f 12//44 24//44 13//44
