# construction_3289_assumed_A_Casa
# source A_Casa
# h_campo 0.000000
# modeled_height 6.000000
# height_kind assumed
# local_origin_world_x 172001.034850
# local_origin_world_y 402500.144600
mtllib construction_artifacts.mtl

o construction_3289_assumed_A_Casa
v -13.989500 -7.563000 0.000000
v -4.288500 -1.477000 0.000000
v -6.416500 2.492000 0.000000
v 0.681500 9.290000 0.000000
v -1.842500 24.961000 0.000000
v 2.153500 25.184000 0.000000
v 4.228500 11.567000 0.000000
v 13.989500 2.207000 0.000000
v 10.536500 -5.349000 0.000000
v 6.836500 -3.883000 0.000000
v 8.218500 -0.436000 0.000000
v 5.197500 3.394000 0.000000
v 0.055500 -0.241000 0.000000
v 4.665500 -8.178000 0.000000
v 2.966500 -9.030000 0.000000
v 7.969500 -17.959000 0.000000
v -3.460500 -25.184000 0.000000
v -13.989500 -7.563000 6.000000
v -4.288500 -1.477000 6.000000
v -6.416500 2.492000 6.000000
v 0.681500 9.290000 6.000000
v -1.842500 24.961000 6.000000
v 2.153500 25.184000 6.000000
v 4.228500 11.567000 6.000000
v 13.989500 2.207000 6.000000
v 10.536500 -5.349000 6.000000
v 6.836500 -3.883000 6.000000
v 8.218500 -0.436000 6.000000
v 5.197500 3.394000 6.000000
v 0.055500 -0.241000 6.000000
v 4.665500 -8.178000 6.000000
v 2.966500 -9.030000 6.000000
v 7.969500 -17.959000 6.000000
v -3.460500 -25.184000 6.000000
vn 0.000000 0.000000 -1.000000
vn 0.000000 0.000000 -1.000000
vn 0.000000 0.000000 -1.000000
vn 0.000000 0.000000 -1.000000
vn 0.000000 0.000000 -1.000000
vn 0.000000 0.000000 -1.000000
vn 0.000000 0.000000 -1.000000
vn 0.000000 0.000000 -1.000000
vn 0.000000 0.000000 -1.000000
vn 0.000000 0.000000 -1.000000
vn 0.000000 -0.000000 -1.000000
vn 0.000000 0.000000 -1.000000
vn 0.000000 0.000000 -1.000000
vn 0.000000 0.000000 -1.000000
vn 0.000000 -0.000000 -1.000000
vn 0.000000 0.000000 1.000000
vn 0.000000 -0.000000 1.000000
vn 0.000000 -0.000000 1.000000
vn 0.000000 -0.000000 1.000000
vn 0.000000 0.000000 1.000000
vn -0.000000 0.000000 1.000000
vn 0.000000 0.000000 1.000000
vn 0.000000 0.000000 1.000000
vn 0.000000 0.000000 1.000000
vn 0.000000 0.000000 1.000000
vn 0.000000 0.000000 1.000000
vn 0.000000 0.000000 1.000000
vn 0.000000 0.000000 1.000000
vn 0.000000 0.000000 1.000000
vn 0.000000 0.000000 1.000000
vn -0.531435 0.847099 0.000000
vn -0.531435 0.847099 0.000000
vn -0.881318 -0.472523 0.000000
vn -0.881318 -0.472523 0.000000
vn -0.691680 0.722204 0.000000
vn -0.691680 0.722204 0.000000
vn -0.987277 -0.159013 0.000000
vn -0.987277 -0.159013 0.000000
vn -0.055719 0.998446 0.000000
vn -0.055719 0.998446 0.000000
vn 0.988588 0.150644 0.000000
vn 0.988588 0.150644 -0.000000
vn 0.692125 0.721777 0.000000
vn 0.692125 0.721777 -0.000000
vn 0.909528 -0.415643 0.000000
vn 0.909528 -0.415643 0.000000
vn -0.368356 -0.929685 0.000000
vn -0.368356 -0.929685 0.000000
vn -0.928179 0.372133 0.000000
vn -0.928179 0.372133 0.000000
vn -0.785150 -0.619305 0.000000
vn -0.785150 -0.619305 0.000000
vn 0.577250 -0.816567 0.000000
vn 0.577250 -0.816567 0.000000
vn 0.864722 0.502251 0.000000
vn 0.864722 0.502251 -0.000000
vn 0.448266 -0.893900 0.000000
vn 0.448266 -0.893900 0.000000
vn 0.872391 0.488809 0.000000
vn 0.872391 0.488809 -0.000000
vn 0.534313 -0.845287 0.000000
vn 0.534313 -0.845287 0.000000
vn -0.858429 -0.512933 0.000000
vn -0.858429 -0.512933 0.000000
usemtl assumed_base
f 17//1 1//1 2//1
f 2//2 3//2 4//2
f 17//3 2//3 4//3
f 4//4 5//4 6//4
f 4//5 6//5 7//5
f 4//6 7//6 8//6
f 8//7 9//7 10//7
f 8//8 10//8 11//8
f 4//9 8//9 11//9
f 4//10 11//10 12//10
f 4//11 12//11 13//11
f 17//12 4//12 13//12
f 13//13 14//13 15//13
f 17//14 13//14 15//14
f 15//15 16//15 17//15
usemtl assumed_roof
f 34//16 19//16 18//16
f 19//17 21//17 20//17
f 34//18 21//18 19//18
f 21//19 23//19 22//19
f 21//20 24//20 23//20
f 21//21 25//21 24//21
f 25//22 27//22 26//22
f 25//23 28//23 27//23
f 21//24 28//24 25//24
f 21//25 29//25 28//25
f 21//26 30//26 29//26
f 34//27 30//27 21//27
f 30//28 32//28 31//28
f 34//29 32//29 30//29
f 32//30 34//30 33//30
usemtl assumed_wall
f 1//31 19//31 2//31
f 1//32 18//32 19//32
f 2//33 20//33 3//33
f 2//34 19//34 20//34
f 3//35 21//35 4//35
f 3//36 20//36 21//36
f 4//37 22//37 5//37
f 4//38 21//38 22//38
f 5//39 23//39 6//39
f 5//40 22//40 23//40
f 6//41 24//41 7//41
f 6//42 23//42 24//42
f 7//43 25//43 8//43
f 7//44 24//44 25//44
f 8//45 26//45 9//45
f 8//46 25//46 26//46
f 9//47 27//47 10//47
f 9//48 26//48 27//48
f 10//49 28//49 11//49
f 10//50 27//50 28//50
f 11//51 29//51 12//51
f 11//52 28//52 29//52
f 12//53 30//53 13//53
f 12//54 29//54 30//54
f 13//55 31//55 14//55
f 13//56 30//56 31//56
f 14//57 32//57 15//57
f 14//58 31//58 32//58
f 15//59 33//59 16//59
f 15//60 32//60 33//60
f 16//61 34//61 17//61
f 16//62 33//62 34//62
f 17//63 18//63 1//63
f 17//64 34//64 18//64
