# construction_3220_assumed_A_Casa
# source A_Casa
# h_campo 0.000000
# modeled_height 6.000000
# height_kind assumed
# local_origin_world_x 172001.034850
# local_origin_world_y 402500.144600
mtllib construction_artifacts.mtl

o construction_3220_assumed_A_Casa
v -7.937000 -2.649500 0.000000
v -11.005000 1.102500 0.000000
v -5.704000 6.174500 0.000000
v -4.730000 5.279500 0.000000
v -2.312000 7.976500 0.000000
v 5.558000 -0.501500 0.000000
v 7.515000 1.433500 0.000000
v 11.005000 -2.202500 0.000000
v 6.092000 -6.119500 0.000000
v 1.486000 -6.719500 0.000000
v 0.005000 -5.574500 0.000000
v -2.710000 -7.976500 0.000000
v -7.193000 -2.519500 0.000000
v -7.937000 -2.649500 6.000000
v -11.005000 1.102500 6.000000
v -5.704000 6.174500 6.000000
v -4.730000 5.279500 6.000000
v -2.312000 7.976500 6.000000
v 5.558000 -0.501500 6.000000
v 7.515000 1.433500 6.000000
v 11.005000 -2.202500 6.000000
v 6.092000 -6.119500 6.000000
v 1.486000 -6.719500 6.000000
v 0.005000 -5.574500 6.000000
v -2.710000 -7.976500 6.000000
v -7.193000 -2.519500 6.000000
vn -0.000000 0.000000 -1.000000
vn 0.000000 0.000000 -1.000000
vn 0.000000 0.000000 -1.000000
vn 0.000000 0.000000 -1.000000
vn 0.000000 0.000000 -1.000000
vn 0.000000 0.000000 -1.000000
vn 0.000000 0.000000 -1.000000
vn 0.000000 0.000000 -1.000000
vn -0.000000 0.000000 -1.000000
vn 0.000000 0.000000 -1.000000
vn -0.000000 0.000000 -1.000000
vn 0.000000 0.000000 1.000000
vn 0.000000 -0.000000 1.000000
vn 0.000000 0.000000 1.000000
vn 0.000000 0.000000 1.000000
vn 0.000000 0.000000 1.000000
vn -0.000000 0.000000 1.000000
vn 0.000000 0.000000 1.000000
vn -0.000000 0.000000 1.000000
vn 0.000000 0.000000 1.000000
vn 0.000000 0.000000 1.000000
vn 0.000000 0.000000 1.000000
vn -0.774141 -0.633013 0.000000
vn -0.774141 -0.633013 0.000000
vn -0.691328 0.722541 0.000000
vn -0.691328 0.722541 0.000000
vn 0.676614 0.736338 0.000000
vn 0.676614 0.736338 -0.000000
vn -0.744569 0.667545 0.000000
vn -0.744569 0.667545 0.000000
vn 0.732898 0.680338 0.000000
vn 0.732898 0.680338 -0.000000
vn -0.703099 0.711092 0.000000
vn -0.703099 0.711092 0.000000
vn 0.721443 0.692474 0.000000
vn 0.721443 0.692474 -0.000000
vn 0.623394 -0.781908 0.000000
vn 0.623394 -0.781908 0.000000
vn 0.129174 -0.991622 0.000000
vn 0.129174 -0.991622 0.000000
vn -0.611645 -0.791132 0.000000
vn -0.611645 -0.791132 0.000000
vn 0.662616 -0.748960 0.000000
vn 0.662616 -0.748960 0.000000
vn -0.772694 -0.634779 0.000000
vn -0.772694 -0.634779 0.000000
vn 0.172123 -0.985075 0.000000
vn 0.172123 -0.985075 0.000000
usemtl assumed_base
f 13//1 1//1 2//1
f 13//2 2//2 3//2
f 13//3 3//3 4//3
f 13//4 4//4 5//4
f 13//5 5//5 6//5
f 6//6 7//6 8//6
f 13//7 6//7 8//7
f 13//8 8//8 9//8
f 9//9 10//9 11//9
f 13//10 9//10 11//10
f 11//11 12//11 13//11
usemtl assumed_roof
f 26//12 15//12 14//12
f 26//13 16//13 15//13
f 26//14 17//14 16//14
f 26//15 18//15 17//15
f 26//16 19//16 18//16
f 19//17 21//17 20//17
f 26//18 21//18 19//18
f 26//19 22//19 21//19
f 22//20 24//20 23//20
f 26//21 24//21 22//21
f 24//22 26//22 25//22
usemtl assumed_wall
f 1//23 15//23 2//23
f 1//24 14//24 15//24
f 2//25 16//25 3//25
f 2//26 15//26 16//26
f 3//27 17//27 4//27
f 3//28 16//28 17//28
f 4//29 18//29 5//29
f 4//30 17//30 18//30
f 5//31 19//31 6//31
f 5//32 18//32 19//32
f 6//33 20//33 7//33
f 6//34 19//34 20//34
f 7//35 21//35 8//35
f 7//36 20//36 21//36
f 8//37 22//37 9//37
f 8//38 21//38 22//38
f 9//39 23//39 10//39
f 9//40 22//40 23//40
f 10//41 24//41 11//41
f 10//42 23//42 24//42
f 11//43 25//43 12//43
f 11//44 24//44 25//44
f 12//45 26//45 13//45
f 12//46 25//46 26//46
f 13//47 14//47 1//47
f 13//48 26//48 14//48
