# construction_2589_assumed_A_Casa
# source A_Casa
# h_campo 0.000000
# modeled_height 6.000000
# height_kind assumed
# local_origin_world_x 172001.034850
# local_origin_world_y 402500.144600
mtllib construction_artifacts.mtl

o construction_2589_assumed_A_Casa
v -9.196500 3.325500 0.000000
v 3.587500 10.168500 0.000000
v 9.196500 -0.529500 0.000000
v 7.186500 -1.838500 0.000000
v 8.737500 -4.694500 0.000000
v -2.026500 -10.168500 0.000000
v -9.196500 3.325500 6.000000
v 3.587500 10.168500 6.000000
v 9.196500 -0.529500 6.000000
v 7.186500 -1.838500 6.000000
v 8.737500 -4.694500 6.000000
v -2.026500 -10.168500 6.000000
vn 0.000000 0.000000 -1.000000
vn 0.000000 0.000000 -1.000000
vn 0.000000 0.000000 -1.000000
vn 0.000000 -0.000000 -1.000000
vn 0.000000 -0.000000 1.000000
vn 0.000000 0.000000 1.000000
vn 0.000000 0.000000 1.000000
vn 0.000000 0.000000 1.000000
vn -0.471923 0.881640 0.000000
vn -0.471923 0.881640 0.000000
vn 0.885652 0.464350 0.000000
vn 0.885652 0.464350 -0.000000
vn 0.545721 -0.837967 0.000000
vn 0.545721 -0.837967 0.000000
vn 0.878776 0.477234 0.000000
vn 0.878776 0.477234 -0.000000
vn 0.453298 -0.891359 0.000000
vn 0.453298 -0.891359 0.000000
vn -0.883080 -0.469222 0.000000
vn -0.883080 -0.469222 0.000000
usemtl assumed_base
f 6//1 1//1 2//1
f 2//2 3//2 4//2
f 6//3 2//3 4//3
f 4//4 5//4 6//4
usemtl assumed_roof
f 12//5 8//5 7//5
f 8//6 10//6 9//6
f 12//7 10//7 8//7
f 10//8 12//8 11//8
usemtl assumed_wall
f 1//9 8//9 2//9
f 1//10 7//10 8//10
f 2//11 9//11 3//11
f 2//12 8//12 9//12
f 3//13 10//13 4//13
f 3//14 9//14 10//14
f 4//15 11//15 5//15
f 4//16 10//16 11//16
f 5//17 12//17 6//17
f 5//18 11//18 12//18
f 6//19 7//19 1//19
f 6//20 12//20 7//20
