# construction_0472_assumed_A_Casa
# source A_Casa
# h_campo 0.000000
# modeled_height 6.000000
# height_kind assumed
# local_origin_world_x 172001.034850
# local_origin_world_y 402500.144600
mtllib construction_artifacts.mtl

o construction_0472_assumed_A_Casa
v -22.079000 -7.604500 0.000000
v -18.859000 -5.673500 0.000000
v 17.056000 15.621500 0.000000
v 18.846000 15.922500 0.000000
v 21.118000 14.554500 0.000000
v 22.079000 12.422500 0.000000
v 21.483000 9.537500 0.000000
v -12.699000 -14.436500 0.000000
v -13.409000 -13.295500 0.000000
v -16.815000 -15.922500 0.000000
v -22.079000 -7.604500 6.000000
v -18.859000 -5.673500 6.000000
v 17.056000 15.621500 6.000000
v 18.846000 15.922500 6.000000
v 21.118000 14.554500 6.000000
v 22.079000 12.422500 6.000000
v 21.483000 9.537500 6.000000
v -12.699000 -14.436500 6.000000
v -13.409000 -13.295500 6.000000
v -16.815000 -15.922500 6.000000
vn 0.000000 0.000000 -1.000000
vn 0.000000 0.000000 -1.000000
vn 0.000000 0.000000 -1.000000
vn 0.000000 0.000000 -1.000000
vn 0.000000 0.000000 -1.000000
vn 0.000000 -0.000000 -1.000000
vn 0.000000 0.000000 -1.000000
vn 0.000000 0.000000 -1.000000
vn 0.000000 0.000000 1.000000
vn 0.000000 -0.000000 1.000000
vn 0.000000 0.000000 1.000000
vn 0.000000 0.000000 1.000000
vn 0.000000 0.000000 1.000000
vn 0.000000 0.000000 1.000000
vn 0.000000 0.000000 1.000000
vn 0.000000 0.000000 1.000000
vn -0.514300 0.857610 0.000000
vn -0.514300 0.857610 0.000000
vn -0.510016 0.860165 0.000000
vn -0.510016 0.860165 0.000000
vn -0.165828 0.986155 0.000000
vn -0.165828 0.986155 0.000000
vn 0.515826 0.856693 0.000000
vn 0.515826 0.856693 -0.000000
vn 0.911665 0.410934 0.000000
vn 0.911665 0.410934 -0.000000
vn 0.979321 -0.202314 0.000000
vn 0.979321 -0.202314 0.000000
vn 0.574211 -0.818707 0.000000
vn 0.574211 -0.818707 0.000000
vn -0.849042 -0.528326 0.000000
vn -0.849042 -0.528326 0.000000
vn 0.610733 -0.791837 0.000000
vn 0.610733 -0.791837 0.000000
vn -0.845006 -0.534757 0.000000
vn -0.845006 -0.534757 0.000000
usemtl assumed_base
f 10//1 1//1 2//1
f 10//2 2//2 3//2
f 10//3 3//3 4//3
f 10//4 4//4 5//4
f 5//5 6//5 7//5
f 5//6 7//6 8//6
f 5//7 8//7 9//7
f 5//8 9//8 10//8
usemtl assumed_roof
f 20//9 12//9 11//9
f 20//10 13//10 12//10
f 20//11 14//11 13//11
f 20//12 15//12 14//12
f 15//13 17//13 16//13
f 15//14 18//14 17//14
f 15//15 19//15 18//15
f 15//16 20//16 19//16
usemtl assumed_wall
f 1//17 12//17 2//17
f 1//18 11//18 12//18
f 2//19 13//19 3//19
f 2//20 12//20 13//20
f 3//21 14//21 4//21
f 3//22 13//22 14//22
f 4//23 15//23 5//23
f 4//24 14//24 15//24
f 5//25 16//25 6//25
f 5//26 15//26 16//26
f 6//27 17//27 7//27
f 6//28 16//28 17//28
f 7//29 18//29 8//29
f 7//30 17//30 18//30
f 8//31 19//31 9//31
f 8//32 18//32 19//32
f 9//33 20//33 10//33
f 9//34 19//34 20//34
f 10//35 11//35 1//35
f 10//36 20//36 11//36
