# construction_7076_assumed_A_Casa
# source A_Casa
# h_campo 0.000000
# modeled_height 6.000000
# height_kind assumed
# local_origin_world_x 172001.034850
# local_origin_world_y 402500.144600
mtllib construction_artifacts.mtl

o construction_7076_assumed_A_Casa
v -9.688500 3.146500 0.000000
v -6.354500 5.810500 0.000000
v 0.602500 8.441500 0.000000
v 0.123500 8.931500 0.000000
v 1.987500 10.088500 0.000000
v -4.995500 26.537500 0.000000
v 7.120500 31.626500 0.000000
v 14.936500 13.621500 0.000000
v 4.770500 9.267500 0.000000
v 5.790500 5.802500 0.000000
v -1.348500 3.212500 0.000000
v -2.338500 -9.074500 0.000000
v -3.293500 -9.077500 0.000000
v -3.482500 -11.577500 0.000000
v 6.322500 -13.164500 0.000000
v 4.965500 -20.104500 0.000000
v 2.392500 -18.525500 0.000000
v 1.685500 -31.626500 0.000000
v -1.810500 -31.566500 0.000000
v -1.715500 -30.274500 0.000000
v -6.278500 -30.259500 0.000000
v -6.355500 -27.858500 0.000000
v -10.315500 -27.841500 0.000000
v -10.140500 -20.175500 0.000000
v -11.650500 -17.652500 0.000000
v -14.936500 -17.380500 0.000000
v -13.445500 -3.518500 0.000000
v -10.609500 -3.510500 0.000000
v -9.688500 3.146500 6.000000
v -6.354500 5.810500 6.000000
v 0.602500 8.441500 6.000000
v 0.123500 8.931500 6.000000
v 1.987500 10.088500 6.000000
v -4.995500 26.537500 6.000000
v 7.120500 31.626500 6.000000
v 14.936500 13.621500 6.000000
v 4.770500 9.267500 6.000000
v 5.790500 5.802500 6.000000
v -1.348500 3.212500 6.000000
v -2.338500 -9.074500 6.000000
v -3.293500 -9.077500 6.000000
v -3.482500 -11.577500 6.000000
v 6.322500 -13.164500 6.000000
v 4.965500 -20.104500 6.000000
v 2.392500 -18.525500 6.000000
v 1.685500 -31.626500 6.000000
v -1.810500 -31.566500 6.000000
v -1.715500 -30.274500 6.000000
v -6.278500 -30.259500 6.000000
v -6.355500 -27.858500 6.000000
v -10.315500 -27.841500 6.000000
v -10.140500 -20.175500 6.000000
v -11.650500 -17.652500 6.000000
v -14.936500 -17.380500 6.000000
v -13.445500 -3.518500 6.000000
v -10.609500 -3.510500 6.000000
vn 0.000000 0.000000 -1.000000
vn 0.000000 0.000000 -1.000000
vn 0.000000 0.000000 -1.000000
vn 0.000000 0.000000 -1.000000
vn 0.000000 0.000000 -1.000000
vn 0.000000 0.000000 -1.000000
vn 0.000000 0.000000 -1.000000
vn 0.000000 0.000000 -1.000000
vn 0.000000 -0.000000 -1.000000
vn 0.000000 0.000000 -1.000000
vn 0.000000 0.000000 -1.000000
vn 0.000000 0.000000 -1.000000
vn 0.000000 0.000000 -1.000000
vn 0.000000 0.000000 -1.000000
vn 0.000000 0.000000 -1.000000
vn 0.000000 0.000000 -1.000000
vn 0.000000 0.000000 -1.000000
vn 0.000000 0.000000 -1.000000
vn 0.000000 0.000000 -1.000000
vn 0.000000 0.000000 -1.000000
vn 0.000000 0.000000 -1.000000
vn 0.000000 0.000000 -1.000000
vn 0.000000 0.000000 -1.000000
vn 0.000000 -0.000000 -1.000000
vn 0.000000 0.000000 -1.000000
vn 0.000000 0.000000 -1.000000
vn 0.000000 0.000000 1.000000
vn 0.000000 0.000000 1.000000
vn 0.000000 -0.000000 1.000000
vn 0.000000 -0.000000 1.000000
vn 0.000000 0.000000 1.000000
vn 0.000000 0.000000 1.000000
vn 0.000000 0.000000 1.000000
vn 0.000000 0.000000 1.000000
vn 0.000000 0.000000 1.000000
vn 0.000000 0.000000 1.000000
vn -0.000000 0.000000 1.000000
vn 0.000000 0.000000 1.000000
vn 0.000000 0.000000 1.000000
vn 0.000000 0.000000 1.000000
vn 0.000000 0.000000 1.000000
vn 0.000000 0.000000 1.000000
vn 0.000000 0.000000 1.000000
vn 0.000000 0.000000 1.000000
vn 0.000000 0.000000 1.000000
vn 0.000000 0.000000 1.000000
vn 0.000000 0.000000 1.000000
vn 0.000000 0.000000 1.000000
vn 0.000000 0.000000 1.000000
vn 0.000000 0.000000 1.000000
vn 0.000000 0.000000 1.000000
vn 0.000000 0.000000 1.000000
vn -0.624238 0.781234 0.000000
vn -0.624238 0.781234 0.000000
vn -0.353730 0.935348 0.000000
vn -0.353730 0.935348 0.000000
vn -0.715088 -0.699035 0.000000
vn -0.715088 -0.699035 0.000000
vn -0.527374 0.849633 0.000000
vn -0.527374 0.849633 0.000000
vn -0.920488 -0.390770 0.000000
vn -0.920488 -0.390770 0.000000
vn -0.387251 0.921974 0.000000
vn -0.387251 0.921974 0.000000
vn 0.917298 0.398201 0.000000
vn 0.917298 0.398201 -0.000000
vn 0.393701 -0.919239 0.000000
vn 0.393701 -0.919239 0.000000
vn 0.959299 0.282391 0.000000
vn 0.959299 0.282391 -0.000000
vn 0.341045 -0.940047 0.000000
vn 0.341045 -0.940047 0.000000
vn 0.996770 -0.080313 0.000000
vn 0.996770 -0.080313 0.000000
vn 0.003141 -0.999995 0.000000
vn 0.003141 -0.999995 0.000000
vn 0.997155 -0.075385 0.000000
vn 0.997155 -0.075385 0.000000
vn 0.159777 0.987153 0.000000
vn 0.159777 0.987153 -0.000000
vn 0.981415 -0.191899 0.000000
vn 0.981415 -0.191899 0.000000
vn -0.523044 -0.852306 0.000000
vn -0.523044 -0.852306 0.000000
vn 0.998547 -0.053887 0.000000
vn 0.998547 -0.053887 0.000000
vn -0.017160 -0.999853 0.000000
vn -0.017160 -0.999853 0.000000
vn -0.997308 0.073331 0.000000
vn -0.997308 0.073331 0.000000
vn -0.003287 -0.999995 0.000000
vn -0.003287 -0.999995 0.000000
vn -0.999486 -0.032053 0.000000
vn -0.999486 -0.032053 0.000000
vn -0.004293 -0.999991 0.000000
vn -0.004293 -0.999991 0.000000
vn -0.999740 0.022822 0.000000
vn -0.999740 0.022822 0.000000
vn -0.858063 -0.513545 0.000000
vn -0.858063 -0.513545 0.000000
vn -0.082493 -0.996592 0.000000
vn -0.082493 -0.996592 0.000000
vn -0.994265 0.106943 0.000000
vn -0.994265 0.106943 0.000000
vn -0.002821 0.999996 0.000000
vn -0.002821 0.999996 0.000000
vn -0.990565 0.137045 0.000000
vn -0.990565 0.137045 0.000000
usemtl assumed_base
f 28//1 1//1 2//1
f 28//2 2//2 3//2
f 3//3 4//3 5//3
f 5//4 6//4 7//4
f 5//5 7//5 8//5
f 3//6 5//6 8//6
f 3//7 8//7 9//7
f 28//8 3//8 9//8
f 9//9 10//9 11//9
f 28//10 9//10 11//10
f 28//11 11//11 12//11
f 28//12 12//12 13//12
f 28//13 13//13 14//13
f 14//14 15//14 16//14
f 14//15 16//15 17//15
f 28//16 14//16 17//16
f 28//17 17//17 18//17
f 18//18 19//18 20//18
f 28//19 18//19 20//19
f 20//20 21//20 22//20
f 28//21 20//21 22//21
f 22//22 23//22 24//22
f 28//23 22//23 24//23
f 28//24 24//24 25//24
f 28//25 25//25 26//25
f 26//26 27//26 28//26
usemtl assumed_roof
f 56//27 30//27 29//27
f 56//28 31//28 30//28
f 31//29 33//29 32//29
f 33//30 35//30 34//30
f 33//31 36//31 35//31
f 31//32 36//32 33//32
f 31//33 37//33 36//33
f 56//34 37//34 31//34
f 37//35 39//35 38//35
f 56//36 39//36 37//36
f 56//37 40//37 39//37
f 56//38 41//38 40//38
f 56//39 42//39 41//39
f 42//40 44//40 43//40
f 42//41 45//41 44//41
f 56//42 45//42 42//42
f 56//43 46//43 45//43
f 46//44 48//44 47//44
f 56//45 48//45 46//45
f 48//46 50//46 49//46
f 56//47 50//47 48//47
f 50//48 52//48 51//48
f 56//49 52//49 50//49
f 56//50 53//50 52//50
f 56//51 54//51 53//51
f 54//52 56//52 55//52
usemtl assumed_wall
f 1//53 30//53 2//53
f 1//54 29//54 30//54
f 2//55 31//55 3//55
f 2//56 30//56 31//56
f 3//57 32//57 4//57
f 3//58 31//58 32//58
f 4//59 33//59 5//59
f 4//60 32//60 33//60
f 5//61 34//61 6//61
f 5//62 33//62 34//62
f 6//63 35//63 7//63
f 6//64 34//64 35//64
f 7//65 36//65 8//65
f 7//66 35//66 36//66
f 8//67 37//67 9//67
f 8//68 36//68 37//68
f 9//69 38//69 10//69
f 9//70 37//70 38//70
f 10//71 39//71 11//71
f 10//72 38//72 39//72
f 11//73 40//73 12//73
f 11//74 39//74 40//74
f 12//75 41//75 13//75
f 12//76 40//76 41//76
f 13//77 42//77 14//77
f 13//78 41//78 42//78
f 14//79 43//79 15//79
f 14//80 42//80 43//80
f 15//81 44//81 16//81
f 15//82 43//82 44//82
f 16//83 45//83 17//83
f 16//84 44//84 45//84
f 17//85 46//85 18//85
f 17//86 45//86 46//86
f 18//87 47//87 19//87
f 18//88 46//88 47//88
f 19//89 48//89 20//89
f 19//90 47//90 48//90
f 20//91 49//91 21//91
f 20//92 48//92 49//92
f 21//93 50//93 22//93
f 21//94 49//94 50//94
f 22//95 51//95 23//95
f 22//96 50//96 51//96
f 23//97 52//97 24//97
f 23//98 51//98 52//98
f 24//99 53//99 25//99
f 24//100 52//100 53//100
f 25//101 54//101 26//101
f 25//102 53//102 54//102
f 26//103 55//103 27//103
f 26//104 54//104 55//104
f 27//105 56//105 28//105
f 27//106 55//106 56//106
f 28//107 29//107 1//107
f 28//108 56//108 29//108
