# construction_3815_assumed_A_Casa
# source A_Casa
# h_campo 0.000000
# modeled_height 6.000000
# height_kind assumed
# local_origin_world_x 172001.034850
# local_origin_world_y 402500.144600
mtllib construction_artifacts.mtl

o construction_3815_assumed_A_Casa
v -17.368000 21.551000 0.000000
v -13.533000 23.072000 0.000000
v -15.967000 29.534000 0.000000
v -10.940000 30.866000 0.000000
v -5.543000 15.161000 0.000000
v 6.144000 18.566000 0.000000
v 13.152000 -2.518000 0.000000
v 7.269000 -4.259000 0.000000
v 9.460000 -11.631000 0.000000
v 12.367000 -10.822000 0.000000
v 17.368000 -24.062000 0.000000
v 14.030000 -25.217000 0.000000
v 15.192000 -29.060000 0.000000
v 8.992000 -30.866000 0.000000
v 8.632000 -29.481000 0.000000
v 5.679000 -30.402000 0.000000
v 4.032000 -25.352000 0.000000
v 7.009000 -24.273000 0.000000
v -2.076000 4.327000 0.000000
v -7.383000 2.985000 0.000000
v -8.953000 7.810000 0.000000
v -12.546000 7.018000 0.000000
v -13.988000 10.988000 0.000000
v -17.368000 21.551000 6.000000
v -13.533000 23.072000 6.000000
v -15.967000 29.534000 6.000000
v -10.940000 30.866000 6.000000
v -5.543000 15.161000 6.000000
v 6.144000 18.566000 6.000000
v 13.152000 -2.518000 6.000000
v 7.269000 -4.259000 6.000000
v 9.460000 -11.631000 6.000000
v 12.367000 -10.822000 6.000000
v 17.368000 -24.062000 6.000000
v 14.030000 -25.217000 6.000000
v 15.192000 -29.060000 6.000000
v 8.992000 -30.866000 6.000000
v 8.632000 -29.481000 6.000000
v 5.679000 -30.402000 6.000000
v 4.032000 -25.352000 6.000000
v 7.009000 -24.273000 6.000000
v -2.076000 4.327000 6.000000
v -7.383000 2.985000 6.000000
v -8.953000 7.810000 6.000000
v -12.546000 7.018000 6.000000
v -13.988000 10.988000 6.000000
vn 0.000000 0.000000 -1.000000
vn 0.000000 0.000000 -1.000000
vn 0.000000 0.000000 -1.000000
vn 0.000000 0.000000 -1.000000
vn 0.000000 0.000000 -1.000000
vn 0.000000 0.000000 -1.000000
vn 0.000000 0.000000 -1.000000
vn 0.000000 0.000000 -1.000000
vn 0.000000 0.000000 -1.000000
vn 0.000000 -0.000000 -1.000000
vn 0.000000 0.000000 -1.000000
vn 0.000000 0.000000 -1.000000
vn -0.000000 0.000000 -1.000000
vn 0.000000 0.000000 -1.000000
vn 0.000000 -0.000000 -1.000000
vn -0.000000 0.000000 -1.000000
vn -0.000000 0.000000 -1.000000
vn 0.000000 0.000000 -1.000000
vn -0.000000 0.000000 -1.000000
vn 0.000000 0.000000 -1.000000
vn -0.000000 0.000000 -1.000000
vn 0.000000 -0.000000 1.000000
vn 0.000000 -0.000000 1.000000
vn 0.000000 0.000000 1.000000
vn 0.000000 0.000000 1.000000
vn 0.000000 0.000000 1.000000
vn -0.000000 0.000000 1.000000
vn -0.000000 0.000000 1.000000
vn 0.000000 0.000000 1.000000
vn 0.000000 0.000000 1.000000
vn 0.000000 0.000000 1.000000
vn 0.000000 0.000000 1.000000
vn 0.000000 0.000000 1.000000
vn 0.000000 0.000000 1.000000
vn 0.000000 0.000000 1.000000
vn 0.000000 0.000000 1.000000
vn 0.000000 0.000000 1.000000
vn 0.000000 0.000000 1.000000
vn 0.000000 0.000000 1.000000
vn 0.000000 0.000000 1.000000
vn 0.000000 0.000000 1.000000
vn 0.000000 0.000000 1.000000
vn -0.368673 0.929559 0.000000
vn -0.368673 0.929559 0.000000
vn -0.935816 -0.352488 0.000000
vn -0.935816 -0.352488 0.000000
vn -0.256130 0.966642 0.000000
vn -0.256130 0.966642 0.000000
vn 0.945716 0.324994 0.000000
vn 0.945716 0.324994 -0.000000
vn -0.279719 0.960082 0.000000
vn -0.279719 0.960082 0.000000
vn 0.948953 0.315418 0.000000
vn 0.948953 0.315418 -0.000000
vn 0.283772 -0.958892 0.000000
vn 0.283772 -0.958892 0.000000
vn 0.958560 0.284890 0.000000
vn 0.958560 0.284890 -0.000000
vn -0.268105 0.963390 0.000000
vn -0.268105 0.963390 0.000000
vn 0.935490 0.353352 0.000000
vn 0.935490 0.353352 -0.000000
vn 0.326994 -0.945026 0.000000
vn 0.326994 -0.945026 0.000000
vn 0.957200 0.289427 0.000000
vn 0.957200 0.289427 -0.000000
vn 0.279667 -0.960097 0.000000
vn 0.279667 -0.960097 0.000000
vn -0.967840 -0.251568 0.000000
vn -0.967840 -0.251568 0.000000
vn 0.297741 -0.954647 0.000000
vn 0.297741 -0.954647 0.000000
vn -0.950715 -0.310065 0.000000
vn -0.950715 -0.310065 0.000000
vn -0.340754 0.940153 0.000000
vn -0.340754 0.940153 0.000000
vn -0.953070 -0.302750 0.000000
vn -0.953070 -0.302750 0.000000
vn 0.245157 -0.969483 0.000000
vn 0.245157 -0.969483 0.000000
vn -0.950925 -0.309420 0.000000
vn -0.950925 -0.309420 0.000000
vn 0.215261 -0.976557 0.000000
vn 0.215261 -0.976557 0.000000
vn -0.939918 -0.341401 0.000000
vn -0.939918 -0.341401 0.000000
vn -0.952428 -0.304763 0.000000
vn -0.952428 -0.304763 0.000000
usemtl assumed_base
f 23//1 1//1 2//1
f 2//2 3//2 4//2
f 23//3 2//3 4//3
f 23//4 4//4 5//4
f 23//5 5//5 6//5
f 23//6 6//6 7//6
f 9//7 10//7 11//7
f 9//8 11//8 12//8
f 9//9 12//9 13//9
f 9//10 13//10 14//10
f 8//11 9//11 14//11
f 8//12 14//12 15//12
f 15//13 16//13 17//13
f 15//14 17//14 18//14
f 8//15 15//15 18//15
f 8//16 18//16 19//16
f 7//17 8//17 19//17
f 23//18 7//18 19//18
f 19//19 20//19 21//19
f 23//20 19//20 21//20
f 21//21 22//21 23//21
usemtl assumed_roof
f 46//22 25//22 24//22
f 25//23 27//23 26//23
f 46//24 27//24 25//24
f 46//25 28//25 27//25
f 46//26 29//26 28//26
f 46//27 30//27 29//27
f 32//28 34//28 33//28
f 32//29 35//29 34//29
f 32//30 36//30 35//30
f 32//31 37//31 36//31
f 31//32 37//32 32//32
f 31//33 38//33 37//33
f 38//34 40//34 39//34
f 38//35 41//35 40//35
f 31//36 41//36 38//36
f 31//37 42//37 41//37
f 30//38 42//38 31//38
f 46//39 42//39 30//39
f 42//40 44//40 43//40
f 46//41 44//41 42//41
f 44//42 46//42 45//42
usemtl assumed_wall
f 1//43 25//43 2//43
f 1//44 24//44 25//44
f 2//45 26//45 3//45
f 2//46 25//46 26//46
f 3//47 27//47 4//47
f 3//48 26//48 27//48
f 4//49 28//49 5//49
f 4//50 27//50 28//50
f 5//51 29//51 6//51
f 5//52 28//52 29//52
f 6//53 30//53 7//53
f 6//54 29//54 30//54
f 7//55 31//55 8//55
f 7//56 30//56 31//56
f 8//57 32//57 9//57
f 8//58 31//58 32//58
f 9//59 33//59 10//59
f 9//60 32//60 33//60
f 10//61 34//61 11//61
f 10//62 33//62 34//62
f 11//63 35//63 12//63
f 11//64 34//64 35//64
f 12//65 36//65 13//65
f 12//66 35//66 36//66
f 13//67 37//67 14//67
f 13//68 36//68 37//68
f 14//69 38//69 15//69
f 14//70 37//70 38//70
f 15//71 39//71 16//71
f 15//72 38//72 39//72
f 16//73 40//73 17//73
f 16//74 39//74 40//74
f 17//75 41//75 18//75
f 17//76 40//76 41//76
f 18//77 42//77 19//77
f 18//78 41//78 42//78
f 19//79 43//79 20//79
f 19//80 42//80 43//80
f 20//81 44//81 21//81
f 20//82 43//82 44//82
f 21//83 45//83 22//83
f 21//84 44//84 45//84
f 22//85 46//85 23//85
f 22//86 45//86 46//86
f 23//87 24//87 1//87
f 23//88 46//88 24//88
