# construction_3192_assumed_A_Casa
# source A_Casa
# h_campo 0.000000
# modeled_height 6.000000
# height_kind assumed
# local_origin_world_x 172001.034850
# local_origin_world_y 402500.144600
mtllib construction_artifacts.mtl

o construction_3192_assumed_A_Casa
v -8.215000 9.792500 0.000000
v -5.474000 10.527500 0.000000
v -6.185000 13.610500 0.000000
v 0.663000 14.884500 0.000000
v 1.749000 7.641500 0.000000
v 6.058000 8.396500 0.000000
v 7.692000 -1.953500 0.000000
v 6.314000 -2.099500 0.000000
v 8.215000 -12.941500 0.000000
v -0.894000 -14.884500 0.000000
v -2.794000 -4.257500 0.000000
v -4.158000 -4.618500 0.000000
v -5.372000 2.812500 0.000000
v -6.862000 2.260500 0.000000
v -8.215000 9.792500 6.000000
v -5.474000 10.527500 6.000000
v -6.185000 13.610500 6.000000
v 0.663000 14.884500 6.000000
v 1.749000 7.641500 6.000000
v 6.058000 8.396500 6.000000
v 7.692000 -1.953500 6.000000
v 6.314000 -2.099500 6.000000
v 8.215000 -12.941500 6.000000
v -0.894000 -14.884500 6.000000
v -2.794000 -4.257500 6.000000
v -4.158000 -4.618500 6.000000
v -5.372000 2.812500 6.000000
v -6.862000 2.260500 6.000000
vn 0.000000 0.000000 -1.000000
vn 0.000000 0.000000 -1.000000
vn 0.000000 0.000000 -1.000000
vn 0.000000 0.000000 -1.000000
vn 0.000000 0.000000 -1.000000
vn 0.000000 0.000000 -1.000000
vn 0.000000 -0.000000 -1.000000
vn 0.000000 -0.000000 -1.000000
vn 0.000000 0.000000 -1.000000
vn 0.000000 0.000000 -1.000000
vn 0.000000 0.000000 -1.000000
vn 0.000000 0.000000 -1.000000
vn 0.000000 -0.000000 1.000000
vn 0.000000 -0.000000 1.000000
vn 0.000000 0.000000 1.000000
vn 0.000000 0.000000 1.000000
vn 0.000000 0.000000 1.000000
vn 0.000000 0.000000 1.000000
vn 0.000000 0.000000 1.000000
vn 0.000000 0.000000 1.000000
vn 0.000000 0.000000 1.000000
vn 0.000000 0.000000 1.000000
vn 0.000000 0.000000 1.000000
vn 0.000000 0.000000 1.000000
vn -0.259000 0.965877 0.000000
vn -0.259000 0.965877 0.000000
vn -0.974423 -0.224721 0.000000
vn -0.974423 -0.224721 0.000000
vn -0.182901 0.983131 0.000000
vn -0.182901 0.983131 0.000000
vn 0.988945 0.148280 0.000000
vn 0.988945 0.148280 -0.000000
vn -0.172585 0.984995 0.000000
vn -0.172585 0.984995 0.000000
vn 0.987766 0.155943 0.000000
vn 0.987766 0.155943 -0.000000
vn 0.105361 -0.994434 0.000000
vn 0.105361 -0.994434 0.000000
vn 0.984974 0.172702 0.000000
vn 0.984974 0.172702 -0.000000
vn 0.208612 -0.977998 0.000000
vn 0.208612 -0.977998 0.000000
vn -0.984390 -0.175999 0.000000
vn -0.984390 -0.175999 0.000000
vn 0.255854 -0.966716 0.000000
vn 0.255854 -0.966716 0.000000
vn -0.986916 -0.161232 0.000000
vn -0.986916 -0.161232 0.000000
vn 0.347396 -0.937718 0.000000
vn 0.347396 -0.937718 0.000000
vn -0.984246 -0.176804 0.000000
vn -0.984246 -0.176804 0.000000
usemtl assumed_base
f 14//1 1//1 2//1
f 2//2 3//2 4//2
f 14//3 2//3 4//3
f 14//4 4//4 5//4
f 14//5 5//5 6//5
f 6//6 7//6 8//6
f 8//7 9//7 10//7
f 6//8 8//8 10//8
f 6//9 10//9 11//9
f 6//10 11//10 12//10
f 6//11 12//11 13//11
f 6//12 13//12 14//12
usemtl assumed_roof
f 28//13 16//13 15//13
f 16//14 18//14 17//14
f 28//15 18//15 16//15
f 28//16 19//16 18//16
f 28//17 20//17 19//17
f 20//18 22//18 21//18
f 22//19 24//19 23//19
f 20//20 24//20 22//20
f 20//21 25//21 24//21
f 20//22 26//22 25//22
f 20//23 27//23 26//23
f 20//24 28//24 27//24
usemtl assumed_wall
f 1//25 16//25 2//25
f 1//26 15//26 16//26
f 2//27 17//27 3//27
f 2//28 16//28 17//28
f 3//29 18//29 4//29
f 3//30 17//30 18//30
f 4//31 19//31 5//31
f 4//32 18//32 19//32
f 5//33 20//33 6//33
f 5//34 19//34 20//34
f 6//35 21//35 7//35
f 6//36 20//36 21//36
f 7//37 22//37 8//37
f 7//38 21//38 22//38
f 8//39 23//39 9//39
f 8//40 22//40 23//40
f 9//41 24//41 10//41
f 9//42 23//42 24//42
f 10//43 25//43 11//43
f 10//44 24//44 25//44
f 11//45 26//45 12//45
f 11//46 25//46 26//46
f 12//47 27//47 13//47
f 12//48 26//48 27//48
f 13//49 28//49 14//49
f 13//50 27//50 28//50
f 14//51 15//51 1//51
f 14//52 28//52 15//52
