# construction_2854_assumed_A_Casa
# source A_Casa
# h_campo 0.000000
# modeled_height 6.000000
# height_kind assumed
# local_origin_world_x 172001.034850
# local_origin_world_y 402500.144600
mtllib construction_artifacts.mtl

o construction_2854_assumed_A_Casa
v -15.048500 9.259000 0.000000
v -5.430500 12.523000 0.000000
v -5.013500 11.021000 0.000000
v -3.189500 11.649000 0.000000
v -2.395500 10.289000 0.000000
v 4.016500 12.332000 0.000000
v 9.540500 3.647000 0.000000
v 11.251500 4.456000 0.000000
v 15.048500 -1.511000 0.000000
v 10.454500 -4.808000 0.000000
v 11.647500 -7.304000 0.000000
v 5.167500 -12.523000 0.000000
v -4.881500 4.389000 0.000000
v -12.497500 1.470000 0.000000
v -15.048500 9.259000 6.000000
v -5.430500 12.523000 6.000000
v -5.013500 11.021000 6.000000
v -3.189500 11.649000 6.000000
v -2.395500 10.289000 6.000000
v 4.016500 12.332000 6.000000
v 9.540500 3.647000 6.000000
v 11.251500 4.456000 6.000000
v 15.048500 -1.511000 6.000000
v 10.454500 -4.808000 6.000000
v 11.647500 -7.304000 6.000000
v 5.167500 -12.523000 6.000000
v -4.881500 4.389000 6.000000
v -12.497500 1.470000 6.000000
vn 0.000000 0.000000 -1.000000
vn 0.000000 0.000000 -1.000000
vn 0.000000 0.000000 -1.000000
vn 0.000000 0.000000 -1.000000
vn 0.000000 0.000000 -1.000000
vn 0.000000 0.000000 -1.000000
vn 0.000000 0.000000 -1.000000
vn 0.000000 0.000000 -1.000000
vn 0.000000 -0.000000 -1.000000
vn 0.000000 0.000000 -1.000000
vn 0.000000 -0.000000 -1.000000
vn 0.000000 0.000000 -1.000000
vn 0.000000 -0.000000 1.000000
vn 0.000000 0.000000 1.000000
vn 0.000000 0.000000 1.000000
vn 0.000000 0.000000 1.000000
vn 0.000000 0.000000 1.000000
vn -0.000000 0.000000 1.000000
vn 0.000000 0.000000 1.000000
vn 0.000000 0.000000 1.000000
vn 0.000000 0.000000 1.000000
vn 0.000000 0.000000 1.000000
vn 0.000000 0.000000 1.000000
vn 0.000000 0.000000 1.000000
vn -0.321363 0.946956 0.000000
vn -0.321363 0.946956 0.000000
vn 0.963555 0.267512 0.000000
vn 0.963555 0.267512 -0.000000
vn -0.325543 0.945527 0.000000
vn -0.325543 0.945527 0.000000
vn 0.863595 0.504187 0.000000
vn 0.863595 0.504187 -0.000000
vn -0.303584 0.952805 0.000000
vn -0.303584 0.952805 0.000000
vn 0.843785 0.536681 0.000000
vn 0.843785 0.536681 -0.000000
vn -0.427450 0.904039 0.000000
vn -0.427450 0.904039 0.000000
vn 0.843673 0.536857 0.000000
vn 0.843673 0.536857 -0.000000
vn 0.583060 -0.812429 0.000000
vn 0.583060 -0.812429 0.000000
vn 0.902238 0.431238 0.000000
vn 0.902238 0.431238 -0.000000
vn 0.627257 -0.778813 0.000000
vn 0.627257 -0.778813 0.000000
vn -0.859687 -0.510821 0.000000
vn -0.859687 -0.510821 0.000000
vn 0.357886 -0.933765 0.000000
vn 0.357886 -0.933765 0.000000
vn -0.950330 -0.311245 0.000000
vn -0.950330 -0.311245 0.000000
usemtl assumed_base
f 14//1 1//1 2//1
f 14//2 2//2 3//2
f 14//3 3//3 4//3
f 14//4 4//4 5//4
f 14//5 5//5 6//5
f 7//6 8//6 9//6
f 7//7 9//7 10//7
f 6//8 7//8 10//8
f 10//9 11//9 12//9
f 6//10 10//10 12//10
f 6//11 12//11 13//11
f 6//12 13//12 14//12
usemtl assumed_roof
f 28//13 16//13 15//13
f 28//14 17//14 16//14
f 28//15 18//15 17//15
f 28//16 19//16 18//16
f 28//17 20//17 19//17
f 21//18 23//18 22//18
f 21//19 24//19 23//19
f 20//20 24//20 21//20
f 24//21 26//21 25//21
f 20//22 26//22 24//22
f 20//23 27//23 26//23
f 20//24 28//24 27//24
usemtl assumed_wall
f 1//25 16//25 2//25
f 1//26 15//26 16//26
f 2//27 17//27 3//27
f 2//28 16//28 17//28
f 3//29 18//29 4//29
f 3//30 17//30 18//30
f 4//31 19//31 5//31
f 4//32 18//32 19//32
f 5//33 20//33 6//33
f 5//34 19//34 20//34
f 6//35 21//35 7//35
f 6//36 20//36 21//36
f 7//37 22//37 8//37
f 7//38 21//38 22//38
f 8//39 23//39 9//39
f 8//40 22//40 23//40
f 9//41 24//41 10//41
f 9//42 23//42 24//42
f 10//43 25//43 11//43
f 10//44 24//44 25//44
f 11//45 26//45 12//45
f 11//46 25//46 26//46
f 12//47 27//47 13//47
f 12//48 26//48 27//48
f 13//49 28//49 14//49
f 13//50 27//50 28//50
f 14//51 15//51 1//51
f 14//52 28//52 15//52
