# construction_3785_assumed_A_Casa
# source A_Casa
# h_campo 0.000000
# modeled_height 6.000000
# height_kind assumed
# local_origin_world_x 172001.034850
# local_origin_world_y 402500.144600
mtllib construction_artifacts.mtl

o construction_3785_assumed_A_Casa
v -15.601000 14.549500 0.000000
v 0.925000 20.394500 0.000000
v 5.557000 7.544500 0.000000
v 7.074000 7.636500 0.000000
v 15.601000 -16.829500 0.000000
v 5.388000 -20.394500 0.000000
v 1.869000 -10.883500 0.000000
v -1.165000 -11.235500 0.000000
v -6.888000 6.132500 0.000000
v -12.105000 3.998500 0.000000
v -15.601000 14.549500 6.000000
v 0.925000 20.394500 6.000000
v 5.557000 7.544500 6.000000
v 7.074000 7.636500 6.000000
v 15.601000 -16.829500 6.000000
v 5.388000 -20.394500 6.000000
v 1.869000 -10.883500 6.000000
v -1.165000 -11.235500 6.000000
v -6.888000 6.132500 6.000000
v -12.105000 3.998500 6.000000
vn 0.000000 0.000000 -1.000000
vn 0.000000 0.000000 -1.000000
vn 0.000000 -0.000000 -1.000000
vn 0.000000 0.000000 -1.000000
vn 0.000000 0.000000 -1.000000
vn 0.000000 -0.000000 -1.000000
vn 0.000000 0.000000 -1.000000
vn 0.000000 0.000000 -1.000000
vn 0.000000 -0.000000 1.000000
vn -0.000000 0.000000 1.000000
vn 0.000000 0.000000 1.000000
vn 0.000000 0.000000 1.000000
vn 0.000000 0.000000 1.000000
vn 0.000000 0.000000 1.000000
vn 0.000000 0.000000 1.000000
vn 0.000000 0.000000 1.000000
vn -0.333444 0.942770 0.000000
vn -0.333444 0.942770 0.000000
vn 0.940747 0.339108 0.000000
vn 0.940747 0.339108 -0.000000
vn -0.060535 0.998166 0.000000
vn -0.060535 0.998166 0.000000
vn 0.944292 0.329109 0.000000
vn 0.944292 0.329109 -0.000000
vn 0.329564 -0.944133 0.000000
vn 0.329564 -0.944133 0.000000
vn -0.937864 -0.347003 0.000000
vn -0.937864 -0.347003 0.000000
vn 0.115245 -0.993337 0.000000
vn 0.115245 -0.993337 0.000000
vn -0.949766 -0.312961 0.000000
vn -0.949766 -0.312961 0.000000
vn 0.378598 -0.925561 0.000000
vn 0.378598 -0.925561 0.000000
vn -0.949249 -0.314527 0.000000
vn -0.949249 -0.314527 0.000000
usemtl assumed_base
f 10//1 1//1 2//1
f 3//2 4//2 5//2
f 3//3 5//3 6//3
f 2//4 3//4 6//4
f 2//5 6//5 7//5
f 2//6 7//6 8//6
f 2//7 8//7 9//7
f 2//8 9//8 10//8
usemtl assumed_roof
f 20//9 12//9 11//9
f 13//10 15//10 14//10
f 13//11 16//11 15//11
f 12//12 16//12 13//12
f 12//13 17//13 16//13
f 12//14 18//14 17//14
f 12//15 19//15 18//15
f 12//16 20//16 19//16
usemtl assumed_wall
f 1//17 12//17 2//17
f 1//18 11//18 12//18
f 2//19 13//19 3//19
f 2//20 12//20 13//20
f 3//21 14//21 4//21
f 3//22 13//22 14//22
f 4//23 15//23 5//23
f 4//24 14//24 15//24
f 5//25 16//25 6//25
f 5//26 15//26 16//26
f 6//27 17//27 7//27
f 6//28 16//28 17//28
f 7//29 18//29 8//29
f 7//30 17//30 18//30
f 8//31 19//31 9//31
f 8//32 18//32 19//32
f 9//33 20//33 10//33
f 9//34 19//34 20//34
f 10//35 11//35 1//35
f 10//36 20//36 11//36
