# construction_1063_assumed_A_Casa
# source A_Casa
# h_campo 0.000000
# modeled_height 6.000000
# height_kind assumed
# local_origin_world_x 172001.034850
# local_origin_world_y 402500.144600
mtllib construction_artifacts.mtl

o construction_1063_assumed_A_Casa
v -10.800000 -3.581000 0.000000
v -4.893000 2.511000 0.000000
v -6.471000 3.983000 0.000000
v 0.017000 11.241000 0.000000
v 10.800000 1.998000 0.000000
v 4.282000 -5.750000 0.000000
v 2.860000 -4.783000 0.000000
v -2.471000 -11.241000 0.000000
v -10.800000 -3.581000 6.000000
v -4.893000 2.511000 6.000000
v -6.471000 3.983000 6.000000
v 0.017000 11.241000 6.000000
v 10.800000 1.998000 6.000000
v 4.282000 -5.750000 6.000000
v 2.860000 -4.783000 6.000000
v -2.471000 -11.241000 6.000000
vn 0.000000 0.000000 -1.000000
vn 0.000000 0.000000 -1.000000
vn 0.000000 0.000000 -1.000000
vn 0.000000 0.000000 -1.000000
vn 0.000000 0.000000 -1.000000
vn 0.000000 -0.000000 -1.000000
vn 0.000000 0.000000 1.000000
vn 0.000000 -0.000000 1.000000
vn 0.000000 -0.000000 1.000000
vn 0.000000 0.000000 1.000000
vn 0.000000 0.000000 1.000000
vn 0.000000 0.000000 1.000000
vn -0.717924 0.696122 0.000000
vn -0.717924 0.696122 0.000000
vn -0.682120 -0.731240 0.000000
vn -0.682120 -0.731240 0.000000
vn -0.745548 0.666452 0.000000
vn -0.745548 0.666452 0.000000
vn 0.650809 0.759242 0.000000
vn 0.650809 0.759242 -0.000000
vn 0.765234 -0.643752 0.000000
vn 0.765234 -0.643752 0.000000
vn -0.562326 -0.826916 0.000000
vn -0.562326 -0.826916 0.000000
vn 0.771189 -0.636607 0.000000
vn 0.771189 -0.636607 0.000000
vn -0.676928 -0.736049 0.000000
vn -0.676928 -0.736049 0.000000
usemtl assumed_base
f 8//1 1//1 2//1
f 2//2 3//2 4//2
f 8//3 2//3 4//3
f 4//4 5//4 6//4
f 4//5 6//5 7//5
f 4//6 7//6 8//6
usemtl assumed_roof
f 16//7 10//7 9//7
f 10//8 12//8 11//8
f 16//9 12//9 10//9
f 12//10 14//10 13//10
f 12//11 15//11 14//11
f 12//12 16//12 15//12
usemtl assumed_wall
f 1//13 10//13 2//13
f 1//14 9//14 10//14
f 2//15 11//15 3//15
f 2//16 10//16 11//16
f 3//17 12//17 4//17
f 3//18 11//18 12//18
f 4//19 13//19 5//19
f 4//20 12//20 13//20
f 5//21 14//21 6//21
f 5//22 13//22 14//22
f 6//23 15//23 7//23
f 6//24 14//24 15//24
f 7//25 16//25 8//25
f 7//26 15//26 16//26
f 8//27 9//27 1//27
f 8//28 16//28 9//28
