# construction_2738_assumed_A_Casa
# source A_Casa
# h_campo 0.000000
# modeled_height 6.000000
# height_kind assumed
# local_origin_world_x 172001.034850
# local_origin_world_y 402500.144600
mtllib construction_artifacts.mtl

o construction_2738_assumed_A_Casa
v -19.152500 5.188500 0.000000
v -12.493500 12.433500 0.000000
v -9.087500 9.144500 0.000000
v -0.094500 16.294500 0.000000
v 2.815500 18.636500 0.000000
v 7.845500 13.447500 0.000000
v 4.636500 10.473500 0.000000
v 2.174500 13.879500 0.000000
v -3.614500 9.101500 0.000000
v 1.573500 4.251500 0.000000
v -4.000500 -0.605500 0.000000
v -1.322500 -4.121500 0.000000
v 2.653500 -7.770500 0.000000
v 6.115500 -2.046500 0.000000
v 7.897500 -3.498500 0.000000
v 12.988500 0.976500 0.000000
v 11.190500 2.413500 0.000000
v 13.654500 7.093500 0.000000
v 19.152500 4.267500 0.000000
v 4.175500 -18.636500 0.000000
v -6.180500 -8.458500 0.000000
v -19.152500 5.188500 6.000000
v -12.493500 12.433500 6.000000
v -9.087500 9.144500 6.000000
v -0.094500 16.294500 6.000000
v 2.815500 18.636500 6.000000
v 7.845500 13.447500 6.000000
v 4.636500 10.473500 6.000000
v 2.174500 13.879500 6.000000
v -3.614500 9.101500 6.000000
v 1.573500 4.251500 6.000000
v -4.000500 -0.605500 6.000000
v -1.322500 -4.121500 6.000000
v 2.653500 -7.770500 6.000000
v 6.115500 -2.046500 6.000000
v 7.897500 -3.498500 6.000000
v 12.988500 0.976500 6.000000
v 11.190500 2.413500 6.000000
v 13.654500 7.093500 6.000000
v 19.152500 4.267500 6.000000
v 4.175500 -18.636500 6.000000
v -6.180500 -8.458500 6.000000
vn 0.000000 0.000000 -1.000000
vn 0.000000 0.000000 -1.000000
vn 0.000000 0.000000 -1.000000
vn -0.000000 0.000000 -1.000000
vn 0.000000 0.000000 -1.000000
vn 0.000000 0.000000 -1.000000
vn 0.000000 0.000000 -1.000000
vn 0.000000 0.000000 -1.000000
vn 0.000000 -0.000000 -1.000000
vn 0.000000 0.000000 -1.000000
vn 0.000000 0.000000 -1.000000
vn 0.000000 0.000000 -1.000000
vn 0.000000 0.000000 -1.000000
vn 0.000000 0.000000 -1.000000
vn 0.000000 0.000000 -1.000000
vn 0.000000 0.000000 -1.000000
vn 0.000000 0.000000 -1.000000
vn 0.000000 0.000000 -1.000000
vn 0.000000 -0.000000 -1.000000
vn 0.000000 0.000000 1.000000
vn 0.000000 0.000000 1.000000
vn -0.000000 0.000000 1.000000
vn 0.000000 0.000000 1.000000
vn 0.000000 0.000000 1.000000
vn 0.000000 0.000000 1.000000
vn -0.000000 0.000000 1.000000
vn 0.000000 -0.000000 1.000000
vn 0.000000 0.000000 1.000000
vn 0.000000 0.000000 1.000000
vn 0.000000 0.000000 1.000000
vn 0.000000 0.000000 1.000000
vn 0.000000 0.000000 1.000000
vn 0.000000 -0.000000 1.000000
vn 0.000000 0.000000 1.000000
vn 0.000000 0.000000 1.000000
vn 0.000000 0.000000 1.000000
vn -0.000000 0.000000 1.000000
vn 0.000000 0.000000 1.000000
vn -0.736255 0.676704 0.000000
vn -0.736255 0.676704 0.000000
vn 0.694644 0.719354 0.000000
vn 0.694644 0.719354 -0.000000
vn -0.622336 0.782750 0.000000
vn -0.622336 0.782750 0.000000
vn -0.626978 0.779037 0.000000
vn -0.626978 0.779037 0.000000
vn 0.718022 0.696020 0.000000
vn 0.718022 0.696020 -0.000000
vn 0.679741 -0.733453 0.000000
vn 0.679741 -0.733453 0.000000
vn -0.810441 -0.585821 0.000000
vn -0.810441 -0.585821 0.000000
vn 0.636547 -0.771238 0.000000
vn 0.636547 -0.771238 0.000000
vn 0.682910 0.730503 0.000000
vn 0.682910 0.730503 -0.000000
vn 0.656952 -0.753932 0.000000
vn 0.656952 -0.753932 0.000000
vn 0.795525 0.605921 0.000000
vn 0.795525 0.605921 -0.000000
vn 0.676161 0.736754 0.000000
vn 0.676161 0.736754 -0.000000
vn -0.855667 0.517526 0.000000
vn -0.855667 0.517526 0.000000
vn 0.631673 0.775235 0.000000
vn 0.631673 0.775235 -0.000000
vn -0.660205 0.751085 0.000000
vn -0.660205 0.751085 0.000000
vn -0.624324 -0.781165 0.000000
vn -0.624324 -0.781165 0.000000
vn -0.884853 0.465871 0.000000
vn -0.884853 0.465871 0.000000
vn 0.457151 0.889389 0.000000
vn 0.457151 0.889389 -0.000000
vn 0.836948 -0.547283 0.000000
vn 0.836948 -0.547283 0.000000
vn -0.700951 -0.713210 0.000000
vn -0.700951 -0.713210 0.000000
vn -0.724804 -0.688955 0.000000
vn -0.724804 -0.688955 0.000000
usemtl assumed_base
f 21//1 1//1 2//1
f 21//2 2//2 3//2
f 4//3 5//3 6//3
f 6//4 7//4 8//4
f 4//5 6//5 8//5
f 3//6 4//6 8//6
f 3//7 8//7 9//7
f 21//8 3//8 9//8
f 9//9 10//9 11//9
f 21//10 9//10 11//10
f 21//11 11//11 12//11
f 21//12 12//12 13//12
f 13//13 14//13 15//13
f 16//14 17//14 18//14
f 16//15 18//15 19//15
f 15//16 16//16 19//16
f 13//17 15//17 19//17
f 13//18 19//18 20//18
f 13//19 20//19 21//19
usemtl assumed_roof
f 42//20 23//20 22//20
f 42//21 24//21 23//21
f 25//22 27//22 26//22
f 27//23 29//23 28//23
f 25//24 29//24 27//24
f 24//25 29//25 25//25
f 24//26 30//26 29//26
f 42//27 30//27 24//27
f 30//28 32//28 31//28
f 42//29 32//29 30//29
f 42//30 33//30 32//30
f 42//31 34//31 33//31
f 34//32 36//32 35//32
f 37//33 39//33 38//33
f 37//34 40//34 39//34
f 36//35 40//35 37//35
f 34//36 40//36 36//36
f 34//37 41//37 40//37
f 34//38 42//38 41//38
usemtl assumed_wall
f 1//39 23//39 2//39
f 1//40 22//40 23//40
f 2//41 24//41 3//41
f 2//42 23//42 24//42
f 3//43 25//43 4//43
f 3//44 24//44 25//44
f 4//45 26//45 5//45
f 4//46 25//46 26//46
f 5//47 27//47 6//47
f 5//48 26//48 27//48
f 6//49 28//49 7//49
f 6//50 27//50 28//50
f 7//51 29//51 8//51
f 7//52 28//52 29//52
f 8//53 30//53 9//53
f 8//54 29//54 30//54
f 9//55 31//55 10//55
f 9//56 30//56 31//56
f 10//57 32//57 11//57
f 10//58 31//58 32//58
f 11//59 33//59 12//59
f 11//60 32//60 33//60
f 12//61 34//61 13//61
f 12//62 33//62 34//62
f 13//63 35//63 14//63
f 13//64 34//64 35//64
f 14//65 36//65 15//65
f 14//66 35//66 36//66
f 15//67 37//67 16//67
f 15//68 36//68 37//68
f 16//69 38//69 17//69
f 16//70 37//70 38//70
f 17//71 39//71 18//71
f 17//72 38//72 39//72
f 18//73 40//73 19//73
f 18//74 39//74 40//74
f 19//75 41//75 20//75
f 19//76 40//76 41//76
f 20//77 42//77 21//77
f 20//78 41//78 42//78
f 21//79 22//79 1//79
f 21//80 42//80 22//80
