# construction_3828_assumed_A_Casa
# source A_Casa
# h_campo 0.000000
# modeled_height 6.000000
# height_kind assumed
# local_origin_world_x 172001.034850
# local_origin_world_y 402500.144600
mtllib construction_artifacts.mtl

o construction_3828_assumed_A_Casa
v -6.809000 -29.929000 0.000000
v -1.280000 -28.550000 0.000000
v -0.593000 -30.356000 0.000000
v 5.629000 -28.232000 0.000000
v 7.504000 -33.930000 0.000000
v 17.805000 -30.818000 0.000000
v 14.726000 -20.950000 0.000000
v 18.014000 -19.563000 0.000000
v 14.427000 -6.219000 0.000000
v 11.308000 -7.250000 0.000000
v 9.603000 -1.288000 0.000000
v 12.522000 -0.536000 0.000000
v 9.975000 7.339000 0.000000
v 5.127000 5.576000 0.000000
v 3.421000 11.645000 0.000000
v 4.857000 11.959000 0.000000
v 2.857000 18.228000 0.000000
v 7.042000 19.464000 0.000000
v 3.414000 31.526000 0.000000
v -2.702000 29.851000 0.000000
v -4.420000 34.745000 0.000000
v -2.459000 35.355000 0.000000
v -6.373000 49.626000 0.000000
v -8.782000 49.123000 0.000000
v -9.897000 53.973000 0.000000
v 1.747000 57.384000 0.000000
v 3.131000 50.678000 0.000000
v 0.505000 50.020000 0.000000
v 4.036000 39.180000 0.000000
v 7.204000 39.609000 0.000000
v 9.790000 29.415000 0.000000
v 7.273000 28.618000 0.000000
v 10.528000 17.327000 0.000000
v 13.493000 17.956000 0.000000
v 16.406000 7.222000 0.000000
v 13.934000 6.812000 0.000000
v 17.188000 -4.401000 0.000000
v 19.150000 -4.054000 0.000000
v 19.264000 -5.522000 0.000000
v 20.036000 -5.504000 0.000000
v 21.595000 -9.255000 0.000000
v 20.668000 -9.413000 0.000000
v 21.811000 -13.567000 0.000000
v 19.896000 -14.053000 0.000000
v 23.046000 -26.379000 0.000000
v 26.089000 -25.796000 0.000000
v 27.420000 -30.631000 0.000000
v 21.968000 -31.887000 0.000000
v 23.287000 -37.957000 0.000000
v 21.308000 -37.980000 0.000000
v 22.563000 -43.216000 0.000000
v 1.590000 -49.271000 0.000000
v -0.283000 -44.114000 0.000000
v -4.499000 -45.180000 0.000000
v -2.995000 -50.864000 0.000000
v -24.199000 -57.384000 0.000000
v -27.420000 -46.835000 0.000000
v -25.336000 -45.916000 0.000000
v -25.807000 -43.924000 0.000000
v -7.908000 -38.466000 0.000000
v -10.251000 -31.595000 0.000000
v -6.806000 -30.671000 0.000000
v -6.809000 -29.929000 6.000000
v -1.280000 -28.550000 6.000000
v -0.593000 -30.356000 6.000000
v 5.629000 -28.232000 6.000000
v 7.504000 -33.930000 6.000000
v 17.805000 -30.818000 6.000000
v 14.726000 -20.950000 6.000000
v 18.014000 -19.563000 6.000000
v 14.427000 -6.219000 6.000000
v 11.308000 -7.250000 6.000000
v 9.603000 -1.288000 6.000000
v 12.522000 -0.536000 6.000000
v 9.975000 7.339000 6.000000
v 5.127000 5.576000 6.000000
v 3.421000 11.645000 6.000000
v 4.857000 11.959000 6.000000
v 2.857000 18.228000 6.000000
v 7.042000 19.464000 6.000000
v 3.414000 31.526000 6.000000
v -2.702000 29.851000 6.000000
v -4.420000 34.745000 6.000000
v -2.459000 35.355000 6.000000
v -6.373000 49.626000 6.000000
v -8.782000 49.123000 6.000000
v -9.897000 53.973000 6.000000
v 1.747000 57.384000 6.000000
v 3.131000 50.678000 6.000000
v 0.505000 50.020000 6.000000
v 4.036000 39.180000 6.000000
v 7.204000 39.609000 6.000000
v 9.790000 29.415000 6.000000
v 7.273000 28.618000 6.000000
v 10.528000 17.327000 6.000000
v 13.493000 17.956000 6.000000
v 16.406000 7.222000 6.000000
v 13.934000 6.812000 6.000000
v 17.188000 -4.401000 6.000000
v 19.150000 -4.054000 6.000000
v 19.264000 -5.522000 6.000000
v 20.036000 -5.504000 6.000000
v 21.595000 -9.255000 6.000000
v 20.668000 -9.413000 6.000000
v 21.811000 -13.567000 6.000000
v 19.896000 -14.053000 6.000000
v 23.046000 -26.379000 6.000000
v 26.089000 -25.796000 6.000000
v 27.420000 -30.631000 6.000000
v 21.968000 -31.887000 6.000000
v 23.287000 -37.957000 6.000000
v 21.308000 -37.980000 6.000000
v 22.563000 -43.216000 6.000000
v 1.590000 -49.271000 6.000000
v -0.283000 -44.114000 6.000000
v -4.499000 -45.180000 6.000000
v -2.995000 -50.864000 6.000000
v -24.199000 -57.384000 6.000000
v -27.420000 -46.835000 6.000000
v -25.336000 -45.916000 6.000000
v -25.807000 -43.924000 6.000000
v -7.908000 -38.466000 6.000000
v -10.251000 -31.595000 6.000000
v -6.806000 -30.671000 6.000000
vn 0.000000 0.000000 -1.000000
vn 0.000000 0.000000 -1.000000
vn 0.000000 0.000000 -1.000000
vn 0.000000 0.000000 -1.000000
vn 0.000000 0.000000 -1.000000
vn -0.000000 0.000000 -1.000000
vn 0.000000 0.000000 -1.000000
vn 0.000000 0.000000 -1.000000
vn -0.000000 0.000000 -1.000000
vn 0.000000 0.000000 -1.000000
vn 0.000000 0.000000 -1.000000
vn 0.000000 0.000000 -1.000000
vn 0.000000 0.000000 -1.000000
vn -0.000000 0.000000 -1.000000
vn 0.000000 0.000000 -1.000000
vn 0.000000 0.000000 -1.000000
vn -0.000000 0.000000 -1.000000
vn 0.000000 0.000000 -1.000000
vn 0.000000 0.000000 -1.000000
vn 0.000000 0.000000 -1.000000
vn 0.000000 0.000000 -1.000000
vn 0.000000 0.000000 -1.000000
vn 0.000000 0.000000 -1.000000
vn 0.000000 0.000000 -1.000000
vn 0.000000 0.000000 -1.000000
vn 0.000000 0.000000 -1.000000
vn 0.000000 0.000000 -1.000000
vn 0.000000 0.000000 -1.000000
vn 0.000000 0.000000 -1.000000
vn 0.000000 0.000000 -1.000000
vn 0.000000 0.000000 -1.000000
vn 0.000000 0.000000 -1.000000
vn 0.000000 0.000000 -1.000000
vn 0.000000 0.000000 -1.000000
vn 0.000000 0.000000 -1.000000
vn 0.000000 0.000000 -1.000000
vn 0.000000 0.000000 -1.000000
vn 0.000000 0.000000 -1.000000
vn 0.000000 -0.000000 -1.000000
vn 0.000000 -0.000000 -1.000000
vn 0.000000 0.000000 -1.000000
vn 0.000000 0.000000 -1.000000
vn 0.000000 0.000000 -1.000000
vn 0.000000 0.000000 -1.000000
vn 0.000000 0.000000 -1.000000
vn 0.000000 0.000000 -1.000000
vn 0.000000 0.000000 -1.000000
vn 0.000000 0.000000 -1.000000
vn 0.000000 0.000000 -1.000000
vn 0.000000 0.000000 -1.000000
vn 0.000000 0.000000 -1.000000
vn 0.000000 0.000000 -1.000000
vn 0.000000 0.000000 -1.000000
vn 0.000000 -0.000000 -1.000000
vn 0.000000 0.000000 -1.000000
vn 0.000000 0.000000 -1.000000
vn -0.000000 0.000000 -1.000000
vn 0.000000 0.000000 -1.000000
vn 0.000000 -0.000000 -1.000000
vn 0.000000 0.000000 -1.000000
vn 0.000000 -0.000000 1.000000
vn 0.000000 0.000000 1.000000
vn -0.000000 0.000000 1.000000
vn -0.000000 0.000000 1.000000
vn 0.000000 -0.000000 1.000000
vn 0.000000 0.000000 1.000000
vn 0.000000 0.000000 1.000000
vn 0.000000 0.000000 1.000000
vn 0.000000 0.000000 1.000000
vn 0.000000 0.000000 1.000000
vn 0.000000 0.000000 1.000000
vn 0.000000 0.000000 1.000000
vn 0.000000 0.000000 1.000000
vn 0.000000 0.000000 1.000000
vn 0.000000 0.000000 1.000000
vn 0.000000 0.000000 1.000000
vn 0.000000 0.000000 1.000000
vn 0.000000 -0.000000 1.000000
vn 0.000000 0.000000 1.000000
vn 0.000000 0.000000 1.000000
vn 0.000000 0.000000 1.000000
vn 0.000000 0.000000 1.000000
vn 0.000000 0.000000 1.000000
vn 0.000000 0.000000 1.000000
vn 0.000000 0.000000 1.000000
vn -0.000000 0.000000 1.000000
vn 0.000000 0.000000 1.000000
vn 0.000000 0.000000 1.000000
vn 0.000000 0.000000 1.000000
vn -0.000000 0.000000 1.000000
vn 0.000000 0.000000 1.000000
vn 0.000000 0.000000 1.000000
vn 0.000000 0.000000 1.000000
vn 0.000000 -0.000000 1.000000
vn 0.000000 0.000000 1.000000
vn 0.000000 0.000000 1.000000
vn 0.000000 0.000000 1.000000
vn 0.000000 0.000000 1.000000
vn 0.000000 0.000000 1.000000
vn 0.000000 0.000000 1.000000
vn 0.000000 0.000000 1.000000
vn 0.000000 0.000000 1.000000
vn 0.000000 0.000000 1.000000
vn 0.000000 0.000000 1.000000
vn 0.000000 0.000000 1.000000
vn 0.000000 0.000000 1.000000
vn -0.000000 0.000000 1.000000
vn 0.000000 0.000000 1.000000
vn 0.000000 0.000000 1.000000
vn 0.000000 0.000000 1.000000
vn 0.000000 0.000000 1.000000
vn 0.000000 0.000000 1.000000
vn 0.000000 0.000000 1.000000
vn 0.000000 0.000000 1.000000
vn 0.000000 0.000000 1.000000
vn 0.000000 0.000000 1.000000
vn 0.000000 0.000000 1.000000
vn 0.000000 0.000000 1.000000
vn 0.000000 0.000000 1.000000
vn 0.000000 -0.000000 1.000000
vn -0.241999 0.970277 0.000000
vn -0.241999 0.970277 0.000000
vn 0.934660 0.355543 0.000000
vn 0.934660 0.355543 -0.000000
vn -0.323064 0.946377 0.000000
vn -0.323064 0.946377 0.000000
vn 0.949893 0.312575 0.000000
vn 0.949893 0.312575 -0.000000
vn -0.289197 0.957269 0.000000
vn -0.289197 0.957269 0.000000
vn -0.954611 -0.297856 0.000000
vn -0.954611 -0.297856 0.000000
vn -0.388671 0.921377 0.000000
vn -0.388671 0.921377 0.000000
vn -0.965718 -0.259595 0.000000
vn -0.965718 -0.259595 0.000000
vn 0.313852 -0.949472 0.000000
vn 0.313852 -0.949472 0.000000
vn -0.961457 -0.274955 0.000000
vn -0.961457 -0.274955 0.000000
vn -0.249477 0.968381 0.000000
vn -0.249477 0.968381 0.000000
vn -0.951473 -0.307733 0.000000
vn -0.951473 -0.307733 0.000000
vn 0.341759 -0.939788 0.000000
vn 0.341759 -0.939788 0.000000
vn -0.962688 -0.270612 0.000000
vn -0.962688 -0.270612 0.000000
vn -0.213616 0.976918 0.000000
vn -0.213616 0.976918 0.000000
vn -0.952692 -0.303937 0.000000
vn -0.952692 -0.303937 0.000000
vn -0.283246 0.959047 0.000000
vn -0.283246 0.959047 0.000000
vn -0.957621 -0.288032 0.000000
vn -0.957621 -0.288032 0.000000
vn 0.264145 -0.964483 0.000000
vn 0.264145 -0.964483 0.000000
vn -0.943551 -0.331226 0.000000
vn -0.943551 -0.331226 0.000000
vn -0.297027 0.954869 0.000000
vn -0.297027 0.954869 0.000000
vn -0.964387 -0.264495 0.000000
vn -0.964387 -0.264495 0.000000
vn 0.204392 -0.978889 0.000000
vn 0.204392 -0.978889 0.000000
vn -0.974577 -0.224052 0.000000
vn -0.974577 -0.224052 0.000000
vn -0.281126 0.959671 0.000000
vn -0.281126 0.959671 0.000000
vn 0.979360 0.202123 0.000000
vn 0.979360 0.202123 -0.000000
vn 0.243057 -0.970012 0.000000
vn 0.243057 -0.970012 0.000000
vn 0.950828 0.309721 0.000000
vn 0.950828 0.309721 -0.000000
vn -0.134192 0.990955 0.000000
vn -0.134192 0.990955 0.000000
vn 0.969298 0.245890 0.000000
vn 0.969298 0.245890 -0.000000
vn 0.301874 -0.953348 0.000000
vn 0.301874 -0.953348 0.000000
vn 0.960869 0.277002 0.000000
vn 0.960869 0.277002 -0.000000
vn -0.207523 0.978230 0.000000
vn -0.207523 0.978230 0.000000
vn 0.965093 0.261908 0.000000
vn 0.965093 0.261908 -0.000000
vn 0.163622 -0.986523 0.000000
vn 0.163622 -0.986523 0.000000
vn 0.960378 0.278701 0.000000
vn 0.960378 0.278701 -0.000000
vn -0.174158 0.984718 0.000000
vn -0.174158 0.984718 0.000000
vn 0.996998 0.077424 0.000000
vn 0.996998 0.077424 -0.000000
vn -0.023310 0.999728 0.000000
vn -0.023310 0.999728 0.000000
vn 0.923419 0.383794 0.000000
vn 0.923419 0.383794 -0.000000
vn 0.168019 -0.985784 0.000000
vn 0.168019 -0.985784 0.000000
vn 0.964167 0.265297 0.000000
vn 0.964167 0.265297 -0.000000
vn 0.245988 -0.969273 0.000000
vn 0.245988 -0.969273 0.000000
vn 0.968862 0.247600 0.000000
vn 0.968862 0.247600 -0.000000
vn -0.188165 0.982137 0.000000
vn -0.188165 0.982137 0.000000
vn 0.964135 0.265411 0.000000
vn 0.964135 0.265411 -0.000000
vn 0.224494 -0.974475 0.000000
vn 0.224494 -0.974475 0.000000
vn 0.977195 0.212343 0.000000
vn 0.977195 0.212343 -0.000000
vn 0.011621 -0.999932 0.000000
vn 0.011621 -0.999932 0.000000
vn 0.972456 0.233085 0.000000
vn 0.972456 0.233085 -0.000000
vn 0.277376 -0.960761 0.000000
vn 0.277376 -0.960761 0.000000
vn -0.939926 -0.341377 0.000000
vn -0.939926 -0.341377 0.000000
vn 0.245132 -0.969490 0.000000
vn 0.245132 -0.969490 0.000000
vn 0.966730 0.255799 0.000000
vn 0.966730 0.255799 -0.000000
vn 0.293908 -0.955834 0.000000
vn 0.293908 -0.955834 0.000000
vn -0.956410 -0.292027 0.000000
vn -0.956410 -0.292027 0.000000
vn -0.403489 0.914985 0.000000
vn -0.403489 0.914985 0.000000
vn -0.973167 -0.230101 0.000000
vn -0.973167 -0.230101 0.000000
vn -0.291674 0.956518 0.000000
vn -0.291674 0.956518 0.000000
vn -0.946484 -0.322750 0.000000
vn -0.946484 -0.322750 0.000000
vn -0.259058 0.965862 0.000000
vn -0.259058 0.965862 0.000000
vn -0.999992 -0.004043 0.000000
vn -0.999992 -0.004043 0.000000
usemtl assumed_base
f 62//1 1//1 2//1
f 62//2 2//2 3//2
f 3//3 4//3 5//3
f 62//4 3//4 5//4
f 6//5 7//5 8//5
f 9//6 10//6 11//6
f 9//7 11//7 12//7
f 9//8 12//8 13//8
f 13//9 14//9 15//9
f 13//10 15//10 16//10
f 13//11 16//11 17//11
f 13//12 17//12 18//12
f 9//13 13//13 18//13
f 19//14 20//14 21//14
f 19//15 21//15 22//15
f 19//16 22//16 23//16
f 23//17 24//17 25//17
f 23//18 25//18 26//18
f 23//19 26//19 27//19
f 23//20 27//20 28//20
f 19//21 23//21 28//21
f 18//22 19//22 28//22
f 9//23 18//23 28//23
f 8//24 9//24 28//24
f 8//25 28//25 29//25
f 29//26 30//26 31//26
f 29//27 31//27 32//27
f 8//28 29//28 32//28
f 8//29 32//29 33//29
f 33//30 34//30 35//30
f 33//31 35//31 36//31
f 8//32 33//32 36//32
f 8//33 36//33 37//33
f 8//34 37//34 38//34
f 6//35 8//35 38//35
f 6//36 38//36 39//36
f 6//37 39//37 40//37
f 40//38 41//38 42//38
f 42//39 43//39 44//39
f 40//40 42//40 44//40
f 6//41 40//41 44//41
f 6//42 44//42 45//42
f 6//43 45//43 46//43
f 6//44 46//44 47//44
f 5//45 6//45 47//45
f 5//46 47//46 48//46
f 5//47 48//47 49//47
f 62//48 5//48 49//48
f 62//49 49//49 50//49
f 62//50 50//50 51//50
f 51//51 52//51 53//51
f 62//52 51//52 53//52
f 62//53 53//53 54//53
f 54//54 55//54 56//54
f 54//55 56//55 57//55
f 54//56 57//56 58//56
f 54//57 58//57 59//57
f 54//58 59//58 60//58
f 62//59 54//59 60//59
f 60//60 61//60 62//60
usemtl assumed_roof
f 124//61 64//61 63//61
f 124//62 65//62 64//62
f 65//63 67//63 66//63
f 124//64 67//64 65//64
f 68//65 70//65 69//65
f 71//66 73//66 72//66
f 71//67 74//67 73//67
f 71//68 75//68 74//68
f 75//69 77//69 76//69
f 75//70 78//70 77//70
f 75//71 79//71 78//71
f 75//72 80//72 79//72
f 71//73 80//73 75//73
f 81//74 83//74 82//74
f 81//75 84//75 83//75
f 81//76 85//76 84//76
f 85//77 87//77 86//77
f 85//78 88//78 87//78
f 85//79 89//79 88//79
f 85//80 90//80 89//80
f 81//81 90//81 85//81
f 80//82 90//82 81//82
f 71//83 90//83 80//83
f 70//84 90//84 71//84
f 70//85 91//85 90//85
f 91//86 93//86 92//86
f 91//87 94//87 93//87
f 70//88 94//88 91//88
f 70//89 95//89 94//89
f 95//90 97//90 96//90
f 95//91 98//91 97//91
f 70//92 98//92 95//92
f 70//93 99//93 98//93
f 70//94 100//94 99//94
f 68//95 100//95 70//95
f 68//96 101//96 100//96
f 68//97 102//97 101//97
f 102//98 104//98 103//98
f 104//99 106//99 105//99
f 102//100 106//100 104//100
f 68//101 106//101 102//101
f 68//102 107//102 106//102
f 68//103 108//103 107//103
f 68//104 109//104 108//104
f 67//105 109//105 68//105
f 67//106 110//106 109//106
f 67//107 111//107 110//107
f 124//108 111//108 67//108
f 124//109 112//109 111//109
f 124//110 113//110 112//110
f 113//111 115//111 114//111
f 124//112 115//112 113//112
f 124//113 116//113 115//113
f 116//114 118//114 117//114
f 116//115 119//115 118//115
f 116//116 120//116 119//116
f 116//117 121//117 120//117
f 116//118 122//118 121//118
f 124//119 122//119 116//119
f 122//120 124//120 123//120
usemtl assumed_wall
f 1//121 64//121 2//121
f 1//122 63//122 64//122
f 2//123 65//123 3//123
f 2//124 64//124 65//124
f 3//125 66//125 4//125
f 3//126 65//126 66//126
f 4//127 67//127 5//127
f 4//128 66//128 67//128
f 5//129 68//129 6//129
f 5//130 67//130 68//130
f 6//131 69//131 7//131
f 6//132 68//132 69//132
f 7//133 70//133 8//133
f 7//134 69//134 70//134
f 8//135 71//135 9//135
f 8//136 70//136 71//136
f 9//137 72//137 10//137
f 9//138 71//138 72//138
f 10//139 73//139 11//139
f 10//140 72//140 73//140
f 11//141 74//141 12//141
f 11//142 73//142 74//142
f 12//143 75//143 13//143
f 12//144 74//144 75//144
f 13//145 76//145 14//145
f 13//146 75//146 76//146
f 14//147 77//147 15//147
f 14//148 76//148 77//148
f 15//149 78//149 16//149
f 15//150 77//150 78//150
f 16//151 79//151 17//151
f 16//152 78//152 79//152
f 17//153 80//153 18//153
f 17//154 79//154 80//154
f 18//155 81//155 19//155
f 18//156 80//156 81//156
f 19//157 82//157 20//157
f 19//158 81//158 82//158
f 20//159 83//159 21//159
f 20//160 82//160 83//160
f 21//161 84//161 22//161
f 21//162 83//162 84//162
f 22//163 85//163 23//163
f 22//164 84//164 85//164
f 23//165 86//165 24//165
f 23//166 85//166 86//166
f 24//167 87//167 25//167
f 24//168 86//168 87//168
f 25//169 88//169 26//169
f 25//170 87//170 88//170
f 26//171 89//171 27//171
f 26//172 88//172 89//172
f 27//173 90//173 28//173
f 27//174 89//174 90//174
f 28//175 91//175 29//175
f 28//176 90//176 91//176
f 29//177 92//177 30//177
f 29//178 91//178 92//178
f 30//179 93//179 31//179
f 30//180 92//180 93//180
f 31//181 94//181 32//181
f 31//182 93//182 94//182
f 32//183 95//183 33//183
f 32//184 94//184 95//184
f 33//185 96//185 34//185
f 33//186 95//186 96//186
f 34//187 97//187 35//187
f 34//188 96//188 97//188
f 35//189 98//189 36//189
f 35//190 97//190 98//190
f 36//191 99//191 37//191
f 36//192 98//192 99//192
f 37//193 100//193 38//193
f 37//194 99//194 100//194
f 38//195 101//195 39//195
f 38//196 100//196 101//196
f 39//197 102//197 40//197
f 39//198 101//198 102//198
f 40//199 103//199 41//199
f 40//200 102//200 103//200
f 41//201 104//201 42//201
f 41//202 103//202 104//202
f 42//203 105//203 43//203
f 42//204 104//204 105//204
f 43//205 106//205 44//205
f 43//206 105//206 106//206
f 44//207 107//207 45//207
f 44//208 106//208 107//208
f 45//209 108//209 46//209
f 45//210 107//210 108//210
f 46//211 109//211 47//211
f 46//212 108//212 109//212
f 47//213 110//213 48//213
f 47//214 109//214 110//214
f 48//215 111//215 49//215
f 48//216 110//216 111//216
f 49//217 112//217 50//217
f 49//218 111//218 112//218
f 50//219 113//219 51//219
f 50//220 112//220 113//220
f 51//221 114//221 52//221
f 51//222 113//222 114//222
f 52//223 115//223 53//223
f 52//224 114//224 115//224
f 53//225 116//225 54//225
f 53//226 115//226 116//226
f 54//227 117//227 55//227
f 54//228 116//228 117//228
f 55//229 118//229 56//229
f 55//230 117//230 118//230
f 56//231 119//231 57//231
f 56//232 118//232 119//232
f 57//233 120//233 58//233
f 57//234 119//234 120//234
f 58//235 121//235 59//235
f 58//236 120//236 121//236
f 59//237 122//237 60//237
f 59//238 121//238 122//238
f 60//239 123//239 61//239
f 60//240 122//240 123//240
f 61//241 124//241 62//241
f 61//242 123//242 124//242
f 62//243 63//243 1//243
f 62//244 124//244 63//244
