# construction_7092_assumed_A_Casa
# source A_Casa
# h_campo 0.000000
# modeled_height 6.000000
# height_kind assumed
# local_origin_world_x 172001.034850
# local_origin_world_y 402500.144600
mtllib construction_artifacts.mtl

o construction_7092_assumed_A_Casa
v -35.616500 -12.841000 0.000000
v -32.369500 4.624000 0.000000
v -31.234500 11.785000 0.000000
v -28.452500 11.764000 0.000000
v -27.580500 19.002000 0.000000
v -22.647500 18.401000 0.000000
v -23.036500 14.859000 0.000000
v -20.036500 14.359000 0.000000
v -20.193500 10.618000 0.000000
v -17.423500 9.916000 0.000000
v -18.005500 3.869000 0.000000
v -20.726500 3.859000 0.000000
v -20.827500 1.757000 0.000000
v -16.171500 1.015000 0.000000
v -10.837500 0.848000 0.000000
v -2.408500 -0.143000 0.000000
v -1.977500 9.273000 0.000000
v 9.775500 8.247000 0.000000
v 9.631500 0.564000 0.000000
v 6.230500 0.552000 0.000000
v 5.182500 -4.630000 0.000000
v 9.649500 -4.646000 0.000000
v 9.911500 0.209000 0.000000
v 20.561500 0.509000 0.000000
v 20.724500 -6.355000 0.000000
v 27.712500 -6.640000 0.000000
v 27.784500 -5.032000 0.000000
v 29.655500 -5.088000 0.000000
v 29.756500 -2.815000 0.000000
v 35.616500 -3.212000 0.000000
v 33.738500 -19.002000 0.000000
v -22.335500 -13.661000 0.000000
v -34.949500 -13.596000 0.000000
v -35.616500 -12.841000 6.000000
v -32.369500 4.624000 6.000000
v -31.234500 11.785000 6.000000
v -28.452500 11.764000 6.000000
v -27.580500 19.002000 6.000000
v -22.647500 18.401000 6.000000
v -23.036500 14.859000 6.000000
v -20.036500 14.359000 6.000000
v -20.193500 10.618000 6.000000
v -17.423500 9.916000 6.000000
v -18.005500 3.869000 6.000000
v -20.726500 3.859000 6.000000
v -20.827500 1.757000 6.000000
v -16.171500 1.015000 6.000000
v -10.837500 0.848000 6.000000
v -2.408500 -0.143000 6.000000
v -1.977500 9.273000 6.000000
v 9.775500 8.247000 6.000000
v 9.631500 0.564000 6.000000
v 6.230500 0.552000 6.000000
v 5.182500 -4.630000 6.000000
v 9.649500 -4.646000 6.000000
v 9.911500 0.209000 6.000000
v 20.561500 0.509000 6.000000
v 20.724500 -6.355000 6.000000
v 27.712500 -6.640000 6.000000
v 27.784500 -5.032000 6.000000
v 29.655500 -5.088000 6.000000
v 29.756500 -2.815000 6.000000
v 35.616500 -3.212000 6.000000
v 33.738500 -19.002000 6.000000
v -22.335500 -13.661000 6.000000
v -34.949500 -13.596000 6.000000
vn 0.000000 0.000000 -1.000000
vn 0.000000 0.000000 -1.000000
vn 0.000000 0.000000 -1.000000
vn 0.000000 0.000000 -1.000000
vn 0.000000 0.000000 -1.000000
vn 0.000000 0.000000 -1.000000
vn 0.000000 0.000000 -1.000000
vn 0.000000 0.000000 -1.000000
vn 0.000000 0.000000 -1.000000
vn 0.000000 0.000000 -1.000000
vn 0.000000 0.000000 -1.000000
vn 0.000000 0.000000 -1.000000
vn 0.000000 0.000000 -1.000000
vn 0.000000 0.000000 -1.000000
vn 0.000000 0.000000 -1.000000
vn 0.000000 0.000000 -1.000000
vn 0.000000 0.000000 -1.000000
vn 0.000000 0.000000 -1.000000
vn 0.000000 0.000000 -1.000000
vn 0.000000 0.000000 -1.000000
vn 0.000000 0.000000 -1.000000
vn 0.000000 0.000000 -1.000000
vn 0.000000 0.000000 -1.000000
vn 0.000000 0.000000 -1.000000
vn 0.000000 0.000000 -1.000000
vn 0.000000 0.000000 -1.000000
vn 0.000000 0.000000 -1.000000
vn 0.000000 0.000000 -1.000000
vn 0.000000 0.000000 -1.000000
vn 0.000000 -0.000000 -1.000000
vn 0.000000 0.000000 -1.000000
vn 0.000000 -0.000000 1.000000
vn 0.000000 0.000000 1.000000
vn 0.000000 0.000000 1.000000
vn 0.000000 0.000000 1.000000
vn 0.000000 0.000000 1.000000
vn 0.000000 0.000000 1.000000
vn 0.000000 0.000000 1.000000
vn 0.000000 0.000000 1.000000
vn 0.000000 0.000000 1.000000
vn 0.000000 0.000000 1.000000
vn 0.000000 0.000000 1.000000
vn 0.000000 0.000000 1.000000
vn 0.000000 0.000000 1.000000
vn 0.000000 0.000000 1.000000
vn 0.000000 0.000000 1.000000
vn 0.000000 0.000000 1.000000
vn 0.000000 0.000000 1.000000
vn 0.000000 0.000000 1.000000
vn 0.000000 0.000000 1.000000
vn 0.000000 0.000000 1.000000
vn 0.000000 0.000000 1.000000
vn 0.000000 0.000000 1.000000
vn -0.000000 0.000000 1.000000
vn 0.000000 0.000000 1.000000
vn 0.000000 0.000000 1.000000
vn 0.000000 0.000000 1.000000
vn 0.000000 0.000000 1.000000
vn 0.000000 0.000000 1.000000
vn -0.000000 0.000000 1.000000
vn 0.000000 0.000000 1.000000
vn 0.000000 0.000000 1.000000
vn -0.983153 0.182783 0.000000
vn -0.983153 0.182783 0.000000
vn -0.987671 0.156543 0.000000
vn -0.987671 0.156543 0.000000
vn 0.007548 0.999972 0.000000
vn 0.007548 0.999972 -0.000000
vn -0.992821 0.119610 0.000000
vn -0.992821 0.119610 0.000000
vn 0.120938 0.992660 0.000000
vn 0.120938 0.992660 -0.000000
vn 0.994023 -0.109169 0.000000
vn 0.994023 -0.109169 0.000000
vn 0.164399 0.986394 0.000000
vn 0.164399 0.986394 -0.000000
vn 0.999121 -0.041930 0.000000
vn 0.999121 -0.041930 0.000000
vn 0.245663 0.969355 0.000000
vn 0.245663 0.969355 -0.000000
vn 0.995400 -0.095803 0.000000
vn 0.995400 -0.095803 0.000000
vn 0.003675 -0.999993 0.000000
vn 0.003675 -0.999993 0.000000
vn 0.998848 -0.047994 0.000000
vn 0.998848 -0.047994 0.000000
vn 0.157378 0.987538 0.000000
vn 0.157378 0.987538 -0.000000
vn 0.031293 0.999510 0.000000
vn 0.031293 0.999510 -0.000000
vn 0.116766 0.993159 0.000000
vn 0.116766 0.993159 -0.000000
vn -0.998954 0.045725 0.000000
vn -0.998954 0.045725 0.000000
vn 0.086966 0.996211 0.000000
vn 0.086966 0.996211 -0.000000
vn 0.999824 -0.018739 0.000000
vn 0.999824 -0.018739 0.000000
vn 0.003528 -0.999994 0.000000
vn 0.003528 -0.999994 0.000000
vn 0.980156 -0.198225 0.000000
vn 0.980156 -0.198225 0.000000
vn 0.003582 0.999994 0.000000
vn 0.003582 0.999994 -0.000000
vn -0.998547 0.053887 0.000000
vn -0.998547 0.053887 0.000000
vn -0.028158 0.999603 0.000000
vn -0.028158 0.999603 0.000000
vn 0.999718 0.023740 0.000000
vn 0.999718 0.023740 -0.000000
vn 0.040750 0.999169 0.000000
vn 0.040750 0.999169 -0.000000
vn -0.998999 0.044731 0.000000
vn -0.998999 0.044731 0.000000
vn 0.029917 0.999552 0.000000
vn 0.029917 0.999552 -0.000000
vn -0.999014 0.044391 0.000000
vn -0.999014 0.044391 0.000000
vn 0.067593 0.997713 0.000000
vn 0.067593 0.997713 -0.000000
vn 0.993001 -0.118104 0.000000
vn 0.993001 -0.118104 0.000000
vn -0.094820 -0.995494 0.000000
vn -0.094820 -0.995494 0.000000
vn -0.005153 -0.999987 0.000000
vn -0.005153 -0.999987 0.000000
vn -0.749432 -0.662081 0.000000
vn -0.749432 -0.662081 0.000000
usemtl assumed_base
f 33//1 1//1 2//1
f 33//2 2//2 3//2
f 33//3 3//3 4//3
f 4//4 5//4 6//4
f 33//5 4//5 6//5
f 33//6 6//6 7//6
f 33//7 7//7 8//7
f 33//8 8//8 9//8
f 33//9 9//9 10//9
f 10//10 11//10 12//10
f 33//11 10//11 12//11
f 33//12 12//12 13//12
f 33//13 13//13 14//13
f 33//14 14//14 15//14
f 33//15 15//15 16//15
f 16//16 17//16 18//16
f 18//17 19//17 20//17
f 16//18 18//18 20//18
f 33//19 16//19 20//19
f 33//20 20//20 21//20
f 33//21 21//21 22//21
f 22//22 23//22 24//22
f 22//23 24//23 25//23
f 33//24 22//24 25//24
f 33//25 25//25 26//25
f 26//26 27//26 28//26
f 28//27 29//27 30//27
f 26//28 28//28 30//28
f 26//29 30//29 31//29
f 26//30 31//30 32//30
f 26//31 32//31 33//31
usemtl assumed_roof
f 66//32 35//32 34//32
f 66//33 36//33 35//33
f 66//34 37//34 36//34
f 37//35 39//35 38//35
f 66//36 39//36 37//36
f 66//37 40//37 39//37
f 66//38 41//38 40//38
f 66//39 42//39 41//39
f 66//40 43//40 42//40
f 43//41 45//41 44//41
f 66//42 45//42 43//42
f 66//43 46//43 45//43
f 66//44 47//44 46//44
f 66//45 48//45 47//45
f 66//46 49//46 48//46
f 49//47 51//47 50//47
f 51//48 53//48 52//48
f 49//49 53//49 51//49
f 66//50 53//50 49//50
f 66//51 54//51 53//51
f 66//52 55//52 54//52
f 55//53 57//53 56//53
f 55//54 58//54 57//54
f 66//55 58//55 55//55
f 66//56 59//56 58//56
f 59//57 61//57 60//57
f 61//58 63//58 62//58
f 59//59 63//59 61//59
f 59//60 64//60 63//60
f 59//61 65//61 64//61
f 59//62 66//62 65//62
usemtl assumed_wall
f 1//63 35//63 2//63
f 1//64 34//64 35//64
f 2//65 36//65 3//65
f 2//66 35//66 36//66
f 3//67 37//67 4//67
f 3//68 36//68 37//68
f 4//69 38//69 5//69
f 4//70 37//70 38//70
f 5//71 39//71 6//71
f 5//72 38//72 39//72
f 6//73 40//73 7//73
f 6//74 39//74 40//74
f 7//75 41//75 8//75
f 7//76 40//76 41//76
f 8//77 42//77 9//77
f 8//78 41//78 42//78
f 9//79 43//79 10//79
f 9//80 42//80 43//80
f 10//81 44//81 11//81
f 10//82 43//82 44//82
f 11//83 45//83 12//83
f 11//84 44//84 45//84
f 12//85 46//85 13//85
f 12//86 45//86 46//86
f 13//87 47//87 14//87
f 13//88 46//88 47//88
f 14//89 48//89 15//89
f 14//90 47//90 48//90
f 15//91 49//91 16//91
f 15//92 48//92 49//92
f 16//93 50//93 17//93
f 16//94 49//94 50//94
f 17//95 51//95 18//95
f 17//96 50//96 51//96
f 18//97 52//97 19//97
f 18//98 51//98 52//98
f 19//99 53//99 20//99
f 19//100 52//100 53//100
f 20//101 54//101 21//101
f 20//102 53//102 54//102
f 21//103 55//103 22//103
f 21//104 54//104 55//104
f 22//105 56//105 23//105
f 22//106 55//106 56//106
f 23//107 57//107 24//107
f 23//108 56//108 57//108
f 24//109 58//109 25//109
f 24//110 57//110 58//110
f 25//111 59//111 26//111
f 25//112 58//112 59//112
f 26//113 60//113 27//113
f 26//114 59//114 60//114
f 27//115 61//115 28//115
f 27//116 60//116 61//116
f 28//117 62//117 29//117
f 28//118 61//118 62//118
f 29//119 63//119 30//119
f 29//120 62//120 63//120
f 30//121 64//121 31//121
f 30//122 63//122 64//122
f 31//123 65//123 32//123
f 31//124 64//124 65//124
f 32//125 66//125 33//125
f 32//126 65//126 66//126
f 33//127 34//127 1//127
f 33//128 66//128 34//128
