# construction_7104_assumed_A_Casa
# source A_Casa
# h_campo 0.000000
# modeled_height 6.000000
# height_kind assumed
# local_origin_world_x 172001.034850
# local_origin_world_y 402500.144600
mtllib construction_artifacts.mtl

o construction_7104_assumed_A_Casa
v 9.371000 -2.448000 0.000000
v 3.562000 -12.911000 0.000000
v -6.540000 -6.465000 0.000000
v -7.690000 -8.807000 0.000000
v 12.215000 -19.866000 0.000000
v 13.874000 -22.851000 0.000000
v 3.749000 -30.455000 0.000000
v 0.501000 -29.190000 0.000000
v -3.415000 -25.528000 0.000000
v -8.964000 -20.516000 0.000000
v -18.107000 -14.628000 0.000000
v -9.807000 1.019000 0.000000
v 2.313000 22.107000 0.000000
v 6.128000 30.440000 0.000000
v 6.698000 30.455000 0.000000
v 18.107000 23.723000 0.000000
v 16.377000 20.146000 0.000000
v 15.601000 20.319000 0.000000
v 14.180000 17.300000 0.000000
v 17.257000 15.741000 0.000000
v 14.504000 10.942000 0.000000
v 15.443000 10.206000 0.000000
v 11.720000 3.476000 0.000000
v 10.288000 4.078000 0.000000
v 7.079000 -1.102000 0.000000
v 9.371000 -2.448000 6.000000
v 3.562000 -12.911000 6.000000
v -6.540000 -6.465000 6.000000
v -7.690000 -8.807000 6.000000
v 12.215000 -19.866000 6.000000
v 13.874000 -22.851000 6.000000
v 3.749000 -30.455000 6.000000
v 0.501000 -29.190000 6.000000
v -3.415000 -25.528000 6.000000
v -8.964000 -20.516000 6.000000
v -18.107000 -14.628000 6.000000
v -9.807000 1.019000 6.000000
v 2.313000 22.107000 6.000000
v 6.128000 30.440000 6.000000
v 6.698000 30.455000 6.000000
v 18.107000 23.723000 6.000000
v 16.377000 20.146000 6.000000
v 15.601000 20.319000 6.000000
v 14.180000 17.300000 6.000000
v 17.257000 15.741000 6.000000
v 14.504000 10.942000 6.000000
v 15.443000 10.206000 6.000000
v 11.720000 3.476000 6.000000
v 10.288000 4.078000 6.000000
v 7.079000 -1.102000 6.000000
vn 0.000000 -0.000000 -1.000000
vn 0.000000 0.000000 -1.000000
vn 0.000000 0.000000 -1.000000
vn 0.000000 0.000000 -1.000000
vn 0.000000 0.000000 -1.000000
vn 0.000000 0.000000 -1.000000
vn 0.000000 -0.000000 -1.000000
vn 0.000000 0.000000 -1.000000
vn 0.000000 0.000000 -1.000000
vn -0.000000 0.000000 -1.000000
vn -0.000000 0.000000 -1.000000
vn 0.000000 0.000000 -1.000000
vn 0.000000 0.000000 -1.000000
vn 0.000000 0.000000 -1.000000
vn 0.000000 0.000000 -1.000000
vn 0.000000 0.000000 -1.000000
vn 0.000000 0.000000 -1.000000
vn 0.000000 0.000000 -1.000000
vn 0.000000 0.000000 -1.000000
vn 0.000000 0.000000 -1.000000
vn 0.000000 -0.000000 -1.000000
vn 0.000000 0.000000 -1.000000
vn 0.000000 0.000000 -1.000000
vn 0.000000 0.000000 1.000000
vn 0.000000 0.000000 1.000000
vn 0.000000 0.000000 1.000000
vn 0.000000 0.000000 1.000000
vn 0.000000 0.000000 1.000000
vn 0.000000 0.000000 1.000000
vn 0.000000 0.000000 1.000000
vn 0.000000 0.000000 1.000000
vn 0.000000 0.000000 1.000000
vn 0.000000 0.000000 1.000000
vn 0.000000 0.000000 1.000000
vn 0.000000 0.000000 1.000000
vn 0.000000 0.000000 1.000000
vn 0.000000 0.000000 1.000000
vn 0.000000 0.000000 1.000000
vn 0.000000 0.000000 1.000000
vn 0.000000 0.000000 1.000000
vn 0.000000 -0.000000 1.000000
vn 0.000000 0.000000 1.000000
vn 0.000000 0.000000 1.000000
vn 0.000000 0.000000 1.000000
vn 0.000000 0.000000 1.000000
vn 0.000000 0.000000 1.000000
vn 0.874291 -0.485402 0.000000
vn 0.874291 -0.485402 0.000000
vn -0.537912 -0.843001 0.000000
vn -0.537912 -0.843001 0.000000
vn 0.897624 -0.440763 0.000000
vn 0.897624 -0.440763 0.000000
vn 0.485665 0.874145 0.000000
vn 0.485665 0.874145 -0.000000
vn 0.874074 0.485792 0.000000
vn 0.874074 0.485792 -0.000000
vn 0.600518 -0.799611 0.000000
vn 0.600518 -0.799611 0.000000
vn -0.362917 -0.931821 0.000000
vn -0.362917 -0.931821 0.000000
vn -0.683022 -0.730397 0.000000
vn -0.683022 -0.730397 0.000000
vn -0.670286 -0.742103 0.000000
vn -0.670286 -0.742103 0.000000
vn -0.541431 -0.840745 0.000000
vn -0.541431 -0.840745 0.000000
vn -0.883407 0.468606 0.000000
vn -0.883407 0.468606 0.000000
vn -0.867006 0.498298 0.000000
vn -0.867006 0.498298 0.000000
vn -0.909242 0.416268 0.000000
vn -0.909242 0.416268 0.000000
vn -0.026307 0.999654 0.000000
vn -0.026307 0.999654 0.000000
vn 0.508187 0.861246 0.000000
vn 0.508187 0.861246 -0.000000
vn 0.900239 -0.435396 0.000000
vn 0.900239 -0.435396 0.000000
vn -0.217596 -0.976039 0.000000
vn -0.217596 -0.976039 0.000000
vn 0.904785 -0.425869 0.000000
vn 0.904785 -0.425869 0.000000
vn 0.451962 0.892037 0.000000
vn 0.451962 0.892037 -0.000000
vn 0.867408 -0.497598 0.000000
vn 0.867408 -0.497598 0.000000
vn 0.616896 0.787045 0.000000
vn 0.616896 0.787045 -0.000000
vn 0.875033 -0.484064 0.000000
vn 0.875033 -0.484064 0.000000
vn -0.387539 -0.921853 0.000000
vn -0.387539 -0.921853 0.000000
vn 0.850094 -0.526631 0.000000
vn 0.850094 -0.526631 0.000000
vn 0.506395 0.862302 0.000000
vn 0.506395 0.862302 -0.000000
usemtl assumed_base
f 25//1 1//1 2//1
f 25//2 2//2 3//2
f 4//3 5//3 6//3
f 4//4 6//4 7//4
f 4//5 7//5 8//5
f 4//6 8//6 9//6
f 4//7 9//7 10//7
f 4//8 10//8 11//8
f 3//9 4//9 11//9
f 3//10 11//10 12//10
f 25//11 3//11 12//11
f 25//12 12//12 13//12
f 25//13 13//13 14//13
f 25//14 14//14 15//14
f 15//15 16//15 17//15
f 15//16 17//16 18//16
f 15//17 18//17 19//17
f 25//18 15//18 19//18
f 25//19 19//19 20//19
f 25//20 20//20 21//20
f 21//21 22//21 23//21
f 21//22 23//22 24//22
f 21//23 24//23 25//23
usemtl assumed_roof
f 50//24 27//24 26//24
f 50//25 28//25 27//25
f 29//26 31//26 30//26
f 29//27 32//27 31//27
f 29//28 33//28 32//28
f 29//29 34//29 33//29
f 29//30 35//30 34//30
f 29//31 36//31 35//31
f 28//32 36//32 29//32
f 28//33 37//33 36//33
f 50//34 37//34 28//34
f 50//35 38//35 37//35
f 50//36 39//36 38//36
f 50//37 40//37 39//37
f 40//38 42//38 41//38
f 40//39 43//39 42//39
f 40//40 44//40 43//40
f 50//41 44//41 40//41
f 50//42 45//42 44//42
f 50//43 46//43 45//43
f 46//44 48//44 47//44
f 46//45 49//45 48//45
f 46//46 50//46 49//46
usemtl assumed_wall
f 1//47 27//47 2//47
f 1//48 26//48 27//48
f 2//49 28//49 3//49
f 2//50 27//50 28//50
f 3//51 29//51 4//51
f 3//52 28//52 29//52
f 4//53 30//53 5//53
f 4//54 29//54 30//54
f 5//55 31//55 6//55
f 5//56 30//56 31//56
f 6//57 32//57 7//57
f 6//58 31//58 32//58
f 7//59 33//59 8//59
f 7//60 32//60 33//60
f 8//61 34//61 9//61
f 8//62 33//62 34//62
f 9//63 35//63 10//63
f 9//64 34//64 35//64
f 10//65 36//65 11//65
f 10//66 35//66 36//66
f 11//67 37//67 12//67
f 11//68 36//68 37//68
f 12//69 38//69 13//69
f 12//70 37//70 38//70
f 13//71 39//71 14//71
f 13//72 38//72 39//72
f 14//73 40//73 15//73
f 14//74 39//74 40//74
f 15//75 41//75 16//75
f 15//76 40//76 41//76
f 16//77 42//77 17//77
f 16//78 41//78 42//78
f 17//79 43//79 18//79
f 17//80 42//80 43//80
f 18//81 44//81 19//81
f 18//82 43//82 44//82
f 19//83 45//83 20//83
f 19//84 44//84 45//84
f 20//85 46//85 21//85
f 20//86 45//86 46//86
f 21//87 47//87 22//87
f 21//88 46//88 47//88
f 22//89 48//89 23//89
f 22//90 47//90 48//90
f 23//91 49//91 24//91
f 23//92 48//92 49//92
f 24//93 50//93 25//93
f 24//94 49//94 50//94
f 25//95 26//95 1//95
f 25//96 50//96 26//96
