# construction_1239_assumed_A_Casa
# source A_Casa
# h_campo 0.000000
# modeled_height 6.000000
# height_kind assumed
# local_origin_world_x 172001.034850
# local_origin_world_y 402500.144600
mtllib construction_artifacts.mtl

o construction_1239_assumed_A_Casa
v 1.931000 18.380500 0.000000
v 11.472000 -8.050500 0.000000
v 14.028000 -7.091500 0.000000
v 16.843000 -14.366500 0.000000
v -8.344000 -18.380500 0.000000
v -10.389000 -13.129500 0.000000
v 3.248000 -10.662500 0.000000
v 7.472000 -11.120500 0.000000
v 4.872000 -3.844500 0.000000
v 1.836000 -4.968500 0.000000
v -1.912000 5.975500 0.000000
v -12.237000 1.405500 0.000000
v -14.952000 6.959500 0.000000
v -13.636000 7.490500 0.000000
v -16.843000 13.842500 0.000000
v -6.848000 18.147500 0.000000
v -5.711000 16.046500 0.000000
v -4.218000 16.652500 0.000000
v -3.915000 16.007500 0.000000
v 1.931000 18.380500 6.000000
v 11.472000 -8.050500 6.000000
v 14.028000 -7.091500 6.000000
v 16.843000 -14.366500 6.000000
v -8.344000 -18.380500 6.000000
v -10.389000 -13.129500 6.000000
v 3.248000 -10.662500 6.000000
v 7.472000 -11.120500 6.000000
v 4.872000 -3.844500 6.000000
v 1.836000 -4.968500 6.000000
v -1.912000 5.975500 6.000000
v -12.237000 1.405500 6.000000
v -14.952000 6.959500 6.000000
v -13.636000 7.490500 6.000000
v -16.843000 13.842500 6.000000
v -6.848000 18.147500 6.000000
v -5.711000 16.046500 6.000000
v -4.218000 16.652500 6.000000
v -3.915000 16.007500 6.000000
vn 0.000000 0.000000 -1.000000
vn 0.000000 0.000000 -1.000000
vn -0.000000 0.000000 -1.000000
vn 0.000000 0.000000 -1.000000
vn 0.000000 0.000000 -1.000000
vn 0.000000 -0.000000 -1.000000
vn -0.000000 0.000000 -1.000000
vn 0.000000 0.000000 -1.000000
vn 0.000000 0.000000 -1.000000
vn 0.000000 0.000000 -1.000000
vn 0.000000 -0.000000 -1.000000
vn 0.000000 0.000000 -1.000000
vn 0.000000 0.000000 -1.000000
vn 0.000000 0.000000 -1.000000
vn 0.000000 0.000000 -1.000000
vn -0.000000 0.000000 -1.000000
vn 0.000000 0.000000 -1.000000
vn -0.000000 0.000000 1.000000
vn -0.000000 0.000000 1.000000
vn 0.000000 0.000000 1.000000
vn 0.000000 0.000000 1.000000
vn 0.000000 0.000000 1.000000
vn 0.000000 0.000000 1.000000
vn 0.000000 0.000000 1.000000
vn 0.000000 0.000000 1.000000
vn 0.000000 0.000000 1.000000
vn 0.000000 0.000000 1.000000
vn 0.000000 0.000000 1.000000
vn 0.000000 0.000000 1.000000
vn 0.000000 0.000000 1.000000
vn 0.000000 0.000000 1.000000
vn 0.000000 0.000000 1.000000
vn 0.000000 0.000000 1.000000
vn -0.000000 0.000000 1.000000
vn 0.940594 0.339533 0.000000
vn 0.940594 0.339533 -0.000000
vn -0.351284 0.936269 0.000000
vn -0.351284 0.936269 0.000000
vn 0.932617 0.360868 0.000000
vn 0.932617 0.360868 -0.000000
vn 0.157382 -0.987538 0.000000
vn 0.157382 -0.987538 0.000000
vn -0.931828 -0.362900 0.000000
vn -0.931828 -0.362900 0.000000
vn -0.178015 0.984028 0.000000
vn -0.178015 0.984028 0.000000
vn 0.107796 0.994173 0.000000
vn 0.107796 0.994173 -0.000000
vn -0.941683 -0.336500 0.000000
vn -0.941683 -0.336500 0.000000
vn 0.347194 -0.937793 0.000000
vn 0.347194 -0.937793 0.000000
vn -0.946058 -0.323997 0.000000
vn -0.946058 -0.323997 0.000000
vn 0.404741 -0.914431 0.000000
vn 0.404741 -0.914431 0.000000
vn -0.898403 -0.439172 0.000000
vn -0.898403 -0.439172 0.000000
vn -0.374183 0.927355 0.000000
vn -0.374183 0.927355 0.000000
vn -0.892678 -0.450695 0.000000
vn -0.892678 -0.450695 0.000000
vn -0.395582 0.918431 0.000000
vn -0.395582 0.918431 0.000000
vn 0.879475 0.475946 0.000000
vn 0.879475 0.475946 -0.000000
vn -0.376094 0.926582 0.000000
vn -0.376094 0.926582 0.000000
vn 0.905105 0.425189 0.000000
vn 0.905105 0.425189 -0.000000
vn -0.376113 0.926574 0.000000
vn -0.376113 0.926574 0.000000
usemtl assumed_base
f 19//1 1//1 2//1
f 2//2 3//2 4//2
f 4//3 5//3 6//3
f 4//4 6//4 7//4
f 4//5 7//5 8//5
f 2//6 4//6 8//6
f 2//7 8//7 9//7
f 19//8 2//8 9//8
f 19//9 9//9 10//9
f 19//10 10//10 11//10
f 19//11 11//11 12//11
f 12//12 13//12 14//12
f 19//13 12//13 14//13
f 19//14 14//14 15//14
f 15//15 16//15 17//15
f 19//16 15//16 17//16
f 17//17 18//17 19//17
usemtl assumed_roof
f 38//18 21//18 20//18
f 21//19 23//19 22//19
f 23//20 25//20 24//20
f 23//21 26//21 25//21
f 23//22 27//22 26//22
f 21//23 27//23 23//23
f 21//24 28//24 27//24
f 38//25 28//25 21//25
f 38//26 29//26 28//26
f 38//27 30//27 29//27
f 38//28 31//28 30//28
f 31//29 33//29 32//29
f 38//30 33//30 31//30
f 38//31 34//31 33//31
f 34//32 36//32 35//32
f 38//33 36//33 34//33
f 36//34 38//34 37//34
usemtl assumed_wall
f 1//35 21//35 2//35
f 1//36 20//36 21//36
f 2//37 22//37 3//37
f 2//38 21//38 22//38
f 3//39 23//39 4//39
f 3//40 22//40 23//40
f 4//41 24//41 5//41
f 4//42 23//42 24//42
f 5//43 25//43 6//43
f 5//44 24//44 25//44
f 6//45 26//45 7//45
f 6//46 25//46 26//46
f 7//47 27//47 8//47
f 7//48 26//48 27//48
f 8//49 28//49 9//49
f 8//50 27//50 28//50
f 9//51 29//51 10//51
f 9//52 28//52 29//52
f 10//53 30//53 11//53
f 10//54 29//54 30//54
f 11//55 31//55 12//55
f 11//56 30//56 31//56
f 12//57 32//57 13//57
f 12//58 31//58 32//58
f 13//59 33//59 14//59
f 13//60 32//60 33//60
f 14//61 34//61 15//61
f 14//62 33//62 34//62
f 15//63 35//63 16//63
f 15//64 34//64 35//64
f 16//65 36//65 17//65
f 16//66 35//66 36//66
f 17//67 37//67 18//67
f 17//68 36//68 37//68
f 18//69 38//69 19//69
f 18//70 37//70 38//70
f 19//71 20//71 1//71
f 19//72 38//72 20//72
