# construction_0982_assumed_A_Casa
# source A_Casa
# h_campo 0.000000
# modeled_height 6.000000
# height_kind assumed
# local_origin_world_x 172001.034850
# local_origin_world_y 402500.144600
mtllib construction_artifacts.mtl

o construction_0982_assumed_A_Casa
v -7.670500 -2.050500 0.000000
v -3.737500 2.065500 0.000000
v -2.635500 1.511500 0.000000
v 0.547500 3.963500 0.000000
v -2.446500 7.519500 0.000000
v -0.880500 10.071500 0.000000
v 7.670500 0.429500 0.000000
v -4.202500 -10.071500 0.000000
v -7.670500 -2.050500 6.000000
v -3.737500 2.065500 6.000000
v -2.635500 1.511500 6.000000
v 0.547500 3.963500 6.000000
v -2.446500 7.519500 6.000000
v -0.880500 10.071500 6.000000
v 7.670500 0.429500 6.000000
v -4.202500 -10.071500 6.000000
vn 0.000000 0.000000 -1.000000
vn 0.000000 0.000000 -1.000000
vn 0.000000 0.000000 -1.000000
vn 0.000000 0.000000 -1.000000
vn 0.000000 0.000000 -1.000000
vn 0.000000 -0.000000 -1.000000
vn 0.000000 -0.000000 1.000000
vn 0.000000 0.000000 1.000000
vn 0.000000 0.000000 1.000000
vn 0.000000 0.000000 1.000000
vn -0.000000 -0.000000 1.000000
vn 0.000000 0.000000 1.000000
vn -0.722997 0.690852 0.000000
vn -0.722997 0.690852 0.000000
vn 0.449158 0.893452 0.000000
vn 0.449158 0.893452 -0.000000
vn -0.610264 0.792198 0.000000
vn -0.610264 0.792198 0.000000
vn -0.764967 -0.644069 0.000000
vn -0.764967 -0.644069 0.000000
vn -0.852323 0.523016 0.000000
vn -0.852323 0.523016 0.000000
vn 0.748167 0.663511 0.000000
vn 0.748167 0.663511 -0.000000
vn 0.662502 -0.749060 0.000000
vn 0.662502 -0.749060 0.000000
vn -0.917880 -0.396859 0.000000
vn -0.917880 -0.396859 0.000000
usemtl assumed_base
f 8//1 1//1 2//1
f 8//2 2//2 3//2
f 8//3 3//3 4//3
f 4//4 5//4 6//4
f 4//5 6//5 7//5
f 4//6 7//6 8//6
usemtl assumed_roof
f 16//7 10//7 9//7
f 16//8 11//8 10//8
f 16//9 12//9 11//9
f 12//10 14//10 13//10
f 12//11 15//11 14//11
f 12//12 16//12 15//12
usemtl assumed_wall
f 1//13 10//13 2//13
f 1//14 9//14 10//14
f 2//15 11//15 3//15
f 2//16 10//16 11//16
f 3//17 12//17 4//17
f 3//18 11//18 12//18
f 4//19 13//19 5//19
f 4//20 12//20 13//20
f 5//21 14//21 6//21
f 5//22 13//22 14//22
f 6//23 15//23 7//23
f 6//24 14//24 15//24
f 7//25 16//25 8//25
f 7//26 15//26 16//26
f 8//27 9//27 1//27
f 8//28 16//28 9//28
