# construction_2757_assumed_A_Casa
# source A_Casa
# h_campo 0.000000
# modeled_height 6.000000
# height_kind assumed
# local_origin_world_x 172001.034850
# local_origin_world_y 402500.144600
mtllib construction_artifacts.mtl

o construction_2757_assumed_A_Casa
v -5.148000 4.102000 0.000000
v 2.497000 1.841000 0.000000
v 6.072000 0.431000 0.000000
v 5.191000 -4.102000 0.000000
v -6.072000 -1.451000 0.000000
v -5.148000 4.102000 6.000000
v 2.497000 1.841000 6.000000
v 6.072000 0.431000 6.000000
v 5.191000 -4.102000 6.000000
v -6.072000 -1.451000 6.000000
vn 0.000000 0.000000 -1.000000
vn 0.000000 0.000000 -1.000000
vn 0.000000 0.000000 -1.000000
vn 0.000000 0.000000 1.000000
vn 0.000000 0.000000 1.000000
vn 0.000000 0.000000 1.000000
vn 0.283606 0.958941 0.000000
vn 0.283606 0.958941 -0.000000
vn 0.366900 0.930260 0.000000
vn 0.366900 0.930260 -0.000000
vn 0.981632 -0.190783 0.000000
vn 0.981632 -0.190783 0.000000
vn -0.229112 -0.973400 0.000000
vn -0.229112 -0.973400 0.000000
vn -0.986437 0.164140 0.000000
vn -0.986437 0.164140 0.000000
usemtl assumed_base
f 5//1 1//1 2//1
f 5//2 2//2 3//2
f 3//3 4//3 5//3
usemtl assumed_roof
f 10//4 7//4 6//4
f 10//5 8//5 7//5
f 8//6 10//6 9//6
usemtl assumed_wall
f 1//7 7//7 2//7
f 1//8 6//8 7//8
f 2//9 8//9 3//9
f 2//10 7//10 8//10
f 3//11 9//11 4//11
f 3//12 8//12 9//12
f 4//13 10//13 5//13
f 4//14 9//14 10//14
f 5//15 6//15 1//15
f 5//16 10//16 6//16
