# construction_6973_assumed_A_Casa
# source A_Casa
# h_campo 0.000000
# modeled_height 6.000000
# height_kind assumed
# local_origin_world_x 172001.034850
# local_origin_world_y 402500.144600
mtllib construction_artifacts.mtl

o construction_6973_assumed_A_Casa
v 11.521500 -1.627500 0.000000
v 14.033500 -6.505500 0.000000
v 13.816500 -8.052500 0.000000
v 19.623500 -19.968500 0.000000
v 24.989500 -30.565500 0.000000
v 24.999500 -32.476500 0.000000
v 3.832500 -34.887500 0.000000
v 2.940500 -30.760500 0.000000
v 10.004500 -29.727500 0.000000
v 8.457500 -26.685500 0.000000
v -2.307500 -29.564500 0.000000
v -3.170500 -25.620500 0.000000
v 2.748500 -23.369500 0.000000
v -0.847500 -15.335500 0.000000
v 0.834500 -14.371500 0.000000
v -7.632500 1.016500 0.000000
v -13.438500 -1.345500 0.000000
v -14.845500 1.668500 0.000000
v -13.373500 2.350500 0.000000
v -24.999500 25.592500 0.000000
v -9.882500 34.887500 0.000000
v -7.478500 34.688500 0.000000
v 4.980500 10.804500 0.000000
v 10.776500 -1.630500 0.000000
v 11.521500 -1.627500 6.000000
v 14.033500 -6.505500 6.000000
v 13.816500 -8.052500 6.000000
v 19.623500 -19.968500 6.000000
v 24.989500 -30.565500 6.000000
v 24.999500 -32.476500 6.000000
v 3.832500 -34.887500 6.000000
v 2.940500 -30.760500 6.000000
v 10.004500 -29.727500 6.000000
v 8.457500 -26.685500 6.000000
v -2.307500 -29.564500 6.000000
v -3.170500 -25.620500 6.000000
v 2.748500 -23.369500 6.000000
v -0.847500 -15.335500 6.000000
v 0.834500 -14.371500 6.000000
v -7.632500 1.016500 6.000000
v -13.438500 -1.345500 6.000000
v -14.845500 1.668500 6.000000
v -13.373500 2.350500 6.000000
v -24.999500 25.592500 6.000000
v -9.882500 34.887500 6.000000
v -7.478500 34.688500 6.000000
v 4.980500 10.804500 6.000000
v 10.776500 -1.630500 6.000000
vn 0.000000 0.000000 -1.000000
vn 0.000000 0.000000 -1.000000
vn 0.000000 0.000000 -1.000000
vn 0.000000 0.000000 -1.000000
vn 0.000000 0.000000 -1.000000
vn -0.000000 0.000000 -1.000000
vn 0.000000 0.000000 -1.000000
vn 0.000000 -0.000000 -1.000000
vn 0.000000 0.000000 -1.000000
vn -0.000000 0.000000 -1.000000
vn 0.000000 0.000000 -1.000000
vn 0.000000 0.000000 -1.000000
vn 0.000000 0.000000 -1.000000
vn 0.000000 0.000000 -1.000000
vn -0.000000 0.000000 -1.000000
vn -0.000000 0.000000 -1.000000
vn 0.000000 0.000000 -1.000000
vn 0.000000 0.000000 -1.000000
vn 0.000000 0.000000 -1.000000
vn 0.000000 0.000000 -1.000000
vn 0.000000 0.000000 -1.000000
vn 0.000000 0.000000 -1.000000
vn -0.000000 0.000000 1.000000
vn 0.000000 0.000000 1.000000
vn 0.000000 0.000000 1.000000
vn 0.000000 0.000000 1.000000
vn 0.000000 0.000000 1.000000
vn 0.000000 0.000000 1.000000
vn 0.000000 0.000000 1.000000
vn 0.000000 0.000000 1.000000
vn 0.000000 0.000000 1.000000
vn 0.000000 0.000000 1.000000
vn 0.000000 0.000000 1.000000
vn 0.000000 0.000000 1.000000
vn 0.000000 0.000000 1.000000
vn 0.000000 0.000000 1.000000
vn 0.000000 0.000000 1.000000
vn 0.000000 0.000000 1.000000
vn 0.000000 0.000000 1.000000
vn 0.000000 0.000000 1.000000
vn 0.000000 0.000000 1.000000
vn 0.000000 0.000000 1.000000
vn 0.000000 0.000000 1.000000
vn 0.000000 0.000000 1.000000
vn 0.889042 0.457826 0.000000
vn 0.889042 0.457826 -0.000000
vn 0.990305 -0.138912 0.000000
vn 0.990305 -0.138912 0.000000
vn 0.898937 0.438077 0.000000
vn 0.898937 0.438077 -0.000000
vn 0.892143 0.451754 0.000000
vn 0.892143 0.451754 -0.000000
vn 0.999986 0.005233 0.000000
vn 0.999986 0.005233 -0.000000
vn 0.113172 -0.993575 0.000000
vn 0.113172 -0.993575 0.000000
vn -0.977430 -0.211259 0.000000
vn -0.977430 -0.211259 0.000000
vn -0.144695 0.989476 0.000000
vn -0.144695 0.989476 0.000000
vn -0.891359 -0.453298 0.000000
vn -0.891359 -0.453298 0.000000
vn 0.258361 -0.966049 0.000000
vn 0.258361 -0.966049 0.000000
vn -0.976887 -0.213756 0.000000
vn -0.976887 -0.213756 0.000000
vn -0.355463 0.934690 0.000000
vn -0.355463 0.934690 0.000000
vn -0.912740 -0.408540 0.000000
vn -0.912740 -0.408540 0.000000
vn -0.497250 0.867608 0.000000
vn -0.497250 0.867608 0.000000
vn -0.876129 -0.482076 0.000000
vn -0.876129 -0.482076 0.000000
vn 0.376831 -0.926282 0.000000
vn 0.376831 -0.926282 0.000000
vn -0.906129 -0.423001 0.000000
vn -0.906129 -0.423001 0.000000
vn -0.420387 0.907345 0.000000
vn -0.420387 0.907345 0.000000
vn -0.894350 -0.447368 0.000000
vn -0.894350 -0.447368 0.000000
vn -0.523780 0.851854 0.000000
vn -0.523780 0.851854 0.000000
vn 0.082497 0.996591 0.000000
vn 0.082497 0.996591 -0.000000
vn 0.886619 0.462501 0.000000
vn 0.886619 0.462501 -0.000000
vn 0.906379 0.422466 0.000000
vn 0.906379 0.422466 -0.000000
vn -0.004027 0.999992 0.000000
vn -0.004027 0.999992 0.000000
usemtl assumed_base
f 24//1 1//1 2//1
f 24//2 2//2 3//2
f 4//3 5//3 6//3
f 3//4 4//4 6//4
f 24//5 3//5 6//5
f 6//6 7//6 8//6
f 6//7 8//7 9//7
f 24//8 6//8 9//8
f 24//9 9//9 10//9
f 10//10 11//10 12//10
f 10//11 12//11 13//11
f 24//12 10//12 13//12
f 13//13 14//13 15//13
f 24//14 13//14 15//14
f 24//15 15//15 16//15
f 16//16 17//16 18//16
f 16//17 18//17 19//17
f 24//18 16//18 19//18
f 24//19 19//19 20//19
f 24//20 20//20 21//20
f 24//21 21//21 22//21
f 22//22 23//22 24//22
usemtl assumed_roof
f 48//23 26//23 25//23
f 48//24 27//24 26//24
f 28//25 30//25 29//25
f 27//26 30//26 28//26
f 48//27 30//27 27//27
f 30//28 32//28 31//28
f 30//29 33//29 32//29
f 48//30 33//30 30//30
f 48//31 34//31 33//31
f 34//32 36//32 35//32
f 34//33 37//33 36//33
f 48//34 37//34 34//34
f 37//35 39//35 38//35
f 48//36 39//36 37//36
f 48//37 40//37 39//37
f 40//38 42//38 41//38
f 40//39 43//39 42//39
f 48//40 43//40 40//40
f 48//41 44//41 43//41
f 48//42 45//42 44//42
f 48//43 46//43 45//43
f 46//44 48//44 47//44
usemtl assumed_wall
f 1//45 26//45 2//45
f 1//46 25//46 26//46
f 2//47 27//47 3//47
f 2//48 26//48 27//48
f 3//49 28//49 4//49
f 3//50 27//50 28//50
f 4//51 29//51 5//51
f 4//52 28//52 29//52
f 5//53 30//53 6//53
f 5//54 29//54 30//54
f 6//55 31//55 7//55
f 6//56 30//56 31//56
f 7//57 32//57 8//57
f 7//58 31//58 32//58
f 8//59 33//59 9//59
f 8//60 32//60 33//60
f 9//61 34//61 10//61
f 9//62 33//62 34//62
f 10//63 35//63 11//63
f 10//64 34//64 35//64
f 11//65 36//65 12//65
f 11//66 35//66 36//66
f 12//67 37//67 13//67
f 12//68 36//68 37//68
f 13//69 38//69 14//69
f 13//70 37//70 38//70
f 14//71 39//71 15//71
f 14//72 38//72 39//72
f 15//73 40//73 16//73
f 15//74 39//74 40//74
f 16//75 41//75 17//75
f 16//76 40//76 41//76
f 17//77 42//77 18//77
f 17//78 41//78 42//78
f 18//79 43//79 19//79
f 18//80 42//80 43//80
f 19//81 44//81 20//81
f 19//82 43//82 44//82
f 20//83 45//83 21//83
f 20//84 44//84 45//84
f 21//85 46//85 22//85
f 21//86 45//86 46//86
f 22//87 47//87 23//87
f 22//88 46//88 47//88
f 23//89 48//89 24//89
f 23//90 47//90 48//90
f 24//91 25//91 1//91
f 24//92 48//92 25//92
