# construction_2265_assumed_A_Casa
# source A_Casa
# h_campo 0.000000
# modeled_height 6.000000
# height_kind assumed
# local_origin_world_x 172001.034850
# local_origin_world_y 402500.144600
mtllib construction_artifacts.mtl

o construction_2265_assumed_A_Casa
v 7.940000 -2.793500 0.000000
v 10.274000 -0.512500 0.000000
v 6.814000 3.720500 0.000000
v 1.341000 -1.174500 0.000000
v 5.258000 -10.375500 0.000000
v 6.426000 -14.331500 0.000000
v 3.414000 -16.109500 0.000000
v 2.324000 -14.190500 0.000000
v -0.010000 -15.496500 0.000000
v 1.698000 -20.171500 0.000000
v -4.245000 -21.622500 0.000000
v -7.240000 -14.979500 0.000000
v -2.989000 -13.212500 0.000000
v -4.697000 -8.410500 0.000000
v -12.668000 -11.473500 0.000000
v -10.961000 -17.534500 0.000000
v -8.363000 -16.582500 0.000000
v -7.047000 -19.790500 0.000000
v -9.685000 -20.850500 0.000000
v -9.999000 -20.053500 0.000000
v -11.868000 -20.976500 0.000000
v -12.693000 -18.900500 0.000000
v -22.722000 -24.155500 0.000000
v -32.071000 -15.992500 0.000000
v -16.152000 -1.848500 0.000000
v -14.817000 -5.175500 0.000000
v -10.113000 -3.369500 0.000000
v -10.427000 -2.334500 0.000000
v -8.803000 -1.509500 0.000000
v -8.322000 -2.465500 0.000000
v -4.572000 -0.776500 0.000000
v -6.204000 1.577500 0.000000
v -3.889000 3.936500 0.000000
v 2.136000 9.578500 0.000000
v 6.874000 4.674500 0.000000
v 8.114000 5.549500 0.000000
v 4.861000 8.808500 0.000000
v 11.015000 15.719500 0.000000
v 10.110000 16.349500 0.000000
v 17.554000 24.155500 0.000000
v 27.128000 15.144500 0.000000
v 22.992000 10.239500 0.000000
v 30.994000 3.002500 0.000000
v 27.971000 -1.274500 0.000000
v 32.071000 -3.904500 0.000000
v 30.513000 -8.595500 0.000000
v 26.855000 -6.271500 0.000000
v 26.057000 -7.962500 0.000000
v 22.968000 -7.674500 0.000000
v 20.166000 -5.419500 0.000000
v 18.285000 -7.828500 0.000000
v 14.333000 -4.470500 0.000000
v 16.716000 -2.190500 0.000000
v 15.300000 -0.959500 0.000000
v 10.840000 -5.235500 0.000000
v 8.241000 -7.869500 0.000000
v 6.020000 -5.201500 0.000000
v 8.294000 -3.491500 0.000000
v 7.940000 -2.793500 6.000000
v 10.274000 -0.512500 6.000000
v 6.814000 3.720500 6.000000
v 1.341000 -1.174500 6.000000
v 5.258000 -10.375500 6.000000
v 6.426000 -14.331500 6.000000
v 3.414000 -16.109500 6.000000
v 2.324000 -14.190500 6.000000
v -0.010000 -15.496500 6.000000
v 1.698000 -20.171500 6.000000
v -4.245000 -21.622500 6.000000
v -7.240000 -14.979500 6.000000
v -2.989000 -13.212500 6.000000
v -4.697000 -8.410500 6.000000
v -12.668000 -11.473500 6.000000
v -10.961000 -17.534500 6.000000
v -8.363000 -16.582500 6.000000
v -7.047000 -19.790500 6.000000
v -9.685000 -20.850500 6.000000
v -9.999000 -20.053500 6.000000
v -11.868000 -20.976500 6.000000
v -12.693000 -18.900500 6.000000
v -22.722000 -24.155500 6.000000
v -32.071000 -15.992500 6.000000
v -16.152000 -1.848500 6.000000
v -14.817000 -5.175500 6.000000
v -10.113000 -3.369500 6.000000
v -10.427000 -2.334500 6.000000
v -8.803000 -1.509500 6.000000
v -8.322000 -2.465500 6.000000
v -4.572000 -0.776500 6.000000
v -6.204000 1.577500 6.000000
v -3.889000 3.936500 6.000000
v 2.136000 9.578500 6.000000
v 6.874000 4.674500 6.000000
v 8.114000 5.549500 6.000000
v 4.861000 8.808500 6.000000
v 11.015000 15.719500 6.000000
v 10.110000 16.349500 6.000000
v 17.554000 24.155500 6.000000
v 27.128000 15.144500 6.000000
v 22.992000 10.239500 6.000000
v 30.994000 3.002500 6.000000
v 27.971000 -1.274500 6.000000
v 32.071000 -3.904500 6.000000
v 30.513000 -8.595500 6.000000
v 26.855000 -6.271500 6.000000
v 26.057000 -7.962500 6.000000
v 22.968000 -7.674500 6.000000
v 20.166000 -5.419500 6.000000
v 18.285000 -7.828500 6.000000
v 14.333000 -4.470500 6.000000
v 16.716000 -2.190500 6.000000
v 15.300000 -0.959500 6.000000
v 10.840000 -5.235500 6.000000
v 8.241000 -7.869500 6.000000
v 6.020000 -5.201500 6.000000
v 8.294000 -3.491500 6.000000
vn 0.000000 0.000000 -1.000000
vn 0.000000 0.000000 -1.000000
vn 0.000000 0.000000 -1.000000
vn 0.000000 0.000000 -1.000000
vn 0.000000 -0.000000 -1.000000
vn 0.000000 -0.000000 -1.000000
vn 0.000000 0.000000 -1.000000
vn 0.000000 0.000000 -1.000000
vn 0.000000 0.000000 -1.000000
vn 0.000000 0.000000 -1.000000
vn 0.000000 0.000000 -1.000000
vn 0.000000 0.000000 -1.000000
vn 0.000000 0.000000 -1.000000
vn 0.000000 0.000000 -1.000000
vn 0.000000 0.000000 -1.000000
vn 0.000000 -0.000000 -1.000000
vn 0.000000 0.000000 -1.000000
vn 0.000000 -0.000000 -1.000000
vn 0.000000 0.000000 -1.000000
vn 0.000000 0.000000 -1.000000
vn 0.000000 0.000000 -1.000000
vn 0.000000 0.000000 -1.000000
vn 0.000000 0.000000 -1.000000
vn 0.000000 0.000000 -1.000000
vn 0.000000 0.000000 -1.000000
vn 0.000000 0.000000 -1.000000
vn 0.000000 0.000000 -1.000000
vn 0.000000 0.000000 -1.000000
vn 0.000000 0.000000 -1.000000
vn -0.000000 0.000000 -1.000000
vn 0.000000 0.000000 -1.000000
vn 0.000000 0.000000 -1.000000
vn 0.000000 0.000000 -1.000000
vn 0.000000 0.000000 -1.000000
vn 0.000000 0.000000 -1.000000
vn 0.000000 0.000000 -1.000000
vn 0.000000 0.000000 -1.000000
vn 0.000000 0.000000 -1.000000
vn 0.000000 0.000000 -1.000000
vn 0.000000 0.000000 -1.000000
vn 0.000000 0.000000 -1.000000
vn 0.000000 0.000000 -1.000000
vn 0.000000 0.000000 -1.000000
vn 0.000000 0.000000 -1.000000
vn 0.000000 0.000000 -1.000000
vn 0.000000 0.000000 -1.000000
vn 0.000000 -0.000000 -1.000000
vn 0.000000 0.000000 -1.000000
vn 0.000000 0.000000 -1.000000
vn 0.000000 0.000000 -1.000000
vn 0.000000 0.000000 -1.000000
vn 0.000000 0.000000 -1.000000
vn 0.000000 0.000000 -1.000000
vn 0.000000 0.000000 -1.000000
vn 0.000000 -0.000000 -1.000000
vn 0.000000 0.000000 -1.000000
vn 0.000000 -0.000000 1.000000
vn 0.000000 0.000000 1.000000
vn 0.000000 0.000000 1.000000
vn 0.000000 0.000000 1.000000
vn 0.000000 0.000000 1.000000
vn 0.000000 0.000000 1.000000
vn 0.000000 0.000000 1.000000
vn 0.000000 -0.000000 1.000000
vn 0.000000 0.000000 1.000000
vn 0.000000 0.000000 1.000000
vn 0.000000 0.000000 1.000000
vn 0.000000 0.000000 1.000000
vn -0.000000 0.000000 1.000000
vn 0.000000 0.000000 1.000000
vn 0.000000 0.000000 1.000000
vn 0.000000 0.000000 1.000000
vn 0.000000 0.000000 1.000000
vn 0.000000 0.000000 1.000000
vn 0.000000 0.000000 1.000000
vn 0.000000 0.000000 1.000000
vn 0.000000 0.000000 1.000000
vn 0.000000 0.000000 1.000000
vn 0.000000 0.000000 1.000000
vn 0.000000 0.000000 1.000000
vn 0.000000 -0.000000 1.000000
vn 0.000000 0.000000 1.000000
vn 0.000000 0.000000 1.000000
vn 0.000000 0.000000 1.000000
vn 0.000000 0.000000 1.000000
vn 0.000000 0.000000 1.000000
vn 0.000000 0.000000 1.000000
vn 0.000000 0.000000 1.000000
vn 0.000000 0.000000 1.000000
vn 0.000000 0.000000 1.000000
vn 0.000000 -0.000000 1.000000
vn 0.000000 -0.000000 1.000000
vn 0.000000 -0.000000 1.000000
vn 0.000000 0.000000 1.000000
vn 0.000000 0.000000 1.000000
vn 0.000000 0.000000 1.000000
vn 0.000000 0.000000 1.000000
vn 0.000000 0.000000 1.000000
vn 0.000000 0.000000 1.000000
vn 0.000000 0.000000 1.000000
vn 0.000000 0.000000 1.000000
vn 0.000000 0.000000 1.000000
vn 0.000000 0.000000 1.000000
vn 0.000000 0.000000 1.000000
vn 0.000000 0.000000 1.000000
vn 0.000000 0.000000 1.000000
vn 0.000000 0.000000 1.000000
vn 0.000000 0.000000 1.000000
vn 0.000000 0.000000 1.000000
vn -0.000000 0.000000 1.000000
vn 0.000000 0.000000 1.000000
vn 0.000000 -0.000000 1.000000
vn -0.698940 0.715180 0.000000
vn -0.698940 0.715180 0.000000
vn -0.774259 -0.632869 0.000000
vn -0.774259 -0.632869 0.000000
vn 0.666652 -0.745370 0.000000
vn 0.666652 -0.745370 0.000000
vn 0.920094 0.391697 0.000000
vn 0.920094 0.391697 -0.000000
vn 0.959072 0.283164 0.000000
vn 0.959072 0.283164 -0.000000
vn 0.508344 -0.861154 0.000000
vn 0.508344 -0.861154 0.000000
vn -0.869523 -0.493893 0.000000
vn -0.869523 -0.493893 0.000000
vn 0.488307 -0.872672 0.000000
vn 0.488307 -0.872672 0.000000
vn 0.939276 0.343162 0.000000
vn 0.939276 0.343162 -0.000000
vn 0.237186 -0.971464 0.000000
vn 0.237186 -0.971464 0.000000
vn -0.911631 -0.411009 0.000000
vn -0.911631 -0.411009 0.000000
vn -0.383829 0.923404 0.000000
vn -0.383829 0.923404 0.000000
vn -0.942176 -0.335118 0.000000
vn -0.942176 -0.335118 0.000000
vn 0.358697 -0.933454 0.000000
vn 0.358697 -0.933454 0.000000
vn 0.962554 0.271090 0.000000
vn 0.962554 0.271090 -0.000000
vn -0.344063 0.938946 0.000000
vn -0.344063 0.938946 0.000000
vn 0.925179 0.379531 0.000000
vn 0.925179 0.379531 -0.000000
vn 0.372846 -0.927893 0.000000
vn 0.372846 -0.927893 0.000000
vn -0.930396 -0.366555 0.000000
vn -0.930396 -0.366555 0.000000
vn 0.442795 -0.896623 0.000000
vn 0.442795 -0.896623 0.000000
vn -0.929308 -0.369306 0.000000
vn -0.929308 -0.369306 0.000000
vn 0.464126 -0.885769 0.000000
vn 0.464126 -0.885769 0.000000
vn -0.657711 -0.753270 0.000000
vn -0.657711 -0.753270 0.000000
vn -0.664201 0.747554 0.000000
vn -0.664201 0.747554 0.000000
vn 0.928072 0.372400 0.000000
vn 0.928072 0.372400 -0.000000
vn -0.358420 0.933560 0.000000
vn -0.358420 0.933560 0.000000
vn -0.956931 -0.290315 0.000000
vn -0.956931 -0.290315 0.000000
vn -0.452914 0.891554 0.000000
vn -0.452914 0.891554 0.000000
vn 0.893303 0.449455 0.000000
vn 0.893303 0.449455 -0.000000
vn -0.410668 0.911785 0.000000
vn -0.410668 0.911785 0.000000
vn -0.821815 -0.569754 0.000000
vn -0.821815 -0.569754 0.000000
vn -0.713732 0.700419 0.000000
vn -0.713732 0.700419 0.000000
vn -0.683526 0.729926 0.000000
vn -0.683526 0.729926 0.000000
vn 0.719174 0.694830 0.000000
vn 0.719174 0.694830 -0.000000
vn -0.576554 0.817059 0.000000
vn -0.576554 0.817059 0.000000
vn -0.707758 -0.706455 0.000000
vn -0.707758 -0.706455 0.000000
vn -0.746825 0.665021 0.000000
vn -0.746825 0.665021 0.000000
vn -0.571330 -0.820720 0.000000
vn -0.571330 -0.820720 0.000000
vn -0.723688 0.690127 0.000000
vn -0.723688 0.690127 0.000000
vn 0.685372 0.728193 0.000000
vn 0.685372 0.728193 -0.000000
vn 0.764491 -0.644635 0.000000
vn 0.764491 -0.644635 0.000000
vn 0.670765 0.741670 0.000000
vn 0.670765 0.741670 -0.000000
vn 0.816613 -0.577185 0.000000
vn 0.816613 -0.577185 0.000000
vn 0.539927 0.841712 0.000000
vn 0.539927 0.841712 -0.000000
vn 0.949027 -0.315196 0.000000
vn 0.949027 -0.315196 0.000000
vn -0.536248 -0.844060 0.000000
vn -0.536248 -0.844060 0.000000
vn 0.904358 -0.426775 0.000000
vn 0.904358 -0.426775 0.000000
vn -0.092831 -0.995682 0.000000
vn -0.092831 -0.995682 0.000000
vn -0.626964 -0.779048 0.000000
vn -0.626964 -0.779048 0.000000
vn 0.788188 -0.615434 0.000000
vn 0.788188 -0.615434 0.000000
vn -0.647514 -0.762053 0.000000
vn -0.647514 -0.762053 0.000000
vn -0.691319 0.722550 0.000000
vn -0.691319 0.722550 0.000000
vn -0.656086 -0.754686 0.000000
vn -0.656086 -0.754686 0.000000
vn 0.692060 -0.721840 0.000000
vn 0.692060 -0.721840 0.000000
vn 0.711820 -0.702362 0.000000
vn 0.711820 -0.702362 0.000000
vn -0.768552 -0.639788 0.000000
vn -0.768552 -0.639788 0.000000
vn -0.601012 0.799240 0.000000
vn -0.601012 0.799240 0.000000
vn -0.891857 -0.452317 0.000000
vn -0.891857 -0.452317 0.000000
usemtl assumed_base
f 58//1 1//1 2//1
f 4//2 5//2 6//2
f 4//3 6//3 7//3
f 4//4 7//4 8//4
f 4//5 8//5 9//5
f 9//6 10//6 11//6
f 4//7 9//7 11//7
f 11//8 12//8 13//8
f 4//9 11//9 13//9
f 4//10 13//10 14//10
f 4//11 14//11 15//11
f 3//12 4//12 15//12
f 16//13 17//13 18//13
f 16//14 18//14 19//14
f 16//15 19//15 20//15
f 16//16 20//16 21//16
f 15//17 16//17 21//17
f 15//18 21//18 22//18
f 15//19 22//19 23//19
f 15//20 23//20 24//20
f 3//21 15//21 24//21
f 24//22 25//22 26//22
f 24//23 26//23 27//23
f 3//24 24//24 27//24
f 27//25 28//25 29//25
f 27//26 29//26 30//26
f 3//27 27//27 30//27
f 3//28 30//28 31//28
f 3//29 31//29 32//29
f 3//30 32//30 33//30
f 3//31 33//31 34//31
f 2//32 3//32 34//32
f 2//33 34//33 35//33
f 2//34 35//34 36//34
f 36//35 37//35 38//35
f 2//36 36//36 38//36
f 38//37 39//37 40//37
f 2//38 38//38 40//38
f 2//39 40//39 41//39
f 58//40 2//40 41//40
f 58//41 41//41 42//41
f 42//42 43//42 44//42
f 44//43 45//43 46//43
f 42//44 44//44 46//44
f 42//45 46//45 47//45
f 42//46 47//46 48//46
f 42//47 48//47 49//47
f 42//48 49//48 50//48
f 42//49 50//49 51//49
f 51//50 52//50 53//50
f 42//51 51//51 53//51
f 42//52 53//52 54//52
f 58//53 42//53 54//53
f 58//54 54//54 55//54
f 58//55 55//55 56//55
f 56//56 57//56 58//56
usemtl assumed_roof
f 116//57 60//57 59//57
f 62//58 64//58 63//58
f 62//59 65//59 64//59
f 62//60 66//60 65//60
f 62//61 67//61 66//61
f 67//62 69//62 68//62
f 62//63 69//63 67//63
f 69//64 71//64 70//64
f 62//65 71//65 69//65
f 62//66 72//66 71//66
f 62//67 73//67 72//67
f 61//68 73//68 62//68
f 74//69 76//69 75//69
f 74//70 77//70 76//70
f 74//71 78//71 77//71
f 74//72 79//72 78//72
f 73//73 79//73 74//73
f 73//74 80//74 79//74
f 73//75 81//75 80//75
f 73//76 82//76 81//76
f 61//77 82//77 73//77
f 82//78 84//78 83//78
f 82//79 85//79 84//79
f 61//80 85//80 82//80
f 85//81 87//81 86//81
f 85//82 88//82 87//82
f 61//83 88//83 85//83
f 61//84 89//84 88//84
f 61//85 90//85 89//85
f 61//86 91//86 90//86
f 61//87 92//87 91//87
f 60//88 92//88 61//88
f 60//89 93//89 92//89
f 60//90 94//90 93//90
f 94//91 96//91 95//91
f 60//92 96//92 94//92
f 96//93 98//93 97//93
f 60//94 98//94 96//94
f 60//95 99//95 98//95
f 116//96 99//96 60//96
f 116//97 100//97 99//97
f 100//98 102//98 101//98
f 102//99 104//99 103//99
f 100//100 104//100 102//100
f 100//101 105//101 104//101
f 100//102 106//102 105//102
f 100//103 107//103 106//103
f 100//104 108//104 107//104
f 100//105 109//105 108//105
f 109//106 111//106 110//106
f 100//107 111//107 109//107
f 100//108 112//108 111//108
f 116//109 112//109 100//109
f 116//110 113//110 112//110
f 116//111 114//111 113//111
f 114//112 116//112 115//112
usemtl assumed_wall
f 1//113 60//113 2//113
f 1//114 59//114 60//114
f 2//115 61//115 3//115
f 2//116 60//116 61//116
f 3//117 62//117 4//117
f 3//118 61//118 62//118
f 4//119 63//119 5//119
f 4//120 62//120 63//120
f 5//121 64//121 6//121
f 5//122 63//122 64//122
f 6//123 65//123 7//123
f 6//124 64//124 65//124
f 7//125 66//125 8//125
f 7//126 65//126 66//126
f 8//127 67//127 9//127
f 8//128 66//128 67//128
f 9//129 68//129 10//129
f 9//130 67//130 68//130
f 10//131 69//131 11//131
f 10//132 68//132 69//132
f 11//133 70//133 12//133
f 11//134 69//134 70//134
f 12//135 71//135 13//135
f 12//136 70//136 71//136
f 13//137 72//137 14//137
f 13//138 71//138 72//138
f 14//139 73//139 15//139
f 14//140 72//140 73//140
f 15//141 74//141 16//141
f 15//142 73//142 74//142
f 16//143 75//143 17//143
f 16//144 74//144 75//144
f 17//145 76//145 18//145
f 17//146 75//146 76//146
f 18//147 77//147 19//147
f 18//148 76//148 77//148
f 19//149 78//149 20//149
f 19//150 77//150 78//150
f 20//151 79//151 21//151
f 20//152 78//152 79//152
f 21//153 80//153 22//153
f 21//154 79//154 80//154
f 22//155 81//155 23//155
f 22//156 80//156 81//156
f 23//157 82//157 24//157
f 23//158 81//158 82//158
f 24//159 83//159 25//159
f 24//160 82//160 83//160
f 25//161 84//161 26//161
f 25//162 83//162 84//162
f 26//163 85//163 27//163
f 26//164 84//164 85//164
f 27//165 86//165 28//165
f 27//166 85//166 86//166
f 28//167 87//167 29//167
f 28//168 86//168 87//168
f 29//169 88//169 30//169
f 29//170 87//170 88//170
f 30//171 89//171 31//171
f 30//172 88//172 89//172
f 31//173 90//173 32//173
f 31//174 89//174 90//174
f 32//175 91//175 33//175
f 32//176 90//176 91//176
f 33//177 92//177 34//177
f 33//178 91//178 92//178
f 34//179 93//179 35//179
f 34//180 92//180 93//180
f 35//181 94//181 36//181
f 35//182 93//182 94//182
f 36//183 95//183 37//183
f 36//184 94//184 95//184
f 37//185 96//185 38//185
f 37//186 95//186 96//186
f 38//187 97//187 39//187
f 38//188 96//188 97//188
f 39//189 98//189 40//189
f 39//190 97//190 98//190
f 40//191 99//191 41//191
f 40//192 98//192 99//192
f 41//193 100//193 42//193
f 41//194 99//194 100//194
f 42//195 101//195 43//195
f 42//196 100//196 101//196
f 43//197 102//197 44//197
f 43//198 101//198 102//198
f 44//199 103//199 45//199
f 44//200 102//200 103//200
f 45//201 104//201 46//201
f 45//202 103//202 104//202
f 46//203 105//203 47//203
f 46//204 104//204 105//204
f 47//205 106//205 48//205
f 47//206 105//206 106//206
f 48//207 107//207 49//207
f 48//208 106//208 107//208
f 49//209 108//209 50//209
f 49//210 107//210 108//210
f 50//211 109//211 51//211
f 50//212 108//212 109//212
f 51//213 110//213 52//213
f 51//214 109//214 110//214
f 52//215 111//215 53//215
f 52//216 110//216 111//216
f 53//217 112//217 54//217
f 53//218 111//218 112//218
f 54//219 113//219 55//219
f 54//220 112//220 113//220
f 55//221 114//221 56//221
f 55//222 113//222 114//222
f 56//223 115//223 57//223
f 56//224 114//224 115//224
f 57//225 116//225 58//225
f 57//226 115//226 116//226
f 58//227 59//227 1//227
f 58//228 116//228 59//228
