# construction_1206_assumed_A_Casa
# source A_Casa
# h_campo 0.000000
# modeled_height 6.000000
# height_kind assumed
# local_origin_world_x 172001.034850
# local_origin_world_y 402500.144600
mtllib construction_artifacts.mtl

o construction_1206_assumed_A_Casa
v -23.933500 -1.131500 0.000000
v -16.924500 2.515500 0.000000
v -19.264500 6.747500 0.000000
v -7.405500 12.597500 0.000000
v -6.738500 11.350500 0.000000
v 5.975500 17.695500 0.000000
v 5.646500 18.720500 0.000000
v 11.845500 21.477500 0.000000
v 13.648500 17.832500 0.000000
v 15.427500 18.896500 0.000000
v 16.404500 17.509500 0.000000
v 17.917500 18.332500 0.000000
v 21.847500 11.086500 0.000000
v 19.335500 10.329500 0.000000
v 23.933500 1.526500 0.000000
v 19.194500 -0.759500 0.000000
v 20.247500 -3.382500 0.000000
v 11.290500 -7.938500 0.000000
v 12.849500 -10.502500 0.000000
v -9.369500 -21.477500 0.000000
v -12.496500 -14.410500 0.000000
v -16.296500 -16.270500 0.000000
v -23.933500 -1.131500 6.000000
v -16.924500 2.515500 6.000000
v -19.264500 6.747500 6.000000
v -7.405500 12.597500 6.000000
v -6.738500 11.350500 6.000000
v 5.975500 17.695500 6.000000
v 5.646500 18.720500 6.000000
v 11.845500 21.477500 6.000000
v 13.648500 17.832500 6.000000
v 15.427500 18.896500 6.000000
v 16.404500 17.509500 6.000000
v 17.917500 18.332500 6.000000
v 21.847500 11.086500 6.000000
v 19.335500 10.329500 6.000000
v 23.933500 1.526500 6.000000
v 19.194500 -0.759500 6.000000
v 20.247500 -3.382500 6.000000
v 11.290500 -7.938500 6.000000
v 12.849500 -10.502500 6.000000
v -9.369500 -21.477500 6.000000
v -12.496500 -14.410500 6.000000
v -16.296500 -16.270500 6.000000
vn 0.000000 0.000000 -1.000000
vn 0.000000 0.000000 -1.000000
vn 0.000000 0.000000 -1.000000
vn 0.000000 0.000000 -1.000000
vn 0.000000 0.000000 -1.000000
vn 0.000000 0.000000 -1.000000
vn 0.000000 0.000000 -1.000000
vn 0.000000 0.000000 -1.000000
vn 0.000000 0.000000 -1.000000
vn 0.000000 0.000000 -1.000000
vn 0.000000 0.000000 -1.000000
vn 0.000000 0.000000 -1.000000
vn 0.000000 0.000000 -1.000000
vn 0.000000 -0.000000 -1.000000
vn 0.000000 -0.000000 -1.000000
vn 0.000000 0.000000 -1.000000
vn 0.000000 -0.000000 -1.000000
vn 0.000000 0.000000 -1.000000
vn 0.000000 0.000000 -1.000000
vn 0.000000 0.000000 -1.000000
vn 0.000000 0.000000 1.000000
vn 0.000000 -0.000000 1.000000
vn 0.000000 -0.000000 1.000000
vn 0.000000 0.000000 1.000000
vn 0.000000 0.000000 1.000000
vn 0.000000 -0.000000 1.000000
vn 0.000000 0.000000 1.000000
vn 0.000000 0.000000 1.000000
vn 0.000000 0.000000 1.000000
vn 0.000000 0.000000 1.000000
vn 0.000000 0.000000 1.000000
vn 0.000000 0.000000 1.000000
vn 0.000000 0.000000 1.000000
vn 0.000000 0.000000 1.000000
vn 0.000000 0.000000 1.000000
vn 0.000000 0.000000 1.000000
vn 0.000000 0.000000 1.000000
vn 0.000000 0.000000 1.000000
vn 0.000000 0.000000 1.000000
vn 0.000000 0.000000 1.000000
vn -0.461584 0.887097 0.000000
vn -0.461584 0.887097 0.000000
vn -0.875131 -0.483886 0.000000
vn -0.875131 -0.483886 0.000000
vn -0.442397 0.896819 0.000000
vn -0.442397 0.896819 0.000000
vn 0.881785 0.471652 0.000000
vn 0.881785 0.471652 -0.000000
vn -0.446538 0.894765 0.000000
vn -0.446538 0.894765 0.000000
vn -0.952154 -0.305618 0.000000
vn -0.952154 -0.305618 0.000000
vn -0.406371 0.913708 0.000000
vn -0.406371 0.913708 0.000000
vn 0.896337 0.443373 0.000000
vn 0.896337 0.443373 -0.000000
vn -0.513289 0.858216 0.000000
vn -0.513289 0.858216 0.000000
vn 0.817539 0.575873 0.000000
vn 0.817539 0.575873 -0.000000
vn -0.477835 0.878450 0.000000
vn -0.477835 0.878450 0.000000
vn 0.879034 0.476760 0.000000
vn 0.879034 0.476760 -0.000000
vn 0.288537 -0.957469 0.000000
vn 0.288537 -0.957469 0.000000
vn 0.886373 0.462972 0.000000
vn 0.886373 0.462972 -0.000000
vn 0.434473 -0.900685 0.000000
vn 0.434473 -0.900685 0.000000
vn 0.928012 0.372549 0.000000
vn 0.928012 0.372549 -0.000000
vn 0.453373 -0.891321 0.000000
vn 0.453373 -0.891321 0.000000
vn 0.854449 0.519535 0.000000
vn 0.854449 0.519535 -0.000000
vn 0.442866 -0.896588 0.000000
vn 0.442866 -0.896588 0.000000
vn -0.914477 -0.404637 0.000000
vn -0.914477 -0.404637 0.000000
vn 0.439634 -0.898177 0.000000
vn 0.439634 -0.898177 0.000000
vn -0.892829 -0.450395 0.000000
vn -0.892829 -0.450395 0.000000
usemtl assumed_base
f 22//1 1//1 2//1
f 2//2 3//2 4//2
f 22//3 2//3 4//3
f 22//4 4//4 5//4
f 22//5 5//5 6//5
f 6//6 7//6 8//6
f 22//7 6//7 8//7
f 22//8 8//8 9//8
f 22//9 9//9 10//9
f 22//10 10//10 11//10
f 22//11 11//11 12//11
f 12//12 13//12 14//12
f 22//13 12//13 14//13
f 14//14 15//14 16//14
f 16//15 17//15 18//15
f 14//16 16//16 18//16
f 18//17 19//17 20//17
f 14//18 18//18 20//18
f 14//19 20//19 21//19
f 14//20 21//20 22//20
usemtl assumed_roof
f 44//21 24//21 23//21
f 24//22 26//22 25//22
f 44//23 26//23 24//23
f 44//24 27//24 26//24
f 44//25 28//25 27//25
f 28//26 30//26 29//26
f 44//27 30//27 28//27
f 44//28 31//28 30//28
f 44//29 32//29 31//29
f 44//30 33//30 32//30
f 44//31 34//31 33//31
f 34//32 36//32 35//32
f 44//33 36//33 34//33
f 36//34 38//34 37//34
f 38//35 40//35 39//35
f 36//36 40//36 38//36
f 40//37 42//37 41//37
f 36//38 42//38 40//38
f 36//39 43//39 42//39
f 36//40 44//40 43//40
usemtl assumed_wall
f 1//41 24//41 2//41
f 1//42 23//42 24//42
f 2//43 25//43 3//43
f 2//44 24//44 25//44
f 3//45 26//45 4//45
f 3//46 25//46 26//46
f 4//47 27//47 5//47
f 4//48 26//48 27//48
f 5//49 28//49 6//49
f 5//50 27//50 28//50
f 6//51 29//51 7//51
f 6//52 28//52 29//52
f 7//53 30//53 8//53
f 7//54 29//54 30//54
f 8//55 31//55 9//55
f 8//56 30//56 31//56
f 9//57 32//57 10//57
f 9//58 31//58 32//58
f 10//59 33//59 11//59
f 10//60 32//60 33//60
f 11//61 34//61 12//61
f 11//62 33//62 34//62
f 12//63 35//63 13//63
f 12//64 34//64 35//64
f 13//65 36//65 14//65
f 13//66 35//66 36//66
f 14//67 37//67 15//67
f 14//68 36//68 37//68
f 15//69 38//69 16//69
f 15//70 37//70 38//70
f 16//71 39//71 17//71
f 16//72 38//72 39//72
f 17//73 40//73 18//73
f 17//74 39//74 40//74
f 18//75 41//75 19//75
f 18//76 40//76 41//76
f 19//77 42//77 20//77
f 19//78 41//78 42//78
f 20//79 43//79 21//79
f 20//80 42//80 43//80
f 21//81 44//81 22//81
f 21//82 43//82 44//82
f 22//83 23//83 1//83
f 22//84 44//84 23//84
