# construction_5101_assumed_A_Casa
# source A_Casa
# h_campo 0.000000
# modeled_height 6.000000
# height_kind assumed
# local_origin_world_x 172001.034850
# local_origin_world_y 402500.144600
mtllib construction_artifacts.mtl

o construction_5101_assumed_A_Casa
v -16.128000 9.628000 0.000000
v -15.995000 14.272000 0.000000
v -7.952000 12.975000 0.000000
v -8.397000 8.397000 0.000000
v -3.904000 8.103000 0.000000
v -1.940000 19.680000 0.000000
v 16.128000 17.502000 0.000000
v 14.564000 7.578000 0.000000
v 12.675000 8.062000 0.000000
v 12.258000 6.233000 0.000000
v 1.827000 8.183000 0.000000
v 1.587000 2.274000 0.000000
v 3.462000 -15.245000 0.000000
v 6.040000 -14.826000 0.000000
v 6.540000 -19.680000 0.000000
v -7.177000 -17.653000 0.000000
v -4.456000 -13.526000 0.000000
v -4.903000 -9.144000 0.000000
v -13.657000 -10.393000 0.000000
v -16.128000 9.628000 6.000000
v -15.995000 14.272000 6.000000
v -7.952000 12.975000 6.000000
v -8.397000 8.397000 6.000000
v -3.904000 8.103000 6.000000
v -1.940000 19.680000 6.000000
v 16.128000 17.502000 6.000000
v 14.564000 7.578000 6.000000
v 12.675000 8.062000 6.000000
v 12.258000 6.233000 6.000000
v 1.827000 8.183000 6.000000
v 1.587000 2.274000 6.000000
v 3.462000 -15.245000 6.000000
v 6.040000 -14.826000 6.000000
v 6.540000 -19.680000 6.000000
v -7.177000 -17.653000 6.000000
v -4.456000 -13.526000 6.000000
v -4.903000 -9.144000 6.000000
v -13.657000 -10.393000 6.000000
vn 0.000000 0.000000 -1.000000
vn 0.000000 0.000000 -1.000000
vn 0.000000 0.000000 -1.000000
vn 0.000000 0.000000 -1.000000
vn 0.000000 0.000000 -1.000000
vn 0.000000 0.000000 -1.000000
vn -0.000000 0.000000 -1.000000
vn 0.000000 0.000000 -1.000000
vn 0.000000 0.000000 -1.000000
vn 0.000000 0.000000 -1.000000
vn 0.000000 0.000000 -1.000000
vn 0.000000 0.000000 -1.000000
vn 0.000000 -0.000000 -1.000000
vn -0.000000 0.000000 -1.000000
vn 0.000000 -0.000000 -1.000000
vn 0.000000 0.000000 -1.000000
vn 0.000000 0.000000 -1.000000
vn 0.000000 0.000000 1.000000
vn 0.000000 -0.000000 1.000000
vn 0.000000 0.000000 1.000000
vn 0.000000 0.000000 1.000000
vn 0.000000 0.000000 1.000000
vn 0.000000 0.000000 1.000000
vn 0.000000 0.000000 1.000000
vn 0.000000 0.000000 1.000000
vn 0.000000 0.000000 1.000000
vn 0.000000 0.000000 1.000000
vn 0.000000 0.000000 1.000000
vn -0.000000 0.000000 1.000000
vn 0.000000 0.000000 1.000000
vn 0.000000 0.000000 1.000000
vn 0.000000 0.000000 1.000000
vn 0.000000 0.000000 1.000000
vn 0.000000 0.000000 1.000000
vn -0.999590 0.028627 0.000000
vn -0.999590 0.028627 0.000000
vn 0.159202 0.987246 0.000000
vn 0.159202 0.987246 -0.000000
vn 0.995309 -0.096748 0.000000
vn 0.995309 -0.096748 0.000000
vn 0.065295 0.997866 0.000000
vn 0.065295 0.997866 -0.000000
vn -0.985913 0.167257 0.000000
vn -0.985913 0.167257 0.000000
vn 0.119678 0.992813 0.000000
vn 0.119678 0.992813 -0.000000
vn 0.987808 -0.155676 0.000000
vn 0.987808 -0.155676 0.000000
vn -0.248203 -0.968708 0.000000
vn -0.248203 -0.968708 0.000000
vn 0.974981 -0.222289 0.000000
vn 0.974981 -0.222289 0.000000
vn -0.183759 -0.982971 0.000000
vn -0.183759 -0.982971 0.000000
vn 0.999176 -0.040583 0.000000
vn 0.999176 -0.040583 0.000000
vn 0.994321 0.106419 0.000000
vn 0.994321 0.106419 -0.000000
vn -0.160424 0.987048 0.000000
vn -0.160424 0.987048 0.000000
vn 0.994737 0.102466 0.000000
vn 0.994737 0.102466 -0.000000
vn -0.146185 -0.989257 0.000000
vn -0.146185 -0.989257 0.000000
vn -0.834872 0.550445 0.000000
vn -0.834872 0.550445 0.000000
vn -0.994837 -0.101482 0.000000
vn -0.994837 -0.101482 0.000000
vn 0.141247 -0.989974 0.000000
vn 0.141247 -0.989974 0.000000
vn -0.992470 -0.122491 0.000000
vn -0.992470 -0.122491 0.000000
usemtl assumed_base
f 19//1 1//1 2//1
f 19//2 2//2 3//2
f 19//3 3//3 4//3
f 19//4 4//4 5//4
f 5//5 6//5 7//5
f 7//6 8//6 9//6
f 9//7 10//7 11//7
f 7//8 9//8 11//8
f 5//9 7//9 11//9
f 19//10 5//10 11//10
f 19//11 11//11 12//11
f 13//12 14//12 15//12
f 13//13 15//13 16//13
f 13//14 16//14 17//14
f 12//15 13//15 17//15
f 12//16 17//16 18//16
f 12//17 18//17 19//17
usemtl assumed_roof
f 38//18 21//18 20//18
f 38//19 22//19 21//19
f 38//20 23//20 22//20
f 38//21 24//21 23//21
f 24//22 26//22 25//22
f 26//23 28//23 27//23
f 28//24 30//24 29//24
f 26//25 30//25 28//25
f 24//26 30//26 26//26
f 38//27 30//27 24//27
f 38//28 31//28 30//28
f 32//29 34//29 33//29
f 32//30 35//30 34//30
f 32//31 36//31 35//31
f 31//32 36//32 32//32
f 31//33 37//33 36//33
f 31//34 38//34 37//34
usemtl assumed_wall
f 1//35 21//35 2//35
f 1//36 20//36 21//36
f 2//37 22//37 3//37
f 2//38 21//38 22//38
f 3//39 23//39 4//39
f 3//40 22//40 23//40
f 4//41 24//41 5//41
f 4//42 23//42 24//42
f 5//43 25//43 6//43
f 5//44 24//44 25//44
f 6//45 26//45 7//45
f 6//46 25//46 26//46
f 7//47 27//47 8//47
f 7//48 26//48 27//48
f 8//49 28//49 9//49
f 8//50 27//50 28//50
f 9//51 29//51 10//51
f 9//52 28//52 29//52
f 10//53 30//53 11//53
f 10//54 29//54 30//54
f 11//55 31//55 12//55
f 11//56 30//56 31//56
f 12//57 32//57 13//57
f 12//58 31//58 32//58
f 13//59 33//59 14//59
f 13//60 32//60 33//60
f 14//61 34//61 15//61
f 14//62 33//62 34//62
f 15//63 35//63 16//63
f 15//64 34//64 35//64
f 16//65 36//65 17//65
f 16//66 35//66 36//66
f 17//67 37//67 18//67
f 17//68 36//68 37//68
f 18//69 38//69 19//69
f 18//70 37//70 38//70
f 19//71 20//71 1//71
f 19//72 38//72 20//72
