# construction_5651_assumed_A_Casa
# source A_Casa
# h_campo 0.000000
# modeled_height 6.000000
# height_kind assumed
# local_origin_world_x 172001.034850
# local_origin_world_y 402500.144600
mtllib construction_artifacts.mtl

o construction_5651_assumed_A_Casa
v -38.276500 28.924000 0.000000
v -2.402500 40.309000 0.000000
v 1.192500 29.054000 0.000000
v 6.610500 33.474000 0.000000
v 9.156500 30.919000 0.000000
v 14.746500 36.711000 0.000000
v 38.039500 -3.552000 0.000000
v 33.483500 -7.651000 0.000000
v 38.276500 -13.291000 0.000000
v 32.946500 -17.531000 0.000000
v 34.057500 -18.894000 0.000000
v 11.601500 -40.309000 0.000000
v -4.709500 -23.041000 0.000000
v -14.771500 -6.405000 0.000000
v -13.999500 -2.501000 0.000000
v -4.783500 6.574000 0.000000
v -20.465500 22.194000 0.000000
v -27.850500 19.367000 0.000000
v -19.241500 2.934000 0.000000
v -23.181500 0.896000 0.000000
v -38.276500 28.924000 6.000000
v -2.402500 40.309000 6.000000
v 1.192500 29.054000 6.000000
v 6.610500 33.474000 6.000000
v 9.156500 30.919000 6.000000
v 14.746500 36.711000 6.000000
v 38.039500 -3.552000 6.000000
v 33.483500 -7.651000 6.000000
v 38.276500 -13.291000 6.000000
v 32.946500 -17.531000 6.000000
v 34.057500 -18.894000 6.000000
v 11.601500 -40.309000 6.000000
v -4.709500 -23.041000 6.000000
v -14.771500 -6.405000 6.000000
v -13.999500 -2.501000 6.000000
v -4.783500 6.574000 6.000000
v -20.465500 22.194000 6.000000
v -27.850500 19.367000 6.000000
v -19.241500 2.934000 6.000000
v -23.181500 0.896000 6.000000
vn 0.000000 0.000000 -1.000000
vn 0.000000 0.000000 -1.000000
vn 0.000000 0.000000 -1.000000
vn 0.000000 0.000000 -1.000000
vn 0.000000 0.000000 -1.000000
vn 0.000000 0.000000 -1.000000
vn 0.000000 0.000000 -1.000000
vn 0.000000 -0.000000 -1.000000
vn 0.000000 0.000000 -1.000000
vn 0.000000 -0.000000 -1.000000
vn 0.000000 0.000000 -1.000000
vn 0.000000 0.000000 -1.000000
vn 0.000000 0.000000 -1.000000
vn 0.000000 0.000000 -1.000000
vn 0.000000 0.000000 -1.000000
vn 0.000000 0.000000 -1.000000
vn 0.000000 0.000000 -1.000000
vn 0.000000 0.000000 -1.000000
vn 0.000000 0.000000 1.000000
vn 0.000000 0.000000 1.000000
vn -0.000000 0.000000 1.000000
vn -0.000000 0.000000 1.000000
vn 0.000000 0.000000 1.000000
vn 0.000000 0.000000 1.000000
vn 0.000000 0.000000 1.000000
vn 0.000000 0.000000 1.000000
vn 0.000000 0.000000 1.000000
vn 0.000000 0.000000 1.000000
vn 0.000000 0.000000 1.000000
vn 0.000000 0.000000 1.000000
vn 0.000000 0.000000 1.000000
vn 0.000000 0.000000 1.000000
vn -0.000000 0.000000 1.000000
vn 0.000000 0.000000 1.000000
vn 0.000000 0.000000 1.000000
vn 0.000000 0.000000 1.000000
vn -0.302493 0.953152 0.000000
vn -0.302493 0.953152 0.000000
vn 0.952586 0.304269 0.000000
vn 0.952586 0.304269 -0.000000
vn -0.632131 0.774861 0.000000
vn -0.632131 0.774861 0.000000
vn 0.708353 0.705858 0.000000
vn 0.708353 0.705858 -0.000000
vn -0.719543 0.694448 0.000000
vn -0.719543 0.694448 0.000000
vn 0.865586 0.500760 0.000000
vn 0.865586 0.500760 -0.000000
vn 0.668839 -0.743408 0.000000
vn 0.668839 -0.743408 0.000000
vn 0.762006 0.647570 0.000000
vn 0.762006 0.647570 -0.000000
vn 0.622544 -0.782585 0.000000
vn 0.622544 -0.782585 0.000000
vn 0.775122 0.631812 0.000000
vn 0.775122 0.631812 -0.000000
vn 0.690134 -0.723682 0.000000
vn 0.690134 -0.723682 0.000000
vn -0.726964 -0.686675 0.000000
vn -0.726964 -0.686675 0.000000
vn -0.855663 -0.517533 0.000000
vn -0.855663 -0.517533 0.000000
vn -0.981004 0.193989 0.000000
vn -0.981004 0.193989 0.000000
vn -0.701635 0.712536 0.000000
vn -0.701635 0.712536 0.000000
vn -0.705705 -0.708506 0.000000
vn -0.705705 -0.708506 0.000000
vn 0.357504 -0.933912 0.000000
vn 0.357504 -0.933912 0.000000
vn 0.885804 0.464059 0.000000
vn 0.885804 0.464059 -0.000000
vn 0.459435 -0.888211 0.000000
vn 0.459435 -0.888211 0.000000
vn -0.880432 -0.474173 0.000000
vn -0.880432 -0.474173 0.000000
usemtl assumed_base
f 1//1 2//1 3//1
f 3//2 4//2 5//2
f 5//3 6//3 7//3
f 3//4 5//4 7//4
f 3//5 7//5 8//5
f 3//6 8//6 9//6
f 3//7 9//7 10//7
f 10//8 11//8 12//8
f 3//9 10//9 12//9
f 3//10 12//10 13//10
f 13//11 14//11 15//11
f 13//12 15//12 16//12
f 3//13 13//13 16//13
f 3//14 16//14 17//14
f 1//15 3//15 17//15
f 1//16 17//16 18//16
f 20//17 1//17 18//17
f 18//18 19//18 20//18
usemtl assumed_roof
f 21//19 23//19 22//19
f 23//20 25//20 24//20
f 25//21 27//21 26//21
f 23//22 27//22 25//22
f 23//23 28//23 27//23
f 23//24 29//24 28//24
f 23//25 30//25 29//25
f 30//26 32//26 31//26
f 23//27 32//27 30//27
f 23//28 33//28 32//28
f 33//29 35//29 34//29
f 33//30 36//30 35//30
f 23//31 36//31 33//31
f 23//32 37//32 36//32
f 21//33 37//33 23//33
f 21//34 38//34 37//34
f 40//35 38//35 21//35
f 38//36 40//36 39//36
usemtl assumed_wall
f 1//37 22//37 2//37
f 1//38 21//38 22//38
f 2//39 23//39 3//39
f 2//40 22//40 23//40
f 3//41 24//41 4//41
f 3//42 23//42 24//42
f 4//43 25//43 5//43
f 4//44 24//44 25//44
f 5//45 26//45 6//45
f 5//46 25//46 26//46
f 6//47 27//47 7//47
f 6//48 26//48 27//48
f 7//49 28//49 8//49
f 7//50 27//50 28//50
f 8//51 29//51 9//51
f 8//52 28//52 29//52
f 9//53 30//53 10//53
f 9//54 29//54 30//54
f 10//55 31//55 11//55
f 10//56 30//56 31//56
f 11//57 32//57 12//57
f 11//58 31//58 32//58
f 12//59 33//59 13//59
f 12//60 32//60 33//60
f 13//61 34//61 14//61
f 13//62 33//62 34//62
f 14//63 35//63 15//63
f 14//64 34//64 35//64
f 15//65 36//65 16//65
f 15//66 35//66 36//66
f 16//67 37//67 17//67
f 16//68 36//68 37//68
f 17//69 38//69 18//69
f 17//70 37//70 38//70
f 18//71 39//71 19//71
f 18//72 38//72 39//72
f 19//73 40//73 20//73
f 19//74 39//74 40//74
f 20//75 21//75 1//75
f 20//76 40//76 21//76
