# construction_3114_assumed_A_Casa
# source A_Casa
# h_campo 0.000000
# modeled_height 6.000000
# height_kind assumed
# local_origin_world_x 172001.034850
# local_origin_world_y 402500.144600
mtllib construction_artifacts.mtl

o construction_3114_assumed_A_Casa
v -5.126000 3.241000 0.000000
v -4.718000 5.824000 0.000000
v 5.126000 3.445000 0.000000
v 3.065000 -5.824000 0.000000
v -4.703000 -3.788000 0.000000
v -3.014000 2.443000 0.000000
v -5.126000 3.241000 6.000000
v -4.718000 5.824000 6.000000
v 5.126000 3.445000 6.000000
v 3.065000 -5.824000 6.000000
v -4.703000 -3.788000 6.000000
v -3.014000 2.443000 6.000000
vn 0.000000 0.000000 -1.000000
vn 0.000000 0.000000 -1.000000
vn 0.000000 0.000000 -1.000000
vn 0.000000 0.000000 -1.000000
vn 0.000000 0.000000 1.000000
vn 0.000000 -0.000000 1.000000
vn -0.000000 0.000000 1.000000
vn 0.000000 0.000000 1.000000
vn -0.987754 0.156021 0.000000
vn -0.987754 0.156021 0.000000
vn 0.234908 0.972018 0.000000
vn 0.234908 0.972018 -0.000000
vn 0.976160 -0.217053 0.000000
vn 0.976160 -0.217053 0.000000
vn -0.253537 -0.967326 0.000000
vn -0.253537 -0.967326 0.000000
vn -0.965170 0.261623 0.000000
vn -0.965170 0.261623 0.000000
vn -0.353452 -0.935453 0.000000
vn -0.353452 -0.935453 0.000000
usemtl assumed_base
f 6//1 1//1 2//1
f 6//2 2//2 3//2
f 6//3 3//3 4//3
f 4//4 5//4 6//4
usemtl assumed_roof
f 12//5 8//5 7//5
f 12//6 9//6 8//6
f 12//7 10//7 9//7
f 10//8 12//8 11//8
usemtl assumed_wall
f 1//9 8//9 2//9
f 1//10 7//10 8//10
f 2//11 9//11 3//11
f 2//12 8//12 9//12
f 3//13 10//13 4//13
f 3//14 9//14 10//14
f 4//15 11//15 5//15
f 4//16 10//16 11//16
f 5//17 12//17 6//17
f 5//18 11//18 12//18
f 6//19 7//19 1//19
f 6//20 12//20 7//20
