# construction_4652_assumed_A_Casa
# source A_Casa
# h_campo 0.000000
# modeled_height 6.000000
# height_kind assumed
# local_origin_world_x 172001.034850
# local_origin_world_y 402500.144600
mtllib construction_artifacts.mtl

o construction_4652_assumed_A_Casa
v -11.824000 0.040500 0.000000
v -10.405000 0.073500 0.000000
v -10.592000 1.337500 0.000000
v 11.159000 4.905500 0.000000
v 11.824000 -0.517500 0.000000
v 10.774000 -2.024500 0.000000
v -9.530000 -4.905500 0.000000
v -10.074000 -4.007500 0.000000
v -10.382000 -2.329500 0.000000
v -11.549000 -2.417500 0.000000
v -11.824000 0.040500 6.000000
v -10.405000 0.073500 6.000000
v -10.592000 1.337500 6.000000
v 11.159000 4.905500 6.000000
v 11.824000 -0.517500 6.000000
v 10.774000 -2.024500 6.000000
v -9.530000 -4.905500 6.000000
v -10.074000 -4.007500 6.000000
v -10.382000 -2.329500 6.000000
v -11.549000 -2.417500 6.000000
vn 0.000000 0.000000 -1.000000
vn 0.000000 0.000000 -1.000000
vn 0.000000 0.000000 -1.000000
vn 0.000000 0.000000 -1.000000
vn 0.000000 0.000000 -1.000000
vn 0.000000 0.000000 -1.000000
vn 0.000000 0.000000 -1.000000
vn 0.000000 0.000000 -1.000000
vn 0.000000 -0.000000 1.000000
vn 0.000000 -0.000000 1.000000
vn 0.000000 0.000000 1.000000
vn 0.000000 0.000000 1.000000
vn 0.000000 0.000000 1.000000
vn 0.000000 0.000000 1.000000
vn 0.000000 0.000000 1.000000
vn 0.000000 0.000000 1.000000
vn -0.023250 0.999730 0.000000
vn -0.023250 0.999730 0.000000
vn -0.989233 -0.146350 0.000000
vn -0.989233 -0.146350 0.000000
vn -0.161875 0.986811 0.000000
vn -0.161875 0.986811 0.000000
vn 0.992565 0.121714 0.000000
vn 0.992565 0.121714 -0.000000
vn 0.820483 -0.571671 0.000000
vn 0.820483 -0.571671 0.000000
vn 0.140486 -0.990083 0.000000
vn 0.140486 -0.990083 0.000000
vn -0.855300 -0.518133 0.000000
vn -0.855300 -0.518133 0.000000
vn -0.983568 -0.180536 0.000000
vn -0.983568 -0.180536 0.000000
vn 0.075194 -0.997169 0.000000
vn 0.075194 -0.997169 0.000000
vn -0.993800 -0.111186 0.000000
vn -0.993800 -0.111186 0.000000
usemtl assumed_base
f 10//1 1//1 2//1
f 2//2 3//2 4//2
f 10//3 2//3 4//3
f 10//4 4//4 5//4
f 5//5 6//5 7//5
f 5//6 7//6 8//6
f 5//7 8//7 9//7
f 5//8 9//8 10//8
usemtl assumed_roof
f 20//9 12//9 11//9
f 12//10 14//10 13//10
f 20//11 14//11 12//11
f 20//12 15//12 14//12
f 15//13 17//13 16//13
f 15//14 18//14 17//14
f 15//15 19//15 18//15
f 15//16 20//16 19//16
usemtl assumed_wall
f 1//17 12//17 2//17
f 1//18 11//18 12//18
f 2//19 13//19 3//19
f 2//20 12//20 13//20
f 3//21 14//21 4//21
f 3//22 13//22 14//22
f 4//23 15//23 5//23
f 4//24 14//24 15//24
f 5//25 16//25 6//25
f 5//26 15//26 16//26
f 6//27 17//27 7//27
f 6//28 16//28 17//28
f 7//29 18//29 8//29
f 7//30 17//30 18//30
f 8//31 19//31 9//31
f 8//32 18//32 19//32
f 9//33 20//33 10//33
f 9//34 19//34 20//34
f 10//35 11//35 1//35
f 10//36 20//36 11//36
