# construction_0407_assumed_A_Casa
# source A_Casa
# h_campo 0.000000
# modeled_height 6.000000
# height_kind assumed
# local_origin_world_x 172001.034850
# local_origin_world_y 402500.144600
mtllib construction_artifacts.mtl

o construction_0407_assumed_A_Casa
v -19.822000 -20.764500 0.000000
v -18.939000 -18.721500 0.000000
v -16.378000 -19.144500 0.000000
v -14.331000 -14.811500 0.000000
v -16.038000 -14.390500 0.000000
v -14.771000 -11.437500 0.000000
v -9.449000 -14.094500 0.000000
v -8.375000 -11.838500 0.000000
v -4.412000 -13.625500 0.000000
v -1.130000 -6.092500 0.000000
v 2.969000 -7.441500 0.000000
v 4.942000 -1.691500 0.000000
v 7.167000 -1.675500 0.000000
v 8.312000 1.446500 0.000000
v -3.868000 7.484500 0.000000
v -3.092000 11.383500 0.000000
v 4.151000 24.447500 0.000000
v 12.031000 20.625500 0.000000
v 11.891000 18.804500 0.000000
v 19.822000 16.544500 0.000000
v 15.359000 5.214500 0.000000
v 6.177000 -17.904500 0.000000
v 4.988000 -20.813500 0.000000
v -2.557000 -17.733500 0.000000
v -1.696000 -15.274500 0.000000
v -4.290000 -14.412500 0.000000
v -9.378000 -24.447500 0.000000
v -19.822000 -20.764500 6.000000
v -18.939000 -18.721500 6.000000
v -16.378000 -19.144500 6.000000
v -14.331000 -14.811500 6.000000
v -16.038000 -14.390500 6.000000
v -14.771000 -11.437500 6.000000
v -9.449000 -14.094500 6.000000
v -8.375000 -11.838500 6.000000
v -4.412000 -13.625500 6.000000
v -1.130000 -6.092500 6.000000
v 2.969000 -7.441500 6.000000
v 4.942000 -1.691500 6.000000
v 7.167000 -1.675500 6.000000
v 8.312000 1.446500 6.000000
v -3.868000 7.484500 6.000000
v -3.092000 11.383500 6.000000
v 4.151000 24.447500 6.000000
v 12.031000 20.625500 6.000000
v 11.891000 18.804500 6.000000
v 19.822000 16.544500 6.000000
v 15.359000 5.214500 6.000000
v 6.177000 -17.904500 6.000000
v 4.988000 -20.813500 6.000000
v -2.557000 -17.733500 6.000000
v -1.696000 -15.274500 6.000000
v -4.290000 -14.412500 6.000000
v -9.378000 -24.447500 6.000000
vn 0.000000 0.000000 -1.000000
vn 0.000000 0.000000 -1.000000
vn 0.000000 0.000000 -1.000000
vn 0.000000 0.000000 -1.000000
vn 0.000000 0.000000 -1.000000
vn 0.000000 0.000000 -1.000000
vn 0.000000 0.000000 -1.000000
vn 0.000000 0.000000 -1.000000
vn 0.000000 0.000000 -1.000000
vn 0.000000 0.000000 -1.000000
vn 0.000000 0.000000 -1.000000
vn 0.000000 0.000000 -1.000000
vn 0.000000 0.000000 -1.000000
vn 0.000000 0.000000 -1.000000
vn 0.000000 0.000000 -1.000000
vn 0.000000 0.000000 -1.000000
vn 0.000000 0.000000 -1.000000
vn 0.000000 0.000000 -1.000000
vn 0.000000 0.000000 -1.000000
vn 0.000000 0.000000 -1.000000
vn -0.000000 0.000000 -1.000000
vn 0.000000 0.000000 -1.000000
vn 0.000000 0.000000 -1.000000
vn 0.000000 0.000000 -1.000000
vn 0.000000 -0.000000 -1.000000
vn 0.000000 0.000000 1.000000
vn 0.000000 0.000000 1.000000
vn 0.000000 0.000000 1.000000
vn 0.000000 0.000000 1.000000
vn 0.000000 0.000000 1.000000
vn 0.000000 0.000000 1.000000
vn 0.000000 -0.000000 1.000000
vn 0.000000 0.000000 1.000000
vn 0.000000 0.000000 1.000000
vn 0.000000 0.000000 1.000000
vn 0.000000 0.000000 1.000000
vn 0.000000 0.000000 1.000000
vn 0.000000 -0.000000 1.000000
vn 0.000000 0.000000 1.000000
vn 0.000000 0.000000 1.000000
vn 0.000000 0.000000 1.000000
vn 0.000000 0.000000 1.000000
vn 0.000000 0.000000 1.000000
vn -0.000000 0.000000 1.000000
vn -0.000000 0.000000 1.000000
vn 0.000000 0.000000 1.000000
vn 0.000000 0.000000 1.000000
vn 0.000000 0.000000 1.000000
vn 0.000000 0.000000 1.000000
vn 0.000000 0.000000 1.000000
vn -0.917932 0.396737 0.000000
vn -0.917932 0.396737 0.000000
vn 0.162962 0.986632 0.000000
vn 0.162962 0.986632 -0.000000
vn -0.904179 0.427153 0.000000
vn -0.904179 0.427153 0.000000
vn -0.239456 -0.970907 0.000000
vn -0.239456 -0.970907 0.000000
vn -0.918984 0.394295 0.000000
vn -0.918984 0.394295 0.000000
vn 0.446676 0.894696 0.000000
vn 0.446676 0.894696 -0.000000
vn -0.902905 0.429840 0.000000
vn -0.902905 0.429840 0.000000
vn 0.411063 0.911607 0.000000
vn 0.411063 0.911607 -0.000000
vn -0.916768 0.399420 0.000000
vn -0.916768 0.399420 0.000000
vn 0.312610 0.949881 0.000000
vn 0.312610 0.949881 -0.000000
vn -0.945867 0.324556 0.000000
vn -0.945867 0.324556 0.000000
vn -0.007191 0.999974 0.000000
vn -0.007191 0.999974 0.000000
vn -0.938850 0.344325 0.000000
vn -0.938850 0.344325 0.000000
vn -0.444151 -0.895952 0.000000
vn -0.444151 -0.895952 0.000000
vn -0.980764 0.195197 0.000000
vn -0.980764 0.195197 0.000000
vn -0.874577 0.484887 0.000000
vn -0.874577 0.484887 0.000000
vn 0.436402 0.899752 0.000000
vn 0.436402 0.899752 -0.000000
vn 0.997058 -0.076655 0.000000
vn 0.997058 -0.076655 0.000000
vn 0.274048 0.961716 0.000000
vn 0.274048 0.961716 -0.000000
vn 0.930418 -0.366501 0.000000
vn 0.930418 -0.366501 0.000000
vn 0.929383 -0.369116 0.000000
vn 0.929383 -0.369116 0.000000
vn 0.925663 -0.378348 0.000000
vn 0.925663 -0.378348 0.000000
vn -0.377940 -0.925830 0.000000
vn -0.377940 -0.925830 0.000000
vn -0.943816 0.330470 0.000000
vn -0.943816 0.330470 0.000000
vn -0.315350 -0.948976 0.000000
vn -0.315350 -0.948976 0.000000
vn 0.891907 -0.452219 0.000000
vn 0.891907 -0.452219 0.000000
vn -0.332570 -0.943079 0.000000
vn -0.332570 -0.943079 0.000000
usemtl assumed_base
f 27//1 1//1 2//1
f 27//2 2//2 3//2
f 27//3 3//3 4//3
f 4//4 5//4 6//4
f 27//5 4//5 6//5
f 27//6 6//6 7//6
f 27//7 7//7 8//7
f 27//8 8//8 9//8
f 9//9 10//9 11//9
f 11//10 12//10 13//10
f 14//11 15//11 16//11
f 14//12 16//12 17//12
f 14//13 17//13 18//13
f 14//14 18//14 19//14
f 14//15 19//15 20//15
f 13//16 14//16 20//16
f 13//17 20//17 21//17
f 11//18 13//18 21//18
f 11//19 21//19 22//19
f 9//20 11//20 22//20
f 22//21 23//21 24//21
f 22//22 24//22 25//22
f 9//23 22//23 25//23
f 9//24 25//24 26//24
f 9//25 26//25 27//25
usemtl assumed_roof
f 54//26 29//26 28//26
f 54//27 30//27 29//27
f 54//28 31//28 30//28
f 31//29 33//29 32//29
f 54//30 33//30 31//30
f 54//31 34//31 33//31
f 54//32 35//32 34//32
f 54//33 36//33 35//33
f 36//34 38//34 37//34
f 38//35 40//35 39//35
f 41//36 43//36 42//36
f 41//37 44//37 43//37
f 41//38 45//38 44//38
f 41//39 46//39 45//39
f 41//40 47//40 46//40
f 40//41 47//41 41//41
f 40//42 48//42 47//42
f 38//43 48//43 40//43
f 38//44 49//44 48//44
f 36//45 49//45 38//45
f 49//46 51//46 50//46
f 49//47 52//47 51//47
f 36//48 52//48 49//48
f 36//49 53//49 52//49
f 36//50 54//50 53//50
usemtl assumed_wall
f 1//51 29//51 2//51
f 1//52 28//52 29//52
f 2//53 30//53 3//53
f 2//54 29//54 30//54
f 3//55 31//55 4//55
f 3//56 30//56 31//56
f 4//57 32//57 5//57
f 4//58 31//58 32//58
f 5//59 33//59 6//59
f 5//60 32//60 33//60
f 6//61 34//61 7//61
f 6//62 33//62 34//62
f 7//63 35//63 8//63
f 7//64 34//64 35//64
f 8//65 36//65 9//65
f 8//66 35//66 36//66
f 9//67 37//67 10//67
f 9//68 36//68 37//68
f 10//69 38//69 11//69
f 10//70 37//70 38//70
f 11//71 39//71 12//71
f 11//72 38//72 39//72
f 12//73 40//73 13//73
f 12//74 39//74 40//74
f 13//75 41//75 14//75
f 13//76 40//76 41//76
f 14//77 42//77 15//77
f 14//78 41//78 42//78
f 15//79 43//79 16//79
f 15//80 42//80 43//80
f 16//81 44//81 17//81
f 16//82 43//82 44//82
f 17//83 45//83 18//83
f 17//84 44//84 45//84
f 18//85 46//85 19//85
f 18//86 45//86 46//86
f 19//87 47//87 20//87
f 19//88 46//88 47//88
f 20//89 48//89 21//89
f 20//90 47//90 48//90
f 21//91 49//91 22//91
f 21//92 48//92 49//92
f 22//93 50//93 23//93
f 22//94 49//94 50//94
f 23//95 51//95 24//95
f 23//96 50//96 51//96
f 24//97 52//97 25//97
f 24//98 51//98 52//98
f 25//99 53//99 26//99
f 25//100 52//100 53//100
f 26//101 54//101 27//101
f 26//102 53//102 54//102
f 27//103 28//103 1//103
f 27//104 54//104 28//104
