# construction_3893_assumed_A_Casa
# source A_Casa
# h_campo 0.000000
# modeled_height 6.000000
# height_kind assumed
# local_origin_world_x 172001.034850
# local_origin_world_y 402500.144600
mtllib construction_artifacts.mtl

o construction_3893_assumed_A_Casa
v -11.118000 -17.598500 0.000000
v -7.724000 -9.280500 0.000000
v -10.752000 -8.233500 0.000000
v -6.211000 2.997500 0.000000
v -3.287000 1.557500 0.000000
v 1.611000 13.865500 0.000000
v 3.755000 13.420500 0.000000
v 4.213000 14.474500 0.000000
v 5.910000 14.281500 0.000000
v 7.614000 20.665500 0.000000
v 11.118000 20.154500 0.000000
v 3.909000 -12.735500 0.000000
v 0.788000 -10.731500 0.000000
v -2.844000 -20.665500 0.000000
v -11.118000 -17.598500 6.000000
v -7.724000 -9.280500 6.000000
v -10.752000 -8.233500 6.000000
v -6.211000 2.997500 6.000000
v -3.287000 1.557500 6.000000
v 1.611000 13.865500 6.000000
v 3.755000 13.420500 6.000000
v 4.213000 14.474500 6.000000
v 5.910000 14.281500 6.000000
v 7.614000 20.665500 6.000000
v 11.118000 20.154500 6.000000
v 3.909000 -12.735500 6.000000
v 0.788000 -10.731500 6.000000
v -2.844000 -20.665500 6.000000
vn 0.000000 0.000000 -1.000000
vn 0.000000 0.000000 -1.000000
vn 0.000000 0.000000 -1.000000
vn 0.000000 0.000000 -1.000000
vn 0.000000 0.000000 -1.000000
vn 0.000000 0.000000 -1.000000
vn 0.000000 0.000000 -1.000000
vn 0.000000 0.000000 -1.000000
vn 0.000000 0.000000 -1.000000
vn 0.000000 0.000000 -1.000000
vn 0.000000 0.000000 -1.000000
vn 0.000000 0.000000 -1.000000
vn 0.000000 0.000000 1.000000
vn 0.000000 -0.000000 1.000000
vn 0.000000 0.000000 1.000000
vn 0.000000 0.000000 1.000000
vn 0.000000 -0.000000 1.000000
vn 0.000000 0.000000 1.000000
vn 0.000000 0.000000 1.000000
vn 0.000000 0.000000 1.000000
vn 0.000000 0.000000 1.000000
vn 0.000000 0.000000 1.000000
vn 0.000000 0.000000 1.000000
vn 0.000000 0.000000 1.000000
vn -0.925891 0.377792 0.000000
vn -0.925891 0.377792 0.000000
vn -0.326789 -0.945097 0.000000
vn -0.326789 -0.945097 0.000000
vn -0.927087 0.374847 0.000000
vn -0.927087 0.374847 0.000000
vn 0.441806 0.897111 0.000000
vn 0.441806 0.897111 -0.000000
vn -0.929131 0.369750 0.000000
vn -0.929131 0.369750 0.000000
vn 0.203225 0.979132 0.000000
vn 0.203225 0.979132 -0.000000
vn -0.917153 0.398535 0.000000
vn -0.917153 0.398535 0.000000
vn 0.113002 0.993595 0.000000
vn 0.113002 0.993595 -0.000000
vn -0.966175 0.257889 0.000000
vn -0.966175 0.257889 0.000000
vn 0.144307 0.989533 0.000000
vn 0.144307 0.989533 -0.000000
vn 0.976811 -0.214103 0.000000
vn 0.976811 -0.214103 0.000000
vn -0.540308 -0.841467 0.000000
vn -0.540308 -0.841467 0.000000
vn 0.939196 -0.343382 0.000000
vn 0.939196 -0.343382 0.000000
vn -0.347569 -0.937654 0.000000
vn -0.347569 -0.937654 0.000000
usemtl assumed_base
f 14//1 1//1 2//1
f 2//2 3//2 4//2
f 14//3 2//3 4//3
f 14//4 4//4 5//4
f 14//5 5//5 6//5
f 14//6 6//6 7//6
f 14//7 7//7 8//7
f 14//8 8//8 9//8
f 14//9 9//9 10//9
f 14//10 10//10 11//10
f 11//11 12//11 13//11
f 11//12 13//12 14//12
usemtl assumed_roof
f 28//13 16//13 15//13
f 16//14 18//14 17//14
f 28//15 18//15 16//15
f 28//16 19//16 18//16
f 28//17 20//17 19//17
f 28//18 21//18 20//18
f 28//19 22//19 21//19
f 28//20 23//20 22//20
f 28//21 24//21 23//21
f 28//22 25//22 24//22
f 25//23 27//23 26//23
f 25//24 28//24 27//24
usemtl assumed_wall
f 1//25 16//25 2//25
f 1//26 15//26 16//26
f 2//27 17//27 3//27
f 2//28 16//28 17//28
f 3//29 18//29 4//29
f 3//30 17//30 18//30
f 4//31 19//31 5//31
f 4//32 18//32 19//32
f 5//33 20//33 6//33
f 5//34 19//34 20//34
f 6//35 21//35 7//35
f 6//36 20//36 21//36
f 7//37 22//37 8//37
f 7//38 21//38 22//38
f 8//39 23//39 9//39
f 8//40 22//40 23//40
f 9//41 24//41 10//41
f 9//42 23//42 24//42
f 10//43 25//43 11//43
f 10//44 24//44 25//44
f 11//45 26//45 12//45
f 11//46 25//46 26//46
f 12//47 27//47 13//47
f 12//48 26//48 27//48
f 13//49 28//49 14//49
f 13//50 27//50 28//50
f 14//51 15//51 1//51
f 14//52 28//52 15//52
