# construction_2396_assumed_A_Casa
# source A_Casa
# h_campo 0.000000
# modeled_height 6.000000
# height_kind assumed
# local_origin_world_x 172001.034850
# local_origin_world_y 402500.144600
mtllib construction_artifacts.mtl

o construction_2396_assumed_A_Casa
v -7.201000 -10.713500 0.000000
v -7.208000 -3.325500 0.000000
v -13.140000 5.069500 0.000000
v -7.567000 6.597500 0.000000
v -7.966000 9.006500 0.000000
v -0.570000 10.713500 0.000000
v 0.833000 5.387500 0.000000
v 2.224000 5.394500 0.000000
v 3.174000 0.870500 0.000000
v -1.552000 0.197500 0.000000
v -2.267000 3.980500 0.000000
v -7.140000 1.575500 0.000000
v -4.212000 -5.798500 0.000000
v 4.369000 -3.096500 0.000000
v 4.373000 -3.869500 0.000000
v 12.061000 -1.805500 0.000000
v 13.140000 -4.319500 0.000000
v -7.201000 -10.713500 6.000000
v -7.208000 -3.325500 6.000000
v -13.140000 5.069500 6.000000
v -7.567000 6.597500 6.000000
v -7.966000 9.006500 6.000000
v -0.570000 10.713500 6.000000
v 0.833000 5.387500 6.000000
v 2.224000 5.394500 6.000000
v 3.174000 0.870500 6.000000
v -1.552000 0.197500 6.000000
v -2.267000 3.980500 6.000000
v -7.140000 1.575500 6.000000
v -4.212000 -5.798500 6.000000
v 4.369000 -3.096500 6.000000
v 4.373000 -3.869500 6.000000
v 12.061000 -1.805500 6.000000
v 13.140000 -4.319500 6.000000
vn 0.000000 0.000000 -1.000000
vn 0.000000 0.000000 -1.000000
vn 0.000000 0.000000 -1.000000
vn 0.000000 0.000000 -1.000000
vn 0.000000 -0.000000 -1.000000
vn 0.000000 0.000000 -1.000000
vn 0.000000 0.000000 -1.000000
vn 0.000000 0.000000 -1.000000
vn 0.000000 0.000000 -1.000000
vn 0.000000 0.000000 -1.000000
vn 0.000000 0.000000 -1.000000
vn 0.000000 0.000000 -1.000000
vn 0.000000 0.000000 -1.000000
vn -0.000000 0.000000 -1.000000
vn 0.000000 0.000000 -1.000000
vn 0.000000 0.000000 1.000000
vn 0.000000 -0.000000 1.000000
vn -0.000000 0.000000 1.000000
vn -0.000000 0.000000 1.000000
vn 0.000000 0.000000 1.000000
vn 0.000000 0.000000 1.000000
vn 0.000000 0.000000 1.000000
vn 0.000000 0.000000 1.000000
vn 0.000000 -0.000000 1.000000
vn 0.000000 -0.000000 1.000000
vn 0.000000 0.000000 1.000000
vn 0.000000 0.000000 1.000000
vn 0.000000 0.000000 1.000000
vn 0.000000 0.000000 1.000000
vn -0.000000 0.000000 1.000000
vn -1.000000 -0.000947 0.000000
vn -1.000000 -0.000947 0.000000
vn -0.816687 -0.577080 0.000000
vn -0.816687 -0.577080 0.000000
vn -0.264420 0.964408 0.000000
vn -0.264420 0.964408 0.000000
vn -0.986559 -0.163403 0.000000
vn -0.986559 -0.163403 0.000000
vn -0.224888 0.974385 0.000000
vn -0.224888 0.974385 0.000000
vn 0.967011 0.254735 0.000000
vn 0.967011 0.254735 -0.000000
vn -0.005032 0.999987 0.000000
vn -0.005032 0.999987 0.000000
vn 0.978655 0.205509 0.000000
vn 0.978655 0.205509 -0.000000
vn 0.140981 -0.990012 0.000000
vn 0.140981 -0.990012 0.000000
vn -0.982604 -0.185715 0.000000
vn -0.982604 -0.185715 0.000000
vn 0.442570 -0.896734 0.000000
vn 0.442570 -0.896734 0.000000
vn 0.929412 0.369043 0.000000
vn 0.929412 0.369043 -0.000000
vn -0.300344 0.953831 0.000000
vn -0.300344 0.953831 0.000000
vn 0.999987 0.005175 0.000000
vn 0.999987 0.005175 -0.000000
vn -0.259289 0.965800 0.000000
vn -0.259289 0.965800 0.000000
vn 0.918937 0.394405 0.000000
vn 0.918937 0.394405 -0.000000
vn 0.299874 -0.953979 0.000000
vn 0.299874 -0.953979 0.000000
usemtl assumed_base
f 2//1 3//1 4//1
f 4//2 5//2 6//2
f 4//3 6//3 7//3
f 7//4 8//4 9//4
f 7//5 9//5 10//5
f 7//6 10//6 11//6
f 4//7 7//7 11//7
f 4//8 11//8 12//8
f 2//9 4//9 12//9
f 1//10 2//10 12//10
f 1//11 12//11 13//11
f 17//12 1//12 13//12
f 13//13 14//13 15//13
f 17//14 13//14 15//14
f 15//15 16//15 17//15
usemtl assumed_roof
f 19//16 21//16 20//16
f 21//17 23//17 22//17
f 21//18 24//18 23//18
f 24//19 26//19 25//19
f 24//20 27//20 26//20
f 24//21 28//21 27//21
f 21//22 28//22 24//22
f 21//23 29//23 28//23
f 19//24 29//24 21//24
f 18//25 29//25 19//25
f 18//26 30//26 29//26
f 34//27 30//27 18//27
f 30//28 32//28 31//28
f 34//29 32//29 30//29
f 32//30 34//30 33//30
usemtl assumed_wall
f 1//31 19//31 2//31
f 1//32 18//32 19//32
f 2//33 20//33 3//33
f 2//34 19//34 20//34
f 3//35 21//35 4//35
f 3//36 20//36 21//36
f 4//37 22//37 5//37
f 4//38 21//38 22//38
f 5//39 23//39 6//39
f 5//40 22//40 23//40
f 6//41 24//41 7//41
f 6//42 23//42 24//42
f 7//43 25//43 8//43
f 7//44 24//44 25//44
f 8//45 26//45 9//45
f 8//46 25//46 26//46
f 9//47 27//47 10//47
f 9//48 26//48 27//48
f 10//49 28//49 11//49
f 10//50 27//50 28//50
f 11//51 29//51 12//51
f 11//52 28//52 29//52
f 12//53 30//53 13//53
f 12//54 29//54 30//54
f 13//55 31//55 14//55
f 13//56 30//56 31//56
f 14//57 32//57 15//57
f 14//58 31//58 32//58
f 15//59 33//59 16//59
f 15//60 32//60 33//60
f 16//61 34//61 17//61
f 16//62 33//62 34//62
f 17//63 18//63 1//63
f 17//64 34//64 18//64
