# construction_5116_assumed_A_Casa
# source A_Casa
# h_campo 0.000000
# modeled_height 6.000000
# height_kind assumed
# local_origin_world_x 172001.034850
# local_origin_world_y 402500.144600
mtllib construction_artifacts.mtl

o construction_5116_assumed_A_Casa
v -28.678500 -12.135000 0.000000
v -22.261500 -2.377000 0.000000
v -20.750500 -2.886000 0.000000
v -19.868500 -1.172000 0.000000
v -21.936500 0.654000 0.000000
v -17.936500 6.806000 0.000000
v -4.274500 -0.783000 0.000000
v -9.692500 -10.134000 0.000000
v -6.245500 -12.672000 0.000000
v 0.945500 -5.110000 0.000000
v -2.859500 -2.882000 0.000000
v -2.364500 -1.170000 0.000000
v -4.659500 0.856000 0.000000
v -2.842500 4.177000 0.000000
v 1.236500 2.899000 0.000000
v 3.158500 6.474000 0.000000
v 0.234500 8.775000 0.000000
v -2.439500 9.517000 0.000000
v -4.807500 4.791000 0.000000
v -11.185500 8.695000 0.000000
v -9.680500 12.802000 0.000000
v -12.597500 13.995000 0.000000
v -9.686500 21.194000 0.000000
v -8.552500 21.322000 0.000000
v -7.859500 23.261000 0.000000
v -6.977500 23.080000 0.000000
v -6.195500 23.833000 0.000000
v 15.489500 13.806000 0.000000
v 14.759500 11.359000 0.000000
v 9.604500 6.293000 0.000000
v 12.497500 2.924000 0.000000
v 20.407500 10.757000 0.000000
v 22.799500 8.293000 0.000000
v 24.215500 9.970000 0.000000
v 29.055500 4.788000 0.000000
v 22.807500 -0.433000 0.000000
v 23.807500 -2.254000 0.000000
v 17.436500 -8.836000 0.000000
v 13.349500 -4.569000 0.000000
v -5.473500 -23.833000 0.000000
v -11.558500 -18.019000 0.000000
v -8.696500 -15.130000 0.000000
v -11.897500 -13.432000 0.000000
v -13.547500 -15.925000 0.000000
v -15.580500 -15.286000 0.000000
v -17.609500 -18.822000 0.000000
v -24.268500 -15.013000 0.000000
v -25.501500 -17.970000 0.000000
v -29.055500 -15.447000 0.000000
v -28.678500 -12.135000 6.000000
v -22.261500 -2.377000 6.000000
v -20.750500 -2.886000 6.000000
v -19.868500 -1.172000 6.000000
v -21.936500 0.654000 6.000000
v -17.936500 6.806000 6.000000
v -4.274500 -0.783000 6.000000
v -9.692500 -10.134000 6.000000
v -6.245500 -12.672000 6.000000
v 0.945500 -5.110000 6.000000
v -2.859500 -2.882000 6.000000
v -2.364500 -1.170000 6.000000
v -4.659500 0.856000 6.000000
v -2.842500 4.177000 6.000000
v 1.236500 2.899000 6.000000
v 3.158500 6.474000 6.000000
v 0.234500 8.775000 6.000000
v -2.439500 9.517000 6.000000
v -4.807500 4.791000 6.000000
v -11.185500 8.695000 6.000000
v -9.680500 12.802000 6.000000
v -12.597500 13.995000 6.000000
v -9.686500 21.194000 6.000000
v -8.552500 21.322000 6.000000
v -7.859500 23.261000 6.000000
v -6.977500 23.080000 6.000000
v -6.195500 23.833000 6.000000
v 15.489500 13.806000 6.000000
v 14.759500 11.359000 6.000000
v 9.604500 6.293000 6.000000
v 12.497500 2.924000 6.000000
v 20.407500 10.757000 6.000000
v 22.799500 8.293000 6.000000
v 24.215500 9.970000 6.000000
v 29.055500 4.788000 6.000000
v 22.807500 -0.433000 6.000000
v 23.807500 -2.254000 6.000000
v 17.436500 -8.836000 6.000000
v 13.349500 -4.569000 6.000000
v -5.473500 -23.833000 6.000000
v -11.558500 -18.019000 6.000000
v -8.696500 -15.130000 6.000000
v -11.897500 -13.432000 6.000000
v -13.547500 -15.925000 6.000000
v -15.580500 -15.286000 6.000000
v -17.609500 -18.822000 6.000000
v -24.268500 -15.013000 6.000000
v -25.501500 -17.970000 6.000000
v -29.055500 -15.447000 6.000000
vn 0.000000 0.000000 -1.000000
vn 0.000000 0.000000 -1.000000
vn 0.000000 0.000000 -1.000000
vn 0.000000 0.000000 -1.000000
vn 0.000000 0.000000 -1.000000
vn 0.000000 0.000000 -1.000000
vn 0.000000 0.000000 -1.000000
vn 0.000000 0.000000 -1.000000
vn 0.000000 0.000000 -1.000000
vn 0.000000 0.000000 -1.000000
vn 0.000000 0.000000 -1.000000
vn 0.000000 0.000000 -1.000000
vn 0.000000 0.000000 -1.000000
vn 0.000000 0.000000 -1.000000
vn -0.000000 0.000000 -1.000000
vn 0.000000 0.000000 -1.000000
vn 0.000000 0.000000 -1.000000
vn 0.000000 0.000000 -1.000000
vn 0.000000 0.000000 -1.000000
vn 0.000000 0.000000 -1.000000
vn 0.000000 0.000000 -1.000000
vn 0.000000 0.000000 -1.000000
vn 0.000000 0.000000 -1.000000
vn 0.000000 0.000000 -1.000000
vn 0.000000 0.000000 -1.000000
vn 0.000000 0.000000 -1.000000
vn 0.000000 0.000000 -1.000000
vn 0.000000 0.000000 -1.000000
vn 0.000000 0.000000 -1.000000
vn 0.000000 0.000000 -1.000000
vn 0.000000 0.000000 -1.000000
vn 0.000000 0.000000 -1.000000
vn 0.000000 0.000000 -1.000000
vn 0.000000 0.000000 -1.000000
vn 0.000000 -0.000000 -1.000000
vn 0.000000 0.000000 -1.000000
vn 0.000000 0.000000 -1.000000
vn 0.000000 0.000000 -1.000000
vn 0.000000 -0.000000 -1.000000
vn 0.000000 0.000000 -1.000000
vn 0.000000 0.000000 -1.000000
vn 0.000000 0.000000 -1.000000
vn 0.000000 0.000000 -1.000000
vn -0.000000 0.000000 -1.000000
vn 0.000000 0.000000 -1.000000
vn 0.000000 0.000000 -1.000000
vn 0.000000 0.000000 -1.000000
vn 0.000000 0.000000 1.000000
vn 0.000000 0.000000 1.000000
vn 0.000000 -0.000000 1.000000
vn 0.000000 0.000000 1.000000
vn 0.000000 0.000000 1.000000
vn 0.000000 0.000000 1.000000
vn 0.000000 0.000000 1.000000
vn 0.000000 0.000000 1.000000
vn 0.000000 0.000000 1.000000
vn 0.000000 0.000000 1.000000
vn 0.000000 0.000000 1.000000
vn 0.000000 -0.000000 1.000000
vn 0.000000 0.000000 1.000000
vn 0.000000 0.000000 1.000000
vn 0.000000 0.000000 1.000000
vn 0.000000 0.000000 1.000000
vn 0.000000 0.000000 1.000000
vn 0.000000 0.000000 1.000000
vn 0.000000 0.000000 1.000000
vn 0.000000 0.000000 1.000000
vn 0.000000 0.000000 1.000000
vn 0.000000 0.000000 1.000000
vn 0.000000 0.000000 1.000000
vn 0.000000 -0.000000 1.000000
vn 0.000000 0.000000 1.000000
vn -0.000000 0.000000 1.000000
vn 0.000000 0.000000 1.000000
vn 0.000000 0.000000 1.000000
vn 0.000000 0.000000 1.000000
vn 0.000000 0.000000 1.000000
vn 0.000000 0.000000 1.000000
vn -0.000000 0.000000 1.000000
vn 0.000000 0.000000 1.000000
vn 0.000000 0.000000 1.000000
vn 0.000000 0.000000 1.000000
vn 0.000000 0.000000 1.000000
vn 0.000000 0.000000 1.000000
vn -0.000000 0.000000 1.000000
vn 0.000000 0.000000 1.000000
vn 0.000000 0.000000 1.000000
vn 0.000000 0.000000 1.000000
vn 0.000000 0.000000 1.000000
vn 0.000000 0.000000 1.000000
vn 0.000000 0.000000 1.000000
vn 0.000000 0.000000 1.000000
vn 0.000000 0.000000 1.000000
vn 0.000000 0.000000 1.000000
vn -0.835525 0.549453 0.000000
vn -0.835525 0.549453 0.000000
vn 0.319237 0.947675 0.000000
vn 0.319237 0.947675 -0.000000
vn -0.889179 0.457559 0.000000
vn -0.889179 0.457559 0.000000
vn -0.661885 -0.749605 0.000000
vn -0.661885 -0.749605 0.000000
vn -0.838369 0.545103 0.000000
vn -0.838369 0.545103 0.000000
vn 0.485594 0.874184 0.000000
vn 0.485594 0.874184 -0.000000
vn 0.865255 -0.501332 0.000000
vn 0.865255 -0.501332 0.000000
vn 0.592912 0.805267 0.000000
vn 0.592912 0.805267 -0.000000
vn -0.724660 0.689107 0.000000
vn -0.724660 0.689107 0.000000
vn -0.505295 -0.862947 0.000000
vn -0.505295 -0.862947 0.000000
vn -0.960651 0.277758 0.000000
vn -0.960651 0.277758 0.000000
vn -0.661805 -0.749676 0.000000
vn -0.661805 -0.749676 0.000000
vn -0.877279 0.479981 0.000000
vn -0.877279 0.479981 0.000000
vn 0.298981 0.954259 0.000000
vn 0.298981 0.954259 -0.000000
vn -0.880779 0.473527 0.000000
vn -0.880779 0.473527 0.000000
vn -0.618415 -0.785852 0.000000
vn -0.618415 -0.785852 0.000000
vn -0.267384 -0.963590 0.000000
vn -0.267384 -0.963590 0.000000
vn 0.894049 -0.447970 0.000000
vn 0.894049 -0.447970 0.000000
vn -0.522067 -0.852905 0.000000
vn -0.522067 -0.852905 0.000000
vn -0.938943 0.344073 0.000000
vn -0.938943 0.344073 0.000000
vn -0.378546 -0.925582 0.000000
vn -0.378546 -0.925582 0.000000
vn -0.927076 0.374874 0.000000
vn -0.927076 0.374874 0.000000
vn -0.112163 0.993690 0.000000
vn -0.112163 0.993690 0.000000
vn -0.941665 0.336552 0.000000
vn -0.941665 0.336552 0.000000
vn 0.201026 0.979586 0.000000
vn 0.201026 0.979586 -0.000000
vn -0.693624 0.720337 0.000000
vn -0.693624 0.720337 0.000000
vn 0.419698 0.907664 0.000000
vn 0.419698 0.907664 -0.000000
vn 0.958267 -0.285875 0.000000
vn 0.958267 -0.285875 0.000000
vn 0.700923 -0.713237 0.000000
vn 0.700923 -0.713237 0.000000
vn 0.758668 0.651477 0.000000
vn 0.758668 0.651477 -0.000000
vn -0.703640 0.710557 0.000000
vn -0.703640 0.710557 0.000000
vn 0.717512 0.696546 0.000000
vn 0.717512 0.696546 -0.000000
vn -0.764060 0.645145 0.000000
vn -0.764060 0.645145 0.000000
vn 0.730811 0.682579 0.000000
vn 0.730811 0.682579 -0.000000
vn 0.641223 -0.767355 0.000000
vn 0.641223 -0.767355 0.000000
vn 0.876531 0.481346 0.000000
vn 0.876531 0.481346 -0.000000
vn 0.718530 -0.695496 0.000000
vn 0.718530 -0.695496 0.000000
vn -0.722175 -0.691711 0.000000
vn -0.722175 -0.691711 0.000000
vn 0.715246 -0.698873 0.000000
vn 0.715246 -0.698873 0.000000
vn -0.690823 -0.723024 0.000000
vn -0.690823 -0.723024 0.000000
vn -0.710419 0.703779 0.000000
vn -0.710419 0.703779 0.000000
vn -0.468610 -0.883405 0.000000
vn -0.468610 -0.883405 0.000000
vn 0.833898 -0.551918 0.000000
vn 0.833898 -0.551918 0.000000
vn -0.299851 -0.953986 0.000000
vn -0.299851 -0.953986 0.000000
vn 0.867351 -0.497697 0.000000
vn 0.867351 -0.497697 0.000000
vn -0.496518 -0.868026 0.000000
vn -0.496518 -0.868026 0.000000
vn 0.922975 -0.384859 0.000000
vn 0.922975 -0.384859 0.000000
vn -0.578870 -0.815420 0.000000
vn -0.578870 -0.815420 0.000000
vn -0.993584 0.113098 0.000000
vn -0.993584 0.113098 0.000000
usemtl assumed_base
f 49//1 1//1 2//1
f 49//2 2//2 3//2
f 4//3 5//3 6//3
f 4//4 6//4 7//4
f 3//5 4//5 7//5
f 49//6 3//6 7//6
f 49//7 7//7 8//7
f 49//8 8//8 9//8
f 10//9 11//9 12//9
f 12//10 13//10 14//10
f 10//11 12//11 14//11
f 10//12 14//12 15//12
f 10//13 15//13 16//13
f 18//14 19//14 20//14
f 18//15 20//15 21//15
f 17//16 18//16 21//16
f 17//17 21//17 22//17
f 17//18 22//18 23//18
f 16//19 17//19 23//19
f 16//20 23//20 24//20
f 16//21 24//21 25//21
f 16//22 25//22 26//22
f 16//23 26//23 27//23
f 16//24 27//24 28//24
f 16//25 28//25 29//25
f 16//26 29//26 30//26
f 10//27 16//27 30//27
f 10//28 30//28 31//28
f 9//29 10//29 31//29
f 31//30 32//30 33//30
f 9//31 31//31 33//31
f 33//32 34//32 35//32
f 9//33 33//33 35//33
f 9//34 35//34 36//34
f 36//35 37//35 38//35
f 36//36 38//36 39//36
f 9//37 36//37 39//37
f 9//38 39//38 40//38
f 9//39 40//39 41//39
f 9//40 41//40 42//40
f 9//41 42//41 43//41
f 49//42 9//42 43//42
f 43//43 44//43 45//43
f 45//44 46//44 47//44
f 43//45 45//45 47//45
f 49//46 43//46 47//46
f 47//47 48//47 49//47
usemtl assumed_roof
f 98//48 51//48 50//48
f 98//49 52//49 51//49
f 53//50 55//50 54//50
f 53//51 56//51 55//51
f 52//52 56//52 53//52
f 98//53 56//53 52//53
f 98//54 57//54 56//54
f 98//55 58//55 57//55
f 59//56 61//56 60//56
f 61//57 63//57 62//57
f 59//58 63//58 61//58
f 59//59 64//59 63//59
f 59//60 65//60 64//60
f 67//61 69//61 68//61
f 67//62 70//62 69//62
f 66//63 70//63 67//63
f 66//64 71//64 70//64
f 66//65 72//65 71//65
f 65//66 72//66 66//66
f 65//67 73//67 72//67
f 65//68 74//68 73//68
f 65//69 75//69 74//69
f 65//70 76//70 75//70
f 65//71 77//71 76//71
f 65//72 78//72 77//72
f 65//73 79//73 78//73
f 59//74 79//74 65//74
f 59//75 80//75 79//75
f 58//76 80//76 59//76
f 80//77 82//77 81//77
f 58//78 82//78 80//78
f 82//79 84//79 83//79
f 58//80 84//80 82//80
f 58//81 85//81 84//81
f 85//82 87//82 86//82
f 85//83 88//83 87//83
f 58//84 88//84 85//84
f 58//85 89//85 88//85
f 58//86 90//86 89//86
f 58//87 91//87 90//87
f 58//88 92//88 91//88
f 98//89 92//89 58//89
f 92//90 94//90 93//90
f 94//91 96//91 95//91
f 92//92 96//92 94//92
f 98//93 96//93 92//93
f 96//94 98//94 97//94
usemtl assumed_wall
f 1//95 51//95 2//95
f 1//96 50//96 51//96
f 2//97 52//97 3//97
f 2//98 51//98 52//98
f 3//99 53//99 4//99
f 3//100 52//100 53//100
f 4//101 54//101 5//101
f 4//102 53//102 54//102
f 5//103 55//103 6//103
f 5//104 54//104 55//104
f 6//105 56//105 7//105
f 6//106 55//106 56//106
f 7//107 57//107 8//107
f 7//108 56//108 57//108
f 8//109 58//109 9//109
f 8//110 57//110 58//110
f 9//111 59//111 10//111
f 9//112 58//112 59//112
f 10//113 60//113 11//113
f 10//114 59//114 60//114
f 11//115 61//115 12//115
f 11//116 60//116 61//116
f 12//117 62//117 13//117
f 12//118 61//118 62//118
f 13//119 63//119 14//119
f 13//120 62//120 63//120
f 14//121 64//121 15//121
f 14//122 63//122 64//122
f 15//123 65//123 16//123
f 15//124 64//124 65//124
f 16//125 66//125 17//125
f 16//126 65//126 66//126
f 17//127 67//127 18//127
f 17//128 66//128 67//128
f 18//129 68//129 19//129
f 18//130 67//130 68//130
f 19//131 69//131 20//131
f 19//132 68//132 69//132
f 20//133 70//133 21//133
f 20//134 69//134 70//134
f 21//135 71//135 22//135
f 21//136 70//136 71//136
f 22//137 72//137 23//137
f 22//138 71//138 72//138
f 23//139 73//139 24//139
f 23//140 72//140 73//140
f 24//141 74//141 25//141
f 24//142 73//142 74//142
f 25//143 75//143 26//143
f 25//144 74//144 75//144
f 26//145 76//145 27//145
f 26//146 75//146 76//146
f 27//147 77//147 28//147
f 27//148 76//148 77//148
f 28//149 78//149 29//149
f 28//150 77//150 78//150
f 29//151 79//151 30//151
f 29//152 78//152 79//152
f 30//153 80//153 31//153
f 30//154 79//154 80//154
f 31//155 81//155 32//155
f 31//156 80//156 81//156
f 32//157 82//157 33//157
f 32//158 81//158 82//158
f 33//159 83//159 34//159
f 33//160 82//160 83//160
f 34//161 84//161 35//161
f 34//162 83//162 84//162
f 35//163 85//163 36//163
f 35//164 84//164 85//164
f 36//165 86//165 37//165
f 36//166 85//166 86//166
f 37//167 87//167 38//167
f 37//168 86//168 87//168
f 38//169 88//169 39//169
f 38//170 87//170 88//170
f 39//171 89//171 40//171
f 39//172 88//172 89//172
f 40//173 90//173 41//173
f 40//174 89//174 90//174
f 41//175 91//175 42//175
f 41//176 90//176 91//176
f 42//177 92//177 43//177
f 42//178 91//178 92//178
f 43//179 93//179 44//179
f 43//180 92//180 93//180
f 44//181 94//181 45//181
f 44//182 93//182 94//182
f 45//183 95//183 46//183
f 45//184 94//184 95//184
f 46//185 96//185 47//185
f 46//186 95//186 96//186
f 47//187 97//187 48//187
f 47//188 96//188 97//188
f 48//189 98//189 49//189
f 48//190 97//190 98//190
f 49//191 50//191 1//191
f 49//192 98//192 50//192
