# construction_1172_assumed_A_Casa
# source A_Casa
# h_campo 0.000000
# modeled_height 6.000000
# height_kind assumed
# local_origin_world_x 172001.034850
# local_origin_world_y 402500.144600
mtllib construction_artifacts.mtl

o construction_1172_assumed_A_Casa
v 2.718000 -8.655500 0.000000
v 2.592000 -12.117500 0.000000
v -2.864000 -11.415500 0.000000
v -2.474000 -8.156500 0.000000
v -6.503000 -7.485500 0.000000
v -9.160000 -8.309500 0.000000
v -13.380000 2.205500 0.000000
v -10.345000 3.041500 0.000000
v -10.557000 3.774500 0.000000
v 2.515000 8.896500 0.000000
v 1.288000 -2.155500 0.000000
v 4.396000 -2.255500 0.000000
v 5.246000 9.417500 0.000000
v 13.380000 12.117500 0.000000
v 11.143000 -9.266500 0.000000
v 2.718000 -8.655500 6.000000
v 2.592000 -12.117500 6.000000
v -2.864000 -11.415500 6.000000
v -2.474000 -8.156500 6.000000
v -6.503000 -7.485500 6.000000
v -9.160000 -8.309500 6.000000
v -13.380000 2.205500 6.000000
v -10.345000 3.041500 6.000000
v -10.557000 3.774500 6.000000
v 2.515000 8.896500 6.000000
v 1.288000 -2.155500 6.000000
v 4.396000 -2.255500 6.000000
v 5.246000 9.417500 6.000000
v 13.380000 12.117500 6.000000
v 11.143000 -9.266500 6.000000
vn 0.000000 0.000000 -1.000000
vn -0.000000 0.000000 -1.000000
vn 0.000000 0.000000 -1.000000
vn 0.000000 0.000000 -1.000000
vn -0.000000 0.000000 -1.000000
vn 0.000000 0.000000 -1.000000
vn 0.000000 0.000000 -1.000000
vn 0.000000 0.000000 -1.000000
vn 0.000000 0.000000 -1.000000
vn 0.000000 0.000000 -1.000000
vn 0.000000 0.000000 -1.000000
vn 0.000000 0.000000 -1.000000
vn 0.000000 0.000000 -1.000000
vn 0.000000 0.000000 1.000000
vn 0.000000 0.000000 1.000000
vn 0.000000 0.000000 1.000000
vn 0.000000 0.000000 1.000000
vn 0.000000 0.000000 1.000000
vn 0.000000 0.000000 1.000000
vn 0.000000 0.000000 1.000000
vn 0.000000 0.000000 1.000000
vn -0.000000 0.000000 1.000000
vn 0.000000 0.000000 1.000000
vn 0.000000 0.000000 1.000000
vn 0.000000 0.000000 1.000000
vn -0.000000 0.000000 1.000000
vn 0.999338 -0.036371 0.000000
vn 0.999338 -0.036371 0.000000
vn -0.127614 -0.991824 0.000000
vn -0.127614 -0.991824 0.000000
vn -0.992916 0.118821 0.000000
vn -0.992916 0.118821 0.000000
vn -0.164280 -0.986414 0.000000
vn -0.164280 -0.986414 0.000000
vn 0.296207 -0.955124 0.000000
vn 0.296207 -0.955124 0.000000
vn -0.928050 -0.372456 0.000000
vn -0.928050 -0.372456 0.000000
vn -0.265563 0.964094 0.000000
vn -0.265563 0.964094 0.000000
vn -0.960629 -0.277835 0.000000
vn -0.960629 -0.277835 0.000000
vn -0.364824 0.931077 0.000000
vn -0.364824 0.931077 0.000000
vn 0.993894 -0.110343 0.000000
vn 0.993894 -0.110343 0.000000
vn 0.032158 0.999483 0.000000
vn 0.032158 0.999483 -0.000000
vn -0.997359 0.072625 0.000000
vn -0.997359 0.072625 0.000000
vn -0.315037 0.949079 0.000000
vn -0.315037 0.949079 0.000000
vn 0.994573 -0.104043 0.000000
vn 0.994573 -0.104043 0.000000
vn -0.072332 -0.997381 0.000000
vn -0.072332 -0.997381 0.000000
usemtl assumed_base
f 1//1 2//1 3//1
f 1//2 3//2 4//2
f 15//3 1//3 4//3
f 15//4 4//4 5//4
f 5//5 6//5 7//5
f 15//6 5//6 7//6
f 15//7 7//7 8//7
f 15//8 8//8 9//8
f 9//9 10//9 11//9
f 15//10 9//10 11//10
f 15//11 11//11 12//11
f 15//12 12//12 13//12
f 13//13 14//13 15//13
usemtl assumed_roof
f 16//14 18//14 17//14
f 16//15 19//15 18//15
f 30//16 19//16 16//16
f 30//17 20//17 19//17
f 20//18 22//18 21//18
f 30//19 22//19 20//19
f 30//20 23//20 22//20
f 30//21 24//21 23//21
f 24//22 26//22 25//22
f 30//23 26//23 24//23
f 30//24 27//24 26//24
f 30//25 28//25 27//25
f 28//26 30//26 29//26
usemtl assumed_wall
f 1//27 17//27 2//27
f 1//28 16//28 17//28
f 2//29 18//29 3//29
f 2//30 17//30 18//30
f 3//31 19//31 4//31
f 3//32 18//32 19//32
f 4//33 20//33 5//33
f 4//34 19//34 20//34
f 5//35 21//35 6//35
f 5//36 20//36 21//36
f 6//37 22//37 7//37
f 6//38 21//38 22//38
f 7//39 23//39 8//39
f 7//40 22//40 23//40
f 8//41 24//41 9//41
f 8//42 23//42 24//42
f 9//43 25//43 10//43
f 9//44 24//44 25//44
f 10//45 26//45 11//45
f 10//46 25//46 26//46
f 11//47 27//47 12//47
f 11//48 26//48 27//48
f 12//49 28//49 13//49
f 12//50 27//50 28//50
f 13//51 29//51 14//51
f 13//52 28//52 29//52
f 14//53 30//53 15//53
f 14//54 29//54 30//54
f 15//55 16//55 1//55
f 15//56 30//56 16//56
