# construction_7088_assumed_A_Casa
# source A_Casa
# h_campo 0.000000
# modeled_height 6.000000
# height_kind assumed
# local_origin_world_x 172001.034850
# local_origin_world_y 402500.144600
mtllib construction_artifacts.mtl

o construction_7088_assumed_A_Casa
v 4.558500 24.489000 0.000000
v 16.845500 26.217000 0.000000
v 20.889500 27.209000 0.000000
v 21.754500 20.904000 0.000000
v 17.834500 18.311000 0.000000
v 21.079500 -8.072000 0.000000
v 17.320500 -8.405000 0.000000
v 17.284500 -12.823000 0.000000
v 20.889500 -11.597000 0.000000
v 20.908500 -17.061000 0.000000
v 19.104500 -17.067000 0.000000
v 19.632500 -23.659000 0.000000
v 15.181500 -24.163000 0.000000
v 15.305500 -25.934000 0.000000
v 7.535500 -27.209000 0.000000
v 7.388500 -23.819000 0.000000
v -21.089500 -25.588000 0.000000
v -21.754500 -13.481000 0.000000
v 1.612500 -11.477000 0.000000
v 9.098500 -10.879000 0.000000
v 7.978500 -4.203000 0.000000
v 7.270500 -4.138000 0.000000
v 6.201500 2.620000 0.000000
v 7.211500 3.079000 0.000000
v 5.809500 13.581000 0.000000
v 4.443500 13.576000 0.000000
v 3.982500 20.050000 0.000000
v 4.907500 20.947000 0.000000
v 4.558500 24.489000 6.000000
v 16.845500 26.217000 6.000000
v 20.889500 27.209000 6.000000
v 21.754500 20.904000 6.000000
v 17.834500 18.311000 6.000000
v 21.079500 -8.072000 6.000000
v 17.320500 -8.405000 6.000000
v 17.284500 -12.823000 6.000000
v 20.889500 -11.597000 6.000000
v 20.908500 -17.061000 6.000000
v 19.104500 -17.067000 6.000000
v 19.632500 -23.659000 6.000000
v 15.181500 -24.163000 6.000000
v 15.305500 -25.934000 6.000000
v 7.535500 -27.209000 6.000000
v 7.388500 -23.819000 6.000000
v -21.089500 -25.588000 6.000000
v -21.754500 -13.481000 6.000000
v 1.612500 -11.477000 6.000000
v 9.098500 -10.879000 6.000000
v 7.978500 -4.203000 6.000000
v 7.270500 -4.138000 6.000000
v 6.201500 2.620000 6.000000
v 7.211500 3.079000 6.000000
v 5.809500 13.581000 6.000000
v 4.443500 13.576000 6.000000
v 3.982500 20.050000 6.000000
v 4.907500 20.947000 6.000000
vn 0.000000 0.000000 -1.000000
vn 0.000000 0.000000 -1.000000
vn 0.000000 0.000000 -1.000000
vn 0.000000 0.000000 -1.000000
vn 0.000000 0.000000 -1.000000
vn 0.000000 0.000000 -1.000000
vn 0.000000 0.000000 -1.000000
vn 0.000000 0.000000 -1.000000
vn 0.000000 0.000000 -1.000000
vn 0.000000 0.000000 -1.000000
vn 0.000000 0.000000 -1.000000
vn 0.000000 0.000000 -1.000000
vn 0.000000 0.000000 -1.000000
vn -0.000000 0.000000 -1.000000
vn -0.000000 0.000000 -1.000000
vn 0.000000 0.000000 -1.000000
vn 0.000000 0.000000 -1.000000
vn 0.000000 0.000000 -1.000000
vn 0.000000 0.000000 -1.000000
vn 0.000000 0.000000 -1.000000
vn 0.000000 0.000000 -1.000000
vn 0.000000 0.000000 -1.000000
vn 0.000000 0.000000 -1.000000
vn 0.000000 0.000000 -1.000000
vn 0.000000 -0.000000 -1.000000
vn 0.000000 0.000000 -1.000000
vn 0.000000 -0.000000 1.000000
vn 0.000000 0.000000 1.000000
vn -0.000000 0.000000 1.000000
vn 0.000000 0.000000 1.000000
vn 0.000000 0.000000 1.000000
vn 0.000000 0.000000 1.000000
vn 0.000000 0.000000 1.000000
vn -0.000000 0.000000 1.000000
vn 0.000000 0.000000 1.000000
vn 0.000000 0.000000 1.000000
vn 0.000000 0.000000 1.000000
vn 0.000000 0.000000 1.000000
vn 0.000000 0.000000 1.000000
vn 0.000000 0.000000 1.000000
vn 0.000000 0.000000 1.000000
vn 0.000000 0.000000 1.000000
vn 0.000000 0.000000 1.000000
vn 0.000000 0.000000 1.000000
vn 0.000000 0.000000 1.000000
vn 0.000000 0.000000 1.000000
vn 0.000000 0.000000 1.000000
vn 0.000000 0.000000 1.000000
vn 0.000000 0.000000 1.000000
vn 0.000000 0.000000 1.000000
vn 0.000000 0.000000 1.000000
vn 0.000000 -0.000000 1.000000
vn -0.139266 0.990255 0.000000
vn -0.139266 0.990255 0.000000
vn -0.238239 0.971207 0.000000
vn -0.238239 0.971207 0.000000
vn 0.990720 0.135920 0.000000
vn 0.990720 0.135920 -0.000000
vn 0.551702 -0.834042 0.000000
vn 0.551702 -0.834042 0.000000
vn 0.992521 0.122076 0.000000
vn 0.992521 0.122076 -0.000000
vn 0.088242 -0.996099 0.000000
vn 0.088242 -0.996099 0.000000
vn 0.999967 -0.008148 0.000000
vn 0.999967 -0.008148 0.000000
vn -0.321973 0.946749 0.000000
vn -0.321973 0.946749 0.000000
vn 0.999994 0.003477 0.000000
vn 0.999994 0.003477 -0.000000
vn 0.003326 -0.999994 0.000000
vn 0.003326 -0.999994 0.000000
vn 0.996808 0.079841 0.000000
vn 0.996808 0.079841 -0.000000
vn 0.112514 -0.993650 0.000000
vn 0.112514 -0.993650 0.000000
vn 0.997558 0.069846 0.000000
vn 0.997558 0.069846 -0.000000
vn 0.161927 -0.986803 0.000000
vn 0.161927 -0.986803 0.000000
vn -0.999061 -0.043322 0.000000
vn -0.999061 -0.043322 0.000000
vn 0.061999 -0.998076 0.000000
vn 0.061999 -0.998076 0.000000
vn -0.998495 -0.054844 0.000000
vn -0.998495 -0.054844 0.000000
vn -0.085448 0.996343 0.000000
vn -0.085448 0.996343 0.000000
vn -0.079629 0.996825 0.000000
vn -0.079629 0.996825 0.000000
vn -0.986218 -0.165453 0.000000
vn -0.986218 -0.165453 0.000000
vn -0.091423 -0.995812 0.000000
vn -0.091423 -0.995812 0.000000
vn -0.987719 -0.156240 0.000000
vn -0.987719 -0.156240 0.000000
vn -0.413735 0.910397 0.000000
vn -0.413735 0.910397 0.000000
vn -0.991206 -0.132324 0.000000
vn -0.991206 -0.132324 0.000000
vn 0.003660 -0.999993 0.000000
vn 0.003660 -0.999993 0.000000
vn -0.997474 -0.071028 0.000000
vn -0.997474 -0.071028 0.000000
vn -0.696158 0.717889 0.000000
vn -0.696158 0.717889 0.000000
vn -0.995181 -0.098057 0.000000
vn -0.995181 -0.098057 0.000000
usemtl assumed_base
f 28//1 1//1 2//1
f 28//2 2//2 3//2
f 28//3 3//3 4//3
f 28//4 4//4 5//4
f 28//5 5//5 6//5
f 28//6 6//6 7//6
f 28//7 7//7 8//7
f 8//8 9//8 10//8
f 8//9 10//9 11//9
f 8//10 11//10 12//10
f 28//11 8//11 12//11
f 28//12 12//12 13//12
f 28//13 13//13 14//13
f 14//14 15//14 16//14
f 16//15 17//15 18//15
f 14//16 16//16 18//16
f 14//17 18//17 19//17
f 14//18 19//18 20//18
f 28//19 14//19 20//19
f 21//20 22//20 23//20
f 21//21 23//21 24//21
f 20//22 21//22 24//22
f 28//23 20//23 24//23
f 28//24 24//24 25//24
f 28//25 25//25 26//25
f 26//26 27//26 28//26
usemtl assumed_roof
f 56//27 30//27 29//27
f 56//28 31//28 30//28
f 56//29 32//29 31//29
f 56//30 33//30 32//30
f 56//31 34//31 33//31
f 56//32 35//32 34//32
f 56//33 36//33 35//33
f 36//34 38//34 37//34
f 36//35 39//35 38//35
f 36//36 40//36 39//36
f 56//37 40//37 36//37
f 56//38 41//38 40//38
f 56//39 42//39 41//39
f 42//40 44//40 43//40
f 44//41 46//41 45//41
f 42//42 46//42 44//42
f 42//43 47//43 46//43
f 42//44 48//44 47//44
f 56//45 48//45 42//45
f 49//46 51//46 50//46
f 49//47 52//47 51//47
f 48//48 52//48 49//48
f 56//49 52//49 48//49
f 56//50 53//50 52//50
f 56//51 54//51 53//51
f 54//52 56//52 55//52
usemtl assumed_wall
f 1//53 30//53 2//53
f 1//54 29//54 30//54
f 2//55 31//55 3//55
f 2//56 30//56 31//56
f 3//57 32//57 4//57
f 3//58 31//58 32//58
f 4//59 33//59 5//59
f 4//60 32//60 33//60
f 5//61 34//61 6//61
f 5//62 33//62 34//62
f 6//63 35//63 7//63
f 6//64 34//64 35//64
f 7//65 36//65 8//65
f 7//66 35//66 36//66
f 8//67 37//67 9//67
f 8//68 36//68 37//68
f 9//69 38//69 10//69
f 9//70 37//70 38//70
f 10//71 39//71 11//71
f 10//72 38//72 39//72
f 11//73 40//73 12//73
f 11//74 39//74 40//74
f 12//75 41//75 13//75
f 12//76 40//76 41//76
f 13//77 42//77 14//77
f 13//78 41//78 42//78
f 14//79 43//79 15//79
f 14//80 42//80 43//80
f 15//81 44//81 16//81
f 15//82 43//82 44//82
f 16//83 45//83 17//83
f 16//84 44//84 45//84
f 17//85 46//85 18//85
f 17//86 45//86 46//86
f 18//87 47//87 19//87
f 18//88 46//88 47//88
f 19//89 48//89 20//89
f 19//90 47//90 48//90
f 20//91 49//91 21//91
f 20//92 48//92 49//92
f 21//93 50//93 22//93
f 21//94 49//94 50//94
f 22//95 51//95 23//95
f 22//96 50//96 51//96
f 23//97 52//97 24//97
f 23//98 51//98 52//98
f 24//99 53//99 25//99
f 24//100 52//100 53//100
f 25//101 54//101 26//101
f 25//102 53//102 54//102
f 26//103 55//103 27//103
f 26//104 54//104 55//104
f 27//105 56//105 28//105
f 27//106 55//106 56//106
f 28//107 29//107 1//107
f 28//108 56//108 29//108
