# construction_1698_assumed_A_Casa
# source A_Casa
# h_campo 0.000000
# modeled_height 6.000000
# height_kind assumed
# local_origin_world_x 172001.034850
# local_origin_world_y 402500.144600
mtllib construction_artifacts.mtl

o construction_1698_assumed_A_Casa
v 4.697500 -1.543500 0.000000
v -2.438500 -6.079500 0.000000
v -7.084500 1.367500 0.000000
v -0.127500 6.079500 0.000000
v 1.018500 4.169500 0.000000
v 4.124500 5.546500 0.000000
v 7.084500 0.690500 0.000000
v 4.273500 -0.727500 0.000000
v 4.697500 -1.543500 6.000000
v -2.438500 -6.079500 6.000000
v -7.084500 1.367500 6.000000
v -0.127500 6.079500 6.000000
v 1.018500 4.169500 6.000000
v 4.124500 5.546500 6.000000
v 7.084500 0.690500 6.000000
v 4.273500 -0.727500 6.000000
vn 0.000000 -0.000000 -1.000000
vn -0.000000 0.000000 -1.000000
vn 0.000000 0.000000 -1.000000
vn 0.000000 0.000000 -1.000000
vn 0.000000 0.000000 -1.000000
vn 0.000000 0.000000 -1.000000
vn 0.000000 0.000000 1.000000
vn 0.000000 0.000000 1.000000
vn 0.000000 0.000000 1.000000
vn 0.000000 0.000000 1.000000
vn 0.000000 0.000000 1.000000
vn 0.000000 0.000000 1.000000
vn 0.536447 -0.843934 0.000000
vn 0.536447 -0.843934 0.000000
vn -0.848427 -0.529313 0.000000
vn -0.848427 -0.529313 0.000000
vn -0.560782 0.827963 0.000000
vn -0.560782 0.827963 0.000000
vn 0.857493 0.514496 0.000000
vn 0.857493 0.514496 -0.000000
vn -0.405292 0.914187 0.000000
vn -0.405292 0.914187 0.000000
vn 0.853872 0.520482 0.000000
vn 0.853872 0.520482 -0.000000
vn 0.450387 -0.892833 0.000000
vn 0.450387 -0.892833 0.000000
vn 0.887359 0.461079 0.000000
vn 0.887359 0.461079 -0.000000
usemtl assumed_base
f 8//1 1//1 2//1
f 8//2 2//2 3//2
f 3//3 4//3 5//3
f 8//4 3//4 5//4
f 8//5 5//5 6//5
f 6//6 7//6 8//6
usemtl assumed_roof
f 16//7 10//7 9//7
f 16//8 11//8 10//8
f 11//9 13//9 12//9
f 16//10 13//10 11//10
f 16//11 14//11 13//11
f 14//12 16//12 15//12
usemtl assumed_wall
f 1//13 10//13 2//13
f 1//14 9//14 10//14
f 2//15 11//15 3//15
f 2//16 10//16 11//16
f 3//17 12//17 4//17
f 3//18 11//18 12//18
f 4//19 13//19 5//19
f 4//20 12//20 13//20
f 5//21 14//21 6//21
f 5//22 13//22 14//22
f 6//23 15//23 7//23
f 6//24 14//24 15//24
f 7//25 16//25 8//25
f 7//26 15//26 16//26
f 8//27 9//27 1//27
f 8//28 16//28 9//28
