# construction_0845_assumed_A_Capela
# source A_Capela
# h_campo 0.000000
# modeled_height 6.000000
# height_kind assumed
# local_origin_world_x 172001.034850
# local_origin_world_y 402500.144600
mtllib construction_artifacts.mtl

o construction_0845_assumed_A_Capela
v -7.814000 -0.837000 0.000000
v -2.345000 1.234000 0.000000
v -2.823000 2.373000 0.000000
v 1.317000 4.043000 0.000000
v 5.121000 6.026000 0.000000
v 7.814000 -0.615000 0.000000
v -0.326000 -4.420000 0.000000
v -0.551000 -3.834000 0.000000
v -6.253000 -6.026000 0.000000
v -7.164000 -3.656000 0.000000
v -6.481000 -3.294000 0.000000
v -7.814000 -0.837000 6.000000
v -2.345000 1.234000 6.000000
v -2.823000 2.373000 6.000000
v 1.317000 4.043000 6.000000
v 5.121000 6.026000 6.000000
v 7.814000 -0.615000 6.000000
v -0.326000 -4.420000 6.000000
v -0.551000 -3.834000 6.000000
v -6.253000 -6.026000 6.000000
v -7.164000 -3.656000 6.000000
v -6.481000 -3.294000 6.000000
vn 0.000000 0.000000 -1.000000
vn 0.000000 0.000000 -1.000000
vn 0.000000 0.000000 -1.000000
vn 0.000000 0.000000 -1.000000
vn 0.000000 0.000000 -1.000000
vn 0.000000 0.000000 -1.000000
vn 0.000000 0.000000 -1.000000
vn 0.000000 0.000000 -1.000000
vn 0.000000 0.000000 -1.000000
vn 0.000000 -0.000000 1.000000
vn 0.000000 -0.000000 1.000000
vn 0.000000 0.000000 1.000000
vn 0.000000 0.000000 1.000000
vn 0.000000 0.000000 1.000000
vn 0.000000 0.000000 1.000000
vn -0.000000 0.000000 1.000000
vn 0.000000 0.000000 1.000000
vn 0.000000 0.000000 1.000000
vn -0.354139 0.935193 0.000000
vn -0.354139 0.935193 0.000000
vn -0.922092 -0.386971 0.000000
vn -0.922092 -0.386971 0.000000
vn -0.374093 0.927391 0.000000
vn -0.374093 0.927391 0.000000
vn -0.462255 0.886747 0.000000
vn -0.462255 0.886747 0.000000
vn 0.926705 0.375789 0.000000
vn 0.926705 0.375789 -0.000000
vn 0.423464 -0.905913 0.000000
vn 0.423464 -0.905913 0.000000
vn -0.933551 -0.358445 0.000000
vn -0.933551 -0.358445 0.000000
vn 0.358826 -0.933405 0.000000
vn 0.358826 -0.933405 0.000000
vn -0.933417 -0.358794 0.000000
vn -0.933417 -0.358794 0.000000
vn -0.468304 0.883568 0.000000
vn -0.468304 0.883568 0.000000
vn -0.878973 -0.476871 0.000000
vn -0.878973 -0.476871 0.000000
usemtl assumed_base
f 11//1 1//1 2//1
f 2//2 3//2 4//2
f 11//3 2//3 4//3
f 11//4 4//4 5//4
f 11//5 5//5 6//5
f 6//6 7//6 8//6
f 11//7 6//7 8//7
f 11//8 8//8 9//8
f 9//9 10//9 11//9
usemtl assumed_roof
f 22//10 13//10 12//10
f 13//11 15//11 14//11
f 22//12 15//12 13//12
f 22//13 16//13 15//13
f 22//14 17//14 16//14
f 17//15 19//15 18//15
f 22//16 19//16 17//16
f 22//17 20//17 19//17
f 20//18 22//18 21//18
usemtl assumed_wall
f 1//19 13//19 2//19
f 1//20 12//20 13//20
f 2//21 14//21 3//21
f 2//22 13//22 14//22
f 3//23 15//23 4//23
f 3//24 14//24 15//24
f 4//25 16//25 5//25
f 4//26 15//26 16//26
f 5//27 17//27 6//27
f 5//28 16//28 17//28
f 6//29 18//29 7//29
f 6//30 17//30 18//30
f 7//31 19//31 8//31
f 7//32 18//32 19//32
f 8//33 20//33 9//33
f 8//34 19//34 20//34
f 9//35 21//35 10//35
f 9//36 20//36 21//36
f 10//37 22//37 11//37
f 10//38 21//38 22//38
f 11//39 12//39 1//39
f 11//40 22//40 12//40
