# construction_4423_assumed_A_Casa
# source A_Casa
# h_campo 0.000000
# modeled_height 6.000000
# height_kind assumed
# local_origin_world_x 172001.034850
# local_origin_world_y 402500.144600
mtllib construction_artifacts.mtl

o construction_4423_assumed_A_Casa
v -8.276000 -4.804000 0.000000
v -4.271000 8.253000 0.000000
v 0.248000 6.677000 0.000000
v 1.460000 10.648000 0.000000
v 8.191000 8.740000 0.000000
v 5.239000 -0.637000 0.000000
v 8.276000 -1.954000 0.000000
v 5.655000 -10.648000 0.000000
v -1.795000 -8.509000 0.000000
v -1.401000 -7.051000 0.000000
v -8.276000 -4.804000 6.000000
v -4.271000 8.253000 6.000000
v 0.248000 6.677000 6.000000
v 1.460000 10.648000 6.000000
v 8.191000 8.740000 6.000000
v 5.239000 -0.637000 6.000000
v 8.276000 -1.954000 6.000000
v 5.655000 -10.648000 6.000000
v -1.795000 -8.509000 6.000000
v -1.401000 -7.051000 6.000000
vn 0.000000 0.000000 -1.000000
vn 0.000000 0.000000 -1.000000
vn 0.000000 0.000000 -1.000000
vn 0.000000 0.000000 -1.000000
vn 0.000000 0.000000 -1.000000
vn 0.000000 0.000000 -1.000000
vn 0.000000 0.000000 -1.000000
vn 0.000000 0.000000 -1.000000
vn 0.000000 0.000000 1.000000
vn 0.000000 -0.000000 1.000000
vn 0.000000 0.000000 1.000000
vn 0.000000 0.000000 1.000000
vn 0.000000 0.000000 1.000000
vn 0.000000 0.000000 1.000000
vn -0.000000 0.000000 1.000000
vn 0.000000 0.000000 1.000000
vn -0.956037 0.293247 0.000000
vn -0.956037 0.293247 0.000000
vn 0.329299 0.944226 0.000000
vn 0.329299 0.944226 -0.000000
vn -0.956443 0.291919 0.000000
vn -0.956443 0.291919 0.000000
vn 0.272719 0.962094 0.000000
vn 0.272719 0.962094 -0.000000
vn 0.953850 -0.300284 0.000000
vn 0.953850 -0.300284 0.000000
vn 0.397853 0.917449 0.000000
vn 0.397853 0.917449 -0.000000
vn 0.957437 -0.288641 0.000000
vn 0.957437 -0.288641 0.000000
vn -0.275965 -0.961168 0.000000
vn -0.275965 -0.961168 0.000000
vn -0.965372 0.260876 0.000000
vn -0.965372 0.260876 0.000000
vn -0.310664 -0.950520 0.000000
vn -0.310664 -0.950520 0.000000
usemtl assumed_base
f 10//1 1//1 2//1
f 10//2 2//2 3//2
f 10//3 3//3 4//3
f 10//4 4//4 5//4
f 10//5 5//5 6//5
f 10//6 6//6 7//6
f 10//7 7//7 8//7
f 8//8 9//8 10//8
usemtl assumed_roof
f 20//9 12//9 11//9
f 20//10 13//10 12//10
f 20//11 14//11 13//11
f 20//12 15//12 14//12
f 20//13 16//13 15//13
f 20//14 17//14 16//14
f 20//15 18//15 17//15
f 18//16 20//16 19//16
usemtl assumed_wall
f 1//17 12//17 2//17
f 1//18 11//18 12//18
f 2//19 13//19 3//19
f 2//20 12//20 13//20
f 3//21 14//21 4//21
f 3//22 13//22 14//22
f 4//23 15//23 5//23
f 4//24 14//24 15//24
f 5//25 16//25 6//25
f 5//26 15//26 16//26
f 6//27 17//27 7//27
f 6//28 16//28 17//28
f 7//29 18//29 8//29
f 7//30 17//30 18//30
f 8//31 19//31 9//31
f 8//32 18//32 19//32
f 9//33 20//33 10//33
f 9//34 19//34 20//34
f 10//35 11//35 1//35
f 10//36 20//36 11//36
