# construction_5837_assumed_A_Casa
# source A_Casa
# h_campo 0.000000
# modeled_height 6.000000
# height_kind assumed
# local_origin_world_x 172001.034850
# local_origin_world_y 402500.144600
mtllib construction_artifacts.mtl

o construction_5837_assumed_A_Casa
v -7.245000 -5.794500 0.000000
v -5.907000 9.693500 0.000000
v 2.268000 8.861500 0.000000
v 2.299000 7.748500 0.000000
v 7.245000 7.482500 0.000000
v 6.239000 -3.702500 0.000000
v 2.783000 -2.911500 0.000000
v 2.298000 -7.175500 0.000000
v -1.346000 -6.801500 0.000000
v -0.395000 -9.693500 0.000000
v -5.784000 -9.530500 0.000000
v -5.574000 -6.089500 0.000000
v -7.245000 -5.794500 6.000000
v -5.907000 9.693500 6.000000
v 2.268000 8.861500 6.000000
v 2.299000 7.748500 6.000000
v 7.245000 7.482500 6.000000
v 6.239000 -3.702500 6.000000
v 2.783000 -2.911500 6.000000
v 2.298000 -7.175500 6.000000
v -1.346000 -6.801500 6.000000
v -0.395000 -9.693500 6.000000
v -5.784000 -9.530500 6.000000
v -5.574000 -6.089500 6.000000
vn 0.000000 0.000000 -1.000000
vn 0.000000 0.000000 -1.000000
vn 0.000000 0.000000 -1.000000
vn 0.000000 0.000000 -1.000000
vn 0.000000 0.000000 -1.000000
vn 0.000000 0.000000 -1.000000
vn 0.000000 0.000000 -1.000000
vn 0.000000 0.000000 -1.000000
vn 0.000000 0.000000 -1.000000
vn 0.000000 0.000000 -1.000000
vn 0.000000 0.000000 1.000000
vn 0.000000 -0.000000 1.000000
vn 0.000000 0.000000 1.000000
vn 0.000000 0.000000 1.000000
vn 0.000000 0.000000 1.000000
vn 0.000000 0.000000 1.000000
vn -0.000000 0.000000 1.000000
vn 0.000000 0.000000 1.000000
vn 0.000000 0.000000 1.000000
vn 0.000000 0.000000 1.000000
vn -0.996289 0.086069 0.000000
vn -0.996289 0.086069 0.000000
vn 0.101251 0.994861 0.000000
vn 0.101251 0.994861 -0.000000
vn 0.999612 0.027842 0.000000
vn 0.999612 0.027842 -0.000000
vn 0.053703 0.998557 0.000000
vn 0.053703 0.998557 -0.000000
vn 0.995980 -0.089580 0.000000
vn 0.995980 -0.089580 0.000000
vn -0.223108 -0.974794 0.000000
vn -0.223108 -0.974794 0.000000
vn 0.993593 -0.113014 0.000000
vn 0.993593 -0.113014 0.000000
vn -0.102098 -0.994774 0.000000
vn -0.102098 -0.994774 0.000000
vn 0.949957 0.312382 0.000000
vn 0.949957 0.312382 -0.000000
vn -0.030233 -0.999543 0.000000
vn -0.030233 -0.999543 0.000000
vn -0.998143 0.060915 0.000000
vn -0.998143 0.060915 0.000000
vn -0.173853 -0.984772 0.000000
vn -0.173853 -0.984772 0.000000
usemtl assumed_base
f 12//1 1//1 2//1
f 12//2 2//2 3//2
f 12//3 3//3 4//3
f 12//4 4//4 5//4
f 5//5 6//5 7//5
f 12//6 5//6 7//6
f 12//7 7//7 8//7
f 12//8 8//8 9//8
f 12//9 9//9 10//9
f 10//10 11//10 12//10
usemtl assumed_roof
f 24//11 14//11 13//11
f 24//12 15//12 14//12
f 24//13 16//13 15//13
f 24//14 17//14 16//14
f 17//15 19//15 18//15
f 24//16 19//16 17//16
f 24//17 20//17 19//17
f 24//18 21//18 20//18
f 24//19 22//19 21//19
f 22//20 24//20 23//20
usemtl assumed_wall
f 1//21 14//21 2//21
f 1//22 13//22 14//22
f 2//23 15//23 3//23
f 2//24 14//24 15//24
f 3//25 16//25 4//25
f 3//26 15//26 16//26
f 4//27 17//27 5//27
f 4//28 16//28 17//28
f 5//29 18//29 6//29
f 5//30 17//30 18//30
f 6//31 19//31 7//31
f 6//32 18//32 19//32
f 7//33 20//33 8//33
f 7//34 19//34 20//34
f 8//35 21//35 9//35
f 8//36 20//36 21//36
f 9//37 22//37 10//37
f 9//38 21//38 22//38
f 10//39 23//39 11//39
f 10//40 22//40 23//40
f 11//41 24//41 12//41
f 11//42 23//42 24//42
f 12//43 13//43 1//43
f 12//44 24//44 13//44
