# construction_3988_assumed_A_Casa
# source A_Casa
# h_campo 0.000000
# modeled_height 6.000000
# height_kind assumed
# local_origin_world_x 172001.034850
# local_origin_world_y 402500.144600
mtllib construction_artifacts.mtl

o construction_3988_assumed_A_Casa
v -6.988000 -11.488000 0.000000
v -6.733000 -2.548000 0.000000
v -6.025000 -2.478000 0.000000
v -6.052000 5.532000 0.000000
v 0.897000 5.557000 0.000000
v 0.859000 16.535000 0.000000
v 6.988000 14.330000 0.000000
v 6.218000 -16.535000 0.000000
v -6.011000 -16.122000 0.000000
v -6.027000 -11.535000 0.000000
v -6.988000 -11.488000 6.000000
v -6.733000 -2.548000 6.000000
v -6.025000 -2.478000 6.000000
v -6.052000 5.532000 6.000000
v 0.897000 5.557000 6.000000
v 0.859000 16.535000 6.000000
v 6.988000 14.330000 6.000000
v 6.218000 -16.535000 6.000000
v -6.011000 -16.122000 6.000000
v -6.027000 -11.535000 6.000000
vn 0.000000 0.000000 -1.000000
vn 0.000000 0.000000 -1.000000
vn 0.000000 0.000000 -1.000000
vn 0.000000 0.000000 -1.000000
vn 0.000000 0.000000 -1.000000
vn 0.000000 0.000000 -1.000000
vn 0.000000 0.000000 -1.000000
vn 0.000000 0.000000 -1.000000
vn 0.000000 0.000000 1.000000
vn 0.000000 -0.000000 1.000000
vn 0.000000 -0.000000 1.000000
vn 0.000000 0.000000 1.000000
vn 0.000000 -0.000000 1.000000
vn 0.000000 0.000000 1.000000
vn -0.000000 0.000000 1.000000
vn 0.000000 0.000000 1.000000
vn -0.999593 0.028512 0.000000
vn -0.999593 0.028512 0.000000
vn -0.098390 0.995148 0.000000
vn -0.098390 0.995148 0.000000
vn -0.999994 -0.003371 0.000000
vn -0.999994 -0.003371 0.000000
vn -0.003598 0.999994 0.000000
vn -0.003598 0.999994 0.000000
vn -0.999994 -0.003461 0.000000
vn -0.999994 -0.003461 0.000000
vn 0.338524 0.940958 0.000000
vn 0.338524 0.940958 -0.000000
vn 0.999689 -0.024940 0.000000
vn 0.999689 -0.024940 0.000000
vn -0.033753 -0.999430 0.000000
vn -0.033753 -0.999430 0.000000
vn -0.999994 -0.003488 0.000000
vn -0.999994 -0.003488 0.000000
vn -0.048849 -0.998806 0.000000
vn -0.048849 -0.998806 0.000000
usemtl assumed_base
f 10//1 1//1 2//1
f 10//2 2//2 3//2
f 3//3 4//3 5//3
f 10//4 3//4 5//4
f 5//5 6//5 7//5
f 10//6 5//6 7//6
f 10//7 7//7 8//7
f 8//8 9//8 10//8
usemtl assumed_roof
f 20//9 12//9 11//9
f 20//10 13//10 12//10
f 13//11 15//11 14//11
f 20//12 15//12 13//12
f 15//13 17//13 16//13
f 20//14 17//14 15//14
f 20//15 18//15 17//15
f 18//16 20//16 19//16
usemtl assumed_wall
f 1//17 12//17 2//17
f 1//18 11//18 12//18
f 2//19 13//19 3//19
f 2//20 12//20 13//20
f 3//21 14//21 4//21
f 3//22 13//22 14//22
f 4//23 15//23 5//23
f 4//24 14//24 15//24
f 5//25 16//25 6//25
f 5//26 15//26 16//26
f 6//27 17//27 7//27
f 6//28 16//28 17//28
f 7//29 18//29 8//29
f 7//30 17//30 18//30
f 8//31 19//31 9//31
f 8//32 18//32 19//32
f 9//33 20//33 10//33
f 9//34 19//34 20//34
f 10//35 11//35 1//35
f 10//36 20//36 11//36
