# construction_4932_assumed_A_Casa
# source A_Casa
# h_campo 0.000000
# modeled_height 6.000000
# height_kind assumed
# local_origin_world_x 172001.034850
# local_origin_world_y 402500.144600
mtllib construction_artifacts.mtl

o construction_4932_assumed_A_Casa
v -15.303500 15.410000 0.000000
v 7.978500 19.561000 0.000000
v 15.303500 -15.837000 0.000000
v 8.287500 -19.561000 0.000000
v 5.791500 -8.399000 0.000000
v 1.747500 -9.221000 0.000000
v 0.193500 -4.926000 0.000000
v 1.596500 -4.319000 0.000000
v 0.297500 -1.091000 0.000000
v 3.975500 0.055000 0.000000
v 2.071500 10.122000 0.000000
v -13.825500 7.447000 0.000000
v -15.303500 15.410000 6.000000
v 7.978500 19.561000 6.000000
v 15.303500 -15.837000 6.000000
v 8.287500 -19.561000 6.000000
v 5.791500 -8.399000 6.000000
v 1.747500 -9.221000 6.000000
v 0.193500 -4.926000 6.000000
v 1.596500 -4.319000 6.000000
v 0.297500 -1.091000 6.000000
v 3.975500 0.055000 6.000000
v 2.071500 10.122000 6.000000
v -13.825500 7.447000 6.000000
vn 0.000000 0.000000 -1.000000
vn 0.000000 0.000000 -1.000000
vn 0.000000 -0.000000 -1.000000
vn -0.000000 0.000000 -1.000000
vn 0.000000 0.000000 -1.000000
vn 0.000000 0.000000 -1.000000
vn 0.000000 0.000000 -1.000000
vn 0.000000 0.000000 -1.000000
vn 0.000000 0.000000 -1.000000
vn 0.000000 0.000000 -1.000000
vn 0.000000 -0.000000 1.000000
vn 0.000000 0.000000 1.000000
vn 0.000000 0.000000 1.000000
vn 0.000000 0.000000 1.000000
vn 0.000000 0.000000 1.000000
vn 0.000000 0.000000 1.000000
vn 0.000000 0.000000 1.000000
vn 0.000000 0.000000 1.000000
vn 0.000000 0.000000 1.000000
vn 0.000000 0.000000 1.000000
vn -0.175524 0.984475 0.000000
vn -0.175524 0.984475 0.000000
vn 0.979253 0.202639 0.000000
vn 0.979253 0.202639 -0.000000
vn 0.468836 -0.883285 0.000000
vn 0.468836 -0.883285 0.000000
vn -0.975898 -0.218226 0.000000
vn -0.975898 -0.218226 0.000000
vn 0.199191 -0.979961 0.000000
vn 0.199191 -0.979961 0.000000
vn -0.940342 -0.340231 0.000000
vn -0.940342 -0.340231 0.000000
vn -0.397075 0.917786 0.000000
vn -0.397075 0.917786 0.000000
vn -0.927702 -0.373322 0.000000
vn -0.927702 -0.373322 0.000000
vn -0.297477 0.954729 0.000000
vn -0.297477 0.954729 0.000000
vn -0.982580 -0.185838 0.000000
vn -0.982580 -0.185838 0.000000
vn 0.165938 -0.986136 0.000000
vn 0.165938 -0.986136 0.000000
vn -0.983207 -0.182492 0.000000
vn -0.983207 -0.182492 0.000000
usemtl assumed_base
f 12//1 1//1 2//1
f 2//2 3//2 4//2
f 2//3 4//3 5//3
f 5//4 6//4 7//4
f 5//5 7//5 8//5
f 5//6 8//6 9//6
f 5//7 9//7 10//7
f 2//8 5//8 10//8
f 2//9 10//9 11//9
f 2//10 11//10 12//10
usemtl assumed_roof
f 24//11 14//11 13//11
f 14//12 16//12 15//12
f 14//13 17//13 16//13
f 17//14 19//14 18//14
f 17//15 20//15 19//15
f 17//16 21//16 20//16
f 17//17 22//17 21//17
f 14//18 22//18 17//18
f 14//19 23//19 22//19
f 14//20 24//20 23//20
usemtl assumed_wall
f 1//21 14//21 2//21
f 1//22 13//22 14//22
f 2//23 15//23 3//23
f 2//24 14//24 15//24
f 3//25 16//25 4//25
f 3//26 15//26 16//26
f 4//27 17//27 5//27
f 4//28 16//28 17//28
f 5//29 18//29 6//29
f 5//30 17//30 18//30
f 6//31 19//31 7//31
f 6//32 18//32 19//32
f 7//33 20//33 8//33
f 7//34 19//34 20//34
f 8//35 21//35 9//35
f 8//36 20//36 21//36
f 9//37 22//37 10//37
f 9//38 21//38 22//38
f 10//39 23//39 11//39
f 10//40 22//40 23//40
f 11//41 24//41 12//41
f 11//42 23//42 24//42
f 12//43 13//43 1//43
f 12//44 24//44 13//44
