# construction_6337_assumed_A_Casa
# source A_Casa
# h_campo 0.000000
# modeled_height 6.000000
# height_kind assumed
# local_origin_world_x 172001.034850
# local_origin_world_y 402500.144600
mtllib construction_artifacts.mtl

o construction_6337_assumed_A_Casa
v 1.555000 -14.724500 0.000000
v 2.539000 -9.931500 0.000000
v 5.688000 -10.336500 0.000000
v 6.076000 -8.749500 0.000000
v 3.275000 -8.186500 0.000000
v 3.789000 -4.203500 0.000000
v 0.967000 -4.123500 0.000000
v 1.086000 -12.443500 0.000000
v -2.154000 -11.813500 0.000000
v -2.088000 -1.637500 0.000000
v -3.582000 0.965500 0.000000
v -4.660000 7.358500 0.000000
v -6.279000 7.251500 0.000000
v -6.584000 1.325500 0.000000
v -10.316000 1.099500 0.000000
v -15.294000 0.250500 0.000000
v -16.173000 4.193500 0.000000
v -12.175000 5.500500 0.000000
v -11.746000 4.770500 0.000000
v -9.846000 4.889500 0.000000
v -10.321000 8.935500 0.000000
v -19.725000 6.834500 0.000000
v -20.858000 12.868500 0.000000
v -1.476000 16.330500 0.000000
v -1.152000 13.745500 0.000000
v 7.431000 15.484500 0.000000
v 8.517000 10.259500 0.000000
v 15.025000 10.867500 0.000000
v 20.858000 -8.001500 0.000000
v 12.918000 -10.468500 0.000000
v 11.841000 -7.942500 0.000000
v 9.752000 -8.748500 0.000000
v 9.488000 -10.255500 0.000000
v 12.752000 -11.312500 0.000000
v 11.780000 -16.330500 0.000000
v 1.555000 -14.724500 6.000000
v 2.539000 -9.931500 6.000000
v 5.688000 -10.336500 6.000000
v 6.076000 -8.749500 6.000000
v 3.275000 -8.186500 6.000000
v 3.789000 -4.203500 6.000000
v 0.967000 -4.123500 6.000000
v 1.086000 -12.443500 6.000000
v -2.154000 -11.813500 6.000000
v -2.088000 -1.637500 6.000000
v -3.582000 0.965500 6.000000
v -4.660000 7.358500 6.000000
v -6.279000 7.251500 6.000000
v -6.584000 1.325500 6.000000
v -10.316000 1.099500 6.000000
v -15.294000 0.250500 6.000000
v -16.173000 4.193500 6.000000
v -12.175000 5.500500 6.000000
v -11.746000 4.770500 6.000000
v -9.846000 4.889500 6.000000
v -10.321000 8.935500 6.000000
v -19.725000 6.834500 6.000000
v -20.858000 12.868500 6.000000
v -1.476000 16.330500 6.000000
v -1.152000 13.745500 6.000000
v 7.431000 15.484500 6.000000
v 8.517000 10.259500 6.000000
v 15.025000 10.867500 6.000000
v 20.858000 -8.001500 6.000000
v 12.918000 -10.468500 6.000000
v 11.841000 -7.942500 6.000000
v 9.752000 -8.748500 6.000000
v 9.488000 -10.255500 6.000000
v 12.752000 -11.312500 6.000000
v 11.780000 -16.330500 6.000000
vn 0.000000 0.000000 -1.000000
vn 0.000000 0.000000 -1.000000
vn 0.000000 0.000000 -1.000000
vn 0.000000 0.000000 -1.000000
vn 0.000000 0.000000 -1.000000
vn 0.000000 -0.000000 -1.000000
vn -0.000000 0.000000 -1.000000
vn 0.000000 0.000000 -1.000000
vn 0.000000 0.000000 -1.000000
vn 0.000000 0.000000 -1.000000
vn 0.000000 0.000000 -1.000000
vn 0.000000 0.000000 -1.000000
vn 0.000000 0.000000 -1.000000
vn 0.000000 0.000000 -1.000000
vn 0.000000 0.000000 -1.000000
vn 0.000000 0.000000 -1.000000
vn -0.000000 0.000000 -1.000000
vn -0.000000 0.000000 -1.000000
vn -0.000000 0.000000 -1.000000
vn 0.000000 0.000000 -1.000000
vn 0.000000 0.000000 -1.000000
vn 0.000000 0.000000 -1.000000
vn 0.000000 0.000000 -1.000000
vn 0.000000 0.000000 -1.000000
vn 0.000000 0.000000 -1.000000
vn 0.000000 0.000000 -1.000000
vn 0.000000 0.000000 -1.000000
vn -0.000000 0.000000 -1.000000
vn 0.000000 0.000000 -1.000000
vn 0.000000 0.000000 -1.000000
vn 0.000000 0.000000 -1.000000
vn 0.000000 0.000000 -1.000000
vn 0.000000 0.000000 -1.000000
vn 0.000000 0.000000 1.000000
vn 0.000000 0.000000 1.000000
vn 0.000000 0.000000 1.000000
vn 0.000000 0.000000 1.000000
vn 0.000000 0.000000 1.000000
vn 0.000000 0.000000 1.000000
vn 0.000000 0.000000 1.000000
vn 0.000000 0.000000 1.000000
vn 0.000000 0.000000 1.000000
vn 0.000000 0.000000 1.000000
vn 0.000000 0.000000 1.000000
vn 0.000000 0.000000 1.000000
vn 0.000000 -0.000000 1.000000
vn 0.000000 0.000000 1.000000
vn 0.000000 0.000000 1.000000
vn 0.000000 0.000000 1.000000
vn 0.000000 0.000000 1.000000
vn 0.000000 0.000000 1.000000
vn 0.000000 0.000000 1.000000
vn 0.000000 0.000000 1.000000
vn 0.000000 -0.000000 1.000000
vn 0.000000 0.000000 1.000000
vn 0.000000 0.000000 1.000000
vn 0.000000 0.000000 1.000000
vn -0.000000 0.000000 1.000000
vn -0.000000 0.000000 1.000000
vn 0.000000 0.000000 1.000000
vn 0.000000 0.000000 1.000000
vn 0.000000 0.000000 1.000000
vn 0.000000 0.000000 1.000000
vn 0.000000 0.000000 1.000000
vn 0.000000 0.000000 1.000000
vn 0.000000 0.000000 1.000000
vn -0.979570 0.201105 0.000000
vn -0.979570 0.201105 0.000000
vn 0.127562 0.991831 0.000000
vn 0.127562 0.991831 -0.000000
vn -0.971390 0.237492 0.000000
vn -0.971390 0.237492 0.000000
vn -0.197058 -0.980392 0.000000
vn -0.197058 -0.980392 0.000000
vn -0.991776 0.127987 0.000000
vn -0.991776 0.127987 0.000000
vn -0.028337 -0.999598 0.000000
vn -0.028337 -0.999598 0.000000
vn 0.999898 0.014301 0.000000
vn 0.999898 0.014301 -0.000000
vn -0.190870 -0.981615 0.000000
vn -0.190870 -0.981615 0.000000
vn -0.999979 0.006486 0.000000
vn -0.999979 0.006486 0.000000
vn -0.867298 -0.497789 0.000000
vn -0.867298 -0.497789 0.000000
vn -0.986079 -0.166275 0.000000
vn -0.986079 -0.166275 0.000000
vn 0.065946 -0.997823 0.000000
vn 0.065946 -0.997823 0.000000
vn 0.998678 -0.051400 0.000000
vn 0.998678 -0.051400 0.000000
vn 0.060447 -0.998171 0.000000
vn 0.060447 -0.998171 0.000000
vn 0.168123 -0.985766 0.000000
vn 0.168123 -0.985766 0.000000
vn -0.976041 -0.217586 0.000000
vn -0.976041 -0.217586 0.000000
vn -0.310731 0.950498 0.000000
vn -0.310731 0.950498 0.000000
vn 0.862147 0.506659 0.000000
vn 0.862147 0.506659 -0.000000
vn -0.062509 0.998044 0.000000
vn -0.062509 0.998044 0.000000
vn -0.993179 -0.116599 0.000000
vn -0.993179 -0.116599 0.000000
vn 0.218040 -0.975940 0.000000
vn 0.218040 -0.975940 0.000000
vn -0.982824 -0.184544 0.000000
vn -0.982824 -0.184544 0.000000
vn -0.175836 0.984419 0.000000
vn -0.175836 0.984419 0.000000
vn 0.992236 0.124365 0.000000
vn 0.992236 0.124365 -0.000000
vn -0.198575 0.980086 0.000000
vn -0.198575 0.980086 0.000000
vn 0.979075 0.203498 0.000000
vn 0.979075 0.203498 -0.000000
vn -0.093018 0.995664 0.000000
vn -0.093018 0.995664 0.000000
vn 0.955392 0.295342 0.000000
vn 0.955392 0.295342 -0.000000
vn 0.296713 -0.954967 0.000000
vn 0.296713 -0.954967 0.000000
vn -0.919878 -0.392205 0.000000
vn -0.919878 -0.392205 0.000000
vn 0.359966 -0.932965 0.000000
vn 0.359966 -0.932965 0.000000
vn 0.985000 -0.172555 0.000000
vn 0.985000 -0.172555 0.000000
vn 0.308084 0.951359 0.000000
vn 0.308084 0.951359 -0.000000
vn 0.981752 -0.190168 0.000000
vn 0.981752 -0.190168 0.000000
vn -0.155164 -0.987889 0.000000
vn -0.155164 -0.987889 0.000000
usemtl assumed_base
f 35//1 1//1 2//1
f 35//2 2//2 3//2
f 35//3 3//3 4//3
f 4//4 5//4 6//4
f 35//5 4//5 6//5
f 7//6 8//6 9//6
f 7//7 9//7 10//7
f 6//8 7//8 10//8
f 6//9 10//9 11//9
f 6//10 11//10 12//10
f 13//11 14//11 15//11
f 13//12 15//12 16//12
f 16//13 17//13 18//13
f 16//14 18//14 19//14
f 16//15 19//15 20//15
f 13//16 16//16 20//16
f 13//17 20//17 21//17
f 12//18 13//18 21//18
f 21//19 22//19 23//19
f 12//20 21//20 23//20
f 12//21 23//21 24//21
f 12//22 24//22 25//22
f 6//23 12//23 25//23
f 35//24 6//24 25//24
f 25//25 26//25 27//25
f 27//26 28//26 29//26
f 25//27 27//27 29//27
f 29//28 30//28 31//28
f 25//29 29//29 31//29
f 25//30 31//30 32//30
f 25//31 32//31 33//31
f 35//32 25//32 33//32
f 33//33 34//33 35//33
usemtl assumed_roof
f 70//34 37//34 36//34
f 70//35 38//35 37//35
f 70//36 39//36 38//36
f 39//37 41//37 40//37
f 70//38 41//38 39//38
f 42//39 44//39 43//39
f 42//40 45//40 44//40
f 41//41 45//41 42//41
f 41//42 46//42 45//42
f 41//43 47//43 46//43
f 48//44 50//44 49//44
f 48//45 51//45 50//45
f 51//46 53//46 52//46
f 51//47 54//47 53//47
f 51//48 55//48 54//48
f 48//49 55//49 51//49
f 48//50 56//50 55//50
f 47//51 56//51 48//51
f 56//52 58//52 57//52
f 47//53 58//53 56//53
f 47//54 59//54 58//54
f 47//55 60//55 59//55
f 41//56 60//56 47//56
f 70//57 60//57 41//57
f 60//58 62//58 61//58
f 62//59 64//59 63//59
f 60//60 64//60 62//60
f 64//61 66//61 65//61
f 60//62 66//62 64//62
f 60//63 67//63 66//63
f 60//64 68//64 67//64
f 70//65 68//65 60//65
f 68//66 70//66 69//66
usemtl assumed_wall
f 1//67 37//67 2//67
f 1//68 36//68 37//68
f 2//69 38//69 3//69
f 2//70 37//70 38//70
f 3//71 39//71 4//71
f 3//72 38//72 39//72
f 4//73 40//73 5//73
f 4//74 39//74 40//74
f 5//75 41//75 6//75
f 5//76 40//76 41//76
f 6//77 42//77 7//77
f 6//78 41//78 42//78
f 7//79 43//79 8//79
f 7//80 42//80 43//80
f 8//81 44//81 9//81
f 8//82 43//82 44//82
f 9//83 45//83 10//83
f 9//84 44//84 45//84
f 10//85 46//85 11//85
f 10//86 45//86 46//86
f 11//87 47//87 12//87
f 11//88 46//88 47//88
f 12//89 48//89 13//89
f 12//90 47//90 48//90
f 13//91 49//91 14//91
f 13//92 48//92 49//92
f 14//93 50//93 15//93
f 14//94 49//94 50//94
f 15//95 51//95 16//95
f 15//96 50//96 51//96
f 16//97 52//97 17//97
f 16//98 51//98 52//98
f 17//99 53//99 18//99
f 17//100 52//100 53//100
f 18//101 54//101 19//101
f 18//102 53//102 54//102
f 19//103 55//103 20//103
f 19//104 54//104 55//104
f 20//105 56//105 21//105
f 20//106 55//106 56//106
f 21//107 57//107 22//107
f 21//108 56//108 57//108
f 22//109 58//109 23//109
f 22//110 57//110 58//110
f 23//111 59//111 24//111
f 23//112 58//112 59//112
f 24//113 60//113 25//113
f 24//114 59//114 60//114
f 25//115 61//115 26//115
f 25//116 60//116 61//116
f 26//117 62//117 27//117
f 26//118 61//118 62//118
f 27//119 63//119 28//119
f 27//120 62//120 63//120
f 28//121 64//121 29//121
f 28//122 63//122 64//122
f 29//123 65//123 30//123
f 29//124 64//124 65//124
f 30//125 66//125 31//125
f 30//126 65//126 66//126
f 31//127 67//127 32//127
f 31//128 66//128 67//128
f 32//129 68//129 33//129
f 32//130 67//130 68//130
f 33//131 69//131 34//131
f 33//132 68//132 69//132
f 34//133 70//133 35//133
f 34//134 69//134 70//134
f 35//135 36//135 1//135
f 35//136 70//136 36//136
