# construction_1057_assumed_A_Casa
# source A_Casa
# h_campo 0.000000
# modeled_height 6.000000
# height_kind assumed
# local_origin_world_x 172001.034850
# local_origin_world_y 402500.144600
mtllib construction_artifacts.mtl

o construction_1057_assumed_A_Casa
v -5.097500 -4.652500 0.000000
v -2.202500 1.275500 0.000000
v -11.548500 7.754500 0.000000
v -16.014500 10.285500 0.000000
v -14.252500 13.450500 0.000000
v -10.225500 10.370500 0.000000
v -8.867500 13.536500 0.000000
v 0.834500 5.774500 0.000000
v 3.038500 9.803500 0.000000
v 16.014500 3.313500 0.000000
v 11.210500 -6.025500 0.000000
v 12.119500 -6.522500 0.000000
v 8.086500 -13.536500 0.000000
v 3.337500 -11.218500 0.000000
v 1.623500 -13.057500 0.000000
v -6.205500 -6.796500 0.000000
v -4.592500 -4.991500 0.000000
v -5.097500 -4.652500 6.000000
v -2.202500 1.275500 6.000000
v -11.548500 7.754500 6.000000
v -16.014500 10.285500 6.000000
v -14.252500 13.450500 6.000000
v -10.225500 10.370500 6.000000
v -8.867500 13.536500 6.000000
v 0.834500 5.774500 6.000000
v 3.038500 9.803500 6.000000
v 16.014500 3.313500 6.000000
v 11.210500 -6.025500 6.000000
v 12.119500 -6.522500 6.000000
v 8.086500 -13.536500 6.000000
v 3.337500 -11.218500 6.000000
v 1.623500 -13.057500 6.000000
v -6.205500 -6.796500 6.000000
v -4.592500 -4.991500 6.000000
vn 0.000000 0.000000 -1.000000
vn 0.000000 0.000000 -1.000000
vn 0.000000 0.000000 -1.000000
vn 0.000000 0.000000 -1.000000
vn 0.000000 0.000000 -1.000000
vn 0.000000 0.000000 -1.000000
vn 0.000000 0.000000 -1.000000
vn 0.000000 0.000000 -1.000000
vn 0.000000 0.000000 -1.000000
vn 0.000000 0.000000 -1.000000
vn 0.000000 0.000000 -1.000000
vn 0.000000 0.000000 -1.000000
vn 0.000000 0.000000 -1.000000
vn 0.000000 0.000000 -1.000000
vn 0.000000 0.000000 -1.000000
vn 0.000000 -0.000000 1.000000
vn 0.000000 0.000000 1.000000
vn 0.000000 0.000000 1.000000
vn 0.000000 0.000000 1.000000
vn 0.000000 0.000000 1.000000
vn 0.000000 -0.000000 1.000000
vn 0.000000 0.000000 1.000000
vn 0.000000 0.000000 1.000000
vn 0.000000 0.000000 1.000000
vn -0.000000 0.000000 1.000000
vn 0.000000 0.000000 1.000000
vn 0.000000 0.000000 1.000000
vn 0.000000 0.000000 1.000000
vn 0.000000 0.000000 1.000000
vn 0.000000 0.000000 1.000000
vn -0.898572 0.438827 0.000000
vn -0.898572 0.438827 0.000000
vn -0.569727 -0.821834 0.000000
vn -0.569727 -0.821834 0.000000
vn -0.493052 -0.870000 0.000000
vn -0.493052 -0.870000 0.000000
vn -0.873727 0.486416 0.000000
vn -0.873727 0.486416 0.000000
vn 0.607516 0.794307 0.000000
vn 0.607516 0.794307 -0.000000
vn -0.919025 0.394200 0.000000
vn -0.919025 0.394200 0.000000
vn 0.624715 0.780853 0.000000
vn 0.624715 0.780853 -0.000000
vn -0.877312 0.479920 0.000000
vn -0.877312 0.479920 0.000000
vn 0.447324 0.894372 0.000000
vn 0.447324 0.894372 -0.000000
vn 0.889246 -0.457430 0.000000
vn 0.889246 -0.457430 0.000000
vn 0.479731 0.877416 0.000000
vn 0.479731 0.877416 -0.000000
vn 0.866909 -0.498466 0.000000
vn 0.866909 -0.498466 0.000000
vn -0.438640 -0.898663 0.000000
vn -0.438640 -0.898663 0.000000
vn 0.731531 -0.681808 0.000000
vn 0.731531 -0.681808 0.000000
vn -0.624561 -0.780976 0.000000
vn -0.624561 -0.780976 0.000000
vn -0.745652 0.666336 0.000000
vn -0.745652 0.666336 0.000000
vn -0.557353 -0.830275 0.000000
vn -0.557353 -0.830275 0.000000
usemtl assumed_base
f 17//1 1//1 2//1
f 3//2 4//2 5//2
f 2//3 3//3 5//3
f 2//4 5//4 6//4
f 2//5 6//5 7//5
f 2//6 7//6 8//6
f 17//7 2//7 8//7
f 17//8 8//8 9//8
f 17//9 9//9 10//9
f 17//10 10//10 11//10
f 17//11 11//11 12//11
f 17//12 12//12 13//12
f 17//13 13//13 14//13
f 17//14 14//14 15//14
f 15//15 16//15 17//15
usemtl assumed_roof
f 34//16 19//16 18//16
f 20//17 22//17 21//17
f 19//18 22//18 20//18
f 19//19 23//19 22//19
f 19//20 24//20 23//20
f 19//21 25//21 24//21
f 34//22 25//22 19//22
f 34//23 26//23 25//23
f 34//24 27//24 26//24
f 34//25 28//25 27//25
f 34//26 29//26 28//26
f 34//27 30//27 29//27
f 34//28 31//28 30//28
f 34//29 32//29 31//29
f 32//30 34//30 33//30
usemtl assumed_wall
f 1//31 19//31 2//31
f 1//32 18//32 19//32
f 2//33 20//33 3//33
f 2//34 19//34 20//34
f 3//35 21//35 4//35
f 3//36 20//36 21//36
f 4//37 22//37 5//37
f 4//38 21//38 22//38
f 5//39 23//39 6//39
f 5//40 22//40 23//40
f 6//41 24//41 7//41
f 6//42 23//42 24//42
f 7//43 25//43 8//43
f 7//44 24//44 25//44
f 8//45 26//45 9//45
f 8//46 25//46 26//46
f 9//47 27//47 10//47
f 9//48 26//48 27//48
f 10//49 28//49 11//49
f 10//50 27//50 28//50
f 11//51 29//51 12//51
f 11//52 28//52 29//52
f 12//53 30//53 13//53
f 12//54 29//54 30//54
f 13//55 31//55 14//55
f 13//56 30//56 31//56
f 14//57 32//57 15//57
f 14//58 31//58 32//58
f 15//59 33//59 16//59
f 15//60 32//60 33//60
f 16//61 34//61 17//61
f 16//62 33//62 34//62
f 17//63 18//63 1//63
f 17//64 34//64 18//64
