# construction_2903_assumed_A_Casa
# source A_Casa
# h_campo 0.000000
# modeled_height 6.000000
# height_kind assumed
# local_origin_world_x 172001.034850
# local_origin_world_y 402500.144600
mtllib construction_artifacts.mtl

o construction_2903_assumed_A_Casa
v -18.943000 -9.975000 0.000000
v -7.712000 -1.720000 0.000000
v -11.078000 2.163000 0.000000
v 6.395000 16.137000 0.000000
v 11.192000 11.332000 0.000000
v 14.103000 13.985000 0.000000
v 15.600000 14.265000 0.000000
v 18.943000 11.821000 0.000000
v 15.332000 7.296000 0.000000
v 11.044000 2.528000 0.000000
v -2.943000 -7.212000 0.000000
v -14.640000 -16.137000 0.000000
v -18.943000 -9.975000 6.000000
v -7.712000 -1.720000 6.000000
v -11.078000 2.163000 6.000000
v 6.395000 16.137000 6.000000
v 11.192000 11.332000 6.000000
v 14.103000 13.985000 6.000000
v 15.600000 14.265000 6.000000
v 18.943000 11.821000 6.000000
v 15.332000 7.296000 6.000000
v 11.044000 2.528000 6.000000
v -2.943000 -7.212000 6.000000
v -14.640000 -16.137000 6.000000
vn 0.000000 0.000000 -1.000000
vn 0.000000 0.000000 -1.000000
vn 0.000000 0.000000 -1.000000
vn 0.000000 0.000000 -1.000000
vn 0.000000 0.000000 -1.000000
vn 0.000000 0.000000 -1.000000
vn 0.000000 0.000000 -1.000000
vn 0.000000 0.000000 -1.000000
vn 0.000000 0.000000 -1.000000
vn 0.000000 0.000000 -1.000000
vn 0.000000 -0.000000 1.000000
vn 0.000000 -0.000000 1.000000
vn 0.000000 0.000000 1.000000
vn 0.000000 0.000000 1.000000
vn 0.000000 0.000000 1.000000
vn 0.000000 0.000000 1.000000
vn 0.000000 0.000000 1.000000
vn 0.000000 0.000000 1.000000
vn 0.000000 0.000000 1.000000
vn 0.000000 0.000000 1.000000
vn -0.592247 0.805757 0.000000
vn -0.592247 0.805757 0.000000
vn -0.755618 -0.655012 0.000000
vn -0.755618 -0.655012 0.000000
vn -0.624575 0.780965 0.000000
vn -0.624575 0.780965 0.000000
vn 0.707696 0.706517 0.000000
vn 0.707696 0.706517 -0.000000
vn -0.673595 0.739101 0.000000
vn -0.673595 0.739101 0.000000
vn -0.183852 0.982954 0.000000
vn -0.183852 0.982954 0.000000
vn 0.590180 0.807272 0.000000
vn 0.590180 0.807272 -0.000000
vn 0.781627 -0.623747 0.000000
vn 0.781627 -0.623747 0.000000
vn 0.743542 -0.668689 0.000000
vn 0.743542 -0.668689 0.000000
vn 0.571456 -0.820632 0.000000
vn 0.571456 -0.820632 0.000000
vn 0.606602 -0.795006 0.000000
vn 0.606602 -0.795006 0.000000
vn -0.819881 -0.572533 0.000000
vn -0.819881 -0.572533 0.000000
usemtl assumed_base
f 12//1 1//1 2//1
f 2//2 3//2 4//2
f 12//3 2//3 4//3
f 12//4 4//4 5//4
f 12//5 5//5 6//5
f 12//6 6//6 7//6
f 12//7 7//7 8//7
f 12//8 8//8 9//8
f 9//9 10//9 11//9
f 9//10 11//10 12//10
usemtl assumed_roof
f 24//11 14//11 13//11
f 14//12 16//12 15//12
f 24//13 16//13 14//13
f 24//14 17//14 16//14
f 24//15 18//15 17//15
f 24//16 19//16 18//16
f 24//17 20//17 19//17
f 24//18 21//18 20//18
f 21//19 23//19 22//19
f 21//20 24//20 23//20
usemtl assumed_wall
f 1//21 14//21 2//21
f 1//22 13//22 14//22
f 2//23 15//23 3//23
f 2//24 14//24 15//24
f 3//25 16//25 4//25
f 3//26 15//26 16//26
f 4//27 17//27 5//27
f 4//28 16//28 17//28
f 5//29 18//29 6//29
f 5//30 17//30 18//30
f 6//31 19//31 7//31
f 6//32 18//32 19//32
f 7//33 20//33 8//33
f 7//34 19//34 20//34
f 8//35 21//35 9//35
f 8//36 20//36 21//36
f 9//37 22//37 10//37
f 9//38 21//38 22//38
f 10//39 23//39 11//39
f 10//40 22//40 23//40
f 11//41 24//41 12//41
f 11//42 23//42 24//42
f 12//43 13//43 1//43
f 12//44 24//44 13//44
