# construction_5748_assumed_A_Casa
# source A_Casa
# h_campo 0.000000
# modeled_height 6.000000
# height_kind assumed
# local_origin_world_x 172001.034850
# local_origin_world_y 402500.144600
mtllib construction_artifacts.mtl

o construction_5748_assumed_A_Casa
v -8.321500 0.253500 0.000000
v -2.499500 6.273500 0.000000
v 2.020500 9.286500 0.000000
v 3.683500 7.160500 0.000000
v 0.007500 4.682500 0.000000
v -1.925500 1.830500 0.000000
v 8.321500 -5.308500 0.000000
v 5.724500 -9.286500 0.000000
v -8.321500 0.253500 6.000000
v -2.499500 6.273500 6.000000
v 2.020500 9.286500 6.000000
v 3.683500 7.160500 6.000000
v 0.007500 4.682500 6.000000
v -1.925500 1.830500 6.000000
v 8.321500 -5.308500 6.000000
v 5.724500 -9.286500 6.000000
vn 0.000000 0.000000 -1.000000
vn 0.000000 0.000000 -1.000000
vn 0.000000 0.000000 -1.000000
vn 0.000000 0.000000 -1.000000
vn 0.000000 0.000000 -1.000000
vn 0.000000 0.000000 -1.000000
vn 0.000000 0.000000 1.000000
vn 0.000000 0.000000 1.000000
vn 0.000000 0.000000 1.000000
vn 0.000000 0.000000 1.000000
vn 0.000000 0.000000 1.000000
vn 0.000000 0.000000 1.000000
vn -0.718829 0.695187 0.000000
vn -0.718829 0.695187 0.000000
vn -0.554658 0.832079 0.000000
vn -0.554658 0.832079 0.000000
vn 0.787654 0.616118 0.000000
vn 0.787654 0.616118 -0.000000
vn 0.558961 -0.829194 0.000000
vn 0.558961 -0.829194 0.000000
vn 0.827784 -0.561047 0.000000
vn 0.827784 -0.561047 0.000000
vn 0.571639 0.820505 0.000000
vn 0.571639 0.820505 -0.000000
vn 0.837355 -0.546659 0.000000
vn 0.837355 -0.546659 0.000000
vn -0.561856 -0.827235 0.000000
vn -0.561856 -0.827235 0.000000
usemtl assumed_base
f 1//1 2//1 3//1
f 1//2 3//2 4//2
f 1//3 4//3 5//3
f 1//4 5//4 6//4
f 8//5 1//5 6//5
f 6//6 7//6 8//6
usemtl assumed_roof
f 9//7 11//7 10//7
f 9//8 12//8 11//8
f 9//9 13//9 12//9
f 9//10 14//10 13//10
f 16//11 14//11 9//11
f 14//12 16//12 15//12
usemtl assumed_wall
f 1//13 10//13 2//13
f 1//14 9//14 10//14
f 2//15 11//15 3//15
f 2//16 10//16 11//16
f 3//17 12//17 4//17
f 3//18 11//18 12//18
f 4//19 13//19 5//19
f 4//20 12//20 13//20
f 5//21 14//21 6//21
f 5//22 13//22 14//22
f 6//23 15//23 7//23
f 6//24 14//24 15//24
f 7//25 16//25 8//25
f 7//26 15//26 16//26
f 8//27 9//27 1//27
f 8//28 16//28 9//28
