# construction_4580_assumed_A_Casa
# source A_Casa
# h_campo 0.000000
# modeled_height 6.000000
# height_kind assumed
# local_origin_world_x 172001.034850
# local_origin_world_y 402500.144600
mtllib construction_artifacts.mtl

o construction_4580_assumed_A_Casa
v -8.030000 3.924000 0.000000
v -4.061000 5.332000 0.000000
v -4.422000 6.582000 0.000000
v 2.093000 8.510000 0.000000
v 8.030000 -7.121000 0.000000
v 3.015000 -8.510000 0.000000
v 1.781000 -5.318000 0.000000
v 0.043000 -6.170000 0.000000
v -1.644000 -0.433000 0.000000
v -5.758000 -1.784000 0.000000
v -8.030000 3.924000 6.000000
v -4.061000 5.332000 6.000000
v -4.422000 6.582000 6.000000
v 2.093000 8.510000 6.000000
v 8.030000 -7.121000 6.000000
v 3.015000 -8.510000 6.000000
v 1.781000 -5.318000 6.000000
v 0.043000 -6.170000 6.000000
v -1.644000 -0.433000 6.000000
v -5.758000 -1.784000 6.000000
vn 0.000000 0.000000 -1.000000
vn 0.000000 0.000000 -1.000000
vn 0.000000 0.000000 -1.000000
vn 0.000000 0.000000 -1.000000
vn 0.000000 -0.000000 -1.000000
vn 0.000000 0.000000 -1.000000
vn 0.000000 0.000000 -1.000000
vn 0.000000 0.000000 -1.000000
vn 0.000000 -0.000000 1.000000
vn 0.000000 -0.000000 1.000000
vn 0.000000 0.000000 1.000000
vn 0.000000 0.000000 1.000000
vn 0.000000 0.000000 1.000000
vn 0.000000 0.000000 1.000000
vn 0.000000 0.000000 1.000000
vn 0.000000 0.000000 1.000000
vn -0.334335 0.942454 0.000000
vn -0.334335 0.942454 0.000000
vn -0.960737 -0.277461 0.000000
vn -0.960737 -0.277461 0.000000
vn -0.283768 0.958893 0.000000
vn -0.283768 0.958893 0.000000
vn 0.934839 0.355072 0.000000
vn 0.934839 0.355072 -0.000000
vn 0.266920 -0.963719 0.000000
vn 0.266920 -0.963719 0.000000
vn -0.932727 -0.360584 0.000000
vn -0.932727 -0.360584 0.000000
vn 0.440174 -0.897913 0.000000
vn 0.440174 -0.897913 0.000000
vn -0.959381 -0.282112 0.000000
vn -0.959381 -0.282112 0.000000
vn 0.311998 -0.950083 0.000000
vn 0.311998 -0.950083 0.000000
vn -0.929104 -0.369819 0.000000
vn -0.929104 -0.369819 0.000000
usemtl assumed_base
f 10//1 1//1 2//1
f 2//2 3//2 4//2
f 10//3 2//3 4//3
f 4//4 5//4 6//4
f 4//5 6//5 7//5
f 4//6 7//6 8//6
f 4//7 8//7 9//7
f 4//8 9//8 10//8
usemtl assumed_roof
f 20//9 12//9 11//9
f 12//10 14//10 13//10
f 20//11 14//11 12//11
f 14//12 16//12 15//12
f 14//13 17//13 16//13
f 14//14 18//14 17//14
f 14//15 19//15 18//15
f 14//16 20//16 19//16
usemtl assumed_wall
f 1//17 12//17 2//17
f 1//18 11//18 12//18
f 2//19 13//19 3//19
f 2//20 12//20 13//20
f 3//21 14//21 4//21
f 3//22 13//22 14//22
f 4//23 15//23 5//23
f 4//24 14//24 15//24
f 5//25 16//25 6//25
f 5//26 15//26 16//26
f 6//27 17//27 7//27
f 6//28 16//28 17//28
f 7//29 18//29 8//29
f 7//30 17//30 18//30
f 8//31 19//31 9//31
f 8//32 18//32 19//32
f 9//33 20//33 10//33
f 9//34 19//34 20//34
f 10//35 11//35 1//35
f 10//36 20//36 11//36
