# construction_1932_assumed_A_Casa
# source A_Casa
# h_campo 0.000000
# modeled_height 6.000000
# height_kind assumed
# local_origin_world_x 172001.034850
# local_origin_world_y 402500.144600
mtllib construction_artifacts.mtl

o construction_1932_assumed_A_Casa
v 26.281500 18.580000 0.000000
v 27.576500 1.719000 0.000000
v 28.601500 -12.871000 0.000000
v 7.306500 -14.864000 0.000000
v 10.639500 -28.359000 0.000000
v 7.533500 -28.610000 0.000000
v 8.564500 -32.631000 0.000000
v 3.148500 -33.567000 0.000000
v 3.299500 -35.415000 0.000000
v -6.037500 -37.372000 0.000000
v -8.758500 -24.643000 0.000000
v -7.296500 -23.224000 0.000000
v -2.332500 -22.407000 0.000000
v -2.784500 -18.269000 0.000000
v -3.242500 -15.516000 0.000000
v -9.930500 -14.980000 0.000000
v -13.757500 -13.681000 0.000000
v -13.763500 -11.311000 0.000000
v -9.759500 -12.109000 0.000000
v -9.727500 -13.426000 0.000000
v 7.289500 -11.334000 0.000000
v 6.748500 -7.058000 0.000000
v 3.349500 -8.245000 0.000000
v 1.855500 -4.021000 0.000000
v -11.430500 -7.697000 0.000000
v -12.886500 -3.088000 0.000000
v 3.317500 1.726000 0.000000
v 1.932500 5.981000 0.000000
v 6.647500 8.252000 0.000000
v 4.910500 10.923000 0.000000
v 8.997500 13.056000 0.000000
v 10.714500 10.316000 0.000000
v 17.376500 12.494000 0.000000
v 17.281500 15.680000 0.000000
v 12.504500 14.686000 0.000000
v 12.010500 15.521000 0.000000
v 8.335500 14.608000 0.000000
v 7.022500 17.093000 0.000000
v 2.820500 13.721000 0.000000
v 1.401500 14.800000 0.000000
v -7.243500 11.202000 0.000000
v -9.360500 16.930000 0.000000
v -11.717500 15.951000 0.000000
v -10.857500 13.829000 0.000000
v -13.549500 12.594000 0.000000
v -10.596500 6.878000 0.000000
v -11.912500 5.961000 0.000000
v -11.134500 5.304000 0.000000
v -8.072500 8.201000 0.000000
v -8.722500 8.740000 0.000000
v -6.406500 10.574000 0.000000
v -3.971500 7.531000 0.000000
v -12.225500 0.463000 0.000000
v -27.829500 13.753000 0.000000
v -28.601500 20.577000 0.000000
v -20.225500 21.627000 0.000000
v -12.130500 24.692000 0.000000
v -11.212500 23.229000 0.000000
v -2.870500 26.197000 0.000000
v -3.848500 28.014000 0.000000
v 7.662500 34.548000 0.000000
v 12.927500 37.372000 0.000000
v 12.996500 36.317000 0.000000
v 13.557500 27.727000 0.000000
v 13.822500 23.558000 0.000000
v 14.667500 23.649000 0.000000
v 14.808500 17.877000 0.000000
v 26.281500 18.580000 6.000000
v 27.576500 1.719000 6.000000
v 28.601500 -12.871000 6.000000
v 7.306500 -14.864000 6.000000
v 10.639500 -28.359000 6.000000
v 7.533500 -28.610000 6.000000
v 8.564500 -32.631000 6.000000
v 3.148500 -33.567000 6.000000
v 3.299500 -35.415000 6.000000
v -6.037500 -37.372000 6.000000
v -8.758500 -24.643000 6.000000
v -7.296500 -23.224000 6.000000
v -2.332500 -22.407000 6.000000
v -2.784500 -18.269000 6.000000
v -3.242500 -15.516000 6.000000
v -9.930500 -14.980000 6.000000
v -13.757500 -13.681000 6.000000
v -13.763500 -11.311000 6.000000
v -9.759500 -12.109000 6.000000
v -9.727500 -13.426000 6.000000
v 7.289500 -11.334000 6.000000
v 6.748500 -7.058000 6.000000
v 3.349500 -8.245000 6.000000
v 1.855500 -4.021000 6.000000
v -11.430500 -7.697000 6.000000
v -12.886500 -3.088000 6.000000
v 3.317500 1.726000 6.000000
v 1.932500 5.981000 6.000000
v 6.647500 8.252000 6.000000
v 4.910500 10.923000 6.000000
v 8.997500 13.056000 6.000000
v 10.714500 10.316000 6.000000
v 17.376500 12.494000 6.000000
v 17.281500 15.680000 6.000000
v 12.504500 14.686000 6.000000
v 12.010500 15.521000 6.000000
v 8.335500 14.608000 6.000000
v 7.022500 17.093000 6.000000
v 2.820500 13.721000 6.000000
v 1.401500 14.800000 6.000000
v -7.243500 11.202000 6.000000
v -9.360500 16.930000 6.000000
v -11.717500 15.951000 6.000000
v -10.857500 13.829000 6.000000
v -13.549500 12.594000 6.000000
v -10.596500 6.878000 6.000000
v -11.912500 5.961000 6.000000
v -11.134500 5.304000 6.000000
v -8.072500 8.201000 6.000000
v -8.722500 8.740000 6.000000
v -6.406500 10.574000 6.000000
v -3.971500 7.531000 6.000000
v -12.225500 0.463000 6.000000
v -27.829500 13.753000 6.000000
v -28.601500 20.577000 6.000000
v -20.225500 21.627000 6.000000
v -12.130500 24.692000 6.000000
v -11.212500 23.229000 6.000000
v -2.870500 26.197000 6.000000
v -3.848500 28.014000 6.000000
v 7.662500 34.548000 6.000000
v 12.927500 37.372000 6.000000
v 12.996500 36.317000 6.000000
v 13.557500 27.727000 6.000000
v 13.822500 23.558000 6.000000
v 14.667500 23.649000 6.000000
v 14.808500 17.877000 6.000000
vn 0.000000 0.000000 -1.000000
vn 0.000000 -0.000000 -1.000000
vn 0.000000 0.000000 -1.000000
vn 0.000000 -0.000000 -1.000000
vn 0.000000 -0.000000 -1.000000
vn 0.000000 -0.000000 -1.000000
vn 0.000000 0.000000 -1.000000
vn 0.000000 0.000000 -1.000000
vn 0.000000 0.000000 -1.000000
vn 0.000000 0.000000 -1.000000
vn 0.000000 0.000000 -1.000000
vn 0.000000 0.000000 -1.000000
vn 0.000000 0.000000 -1.000000
vn 0.000000 0.000000 -1.000000
vn 0.000000 0.000000 -1.000000
vn 0.000000 0.000000 -1.000000
vn 0.000000 0.000000 -1.000000
vn 0.000000 0.000000 -1.000000
vn 0.000000 0.000000 -1.000000
vn 0.000000 0.000000 -1.000000
vn 0.000000 0.000000 -1.000000
vn 0.000000 0.000000 -1.000000
vn -0.000000 0.000000 -1.000000
vn 0.000000 0.000000 -1.000000
vn 0.000000 0.000000 -1.000000
vn 0.000000 0.000000 -1.000000
vn 0.000000 0.000000 -1.000000
vn 0.000000 0.000000 -1.000000
vn 0.000000 0.000000 -1.000000
vn 0.000000 0.000000 -1.000000
vn 0.000000 0.000000 -1.000000
vn 0.000000 0.000000 -1.000000
vn 0.000000 0.000000 -1.000000
vn 0.000000 -0.000000 -1.000000
vn 0.000000 0.000000 -1.000000
vn 0.000000 0.000000 -1.000000
vn 0.000000 0.000000 -1.000000
vn 0.000000 0.000000 -1.000000
vn -0.000000 0.000000 -1.000000
vn 0.000000 0.000000 -1.000000
vn 0.000000 0.000000 -1.000000
vn 0.000000 -0.000000 -1.000000
vn 0.000000 0.000000 -1.000000
vn 0.000000 0.000000 -1.000000
vn 0.000000 0.000000 -1.000000
vn 0.000000 0.000000 -1.000000
vn 0.000000 -0.000000 -1.000000
vn 0.000000 -0.000000 -1.000000
vn 0.000000 0.000000 -1.000000
vn -0.000000 -0.000000 -1.000000
vn 0.000000 0.000000 -1.000000
vn 0.000000 0.000000 -1.000000
vn -0.000000 0.000000 -1.000000
vn -0.000000 0.000000 -1.000000
vn 0.000000 0.000000 -1.000000
vn 0.000000 0.000000 -1.000000
vn 0.000000 0.000000 -1.000000
vn 0.000000 0.000000 -1.000000
vn 0.000000 0.000000 -1.000000
vn 0.000000 0.000000 -1.000000
vn 0.000000 0.000000 -1.000000
vn 0.000000 0.000000 -1.000000
vn 0.000000 0.000000 -1.000000
vn 0.000000 0.000000 -1.000000
vn 0.000000 0.000000 -1.000000
vn 0.000000 0.000000 1.000000
vn 0.000000 0.000000 1.000000
vn 0.000000 0.000000 1.000000
vn 0.000000 0.000000 1.000000
vn 0.000000 0.000000 1.000000
vn 0.000000 0.000000 1.000000
vn 0.000000 0.000000 1.000000
vn 0.000000 0.000000 1.000000
vn 0.000000 0.000000 1.000000
vn 0.000000 -0.000000 1.000000
vn 0.000000 0.000000 1.000000
vn 0.000000 -0.000000 1.000000
vn 0.000000 0.000000 1.000000
vn 0.000000 0.000000 1.000000
vn 0.000000 -0.000000 1.000000
vn 0.000000 -0.000000 1.000000
vn 0.000000 -0.000000 1.000000
vn 0.000000 0.000000 1.000000
vn 0.000000 0.000000 1.000000
vn 0.000000 0.000000 1.000000
vn 0.000000 0.000000 1.000000
vn 0.000000 0.000000 1.000000
vn 0.000000 0.000000 1.000000
vn 0.000000 -0.000000 1.000000
vn 0.000000 0.000000 1.000000
vn 0.000000 -0.000000 1.000000
vn 0.000000 -0.000000 1.000000
vn 0.000000 0.000000 1.000000
vn 0.000000 0.000000 1.000000
vn 0.000000 0.000000 1.000000
vn 0.000000 0.000000 1.000000
vn 0.000000 0.000000 1.000000
vn -0.000000 0.000000 1.000000
vn 0.000000 0.000000 1.000000
vn 0.000000 0.000000 1.000000
vn 0.000000 0.000000 1.000000
vn 0.000000 0.000000 1.000000
vn 0.000000 0.000000 1.000000
vn 0.000000 0.000000 1.000000
vn 0.000000 0.000000 1.000000
vn 0.000000 0.000000 1.000000
vn 0.000000 0.000000 1.000000
vn 0.000000 0.000000 1.000000
vn 0.000000 -0.000000 1.000000
vn -0.000000 0.000000 1.000000
vn 0.000000 0.000000 1.000000
vn -0.000000 0.000000 1.000000
vn 0.000000 0.000000 1.000000
vn 0.000000 0.000000 1.000000
vn 0.000000 0.000000 1.000000
vn 0.000000 0.000000 1.000000
vn 0.000000 0.000000 1.000000
vn 0.000000 0.000000 1.000000
vn 0.000000 0.000000 1.000000
vn 0.000000 0.000000 1.000000
vn 0.000000 0.000000 1.000000
vn 0.000000 0.000000 1.000000
vn 0.000000 0.000000 1.000000
vn 0.000000 0.000000 1.000000
vn 0.000000 0.000000 1.000000
vn 0.000000 0.000000 1.000000
vn -0.000000 0.000000 1.000000
vn 0.000000 0.000000 1.000000
vn 0.000000 0.000000 1.000000
vn -0.000000 0.000000 1.000000
vn 0.997064 0.076579 0.000000
vn 0.997064 0.076579 -0.000000
vn 0.997541 0.070081 0.000000
vn 0.997541 0.070081 -0.000000
vn 0.093183 -0.995649 0.000000
vn 0.093183 -0.995649 0.000000
vn 0.970828 0.239776 0.000000
vn 0.970828 0.239776 -0.000000
vn 0.080549 -0.996751 0.000000
vn 0.080549 -0.996751 0.000000
vn 0.968665 0.248370 0.000000
vn 0.968665 0.248370 -0.000000
vn 0.170297 -0.985393 0.000000
vn 0.170297 -0.985393 0.000000
vn 0.996678 0.081439 0.000000
vn 0.996678 0.081439 -0.000000
vn 0.205139 -0.978733 0.000000
vn 0.205139 -0.978733 0.000000
vn -0.977907 -0.209041 0.000000
vn -0.977907 -0.209041 0.000000
vn -0.696475 0.717581 0.000000
vn -0.696475 0.717581 0.000000
vn -0.162400 0.986725 0.000000
vn -0.162400 0.986725 0.000000
vn -0.994087 -0.108586 0.000000
vn -0.994087 -0.108586 0.000000
vn -0.986442 -0.164108 0.000000
vn -0.986442 -0.164108 0.000000
vn -0.079887 -0.996804 0.000000
vn -0.079887 -0.996804 0.000000
vn -0.321419 -0.946937 0.000000
vn -0.321419 -0.946937 0.000000
vn -0.999997 -0.002532 0.000000
vn -0.999997 -0.002532 0.000000
vn 0.195457 0.980712 0.000000
vn 0.195457 0.980712 -0.000000
vn 0.999705 0.024290 0.000000
vn 0.999705 0.024290 -0.000000
vn -0.122017 0.992528 0.000000
vn -0.122017 0.992528 0.000000
vn -0.992091 -0.125519 0.000000
vn -0.992091 -0.125519 0.000000
vn 0.329695 -0.944088 0.000000
vn 0.329695 -0.944088 0.000000
vn -0.942768 -0.333450 0.000000
vn -0.942768 -0.333450 0.000000
vn 0.266663 -0.963790 0.000000
vn 0.266663 -0.963790 0.000000
vn -0.953551 -0.301230 0.000000
vn -0.953551 -0.301230 0.000000
vn -0.284785 0.958591 0.000000
vn -0.284785 0.958591 0.000000
vn -0.950894 -0.309516 0.000000
vn -0.950894 -0.309516 0.000000
vn -0.433942 0.900941 0.000000
vn -0.433942 0.900941 0.000000
vn -0.838322 -0.545176 0.000000
vn -0.838322 -0.545176 0.000000
vn -0.462677 0.886527 0.000000
vn -0.462677 0.886527 0.000000
vn 0.847372 0.530999 0.000000
vn 0.847372 0.530999 -0.000000
vn -0.310744 0.950494 0.000000
vn -0.310744 0.950494 0.000000
vn -0.999556 -0.029805 0.000000
vn -0.999556 -0.029805 0.000000
vn 0.203717 -0.979030 0.000000
vn 0.203717 -0.979030 0.000000
vn -0.860660 -0.509181 0.000000
vn -0.860660 -0.509181 0.000000
vn 0.241106 -0.970499 0.000000
vn 0.241106 -0.970499 0.000000
vn -0.884168 -0.467168 0.000000
vn -0.884168 -0.467168 0.000000
vn 0.625871 -0.779926 0.000000
vn 0.625871 -0.779926 0.000000
vn -0.605282 -0.796011 0.000000
vn -0.605282 -0.796011 0.000000
vn 0.384244 -0.923232 0.000000
vn 0.384244 -0.923232 0.000000
vn -0.937988 -0.346669 0.000000
vn -0.937988 -0.346669 0.000000
vn 0.383586 -0.923505 0.000000
vn 0.383586 -0.923505 0.000000
vn 0.926780 0.375604 0.000000
vn 0.926780 0.375604 -0.000000
vn 0.416980 -0.908916 0.000000
vn 0.416980 -0.908916 0.000000
vn 0.888443 0.458987 0.000000
vn 0.888443 0.458987 -0.000000
vn 0.571704 -0.820460 0.000000
vn 0.571704 -0.820460 0.000000
vn 0.645194 0.764019 0.000000
vn 0.645194 0.764019 -0.000000
vn -0.687264 0.726408 0.000000
vn -0.687264 0.726408 0.000000
vn -0.638319 -0.769772 0.000000
vn -0.638319 -0.769772 0.000000
vn -0.620807 0.783963 0.000000
vn -0.620807 0.783963 0.000000
vn 0.780794 0.624789 0.000000
vn 0.780794 0.624789 -0.000000
vn 0.650428 -0.759568 0.000000
vn 0.650428 -0.759568 0.000000
vn -0.648402 -0.761299 0.000000
vn -0.648402 -0.761299 0.000000
vn -0.993662 -0.112413 0.000000
vn -0.993662 -0.112413 0.000000
vn -0.124385 0.992234 0.000000
vn -0.124385 0.992234 0.000000
vn -0.354097 0.935209 0.000000
vn -0.354097 0.935209 0.000000
vn 0.847054 0.531507 0.000000
vn 0.847054 0.531507 -0.000000
vn -0.335206 0.942145 0.000000
vn -0.335206 0.942145 0.000000
vn -0.880549 -0.473955 0.000000
vn -0.880549 -0.473955 0.000000
vn -0.493647 0.869662 0.000000
vn -0.493647 0.869662 0.000000
vn -0.472672 0.881238 0.000000
vn -0.472672 0.881238 0.000000
vn 0.997868 0.065263 0.000000
vn 0.997868 0.065263 -0.000000
vn 0.997874 0.065170 0.000000
vn 0.997874 0.065170 -0.000000
vn 0.997986 0.063436 0.000000
vn 0.997986 0.063436 -0.000000
vn -0.107073 0.994251 0.000000
vn -0.107073 0.994251 0.000000
vn 0.999702 0.024421 0.000000
vn 0.999702 0.024421 -0.000000
vn -0.061160 0.998128 0.000000
vn -0.061160 0.998128 0.000000
usemtl assumed_base
f 1//1 2//1 3//1
f 1//2 3//2 4//2
f 4//3 5//3 6//3
f 6//4 7//4 8//4
f 4//5 6//5 8//5
f 8//6 9//6 10//6
f 4//7 8//7 10//7
f 1//8 4//8 10//8
f 10//9 11//9 12//9
f 10//10 12//10 13//10
f 15//11 16//11 17//11
f 17//12 18//12 19//12
f 17//13 19//13 20//13
f 15//14 17//14 20//14
f 15//15 20//15 21//15
f 14//16 15//16 21//16
f 13//17 14//17 21//17
f 10//18 13//18 21//18
f 1//19 10//19 21//19
f 1//20 21//20 22//20
f 1//21 22//21 23//21
f 1//22 23//22 24//22
f 24//23 25//23 26//23
f 24//24 26//24 27//24
f 1//25 24//25 27//25
f 27//26 28//26 29//26
f 29//27 30//27 31//27
f 29//28 31//28 32//28
f 27//29 29//29 32//29
f 27//30 32//30 33//30
f 1//31 27//31 33//31
f 1//32 33//32 34//32
f 67//33 1//33 34//33
f 67//34 34//34 35//34
f 67//35 35//35 36//35
f 67//36 36//36 37//36
f 67//37 37//37 38//37
f 38//38 39//38 40//38
f 40//39 41//39 42//39
f 38//40 40//40 42//40
f 67//41 38//41 42//41
f 43//42 44//42 45//42
f 45//43 46//43 47//43
f 49//44 50//44 51//44
f 49//45 51//45 52//45
f 48//46 49//46 52//46
f 48//47 52//47 53//47
f 47//48 48//48 53//48
f 45//49 47//49 53//49
f 45//50 53//50 54//50
f 43//51 45//51 54//51
f 42//52 43//52 54//52
f 42//53 54//53 55//53
f 67//54 42//54 55//54
f 67//55 55//55 56//55
f 56//56 57//56 58//56
f 67//57 56//57 58//57
f 67//58 58//58 59//58
f 67//59 59//59 60//59
f 67//60 60//60 61//60
f 61//61 62//61 63//61
f 61//62 63//62 64//62
f 61//63 64//63 65//63
f 67//64 61//64 65//64
f 65//65 66//65 67//65
usemtl assumed_roof
f 68//66 70//66 69//66
f 68//67 71//67 70//67
f 71//68 73//68 72//68
f 73//69 75//69 74//69
f 71//70 75//70 73//70
f 75//71 77//71 76//71
f 71//72 77//72 75//72
f 68//73 77//73 71//73
f 77//74 79//74 78//74
f 77//75 80//75 79//75
f 82//76 84//76 83//76
f 84//77 86//77 85//77
f 84//78 87//78 86//78
f 82//79 87//79 84//79
f 82//80 88//80 87//80
f 81//81 88//81 82//81
f 80//82 88//82 81//82
f 77//83 88//83 80//83
f 68//84 88//84 77//84
f 68//85 89//85 88//85
f 68//86 90//86 89//86
f 68//87 91//87 90//87
f 91//88 93//88 92//88
f 91//89 94//89 93//89
f 68//90 94//90 91//90
f 94//91 96//91 95//91
f 96//92 98//92 97//92
f 96//93 99//93 98//93
f 94//94 99//94 96//94
f 94//95 100//95 99//95
f 68//96 100//96 94//96
f 68//97 101//97 100//97
f 134//98 101//98 68//98
f 134//99 102//99 101//99
f 134//100 103//100 102//100
f 134//101 104//101 103//101
f 134//102 105//102 104//102
f 105//103 107//103 106//103
f 107//104 109//104 108//104
f 105//105 109//105 107//105
f 134//106 109//106 105//106
f 110//107 112//107 111//107
f 112//108 114//108 113//108
f 116//109 118//109 117//109
f 116//110 119//110 118//110
f 115//111 119//111 116//111
f 115//112 120//112 119//112
f 114//113 120//113 115//113
f 112//114 120//114 114//114
f 112//115 121//115 120//115
f 110//116 121//116 112//116
f 109//117 121//117 110//117
f 109//118 122//118 121//118
f 134//119 122//119 109//119
f 134//120 123//120 122//120
f 123//121 125//121 124//121
f 134//122 125//122 123//122
f 134//123 126//123 125//123
f 134//124 127//124 126//124
f 134//125 128//125 127//125
f 128//126 130//126 129//126
f 128//127 131//127 130//127
f 128//128 132//128 131//128
f 134//129 132//129 128//129
f 132//130 134//130 133//130
usemtl assumed_wall
f 1//131 69//131 2//131
f 1//132 68//132 69//132
f 2//133 70//133 3//133
f 2//134 69//134 70//134
f 3//135 71//135 4//135
f 3//136 70//136 71//136
f 4//137 72//137 5//137
f 4//138 71//138 72//138
f 5//139 73//139 6//139
f 5//140 72//140 73//140
f 6//141 74//141 7//141
f 6//142 73//142 74//142
f 7//143 75//143 8//143
f 7//144 74//144 75//144
f 8//145 76//145 9//145
f 8//146 75//146 76//146
f 9//147 77//147 10//147
f 9//148 76//148 77//148
f 10//149 78//149 11//149
f 10//150 77//150 78//150
f 11//151 79//151 12//151
f 11//152 78//152 79//152
f 12//153 80//153 13//153
f 12//154 79//154 80//154
f 13//155 81//155 14//155
f 13//156 80//156 81//156
f 14//157 82//157 15//157
f 14//158 81//158 82//158
f 15//159 83//159 16//159
f 15//160 82//160 83//160
f 16//161 84//161 17//161
f 16//162 83//162 84//162
f 17//163 85//163 18//163
f 17//164 84//164 85//164
f 18//165 86//165 19//165
f 18//166 85//166 86//166
f 19//167 87//167 20//167
f 19//168 86//168 87//168
f 20//169 88//169 21//169
f 20//170 87//170 88//170
f 21//171 89//171 22//171
f 21//172 88//172 89//172
f 22//173 90//173 23//173
f 22//174 89//174 90//174
f 23//175 91//175 24//175
f 23//176 90//176 91//176
f 24//177 92//177 25//177
f 24//178 91//178 92//178
f 25//179 93//179 26//179
f 25//180 92//180 93//180
f 26//181 94//181 27//181
f 26//182 93//182 94//182
f 27//183 95//183 28//183
f 27//184 94//184 95//184
f 28//185 96//185 29//185
f 28//186 95//186 96//186
f 29//187 97//187 30//187
f 29//188 96//188 97//188
f 30//189 98//189 31//189
f 30//190 97//190 98//190
f 31//191 99//191 32//191
f 31//192 98//192 99//192
f 32//193 100//193 33//193
f 32//194 99//194 100//194
f 33//195 101//195 34//195
f 33//196 100//196 101//196
f 34//197 102//197 35//197
f 34//198 101//198 102//198
f 35//199 103//199 36//199
f 35//200 102//200 103//200
f 36//201 104//201 37//201
f 36//202 103//202 104//202
f 37//203 105//203 38//203
f 37//204 104//204 105//204
f 38//205 106//205 39//205
f 38//206 105//206 106//206
f 39//207 107//207 40//207
f 39//208 106//208 107//208
f 40//209 108//209 41//209
f 40//210 107//210 108//210
f 41//211 109//211 42//211
f 41//212 108//212 109//212
f 42//213 110//213 43//213
f 42//214 109//214 110//214
f 43//215 111//215 44//215
f 43//216 110//216 111//216
f 44//217 112//217 45//217
f 44//218 111//218 112//218
f 45//219 113//219 46//219
f 45//220 112//220 113//220
f 46//221 114//221 47//221
f 46//222 113//222 114//222
f 47//223 115//223 48//223
f 47//224 114//224 115//224
f 48//225 116//225 49//225
f 48//226 115//226 116//226
f 49//227 117//227 50//227
f 49//228 116//228 117//228
f 50//229 118//229 51//229
f 50//230 117//230 118//230
f 51//231 119//231 52//231
f 51//232 118//232 119//232
f 52//233 120//233 53//233
f 52//234 119//234 120//234
f 53//235 121//235 54//235
f 53//236 120//236 121//236
f 54//237 122//237 55//237
f 54//238 121//238 122//238
f 55//239 123//239 56//239
f 55//240 122//240 123//240
f 56//241 124//241 57//241
f 56//242 123//242 124//242
f 57//243 125//243 58//243
f 57//244 124//244 125//244
f 58//245 126//245 59//245
f 58//246 125//246 126//246
f 59//247 127//247 60//247
f 59//248 126//248 127//248
f 60//249 128//249 61//249
f 60//250 127//250 128//250
f 61//251 129//251 62//251
f 61//252 128//252 129//252
f 62//253 130//253 63//253
f 62//254 129//254 130//254
f 63//255 131//255 64//255
f 63//256 130//256 131//256
f 64//257 132//257 65//257
f 64//258 131//258 132//258
f 65//259 133//259 66//259
f 65//260 132//260 133//260
f 66//261 134//261 67//261
f 66//262 133//262 134//262
f 67//263 68//263 1//263
f 67//264 134//264 68//264
