# construction_3336_assumed_A_Casa
# source A_Casa
# h_campo 0.000000
# modeled_height 6.000000
# height_kind assumed
# local_origin_world_x 172001.034850
# local_origin_world_y 402500.144600
mtllib construction_artifacts.mtl

o construction_3336_assumed_A_Casa
v -10.536000 5.777000 0.000000
v -4.642000 8.341000 0.000000
v -6.400000 12.903000 0.000000
v 1.839000 15.967000 0.000000
v 10.536000 -3.820000 0.000000
v 2.665000 -7.655000 0.000000
v 4.152000 -10.742000 0.000000
v 5.878000 -10.047000 0.000000
v 7.239000 -13.626000 0.000000
v 0.909000 -15.967000 0.000000
v -1.909000 -9.709000 0.000000
v -3.425000 -10.515000 0.000000
v -10.536000 5.777000 6.000000
v -4.642000 8.341000 6.000000
v -6.400000 12.903000 6.000000
v 1.839000 15.967000 6.000000
v 10.536000 -3.820000 6.000000
v 2.665000 -7.655000 6.000000
v 4.152000 -10.742000 6.000000
v 5.878000 -10.047000 6.000000
v 7.239000 -13.626000 6.000000
v 0.909000 -15.967000 6.000000
v -1.909000 -9.709000 6.000000
v -3.425000 -10.515000 6.000000
vn 0.000000 0.000000 -1.000000
vn 0.000000 0.000000 -1.000000
vn 0.000000 0.000000 -1.000000
vn 0.000000 0.000000 -1.000000
vn 0.000000 0.000000 -1.000000
vn 0.000000 -0.000000 -1.000000
vn 0.000000 -0.000000 -1.000000
vn 0.000000 -0.000000 -1.000000
vn 0.000000 0.000000 -1.000000
vn 0.000000 0.000000 -1.000000
vn 0.000000 0.000000 1.000000
vn 0.000000 -0.000000 1.000000
vn 0.000000 -0.000000 1.000000
vn 0.000000 0.000000 1.000000
vn -0.000000 0.000000 1.000000
vn 0.000000 0.000000 1.000000
vn 0.000000 0.000000 1.000000
vn 0.000000 0.000000 1.000000
vn 0.000000 0.000000 1.000000
vn 0.000000 0.000000 1.000000
vn -0.398908 0.916991 0.000000
vn -0.398908 0.916991 0.000000
vn -0.933113 -0.359582 0.000000
vn -0.933113 -0.359582 0.000000
vn -0.348566 0.937284 0.000000
vn -0.348566 0.937284 0.000000
vn 0.915473 0.402379 0.000000
vn 0.915473 0.402379 -0.000000
vn 0.438007 -0.898971 0.000000
vn 0.438007 -0.898971 0.000000
vn 0.900926 0.433974 0.000000
vn 0.900926 0.433974 -0.000000
vn -0.373521 0.927622 0.000000
vn -0.373521 0.927622 0.000000
vn 0.934699 0.355441 0.000000
vn 0.934699 0.355441 -0.000000
vn 0.346866 -0.937915 0.000000
vn 0.346866 -0.937915 0.000000
vn -0.911818 -0.410595 0.000000
vn -0.911818 -0.410595 0.000000
vn 0.469439 -0.882965 0.000000
vn 0.469439 -0.882965 0.000000
vn -0.916503 -0.400028 0.000000
vn -0.916503 -0.400028 0.000000
usemtl assumed_base
f 12//1 1//1 2//1
f 2//2 3//2 4//2
f 12//3 2//3 4//3
f 4//4 5//4 6//4
f 7//5 8//5 9//5
f 7//6 9//6 10//6
f 6//7 7//7 10//7
f 4//8 6//8 10//8
f 4//9 10//9 11//9
f 4//10 11//10 12//10
usemtl assumed_roof
f 24//11 14//11 13//11
f 14//12 16//12 15//12
f 24//13 16//13 14//13
f 16//14 18//14 17//14
f 19//15 21//15 20//15
f 19//16 22//16 21//16
f 18//17 22//17 19//17
f 16//18 22//18 18//18
f 16//19 23//19 22//19
f 16//20 24//20 23//20
usemtl assumed_wall
f 1//21 14//21 2//21
f 1//22 13//22 14//22
f 2//23 15//23 3//23
f 2//24 14//24 15//24
f 3//25 16//25 4//25
f 3//26 15//26 16//26
f 4//27 17//27 5//27
f 4//28 16//28 17//28
f 5//29 18//29 6//29
f 5//30 17//30 18//30
f 6//31 19//31 7//31
f 6//32 18//32 19//32
f 7//33 20//33 8//33
f 7//34 19//34 20//34
f 8//35 21//35 9//35
f 8//36 20//36 21//36
f 9//37 22//37 10//37
f 9//38 21//38 22//38
f 10//39 23//39 11//39
f 10//40 22//40 23//40
f 11//41 24//41 12//41
f 11//42 23//42 24//42
f 12//43 13//43 1//43
f 12//44 24//44 13//44
