# construction_4364_assumed_A_Casa
# source A_Casa
# h_campo 0.000000
# modeled_height 6.000000
# height_kind assumed
# local_origin_world_x 172001.034850
# local_origin_world_y 402500.144600
mtllib construction_artifacts.mtl

o construction_4364_assumed_A_Casa
v -6.575000 -0.072000 0.000000
v -1.619000 5.175000 0.000000
v 6.575000 -1.121000 0.000000
v 3.140000 -5.175000 0.000000
v -0.508000 -1.134000 0.000000
v -2.317000 -2.748000 0.000000
v -6.575000 -0.072000 6.000000
v -1.619000 5.175000 6.000000
v 6.575000 -1.121000 6.000000
v 3.140000 -5.175000 6.000000
v -0.508000 -1.134000 6.000000
v -2.317000 -2.748000 6.000000
vn 0.000000 0.000000 -1.000000
vn 0.000000 0.000000 -1.000000
vn 0.000000 0.000000 -1.000000
vn 0.000000 -0.000000 -1.000000
vn 0.000000 -0.000000 1.000000
vn 0.000000 0.000000 1.000000
vn 0.000000 0.000000 1.000000
vn 0.000000 0.000000 1.000000
vn -0.726979 0.686660 0.000000
vn -0.726979 0.686660 0.000000
vn 0.609280 0.792955 0.000000
vn 0.609280 0.792955 -0.000000
vn 0.762951 -0.646457 0.000000
vn 0.762951 -0.646457 0.000000
vn -0.742279 -0.670090 0.000000
vn -0.742279 -0.670090 0.000000
vn 0.665745 -0.746179 0.000000
vn 0.665745 -0.746179 0.000000
vn -0.532106 -0.846678 0.000000
vn -0.532106 -0.846678 0.000000
usemtl assumed_base
f 6//1 1//1 2//1
f 2//2 3//2 4//2
f 2//3 4//3 5//3
f 2//4 5//4 6//4
usemtl assumed_roof
f 12//5 8//5 7//5
f 8//6 10//6 9//6
f 8//7 11//7 10//7
f 8//8 12//8 11//8
usemtl assumed_wall
f 1//9 8//9 2//9
f 1//10 7//10 8//10
f 2//11 9//11 3//11
f 2//12 8//12 9//12
f 3//13 10//13 4//13
f 3//14 9//14 10//14
f 4//15 11//15 5//15
f 4//16 10//16 11//16
f 5//17 12//17 6//17
f 5//18 11//18 12//18
f 6//19 7//19 1//19
f 6//20 12//20 7//20
