# construction_1187_assumed_A_Casa
# source A_Casa
# h_campo 0.000000
# modeled_height 6.000000
# height_kind assumed
# local_origin_world_x 172001.034850
# local_origin_world_y 402500.144600
mtllib construction_artifacts.mtl

o construction_1187_assumed_A_Casa
v -7.545000 -11.425500 0.000000
v -6.801000 -2.525500 0.000000
v -1.640000 -2.566500 0.000000
v -0.938000 2.285500 0.000000
v -6.085000 2.663500 0.000000
v -4.547000 16.594500 0.000000
v 7.545000 15.689500 0.000000
v 6.126000 2.488500 0.000000
v 3.366000 -16.594500 0.000000
v -2.623000 -15.985500 0.000000
v -2.131000 -12.097500 0.000000
v -7.545000 -11.425500 6.000000
v -6.801000 -2.525500 6.000000
v -1.640000 -2.566500 6.000000
v -0.938000 2.285500 6.000000
v -6.085000 2.663500 6.000000
v -4.547000 16.594500 6.000000
v 7.545000 15.689500 6.000000
v 6.126000 2.488500 6.000000
v 3.366000 -16.594500 6.000000
v -2.623000 -15.985500 6.000000
v -2.131000 -12.097500 6.000000
vn 0.000000 0.000000 -1.000000
vn 0.000000 0.000000 -1.000000
vn 0.000000 0.000000 -1.000000
vn 0.000000 0.000000 -1.000000
vn 0.000000 0.000000 -1.000000
vn 0.000000 0.000000 -1.000000
vn 0.000000 0.000000 -1.000000
vn 0.000000 0.000000 -1.000000
vn 0.000000 0.000000 -1.000000
vn 0.000000 0.000000 1.000000
vn 0.000000 -0.000000 1.000000
vn 0.000000 0.000000 1.000000
vn 0.000000 0.000000 1.000000
vn 0.000000 -0.000000 1.000000
vn 0.000000 0.000000 1.000000
vn 0.000000 0.000000 1.000000
vn -0.000000 0.000000 1.000000
vn 0.000000 0.000000 1.000000
vn -0.996524 0.083305 0.000000
vn -0.996524 0.083305 0.000000
vn 0.007944 0.999968 0.000000
vn 0.007944 0.999968 -0.000000
vn -0.989695 0.143192 0.000000
vn -0.989695 0.143192 0.000000
vn -0.073244 -0.997314 0.000000
vn -0.073244 -0.997314 0.000000
vn -0.993961 0.109735 0.000000
vn -0.993961 0.109735 0.000000
vn 0.074634 0.997211 0.000000
vn 0.074634 0.997211 -0.000000
vn 0.994272 -0.106876 0.000000
vn 0.994272 -0.106876 0.000000
vn 0.989702 -0.143142 0.000000
vn 0.989702 -0.143142 0.000000
vn -0.101165 -0.994870 0.000000
vn -0.101165 -0.994870 0.000000
vn -0.992088 0.125542 0.000000
vn -0.992088 0.125542 0.000000
vn -0.123177 -0.992385 0.000000
vn -0.123177 -0.992385 0.000000
usemtl assumed_base
f 11//1 1//1 2//1
f 11//2 2//2 3//2
f 11//3 3//3 4//3
f 4//4 5//4 6//4
f 4//5 6//5 7//5
f 11//6 4//6 7//6
f 11//7 7//7 8//7
f 11//8 8//8 9//8
f 9//9 10//9 11//9
usemtl assumed_roof
f 22//10 13//10 12//10
f 22//11 14//11 13//11
f 22//12 15//12 14//12
f 15//13 17//13 16//13
f 15//14 18//14 17//14
f 22//15 18//15 15//15
f 22//16 19//16 18//16
f 22//17 20//17 19//17
f 20//18 22//18 21//18
usemtl assumed_wall
f 1//19 13//19 2//19
f 1//20 12//20 13//20
f 2//21 14//21 3//21
f 2//22 13//22 14//22
f 3//23 15//23 4//23
f 3//24 14//24 15//24
f 4//25 16//25 5//25
f 4//26 15//26 16//26
f 5//27 17//27 6//27
f 5//28 16//28 17//28
f 6//29 18//29 7//29
f 6//30 17//30 18//30
f 7//31 19//31 8//31
f 7//32 18//32 19//32
f 8//33 20//33 9//33
f 8//34 19//34 20//34
f 9//35 21//35 10//35
f 9//36 20//36 21//36
f 10//37 22//37 11//37
f 10//38 21//38 22//38
f 11//39 12//39 1//39
f 11//40 22//40 12//40
