# construction_2285_assumed_A_Casa
# source A_Casa
# h_campo 0.000000
# modeled_height 6.000000
# height_kind assumed
# local_origin_world_x 172001.034850
# local_origin_world_y 402500.144600
mtllib construction_artifacts.mtl

o construction_2285_assumed_A_Casa
v -16.604500 3.821000 0.000000
v -9.773500 6.922000 0.000000
v -10.137500 8.898000 0.000000
v -2.825500 12.096000 0.000000
v -3.196500 16.382000 0.000000
v 1.046500 17.597000 0.000000
v 1.240500 16.508000 0.000000
v 11.839500 19.486000 0.000000
v 14.054500 9.482000 0.000000
v 15.235500 9.608000 0.000000
v 16.604500 4.537000 0.000000
v -5.695500 -1.148000 0.000000
v -3.592500 -4.960000 0.000000
v -2.395500 -8.258000 0.000000
v -4.037500 -9.013000 0.000000
v -1.567500 -13.417000 0.000000
v 2.733500 -10.222000 0.000000
v 4.818500 -13.139000 0.000000
v -4.103500 -19.486000 0.000000
v -10.606500 -8.835000 0.000000
v -16.604500 3.821000 6.000000
v -9.773500 6.922000 6.000000
v -10.137500 8.898000 6.000000
v -2.825500 12.096000 6.000000
v -3.196500 16.382000 6.000000
v 1.046500 17.597000 6.000000
v 1.240500 16.508000 6.000000
v 11.839500 19.486000 6.000000
v 14.054500 9.482000 6.000000
v 15.235500 9.608000 6.000000
v 16.604500 4.537000 6.000000
v -5.695500 -1.148000 6.000000
v -3.592500 -4.960000 6.000000
v -2.395500 -8.258000 6.000000
v -4.037500 -9.013000 6.000000
v -1.567500 -13.417000 6.000000
v 2.733500 -10.222000 6.000000
v 4.818500 -13.139000 6.000000
v -4.103500 -19.486000 6.000000
v -10.606500 -8.835000 6.000000
vn 0.000000 0.000000 -1.000000
vn 0.000000 0.000000 -1.000000
vn 0.000000 0.000000 -1.000000
vn 0.000000 0.000000 -1.000000
vn 0.000000 0.000000 -1.000000
vn 0.000000 0.000000 -1.000000
vn 0.000000 0.000000 -1.000000
vn 0.000000 0.000000 -1.000000
vn 0.000000 0.000000 -1.000000
vn 0.000000 -0.000000 -1.000000
vn 0.000000 0.000000 -1.000000
vn 0.000000 0.000000 -1.000000
vn 0.000000 0.000000 -1.000000
vn 0.000000 0.000000 -1.000000
vn 0.000000 0.000000 -1.000000
vn 0.000000 0.000000 -1.000000
vn 0.000000 -0.000000 -1.000000
vn -0.000000 0.000000 -1.000000
vn 0.000000 -0.000000 1.000000
vn 0.000000 -0.000000 1.000000
vn 0.000000 0.000000 1.000000
vn 0.000000 -0.000000 1.000000
vn 0.000000 0.000000 1.000000
vn 0.000000 0.000000 1.000000
vn -0.000000 0.000000 1.000000
vn -0.000000 0.000000 1.000000
vn 0.000000 0.000000 1.000000
vn 0.000000 0.000000 1.000000
vn 0.000000 0.000000 1.000000
vn 0.000000 0.000000 1.000000
vn 0.000000 0.000000 1.000000
vn -0.000000 0.000000 1.000000
vn 0.000000 0.000000 1.000000
vn 0.000000 0.000000 1.000000
vn -0.000000 0.000000 1.000000
vn 0.000000 0.000000 1.000000
vn -0.413361 0.910567 0.000000
vn -0.413361 0.910567 0.000000
vn -0.983453 -0.181162 0.000000
vn -0.983453 -0.181162 0.000000
vn -0.400714 0.916203 0.000000
vn -0.400714 0.916203 0.000000
vn -0.996275 -0.086238 0.000000
vn -0.996275 -0.086238 0.000000
vn -0.275290 0.961361 0.000000
vn -0.275290 0.961361 0.000000
vn 0.984500 0.175384 0.000000
vn 0.984500 0.175384 -0.000000
vn -0.270496 0.962721 0.000000
vn -0.270496 0.962721 0.000000
vn 0.976354 0.216176 0.000000
vn 0.976354 0.216176 -0.000000
vn -0.106087 0.994357 0.000000
vn -0.106087 0.994357 0.000000
vn 0.965437 0.260636 0.000000
vn 0.965437 0.260636 -0.000000
vn 0.247032 -0.969007 0.000000
vn 0.247032 -0.969007 0.000000
vn 0.875594 0.483047 0.000000
vn 0.875594 0.483047 -0.000000
vn 0.940001 0.341171 0.000000
vn 0.940001 0.341171 -0.000000
vn 0.417759 -0.908558 0.000000
vn 0.417759 -0.908558 0.000000
vn 0.872188 0.489170 0.000000
vn 0.872188 0.489170 -0.000000
vn -0.596321 0.802746 0.000000
vn -0.596321 0.802746 0.000000
vn 0.813545 0.581502 0.000000
vn 0.813545 0.581502 -0.000000
vn 0.579673 -0.814849 0.000000
vn 0.579673 -0.814849 0.000000
vn -0.853494 -0.521103 0.000000
vn -0.853494 -0.521103 0.000000
vn -0.903653 -0.428264 0.000000
vn -0.903653 -0.428264 0.000000
usemtl assumed_base
f 20//1 1//1 2//1
f 2//2 3//2 4//2
f 20//3 2//3 4//3
f 4//4 5//4 6//4
f 20//5 4//5 6//5
f 20//6 6//6 7//6
f 7//7 8//7 9//7
f 9//8 10//8 11//8
f 7//9 9//9 11//9
f 7//10 11//10 12//10
f 20//11 7//11 12//11
f 20//12 12//12 13//12
f 20//13 13//13 14//13
f 20//14 14//14 15//14
f 20//15 15//15 16//15
f 16//16 17//16 18//16
f 16//17 18//17 19//17
f 16//18 19//18 20//18
usemtl assumed_roof
f 40//19 22//19 21//19
f 22//20 24//20 23//20
f 40//21 24//21 22//21
f 24//22 26//22 25//22
f 40//23 26//23 24//23
f 40//24 27//24 26//24
f 27//25 29//25 28//25
f 29//26 31//26 30//26
f 27//27 31//27 29//27
f 27//28 32//28 31//28
f 40//29 32//29 27//29
f 40//30 33//30 32//30
f 40//31 34//31 33//31
f 40//32 35//32 34//32
f 40//33 36//33 35//33
f 36//34 38//34 37//34
f 36//35 39//35 38//35
f 36//36 40//36 39//36
usemtl assumed_wall
f 1//37 22//37 2//37
f 1//38 21//38 22//38
f 2//39 23//39 3//39
f 2//40 22//40 23//40
f 3//41 24//41 4//41
f 3//42 23//42 24//42
f 4//43 25//43 5//43
f 4//44 24//44 25//44
f 5//45 26//45 6//45
f 5//46 25//46 26//46
f 6//47 27//47 7//47
f 6//48 26//48 27//48
f 7//49 28//49 8//49
f 7//50 27//50 28//50
f 8//51 29//51 9//51
f 8//52 28//52 29//52
f 9//53 30//53 10//53
f 9//54 29//54 30//54
f 10//55 31//55 11//55
f 10//56 30//56 31//56
f 11//57 32//57 12//57
f 11//58 31//58 32//58
f 12//59 33//59 13//59
f 12//60 32//60 33//60
f 13//61 34//61 14//61
f 13//62 33//62 34//62
f 14//63 35//63 15//63
f 14//64 34//64 35//64
f 15//65 36//65 16//65
f 15//66 35//66 36//66
f 16//67 37//67 17//67
f 16//68 36//68 37//68
f 17//69 38//69 18//69
f 17//70 37//70 38//70
f 18//71 39//71 19//71
f 18//72 38//72 39//72
f 19//73 40//73 20//73
f 19//74 39//74 40//74
f 20//75 21//75 1//75
f 20//76 40//76 21//76
