# construction_1975_assumed_A_Casa
# source A_Casa
# h_campo 0.000000
# modeled_height 6.000000
# height_kind assumed
# local_origin_world_x 172001.034850
# local_origin_world_y 402500.144600
mtllib construction_artifacts.mtl

o construction_1975_assumed_A_Casa
v -18.914000 -2.866000 0.000000
v 1.395000 2.003000 0.000000
v 4.190000 2.072000 0.000000
v 8.643000 6.608000 0.000000
v 11.978000 11.832000 0.000000
v 18.914000 5.837000 0.000000
v 14.090000 2.378000 0.000000
v 4.110000 -3.829000 0.000000
v -4.417000 -8.366000 0.000000
v -17.845000 -11.832000 0.000000
v -18.914000 -2.866000 6.000000
v 1.395000 2.003000 6.000000
v 4.190000 2.072000 6.000000
v 8.643000 6.608000 6.000000
v 11.978000 11.832000 6.000000
v 18.914000 5.837000 6.000000
v 14.090000 2.378000 6.000000
v 4.110000 -3.829000 6.000000
v -4.417000 -8.366000 6.000000
v -17.845000 -11.832000 6.000000
vn 0.000000 0.000000 -1.000000
vn 0.000000 0.000000 -1.000000
vn 0.000000 0.000000 -1.000000
vn 0.000000 0.000000 -1.000000
vn 0.000000 0.000000 -1.000000
vn 0.000000 0.000000 -1.000000
vn 0.000000 0.000000 -1.000000
vn 0.000000 0.000000 -1.000000
vn 0.000000 -0.000000 1.000000
vn 0.000000 0.000000 1.000000
vn -0.000000 0.000000 1.000000
vn 0.000000 0.000000 1.000000
vn 0.000000 0.000000 1.000000
vn 0.000000 0.000000 1.000000
vn 0.000000 0.000000 1.000000
vn 0.000000 0.000000 1.000000
vn -0.233139 0.972443 0.000000
vn -0.233139 0.972443 0.000000
vn -0.024679 0.999695 0.000000
vn -0.024679 0.999695 0.000000
vn -0.713605 0.700548 0.000000
vn -0.713605 0.700548 0.000000
vn -0.842883 0.538096 0.000000
vn -0.842883 0.538096 0.000000
vn 0.653921 0.756563 0.000000
vn 0.653921 0.756563 -0.000000
vn 0.582719 -0.812674 0.000000
vn 0.582719 -0.812674 0.000000
vn 0.528131 -0.849163 0.000000
vn 0.528131 -0.849163 0.000000
vn 0.469723 -0.882814 0.000000
vn 0.469723 -0.882814 0.000000
vn 0.249926 -0.968265 0.000000
vn 0.249926 -0.968265 0.000000
vn -0.992967 -0.118390 0.000000
vn -0.992967 -0.118390 0.000000
usemtl assumed_base
f 10//1 1//1 2//1
f 10//2 2//2 3//2
f 4//3 5//3 6//3
f 3//4 4//4 6//4
f 10//5 3//5 6//5
f 10//6 6//6 7//6
f 10//7 7//7 8//7
f 8//8 9//8 10//8
usemtl assumed_roof
f 20//9 12//9 11//9
f 20//10 13//10 12//10
f 14//11 16//11 15//11
f 13//12 16//12 14//12
f 20//13 16//13 13//13
f 20//14 17//14 16//14
f 20//15 18//15 17//15
f 18//16 20//16 19//16
usemtl assumed_wall
f 1//17 12//17 2//17
f 1//18 11//18 12//18
f 2//19 13//19 3//19
f 2//20 12//20 13//20
f 3//21 14//21 4//21
f 3//22 13//22 14//22
f 4//23 15//23 5//23
f 4//24 14//24 15//24
f 5//25 16//25 6//25
f 5//26 15//26 16//26
f 6//27 17//27 7//27
f 6//28 16//28 17//28
f 7//29 18//29 8//29
f 7//30 17//30 18//30
f 8//31 19//31 9//31
f 8//32 18//32 19//32
f 9//33 20//33 10//33
f 9//34 19//34 20//34
f 10//35 11//35 1//35
f 10//36 20//36 11//36
