# construction_7074_assumed_A_Casa
# source A_Casa
# h_campo 0.000000
# modeled_height 6.000000
# height_kind assumed
# local_origin_world_x 172001.034850
# local_origin_world_y 402500.144600
mtllib construction_artifacts.mtl

o construction_7074_assumed_A_Casa
v -16.961800 -35.130600 0.000000
v -15.941500 -17.255000 0.000000
v -14.917500 -6.581000 0.000000
v -16.250500 -6.588000 0.000000
v -14.700500 11.890000 0.000000
v -12.899500 21.016000 0.000000
v -35.399500 23.021000 0.000000
v -35.531500 20.262000 0.000000
v -33.175500 20.274000 0.000000
v -34.628500 0.535000 0.000000
v -51.754500 1.948000 0.000000
v -50.169500 21.065000 0.000000
v -47.794500 21.186000 0.000000
v -46.675500 23.768000 0.000000
v -75.187500 26.128000 0.000000
v -74.004500 41.607000 0.000000
v 4.251500 36.046000 0.000000
v 4.257500 34.895000 0.000000
v 8.643500 34.515000 0.000000
v 6.944500 20.092000 0.000000
v 5.916500 10.094000 0.000000
v 10.030500 9.402000 0.000000
v 8.942500 -2.953000 0.000000
v 9.265500 -5.418000 0.000000
v 11.974500 -6.391000 0.000000
v 16.346500 -7.502000 0.000000
v 19.318500 -6.555000 0.000000
v 19.864500 1.140000 0.000000
v 21.078500 10.353000 0.000000
v 30.840500 9.288000 0.000000
v 30.798500 3.167000 0.000000
v 29.501500 3.160000 0.000000
v 29.516500 0.183000 0.000000
v 27.598500 0.082000 0.000000
v 27.617500 -3.883000 0.000000
v 30.066500 -3.870000 0.000000
v 29.662500 -10.796000 0.000000
v 34.245500 -10.134000 0.000000
v 46.730500 -8.097000 0.000000
v 48.868500 -8.178000 0.000000
v 49.487500 6.714000 0.000000
v 56.356500 6.621000 0.000000
v 57.337500 26.046000 0.000000
v 72.463500 26.068000 0.000000
v 72.190500 22.211000 0.000000
v 75.187500 22.208000 0.000000
v 73.134500 -8.970000 0.000000
v 70.923500 -9.017000 0.000000
v 68.820500 -34.001000 0.000000
v 67.377500 -34.008000 0.000000
v 60.827500 -39.449000 0.000000
v 60.436500 -41.607000 0.000000
v -16.961800 -35.130600 6.000000
v -15.941500 -17.255000 6.000000
v -14.917500 -6.581000 6.000000
v -16.250500 -6.588000 6.000000
v -14.700500 11.890000 6.000000
v -12.899500 21.016000 6.000000
v -35.399500 23.021000 6.000000
v -35.531500 20.262000 6.000000
v -33.175500 20.274000 6.000000
v -34.628500 0.535000 6.000000
v -51.754500 1.948000 6.000000
v -50.169500 21.065000 6.000000
v -47.794500 21.186000 6.000000
v -46.675500 23.768000 6.000000
v -75.187500 26.128000 6.000000
v -74.004500 41.607000 6.000000
v 4.251500 36.046000 6.000000
v 4.257500 34.895000 6.000000
v 8.643500 34.515000 6.000000
v 6.944500 20.092000 6.000000
v 5.916500 10.094000 6.000000
v 10.030500 9.402000 6.000000
v 8.942500 -2.953000 6.000000
v 9.265500 -5.418000 6.000000
v 11.974500 -6.391000 6.000000
v 16.346500 -7.502000 6.000000
v 19.318500 -6.555000 6.000000
v 19.864500 1.140000 6.000000
v 21.078500 10.353000 6.000000
v 30.840500 9.288000 6.000000
v 30.798500 3.167000 6.000000
v 29.501500 3.160000 6.000000
v 29.516500 0.183000 6.000000
v 27.598500 0.082000 6.000000
v 27.617500 -3.883000 6.000000
v 30.066500 -3.870000 6.000000
v 29.662500 -10.796000 6.000000
v 34.245500 -10.134000 6.000000
v 46.730500 -8.097000 6.000000
v 48.868500 -8.178000 6.000000
v 49.487500 6.714000 6.000000
v 56.356500 6.621000 6.000000
v 57.337500 26.046000 6.000000
v 72.463500 26.068000 6.000000
v 72.190500 22.211000 6.000000
v 75.187500 22.208000 6.000000
v 73.134500 -8.970000 6.000000
v 70.923500 -9.017000 6.000000
v 68.820500 -34.001000 6.000000
v 67.377500 -34.008000 6.000000
v 60.827500 -39.449000 6.000000
v 60.436500 -41.607000 6.000000
v 3.410500 -13.112000 0.000000
v -3.479500 -11.207000 0.000000
v -3.552500 -16.773000 0.000000
v 11.935500 -18.179000 0.000000
v 11.973500 -15.666000 0.000000
v 10.910500 -15.671000 0.000000
v 10.892500 -12.097000 0.000000
v 4.374500 -10.241000 0.000000
v 4.132500 -12.502000 0.000000
v 3.410500 -13.112000 6.000000
v -3.479500 -11.207000 6.000000
v -3.552500 -16.773000 6.000000
v 11.935500 -18.179000 6.000000
v 11.973500 -15.666000 6.000000
v 10.910500 -15.671000 6.000000
v 10.892500 -12.097000 6.000000
v 4.374500 -10.241000 6.000000
v 4.132500 -12.502000 6.000000
vn 0.000000 0.000000 -1.000000
vn 0.000000 0.000000 -1.000000
vn -0.000000 0.000000 -1.000000
vn 0.000000 0.000000 -1.000000
vn 0.000000 0.000000 -1.000000
vn 0.000000 -0.000000 -1.000000
vn 0.000000 0.000000 -1.000000
vn 0.000000 0.000000 -1.000000
vn 0.000000 0.000000 -1.000000
vn -0.000000 0.000000 -1.000000
vn 0.000000 0.000000 -1.000000
vn 0.000000 0.000000 -1.000000
vn 0.000000 0.000000 -1.000000
vn 0.000000 0.000000 -1.000000
vn 0.000000 0.000000 -1.000000
vn 0.000000 0.000000 -1.000000
vn 0.000000 0.000000 -1.000000
vn 0.000000 0.000000 -1.000000
vn 0.000000 0.000000 -1.000000
vn 0.000000 0.000000 -1.000000
vn 0.000000 0.000000 -1.000000
vn 0.000000 0.000000 -1.000000
vn 0.000000 0.000000 -1.000000
vn 0.000000 0.000000 -1.000000
vn 0.000000 0.000000 -1.000000
vn 0.000000 0.000000 -1.000000
vn 0.000000 0.000000 -1.000000
vn 0.000000 0.000000 -1.000000
vn 0.000000 0.000000 -1.000000
vn 0.000000 0.000000 -1.000000
vn 0.000000 -0.000000 -1.000000
vn 0.000000 0.000000 -1.000000
vn 0.000000 0.000000 -1.000000
vn 0.000000 0.000000 -1.000000
vn 0.000000 0.000000 -1.000000
vn 0.000000 0.000000 -1.000000
vn 0.000000 0.000000 -1.000000
vn 0.000000 0.000000 -1.000000
vn 0.000000 0.000000 -1.000000
vn 0.000000 0.000000 -1.000000
vn 0.000000 0.000000 -1.000000
vn 0.000000 0.000000 -1.000000
vn 0.000000 0.000000 -1.000000
vn 0.000000 0.000000 -1.000000
vn 0.000000 -0.000000 -1.000000
vn 0.000000 0.000000 -1.000000
vn 0.000000 0.000000 -1.000000
vn 0.000000 0.000000 -1.000000
vn 0.000000 0.000000 -1.000000
vn 0.000000 0.000000 -1.000000
vn -0.000000 0.000000 -1.000000
vn 0.000000 -0.000000 -1.000000
vn 0.000000 -0.000000 -1.000000
vn 0.000000 0.000000 -1.000000
vn 0.000000 0.000000 -1.000000
vn 0.000000 0.000000 -1.000000
vn -0.000000 0.000000 -1.000000
vn 0.000000 0.000000 1.000000
vn 0.000000 0.000000 1.000000
vn 0.000000 -0.000000 1.000000
vn 0.000000 0.000000 1.000000
vn -0.000000 0.000000 1.000000
vn 0.000000 0.000000 1.000000
vn 0.000000 0.000000 1.000000
vn 0.000000 0.000000 1.000000
vn 0.000000 0.000000 1.000000
vn 0.000000 0.000000 1.000000
vn 0.000000 0.000000 1.000000
vn 0.000000 0.000000 1.000000
vn 0.000000 0.000000 1.000000
vn 0.000000 -0.000000 1.000000
vn 0.000000 0.000000 1.000000
vn 0.000000 0.000000 1.000000
vn 0.000000 0.000000 1.000000
vn 0.000000 0.000000 1.000000
vn 0.000000 0.000000 1.000000
vn 0.000000 0.000000 1.000000
vn 0.000000 0.000000 1.000000
vn 0.000000 0.000000 1.000000
vn 0.000000 0.000000 1.000000
vn 0.000000 0.000000 1.000000
vn 0.000000 0.000000 1.000000
vn 0.000000 0.000000 1.000000
vn 0.000000 0.000000 1.000000
vn 0.000000 0.000000 1.000000
vn 0.000000 0.000000 1.000000
vn 0.000000 0.000000 1.000000
vn 0.000000 0.000000 1.000000
vn 0.000000 0.000000 1.000000
vn 0.000000 0.000000 1.000000
vn 0.000000 0.000000 1.000000
vn -0.000000 0.000000 1.000000
vn 0.000000 0.000000 1.000000
vn 0.000000 0.000000 1.000000
vn 0.000000 0.000000 1.000000
vn 0.000000 0.000000 1.000000
vn 0.000000 0.000000 1.000000
vn 0.000000 0.000000 1.000000
vn 0.000000 0.000000 1.000000
vn 0.000000 -0.000000 1.000000
vn 0.000000 0.000000 1.000000
vn 0.000000 0.000000 1.000000
vn 0.000000 0.000000 1.000000
vn 0.000000 0.000000 1.000000
vn 0.000000 0.000000 1.000000
vn 0.000000 0.000000 1.000000
vn 0.000000 0.000000 1.000000
vn 0.000000 0.000000 1.000000
vn 0.000000 0.000000 1.000000
vn 0.000000 0.000000 1.000000
vn 0.000000 -0.000000 1.000000
vn 0.000000 0.000000 1.000000
vn -0.000000 0.000000 1.000000
vn 0.000000 0.000000 1.000000
vn -0.998375 0.056985 0.000000
vn -0.998375 0.056985 0.000000
vn -0.995430 0.095496 0.000000
vn -0.995430 0.095496 0.000000
vn 0.005251 -0.999986 0.000000
vn 0.005251 -0.999986 0.000000
vn -0.996500 0.083590 0.000000
vn -0.996500 0.083590 0.000000
vn -0.981078 0.193614 0.000000
vn -0.981078 0.193614 0.000000
vn -0.088759 -0.996053 0.000000
vn -0.088759 -0.996053 0.000000
vn 0.998857 -0.047789 0.000000
vn 0.998857 -0.047789 0.000000
vn -0.005093 0.999987 0.000000
vn -0.005093 0.999987 0.000000
vn 0.997302 -0.073412 0.000000
vn 0.997302 -0.073412 0.000000
vn -0.082227 -0.996614 0.000000
vn -0.082227 -0.996614 0.000000
vn -0.996581 0.082627 0.000000
vn -0.996581 0.082627 0.000000
vn -0.050881 0.998705 0.000000
vn -0.050881 0.998705 0.000000
vn -0.917538 0.397647 0.000000
vn -0.917538 0.397647 0.000000
vn -0.082490 -0.996592 0.000000
vn -0.082490 -0.996592 0.000000
vn -0.997092 0.076204 0.000000
vn -0.997092 0.076204 0.000000
vn 0.070883 0.997485 0.000000
vn 0.070883 0.997485 -0.000000
vn 0.999986 0.005213 0.000000
vn 0.999986 0.005213 -0.000000
vn 0.086316 0.996268 0.000000
vn 0.086316 0.996268 -0.000000
vn 0.993133 -0.116989 0.000000
vn 0.993133 -0.116989 0.000000
vn 0.994756 -0.102281 0.000000
vn 0.994756 -0.102281 0.000000
vn 0.165876 0.986147 0.000000
vn 0.165876 0.986147 -0.000000
vn 0.996145 -0.087722 0.000000
vn 0.996145 -0.087722 0.000000
vn 0.991524 0.129924 0.000000
vn 0.991524 0.129924 -0.000000
vn 0.338030 0.941135 0.000000
vn 0.338030 0.941135 -0.000000
vn 0.246289 0.969196 0.000000
vn 0.246289 0.969196 -0.000000
vn -0.303601 0.952799 0.000000
vn -0.303601 0.952799 0.000000
vn -0.997492 0.070777 0.000000
vn -0.997492 0.070777 0.000000
vn -0.991430 0.130641 0.000000
vn -0.991430 0.130641 0.000000
vn 0.108453 0.994102 0.000000
vn 0.108453 0.994102 -0.000000
vn 0.999976 -0.006861 0.000000
vn 0.999976 -0.006861 0.000000
vn 0.005397 -0.999985 0.000000
vn 0.005397 -0.999985 0.000000
vn 0.999987 0.005039 0.000000
vn 0.999987 0.005039 -0.000000
vn 0.052586 -0.998616 0.000000
vn 0.052586 -0.998616 0.000000
vn 0.999989 0.004792 0.000000
vn 0.999989 0.004792 -0.000000
vn -0.005308 0.999986 0.000000
vn -0.005308 0.999986 0.000000
vn 0.998303 -0.058232 0.000000
vn 0.998303 -0.058232 0.000000
vn -0.142963 0.989728 0.000000
vn -0.142963 0.989728 0.000000
vn -0.161027 0.986950 0.000000
vn -0.161027 0.986950 0.000000
vn 0.037859 0.999283 0.000000
vn 0.037859 0.999283 -0.000000
vn -0.999137 0.041530 0.000000
vn -0.999137 0.041530 0.000000
vn 0.013538 0.999908 0.000000
vn 0.013538 0.999908 -0.000000
vn -0.998727 0.050438 0.000000
vn -0.998727 0.050438 0.000000
vn -0.001454 0.999999 0.000000
vn -0.001454 0.999999 0.000000
vn 0.997504 -0.070604 0.000000
vn 0.997504 -0.070604 0.000000
vn 0.001001 0.999999 0.000000
vn 0.001001 0.999999 -0.000000
vn 0.997839 -0.065705 0.000000
vn 0.997839 -0.065705 0.000000
vn 0.021253 -0.999774 0.000000
vn 0.021253 -0.999774 0.000000
vn 0.996476 -0.083877 0.000000
vn 0.996476 -0.083877 0.000000
vn 0.004851 -0.999988 0.000000
vn 0.004851 -0.999988 0.000000
vn 0.638982 -0.769221 0.000000
vn 0.638982 -0.769221 0.000000
vn 0.983979 -0.178284 0.000000
vn 0.983979 -0.178284 0.000000
vn -0.083385 -0.996517 0.000000
vn -0.083385 -0.996517 0.000000
vn 0.266489 0.963838 0.000000
vn 0.266489 0.963838 -0.000000
vn -0.999914 0.013114 0.000000
vn -0.999914 0.013114 0.000000
vn -0.090408 -0.995905 0.000000
vn -0.090408 -0.995905 0.000000
vn 0.999886 -0.015120 0.000000
vn 0.999886 -0.015120 0.000000
vn -0.004704 0.999989 0.000000
vn -0.004704 0.999989 0.000000
vn 0.999987 0.005036 0.000000
vn 0.999987 0.005036 -0.000000
vn 0.273864 0.961769 0.000000
vn 0.273864 0.961769 -0.000000
vn -0.994321 0.106424 0.000000
vn -0.994321 0.106424 0.000000
vn -0.645373 0.763868 0.000000
vn -0.645373 0.763868 0.000000
usemtl assumed_base
f 52//1 1//1 2//1
f 52//2 2//2 3//2
f 3//3 4//3 5//3
f 3//4 5//4 6//4
f 8//5 9//5 10//5
f 8//6 10//6 11//6
f 7//7 8//7 11//7
f 11//8 12//8 13//8
f 7//9 11//9 13//9
f 7//10 13//10 14//10
f 7//11 14//11 15//11
f 7//12 15//12 16//12
f 6//13 7//13 16//13
f 6//14 16//14 17//14
f 3//15 6//15 17//15
f 3//16 17//16 18//16
f 3//17 18//17 19//17
f 3//18 19//18 20//18
f 3//19 20//19 21//19
f 3//20 21//20 22//20
f 3//21 22//21 23//21
f 3//22 23//22 24//22
f 52//23 3//23 24//23
f 52//24 24//24 25//24
f 52//25 25//25 26//25
f 52//26 26//26 27//26
f 27//27 28//27 29//27
f 27//28 29//28 30//28
f 30//29 31//29 32//29
f 27//30 30//30 32//30
f 32//31 33//31 34//31
f 27//32 32//32 34//32
f 27//33 34//33 35//33
f 27//34 35//34 36//34
f 27//35 36//35 37//35
f 52//36 27//36 37//36
f 52//37 37//37 38//37
f 52//38 38//38 39//38
f 52//39 39//39 40//39
f 52//40 40//40 41//40
f 52//41 41//41 42//41
f 52//42 42//42 43//42
f 52//43 43//43 44//43
f 45//44 46//44 47//44
f 45//45 47//45 48//45
f 45//46 48//46 49//46
f 45//47 49//47 50//47
f 44//48 45//48 50//48
f 44//49 50//49 51//49
f 44//50 51//50 52//50
f 105//51 107//51 106//51
f 105//52 108//52 107//52
f 113//53 108//53 105//53
f 108//54 110//54 109//54
f 113//55 110//55 108//55
f 113//56 111//56 110//56
f 111//57 113//57 112//57
usemtl assumed_roof
f 104//58 54//58 53//58
f 104//59 55//59 54//59
f 55//60 57//60 56//60
f 55//61 58//61 57//61
f 60//62 62//62 61//62
f 60//63 63//63 62//63
f 59//64 63//64 60//64
f 63//65 65//65 64//65
f 59//66 65//66 63//66
f 59//67 66//67 65//67
f 59//68 67//68 66//68
f 59//69 68//69 67//69
f 58//70 68//70 59//70
f 58//71 69//71 68//71
f 55//72 69//72 58//72
f 55//73 70//73 69//73
f 55//74 71//74 70//74
f 55//75 72//75 71//75
f 55//76 73//76 72//76
f 55//77 74//77 73//77
f 55//78 75//78 74//78
f 55//79 76//79 75//79
f 104//80 76//80 55//80
f 104//81 77//81 76//81
f 104//82 78//82 77//82
f 104//83 79//83 78//83
f 79//84 81//84 80//84
f 79//85 82//85 81//85
f 82//86 84//86 83//86
f 79//87 84//87 82//87
f 84//88 86//88 85//88
f 79//89 86//89 84//89
f 79//90 87//90 86//90
f 79//91 88//91 87//91
f 79//92 89//92 88//92
f 104//93 89//93 79//93
f 104//94 90//94 89//94
f 104//95 91//95 90//95
f 104//96 92//96 91//96
f 104//97 93//97 92//97
f 104//98 94//98 93//98
f 104//99 95//99 94//99
f 104//100 96//100 95//100
f 97//101 99//101 98//101
f 97//102 100//102 99//102
f 97//103 101//103 100//103
f 97//104 102//104 101//104
f 96//105 102//105 97//105
f 96//106 103//106 102//106
f 96//107 104//107 103//107
f 114//108 115//108 116//108
f 114//109 116//109 117//109
f 122//110 114//110 117//110
f 117//111 118//111 119//111
f 122//112 117//112 119//112
f 122//113 119//113 120//113
f 120//114 121//114 122//114
usemtl assumed_wall
f 1//115 54//115 2//115
f 1//116 53//116 54//116
f 2//117 55//117 3//117
f 2//118 54//118 55//118
f 3//119 56//119 4//119
f 3//120 55//120 56//120
f 4//121 57//121 5//121
f 4//122 56//122 57//122
f 5//123 58//123 6//123
f 5//124 57//124 58//124
f 6//125 59//125 7//125
f 6//126 58//126 59//126
f 7//127 60//127 8//127
f 7//128 59//128 60//128
f 8//129 61//129 9//129
f 8//130 60//130 61//130
f 9//131 62//131 10//131
f 9//132 61//132 62//132
f 10//133 63//133 11//133
f 10//134 62//134 63//134
f 11//135 64//135 12//135
f 11//136 63//136 64//136
f 12//137 65//137 13//137
f 12//138 64//138 65//138
f 13//139 66//139 14//139
f 13//140 65//140 66//140
f 14//141 67//141 15//141
f 14//142 66//142 67//142
f 15//143 68//143 16//143
f 15//144 67//144 68//144
f 16//145 69//145 17//145
f 16//146 68//146 69//146
f 17//147 70//147 18//147
f 17//148 69//148 70//148
f 18//149 71//149 19//149
f 18//150 70//150 71//150
f 19//151 72//151 20//151
f 19//152 71//152 72//152
f 20//153 73//153 21//153
f 20//154 72//154 73//154
f 21//155 74//155 22//155
f 21//156 73//156 74//156
f 22//157 75//157 23//157
f 22//158 74//158 75//158
f 23//159 76//159 24//159
f 23//160 75//160 76//160
f 24//161 77//161 25//161
f 24//162 76//162 77//162
f 25//163 78//163 26//163
f 25//164 77//164 78//164
f 26//165 79//165 27//165
f 26//166 78//166 79//166
f 27//167 80//167 28//167
f 27//168 79//168 80//168
f 28//169 81//169 29//169
f 28//170 80//170 81//170
f 29//171 82//171 30//171
f 29//172 81//172 82//172
f 30//173 83//173 31//173
f 30//174 82//174 83//174
f 31//175 84//175 32//175
f 31//176 83//176 84//176
f 32//177 85//177 33//177
f 32//178 84//178 85//178
f 33//179 86//179 34//179
f 33//180 85//180 86//180
f 34//181 87//181 35//181
f 34//182 86//182 87//182
f 35//183 88//183 36//183
f 35//184 87//184 88//184
f 36//185 89//185 37//185
f 36//186 88//186 89//186
f 37//187 90//187 38//187
f 37//188 89//188 90//188
f 38//189 91//189 39//189
f 38//190 90//190 91//190
f 39//191 92//191 40//191
f 39//192 91//192 92//192
f 40//193 93//193 41//193
f 40//194 92//194 93//194
f 41//195 94//195 42//195
f 41//196 93//196 94//196
f 42//197 95//197 43//197
f 42//198 94//198 95//198
f 43//199 96//199 44//199
f 43//200 95//200 96//200
f 44//201 97//201 45//201
f 44//202 96//202 97//202
f 45//203 98//203 46//203
f 45//204 97//204 98//204
f 46//205 99//205 47//205
f 46//206 98//206 99//206
f 47//207 100//207 48//207
f 47//208 99//208 100//208
f 48//209 101//209 49//209
f 48//210 100//210 101//210
f 49//211 102//211 50//211
f 49//212 101//212 102//212
f 50//213 103//213 51//213
f 50//214 102//214 103//214
f 51//215 104//215 52//215
f 51//216 103//216 104//216
f 52//217 53//217 1//217
f 52//218 104//218 53//218
f 105//219 106//219 115//219
f 105//220 115//220 114//220
f 106//221 107//221 116//221
f 106//222 116//222 115//222
f 107//223 108//223 117//223
f 107//224 117//224 116//224
f 108//225 109//225 118//225
f 108//226 118//226 117//226
f 109//227 110//227 119//227
f 109//228 119//228 118//228
f 110//229 111//229 120//229
f 110//230 120//230 119//230
f 111//231 112//231 121//231
f 111//232 121//232 120//232
f 112//233 113//233 122//233
f 112//234 122//234 121//234
f 113//235 105//235 114//235
f 113//236 114//236 122//236
