# construction_6641_assumed_A_Casa
# source A_Casa
# h_campo 0.000000
# modeled_height 6.000000
# height_kind assumed
# local_origin_world_x 172001.034850
# local_origin_world_y 402500.144600
mtllib construction_artifacts.mtl

o construction_6641_assumed_A_Casa
v -12.466500 28.046000 0.000000
v -12.944500 25.936000 0.000000
v -11.829500 25.503000 0.000000
v -15.009500 17.274000 0.000000
v -4.122500 12.067000 0.000000
v -6.830500 7.383000 0.000000
v 33.217500 -12.146000 0.000000
v 7.578500 -24.367000 0.000000
v 3.949500 -20.321000 0.000000
v 2.408500 -22.369000 0.000000
v 0.447500 -21.401000 0.000000
v -0.870500 -24.123000 0.000000
v -3.961500 -23.261000 0.000000
v -5.063500 -25.442000 0.000000
v -9.186500 -23.659000 0.000000
v -10.853500 -27.495000 0.000000
v -11.869500 -26.961000 0.000000
v -12.467500 -28.616000 0.000000
v -15.036500 -27.617000 0.000000
v -16.605500 -30.694000 0.000000
v -32.291500 -23.455000 0.000000
v -29.888500 -18.519000 0.000000
v -33.217500 -17.084000 0.000000
v -28.509500 -4.413000 0.000000
v -31.328500 -3.871000 0.000000
v -19.157500 30.694000 0.000000
v -12.466500 28.046000 6.000000
v -12.944500 25.936000 6.000000
v -11.829500 25.503000 6.000000
v -15.009500 17.274000 6.000000
v -4.122500 12.067000 6.000000
v -6.830500 7.383000 6.000000
v 33.217500 -12.146000 6.000000
v 7.578500 -24.367000 6.000000
v 3.949500 -20.321000 6.000000
v 2.408500 -22.369000 6.000000
v 0.447500 -21.401000 6.000000
v -0.870500 -24.123000 6.000000
v -3.961500 -23.261000 6.000000
v -5.063500 -25.442000 6.000000
v -9.186500 -23.659000 6.000000
v -10.853500 -27.495000 6.000000
v -11.869500 -26.961000 6.000000
v -12.467500 -28.616000 6.000000
v -15.036500 -27.617000 6.000000
v -16.605500 -30.694000 6.000000
v -32.291500 -23.455000 6.000000
v -29.888500 -18.519000 6.000000
v -33.217500 -17.084000 6.000000
v -28.509500 -4.413000 6.000000
v -31.328500 -3.871000 6.000000
v -19.157500 30.694000 6.000000
vn 0.000000 0.000000 -1.000000
vn 0.000000 -0.000000 -1.000000
vn 0.000000 0.000000 -1.000000
vn 0.000000 0.000000 -1.000000
vn 0.000000 0.000000 -1.000000
vn 0.000000 0.000000 -1.000000
vn 0.000000 0.000000 -1.000000
vn 0.000000 0.000000 -1.000000
vn 0.000000 0.000000 -1.000000
vn 0.000000 0.000000 -1.000000
vn 0.000000 0.000000 -1.000000
vn 0.000000 0.000000 -1.000000
vn 0.000000 0.000000 -1.000000
vn 0.000000 0.000000 -1.000000
vn 0.000000 0.000000 -1.000000
vn 0.000000 0.000000 -1.000000
vn 0.000000 0.000000 -1.000000
vn 0.000000 0.000000 -1.000000
vn 0.000000 0.000000 -1.000000
vn 0.000000 0.000000 -1.000000
vn 0.000000 -0.000000 -1.000000
vn 0.000000 0.000000 -1.000000
vn 0.000000 0.000000 -1.000000
vn 0.000000 0.000000 -1.000000
vn 0.000000 0.000000 1.000000
vn 0.000000 0.000000 1.000000
vn 0.000000 0.000000 1.000000
vn 0.000000 0.000000 1.000000
vn 0.000000 0.000000 1.000000
vn 0.000000 0.000000 1.000000
vn 0.000000 0.000000 1.000000
vn 0.000000 0.000000 1.000000
vn 0.000000 0.000000 1.000000
vn 0.000000 0.000000 1.000000
vn 0.000000 0.000000 1.000000
vn 0.000000 0.000000 1.000000
vn 0.000000 0.000000 1.000000
vn 0.000000 0.000000 1.000000
vn 0.000000 0.000000 1.000000
vn 0.000000 0.000000 1.000000
vn 0.000000 0.000000 1.000000
vn 0.000000 0.000000 1.000000
vn 0.000000 0.000000 1.000000
vn 0.000000 0.000000 1.000000
vn 0.000000 0.000000 1.000000
vn 0.000000 -0.000000 1.000000
vn 0.000000 0.000000 1.000000
vn 0.000000 -0.000000 1.000000
vn 0.975287 -0.220942 0.000000
vn 0.975287 -0.220942 0.000000
vn 0.362002 0.932177 0.000000
vn 0.362002 0.932177 -0.000000
vn 0.932775 -0.360460 0.000000
vn 0.932775 -0.360460 0.000000
vn 0.431467 0.902129 0.000000
vn 0.431467 0.902129 -0.000000
vn 0.865730 -0.500512 0.000000
vn 0.865730 -0.500512 0.000000
vn 0.438304 0.898827 0.000000
vn 0.438304 0.898827 -0.000000
vn 0.430277 -0.902697 0.000000
vn 0.430277 -0.902697 0.000000
vn -0.744428 -0.667703 0.000000
vn -0.744428 -0.667703 0.000000
vn 0.799063 -0.601248 0.000000
vn 0.799063 -0.601248 0.000000
vn -0.442635 -0.896702 0.000000
vn -0.442635 -0.896702 0.000000
vn 0.900042 -0.435803 0.000000
vn 0.900042 -0.435803 0.000000
vn -0.268624 -0.963245 0.000000
vn -0.268624 -0.963245 0.000000
vn 0.892537 -0.450975 0.000000
vn 0.892537 -0.450975 0.000000
vn -0.396926 -0.917850 0.000000
vn -0.396926 -0.917850 0.000000
vn 0.917142 -0.398560 0.000000
vn 0.917142 -0.398560 0.000000
vn -0.465244 -0.885183 0.000000
vn -0.465244 -0.885183 0.000000
vn 0.940488 -0.339826 0.000000
vn 0.940488 -0.339826 0.000000
vn -0.362429 -0.932011 0.000000
vn -0.362429 -0.932011 0.000000
vn 0.890867 -0.454264 0.000000
vn 0.890867 -0.454264 0.000000
vn -0.419025 -0.907975 0.000000
vn -0.419025 -0.907975 0.000000
vn -0.899113 0.437717 0.000000
vn -0.899113 0.437717 0.000000
vn -0.395849 -0.918315 0.000000
vn -0.395849 -0.918315 0.000000
vn -0.937386 0.348292 0.000000
vn -0.937386 0.348292 0.000000
vn -0.188809 -0.982014 0.000000
vn -0.188809 -0.982014 0.000000
vn -0.943233 0.332131 0.000000
vn -0.943233 0.332131 0.000000
vn 0.367986 0.929831 0.000000
vn 0.367986 0.929831 -0.000000
usemtl assumed_base
f 26//1 1//1 2//1
f 2//2 3//2 4//2
f 26//3 2//3 4//3
f 4//4 5//4 6//4
f 6//5 7//5 8//5
f 4//6 6//6 8//6
f 4//7 8//7 9//7
f 4//8 9//8 10//8
f 4//9 10//9 11//9
f 4//10 11//10 12//10
f 4//11 12//11 13//11
f 26//12 4//12 13//12
f 26//13 13//13 14//13
f 26//14 14//14 15//14
f 26//15 15//15 16//15
f 26//16 16//16 17//16
f 26//17 17//17 18//17
f 26//18 18//18 19//18
f 26//19 19//19 20//19
f 20//20 21//20 22//20
f 26//21 20//21 22//21
f 22//22 23//22 24//22
f 26//23 22//23 24//23
f 24//24 25//24 26//24
usemtl assumed_roof
f 52//25 28//25 27//25
f 28//26 30//26 29//26
f 52//27 30//27 28//27
f 30//28 32//28 31//28
f 32//29 34//29 33//29
f 30//30 34//30 32//30
f 30//31 35//31 34//31
f 30//32 36//32 35//32
f 30//33 37//33 36//33
f 30//34 38//34 37//34
f 30//35 39//35 38//35
f 52//36 39//36 30//36
f 52//37 40//37 39//37
f 52//38 41//38 40//38
f 52//39 42//39 41//39
f 52//40 43//40 42//40
f 52//41 44//41 43//41
f 52//42 45//42 44//42
f 52//43 46//43 45//43
f 46//44 48//44 47//44
f 52//45 48//45 46//45
f 48//46 50//46 49//46
f 52//47 50//47 48//47
f 50//48 52//48 51//48
usemtl assumed_wall
f 1//49 28//49 2//49
f 1//50 27//50 28//50
f 2//51 29//51 3//51
f 2//52 28//52 29//52
f 3//53 30//53 4//53
f 3//54 29//54 30//54
f 4//55 31//55 5//55
f 4//56 30//56 31//56
f 5//57 32//57 6//57
f 5//58 31//58 32//58
f 6//59 33//59 7//59
f 6//60 32//60 33//60
f 7//61 34//61 8//61
f 7//62 33//62 34//62
f 8//63 35//63 9//63
f 8//64 34//64 35//64
f 9//65 36//65 10//65
f 9//66 35//66 36//66
f 10//67 37//67 11//67
f 10//68 36//68 37//68
f 11//69 38//69 12//69
f 11//70 37//70 38//70
f 12//71 39//71 13//71
f 12//72 38//72 39//72
f 13//73 40//73 14//73
f 13//74 39//74 40//74
f 14//75 41//75 15//75
f 14//76 40//76 41//76
f 15//77 42//77 16//77
f 15//78 41//78 42//78
f 16//79 43//79 17//79
f 16//80 42//80 43//80
f 17//81 44//81 18//81
f 17//82 43//82 44//82
f 18//83 45//83 19//83
f 18//84 44//84 45//84
f 19//85 46//85 20//85
f 19//86 45//86 46//86
f 20//87 47//87 21//87
f 20//88 46//88 47//88
f 21//89 48//89 22//89
f 21//90 47//90 48//90
f 22//91 49//91 23//91
f 22//92 48//92 49//92
f 23//93 50//93 24//93
f 23//94 49//94 50//94
f 24//95 51//95 25//95
f 24//96 50//96 51//96
f 25//97 52//97 26//97
f 25//98 51//98 52//98
f 26//99 27//99 1//99
f 26//100 52//100 27//100
