# construction_3718_assumed_A_Casa
# source A_Casa
# h_campo 0.000000
# modeled_height 6.000000
# height_kind assumed
# local_origin_world_x 172001.034850
# local_origin_world_y 402500.144600
mtllib construction_artifacts.mtl

o construction_3718_assumed_A_Casa
v -19.635500 -17.288000 0.000000
v -14.408500 -17.261000 0.000000
v -14.435500 -11.879000 0.000000
v -8.601500 -12.215000 0.000000
v -8.451500 -14.055000 0.000000
v -2.199500 -13.688000 0.000000
v -1.505500 -17.408000 0.000000
v 0.288500 -16.598000 0.000000
v 0.239500 -12.425000 0.000000
v -5.242500 -12.100000 0.000000
v -5.347500 0.266000 0.000000
v -1.793500 0.495000 0.000000
v -1.911500 7.211000 0.000000
v -0.098500 7.220000 0.000000
v -0.105500 8.612000 0.000000
v 1.889500 8.720000 0.000000
v 1.731500 12.148000 0.000000
v 3.543500 12.185000 0.000000
v 3.530500 14.743000 0.000000
v 4.922500 14.750000 0.000000
v 4.909500 17.237000 0.000000
v 11.443500 28.528000 0.000000
v 14.528500 21.417000 0.000000
v 15.264500 17.711000 0.000000
v 15.752500 -9.409000 0.000000
v 19.635500 -24.243000 0.000000
v 3.285500 -28.528000 0.000000
v 2.760500 -27.350000 0.000000
v 0.502500 -28.261000 0.000000
v 0.170500 -26.562000 0.000000
v -19.207500 -27.011000 0.000000
v -19.635500 -17.288000 6.000000
v -14.408500 -17.261000 6.000000
v -14.435500 -11.879000 6.000000
v -8.601500 -12.215000 6.000000
v -8.451500 -14.055000 6.000000
v -2.199500 -13.688000 6.000000
v -1.505500 -17.408000 6.000000
v 0.288500 -16.598000 6.000000
v 0.239500 -12.425000 6.000000
v -5.242500 -12.100000 6.000000
v -5.347500 0.266000 6.000000
v -1.793500 0.495000 6.000000
v -1.911500 7.211000 6.000000
v -0.098500 7.220000 6.000000
v -0.105500 8.612000 6.000000
v 1.889500 8.720000 6.000000
v 1.731500 12.148000 6.000000
v 3.543500 12.185000 6.000000
v 3.530500 14.743000 6.000000
v 4.922500 14.750000 6.000000
v 4.909500 17.237000 6.000000
v 11.443500 28.528000 6.000000
v 14.528500 21.417000 6.000000
v 15.264500 17.711000 6.000000
v 15.752500 -9.409000 6.000000
v 19.635500 -24.243000 6.000000
v 3.285500 -28.528000 6.000000
v 2.760500 -27.350000 6.000000
v 0.502500 -28.261000 6.000000
v 0.170500 -26.562000 6.000000
v -19.207500 -27.011000 6.000000
vn 0.000000 0.000000 -1.000000
vn 0.000000 0.000000 -1.000000
vn 0.000000 0.000000 -1.000000
vn 0.000000 0.000000 -1.000000
vn 0.000000 0.000000 -1.000000
vn 0.000000 0.000000 -1.000000
vn 0.000000 0.000000 -1.000000
vn 0.000000 0.000000 -1.000000
vn 0.000000 0.000000 -1.000000
vn 0.000000 0.000000 -1.000000
vn 0.000000 0.000000 -1.000000
vn 0.000000 0.000000 -1.000000
vn 0.000000 0.000000 -1.000000
vn 0.000000 0.000000 -1.000000
vn 0.000000 0.000000 -1.000000
vn 0.000000 0.000000 -1.000000
vn 0.000000 0.000000 -1.000000
vn 0.000000 0.000000 -1.000000
vn 0.000000 0.000000 -1.000000
vn 0.000000 0.000000 -1.000000
vn 0.000000 0.000000 -1.000000
vn 0.000000 0.000000 -1.000000
vn 0.000000 0.000000 -1.000000
vn 0.000000 0.000000 -1.000000
vn 0.000000 0.000000 -1.000000
vn 0.000000 0.000000 -1.000000
vn -0.000000 0.000000 -1.000000
vn 0.000000 0.000000 -1.000000
vn 0.000000 0.000000 -1.000000
vn 0.000000 -0.000000 1.000000
vn 0.000000 -0.000000 1.000000
vn 0.000000 0.000000 1.000000
vn 0.000000 0.000000 1.000000
vn 0.000000 0.000000 1.000000
vn 0.000000 0.000000 1.000000
vn 0.000000 0.000000 1.000000
vn 0.000000 0.000000 1.000000
vn 0.000000 0.000000 1.000000
vn 0.000000 0.000000 1.000000
vn 0.000000 0.000000 1.000000
vn 0.000000 0.000000 1.000000
vn 0.000000 -0.000000 1.000000
vn 0.000000 -0.000000 1.000000
vn 0.000000 -0.000000 1.000000
vn 0.000000 0.000000 1.000000
vn 0.000000 -0.000000 1.000000
vn 0.000000 0.000000 1.000000
vn 0.000000 -0.000000 1.000000
vn 0.000000 0.000000 1.000000
vn 0.000000 0.000000 1.000000
vn 0.000000 0.000000 1.000000
vn 0.000000 0.000000 1.000000
vn 0.000000 0.000000 1.000000
vn 0.000000 0.000000 1.000000
vn 0.000000 0.000000 1.000000
vn 0.000000 0.000000 1.000000
vn 0.000000 0.000000 1.000000
vn 0.000000 0.000000 1.000000
vn -0.005165 0.999987 0.000000
vn -0.005165 0.999987 0.000000
vn -0.999987 -0.005017 0.000000
vn -0.999987 -0.005017 0.000000
vn 0.057498 0.998346 0.000000
vn 0.057498 0.998346 -0.000000
vn 0.996694 0.081252 0.000000
vn 0.996694 0.081252 -0.000000
vn -0.058600 0.998282 0.000000
vn -0.058600 0.998282 0.000000
vn 0.983039 0.183395 0.000000
vn 0.983039 0.183395 -0.000000
vn -0.411505 0.911407 0.000000
vn -0.411505 0.911407 0.000000
vn -0.999931 -0.011741 0.000000
vn -0.999931 -0.011741 0.000000
vn -0.059181 -0.998247 0.000000
vn -0.059181 -0.998247 0.000000
vn -0.999964 -0.008491 0.000000
vn -0.999964 -0.008491 0.000000
vn -0.064301 0.997931 0.000000
vn -0.064301 0.997931 0.000000
vn -0.999846 -0.017567 0.000000
vn -0.999846 -0.017567 0.000000
vn -0.004964 0.999988 0.000000
vn -0.004964 0.999988 0.000000
vn -0.999987 -0.005029 0.000000
vn -0.999987 -0.005029 0.000000
vn -0.054056 0.998538 0.000000
vn -0.054056 0.998538 0.000000
vn -0.998939 -0.046042 0.000000
vn -0.998939 -0.046042 0.000000
vn -0.020415 0.999792 0.000000
vn -0.020415 0.999792 0.000000
vn -0.999987 -0.005082 0.000000
vn -0.999987 -0.005082 0.000000
vn -0.005029 0.999987 0.000000
vn -0.005029 0.999987 0.000000
vn -0.999986 -0.005227 0.000000
vn -0.999986 -0.005227 0.000000
vn -0.865522 0.500870 0.000000
vn -0.865522 0.500870 0.000000
vn 0.917388 0.397995 0.000000
vn 0.917388 0.397995 -0.000000
vn 0.980844 0.194793 0.000000
vn 0.980844 0.194793 -0.000000
vn 0.999838 0.017991 0.000000
vn 0.999838 0.017991 -0.000000
vn 0.967406 0.253232 0.000000
vn 0.967406 0.253232 -0.000000
vn 0.253518 -0.967331 0.000000
vn 0.253518 -0.967331 0.000000
vn -0.913395 -0.407074 0.000000
vn -0.913395 -0.407074 0.000000
vn 0.374151 -0.927368 0.000000
vn 0.374151 -0.927368 0.000000
vn -0.981438 -0.191782 0.000000
vn -0.981438 -0.191782 0.000000
vn 0.023164 -0.999732 0.000000
vn 0.023164 -0.999732 0.000000
vn -0.999033 -0.043977 0.000000
vn -0.999033 -0.043977 0.000000
usemtl assumed_base
f 31//1 1//1 2//1
f 2//2 3//2 4//2
f 31//3 2//3 4//3
f 31//4 4//4 5//4
f 31//5 5//5 6//5
f 31//6 6//6 7//6
f 31//7 7//7 8//7
f 9//8 10//8 11//8
f 9//9 11//9 12//9
f 9//10 12//10 13//10
f 9//11 13//11 14//11
f 9//12 14//12 15//12
f 9//13 15//13 16//13
f 8//14 9//14 16//14
f 16//15 17//15 18//15
f 8//16 16//16 18//16
f 18//17 19//17 20//17
f 8//18 18//18 20//18
f 20//19 21//19 22//19
f 8//20 20//20 22//20
f 8//21 22//21 23//21
f 8//22 23//22 24//22
f 8//23 24//23 25//23
f 31//24 8//24 25//24
f 31//25 25//25 26//25
f 26//26 27//26 28//26
f 28//27 29//27 30//27
f 26//28 28//28 30//28
f 26//29 30//29 31//29
usemtl assumed_roof
f 62//30 33//30 32//30
f 33//31 35//31 34//31
f 62//32 35//32 33//32
f 62//33 36//33 35//33
f 62//34 37//34 36//34
f 62//35 38//35 37//35
f 62//36 39//36 38//36
f 40//37 42//37 41//37
f 40//38 43//38 42//38
f 40//39 44//39 43//39
f 40//40 45//40 44//40
f 40//41 46//41 45//41
f 40//42 47//42 46//42
f 39//43 47//43 40//43
f 47//44 49//44 48//44
f 39//45 49//45 47//45
f 49//46 51//46 50//46
f 39//47 51//47 49//47
f 51//48 53//48 52//48
f 39//49 53//49 51//49
f 39//50 54//50 53//50
f 39//51 55//51 54//51
f 39//52 56//52 55//52
f 62//53 56//53 39//53
f 62//54 57//54 56//54
f 57//55 59//55 58//55
f 59//56 61//56 60//56
f 57//57 61//57 59//57
f 57//58 62//58 61//58
usemtl assumed_wall
f 1//59 33//59 2//59
f 1//60 32//60 33//60
f 2//61 34//61 3//61
f 2//62 33//62 34//62
f 3//63 35//63 4//63
f 3//64 34//64 35//64
f 4//65 36//65 5//65
f 4//66 35//66 36//66
f 5//67 37//67 6//67
f 5//68 36//68 37//68
f 6//69 38//69 7//69
f 6//70 37//70 38//70
f 7//71 39//71 8//71
f 7//72 38//72 39//72
f 8//73 40//73 9//73
f 8//74 39//74 40//74
f 9//75 41//75 10//75
f 9//76 40//76 41//76
f 10//77 42//77 11//77
f 10//78 41//78 42//78
f 11//79 43//79 12//79
f 11//80 42//80 43//80
f 12//81 44//81 13//81
f 12//82 43//82 44//82
f 13//83 45//83 14//83
f 13//84 44//84 45//84
f 14//85 46//85 15//85
f 14//86 45//86 46//86
f 15//87 47//87 16//87
f 15//88 46//88 47//88
f 16//89 48//89 17//89
f 16//90 47//90 48//90
f 17//91 49//91 18//91
f 17//92 48//92 49//92
f 18//93 50//93 19//93
f 18//94 49//94 50//94
f 19//95 51//95 20//95
f 19//96 50//96 51//96
f 20//97 52//97 21//97
f 20//98 51//98 52//98
f 21//99 53//99 22//99
f 21//100 52//100 53//100
f 22//101 54//101 23//101
f 22//102 53//102 54//102
f 23//103 55//103 24//103
f 23//104 54//104 55//104
f 24//105 56//105 25//105
f 24//106 55//106 56//106
f 25//107 57//107 26//107
f 25//108 56//108 57//108
f 26//109 58//109 27//109
f 26//110 57//110 58//110
f 27//111 59//111 28//111
f 27//112 58//112 59//112
f 28//113 60//113 29//113
f 28//114 59//114 60//114
f 29//115 61//115 30//115
f 29//116 60//116 61//116
f 30//117 62//117 31//117
f 30//118 61//118 62//118
f 31//119 32//119 1//119
f 31//120 62//120 32//120
