# construction_3083_assumed_A_Casa
# source A_Casa
# h_campo 0.000000
# modeled_height 6.000000
# height_kind assumed
# local_origin_world_x 172001.034850
# local_origin_world_y 402500.144600
mtllib construction_artifacts.mtl

o construction_3083_assumed_A_Casa
v -0.205000 11.601000 0.000000
v 0.224000 10.759000 0.000000
v 6.233000 12.177000 0.000000
v 8.974000 -3.090000 0.000000
v -0.430000 -4.156000 0.000000
v 0.700000 -12.177000 0.000000
v -6.943000 -11.452000 0.000000
v -6.747000 -8.417000 0.000000
v -7.815000 -8.419000 0.000000
v -8.974000 3.019000 0.000000
v -5.999000 4.160000 0.000000
v -6.509000 6.002000 0.000000
v -2.645000 6.887000 0.000000
v -3.103000 10.977000 0.000000
v -0.205000 11.601000 6.000000
v 0.224000 10.759000 6.000000
v 6.233000 12.177000 6.000000
v 8.974000 -3.090000 6.000000
v -0.430000 -4.156000 6.000000
v 0.700000 -12.177000 6.000000
v -6.943000 -11.452000 6.000000
v -6.747000 -8.417000 6.000000
v -7.815000 -8.419000 6.000000
v -8.974000 3.019000 6.000000
v -5.999000 4.160000 6.000000
v -6.509000 6.002000 6.000000
v -2.645000 6.887000 6.000000
v -3.103000 10.977000 6.000000
vn 0.000000 0.000000 -1.000000
vn 0.000000 0.000000 -1.000000
vn 0.000000 0.000000 -1.000000
vn 0.000000 0.000000 -1.000000
vn 0.000000 0.000000 -1.000000
vn 0.000000 0.000000 -1.000000
vn -0.000000 0.000000 -1.000000
vn 0.000000 0.000000 -1.000000
vn 0.000000 0.000000 -1.000000
vn 0.000000 0.000000 -1.000000
vn 0.000000 0.000000 -1.000000
vn 0.000000 0.000000 -1.000000
vn -0.000000 0.000000 1.000000
vn -0.000000 0.000000 1.000000
vn 0.000000 0.000000 1.000000
vn 0.000000 0.000000 1.000000
vn 0.000000 0.000000 1.000000
vn 0.000000 0.000000 1.000000
vn 0.000000 0.000000 1.000000
vn 0.000000 0.000000 1.000000
vn 0.000000 0.000000 1.000000
vn 0.000000 0.000000 1.000000
vn 0.000000 0.000000 1.000000
vn 0.000000 0.000000 1.000000
vn 0.891015 0.453973 0.000000
vn 0.891015 0.453973 -0.000000
vn -0.229671 0.973268 0.000000
vn -0.229671 0.973268 0.000000
vn 0.984263 0.176712 0.000000
vn 0.984263 0.176712 -0.000000
vn 0.112635 -0.993636 0.000000
vn 0.112635 -0.993636 0.000000
vn 0.990222 0.139503 0.000000
vn 0.990222 0.139503 -0.000000
vn -0.094434 -0.995531 0.000000
vn -0.094434 -0.995531 0.000000
vn -0.997921 0.064446 0.000000
vn -0.997921 0.064446 0.000000
vn 0.001873 -0.999998 0.000000
vn 0.001873 -0.999998 0.000000
vn -0.994905 -0.100813 0.000000
vn -0.994905 -0.100813 0.000000
vn -0.358096 0.933685 0.000000
vn -0.358096 0.933685 0.000000
vn -0.963742 -0.266834 0.000000
vn -0.963742 -0.266834 0.000000
vn -0.223256 0.974760 0.000000
vn -0.223256 0.974760 0.000000
vn -0.993789 -0.111285 0.000000
vn -0.993789 -0.111285 0.000000
vn -0.210497 0.977595 0.000000
vn -0.210497 0.977595 0.000000
usemtl assumed_base
f 14//1 1//1 2//1
f 2//2 3//2 4//2
f 14//3 2//3 4//3
f 14//4 4//4 5//4
f 14//5 5//5 6//5
f 6//6 7//6 8//6
f 8//7 9//7 10//7
f 6//8 8//8 10//8
f 6//9 10//9 11//9
f 6//10 11//10 12//10
f 6//11 12//11 13//11
f 6//12 13//12 14//12
usemtl assumed_roof
f 28//13 16//13 15//13
f 16//14 18//14 17//14
f 28//15 18//15 16//15
f 28//16 19//16 18//16
f 28//17 20//17 19//17
f 20//18 22//18 21//18
f 22//19 24//19 23//19
f 20//20 24//20 22//20
f 20//21 25//21 24//21
f 20//22 26//22 25//22
f 20//23 27//23 26//23
f 20//24 28//24 27//24
usemtl assumed_wall
f 1//25 16//25 2//25
f 1//26 15//26 16//26
f 2//27 17//27 3//27
f 2//28 16//28 17//28
f 3//29 18//29 4//29
f 3//30 17//30 18//30
f 4//31 19//31 5//31
f 4//32 18//32 19//32
f 5//33 20//33 6//33
f 5//34 19//34 20//34
f 6//35 21//35 7//35
f 6//36 20//36 21//36
f 7//37 22//37 8//37
f 7//38 21//38 22//38
f 8//39 23//39 9//39
f 8//40 22//40 23//40
f 9//41 24//41 10//41
f 9//42 23//42 24//42
f 10//43 25//43 11//43
f 10//44 24//44 25//44
f 11//45 26//45 12//45
f 11//46 25//46 26//46
f 12//47 27//47 13//47
f 12//48 26//48 27//48
f 13//49 28//49 14//49
f 13//50 27//50 28//50
f 14//51 15//51 1//51
f 14//52 28//52 15//52
