# construction_0782_assumed_A_Casa
# source A_Casa
# h_campo 0.000000
# modeled_height 6.000000
# height_kind assumed
# local_origin_world_x 172001.034850
# local_origin_world_y 402500.144600
mtllib construction_artifacts.mtl

o construction_0782_assumed_A_Casa
v -18.488000 -5.482500 0.000000
v -17.757000 2.294500 0.000000
v -9.869000 -2.595500 0.000000
v -11.137000 -5.627500 0.000000
v -9.477000 -7.014500 0.000000
v -5.487000 -3.293500 0.000000
v -9.123000 -1.248500 0.000000
v -6.456000 3.577500 0.000000
v -10.475000 5.623500 0.000000
v -8.598000 9.372500 0.000000
v -4.446000 6.909500 0.000000
v 2.842000 19.502500 0.000000
v 11.575000 15.126500 0.000000
v 18.488000 11.262500 0.000000
v -6.230000 -19.502500 0.000000
v -18.488000 -5.482500 6.000000
v -17.757000 2.294500 6.000000
v -9.869000 -2.595500 6.000000
v -11.137000 -5.627500 6.000000
v -9.477000 -7.014500 6.000000
v -5.487000 -3.293500 6.000000
v -9.123000 -1.248500 6.000000
v -6.456000 3.577500 6.000000
v -10.475000 5.623500 6.000000
v -8.598000 9.372500 6.000000
v -4.446000 6.909500 6.000000
v 2.842000 19.502500 6.000000
v 11.575000 15.126500 6.000000
v 18.488000 11.262500 6.000000
v -6.230000 -19.502500 6.000000
vn 0.000000 0.000000 -1.000000
vn 0.000000 0.000000 -1.000000
vn 0.000000 0.000000 -1.000000
vn 0.000000 0.000000 -1.000000
vn 0.000000 0.000000 -1.000000
vn 0.000000 0.000000 -1.000000
vn 0.000000 0.000000 -1.000000
vn 0.000000 0.000000 -1.000000
vn 0.000000 0.000000 -1.000000
vn 0.000000 0.000000 -1.000000
vn 0.000000 0.000000 -1.000000
vn 0.000000 0.000000 -1.000000
vn 0.000000 -0.000000 -1.000000
vn 0.000000 0.000000 1.000000
vn 0.000000 0.000000 1.000000
vn 0.000000 0.000000 1.000000
vn 0.000000 0.000000 1.000000
vn 0.000000 -0.000000 1.000000
vn 0.000000 0.000000 1.000000
vn 0.000000 0.000000 1.000000
vn 0.000000 -0.000000 1.000000
vn 0.000000 -0.000000 1.000000
vn 0.000000 0.000000 1.000000
vn 0.000000 0.000000 1.000000
vn 0.000000 0.000000 1.000000
vn 0.000000 0.000000 1.000000
vn -0.995612 0.093583 0.000000
vn -0.995612 0.093583 0.000000
vn 0.526896 0.849930 0.000000
vn 0.526896 0.849930 -0.000000
vn 0.922572 -0.385825 0.000000
vn 0.922572 -0.385825 0.000000
vn 0.641184 0.767387 0.000000
vn 0.641184 0.767387 -0.000000
vn -0.682024 0.731329 0.000000
vn -0.682024 0.731329 0.000000
vn -0.490216 -0.871601 0.000000
vn -0.490216 -0.871601 0.000000
vn -0.875242 0.483686 0.000000
vn -0.875242 0.483686 0.000000
vn -0.453677 -0.891166 0.000000
vn -0.453677 -0.891166 0.000000
vn -0.894189 0.447691 0.000000
vn -0.894189 0.447691 0.000000
vn 0.510194 0.860059 0.000000
vn 0.510194 0.860059 -0.000000
vn -0.865506 0.500898 0.000000
vn -0.865506 0.500898 0.000000
vn 0.447991 0.894038 0.000000
vn 0.447991 0.894038 -0.000000
vn 0.487903 0.872898 0.000000
vn 0.487903 0.872898 -0.000000
vn 0.779557 -0.626331 0.000000
vn 0.779557 -0.626331 0.000000
vn -0.752829 -0.658216 0.000000
vn -0.752829 -0.658216 0.000000
usemtl assumed_base
f 15//1 1//1 2//1
f 2//2 3//2 4//2
f 15//3 2//3 4//3
f 15//4 4//4 5//4
f 15//5 5//5 6//5
f 6//6 7//6 8//6
f 8//7 9//7 10//7
f 8//8 10//8 11//8
f 6//9 8//9 11//9
f 15//10 6//10 11//10
f 15//11 11//11 12//11
f 15//12 12//12 13//12
f 13//13 14//13 15//13
usemtl assumed_roof
f 30//14 17//14 16//14
f 17//15 19//15 18//15
f 30//16 19//16 17//16
f 30//17 20//17 19//17
f 30//18 21//18 20//18
f 21//19 23//19 22//19
f 23//20 25//20 24//20
f 23//21 26//21 25//21
f 21//22 26//22 23//22
f 30//23 26//23 21//23
f 30//24 27//24 26//24
f 30//25 28//25 27//25
f 28//26 30//26 29//26
usemtl assumed_wall
f 1//27 17//27 2//27
f 1//28 16//28 17//28
f 2//29 18//29 3//29
f 2//30 17//30 18//30
f 3//31 19//31 4//31
f 3//32 18//32 19//32
f 4//33 20//33 5//33
f 4//34 19//34 20//34
f 5//35 21//35 6//35
f 5//36 20//36 21//36
f 6//37 22//37 7//37
f 6//38 21//38 22//38
f 7//39 23//39 8//39
f 7//40 22//40 23//40
f 8//41 24//41 9//41
f 8//42 23//42 24//42
f 9//43 25//43 10//43
f 9//44 24//44 25//44
f 10//45 26//45 11//45
f 10//46 25//46 26//46
f 11//47 27//47 12//47
f 11//48 26//48 27//48
f 12//49 28//49 13//49
f 12//50 27//50 28//50
f 13//51 29//51 14//51
f 13//52 28//52 29//52
f 14//53 30//53 15//53
f 14//54 29//54 30//54
f 15//55 16//55 1//55
f 15//56 30//56 16//56
