# construction_4556_assumed_A_Casa
# source A_Casa
# h_campo 0.000000
# modeled_height 6.000000
# height_kind assumed
# local_origin_world_x 172001.034850
# local_origin_world_y 402500.144600
mtllib construction_artifacts.mtl

o construction_4556_assumed_A_Casa
v -15.061500 14.105000 0.000000
v -10.503500 16.614000 0.000000
v -10.195500 15.997000 0.000000
v -4.339500 19.021000 0.000000
v 0.734500 9.197000 0.000000
v 1.869500 9.622000 0.000000
v 3.629500 7.385000 0.000000
v 2.028500 6.805000 0.000000
v 15.061500 -18.599000 0.000000
v 7.202500 -19.021000 0.000000
v -4.230500 3.500000 0.000000
v -8.190500 2.258000 0.000000
v -8.670500 4.088000 0.000000
v -10.145500 3.521000 0.000000
v -15.061500 14.105000 6.000000
v -10.503500 16.614000 6.000000
v -10.195500 15.997000 6.000000
v -4.339500 19.021000 6.000000
v 0.734500 9.197000 6.000000
v 1.869500 9.622000 6.000000
v 3.629500 7.385000 6.000000
v 2.028500 6.805000 6.000000
v 15.061500 -18.599000 6.000000
v 7.202500 -19.021000 6.000000
v -4.230500 3.500000 6.000000
v -8.190500 2.258000 6.000000
v -8.670500 4.088000 6.000000
v -10.145500 3.521000 6.000000
vn 0.000000 0.000000 -1.000000
vn 0.000000 0.000000 -1.000000
vn 0.000000 0.000000 -1.000000
vn 0.000000 0.000000 -1.000000
vn 0.000000 0.000000 -1.000000
vn 0.000000 0.000000 -1.000000
vn 0.000000 0.000000 -1.000000
vn 0.000000 -0.000000 -1.000000
vn 0.000000 -0.000000 -1.000000
vn 0.000000 0.000000 -1.000000
vn 0.000000 0.000000 -1.000000
vn 0.000000 0.000000 -1.000000
vn 0.000000 0.000000 1.000000
vn 0.000000 0.000000 1.000000
vn 0.000000 -0.000000 1.000000
vn 0.000000 0.000000 1.000000
vn 0.000000 0.000000 1.000000
vn 0.000000 0.000000 1.000000
vn 0.000000 0.000000 1.000000
vn 0.000000 0.000000 1.000000
vn 0.000000 0.000000 1.000000
vn 0.000000 0.000000 1.000000
vn 0.000000 0.000000 1.000000
vn 0.000000 0.000000 1.000000
vn -0.482229 0.876045 0.000000
vn -0.482229 0.876045 0.000000
vn 0.894717 0.446633 0.000000
vn 0.894717 0.446633 -0.000000
vn -0.458828 0.888525 0.000000
vn -0.458828 0.888525 0.000000
vn 0.888490 0.458896 0.000000
vn 0.888490 0.458896 -0.000000
vn -0.350671 0.936499 0.000000
vn -0.350671 0.936499 0.000000
vn 0.785916 0.618333 0.000000
vn 0.785916 0.618333 -0.000000
vn 0.340611 -0.940204 0.000000
vn 0.340611 -0.940204 0.000000
vn 0.889742 0.456464 0.000000
vn 0.889742 0.456464 -0.000000
vn 0.053619 -0.998561 0.000000
vn 0.053619 -0.998561 0.000000
vn -0.891679 -0.452669 0.000000
vn -0.891679 -0.452669 0.000000
vn 0.299263 -0.954171 0.000000
vn 0.299263 -0.954171 0.000000
vn -0.967280 -0.253713 0.000000
vn -0.967280 -0.253713 0.000000
vn 0.358809 -0.933411 0.000000
vn 0.358809 -0.933411 0.000000
vn -0.906943 -0.421252 0.000000
vn -0.906943 -0.421252 0.000000
usemtl assumed_base
f 14//1 1//1 2//1
f 14//2 2//2 3//2
f 14//3 3//3 4//3
f 14//4 4//4 5//4
f 14//5 5//5 6//5
f 6//6 7//6 8//6
f 8//7 9//7 10//7
f 8//8 10//8 11//8
f 6//9 8//9 11//9
f 6//10 11//10 12//10
f 6//11 12//11 13//11
f 6//12 13//12 14//12
usemtl assumed_roof
f 28//13 16//13 15//13
f 28//14 17//14 16//14
f 28//15 18//15 17//15
f 28//16 19//16 18//16
f 28//17 20//17 19//17
f 20//18 22//18 21//18
f 22//19 24//19 23//19
f 22//20 25//20 24//20
f 20//21 25//21 22//21
f 20//22 26//22 25//22
f 20//23 27//23 26//23
f 20//24 28//24 27//24
usemtl assumed_wall
f 1//25 16//25 2//25
f 1//26 15//26 16//26
f 2//27 17//27 3//27
f 2//28 16//28 17//28
f 3//29 18//29 4//29
f 3//30 17//30 18//30
f 4//31 19//31 5//31
f 4//32 18//32 19//32
f 5//33 20//33 6//33
f 5//34 19//34 20//34
f 6//35 21//35 7//35
f 6//36 20//36 21//36
f 7//37 22//37 8//37
f 7//38 21//38 22//38
f 8//39 23//39 9//39
f 8//40 22//40 23//40
f 9//41 24//41 10//41
f 9//42 23//42 24//42
f 10//43 25//43 11//43
f 10//44 24//44 25//44
f 11//45 26//45 12//45
f 11//46 25//46 26//46
f 12//47 27//47 13//47
f 12//48 26//48 27//48
f 13//49 28//49 14//49
f 13//50 27//50 28//50
f 14//51 15//51 1//51
f 14//52 28//52 15//52
