# construction_1402_assumed_A_Casa
# source A_Casa
# h_campo 0.000000
# modeled_height 6.000000
# height_kind assumed
# local_origin_world_x 172001.034850
# local_origin_world_y 402500.144600
mtllib construction_artifacts.mtl

o construction_1402_assumed_A_Casa
v -14.105500 -7.588000 0.000000
v -10.521500 -2.304000 0.000000
v -18.049500 2.932000 0.000000
v -12.359500 8.000000 0.000000
v -1.654500 23.244000 0.000000
v 7.087500 16.975000 0.000000
v 18.049500 8.719000 0.000000
v 16.762500 7.222000 0.000000
v 15.221500 8.436000 0.000000
v 12.786500 5.746000 0.000000
v 10.523500 7.556000 0.000000
v 9.443500 6.837000 0.000000
v 6.989500 8.459000 0.000000
v 7.991500 9.979000 0.000000
v 5.056500 13.333000 0.000000
v 0.370500 7.267000 0.000000
v 4.605500 4.282000 0.000000
v 5.799500 6.022000 0.000000
v 7.875500 4.530000 0.000000
v 3.330500 -1.053000 0.000000
v 6.497500 -3.112000 0.000000
v 1.149500 -10.039000 0.000000
v 4.828500 -12.935000 0.000000
v 2.927500 -15.925000 0.000000
v 3.562500 -16.857000 0.000000
v 2.732500 -17.842000 0.000000
v 3.452500 -18.796000 0.000000
v 0.038500 -22.712000 0.000000
v -1.157500 -21.965000 0.000000
v -1.989500 -23.244000 0.000000
v -10.638500 -17.167000 0.000000
v -8.905500 -15.209000 0.000000
v -12.910500 -12.489000 0.000000
v -10.948500 -9.669000 0.000000
v -14.105500 -7.588000 6.000000
v -10.521500 -2.304000 6.000000
v -18.049500 2.932000 6.000000
v -12.359500 8.000000 6.000000
v -1.654500 23.244000 6.000000
v 7.087500 16.975000 6.000000
v 18.049500 8.719000 6.000000
v 16.762500 7.222000 6.000000
v 15.221500 8.436000 6.000000
v 12.786500 5.746000 6.000000
v 10.523500 7.556000 6.000000
v 9.443500 6.837000 6.000000
v 6.989500 8.459000 6.000000
v 7.991500 9.979000 6.000000
v 5.056500 13.333000 6.000000
v 0.370500 7.267000 6.000000
v 4.605500 4.282000 6.000000
v 5.799500 6.022000 6.000000
v 7.875500 4.530000 6.000000
v 3.330500 -1.053000 6.000000
v 6.497500 -3.112000 6.000000
v 1.149500 -10.039000 6.000000
v 4.828500 -12.935000 6.000000
v 2.927500 -15.925000 6.000000
v 3.562500 -16.857000 6.000000
v 2.732500 -17.842000 6.000000
v 3.452500 -18.796000 6.000000
v 0.038500 -22.712000 6.000000
v -1.157500 -21.965000 6.000000
v -1.989500 -23.244000 6.000000
v -10.638500 -17.167000 6.000000
v -8.905500 -15.209000 6.000000
v -12.910500 -12.489000 6.000000
v -10.948500 -9.669000 6.000000
vn 0.000000 0.000000 -1.000000
vn 0.000000 0.000000 -1.000000
vn 0.000000 0.000000 -1.000000
vn 0.000000 0.000000 -1.000000
vn 0.000000 0.000000 -1.000000
vn 0.000000 0.000000 -1.000000
vn 0.000000 0.000000 -1.000000
vn 0.000000 0.000000 -1.000000
vn 0.000000 0.000000 -1.000000
vn -0.000000 0.000000 -1.000000
vn 0.000000 0.000000 -1.000000
vn 0.000000 0.000000 -1.000000
vn 0.000000 0.000000 -1.000000
vn 0.000000 0.000000 -1.000000
vn 0.000000 0.000000 -1.000000
vn 0.000000 0.000000 -1.000000
vn 0.000000 0.000000 -1.000000
vn 0.000000 0.000000 -1.000000
vn 0.000000 0.000000 -1.000000
vn 0.000000 0.000000 -1.000000
vn 0.000000 0.000000 -1.000000
vn 0.000000 0.000000 -1.000000
vn 0.000000 0.000000 -1.000000
vn 0.000000 0.000000 -1.000000
vn 0.000000 0.000000 -1.000000
vn 0.000000 0.000000 -1.000000
vn 0.000000 0.000000 -1.000000
vn 0.000000 0.000000 -1.000000
vn 0.000000 0.000000 -1.000000
vn 0.000000 0.000000 -1.000000
vn 0.000000 0.000000 -1.000000
vn 0.000000 0.000000 -1.000000
vn 0.000000 -0.000000 1.000000
vn 0.000000 0.000000 1.000000
vn 0.000000 -0.000000 1.000000
vn 0.000000 0.000000 1.000000
vn 0.000000 0.000000 1.000000
vn 0.000000 0.000000 1.000000
vn 0.000000 0.000000 1.000000
vn 0.000000 0.000000 1.000000
vn 0.000000 0.000000 1.000000
vn 0.000000 0.000000 1.000000
vn 0.000000 0.000000 1.000000
vn 0.000000 0.000000 1.000000
vn 0.000000 0.000000 1.000000
vn 0.000000 0.000000 1.000000
vn 0.000000 0.000000 1.000000
vn 0.000000 0.000000 1.000000
vn 0.000000 0.000000 1.000000
vn 0.000000 0.000000 1.000000
vn 0.000000 0.000000 1.000000
vn 0.000000 0.000000 1.000000
vn -0.000000 0.000000 1.000000
vn 0.000000 0.000000 1.000000
vn 0.000000 0.000000 1.000000
vn 0.000000 0.000000 1.000000
vn 0.000000 0.000000 1.000000
vn 0.000000 0.000000 1.000000
vn 0.000000 0.000000 1.000000
vn 0.000000 0.000000 1.000000
vn 0.000000 0.000000 1.000000
vn 0.000000 0.000000 1.000000
vn 0.000000 0.000000 1.000000
vn 0.000000 0.000000 1.000000
vn -0.827590 0.561333 0.000000
vn -0.827590 0.561333 0.000000
vn -0.571001 -0.820950 0.000000
vn -0.571001 -0.820950 0.000000
vn -0.665113 0.746743 0.000000
vn -0.665113 0.746743 0.000000
vn -0.818368 0.574694 0.000000
vn -0.818368 0.574694 0.000000
vn 0.582758 0.812645 0.000000
vn 0.582758 0.812645 -0.000000
vn 0.601608 0.798792 0.000000
vn 0.601608 0.798792 -0.000000
vn 0.758290 -0.651917 0.000000
vn 0.758290 -0.651917 0.000000
vn -0.618834 -0.785522 0.000000
vn -0.618834 -0.785522 0.000000
vn 0.741373 -0.671094 0.000000
vn 0.741373 -0.671094 0.000000
vn -0.624611 -0.780936 0.000000
vn -0.624611 -0.780936 0.000000
vn 0.554166 -0.832406 0.000000
vn 0.554166 -0.832406 0.000000
vn -0.551401 -0.834240 0.000000
vn -0.551401 -0.834240 0.000000
vn -0.834912 0.550383 0.000000
vn -0.834912 0.550383 0.000000
vn -0.752549 -0.658536 0.000000
vn -0.752549 -0.658536 0.000000
vn 0.791371 -0.611336 0.000000
vn 0.791371 -0.611336 0.000000
vn 0.576115 0.817369 0.000000
vn 0.576115 0.817369 -0.000000
vn -0.824539 0.565805 0.000000
vn -0.824539 0.565805 0.000000
vn 0.583604 0.812039 0.000000
vn 0.583604 0.812039 -0.000000
vn 0.775515 -0.631330 0.000000
vn 0.775515 -0.631330 0.000000
vn 0.545072 0.838389 0.000000
vn 0.545072 0.838389 -0.000000
vn 0.791544 -0.611112 0.000000
vn 0.791544 -0.611112 0.000000
vn 0.618529 0.785762 0.000000
vn 0.618529 0.785762 -0.000000
vn 0.843882 -0.536528 0.000000
vn 0.843882 -0.536528 0.000000
vn 0.826415 0.563062 0.000000
vn 0.826415 0.563062 -0.000000
vn 0.764710 -0.644375 0.000000
vn 0.764710 -0.644375 0.000000
vn 0.798189 0.602407 0.000000
vn 0.798189 0.602407 -0.000000
vn 0.753768 -0.657141 0.000000
vn 0.753768 -0.657141 0.000000
vn -0.529744 -0.848158 0.000000
vn -0.529744 -0.848158 0.000000
vn 0.838249 -0.545288 0.000000
vn 0.838249 -0.545288 0.000000
vn -0.574903 -0.818222 0.000000
vn -0.574903 -0.818222 0.000000
vn -0.748821 0.662772 0.000000
vn -0.748821 0.662772 0.000000
vn -0.561830 -0.827253 0.000000
vn -0.561830 -0.827253 0.000000
vn -0.820870 0.571116 0.000000
vn -0.820870 0.571116 0.000000
vn -0.550359 -0.834928 0.000000
vn -0.550359 -0.834928 0.000000
usemtl assumed_base
f 34//1 1//1 2//1
f 2//2 3//2 4//2
f 2//3 4//3 5//3
f 34//4 2//4 5//4
f 5//5 6//5 7//5
f 5//6 7//6 8//6
f 5//7 8//7 9//7
f 5//8 9//8 10//8
f 5//9 10//9 11//9
f 11//10 12//10 13//10
f 11//11 13//11 14//11
f 5//12 11//12 14//12
f 5//13 14//13 15//13
f 5//14 15//14 16//14
f 34//15 5//15 16//15
f 34//16 16//16 17//16
f 17//17 18//17 19//17
f 34//18 17//18 19//18
f 34//19 19//19 20//19
f 34//20 20//20 21//20
f 34//21 21//21 22//21
f 34//22 22//22 23//22
f 34//23 23//23 24//23
f 34//24 24//24 25//24
f 34//25 25//25 26//25
f 34//26 26//26 27//26
f 34//27 27//27 28//27
f 34//28 28//28 29//28
f 34//29 29//29 30//29
f 30//30 31//30 32//30
f 34//31 30//31 32//31
f 32//32 33//32 34//32
usemtl assumed_roof
f 68//33 36//33 35//33
f 36//34 38//34 37//34
f 36//35 39//35 38//35
f 68//36 39//36 36//36
f 39//37 41//37 40//37
f 39//38 42//38 41//38
f 39//39 43//39 42//39
f 39//40 44//40 43//40
f 39//41 45//41 44//41
f 45//42 47//42 46//42
f 45//43 48//43 47//43
f 39//44 48//44 45//44
f 39//45 49//45 48//45
f 39//46 50//46 49//46
f 68//47 50//47 39//47
f 68//48 51//48 50//48
f 51//49 53//49 52//49
f 68//50 53//50 51//50
f 68//51 54//51 53//51
f 68//52 55//52 54//52
f 68//53 56//53 55//53
f 68//54 57//54 56//54
f 68//55 58//55 57//55
f 68//56 59//56 58//56
f 68//57 60//57 59//57
f 68//58 61//58 60//58
f 68//59 62//59 61//59
f 68//60 63//60 62//60
f 68//61 64//61 63//61
f 64//62 66//62 65//62
f 68//63 66//63 64//63
f 66//64 68//64 67//64
usemtl assumed_wall
f 1//65 36//65 2//65
f 1//66 35//66 36//66
f 2//67 37//67 3//67
f 2//68 36//68 37//68
f 3//69 38//69 4//69
f 3//70 37//70 38//70
f 4//71 39//71 5//71
f 4//72 38//72 39//72
f 5//73 40//73 6//73
f 5//74 39//74 40//74
f 6//75 41//75 7//75
f 6//76 40//76 41//76
f 7//77 42//77 8//77
f 7//78 41//78 42//78
f 8//79 43//79 9//79
f 8//80 42//80 43//80
f 9//81 44//81 10//81
f 9//82 43//82 44//82
f 10//83 45//83 11//83
f 10//84 44//84 45//84
f 11//85 46//85 12//85
f 11//86 45//86 46//86
f 12//87 47//87 13//87
f 12//88 46//88 47//88
f 13//89 48//89 14//89
f 13//90 47//90 48//90
f 14//91 49//91 15//91
f 14//92 48//92 49//92
f 15//93 50//93 16//93
f 15//94 49//94 50//94
f 16//95 51//95 17//95
f 16//96 50//96 51//96
f 17//97 52//97 18//97
f 17//98 51//98 52//98
f 18//99 53//99 19//99
f 18//100 52//100 53//100
f 19//101 54//101 20//101
f 19//102 53//102 54//102
f 20//103 55//103 21//103
f 20//104 54//104 55//104
f 21//105 56//105 22//105
f 21//106 55//106 56//106
f 22//107 57//107 23//107
f 22//108 56//108 57//108
f 23//109 58//109 24//109
f 23//110 57//110 58//110
f 24//111 59//111 25//111
f 24//112 58//112 59//112
f 25//113 60//113 26//113
f 25//114 59//114 60//114
f 26//115 61//115 27//115
f 26//116 60//116 61//116
f 27//117 62//117 28//117
f 27//118 61//118 62//118
f 28//119 63//119 29//119
f 28//120 62//120 63//120
f 29//121 64//121 30//121
f 29//122 63//122 64//122
f 30//123 65//123 31//123
f 30//124 64//124 65//124
f 31//125 66//125 32//125
f 31//126 65//126 66//126
f 32//127 67//127 33//127
f 32//128 66//128 67//128
f 33//129 68//129 34//129
f 33//130 67//130 68//130
f 34//131 35//131 1//131
f 34//132 68//132 35//132
