# construction_4607_assumed_A_Casa
# source A_Casa
# h_campo 0.000000
# modeled_height 6.000000
# height_kind assumed
# local_origin_world_x 172001.034850
# local_origin_world_y 402500.144600
mtllib construction_artifacts.mtl

o construction_4607_assumed_A_Casa
v -8.469500 14.763500 0.000000
v -5.509500 4.078500 0.000000
v -2.386500 4.817500 0.000000
v -0.983500 -0.284500 0.000000
v 2.804500 0.763500 0.000000
v 2.526500 1.644500 0.000000
v 3.841500 2.169500 0.000000
v 5.184500 -0.073500 0.000000
v 6.483500 -0.074500 0.000000
v 5.865500 1.394500 0.000000
v 10.706500 2.179500 0.000000
v 11.695500 1.544500 0.000000
v 14.979500 -8.878500 0.000000
v -9.080500 -14.763500 0.000000
v -11.902500 -6.537500 0.000000
v -10.990500 -6.445500 0.000000
v -12.486500 -1.326500 0.000000
v -11.233500 -0.956500 0.000000
v -14.979500 12.774500 0.000000
v -8.469500 14.763500 6.000000
v -5.509500 4.078500 6.000000
v -2.386500 4.817500 6.000000
v -0.983500 -0.284500 6.000000
v 2.804500 0.763500 6.000000
v 2.526500 1.644500 6.000000
v 3.841500 2.169500 6.000000
v 5.184500 -0.073500 6.000000
v 6.483500 -0.074500 6.000000
v 5.865500 1.394500 6.000000
v 10.706500 2.179500 6.000000
v 11.695500 1.544500 6.000000
v 14.979500 -8.878500 6.000000
v -9.080500 -14.763500 6.000000
v -11.902500 -6.537500 6.000000
v -10.990500 -6.445500 6.000000
v -12.486500 -1.326500 6.000000
v -11.233500 -0.956500 6.000000
v -14.979500 12.774500 6.000000
vn 0.000000 0.000000 -1.000000
vn 0.000000 0.000000 -1.000000
vn 0.000000 0.000000 -1.000000
vn 0.000000 0.000000 -1.000000
vn 0.000000 0.000000 -1.000000
vn 0.000000 0.000000 -1.000000
vn 0.000000 0.000000 -1.000000
vn 0.000000 0.000000 -1.000000
vn 0.000000 0.000000 -1.000000
vn 0.000000 0.000000 -1.000000
vn 0.000000 0.000000 -1.000000
vn 0.000000 -0.000000 -1.000000
vn 0.000000 0.000000 -1.000000
vn 0.000000 0.000000 -1.000000
vn 0.000000 0.000000 -1.000000
vn 0.000000 0.000000 -1.000000
vn -0.000000 0.000000 -1.000000
vn -0.000000 0.000000 1.000000
vn -0.000000 0.000000 1.000000
vn 0.000000 0.000000 1.000000
vn 0.000000 -0.000000 1.000000
vn -0.000000 0.000000 1.000000
vn 0.000000 0.000000 1.000000
vn 0.000000 0.000000 1.000000
vn 0.000000 -0.000000 1.000000
vn 0.000000 0.000000 1.000000
vn -0.000000 0.000000 1.000000
vn -0.000000 0.000000 1.000000
vn 0.000000 0.000000 1.000000
vn 0.000000 0.000000 1.000000
vn 0.000000 0.000000 1.000000
vn 0.000000 0.000000 1.000000
vn 0.000000 0.000000 1.000000
vn 0.000000 0.000000 1.000000
vn 0.963705 0.266969 0.000000
vn 0.963705 0.266969 -0.000000
vn -0.230272 0.973126 0.000000
vn -0.230272 0.973126 0.000000
vn 0.964208 0.265148 0.000000
vn 0.964208 0.265148 -0.000000
vn -0.266646 0.963794 0.000000
vn -0.266646 0.963794 0.000000
vn -0.953648 -0.300924 0.000000
vn -0.953648 -0.300924 0.000000
vn -0.370782 0.928720 0.000000
vn -0.370782 0.928720 0.000000
vn 0.857965 0.513708 0.000000
vn 0.857965 0.513708 -0.000000
vn 0.000770 1.000000 0.000000
vn 0.000770 1.000000 -0.000000
vn -0.921753 -0.387776 0.000000
vn -0.921753 -0.387776 0.000000
vn -0.160066 0.987106 0.000000
vn -0.160066 0.987106 0.000000
vn 0.540284 0.841482 0.000000
vn 0.540284 0.841482 -0.000000
vn 0.953779 0.300509 0.000000
vn 0.953779 0.300509 -0.000000
vn 0.237593 -0.971365 0.000000
vn 0.237593 -0.971365 0.000000
vn -0.945887 -0.324495 0.000000
vn -0.945887 -0.324495 0.000000
vn -0.100368 0.994950 0.000000
vn -0.100368 0.994950 0.000000
vn -0.959851 -0.280511 0.000000
vn -0.959851 -0.280511 0.000000
vn -0.283202 0.959060 0.000000
vn -0.283202 0.959060 0.000000
vn -0.964743 -0.263195 0.000000
vn -0.964743 -0.263195 0.000000
vn -0.292196 0.956358 0.000000
vn -0.292196 0.956358 0.000000
usemtl assumed_base
f 19//1 1//1 2//1
f 2//2 3//2 4//2
f 19//3 2//3 4//3
f 5//4 6//4 7//4
f 5//5 7//5 8//5
f 4//6 5//6 8//6
f 4//7 8//7 9//7
f 9//8 10//8 11//8
f 9//9 11//9 12//9
f 9//10 12//10 13//10
f 4//11 9//11 13//11
f 4//12 13//12 14//12
f 14//13 15//13 16//13
f 4//14 14//14 16//14
f 4//15 16//15 17//15
f 4//16 17//16 18//16
f 4//17 18//17 19//17
usemtl assumed_roof
f 38//18 21//18 20//18
f 21//19 23//19 22//19
f 38//20 23//20 21//20
f 24//21 26//21 25//21
f 24//22 27//22 26//22
f 23//23 27//23 24//23
f 23//24 28//24 27//24
f 28//25 30//25 29//25
f 28//26 31//26 30//26
f 28//27 32//27 31//27
f 23//28 32//28 28//28
f 23//29 33//29 32//29
f 33//30 35//30 34//30
f 23//31 35//31 33//31
f 23//32 36//32 35//32
f 23//33 37//33 36//33
f 23//34 38//34 37//34
usemtl assumed_wall
f 1//35 21//35 2//35
f 1//36 20//36 21//36
f 2//37 22//37 3//37
f 2//38 21//38 22//38
f 3//39 23//39 4//39
f 3//40 22//40 23//40
f 4//41 24//41 5//41
f 4//42 23//42 24//42
f 5//43 25//43 6//43
f 5//44 24//44 25//44
f 6//45 26//45 7//45
f 6//46 25//46 26//46
f 7//47 27//47 8//47
f 7//48 26//48 27//48
f 8//49 28//49 9//49
f 8//50 27//50 28//50
f 9//51 29//51 10//51
f 9//52 28//52 29//52
f 10//53 30//53 11//53
f 10//54 29//54 30//54
f 11//55 31//55 12//55
f 11//56 30//56 31//56
f 12//57 32//57 13//57
f 12//58 31//58 32//58
f 13//59 33//59 14//59
f 13//60 32//60 33//60
f 14//61 34//61 15//61
f 14//62 33//62 34//62
f 15//63 35//63 16//63
f 15//64 34//64 35//64
f 16//65 36//65 17//65
f 16//66 35//66 36//66
f 17//67 37//67 18//67
f 17//68 36//68 37//68
f 18//69 38//69 19//69
f 18//70 37//70 38//70
f 19//71 20//71 1//71
f 19//72 38//72 20//72
