# construction_0102_assumed_A_Grande_construcao
# source A_Grande_construcao
# h_campo 0.000000
# modeled_height 6.000000
# height_kind assumed
# local_origin_world_x 172001.034850
# local_origin_world_y 402500.144600
mtllib construction_artifacts.mtl

o construction_0102_assumed_A_Grande_construcao
v -4.640500 50.964000 0.000000
v -1.357500 53.603000 0.000000
v 9.739500 41.103000 0.000000
v 6.425500 38.124000 0.000000
v 50.977500 -14.949000 0.000000
v 4.331500 -53.603000 0.000000
v -21.607500 -22.820000 0.000000
v -24.644500 -25.211000 0.000000
v -41.411500 -4.786000 0.000000
v -38.464500 -2.797000 0.000000
v -50.977500 12.249000 0.000000
v -4.640500 50.964000 6.000000
v -1.357500 53.603000 6.000000
v 9.739500 41.103000 6.000000
v 6.425500 38.124000 6.000000
v 50.977500 -14.949000 6.000000
v 4.331500 -53.603000 6.000000
v -21.607500 -22.820000 6.000000
v -24.644500 -25.211000 6.000000
v -41.411500 -4.786000 6.000000
v -38.464500 -2.797000 6.000000
v -50.977500 12.249000 6.000000
vn 0.000000 0.000000 -1.000000
vn 0.000000 0.000000 -1.000000
vn 0.000000 0.000000 -1.000000
vn 0.000000 0.000000 -1.000000
vn 0.000000 0.000000 -1.000000
vn 0.000000 0.000000 -1.000000
vn -0.000000 0.000000 -1.000000
vn 0.000000 0.000000 -1.000000
vn 0.000000 0.000000 -1.000000
vn 0.000000 0.000000 1.000000
vn 0.000000 0.000000 1.000000
vn 0.000000 0.000000 1.000000
vn -0.000000 0.000000 1.000000
vn 0.000000 0.000000 1.000000
vn 0.000000 0.000000 1.000000
vn 0.000000 0.000000 1.000000
vn 0.000000 0.000000 1.000000
vn 0.000000 0.000000 1.000000
vn -0.626517 0.779407 0.000000
vn -0.626517 0.779407 0.000000
vn 0.747828 0.663892 0.000000
vn 0.747828 0.663892 -0.000000
vn 0.668518 -0.743696 0.000000
vn 0.668518 -0.743696 0.000000
vn 0.765913 0.642944 0.000000
vn 0.765913 0.642944 -0.000000
vn 0.638061 -0.769985 0.000000
vn 0.638061 -0.769985 0.000000
vn -0.764710 -0.644375 0.000000
vn -0.764710 -0.644375 0.000000
vn 0.618587 -0.785716 0.000000
vn 0.618587 -0.785716 0.000000
vn -0.772924 -0.634498 0.000000
vn -0.772924 -0.634498 0.000000
vn -0.559429 0.828878 0.000000
vn -0.559429 0.828878 0.000000
vn -0.768858 -0.639420 0.000000
vn -0.768858 -0.639420 0.000000
vn -0.641169 0.767399 0.000000
vn -0.641169 0.767399 0.000000
usemtl assumed_base
f 11//1 1//1 2//1
f 11//2 2//2 3//2
f 11//3 3//3 4//3
f 11//4 4//4 5//4
f 11//5 5//5 6//5
f 11//6 6//6 7//6
f 7//7 8//7 9//7
f 7//8 9//8 10//8
f 7//9 10//9 11//9
usemtl assumed_roof
f 22//10 13//10 12//10
f 22//11 14//11 13//11
f 22//12 15//12 14//12
f 22//13 16//13 15//13
f 22//14 17//14 16//14
f 22//15 18//15 17//15
f 18//16 20//16 19//16
f 18//17 21//17 20//17
f 18//18 22//18 21//18
usemtl assumed_wall
f 1//19 13//19 2//19
f 1//20 12//20 13//20
f 2//21 14//21 3//21
f 2//22 13//22 14//22
f 3//23 15//23 4//23
f 3//24 14//24 15//24
f 4//25 16//25 5//25
f 4//26 15//26 16//26
f 5//27 17//27 6//27
f 5//28 16//28 17//28
f 6//29 18//29 7//29
f 6//30 17//30 18//30
f 7//31 19//31 8//31
f 7//32 18//32 19//32
f 8//33 20//33 9//33
f 8//34 19//34 20//34
f 9//35 21//35 10//35
f 9//36 20//36 21//36
f 10//37 22//37 11//37
f 10//38 21//38 22//38
f 11//39 12//39 1//39
f 11//40 22//40 12//40
