# construction_7073_assumed_A_Casa
# source A_Casa
# h_campo 0.000000
# modeled_height 6.000000
# height_kind assumed
# local_origin_world_x 172001.034850
# local_origin_world_y 402500.144600
mtllib construction_artifacts.mtl

o construction_7073_assumed_A_Casa
v -13.170000 -20.590500 0.000000
v 1.560000 -14.468500 0.000000
v 2.544000 -17.532500 0.000000
v 9.305000 -14.247500 0.000000
v -16.561000 49.892500 0.000000
v -9.202000 52.692500 0.000000
v 2.057000 24.757500 0.000000
v 4.952000 26.745500 0.000000
v 5.782000 25.196500 0.000000
v 8.807000 26.600500 0.000000
v 9.993000 23.335500 0.000000
v 7.388000 21.806500 0.000000
v 7.648000 20.912500 0.000000
v 4.276000 19.415500 0.000000
v 16.561000 -11.195500 0.000000
v 12.154000 -35.900500 0.000000
v 15.807000 -46.550500 0.000000
v 13.236000 -47.385500 0.000000
v 0.694000 -52.692500 0.000000
v -13.170000 -20.590500 6.000000
v 1.560000 -14.468500 6.000000
v 2.544000 -17.532500 6.000000
v 9.305000 -14.247500 6.000000
v -16.561000 49.892500 6.000000
v -9.202000 52.692500 6.000000
v 2.057000 24.757500 6.000000
v 4.952000 26.745500 6.000000
v 5.782000 25.196500 6.000000
v 8.807000 26.600500 6.000000
v 9.993000 23.335500 6.000000
v 7.388000 21.806500 6.000000
v 7.648000 20.912500 6.000000
v 4.276000 19.415500 6.000000
v 16.561000 -11.195500 6.000000
v 12.154000 -35.900500 6.000000
v 15.807000 -46.550500 6.000000
v 13.236000 -47.385500 6.000000
v 0.694000 -52.692500 6.000000
vn 0.000000 0.000000 -1.000000
vn 0.000000 0.000000 -1.000000
vn 0.000000 0.000000 -1.000000
vn 0.000000 0.000000 -1.000000
vn 0.000000 0.000000 -1.000000
vn 0.000000 0.000000 -1.000000
vn 0.000000 0.000000 -1.000000
vn 0.000000 0.000000 -1.000000
vn 0.000000 0.000000 -1.000000
vn 0.000000 0.000000 -1.000000
vn 0.000000 0.000000 -1.000000
vn 0.000000 0.000000 -1.000000
vn 0.000000 0.000000 -1.000000
vn 0.000000 0.000000 -1.000000
vn 0.000000 0.000000 -1.000000
vn 0.000000 0.000000 -1.000000
vn 0.000000 -0.000000 -1.000000
vn 0.000000 -0.000000 1.000000
vn 0.000000 0.000000 1.000000
vn 0.000000 0.000000 1.000000
vn 0.000000 0.000000 1.000000
vn 0.000000 0.000000 1.000000
vn 0.000000 0.000000 1.000000
vn -0.000000 0.000000 1.000000
vn -0.000000 0.000000 1.000000
vn 0.000000 0.000000 1.000000
vn 0.000000 0.000000 1.000000
vn 0.000000 0.000000 1.000000
vn 0.000000 0.000000 1.000000
vn 0.000000 -0.000000 1.000000
vn 0.000000 0.000000 1.000000
vn 0.000000 0.000000 1.000000
vn 0.000000 0.000000 1.000000
vn 0.000000 0.000000 1.000000
vn -0.383787 0.923422 0.000000
vn -0.383787 0.923422 0.000000
vn 0.952106 0.305768 0.000000
vn 0.952106 0.305768 -0.000000
vn -0.437021 0.899451 0.000000
vn -0.437021 0.899451 0.000000
vn -0.927426 -0.374007 0.000000
vn -0.927426 -0.374007 0.000000
vn -0.355615 0.934633 0.000000
vn -0.355615 0.934633 0.000000
vn 0.927500 0.373822 0.000000
vn 0.927500 0.373822 -0.000000
vn -0.566082 0.824349 0.000000
vn -0.566082 0.824349 0.000000
vn 0.881438 0.472300 0.000000
vn 0.881438 0.472300 -0.000000
vn -0.420997 0.907062 0.000000
vn -0.420997 0.907062 0.000000
vn 0.939911 0.341419 0.000000
vn 0.939911 0.341419 -0.000000
vn 0.506195 -0.862419 0.000000
vn 0.506195 -0.862419 0.000000
vn 0.960216 0.279258 0.000000
vn 0.960216 0.279258 -0.000000
vn 0.405761 -0.913979 0.000000
vn 0.405761 -0.913979 0.000000
vn 0.928052 0.372452 0.000000
vn 0.928052 0.372452 -0.000000
vn 0.984459 -0.175613 0.000000
vn 0.984459 -0.175613 0.000000
vn 0.945903 0.324449 0.000000
vn 0.945903 0.324449 -0.000000
vn 0.308894 -0.951097 0.000000
vn 0.308894 -0.951097 0.000000
vn 0.389688 -0.920947 0.000000
vn 0.389688 -0.920947 0.000000
vn -0.918044 -0.396479 0.000000
vn -0.918044 -0.396479 0.000000
usemtl assumed_base
f 19//1 1//1 2//1
f 19//2 2//2 3//2
f 19//3 3//3 4//3
f 4//4 5//4 6//4
f 4//5 6//5 7//5
f 7//6 8//6 9//6
f 9//7 10//7 11//7
f 7//8 9//8 11//8
f 7//9 11//9 12//9
f 7//10 12//10 13//10
f 7//11 13//11 14//11
f 4//12 7//12 14//12
f 4//13 14//13 15//13
f 19//14 4//14 15//14
f 19//15 15//15 16//15
f 16//16 17//16 18//16
f 16//17 18//17 19//17
usemtl assumed_roof
f 38//18 21//18 20//18
f 38//19 22//19 21//19
f 38//20 23//20 22//20
f 23//21 25//21 24//21
f 23//22 26//22 25//22
f 26//23 28//23 27//23
f 28//24 30//24 29//24
f 26//25 30//25 28//25
f 26//26 31//26 30//26
f 26//27 32//27 31//27
f 26//28 33//28 32//28
f 23//29 33//29 26//29
f 23//30 34//30 33//30
f 38//31 34//31 23//31
f 38//32 35//32 34//32
f 35//33 37//33 36//33
f 35//34 38//34 37//34
usemtl assumed_wall
f 1//35 21//35 2//35
f 1//36 20//36 21//36
f 2//37 22//37 3//37
f 2//38 21//38 22//38
f 3//39 23//39 4//39
f 3//40 22//40 23//40
f 4//41 24//41 5//41
f 4//42 23//42 24//42
f 5//43 25//43 6//43
f 5//44 24//44 25//44
f 6//45 26//45 7//45
f 6//46 25//46 26//46
f 7//47 27//47 8//47
f 7//48 26//48 27//48
f 8//49 28//49 9//49
f 8//50 27//50 28//50
f 9//51 29//51 10//51
f 9//52 28//52 29//52
f 10//53 30//53 11//53
f 10//54 29//54 30//54
f 11//55 31//55 12//55
f 11//56 30//56 31//56
f 12//57 32//57 13//57
f 12//58 31//58 32//58
f 13//59 33//59 14//59
f 13//60 32//60 33//60
f 14//61 34//61 15//61
f 14//62 33//62 34//62
f 15//63 35//63 16//63
f 15//64 34//64 35//64
f 16//65 36//65 17//65
f 16//66 35//66 36//66
f 17//67 37//67 18//67
f 17//68 36//68 37//68
f 18//69 38//69 19//69
f 18//70 37//70 38//70
f 19//71 20//71 1//71
f 19//72 38//72 20//72
