# construction_3472_assumed_A_Casa
# source A_Casa
# h_campo 0.000000
# modeled_height 6.000000
# height_kind assumed
# local_origin_world_x 172001.034850
# local_origin_world_y 402500.144600
mtllib construction_artifacts.mtl

o construction_3472_assumed_A_Casa
v -14.037500 -11.294500 0.000000
v -9.130500 -9.643500 0.000000
v -9.863500 -8.453500 0.000000
v -7.606500 -7.617500 0.000000
v -12.247500 2.520500 0.000000
v -8.846500 4.494500 0.000000
v -13.669500 16.003500 0.000000
v -2.307500 21.107500 0.000000
v 0.683500 15.000500 0.000000
v 5.174500 16.853500 0.000000
v 4.869500 17.942500 0.000000
v 10.212500 20.673500 0.000000
v 11.183500 18.450500 0.000000
v 6.446500 16.159500 0.000000
v 9.313500 10.185500 0.000000
v 3.519500 8.263500 0.000000
v 5.811500 2.907500 0.000000
v 12.176500 5.966500 0.000000
v 14.037500 3.195500 0.000000
v 7.414500 -0.100500 0.000000
v 9.526500 -4.905500 0.000000
v 2.868500 -7.808500 0.000000
v 2.382500 -6.561500 0.000000
v 0.033500 -6.915500 0.000000
v 2.534500 -15.068500 0.000000
v -2.765500 -16.945500 0.000000
v -2.076500 -18.337500 0.000000
v -10.117500 -21.107500 0.000000
v -14.037500 -11.294500 6.000000
v -9.130500 -9.643500 6.000000
v -9.863500 -8.453500 6.000000
v -7.606500 -7.617500 6.000000
v -12.247500 2.520500 6.000000
v -8.846500 4.494500 6.000000
v -13.669500 16.003500 6.000000
v -2.307500 21.107500 6.000000
v 0.683500 15.000500 6.000000
v 5.174500 16.853500 6.000000
v 4.869500 17.942500 6.000000
v 10.212500 20.673500 6.000000
v 11.183500 18.450500 6.000000
v 6.446500 16.159500 6.000000
v 9.313500 10.185500 6.000000
v 3.519500 8.263500 6.000000
v 5.811500 2.907500 6.000000
v 12.176500 5.966500 6.000000
v 14.037500 3.195500 6.000000
v 7.414500 -0.100500 6.000000
v 9.526500 -4.905500 6.000000
v 2.868500 -7.808500 6.000000
v 2.382500 -6.561500 6.000000
v 0.033500 -6.915500 6.000000
v 2.534500 -15.068500 6.000000
v -2.765500 -16.945500 6.000000
v -2.076500 -18.337500 6.000000
v -10.117500 -21.107500 6.000000
vn 0.000000 0.000000 -1.000000
vn 0.000000 0.000000 -1.000000
vn 0.000000 0.000000 -1.000000
vn 0.000000 0.000000 -1.000000
vn 0.000000 0.000000 -1.000000
vn 0.000000 0.000000 -1.000000
vn 0.000000 0.000000 -1.000000
vn 0.000000 0.000000 -1.000000
vn 0.000000 0.000000 -1.000000
vn 0.000000 0.000000 -1.000000
vn 0.000000 0.000000 -1.000000
vn 0.000000 0.000000 -1.000000
vn 0.000000 0.000000 -1.000000
vn 0.000000 -0.000000 -1.000000
vn 0.000000 0.000000 -1.000000
vn 0.000000 0.000000 -1.000000
vn 0.000000 0.000000 -1.000000
vn 0.000000 0.000000 -1.000000
vn 0.000000 0.000000 -1.000000
vn 0.000000 -0.000000 -1.000000
vn 0.000000 0.000000 -1.000000
vn 0.000000 0.000000 -1.000000
vn 0.000000 0.000000 -1.000000
vn 0.000000 -0.000000 -1.000000
vn 0.000000 0.000000 -1.000000
vn 0.000000 -0.000000 -1.000000
vn 0.000000 -0.000000 1.000000
vn 0.000000 -0.000000 1.000000
vn 0.000000 0.000000 1.000000
vn 0.000000 0.000000 1.000000
vn 0.000000 -0.000000 1.000000
vn 0.000000 -0.000000 1.000000
vn 0.000000 0.000000 1.000000
vn 0.000000 0.000000 1.000000
vn 0.000000 0.000000 1.000000
vn 0.000000 -0.000000 1.000000
vn 0.000000 0.000000 1.000000
vn -0.000000 0.000000 1.000000
vn 0.000000 0.000000 1.000000
vn 0.000000 0.000000 1.000000
vn 0.000000 0.000000 1.000000
vn 0.000000 0.000000 1.000000
vn 0.000000 0.000000 1.000000
vn -0.000000 0.000000 1.000000
vn 0.000000 0.000000 1.000000
vn 0.000000 0.000000 1.000000
vn 0.000000 0.000000 1.000000
vn 0.000000 0.000000 1.000000
vn 0.000000 0.000000 1.000000
vn 0.000000 0.000000 1.000000
vn 0.000000 0.000000 1.000000
vn 0.000000 0.000000 1.000000
vn -0.318892 0.947791 0.000000
vn -0.318892 0.947791 0.000000
vn -0.851437 -0.524457 0.000000
vn -0.851437 -0.524457 0.000000
vn -0.347341 0.937739 0.000000
vn -0.347341 0.937739 0.000000
vn -0.909254 -0.416241 0.000000
vn -0.909254 -0.416241 0.000000
vn -0.501988 0.864874 0.000000
vn -0.501988 0.864874 0.000000
vn -0.922290 -0.386498 0.000000
vn -0.922290 -0.386498 0.000000
vn -0.409770 0.912189 0.000000
vn -0.409770 0.912189 0.000000
vn 0.898073 0.439846 0.000000
vn 0.898073 0.439846 -0.000000
vn -0.381412 0.924405 0.000000
vn -0.381412 0.924405 0.000000
vn -0.962946 -0.269696 0.000000
vn -0.962946 -0.269696 0.000000
vn -0.455129 0.890426 0.000000
vn -0.455129 0.890426 0.000000
vn 0.916394 0.400278 0.000000
vn 0.916394 0.400278 -0.000000
vn 0.435392 -0.900241 0.000000
vn 0.435392 -0.900241 0.000000
vn 0.901554 0.432667 0.000000
vn 0.901554 0.432667 -0.000000
vn 0.314851 -0.949141 0.000000
vn 0.314851 -0.949141 0.000000
vn 0.919358 0.393422 0.000000
vn 0.919358 0.393422 -0.000000
vn -0.433168 0.901313 0.000000
vn -0.433168 0.901313 0.000000
vn 0.830156 0.557532 0.000000
vn 0.830156 0.557532 -0.000000
vn 0.445537 -0.895264 0.000000
vn 0.445537 -0.895264 0.000000
vn 0.915469 0.402387 0.000000
vn 0.915469 0.402387 -0.000000
vn 0.399677 -0.916656 0.000000
vn 0.399677 -0.916656 0.000000
vn -0.931738 -0.363131 0.000000
vn -0.931738 -0.363131 0.000000
vn 0.149020 -0.988834 0.000000
vn 0.149020 -0.988834 0.000000
vn 0.956030 0.293270 0.000000
vn 0.956030 0.293270 -0.000000
vn 0.333834 -0.942632 0.000000
vn 0.333834 -0.942632 0.000000
vn 0.896223 0.443604 0.000000
vn 0.896223 0.443604 -0.000000
vn 0.325701 -0.945473 0.000000
vn 0.325701 -0.945473 0.000000
vn -0.928646 -0.370966 0.000000
vn -0.928646 -0.370966 0.000000
usemtl assumed_base
f 28//1 1//1 2//1
f 2//2 3//2 4//2
f 28//3 2//3 4//3
f 4//4 5//4 6//4
f 6//5 7//5 8//5
f 4//6 6//6 8//6
f 4//7 8//7 9//7
f 28//8 4//8 9//8
f 28//9 9//9 10//9
f 10//10 11//10 12//10
f 10//11 12//11 13//11
f 10//12 13//12 14//12
f 28//13 10//13 14//13
f 14//14 15//14 16//14
f 28//15 14//15 16//15
f 28//16 16//16 17//16
f 17//17 18//17 19//17
f 17//18 19//18 20//18
f 17//19 20//19 21//19
f 17//20 21//20 22//20
f 17//21 22//21 23//21
f 17//22 23//22 24//22
f 28//23 17//23 24//23
f 24//24 25//24 26//24
f 28//25 24//25 26//25
f 26//26 27//26 28//26
usemtl assumed_roof
f 56//27 30//27 29//27
f 30//28 32//28 31//28
f 56//29 32//29 30//29
f 32//30 34//30 33//30
f 34//31 36//31 35//31
f 32//32 36//32 34//32
f 32//33 37//33 36//33
f 56//34 37//34 32//34
f 56//35 38//35 37//35
f 38//36 40//36 39//36
f 38//37 41//37 40//37
f 38//38 42//38 41//38
f 56//39 42//39 38//39
f 42//40 44//40 43//40
f 56//41 44//41 42//41
f 56//42 45//42 44//42
f 45//43 47//43 46//43
f 45//44 48//44 47//44
f 45//45 49//45 48//45
f 45//46 50//46 49//46
f 45//47 51//47 50//47
f 45//48 52//48 51//48
f 56//49 52//49 45//49
f 52//50 54//50 53//50
f 56//51 54//51 52//51
f 54//52 56//52 55//52
usemtl assumed_wall
f 1//53 30//53 2//53
f 1//54 29//54 30//54
f 2//55 31//55 3//55
f 2//56 30//56 31//56
f 3//57 32//57 4//57
f 3//58 31//58 32//58
f 4//59 33//59 5//59
f 4//60 32//60 33//60
f 5//61 34//61 6//61
f 5//62 33//62 34//62
f 6//63 35//63 7//63
f 6//64 34//64 35//64
f 7//65 36//65 8//65
f 7//66 35//66 36//66
f 8//67 37//67 9//67
f 8//68 36//68 37//68
f 9//69 38//69 10//69
f 9//70 37//70 38//70
f 10//71 39//71 11//71
f 10//72 38//72 39//72
f 11//73 40//73 12//73
f 11//74 39//74 40//74
f 12//75 41//75 13//75
f 12//76 40//76 41//76
f 13//77 42//77 14//77
f 13//78 41//78 42//78
f 14//79 43//79 15//79
f 14//80 42//80 43//80
f 15//81 44//81 16//81
f 15//82 43//82 44//82
f 16//83 45//83 17//83
f 16//84 44//84 45//84
f 17//85 46//85 18//85
f 17//86 45//86 46//86
f 18//87 47//87 19//87
f 18//88 46//88 47//88
f 19//89 48//89 20//89
f 19//90 47//90 48//90
f 20//91 49//91 21//91
f 20//92 48//92 49//92
f 21//93 50//93 22//93
f 21//94 49//94 50//94
f 22//95 51//95 23//95
f 22//96 50//96 51//96
f 23//97 52//97 24//97
f 23//98 51//98 52//98
f 24//99 53//99 25//99
f 24//100 52//100 53//100
f 25//101 54//101 26//101
f 25//102 53//102 54//102
f 26//103 55//103 27//103
f 26//104 54//104 55//104
f 27//105 56//105 28//105
f 27//106 55//106 56//106
f 28//107 29//107 1//107
f 28//108 56//108 29//108
