# construction_2610_assumed_A_Casa
# source A_Casa
# h_campo 0.000000
# modeled_height 6.000000
# height_kind assumed
# local_origin_world_x 172001.034850
# local_origin_world_y 402500.144600
mtllib construction_artifacts.mtl

o construction_2610_assumed_A_Casa
v -5.353000 18.314500 0.000000
v 2.524000 12.764500 0.000000
v -1.100000 7.808500 0.000000
v 0.855000 6.323500 0.000000
v 0.270000 5.559500 0.000000
v 3.101000 3.375500 0.000000
v 7.013000 2.619500 0.000000
v 9.714000 17.873500 0.000000
v 13.940000 17.106500 0.000000
v 11.625000 4.425500 0.000000
v 5.389000 -18.314500 0.000000
v 1.735000 -17.356500 0.000000
v 3.056000 -11.611500 0.000000
v -2.497000 -10.336500 0.000000
v -1.121000 -4.063500 0.000000
v -2.425000 -4.017500 0.000000
v -1.209000 -2.028500 0.000000
v -3.344000 -0.194500 0.000000
v -3.974000 -0.890500 0.000000
v -13.940000 6.661500 0.000000
v -5.353000 18.314500 6.000000
v 2.524000 12.764500 6.000000
v -1.100000 7.808500 6.000000
v 0.855000 6.323500 6.000000
v 0.270000 5.559500 6.000000
v 3.101000 3.375500 6.000000
v 7.013000 2.619500 6.000000
v 9.714000 17.873500 6.000000
v 13.940000 17.106500 6.000000
v 11.625000 4.425500 6.000000
v 5.389000 -18.314500 6.000000
v 1.735000 -17.356500 6.000000
v 3.056000 -11.611500 6.000000
v -2.497000 -10.336500 6.000000
v -1.121000 -4.063500 6.000000
v -2.425000 -4.017500 6.000000
v -1.209000 -2.028500 6.000000
v -3.344000 -0.194500 6.000000
v -3.974000 -0.890500 6.000000
v -13.940000 6.661500 6.000000
vn 0.000000 0.000000 -1.000000
vn 0.000000 0.000000 -1.000000
vn 0.000000 0.000000 -1.000000
vn 0.000000 0.000000 -1.000000
vn 0.000000 0.000000 -1.000000
vn 0.000000 0.000000 -1.000000
vn 0.000000 0.000000 -1.000000
vn 0.000000 0.000000 -1.000000
vn 0.000000 -0.000000 -1.000000
vn 0.000000 0.000000 -1.000000
vn 0.000000 0.000000 -1.000000
vn 0.000000 0.000000 -1.000000
vn 0.000000 0.000000 -1.000000
vn 0.000000 0.000000 -1.000000
vn 0.000000 0.000000 -1.000000
vn 0.000000 0.000000 -1.000000
vn 0.000000 0.000000 -1.000000
vn -0.000000 0.000000 -1.000000
vn 0.000000 0.000000 1.000000
vn 0.000000 0.000000 1.000000
vn -0.000000 0.000000 1.000000
vn 0.000000 0.000000 1.000000
vn 0.000000 0.000000 1.000000
vn 0.000000 0.000000 1.000000
vn 0.000000 0.000000 1.000000
vn 0.000000 0.000000 1.000000
vn -0.000000 0.000000 1.000000
vn 0.000000 0.000000 1.000000
vn 0.000000 0.000000 1.000000
vn 0.000000 0.000000 1.000000
vn 0.000000 0.000000 1.000000
vn 0.000000 0.000000 1.000000
vn 0.000000 0.000000 1.000000
vn 0.000000 0.000000 1.000000
vn 0.000000 0.000000 1.000000
vn 0.000000 0.000000 1.000000
vn 0.575974 0.817468 0.000000
vn 0.575974 0.817468 -0.000000
vn 0.807212 -0.590262 0.000000
vn 0.807212 -0.590262 0.000000
vn 0.604877 0.796319 0.000000
vn 0.604877 0.796319 -0.000000
vn 0.793974 -0.607951 0.000000
vn 0.793974 -0.607951 0.000000
vn 0.610818 0.791771 0.000000
vn 0.610818 0.791771 -0.000000
vn 0.189741 0.981834 0.000000
vn 0.189741 0.981834 -0.000000
vn -0.984683 0.174356 0.000000
vn -0.984683 0.174356 0.000000
vn 0.178578 0.983926 0.000000
vn 0.178578 0.983926 -0.000000
vn 0.983742 -0.179589 0.000000
vn 0.983742 -0.179589 0.000000
vn 0.964395 -0.264466 0.000000
vn 0.964395 -0.264466 0.000000
vn -0.253607 -0.967307 0.000000
vn -0.253607 -0.967307 0.000000
vn -0.974568 0.224091 0.000000
vn -0.974568 0.224091 0.000000
vn -0.223783 -0.974639 0.000000
vn -0.223783 -0.974639 0.000000
vn -0.976777 0.214259 0.000000
vn -0.976777 0.214259 0.000000
vn -0.035254 -0.999378 0.000000
vn -0.035254 -0.999378 0.000000
vn -0.853186 0.521606 0.000000
vn -0.853186 0.521606 0.000000
vn -0.651610 -0.758554 0.000000
vn -0.651610 -0.758554 0.000000
vn 0.741384 -0.671081 0.000000
vn 0.741384 -0.671081 0.000000
vn -0.603959 -0.797015 0.000000
vn -0.603959 -0.797015 0.000000
vn -0.805037 0.593225 0.000000
vn -0.805037 0.593225 0.000000
usemtl assumed_base
f 20//1 1//1 2//1
f 20//2 2//2 3//2
f 20//3 3//3 4//3
f 20//4 4//4 5//4
f 20//5 5//5 6//5
f 20//6 6//6 7//6
f 7//7 8//7 9//7
f 7//8 9//8 10//8
f 7//9 10//9 11//9
f 7//10 11//10 12//10
f 7//11 12//11 13//11
f 7//12 13//12 14//12
f 7//13 14//13 15//13
f 7//14 15//14 16//14
f 7//15 16//15 17//15
f 7//16 17//16 18//16
f 20//17 7//17 18//17
f 18//18 19//18 20//18
usemtl assumed_roof
f 40//19 22//19 21//19
f 40//20 23//20 22//20
f 40//21 24//21 23//21
f 40//22 25//22 24//22
f 40//23 26//23 25//23
f 40//24 27//24 26//24
f 27//25 29//25 28//25
f 27//26 30//26 29//26
f 27//27 31//27 30//27
f 27//28 32//28 31//28
f 27//29 33//29 32//29
f 27//30 34//30 33//30
f 27//31 35//31 34//31
f 27//32 36//32 35//32
f 27//33 37//33 36//33
f 27//34 38//34 37//34
f 40//35 38//35 27//35
f 38//36 40//36 39//36
usemtl assumed_wall
f 1//37 22//37 2//37
f 1//38 21//38 22//38
f 2//39 23//39 3//39
f 2//40 22//40 23//40
f 3//41 24//41 4//41
f 3//42 23//42 24//42
f 4//43 25//43 5//43
f 4//44 24//44 25//44
f 5//45 26//45 6//45
f 5//46 25//46 26//46
f 6//47 27//47 7//47
f 6//48 26//48 27//48
f 7//49 28//49 8//49
f 7//50 27//50 28//50
f 8//51 29//51 9//51
f 8//52 28//52 29//52
f 9//53 30//53 10//53
f 9//54 29//54 30//54
f 10//55 31//55 11//55
f 10//56 30//56 31//56
f 11//57 32//57 12//57
f 11//58 31//58 32//58
f 12//59 33//59 13//59
f 12//60 32//60 33//60
f 13//61 34//61 14//61
f 13//62 33//62 34//62
f 14//63 35//63 15//63
f 14//64 34//64 35//64
f 15//65 36//65 16//65
f 15//66 35//66 36//66
f 16//67 37//67 17//67
f 16//68 36//68 37//68
f 17//69 38//69 18//69
f 17//70 37//70 38//70
f 18//71 39//71 19//71
f 18//72 38//72 39//72
f 19//73 40//73 20//73
f 19//74 39//74 40//74
f 20//75 21//75 1//75
f 20//76 40//76 21//76
