# construction_6030_assumed_A_Casa
# source A_Casa
# h_campo 0.000000
# modeled_height 6.000000
# height_kind assumed
# local_origin_world_x 172001.034850
# local_origin_world_y 402500.144600
mtllib construction_artifacts.mtl

o construction_6030_assumed_A_Casa
v -9.546500 -15.503000 0.000000
v -17.650500 -2.228000 0.000000
v 11.852500 15.503000 0.000000
v 17.650500 5.801000 0.000000
v 12.537500 2.623000 0.000000
v 9.391500 8.199000 0.000000
v -5.388500 0.093000 0.000000
v 0.367500 -9.594000 0.000000
v -9.546500 -15.503000 6.000000
v -17.650500 -2.228000 6.000000
v 11.852500 15.503000 6.000000
v 17.650500 5.801000 6.000000
v 12.537500 2.623000 6.000000
v 9.391500 8.199000 6.000000
v -5.388500 0.093000 6.000000
v 0.367500 -9.594000 6.000000
vn -0.000000 0.000000 -1.000000
vn 0.000000 0.000000 -1.000000
vn 0.000000 -0.000000 -1.000000
vn 0.000000 0.000000 -1.000000
vn 0.000000 0.000000 -1.000000
vn 0.000000 0.000000 -1.000000
vn 0.000000 0.000000 1.000000
vn 0.000000 0.000000 1.000000
vn 0.000000 0.000000 1.000000
vn 0.000000 0.000000 1.000000
vn 0.000000 0.000000 1.000000
vn -0.000000 0.000000 1.000000
vn -0.853525 -0.521052 0.000000
vn -0.853525 -0.521052 0.000000
vn -0.515119 0.857118 0.000000
vn -0.515119 0.857118 0.000000
vn 0.858397 0.512986 0.000000
vn 0.858397 0.512986 -0.000000
vn 0.527892 -0.849311 0.000000
vn 0.527892 -0.849311 0.000000
vn -0.870941 -0.491388 0.000000
vn -0.870941 -0.491388 0.000000
vn 0.480871 -0.876791 0.000000
vn 0.480871 -0.876791 0.000000
vn 0.859685 0.510824 0.000000
vn 0.859685 0.510824 -0.000000
vn 0.511983 -0.858995 0.000000
vn 0.511983 -0.858995 0.000000
usemtl assumed_base
f 8//1 1//1 2//1
f 3//2 4//2 5//2
f 3//3 5//3 6//3
f 2//4 3//4 6//4
f 2//5 6//5 7//5
f 2//6 7//6 8//6
usemtl assumed_roof
f 16//7 10//7 9//7
f 11//8 13//8 12//8
f 11//9 14//9 13//9
f 10//10 14//10 11//10
f 10//11 15//11 14//11
f 10//12 16//12 15//12
usemtl assumed_wall
f 1//13 10//13 2//13
f 1//14 9//14 10//14
f 2//15 11//15 3//15
f 2//16 10//16 11//16
f 3//17 12//17 4//17
f 3//18 11//18 12//18
f 4//19 13//19 5//19
f 4//20 12//20 13//20
f 5//21 14//21 6//21
f 5//22 13//22 14//22
f 6//23 15//23 7//23
f 6//24 14//24 15//24
f 7//25 16//25 8//25
f 7//26 15//26 16//26
f 8//27 9//27 1//27
f 8//28 16//28 9//28
