# construction_4966_assumed_A_Casa
# source A_Casa
# h_campo 0.000000
# modeled_height 6.000000
# height_kind assumed
# local_origin_world_x 172001.034850
# local_origin_world_y 402500.144600
mtllib construction_artifacts.mtl

o construction_4966_assumed_A_Casa
v 6.990000 -12.272500 0.000000
v -5.571000 -11.308500 0.000000
v -6.648000 -19.483500 0.000000
v -12.645000 -18.426500 0.000000
v -7.126000 19.483500 0.000000
v -0.566000 18.677500 0.000000
v -0.768000 16.696500 0.000000
v 4.246000 16.092500 0.000000
v 12.645000 9.870500 0.000000
v 10.926000 -11.735500 0.000000
v 6.992000 -11.429500 0.000000
v 6.990000 -12.272500 6.000000
v -5.571000 -11.308500 6.000000
v -6.648000 -19.483500 6.000000
v -12.645000 -18.426500 6.000000
v -7.126000 19.483500 6.000000
v -0.566000 18.677500 6.000000
v -0.768000 16.696500 6.000000
v 4.246000 16.092500 6.000000
v 12.645000 9.870500 6.000000
v 10.926000 -11.735500 6.000000
v 6.992000 -11.429500 6.000000
v 4.200000 -0.151500 0.000000
v 5.673000 8.696500 0.000000
v 3.509000 8.913500 0.000000
v 3.195000 7.087500 0.000000
v -1.974000 7.776500 0.000000
v -3.427000 1.373500 0.000000
v 4.200000 -0.151500 6.000000
v 5.673000 8.696500 6.000000
v 3.509000 8.913500 6.000000
v 3.195000 7.087500 6.000000
v -1.974000 7.776500 6.000000
v -3.427000 1.373500 6.000000
vn -0.000000 0.000000 -1.000000
vn 0.000000 0.000000 -1.000000
vn -0.000000 0.000000 -1.000000
vn 0.000000 0.000000 -1.000000
vn 0.000000 0.000000 -1.000000
vn 0.000000 0.000000 -1.000000
vn 0.000000 0.000000 -1.000000
vn 0.000000 0.000000 -1.000000
vn 0.000000 0.000000 -1.000000
vn 0.000000 0.000000 -1.000000
vn -0.000000 0.000000 -1.000000
vn 0.000000 0.000000 -1.000000
vn -0.000000 0.000000 -1.000000
vn 0.000000 0.000000 1.000000
vn 0.000000 0.000000 1.000000
vn 0.000000 0.000000 1.000000
vn 0.000000 0.000000 1.000000
vn 0.000000 0.000000 1.000000
vn 0.000000 0.000000 1.000000
vn 0.000000 0.000000 1.000000
vn 0.000000 -0.000000 1.000000
vn 0.000000 0.000000 1.000000
vn -0.000000 0.000000 1.000000
vn 0.000000 0.000000 1.000000
vn 0.000000 0.000000 1.000000
vn 0.000000 0.000000 1.000000
vn -0.076520 -0.997068 0.000000
vn -0.076520 -0.997068 0.000000
vn 0.991433 -0.130615 0.000000
vn 0.991433 -0.130615 0.000000
vn -0.173579 -0.984820 0.000000
vn -0.173579 -0.984820 0.000000
vn -0.989569 0.144063 0.000000
vn -0.989569 0.144063 0.000000
vn 0.121949 0.992536 0.000000
vn 0.121949 0.992536 -0.000000
vn 0.994841 -0.101443 0.000000
vn 0.994841 -0.101443 0.000000
vn 0.119598 0.992822 0.000000
vn 0.119598 0.992822 -0.000000
vn 0.595260 0.803533 0.000000
vn 0.595260 0.803533 -0.000000
vn 0.996850 -0.079311 0.000000
vn 0.996850 -0.079311 0.000000
vn -0.077549 -0.996989 0.000000
vn -0.077549 -0.996989 0.000000
vn 0.999997 -0.002372 0.000000
vn 0.999997 -0.002372 0.000000
vn 0.986424 -0.164218 0.000000
vn 0.986424 -0.164218 0.000000
vn 0.099777 0.995010 0.000000
vn 0.099777 0.995010 -0.000000
vn -0.985535 0.169473 0.000000
vn -0.985535 0.169473 0.000000
vn 0.132126 0.991233 0.000000
vn 0.132126 0.991233 -0.000000
vn -0.975206 0.221299 0.000000
vn -0.975206 0.221299 0.000000
vn -0.196067 -0.980591 0.000000
vn -0.196067 -0.980591 0.000000
usemtl assumed_base
f 11//1 1//1 2//1
f 2//2 3//2 4//2
f 2//3 4//3 5//3
f 11//4 2//4 5//4
f 5//5 6//5 7//5
f 11//6 5//6 7//6
f 11//7 7//7 8//7
f 11//8 8//8 9//8
f 9//9 10//9 11//9
f 28//10 24//10 23//10
f 24//11 26//11 25//11
f 28//12 26//12 24//12
f 26//13 28//13 27//13
usemtl assumed_roof
f 22//14 13//14 12//14
f 13//15 15//15 14//15
f 13//16 16//16 15//16
f 22//17 16//17 13//17
f 16//18 18//18 17//18
f 22//19 18//19 16//19
f 22//20 19//20 18//20
f 22//21 20//21 19//21
f 20//22 22//22 21//22
f 34//23 29//23 30//23
f 30//24 31//24 32//24
f 34//25 30//25 32//25
f 32//26 33//26 34//26
usemtl assumed_wall
f 1//27 13//27 2//27
f 1//28 12//28 13//28
f 2//29 14//29 3//29
f 2//30 13//30 14//30
f 3//31 15//31 4//31
f 3//32 14//32 15//32
f 4//33 16//33 5//33
f 4//34 15//34 16//34
f 5//35 17//35 6//35
f 5//36 16//36 17//36
f 6//37 18//37 7//37
f 6//38 17//38 18//38
f 7//39 19//39 8//39
f 7//40 18//40 19//40
f 8//41 20//41 9//41
f 8//42 19//42 20//42
f 9//43 21//43 10//43
f 9//44 20//44 21//44
f 10//45 22//45 11//45
f 10//46 21//46 22//46
f 11//47 12//47 1//47
f 11//48 22//48 12//48
f 23//49 24//49 30//49
f 23//50 30//50 29//50
f 24//51 25//51 31//51
f 24//52 31//52 30//52
f 25//53 26//53 32//53
f 25//54 32//54 31//54
f 26//55 27//55 33//55
f 26//56 33//56 32//56
f 27//57 28//57 34//57
f 27//58 34//58 33//58
f 28//59 23//59 29//59
f 28//60 29//60 34//60
