# construction_3367_assumed_A_Casa
# source A_Casa
# h_campo 0.000000
# modeled_height 6.000000
# height_kind assumed
# local_origin_world_x 172001.034850
# local_origin_world_y 402500.144600
mtllib construction_artifacts.mtl

o construction_3367_assumed_A_Casa
v -13.658000 5.888500 0.000000
v -7.985000 12.089500 0.000000
v 3.880000 1.840500 0.000000
v 13.658000 -8.455500 0.000000
v 10.287000 -12.089500 0.000000
v 0.260000 -2.730500 0.000000
v -1.463000 -4.750500 0.000000
v -13.658000 5.888500 6.000000
v -7.985000 12.089500 6.000000
v 3.880000 1.840500 6.000000
v 13.658000 -8.455500 6.000000
v 10.287000 -12.089500 6.000000
v 0.260000 -2.730500 6.000000
v -1.463000 -4.750500 6.000000
vn 0.000000 0.000000 -1.000000
vn 0.000000 0.000000 -1.000000
vn 0.000000 0.000000 -1.000000
vn 0.000000 -0.000000 -1.000000
vn 0.000000 0.000000 -1.000000
vn 0.000000 0.000000 1.000000
vn 0.000000 -0.000000 1.000000
vn 0.000000 0.000000 1.000000
vn 0.000000 0.000000 1.000000
vn 0.000000 0.000000 1.000000
vn -0.737821 0.674997 0.000000
vn -0.737821 0.674997 0.000000
vn 0.653691 0.756761 0.000000
vn 0.653691 0.756761 -0.000000
vn 0.725112 0.688631 0.000000
vn 0.725112 0.688631 -0.000000
vn 0.733138 -0.680080 0.000000
vn 0.733138 -0.680080 0.000000
vn -0.682336 -0.731038 0.000000
vn -0.682336 -0.731038 0.000000
vn 0.760823 -0.648959 0.000000
vn 0.760823 -0.648959 0.000000
vn -0.657397 -0.753544 0.000000
vn -0.657397 -0.753544 0.000000
usemtl assumed_base
f 7//1 1//1 2//1
f 7//2 2//2 3//2
f 3//3 4//3 5//3
f 3//4 5//4 6//4
f 3//5 6//5 7//5
usemtl assumed_roof
f 14//6 9//6 8//6
f 14//7 10//7 9//7
f 10//8 12//8 11//8
f 10//9 13//9 12//9
f 10//10 14//10 13//10
usemtl assumed_wall
f 1//11 9//11 2//11
f 1//12 8//12 9//12
f 2//13 10//13 3//13
f 2//14 9//14 10//14
f 3//15 11//15 4//15
f 3//16 10//16 11//16
f 4//17 12//17 5//17
f 4//18 11//18 12//18
f 5//19 13//19 6//19
f 5//20 12//20 13//20
f 6//21 14//21 7//21
f 6//22 13//22 14//22
f 7//23 8//23 1//23
f 7//24 14//24 8//24
