# construction_5322_assumed_A_Casa
# source A_Casa
# h_campo 0.000000
# modeled_height 6.000000
# height_kind assumed
# local_origin_world_x 172001.034850
# local_origin_world_y 402500.144600
mtllib construction_artifacts.mtl

o construction_5322_assumed_A_Casa
v -14.470000 -4.190500 0.000000
v -8.031000 2.899500 0.000000
v -1.836000 -3.292500 0.000000
v 0.489000 -0.782500 0.000000
v -0.902000 0.404500 0.000000
v -0.897000 4.617500 0.000000
v 4.519000 10.908500 0.000000
v 5.522000 9.668500 0.000000
v 8.567000 12.891500 0.000000
v 14.470000 7.557500 0.000000
v -5.392000 -12.891500 0.000000
v -7.920000 -10.465500 0.000000
v -4.361000 -6.091500 0.000000
v -8.689000 -1.790500 0.000000
v -12.873000 -5.932500 0.000000
v -14.470000 -4.190500 6.000000
v -8.031000 2.899500 6.000000
v -1.836000 -3.292500 6.000000
v 0.489000 -0.782500 6.000000
v -0.902000 0.404500 6.000000
v -0.897000 4.617500 6.000000
v 4.519000 10.908500 6.000000
v 5.522000 9.668500 6.000000
v 8.567000 12.891500 6.000000
v 14.470000 7.557500 6.000000
v -5.392000 -12.891500 6.000000
v -7.920000 -10.465500 6.000000
v -4.361000 -6.091500 6.000000
v -8.689000 -1.790500 6.000000
v -12.873000 -5.932500 6.000000
vn 0.000000 0.000000 -1.000000
vn 0.000000 0.000000 -1.000000
vn 0.000000 0.000000 -1.000000
vn 0.000000 0.000000 -1.000000
vn 0.000000 0.000000 -1.000000
vn 0.000000 0.000000 -1.000000
vn 0.000000 0.000000 -1.000000
vn 0.000000 -0.000000 -1.000000
vn 0.000000 0.000000 -1.000000
vn 0.000000 0.000000 -1.000000
vn 0.000000 0.000000 -1.000000
vn 0.000000 -0.000000 -1.000000
vn 0.000000 0.000000 -1.000000
vn 0.000000 -0.000000 1.000000
vn 0.000000 0.000000 1.000000
vn 0.000000 -0.000000 1.000000
vn 0.000000 0.000000 1.000000
vn 0.000000 0.000000 1.000000
vn 0.000000 0.000000 1.000000
vn 0.000000 0.000000 1.000000
vn -0.000000 0.000000 1.000000
vn 0.000000 0.000000 1.000000
vn 0.000000 0.000000 1.000000
vn 0.000000 0.000000 1.000000
vn 0.000000 0.000000 1.000000
vn 0.000000 0.000000 1.000000
vn -0.740275 0.672304 0.000000
vn -0.740275 0.672304 0.000000
vn 0.706936 0.707278 0.000000
vn 0.706936 0.707278 -0.000000
vn -0.733626 0.679554 0.000000
vn -0.733626 0.679554 0.000000
vn -0.649123 -0.760683 0.000000
vn -0.649123 -0.760683 0.000000
vn -0.999999 0.001187 0.000000
vn -0.999999 0.001187 0.000000
vn -0.757843 0.652437 0.000000
vn -0.757843 0.652437 0.000000
vn 0.777493 0.628892 0.000000
vn 0.777493 0.628892 -0.000000
vn -0.726894 0.686749 0.000000
vn -0.726894 0.686749 0.000000
vn 0.670443 0.741961 0.000000
vn 0.670443 0.741961 -0.000000
vn 0.717327 -0.696736 0.000000
vn 0.717327 -0.696736 0.000000
vn -0.692401 -0.721513 0.000000
vn -0.692401 -0.721513 0.000000
vn -0.775669 0.631140 0.000000
vn -0.775669 0.631140 0.000000
vn -0.704891 -0.709316 0.000000
vn -0.704891 -0.709316 0.000000
vn 0.703531 -0.710665 0.000000
vn 0.703531 -0.710665 0.000000
vn -0.737119 -0.675763 0.000000
vn -0.737119 -0.675763 0.000000
usemtl assumed_base
f 15//1 1//1 2//1
f 4//2 5//2 6//2
f 4//3 6//3 7//3
f 4//4 7//4 8//4
f 4//5 8//5 9//5
f 4//6 9//6 10//6
f 3//7 4//7 10//7
f 3//8 10//8 11//8
f 3//9 11//9 12//9
f 3//10 12//10 13//10
f 2//11 3//11 13//11
f 2//12 13//12 14//12
f 2//13 14//13 15//13
usemtl assumed_roof
f 30//14 17//14 16//14
f 19//15 21//15 20//15
f 19//16 22//16 21//16
f 19//17 23//17 22//17
f 19//18 24//18 23//18
f 19//19 25//19 24//19
f 18//20 25//20 19//20
f 18//21 26//21 25//21
f 18//22 27//22 26//22
f 18//23 28//23 27//23
f 17//24 28//24 18//24
f 17//25 29//25 28//25
f 17//26 30//26 29//26
usemtl assumed_wall
f 1//27 17//27 2//27
f 1//28 16//28 17//28
f 2//29 18//29 3//29
f 2//30 17//30 18//30
f 3//31 19//31 4//31
f 3//32 18//32 19//32
f 4//33 20//33 5//33
f 4//34 19//34 20//34
f 5//35 21//35 6//35
f 5//36 20//36 21//36
f 6//37 22//37 7//37
f 6//38 21//38 22//38
f 7//39 23//39 8//39
f 7//40 22//40 23//40
f 8//41 24//41 9//41
f 8//42 23//42 24//42
f 9//43 25//43 10//43
f 9//44 24//44 25//44
f 10//45 26//45 11//45
f 10//46 25//46 26//46
f 11//47 27//47 12//47
f 11//48 26//48 27//48
f 12//49 28//49 13//49
f 12//50 27//50 28//50
f 13//51 29//51 14//51
f 13//52 28//52 29//52
f 14//53 30//53 15//53
f 14//54 29//54 30//54
f 15//55 16//55 1//55
f 15//56 30//56 16//56
