# construction_0471_assumed_A_Casa
# source A_Casa
# h_campo 0.000000
# modeled_height 6.000000
# height_kind assumed
# local_origin_world_x 172001.034850
# local_origin_world_y 402500.144600
mtllib construction_artifacts.mtl

o construction_0471_assumed_A_Casa
v 4.649000 13.818500 0.000000
v 5.196000 12.163500 0.000000
v 9.139000 13.019500 0.000000
v 9.915000 10.694500 0.000000
v 10.698000 10.987500 0.000000
v 12.965000 3.217500 0.000000
v 7.633000 2.029500 0.000000
v 9.253000 -4.616500 0.000000
v 5.348000 -5.282500 0.000000
v 6.548000 -10.652500 0.000000
v -7.529000 -13.818500 0.000000
v -7.899000 -12.453500 0.000000
v -9.618000 -12.811500 0.000000
v -12.297000 -1.173500 0.000000
v 6.671000 2.647500 0.000000
v 5.510000 7.233500 0.000000
v -11.536000 3.227500 0.000000
v -12.965000 9.483500 0.000000
v 4.649000 13.818500 6.000000
v 5.196000 12.163500 6.000000
v 9.139000 13.019500 6.000000
v 9.915000 10.694500 6.000000
v 10.698000 10.987500 6.000000
v 12.965000 3.217500 6.000000
v 7.633000 2.029500 6.000000
v 9.253000 -4.616500 6.000000
v 5.348000 -5.282500 6.000000
v 6.548000 -10.652500 6.000000
v -7.529000 -13.818500 6.000000
v -7.899000 -12.453500 6.000000
v -9.618000 -12.811500 6.000000
v -12.297000 -1.173500 6.000000
v 6.671000 2.647500 6.000000
v 5.510000 7.233500 6.000000
v -11.536000 3.227500 6.000000
v -12.965000 9.483500 6.000000
vn 0.000000 0.000000 -1.000000
vn 0.000000 0.000000 -1.000000
vn 0.000000 0.000000 -1.000000
vn 0.000000 0.000000 -1.000000
vn 0.000000 -0.000000 -1.000000
vn 0.000000 -0.000000 -1.000000
vn 0.000000 0.000000 -1.000000
vn 0.000000 -0.000000 -1.000000
vn 0.000000 0.000000 -1.000000
vn 0.000000 0.000000 -1.000000
vn -0.000000 0.000000 -1.000000
vn 0.000000 0.000000 -1.000000
vn 0.000000 0.000000 -1.000000
vn 0.000000 0.000000 -1.000000
vn 0.000000 0.000000 -1.000000
vn -0.000000 0.000000 -1.000000
vn 0.000000 0.000000 1.000000
vn -0.000000 0.000000 1.000000
vn 0.000000 0.000000 1.000000
vn -0.000000 0.000000 1.000000
vn 0.000000 0.000000 1.000000
vn 0.000000 0.000000 1.000000
vn 0.000000 0.000000 1.000000
vn 0.000000 0.000000 1.000000
vn 0.000000 0.000000 1.000000
vn 0.000000 0.000000 1.000000
vn 0.000000 0.000000 1.000000
vn 0.000000 -0.000000 1.000000
vn 0.000000 0.000000 1.000000
vn 0.000000 0.000000 1.000000
vn -0.000000 0.000000 1.000000
vn 0.000000 0.000000 1.000000
vn 0.949483 0.313817 0.000000
vn 0.949483 0.313817 -0.000000
vn -0.212152 0.977237 0.000000
vn -0.212152 0.977237 0.000000
vn 0.948561 0.316595 0.000000
vn 0.948561 0.316595 -0.000000
vn -0.350468 0.936575 0.000000
vn -0.350468 0.936575 0.000000
vn 0.959975 0.280085 0.000000
vn 0.959975 0.280085 -0.000000
vn 0.217473 -0.976066 0.000000
vn 0.217473 -0.976066 0.000000
vn 0.971553 0.236822 0.000000
vn 0.971553 0.236822 -0.000000
vn 0.168123 -0.985766 0.000000
vn 0.168123 -0.985766 0.000000
vn 0.975930 0.218085 0.000000
vn 0.975930 0.218085 -0.000000
vn 0.219425 -0.975629 0.000000
vn 0.219425 -0.975629 0.000000
vn -0.965171 -0.261621 0.000000
vn -0.965171 -0.261621 0.000000
vn 0.203886 -0.978995 0.000000
vn 0.203886 -0.978995 0.000000
vn -0.974514 -0.224327 0.000000
vn -0.974514 -0.224327 0.000000
vn -0.197478 0.980307 0.000000
vn -0.197478 0.980307 0.000000
vn -0.969417 -0.245419 0.000000
vn -0.969417 -0.245419 0.000000
vn 0.228778 -0.973479 0.000000
vn 0.228778 -0.973479 0.000000
vn -0.974890 -0.222685 0.000000
vn -0.974890 -0.222685 0.000000
vn -0.238980 0.971025 0.000000
vn -0.238980 0.971025 0.000000
usemtl assumed_base
f 18//1 1//1 2//1
f 2//2 3//2 4//2
f 18//3 2//3 4//3
f 4//4 5//4 6//4
f 4//5 6//5 7//5
f 7//6 8//6 9//6
f 4//7 7//7 9//7
f 9//8 10//8 11//8
f 9//9 11//9 12//9
f 9//10 12//10 13//10
f 9//11 13//11 14//11
f 9//12 14//12 15//12
f 4//13 9//13 15//13
f 4//14 15//14 16//14
f 18//15 4//15 16//15
f 16//16 17//16 18//16
usemtl assumed_roof
f 36//17 20//17 19//17
f 20//18 22//18 21//18
f 36//19 22//19 20//19
f 22//20 24//20 23//20
f 22//21 25//21 24//21
f 25//22 27//22 26//22
f 22//23 27//23 25//23
f 27//24 29//24 28//24
f 27//25 30//25 29//25
f 27//26 31//26 30//26
f 27//27 32//27 31//27
f 27//28 33//28 32//28
f 22//29 33//29 27//29
f 22//30 34//30 33//30
f 36//31 34//31 22//31
f 34//32 36//32 35//32
usemtl assumed_wall
f 1//33 20//33 2//33
f 1//34 19//34 20//34
f 2//35 21//35 3//35
f 2//36 20//36 21//36
f 3//37 22//37 4//37
f 3//38 21//38 22//38
f 4//39 23//39 5//39
f 4//40 22//40 23//40
f 5//41 24//41 6//41
f 5//42 23//42 24//42
f 6//43 25//43 7//43
f 6//44 24//44 25//44
f 7//45 26//45 8//45
f 7//46 25//46 26//46
f 8//47 27//47 9//47
f 8//48 26//48 27//48
f 9//49 28//49 10//49
f 9//50 27//50 28//50
f 10//51 29//51 11//51
f 10//52 28//52 29//52
f 11//53 30//53 12//53
f 11//54 29//54 30//54
f 12//55 31//55 13//55
f 12//56 30//56 31//56
f 13//57 32//57 14//57
f 13//58 31//58 32//58
f 14//59 33//59 15//59
f 14//60 32//60 33//60
f 15//61 34//61 16//61
f 15//62 33//62 34//62
f 16//63 35//63 17//63
f 16//64 34//64 35//64
f 17//65 36//65 18//65
f 17//66 35//66 36//66
f 18//67 19//67 1//67
f 18//68 36//68 19//68
