# construction_4838_assumed_A_Casa
# source A_Casa
# h_campo 0.000000
# modeled_height 6.000000
# height_kind assumed
# local_origin_world_x 172001.034850
# local_origin_world_y 402500.144600
mtllib construction_artifacts.mtl

o construction_4838_assumed_A_Casa
v -29.253000 -23.619500 0.000000
v -11.686000 -22.673500 0.000000
v -13.337000 -6.004500 0.000000
v -7.406000 -5.688500 0.000000
v -9.550000 10.978500 0.000000
v -7.761000 11.329500 0.000000
v -12.845000 25.163500 0.000000
v 11.729000 33.954500 0.000000
v 29.253000 -13.447500 0.000000
v 5.232000 -21.558500 0.000000
v 5.433000 -27.639500 0.000000
v -8.572000 -28.498500 0.000000
v -8.366000 -32.848500 0.000000
v -28.960000 -33.954500 0.000000
v -29.253000 -23.619500 6.000000
v -11.686000 -22.673500 6.000000
v -13.337000 -6.004500 6.000000
v -7.406000 -5.688500 6.000000
v -9.550000 10.978500 6.000000
v -7.761000 11.329500 6.000000
v -12.845000 25.163500 6.000000
v 11.729000 33.954500 6.000000
v 29.253000 -13.447500 6.000000
v 5.232000 -21.558500 6.000000
v 5.433000 -27.639500 6.000000
v -8.572000 -28.498500 6.000000
v -8.366000 -32.848500 6.000000
v -28.960000 -33.954500 6.000000
vn 0.000000 0.000000 -1.000000
vn 0.000000 0.000000 -1.000000
vn 0.000000 0.000000 -1.000000
vn 0.000000 0.000000 -1.000000
vn 0.000000 0.000000 -1.000000
vn 0.000000 0.000000 -1.000000
vn 0.000000 0.000000 -1.000000
vn 0.000000 0.000000 -1.000000
vn 0.000000 0.000000 -1.000000
vn 0.000000 -0.000000 -1.000000
vn 0.000000 0.000000 -1.000000
vn 0.000000 -0.000000 -1.000000
vn 0.000000 -0.000000 1.000000
vn 0.000000 -0.000000 1.000000
vn 0.000000 0.000000 1.000000
vn 0.000000 -0.000000 1.000000
vn 0.000000 -0.000000 1.000000
vn 0.000000 0.000000 1.000000
vn 0.000000 0.000000 1.000000
vn 0.000000 0.000000 1.000000
vn 0.000000 0.000000 1.000000
vn 0.000000 0.000000 1.000000
vn 0.000000 0.000000 1.000000
vn 0.000000 0.000000 1.000000
vn -0.053773 0.998553 0.000000
vn -0.053773 0.998553 0.000000
vn -0.995131 -0.098564 0.000000
vn -0.995131 -0.098564 0.000000
vn -0.053204 0.998584 0.000000
vn -0.053204 0.998584 0.000000
vn -0.991827 -0.127586 0.000000
vn -0.991827 -0.127586 0.000000
vn -0.192528 0.981291 0.000000
vn -0.192528 0.981291 0.000000
vn -0.938623 -0.344944 0.000000
vn -0.938623 -0.344944 0.000000
vn -0.336832 0.941565 0.000000
vn -0.336832 0.941565 0.000000
vn 0.937957 0.346752 0.000000
vn 0.937957 0.346752 -0.000000
vn 0.319917 -0.947446 0.000000
vn 0.319917 -0.947446 0.000000
vn 0.999454 0.033036 0.000000
vn 0.999454 0.033036 -0.000000
vn 0.061220 -0.998124 0.000000
vn 0.061220 -0.998124 0.000000
vn 0.998881 0.047303 0.000000
vn 0.998881 0.047303 -0.000000
vn 0.053628 -0.998561 0.000000
vn 0.053628 -0.998561 0.000000
vn -0.999598 -0.028339 0.000000
vn -0.999598 -0.028339 0.000000
usemtl assumed_base
f 14//1 1//1 2//1
f 2//2 3//2 4//2
f 4//3 5//3 6//3
f 6//4 7//4 8//4
f 4//5 6//5 8//5
f 2//6 4//6 8//6
f 2//7 8//7 9//7
f 2//8 9//8 10//8
f 14//9 2//9 10//9
f 10//10 11//10 12//10
f 14//11 10//11 12//11
f 12//12 13//12 14//12
usemtl assumed_roof
f 28//13 16//13 15//13
f 16//14 18//14 17//14
f 18//15 20//15 19//15
f 20//16 22//16 21//16
f 18//17 22//17 20//17
f 16//18 22//18 18//18
f 16//19 23//19 22//19
f 16//20 24//20 23//20
f 28//21 24//21 16//21
f 24//22 26//22 25//22
f 28//23 26//23 24//23
f 26//24 28//24 27//24
usemtl assumed_wall
f 1//25 16//25 2//25
f 1//26 15//26 16//26
f 2//27 17//27 3//27
f 2//28 16//28 17//28
f 3//29 18//29 4//29
f 3//30 17//30 18//30
f 4//31 19//31 5//31
f 4//32 18//32 19//32
f 5//33 20//33 6//33
f 5//34 19//34 20//34
f 6//35 21//35 7//35
f 6//36 20//36 21//36
f 7//37 22//37 8//37
f 7//38 21//38 22//38
f 8//39 23//39 9//39
f 8//40 22//40 23//40
f 9//41 24//41 10//41
f 9//42 23//42 24//42
f 10//43 25//43 11//43
f 10//44 24//44 25//44
f 11//45 26//45 12//45
f 11//46 25//46 26//46
f 12//47 27//47 13//47
f 12//48 26//48 27//48
f 13//49 28//49 14//49
f 13//50 27//50 28//50
f 14//51 15//51 1//51
f 14//52 28//52 15//52
