# construction_4947_assumed_A_Casa
# source A_Casa
# h_campo 0.000000
# modeled_height 6.000000
# height_kind assumed
# local_origin_world_x 172001.034850
# local_origin_world_y 402500.144600
mtllib construction_artifacts.mtl

o construction_4947_assumed_A_Casa
v 1.621500 11.682000 0.000000
v 5.540500 8.280000 0.000000
v 10.619500 2.423000 0.000000
v 6.404500 -1.737000 0.000000
v 0.975500 3.444000 0.000000
v -1.532500 1.397000 0.000000
v 5.520500 -6.224000 0.000000
v -0.321500 -11.682000 0.000000
v -9.417500 -2.579000 0.000000
v -9.067500 -1.946000 0.000000
v -10.619500 -0.265000 0.000000
v -6.402500 3.616000 0.000000
v 1.621500 11.682000 6.000000
v 5.540500 8.280000 6.000000
v 10.619500 2.423000 6.000000
v 6.404500 -1.737000 6.000000
v 0.975500 3.444000 6.000000
v -1.532500 1.397000 6.000000
v 5.520500 -6.224000 6.000000
v -0.321500 -11.682000 6.000000
v -9.417500 -2.579000 6.000000
v -9.067500 -1.946000 6.000000
v -10.619500 -0.265000 6.000000
v -6.402500 3.616000 6.000000
vn 0.000000 0.000000 -1.000000
vn 0.000000 0.000000 -1.000000
vn 0.000000 -0.000000 -1.000000
vn 0.000000 0.000000 -1.000000
vn 0.000000 0.000000 -1.000000
vn 0.000000 0.000000 -1.000000
vn 0.000000 0.000000 -1.000000
vn 0.000000 0.000000 -1.000000
vn 0.000000 -0.000000 -1.000000
vn 0.000000 0.000000 -1.000000
vn 0.000000 0.000000 1.000000
vn 0.000000 0.000000 1.000000
vn 0.000000 0.000000 1.000000
vn -0.000000 0.000000 1.000000
vn 0.000000 0.000000 1.000000
vn 0.000000 0.000000 1.000000
vn 0.000000 0.000000 1.000000
vn 0.000000 0.000000 1.000000
vn 0.000000 0.000000 1.000000
vn 0.000000 -0.000000 1.000000
vn 0.655539 0.755161 0.000000
vn 0.655539 0.755161 -0.000000
vn 0.755502 0.655147 0.000000
vn 0.755502 0.655147 -0.000000
vn 0.702448 -0.711735 0.000000
vn 0.702448 -0.711735 0.000000
vn -0.690390 -0.723437 0.000000
vn -0.690390 -0.723437 0.000000
vn 0.632312 -0.774714 0.000000
vn 0.632312 -0.774714 0.000000
vn 0.733928 0.679227 0.000000
vn 0.733928 0.679227 -0.000000
vn 0.682684 -0.730714 0.000000
vn 0.682684 -0.730714 0.000000
vn -0.707379 -0.706835 0.000000
vn -0.707379 -0.706835 0.000000
vn -0.875134 0.483881 0.000000
vn -0.875134 0.483881 0.000000
vn -0.734736 -0.678353 0.000000
vn -0.734736 -0.678353 0.000000
vn -0.677185 0.735813 0.000000
vn -0.677185 0.735813 0.000000
vn -0.708950 0.705259 0.000000
vn -0.708950 0.705259 0.000000
usemtl assumed_base
f 12//1 1//1 2//1
f 2//2 3//2 4//2
f 2//3 4//3 5//3
f 12//4 2//4 5//4
f 12//5 5//5 6//5
f 12//6 6//6 7//6
f 12//7 7//7 8//7
f 8//8 9//8 10//8
f 12//9 8//9 10//9
f 10//10 11//10 12//10
usemtl assumed_roof
f 24//11 14//11 13//11
f 14//12 16//12 15//12
f 14//13 17//13 16//13
f 24//14 17//14 14//14
f 24//15 18//15 17//15
f 24//16 19//16 18//16
f 24//17 20//17 19//17
f 20//18 22//18 21//18
f 24//19 22//19 20//19
f 22//20 24//20 23//20
usemtl assumed_wall
f 1//21 14//21 2//21
f 1//22 13//22 14//22
f 2//23 15//23 3//23
f 2//24 14//24 15//24
f 3//25 16//25 4//25
f 3//26 15//26 16//26
f 4//27 17//27 5//27
f 4//28 16//28 17//28
f 5//29 18//29 6//29
f 5//30 17//30 18//30
f 6//31 19//31 7//31
f 6//32 18//32 19//32
f 7//33 20//33 8//33
f 7//34 19//34 20//34
f 8//35 21//35 9//35
f 8//36 20//36 21//36
f 9//37 22//37 10//37
f 9//38 21//38 22//38
f 10//39 23//39 11//39
f 10//40 22//40 23//40
f 11//41 24//41 12//41
f 11//42 23//42 24//42
f 12//43 13//43 1//43
f 12//44 24//44 13//44
