# construction_4826_assumed_A_Casa
# source A_Casa
# h_campo 0.000000
# modeled_height 6.000000
# height_kind assumed
# local_origin_world_x 172001.034850
# local_origin_world_y 402500.144600
mtllib construction_artifacts.mtl

o construction_4826_assumed_A_Casa
v -22.886500 1.988000 0.000000
v -12.019500 9.661000 0.000000
v -12.054500 10.910000 0.000000
v -14.886500 12.585000 0.000000
v -9.156500 23.368000 0.000000
v -6.927500 22.282000 0.000000
v -5.626500 24.712000 0.000000
v -1.501500 23.072000 0.000000
v -2.971500 20.542000 0.000000
v 5.034500 16.262000 0.000000
v 7.182500 20.653000 0.000000
v 8.842500 20.078000 0.000000
v 3.351500 8.225000 0.000000
v 5.467500 7.083000 0.000000
v 9.085500 12.452000 0.000000
v 22.886500 5.675000 0.000000
v 9.227500 -19.495000 0.000000
v 6.304500 -18.022000 0.000000
v -2.203500 -24.712000 0.000000
v -6.845500 -18.739000 0.000000
v -7.616500 -19.520000 0.000000
v -12.457500 -13.185000 0.000000
v -2.016500 -5.239000 0.000000
v -4.833500 -3.124000 0.000000
v -13.836500 -9.756000 0.000000
v -22.886500 1.988000 6.000000
v -12.019500 9.661000 6.000000
v -12.054500 10.910000 6.000000
v -14.886500 12.585000 6.000000
v -9.156500 23.368000 6.000000
v -6.927500 22.282000 6.000000
v -5.626500 24.712000 6.000000
v -1.501500 23.072000 6.000000
v -2.971500 20.542000 6.000000
v 5.034500 16.262000 6.000000
v 7.182500 20.653000 6.000000
v 8.842500 20.078000 6.000000
v 3.351500 8.225000 6.000000
v 5.467500 7.083000 6.000000
v 9.085500 12.452000 6.000000
v 22.886500 5.675000 6.000000
v 9.227500 -19.495000 6.000000
v 6.304500 -18.022000 6.000000
v -2.203500 -24.712000 6.000000
v -6.845500 -18.739000 6.000000
v -7.616500 -19.520000 6.000000
v -12.457500 -13.185000 6.000000
v -2.016500 -5.239000 6.000000
v -4.833500 -3.124000 6.000000
v -13.836500 -9.756000 6.000000
vn 0.000000 0.000000 -1.000000
vn 0.000000 0.000000 -1.000000
vn 0.000000 0.000000 -1.000000
vn 0.000000 0.000000 -1.000000
vn 0.000000 0.000000 -1.000000
vn 0.000000 0.000000 -1.000000
vn 0.000000 0.000000 -1.000000
vn 0.000000 0.000000 -1.000000
vn 0.000000 0.000000 -1.000000
vn 0.000000 0.000000 -1.000000
vn 0.000000 0.000000 -1.000000
vn 0.000000 0.000000 -1.000000
vn 0.000000 0.000000 -1.000000
vn 0.000000 0.000000 -1.000000
vn 0.000000 0.000000 -1.000000
vn 0.000000 0.000000 -1.000000
vn 0.000000 -0.000000 -1.000000
vn 0.000000 0.000000 -1.000000
vn 0.000000 0.000000 -1.000000
vn 0.000000 0.000000 -1.000000
vn 0.000000 0.000000 -1.000000
vn 0.000000 0.000000 -1.000000
vn 0.000000 0.000000 -1.000000
vn 0.000000 -0.000000 1.000000
vn 0.000000 -0.000000 1.000000
vn 0.000000 -0.000000 1.000000
vn 0.000000 0.000000 1.000000
vn 0.000000 0.000000 1.000000
vn 0.000000 0.000000 1.000000
vn 0.000000 0.000000 1.000000
vn 0.000000 0.000000 1.000000
vn 0.000000 0.000000 1.000000
vn 0.000000 0.000000 1.000000
vn 0.000000 0.000000 1.000000
vn 0.000000 0.000000 1.000000
vn 0.000000 0.000000 1.000000
vn -0.000000 0.000000 1.000000
vn 0.000000 0.000000 1.000000
vn 0.000000 0.000000 1.000000
vn 0.000000 0.000000 1.000000
vn 0.000000 0.000000 1.000000
vn 0.000000 0.000000 1.000000
vn 0.000000 -0.000000 1.000000
vn 0.000000 0.000000 1.000000
vn 0.000000 0.000000 1.000000
vn 0.000000 0.000000 1.000000
vn -0.576792 0.816891 0.000000
vn -0.576792 0.816891 0.000000
vn -0.999608 -0.028011 0.000000
vn -0.999608 -0.028011 0.000000
vn -0.509077 -0.860721 0.000000
vn -0.509077 -0.860721 0.000000
vn -0.883064 0.469253 0.000000
vn -0.883064 0.469253 0.000000
vn 0.437994 0.898978 0.000000
vn 0.437994 0.898978 -0.000000
vn -0.881599 0.472000 0.000000
vn -0.881599 0.472000 0.000000
vn 0.369448 0.929251 0.000000
vn 0.369448 0.929251 -0.000000
vn 0.864645 -0.502383 0.000000
vn 0.864645 -0.502383 0.000000
vn 0.471457 0.881889 0.000000
vn 0.471457 0.881889 -0.000000
vn -0.898280 0.439423 0.000000
vn -0.898280 0.439423 0.000000
vn 0.327306 0.944918 0.000000
vn 0.327306 0.944918 -0.000000
vn 0.907365 -0.420344 0.000000
vn 0.907365 -0.420344 0.000000
vn 0.474943 0.880017 0.000000
vn 0.474943 0.880017 -0.000000
vn -0.829284 0.558828 0.000000
vn -0.829284 0.558828 0.000000
vn 0.440776 0.897617 0.000000
vn 0.440776 0.897617 -0.000000
vn 0.878922 -0.476965 0.000000
vn 0.878922 -0.476965 0.000000
vn -0.450022 -0.893017 0.000000
vn -0.450022 -0.893017 0.000000
vn 0.618115 -0.786087 0.000000
vn 0.618115 -0.786087 0.000000
vn -0.789587 -0.613639 0.000000
vn -0.789587 -0.613639 0.000000
vn 0.711648 -0.702536 0.000000
vn 0.711648 -0.702536 0.000000
vn -0.794564 -0.607180 0.000000
vn -0.794564 -0.607180 0.000000
vn -0.605607 0.795764 0.000000
vn -0.605607 0.795764 0.000000
vn -0.600409 -0.799693 0.000000
vn -0.600409 -0.799693 0.000000
vn 0.593095 -0.805132 0.000000
vn 0.593095 -0.805132 0.000000
vn -0.792097 -0.610395 0.000000
vn -0.792097 -0.610395 0.000000
usemtl assumed_base
f 25//1 1//1 2//1
f 3//2 4//2 5//2
f 2//3 3//3 5//3
f 25//4 2//4 5//4
f 25//5 5//5 6//5
f 25//6 6//6 7//6
f 7//7 8//7 9//7
f 25//8 7//8 9//8
f 25//9 9//9 10//9
f 10//10 11//10 12//10
f 25//11 10//11 12//11
f 25//12 12//12 13//12
f 25//13 13//13 14//13
f 14//14 15//14 16//14
f 14//15 16//15 17//15
f 14//16 17//16 18//16
f 14//17 18//17 19//17
f 14//18 19//18 20//18
f 14//19 20//19 21//19
f 21//20 22//20 23//20
f 14//21 21//21 23//21
f 14//22 23//22 24//22
f 14//23 24//23 25//23
usemtl assumed_roof
f 50//24 27//24 26//24
f 28//25 30//25 29//25
f 27//26 30//26 28//26
f 50//27 30//27 27//27
f 50//28 31//28 30//28
f 50//29 32//29 31//29
f 32//30 34//30 33//30
f 50//31 34//31 32//31
f 50//32 35//32 34//32
f 35//33 37//33 36//33
f 50//34 37//34 35//34
f 50//35 38//35 37//35
f 50//36 39//36 38//36
f 39//37 41//37 40//37
f 39//38 42//38 41//38
f 39//39 43//39 42//39
f 39//40 44//40 43//40
f 39//41 45//41 44//41
f 39//42 46//42 45//42
f 46//43 48//43 47//43
f 39//44 48//44 46//44
f 39//45 49//45 48//45
f 39//46 50//46 49//46
usemtl assumed_wall
f 1//47 27//47 2//47
f 1//48 26//48 27//48
f 2//49 28//49 3//49
f 2//50 27//50 28//50
f 3//51 29//51 4//51
f 3//52 28//52 29//52
f 4//53 30//53 5//53
f 4//54 29//54 30//54
f 5//55 31//55 6//55
f 5//56 30//56 31//56
f 6//57 32//57 7//57
f 6//58 31//58 32//58
f 7//59 33//59 8//59
f 7//60 32//60 33//60
f 8//61 34//61 9//61
f 8//62 33//62 34//62
f 9//63 35//63 10//63
f 9//64 34//64 35//64
f 10//65 36//65 11//65
f 10//66 35//66 36//66
f 11//67 37//67 12//67
f 11//68 36//68 37//68
f 12//69 38//69 13//69
f 12//70 37//70 38//70
f 13//71 39//71 14//71
f 13//72 38//72 39//72
f 14//73 40//73 15//73
f 14//74 39//74 40//74
f 15//75 41//75 16//75
f 15//76 40//76 41//76
f 16//77 42//77 17//77
f 16//78 41//78 42//78
f 17//79 43//79 18//79
f 17//80 42//80 43//80
f 18//81 44//81 19//81
f 18//82 43//82 44//82
f 19//83 45//83 20//83
f 19//84 44//84 45//84
f 20//85 46//85 21//85
f 20//86 45//86 46//86
f 21//87 47//87 22//87
f 21//88 46//88 47//88
f 22//89 48//89 23//89
f 22//90 47//90 48//90
f 23//91 49//91 24//91
f 23//92 48//92 49//92
f 24//93 50//93 25//93
f 24//94 49//94 50//94
f 25//95 26//95 1//95
f 25//96 50//96 26//96
