# construction_3405_assumed_A_Tribunal
# source A_Tribunal
# h_campo 0.000000
# modeled_height 6.000000
# height_kind assumed
# local_origin_world_x 172001.034850
# local_origin_world_y 402500.144600
mtllib construction_artifacts.mtl

o construction_3405_assumed_A_Tribunal
v 17.075500 -10.290000 0.000000
v 10.515500 -6.174000 0.000000
v 4.398500 -4.421000 0.000000
v 3.769500 -7.637000 0.000000
v -4.236500 -7.880000 0.000000
v -5.275500 -4.963000 0.000000
v -9.881500 -7.048000 0.000000
v -16.812500 -11.978000 0.000000
v -17.244500 -11.563000 0.000000
v -20.203500 -14.196000 0.000000
v -30.776500 -1.715000 0.000000
v -21.959500 5.437000 0.000000
v -20.992500 4.392000 0.000000
v -14.702500 8.534000 0.000000
v -6.910500 10.800000 0.000000
v -7.735500 13.806000 0.000000
v 4.430500 14.196000 0.000000
v 4.431500 11.565000 0.000000
v 11.952500 9.871000 0.000000
v 19.850500 6.217000 0.000000
v 21.164500 8.867000 0.000000
v 24.993500 7.028000 0.000000
v 30.776500 3.971000 0.000000
v 20.570500 -11.246000 0.000000
v 17.565500 -9.731000 0.000000
v 17.075500 -10.290000 6.000000
v 10.515500 -6.174000 6.000000
v 4.398500 -4.421000 6.000000
v 3.769500 -7.637000 6.000000
v -4.236500 -7.880000 6.000000
v -5.275500 -4.963000 6.000000
v -9.881500 -7.048000 6.000000
v -16.812500 -11.978000 6.000000
v -17.244500 -11.563000 6.000000
v -20.203500 -14.196000 6.000000
v -30.776500 -1.715000 6.000000
v -21.959500 5.437000 6.000000
v -20.992500 4.392000 6.000000
v -14.702500 8.534000 6.000000
v -6.910500 10.800000 6.000000
v -7.735500 13.806000 6.000000
v 4.430500 14.196000 6.000000
v 4.431500 11.565000 6.000000
v 11.952500 9.871000 6.000000
v 19.850500 6.217000 6.000000
v 21.164500 8.867000 6.000000
v 24.993500 7.028000 6.000000
v 30.776500 3.971000 6.000000
v 20.570500 -11.246000 6.000000
v 17.565500 -9.731000 6.000000
vn -0.000000 0.000000 -1.000000
vn 0.000000 0.000000 -1.000000
vn 0.000000 0.000000 -1.000000
vn 0.000000 0.000000 -1.000000
vn -0.000000 0.000000 -1.000000
vn -0.000000 0.000000 -1.000000
vn -0.000000 0.000000 -1.000000
vn -0.000000 0.000000 -1.000000
vn 0.000000 0.000000 -1.000000
vn 0.000000 0.000000 -1.000000
vn 0.000000 0.000000 -1.000000
vn 0.000000 0.000000 -1.000000
vn 0.000000 0.000000 -1.000000
vn 0.000000 0.000000 -1.000000
vn 0.000000 0.000000 -1.000000
vn 0.000000 0.000000 -1.000000
vn 0.000000 0.000000 -1.000000
vn 0.000000 0.000000 -1.000000
vn 0.000000 0.000000 -1.000000
vn 0.000000 0.000000 -1.000000
vn 0.000000 0.000000 -1.000000
vn 0.000000 0.000000 -1.000000
vn 0.000000 0.000000 -1.000000
vn 0.000000 0.000000 1.000000
vn 0.000000 0.000000 1.000000
vn 0.000000 0.000000 1.000000
vn 0.000000 0.000000 1.000000
vn 0.000000 0.000000 1.000000
vn 0.000000 0.000000 1.000000
vn 0.000000 0.000000 1.000000
vn 0.000000 0.000000 1.000000
vn 0.000000 0.000000 1.000000
vn 0.000000 0.000000 1.000000
vn 0.000000 0.000000 1.000000
vn 0.000000 0.000000 1.000000
vn 0.000000 0.000000 1.000000
vn 0.000000 0.000000 1.000000
vn 0.000000 0.000000 1.000000
vn -0.000000 0.000000 1.000000
vn 0.000000 0.000000 1.000000
vn 0.000000 0.000000 1.000000
vn 0.000000 -0.000000 1.000000
vn 0.000000 0.000000 1.000000
vn 0.000000 0.000000 1.000000
vn 0.000000 0.000000 1.000000
vn 0.000000 0.000000 1.000000
vn -0.531484 -0.847068 0.000000
vn -0.531484 -0.847068 0.000000
vn -0.275489 -0.961304 0.000000
vn -0.275489 -0.961304 0.000000
vn 0.981405 -0.191948 0.000000
vn 0.981405 -0.191948 0.000000
vn 0.030338 -0.999540 0.000000
vn 0.030338 -0.999540 0.000000
vn -0.942027 -0.335538 0.000000
vn -0.942027 -0.335538 0.000000
vn 0.412387 -0.911009 0.000000
vn 0.412387 -0.911009 0.000000
vn 0.579624 -0.814884 0.000000
vn 0.579624 -0.814884 0.000000
vn -0.692775 -0.721154 0.000000
vn -0.692775 -0.721154 0.000000
vn 0.664756 -0.747061 0.000000
vn 0.664756 -0.747061 0.000000
vn -0.763020 -0.646375 0.000000
vn -0.763020 -0.646375 0.000000
vn -0.629966 0.776623 0.000000
vn -0.629966 0.776623 0.000000
vn 0.733968 0.679184 0.000000
vn 0.733968 0.679184 -0.000000
vn -0.549972 0.835183 0.000000
vn -0.549972 0.835183 0.000000
vn -0.279243 0.960221 0.000000
vn -0.279243 0.960221 0.000000
vn -0.964341 -0.264664 0.000000
vn -0.964341 -0.264664 0.000000
vn -0.032040 0.999487 0.000000
vn -0.032040 0.999487 0.000000
vn 1.000000 0.000380 0.000000
vn 1.000000 0.000380 -0.000000
vn 0.219731 0.975560 0.000000
vn 0.219731 0.975560 -0.000000
vn 0.419889 0.907576 0.000000
vn 0.419889 0.907576 -0.000000
vn -0.895910 0.444236 0.000000
vn -0.895910 0.444236 0.000000
vn 0.432938 0.901424 0.000000
vn 0.432938 0.901424 -0.000000
vn 0.467340 0.884078 0.000000
vn 0.467340 0.884078 -0.000000
vn 0.830502 -0.557015 0.000000
vn 0.830502 -0.557015 0.000000
vn -0.450183 -0.892937 0.000000
vn -0.450183 -0.892937 0.000000
vn 0.751993 -0.659171 0.000000
vn 0.751993 -0.659171 0.000000
usemtl assumed_base
f 25//1 1//1 2//1
f 3//2 4//2 5//2
f 3//3 5//3 6//3
f 7//4 8//4 9//4
f 9//5 10//5 11//5
f 7//6 9//6 11//6
f 6//7 7//7 11//7
f 3//8 6//8 11//8
f 11//9 12//9 13//9
f 3//10 11//10 13//10
f 2//11 3//11 13//11
f 2//12 13//12 14//12
f 25//13 2//13 14//13
f 25//14 14//14 15//14
f 25//15 15//15 16//15
f 16//16 17//16 18//16
f 25//17 16//17 18//17
f 25//18 18//18 19//18
f 25//19 19//19 20//19
f 25//20 20//20 21//20
f 25//21 21//21 22//21
f 25//22 22//22 23//22
f 23//23 24//23 25//23
usemtl assumed_roof
f 50//24 27//24 26//24
f 28//25 30//25 29//25
f 28//26 31//26 30//26
f 32//27 34//27 33//27
f 34//28 36//28 35//28
f 32//29 36//29 34//29
f 31//30 36//30 32//30
f 28//31 36//31 31//31
f 36//32 38//32 37//32
f 28//33 38//33 36//33
f 27//34 38//34 28//34
f 27//35 39//35 38//35
f 50//36 39//36 27//36
f 50//37 40//37 39//37
f 50//38 41//38 40//38
f 41//39 43//39 42//39
f 50//40 43//40 41//40
f 50//41 44//41 43//41
f 50//42 45//42 44//42
f 50//43 46//43 45//43
f 50//44 47//44 46//44
f 50//45 48//45 47//45
f 48//46 50//46 49//46
usemtl assumed_wall
f 1//47 27//47 2//47
f 1//48 26//48 27//48
f 2//49 28//49 3//49
f 2//50 27//50 28//50
f 3//51 29//51 4//51
f 3//52 28//52 29//52
f 4//53 30//53 5//53
f 4//54 29//54 30//54
f 5//55 31//55 6//55
f 5//56 30//56 31//56
f 6//57 32//57 7//57
f 6//58 31//58 32//58
f 7//59 33//59 8//59
f 7//60 32//60 33//60
f 8//61 34//61 9//61
f 8//62 33//62 34//62
f 9//63 35//63 10//63
f 9//64 34//64 35//64
f 10//65 36//65 11//65
f 10//66 35//66 36//66
f 11//67 37//67 12//67
f 11//68 36//68 37//68
f 12//69 38//69 13//69
f 12//70 37//70 38//70
f 13//71 39//71 14//71
f 13//72 38//72 39//72
f 14//73 40//73 15//73
f 14//74 39//74 40//74
f 15//75 41//75 16//75
f 15//76 40//76 41//76
f 16//77 42//77 17//77
f 16//78 41//78 42//78
f 17//79 43//79 18//79
f 17//80 42//80 43//80
f 18//81 44//81 19//81
f 18//82 43//82 44//82
f 19//83 45//83 20//83
f 19//84 44//84 45//84
f 20//85 46//85 21//85
f 20//86 45//86 46//86
f 21//87 47//87 22//87
f 21//88 46//88 47//88
f 22//89 48//89 23//89
f 22//90 47//90 48//90
f 23//91 49//91 24//91
f 23//92 48//92 49//92
f 24//93 50//93 25//93
f 24//94 49//94 50//94
f 25//95 26//95 1//95
f 25//96 50//96 26//96
