# construction_0588_assumed_A_Casa
# source A_Casa
# h_campo 0.000000
# modeled_height 6.000000
# height_kind assumed
# local_origin_world_x 172001.034850
# local_origin_world_y 402500.144600
mtllib construction_artifacts.mtl

o construction_0588_assumed_A_Casa
v 18.155500 -3.057500 0.000000
v 0.893500 -13.249500 0.000000
v 2.625500 -16.838500 0.000000
v -10.571500 -24.747500 0.000000
v -12.681500 -21.552500 0.000000
v -38.182500 -36.675500 0.000000
v -35.784500 -41.175500 0.000000
v -44.543500 -45.955500 0.000000
v -51.970500 -33.414500 0.000000
v -53.301500 -34.152500 0.000000
v -56.036500 -29.781500 0.000000
v -54.760500 -29.213500 0.000000
v -60.612500 -19.672500 0.000000
v 4.987500 19.332500 0.000000
v 50.736500 45.955500 0.000000
v 60.612500 29.801500 0.000000
v 25.246500 9.217500 0.000000
v 28.543500 4.639500 0.000000
v 17.632500 -2.400500 0.000000
v 18.155500 -3.057500 6.000000
v 0.893500 -13.249500 6.000000
v 2.625500 -16.838500 6.000000
v -10.571500 -24.747500 6.000000
v -12.681500 -21.552500 6.000000
v -38.182500 -36.675500 6.000000
v -35.784500 -41.175500 6.000000
v -44.543500 -45.955500 6.000000
v -51.970500 -33.414500 6.000000
v -53.301500 -34.152500 6.000000
v -56.036500 -29.781500 6.000000
v -54.760500 -29.213500 6.000000
v -60.612500 -19.672500 6.000000
v 4.987500 19.332500 6.000000
v 50.736500 45.955500 6.000000
v 60.612500 29.801500 6.000000
v 25.246500 9.217500 6.000000
v 28.543500 4.639500 6.000000
v 17.632500 -2.400500 6.000000
vn 0.000000 -0.000000 -1.000000
vn 0.000000 -0.000000 -1.000000
vn 0.000000 0.000000 -1.000000
vn 0.000000 0.000000 -1.000000
vn 0.000000 0.000000 -1.000000
vn 0.000000 -0.000000 -1.000000
vn -0.000000 0.000000 -1.000000
vn 0.000000 0.000000 -1.000000
vn -0.000000 0.000000 -1.000000
vn 0.000000 0.000000 -1.000000
vn 0.000000 0.000000 -1.000000
vn 0.000000 0.000000 -1.000000
vn -0.000000 0.000000 -1.000000
vn 0.000000 0.000000 -1.000000
vn 0.000000 0.000000 -1.000000
vn 0.000000 0.000000 -1.000000
vn 0.000000 -0.000000 -1.000000
vn 0.000000 0.000000 1.000000
vn 0.000000 0.000000 1.000000
vn 0.000000 0.000000 1.000000
vn 0.000000 0.000000 1.000000
vn 0.000000 0.000000 1.000000
vn 0.000000 0.000000 1.000000
vn 0.000000 0.000000 1.000000
vn 0.000000 0.000000 1.000000
vn 0.000000 0.000000 1.000000
vn 0.000000 0.000000 1.000000
vn 0.000000 0.000000 1.000000
vn 0.000000 0.000000 1.000000
vn 0.000000 0.000000 1.000000
vn 0.000000 0.000000 1.000000
vn -0.000000 0.000000 1.000000
vn 0.000000 -0.000000 1.000000
vn 0.000000 0.000000 1.000000
vn 0.508423 -0.861107 0.000000
vn 0.508423 -0.861107 0.000000
vn 0.900613 0.434623 0.000000
vn 0.900613 0.434623 -0.000000
vn 0.514056 -0.857757 0.000000
vn 0.514056 -0.857757 0.000000
vn -0.834453 -0.551079 0.000000
vn -0.834453 -0.551079 0.000000
vn 0.510084 -0.860124 0.000000
vn 0.510084 -0.860124 0.000000
vn 0.882516 0.470283 0.000000
vn 0.882516 0.470283 -0.000000
vn 0.479035 -0.877796 0.000000
vn 0.479035 -0.877796 0.000000
vn -0.860433 -0.509564 0.000000
vn -0.860433 -0.509564 0.000000
vn 0.484918 -0.874560 0.000000
vn 0.484918 -0.874560 0.000000
vn -0.847726 -0.530435 0.000000
vn -0.847726 -0.530435 0.000000
vn -0.406670 0.913575 0.000000
vn -0.406670 0.913575 0.000000
vn -0.852430 -0.522841 0.000000
vn -0.852430 -0.522841 0.000000
vn -0.511071 0.859538 0.000000
vn -0.511071 0.859538 0.000000
vn -0.502970 0.864304 0.000000
vn -0.502970 0.864304 0.000000
vn 0.853185 0.521608 0.000000
vn 0.853185 0.521608 -0.000000
vn 0.503029 -0.864270 0.000000
vn 0.503029 -0.864270 0.000000
vn 0.811464 0.584403 0.000000
vn 0.811464 0.584403 -0.000000
vn 0.542162 -0.840274 0.000000
vn 0.542162 -0.840274 0.000000
vn 0.782377 0.622805 0.000000
vn 0.782377 0.622805 -0.000000
usemtl assumed_base
f 19//1 1//1 2//1
f 2//2 3//2 4//2
f 2//3 4//3 5//3
f 19//4 2//4 5//4
f 19//5 5//5 6//5
f 6//6 7//6 8//6
f 6//7 8//7 9//7
f 19//8 6//8 9//8
f 9//9 10//9 11//9
f 19//10 9//10 11//10
f 19//11 11//11 12//11
f 19//12 12//12 13//12
f 19//13 13//13 14//13
f 14//14 15//14 16//14
f 14//15 16//15 17//15
f 19//16 14//16 17//16
f 17//17 18//17 19//17
usemtl assumed_roof
f 38//18 21//18 20//18
f 21//19 23//19 22//19
f 21//20 24//20 23//20
f 38//21 24//21 21//21
f 38//22 25//22 24//22
f 25//23 27//23 26//23
f 25//24 28//24 27//24
f 38//25 28//25 25//25
f 28//26 30//26 29//26
f 38//27 30//27 28//27
f 38//28 31//28 30//28
f 38//29 32//29 31//29
f 38//30 33//30 32//30
f 33//31 35//31 34//31
f 33//32 36//32 35//32
f 38//33 36//33 33//33
f 36//34 38//34 37//34
usemtl assumed_wall
f 1//35 21//35 2//35
f 1//36 20//36 21//36
f 2//37 22//37 3//37
f 2//38 21//38 22//38
f 3//39 23//39 4//39
f 3//40 22//40 23//40
f 4//41 24//41 5//41
f 4//42 23//42 24//42
f 5//43 25//43 6//43
f 5//44 24//44 25//44
f 6//45 26//45 7//45
f 6//46 25//46 26//46
f 7//47 27//47 8//47
f 7//48 26//48 27//48
f 8//49 28//49 9//49
f 8//50 27//50 28//50
f 9//51 29//51 10//51
f 9//52 28//52 29//52
f 10//53 30//53 11//53
f 10//54 29//54 30//54
f 11//55 31//55 12//55
f 11//56 30//56 31//56
f 12//57 32//57 13//57
f 12//58 31//58 32//58
f 13//59 33//59 14//59
f 13//60 32//60 33//60
f 14//61 34//61 15//61
f 14//62 33//62 34//62
f 15//63 35//63 16//63
f 15//64 34//64 35//64
f 16//65 36//65 17//65
f 16//66 35//66 36//66
f 17//67 37//67 18//67
f 17//68 36//68 37//68
f 18//69 38//69 19//69
f 18//70 37//70 38//70
f 19//71 20//71 1//71
f 19//72 38//72 20//72
