# construction_7082_assumed_A_Casa
# source A_Casa
# h_campo 0.000000
# modeled_height 6.000000
# height_kind assumed
# local_origin_world_x 172001.034850
# local_origin_world_y 402500.144600
mtllib construction_artifacts.mtl

o construction_7082_assumed_A_Casa
v -14.169100 4.662500 0.000000
v -19.740900 17.087400 0.000000
v -19.006100 17.437500 0.000000
v -6.788100 22.439500 0.000000
v 16.200900 31.830500 0.000000
v 19.740900 21.983500 0.000000
v 6.148900 15.338500 0.000000
v 8.628900 5.029500 0.000000
v 5.215900 2.988500 0.000000
v 6.767900 -10.511500 0.000000
v -0.093100 -10.916500 0.000000
v 2.673900 -28.053500 0.000000
v -1.775100 -28.615500 0.000000
v -2.458100 -30.254500 0.000000
v -10.679100 -31.830500 0.000000
v -13.607100 -19.703500 0.000000
v -5.470100 -18.194500 0.000000
v -5.479100 -16.289500 0.000000
v -6.764100 -12.333500 0.000000
v -9.016100 -3.929500 0.000000
v -11.892100 1.249500 0.000000
v -12.548100 0.858500 0.000000
v -14.169100 4.662500 6.000000
v -19.740900 17.087400 6.000000
v -19.006100 17.437500 6.000000
v -6.788100 22.439500 6.000000
v 16.200900 31.830500 6.000000
v 19.740900 21.983500 6.000000
v 6.148900 15.338500 6.000000
v 8.628900 5.029500 6.000000
v 5.215900 2.988500 6.000000
v 6.767900 -10.511500 6.000000
v -0.093100 -10.916500 6.000000
v 2.673900 -28.053500 6.000000
v -1.775100 -28.615500 6.000000
v -2.458100 -30.254500 6.000000
v -10.679100 -31.830500 6.000000
v -13.607100 -19.703500 6.000000
v -5.470100 -18.194500 6.000000
v -5.479100 -16.289500 6.000000
v -6.764100 -12.333500 6.000000
v -9.016100 -3.929500 6.000000
v -11.892100 1.249500 6.000000
v -12.548100 0.858500 6.000000
vn 0.000000 0.000000 -1.000000
vn 0.000000 0.000000 -1.000000
vn 0.000000 0.000000 -1.000000
vn 0.000000 0.000000 -1.000000
vn 0.000000 -0.000000 -1.000000
vn 0.000000 0.000000 -1.000000
vn 0.000000 -0.000000 -1.000000
vn 0.000000 -0.000000 -1.000000
vn 0.000000 0.000000 -1.000000
vn 0.000000 -0.000000 -1.000000
vn 0.000000 0.000000 -1.000000
vn 0.000000 0.000000 -1.000000
vn 0.000000 0.000000 -1.000000
vn 0.000000 0.000000 -1.000000
vn 0.000000 0.000000 -1.000000
vn 0.000000 0.000000 -1.000000
vn 0.000000 0.000000 -1.000000
vn 0.000000 0.000000 -1.000000
vn 0.000000 0.000000 -1.000000
vn 0.000000 0.000000 -1.000000
vn 0.000000 0.000000 1.000000
vn 0.000000 0.000000 1.000000
vn 0.000000 -0.000000 1.000000
vn 0.000000 0.000000 1.000000
vn 0.000000 0.000000 1.000000
vn 0.000000 0.000000 1.000000
vn 0.000000 0.000000 1.000000
vn 0.000000 0.000000 1.000000
vn 0.000000 0.000000 1.000000
vn 0.000000 0.000000 1.000000
vn 0.000000 0.000000 1.000000
vn 0.000000 0.000000 1.000000
vn 0.000000 -0.000000 1.000000
vn 0.000000 0.000000 1.000000
vn 0.000000 0.000000 1.000000
vn 0.000000 0.000000 1.000000
vn 0.000000 0.000000 1.000000
vn 0.000000 0.000000 1.000000
vn 0.000000 0.000000 1.000000
vn 0.000000 0.000000 1.000000
vn -0.912454 -0.409179 0.000000
vn -0.912454 -0.409179 0.000000
vn -0.430129 0.902767 0.000000
vn -0.430129 0.902767 0.000000
vn -0.378875 0.925448 0.000000
vn -0.378875 0.925448 0.000000
vn -0.378164 0.925739 0.000000
vn -0.378164 0.925739 0.000000
vn 0.941037 0.338303 0.000000
vn 0.941037 0.338303 -0.000000
vn 0.439211 -0.898384 0.000000
vn 0.439211 -0.898384 0.000000
vn 0.972262 0.233894 0.000000
vn 0.972262 0.233894 -0.000000
vn 0.513238 -0.858246 0.000000
vn 0.513238 -0.858246 0.000000
vn 0.993457 0.114211 0.000000
vn 0.993457 0.114211 -0.000000
vn 0.058927 -0.998262 0.000000
vn 0.058927 -0.998262 0.000000
vn 0.987214 0.159399 0.000000
vn 0.987214 0.159399 -0.000000
vn 0.125325 -0.992116 0.000000
vn 0.125325 -0.992116 0.000000
vn 0.923060 -0.384655 0.000000
vn 0.923060 -0.384655 0.000000
vn 0.188276 -0.982116 0.000000
vn 0.188276 -0.982116 0.000000
vn -0.972068 -0.234701 0.000000
vn -0.972068 -0.234701 0.000000
vn -0.182340 0.983235 0.000000
vn -0.182340 0.983235 0.000000
vn -0.999989 -0.004724 0.000000
vn -0.999989 -0.004724 0.000000
vn -0.951084 -0.308934 0.000000
vn -0.951084 -0.308934 0.000000
vn -0.965921 -0.258836 0.000000
vn -0.965921 -0.258836 0.000000
vn -0.874245 -0.485485 0.000000
vn -0.874245 -0.485485 0.000000
vn 0.511990 -0.858991 0.000000
vn 0.511990 -0.858991 0.000000
vn -0.919956 -0.392021 0.000000
vn -0.919956 -0.392021 0.000000
usemtl assumed_base
f 1//1 2//1 3//1
f 22//2 1//2 3//2
f 22//3 3//3 4//3
f 22//4 4//4 5//4
f 5//5 6//5 7//5
f 22//6 5//6 7//6
f 7//7 8//7 9//7
f 9//8 10//8 11//8
f 7//9 9//9 11//9
f 11//10 12//10 13//10
f 11//11 13//11 14//11
f 11//12 14//12 15//12
f 15//13 16//13 17//13
f 11//14 15//14 17//14
f 7//15 11//15 17//15
f 7//16 17//16 18//16
f 7//17 18//17 19//17
f 7//18 19//18 20//18
f 7//19 20//19 21//19
f 7//20 21//20 22//20
usemtl assumed_roof
f 23//21 25//21 24//21
f 44//22 25//22 23//22
f 44//23 26//23 25//23
f 44//24 27//24 26//24
f 27//25 29//25 28//25
f 44//26 29//26 27//26
f 29//27 31//27 30//27
f 31//28 33//28 32//28
f 29//29 33//29 31//29
f 33//30 35//30 34//30
f 33//31 36//31 35//31
f 33//32 37//32 36//32
f 37//33 39//33 38//33
f 33//34 39//34 37//34
f 29//35 39//35 33//35
f 29//36 40//36 39//36
f 29//37 41//37 40//37
f 29//38 42//38 41//38
f 29//39 43//39 42//39
f 29//40 44//40 43//40
usemtl assumed_wall
f 1//41 24//41 2//41
f 1//42 23//42 24//42
f 2//43 25//43 3//43
f 2//44 24//44 25//44
f 3//45 26//45 4//45
f 3//46 25//46 26//46
f 4//47 27//47 5//47
f 4//48 26//48 27//48
f 5//49 28//49 6//49
f 5//50 27//50 28//50
f 6//51 29//51 7//51
f 6//52 28//52 29//52
f 7//53 30//53 8//53
f 7//54 29//54 30//54
f 8//55 31//55 9//55
f 8//56 30//56 31//56
f 9//57 32//57 10//57
f 9//58 31//58 32//58
f 10//59 33//59 11//59
f 10//60 32//60 33//60
f 11//61 34//61 12//61
f 11//62 33//62 34//62
f 12//63 35//63 13//63
f 12//64 34//64 35//64
f 13//65 36//65 14//65
f 13//66 35//66 36//66
f 14//67 37//67 15//67
f 14//68 36//68 37//68
f 15//69 38//69 16//69
f 15//70 37//70 38//70
f 16//71 39//71 17//71
f 16//72 38//72 39//72
f 17//73 40//73 18//73
f 17//74 39//74 40//74
f 18//75 41//75 19//75
f 18//76 40//76 41//76
f 19//77 42//77 20//77
f 19//78 41//78 42//78
f 20//79 43//79 21//79
f 20//80 42//80 43//80
f 21//81 44//81 22//81
f 21//82 43//82 44//82
f 22//83 23//83 1//83
f 22//84 44//84 23//84
