# construction_7108_assumed_A_Casa
# source A_Casa
# h_campo 0.000000
# modeled_height 6.000000
# height_kind assumed
# local_origin_world_x 172001.034850
# local_origin_world_y 402500.144600
mtllib construction_artifacts.mtl

o construction_7108_assumed_A_Casa
v 30.296900 -6.347900 0.000000
v 20.912100 -15.999500 0.000000
v 15.004100 -20.173500 0.000000
v 17.685100 -25.266500 0.000000
v 9.158100 -30.223500 0.000000
v 7.400100 -27.720500 0.000000
v 3.192100 -30.022500 0.000000
v 2.870100 -29.464500 0.000000
v 1.453100 -27.009500 0.000000
v 8.240100 -21.217500 0.000000
v 7.739100 -19.930500 0.000000
v 10.413100 -18.157500 0.000000
v 7.148100 -14.443500 0.000000
v 2.613100 -9.283500 0.000000
v 9.730100 -4.778500 0.000000
v 1.744100 4.112500 0.000000
v -3.427900 6.967500 0.000000
v -12.572900 2.092500 0.000000
v -11.341900 1.309500 0.000000
v -17.610900 -5.551500 0.000000
v -24.712900 -0.208500 0.000000
v -21.792900 3.355500 0.000000
v -17.305900 5.747500 0.000000
v -6.072900 10.714500 0.000000
v -12.651900 15.590500 0.000000
v -10.227900 19.112500 0.000000
v -12.856900 20.957500 0.000000
v -16.190900 15.819500 0.000000
v -20.814900 11.758500 0.000000
v -23.803900 15.029500 0.000000
v -26.331900 12.034500 0.000000
v -30.296900 15.188500 0.000000
v -24.394900 22.394500 0.000000
v -15.365900 30.223500 0.000000
v 9.818100 12.398500 0.000000
v 14.417100 9.361500 0.000000
v 25.114100 -0.926500 0.000000
v 24.227100 -1.599500 0.000000
v 30.296900 -6.347900 6.000000
v 20.912100 -15.999500 6.000000
v 15.004100 -20.173500 6.000000
v 17.685100 -25.266500 6.000000
v 9.158100 -30.223500 6.000000
v 7.400100 -27.720500 6.000000
v 3.192100 -30.022500 6.000000
v 2.870100 -29.464500 6.000000
v 1.453100 -27.009500 6.000000
v 8.240100 -21.217500 6.000000
v 7.739100 -19.930500 6.000000
v 10.413100 -18.157500 6.000000
v 7.148100 -14.443500 6.000000
v 2.613100 -9.283500 6.000000
v 9.730100 -4.778500 6.000000
v 1.744100 4.112500 6.000000
v -3.427900 6.967500 6.000000
v -12.572900 2.092500 6.000000
v -11.341900 1.309500 6.000000
v -17.610900 -5.551500 6.000000
v -24.712900 -0.208500 6.000000
v -21.792900 3.355500 6.000000
v -17.305900 5.747500 6.000000
v -6.072900 10.714500 6.000000
v -12.651900 15.590500 6.000000
v -10.227900 19.112500 6.000000
v -12.856900 20.957500 6.000000
v -16.190900 15.819500 6.000000
v -20.814900 11.758500 6.000000
v -23.803900 15.029500 6.000000
v -26.331900 12.034500 6.000000
v -30.296900 15.188500 6.000000
v -24.394900 22.394500 6.000000
v -15.365900 30.223500 6.000000
v 9.818100 12.398500 6.000000
v 14.417100 9.361500 6.000000
v 25.114100 -0.926500 6.000000
v 24.227100 -1.599500 6.000000
vn 0.000000 -0.000000 -1.000000
vn 0.000000 0.000000 -1.000000
vn 0.000000 -0.000000 -1.000000
vn 0.000000 0.000000 -1.000000
vn 0.000000 0.000000 -1.000000
vn 0.000000 0.000000 -1.000000
vn 0.000000 0.000000 -1.000000
vn 0.000000 0.000000 -1.000000
vn 0.000000 0.000000 -1.000000
vn 0.000000 0.000000 -1.000000
vn 0.000000 0.000000 -1.000000
vn 0.000000 0.000000 -1.000000
vn 0.000000 0.000000 -1.000000
vn 0.000000 0.000000 -1.000000
vn -0.000000 0.000000 -1.000000
vn 0.000000 0.000000 -1.000000
vn 0.000000 -0.000000 -1.000000
vn 0.000000 0.000000 -1.000000
vn 0.000000 0.000000 -1.000000
vn 0.000000 0.000000 -1.000000
vn 0.000000 0.000000 -1.000000
vn -0.000000 0.000000 -1.000000
vn 0.000000 0.000000 -1.000000
vn 0.000000 0.000000 -1.000000
vn 0.000000 0.000000 -1.000000
vn 0.000000 0.000000 -1.000000
vn 0.000000 0.000000 -1.000000
vn 0.000000 0.000000 -1.000000
vn -0.000000 0.000000 -1.000000
vn 0.000000 0.000000 -1.000000
vn -0.000000 0.000000 -1.000000
vn 0.000000 0.000000 -1.000000
vn 0.000000 0.000000 -1.000000
vn 0.000000 0.000000 -1.000000
vn 0.000000 0.000000 -1.000000
vn 0.000000 0.000000 -1.000000
vn 0.000000 0.000000 1.000000
vn 0.000000 0.000000 1.000000
vn 0.000000 0.000000 1.000000
vn 0.000000 0.000000 1.000000
vn 0.000000 0.000000 1.000000
vn 0.000000 0.000000 1.000000
vn 0.000000 0.000000 1.000000
vn 0.000000 -0.000000 1.000000
vn 0.000000 0.000000 1.000000
vn 0.000000 -0.000000 1.000000
vn 0.000000 0.000000 1.000000
vn 0.000000 0.000000 1.000000
vn 0.000000 0.000000 1.000000
vn 0.000000 0.000000 1.000000
vn 0.000000 0.000000 1.000000
vn 0.000000 0.000000 1.000000
vn 0.000000 0.000000 1.000000
vn 0.000000 0.000000 1.000000
vn 0.000000 0.000000 1.000000
vn 0.000000 0.000000 1.000000
vn 0.000000 0.000000 1.000000
vn 0.000000 0.000000 1.000000
vn 0.000000 0.000000 1.000000
vn 0.000000 0.000000 1.000000
vn 0.000000 0.000000 1.000000
vn 0.000000 0.000000 1.000000
vn 0.000000 0.000000 1.000000
vn 0.000000 0.000000 1.000000
vn 0.000000 0.000000 1.000000
vn 0.000000 0.000000 1.000000
vn 0.000000 0.000000 1.000000
vn 0.000000 0.000000 1.000000
vn 0.000000 0.000000 1.000000
vn 0.000000 0.000000 1.000000
vn 0.000000 0.000000 1.000000
vn 0.000000 0.000000 1.000000
vn 0.716947 -0.697128 0.000000
vn 0.716947 -0.697128 0.000000
vn 0.577020 -0.816730 0.000000
vn 0.577020 -0.816730 0.000000
vn 0.884884 0.465811 0.000000
vn 0.884884 0.465811 -0.000000
vn 0.502578 -0.864532 0.000000
vn 0.502578 -0.864532 0.000000
vn -0.818325 -0.574756 0.000000
vn -0.818325 -0.574756 0.000000
vn 0.479933 -0.877305 0.000000
vn 0.479933 -0.877305 0.000000
vn -0.866134 -0.499812 0.000000
vn -0.866134 -0.499812 0.000000
vn -0.866086 -0.499896 0.000000
vn -0.866086 -0.499896 0.000000
vn -0.649147 0.760663 0.000000
vn -0.649147 0.760663 0.000000
vn -0.931882 -0.362761 0.000000
vn -0.931882 -0.362761 0.000000
vn -0.552613 0.833438 0.000000
vn -0.552613 0.833438 0.000000
vn -0.751046 -0.660249 0.000000
vn -0.751046 -0.660249 0.000000
vn -0.751132 -0.660152 0.000000
vn -0.751132 -0.660152 0.000000
vn -0.534846 0.844950 0.000000
vn -0.534846 0.844950 0.000000
vn -0.743955 -0.668229 0.000000
vn -0.743955 -0.668229 0.000000
vn -0.483270 -0.875472 0.000000
vn -0.483270 -0.875472 0.000000
vn 0.470413 -0.882446 0.000000
vn 0.470413 -0.882446 0.000000
vn 0.536698 0.843774 0.000000
vn 0.536698 0.843774 -0.000000
vn 0.738239 -0.674540 0.000000
vn 0.738239 -0.674540 0.000000
vn -0.601188 -0.799108 0.000000
vn -0.601188 -0.799108 0.000000
vn -0.773532 0.633758 0.000000
vn -0.773532 0.633758 0.000000
vn -0.470425 0.882440 0.000000
vn -0.470425 0.882440 0.000000
vn -0.404408 0.914579 0.000000
vn -0.404408 0.914579 0.000000
vn -0.595438 -0.803401 0.000000
vn -0.595438 -0.803401 0.000000
vn -0.823755 0.566946 0.000000
vn -0.823755 0.566946 0.000000
vn -0.574444 -0.818544 0.000000
vn -0.574444 -0.818544 0.000000
vn 0.838869 -0.544334 0.000000
vn 0.838869 -0.544334 0.000000
vn 0.659884 -0.751368 0.000000
vn 0.659884 -0.751368 0.000000
vn -0.738212 -0.674569 0.000000
vn -0.738212 -0.674569 0.000000
vn 0.764170 -0.645015 0.000000
vn 0.764170 -0.645015 0.000000
vn -0.622526 -0.782599 0.000000
vn -0.622526 -0.782599 0.000000
vn -0.773632 0.633635 0.000000
vn -0.773632 0.633635 0.000000
vn -0.655115 0.755529 0.000000
vn -0.655115 0.755529 0.000000
vn 0.577722 0.816233 0.000000
vn 0.577722 0.816233 -0.000000
vn 0.551052 0.834471 0.000000
vn 0.551052 0.834471 -0.000000
vn 0.693194 0.720751 0.000000
vn 0.693194 0.720751 -0.000000
vn 0.604445 -0.796647 0.000000
vn 0.604445 -0.796647 0.000000
vn 0.616157 0.787623 0.000000
vn 0.616157 0.787623 -0.000000
usemtl assumed_base
f 38//1 1//1 2//1
f 38//2 2//2 3//2
f 3//3 4//3 5//3
f 38//4 3//4 5//4
f 38//5 5//5 6//5
f 38//6 6//6 7//6
f 38//7 7//7 8//7
f 8//8 9//8 10//8
f 38//9 8//9 10//9
f 10//10 11//10 12//10
f 38//11 10//11 12//11
f 38//12 12//12 13//12
f 38//13 13//13 14//13
f 38//14 14//14 15//14
f 38//15 15//15 16//15
f 38//16 16//16 17//16
f 18//17 19//17 20//17
f 18//18 20//18 21//18
f 17//19 18//19 21//19
f 17//20 21//20 22//20
f 17//21 22//21 23//21
f 17//22 23//22 24//22
f 38//23 17//23 24//23
f 38//24 24//24 25//24
f 38//25 25//25 26//25
f 38//26 26//26 27//26
f 27//27 28//27 29//27
f 27//28 29//28 30//28
f 30//29 31//29 32//29
f 27//30 30//30 32//30
f 27//31 32//31 33//31
f 27//32 33//32 34//32
f 38//33 27//33 34//33
f 38//34 34//34 35//34
f 38//35 35//35 36//35
f 36//36 37//36 38//36
usemtl assumed_roof
f 76//37 40//37 39//37
f 76//38 41//38 40//38
f 41//39 43//39 42//39
f 76//40 43//40 41//40
f 76//41 44//41 43//41
f 76//42 45//42 44//42
f 76//43 46//43 45//43
f 46//44 48//44 47//44
f 76//45 48//45 46//45
f 48//46 50//46 49//46
f 76//47 50//47 48//47
f 76//48 51//48 50//48
f 76//49 52//49 51//49
f 76//50 53//50 52//50
f 76//51 54//51 53//51
f 76//52 55//52 54//52
f 56//53 58//53 57//53
f 56//54 59//54 58//54
f 55//55 59//55 56//55
f 55//56 60//56 59//56
f 55//57 61//57 60//57
f 55//58 62//58 61//58
f 76//59 62//59 55//59
f 76//60 63//60 62//60
f 76//61 64//61 63//61
f 76//62 65//62 64//62
f 65//63 67//63 66//63
f 65//64 68//64 67//64
f 68//65 70//65 69//65
f 65//66 70//66 68//66
f 65//67 71//67 70//67
f 65//68 72//68 71//68
f 76//69 72//69 65//69
f 76//70 73//70 72//70
f 76//71 74//71 73//71
f 74//72 76//72 75//72
usemtl assumed_wall
f 1//73 40//73 2//73
f 1//74 39//74 40//74
f 2//75 41//75 3//75
f 2//76 40//76 41//76
f 3//77 42//77 4//77
f 3//78 41//78 42//78
f 4//79 43//79 5//79
f 4//80 42//80 43//80
f 5//81 44//81 6//81
f 5//82 43//82 44//82
f 6//83 45//83 7//83
f 6//84 44//84 45//84
f 7//85 46//85 8//85
f 7//86 45//86 46//86
f 8//87 47//87 9//87
f 8//88 46//88 47//88
f 9//89 48//89 10//89
f 9//90 47//90 48//90
f 10//91 49//91 11//91
f 10//92 48//92 49//92
f 11//93 50//93 12//93
f 11//94 49//94 50//94
f 12//95 51//95 13//95
f 12//96 50//96 51//96
f 13//97 52//97 14//97
f 13//98 51//98 52//98
f 14//99 53//99 15//99
f 14//100 52//100 53//100
f 15//101 54//101 16//101
f 15//102 53//102 54//102
f 16//103 55//103 17//103
f 16//104 54//104 55//104
f 17//105 56//105 18//105
f 17//106 55//106 56//106
f 18//107 57//107 19//107
f 18//108 56//108 57//108
f 19//109 58//109 20//109
f 19//110 57//110 58//110
f 20//111 59//111 21//111
f 20//112 58//112 59//112
f 21//113 60//113 22//113
f 21//114 59//114 60//114
f 22//115 61//115 23//115
f 22//116 60//116 61//116
f 23//117 62//117 24//117
f 23//118 61//118 62//118
f 24//119 63//119 25//119
f 24//120 62//120 63//120
f 25//121 64//121 26//121
f 25//122 63//122 64//122
f 26//123 65//123 27//123
f 26//124 64//124 65//124
f 27//125 66//125 28//125
f 27//126 65//126 66//126
f 28//127 67//127 29//127
f 28//128 66//128 67//128
f 29//129 68//129 30//129
f 29//130 67//130 68//130
f 30//131 69//131 31//131
f 30//132 68//132 69//132
f 31//133 70//133 32//133
f 31//134 69//134 70//134
f 32//135 71//135 33//135
f 32//136 70//136 71//136
f 33//137 72//137 34//137
f 33//138 71//138 72//138
f 34//139 73//139 35//139
f 34//140 72//140 73//140
f 35//141 74//141 36//141
f 35//142 73//142 74//142
f 36//143 75//143 37//143
f 36//144 74//144 75//144
f 37//145 76//145 38//145
f 37//146 75//146 76//146
f 38//147 39//147 1//147
f 38//148 76//148 39//148
