# construction_4973_assumed_A_Casa
# source A_Casa
# h_campo 0.000000
# modeled_height 6.000000
# height_kind assumed
# local_origin_world_x 172001.034850
# local_origin_world_y 402500.144600
mtllib construction_artifacts.mtl

o construction_4973_assumed_A_Casa
v -11.828000 -3.608000 0.000000
v -9.225000 1.919000 0.000000
v -2.410000 12.552000 0.000000
v 1.171000 17.288000 0.000000
v 7.187000 10.514000 0.000000
v 5.356000 7.469000 0.000000
v 3.390000 3.589000 0.000000
v 5.457000 2.575000 0.000000
v 1.327000 -1.126000 0.000000
v 11.828000 -9.333000 0.000000
v 4.229000 -17.288000 0.000000
v -3.151000 -11.078000 0.000000
v -0.735000 -8.549000 0.000000
v -1.727000 -7.555000 0.000000
v 0.766000 -5.265000 0.000000
v -4.054000 -2.734000 0.000000
v -7.204000 -7.595000 0.000000
v -11.828000 -3.608000 6.000000
v -9.225000 1.919000 6.000000
v -2.410000 12.552000 6.000000
v 1.171000 17.288000 6.000000
v 7.187000 10.514000 6.000000
v 5.356000 7.469000 6.000000
v 3.390000 3.589000 6.000000
v 5.457000 2.575000 6.000000
v 1.327000 -1.126000 6.000000
v 11.828000 -9.333000 6.000000
v 4.229000 -17.288000 6.000000
v -3.151000 -11.078000 6.000000
v -0.735000 -8.549000 6.000000
v -1.727000 -7.555000 6.000000
v 0.766000 -5.265000 6.000000
v -4.054000 -2.734000 6.000000
v -7.204000 -7.595000 6.000000
vn 0.000000 0.000000 -1.000000
vn 0.000000 0.000000 -1.000000
vn 0.000000 0.000000 -1.000000
vn 0.000000 0.000000 -1.000000
vn 0.000000 0.000000 -1.000000
vn 0.000000 -0.000000 -1.000000
vn 0.000000 0.000000 -1.000000
vn 0.000000 0.000000 -1.000000
vn 0.000000 0.000000 -1.000000
vn 0.000000 0.000000 -1.000000
vn 0.000000 0.000000 -1.000000
vn 0.000000 -0.000000 -1.000000
vn 0.000000 -0.000000 -1.000000
vn 0.000000 0.000000 -1.000000
vn 0.000000 0.000000 -1.000000
vn 0.000000 0.000000 1.000000
vn 0.000000 -0.000000 1.000000
vn 0.000000 0.000000 1.000000
vn 0.000000 0.000000 1.000000
vn 0.000000 0.000000 1.000000
vn 0.000000 0.000000 1.000000
vn 0.000000 0.000000 1.000000
vn 0.000000 0.000000 1.000000
vn 0.000000 0.000000 1.000000
vn 0.000000 -0.000000 1.000000
vn 0.000000 0.000000 1.000000
vn 0.000000 0.000000 1.000000
vn 0.000000 0.000000 1.000000
vn 0.000000 0.000000 1.000000
vn 0.000000 0.000000 1.000000
vn -0.904689 0.426073 0.000000
vn -0.904689 0.426073 0.000000
vn -0.841916 0.539609 0.000000
vn -0.841916 0.539609 0.000000
vn -0.797649 0.603121 0.000000
vn -0.797649 0.603121 0.000000
vn 0.747702 0.664035 0.000000
vn 0.747702 0.664035 -0.000000
vn 0.856996 -0.515323 0.000000
vn 0.856996 -0.515323 0.000000
vn 0.892023 -0.451989 0.000000
vn 0.892023 -0.451989 0.000000
vn 0.440425 0.897789 0.000000
vn 0.440425 0.897789 -0.000000
vn 0.667369 -0.744727 0.000000
vn 0.667369 -0.744727 0.000000
vn 0.615788 0.787912 0.000000
vn 0.615788 0.787912 -0.000000
vn 0.723102 -0.690742 0.000000
vn 0.723102 -0.690742 0.000000
vn -0.643848 -0.765153 0.000000
vn -0.643848 -0.765153 0.000000
vn -0.723076 0.690768 0.000000
vn -0.723076 0.690768 0.000000
vn -0.707819 -0.706394 0.000000
vn -0.707819 -0.706394 0.000000
vn -0.676487 0.736455 0.000000
vn -0.676487 0.736455 0.000000
vn -0.464906 -0.885360 0.000000
vn -0.464906 -0.885360 0.000000
vn 0.839204 -0.543817 0.000000
vn 0.839204 -0.543817 0.000000
vn -0.653014 -0.757346 0.000000
vn -0.653014 -0.757346 0.000000
usemtl assumed_base
f 17//1 1//1 2//1
f 17//2 2//2 3//2
f 17//3 3//3 4//3
f 4//4 5//4 6//4
f 4//5 6//5 7//5
f 7//6 8//6 9//6
f 4//7 7//7 9//7
f 9//8 10//8 11//8
f 11//9 12//9 13//9
f 13//10 14//10 15//10
f 11//11 13//11 15//11
f 9//12 11//12 15//12
f 4//13 9//13 15//13
f 4//14 15//14 16//14
f 4//15 16//15 17//15
usemtl assumed_roof
f 34//16 19//16 18//16
f 34//17 20//17 19//17
f 34//18 21//18 20//18
f 21//19 23//19 22//19
f 21//20 24//20 23//20
f 24//21 26//21 25//21
f 21//22 26//22 24//22
f 26//23 28//23 27//23
f 28//24 30//24 29//24
f 30//25 32//25 31//25
f 28//26 32//26 30//26
f 26//27 32//27 28//27
f 21//28 32//28 26//28
f 21//29 33//29 32//29
f 21//30 34//30 33//30
usemtl assumed_wall
f 1//31 19//31 2//31
f 1//32 18//32 19//32
f 2//33 20//33 3//33
f 2//34 19//34 20//34
f 3//35 21//35 4//35
f 3//36 20//36 21//36
f 4//37 22//37 5//37
f 4//38 21//38 22//38
f 5//39 23//39 6//39
f 5//40 22//40 23//40
f 6//41 24//41 7//41
f 6//42 23//42 24//42
f 7//43 25//43 8//43
f 7//44 24//44 25//44
f 8//45 26//45 9//45
f 8//46 25//46 26//46
f 9//47 27//47 10//47
f 9//48 26//48 27//48
f 10//49 28//49 11//49
f 10//50 27//50 28//50
f 11//51 29//51 12//51
f 11//52 28//52 29//52
f 12//53 30//53 13//53
f 12//54 29//54 30//54
f 13//55 31//55 14//55
f 13//56 30//56 31//56
f 14//57 32//57 15//57
f 14//58 31//58 32//58
f 15//59 33//59 16//59
f 15//60 32//60 33//60
f 16//61 34//61 17//61
f 16//62 33//62 34//62
f 17//63 18//63 1//63
f 17//64 34//64 18//64
