# construction_0830_assumed_A_Casa
# source A_Casa
# h_campo 0.000000
# modeled_height 6.000000
# height_kind assumed
# local_origin_world_x 172001.034850
# local_origin_world_y 402500.144600
mtllib construction_artifacts.mtl

o construction_0830_assumed_A_Casa
v -12.094000 -0.465000 0.000000
v -4.999000 2.733000 0.000000
v -7.414000 7.864000 0.000000
v -9.124000 7.138000 0.000000
v -7.956000 4.010000 0.000000
v -13.399000 1.861000 0.000000
v -14.651000 5.031000 0.000000
v -16.418000 4.151000 0.000000
v -18.564000 8.975000 0.000000
v -16.685000 9.757000 0.000000
v -17.071000 10.964000 0.000000
v -4.380000 16.508000 0.000000
v 0.316000 4.881000 0.000000
v 1.271000 5.069000 0.000000
v 18.564000 -2.053000 0.000000
v 13.963000 -14.879000 0.000000
v 12.287000 -14.016000 0.000000
v 11.344000 -16.508000 0.000000
v 1.710000 -12.186000 0.000000
v -5.219000 -14.933000 0.000000
v -6.463000 -13.323000 0.000000
v -12.094000 -0.465000 6.000000
v -4.999000 2.733000 6.000000
v -7.414000 7.864000 6.000000
v -9.124000 7.138000 6.000000
v -7.956000 4.010000 6.000000
v -13.399000 1.861000 6.000000
v -14.651000 5.031000 6.000000
v -16.418000 4.151000 6.000000
v -18.564000 8.975000 6.000000
v -16.685000 9.757000 6.000000
v -17.071000 10.964000 6.000000
v -4.380000 16.508000 6.000000
v 0.316000 4.881000 6.000000
v 1.271000 5.069000 6.000000
v 18.564000 -2.053000 6.000000
v 13.963000 -14.879000 6.000000
v 12.287000 -14.016000 6.000000
v 11.344000 -16.508000 6.000000
v 1.710000 -12.186000 6.000000
v -5.219000 -14.933000 6.000000
v -6.463000 -13.323000 6.000000
vn 0.000000 0.000000 -1.000000
vn 0.000000 -0.000000 -1.000000
vn 0.000000 0.000000 -1.000000
vn 0.000000 0.000000 -1.000000
vn -0.000000 0.000000 -1.000000
vn -0.000000 0.000000 -1.000000
vn 0.000000 0.000000 -1.000000
vn 0.000000 0.000000 -1.000000
vn 0.000000 0.000000 -1.000000
vn 0.000000 0.000000 -1.000000
vn 0.000000 0.000000 -1.000000
vn 0.000000 0.000000 -1.000000
vn 0.000000 0.000000 -1.000000
vn 0.000000 0.000000 -1.000000
vn 0.000000 0.000000 -1.000000
vn -0.000000 0.000000 -1.000000
vn 0.000000 0.000000 -1.000000
vn 0.000000 0.000000 -1.000000
vn 0.000000 0.000000 -1.000000
vn 0.000000 -0.000000 1.000000
vn 0.000000 0.000000 1.000000
vn 0.000000 0.000000 1.000000
vn 0.000000 0.000000 1.000000
vn 0.000000 0.000000 1.000000
vn 0.000000 0.000000 1.000000
vn 0.000000 0.000000 1.000000
vn 0.000000 0.000000 1.000000
vn 0.000000 -0.000000 1.000000
vn 0.000000 -0.000000 1.000000
vn 0.000000 0.000000 1.000000
vn 0.000000 0.000000 1.000000
vn 0.000000 0.000000 1.000000
vn 0.000000 0.000000 1.000000
vn 0.000000 0.000000 1.000000
vn 0.000000 0.000000 1.000000
vn 0.000000 0.000000 1.000000
vn 0.000000 0.000000 1.000000
vn 0.000000 0.000000 1.000000
vn -0.410926 0.911669 0.000000
vn -0.410926 0.911669 0.000000
vn -0.904791 -0.425856 0.000000
vn -0.904791 -0.425856 0.000000
vn 0.390799 -0.920476 0.000000
vn 0.390799 -0.920476 0.000000
vn 0.936821 0.349810 0.000000
vn 0.936821 0.349810 -0.000000
vn 0.367233 -0.930129 0.000000
vn 0.367233 -0.930129 0.000000
vn -0.930087 -0.367340 0.000000
vn -0.930087 -0.367340 0.000000
vn 0.445795 -0.895135 0.000000
vn 0.445795 -0.895135 0.000000
vn -0.913671 -0.406455 0.000000
vn -0.913671 -0.406455 0.000000
vn -0.384232 0.923237 0.000000
vn -0.384232 0.923237 0.000000
vn -0.952479 -0.304604 0.000000
vn -0.952479 -0.304604 0.000000
vn -0.400315 0.916378 0.000000
vn -0.400315 0.916378 0.000000
vn 0.927229 0.374496 0.000000
vn 0.927229 0.374496 -0.000000
vn -0.193152 0.981169 0.000000
vn -0.193152 0.981169 0.000000
vn 0.380812 0.924653 0.000000
vn 0.380812 0.924653 -0.000000
vn 0.941269 -0.337656 0.000000
vn 0.941269 -0.337656 0.000000
vn -0.457791 -0.889060 0.000000
vn -0.457791 -0.889060 0.000000
vn 0.935276 -0.353919 0.000000
vn 0.935276 -0.353919 0.000000
vn -0.409317 -0.912392 0.000000
vn -0.409317 -0.912392 0.000000
vn 0.368544 -0.929610 0.000000
vn 0.368544 -0.929610 0.000000
vn -0.791307 -0.611420 0.000000
vn -0.791307 -0.611420 0.000000
vn -0.916010 -0.401155 0.000000
vn -0.916010 -0.401155 0.000000
usemtl assumed_base
f 21//1 1//1 2//1
f 4//2 5//2 6//2
f 4//3 6//3 7//3
f 3//4 4//4 7//4
f 7//5 8//5 9//5
f 3//6 7//6 9//6
f 3//7 9//7 10//7
f 3//8 10//8 11//8
f 3//9 11//9 12//9
f 2//10 3//10 12//10
f 2//11 12//11 13//11
f 21//12 2//12 13//12
f 21//13 13//13 14//13
f 21//14 14//14 15//14
f 15//15 16//15 17//15
f 17//16 18//16 19//16
f 15//17 17//17 19//17
f 21//18 15//18 19//18
f 19//19 20//19 21//19
usemtl assumed_roof
f 42//20 23//20 22//20
f 25//21 27//21 26//21
f 25//22 28//22 27//22
f 24//23 28//23 25//23
f 28//24 30//24 29//24
f 24//25 30//25 28//25
f 24//26 31//26 30//26
f 24//27 32//27 31//27
f 24//28 33//28 32//28
f 23//29 33//29 24//29
f 23//30 34//30 33//30
f 42//31 34//31 23//31
f 42//32 35//32 34//32
f 42//33 36//33 35//33
f 36//34 38//34 37//34
f 38//35 40//35 39//35
f 36//36 40//36 38//36
f 42//37 40//37 36//37
f 40//38 42//38 41//38
usemtl assumed_wall
f 1//39 23//39 2//39
f 1//40 22//40 23//40
f 2//41 24//41 3//41
f 2//42 23//42 24//42
f 3//43 25//43 4//43
f 3//44 24//44 25//44
f 4//45 26//45 5//45
f 4//46 25//46 26//46
f 5//47 27//47 6//47
f 5//48 26//48 27//48
f 6//49 28//49 7//49
f 6//50 27//50 28//50
f 7//51 29//51 8//51
f 7//52 28//52 29//52
f 8//53 30//53 9//53
f 8//54 29//54 30//54
f 9//55 31//55 10//55
f 9//56 30//56 31//56
f 10//57 32//57 11//57
f 10//58 31//58 32//58
f 11//59 33//59 12//59
f 11//60 32//60 33//60
f 12//61 34//61 13//61
f 12//62 33//62 34//62
f 13//63 35//63 14//63
f 13//64 34//64 35//64
f 14//65 36//65 15//65
f 14//66 35//66 36//66
f 15//67 37//67 16//67
f 15//68 36//68 37//68
f 16//69 38//69 17//69
f 16//70 37//70 38//70
f 17//71 39//71 18//71
f 17//72 38//72 39//72
f 18//73 40//73 19//73
f 18//74 39//74 40//74
f 19//75 41//75 20//75
f 19//76 40//76 41//76
f 20//77 42//77 21//77
f 20//78 41//78 42//78
f 21//79 22//79 1//79
f 21//80 42//80 22//80
