# construction_3467_assumed_A_Casa
# source A_Casa
# h_campo 0.000000
# modeled_height 6.000000
# height_kind assumed
# local_origin_world_x 172001.034850
# local_origin_world_y 402500.144600
mtllib construction_artifacts.mtl

o construction_3467_assumed_A_Casa
v -4.437000 5.921000 0.000000
v -4.879000 6.443000 0.000000
v 0.978000 11.101000 0.000000
v 10.885000 -1.067000 0.000000
v -2.080000 -11.101000 0.000000
v -10.885000 0.555000 0.000000
v -4.437000 5.921000 6.000000
v -4.879000 6.443000 6.000000
v 0.978000 11.101000 6.000000
v 10.885000 -1.067000 6.000000
v -2.080000 -11.101000 6.000000
v -10.885000 0.555000 6.000000
vn 0.000000 0.000000 -1.000000
vn 0.000000 0.000000 -1.000000
vn 0.000000 0.000000 -1.000000
vn -0.000000 0.000000 -1.000000
vn 0.000000 -0.000000 1.000000
vn -0.000000 0.000000 1.000000
vn -0.000000 0.000000 1.000000
vn 0.000000 0.000000 1.000000
vn -0.763164 -0.646204 0.000000
vn -0.763164 -0.646204 0.000000
vn -0.622444 0.782665 0.000000
vn -0.622444 0.782665 0.000000
vn 0.775474 0.631379 0.000000
vn 0.775474 0.631379 -0.000000
vn 0.612043 -0.790825 0.000000
vn 0.612043 -0.790825 0.000000
vn -0.797925 -0.602757 0.000000
vn -0.797925 -0.602757 0.000000
vn -0.639668 0.768651 0.000000
vn -0.639668 0.768651 0.000000
usemtl assumed_base
f 1//1 2//1 3//1
f 1//2 3//2 4//2
f 6//3 1//3 4//3
f 4//4 5//4 6//4
usemtl assumed_roof
f 7//5 9//5 8//5
f 7//6 10//6 9//6
f 12//7 10//7 7//7
f 10//8 12//8 11//8
usemtl assumed_wall
f 1//9 8//9 2//9
f 1//10 7//10 8//10
f 2//11 9//11 3//11
f 2//12 8//12 9//12
f 3//13 10//13 4//13
f 3//14 9//14 10//14
f 4//15 11//15 5//15
f 4//16 10//16 11//16
f 5//17 12//17 6//17
f 5//18 11//18 12//18
f 6//19 7//19 1//19
f 6//20 12//20 7//20
