# construction_3171_assumed_A_Casa
# source A_Casa
# h_campo 0.000000
# modeled_height 6.000000
# height_kind assumed
# local_origin_world_x 172001.034850
# local_origin_world_y 402500.144600
mtllib construction_artifacts.mtl

o construction_3171_assumed_A_Casa
v 4.954500 7.346000 0.000000
v -1.754500 -20.462000 0.000000
v -5.055500 -19.311000 0.000000
v -6.132500 -17.586000 0.000000
v -1.728500 2.192000 0.000000
v -4.953500 2.781000 0.000000
v -4.013500 7.883000 0.000000
v -0.682500 6.989000 0.000000
v -0.679500 8.041000 0.000000
v -5.179500 12.884000 0.000000
v -5.163500 15.333000 0.000000
v -3.821500 16.628000 0.000000
v -5.311500 18.373000 0.000000
v -3.112500 20.462000 0.000000
v 4.487500 12.551000 0.000000
v 6.132500 9.930000 0.000000
v 4.514500 8.174000 0.000000
v 4.954500 7.346000 6.000000
v -1.754500 -20.462000 6.000000
v -5.055500 -19.311000 6.000000
v -6.132500 -17.586000 6.000000
v -1.728500 2.192000 6.000000
v -4.953500 2.781000 6.000000
v -4.013500 7.883000 6.000000
v -0.682500 6.989000 6.000000
v -0.679500 8.041000 6.000000
v -5.179500 12.884000 6.000000
v -5.163500 15.333000 6.000000
v -3.821500 16.628000 6.000000
v -5.311500 18.373000 6.000000
v -3.112500 20.462000 6.000000
v 4.487500 12.551000 6.000000
v 6.132500 9.930000 6.000000
v 4.514500 8.174000 6.000000
vn 0.000000 -0.000000 -1.000000
vn 0.000000 0.000000 -1.000000
vn 0.000000 0.000000 -1.000000
vn 0.000000 0.000000 -1.000000
vn 0.000000 0.000000 -1.000000
vn 0.000000 0.000000 -1.000000
vn 0.000000 0.000000 -1.000000
vn 0.000000 0.000000 -1.000000
vn -0.000000 0.000000 -1.000000
vn 0.000000 0.000000 -1.000000
vn 0.000000 0.000000 -1.000000
vn 0.000000 0.000000 -1.000000
vn 0.000000 0.000000 -1.000000
vn 0.000000 0.000000 -1.000000
vn 0.000000 0.000000 -1.000000
vn 0.000000 0.000000 1.000000
vn 0.000000 0.000000 1.000000
vn 0.000000 0.000000 1.000000
vn 0.000000 0.000000 1.000000
vn 0.000000 0.000000 1.000000
vn 0.000000 0.000000 1.000000
vn 0.000000 0.000000 1.000000
vn 0.000000 0.000000 1.000000
vn 0.000000 0.000000 1.000000
vn 0.000000 0.000000 1.000000
vn 0.000000 0.000000 1.000000
vn 0.000000 0.000000 1.000000
vn 0.000000 0.000000 1.000000
vn 0.000000 0.000000 1.000000
vn 0.000000 0.000000 1.000000
vn 0.972108 -0.234532 0.000000
vn 0.972108 -0.234532 0.000000
vn -0.329242 -0.944246 0.000000
vn -0.329242 -0.944246 0.000000
vn -0.848247 -0.529601 0.000000
vn -0.848247 -0.529601 0.000000
vn -0.976094 0.217348 0.000000
vn -0.976094 0.217348 0.000000
vn -0.179664 -0.983728 0.000000
vn -0.179664 -0.983728 0.000000
vn -0.983448 0.181192 0.000000
vn -0.983448 0.181192 0.000000
vn 0.259214 0.965820 0.000000
vn 0.259214 0.965820 -0.000000
vn -0.999996 0.002852 0.000000
vn -0.999996 0.002852 0.000000
vn -0.732573 -0.680689 0.000000
vn -0.732573 -0.680689 0.000000
vn -0.999979 0.006533 0.000000
vn -0.999979 0.006533 0.000000
vn -0.694394 0.719595 0.000000
vn -0.694394 0.719595 0.000000
vn -0.760486 -0.649355 0.000000
vn -0.760486 -0.649355 0.000000
vn -0.688741 0.725008 0.000000
vn -0.688741 0.725008 0.000000
vn 0.721140 0.692790 0.000000
vn 0.721140 0.692790 -0.000000
vn 0.846998 0.531596 0.000000
vn 0.846998 0.531596 -0.000000
vn 0.735413 -0.677619 0.000000
vn 0.735413 -0.677619 0.000000
vn 0.883060 0.469259 0.000000
vn 0.883060 0.469259 -0.000000
usemtl assumed_base
f 17//1 1//1 2//1
f 17//2 2//2 3//2
f 17//3 3//3 4//3
f 17//4 4//4 5//4
f 17//5 5//5 6//5
f 6//6 7//6 8//6
f 17//7 6//7 8//7
f 17//8 8//8 9//8
f 17//9 9//9 10//9
f 17//10 10//10 11//10
f 17//11 11//11 12//11
f 17//12 12//12 13//12
f 17//13 13//13 14//13
f 17//14 14//14 15//14
f 15//15 16//15 17//15
usemtl assumed_roof
f 34//16 19//16 18//16
f 34//17 20//17 19//17
f 34//18 21//18 20//18
f 34//19 22//19 21//19
f 34//20 23//20 22//20
f 23//21 25//21 24//21
f 34//22 25//22 23//22
f 34//23 26//23 25//23
f 34//24 27//24 26//24
f 34//25 28//25 27//25
f 34//26 29//26 28//26
f 34//27 30//27 29//27
f 34//28 31//28 30//28
f 34//29 32//29 31//29
f 32//30 34//30 33//30
usemtl assumed_wall
f 1//31 19//31 2//31
f 1//32 18//32 19//32
f 2//33 20//33 3//33
f 2//34 19//34 20//34
f 3//35 21//35 4//35
f 3//36 20//36 21//36
f 4//37 22//37 5//37
f 4//38 21//38 22//38
f 5//39 23//39 6//39
f 5//40 22//40 23//40
f 6//41 24//41 7//41
f 6//42 23//42 24//42
f 7//43 25//43 8//43
f 7//44 24//44 25//44
f 8//45 26//45 9//45
f 8//46 25//46 26//46
f 9//47 27//47 10//47
f 9//48 26//48 27//48
f 10//49 28//49 11//49
f 10//50 27//50 28//50
f 11//51 29//51 12//51
f 11//52 28//52 29//52
f 12//53 30//53 13//53
f 12//54 29//54 30//54
f 13//55 31//55 14//55
f 13//56 30//56 31//56
f 14//57 32//57 15//57
f 14//58 31//58 32//58
f 15//59 33//59 16//59
f 15//60 32//60 33//60
f 16//61 34//61 17//61
f 16//62 33//62 34//62
f 17//63 18//63 1//63
f 17//64 34//64 18//64
