# construction_0632_assumed_A_Casa
# source A_Casa
# h_campo 0.000000
# modeled_height 6.000000
# height_kind assumed
# local_origin_world_x 172001.034850
# local_origin_world_y 402500.144600
mtllib construction_artifacts.mtl

o construction_0632_assumed_A_Casa
v -14.429000 0.024500 0.000000
v -12.009000 0.022500 0.000000
v -12.666000 2.599500 0.000000
v -7.498000 4.819500 0.000000
v 0.452000 6.032500 0.000000
v 6.847000 7.434500 0.000000
v 6.248000 8.526500 0.000000
v 8.520000 8.692500 0.000000
v 7.934000 13.719500 0.000000
v 12.243000 14.158500 0.000000
v 14.429000 3.640500 0.000000
v 12.254000 2.973500 0.000000
v 13.999000 -4.407500 0.000000
v 7.171000 -5.818500 0.000000
v 7.317000 -7.746500 0.000000
v 0.597000 -8.597500 0.000000
v 0.772000 -11.105500 0.000000
v -7.406000 -14.158500 0.000000
v -14.429000 0.024500 6.000000
v -12.009000 0.022500 6.000000
v -12.666000 2.599500 6.000000
v -7.498000 4.819500 6.000000
v 0.452000 6.032500 6.000000
v 6.847000 7.434500 6.000000
v 6.248000 8.526500 6.000000
v 8.520000 8.692500 6.000000
v 7.934000 13.719500 6.000000
v 12.243000 14.158500 6.000000
v 14.429000 3.640500 6.000000
v 12.254000 2.973500 6.000000
v 13.999000 -4.407500 6.000000
v 7.171000 -5.818500 6.000000
v 7.317000 -7.746500 6.000000
v 0.597000 -8.597500 6.000000
v 0.772000 -11.105500 6.000000
v -7.406000 -14.158500 6.000000
vn 0.000000 0.000000 -1.000000
vn 0.000000 0.000000 -1.000000
vn 0.000000 0.000000 -1.000000
vn 0.000000 0.000000 -1.000000
vn 0.000000 0.000000 -1.000000
vn 0.000000 0.000000 -1.000000
vn 0.000000 0.000000 -1.000000
vn 0.000000 0.000000 -1.000000
vn 0.000000 0.000000 -1.000000
vn 0.000000 0.000000 -1.000000
vn 0.000000 0.000000 -1.000000
vn 0.000000 -0.000000 -1.000000
vn 0.000000 -0.000000 -1.000000
vn 0.000000 0.000000 -1.000000
vn 0.000000 0.000000 -1.000000
vn 0.000000 -0.000000 -1.000000
vn 0.000000 0.000000 1.000000
vn 0.000000 0.000000 1.000000
vn 0.000000 0.000000 1.000000
vn 0.000000 -0.000000 1.000000
vn 0.000000 0.000000 1.000000
vn 0.000000 -0.000000 1.000000
vn 0.000000 0.000000 1.000000
vn 0.000000 -0.000000 1.000000
vn -0.000000 0.000000 1.000000
vn 0.000000 0.000000 1.000000
vn 0.000000 0.000000 1.000000
vn 0.000000 0.000000 1.000000
vn 0.000000 0.000000 1.000000
vn 0.000000 0.000000 1.000000
vn 0.000000 0.000000 1.000000
vn 0.000000 0.000000 1.000000
vn 0.000826 1.000000 0.000000
vn 0.000826 1.000000 -0.000000
vn -0.969004 -0.247045 0.000000
vn -0.969004 -0.247045 0.000000
vn -0.394692 0.918814 0.000000
vn -0.394692 0.918814 0.000000
vn -0.150833 0.988559 0.000000
vn -0.150833 0.988559 0.000000
vn -0.214148 0.976801 0.000000
vn -0.214148 0.976801 0.000000
vn -0.876758 -0.480932 0.000000
vn -0.876758 -0.480932 0.000000
vn -0.072869 0.997342 0.000000
vn -0.072869 0.997342 0.000000
vn -0.993274 -0.115786 0.000000
vn -0.993274 -0.115786 0.000000
vn -0.101355 0.994850 0.000000
vn -0.101355 0.994850 0.000000
vn 0.979078 0.203486 0.000000
vn 0.979078 0.203486 -0.000000
vn 0.293190 -0.956054 0.000000
vn 0.293190 -0.956054 0.000000
vn 0.973173 0.230075 0.000000
vn 0.973173 0.230075 -0.000000
vn 0.202373 -0.979308 0.000000
vn 0.202373 -0.979308 0.000000
vn 0.997145 0.075510 0.000000
vn 0.997145 0.075510 -0.000000
vn 0.125634 -0.992077 0.000000
vn 0.125634 -0.992077 0.000000
vn 0.997574 0.069607 0.000000
vn 0.997574 0.069607 -0.000000
vn 0.349742 -0.936846 0.000000
vn 0.349742 -0.936846 0.000000
vn -0.896152 -0.443748 0.000000
vn -0.896152 -0.443748 0.000000
usemtl assumed_base
f 18//1 1//1 2//1
f 18//2 2//2 3//2
f 18//3 3//3 4//3
f 18//4 4//4 5//4
f 18//5 5//5 6//5
f 6//6 7//6 8//6
f 18//7 6//7 8//7
f 8//8 9//8 10//8
f 8//9 10//9 11//9
f 8//10 11//10 12//10
f 18//11 8//11 12//11
f 12//12 13//12 14//12
f 14//13 15//13 16//13
f 12//14 14//14 16//14
f 18//15 12//15 16//15
f 16//16 17//16 18//16
usemtl assumed_roof
f 36//17 20//17 19//17
f 36//18 21//18 20//18
f 36//19 22//19 21//19
f 36//20 23//20 22//20
f 36//21 24//21 23//21
f 24//22 26//22 25//22
f 36//23 26//23 24//23
f 26//24 28//24 27//24
f 26//25 29//25 28//25
f 26//26 30//26 29//26
f 36//27 30//27 26//27
f 30//28 32//28 31//28
f 32//29 34//29 33//29
f 30//30 34//30 32//30
f 36//31 34//31 30//31
f 34//32 36//32 35//32
usemtl assumed_wall
f 1//33 20//33 2//33
f 1//34 19//34 20//34
f 2//35 21//35 3//35
f 2//36 20//36 21//36
f 3//37 22//37 4//37
f 3//38 21//38 22//38
f 4//39 23//39 5//39
f 4//40 22//40 23//40
f 5//41 24//41 6//41
f 5//42 23//42 24//42
f 6//43 25//43 7//43
f 6//44 24//44 25//44
f 7//45 26//45 8//45
f 7//46 25//46 26//46
f 8//47 27//47 9//47
f 8//48 26//48 27//48
f 9//49 28//49 10//49
f 9//50 27//50 28//50
f 10//51 29//51 11//51
f 10//52 28//52 29//52
f 11//53 30//53 12//53
f 11//54 29//54 30//54
f 12//55 31//55 13//55
f 12//56 30//56 31//56
f 13//57 32//57 14//57
f 13//58 31//58 32//58
f 14//59 33//59 15//59
f 14//60 32//60 33//60
f 15//61 34//61 16//61
f 15//62 33//62 34//62
f 16//63 35//63 17//63
f 16//64 34//64 35//64
f 17//65 36//65 18//65
f 17//66 35//66 36//66
f 18//67 19//67 1//67
f 18//68 36//68 19//68
