# construction_1235_assumed_A_Casa
# source A_Casa
# h_campo 0.000000
# modeled_height 6.000000
# height_kind assumed
# local_origin_world_x 172001.034850
# local_origin_world_y 402500.144600
mtllib construction_artifacts.mtl

o construction_1235_assumed_A_Casa
v 3.387500 3.127000 0.000000
v 3.921500 3.162000 0.000000
v 2.478500 9.494000 0.000000
v -0.634500 9.540000 0.000000
v -0.158500 6.890000 0.000000
v -10.404500 5.789000 0.000000
v -10.814500 11.825000 0.000000
v 5.215500 13.815000 0.000000
v 6.041500 9.316000 0.000000
v 9.920500 10.086000 0.000000
v 10.768500 7.211000 0.000000
v 9.897500 6.973000 0.000000
v 10.814500 2.960000 0.000000
v 7.659500 2.906000 0.000000
v 8.303500 0.053000 0.000000
v 5.942500 -0.002000 0.000000
v 5.884500 -1.597000 0.000000
v 7.514500 -1.900000 0.000000
v 6.471500 -6.312000 0.000000
v 6.406500 -8.371000 0.000000
v 5.057500 -8.131000 0.000000
v 3.977500 -13.815000 0.000000
v -4.628500 -12.213000 0.000000
v -2.321500 -0.325000 0.000000
v -1.433500 2.632000 0.000000
v 3.849500 1.637000 0.000000
v 3.387500 3.127000 6.000000
v 3.921500 3.162000 6.000000
v 2.478500 9.494000 6.000000
v -0.634500 9.540000 6.000000
v -0.158500 6.890000 6.000000
v -10.404500 5.789000 6.000000
v -10.814500 11.825000 6.000000
v 5.215500 13.815000 6.000000
v 6.041500 9.316000 6.000000
v 9.920500 10.086000 6.000000
v 10.768500 7.211000 6.000000
v 9.897500 6.973000 6.000000
v 10.814500 2.960000 6.000000
v 7.659500 2.906000 6.000000
v 8.303500 0.053000 6.000000
v 5.942500 -0.002000 6.000000
v 5.884500 -1.597000 6.000000
v 7.514500 -1.900000 6.000000
v 6.471500 -6.312000 6.000000
v 6.406500 -8.371000 6.000000
v 5.057500 -8.131000 6.000000
v 3.977500 -13.815000 6.000000
v -4.628500 -12.213000 6.000000
v -2.321500 -0.325000 6.000000
v -1.433500 2.632000 6.000000
v 3.849500 1.637000 6.000000
vn 0.000000 0.000000 -1.000000
vn 0.000000 -0.000000 -1.000000
vn -0.000000 0.000000 -1.000000
vn 0.000000 0.000000 -1.000000
vn 0.000000 0.000000 -1.000000
vn 0.000000 0.000000 -1.000000
vn 0.000000 0.000000 -1.000000
vn 0.000000 0.000000 -1.000000
vn 0.000000 0.000000 -1.000000
vn 0.000000 -0.000000 -1.000000
vn 0.000000 0.000000 -1.000000
vn 0.000000 -0.000000 -1.000000
vn 0.000000 0.000000 -1.000000
vn 0.000000 0.000000 -1.000000
vn 0.000000 0.000000 -1.000000
vn 0.000000 0.000000 -1.000000
vn 0.000000 0.000000 -1.000000
vn 0.000000 0.000000 -1.000000
vn 0.000000 0.000000 -1.000000
vn 0.000000 0.000000 -1.000000
vn 0.000000 0.000000 -1.000000
vn 0.000000 -0.000000 -1.000000
vn 0.000000 0.000000 -1.000000
vn 0.000000 0.000000 -1.000000
vn 0.000000 -0.000000 1.000000
vn 0.000000 0.000000 1.000000
vn 0.000000 0.000000 1.000000
vn 0.000000 0.000000 1.000000
vn 0.000000 -0.000000 1.000000
vn 0.000000 -0.000000 1.000000
vn 0.000000 0.000000 1.000000
vn 0.000000 0.000000 1.000000
vn 0.000000 0.000000 1.000000
vn 0.000000 0.000000 1.000000
vn 0.000000 0.000000 1.000000
vn 0.000000 0.000000 1.000000
vn 0.000000 0.000000 1.000000
vn -0.000000 0.000000 1.000000
vn 0.000000 0.000000 1.000000
vn 0.000000 0.000000 1.000000
vn 0.000000 0.000000 1.000000
vn 0.000000 0.000000 1.000000
vn 0.000000 0.000000 1.000000
vn 0.000000 0.000000 1.000000
vn 0.000000 0.000000 1.000000
vn 0.000000 0.000000 1.000000
vn 0.000000 0.000000 1.000000
vn 0.000000 0.000000 1.000000
vn -0.065403 0.997859 0.000000
vn -0.065403 0.997859 0.000000
vn -0.975003 -0.222193 0.000000
vn -0.975003 -0.222193 0.000000
vn -0.014775 -0.999891 0.000000
vn -0.014775 -0.999891 0.000000
vn 0.984248 0.176793 0.000000
vn 0.984248 0.176793 -0.000000
vn 0.106841 -0.994276 0.000000
vn 0.106841 -0.994276 0.000000
vn -0.997701 -0.067770 0.000000
vn -0.997701 -0.067770 0.000000
vn -0.123197 0.992382 0.000000
vn -0.123197 0.992382 0.000000
vn 0.983561 0.180578 0.000000
vn 0.983561 0.180578 -0.000000
vn -0.194706 0.980862 0.000000
vn -0.194706 0.980862 0.000000
vn 0.959147 0.282907 0.000000
vn 0.959147 0.282907 -0.000000
vn 0.263586 -0.964636 0.000000
vn 0.263586 -0.964636 0.000000
vn 0.974872 0.222765 0.000000
vn 0.974872 0.222765 -0.000000
vn 0.017113 -0.999854 0.000000
vn 0.017113 -0.999854 0.000000
vn 0.975458 0.220187 0.000000
vn 0.975458 0.220187 -0.000000
vn 0.023289 -0.999729 0.000000
vn 0.023289 -0.999729 0.000000
vn 0.999339 -0.036340 0.000000
vn 0.999339 -0.036340 0.000000
vn 0.182759 0.983158 0.000000
vn 0.182759 0.983158 -0.000000
vn 0.973177 -0.230060 0.000000
vn 0.973177 -0.230060 0.000000
vn 0.999502 -0.031553 0.000000
vn 0.999502 -0.031553 0.000000
vn -0.175159 -0.984540 0.000000
vn -0.175159 -0.984540 0.000000
vn 0.982423 -0.186667 0.000000
vn 0.982423 -0.186667 0.000000
vn -0.183005 -0.983112 0.000000
vn -0.183005 -0.983112 0.000000
vn -0.981686 0.190507 0.000000
vn -0.981686 0.190507 0.000000
vn -0.957746 0.287615 0.000000
vn -0.957746 0.287615 0.000000
vn 0.185086 0.982722 0.000000
vn 0.185086 0.982722 -0.000000
vn -0.955139 -0.296157 0.000000
vn -0.955139 -0.296157 0.000000
usemtl assumed_base
f 26//1 1//1 2//1
f 4//2 5//2 6//2
f 4//3 6//3 7//3
f 3//4 4//4 7//4
f 3//5 7//5 8//5
f 2//6 3//6 8//6
f 26//7 2//7 8//7
f 26//8 8//8 9//8
f 26//9 9//9 10//9
f 10//10 11//10 12//10
f 26//11 10//11 12//11
f 12//12 13//12 14//12
f 26//13 12//13 14//13
f 26//14 14//14 15//14
f 26//15 15//15 16//15
f 26//16 16//16 17//16
f 17//17 18//17 19//17
f 26//18 17//18 19//18
f 26//19 19//19 20//19
f 26//20 20//20 21//20
f 26//21 21//21 22//21
f 26//22 22//22 23//22
f 26//23 23//23 24//23
f 24//24 25//24 26//24
usemtl assumed_roof
f 52//25 28//25 27//25
f 30//26 32//26 31//26
f 30//27 33//27 32//27
f 29//28 33//28 30//28
f 29//29 34//29 33//29
f 28//30 34//30 29//30
f 52//31 34//31 28//31
f 52//32 35//32 34//32
f 52//33 36//33 35//33
f 36//34 38//34 37//34
f 52//35 38//35 36//35
f 38//36 40//36 39//36
f 52//37 40//37 38//37
f 52//38 41//38 40//38
f 52//39 42//39 41//39
f 52//40 43//40 42//40
f 43//41 45//41 44//41
f 52//42 45//42 43//42
f 52//43 46//43 45//43
f 52//44 47//44 46//44
f 52//45 48//45 47//45
f 52//46 49//46 48//46
f 52//47 50//47 49//47
f 50//48 52//48 51//48
usemtl assumed_wall
f 1//49 28//49 2//49
f 1//50 27//50 28//50
f 2//51 29//51 3//51
f 2//52 28//52 29//52
f 3//53 30//53 4//53
f 3//54 29//54 30//54
f 4//55 31//55 5//55
f 4//56 30//56 31//56
f 5//57 32//57 6//57
f 5//58 31//58 32//58
f 6//59 33//59 7//59
f 6//60 32//60 33//60
f 7//61 34//61 8//61
f 7//62 33//62 34//62
f 8//63 35//63 9//63
f 8//64 34//64 35//64
f 9//65 36//65 10//65
f 9//66 35//66 36//66
f 10//67 37//67 11//67
f 10//68 36//68 37//68
f 11//69 38//69 12//69
f 11//70 37//70 38//70
f 12//71 39//71 13//71
f 12//72 38//72 39//72
f 13//73 40//73 14//73
f 13//74 39//74 40//74
f 14//75 41//75 15//75
f 14//76 40//76 41//76
f 15//77 42//77 16//77
f 15//78 41//78 42//78
f 16//79 43//79 17//79
f 16//80 42//80 43//80
f 17//81 44//81 18//81
f 17//82 43//82 44//82
f 18//83 45//83 19//83
f 18//84 44//84 45//84
f 19//85 46//85 20//85
f 19//86 45//86 46//86
f 20//87 47//87 21//87
f 20//88 46//88 47//88
f 21//89 48//89 22//89
f 21//90 47//90 48//90
f 22//91 49//91 23//91
f 22//92 48//92 49//92
f 23//93 50//93 24//93
f 23//94 49//94 50//94
f 24//95 51//95 25//95
f 24//96 50//96 51//96
f 25//97 52//97 26//97
f 25//98 51//98 52//98
f 26//99 27//99 1//99
f 26//100 52//100 27//100
