# construction_0612_assumed_A_Casa
# source A_Casa
# h_campo 0.000000
# modeled_height 6.000000
# height_kind assumed
# local_origin_world_x 172001.034850
# local_origin_world_y 402500.144600
mtllib construction_artifacts.mtl

o construction_0612_assumed_A_Casa
v -4.239500 -3.250000 0.000000
v -4.072500 1.178000 0.000000
v -3.243500 1.377000 0.000000
v -2.100500 12.358000 0.000000
v -1.669500 13.877000 0.000000
v 3.083500 12.853000 0.000000
v 3.087500 11.827000 0.000000
v 4.239500 11.831000 0.000000
v 3.034500 -13.877000 0.000000
v -3.937500 -13.213000 0.000000
v -3.255500 -3.246000 0.000000
v -4.239500 -3.250000 6.000000
v -4.072500 1.178000 6.000000
v -3.243500 1.377000 6.000000
v -2.100500 12.358000 6.000000
v -1.669500 13.877000 6.000000
v 3.083500 12.853000 6.000000
v 3.087500 11.827000 6.000000
v 4.239500 11.831000 6.000000
v 3.034500 -13.877000 6.000000
v -3.937500 -13.213000 6.000000
v -3.255500 -3.246000 6.000000
vn -0.000000 0.000000 -1.000000
vn 0.000000 0.000000 -1.000000
vn 0.000000 0.000000 -1.000000
vn 0.000000 0.000000 -1.000000
vn 0.000000 0.000000 -1.000000
vn 0.000000 0.000000 -1.000000
vn 0.000000 0.000000 -1.000000
vn 0.000000 0.000000 -1.000000
vn 0.000000 0.000000 -1.000000
vn 0.000000 0.000000 1.000000
vn 0.000000 -0.000000 1.000000
vn 0.000000 0.000000 1.000000
vn 0.000000 0.000000 1.000000
vn 0.000000 0.000000 1.000000
vn 0.000000 0.000000 1.000000
vn 0.000000 0.000000 1.000000
vn -0.000000 0.000000 1.000000
vn 0.000000 0.000000 1.000000
vn -0.999290 0.037688 0.000000
vn -0.999290 0.037688 0.000000
vn -0.233417 0.972377 0.000000
vn -0.233417 0.972377 0.000000
vn -0.994626 0.103530 0.000000
vn -0.994626 0.103530 0.000000
vn -0.962024 0.272964 0.000000
vn -0.962024 0.272964 0.000000
vn 0.210611 0.977570 0.000000
vn 0.210611 0.977570 -0.000000
vn 0.999992 0.003899 0.000000
vn 0.999992 0.003899 -0.000000
vn -0.003472 0.999994 0.000000
vn -0.003472 0.999994 0.000000
vn 0.998903 -0.046821 0.000000
vn 0.998903 -0.046821 0.000000
vn -0.094809 -0.995495 0.000000
vn -0.094809 -0.995495 0.000000
vn -0.997667 0.068266 0.000000
vn -0.997667 0.068266 0.000000
vn 0.004065 -0.999992 0.000000
vn 0.004065 -0.999992 0.000000
usemtl assumed_base
f 11//1 1//1 2//1
f 11//2 2//2 3//2
f 11//3 3//3 4//3
f 11//4 4//4 5//4
f 11//5 5//5 6//5
f 11//6 6//6 7//6
f 11//7 7//7 8//7
f 11//8 8//8 9//8
f 9//9 10//9 11//9
usemtl assumed_roof
f 22//10 13//10 12//10
f 22//11 14//11 13//11
f 22//12 15//12 14//12
f 22//13 16//13 15//13
f 22//14 17//14 16//14
f 22//15 18//15 17//15
f 22//16 19//16 18//16
f 22//17 20//17 19//17
f 20//18 22//18 21//18
usemtl assumed_wall
f 1//19 13//19 2//19
f 1//20 12//20 13//20
f 2//21 14//21 3//21
f 2//22 13//22 14//22
f 3//23 15//23 4//23
f 3//24 14//24 15//24
f 4//25 16//25 5//25
f 4//26 15//26 16//26
f 5//27 17//27 6//27
f 5//28 16//28 17//28
f 6//29 18//29 7//29
f 6//30 17//30 18//30
f 7//31 19//31 8//31
f 7//32 18//32 19//32
f 8//33 20//33 9//33
f 8//34 19//34 20//34
f 9//35 21//35 10//35
f 9//36 20//36 21//36
f 10//37 22//37 11//37
f 10//38 21//38 22//38
f 11//39 12//39 1//39
f 11//40 22//40 12//40
