# construction_1014_assumed_A_Casa
# source A_Casa
# h_campo 0.000000
# modeled_height 6.000000
# height_kind assumed
# local_origin_world_x 172001.034850
# local_origin_world_y 402500.144600
mtllib construction_artifacts.mtl

o construction_1014_assumed_A_Casa
v -11.962000 16.742500 0.000000
v -8.125000 17.504500 0.000000
v -5.664000 5.653500 0.000000
v -4.600000 5.354500 0.000000
v -4.215000 -1.195500 0.000000
v -2.687000 -4.262500 0.000000
v -1.151000 -2.092500 0.000000
v 1.287000 -6.525500 0.000000
v 5.117000 -4.583500 0.000000
v 4.484000 -2.880500 0.000000
v 3.793000 1.764500 0.000000
v -0.597000 2.623500 0.000000
v -0.656000 7.424500 0.000000
v 10.554000 8.435500 0.000000
v 10.301000 -3.120500 0.000000
v 11.962000 -7.724500 0.000000
v 4.249000 -12.238500 0.000000
v 2.798000 -9.672500 0.000000
v 0.381000 -10.753500 0.000000
v 0.979000 -12.778500 0.000000
v -8.481000 -17.504500 0.000000
v -9.132000 -9.755500 0.000000
v -9.945000 3.941500 0.000000
v -11.962000 16.742500 6.000000
v -8.125000 17.504500 6.000000
v -5.664000 5.653500 6.000000
v -4.600000 5.354500 6.000000
v -4.215000 -1.195500 6.000000
v -2.687000 -4.262500 6.000000
v -1.151000 -2.092500 6.000000
v 1.287000 -6.525500 6.000000
v 5.117000 -4.583500 6.000000
v 4.484000 -2.880500 6.000000
v 3.793000 1.764500 6.000000
v -0.597000 2.623500 6.000000
v -0.656000 7.424500 6.000000
v 10.554000 8.435500 6.000000
v 10.301000 -3.120500 6.000000
v 11.962000 -7.724500 6.000000
v 4.249000 -12.238500 6.000000
v 2.798000 -9.672500 6.000000
v 0.381000 -10.753500 6.000000
v 0.979000 -12.778500 6.000000
v -8.481000 -17.504500 6.000000
v -9.132000 -9.755500 6.000000
v -9.945000 3.941500 6.000000
vn 0.000000 0.000000 -1.000000
vn 0.000000 0.000000 -1.000000
vn 0.000000 0.000000 -1.000000
vn 0.000000 0.000000 -1.000000
vn 0.000000 0.000000 -1.000000
vn 0.000000 0.000000 -1.000000
vn 0.000000 0.000000 -1.000000
vn 0.000000 0.000000 -1.000000
vn 0.000000 0.000000 -1.000000
vn 0.000000 0.000000 -1.000000
vn 0.000000 0.000000 -1.000000
vn 0.000000 0.000000 -1.000000
vn 0.000000 0.000000 -1.000000
vn 0.000000 0.000000 -1.000000
vn 0.000000 0.000000 -1.000000
vn 0.000000 0.000000 -1.000000
vn 0.000000 0.000000 -1.000000
vn 0.000000 0.000000 -1.000000
vn 0.000000 0.000000 -1.000000
vn 0.000000 0.000000 -1.000000
vn 0.000000 0.000000 -1.000000
vn 0.000000 -0.000000 1.000000
vn 0.000000 0.000000 1.000000
vn 0.000000 0.000000 1.000000
vn -0.000000 0.000000 1.000000
vn 0.000000 0.000000 1.000000
vn -0.000000 0.000000 1.000000
vn 0.000000 0.000000 1.000000
vn 0.000000 0.000000 1.000000
vn 0.000000 -0.000000 1.000000
vn 0.000000 -0.000000 1.000000
vn 0.000000 0.000000 1.000000
vn 0.000000 0.000000 1.000000
vn -0.000000 0.000000 1.000000
vn 0.000000 0.000000 1.000000
vn 0.000000 0.000000 1.000000
vn 0.000000 0.000000 1.000000
vn 0.000000 0.000000 1.000000
vn 0.000000 0.000000 1.000000
vn 0.000000 0.000000 1.000000
vn 0.000000 0.000000 1.000000
vn 0.000000 0.000000 1.000000
vn -0.194789 0.980845 0.000000
vn -0.194789 0.980845 0.000000
vn 0.979111 0.203324 0.000000
vn 0.979111 0.203324 -0.000000
vn 0.270536 0.962710 0.000000
vn 0.270536 0.962710 -0.000000
vn 0.998277 0.058677 0.000000
vn 0.998277 0.058677 -0.000000
vn 0.895068 0.445929 0.000000
vn 0.895068 0.445929 -0.000000
vn -0.816217 0.577746 0.000000
vn -0.816217 0.577746 0.000000
vn 0.876228 0.481896 0.000000
vn 0.876228 0.481896 -0.000000
vn -0.452237 0.891898 0.000000
vn -0.452237 0.891898 0.000000
vn -0.937343 -0.348408 0.000000
vn -0.937343 -0.348408 0.000000
vn -0.989115 -0.147143 0.000000
vn -0.989115 -0.147143 0.000000
vn -0.192030 -0.981389 0.000000
vn -0.192030 -0.981389 0.000000
vn -0.999924 -0.012288 0.000000
vn -0.999924 -0.012288 0.000000
vn -0.089823 0.995958 0.000000
vn -0.089823 0.995958 0.000000
vn 0.999760 -0.021888 0.000000
vn 0.999760 -0.021888 0.000000
vn 0.940655 0.339363 0.000000
vn 0.940655 0.339363 -0.000000
vn 0.505102 -0.863060 0.000000
vn 0.505102 -0.863060 0.000000
vn -0.870468 -0.492225 0.000000
vn -0.870468 -0.492225 0.000000
vn 0.408275 -0.912859 0.000000
vn 0.408275 -0.912859 0.000000
vn 0.959056 0.283217 0.000000
vn 0.959056 0.283217 -0.000000
vn 0.446911 -0.894578 0.000000
vn 0.446911 -0.894578 0.000000
vn -0.996490 -0.083716 0.000000
vn -0.996490 -0.083716 0.000000
vn -0.998243 -0.059252 0.000000
vn -0.998243 -0.059252 0.000000
vn -0.987813 -0.155646 0.000000
vn -0.987813 -0.155646 0.000000
usemtl assumed_base
f 23//1 1//1 2//1
f 23//2 2//2 3//2
f 23//3 3//3 4//3
f 23//4 4//4 5//4
f 23//5 5//5 6//5
f 6//6 7//6 8//6
f 9//7 10//7 11//7
f 11//8 12//8 13//8
f 11//9 13//9 14//9
f 9//10 11//10 14//10
f 9//11 14//11 15//11
f 8//12 9//12 15//12
f 8//13 15//13 16//13
f 8//14 16//14 17//14
f 8//15 17//15 18//15
f 6//16 8//16 18//16
f 6//17 18//17 19//17
f 23//18 6//18 19//18
f 23//19 19//19 20//19
f 23//20 20//20 21//20
f 21//21 22//21 23//21
usemtl assumed_roof
f 46//22 25//22 24//22
f 46//23 26//23 25//23
f 46//24 27//24 26//24
f 46//25 28//25 27//25
f 46//26 29//26 28//26
f 29//27 31//27 30//27
f 32//28 34//28 33//28
f 34//29 36//29 35//29
f 34//30 37//30 36//30
f 32//31 37//31 34//31
f 32//32 38//32 37//32
f 31//33 38//33 32//33
f 31//34 39//34 38//34
f 31//35 40//35 39//35
f 31//36 41//36 40//36
f 29//37 41//37 31//37
f 29//38 42//38 41//38
f 46//39 42//39 29//39
f 46//40 43//40 42//40
f 46//41 44//41 43//41
f 44//42 46//42 45//42
usemtl assumed_wall
f 1//43 25//43 2//43
f 1//44 24//44 25//44
f 2//45 26//45 3//45
f 2//46 25//46 26//46
f 3//47 27//47 4//47
f 3//48 26//48 27//48
f 4//49 28//49 5//49
f 4//50 27//50 28//50
f 5//51 29//51 6//51
f 5//52 28//52 29//52
f 6//53 30//53 7//53
f 6//54 29//54 30//54
f 7//55 31//55 8//55
f 7//56 30//56 31//56
f 8//57 32//57 9//57
f 8//58 31//58 32//58
f 9//59 33//59 10//59
f 9//60 32//60 33//60
f 10//61 34//61 11//61
f 10//62 33//62 34//62
f 11//63 35//63 12//63
f 11//64 34//64 35//64
f 12//65 36//65 13//65
f 12//66 35//66 36//66
f 13//67 37//67 14//67
f 13//68 36//68 37//68
f 14//69 38//69 15//69
f 14//70 37//70 38//70
f 15//71 39//71 16//71
f 15//72 38//72 39//72
f 16//73 40//73 17//73
f 16//74 39//74 40//74
f 17//75 41//75 18//75
f 17//76 40//76 41//76
f 18//77 42//77 19//77
f 18//78 41//78 42//78
f 19//79 43//79 20//79
f 19//80 42//80 43//80
f 20//81 44//81 21//81
f 20//82 43//82 44//82
f 21//83 45//83 22//83
f 21//84 44//84 45//84
f 22//85 46//85 23//85
f 22//86 45//86 46//86
f 23//87 24//87 1//87
f 23//88 46//88 24//88
