# construction_2572_assumed_A_Casa
# source A_Casa
# h_campo 0.000000
# modeled_height 6.000000
# height_kind assumed
# local_origin_world_x 172001.034850
# local_origin_world_y 402500.144600
mtllib construction_artifacts.mtl

o construction_2572_assumed_A_Casa
v -15.965500 -3.830500 0.000000
v -9.674500 3.852500 0.000000
v -11.676500 7.359500 0.000000
v -4.215500 12.924500 0.000000
v -3.849500 12.349500 0.000000
v 2.632500 16.001500 0.000000
v 4.142500 13.026500 0.000000
v 8.376500 16.547500 0.000000
v 15.965500 2.179500 0.000000
v 10.382500 -1.597500 0.000000
v 12.015500 -3.265500 0.000000
v 7.268500 -10.032500 0.000000
v 2.141500 -16.547500 0.000000
v -4.048500 -12.318500 0.000000
v 3.333500 -2.722500 0.000000
v 8.914500 1.868500 0.000000
v 6.490500 5.446500 0.000000
v 0.274500 2.146500 0.000000
v -9.237500 -9.688500 0.000000
v -15.965500 -3.830500 6.000000
v -9.674500 3.852500 6.000000
v -11.676500 7.359500 6.000000
v -4.215500 12.924500 6.000000
v -3.849500 12.349500 6.000000
v 2.632500 16.001500 6.000000
v 4.142500 13.026500 6.000000
v 8.376500 16.547500 6.000000
v 15.965500 2.179500 6.000000
v 10.382500 -1.597500 6.000000
v 12.015500 -3.265500 6.000000
v 7.268500 -10.032500 6.000000
v 2.141500 -16.547500 6.000000
v -4.048500 -12.318500 6.000000
v 3.333500 -2.722500 6.000000
v 8.914500 1.868500 6.000000
v 6.490500 5.446500 6.000000
v 0.274500 2.146500 6.000000
v -9.237500 -9.688500 6.000000
vn 0.000000 0.000000 -1.000000
vn 0.000000 0.000000 -1.000000
vn 0.000000 0.000000 -1.000000
vn 0.000000 0.000000 -1.000000
vn 0.000000 0.000000 -1.000000
vn 0.000000 0.000000 -1.000000
vn 0.000000 0.000000 -1.000000
vn 0.000000 0.000000 -1.000000
vn 0.000000 -0.000000 -1.000000
vn 0.000000 0.000000 -1.000000
vn 0.000000 0.000000 -1.000000
vn 0.000000 0.000000 -1.000000
vn -0.000000 0.000000 -1.000000
vn 0.000000 0.000000 -1.000000
vn 0.000000 -0.000000 -1.000000
vn 0.000000 0.000000 -1.000000
vn 0.000000 0.000000 -1.000000
vn 0.000000 0.000000 1.000000
vn 0.000000 -0.000000 1.000000
vn 0.000000 -0.000000 1.000000
vn 0.000000 0.000000 1.000000
vn 0.000000 0.000000 1.000000
vn 0.000000 0.000000 1.000000
vn 0.000000 0.000000 1.000000
vn 0.000000 0.000000 1.000000
vn 0.000000 0.000000 1.000000
vn 0.000000 0.000000 1.000000
vn 0.000000 0.000000 1.000000
vn 0.000000 0.000000 1.000000
vn 0.000000 0.000000 1.000000
vn 0.000000 0.000000 1.000000
vn 0.000000 0.000000 1.000000
vn 0.000000 0.000000 1.000000
vn 0.000000 0.000000 1.000000
vn -0.773715 0.633534 0.000000
vn -0.773715 0.633534 0.000000
vn -0.868456 -0.495766 0.000000
vn -0.868456 -0.495766 0.000000
vn -0.597884 0.801583 0.000000
vn -0.597884 0.801583 0.000000
vn 0.843601 0.536970 0.000000
vn 0.843601 0.536970 -0.000000
vn -0.490861 0.871238 0.000000
vn -0.490861 0.871238 0.000000
vn 0.891713 0.452601 0.000000
vn 0.891713 0.452601 -0.000000
vn -0.639398 0.768876 0.000000
vn -0.639398 0.768876 0.000000
vn 0.884235 0.467042 0.000000
vn 0.884235 0.467042 -0.000000
vn 0.560336 -0.828265 0.000000
vn 0.560336 -0.828265 0.000000
vn 0.714564 0.699570 0.000000
vn 0.714564 0.699570 -0.000000
vn 0.818657 -0.574282 0.000000
vn 0.818657 -0.574282 0.000000
vn 0.785845 -0.618423 0.000000
vn 0.785845 -0.618423 0.000000
vn -0.564115 -0.825696 0.000000
vn -0.564115 -0.825696 0.000000
vn -0.792606 0.609735 0.000000
vn -0.792606 0.609735 0.000000
vn -0.635285 0.772278 0.000000
vn -0.635285 0.772278 0.000000
vn -0.827898 -0.560879 0.000000
vn -0.827898 -0.560879 0.000000
vn 0.468906 -0.883248 0.000000
vn 0.468906 -0.883248 0.000000
vn 0.779453 -0.626460 0.000000
vn 0.779453 -0.626460 0.000000
vn -0.656661 -0.754185 0.000000
vn -0.656661 -0.754185 0.000000
usemtl assumed_base
f 19//1 1//1 2//1
f 2//2 3//2 4//2
f 19//3 2//3 4//3
f 19//4 4//4 5//4
f 19//5 5//5 6//5
f 19//6 6//6 7//6
f 19//7 7//7 8//7
f 8//8 9//8 10//8
f 10//9 11//9 12//9
f 10//10 12//10 13//10
f 10//11 13//11 14//11
f 10//12 14//12 15//12
f 10//13 15//13 16//13
f 8//14 10//14 16//14
f 8//15 16//15 17//15
f 8//16 17//16 18//16
f 8//17 18//17 19//17
usemtl assumed_roof
f 38//18 21//18 20//18
f 21//19 23//19 22//19
f 38//20 23//20 21//20
f 38//21 24//21 23//21
f 38//22 25//22 24//22
f 38//23 26//23 25//23
f 38//24 27//24 26//24
f 27//25 29//25 28//25
f 29//26 31//26 30//26
f 29//27 32//27 31//27
f 29//28 33//28 32//28
f 29//29 34//29 33//29
f 29//30 35//30 34//30
f 27//31 35//31 29//31
f 27//32 36//32 35//32
f 27//33 37//33 36//33
f 27//34 38//34 37//34
usemtl assumed_wall
f 1//35 21//35 2//35
f 1//36 20//36 21//36
f 2//37 22//37 3//37
f 2//38 21//38 22//38
f 3//39 23//39 4//39
f 3//40 22//40 23//40
f 4//41 24//41 5//41
f 4//42 23//42 24//42
f 5//43 25//43 6//43
f 5//44 24//44 25//44
f 6//45 26//45 7//45
f 6//46 25//46 26//46
f 7//47 27//47 8//47
f 7//48 26//48 27//48
f 8//49 28//49 9//49
f 8//50 27//50 28//50
f 9//51 29//51 10//51
f 9//52 28//52 29//52
f 10//53 30//53 11//53
f 10//54 29//54 30//54
f 11//55 31//55 12//55
f 11//56 30//56 31//56
f 12//57 32//57 13//57
f 12//58 31//58 32//58
f 13//59 33//59 14//59
f 13//60 32//60 33//60
f 14//61 34//61 15//61
f 14//62 33//62 34//62
f 15//63 35//63 16//63
f 15//64 34//64 35//64
f 16//65 36//65 17//65
f 16//66 35//66 36//66
f 17//67 37//67 18//67
f 17//68 36//68 37//68
f 18//69 38//69 19//69
f 18//70 37//70 38//70
f 19//71 20//71 1//71
f 19//72 38//72 20//72
