# construction_6567_assumed_A_Casa
# source A_Casa
# h_campo 0.000000
# modeled_height 6.000000
# height_kind assumed
# local_origin_world_x 172001.034850
# local_origin_world_y 402500.144600
mtllib construction_artifacts.mtl

o construction_6567_assumed_A_Casa
v 0.670000 5.917000 0.000000
v 3.917000 7.809000 0.000000
v 1.177000 13.074000 0.000000
v 0.185000 13.391000 0.000000
v -0.057000 12.586000 0.000000
v -7.792000 16.287000 0.000000
v -4.470000 22.814000 0.000000
v 1.406000 19.935000 0.000000
v 3.531000 16.582000 0.000000
v 14.354000 -2.329000 0.000000
v 6.444000 -6.710000 0.000000
v 9.477000 -11.802000 0.000000
v 10.937000 -10.602000 0.000000
v 13.761000 -14.615000 0.000000
v 13.132000 -15.299000 0.000000
v 16.103000 -20.284000 0.000000
v 12.166000 -22.814000 0.000000
v 6.102000 -13.061000 0.000000
v -1.127000 -17.500000 0.000000
v -5.297000 -11.102000 0.000000
v 2.133000 -6.678000 0.000000
v -2.913000 1.304000 0.000000
v -6.540000 -5.704000 0.000000
v -16.103000 -1.322000 0.000000
v -12.605000 6.488000 0.000000
v -6.318000 3.608000 0.000000
v -4.733000 4.391000 0.000000
v -5.148000 5.011000 0.000000
v -0.485000 7.531000 0.000000
v 0.670000 5.917000 6.000000
v 3.917000 7.809000 6.000000
v 1.177000 13.074000 6.000000
v 0.185000 13.391000 6.000000
v -0.057000 12.586000 6.000000
v -7.792000 16.287000 6.000000
v -4.470000 22.814000 6.000000
v 1.406000 19.935000 6.000000
v 3.531000 16.582000 6.000000
v 14.354000 -2.329000 6.000000
v 6.444000 -6.710000 6.000000
v 9.477000 -11.802000 6.000000
v 10.937000 -10.602000 6.000000
v 13.761000 -14.615000 6.000000
v 13.132000 -15.299000 6.000000
v 16.103000 -20.284000 6.000000
v 12.166000 -22.814000 6.000000
v 6.102000 -13.061000 6.000000
v -1.127000 -17.500000 6.000000
v -5.297000 -11.102000 6.000000
v 2.133000 -6.678000 6.000000
v -2.913000 1.304000 6.000000
v -6.540000 -5.704000 6.000000
v -16.103000 -1.322000 6.000000
v -12.605000 6.488000 6.000000
v -6.318000 3.608000 6.000000
v -4.733000 4.391000 6.000000
v -5.148000 5.011000 6.000000
v -0.485000 7.531000 6.000000
vn -0.000000 0.000000 -1.000000
vn 0.000000 0.000000 -1.000000
vn 0.000000 0.000000 -1.000000
vn 0.000000 0.000000 -1.000000
vn 0.000000 0.000000 -1.000000
vn 0.000000 0.000000 -1.000000
vn 0.000000 0.000000 -1.000000
vn 0.000000 0.000000 -1.000000
vn 0.000000 0.000000 -1.000000
vn 0.000000 0.000000 -1.000000
vn 0.000000 0.000000 -1.000000
vn 0.000000 0.000000 -1.000000
vn 0.000000 0.000000 -1.000000
vn 0.000000 0.000000 -1.000000
vn 0.000000 0.000000 -1.000000
vn 0.000000 0.000000 -1.000000
vn 0.000000 0.000000 -1.000000
vn -0.000000 0.000000 -1.000000
vn 0.000000 0.000000 -1.000000
vn 0.000000 0.000000 -1.000000
vn 0.000000 -0.000000 -1.000000
vn 0.000000 0.000000 -1.000000
vn 0.000000 0.000000 -1.000000
vn 0.000000 0.000000 -1.000000
vn 0.000000 0.000000 -1.000000
vn 0.000000 0.000000 -1.000000
vn 0.000000 0.000000 -1.000000
vn 0.000000 0.000000 1.000000
vn 0.000000 0.000000 1.000000
vn 0.000000 0.000000 1.000000
vn 0.000000 -0.000000 1.000000
vn 0.000000 0.000000 1.000000
vn 0.000000 0.000000 1.000000
vn -0.000000 -0.000000 1.000000
vn -0.000000 0.000000 1.000000
vn 0.000000 0.000000 1.000000
vn 0.000000 0.000000 1.000000
vn -0.000000 0.000000 1.000000
vn 0.000000 0.000000 1.000000
vn 0.000000 0.000000 1.000000
vn 0.000000 0.000000 1.000000
vn 0.000000 0.000000 1.000000
vn 0.000000 0.000000 1.000000
vn 0.000000 0.000000 1.000000
vn 0.000000 0.000000 1.000000
vn 0.000000 0.000000 1.000000
vn 0.000000 0.000000 1.000000
vn 0.000000 0.000000 1.000000
vn 0.000000 0.000000 1.000000
vn 0.000000 0.000000 1.000000
vn 0.000000 -0.000000 1.000000
vn 0.000000 0.000000 1.000000
vn 0.000000 0.000000 1.000000
vn 0.000000 -0.000000 1.000000
vn -0.503457 0.864020 0.000000
vn -0.503457 0.864020 0.000000
vn -0.887065 -0.461644 0.000000
vn -0.887065 -0.461644 0.000000
vn -0.304392 -0.952547 0.000000
vn -0.304392 -0.952547 0.000000
vn 0.957662 -0.287894 0.000000
vn 0.957662 -0.287894 0.000000
vn -0.431612 -0.902059 0.000000
vn -0.431612 -0.902059 0.000000
vn -0.891209 0.453592 0.000000
vn -0.891209 0.453592 0.000000
vn 0.439986 0.898005 0.000000
vn 0.439986 0.898005 -0.000000
vn 0.844656 0.535310 0.000000
vn 0.844656 0.535310 -0.000000
vn 0.867913 0.496717 0.000000
vn 0.867913 0.496717 -0.000000
vn 0.484506 -0.874788 0.000000
vn 0.484506 -0.874788 0.000000
vn 0.859141 0.511739 0.000000
vn 0.859141 0.511739 -0.000000
vn -0.634965 0.772541 0.000000
vn -0.634965 0.772541 0.000000
vn 0.817803 0.575498 0.000000
vn 0.817803 0.575498 -0.000000
vn 0.736081 -0.676893 0.000000
vn 0.736081 -0.676893 0.000000
vn 0.859010 0.511959 0.000000
vn 0.859010 0.511959 -0.000000
vn 0.540617 -0.841269 0.000000
vn 0.540617 -0.841269 0.000000
vn -0.849234 -0.528017 0.000000
vn -0.849234 -0.528017 0.000000
vn 0.523275 -0.852164 0.000000
vn 0.523275 -0.852164 0.000000
vn -0.837767 -0.546028 0.000000
vn -0.837767 -0.546028 0.000000
vn -0.511602 0.859223 0.000000
vn -0.511602 0.859223 0.000000
vn -0.845262 -0.534352 0.000000
vn -0.845262 -0.534352 0.000000
vn 0.888105 -0.459640 0.000000
vn 0.888105 -0.459640 0.000000
vn -0.416573 -0.909102 0.000000
vn -0.416573 -0.909102 0.000000
vn -0.912642 0.408761 0.000000
vn -0.912642 0.408761 0.000000
vn 0.416470 0.909149 0.000000
vn 0.416470 0.909149 -0.000000
vn -0.442909 0.896566 0.000000
vn -0.442909 0.896566 0.000000
vn -0.831018 -0.556246 0.000000
vn -0.831018 -0.556246 0.000000
vn -0.475438 0.879749 0.000000
vn -0.475438 0.879749 0.000000
vn 0.813222 0.581953 0.000000
vn 0.813222 0.581953 -0.000000
usemtl assumed_base
f 4//1 5//1 6//1
f 3//2 4//2 6//2
f 3//3 6//3 7//3
f 3//4 7//4 8//4
f 2//5 3//5 8//5
f 2//6 8//6 9//6
f 2//7 9//7 10//7
f 1//8 2//8 10//8
f 1//9 10//9 11//9
f 29//10 1//10 11//10
f 12//11 13//11 14//11
f 12//12 14//12 15//12
f 12//13 15//13 16//13
f 12//14 16//14 17//14
f 11//15 12//15 17//15
f 29//16 11//16 17//16
f 29//17 17//17 18//17
f 18//18 19//18 20//18
f 18//19 20//19 21//19
f 29//20 18//20 21//20
f 29//21 21//21 22//21
f 29//22 22//22 23//22
f 23//23 24//23 25//23
f 23//24 25//24 26//24
f 23//25 26//25 27//25
f 29//26 23//26 27//26
f 27//27 28//27 29//27
usemtl assumed_roof
f 33//28 35//28 34//28
f 32//29 35//29 33//29
f 32//30 36//30 35//30
f 32//31 37//31 36//31
f 31//32 37//32 32//32
f 31//33 38//33 37//33
f 31//34 39//34 38//34
f 30//35 39//35 31//35
f 30//36 40//36 39//36
f 58//37 40//37 30//37
f 41//38 43//38 42//38
f 41//39 44//39 43//39
f 41//40 45//40 44//40
f 41//41 46//41 45//41
f 40//42 46//42 41//42
f 58//43 46//43 40//43
f 58//44 47//44 46//44
f 47//45 49//45 48//45
f 47//46 50//46 49//46
f 58//47 50//47 47//47
f 58//48 51//48 50//48
f 58//49 52//49 51//49
f 52//50 54//50 53//50
f 52//51 55//51 54//51
f 52//52 56//52 55//52
f 58//53 56//53 52//53
f 56//54 58//54 57//54
usemtl assumed_wall
f 1//55 31//55 2//55
f 1//56 30//56 31//56
f 2//57 32//57 3//57
f 2//58 31//58 32//58
f 3//59 33//59 4//59
f 3//60 32//60 33//60
f 4//61 34//61 5//61
f 4//62 33//62 34//62
f 5//63 35//63 6//63
f 5//64 34//64 35//64
f 6//65 36//65 7//65
f 6//66 35//66 36//66
f 7//67 37//67 8//67
f 7//68 36//68 37//68
f 8//69 38//69 9//69
f 8//70 37//70 38//70
f 9//71 39//71 10//71
f 9//72 38//72 39//72
f 10//73 40//73 11//73
f 10//74 39//74 40//74
f 11//75 41//75 12//75
f 11//76 40//76 41//76
f 12//77 42//77 13//77
f 12//78 41//78 42//78
f 13//79 43//79 14//79
f 13//80 42//80 43//80
f 14//81 44//81 15//81
f 14//82 43//82 44//82
f 15//83 45//83 16//83
f 15//84 44//84 45//84
f 16//85 46//85 17//85
f 16//86 45//86 46//86
f 17//87 47//87 18//87
f 17//88 46//88 47//88
f 18//89 48//89 19//89
f 18//90 47//90 48//90
f 19//91 49//91 20//91
f 19//92 48//92 49//92
f 20//93 50//93 21//93
f 20//94 49//94 50//94
f 21//95 51//95 22//95
f 21//96 50//96 51//96
f 22//97 52//97 23//97
f 22//98 51//98 52//98
f 23//99 53//99 24//99
f 23//100 52//100 53//100
f 24//101 54//101 25//101
f 24//102 53//102 54//102
f 25//103 55//103 26//103
f 25//104 54//104 55//104
f 26//105 56//105 27//105
f 26//106 55//106 56//106
f 27//107 57//107 28//107
f 27//108 56//108 57//108
f 28//109 58//109 29//109
f 28//110 57//110 58//110
f 29//111 30//111 1//111
f 29//112 58//112 30//112
