# construction_2463_assumed_A_Casa
# source A_Casa
# h_campo 0.000000
# modeled_height 6.000000
# height_kind assumed
# local_origin_world_x 172001.034850
# local_origin_world_y 402500.144600
mtllib construction_artifacts.mtl

o construction_2463_assumed_A_Casa
v -7.413500 -13.138500 0.000000
v -16.743500 -1.510500 0.000000
v 0.463500 13.138500 0.000000
v 8.445500 2.218500 0.000000
v 16.743500 -7.409500 0.000000
v 13.415500 -10.602500 0.000000
v 5.889500 -1.012500 0.000000
v -7.413500 -13.138500 6.000000
v -16.743500 -1.510500 6.000000
v 0.463500 13.138500 6.000000
v 8.445500 2.218500 6.000000
v 16.743500 -7.409500 6.000000
v 13.415500 -10.602500 6.000000
v 5.889500 -1.012500 6.000000
vn 0.000000 0.000000 -1.000000
vn -0.000000 0.000000 -1.000000
vn 0.000000 0.000000 -1.000000
vn 0.000000 0.000000 -1.000000
vn -0.000000 0.000000 -1.000000
vn 0.000000 0.000000 1.000000
vn 0.000000 0.000000 1.000000
vn 0.000000 -0.000000 1.000000
vn -0.000000 0.000000 1.000000
vn 0.000000 0.000000 1.000000
vn -0.779965 -0.625823 0.000000
vn -0.779965 -0.625823 0.000000
vn -0.648240 0.761436 0.000000
vn -0.648240 0.761436 0.000000
vn 0.807321 0.590113 0.000000
vn 0.807321 0.590113 -0.000000
vn 0.757488 0.652849 0.000000
vn 0.757488 0.652849 -0.000000
vn 0.692320 -0.721591 0.000000
vn 0.692320 -0.721591 0.000000
vn -0.786677 -0.617365 0.000000
vn -0.786677 -0.617365 0.000000
vn 0.673657 -0.739045 0.000000
vn 0.673657 -0.739045 0.000000
usemtl assumed_base
f 7//1 1//1 2//1
f 7//2 2//2 3//2
f 7//3 3//3 4//3
f 7//4 4//4 5//4
f 5//5 6//5 7//5
usemtl assumed_roof
f 14//6 9//6 8//6
f 14//7 10//7 9//7
f 14//8 11//8 10//8
f 14//9 12//9 11//9
f 12//10 14//10 13//10
usemtl assumed_wall
f 1//11 9//11 2//11
f 1//12 8//12 9//12
f 2//13 10//13 3//13
f 2//14 9//14 10//14
f 3//15 11//15 4//15
f 3//16 10//16 11//16
f 4//17 12//17 5//17
f 4//18 11//18 12//18
f 5//19 13//19 6//19
f 5//20 12//20 13//20
f 6//21 14//21 7//21
f 6//22 13//22 14//22
f 7//23 8//23 1//23
f 7//24 14//24 8//24
