# construction_2772_assumed_A_Casa
# source A_Casa
# h_campo 0.000000
# modeled_height 6.000000
# height_kind assumed
# local_origin_world_x 172001.034850
# local_origin_world_y 402500.144600
mtllib construction_artifacts.mtl

o construction_2772_assumed_A_Casa
v -0.202000 -9.555000 0.000000
v 5.161000 -6.174000 0.000000
v 3.916000 -4.557000 0.000000
v 6.366000 -0.014000 0.000000
v 4.574000 2.975000 0.000000
v 1.442000 1.754000 0.000000
v -0.149000 7.651000 0.000000
v -3.778000 6.968000 0.000000
v -1.311000 1.879000 0.000000
v 1.479000 -5.621000 0.000000
v -6.437000 -11.426000 0.000000
v -27.365000 9.384000 0.000000
v -28.257000 8.513000 0.000000
v -34.011000 12.195000 0.000000
v -24.117000 18.197000 0.000000
v -26.098000 21.665000 0.000000
v -20.425000 25.032000 0.000000
v -18.887000 20.310000 0.000000
v -14.737000 22.047000 0.000000
v -12.409000 14.112000 0.000000
v -8.474000 15.384000 0.000000
v -6.547000 10.293000 0.000000
v 11.667000 15.517000 0.000000
v 15.349000 18.302000 0.000000
v 17.900000 18.068000 0.000000
v 21.678000 19.911000 0.000000
v 27.410000 8.393000 0.000000
v 29.229000 0.193000 0.000000
v 31.575000 0.839000 0.000000
v 34.011000 -13.201000 0.000000
v 19.774000 -19.456000 0.000000
v 18.087000 -16.033000 0.000000
v 15.497000 -17.329000 0.000000
v 12.984000 -12.673000 0.000000
v 5.451000 -17.689000 0.000000
v 10.264000 -24.868000 0.000000
v 5.349000 -25.032000 0.000000
v 1.547000 -22.207000 0.000000
v -3.833000 -12.928000 0.000000
v 0.066000 -10.435000 0.000000
v -0.202000 -9.555000 6.000000
v 5.161000 -6.174000 6.000000
v 3.916000 -4.557000 6.000000
v 6.366000 -0.014000 6.000000
v 4.574000 2.975000 6.000000
v 1.442000 1.754000 6.000000
v -0.149000 7.651000 6.000000
v -3.778000 6.968000 6.000000
v -1.311000 1.879000 6.000000
v 1.479000 -5.621000 6.000000
v -6.437000 -11.426000 6.000000
v -27.365000 9.384000 6.000000
v -28.257000 8.513000 6.000000
v -34.011000 12.195000 6.000000
v -24.117000 18.197000 6.000000
v -26.098000 21.665000 6.000000
v -20.425000 25.032000 6.000000
v -18.887000 20.310000 6.000000
v -14.737000 22.047000 6.000000
v -12.409000 14.112000 6.000000
v -8.474000 15.384000 6.000000
v -6.547000 10.293000 6.000000
v 11.667000 15.517000 6.000000
v 15.349000 18.302000 6.000000
v 17.900000 18.068000 6.000000
v 21.678000 19.911000 6.000000
v 27.410000 8.393000 6.000000
v 29.229000 0.193000 6.000000
v 31.575000 0.839000 6.000000
v 34.011000 -13.201000 6.000000
v 19.774000 -19.456000 6.000000
v 18.087000 -16.033000 6.000000
v 15.497000 -17.329000 6.000000
v 12.984000 -12.673000 6.000000
v 5.451000 -17.689000 6.000000
v 10.264000 -24.868000 6.000000
v 5.349000 -25.032000 6.000000
v 1.547000 -22.207000 6.000000
v -3.833000 -12.928000 6.000000
v 0.066000 -10.435000 6.000000
vn 0.000000 0.000000 -1.000000
vn 0.000000 0.000000 -1.000000
vn -0.000000 0.000000 -1.000000
vn 0.000000 0.000000 -1.000000
vn 0.000000 -0.000000 -1.000000
vn -0.000000 0.000000 -1.000000
vn -0.000000 0.000000 -1.000000
vn -0.000000 0.000000 -1.000000
vn 0.000000 0.000000 -1.000000
vn 0.000000 0.000000 -1.000000
vn 0.000000 0.000000 -1.000000
vn 0.000000 0.000000 -1.000000
vn 0.000000 0.000000 -1.000000
vn 0.000000 0.000000 -1.000000
vn 0.000000 0.000000 -1.000000
vn 0.000000 0.000000 -1.000000
vn 0.000000 0.000000 -1.000000
vn 0.000000 0.000000 -1.000000
vn 0.000000 0.000000 -1.000000
vn 0.000000 0.000000 -1.000000
vn 0.000000 0.000000 -1.000000
vn 0.000000 0.000000 -1.000000
vn 0.000000 0.000000 -1.000000
vn 0.000000 0.000000 -1.000000
vn 0.000000 0.000000 -1.000000
vn 0.000000 0.000000 -1.000000
vn 0.000000 0.000000 -1.000000
vn 0.000000 0.000000 -1.000000
vn 0.000000 0.000000 -1.000000
vn 0.000000 0.000000 -1.000000
vn -0.000000 0.000000 -1.000000
vn -0.000000 0.000000 -1.000000
vn 0.000000 0.000000 -1.000000
vn 0.000000 0.000000 -1.000000
vn 0.000000 0.000000 -1.000000
vn 0.000000 0.000000 -1.000000
vn 0.000000 0.000000 -1.000000
vn 0.000000 0.000000 -1.000000
vn 0.000000 -0.000000 1.000000
vn 0.000000 -0.000000 1.000000
vn 0.000000 0.000000 1.000000
vn 0.000000 0.000000 1.000000
vn 0.000000 0.000000 1.000000
vn 0.000000 0.000000 1.000000
vn 0.000000 0.000000 1.000000
vn 0.000000 0.000000 1.000000
vn 0.000000 0.000000 1.000000
vn 0.000000 -0.000000 1.000000
vn 0.000000 0.000000 1.000000
vn 0.000000 0.000000 1.000000
vn 0.000000 0.000000 1.000000
vn 0.000000 0.000000 1.000000
vn -0.000000 0.000000 1.000000
vn -0.000000 0.000000 1.000000
vn 0.000000 0.000000 1.000000
vn 0.000000 -0.000000 1.000000
vn 0.000000 -0.000000 1.000000
vn 0.000000 -0.000000 1.000000
vn 0.000000 0.000000 1.000000
vn 0.000000 0.000000 1.000000
vn 0.000000 0.000000 1.000000
vn 0.000000 0.000000 1.000000
vn 0.000000 0.000000 1.000000
vn 0.000000 0.000000 1.000000
vn 0.000000 0.000000 1.000000
vn 0.000000 0.000000 1.000000
vn -0.000000 0.000000 1.000000
vn 0.000000 0.000000 1.000000
vn 0.000000 0.000000 1.000000
vn 0.000000 0.000000 1.000000
vn 0.000000 0.000000 1.000000
vn 0.000000 0.000000 1.000000
vn 0.000000 0.000000 1.000000
vn 0.000000 0.000000 1.000000
vn 0.000000 0.000000 1.000000
vn 0.000000 0.000000 1.000000
vn -0.533298 0.845927 0.000000
vn -0.533298 0.845927 0.000000
vn -0.792351 -0.610066 0.000000
vn -0.792351 -0.610066 0.000000
vn -0.880166 0.474666 0.000000
vn -0.880166 0.474666 0.000000
vn -0.857670 -0.514200 0.000000
vn -0.857670 -0.514200 0.000000
vn 0.363221 -0.931703 0.000000
vn 0.363221 -0.931703 0.000000
vn -0.965478 -0.260484 0.000000
vn -0.965478 -0.260484 0.000000
vn 0.184959 -0.982746 0.000000
vn 0.184959 -0.982746 0.000000
vn 0.899841 0.436217 0.000000
vn 0.899841 0.436217 -0.000000
vn 0.937250 0.348657 0.000000
vn 0.937250 0.348657 -0.000000
vn 0.591359 -0.806408 0.000000
vn 0.591359 -0.806408 0.000000
vn -0.705105 -0.709103 0.000000
vn -0.705105 -0.709103 0.000000
vn 0.698635 -0.715479 0.000000
vn 0.698635 -0.715479 0.000000
vn -0.538996 -0.842309 0.000000
vn -0.538996 -0.842309 0.000000
vn -0.518658 0.854982 0.000000
vn -0.518658 0.854982 0.000000
vn -0.868320 -0.496004 0.000000
vn -0.868320 -0.496004 0.000000
vn -0.510388 0.859944 0.000000
vn -0.510388 0.859944 0.000000
vn 0.950836 0.309696 0.000000
vn 0.950836 0.309696 -0.000000
vn -0.386099 0.922458 0.000000
vn -0.386099 0.922458 0.000000
vn 0.959556 0.281518 0.000000
vn 0.959556 0.281518 -0.000000
vn -0.307582 0.951522 0.000000
vn -0.307582 0.951522 0.000000
vn 0.935245 0.354001 0.000000
vn 0.935245 0.354001 -0.000000
vn -0.275697 0.961245 0.000000
vn -0.275697 0.961245 0.000000
vn -0.603253 0.797550 0.000000
vn -0.603253 0.797550 0.000000
vn 0.091345 0.995819 0.000000
vn 0.091345 0.995819 -0.000000
vn -0.438438 0.898762 0.000000
vn -0.438438 0.898762 0.000000
vn 0.895265 0.445534 0.000000
vn 0.895265 0.445534 -0.000000
vn 0.976268 0.216565 0.000000
vn 0.976268 0.216565 -0.000000
vn -0.265481 0.964116 0.000000
vn -0.265481 0.964116 0.000000
vn 0.985280 0.170950 0.000000
vn 0.985280 0.170950 -0.000000
vn 0.402239 -0.915535 0.000000
vn 0.402239 -0.915535 0.000000
vn -0.896980 -0.442070 0.000000
vn -0.896980 -0.442070 0.000000
vn 0.447490 -0.894289 0.000000
vn 0.447490 -0.894289 0.000000
vn -0.880003 -0.474967 0.000000
vn -0.880003 -0.474967 0.000000
vn 0.554241 -0.832356 0.000000
vn 0.554241 -0.832356 0.000000
vn 0.830606 0.556861 0.000000
vn 0.830606 0.556861 -0.000000
vn 0.033349 -0.999444 0.000000
vn 0.033349 -0.999444 0.000000
vn -0.596413 -0.802677 0.000000
vn -0.596413 -0.802677 0.000000
vn -0.865105 -0.501591 0.000000
vn -0.865105 -0.501591 0.000000
vn -0.538692 0.842503 0.000000
vn -0.538692 0.842503 0.000000
vn -0.956621 -0.291335 0.000000
vn -0.956621 -0.291335 0.000000
usemtl assumed_base
f 40//1 1//1 2//1
f 2//2 3//2 4//2
f 5//3 6//3 7//3
f 8//4 9//4 10//4
f 8//5 10//5 11//5
f 8//6 11//6 12//6
f 7//7 8//7 12//7
f 12//8 13//8 14//8
f 7//9 12//9 14//9
f 15//10 16//10 17//10
f 15//11 17//11 18//11
f 14//12 15//12 18//12
f 14//13 18//13 19//13
f 14//14 19//14 20//14
f 20//15 21//15 22//15
f 14//16 20//16 22//16
f 7//17 14//17 22//17
f 7//18 22//18 23//18
f 5//19 7//19 23//19
f 4//20 5//20 23//20
f 2//21 4//21 23//21
f 2//22 23//22 24//22
f 2//23 24//23 25//23
f 2//24 25//24 26//24
f 2//25 26//25 27//25
f 40//26 2//26 27//26
f 40//27 27//27 28//27
f 40//28 28//28 29//28
f 40//29 29//29 30//29
f 30//30 31//30 32//30
f 32//31 33//31 34//31
f 30//32 32//32 34//32
f 40//33 30//33 34//33
f 40//34 34//34 35//34
f 40//35 35//35 36//35
f 40//36 36//36 37//36
f 40//37 37//37 38//37
f 38//38 39//38 40//38
usemtl assumed_roof
f 80//39 42//39 41//39
f 42//40 44//40 43//40
f 45//41 47//41 46//41
f 48//42 50//42 49//42
f 48//43 51//43 50//43
f 48//44 52//44 51//44
f 47//45 52//45 48//45
f 52//46 54//46 53//46
f 47//47 54//47 52//47
f 55//48 57//48 56//48
f 55//49 58//49 57//49
f 54//50 58//50 55//50
f 54//51 59//51 58//51
f 54//52 60//52 59//52
f 60//53 62//53 61//53
f 54//54 62//54 60//54
f 47//55 62//55 54//55
f 47//56 63//56 62//56
f 45//57 63//57 47//57
f 44//58 63//58 45//58
f 42//59 63//59 44//59
f 42//60 64//60 63//60
f 42//61 65//61 64//61
f 42//62 66//62 65//62
f 42//63 67//63 66//63
f 80//64 67//64 42//64
f 80//65 68//65 67//65
f 80//66 69//66 68//66
f 80//67 70//67 69//67
f 70//68 72//68 71//68
f 72//69 74//69 73//69
f 70//70 74//70 72//70
f 80//71 74//71 70//71
f 80//72 75//72 74//72
f 80//73 76//73 75//73
f 80//74 77//74 76//74
f 80//75 78//75 77//75
f 78//76 80//76 79//76
usemtl assumed_wall
f 1//77 42//77 2//77
f 1//78 41//78 42//78
f 2//79 43//79 3//79
f 2//80 42//80 43//80
f 3//81 44//81 4//81
f 3//82 43//82 44//82
f 4//83 45//83 5//83
f 4//84 44//84 45//84
f 5//85 46//85 6//85
f 5//86 45//86 46//86
f 6//87 47//87 7//87
f 6//88 46//88 47//88
f 7//89 48//89 8//89
f 7//90 47//90 48//90
f 8//91 49//91 9//91
f 8//92 48//92 49//92
f 9//93 50//93 10//93
f 9//94 49//94 50//94
f 10//95 51//95 11//95
f 10//96 50//96 51//96
f 11//97 52//97 12//97
f 11//98 51//98 52//98
f 12//99 53//99 13//99
f 12//100 52//100 53//100
f 13//101 54//101 14//101
f 13//102 53//102 54//102
f 14//103 55//103 15//103
f 14//104 54//104 55//104
f 15//105 56//105 16//105
f 15//106 55//106 56//106
f 16//107 57//107 17//107
f 16//108 56//108 57//108
f 17//109 58//109 18//109
f 17//110 57//110 58//110
f 18//111 59//111 19//111
f 18//112 58//112 59//112
f 19//113 60//113 20//113
f 19//114 59//114 60//114
f 20//115 61//115 21//115
f 20//116 60//116 61//116
f 21//117 62//117 22//117
f 21//118 61//118 62//118
f 22//119 63//119 23//119
f 22//120 62//120 63//120
f 23//121 64//121 24//121
f 23//122 63//122 64//122
f 24//123 65//123 25//123
f 24//124 64//124 65//124
f 25//125 66//125 26//125
f 25//126 65//126 66//126
f 26//127 67//127 27//127
f 26//128 66//128 67//128
f 27//129 68//129 28//129
f 27//130 67//130 68//130
f 28//131 69//131 29//131
f 28//132 68//132 69//132
f 29//133 70//133 30//133
f 29//134 69//134 70//134
f 30//135 71//135 31//135
f 30//136 70//136 71//136
f 31//137 72//137 32//137
f 31//138 71//138 72//138
f 32//139 73//139 33//139
f 32//140 72//140 73//140
f 33//141 74//141 34//141
f 33//142 73//142 74//142
f 34//143 75//143 35//143
f 34//144 74//144 75//144
f 35//145 76//145 36//145
f 35//146 75//146 76//146
f 36//147 77//147 37//147
f 36//148 76//148 77//148
f 37//149 78//149 38//149
f 37//150 77//150 78//150
f 38//151 79//151 39//151
f 38//152 78//152 79//152
f 39//153 80//153 40//153
f 39//154 79//154 80//154
f 40//155 41//155 1//155
f 40//156 80//156 41//156
