# construction_2076_assumed_A_Casa
# source A_Casa
# h_campo 0.000000
# modeled_height 6.000000
# height_kind assumed
# local_origin_world_x 172001.034850
# local_origin_world_y 402500.144600
mtllib construction_artifacts.mtl

o construction_2076_assumed_A_Casa
v -0.996000 -3.198000 0.000000
v -10.908000 -6.116000 0.000000
v -13.711000 -2.192000 0.000000
v 12.322000 6.116000 0.000000
v 13.711000 3.296000 0.000000
v 8.669000 0.960000 0.000000
v -1.259000 -2.250000 0.000000
v -0.996000 -3.198000 6.000000
v -10.908000 -6.116000 6.000000
v -13.711000 -2.192000 6.000000
v 12.322000 6.116000 6.000000
v 13.711000 3.296000 6.000000
v 8.669000 0.960000 6.000000
v -1.259000 -2.250000 6.000000
vn 0.000000 -0.000000 -1.000000
vn -0.000000 0.000000 -1.000000
vn 0.000000 0.000000 -1.000000
vn 0.000000 0.000000 -1.000000
vn 0.000000 0.000000 -1.000000
vn 0.000000 0.000000 1.000000
vn 0.000000 0.000000 1.000000
vn 0.000000 -0.000000 1.000000
vn 0.000000 0.000000 1.000000
vn 0.000000 0.000000 1.000000
vn 0.282407 -0.959295 0.000000
vn 0.282407 -0.959295 0.000000
vn -0.813719 -0.581258 0.000000
vn -0.813719 -0.581258 0.000000
vn -0.304027 0.952663 0.000000
vn -0.304027 0.952663 0.000000
vn 0.897083 0.441861 0.000000
vn 0.897083 0.441861 -0.000000
vn 0.420382 -0.907347 0.000000
vn 0.420382 -0.907347 0.000000
vn 0.307647 -0.951501 0.000000
vn 0.307647 -0.951501 0.000000
vn 0.963605 0.267329 0.000000
vn 0.963605 0.267329 -0.000000
usemtl assumed_base
f 7//1 1//1 2//1
f 7//2 2//2 3//2
f 7//3 3//3 4//3
f 7//4 4//4 5//4
f 5//5 6//5 7//5
usemtl assumed_roof
f 14//6 9//6 8//6
f 14//7 10//7 9//7
f 14//8 11//8 10//8
f 14//9 12//9 11//9
f 12//10 14//10 13//10
usemtl assumed_wall
f 1//11 9//11 2//11
f 1//12 8//12 9//12
f 2//13 10//13 3//13
f 2//14 9//14 10//14
f 3//15 11//15 4//15
f 3//16 10//16 11//16
f 4//17 12//17 5//17
f 4//18 11//18 12//18
f 5//19 13//19 6//19
f 5//20 12//20 13//20
f 6//21 14//21 7//21
f 6//22 13//22 14//22
f 7//23 8//23 1//23
f 7//24 14//24 8//24
