# construction_3132_assumed_A_Casa
# source A_Casa
# h_campo 0.000000
# modeled_height 6.000000
# height_kind assumed
# local_origin_world_x 172001.034850
# local_origin_world_y 402500.144600
mtllib construction_artifacts.mtl

o construction_3132_assumed_A_Casa
v -13.897500 8.850000 0.000000
v 2.802500 14.533000 0.000000
v 7.040500 6.697000 0.000000
v 13.897500 -8.750000 0.000000
v 1.210500 -14.295000 0.000000
v 0.341500 -12.343000 0.000000
v -5.836500 -14.533000 0.000000
v -13.897500 8.850000 6.000000
v 2.802500 14.533000 6.000000
v 7.040500 6.697000 6.000000
v 13.897500 -8.750000 6.000000
v 1.210500 -14.295000 6.000000
v 0.341500 -12.343000 6.000000
v -5.836500 -14.533000 6.000000
v -2.612500 -1.920000 0.000000
v -1.349500 -4.831000 0.000000
v 6.425500 -1.773000 0.000000
v 5.402500 0.465000 0.000000
v -2.612500 -1.920000 6.000000
v -1.349500 -4.831000 6.000000
v 6.425500 -1.773000 6.000000
v 5.402500 0.465000 6.000000
vn 0.000000 0.000000 -1.000000
vn 0.000000 0.000000 -1.000000
vn 0.000000 -0.000000 -1.000000
vn 0.000000 0.000000 -1.000000
vn 0.000000 0.000000 -1.000000
vn 0.000000 0.000000 -1.000000
vn 0.000000 0.000000 -1.000000
vn 0.000000 -0.000000 1.000000
vn 0.000000 0.000000 1.000000
vn 0.000000 0.000000 1.000000
vn 0.000000 0.000000 1.000000
vn 0.000000 0.000000 1.000000
vn 0.000000 0.000000 1.000000
vn 0.000000 0.000000 1.000000
vn -0.322157 0.946686 0.000000
vn -0.322157 0.946686 0.000000
vn 0.879597 0.475719 0.000000
vn 0.879597 0.475719 -0.000000
vn 0.913994 0.405727 0.000000
vn 0.913994 0.405727 -0.000000
vn 0.400482 -0.916305 0.000000
vn 0.400482 -0.916305 0.000000
vn -0.913560 -0.406703 0.000000
vn -0.913560 -0.406703 0.000000
vn 0.334113 -0.942533 0.000000
vn 0.334113 -0.942533 0.000000
vn -0.945399 -0.325915 0.000000
vn -0.945399 -0.325915 0.000000
vn -0.917375 -0.398023 0.000000
vn -0.917375 -0.398023 0.000000
vn 0.366019 -0.930607 0.000000
vn 0.366019 -0.930607 0.000000
vn 0.909488 0.415731 0.000000
vn 0.909488 0.415731 -0.000000
vn -0.285208 0.958466 0.000000
vn -0.285208 0.958466 0.000000
usemtl assumed_base
f 7//1 1//1 2//1
f 7//2 2//2 3//2
f 3//3 4//3 5//3
f 3//4 5//4 6//4
f 3//5 6//5 7//5
f 18//6 16//6 15//6
f 16//7 18//7 17//7
usemtl assumed_roof
f 14//8 9//8 8//8
f 14//9 10//9 9//9
f 10//10 12//10 11//10
f 10//11 13//11 12//11
f 10//12 14//12 13//12
f 22//13 19//13 20//13
f 20//14 21//14 22//14
usemtl assumed_wall
f 1//15 9//15 2//15
f 1//16 8//16 9//16
f 2//17 10//17 3//17
f 2//18 9//18 10//18
f 3//19 11//19 4//19
f 3//20 10//20 11//20
f 4//21 12//21 5//21
f 4//22 11//22 12//22
f 5//23 13//23 6//23
f 5//24 12//24 13//24
f 6//25 14//25 7//25
f 6//26 13//26 14//26
f 7//27 8//27 1//27
f 7//28 14//28 8//28
f 15//29 16//29 20//29
f 15//30 20//30 19//30
f 16//31 17//31 21//31
f 16//32 21//32 20//32
f 17//33 18//33 22//33
f 17//34 22//34 21//34
f 18//35 15//35 19//35
f 18//36 19//36 22//36
