# construction_1027_assumed_A_Casa
# source A_Casa
# h_campo 0.000000
# modeled_height 6.000000
# height_kind assumed
# local_origin_world_x 172001.034850
# local_origin_world_y 402500.144600
mtllib construction_artifacts.mtl

o construction_1027_assumed_A_Casa
v -34.963000 -9.028500 0.000000
v -34.568000 -5.715500 0.000000
v -37.616000 -5.256500 0.000000
v -38.001000 2.547500 0.000000
v -35.317000 6.365500 0.000000
v -17.511000 2.353500 0.000000
v -16.318000 8.045500 0.000000
v -5.275000 7.668500 0.000000
v -4.398000 12.753500 0.000000
v -3.156000 16.129500 0.000000
v 0.928000 15.038500 0.000000
v -1.078000 5.034500 0.000000
v 14.578000 2.327500 0.000000
v 18.361000 2.742500 0.000000
v 21.942000 4.952500 0.000000
v 24.569000 0.384500 0.000000
v 26.492000 0.939500 0.000000
v 24.952000 4.570500 0.000000
v 28.977000 7.666500 0.000000
v 28.206000 8.413500 0.000000
v 31.724000 10.206500 0.000000
v 33.580000 5.702500 0.000000
v 34.694000 6.257500 0.000000
v 38.001000 -1.574500 0.000000
v 34.471000 -3.140500 0.000000
v 34.748000 -4.342500 0.000000
v 27.649000 -6.790500 0.000000
v 25.453000 -1.766500 0.000000
v 15.065000 -5.881500 0.000000
v 5.770000 -4.609500 0.000000
v 5.770000 -4.065500 0.000000
v 0.963000 -4.592500 0.000000
v 0.592000 -10.309500 0.000000
v -5.254000 -11.822500 0.000000
v -5.581000 -10.165500 0.000000
v -7.656000 -10.150500 0.000000
v -12.930000 -10.576500 0.000000
v -13.044000 -10.032500 0.000000
v -15.118000 -10.031500 0.000000
v -15.740000 -12.357500 0.000000
v -20.318000 -11.936500 0.000000
v -18.780000 -2.527500 0.000000
v -26.697000 -1.457500 0.000000
v -28.442000 -16.129500 0.000000
v -34.145000 -15.391500 0.000000
v -34.689000 -14.239500 0.000000
v -34.153000 -9.370500 0.000000
v -34.963000 -9.028500 6.000000
v -34.568000 -5.715500 6.000000
v -37.616000 -5.256500 6.000000
v -38.001000 2.547500 6.000000
v -35.317000 6.365500 6.000000
v -17.511000 2.353500 6.000000
v -16.318000 8.045500 6.000000
v -5.275000 7.668500 6.000000
v -4.398000 12.753500 6.000000
v -3.156000 16.129500 6.000000
v 0.928000 15.038500 6.000000
v -1.078000 5.034500 6.000000
v 14.578000 2.327500 6.000000
v 18.361000 2.742500 6.000000
v 21.942000 4.952500 6.000000
v 24.569000 0.384500 6.000000
v 26.492000 0.939500 6.000000
v 24.952000 4.570500 6.000000
v 28.977000 7.666500 6.000000
v 28.206000 8.413500 6.000000
v 31.724000 10.206500 6.000000
v 33.580000 5.702500 6.000000
v 34.694000 6.257500 6.000000
v 38.001000 -1.574500 6.000000
v 34.471000 -3.140500 6.000000
v 34.748000 -4.342500 6.000000
v 27.649000 -6.790500 6.000000
v 25.453000 -1.766500 6.000000
v 15.065000 -5.881500 6.000000
v 5.770000 -4.609500 6.000000
v 5.770000 -4.065500 6.000000
v 0.963000 -4.592500 6.000000
v 0.592000 -10.309500 6.000000
v -5.254000 -11.822500 6.000000
v -5.581000 -10.165500 6.000000
v -7.656000 -10.150500 6.000000
v -12.930000 -10.576500 6.000000
v -13.044000 -10.032500 6.000000
v -15.118000 -10.031500 6.000000
v -15.740000 -12.357500 6.000000
v -20.318000 -11.936500 6.000000
v -18.780000 -2.527500 6.000000
v -26.697000 -1.457500 6.000000
v -28.442000 -16.129500 6.000000
v -34.145000 -15.391500 6.000000
v -34.689000 -14.239500 6.000000
v -34.153000 -9.370500 6.000000
vn 0.000000 0.000000 -1.000000
vn 0.000000 0.000000 -1.000000
vn 0.000000 0.000000 -1.000000
vn 0.000000 0.000000 -1.000000
vn 0.000000 0.000000 -1.000000
vn 0.000000 0.000000 -1.000000
vn 0.000000 0.000000 -1.000000
vn 0.000000 0.000000 -1.000000
vn 0.000000 0.000000 -1.000000
vn 0.000000 0.000000 -1.000000
vn 0.000000 0.000000 -1.000000
vn 0.000000 0.000000 -1.000000
vn 0.000000 0.000000 -1.000000
vn 0.000000 0.000000 -1.000000
vn 0.000000 0.000000 -1.000000
vn 0.000000 0.000000 -1.000000
vn 0.000000 0.000000 -1.000000
vn 0.000000 0.000000 -1.000000
vn 0.000000 0.000000 -1.000000
vn 0.000000 0.000000 -1.000000
vn 0.000000 0.000000 -1.000000
vn 0.000000 -0.000000 -1.000000
vn -0.000000 0.000000 -1.000000
vn 0.000000 0.000000 -1.000000
vn 0.000000 0.000000 -1.000000
vn 0.000000 0.000000 -1.000000
vn 0.000000 0.000000 -1.000000
vn 0.000000 0.000000 -1.000000
vn 0.000000 0.000000 -1.000000
vn 0.000000 0.000000 -1.000000
vn 0.000000 0.000000 -1.000000
vn -0.000000 0.000000 -1.000000
vn -0.000000 0.000000 -1.000000
vn 0.000000 0.000000 -1.000000
vn 0.000000 0.000000 -1.000000
vn -0.000000 0.000000 -1.000000
vn 0.000000 0.000000 -1.000000
vn 0.000000 0.000000 -1.000000
vn 0.000000 0.000000 -1.000000
vn 0.000000 0.000000 -1.000000
vn 0.000000 0.000000 -1.000000
vn 0.000000 0.000000 -1.000000
vn 0.000000 0.000000 -1.000000
vn 0.000000 0.000000 -1.000000
vn 0.000000 0.000000 -1.000000
vn 0.000000 0.000000 1.000000
vn 0.000000 0.000000 1.000000
vn 0.000000 0.000000 1.000000
vn 0.000000 0.000000 1.000000
vn 0.000000 0.000000 1.000000
vn 0.000000 0.000000 1.000000
vn 0.000000 0.000000 1.000000
vn -0.000000 0.000000 1.000000
vn 0.000000 0.000000 1.000000
vn -0.000000 0.000000 1.000000
vn -0.000000 0.000000 1.000000
vn -0.000000 0.000000 1.000000
vn 0.000000 0.000000 1.000000
vn 0.000000 -0.000000 1.000000
vn 0.000000 -0.000000 1.000000
vn 0.000000 0.000000 1.000000
vn 0.000000 0.000000 1.000000
vn 0.000000 0.000000 1.000000
vn -0.000000 0.000000 1.000000
vn -0.000000 0.000000 1.000000
vn 0.000000 0.000000 1.000000
vn 0.000000 0.000000 1.000000
vn 0.000000 0.000000 1.000000
vn 0.000000 0.000000 1.000000
vn 0.000000 0.000000 1.000000
vn 0.000000 0.000000 1.000000
vn 0.000000 0.000000 1.000000
vn 0.000000 0.000000 1.000000
vn 0.000000 0.000000 1.000000
vn 0.000000 0.000000 1.000000
vn 0.000000 0.000000 1.000000
vn 0.000000 0.000000 1.000000
vn 0.000000 0.000000 1.000000
vn 0.000000 0.000000 1.000000
vn 0.000000 0.000000 1.000000
vn 0.000000 0.000000 1.000000
vn 0.000000 0.000000 1.000000
vn 0.000000 0.000000 1.000000
vn 0.000000 0.000000 1.000000
vn 0.000000 0.000000 1.000000
vn 0.000000 0.000000 1.000000
vn 0.000000 -0.000000 1.000000
vn -0.000000 0.000000 1.000000
vn 0.000000 0.000000 1.000000
vn 0.000000 0.000000 1.000000
vn -0.992967 0.118389 0.000000
vn -0.992967 0.118389 0.000000
vn -0.148912 -0.988851 0.000000
vn -0.148912 -0.988851 0.000000
vn -0.998785 -0.049274 0.000000
vn -0.998785 -0.049274 0.000000
vn -0.818083 0.575101 0.000000
vn -0.818083 0.575101 0.000000
vn 0.219807 0.975543 0.000000
vn 0.219807 0.975543 -0.000000
vn -0.978734 0.205135 0.000000
vn -0.978734 0.205135 0.000000
vn 0.034119 0.999418 0.000000
vn 0.034119 0.999418 -0.000000
vn -0.985451 0.169959 0.000000
vn -0.985451 0.169959 0.000000
vn -0.938504 0.345267 0.000000
vn -0.938504 0.345267 0.000000
vn 0.258090 0.966121 0.000000
vn 0.258090 0.966121 -0.000000
vn 0.980483 -0.196606 0.000000
vn 0.980483 -0.196606 0.000000
vn 0.170377 0.985379 0.000000
vn 0.170377 0.985379 -0.000000
vn -0.109047 0.994037 0.000000
vn -0.109047 0.994037 0.000000
vn -0.525184 0.850989 0.000000
vn -0.525184 0.850989 0.000000
vn 0.866873 0.498528 0.000000
vn 0.866873 0.498528 -0.000000
vn -0.277294 0.960785 0.000000
vn -0.277294 0.960785 0.000000
vn -0.920620 -0.390459 0.000000
vn -0.920620 -0.390459 0.000000
vn -0.609692 0.792639 0.000000
vn -0.609692 0.792639 0.000000
vn -0.695840 -0.718197 0.000000
vn -0.695840 -0.718197 0.000000
vn -0.454089 0.890956 0.000000
vn -0.454089 0.890956 0.000000
vn 0.924576 0.380998 0.000000
vn 0.924576 0.380998 -0.000000
vn -0.445928 0.895069 0.000000
vn -0.445928 0.895069 0.000000
vn 0.921243 0.388988 0.000000
vn 0.921243 0.388988 -0.000000
vn 0.405514 -0.914089 0.000000
vn 0.405514 -0.914089 0.000000
vn 0.974459 0.224563 0.000000
vn 0.974459 0.224563 -0.000000
vn 0.325999 -0.945370 0.000000
vn 0.325999 -0.945370 0.000000
vn -0.916291 -0.400513 0.000000
vn -0.916291 -0.400513 0.000000
vn 0.368287 -0.929712 0.000000
vn 0.368287 -0.929712 0.000000
vn -0.135584 -0.990766 0.000000
vn -0.135584 -0.990766 0.000000
vn -1.000000 0.000000 0.000000
vn -1.000000 0.000000 0.000000
vn 0.108979 -0.994044 0.000000
vn 0.108979 -0.994044 0.000000
vn 0.997901 -0.064758 0.000000
vn 0.997901 -0.064758 0.000000
vn 0.250554 -0.968103 0.000000
vn 0.250554 -0.968103 0.000000
vn -0.981078 -0.193611 0.000000
vn -0.981078 -0.193611 0.000000
vn -0.007229 -0.999974 0.000000
vn -0.007229 -0.999974 0.000000
vn 0.080511 -0.996754 0.000000
vn 0.080511 -0.996754 0.000000
vn -0.978740 -0.205104 0.000000
vn -0.978740 -0.205104 0.000000
vn -0.000482 -1.000000 0.000000
vn -0.000482 -1.000000 0.000000
vn 0.966055 -0.258335 0.000000
vn 0.966055 -0.258335 0.000000
vn -0.091575 -0.995798 0.000000
vn -0.091575 -0.995798 0.000000
vn -0.986902 0.161320 0.000000
vn -0.986902 0.161320 0.000000
vn -0.133935 -0.990990 0.000000
vn -0.133935 -0.990990 0.000000
vn 0.993002 -0.118102 0.000000
vn 0.993002 -0.118102 0.000000
vn -0.128335 -0.991731 0.000000
vn -0.128335 -0.991731 0.000000
vn -0.904249 -0.427006 0.000000
vn -0.904249 -0.427006 0.000000
vn -0.993995 0.109423 0.000000
vn -0.993995 0.109423 0.000000
vn -0.388972 -0.921250 0.000000
vn -0.388972 -0.921250 0.000000
usemtl assumed_base
f 47//1 1//1 2//1
f 2//2 3//2 4//2
f 2//3 4//3 5//3
f 47//4 2//4 5//4
f 6//5 7//5 8//5
f 8//6 9//6 10//6
f 8//7 10//7 11//7
f 8//8 11//8 12//8
f 6//9 8//9 12//9
f 6//10 12//10 13//10
f 14//11 15//11 16//11
f 13//12 14//12 16//12
f 6//13 13//13 16//13
f 17//14 18//14 19//14
f 19//15 20//15 21//15
f 17//16 19//16 21//16
f 17//17 21//17 22//17
f 17//18 22//18 23//18
f 17//19 23//19 24//19
f 16//20 17//20 24//20
f 6//21 16//21 24//21
f 25//22 26//22 27//22
f 25//23 27//23 28//23
f 24//24 25//24 28//24
f 6//25 24//25 28//25
f 6//26 28//26 29//26
f 5//27 6//27 29//27
f 29//28 30//28 31//28
f 5//29 29//29 31//29
f 5//30 31//30 32//30
f 5//31 32//31 33//31
f 33//32 34//32 35//32
f 36//33 37//33 38//33
f 35//34 36//34 38//34
f 39//35 40//35 41//35
f 39//36 41//36 42//36
f 38//37 39//37 42//37
f 35//38 38//38 42//38
f 33//39 35//39 42//39
f 5//40 33//40 42//40
f 5//41 42//41 43//41
f 47//42 5//42 43//42
f 47//43 43//43 44//43
f 47//44 44//44 45//44
f 45//45 46//45 47//45
usemtl assumed_roof
f 94//46 49//46 48//46
f 49//47 51//47 50//47
f 49//48 52//48 51//48
f 94//49 52//49 49//49
f 53//50 55//50 54//50
f 55//51 57//51 56//51
f 55//52 58//52 57//52
f 55//53 59//53 58//53
f 53//54 59//54 55//54
f 53//55 60//55 59//55
f 61//56 63//56 62//56
f 60//57 63//57 61//57
f 53//58 63//58 60//58
f 64//59 66//59 65//59
f 66//60 68//60 67//60
f 64//61 68//61 66//61
f 64//62 69//62 68//62
f 64//63 70//63 69//63
f 64//64 71//64 70//64
f 63//65 71//65 64//65
f 53//66 71//66 63//66
f 72//67 74//67 73//67
f 72//68 75//68 74//68
f 71//69 75//69 72//69
f 53//70 75//70 71//70
f 53//71 76//71 75//71
f 52//72 76//72 53//72
f 76//73 78//73 77//73
f 52//74 78//74 76//74
f 52//75 79//75 78//75
f 52//76 80//76 79//76
f 80//77 82//77 81//77
f 83//78 85//78 84//78
f 82//79 85//79 83//79
f 86//80 88//80 87//80
f 86//81 89//81 88//81
f 85//82 89//82 86//82
f 82//83 89//83 85//83
f 80//84 89//84 82//84
f 52//85 89//85 80//85
f 52//86 90//86 89//86
f 94//87 90//87 52//87
f 94//88 91//88 90//88
f 94//89 92//89 91//89
f 92//90 94//90 93//90
usemtl assumed_wall
f 1//91 49//91 2//91
f 1//92 48//92 49//92
f 2//93 50//93 3//93
f 2//94 49//94 50//94
f 3//95 51//95 4//95
f 3//96 50//96 51//96
f 4//97 52//97 5//97
f 4//98 51//98 52//98
f 5//99 53//99 6//99
f 5//100 52//100 53//100
f 6//101 54//101 7//101
f 6//102 53//102 54//102
f 7//103 55//103 8//103
f 7//104 54//104 55//104
f 8//105 56//105 9//105
f 8//106 55//106 56//106
f 9//107 57//107 10//107
f 9//108 56//108 57//108
f 10//109 58//109 11//109
f 10//110 57//110 58//110
f 11//111 59//111 12//111
f 11//112 58//112 59//112
f 12//113 60//113 13//113
f 12//114 59//114 60//114
f 13//115 61//115 14//115
f 13//116 60//116 61//116
f 14//117 62//117 15//117
f 14//118 61//118 62//118
f 15//119 63//119 16//119
f 15//120 62//120 63//120
f 16//121 64//121 17//121
f 16//122 63//122 64//122
f 17//123 65//123 18//123
f 17//124 64//124 65//124
f 18//125 66//125 19//125
f 18//126 65//126 66//126
f 19//127 67//127 20//127
f 19//128 66//128 67//128
f 20//129 68//129 21//129
f 20//130 67//130 68//130
f 21//131 69//131 22//131
f 21//132 68//132 69//132
f 22//133 70//133 23//133
f 22//134 69//134 70//134
f 23//135 71//135 24//135
f 23//136 70//136 71//136
f 24//137 72//137 25//137
f 24//138 71//138 72//138
f 25//139 73//139 26//139
f 25//140 72//140 73//140
f 26//141 74//141 27//141
f 26//142 73//142 74//142
f 27//143 75//143 28//143
f 27//144 74//144 75//144
f 28//145 76//145 29//145
f 28//146 75//146 76//146
f 29//147 77//147 30//147
f 29//148 76//148 77//148
f 30//149 78//149 31//149
f 30//150 77//150 78//150
f 31//151 79//151 32//151
f 31//152 78//152 79//152
f 32//153 80//153 33//153
f 32//154 79//154 80//154
f 33//155 81//155 34//155
f 33//156 80//156 81//156
f 34//157 82//157 35//157
f 34//158 81//158 82//158
f 35//159 83//159 36//159
f 35//160 82//160 83//160
f 36//161 84//161 37//161
f 36//162 83//162 84//162
f 37//163 85//163 38//163
f 37//164 84//164 85//164
f 38//165 86//165 39//165
f 38//166 85//166 86//166
f 39//167 87//167 40//167
f 39//168 86//168 87//168
f 40//169 88//169 41//169
f 40//170 87//170 88//170
f 41//171 89//171 42//171
f 41//172 88//172 89//172
f 42//173 90//173 43//173
f 42//174 89//174 90//174
f 43//175 91//175 44//175
f 43//176 90//176 91//176
f 44//177 92//177 45//177
f 44//178 91//178 92//178
f 45//179 93//179 46//179
f 45//180 92//180 93//180
f 46//181 94//181 47//181
f 46//182 93//182 94//182
f 47//183 48//183 1//183
f 47//184 94//184 48//184
