# construction_1717_assumed_A_Casa
# source A_Casa
# h_campo 0.000000
# modeled_height 6.000000
# height_kind assumed
# local_origin_world_x 172001.034850
# local_origin_world_y 402500.144600
mtllib construction_artifacts.mtl

o construction_1717_assumed_A_Casa
v -29.411000 -26.712500 0.000000
v -43.025000 0.335500 0.000000
v -42.551000 0.702500 0.000000
v -45.236000 5.735500 0.000000
v -13.208000 21.485500 0.000000
v -10.687000 16.177500 0.000000
v -6.288000 17.471500 0.000000
v -7.362000 26.712500 0.000000
v 28.816000 25.832500 0.000000
v 35.614000 25.417500 0.000000
v 45.236000 5.865500 0.000000
v 39.216000 3.433500 0.000000
v 37.543000 6.514500 0.000000
v 28.973000 1.607500 0.000000
v 30.081000 -1.750500 0.000000
v 11.748000 -10.236500 0.000000
v 10.041000 -7.702500 0.000000
v -29.411000 -26.712500 6.000000
v -43.025000 0.335500 6.000000
v -42.551000 0.702500 6.000000
v -45.236000 5.735500 6.000000
v -13.208000 21.485500 6.000000
v -10.687000 16.177500 6.000000
v -6.288000 17.471500 6.000000
v -7.362000 26.712500 6.000000
v 28.816000 25.832500 6.000000
v 35.614000 25.417500 6.000000
v 45.236000 5.865500 6.000000
v 39.216000 3.433500 6.000000
v 37.543000 6.514500 6.000000
v 28.973000 1.607500 6.000000
v 30.081000 -1.750500 6.000000
v 11.748000 -10.236500 6.000000
v 10.041000 -7.702500 6.000000
vn -0.000000 0.000000 -1.000000
vn 0.000000 0.000000 -1.000000
vn 0.000000 0.000000 -1.000000
vn 0.000000 0.000000 -1.000000
vn 0.000000 0.000000 -1.000000
vn 0.000000 0.000000 -1.000000
vn 0.000000 0.000000 -1.000000
vn 0.000000 0.000000 -1.000000
vn 0.000000 0.000000 -1.000000
vn 0.000000 0.000000 -1.000000
vn 0.000000 0.000000 -1.000000
vn 0.000000 0.000000 -1.000000
vn 0.000000 0.000000 -1.000000
vn 0.000000 0.000000 -1.000000
vn 0.000000 0.000000 -1.000000
vn 0.000000 0.000000 1.000000
vn 0.000000 0.000000 1.000000
vn 0.000000 0.000000 1.000000
vn 0.000000 0.000000 1.000000
vn 0.000000 0.000000 1.000000
vn 0.000000 0.000000 1.000000
vn 0.000000 0.000000 1.000000
vn 0.000000 -0.000000 1.000000
vn 0.000000 0.000000 1.000000
vn 0.000000 0.000000 1.000000
vn 0.000000 0.000000 1.000000
vn 0.000000 0.000000 1.000000
vn 0.000000 0.000000 1.000000
vn 0.000000 0.000000 1.000000
vn 0.000000 0.000000 1.000000
vn -0.893235 -0.449590 0.000000
vn -0.893235 -0.449590 0.000000
vn -0.612207 0.790698 0.000000
vn -0.612207 0.790698 0.000000
vn -0.882300 -0.470688 0.000000
vn -0.882300 -0.470688 0.000000
vn -0.441286 0.897366 0.000000
vn -0.441286 0.897366 0.000000
vn 0.903297 0.429015 0.000000
vn 0.903297 0.429015 -0.000000
vn -0.282202 0.959355 0.000000
vn -0.282202 0.959355 0.000000
vn -0.993314 -0.115444 0.000000
vn -0.993314 -0.115444 0.000000
vn 0.024317 0.999704 0.000000
vn 0.024317 0.999704 -0.000000
vn 0.060934 0.998142 0.000000
vn 0.060934 0.998142 -0.000000
vn 0.897236 0.441551 0.000000
vn 0.897236 0.441551 -0.000000
vn 0.374575 -0.927197 0.000000
vn 0.374575 -0.927197 0.000000
vn -0.878799 -0.477193 0.000000
vn -0.878799 -0.477193 0.000000
vn 0.496891 -0.867813 0.000000
vn 0.496891 -0.867813 0.000000
vn 0.949640 0.313342 0.000000
vn 0.949640 0.313342 -0.000000
vn 0.420062 -0.907495 0.000000
vn 0.420062 -0.907495 0.000000
vn -0.829372 -0.558697 0.000000
vn -0.829372 -0.558697 0.000000
vn 0.434086 -0.900871 0.000000
vn 0.434086 -0.900871 0.000000
usemtl assumed_base
f 17//1 1//1 2//1
f 17//2 2//2 3//2
f 17//3 3//3 4//3
f 4//4 5//4 6//4
f 17//5 4//5 6//5
f 17//6 6//6 7//6
f 17//7 7//7 8//7
f 17//8 8//8 9//8
f 17//9 9//9 10//9
f 10//10 11//10 12//10
f 10//11 12//11 13//11
f 17//12 10//12 13//12
f 17//13 13//13 14//13
f 17//14 14//14 15//14
f 15//15 16//15 17//15
usemtl assumed_roof
f 34//16 19//16 18//16
f 34//17 20//17 19//17
f 34//18 21//18 20//18
f 21//19 23//19 22//19
f 34//20 23//20 21//20
f 34//21 24//21 23//21
f 34//22 25//22 24//22
f 34//23 26//23 25//23
f 34//24 27//24 26//24
f 27//25 29//25 28//25
f 27//26 30//26 29//26
f 34//27 30//27 27//27
f 34//28 31//28 30//28
f 34//29 32//29 31//29
f 32//30 34//30 33//30
usemtl assumed_wall
f 1//31 19//31 2//31
f 1//32 18//32 19//32
f 2//33 20//33 3//33
f 2//34 19//34 20//34
f 3//35 21//35 4//35
f 3//36 20//36 21//36
f 4//37 22//37 5//37
f 4//38 21//38 22//38
f 5//39 23//39 6//39
f 5//40 22//40 23//40
f 6//41 24//41 7//41
f 6//42 23//42 24//42
f 7//43 25//43 8//43
f 7//44 24//44 25//44
f 8//45 26//45 9//45
f 8//46 25//46 26//46
f 9//47 27//47 10//47
f 9//48 26//48 27//48
f 10//49 28//49 11//49
f 10//50 27//50 28//50
f 11//51 29//51 12//51
f 11//52 28//52 29//52
f 12//53 30//53 13//53
f 12//54 29//54 30//54
f 13//55 31//55 14//55
f 13//56 30//56 31//56
f 14//57 32//57 15//57
f 14//58 31//58 32//58
f 15//59 33//59 16//59
f 15//60 32//60 33//60
f 16//61 34//61 17//61
f 16//62 33//62 34//62
f 17//63 18//63 1//63
f 17//64 34//64 18//64
