# construction_2952_assumed_A_Casa
# source A_Casa
# h_campo 0.000000
# modeled_height 6.000000
# height_kind assumed
# local_origin_world_x 172001.034850
# local_origin_world_y 402500.144600
mtllib construction_artifacts.mtl

o construction_2952_assumed_A_Casa
v -5.909000 1.783500 0.000000
v -3.882000 3.446500 0.000000
v -4.833000 4.757500 0.000000
v -1.515000 6.617500 0.000000
v 1.465000 2.022500 0.000000
v 0.700000 1.996500 0.000000
v 2.831000 -1.309500 0.000000
v 3.950000 -0.359500 0.000000
v 5.909000 -2.946500 0.000000
v 0.317000 -6.617500 0.000000
v -5.909000 1.783500 6.000000
v -3.882000 3.446500 6.000000
v -4.833000 4.757500 6.000000
v -1.515000 6.617500 6.000000
v 1.465000 2.022500 6.000000
v 0.700000 1.996500 6.000000
v 2.831000 -1.309500 6.000000
v 3.950000 -0.359500 6.000000
v 5.909000 -2.946500 6.000000
v 0.317000 -6.617500 6.000000
vn 0.000000 0.000000 -1.000000
vn 0.000000 0.000000 -1.000000
vn 0.000000 0.000000 -1.000000
vn 0.000000 0.000000 -1.000000
vn 0.000000 0.000000 -1.000000
vn 0.000000 0.000000 -1.000000
vn 0.000000 0.000000 -1.000000
vn 0.000000 -0.000000 -1.000000
vn 0.000000 0.000000 1.000000
vn 0.000000 -0.000000 1.000000
vn 0.000000 0.000000 1.000000
vn 0.000000 0.000000 1.000000
vn 0.000000 -0.000000 1.000000
vn 0.000000 0.000000 1.000000
vn 0.000000 0.000000 1.000000
vn 0.000000 0.000000 1.000000
vn -0.634276 0.773107 0.000000
vn -0.634276 0.773107 0.000000
vn -0.809456 -0.587180 0.000000
vn -0.809456 -0.587180 0.000000
vn -0.488988 0.872291 0.000000
vn -0.488988 0.872291 0.000000
vn 0.839006 0.544122 0.000000
vn 0.839006 0.544122 -0.000000
vn 0.033967 -0.999423 0.000000
vn 0.033967 -0.999423 0.000000
vn 0.840517 0.541785 0.000000
vn 0.840517 0.541785 -0.000000
vn -0.647193 0.762326 0.000000
vn -0.647193 0.762326 0.000000
vn 0.797218 0.603692 0.000000
vn 0.797218 0.603692 -0.000000
vn 0.548787 -0.835962 0.000000
vn 0.548787 -0.835962 0.000000
vn -0.803418 -0.595415 0.000000
vn -0.803418 -0.595415 0.000000
usemtl assumed_base
f 10//1 1//1 2//1
f 2//2 3//2 4//2
f 10//3 2//3 4//3
f 4//4 5//4 6//4
f 10//5 4//5 6//5
f 10//6 6//6 7//6
f 10//7 7//7 8//7
f 8//8 9//8 10//8
usemtl assumed_roof
f 20//9 12//9 11//9
f 12//10 14//10 13//10
f 20//11 14//11 12//11
f 14//12 16//12 15//12
f 20//13 16//13 14//13
f 20//14 17//14 16//14
f 20//15 18//15 17//15
f 18//16 20//16 19//16
usemtl assumed_wall
f 1//17 12//17 2//17
f 1//18 11//18 12//18
f 2//19 13//19 3//19
f 2//20 12//20 13//20
f 3//21 14//21 4//21
f 3//22 13//22 14//22
f 4//23 15//23 5//23
f 4//24 14//24 15//24
f 5//25 16//25 6//25
f 5//26 15//26 16//26
f 6//27 17//27 7//27
f 6//28 16//28 17//28
f 7//29 18//29 8//29
f 7//30 17//30 18//30
f 8//31 19//31 9//31
f 8//32 18//32 19//32
f 9//33 20//33 10//33
f 9//34 19//34 20//34
f 10//35 11//35 1//35
f 10//36 20//36 11//36
