# construction_4052_assumed_A_Casa
# source A_Casa
# h_campo 0.000000
# modeled_height 6.000000
# height_kind assumed
# local_origin_world_x 172001.034850
# local_origin_world_y 402500.144600
mtllib construction_artifacts.mtl

o construction_4052_assumed_A_Casa
v -43.165500 -14.070500 0.000000
v -42.145500 -1.734500 0.000000
v -38.704500 -2.064500 0.000000
v -37.162500 16.534500 0.000000
v -36.050500 16.816500 0.000000
v -35.949500 20.674500 0.000000
v -21.550500 30.311500 0.000000
v -7.344500 29.576500 0.000000
v -7.189500 32.473500 0.000000
v 2.145500 32.114500 0.000000
v 2.042500 28.977500 0.000000
v 24.879500 27.107500 0.000000
v 25.213500 33.154500 0.000000
v 43.165500 31.673500 0.000000
v 40.535500 -4.826500 0.000000
v 34.575500 -4.214500 0.000000
v 34.040500 -14.107500 0.000000
v 22.184500 -12.896500 0.000000
v 20.104500 -33.154500 0.000000
v -40.561500 -28.329500 0.000000
v -39.394500 -14.424500 0.000000
v -43.165500 -14.070500 6.000000
v -42.145500 -1.734500 6.000000
v -38.704500 -2.064500 6.000000
v -37.162500 16.534500 6.000000
v -36.050500 16.816500 6.000000
v -35.949500 20.674500 6.000000
v -21.550500 30.311500 6.000000
v -7.344500 29.576500 6.000000
v -7.189500 32.473500 6.000000
v 2.145500 32.114500 6.000000
v 2.042500 28.977500 6.000000
v 24.879500 27.107500 6.000000
v 25.213500 33.154500 6.000000
v 43.165500 31.673500 6.000000
v 40.535500 -4.826500 6.000000
v 34.575500 -4.214500 6.000000
v 34.040500 -14.107500 6.000000
v 22.184500 -12.896500 6.000000
v 20.104500 -33.154500 6.000000
v -40.561500 -28.329500 6.000000
v -39.394500 -14.424500 6.000000
vn 0.000000 0.000000 -1.000000
vn 0.000000 0.000000 -1.000000
vn 0.000000 0.000000 -1.000000
vn 0.000000 0.000000 -1.000000
vn 0.000000 0.000000 -1.000000
vn 0.000000 0.000000 -1.000000
vn 0.000000 0.000000 -1.000000
vn 0.000000 0.000000 -1.000000
vn 0.000000 0.000000 -1.000000
vn 0.000000 0.000000 -1.000000
vn 0.000000 0.000000 -1.000000
vn 0.000000 0.000000 -1.000000
vn 0.000000 0.000000 -1.000000
vn 0.000000 0.000000 -1.000000
vn 0.000000 0.000000 -1.000000
vn 0.000000 0.000000 -1.000000
vn 0.000000 0.000000 -1.000000
vn 0.000000 0.000000 -1.000000
vn 0.000000 0.000000 -1.000000
vn 0.000000 0.000000 1.000000
vn 0.000000 -0.000000 1.000000
vn 0.000000 0.000000 1.000000
vn 0.000000 0.000000 1.000000
vn 0.000000 0.000000 1.000000
vn 0.000000 0.000000 1.000000
vn 0.000000 0.000000 1.000000
vn 0.000000 0.000000 1.000000
vn 0.000000 0.000000 1.000000
vn 0.000000 0.000000 1.000000
vn 0.000000 0.000000 1.000000
vn 0.000000 0.000000 1.000000
vn 0.000000 0.000000 1.000000
vn 0.000000 0.000000 1.000000
vn 0.000000 0.000000 1.000000
vn 0.000000 0.000000 1.000000
vn 0.000000 0.000000 1.000000
vn -0.000000 0.000000 1.000000
vn 0.000000 0.000000 1.000000
vn -0.996599 0.082404 0.000000
vn -0.996599 0.082404 0.000000
vn 0.095464 0.995433 0.000000
vn 0.095464 0.995433 -0.000000
vn -0.996581 0.082624 0.000000
vn -0.996581 0.082624 0.000000
vn -0.245816 0.969317 0.000000
vn -0.245816 0.969317 0.000000
vn -0.999657 0.026170 0.000000
vn -0.999657 0.026170 0.000000
vn -0.556204 0.831046 0.000000
vn -0.556204 0.831046 0.000000
vn 0.051670 0.998664 0.000000
vn 0.051670 0.998664 -0.000000
vn -0.998572 0.053427 0.000000
vn -0.998572 0.053427 0.000000
vn 0.038429 0.999261 0.000000
vn 0.038429 0.999261 -0.000000
vn 0.999461 -0.032816 0.000000
vn 0.999461 -0.032816 0.000000
vn 0.081612 0.996664 0.000000
vn 0.081612 0.996664 -0.000000
vn -0.998478 0.055150 0.000000
vn -0.998478 0.055150 0.000000
vn 0.082218 0.996614 0.000000
vn 0.082218 0.996614 -0.000000
vn 0.997414 -0.071868 0.000000
vn 0.997414 -0.071868 0.000000
vn -0.102147 -0.994769 0.000000
vn -0.102147 -0.994769 0.000000
vn 0.998541 -0.054000 0.000000
vn 0.998541 -0.054000 0.000000
vn -0.101614 -0.994824 0.000000
vn -0.101614 -0.994824 0.000000
vn 0.994770 -0.102139 0.000000
vn 0.994770 -0.102139 0.000000
vn -0.079283 -0.996852 0.000000
vn -0.079283 -0.996852 0.000000
vn -0.996497 0.083633 0.000000
vn -0.996497 0.083633 0.000000
vn -0.093463 -0.995623 0.000000
vn -0.093463 -0.995623 0.000000
usemtl assumed_base
f 21//1 1//1 2//1
f 21//2 2//2 3//2
f 21//3 3//3 4//3
f 21//4 4//4 5//4
f 5//5 6//5 7//5
f 21//6 5//6 7//6
f 21//7 7//7 8//7
f 8//8 9//8 10//8
f 21//9 8//9 10//9
f 21//10 10//10 11//10
f 21//11 11//11 12//11
f 12//12 13//12 14//12
f 21//13 12//13 14//13
f 14//14 15//14 16//14
f 21//15 14//15 16//15
f 16//16 17//16 18//16
f 21//17 16//17 18//17
f 21//18 18//18 19//18
f 19//19 20//19 21//19
usemtl assumed_roof
f 42//20 23//20 22//20
f 42//21 24//21 23//21
f 42//22 25//22 24//22
f 42//23 26//23 25//23
f 26//24 28//24 27//24
f 42//25 28//25 26//25
f 42//26 29//26 28//26
f 29//27 31//27 30//27
f 42//28 31//28 29//28
f 42//29 32//29 31//29
f 42//30 33//30 32//30
f 33//31 35//31 34//31
f 42//32 35//32 33//32
f 35//33 37//33 36//33
f 42//34 37//34 35//34
f 37//35 39//35 38//35
f 42//36 39//36 37//36
f 42//37 40//37 39//37
f 40//38 42//38 41//38
usemtl assumed_wall
f 1//39 23//39 2//39
f 1//40 22//40 23//40
f 2//41 24//41 3//41
f 2//42 23//42 24//42
f 3//43 25//43 4//43
f 3//44 24//44 25//44
f 4//45 26//45 5//45
f 4//46 25//46 26//46
f 5//47 27//47 6//47
f 5//48 26//48 27//48
f 6//49 28//49 7//49
f 6//50 27//50 28//50
f 7//51 29//51 8//51
f 7//52 28//52 29//52
f 8//53 30//53 9//53
f 8//54 29//54 30//54
f 9//55 31//55 10//55
f 9//56 30//56 31//56
f 10//57 32//57 11//57
f 10//58 31//58 32//58
f 11//59 33//59 12//59
f 11//60 32//60 33//60
f 12//61 34//61 13//61
f 12//62 33//62 34//62
f 13//63 35//63 14//63
f 13//64 34//64 35//64
f 14//65 36//65 15//65
f 14//66 35//66 36//66
f 15//67 37//67 16//67
f 15//68 36//68 37//68
f 16//69 38//69 17//69
f 16//70 37//70 38//70
f 17//71 39//71 18//71
f 17//72 38//72 39//72
f 18//73 40//73 19//73
f 18//74 39//74 40//74
f 19//75 41//75 20//75
f 19//76 40//76 41//76
f 20//77 42//77 21//77
f 20//78 41//78 42//78
f 21//79 22//79 1//79
f 21//80 42//80 22//80
