# construction_3253_assumed_A_Casa
# source A_Casa
# h_campo 0.000000
# modeled_height 6.000000
# height_kind assumed
# local_origin_world_x 172001.034850
# local_origin_world_y 402500.144600
mtllib construction_artifacts.mtl

o construction_3253_assumed_A_Casa
v 2.877000 6.568500 0.000000
v 2.782000 -0.053500 0.000000
v 8.257000 -0.048500 0.000000
v 8.258000 0.840500 0.000000
v 20.389000 0.594500 0.000000
v 20.574000 -6.679500 0.000000
v -20.574000 -5.863500 0.000000
v -20.312000 0.259500 0.000000
v -9.855000 0.181500 0.000000
v -9.895000 6.679500 0.000000
v 2.877000 6.568500 6.000000
v 2.782000 -0.053500 6.000000
v 8.257000 -0.048500 6.000000
v 8.258000 0.840500 6.000000
v 20.389000 0.594500 6.000000
v 20.574000 -6.679500 6.000000
v -20.574000 -5.863500 6.000000
v -20.312000 0.259500 6.000000
v -9.855000 0.181500 6.000000
v -9.895000 6.679500 6.000000
vn 0.000000 0.000000 -1.000000
vn 0.000000 0.000000 -1.000000
vn 0.000000 0.000000 -1.000000
vn 0.000000 0.000000 -1.000000
vn 0.000000 -0.000000 -1.000000
vn -0.000000 0.000000 -1.000000
vn 0.000000 0.000000 -1.000000
vn 0.000000 0.000000 -1.000000
vn 0.000000 0.000000 1.000000
vn 0.000000 0.000000 1.000000
vn -0.000000 0.000000 1.000000
vn -0.000000 0.000000 1.000000
vn 0.000000 0.000000 1.000000
vn 0.000000 0.000000 1.000000
vn 0.000000 0.000000 1.000000
vn 0.000000 0.000000 1.000000
vn 0.999897 -0.014345 0.000000
vn 0.999897 -0.014345 0.000000
vn -0.000913 1.000000 0.000000
vn -0.000913 1.000000 0.000000
vn -0.999999 0.001125 0.000000
vn -0.999999 0.001125 0.000000
vn 0.020274 0.999794 0.000000
vn 0.020274 0.999794 -0.000000
vn 0.999677 0.025425 0.000000
vn 0.999677 0.025425 -0.000000
vn -0.019827 -0.999803 0.000000
vn -0.019827 -0.999803 0.000000
vn -0.999086 0.042750 0.000000
vn -0.999086 0.042750 0.000000
vn 0.007459 0.999972 0.000000
vn 0.007459 0.999972 -0.000000
vn -0.999981 -0.006156 0.000000
vn -0.999981 -0.006156 0.000000
vn 0.008691 0.999962 0.000000
vn 0.008691 0.999962 -0.000000
usemtl assumed_base
f 10//1 1//1 2//1
f 3//2 4//2 5//2
f 3//3 5//3 6//3
f 2//4 3//4 6//4
f 2//5 6//5 7//5
f 2//6 7//6 8//6
f 2//7 8//7 9//7
f 2//8 9//8 10//8
usemtl assumed_roof
f 20//9 12//9 11//9
f 13//10 15//10 14//10
f 13//11 16//11 15//11
f 12//12 16//12 13//12
f 12//13 17//13 16//13
f 12//14 18//14 17//14
f 12//15 19//15 18//15
f 12//16 20//16 19//16
usemtl assumed_wall
f 1//17 12//17 2//17
f 1//18 11//18 12//18
f 2//19 13//19 3//19
f 2//20 12//20 13//20
f 3//21 14//21 4//21
f 3//22 13//22 14//22
f 4//23 15//23 5//23
f 4//24 14//24 15//24
f 5//25 16//25 6//25
f 5//26 15//26 16//26
f 6//27 17//27 7//27
f 6//28 16//28 17//28
f 7//29 18//29 8//29
f 7//30 17//30 18//30
f 8//31 19//31 9//31
f 8//32 18//32 19//32
f 9//33 20//33 10//33
f 9//34 19//34 20//34
f 10//35 11//35 1//35
f 10//36 20//36 11//36
