# construction_5601_assumed_A_Casa
# source A_Casa
# h_campo 0.000000
# modeled_height 6.000000
# height_kind assumed
# local_origin_world_x 172001.034850
# local_origin_world_y 402500.144600
mtllib construction_artifacts.mtl

o construction_5601_assumed_A_Casa
v 20.941000 43.109000 0.000000
v 21.060000 41.319000 0.000000
v 23.435000 41.330000 0.000000
v 24.652000 35.472000 0.000000
v 27.868000 16.873000 0.000000
v 34.021000 -18.393000 0.000000
v 36.005000 -35.099000 0.000000
v 35.001000 -38.904000 0.000000
v 31.521000 -40.693000 0.000000
v 5.335000 -43.109000 0.000000
v 5.736000 -28.528000 0.000000
v 9.426000 -28.291000 0.000000
v 9.431000 -29.150000 0.000000
v 18.289000 -28.849000 0.000000
v 18.259000 -22.856000 0.000000
v 16.944000 -19.246000 0.000000
v -6.579000 -20.826000 0.000000
v -6.787000 -26.636000 0.000000
v -13.326000 -26.962000 0.000000
v -12.752000 -35.618000 0.000000
v -14.963000 -35.629000 0.000000
v -14.960000 -39.813000 0.000000
v -27.635000 -37.064000 0.000000
v -30.717000 -34.485000 0.000000
v -33.457000 -12.630000 0.000000
v -32.013000 -12.787000 0.000000
v -33.527000 -2.437000 0.000000
v -34.550000 -2.442000 0.000000
v -35.658000 10.797000 0.000000
v -36.005000 21.575000 0.000000
v -35.221000 36.431000 0.000000
v -32.772000 39.878000 0.000000
v -30.239000 41.023000 0.000000
v -14.699000 42.454000 0.000000
v -14.469000 40.500000 0.000000
v 20.941000 43.109000 6.000000
v 21.060000 41.319000 6.000000
v 23.435000 41.330000 6.000000
v 24.652000 35.472000 6.000000
v 27.868000 16.873000 6.000000
v 34.021000 -18.393000 6.000000
v 36.005000 -35.099000 6.000000
v 35.001000 -38.904000 6.000000
v 31.521000 -40.693000 6.000000
v 5.335000 -43.109000 6.000000
v 5.736000 -28.528000 6.000000
v 9.426000 -28.291000 6.000000
v 9.431000 -29.150000 6.000000
v 18.289000 -28.849000 6.000000
v 18.259000 -22.856000 6.000000
v 16.944000 -19.246000 6.000000
v -6.579000 -20.826000 6.000000
v -6.787000 -26.636000 6.000000
v -13.326000 -26.962000 6.000000
v -12.752000 -35.618000 6.000000
v -14.963000 -35.629000 6.000000
v -14.960000 -39.813000 6.000000
v -27.635000 -37.064000 6.000000
v -30.717000 -34.485000 6.000000
v -33.457000 -12.630000 6.000000
v -32.013000 -12.787000 6.000000
v -33.527000 -2.437000 6.000000
v -34.550000 -2.442000 6.000000
v -35.658000 10.797000 6.000000
v -36.005000 21.575000 6.000000
v -35.221000 36.431000 6.000000
v -32.772000 39.878000 6.000000
v -30.239000 41.023000 6.000000
v -14.699000 42.454000 6.000000
v -14.469000 40.500000 6.000000
v -9.429000 15.838000 0.000000
v 5.931000 16.346000 0.000000
v 4.609000 27.424000 0.000000
v -8.676000 27.860000 0.000000
v -9.429000 15.838000 6.000000
v 5.931000 16.346000 6.000000
v 4.609000 27.424000 6.000000
v -8.676000 27.860000 6.000000
vn 0.000000 0.000000 -1.000000
vn 0.000000 0.000000 -1.000000
vn 0.000000 0.000000 -1.000000
vn 0.000000 0.000000 -1.000000
vn 0.000000 0.000000 -1.000000
vn 0.000000 0.000000 -1.000000
vn 0.000000 0.000000 -1.000000
vn 0.000000 0.000000 -1.000000
vn -0.000000 0.000000 -1.000000
vn 0.000000 0.000000 -1.000000
vn 0.000000 0.000000 -1.000000
vn 0.000000 0.000000 -1.000000
vn 0.000000 0.000000 -1.000000
vn 0.000000 0.000000 -1.000000
vn 0.000000 0.000000 -1.000000
vn 0.000000 0.000000 -1.000000
vn 0.000000 0.000000 -1.000000
vn 0.000000 0.000000 -1.000000
vn 0.000000 -0.000000 -1.000000
vn 0.000000 -0.000000 -1.000000
vn 0.000000 -0.000000 -1.000000
vn 0.000000 0.000000 -1.000000
vn 0.000000 0.000000 -1.000000
vn 0.000000 0.000000 -1.000000
vn 0.000000 0.000000 -1.000000
vn 0.000000 0.000000 -1.000000
vn 0.000000 0.000000 -1.000000
vn 0.000000 0.000000 -1.000000
vn 0.000000 0.000000 -1.000000
vn 0.000000 0.000000 -1.000000
vn 0.000000 0.000000 -1.000000
vn -0.000000 0.000000 -1.000000
vn 0.000000 0.000000 -1.000000
vn 0.000000 -0.000000 -1.000000
vn 0.000000 0.000000 -1.000000
vn 0.000000 0.000000 1.000000
vn 0.000000 0.000000 1.000000
vn -0.000000 0.000000 1.000000
vn 0.000000 0.000000 1.000000
vn 0.000000 0.000000 1.000000
vn 0.000000 0.000000 1.000000
vn 0.000000 0.000000 1.000000
vn 0.000000 0.000000 1.000000
vn 0.000000 0.000000 1.000000
vn -0.000000 0.000000 1.000000
vn 0.000000 0.000000 1.000000
vn 0.000000 0.000000 1.000000
vn 0.000000 0.000000 1.000000
vn 0.000000 0.000000 1.000000
vn 0.000000 0.000000 1.000000
vn 0.000000 0.000000 1.000000
vn 0.000000 0.000000 1.000000
vn 0.000000 0.000000 1.000000
vn 0.000000 0.000000 1.000000
vn 0.000000 0.000000 1.000000
vn 0.000000 0.000000 1.000000
vn 0.000000 0.000000 1.000000
vn 0.000000 0.000000 1.000000
vn 0.000000 0.000000 1.000000
vn 0.000000 0.000000 1.000000
vn 0.000000 0.000000 1.000000
vn 0.000000 0.000000 1.000000
vn 0.000000 0.000000 1.000000
vn 0.000000 0.000000 1.000000
vn 0.000000 0.000000 1.000000
vn 0.000000 0.000000 1.000000
vn 0.000000 0.000000 1.000000
vn -0.000000 0.000000 1.000000
vn 0.000000 0.000000 1.000000
vn 0.000000 0.000000 1.000000
vn 0.997797 0.066334 0.000000
vn 0.997797 0.066334 -0.000000
vn -0.004632 0.999989 0.000000
vn -0.004632 0.999989 0.000000
vn 0.979094 0.203407 0.000000
vn 0.979094 0.203407 -0.000000
vn 0.985378 0.170384 0.000000
vn 0.985378 0.170384 -0.000000
vn 0.985118 0.171878 0.000000
vn 0.985118 0.171878 -0.000000
vn 0.993022 0.117931 0.000000
vn 0.993022 0.117931 -0.000000
vn 0.966906 -0.255131 0.000000
vn 0.966906 -0.255131 0.000000
vn 0.457204 -0.889362 0.000000
vn 0.457204 -0.889362 0.000000
vn 0.091873 -0.995771 0.000000
vn 0.091873 -0.995771 0.000000
vn -0.999622 0.027491 0.000000
vn -0.999622 0.027491 0.000000
vn -0.064096 0.997944 0.000000
vn -0.064096 0.997944 0.000000
vn 0.999983 0.005821 0.000000
vn 0.999983 0.005821 -0.000000
vn -0.033961 0.999423 0.000000
vn -0.033961 0.999423 0.000000
vn -0.999987 -0.005006 0.000000
vn -0.999987 -0.005006 0.000000
vn -0.939603 -0.342265 0.000000
vn -0.939603 -0.342265 0.000000
vn 0.067017 -0.997752 0.000000
vn 0.067017 -0.997752 0.000000
vn 0.999360 -0.035777 0.000000
vn 0.999360 -0.035777 0.000000
vn 0.049793 -0.998760 0.000000
vn 0.049793 -0.998760 0.000000
vn 0.997809 0.066167 0.000000
vn 0.997809 0.066167 -0.000000
vn 0.004975 -0.999988 0.000000
vn 0.004975 -0.999988 0.000000
vn 1.000000 0.000717 0.000000
vn 1.000000 0.000717 -0.000000
vn -0.211956 -0.977279 0.000000
vn -0.211956 -0.977279 0.000000
vn -0.641750 -0.766914 0.000000
vn -0.641750 -0.766914 0.000000
vn -0.992232 -0.124398 0.000000
vn -0.992232 -0.124398 0.000000
vn 0.108089 0.994141 0.000000
vn 0.108089 0.994141 -0.000000
vn -0.989470 -0.144740 0.000000
vn -0.989470 -0.144740 0.000000
vn 0.004888 -0.999988 0.000000
vn 0.004888 -0.999988 0.000000
vn -0.996516 -0.083401 0.000000
vn -0.996516 -0.083401 0.000000
vn -0.999482 -0.032179 0.000000
vn -0.999482 -0.032179 0.000000
vn -0.998610 0.052700 0.000000
vn -0.998610 0.052700 0.000000
vn -0.815201 0.579178 0.000000
vn -0.815201 0.579178 0.000000
vn -0.411905 0.911227 0.000000
vn -0.411905 0.911227 0.000000
vn -0.091697 0.995787 0.000000
vn -0.091697 0.995787 0.000000
vn 0.993144 0.116900 0.000000
vn 0.993144 0.116900 -0.000000
vn -0.073481 0.997297 0.000000
vn -0.073481 0.997297 0.000000
vn 0.033055 -0.999454 0.000000
vn 0.033055 -0.999454 0.000000
vn 0.992955 0.118495 0.000000
vn 0.992955 0.118495 -0.000000
vn 0.032801 0.999462 0.000000
vn 0.032801 0.999462 -0.000000
vn -0.998044 0.062513 0.000000
vn -0.998044 0.062513 0.000000
usemtl assumed_base
f 35//1 1//1 2//1
f 35//2 2//2 3//2
f 35//3 3//3 4//3
f 35//4 4//4 5//4
f 35//5 5//5 6//5
f 35//6 6//6 7//6
f 35//7 7//7 8//7
f 35//8 8//8 9//8
f 9//9 10//9 11//9
f 11//10 12//10 13//10
f 9//11 11//11 13//11
f 9//12 13//12 14//12
f 9//13 14//13 15//13
f 9//14 15//14 16//14
f 35//15 9//15 16//15
f 35//16 16//16 17//16
f 35//17 17//17 18//17
f 35//18 18//18 19//18
f 19//19 20//19 21//19
f 35//20 19//20 21//20
f 21//21 22//21 23//21
f 35//22 21//22 23//22
f 35//23 23//23 24//23
f 24//24 25//24 26//24
f 35//25 24//25 26//25
f 35//26 26//26 27//26
f 35//27 27//27 28//27
f 35//28 28//28 29//28
f 35//29 29//29 30//29
f 35//30 30//30 31//30
f 35//31 31//31 32//31
f 35//32 32//32 33//32
f 33//33 34//33 35//33
f 74//34 72//34 71//34
f 72//35 74//35 73//35
usemtl assumed_roof
f 70//36 37//36 36//36
f 70//37 38//37 37//37
f 70//38 39//38 38//38
f 70//39 40//39 39//39
f 70//40 41//40 40//40
f 70//41 42//41 41//41
f 70//42 43//42 42//42
f 70//43 44//43 43//43
f 44//44 46//44 45//44
f 46//45 48//45 47//45
f 44//46 48//46 46//46
f 44//47 49//47 48//47
f 44//48 50//48 49//48
f 44//49 51//49 50//49
f 70//50 51//50 44//50
f 70//51 52//51 51//51
f 70//52 53//52 52//52
f 70//53 54//53 53//53
f 54//54 56//54 55//54
f 70//55 56//55 54//55
f 56//56 58//56 57//56
f 70//57 58//57 56//57
f 70//58 59//58 58//58
f 59//59 61//59 60//59
f 70//60 61//60 59//60
f 70//61 62//61 61//61
f 70//62 63//62 62//62
f 70//63 64//63 63//63
f 70//64 65//64 64//64
f 70//65 66//65 65//65
f 70//66 67//66 66//66
f 70//67 68//67 67//67
f 68//68 70//68 69//68
f 78//69 75//69 76//69
f 76//70 77//70 78//70
usemtl assumed_wall
f 1//71 37//71 2//71
f 1//72 36//72 37//72
f 2//73 38//73 3//73
f 2//74 37//74 38//74
f 3//75 39//75 4//75
f 3//76 38//76 39//76
f 4//77 40//77 5//77
f 4//78 39//78 40//78
f 5//79 41//79 6//79
f 5//80 40//80 41//80
f 6//81 42//81 7//81
f 6//82 41//82 42//82
f 7//83 43//83 8//83
f 7//84 42//84 43//84
f 8//85 44//85 9//85
f 8//86 43//86 44//86
f 9//87 45//87 10//87
f 9//88 44//88 45//88
f 10//89 46//89 11//89
f 10//90 45//90 46//90
f 11//91 47//91 12//91
f 11//92 46//92 47//92
f 12//93 48//93 13//93
f 12//94 47//94 48//94
f 13//95 49//95 14//95
f 13//96 48//96 49//96
f 14//97 50//97 15//97
f 14//98 49//98 50//98
f 15//99 51//99 16//99
f 15//100 50//100 51//100
f 16//101 52//101 17//101
f 16//102 51//102 52//102
f 17//103 53//103 18//103
f 17//104 52//104 53//104
f 18//105 54//105 19//105
f 18//106 53//106 54//106
f 19//107 55//107 20//107
f 19//108 54//108 55//108
f 20//109 56//109 21//109
f 20//110 55//110 56//110
f 21//111 57//111 22//111
f 21//112 56//112 57//112
f 22//113 58//113 23//113
f 22//114 57//114 58//114
f 23//115 59//115 24//115
f 23//116 58//116 59//116
f 24//117 60//117 25//117
f 24//118 59//118 60//118
f 25//119 61//119 26//119
f 25//120 60//120 61//120
f 26//121 62//121 27//121
f 26//122 61//122 62//122
f 27//123 63//123 28//123
f 27//124 62//124 63//124
f 28//125 64//125 29//125
f 28//126 63//126 64//126
f 29//127 65//127 30//127
f 29//128 64//128 65//128
f 30//129 66//129 31//129
f 30//130 65//130 66//130
f 31//131 67//131 32//131
f 31//132 66//132 67//132
f 32//133 68//133 33//133
f 32//134 67//134 68//134
f 33//135 69//135 34//135
f 33//136 68//136 69//136
f 34//137 70//137 35//137
f 34//138 69//138 70//138
f 35//139 36//139 1//139
f 35//140 70//140 36//140
f 71//141 72//141 76//141
f 71//142 76//142 75//142
f 72//143 73//143 77//143
f 72//144 77//144 76//144
f 73//145 74//145 78//145
f 73//146 78//146 77//146
f 74//147 71//147 75//147
f 74//148 75//148 78//148
