# construction_1926_assumed_A_Casa
# source A_Casa
# h_campo 0.000000
# modeled_height 6.000000
# height_kind assumed
# local_origin_world_x 172001.034850
# local_origin_world_y 402500.144600
mtllib construction_artifacts.mtl

o construction_1926_assumed_A_Casa
v -11.800000 -7.505500 0.000000
v -8.191000 1.488500 0.000000
v -2.087000 12.260500 0.000000
v 11.800000 7.586500 0.000000
v 10.227000 3.335500 0.000000
v 1.363000 6.201500 0.000000
v 0.405000 2.768500 0.000000
v 4.416000 1.151500 0.000000
v 2.828000 -2.957500 0.000000
v -1.159000 -12.260500 0.000000
v -11.800000 -7.505500 6.000000
v -8.191000 1.488500 6.000000
v -2.087000 12.260500 6.000000
v 11.800000 7.586500 6.000000
v 10.227000 3.335500 6.000000
v 1.363000 6.201500 6.000000
v 0.405000 2.768500 6.000000
v 4.416000 1.151500 6.000000
v 2.828000 -2.957500 6.000000
v -1.159000 -12.260500 6.000000
vn 0.000000 0.000000 -1.000000
vn 0.000000 0.000000 -1.000000
vn 0.000000 0.000000 -1.000000
vn 0.000000 0.000000 -1.000000
vn 0.000000 0.000000 -1.000000
vn 0.000000 0.000000 -1.000000
vn 0.000000 0.000000 -1.000000
vn 0.000000 0.000000 -1.000000
vn 0.000000 0.000000 1.000000
vn 0.000000 0.000000 1.000000
vn 0.000000 0.000000 1.000000
vn 0.000000 0.000000 1.000000
vn 0.000000 0.000000 1.000000
vn 0.000000 -0.000000 1.000000
vn 0.000000 0.000000 1.000000
vn 0.000000 0.000000 1.000000
vn -0.928071 0.372405 0.000000
vn -0.928071 0.372405 0.000000
vn -0.870027 0.493004 0.000000
vn -0.870027 0.493004 0.000000
vn 0.318990 0.947758 0.000000
vn 0.318990 0.947758 -0.000000
vn 0.937853 -0.347034 0.000000
vn 0.937853 -0.347034 0.000000
vn -0.307649 -0.951500 0.000000
vn -0.307649 -0.951500 0.000000
vn 0.963200 -0.268787 0.000000
vn 0.963200 -0.268787 0.000000
vn 0.373901 0.927469 0.000000
vn 0.373901 0.927469 -0.000000
vn 0.932765 -0.360485 0.000000
vn 0.932765 -0.360485 0.000000
vn 0.919145 -0.393919 0.000000
vn 0.919145 -0.393919 0.000000
vn -0.407977 -0.912992 0.000000
vn -0.407977 -0.912992 0.000000
usemtl assumed_base
f 10//1 1//1 2//1
f 10//2 2//2 3//2
f 3//3 4//3 5//3
f 3//4 5//4 6//4
f 3//5 6//5 7//5
f 10//6 3//6 7//6
f 10//7 7//7 8//7
f 8//8 9//8 10//8
usemtl assumed_roof
f 20//9 12//9 11//9
f 20//10 13//10 12//10
f 13//11 15//11 14//11
f 13//12 16//12 15//12
f 13//13 17//13 16//13
f 20//14 17//14 13//14
f 20//15 18//15 17//15
f 18//16 20//16 19//16
usemtl assumed_wall
f 1//17 12//17 2//17
f 1//18 11//18 12//18
f 2//19 13//19 3//19
f 2//20 12//20 13//20
f 3//21 14//21 4//21
f 3//22 13//22 14//22
f 4//23 15//23 5//23
f 4//24 14//24 15//24
f 5//25 16//25 6//25
f 5//26 15//26 16//26
f 6//27 17//27 7//27
f 6//28 16//28 17//28
f 7//29 18//29 8//29
f 7//30 17//30 18//30
f 8//31 19//31 9//31
f 8//32 18//32 19//32
f 9//33 20//33 10//33
f 9//34 19//34 20//34
f 10//35 11//35 1//35
f 10//36 20//36 11//36
