# construction_3085_assumed_A_Casa
# source A_Casa
# h_campo 0.000000
# modeled_height 6.000000
# height_kind assumed
# local_origin_world_x 172001.034850
# local_origin_world_y 402500.144600
mtllib construction_artifacts.mtl

o construction_3085_assumed_A_Casa
v -14.184000 -1.423500 0.000000
v -6.099000 1.577500 0.000000
v -9.496000 11.355500 0.000000
v 7.623000 17.486500 0.000000
v 8.586000 15.996500 0.000000
v 12.124000 17.217500 0.000000
v 14.184000 11.533500 0.000000
v 10.040000 10.500500 0.000000
v 10.916000 8.732500 0.000000
v 3.083000 6.224500 0.000000
v 4.216000 2.434500 0.000000
v 2.434000 2.329500 0.000000
v 7.878000 -13.020500 0.000000
v 3.537000 -16.531500 0.000000
v -5.413000 -17.486500 0.000000
v -5.572000 -14.237500 0.000000
v -0.379000 -12.153500 0.000000
v -2.873000 -5.028500 0.000000
v -11.388000 -8.017500 0.000000
v -14.184000 -1.423500 6.000000
v -6.099000 1.577500 6.000000
v -9.496000 11.355500 6.000000
v 7.623000 17.486500 6.000000
v 8.586000 15.996500 6.000000
v 12.124000 17.217500 6.000000
v 14.184000 11.533500 6.000000
v 10.040000 10.500500 6.000000
v 10.916000 8.732500 6.000000
v 3.083000 6.224500 6.000000
v 4.216000 2.434500 6.000000
v 2.434000 2.329500 6.000000
v 7.878000 -13.020500 6.000000
v 3.537000 -16.531500 6.000000
v -5.413000 -17.486500 6.000000
v -5.572000 -14.237500 6.000000
v -0.379000 -12.153500 6.000000
v -2.873000 -5.028500 6.000000
v -11.388000 -8.017500 6.000000
vn 0.000000 0.000000 -1.000000
vn 0.000000 0.000000 -1.000000
vn 0.000000 0.000000 -1.000000
vn 0.000000 0.000000 -1.000000
vn 0.000000 0.000000 -1.000000
vn 0.000000 -0.000000 -1.000000
vn 0.000000 -0.000000 -1.000000
vn 0.000000 0.000000 -1.000000
vn 0.000000 0.000000 -1.000000
vn 0.000000 -0.000000 -1.000000
vn 0.000000 0.000000 -1.000000
vn 0.000000 0.000000 -1.000000
vn -0.000000 0.000000 -1.000000
vn 0.000000 0.000000 -1.000000
vn 0.000000 -0.000000 -1.000000
vn 0.000000 0.000000 -1.000000
vn 0.000000 0.000000 -1.000000
vn 0.000000 -0.000000 1.000000
vn 0.000000 -0.000000 1.000000
vn 0.000000 0.000000 1.000000
vn 0.000000 0.000000 1.000000
vn 0.000000 0.000000 1.000000
vn 0.000000 0.000000 1.000000
vn 0.000000 0.000000 1.000000
vn 0.000000 0.000000 1.000000
vn 0.000000 0.000000 1.000000
vn 0.000000 0.000000 1.000000
vn 0.000000 0.000000 1.000000
vn 0.000000 0.000000 1.000000
vn 0.000000 0.000000 1.000000
vn 0.000000 0.000000 1.000000
vn 0.000000 0.000000 1.000000
vn 0.000000 0.000000 1.000000
vn 0.000000 0.000000 1.000000
vn -0.347983 0.937501 0.000000
vn -0.347983 0.937501 0.000000
vn -0.944618 -0.328172 0.000000
vn -0.944618 -0.328172 0.000000
vn -0.337169 0.941444 0.000000
vn -0.337169 0.941444 0.000000
vn 0.839857 0.542807 0.000000
vn 0.839857 0.542807 -0.000000
vn -0.326229 0.945291 0.000000
vn -0.326229 0.945291 0.000000
vn 0.940160 0.340734 0.000000
vn 0.940160 0.340734 -0.000000
vn 0.241874 -0.970308 0.000000
vn 0.241874 -0.970308 0.000000
vn 0.896043 0.443967 0.000000
vn 0.896043 0.443967 -0.000000
vn 0.304935 -0.952373 0.000000
vn 0.304935 -0.952373 0.000000
vn 0.958104 0.286420 0.000000
vn 0.958104 0.286420 -0.000000
vn 0.058821 -0.998269 0.000000
vn 0.058821 -0.998269 0.000000
vn 0.942481 0.334259 0.000000
vn 0.942481 0.334259 -0.000000
vn 0.628858 -0.777520 0.000000
vn 0.628858 -0.777520 0.000000
vn 0.106102 -0.994355 0.000000
vn 0.106102 -0.994355 0.000000
vn -0.998805 -0.048880 0.000000
vn -0.998805 -0.048880 0.000000
vn -0.372438 0.928057 0.000000
vn -0.372438 0.928057 0.000000
vn -0.943848 -0.330380 0.000000
vn -0.943848 -0.330380 0.000000
vn 0.331214 -0.943556 0.000000
vn 0.331214 -0.943556 0.000000
vn -0.920655 -0.390378 0.000000
vn -0.920655 -0.390378 0.000000
usemtl assumed_base
f 19//1 1//1 2//1
f 2//2 3//2 4//2
f 19//3 2//3 4//3
f 19//4 4//4 5//4
f 19//5 5//5 6//5
f 6//6 7//6 8//6
f 8//7 9//7 10//7
f 6//8 8//8 10//8
f 19//9 6//9 10//9
f 10//10 11//10 12//10
f 19//11 10//11 12//11
f 12//12 13//12 14//12
f 14//13 15//13 16//13
f 14//14 16//14 17//14
f 12//15 14//15 17//15
f 12//16 17//16 18//16
f 12//17 18//17 19//17
usemtl assumed_roof
f 38//18 21//18 20//18
f 21//19 23//19 22//19
f 38//20 23//20 21//20
f 38//21 24//21 23//21
f 38//22 25//22 24//22
f 25//23 27//23 26//23
f 27//24 29//24 28//24
f 25//25 29//25 27//25
f 38//26 29//26 25//26
f 29//27 31//27 30//27
f 38//28 31//28 29//28
f 31//29 33//29 32//29
f 33//30 35//30 34//30
f 33//31 36//31 35//31
f 31//32 36//32 33//32
f 31//33 37//33 36//33
f 31//34 38//34 37//34
usemtl assumed_wall
f 1//35 21//35 2//35
f 1//36 20//36 21//36
f 2//37 22//37 3//37
f 2//38 21//38 22//38
f 3//39 23//39 4//39
f 3//40 22//40 23//40
f 4//41 24//41 5//41
f 4//42 23//42 24//42
f 5//43 25//43 6//43
f 5//44 24//44 25//44
f 6//45 26//45 7//45
f 6//46 25//46 26//46
f 7//47 27//47 8//47
f 7//48 26//48 27//48
f 8//49 28//49 9//49
f 8//50 27//50 28//50
f 9//51 29//51 10//51
f 9//52 28//52 29//52
f 10//53 30//53 11//53
f 10//54 29//54 30//54
f 11//55 31//55 12//55
f 11//56 30//56 31//56
f 12//57 32//57 13//57
f 12//58 31//58 32//58
f 13//59 33//59 14//59
f 13//60 32//60 33//60
f 14//61 34//61 15//61
f 14//62 33//62 34//62
f 15//63 35//63 16//63
f 15//64 34//64 35//64
f 16//65 36//65 17//65
f 16//66 35//66 36//66
f 17//67 37//67 18//67
f 17//68 36//68 37//68
f 18//69 38//69 19//69
f 18//70 37//70 38//70
f 19//71 20//71 1//71
f 19//72 38//72 20//72
