# construction_0390_assumed_A_Casa
# source A_Casa
# h_campo 0.000000
# modeled_height 6.000000
# height_kind assumed
# local_origin_world_x 172001.034850
# local_origin_world_y 402500.144600
mtllib construction_artifacts.mtl

o construction_0390_assumed_A_Casa
v -18.776000 -14.195500 0.000000
v -14.061000 -3.840500 0.000000
v -9.269000 -6.019500 0.000000
v 1.812000 11.262500 0.000000
v -5.711000 14.911500 0.000000
v -3.215000 20.082500 0.000000
v 7.709000 14.761500 0.000000
v 3.922000 8.364500 0.000000
v 18.776000 -2.272500 0.000000
v 10.012000 -15.078500 0.000000
v 8.583000 -14.192500 0.000000
v 4.177000 -20.082500 0.000000
v -1.524000 -16.397500 0.000000
v -0.638000 -14.753500 0.000000
v -6.301000 -11.131500 0.000000
v -11.341000 -18.033500 0.000000
v -18.776000 -14.195500 6.000000
v -14.061000 -3.840500 6.000000
v -9.269000 -6.019500 6.000000
v 1.812000 11.262500 6.000000
v -5.711000 14.911500 6.000000
v -3.215000 20.082500 6.000000
v 7.709000 14.761500 6.000000
v 3.922000 8.364500 6.000000
v 18.776000 -2.272500 6.000000
v 10.012000 -15.078500 6.000000
v 8.583000 -14.192500 6.000000
v 4.177000 -20.082500 6.000000
v -1.524000 -16.397500 6.000000
v -0.638000 -14.753500 6.000000
v -6.301000 -11.131500 6.000000
v -11.341000 -18.033500 6.000000
vn 0.000000 0.000000 -1.000000
vn 0.000000 0.000000 -1.000000
vn 0.000000 0.000000 -1.000000
vn 0.000000 0.000000 -1.000000
vn 0.000000 0.000000 -1.000000
vn 0.000000 0.000000 -1.000000
vn 0.000000 0.000000 -1.000000
vn 0.000000 0.000000 -1.000000
vn 0.000000 0.000000 -1.000000
vn 0.000000 0.000000 -1.000000
vn 0.000000 0.000000 -1.000000
vn 0.000000 -0.000000 -1.000000
vn 0.000000 0.000000 -1.000000
vn 0.000000 0.000000 -1.000000
vn 0.000000 0.000000 1.000000
vn 0.000000 -0.000000 1.000000
vn 0.000000 0.000000 1.000000
vn 0.000000 0.000000 1.000000
vn 0.000000 -0.000000 1.000000
vn -0.000000 0.000000 1.000000
vn 0.000000 0.000000 1.000000
vn 0.000000 0.000000 1.000000
vn 0.000000 0.000000 1.000000
vn 0.000000 0.000000 1.000000
vn 0.000000 0.000000 1.000000
vn 0.000000 0.000000 1.000000
vn 0.000000 0.000000 1.000000
vn 0.000000 0.000000 1.000000
vn -0.910095 0.414399 0.000000
vn -0.910095 0.414399 0.000000
vn 0.413932 0.910308 0.000000
vn 0.413932 0.910308 -0.000000
vn -0.841817 0.539763 0.000000
vn -0.841817 0.539763 0.000000
vn -0.436417 -0.899744 0.000000
vn -0.436417 -0.899744 0.000000
vn -0.900575 0.434700 0.000000
vn -0.900575 0.434700 0.000000
vn 0.437906 0.899021 0.000000
vn 0.437906 0.899021 -0.000000
vn 0.860517 -0.509423 0.000000
vn 0.860517 -0.509423 0.000000
vn 0.582216 0.813034 0.000000
vn 0.582216 0.813034 -0.000000
vn 0.825247 -0.564772 0.000000
vn 0.825247 -0.564772 0.000000
vn -0.526948 -0.849897 0.000000
vn -0.526948 -0.849897 0.000000
vn 0.800750 -0.598999 0.000000
vn 0.800750 -0.598999 0.000000
vn -0.542848 -0.839831 0.000000
vn -0.542848 -0.839831 0.000000
vn -0.880299 0.474419 0.000000
vn -0.880299 0.474419 0.000000
vn -0.538809 -0.842428 0.000000
vn -0.538809 -0.842428 0.000000
vn 0.807601 -0.589729 0.000000
vn 0.807601 -0.589729 0.000000
vn -0.458698 -0.888592 0.000000
vn -0.458698 -0.888592 0.000000
usemtl assumed_base
f 16//1 1//1 2//1
f 16//2 2//2 3//2
f 16//3 3//3 4//3
f 4//4 5//4 6//4
f 4//5 6//5 7//5
f 4//6 7//6 8//6
f 16//7 4//7 8//7
f 8//8 9//8 10//8
f 8//9 10//9 11//9
f 8//10 11//10 12//10
f 12//11 13//11 14//11
f 8//12 12//12 14//12
f 8//13 14//13 15//13
f 8//14 15//14 16//14
usemtl assumed_roof
f 32//15 18//15 17//15
f 32//16 19//16 18//16
f 32//17 20//17 19//17
f 20//18 22//18 21//18
f 20//19 23//19 22//19
f 20//20 24//20 23//20
f 32//21 24//21 20//21
f 24//22 26//22 25//22
f 24//23 27//23 26//23
f 24//24 28//24 27//24
f 28//25 30//25 29//25
f 24//26 30//26 28//26
f 24//27 31//27 30//27
f 24//28 32//28 31//28
usemtl assumed_wall
f 1//29 18//29 2//29
f 1//30 17//30 18//30
f 2//31 19//31 3//31
f 2//32 18//32 19//32
f 3//33 20//33 4//33
f 3//34 19//34 20//34
f 4//35 21//35 5//35
f 4//36 20//36 21//36
f 5//37 22//37 6//37
f 5//38 21//38 22//38
f 6//39 23//39 7//39
f 6//40 22//40 23//40
f 7//41 24//41 8//41
f 7//42 23//42 24//42
f 8//43 25//43 9//43
f 8//44 24//44 25//44
f 9//45 26//45 10//45
f 9//46 25//46 26//46
f 10//47 27//47 11//47
f 10//48 26//48 27//48
f 11//49 28//49 12//49
f 11//50 27//50 28//50
f 12//51 29//51 13//51
f 12//52 28//52 29//52
f 13//53 30//53 14//53
f 13//54 29//54 30//54
f 14//55 31//55 15//55
f 14//56 30//56 31//56
f 15//57 32//57 16//57
f 15//58 31//58 32//58
f 16//59 17//59 1//59
f 16//60 32//60 17//60
