# construction_6920_assumed_A_Casa
# source A_Casa
# h_campo 0.000000
# modeled_height 6.000000
# height_kind assumed
# local_origin_world_x 172001.034850
# local_origin_world_y 402500.144600
mtllib construction_artifacts.mtl

o construction_6920_assumed_A_Casa
v -41.601500 -1.668500 0.000000
v -34.143500 -2.672500 0.000000
v -33.668500 0.965500 0.000000
v -26.063500 -0.073500 0.000000
v -25.728500 2.394500 0.000000
v -22.839500 1.878500 0.000000
v -21.490500 9.613500 0.000000
v -18.072500 9.319500 0.000000
v -17.348500 10.657500 0.000000
v -5.994500 9.052500 0.000000
v -7.138500 0.423500 0.000000
v -0.007500 -0.965500 0.000000
v -0.134500 -4.638500 0.000000
v 5.295500 -5.506500 0.000000
v 5.303500 -6.986500 0.000000
v 7.003500 -7.215500 0.000000
v 7.554500 -4.307500 0.000000
v 12.290500 -5.087500 0.000000
v 12.068500 -8.285500 0.000000
v 14.207500 -8.457500 0.000000
v 14.400500 -6.922500 0.000000
v 19.940500 -7.862500 0.000000
v 19.728500 -9.196500 0.000000
v 30.936500 -10.930500 0.000000
v 33.515500 -11.611500 0.000000
v 35.325500 9.881500 0.000000
v -25.384500 13.850500 0.000000
v -24.632500 20.449500 0.000000
v -23.138500 24.914500 0.000000
v -2.944500 23.609500 0.000000
v -3.229500 18.529500 0.000000
v 35.804500 16.369500 0.000000
v 36.495500 24.101500 0.000000
v 42.478500 22.286500 0.000000
v 39.647500 -21.264500 0.000000
v 33.353500 -19.286500 0.000000
v 33.143500 -24.914500 0.000000
v 29.778500 -24.273500 0.000000
v 29.772500 -22.940500 0.000000
v -14.253500 -16.219500 0.000000
v -13.287500 -12.213500 0.000000
v -16.395500 -11.681500 0.000000
v -17.143500 -15.430500 0.000000
v -27.693500 -13.692500 0.000000
v -27.697500 -12.979500 0.000000
v -32.469500 -12.200500 0.000000
v -32.476500 -10.793500 0.000000
v -42.478500 -8.925500 0.000000
v -41.601500 -1.668500 6.000000
v -34.143500 -2.672500 6.000000
v -33.668500 0.965500 6.000000
v -26.063500 -0.073500 6.000000
v -25.728500 2.394500 6.000000
v -22.839500 1.878500 6.000000
v -21.490500 9.613500 6.000000
v -18.072500 9.319500 6.000000
v -17.348500 10.657500 6.000000
v -5.994500 9.052500 6.000000
v -7.138500 0.423500 6.000000
v -0.007500 -0.965500 6.000000
v -0.134500 -4.638500 6.000000
v 5.295500 -5.506500 6.000000
v 5.303500 -6.986500 6.000000
v 7.003500 -7.215500 6.000000
v 7.554500 -4.307500 6.000000
v 12.290500 -5.087500 6.000000
v 12.068500 -8.285500 6.000000
v 14.207500 -8.457500 6.000000
v 14.400500 -6.922500 6.000000
v 19.940500 -7.862500 6.000000
v 19.728500 -9.196500 6.000000
v 30.936500 -10.930500 6.000000
v 33.515500 -11.611500 6.000000
v 35.325500 9.881500 6.000000
v -25.384500 13.850500 6.000000
v -24.632500 20.449500 6.000000
v -23.138500 24.914500 6.000000
v -2.944500 23.609500 6.000000
v -3.229500 18.529500 6.000000
v 35.804500 16.369500 6.000000
v 36.495500 24.101500 6.000000
v 42.478500 22.286500 6.000000
v 39.647500 -21.264500 6.000000
v 33.353500 -19.286500 6.000000
v 33.143500 -24.914500 6.000000
v 29.778500 -24.273500 6.000000
v 29.772500 -22.940500 6.000000
v -14.253500 -16.219500 6.000000
v -13.287500 -12.213500 6.000000
v -16.395500 -11.681500 6.000000
v -17.143500 -15.430500 6.000000
v -27.693500 -13.692500 6.000000
v -27.697500 -12.979500 6.000000
v -32.469500 -12.200500 6.000000
v -32.476500 -10.793500 6.000000
v -42.478500 -8.925500 6.000000
vn 0.000000 0.000000 -1.000000
vn 0.000000 0.000000 -1.000000
vn 0.000000 0.000000 -1.000000
vn 0.000000 0.000000 -1.000000
vn 0.000000 0.000000 -1.000000
vn 0.000000 0.000000 -1.000000
vn 0.000000 0.000000 -1.000000
vn 0.000000 0.000000 -1.000000
vn 0.000000 0.000000 -1.000000
vn 0.000000 0.000000 -1.000000
vn 0.000000 0.000000 -1.000000
vn 0.000000 0.000000 -1.000000
vn 0.000000 0.000000 -1.000000
vn 0.000000 0.000000 -1.000000
vn 0.000000 0.000000 -1.000000
vn 0.000000 0.000000 -1.000000
vn 0.000000 0.000000 -1.000000
vn 0.000000 0.000000 -1.000000
vn 0.000000 0.000000 -1.000000
vn 0.000000 0.000000 -1.000000
vn 0.000000 0.000000 -1.000000
vn 0.000000 0.000000 -1.000000
vn 0.000000 0.000000 -1.000000
vn 0.000000 0.000000 -1.000000
vn 0.000000 0.000000 -1.000000
vn 0.000000 0.000000 -1.000000
vn 0.000000 0.000000 -1.000000
vn 0.000000 0.000000 -1.000000
vn 0.000000 0.000000 -1.000000
vn 0.000000 0.000000 -1.000000
vn 0.000000 0.000000 -1.000000
vn 0.000000 0.000000 -1.000000
vn 0.000000 0.000000 -1.000000
vn 0.000000 -0.000000 -1.000000
vn 0.000000 0.000000 -1.000000
vn 0.000000 0.000000 -1.000000
vn 0.000000 0.000000 -1.000000
vn 0.000000 0.000000 -1.000000
vn 0.000000 0.000000 -1.000000
vn 0.000000 0.000000 -1.000000
vn 0.000000 0.000000 -1.000000
vn 0.000000 0.000000 -1.000000
vn 0.000000 0.000000 -1.000000
vn 0.000000 0.000000 -1.000000
vn -0.000000 0.000000 -1.000000
vn 0.000000 0.000000 -1.000000
vn 0.000000 0.000000 1.000000
vn 0.000000 0.000000 1.000000
vn 0.000000 0.000000 1.000000
vn 0.000000 0.000000 1.000000
vn 0.000000 0.000000 1.000000
vn -0.000000 0.000000 1.000000
vn 0.000000 0.000000 1.000000
vn 0.000000 0.000000 1.000000
vn 0.000000 0.000000 1.000000
vn 0.000000 0.000000 1.000000
vn 0.000000 0.000000 1.000000
vn 0.000000 0.000000 1.000000
vn 0.000000 0.000000 1.000000
vn 0.000000 0.000000 1.000000
vn 0.000000 0.000000 1.000000
vn 0.000000 0.000000 1.000000
vn -0.000000 0.000000 1.000000
vn 0.000000 0.000000 1.000000
vn 0.000000 0.000000 1.000000
vn 0.000000 0.000000 1.000000
vn -0.000000 0.000000 1.000000
vn -0.000000 0.000000 1.000000
vn 0.000000 0.000000 1.000000
vn 0.000000 0.000000 1.000000
vn 0.000000 0.000000 1.000000
vn 0.000000 0.000000 1.000000
vn -0.000000 0.000000 1.000000
vn 0.000000 0.000000 1.000000
vn 0.000000 -0.000000 1.000000
vn 0.000000 0.000000 1.000000
vn 0.000000 0.000000 1.000000
vn 0.000000 0.000000 1.000000
vn -0.000000 0.000000 1.000000
vn 0.000000 0.000000 1.000000
vn 0.000000 0.000000 1.000000
vn 0.000000 0.000000 1.000000
vn 0.000000 0.000000 1.000000
vn 0.000000 0.000000 1.000000
vn 0.000000 0.000000 1.000000
vn 0.000000 0.000000 1.000000
vn 0.000000 0.000000 1.000000
vn 0.000000 0.000000 1.000000
vn 0.000000 0.000000 1.000000
vn 0.000000 0.000000 1.000000
vn 0.000000 0.000000 1.000000
vn 0.000000 0.000000 1.000000
vn 0.133417 0.991060 0.000000
vn 0.133417 0.991060 -0.000000
vn -0.991584 0.129467 0.000000
vn -0.991584 0.129467 0.000000
vn 0.135363 0.990796 0.000000
vn 0.135363 0.990796 -0.000000
vn -0.990913 0.134504 0.000000
vn -0.990913 0.134504 0.000000
vn 0.175826 0.984421 0.000000
vn 0.175826 0.984421 -0.000000
vn -0.985130 0.171809 0.000000
vn -0.985130 0.171809 0.000000
vn 0.085699 0.996321 0.000000
vn 0.085699 0.996321 -0.000000
vn -0.879498 0.475902 0.000000
vn -0.879498 0.475902 0.000000
vn 0.139968 0.990156 0.000000
vn 0.139968 0.990156 -0.000000
vn 0.991326 -0.131426 0.000000
vn 0.991326 -0.131426 0.000000
vn 0.191190 0.981553 0.000000
vn 0.191190 0.981553 -0.000000
vn 0.999403 -0.034556 0.000000
vn 0.999403 -0.034556 0.000000
vn 0.157849 0.987463 0.000000
vn 0.157849 0.987463 -0.000000
vn 0.999985 0.005405 0.000000
vn 0.999985 0.005405 -0.000000
vn 0.133500 0.991049 0.000000
vn 0.133500 0.991049 -0.000000
vn -0.982519 0.186165 0.000000
vn -0.982519 0.186165 0.000000
vn 0.162507 0.986707 0.000000
vn 0.162507 0.986707 -0.000000
vn 0.997599 -0.069252 0.000000
vn 0.997599 -0.069252 0.000000
vn 0.080153 0.996783 0.000000
vn 0.080153 0.996783 -0.000000
vn -0.992188 0.124751 0.000000
vn -0.992188 0.124751 0.000000
vn 0.167284 0.985909 0.000000
vn 0.167284 0.985909 -0.000000
vn 0.987606 -0.156951 0.000000
vn 0.987606 -0.156951 0.000000
vn 0.152892 0.988243 0.000000
vn 0.152892 0.988243 -0.000000
vn 0.255305 0.966861 0.000000
vn 0.255305 0.966861 -0.000000
vn -0.996473 0.083916 0.000000
vn -0.996473 0.083916 0.000000
vn -0.065237 -0.997870 0.000000
vn -0.065237 -0.997870 0.000000
vn -0.993570 0.113224 0.000000
vn -0.993570 0.113224 0.000000
vn -0.948322 0.317311 0.000000
vn -0.948322 0.317311 0.000000
vn 0.064489 0.997918 0.000000
vn 0.064489 0.997918 -0.000000
vn 0.998430 -0.056014 0.000000
vn 0.998430 -0.056014 0.000000
vn 0.055252 0.998472 0.000000
vn 0.055252 0.998472 -0.000000
vn -0.996030 0.089014 0.000000
vn -0.996030 0.089014 0.000000
vn 0.290296 0.956937 0.000000
vn 0.290296 0.956937 -0.000000
vn 0.997894 -0.064867 0.000000
vn 0.997894 -0.064867 0.000000
vn -0.299811 -0.953999 0.000000
vn -0.299811 -0.953999 0.000000
vn 0.999305 -0.037287 0.000000
vn 0.999305 -0.037287 0.000000
vn -0.187126 -0.982336 0.000000
vn -0.187126 -0.982336 0.000000
vn -0.999990 -0.004501 0.000000
vn -0.999990 -0.004501 0.000000
vn -0.150911 -0.988547 0.000000
vn -0.150911 -0.988547 0.000000
vn -0.972136 0.234419 0.000000
vn -0.972136 0.234419 0.000000
vn -0.168717 -0.985664 0.000000
vn -0.168717 -0.985664 0.000000
vn 0.980671 -0.195663 0.000000
vn 0.980671 -0.195663 0.000000
vn -0.162548 -0.986701 0.000000
vn -0.162548 -0.986701 0.000000
vn -0.999984 -0.005610 0.000000
vn -0.999984 -0.005610 0.000000
vn -0.161111 -0.986936 0.000000
vn -0.161111 -0.986936 0.000000
vn -0.999988 -0.004975 0.000000
vn -0.999988 -0.004975 0.000000
vn -0.183588 -0.983003 0.000000
vn -0.183588 -0.983003 0.000000
vn -0.992777 0.119976 0.000000
vn -0.992777 0.119976 0.000000
usemtl assumed_base
f 48//1 1//1 2//1
f 2//2 3//2 4//2
f 48//3 2//3 4//3
f 4//4 5//4 6//4
f 6//5 7//5 8//5
f 8//6 9//6 10//6
f 6//7 8//7 10//7
f 4//8 6//8 10//8
f 48//9 4//9 10//9
f 48//10 10//10 11//10
f 48//11 11//11 12//11
f 48//12 12//12 13//12
f 48//13 13//13 14//13
f 48//14 14//14 15//14
f 48//15 15//15 16//15
f 16//16 17//16 18//16
f 16//17 18//17 19//17
f 48//18 16//18 19//18
f 48//19 19//19 20//19
f 20//20 21//20 22//20
f 20//21 22//21 23//21
f 48//22 20//22 23//22
f 48//23 23//23 24//23
f 48//24 24//24 25//24
f 26//25 27//25 28//25
f 28//26 29//26 30//26
f 28//27 30//27 31//27
f 26//28 28//28 31//28
f 26//29 31//29 32//29
f 26//30 32//30 33//30
f 26//31 33//31 34//31
f 25//32 26//32 34//32
f 25//33 34//33 35//33
f 25//34 35//34 36//34
f 25//35 36//35 37//35
f 25//36 37//36 38//36
f 25//37 38//37 39//37
f 25//38 39//38 40//38
f 25//39 40//39 41//39
f 25//40 41//40 42//40
f 48//41 25//41 42//41
f 42//42 43//42 44//42
f 42//43 44//43 45//43
f 42//44 45//44 46//44
f 42//45 46//45 47//45
f 42//46 47//46 48//46
usemtl assumed_roof
f 96//47 50//47 49//47
f 50//48 52//48 51//48
f 96//49 52//49 50//49
f 52//50 54//50 53//50
f 54//51 56//51 55//51
f 56//52 58//52 57//52
f 54//53 58//53 56//53
f 52//54 58//54 54//54
f 96//55 58//55 52//55
f 96//56 59//56 58//56
f 96//57 60//57 59//57
f 96//58 61//58 60//58
f 96//59 62//59 61//59
f 96//60 63//60 62//60
f 96//61 64//61 63//61
f 64//62 66//62 65//62
f 64//63 67//63 66//63
f 96//64 67//64 64//64
f 96//65 68//65 67//65
f 68//66 70//66 69//66
f 68//67 71//67 70//67
f 96//68 71//68 68//68
f 96//69 72//69 71//69
f 96//70 73//70 72//70
f 74//71 76//71 75//71
f 76//72 78//72 77//72
f 76//73 79//73 78//73
f 74//74 79//74 76//74
f 74//75 80//75 79//75
f 74//76 81//76 80//76
f 74//77 82//77 81//77
f 73//78 82//78 74//78
f 73//79 83//79 82//79
f 73//80 84//80 83//80
f 73//81 85//81 84//81
f 73//82 86//82 85//82
f 73//83 87//83 86//83
f 73//84 88//84 87//84
f 73//85 89//85 88//85
f 73//86 90//86 89//86
f 96//87 90//87 73//87
f 90//88 92//88 91//88
f 90//89 93//89 92//89
f 90//90 94//90 93//90
f 90//91 95//91 94//91
f 90//92 96//92 95//92
usemtl assumed_wall
f 1//93 50//93 2//93
f 1//94 49//94 50//94
f 2//95 51//95 3//95
f 2//96 50//96 51//96
f 3//97 52//97 4//97
f 3//98 51//98 52//98
f 4//99 53//99 5//99
f 4//100 52//100 53//100
f 5//101 54//101 6//101
f 5//102 53//102 54//102
f 6//103 55//103 7//103
f 6//104 54//104 55//104
f 7//105 56//105 8//105
f 7//106 55//106 56//106
f 8//107 57//107 9//107
f 8//108 56//108 57//108
f 9//109 58//109 10//109
f 9//110 57//110 58//110
f 10//111 59//111 11//111
f 10//112 58//112 59//112
f 11//113 60//113 12//113
f 11//114 59//114 60//114
f 12//115 61//115 13//115
f 12//116 60//116 61//116
f 13//117 62//117 14//117
f 13//118 61//118 62//118
f 14//119 63//119 15//119
f 14//120 62//120 63//120
f 15//121 64//121 16//121
f 15//122 63//122 64//122
f 16//123 65//123 17//123
f 16//124 64//124 65//124
f 17//125 66//125 18//125
f 17//126 65//126 66//126
f 18//127 67//127 19//127
f 18//128 66//128 67//128
f 19//129 68//129 20//129
f 19//130 67//130 68//130
f 20//131 69//131 21//131
f 20//132 68//132 69//132
f 21//133 70//133 22//133
f 21//134 69//134 70//134
f 22//135 71//135 23//135
f 22//136 70//136 71//136
f 23//137 72//137 24//137
f 23//138 71//138 72//138
f 24//139 73//139 25//139
f 24//140 72//140 73//140
f 25//141 74//141 26//141
f 25//142 73//142 74//142
f 26//143 75//143 27//143
f 26//144 74//144 75//144
f 27//145 76//145 28//145
f 27//146 75//146 76//146
f 28//147 77//147 29//147
f 28//148 76//148 77//148
f 29//149 78//149 30//149
f 29//150 77//150 78//150
f 30//151 79//151 31//151
f 30//152 78//152 79//152
f 31//153 80//153 32//153
f 31//154 79//154 80//154
f 32//155 81//155 33//155
f 32//156 80//156 81//156
f 33//157 82//157 34//157
f 33//158 81//158 82//158
f 34//159 83//159 35//159
f 34//160 82//160 83//160
f 35//161 84//161 36//161
f 35//162 83//162 84//162
f 36//163 85//163 37//163
f 36//164 84//164 85//164
f 37//165 86//165 38//165
f 37//166 85//166 86//166
f 38//167 87//167 39//167
f 38//168 86//168 87//168
f 39//169 88//169 40//169
f 39//170 87//170 88//170
f 40//171 89//171 41//171
f 40//172 88//172 89//172
f 41//173 90//173 42//173
f 41//174 89//174 90//174
f 42//175 91//175 43//175
f 42//176 90//176 91//176
f 43//177 92//177 44//177
f 43//178 91//178 92//178
f 44//179 93//179 45//179
f 44//180 92//180 93//180
f 45//181 94//181 46//181
f 45//182 93//182 94//182
f 46//183 95//183 47//183
f 46//184 94//184 95//184
f 47//185 96//185 48//185
f 47//186 95//186 96//186
f 48//187 49//187 1//187
f 48//188 96//188 49//188
