# construction_2296_assumed_A_Casa
# source A_Casa
# h_campo 0.000000
# modeled_height 6.000000
# height_kind assumed
# local_origin_world_x 172001.034850
# local_origin_world_y 402500.144600
mtllib construction_artifacts.mtl

o construction_2296_assumed_A_Casa
v -18.429000 -3.749000 0.000000
v -12.413000 -0.477000 0.000000
v -10.386000 -5.111000 0.000000
v -7.069000 -3.557000 0.000000
v -9.821000 2.294000 0.000000
v 3.564000 8.385000 0.000000
v 4.761000 3.857000 0.000000
v 9.125000 4.408000 0.000000
v 7.146000 10.292000 0.000000
v 12.752000 13.843000 0.000000
v 15.456000 10.856000 0.000000
v 17.409000 8.665000 0.000000
v 18.429000 5.400000 0.000000
v 10.095000 2.280000 0.000000
v 12.593000 -5.399000 0.000000
v -1.303000 -8.544000 0.000000
v -1.123000 -10.073000 0.000000
v -13.962000 -13.843000 0.000000
v -18.429000 -3.749000 6.000000
v -12.413000 -0.477000 6.000000
v -10.386000 -5.111000 6.000000
v -7.069000 -3.557000 6.000000
v -9.821000 2.294000 6.000000
v 3.564000 8.385000 6.000000
v 4.761000 3.857000 6.000000
v 9.125000 4.408000 6.000000
v 7.146000 10.292000 6.000000
v 12.752000 13.843000 6.000000
v 15.456000 10.856000 6.000000
v 17.409000 8.665000 6.000000
v 18.429000 5.400000 6.000000
v 10.095000 2.280000 6.000000
v 12.593000 -5.399000 6.000000
v -1.303000 -8.544000 6.000000
v -1.123000 -10.073000 6.000000
v -13.962000 -13.843000 6.000000
vn 0.000000 0.000000 -1.000000
vn 0.000000 0.000000 -1.000000
vn 0.000000 0.000000 -1.000000
vn 0.000000 0.000000 -1.000000
vn 0.000000 0.000000 -1.000000
vn 0.000000 0.000000 -1.000000
vn 0.000000 0.000000 -1.000000
vn 0.000000 0.000000 -1.000000
vn 0.000000 0.000000 -1.000000
vn 0.000000 0.000000 -1.000000
vn 0.000000 0.000000 -1.000000
vn 0.000000 -0.000000 -1.000000
vn 0.000000 0.000000 -1.000000
vn 0.000000 -0.000000 -1.000000
vn 0.000000 0.000000 -1.000000
vn 0.000000 -0.000000 -1.000000
vn 0.000000 -0.000000 1.000000
vn 0.000000 0.000000 1.000000
vn 0.000000 0.000000 1.000000
vn 0.000000 -0.000000 1.000000
vn 0.000000 0.000000 1.000000
vn 0.000000 0.000000 1.000000
vn 0.000000 0.000000 1.000000
vn 0.000000 -0.000000 1.000000
vn 0.000000 0.000000 1.000000
vn 0.000000 0.000000 1.000000
vn 0.000000 0.000000 1.000000
vn 0.000000 0.000000 1.000000
vn 0.000000 0.000000 1.000000
vn 0.000000 0.000000 1.000000
vn 0.000000 0.000000 1.000000
vn 0.000000 0.000000 1.000000
vn -0.477788 0.878475 0.000000
vn -0.477788 0.878475 0.000000
vn 0.916185 0.400757 0.000000
vn 0.916185 0.400757 -0.000000
vn -0.424245 0.905547 0.000000
vn -0.424245 0.905547 0.000000
vn -0.904903 -0.425618 0.000000
vn -0.904903 -0.425618 0.000000
vn -0.414192 0.910189 0.000000
vn -0.414192 0.910189 0.000000
vn 0.966789 0.255576 0.000000
vn 0.966789 0.255576 -0.000000
vn -0.125266 0.992123 0.000000
vn -0.125266 0.992123 0.000000
vn -0.947826 -0.318788 0.000000
vn -0.947826 -0.318788 0.000000
vn -0.535109 0.844783 0.000000
vn -0.535109 0.844783 0.000000
vn 0.741353 0.671115 0.000000
vn 0.741353 0.671115 -0.000000
vn 0.746488 0.665399 0.000000
vn 0.746488 0.665399 -0.000000
vn 0.954506 0.298192 0.000000
vn 0.954506 0.298192 -0.000000
vn 0.350606 -0.936523 0.000000
vn 0.350606 -0.936523 0.000000
vn 0.950949 0.309346 0.000000
vn 0.950949 0.309346 -0.000000
vn 0.220741 -0.975332 0.000000
vn 0.220741 -0.975332 0.000000
vn 0.993142 0.116917 0.000000
vn 0.993142 0.116917 -0.000000
vn 0.281741 -0.959490 0.000000
vn 0.281741 -0.959490 0.000000
vn -0.914457 -0.404684 0.000000
vn -0.914457 -0.404684 0.000000
usemtl assumed_base
f 18//1 1//1 2//1
f 18//2 2//2 3//2
f 18//3 3//3 4//3
f 4//4 5//4 6//4
f 18//5 4//5 6//5
f 18//6 6//6 7//6
f 18//7 7//7 8//7
f 8//8 9//8 10//8
f 8//9 10//9 11//9
f 8//10 11//10 12//10
f 18//11 8//11 12//11
f 12//12 13//12 14//12
f 18//13 12//13 14//13
f 14//14 15//14 16//14
f 18//15 14//15 16//15
f 16//16 17//16 18//16
usemtl assumed_roof
f 36//17 20//17 19//17
f 36//18 21//18 20//18
f 36//19 22//19 21//19
f 22//20 24//20 23//20
f 36//21 24//21 22//21
f 36//22 25//22 24//22
f 36//23 26//23 25//23
f 26//24 28//24 27//24
f 26//25 29//25 28//25
f 26//26 30//26 29//26
f 36//27 30//27 26//27
f 30//28 32//28 31//28
f 36//29 32//29 30//29
f 32//30 34//30 33//30
f 36//31 34//31 32//31
f 34//32 36//32 35//32
usemtl assumed_wall
f 1//33 20//33 2//33
f 1//34 19//34 20//34
f 2//35 21//35 3//35
f 2//36 20//36 21//36
f 3//37 22//37 4//37
f 3//38 21//38 22//38
f 4//39 23//39 5//39
f 4//40 22//40 23//40
f 5//41 24//41 6//41
f 5//42 23//42 24//42
f 6//43 25//43 7//43
f 6//44 24//44 25//44
f 7//45 26//45 8//45
f 7//46 25//46 26//46
f 8//47 27//47 9//47
f 8//48 26//48 27//48
f 9//49 28//49 10//49
f 9//50 27//50 28//50
f 10//51 29//51 11//51
f 10//52 28//52 29//52
f 11//53 30//53 12//53
f 11//54 29//54 30//54
f 12//55 31//55 13//55
f 12//56 30//56 31//56
f 13//57 32//57 14//57
f 13//58 31//58 32//58
f 14//59 33//59 15//59
f 14//60 32//60 33//60
f 15//61 34//61 16//61
f 15//62 33//62 34//62
f 16//63 35//63 17//63
f 16//64 34//64 35//64
f 17//65 36//65 18//65
f 17//66 35//66 36//66
f 18//67 19//67 1//67
f 18//68 36//68 19//68
