# construction_1244_assumed_A_Casa
# source A_Casa
# h_campo 0.000000
# modeled_height 6.000000
# height_kind assumed
# local_origin_world_x 172001.034850
# local_origin_world_y 402500.144600
mtllib construction_artifacts.mtl

o construction_1244_assumed_A_Casa
v -3.588500 -1.628500 0.000000
v -2.372500 -1.138500 0.000000
v -4.277500 4.988500 0.000000
v -2.547500 8.739500 0.000000
v -6.335500 10.545500 0.000000
v -5.589500 15.134500 0.000000
v -0.070500 12.589500 0.000000
v 3.802500 18.041500 0.000000
v 7.954500 14.779500 0.000000
v 0.661500 7.592500 0.000000
v 3.068500 4.549500 0.000000
v 0.989500 2.923500 0.000000
v 3.092500 -0.193500 0.000000
v -0.580500 -2.206500 0.000000
v 4.628500 -11.389500 0.000000
v 0.707500 -11.770500 0.000000
v -4.356500 -18.041500 0.000000
v -7.954500 -15.982500 0.000000
v -1.462500 -5.529500 0.000000
v -3.588500 -1.628500 6.000000
v -2.372500 -1.138500 6.000000
v -4.277500 4.988500 6.000000
v -2.547500 8.739500 6.000000
v -6.335500 10.545500 6.000000
v -5.589500 15.134500 6.000000
v -0.070500 12.589500 6.000000
v 3.802500 18.041500 6.000000
v 7.954500 14.779500 6.000000
v 0.661500 7.592500 6.000000
v 3.068500 4.549500 6.000000
v 0.989500 2.923500 6.000000
v 3.092500 -0.193500 6.000000
v -0.580500 -2.206500 6.000000
v 4.628500 -11.389500 6.000000
v 0.707500 -11.770500 6.000000
v -4.356500 -18.041500 6.000000
v -7.954500 -15.982500 6.000000
v -1.462500 -5.529500 6.000000
vn 0.000000 0.000000 -1.000000
vn 0.000000 0.000000 -1.000000
vn 0.000000 0.000000 -1.000000
vn 0.000000 0.000000 -1.000000
vn 0.000000 0.000000 -1.000000
vn 0.000000 0.000000 -1.000000
vn 0.000000 0.000000 -1.000000
vn 0.000000 0.000000 -1.000000
vn 0.000000 0.000000 -1.000000
vn 0.000000 0.000000 -1.000000
vn 0.000000 -0.000000 -1.000000
vn 0.000000 -0.000000 -1.000000
vn 0.000000 0.000000 -1.000000
vn 0.000000 0.000000 -1.000000
vn 0.000000 0.000000 -1.000000
vn 0.000000 -0.000000 -1.000000
vn 0.000000 0.000000 -1.000000
vn 0.000000 0.000000 1.000000
vn 0.000000 0.000000 1.000000
vn 0.000000 0.000000 1.000000
vn 0.000000 0.000000 1.000000
vn 0.000000 -0.000000 1.000000
vn 0.000000 -0.000000 1.000000
vn 0.000000 0.000000 1.000000
vn -0.000000 0.000000 1.000000
vn 0.000000 0.000000 1.000000
vn 0.000000 0.000000 1.000000
vn 0.000000 0.000000 1.000000
vn 0.000000 0.000000 1.000000
vn 0.000000 0.000000 1.000000
vn -0.000000 0.000000 1.000000
vn 0.000000 0.000000 1.000000
vn 0.000000 0.000000 1.000000
vn 0.000000 -0.000000 1.000000
vn -0.373757 0.927527 0.000000
vn -0.373757 0.927527 0.000000
vn -0.954909 -0.296899 0.000000
vn -0.954909 -0.296899 0.000000
vn -0.908073 0.418813 0.000000
vn -0.908073 0.418813 0.000000
vn -0.430359 -0.902658 0.000000
vn -0.430359 -0.902658 0.000000
vn -0.987043 0.160456 0.000000
vn -0.987043 0.160456 0.000000
vn 0.418756 0.908099 0.000000
vn 0.418756 0.908099 -0.000000
vn -0.815236 0.579129 0.000000
vn -0.815236 0.579129 0.000000
vn 0.617788 0.786345 0.000000
vn 0.617788 0.786345 -0.000000
vn 0.701912 -0.712264 0.000000
vn 0.701912 -0.712264 0.000000
vn 0.784302 0.620379 0.000000
vn 0.784302 0.620379 -0.000000
vn 0.616063 -0.787697 0.000000
vn 0.616063 -0.787697 0.000000
vn 0.828969 0.559295 0.000000
vn 0.828969 0.559295 -0.000000
vn 0.480608 -0.876936 0.000000
vn 0.480608 -0.876936 0.000000
vn 0.869807 0.493393 0.000000
vn 0.869807 0.493393 -0.000000
vn 0.096714 -0.995312 0.000000
vn 0.096714 -0.995312 0.000000
vn 0.778004 -0.628259 0.000000
vn 0.778004 -0.628259 0.000000
vn -0.496684 -0.867931 0.000000
vn -0.496684 -0.867931 0.000000
vn -0.849497 0.527593 0.000000
vn -0.849497 0.527593 0.000000
vn -0.878068 -0.478537 0.000000
vn -0.878068 -0.478537 0.000000
usemtl assumed_base
f 19//1 1//1 2//1
f 2//2 3//2 4//2
f 19//3 2//3 4//3
f 4//4 5//4 6//4
f 4//5 6//5 7//5
f 19//6 4//6 7//6
f 7//7 8//7 9//7
f 7//8 9//8 10//8
f 19//9 7//9 10//9
f 10//10 11//10 12//10
f 12//11 13//11 14//11
f 10//12 12//12 14//12
f 19//13 10//13 14//13
f 19//14 14//14 15//14
f 19//15 15//15 16//15
f 19//16 16//16 17//16
f 17//17 18//17 19//17
usemtl assumed_roof
f 38//18 21//18 20//18
f 21//19 23//19 22//19
f 38//20 23//20 21//20
f 23//21 25//21 24//21
f 23//22 26//22 25//22
f 38//23 26//23 23//23
f 26//24 28//24 27//24
f 26//25 29//25 28//25
f 38//26 29//26 26//26
f 29//27 31//27 30//27
f 31//28 33//28 32//28
f 29//29 33//29 31//29
f 38//30 33//30 29//30
f 38//31 34//31 33//31
f 38//32 35//32 34//32
f 38//33 36//33 35//33
f 36//34 38//34 37//34
usemtl assumed_wall
f 1//35 21//35 2//35
f 1//36 20//36 21//36
f 2//37 22//37 3//37
f 2//38 21//38 22//38
f 3//39 23//39 4//39
f 3//40 22//40 23//40
f 4//41 24//41 5//41
f 4//42 23//42 24//42
f 5//43 25//43 6//43
f 5//44 24//44 25//44
f 6//45 26//45 7//45
f 6//46 25//46 26//46
f 7//47 27//47 8//47
f 7//48 26//48 27//48
f 8//49 28//49 9//49
f 8//50 27//50 28//50
f 9//51 29//51 10//51
f 9//52 28//52 29//52
f 10//53 30//53 11//53
f 10//54 29//54 30//54
f 11//55 31//55 12//55
f 11//56 30//56 31//56
f 12//57 32//57 13//57
f 12//58 31//58 32//58
f 13//59 33//59 14//59
f 13//60 32//60 33//60
f 14//61 34//61 15//61
f 14//62 33//62 34//62
f 15//63 35//63 16//63
f 15//64 34//64 35//64
f 16//65 36//65 17//65
f 16//66 35//66 36//66
f 17//67 37//67 18//67
f 17//68 36//68 37//68
f 18//69 38//69 19//69
f 18//70 37//70 38//70
f 19//71 20//71 1//71
f 19//72 38//72 20//72
