# construction_7105_assumed_A_Casa
# source A_Casa
# h_campo 0.000000
# modeled_height 6.000000
# height_kind assumed
# local_origin_world_x 172001.034850
# local_origin_world_y 402500.144600
mtllib construction_artifacts.mtl

o construction_7105_assumed_A_Casa
v 13.655000 -7.003500 0.000000
v 9.973000 -5.970500 0.000000
v 8.301000 -4.698500 0.000000
v 4.827000 -7.150500 0.000000
v 2.663000 -4.643500 0.000000
v 4.904000 -2.369500 0.000000
v -3.658000 3.592500 0.000000
v -9.787000 -5.106500 0.000000
v -9.248000 -5.415500 0.000000
v -12.088000 -8.679500 0.000000
v -13.923000 -6.815500 0.000000
v -15.379000 -6.823500 0.000000
v -18.267000 -12.497500 0.000000
v -22.264000 -10.291500 0.000000
v -21.984000 -9.654500 0.000000
v -16.175000 0.808500 0.000000
v -12.389000 5.550500 0.000000
v -10.295000 4.127500 0.000000
v -7.852000 6.931500 0.000000
v -9.223000 7.827500 0.000000
v -5.004000 12.497500 0.000000
v 4.678000 5.011500 0.000000
v 6.991000 7.601500 0.000000
v 10.759000 5.052500 0.000000
v 17.205000 -1.009500 0.000000
v 22.264000 -4.503500 0.000000
v 20.987000 -6.687500 0.000000
v 16.901000 -4.618500 0.000000
v 13.655000 -7.003500 6.000000
v 9.973000 -5.970500 6.000000
v 8.301000 -4.698500 6.000000
v 4.827000 -7.150500 6.000000
v 2.663000 -4.643500 6.000000
v 4.904000 -2.369500 6.000000
v -3.658000 3.592500 6.000000
v -9.787000 -5.106500 6.000000
v -9.248000 -5.415500 6.000000
v -12.088000 -8.679500 6.000000
v -13.923000 -6.815500 6.000000
v -15.379000 -6.823500 6.000000
v -18.267000 -12.497500 6.000000
v -22.264000 -10.291500 6.000000
v -21.984000 -9.654500 6.000000
v -16.175000 0.808500 6.000000
v -12.389000 5.550500 6.000000
v -10.295000 4.127500 6.000000
v -7.852000 6.931500 6.000000
v -9.223000 7.827500 6.000000
v -5.004000 12.497500 6.000000
v 4.678000 5.011500 6.000000
v 6.991000 7.601500 6.000000
v 10.759000 5.052500 6.000000
v 17.205000 -1.009500 6.000000
v 22.264000 -4.503500 6.000000
v 20.987000 -6.687500 6.000000
v 16.901000 -4.618500 6.000000
vn 0.000000 0.000000 -1.000000
vn 0.000000 0.000000 -1.000000
vn -0.000000 0.000000 -1.000000
vn 0.000000 0.000000 -1.000000
vn -0.000000 0.000000 -1.000000
vn 0.000000 0.000000 -1.000000
vn 0.000000 -0.000000 -1.000000
vn 0.000000 0.000000 -1.000000
vn 0.000000 0.000000 -1.000000
vn 0.000000 0.000000 -1.000000
vn 0.000000 0.000000 -1.000000
vn 0.000000 0.000000 -1.000000
vn 0.000000 0.000000 -1.000000
vn 0.000000 0.000000 -1.000000
vn 0.000000 0.000000 -1.000000
vn -0.000000 0.000000 -1.000000
vn 0.000000 0.000000 -1.000000
vn 0.000000 0.000000 -1.000000
vn 0.000000 0.000000 -1.000000
vn 0.000000 0.000000 -1.000000
vn 0.000000 0.000000 -1.000000
vn 0.000000 0.000000 -1.000000
vn 0.000000 0.000000 -1.000000
vn 0.000000 0.000000 -1.000000
vn 0.000000 0.000000 -1.000000
vn 0.000000 0.000000 -1.000000
vn 0.000000 0.000000 1.000000
vn 0.000000 0.000000 1.000000
vn 0.000000 0.000000 1.000000
vn 0.000000 0.000000 1.000000
vn 0.000000 0.000000 1.000000
vn 0.000000 0.000000 1.000000
vn 0.000000 0.000000 1.000000
vn 0.000000 0.000000 1.000000
vn 0.000000 0.000000 1.000000
vn 0.000000 0.000000 1.000000
vn 0.000000 0.000000 1.000000
vn 0.000000 0.000000 1.000000
vn 0.000000 0.000000 1.000000
vn 0.000000 0.000000 1.000000
vn 0.000000 0.000000 1.000000
vn 0.000000 0.000000 1.000000
vn 0.000000 0.000000 1.000000
vn 0.000000 0.000000 1.000000
vn 0.000000 0.000000 1.000000
vn 0.000000 0.000000 1.000000
vn 0.000000 0.000000 1.000000
vn 0.000000 0.000000 1.000000
vn 0.000000 0.000000 1.000000
vn 0.000000 -0.000000 1.000000
vn 0.000000 0.000000 1.000000
vn 0.000000 0.000000 1.000000
vn -0.270125 -0.962825 0.000000
vn -0.270125 -0.962825 0.000000
vn -0.605469 -0.795869 0.000000
vn -0.605469 -0.795869 0.000000
vn 0.576646 -0.816994 0.000000
vn 0.576646 -0.816994 0.000000
vn -0.756993 -0.653423 0.000000
vn -0.756993 -0.653423 0.000000
vn -0.712256 0.701920 0.000000
vn -0.712256 0.701920 0.000000
vn -0.571441 -0.820643 0.000000
vn -0.571441 -0.820643 0.000000
vn 0.817475 -0.575964 0.000000
vn 0.817475 -0.575964 0.000000
vn 0.497352 0.867549 0.000000
vn 0.497352 0.867549 -0.000000
vn 0.754406 -0.656408 0.000000
vn 0.754406 -0.656408 0.000000
vn -0.712629 -0.701542 0.000000
vn -0.712629 -0.701542 0.000000
vn 0.005494 -0.999985 0.000000
vn 0.005494 -0.999985 0.000000
vn 0.891200 -0.453610 0.000000
vn 0.891200 -0.453610 0.000000
vn -0.483205 -0.875507 0.000000
vn -0.483205 -0.875507 0.000000
vn -0.915463 0.402401 0.000000
vn -0.915463 0.402401 0.000000
vn -0.874291 0.485402 0.000000
vn -0.874291 0.485402 0.000000
vn -0.781479 0.623931 0.000000
vn -0.781479 0.623931 0.000000
vn 0.562062 0.827095 0.000000
vn 0.562062 0.827095 -0.000000
vn -0.753974 0.656904 0.000000
vn -0.753974 0.656904 0.000000
vn -0.547068 -0.837088 0.000000
vn -0.547068 -0.837088 0.000000
vn -0.742029 0.670368 0.000000
vn -0.742029 0.670368 0.000000
vn 0.611675 0.791109 0.000000
vn 0.611675 0.791109 -0.000000
vn -0.745866 0.666096 0.000000
vn -0.745866 0.666096 0.000000
vn 0.560318 0.828277 0.000000
vn 0.560318 0.828277 -0.000000
vn 0.685076 0.728472 0.000000
vn 0.685076 0.728472 -0.000000
vn 0.568288 0.822830 0.000000
vn 0.568288 0.822830 -0.000000
vn 0.863262 -0.504756 0.000000
vn 0.863262 -0.504756 0.000000
vn -0.451749 -0.892145 0.000000
vn -0.451749 -0.892145 0.000000
vn 0.592106 -0.805860 0.000000
vn 0.592106 -0.805860 0.000000
usemtl assumed_base
f 28//1 1//1 2//1
f 28//2 2//2 3//2
f 3//3 4//3 5//3
f 28//4 3//4 5//4
f 28//5 5//5 6//5
f 28//6 6//6 7//6
f 8//7 9//7 10//7
f 8//8 10//8 11//8
f 7//9 8//9 11//9
f 7//10 11//10 12//10
f 12//11 13//11 14//11
f 7//12 12//12 14//12
f 7//13 14//13 15//13
f 7//14 15//14 16//14
f 16//15 17//15 18//15
f 7//16 16//16 18//16
f 7//17 18//17 19//17
f 28//18 7//18 19//18
f 28//19 19//19 20//19
f 28//20 20//20 21//20
f 28//21 21//21 22//21
f 28//22 22//22 23//22
f 28//23 23//23 24//23
f 28//24 24//24 25//24
f 28//25 25//25 26//25
f 26//26 27//26 28//26
usemtl assumed_roof
f 56//27 30//27 29//27
f 56//28 31//28 30//28
f 31//29 33//29 32//29
f 56//30 33//30 31//30
f 56//31 34//31 33//31
f 56//32 35//32 34//32
f 36//33 38//33 37//33
f 36//34 39//34 38//34
f 35//35 39//35 36//35
f 35//36 40//36 39//36
f 40//37 42//37 41//37
f 35//38 42//38 40//38
f 35//39 43//39 42//39
f 35//40 44//40 43//40
f 44//41 46//41 45//41
f 35//42 46//42 44//42
f 35//43 47//43 46//43
f 56//44 47//44 35//44
f 56//45 48//45 47//45
f 56//46 49//46 48//46
f 56//47 50//47 49//47
f 56//48 51//48 50//48
f 56//49 52//49 51//49
f 56//50 53//50 52//50
f 56//51 54//51 53//51
f 54//52 56//52 55//52
usemtl assumed_wall
f 1//53 30//53 2//53
f 1//54 29//54 30//54
f 2//55 31//55 3//55
f 2//56 30//56 31//56
f 3//57 32//57 4//57
f 3//58 31//58 32//58
f 4//59 33//59 5//59
f 4//60 32//60 33//60
f 5//61 34//61 6//61
f 5//62 33//62 34//62
f 6//63 35//63 7//63
f 6//64 34//64 35//64
f 7//65 36//65 8//65
f 7//66 35//66 36//66
f 8//67 37//67 9//67
f 8//68 36//68 37//68
f 9//69 38//69 10//69
f 9//70 37//70 38//70
f 10//71 39//71 11//71
f 10//72 38//72 39//72
f 11//73 40//73 12//73
f 11//74 39//74 40//74
f 12//75 41//75 13//75
f 12//76 40//76 41//76
f 13//77 42//77 14//77
f 13//78 41//78 42//78
f 14//79 43//79 15//79
f 14//80 42//80 43//80
f 15//81 44//81 16//81
f 15//82 43//82 44//82
f 16//83 45//83 17//83
f 16//84 44//84 45//84
f 17//85 46//85 18//85
f 17//86 45//86 46//86
f 18//87 47//87 19//87
f 18//88 46//88 47//88
f 19//89 48//89 20//89
f 19//90 47//90 48//90
f 20//91 49//91 21//91
f 20//92 48//92 49//92
f 21//93 50//93 22//93
f 21//94 49//94 50//94
f 22//95 51//95 23//95
f 22//96 50//96 51//96
f 23//97 52//97 24//97
f 23//98 51//98 52//98
f 24//99 53//99 25//99
f 24//100 52//100 53//100
f 25//101 54//101 26//101
f 25//102 53//102 54//102
f 26//103 55//103 27//103
f 26//104 54//104 55//104
f 27//105 56//105 28//105
f 27//106 55//106 56//106
f 28//107 29//107 1//107
f 28//108 56//108 29//108
