# construction_0700_assumed_A_Casa
# source A_Casa
# h_campo 0.000000
# modeled_height 6.000000
# height_kind assumed
# local_origin_world_x 172001.034850
# local_origin_world_y 402500.144600
mtllib construction_artifacts.mtl

o construction_0700_assumed_A_Casa
v -9.448500 10.726500 0.000000
v 1.812500 13.672500 0.000000
v 2.169500 12.010500 0.000000
v 3.182500 11.734500 0.000000
v 5.509500 2.808500 0.000000
v 6.743500 3.365500 0.000000
v 9.448500 -6.930500 0.000000
v 4.474500 -8.125500 0.000000
v 5.155500 -11.505500 0.000000
v -3.164500 -13.672500 0.000000
v -3.828500 -11.213500 0.000000
v -5.839500 -11.549500 0.000000
v -8.329500 -1.645500 0.000000
v -7.206500 -1.415500 0.000000
v -8.364500 3.019500 0.000000
v -7.231500 3.508500 0.000000
v -9.448500 10.726500 6.000000
v 1.812500 13.672500 6.000000
v 2.169500 12.010500 6.000000
v 3.182500 11.734500 6.000000
v 5.509500 2.808500 6.000000
v 6.743500 3.365500 6.000000
v 9.448500 -6.930500 6.000000
v 4.474500 -8.125500 6.000000
v 5.155500 -11.505500 6.000000
v -3.164500 -13.672500 6.000000
v -3.828500 -11.213500 6.000000
v -5.839500 -11.549500 6.000000
v -8.329500 -1.645500 6.000000
v -7.206500 -1.415500 6.000000
v -8.364500 3.019500 6.000000
v -7.231500 3.508500 6.000000
vn 0.000000 0.000000 -1.000000
vn 0.000000 0.000000 -1.000000
vn 0.000000 0.000000 -1.000000
vn 0.000000 0.000000 -1.000000
vn 0.000000 0.000000 -1.000000
vn 0.000000 0.000000 -1.000000
vn 0.000000 0.000000 -1.000000
vn 0.000000 0.000000 -1.000000
vn 0.000000 0.000000 -1.000000
vn 0.000000 0.000000 -1.000000
vn 0.000000 0.000000 -1.000000
vn 0.000000 0.000000 -1.000000
vn 0.000000 0.000000 -1.000000
vn 0.000000 0.000000 -1.000000
vn 0.000000 -0.000000 1.000000
vn 0.000000 0.000000 1.000000
vn 0.000000 0.000000 1.000000
vn -0.000000 0.000000 1.000000
vn -0.000000 0.000000 1.000000
vn 0.000000 0.000000 1.000000
vn 0.000000 0.000000 1.000000
vn 0.000000 0.000000 1.000000
vn 0.000000 0.000000 1.000000
vn 0.000000 0.000000 1.000000
vn 0.000000 0.000000 1.000000
vn 0.000000 0.000000 1.000000
vn 0.000000 0.000000 1.000000
vn 0.000000 0.000000 1.000000
vn -0.253093 0.967442 0.000000
vn -0.253093 0.967442 0.000000
vn 0.977699 0.210011 0.000000
vn 0.977699 0.210011 -0.000000
vn 0.262876 0.964830 0.000000
vn 0.262876 0.964830 -0.000000
vn 0.967658 0.252267 0.000000
vn 0.967658 0.252267 -0.000000
vn -0.411409 0.911451 0.000000
vn -0.411409 0.911451 0.000000
vn 0.967178 0.254100 0.000000
vn 0.967178 0.254100 -0.000000
vn 0.233602 -0.972332 0.000000
vn 0.233602 -0.972332 0.000000
vn 0.980301 0.197510 0.000000
vn 0.980301 0.197510 -0.000000
vn 0.252048 -0.967715 0.000000
vn 0.252048 -0.967715 0.000000
vn -0.965422 -0.260691 0.000000
vn -0.965422 -0.260691 0.000000
vn 0.164797 -0.986328 0.000000
vn 0.164797 -0.986328 0.000000
vn -0.969819 -0.243826 0.000000
vn -0.969819 -0.243826 0.000000
vn -0.200644 0.979664 0.000000
vn -0.200644 0.979664 0.000000
vn -0.967562 -0.252635 0.000000
vn -0.967562 -0.252635 0.000000
vn -0.396265 0.918136 0.000000
vn -0.396265 0.918136 0.000000
vn -0.955925 -0.293611 0.000000
vn -0.955925 -0.293611 0.000000
usemtl assumed_base
f 16//1 1//1 2//1
f 16//2 2//2 3//2
f 16//3 3//3 4//3
f 16//4 4//4 5//4
f 5//5 6//5 7//5
f 16//6 5//6 7//6
f 16//7 7//7 8//7
f 16//8 8//8 9//8
f 16//9 9//9 10//9
f 16//10 10//10 11//10
f 16//11 11//11 12//11
f 12//12 13//12 14//12
f 16//13 12//13 14//13
f 14//14 15//14 16//14
usemtl assumed_roof
f 32//15 18//15 17//15
f 32//16 19//16 18//16
f 32//17 20//17 19//17
f 32//18 21//18 20//18
f 21//19 23//19 22//19
f 32//20 23//20 21//20
f 32//21 24//21 23//21
f 32//22 25//22 24//22
f 32//23 26//23 25//23
f 32//24 27//24 26//24
f 32//25 28//25 27//25
f 28//26 30//26 29//26
f 32//27 30//27 28//27
f 30//28 32//28 31//28
usemtl assumed_wall
f 1//29 18//29 2//29
f 1//30 17//30 18//30
f 2//31 19//31 3//31
f 2//32 18//32 19//32
f 3//33 20//33 4//33
f 3//34 19//34 20//34
f 4//35 21//35 5//35
f 4//36 20//36 21//36
f 5//37 22//37 6//37
f 5//38 21//38 22//38
f 6//39 23//39 7//39
f 6//40 22//40 23//40
f 7//41 24//41 8//41
f 7//42 23//42 24//42
f 8//43 25//43 9//43
f 8//44 24//44 25//44
f 9//45 26//45 10//45
f 9//46 25//46 26//46
f 10//47 27//47 11//47
f 10//48 26//48 27//48
f 11//49 28//49 12//49
f 11//50 27//50 28//50
f 12//51 29//51 13//51
f 12//52 28//52 29//52
f 13//53 30//53 14//53
f 13//54 29//54 30//54
f 14//55 31//55 15//55
f 14//56 30//56 31//56
f 15//57 32//57 16//57
f 15//58 31//58 32//58
f 16//59 17//59 1//59
f 16//60 32//60 17//60
