# construction_1819_assumed_A_Casa
# source A_Casa
# h_campo 0.000000
# modeled_height 6.000000
# height_kind assumed
# local_origin_world_x 172001.034850
# local_origin_world_y 402500.144600
mtllib construction_artifacts.mtl

o construction_1819_assumed_A_Casa
v -13.970500 -7.792000 0.000000
v -13.962500 -6.825000 0.000000
v -15.280500 -7.107000 0.000000
v -16.443500 2.257000 0.000000
v -15.588500 2.352000 0.000000
v -16.276500 7.687000 0.000000
v 9.864500 11.619000 0.000000
v 15.522500 11.934000 0.000000
v 16.443500 6.012000 0.000000
v 11.263500 5.030000 0.000000
v 12.289500 -3.199000 0.000000
v 12.396500 -5.257000 0.000000
v 14.499500 -5.274000 0.000000
v 14.461500 -10.053000 0.000000
v -0.711500 -11.934000 0.000000
v -1.576500 -6.035000 0.000000
v -13.970500 -7.792000 6.000000
v -13.962500 -6.825000 6.000000
v -15.280500 -7.107000 6.000000
v -16.443500 2.257000 6.000000
v -15.588500 2.352000 6.000000
v -16.276500 7.687000 6.000000
v 9.864500 11.619000 6.000000
v 15.522500 11.934000 6.000000
v 16.443500 6.012000 6.000000
v 11.263500 5.030000 6.000000
v 12.289500 -3.199000 6.000000
v 12.396500 -5.257000 6.000000
v 14.499500 -5.274000 6.000000
v 14.461500 -10.053000 6.000000
v -0.711500 -11.934000 6.000000
v -1.576500 -6.035000 6.000000
vn 0.000000 0.000000 -1.000000
vn -0.000000 0.000000 -1.000000
vn -0.000000 0.000000 -1.000000
vn 0.000000 0.000000 -1.000000
vn 0.000000 0.000000 -1.000000
vn 0.000000 0.000000 -1.000000
vn 0.000000 0.000000 -1.000000
vn 0.000000 -0.000000 -1.000000
vn 0.000000 0.000000 -1.000000
vn 0.000000 0.000000 -1.000000
vn 0.000000 0.000000 -1.000000
vn 0.000000 0.000000 -1.000000
vn 0.000000 0.000000 -1.000000
vn -0.000000 0.000000 -1.000000
vn 0.000000 0.000000 1.000000
vn 0.000000 0.000000 1.000000
vn 0.000000 0.000000 1.000000
vn 0.000000 0.000000 1.000000
vn 0.000000 0.000000 1.000000
vn 0.000000 -0.000000 1.000000
vn 0.000000 0.000000 1.000000
vn 0.000000 0.000000 1.000000
vn 0.000000 0.000000 1.000000
vn 0.000000 0.000000 1.000000
vn 0.000000 0.000000 1.000000
vn 0.000000 0.000000 1.000000
vn -0.000000 0.000000 1.000000
vn 0.000000 0.000000 1.000000
vn -0.999966 0.008273 0.000000
vn -0.999966 0.008273 0.000000
vn 0.209225 -0.977868 0.000000
vn 0.209225 -0.977868 0.000000
vn -0.992375 -0.123252 0.000000
vn -0.992375 -0.123252 0.000000
vn -0.110432 0.993884 0.000000
vn -0.110432 0.993884 0.000000
vn -0.991787 -0.127901 0.000000
vn -0.991787 -0.127901 0.000000
vn -0.148742 0.988876 0.000000
vn -0.148742 0.988876 0.000000
vn -0.055587 0.998454 0.000000
vn -0.055587 0.998454 0.000000
vn 0.988122 0.153674 0.000000
vn 0.988122 0.153674 -0.000000
vn 0.186258 -0.982501 0.000000
vn 0.186258 -0.982501 0.000000
vn 0.992317 0.123723 0.000000
vn 0.992317 0.123723 -0.000000
vn 0.998651 0.051922 0.000000
vn 0.998651 0.051922 -0.000000
vn 0.008083 0.999967 0.000000
vn 0.008083 0.999967 -0.000000
vn 0.999968 -0.007951 0.000000
vn 0.999968 -0.007951 0.000000
vn 0.123028 -0.992403 0.000000
vn 0.123028 -0.992403 0.000000
vn -0.989419 -0.145084 0.000000
vn -0.989419 -0.145084 0.000000
vn 0.140359 -0.990101 0.000000
vn 0.140359 -0.990101 0.000000
usemtl assumed_base
f 16//1 1//1 2//1
f 2//2 3//2 4//2
f 16//3 2//3 4//3
f 16//4 4//4 5//4
f 16//5 5//5 6//5
f 16//6 6//6 7//6
f 16//7 7//7 8//7
f 8//8 9//8 10//8
f 16//9 8//9 10//9
f 16//10 10//10 11//10
f 16//11 11//11 12//11
f 16//12 12//12 13//12
f 16//13 13//13 14//13
f 14//14 15//14 16//14
usemtl assumed_roof
f 32//15 18//15 17//15
f 18//16 20//16 19//16
f 32//17 20//17 18//17
f 32//18 21//18 20//18
f 32//19 22//19 21//19
f 32//20 23//20 22//20
f 32//21 24//21 23//21
f 24//22 26//22 25//22
f 32//23 26//23 24//23
f 32//24 27//24 26//24
f 32//25 28//25 27//25
f 32//26 29//26 28//26
f 32//27 30//27 29//27
f 30//28 32//28 31//28
usemtl assumed_wall
f 1//29 18//29 2//29
f 1//30 17//30 18//30
f 2//31 19//31 3//31
f 2//32 18//32 19//32
f 3//33 20//33 4//33
f 3//34 19//34 20//34
f 4//35 21//35 5//35
f 4//36 20//36 21//36
f 5//37 22//37 6//37
f 5//38 21//38 22//38
f 6//39 23//39 7//39
f 6//40 22//40 23//40
f 7//41 24//41 8//41
f 7//42 23//42 24//42
f 8//43 25//43 9//43
f 8//44 24//44 25//44
f 9//45 26//45 10//45
f 9//46 25//46 26//46
f 10//47 27//47 11//47
f 10//48 26//48 27//48
f 11//49 28//49 12//49
f 11//50 27//50 28//50
f 12//51 29//51 13//51
f 12//52 28//52 29//52
f 13//53 30//53 14//53
f 13//54 29//54 30//54
f 14//55 31//55 15//55
f 14//56 30//56 31//56
f 15//57 32//57 16//57
f 15//58 31//58 32//58
f 16//59 17//59 1//59
f 16//60 32//60 17//60
