# construction_3408_assumed_A_Casa
# source A_Casa
# h_campo 0.000000
# modeled_height 6.000000
# height_kind assumed
# local_origin_world_x 172001.034850
# local_origin_world_y 402500.144600
mtllib construction_artifacts.mtl

o construction_3408_assumed_A_Casa
v -9.026500 11.217000 0.000000
v -8.469500 10.133000 0.000000
v -15.000500 6.709000 0.000000
v -10.977500 -0.207000 0.000000
v -9.848500 -0.889000 0.000000
v -9.221500 -1.973000 0.000000
v 3.397500 4.444000 0.000000
v 6.289500 -2.273000 0.000000
v 3.904500 -3.889000 0.000000
v 1.789500 -0.509000 0.000000
v -0.958500 -2.026000 0.000000
v 1.243500 -5.820000 0.000000
v 8.656500 -3.599000 0.000000
v 7.894500 -1.550000 0.000000
v 10.208500 -0.928000 0.000000
v 10.540500 -1.735000 0.000000
v 12.637500 -0.846000 0.000000
v 11.936500 1.537000 0.000000
v 4.419500 10.893000 0.000000
v 15.744500 19.172000 0.000000
v 33.456500 -2.361000 0.000000
v 22.969500 -9.915000 0.000000
v 18.925500 -3.500000 0.000000
v 14.759500 -5.308000 0.000000
v 14.045500 -3.870000 0.000000
v 6.639500 -7.055000 0.000000
v 7.743500 -9.694000 0.000000
v 2.604500 -11.243000 0.000000
v 1.620500 -8.064000 0.000000
v -2.161500 -9.577000 0.000000
v -3.079500 -10.431000 0.000000
v -8.375500 -11.920000 0.000000
v -7.341500 -21.799000 0.000000
v -14.833500 -20.872000 0.000000
v -20.921500 -17.511000 0.000000
v -23.352500 -14.503000 0.000000
v -28.027500 -8.637000 0.000000
v -30.599500 -3.485000 0.000000
v -33.456500 1.962000 0.000000
v -16.823500 12.282000 0.000000
v -15.610500 10.164000 0.000000
v -7.077500 14.851000 0.000000
v -10.650500 20.783000 0.000000
v -8.287500 21.799000 0.000000
v -5.011500 15.041000 0.000000
v -6.223500 14.189000 0.000000
v -5.351500 12.957000 0.000000
v -9.026500 11.217000 6.000000
v -8.469500 10.133000 6.000000
v -15.000500 6.709000 6.000000
v -10.977500 -0.207000 6.000000
v -9.848500 -0.889000 6.000000
v -9.221500 -1.973000 6.000000
v 3.397500 4.444000 6.000000
v 6.289500 -2.273000 6.000000
v 3.904500 -3.889000 6.000000
v 1.789500 -0.509000 6.000000
v -0.958500 -2.026000 6.000000
v 1.243500 -5.820000 6.000000
v 8.656500 -3.599000 6.000000
v 7.894500 -1.550000 6.000000
v 10.208500 -0.928000 6.000000
v 10.540500 -1.735000 6.000000
v 12.637500 -0.846000 6.000000
v 11.936500 1.537000 6.000000
v 4.419500 10.893000 6.000000
v 15.744500 19.172000 6.000000
v 33.456500 -2.361000 6.000000
v 22.969500 -9.915000 6.000000
v 18.925500 -3.500000 6.000000
v 14.759500 -5.308000 6.000000
v 14.045500 -3.870000 6.000000
v 6.639500 -7.055000 6.000000
v 7.743500 -9.694000 6.000000
v 2.604500 -11.243000 6.000000
v 1.620500 -8.064000 6.000000
v -2.161500 -9.577000 6.000000
v -3.079500 -10.431000 6.000000
v -8.375500 -11.920000 6.000000
v -7.341500 -21.799000 6.000000
v -14.833500 -20.872000 6.000000
v -20.921500 -17.511000 6.000000
v -23.352500 -14.503000 6.000000
v -28.027500 -8.637000 6.000000
v -30.599500 -3.485000 6.000000
v -33.456500 1.962000 6.000000
v -16.823500 12.282000 6.000000
v -15.610500 10.164000 6.000000
v -7.077500 14.851000 6.000000
v -10.650500 20.783000 6.000000
v -8.287500 21.799000 6.000000
v -5.011500 15.041000 6.000000
v -6.223500 14.189000 6.000000
v -5.351500 12.957000 6.000000
v -25.671500 -0.981000 0.000000
v -23.278500 -4.188000 0.000000
v -19.333500 -4.553000 0.000000
v -18.184500 -5.290000 0.000000
v -13.195500 -3.078000 0.000000
v -15.051500 -1.808000 0.000000
v -18.537500 4.234000 0.000000
v -21.264500 1.282000 0.000000
v -25.671500 -0.981000 6.000000
v -23.278500 -4.188000 6.000000
v -19.333500 -4.553000 6.000000
v -18.184500 -5.290000 6.000000
v -13.195500 -3.078000 6.000000
v -15.051500 -1.808000 6.000000
v -18.537500 4.234000 6.000000
v -21.264500 1.282000 6.000000
vn 0.000000 -0.000000 -1.000000
vn 0.000000 0.000000 -1.000000
vn 0.000000 0.000000 -1.000000
vn 0.000000 -0.000000 -1.000000
vn 0.000000 0.000000 -1.000000
vn 0.000000 0.000000 -1.000000
vn 0.000000 0.000000 -1.000000
vn 0.000000 0.000000 -1.000000
vn 0.000000 0.000000 -1.000000
vn 0.000000 0.000000 -1.000000
vn 0.000000 0.000000 -1.000000
vn 0.000000 0.000000 -1.000000
vn 0.000000 0.000000 -1.000000
vn 0.000000 0.000000 -1.000000
vn 0.000000 0.000000 -1.000000
vn 0.000000 0.000000 -1.000000
vn 0.000000 0.000000 -1.000000
vn 0.000000 0.000000 -1.000000
vn 0.000000 0.000000 -1.000000
vn 0.000000 0.000000 -1.000000
vn 0.000000 0.000000 -1.000000
vn 0.000000 0.000000 -1.000000
vn -0.000000 0.000000 -1.000000
vn 0.000000 0.000000 -1.000000
vn 0.000000 0.000000 -1.000000
vn 0.000000 0.000000 -1.000000
vn 0.000000 0.000000 -1.000000
vn 0.000000 0.000000 -1.000000
vn 0.000000 0.000000 -1.000000
vn 0.000000 0.000000 -1.000000
vn 0.000000 0.000000 -1.000000
vn 0.000000 -0.000000 -1.000000
vn 0.000000 0.000000 -1.000000
vn 0.000000 0.000000 -1.000000
vn 0.000000 0.000000 -1.000000
vn 0.000000 0.000000 -1.000000
vn 0.000000 0.000000 -1.000000
vn 0.000000 0.000000 -1.000000
vn 0.000000 0.000000 -1.000000
vn 0.000000 0.000000 -1.000000
vn -0.000000 0.000000 -1.000000
vn 0.000000 0.000000 -1.000000
vn 0.000000 0.000000 -1.000000
vn 0.000000 0.000000 -1.000000
vn 0.000000 0.000000 -1.000000
vn 0.000000 0.000000 -1.000000
vn 0.000000 -0.000000 -1.000000
vn 0.000000 0.000000 -1.000000
vn 0.000000 0.000000 -1.000000
vn 0.000000 0.000000 -1.000000
vn 0.000000 0.000000 -1.000000
vn 0.000000 0.000000 1.000000
vn 0.000000 0.000000 1.000000
vn 0.000000 0.000000 1.000000
vn 0.000000 0.000000 1.000000
vn 0.000000 0.000000 1.000000
vn -0.000000 0.000000 1.000000
vn 0.000000 0.000000 1.000000
vn 0.000000 -0.000000 1.000000
vn 0.000000 0.000000 1.000000
vn 0.000000 0.000000 1.000000
vn 0.000000 -0.000000 1.000000
vn 0.000000 -0.000000 1.000000
vn -0.000000 0.000000 1.000000
vn 0.000000 0.000000 1.000000
vn 0.000000 0.000000 1.000000
vn 0.000000 0.000000 1.000000
vn 0.000000 0.000000 1.000000
vn -0.000000 0.000000 1.000000
vn 0.000000 0.000000 1.000000
vn -0.000000 0.000000 1.000000
vn 0.000000 0.000000 1.000000
vn 0.000000 0.000000 1.000000
vn 0.000000 0.000000 1.000000
vn 0.000000 0.000000 1.000000
vn 0.000000 0.000000 1.000000
vn 0.000000 0.000000 1.000000
vn 0.000000 0.000000 1.000000
vn 0.000000 0.000000 1.000000
vn 0.000000 0.000000 1.000000
vn 0.000000 0.000000 1.000000
vn 0.000000 0.000000 1.000000
vn 0.000000 0.000000 1.000000
vn 0.000000 0.000000 1.000000
vn 0.000000 0.000000 1.000000
vn 0.000000 0.000000 1.000000
vn 0.000000 0.000000 1.000000
vn 0.000000 0.000000 1.000000
vn 0.000000 0.000000 1.000000
vn 0.000000 0.000000 1.000000
vn 0.000000 0.000000 1.000000
vn 0.000000 0.000000 1.000000
vn 0.000000 0.000000 1.000000
vn 0.000000 -0.000000 1.000000
vn -0.000000 0.000000 1.000000
vn 0.000000 0.000000 1.000000
vn 0.000000 0.000000 1.000000
vn 0.000000 0.000000 1.000000
vn 0.000000 0.000000 1.000000
vn 0.000000 0.000000 1.000000
vn 0.000000 0.000000 1.000000
vn 0.000000 0.000000 1.000000
vn 0.889450 0.457033 0.000000
vn 0.889450 0.457033 -0.000000
vn 0.464326 -0.885664 0.000000
vn 0.464326 -0.885664 0.000000
vn 0.864395 0.502814 0.000000
vn 0.864395 0.502814 -0.000000
vn 0.517058 0.855950 0.000000
vn 0.517058 0.855950 -0.000000
vn 0.865627 0.500690 0.000000
vn 0.865627 0.500690 -0.000000
vn -0.453278 0.891369 0.000000
vn -0.453278 0.891369 0.000000
vn 0.918486 0.395454 0.000000
vn 0.918486 0.395454 -0.000000
vn 0.560933 -0.827861 0.000000
vn 0.560933 -0.827861 0.000000
vn -0.847716 -0.530450 0.000000
vn -0.847716 -0.530450 0.000000
vn 0.483288 -0.875461 0.000000
vn 0.483288 -0.875461 0.000000
vn 0.864885 0.501971 0.000000
vn 0.864885 0.501971 -0.000000
vn -0.287004 0.957929 0.000000
vn -0.287004 0.957929 0.000000
vn -0.937284 -0.348566 0.000000
vn -0.937284 -0.348566 0.000000
vn -0.259584 0.965720 0.000000
vn -0.259584 0.965720 0.000000
vn 0.924797 0.380462 0.000000
vn 0.924797 0.380462 -0.000000
vn -0.390313 0.920682 0.000000
vn -0.390313 0.920682 0.000000
vn -0.959353 -0.282210 0.000000
vn -0.959353 -0.282210 0.000000
vn -0.779558 -0.626330 0.000000
vn -0.779558 -0.626330 0.000000
vn -0.590158 0.807288 0.000000
vn -0.590158 0.807288 0.000000
vn 0.772301 0.635257 0.000000
vn 0.772301 0.635257 -0.000000
vn 0.584476 -0.811411 0.000000
vn 0.584476 -0.811411 0.000000
vn -0.845940 -0.533278 0.000000
vn -0.845940 -0.533278 0.000000
vn 0.398114 -0.917336 0.000000
vn 0.398114 -0.917336 0.000000
vn -0.895669 -0.444720 0.000000
vn -0.895669 -0.444720 0.000000
vn 0.395072 -0.918650 0.000000
vn 0.395072 -0.918650 0.000000
vn 0.922528 0.385931 0.000000
vn 0.922528 0.385931 -0.000000
vn 0.288595 -0.957451 0.000000
vn 0.288595 -0.957451 0.000000
vn -0.955284 -0.295690 0.000000
vn -0.955284 -0.295690 0.000000
vn 0.371433 -0.928460 0.000000
vn 0.371433 -0.928460 0.000000
vn 0.681124 -0.732168 0.000000
vn 0.681124 -0.732168 0.000000
vn 0.270661 -0.962675 0.000000
vn 0.270661 -0.962675 0.000000
vn 0.994567 0.104098 0.000000
vn 0.994567 0.104098 -0.000000
vn -0.122796 -0.992432 0.000000
vn -0.122796 -0.992432 0.000000
vn -0.483309 -0.875450 0.000000
vn -0.483309 -0.875450 0.000000
vn -0.777756 -0.628566 0.000000
vn -0.777756 -0.628566 0.000000
vn -0.782025 -0.623247 0.000000
vn -0.782025 -0.623247 0.000000
vn -0.894705 -0.446658 0.000000
vn -0.894705 -0.446658 0.000000
vn -0.885577 -0.464493 0.000000
vn -0.885577 -0.464493 0.000000
vn -0.527218 0.849730 0.000000
vn -0.527218 0.849730 0.000000
vn 0.867764 0.496977 0.000000
vn 0.867764 0.496977 -0.000000
vn -0.481434 0.876483 0.000000
vn -0.481434 0.876483 0.000000
vn -0.856613 -0.515960 0.000000
vn -0.856613 -0.515960 0.000000
vn -0.394998 0.918682 0.000000
vn -0.394998 0.918682 0.000000
vn 0.899846 0.436208 0.000000
vn 0.899846 0.436208 -0.000000
vn 0.575092 -0.818089 0.000000
vn 0.575092 -0.818089 0.000000
vn 0.816233 0.577723 0.000000
vn 0.816233 0.577723 -0.000000
vn 0.427928 -0.903813 0.000000
vn 0.427928 -0.903813 0.000000
vn -0.801467 -0.598039 0.000000
vn -0.801467 -0.598039 0.000000
vn -0.092129 -0.995747 0.000000
vn -0.092129 -0.995747 0.000000
vn -0.539906 -0.841725 0.000000
vn -0.539906 -0.841725 0.000000
vn 0.405322 -0.914174 0.000000
vn 0.405322 -0.914174 0.000000
vn 0.564716 0.825285 0.000000
vn 0.564716 0.825285 -0.000000
vn 0.866171 0.499747 0.000000
vn 0.866171 0.499747 -0.000000
vn -0.734546 0.678559 0.000000
vn -0.734546 0.678559 0.000000
vn -0.456796 0.889571 0.000000
vn -0.456796 0.889571 0.000000
usemtl assumed_base
f 1//1 2//1 3//1
f 4//2 5//2 6//2
f 7//3 8//3 9//3
f 7//4 9//4 10//4
f 6//5 7//5 10//5
f 6//6 10//6 11//6
f 6//7 11//7 12//7
f 13//8 14//8 15//8
f 13//9 15//9 16//9
f 13//10 16//10 17//10
f 18//11 19//11 20//11
f 17//12 18//12 20//12
f 17//13 20//13 21//13
f 13//14 17//14 21//14
f 21//15 22//15 23//15
f 13//16 21//16 23//16
f 23//17 24//17 25//17
f 13//18 23//18 25//18
f 12//19 13//19 25//19
f 12//20 25//20 26//20
f 12//21 26//21 27//21
f 6//22 12//22 27//22
f 27//23 28//23 29//23
f 6//24 27//24 29//24
f 6//25 29//25 30//25
f 4//26 6//26 30//26
f 4//27 30//27 31//27
f 4//28 31//28 32//28
f 3//29 4//29 32//29
f 3//30 32//30 33//30
f 3//31 33//31 34//31
f 3//32 34//32 35//32
f 3//33 35//33 36//33
f 3//34 36//34 37//34
f 3//35 37//35 38//35
f 1//36 3//36 38//36
f 1//37 38//37 39//37
f 47//38 1//38 39//38
f 39//39 40//39 41//39
f 47//40 39//40 41//40
f 47//41 41//41 42//41
f 42//42 43//42 44//42
f 42//43 44//43 45//43
f 42//44 45//44 46//44
f 42//45 46//45 47//45
f 102//46 96//46 95//46
f 102//47 97//47 96//47
f 102//48 98//48 97//48
f 102//49 99//49 98//49
f 102//50 100//50 99//50
f 100//51 102//51 101//51
usemtl assumed_roof
f 48//52 50//52 49//52
f 51//53 53//53 52//53
f 54//54 56//54 55//54
f 54//55 57//55 56//55
f 53//56 57//56 54//56
f 53//57 58//57 57//57
f 53//58 59//58 58//58
f 60//59 62//59 61//59
f 60//60 63//60 62//60
f 60//61 64//61 63//61
f 65//62 67//62 66//62
f 64//63 67//63 65//63
f 64//64 68//64 67//64
f 60//65 68//65 64//65
f 68//66 70//66 69//66
f 60//67 70//67 68//67
f 70//68 72//68 71//68
f 60//69 72//69 70//69
f 59//70 72//70 60//70
f 59//71 73//71 72//71
f 59//72 74//72 73//72
f 53//73 74//73 59//73
f 74//74 76//74 75//74
f 53//75 76//75 74//75
f 53//76 77//76 76//76
f 51//77 77//77 53//77
f 51//78 78//78 77//78
f 51//79 79//79 78//79
f 50//80 79//80 51//80
f 50//81 80//81 79//81
f 50//82 81//82 80//82
f 50//83 82//83 81//83
f 50//84 83//84 82//84
f 50//85 84//85 83//85
f 50//86 85//86 84//86
f 48//87 85//87 50//87
f 48//88 86//88 85//88
f 94//89 86//89 48//89
f 86//90 88//90 87//90
f 94//91 88//91 86//91
f 94//92 89//92 88//92
f 89//93 91//93 90//93
f 89//94 92//94 91//94
f 89//95 93//95 92//95
f 89//96 94//96 93//96
f 110//97 103//97 104//97
f 110//98 104//98 105//98
f 110//99 105//99 106//99
f 110//100 106//100 107//100
f 110//101 107//101 108//101
f 108//102 109//102 110//102
usemtl assumed_wall
f 1//103 49//103 2//103
f 1//104 48//104 49//104
f 2//105 50//105 3//105
f 2//106 49//106 50//106
f 3//107 51//107 4//107
f 3//108 50//108 51//108
f 4//109 52//109 5//109
f 4//110 51//110 52//110
f 5//111 53//111 6//111
f 5//112 52//112 53//112
f 6//113 54//113 7//113
f 6//114 53//114 54//114
f 7//115 55//115 8//115
f 7//116 54//116 55//116
f 8//117 56//117 9//117
f 8//118 55//118 56//118
f 9//119 57//119 10//119
f 9//120 56//120 57//120
f 10//121 58//121 11//121
f 10//122 57//122 58//122
f 11//123 59//123 12//123
f 11//124 58//124 59//124
f 12//125 60//125 13//125
f 12//126 59//126 60//126
f 13//127 61//127 14//127
f 13//128 60//128 61//128
f 14//129 62//129 15//129
f 14//130 61//130 62//130
f 15//131 63//131 16//131
f 15//132 62//132 63//132
f 16//133 64//133 17//133
f 16//134 63//134 64//134
f 17//135 65//135 18//135
f 17//136 64//136 65//136
f 18//137 66//137 19//137
f 18//138 65//138 66//138
f 19//139 67//139 20//139
f 19//140 66//140 67//140
f 20//141 68//141 21//141
f 20//142 67//142 68//142
f 21//143 69//143 22//143
f 21//144 68//144 69//144
f 22//145 70//145 23//145
f 22//146 69//146 70//146
f 23//147 71//147 24//147
f 23//148 70//148 71//148
f 24//149 72//149 25//149
f 24//150 71//150 72//150
f 25//151 73//151 26//151
f 25//152 72//152 73//152
f 26//153 74//153 27//153
f 26//154 73//154 74//154
f 27//155 75//155 28//155
f 27//156 74//156 75//156
f 28//157 76//157 29//157
f 28//158 75//158 76//158
f 29//159 77//159 30//159
f 29//160 76//160 77//160
f 30//161 78//161 31//161
f 30//162 77//162 78//162
f 31//163 79//163 32//163
f 31//164 78//164 79//164
f 32//165 80//165 33//165
f 32//166 79//166 80//166
f 33//167 81//167 34//167
f 33//168 80//168 81//168
f 34//169 82//169 35//169
f 34//170 81//170 82//170
f 35//171 83//171 36//171
f 35//172 82//172 83//172
f 36//173 84//173 37//173
f 36//174 83//174 84//174
f 37//175 85//175 38//175
f 37//176 84//176 85//176
f 38//177 86//177 39//177
f 38//178 85//178 86//178
f 39//179 87//179 40//179
f 39//180 86//180 87//180
f 40//181 88//181 41//181
f 40//182 87//182 88//182
f 41//183 89//183 42//183
f 41//184 88//184 89//184
f 42//185 90//185 43//185
f 42//186 89//186 90//186
f 43//187 91//187 44//187
f 43//188 90//188 91//188
f 44//189 92//189 45//189
f 44//190 91//190 92//190
f 45//191 93//191 46//191
f 45//192 92//192 93//192
f 46//193 94//193 47//193
f 46//194 93//194 94//194
f 47//195 48//195 1//195
f 47//196 94//196 48//196
f 95//197 96//197 104//197
f 95//198 104//198 103//198
f 96//199 97//199 105//199
f 96//200 105//200 104//200
f 97//201 98//201 106//201
f 97//202 106//202 105//202
f 98//203 99//203 107//203
f 98//204 107//204 106//204
f 99//205 100//205 108//205
f 99//206 108//206 107//206
f 100//207 101//207 109//207
f 100//208 109//208 108//208
f 101//209 102//209 110//209
f 101//210 110//210 109//210
f 102//211 95//211 103//211
f 102//212 103//212 110//212
