# construction_3274_assumed_A_Casa
# source A_Casa
# h_campo 0.000000
# modeled_height 6.000000
# height_kind assumed
# local_origin_world_x 172001.034850
# local_origin_world_y 402500.144600
mtllib construction_artifacts.mtl

o construction_3274_assumed_A_Casa
v -57.605500 -12.329000 0.000000
v 5.366500 2.155000 0.000000
v 0.319500 22.763000 0.000000
v 49.822500 33.749000 0.000000
v 57.605500 -0.981000 0.000000
v 42.821500 -4.174000 0.000000
v 43.422500 -8.334000 0.000000
v 34.329500 -10.028000 0.000000
v 33.983500 -6.778000 0.000000
v 23.257500 -8.998000 0.000000
v 26.038500 -21.087000 0.000000
v 6.453500 -24.496000 0.000000
v 7.325500 -29.093000 0.000000
v -12.205500 -33.749000 0.000000
v -16.607500 -14.335000 0.000000
v -19.855500 -15.540000 0.000000
v -20.128500 -14.379000 0.000000
v -31.846500 -17.277000 0.000000
v -33.209500 -11.990000 0.000000
v -46.209500 -14.285000 0.000000
v -45.867500 -16.188000 0.000000
v -49.438500 -16.350000 0.000000
v -49.577500 -14.935000 0.000000
v -56.852500 -16.304000 0.000000
v -57.605500 -12.329000 6.000000
v 5.366500 2.155000 6.000000
v 0.319500 22.763000 6.000000
v 49.822500 33.749000 6.000000
v 57.605500 -0.981000 6.000000
v 42.821500 -4.174000 6.000000
v 43.422500 -8.334000 6.000000
v 34.329500 -10.028000 6.000000
v 33.983500 -6.778000 6.000000
v 23.257500 -8.998000 6.000000
v 26.038500 -21.087000 6.000000
v 6.453500 -24.496000 6.000000
v 7.325500 -29.093000 6.000000
v -12.205500 -33.749000 6.000000
v -16.607500 -14.335000 6.000000
v -19.855500 -15.540000 6.000000
v -20.128500 -14.379000 6.000000
v -31.846500 -17.277000 6.000000
v -33.209500 -11.990000 6.000000
v -46.209500 -14.285000 6.000000
v -45.867500 -16.188000 6.000000
v -49.438500 -16.350000 6.000000
v -49.577500 -14.935000 6.000000
v -56.852500 -16.304000 6.000000
vn 0.000000 0.000000 -1.000000
vn 0.000000 0.000000 -1.000000
vn 0.000000 0.000000 -1.000000
vn 0.000000 0.000000 -1.000000
vn 0.000000 0.000000 -1.000000
vn -0.000000 0.000000 -1.000000
vn 0.000000 0.000000 -1.000000
vn 0.000000 0.000000 -1.000000
vn 0.000000 0.000000 -1.000000
vn 0.000000 0.000000 -1.000000
vn 0.000000 -0.000000 -1.000000
vn 0.000000 -0.000000 -1.000000
vn 0.000000 0.000000 -1.000000
vn 0.000000 0.000000 -1.000000
vn 0.000000 0.000000 -1.000000
vn 0.000000 0.000000 -1.000000
vn 0.000000 0.000000 -1.000000
vn 0.000000 0.000000 -1.000000
vn 0.000000 0.000000 -1.000000
vn 0.000000 -0.000000 -1.000000
vn 0.000000 0.000000 -1.000000
vn 0.000000 0.000000 -1.000000
vn 0.000000 -0.000000 1.000000
vn 0.000000 -0.000000 1.000000
vn -0.000000 0.000000 1.000000
vn 0.000000 0.000000 1.000000
vn 0.000000 0.000000 1.000000
vn 0.000000 0.000000 1.000000
vn 0.000000 0.000000 1.000000
vn 0.000000 0.000000 1.000000
vn 0.000000 0.000000 1.000000
vn 0.000000 0.000000 1.000000
vn 0.000000 0.000000 1.000000
vn 0.000000 0.000000 1.000000
vn 0.000000 0.000000 1.000000
vn 0.000000 0.000000 1.000000
vn 0.000000 0.000000 1.000000
vn 0.000000 0.000000 1.000000
vn 0.000000 0.000000 1.000000
vn 0.000000 0.000000 1.000000
vn 0.000000 0.000000 1.000000
vn 0.000000 0.000000 1.000000
vn 0.000000 0.000000 1.000000
vn 0.000000 0.000000 1.000000
vn -0.224154 0.974554 0.000000
vn -0.224154 0.974554 0.000000
vn -0.971296 -0.237875 0.000000
vn -0.971296 -0.237875 0.000000
vn -0.216655 0.976248 0.000000
vn -0.216655 0.976248 0.000000
vn 0.975797 0.218676 0.000000
vn 0.975797 0.218676 -0.000000
vn 0.211109 -0.977462 0.000000
vn 0.211109 -0.977462 0.000000
vn 0.989725 0.142987 0.000000
vn 0.989725 0.142987 -0.000000
vn 0.183146 -0.983086 0.000000
vn 0.183146 -0.983086 0.000000
vn -0.994381 -0.105863 0.000000
vn -0.994381 -0.105863 0.000000
vn 0.202678 -0.979245 0.000000
vn 0.202678 -0.979245 0.000000
vn 0.974546 0.224188 0.000000
vn 0.974546 0.224188 -0.000000
vn 0.171483 -0.985187 0.000000
vn 0.171483 -0.985187 0.000000
vn 0.982480 0.186366 0.000000
vn 0.982480 0.186366 -0.000000
vn 0.231892 -0.972742 0.000000
vn 0.231892 -0.972742 0.000000
vn -0.975244 -0.221130 0.000000
vn -0.975244 -0.221130 0.000000
vn 0.347831 -0.937557 0.000000
vn 0.347831 -0.937557 0.000000
vn -0.973450 -0.228899 0.000000
vn -0.973450 -0.228899 0.000000
vn 0.240079 -0.970753 0.000000
vn 0.240079 -0.970753 0.000000
vn -0.968339 -0.249640 0.000000
vn -0.968339 -0.249640 0.000000
vn 0.173850 -0.984772 0.000000
vn 0.173850 -0.984772 0.000000
vn 0.984232 0.176882 0.000000
vn 0.984232 0.176882 -0.000000
vn 0.045319 -0.998973 0.000000
vn 0.045319 -0.998973 0.000000
vn -0.995210 -0.097763 0.000000
vn -0.995210 -0.097763 0.000000
vn 0.184933 -0.982751 0.000000
vn 0.184933 -0.982751 0.000000
vn -0.982526 -0.186124 0.000000
vn -0.982526 -0.186124 0.000000
usemtl assumed_base
f 24//1 1//1 2//1
f 2//2 3//2 4//2
f 2//3 4//3 5//3
f 2//4 5//4 6//4
f 2//5 6//5 7//5
f 7//6 8//6 9//6
f 2//7 7//7 9//7
f 2//8 9//8 10//8
f 2//9 10//9 11//9
f 2//10 11//10 12//10
f 12//11 13//11 14//11
f 2//12 12//12 14//12
f 2//13 14//13 15//13
f 2//14 15//14 16//14
f 2//15 16//15 17//15
f 2//16 17//16 18//16
f 2//17 18//17 19//17
f 2//18 19//18 20//18
f 24//19 2//19 20//19
f 20//20 21//20 22//20
f 20//21 22//21 23//21
f 20//22 23//22 24//22
usemtl assumed_roof
f 48//23 26//23 25//23
f 26//24 28//24 27//24
f 26//25 29//25 28//25
f 26//26 30//26 29//26
f 26//27 31//27 30//27
f 31//28 33//28 32//28
f 26//29 33//29 31//29
f 26//30 34//30 33//30
f 26//31 35//31 34//31
f 26//32 36//32 35//32
f 36//33 38//33 37//33
f 26//34 38//34 36//34
f 26//35 39//35 38//35
f 26//36 40//36 39//36
f 26//37 41//37 40//37
f 26//38 42//38 41//38
f 26//39 43//39 42//39
f 26//40 44//40 43//40
f 48//41 44//41 26//41
f 44//42 46//42 45//42
f 44//43 47//43 46//43
f 44//44 48//44 47//44
usemtl assumed_wall
f 1//45 26//45 2//45
f 1//46 25//46 26//46
f 2//47 27//47 3//47
f 2//48 26//48 27//48
f 3//49 28//49 4//49
f 3//50 27//50 28//50
f 4//51 29//51 5//51
f 4//52 28//52 29//52
f 5//53 30//53 6//53
f 5//54 29//54 30//54
f 6//55 31//55 7//55
f 6//56 30//56 31//56
f 7//57 32//57 8//57
f 7//58 31//58 32//58
f 8//59 33//59 9//59
f 8//60 32//60 33//60
f 9//61 34//61 10//61
f 9//62 33//62 34//62
f 10//63 35//63 11//63
f 10//64 34//64 35//64
f 11//65 36//65 12//65
f 11//66 35//66 36//66
f 12//67 37//67 13//67
f 12//68 36//68 37//68
f 13//69 38//69 14//69
f 13//70 37//70 38//70
f 14//71 39//71 15//71
f 14//72 38//72 39//72
f 15//73 40//73 16//73
f 15//74 39//74 40//74
f 16//75 41//75 17//75
f 16//76 40//76 41//76
f 17//77 42//77 18//77
f 17//78 41//78 42//78
f 18//79 43//79 19//79
f 18//80 42//80 43//80
f 19//81 44//81 20//81
f 19//82 43//82 44//82
f 20//83 45//83 21//83
f 20//84 44//84 45//84
f 21//85 46//85 22//85
f 21//86 45//86 46//86
f 22//87 47//87 23//87
f 22//88 46//88 47//88
f 23//89 48//89 24//89
f 23//90 47//90 48//90
f 24//91 25//91 1//91
f 24//92 48//92 25//92
