# construction_0657_assumed_A_Casa
# source A_Casa
# h_campo 0.000000
# modeled_height 6.000000
# height_kind assumed
# local_origin_world_x 172001.034850
# local_origin_world_y 402500.144600
mtllib construction_artifacts.mtl

o construction_0657_assumed_A_Casa
v 4.712000 -11.547500 0.000000
v -0.412000 -14.702500 0.000000
v 1.111000 -17.060500 0.000000
v -7.061000 -24.194500 0.000000
v -17.225000 -25.107500 0.000000
v -21.482000 -19.261500 0.000000
v -22.174000 -17.166500 0.000000
v -2.268000 18.503500 0.000000
v 2.055000 25.107500 0.000000
v 9.233000 21.194500 0.000000
v 7.822000 18.773500 0.000000
v 6.483000 18.791500 0.000000
v 3.884000 15.413500 0.000000
v 13.724000 11.071500 0.000000
v 16.832000 14.733500 0.000000
v 22.174000 11.514500 0.000000
v 19.668000 7.465500 0.000000
v 16.429000 0.619500 0.000000
v 15.682000 0.617500 0.000000
v 12.565000 -5.623500 0.000000
v 6.857000 -8.959500 0.000000
v 4.342000 -10.860500 0.000000
v 4.712000 -11.547500 6.000000
v -0.412000 -14.702500 6.000000
v 1.111000 -17.060500 6.000000
v -7.061000 -24.194500 6.000000
v -17.225000 -25.107500 6.000000
v -21.482000 -19.261500 6.000000
v -22.174000 -17.166500 6.000000
v -2.268000 18.503500 6.000000
v 2.055000 25.107500 6.000000
v 9.233000 21.194500 6.000000
v 7.822000 18.773500 6.000000
v 6.483000 18.791500 6.000000
v 3.884000 15.413500 6.000000
v 13.724000 11.071500 6.000000
v 16.832000 14.733500 6.000000
v 22.174000 11.514500 6.000000
v 19.668000 7.465500 6.000000
v 16.429000 0.619500 6.000000
v 15.682000 0.617500 6.000000
v 12.565000 -5.623500 6.000000
v 6.857000 -8.959500 6.000000
v 4.342000 -10.860500 6.000000
v -12.255000 -16.957500 0.000000
v -11.591000 -16.453500 0.000000
v -4.816000 -11.306500 0.000000
v -6.712000 -9.000500 0.000000
v -13.989000 -14.299500 0.000000
v -12.255000 -16.957500 6.000000
v -11.591000 -16.453500 6.000000
v -4.816000 -11.306500 6.000000
v -6.712000 -9.000500 6.000000
v -13.989000 -14.299500 6.000000
vn 0.000000 -0.000000 -1.000000
vn 0.000000 -0.000000 -1.000000
vn 0.000000 0.000000 -1.000000
vn 0.000000 0.000000 -1.000000
vn 0.000000 0.000000 -1.000000
vn 0.000000 0.000000 -1.000000
vn -0.000000 0.000000 -1.000000
vn 0.000000 0.000000 -1.000000
vn 0.000000 0.000000 -1.000000
vn 0.000000 0.000000 -1.000000
vn 0.000000 0.000000 -1.000000
vn 0.000000 0.000000 -1.000000
vn 0.000000 0.000000 -1.000000
vn 0.000000 0.000000 -1.000000
vn 0.000000 0.000000 -1.000000
vn 0.000000 0.000000 -1.000000
vn 0.000000 0.000000 -1.000000
vn 0.000000 0.000000 -1.000000
vn 0.000000 0.000000 -1.000000
vn 0.000000 0.000000 -1.000000
vn 0.000000 0.000000 -1.000000
vn 0.000000 0.000000 -1.000000
vn -0.000000 0.000000 -1.000000
vn 0.000000 0.000000 1.000000
vn 0.000000 0.000000 1.000000
vn 0.000000 0.000000 1.000000
vn 0.000000 0.000000 1.000000
vn 0.000000 0.000000 1.000000
vn 0.000000 0.000000 1.000000
vn 0.000000 0.000000 1.000000
vn 0.000000 0.000000 1.000000
vn 0.000000 0.000000 1.000000
vn 0.000000 0.000000 1.000000
vn 0.000000 0.000000 1.000000
vn 0.000000 0.000000 1.000000
vn 0.000000 -0.000000 1.000000
vn 0.000000 0.000000 1.000000
vn 0.000000 0.000000 1.000000
vn 0.000000 0.000000 1.000000
vn 0.000000 0.000000 1.000000
vn 0.000000 0.000000 1.000000
vn 0.000000 0.000000 1.000000
vn 0.000000 0.000000 1.000000
vn 0.000000 0.000000 1.000000
vn -0.000000 0.000000 1.000000
vn 0.000000 0.000000 1.000000
vn 0.524311 -0.851527 0.000000
vn 0.524311 -0.851527 0.000000
vn 0.840019 0.542557 0.000000
vn 0.840019 0.542557 -0.000000
vn 0.657643 -0.753330 0.000000
vn 0.657643 -0.753330 0.000000
vn 0.089467 -0.995990 0.000000
vn 0.089467 -0.995990 0.000000
vn -0.808383 -0.588657 0.000000
vn -0.808383 -0.588657 0.000000
vn -0.949541 -0.313643 0.000000
vn -0.949541 -0.313643 0.000000
vn -0.873227 0.487313 0.000000
vn -0.873227 0.487313 0.000000
vn -0.836679 0.547693 0.000000
vn -0.836679 0.547693 0.000000
vn 0.478638 0.878012 0.000000
vn 0.478638 0.878012 -0.000000
vn 0.863973 -0.503538 0.000000
vn 0.863973 -0.503538 0.000000
vn -0.013442 -0.999910 0.000000
vn -0.013442 -0.999910 0.000000
vn 0.792563 -0.609790 0.000000
vn 0.792563 -0.609790 0.000000
vn 0.403704 0.914890 0.000000
vn 0.403704 0.914890 -0.000000
vn -0.762422 0.647080 0.000000
vn -0.762422 0.647080 0.000000
vn 0.516122 0.856515 0.000000
vn 0.516122 0.856515 -0.000000
vn 0.850314 -0.526275 0.000000
vn 0.850314 -0.526275 0.000000
vn 0.903934 -0.427672 0.000000
vn 0.903934 -0.427672 0.000000
vn 0.002677 -0.999996 0.000000
vn 0.002677 -0.999996 0.000000
vn 0.894628 -0.446812 0.000000
vn 0.894628 -0.446812 0.000000
vn 0.504586 -0.863362 0.000000
vn 0.504586 -0.863362 0.000000
vn 0.602990 -0.797749 0.000000
vn 0.602990 -0.797749 0.000000
vn 0.880430 0.474176 0.000000
vn 0.880430 0.474176 -0.000000
vn 0.604597 -0.796532 0.000000
vn 0.604597 -0.796532 0.000000
vn 0.604934 -0.796275 0.000000
vn 0.604934 -0.796275 0.000000
vn 0.772433 0.635097 0.000000
vn 0.772433 0.635097 -0.000000
vn -0.588654 0.808385 0.000000
vn -0.588654 0.808385 0.000000
vn -0.837535 -0.546383 0.000000
vn -0.837535 -0.546383 0.000000
usemtl assumed_base
f 22//1 1//1 2//1
f 2//2 3//2 4//2
f 2//3 4//3 5//3
f 22//4 2//4 5//4
f 22//5 5//5 6//5
f 22//6 6//6 7//6
f 22//7 7//7 8//7
f 22//8 8//8 9//8
f 9//9 10//9 11//9
f 9//10 11//10 12//10
f 9//11 12//11 13//11
f 22//12 9//12 13//12
f 22//13 13//13 14//13
f 22//14 14//14 15//14
f 22//15 15//15 16//15
f 22//16 16//16 17//16
f 17//17 18//17 19//17
f 22//18 17//18 19//18
f 19//19 20//19 21//19
f 19//20 21//20 22//20
f 49//21 46//21 45//21
f 49//22 47//22 46//22
f 47//23 49//23 48//23
usemtl assumed_roof
f 44//24 24//24 23//24
f 24//25 26//25 25//25
f 24//26 27//26 26//26
f 44//27 27//27 24//27
f 44//28 28//28 27//28
f 44//29 29//29 28//29
f 44//30 30//30 29//30
f 44//31 31//31 30//31
f 31//32 33//32 32//32
f 31//33 34//33 33//33
f 31//34 35//34 34//34
f 44//35 35//35 31//35
f 44//36 36//36 35//36
f 44//37 37//37 36//37
f 44//38 38//38 37//38
f 44//39 39//39 38//39
f 39//40 41//40 40//40
f 44//41 41//41 39//41
f 41//42 43//42 42//42
f 41//43 44//43 43//43
f 54//44 50//44 51//44
f 54//45 51//45 52//45
f 52//46 53//46 54//46
usemtl assumed_wall
f 1//47 24//47 2//47
f 1//48 23//48 24//48
f 2//49 25//49 3//49
f 2//50 24//50 25//50
f 3//51 26//51 4//51
f 3//52 25//52 26//52
f 4//53 27//53 5//53
f 4//54 26//54 27//54
f 5//55 28//55 6//55
f 5//56 27//56 28//56
f 6//57 29//57 7//57
f 6//58 28//58 29//58
f 7//59 30//59 8//59
f 7//60 29//60 30//60
f 8//61 31//61 9//61
f 8//62 30//62 31//62
f 9//63 32//63 10//63
f 9//64 31//64 32//64
f 10//65 33//65 11//65
f 10//66 32//66 33//66
f 11//67 34//67 12//67
f 11//68 33//68 34//68
f 12//69 35//69 13//69
f 12//70 34//70 35//70
f 13//71 36//71 14//71
f 13//72 35//72 36//72
f 14//73 37//73 15//73
f 14//74 36//74 37//74
f 15//75 38//75 16//75
f 15//76 37//76 38//76
f 16//77 39//77 17//77
f 16//78 38//78 39//78
f 17//79 40//79 18//79
f 17//80 39//80 40//80
f 18//81 41//81 19//81
f 18//82 40//82 41//82
f 19//83 42//83 20//83
f 19//84 41//84 42//84
f 20//85 43//85 21//85
f 20//86 42//86 43//86
f 21//87 44//87 22//87
f 21//88 43//88 44//88
f 22//89 23//89 1//89
f 22//90 44//90 23//90
f 45//91 46//91 51//91
f 45//92 51//92 50//92
f 46//93 47//93 52//93
f 46//94 52//94 51//94
f 47//95 48//95 53//95
f 47//96 53//96 52//96
f 48//97 49//97 54//97
f 48//98 54//98 53//98
f 49//99 45//99 50//99
f 49//100 50//100 54//100
