# construction_4227_assumed_A_Casa
# source A_Casa
# h_campo 0.000000
# modeled_height 6.000000
# height_kind assumed
# local_origin_world_x 172001.034850
# local_origin_world_y 402500.144600
mtllib construction_artifacts.mtl

o construction_4227_assumed_A_Casa
v -19.238500 0.911500 0.000000
v -18.678500 4.768500 0.000000
v -12.540500 10.189500 0.000000
v -7.883500 13.221500 0.000000
v -5.810500 10.399500 0.000000
v 1.957500 12.707500 0.000000
v 3.030500 10.000500 0.000000
v 14.278500 14.114500 0.000000
v 19.238500 1.069500 0.000000
v 4.296500 -4.420500 0.000000
v 3.652500 -2.927500 0.000000
v 0.754500 -3.772500 0.000000
v 3.811500 -10.428500 0.000000
v -5.286500 -14.114500 0.000000
v -8.986500 -6.623500 0.000000
v -15.780500 -9.160500 0.000000
v -19.238500 0.911500 6.000000
v -18.678500 4.768500 6.000000
v -12.540500 10.189500 6.000000
v -7.883500 13.221500 6.000000
v -5.810500 10.399500 6.000000
v 1.957500 12.707500 6.000000
v 3.030500 10.000500 6.000000
v 14.278500 14.114500 6.000000
v 19.238500 1.069500 6.000000
v 4.296500 -4.420500 6.000000
v 3.652500 -2.927500 6.000000
v 0.754500 -3.772500 6.000000
v 3.811500 -10.428500 6.000000
v -5.286500 -14.114500 6.000000
v -8.986500 -6.623500 6.000000
v -15.780500 -9.160500 6.000000
vn 0.000000 0.000000 -1.000000
vn 0.000000 0.000000 -1.000000
vn 0.000000 0.000000 -1.000000
vn 0.000000 0.000000 -1.000000
vn 0.000000 0.000000 -1.000000
vn 0.000000 0.000000 -1.000000
vn 0.000000 0.000000 -1.000000
vn 0.000000 -0.000000 -1.000000
vn 0.000000 0.000000 -1.000000
vn 0.000000 0.000000 -1.000000
vn 0.000000 -0.000000 -1.000000
vn 0.000000 0.000000 -1.000000
vn 0.000000 0.000000 -1.000000
vn 0.000000 0.000000 -1.000000
vn 0.000000 0.000000 1.000000
vn 0.000000 -0.000000 1.000000
vn 0.000000 0.000000 1.000000
vn 0.000000 0.000000 1.000000
vn 0.000000 0.000000 1.000000
vn 0.000000 0.000000 1.000000
vn 0.000000 0.000000 1.000000
vn 0.000000 0.000000 1.000000
vn 0.000000 0.000000 1.000000
vn 0.000000 0.000000 1.000000
vn 0.000000 0.000000 1.000000
vn 0.000000 0.000000 1.000000
vn 0.000000 0.000000 1.000000
vn 0.000000 0.000000 1.000000
vn -0.989624 0.143684 0.000000
vn -0.989624 0.143684 0.000000
vn -0.661973 0.749528 0.000000
vn -0.661973 0.749528 0.000000
vn -0.545614 0.838036 0.000000
vn -0.545614 0.838036 0.000000
vn 0.805924 0.592020 0.000000
vn 0.805924 0.592020 -0.000000
vn -0.284811 0.958584 0.000000
vn -0.284811 0.958584 0.000000
vn 0.929633 0.368488 0.000000
vn 0.929633 0.368488 -0.000000
vn -0.343499 0.939153 0.000000
vn -0.343499 0.939153 0.000000
vn 0.934715 0.355399 0.000000
vn 0.934715 0.355399 -0.000000
vn 0.344878 -0.938647 0.000000
vn 0.344878 -0.938647 0.000000
vn -0.918220 -0.396071 0.000000
vn -0.918220 -0.396071 0.000000
vn 0.279924 -0.960022 0.000000
vn 0.279924 -0.960022 0.000000
vn 0.908737 0.417369 0.000000
vn 0.908737 0.417369 -0.000000
vn 0.375497 -0.926824 0.000000
vn 0.375497 -0.926824 0.000000
vn -0.896595 -0.442852 0.000000
vn -0.896595 -0.442852 0.000000
vn 0.349824 -0.936816 0.000000
vn 0.349824 -0.936816 0.000000
vn -0.945809 -0.324723 0.000000
vn -0.945809 -0.324723 0.000000
usemtl assumed_base
f 16//1 1//1 2//1
f 16//2 2//2 3//2
f 16//3 3//3 4//3
f 16//4 4//4 5//4
f 16//5 5//5 6//5
f 16//6 6//6 7//6
f 16//7 7//7 8//7
f 8//8 9//8 10//8
f 8//9 10//9 11//9
f 8//10 11//10 12//10
f 12//11 13//11 14//11
f 12//12 14//12 15//12
f 8//13 12//13 15//13
f 8//14 15//14 16//14
usemtl assumed_roof
f 32//15 18//15 17//15
f 32//16 19//16 18//16
f 32//17 20//17 19//17
f 32//18 21//18 20//18
f 32//19 22//19 21//19
f 32//20 23//20 22//20
f 32//21 24//21 23//21
f 24//22 26//22 25//22
f 24//23 27//23 26//23
f 24//24 28//24 27//24
f 28//25 30//25 29//25
f 28//26 31//26 30//26
f 24//27 31//27 28//27
f 24//28 32//28 31//28
usemtl assumed_wall
f 1//29 18//29 2//29
f 1//30 17//30 18//30
f 2//31 19//31 3//31
f 2//32 18//32 19//32
f 3//33 20//33 4//33
f 3//34 19//34 20//34
f 4//35 21//35 5//35
f 4//36 20//36 21//36
f 5//37 22//37 6//37
f 5//38 21//38 22//38
f 6//39 23//39 7//39
f 6//40 22//40 23//40
f 7//41 24//41 8//41
f 7//42 23//42 24//42
f 8//43 25//43 9//43
f 8//44 24//44 25//44
f 9//45 26//45 10//45
f 9//46 25//46 26//46
f 10//47 27//47 11//47
f 10//48 26//48 27//48
f 11//49 28//49 12//49
f 11//50 27//50 28//50
f 12//51 29//51 13//51
f 12//52 28//52 29//52
f 13//53 30//53 14//53
f 13//54 29//54 30//54
f 14//55 31//55 15//55
f 14//56 30//56 31//56
f 15//57 32//57 16//57
f 15//58 31//58 32//58
f 16//59 17//59 1//59
f 16//60 32//60 17//60
