# construction_0166_assumed_A_Construcoes_desportivas
# source A_Construcoes_desportivas
# h_campo 0.000000
# modeled_height 6.000000
# height_kind assumed
# local_origin_world_x 172001.034850
# local_origin_world_y 402500.144600
mtllib construction_artifacts.mtl

o construction_0166_assumed_A_Construcoes_desportivas
v -29.250500 16.264500 0.000000
v -0.702500 32.589500 0.000000
v 1.308500 29.516500 0.000000
v 4.894500 29.014500 0.000000
v 11.980500 17.550500 0.000000
v 8.456500 16.737500 0.000000
v 21.312500 -6.592500 0.000000
v 24.730500 -7.143500 0.000000
v 29.250500 -15.298500 0.000000
v 26.449500 -16.433500 0.000000
v -2.333500 -32.589500 0.000000
v -29.250500 16.264500 6.000000
v -0.702500 32.589500 6.000000
v 1.308500 29.516500 6.000000
v 4.894500 29.014500 6.000000
v 11.980500 17.550500 6.000000
v 8.456500 16.737500 6.000000
v 21.312500 -6.592500 6.000000
v 24.730500 -7.143500 6.000000
v 29.250500 -15.298500 6.000000
v 26.449500 -16.433500 6.000000
v -2.333500 -32.589500 6.000000
vn 0.000000 0.000000 -1.000000
vn 0.000000 0.000000 -1.000000
vn 0.000000 0.000000 -1.000000
vn 0.000000 0.000000 -1.000000
vn 0.000000 0.000000 -1.000000
vn 0.000000 0.000000 -1.000000
vn 0.000000 0.000000 -1.000000
vn 0.000000 0.000000 -1.000000
vn 0.000000 -0.000000 -1.000000
vn 0.000000 -0.000000 1.000000
vn 0.000000 0.000000 1.000000
vn 0.000000 0.000000 1.000000
vn 0.000000 0.000000 1.000000
vn 0.000000 0.000000 1.000000
vn 0.000000 0.000000 1.000000
vn 0.000000 0.000000 1.000000
vn 0.000000 0.000000 1.000000
vn 0.000000 0.000000 1.000000
vn -0.496411 0.868088 0.000000
vn -0.496411 0.868088 0.000000
vn 0.836754 0.547579 0.000000
vn 0.836754 0.547579 -0.000000
vn 0.138637 0.990343 0.000000
vn 0.138637 0.990343 -0.000000
vn 0.850622 0.525777 0.000000
vn 0.850622 0.525777 -0.000000
vn 0.224799 -0.974405 0.000000
vn 0.224799 -0.974405 0.000000
vn 0.875827 0.482625 0.000000
vn 0.875827 0.482625 -0.000000
vn 0.159151 0.987254 0.000000
vn 0.159151 0.987254 -0.000000
vn 0.874637 0.484778 0.000000
vn 0.874637 0.484778 -0.000000
vn 0.375551 -0.926802 0.000000
vn 0.375551 -0.926802 0.000000
vn 0.489468 -0.872021 0.000000
vn 0.489468 -0.872021 0.000000
vn -0.875858 -0.482570 0.000000
vn -0.875858 -0.482570 0.000000
usemtl assumed_base
f 11//1 1//1 2//1
f 11//2 2//2 3//2
f 11//3 3//3 4//3
f 4//4 5//4 6//4
f 11//5 4//5 6//5
f 11//6 6//6 7//6
f 11//7 7//7 8//7
f 8//8 9//8 10//8
f 8//9 10//9 11//9
usemtl assumed_roof
f 22//10 13//10 12//10
f 22//11 14//11 13//11
f 22//12 15//12 14//12
f 15//13 17//13 16//13
f 22//14 17//14 15//14
f 22//15 18//15 17//15
f 22//16 19//16 18//16
f 19//17 21//17 20//17
f 19//18 22//18 21//18
usemtl assumed_wall
f 1//19 13//19 2//19
f 1//20 12//20 13//20
f 2//21 14//21 3//21
f 2//22 13//22 14//22
f 3//23 15//23 4//23
f 3//24 14//24 15//24
f 4//25 16//25 5//25
f 4//26 15//26 16//26
f 5//27 17//27 6//27
f 5//28 16//28 17//28
f 6//29 18//29 7//29
f 6//30 17//30 18//30
f 7//31 19//31 8//31
f 7//32 18//32 19//32
f 8//33 20//33 9//33
f 8//34 19//34 20//34
f 9//35 21//35 10//35
f 9//36 20//36 21//36
f 10//37 22//37 11//37
f 10//38 21//38 22//38
f 11//39 12//39 1//39
f 11//40 22//40 12//40
