# construction_3522_assumed_A_Casa
# source A_Casa
# h_campo 0.000000
# modeled_height 6.000000
# height_kind assumed
# local_origin_world_x 172001.034850
# local_origin_world_y 402500.144600
mtllib construction_artifacts.mtl

o construction_3522_assumed_A_Casa
v -16.452500 8.013500 0.000000
v -15.685500 8.007500 0.000000
v -8.979500 17.507500 0.000000
v -7.699500 16.395500 0.000000
v -5.689500 19.223500 0.000000
v 2.754500 13.312500 0.000000
v 4.214500 14.973500 0.000000
v 8.368500 10.316500 0.000000
v 1.050500 0.525500 0.000000
v 6.456500 -3.855500 0.000000
v 9.009500 -0.786500 0.000000
v 9.826500 -0.793500 0.000000
v 13.984500 3.837500 0.000000
v 20.353500 -2.126500 0.000000
v 17.132500 -6.213500 0.000000
v 20.712500 -8.898500 0.000000
v 13.724500 -19.223500 0.000000
v 4.319500 -12.950500 0.000000
v 5.023500 -12.169500 0.000000
v -0.298500 -7.088500 0.000000
v -2.521500 -9.541500 0.000000
v -5.406500 -6.074500 0.000000
v -8.359500 -3.758500 0.000000
v -11.723500 -8.622500 0.000000
v -13.988500 -7.669500 0.000000
v -19.349500 -3.701500 0.000000
v -17.240500 -0.786500 0.000000
v -20.712500 1.907500 0.000000
v -16.452500 8.013500 6.000000
v -15.685500 8.007500 6.000000
v -8.979500 17.507500 6.000000
v -7.699500 16.395500 6.000000
v -5.689500 19.223500 6.000000
v 2.754500 13.312500 6.000000
v 4.214500 14.973500 6.000000
v 8.368500 10.316500 6.000000
v 1.050500 0.525500 6.000000
v 6.456500 -3.855500 6.000000
v 9.009500 -0.786500 6.000000
v 9.826500 -0.793500 6.000000
v 13.984500 3.837500 6.000000
v 20.353500 -2.126500 6.000000
v 17.132500 -6.213500 6.000000
v 20.712500 -8.898500 6.000000
v 13.724500 -19.223500 6.000000
v 4.319500 -12.950500 6.000000
v 5.023500 -12.169500 6.000000
v -0.298500 -7.088500 6.000000
v -2.521500 -9.541500 6.000000
v -5.406500 -6.074500 6.000000
v -8.359500 -3.758500 6.000000
v -11.723500 -8.622500 6.000000
v -13.988500 -7.669500 6.000000
v -19.349500 -3.701500 6.000000
v -17.240500 -0.786500 6.000000
v -20.712500 1.907500 6.000000
vn 0.000000 0.000000 -1.000000
vn 0.000000 0.000000 -1.000000
vn 0.000000 0.000000 -1.000000
vn 0.000000 0.000000 -1.000000
vn 0.000000 0.000000 -1.000000
vn 0.000000 0.000000 -1.000000
vn 0.000000 0.000000 -1.000000
vn 0.000000 0.000000 -1.000000
vn 0.000000 0.000000 -1.000000
vn 0.000000 0.000000 -1.000000
vn 0.000000 0.000000 -1.000000
vn 0.000000 0.000000 -1.000000
vn 0.000000 0.000000 -1.000000
vn 0.000000 0.000000 -1.000000
vn 0.000000 0.000000 -1.000000
vn 0.000000 0.000000 -1.000000
vn 0.000000 0.000000 -1.000000
vn -0.000000 0.000000 -1.000000
vn 0.000000 0.000000 -1.000000
vn -0.000000 0.000000 -1.000000
vn 0.000000 0.000000 -1.000000
vn 0.000000 0.000000 -1.000000
vn 0.000000 0.000000 -1.000000
vn -0.000000 0.000000 -1.000000
vn 0.000000 0.000000 -1.000000
vn 0.000000 0.000000 -1.000000
vn 0.000000 0.000000 1.000000
vn 0.000000 0.000000 1.000000
vn 0.000000 0.000000 1.000000
vn -0.000000 0.000000 1.000000
vn 0.000000 0.000000 1.000000
vn -0.000000 0.000000 1.000000
vn 0.000000 0.000000 1.000000
vn -0.000000 0.000000 1.000000
vn 0.000000 0.000000 1.000000
vn 0.000000 0.000000 1.000000
vn -0.000000 0.000000 1.000000
vn 0.000000 0.000000 1.000000
vn -0.000000 0.000000 1.000000
vn 0.000000 0.000000 1.000000
vn 0.000000 0.000000 1.000000
vn 0.000000 0.000000 1.000000
vn 0.000000 0.000000 1.000000
vn 0.000000 0.000000 1.000000
vn 0.000000 0.000000 1.000000
vn 0.000000 0.000000 1.000000
vn 0.000000 0.000000 1.000000
vn 0.000000 0.000000 1.000000
vn 0.000000 0.000000 1.000000
vn 0.000000 0.000000 1.000000
vn 0.000000 0.000000 1.000000
vn 0.000000 0.000000 1.000000
vn 0.007822 0.999969 0.000000
vn 0.007822 0.999969 -0.000000
vn -0.816963 0.576690 0.000000
vn -0.816963 0.576690 0.000000
vn 0.655828 0.754910 0.000000
vn 0.655828 0.754910 -0.000000
vn -0.815094 0.579328 0.000000
vn -0.815094 0.579328 0.000000
vn 0.573475 0.819223 0.000000
vn 0.573475 0.819223 -0.000000
vn -0.751090 0.660200 0.000000
vn -0.751090 0.660200 0.000000
vn 0.746259 0.665656 0.000000
vn 0.746259 0.665656 -0.000000
vn 0.800990 -0.598677 0.000000
vn 0.800990 -0.598677 0.000000
vn 0.629607 0.776913 0.000000
vn 0.629607 0.776913 -0.000000
vn -0.768775 0.639519 0.000000
vn -0.768775 0.639519 0.000000
vn 0.008568 0.999963 0.000000
vn 0.008568 0.999963 -0.000000
vn -0.744085 0.668085 0.000000
vn -0.744085 0.668085 0.000000
vn 0.683518 0.729934 0.000000
vn 0.683518 0.729934 -0.000000
vn 0.785404 -0.618984 0.000000
vn 0.785404 -0.618984 0.000000
vn 0.600000 0.800000 0.000000
vn 0.600000 0.800000 -0.000000
vn 0.828155 -0.560499 0.000000
vn 0.828155 -0.560499 0.000000
vn -0.554884 -0.831928 0.000000
vn -0.554884 -0.831928 0.000000
vn -0.742774 0.669543 0.000000
vn -0.742774 0.669543 0.000000
vn -0.690540 -0.723294 0.000000
vn -0.690540 -0.723294 0.000000
vn 0.740992 -0.671514 0.000000
vn 0.740992 -0.671514 0.000000
vn -0.768675 -0.639639 0.000000
vn -0.768675 -0.639639 0.000000
vn -0.617127 -0.786864 0.000000
vn -0.617127 -0.786864 0.000000
vn 0.822460 -0.568823 0.000000
vn 0.822460 -0.568823 0.000000
vn -0.387820 -0.921735 0.000000
vn -0.387820 -0.921735 0.000000
vn -0.594926 -0.803780 0.000000
vn -0.594926 -0.803780 0.000000
vn -0.810188 0.586170 0.000000
vn -0.810188 0.586170 0.000000
vn -0.613026 -0.790062 0.000000
vn -0.613026 -0.790062 0.000000
vn -0.820127 0.572182 0.000000
vn -0.820127 0.572182 0.000000
usemtl assumed_base
f 28//1 1//1 2//1
f 2//2 3//2 4//2
f 28//3 2//3 4//3
f 4//4 5//4 6//4
f 28//5 4//5 6//5
f 6//6 7//6 8//6
f 28//7 6//7 8//7
f 28//8 8//8 9//8
f 28//9 9//9 10//9
f 10//10 11//10 12//10
f 12//11 13//11 14//11
f 10//12 12//12 14//12
f 10//13 14//13 15//13
f 28//14 10//14 15//14
f 28//15 15//15 16//15
f 16//16 17//16 18//16
f 16//17 18//17 19//17
f 16//18 19//18 20//18
f 28//19 16//19 20//19
f 20//20 21//20 22//20
f 20//21 22//21 23//21
f 28//22 20//22 23//22
f 23//23 24//23 25//23
f 23//24 25//24 26//24
f 23//25 26//25 27//25
f 23//26 27//26 28//26
usemtl assumed_roof
f 56//27 30//27 29//27
f 30//28 32//28 31//28
f 56//29 32//29 30//29
f 32//30 34//30 33//30
f 56//31 34//31 32//31
f 34//32 36//32 35//32
f 56//33 36//33 34//33
f 56//34 37//34 36//34
f 56//35 38//35 37//35
f 38//36 40//36 39//36
f 40//37 42//37 41//37
f 38//38 42//38 40//38
f 38//39 43//39 42//39
f 56//40 43//40 38//40
f 56//41 44//41 43//41
f 44//42 46//42 45//42
f 44//43 47//43 46//43
f 44//44 48//44 47//44
f 56//45 48//45 44//45
f 48//46 50//46 49//46
f 48//47 51//47 50//47
f 56//48 51//48 48//48
f 51//49 53//49 52//49
f 51//50 54//50 53//50
f 51//51 55//51 54//51
f 51//52 56//52 55//52
usemtl assumed_wall
f 1//53 30//53 2//53
f 1//54 29//54 30//54
f 2//55 31//55 3//55
f 2//56 30//56 31//56
f 3//57 32//57 4//57
f 3//58 31//58 32//58
f 4//59 33//59 5//59
f 4//60 32//60 33//60
f 5//61 34//61 6//61
f 5//62 33//62 34//62
f 6//63 35//63 7//63
f 6//64 34//64 35//64
f 7//65 36//65 8//65
f 7//66 35//66 36//66
f 8//67 37//67 9//67
f 8//68 36//68 37//68
f 9//69 38//69 10//69
f 9//70 37//70 38//70
f 10//71 39//71 11//71
f 10//72 38//72 39//72
f 11//73 40//73 12//73
f 11//74 39//74 40//74
f 12//75 41//75 13//75
f 12//76 40//76 41//76
f 13//77 42//77 14//77
f 13//78 41//78 42//78
f 14//79 43//79 15//79
f 14//80 42//80 43//80
f 15//81 44//81 16//81
f 15//82 43//82 44//82
f 16//83 45//83 17//83
f 16//84 44//84 45//84
f 17//85 46//85 18//85
f 17//86 45//86 46//86
f 18//87 47//87 19//87
f 18//88 46//88 47//88
f 19//89 48//89 20//89
f 19//90 47//90 48//90
f 20//91 49//91 21//91
f 20//92 48//92 49//92
f 21//93 50//93 22//93
f 21//94 49//94 50//94
f 22//95 51//95 23//95
f 22//96 50//96 51//96
f 23//97 52//97 24//97
f 23//98 51//98 52//98
f 24//99 53//99 25//99
f 24//100 52//100 53//100
f 25//101 54//101 26//101
f 25//102 53//102 54//102
f 26//103 55//103 27//103
f 26//104 54//104 55//104
f 27//105 56//105 28//105
f 27//106 55//106 56//106
f 28//107 29//107 1//107
f 28//108 56//108 29//108
