# construction_3946_assumed_A_Casa
# source A_Casa
# h_campo 0.000000
# modeled_height 6.000000
# height_kind assumed
# local_origin_world_x 172001.034850
# local_origin_world_y 402500.144600
mtllib construction_artifacts.mtl

o construction_3946_assumed_A_Casa
v 5.719500 -28.009500 0.000000
v 5.123500 7.439500 0.000000
v 2.483500 6.780500 0.000000
v 2.487500 5.908500 0.000000
v 0.403500 5.429500 0.000000
v 0.304500 -0.059500 0.000000
v 4.290500 -5.541500 0.000000
v -6.007500 -12.372500 0.000000
v -6.926500 -10.758500 0.000000
v -10.077500 -12.924500 0.000000
v -16.802500 -1.094500 0.000000
v -6.263500 5.724500 0.000000
v -6.635500 6.797500 0.000000
v -18.107500 1.857500 0.000000
v -22.468500 11.448500 0.000000
v -10.466500 16.429500 0.000000
v -9.205500 14.741500 0.000000
v 5.640500 20.431500 0.000000
v 4.680500 22.564500 0.000000
v 19.715500 28.268500 0.000000
v 22.468500 21.514500 0.000000
v 18.101500 19.772500 0.000000
v 20.941500 13.273500 0.000000
v 17.305500 12.091500 0.000000
v 17.614500 8.387500 0.000000
v 19.995500 7.792500 0.000000
v 17.882500 -4.549500 0.000000
v 11.888500 -4.933500 0.000000
v 12.032500 -28.268500 0.000000
v 5.719500 -28.009500 6.000000
v 5.123500 7.439500 6.000000
v 2.483500 6.780500 6.000000
v 2.487500 5.908500 6.000000
v 0.403500 5.429500 6.000000
v 0.304500 -0.059500 6.000000
v 4.290500 -5.541500 6.000000
v -6.007500 -12.372500 6.000000
v -6.926500 -10.758500 6.000000
v -10.077500 -12.924500 6.000000
v -16.802500 -1.094500 6.000000
v -6.263500 5.724500 6.000000
v -6.635500 6.797500 6.000000
v -18.107500 1.857500 6.000000
v -22.468500 11.448500 6.000000
v -10.466500 16.429500 6.000000
v -9.205500 14.741500 6.000000
v 5.640500 20.431500 6.000000
v 4.680500 22.564500 6.000000
v 19.715500 28.268500 6.000000
v 22.468500 21.514500 6.000000
v 18.101500 19.772500 6.000000
v 20.941500 13.273500 6.000000
v 17.305500 12.091500 6.000000
v 17.614500 8.387500 6.000000
v 19.995500 7.792500 6.000000
v 17.882500 -4.549500 6.000000
v 11.888500 -4.933500 6.000000
v 12.032500 -28.268500 6.000000
vn 0.000000 0.000000 -1.000000
vn 0.000000 -0.000000 -1.000000
vn 0.000000 -0.000000 -1.000000
vn 0.000000 0.000000 -1.000000
vn 0.000000 0.000000 -1.000000
vn 0.000000 0.000000 -1.000000
vn 0.000000 0.000000 -1.000000
vn 0.000000 0.000000 -1.000000
vn 0.000000 0.000000 -1.000000
vn 0.000000 0.000000 -1.000000
vn 0.000000 0.000000 -1.000000
vn -0.000000 0.000000 -1.000000
vn -0.000000 0.000000 -1.000000
vn 0.000000 0.000000 -1.000000
vn 0.000000 0.000000 -1.000000
vn 0.000000 0.000000 -1.000000
vn 0.000000 0.000000 -1.000000
vn 0.000000 0.000000 -1.000000
vn 0.000000 0.000000 -1.000000
vn 0.000000 0.000000 -1.000000
vn 0.000000 0.000000 -1.000000
vn 0.000000 0.000000 -1.000000
vn 0.000000 0.000000 -1.000000
vn 0.000000 0.000000 -1.000000
vn 0.000000 0.000000 -1.000000
vn 0.000000 0.000000 -1.000000
vn 0.000000 0.000000 -1.000000
vn 0.000000 0.000000 1.000000
vn 0.000000 0.000000 1.000000
vn 0.000000 0.000000 1.000000
vn 0.000000 0.000000 1.000000
vn 0.000000 0.000000 1.000000
vn 0.000000 0.000000 1.000000
vn 0.000000 0.000000 1.000000
vn 0.000000 0.000000 1.000000
vn 0.000000 0.000000 1.000000
vn 0.000000 0.000000 1.000000
vn 0.000000 0.000000 1.000000
vn 0.000000 0.000000 1.000000
vn 0.000000 0.000000 1.000000
vn 0.000000 0.000000 1.000000
vn 0.000000 0.000000 1.000000
vn 0.000000 -0.000000 1.000000
vn 0.000000 0.000000 1.000000
vn 0.000000 -0.000000 1.000000
vn 0.000000 0.000000 1.000000
vn -0.000000 0.000000 1.000000
vn 0.000000 0.000000 1.000000
vn 0.000000 0.000000 1.000000
vn 0.000000 0.000000 1.000000
vn 0.000000 0.000000 1.000000
vn 0.000000 0.000000 1.000000
vn 0.000000 0.000000 1.000000
vn 0.000000 0.000000 1.000000
vn -0.999859 -0.016811 0.000000
vn -0.999859 -0.016811 0.000000
vn 0.242190 -0.970229 0.000000
vn 0.242190 -0.970229 0.000000
vn 0.999989 0.004587 0.000000
vn 0.999989 0.004587 -0.000000
vn 0.224006 -0.974588 0.000000
vn 0.224006 -0.974588 0.000000
vn 0.999837 -0.018033 0.000000
vn 0.999837 -0.018033 0.000000
vn 0.808800 0.588084 0.000000
vn 0.808800 0.588084 -0.000000
vn 0.552775 -0.833330 0.000000
vn 0.552775 -0.833330 0.000000
vn -0.869004 -0.494805 0.000000
vn -0.869004 -0.494805 0.000000
vn 0.566473 -0.824080 0.000000
vn 0.566473 -0.824080 0.000000
vn -0.869349 -0.494199 0.000000
vn -0.869349 -0.494199 0.000000
vn -0.543231 0.839583 0.000000
vn -0.543231 0.839583 0.000000
vn -0.944829 -0.327564 0.000000
vn -0.944829 -0.327564 0.000000
vn 0.395503 -0.918465 0.000000
vn 0.395503 -0.918465 0.000000
vn -0.910314 -0.413917 0.000000
vn -0.910314 -0.413917 0.000000
vn -0.383315 0.923618 0.000000
vn -0.383315 0.923618 0.000000
vn 0.801138 0.598480 0.000000
vn 0.801138 0.598480 -0.000000
vn -0.357883 0.933766 0.000000
vn -0.357883 0.933766 0.000000
vn -0.911898 -0.410418 0.000000
vn -0.911898 -0.410418 0.000000
vn -0.354712 0.934975 0.000000
vn -0.354712 0.934975 0.000000
vn 0.926027 0.377458 0.000000
vn 0.926027 0.377458 -0.000000
vn 0.370510 -0.928828 0.000000
vn 0.370510 -0.928828 0.000000
vn 0.916329 0.400427 0.000000
vn 0.916329 0.400427 -0.000000
vn 0.309157 -0.951011 0.000000
vn 0.309157 -0.951011 0.000000
vn 0.996538 0.083135 0.000000
vn 0.996538 0.083135 -0.000000
vn 0.242440 0.970166 0.000000
vn 0.242440 0.970166 -0.000000
vn 0.985659 -0.168749 0.000000
vn 0.985659 -0.168749 0.000000
vn 0.063933 -0.997954 0.000000
vn 0.063933 -0.997954 0.000000
vn 0.999981 0.006171 0.000000
vn 0.999981 0.006171 -0.000000
vn -0.040992 -0.999159 0.000000
vn -0.040992 -0.999159 0.000000
usemtl assumed_base
f 29//1 1//1 2//1
f 3//2 4//2 5//2
f 6//3 7//3 8//3
f 5//4 6//4 8//4
f 5//5 8//5 9//5
f 5//6 9//6 10//6
f 5//7 10//7 11//7
f 3//8 5//8 11//8
f 3//9 11//9 12//9
f 2//10 3//10 12//10
f 2//11 12//11 13//11
f 13//12 14//12 15//12
f 2//13 13//13 15//13
f 15//14 16//14 17//14
f 2//15 15//15 17//15
f 2//16 17//16 18//16
f 29//17 2//17 18//17
f 18//18 19//18 20//18
f 18//19 20//19 21//19
f 18//20 21//20 22//20
f 18//21 22//21 23//21
f 18//22 23//22 24//22
f 18//23 24//23 25//23
f 25//24 26//24 27//24
f 18//25 25//25 27//25
f 18//26 27//26 28//26
f 18//27 28//27 29//27
usemtl assumed_roof
f 58//28 31//28 30//28
f 32//29 34//29 33//29
f 35//30 37//30 36//30
f 34//31 37//31 35//31
f 34//32 38//32 37//32
f 34//33 39//33 38//33
f 34//34 40//34 39//34
f 32//35 40//35 34//35
f 32//36 41//36 40//36
f 31//37 41//37 32//37
f 31//38 42//38 41//38
f 42//39 44//39 43//39
f 31//40 44//40 42//40
f 44//41 46//41 45//41
f 31//42 46//42 44//42
f 31//43 47//43 46//43
f 58//44 47//44 31//44
f 47//45 49//45 48//45
f 47//46 50//46 49//46
f 47//47 51//47 50//47
f 47//48 52//48 51//48
f 47//49 53//49 52//49
f 47//50 54//50 53//50
f 54//51 56//51 55//51
f 47//52 56//52 54//52
f 47//53 57//53 56//53
f 47//54 58//54 57//54
usemtl assumed_wall
f 1//55 31//55 2//55
f 1//56 30//56 31//56
f 2//57 32//57 3//57
f 2//58 31//58 32//58
f 3//59 33//59 4//59
f 3//60 32//60 33//60
f 4//61 34//61 5//61
f 4//62 33//62 34//62
f 5//63 35//63 6//63
f 5//64 34//64 35//64
f 6//65 36//65 7//65
f 6//66 35//66 36//66
f 7//67 37//67 8//67
f 7//68 36//68 37//68
f 8//69 38//69 9//69
f 8//70 37//70 38//70
f 9//71 39//71 10//71
f 9//72 38//72 39//72
f 10//73 40//73 11//73
f 10//74 39//74 40//74
f 11//75 41//75 12//75
f 11//76 40//76 41//76
f 12//77 42//77 13//77
f 12//78 41//78 42//78
f 13//79 43//79 14//79
f 13//80 42//80 43//80
f 14//81 44//81 15//81
f 14//82 43//82 44//82
f 15//83 45//83 16//83
f 15//84 44//84 45//84
f 16//85 46//85 17//85
f 16//86 45//86 46//86
f 17//87 47//87 18//87
f 17//88 46//88 47//88
f 18//89 48//89 19//89
f 18//90 47//90 48//90
f 19//91 49//91 20//91
f 19//92 48//92 49//92
f 20//93 50//93 21//93
f 20//94 49//94 50//94
f 21//95 51//95 22//95
f 21//96 50//96 51//96
f 22//97 52//97 23//97
f 22//98 51//98 52//98
f 23//99 53//99 24//99
f 23//100 52//100 53//100
f 24//101 54//101 25//101
f 24//102 53//102 54//102
f 25//103 55//103 26//103
f 25//104 54//104 55//104
f 26//105 56//105 27//105
f 26//106 55//106 56//106
f 27//107 57//107 28//107
f 27//108 56//108 57//108
f 28//109 58//109 29//109
f 28//110 57//110 58//110
f 29//111 30//111 1//111
f 29//112 58//112 30//112
