# construction_5008_assumed_A_Casa
# source A_Casa
# h_campo 0.000000
# modeled_height 6.000000
# height_kind assumed
# local_origin_world_x 172001.034850
# local_origin_world_y 402500.144600
mtllib construction_artifacts.mtl

o construction_5008_assumed_A_Casa
v -20.728000 12.593000 0.000000
v -10.229000 14.948000 0.000000
v -8.683000 9.144000 0.000000
v 4.268000 12.165000 0.000000
v 5.098000 8.608000 0.000000
v 16.768000 10.866000 0.000000
v 18.074000 3.872000 0.000000
v 19.271000 4.146000 0.000000
v 20.728000 -2.780000 0.000000
v 5.670000 -5.758000 0.000000
v 4.228000 1.556000 0.000000
v -4.105000 -0.496000 0.000000
v -1.991000 -11.940000 0.000000
v -13.642000 -14.948000 0.000000
v -19.274000 6.788000 0.000000
v -20.728000 12.593000 6.000000
v -10.229000 14.948000 6.000000
v -8.683000 9.144000 6.000000
v 4.268000 12.165000 6.000000
v 5.098000 8.608000 6.000000
v 16.768000 10.866000 6.000000
v 18.074000 3.872000 6.000000
v 19.271000 4.146000 6.000000
v 20.728000 -2.780000 6.000000
v 5.670000 -5.758000 6.000000
v 4.228000 1.556000 6.000000
v -4.105000 -0.496000 6.000000
v -1.991000 -11.940000 6.000000
v -13.642000 -14.948000 6.000000
v -19.274000 6.788000 6.000000
vn 0.000000 0.000000 -1.000000
vn 0.000000 0.000000 -1.000000
vn 0.000000 0.000000 -1.000000
vn 0.000000 0.000000 -1.000000
vn 0.000000 0.000000 -1.000000
vn 0.000000 0.000000 -1.000000
vn 0.000000 0.000000 -1.000000
vn 0.000000 -0.000000 -1.000000
vn 0.000000 0.000000 -1.000000
vn 0.000000 0.000000 -1.000000
vn 0.000000 0.000000 -1.000000
vn 0.000000 0.000000 -1.000000
vn -0.000000 0.000000 -1.000000
vn 0.000000 -0.000000 1.000000
vn 0.000000 0.000000 1.000000
vn -0.000000 0.000000 1.000000
vn 0.000000 0.000000 1.000000
vn -0.000000 0.000000 1.000000
vn -0.000000 0.000000 1.000000
vn -0.000000 0.000000 1.000000
vn 0.000000 0.000000 1.000000
vn 0.000000 0.000000 1.000000
vn 0.000000 0.000000 1.000000
vn 0.000000 0.000000 1.000000
vn 0.000000 0.000000 1.000000
vn 0.000000 0.000000 1.000000
vn -0.218869 0.975754 0.000000
vn -0.218869 0.975754 0.000000
vn 0.966307 0.257393 0.000000
vn 0.966307 0.257393 -0.000000
vn -0.227165 0.973856 0.000000
vn -0.227165 0.973856 0.000000
vn 0.973839 0.227238 0.000000
vn 0.973839 0.227238 -0.000000
vn -0.189964 0.981791 0.000000
vn -0.189964 0.981791 0.000000
vn 0.983009 0.183559 0.000000
vn 0.983009 0.183559 -0.000000
vn -0.223134 0.974788 0.000000
vn -0.223134 0.974788 0.000000
vn 0.978581 0.205861 0.000000
vn 0.978581 0.205861 -0.000000
vn 0.194011 -0.980999 0.000000
vn 0.194011 -0.980999 0.000000
vn -0.981114 -0.193433 0.000000
vn -0.981114 -0.193433 0.000000
vn 0.239107 -0.970993 0.000000
vn 0.239107 -0.970993 0.000000
vn 0.983363 0.181652 0.000000
vn 0.983363 0.181652 -0.000000
vn 0.249979 -0.968251 0.000000
vn 0.249979 -0.968251 0.000000
vn -0.968032 -0.250826 0.000000
vn -0.968032 -0.250826 0.000000
vn -0.970034 -0.242968 0.000000
vn -0.970034 -0.242968 0.000000
usemtl assumed_base
f 15//1 1//1 2//1
f 15//2 2//2 3//2
f 3//3 4//3 5//3
f 15//4 3//4 5//4
f 5//5 6//5 7//5
f 15//6 5//6 7//6
f 7//7 8//7 9//7
f 7//8 9//8 10//8
f 7//9 10//9 11//9
f 15//10 7//10 11//10
f 15//11 11//11 12//11
f 15//12 12//12 13//12
f 13//13 14//13 15//13
usemtl assumed_roof
f 30//14 17//14 16//14
f 30//15 18//15 17//15
f 18//16 20//16 19//16
f 30//17 20//17 18//17
f 20//18 22//18 21//18
f 30//19 22//19 20//19
f 22//20 24//20 23//20
f 22//21 25//21 24//21
f 22//22 26//22 25//22
f 30//23 26//23 22//23
f 30//24 27//24 26//24
f 30//25 28//25 27//25
f 28//26 30//26 29//26
usemtl assumed_wall
f 1//27 17//27 2//27
f 1//28 16//28 17//28
f 2//29 18//29 3//29
f 2//30 17//30 18//30
f 3//31 19//31 4//31
f 3//32 18//32 19//32
f 4//33 20//33 5//33
f 4//34 19//34 20//34
f 5//35 21//35 6//35
f 5//36 20//36 21//36
f 6//37 22//37 7//37
f 6//38 21//38 22//38
f 7//39 23//39 8//39
f 7//40 22//40 23//40
f 8//41 24//41 9//41
f 8//42 23//42 24//42
f 9//43 25//43 10//43
f 9//44 24//44 25//44
f 10//45 26//45 11//45
f 10//46 25//46 26//46
f 11//47 27//47 12//47
f 11//48 26//48 27//48
f 12//49 28//49 13//49
f 12//50 27//50 28//50
f 13//51 29//51 14//51
f 13//52 28//52 29//52
f 14//53 30//53 15//53
f 14//54 29//54 30//54
f 15//55 16//55 1//55
f 15//56 30//56 16//56
