# construction_3423_assumed_A_Casa
# source A_Casa
# h_campo 0.000000
# modeled_height 6.000000
# height_kind assumed
# local_origin_world_x 172001.034850
# local_origin_world_y 402500.144600
mtllib construction_artifacts.mtl

o construction_3423_assumed_A_Casa
v -18.425500 -1.254000 0.000000
v -8.600500 2.995000 0.000000
v 0.636500 6.489000 0.000000
v 8.313500 9.465000 0.000000
v 11.650500 1.191000 0.000000
v 16.838500 2.934000 0.000000
v 18.425500 -1.127000 0.000000
v -4.759500 -8.813000 0.000000
v -6.392500 -5.789000 0.000000
v -15.074500 -9.465000 0.000000
v -18.425500 -1.254000 6.000000
v -8.600500 2.995000 6.000000
v 0.636500 6.489000 6.000000
v 8.313500 9.465000 6.000000
v 11.650500 1.191000 6.000000
v 16.838500 2.934000 6.000000
v 18.425500 -1.127000 6.000000
v -4.759500 -8.813000 6.000000
v -6.392500 -5.789000 6.000000
v -15.074500 -9.465000 6.000000
vn 0.000000 0.000000 -1.000000
vn 0.000000 0.000000 -1.000000
vn 0.000000 0.000000 -1.000000
vn 0.000000 0.000000 -1.000000
vn 0.000000 -0.000000 -1.000000
vn 0.000000 -0.000000 -1.000000
vn 0.000000 0.000000 -1.000000
vn 0.000000 0.000000 -1.000000
vn 0.000000 -0.000000 1.000000
vn 0.000000 0.000000 1.000000
vn 0.000000 0.000000 1.000000
vn -0.000000 0.000000 1.000000
vn 0.000000 0.000000 1.000000
vn 0.000000 0.000000 1.000000
vn 0.000000 0.000000 1.000000
vn 0.000000 0.000000 1.000000
vn -0.396939 0.917845 0.000000
vn -0.396939 0.917845 0.000000
vn -0.353796 0.935322 0.000000
vn -0.353796 0.935322 0.000000
vn -0.361444 0.932394 0.000000
vn -0.361444 0.932394 0.000000
vn 0.927414 0.374037 0.000000
vn 0.927414 0.374037 -0.000000
vn -0.318474 0.947931 0.000000
vn -0.318474 0.947931 0.000000
vn 0.931405 0.363984 0.000000
vn 0.931405 0.363984 -0.000000
vn 0.314668 -0.949202 0.000000
vn 0.314668 -0.949202 0.000000
vn -0.879901 -0.475158 0.000000
vn -0.879901 -0.475158 0.000000
vn 0.389896 -0.920859 0.000000
vn 0.389896 -0.920859 0.000000
vn -0.925865 -0.377856 0.000000
vn -0.925865 -0.377856 0.000000
usemtl assumed_base
f 10//1 1//1 2//1
f 10//2 2//2 3//2
f 10//3 3//3 4//3
f 5//4 6//4 7//4
f 5//5 7//5 8//5
f 4//6 5//6 8//6
f 4//7 8//7 9//7
f 4//8 9//8 10//8
usemtl assumed_roof
f 20//9 12//9 11//9
f 20//10 13//10 12//10
f 20//11 14//11 13//11
f 15//12 17//12 16//12
f 15//13 18//13 17//13
f 14//14 18//14 15//14
f 14//15 19//15 18//15
f 14//16 20//16 19//16
usemtl assumed_wall
f 1//17 12//17 2//17
f 1//18 11//18 12//18
f 2//19 13//19 3//19
f 2//20 12//20 13//20
f 3//21 14//21 4//21
f 3//22 13//22 14//22
f 4//23 15//23 5//23
f 4//24 14//24 15//24
f 5//25 16//25 6//25
f 5//26 15//26 16//26
f 6//27 17//27 7//27
f 6//28 16//28 17//28
f 7//29 18//29 8//29
f 7//30 17//30 18//30
f 8//31 19//31 9//31
f 8//32 18//32 19//32
f 9//33 20//33 10//33
f 9//34 19//34 20//34
f 10//35 11//35 1//35
f 10//36 20//36 11//36
