# construction_4432_assumed_A_Casa
# source A_Casa
# h_campo 0.000000
# modeled_height 6.000000
# height_kind assumed
# local_origin_world_x 172001.034850
# local_origin_world_y 402500.144600
mtllib construction_artifacts.mtl

o construction_4432_assumed_A_Casa
v -21.573000 -2.235500 0.000000
v -13.394000 4.357500 0.000000
v -18.437000 10.140500 0.000000
v 2.670000 27.786500 0.000000
v 13.037000 15.961500 0.000000
v 7.930000 11.727500 0.000000
v 18.084000 0.351500 0.000000
v 14.687000 -2.310500 0.000000
v 21.573000 -9.668500 0.000000
v -0.265000 -27.786500 0.000000
v -21.573000 -2.235500 6.000000
v -13.394000 4.357500 6.000000
v -18.437000 10.140500 6.000000
v 2.670000 27.786500 6.000000
v 13.037000 15.961500 6.000000
v 7.930000 11.727500 6.000000
v 18.084000 0.351500 6.000000
v 14.687000 -2.310500 6.000000
v 21.573000 -9.668500 6.000000
v -0.265000 -27.786500 6.000000
vn 0.000000 0.000000 -1.000000
vn 0.000000 0.000000 -1.000000
vn 0.000000 0.000000 -1.000000
vn 0.000000 0.000000 -1.000000
vn 0.000000 0.000000 -1.000000
vn 0.000000 0.000000 -1.000000
vn 0.000000 0.000000 -1.000000
vn 0.000000 -0.000000 -1.000000
vn 0.000000 0.000000 1.000000
vn 0.000000 -0.000000 1.000000
vn 0.000000 -0.000000 1.000000
vn 0.000000 0.000000 1.000000
vn 0.000000 0.000000 1.000000
vn 0.000000 0.000000 1.000000
vn 0.000000 0.000000 1.000000
vn 0.000000 0.000000 1.000000
vn -0.627581 0.778551 0.000000
vn -0.627581 0.778551 0.000000
vn -0.753682 -0.657240 0.000000
vn -0.753682 -0.657240 0.000000
vn -0.641403 0.767204 0.000000
vn -0.641403 0.767204 0.000000
vn 0.751942 0.659229 0.000000
vn 0.751942 0.659229 -0.000000
vn 0.638240 -0.769837 0.000000
vn 0.638240 -0.769837 0.000000
vn 0.746040 0.665901 0.000000
vn 0.746040 0.665901 -0.000000
vn 0.616808 -0.787114 0.000000
vn 0.616808 -0.787114 0.000000
vn 0.730137 0.683301 0.000000
vn 0.730137 0.683301 -0.000000
vn 0.638512 -0.769612 0.000000
vn 0.638512 -0.769612 0.000000
vn -0.767992 -0.640459 0.000000
vn -0.767992 -0.640459 0.000000
usemtl assumed_base
f 10//1 1//1 2//1
f 2//2 3//2 4//2
f 10//3 2//3 4//3
f 4//4 5//4 6//4
f 10//5 4//5 6//5
f 6//6 7//6 8//6
f 10//7 6//7 8//7
f 8//8 9//8 10//8
usemtl assumed_roof
f 20//9 12//9 11//9
f 12//10 14//10 13//10
f 20//11 14//11 12//11
f 14//12 16//12 15//12
f 20//13 16//13 14//13
f 16//14 18//14 17//14
f 20//15 18//15 16//15
f 18//16 20//16 19//16
usemtl assumed_wall
f 1//17 12//17 2//17
f 1//18 11//18 12//18
f 2//19 13//19 3//19
f 2//20 12//20 13//20
f 3//21 14//21 4//21
f 3//22 13//22 14//22
f 4//23 15//23 5//23
f 4//24 14//24 15//24
f 5//25 16//25 6//25
f 5//26 15//26 16//26
f 6//27 17//27 7//27
f 6//28 16//28 17//28
f 7//29 18//29 8//29
f 7//30 17//30 18//30
f 8//31 19//31 9//31
f 8//32 18//32 19//32
f 9//33 20//33 10//33
f 9//34 19//34 20//34
f 10//35 11//35 1//35
f 10//36 20//36 11//36
