# construction_6138_assumed_A_Casa
# source A_Casa
# h_campo 0.000000
# modeled_height 6.000000
# height_kind assumed
# local_origin_world_x 172001.034850
# local_origin_world_y 402500.144600
mtllib construction_artifacts.mtl

o construction_6138_assumed_A_Casa
v -6.775500 -16.256000 0.000000
v -4.498500 4.031000 0.000000
v -1.625500 13.607000 0.000000
v -0.740500 16.103000 0.000000
v 1.393500 16.860000 0.000000
v 5.621500 8.521000 0.000000
v 4.510500 8.111000 0.000000
v 6.775500 2.975000 0.000000
v 1.213500 -0.064000 0.000000
v -1.193500 -16.860000 0.000000
v -6.775500 -16.256000 6.000000
v -4.498500 4.031000 6.000000
v -1.625500 13.607000 6.000000
v -0.740500 16.103000 6.000000
v 1.393500 16.860000 6.000000
v 5.621500 8.521000 6.000000
v 4.510500 8.111000 6.000000
v 6.775500 2.975000 6.000000
v 1.213500 -0.064000 6.000000
v -1.193500 -16.860000 6.000000
vn 0.000000 0.000000 -1.000000
vn 0.000000 0.000000 -1.000000
vn 0.000000 0.000000 -1.000000
vn 0.000000 0.000000 -1.000000
vn 0.000000 0.000000 -1.000000
vn 0.000000 -0.000000 -1.000000
vn 0.000000 -0.000000 -1.000000
vn 0.000000 0.000000 -1.000000
vn 0.000000 0.000000 1.000000
vn 0.000000 0.000000 1.000000
vn 0.000000 -0.000000 1.000000
vn 0.000000 0.000000 1.000000
vn 0.000000 0.000000 1.000000
vn 0.000000 0.000000 1.000000
vn 0.000000 0.000000 1.000000
vn 0.000000 0.000000 1.000000
vn -0.993760 0.111539 0.000000
vn -0.993760 0.111539 0.000000
vn -0.957821 0.287366 0.000000
vn -0.957821 0.287366 0.000000
vn -0.942508 0.334183 0.000000
vn -0.942508 0.334183 0.000000
vn -0.334321 0.942459 0.000000
vn -0.334321 0.942459 0.000000
vn 0.891910 0.452212 0.000000
vn 0.891910 0.452212 -0.000000
vn 0.346214 -0.938156 0.000000
vn 0.346214 -0.938156 0.000000
vn 0.914976 0.403509 0.000000
vn 0.914976 0.403509 -0.000000
vn 0.479482 -0.877552 0.000000
vn 0.479482 -0.877552 0.000000
vn 0.989887 -0.141859 0.000000
vn 0.989887 -0.141859 0.000000
vn -0.107577 -0.994197 0.000000
vn -0.107577 -0.994197 0.000000
usemtl assumed_base
f 10//1 1//1 2//1
f 10//2 2//2 3//2
f 10//3 3//3 4//3
f 10//4 4//4 5//4
f 5//5 6//5 7//5
f 7//6 8//6 9//6
f 5//7 7//7 9//7
f 5//8 9//8 10//8
usemtl assumed_roof
f 20//9 12//9 11//9
f 20//10 13//10 12//10
f 20//11 14//11 13//11
f 20//12 15//12 14//12
f 15//13 17//13 16//13
f 17//14 19//14 18//14
f 15//15 19//15 17//15
f 15//16 20//16 19//16
usemtl assumed_wall
f 1//17 12//17 2//17
f 1//18 11//18 12//18
f 2//19 13//19 3//19
f 2//20 12//20 13//20
f 3//21 14//21 4//21
f 3//22 13//22 14//22
f 4//23 15//23 5//23
f 4//24 14//24 15//24
f 5//25 16//25 6//25
f 5//26 15//26 16//26
f 6//27 17//27 7//27
f 6//28 16//28 17//28
f 7//29 18//29 8//29
f 7//30 17//30 18//30
f 8//31 19//31 9//31
f 8//32 18//32 19//32
f 9//33 20//33 10//33
f 9//34 19//34 20//34
f 10//35 11//35 1//35
f 10//36 20//36 11//36
