# construction_2696_assumed_A_Casa
# source A_Casa
# h_campo 0.000000
# modeled_height 6.000000
# height_kind assumed
# local_origin_world_x 172001.034850
# local_origin_world_y 402500.144600
mtllib construction_artifacts.mtl

o construction_2696_assumed_A_Casa
v -1.162400 -15.447700 0.000000
v -8.080600 15.447700 0.000000
v 0.748500 15.447700 0.000000
v 3.022600 5.692300 0.000000
v 0.788600 4.725300 0.000000
v 2.618600 -3.268700 0.000000
v 5.889600 -2.702700 0.000000
v 8.080600 -13.487700 0.000000
v -1.162400 -15.447700 6.000000
v -8.080600 15.447700 6.000000
v 0.748500 15.447700 6.000000
v 3.022600 5.692300 6.000000
v 0.788600 4.725300 6.000000
v 2.618600 -3.268700 6.000000
v 5.889600 -2.702700 6.000000
v 8.080600 -13.487700 6.000000
vn -0.000000 0.000000 -1.000000
vn 0.000000 0.000000 -1.000000
vn 0.000000 0.000000 -1.000000
vn 0.000000 0.000000 -1.000000
vn 0.000000 0.000000 -1.000000
vn 0.000000 0.000000 -1.000000
vn 0.000000 0.000000 1.000000
vn -0.000000 0.000000 1.000000
vn 0.000000 0.000000 1.000000
vn 0.000000 0.000000 1.000000
vn 0.000000 0.000000 1.000000
vn -0.000000 0.000000 1.000000
vn -0.975834 -0.218512 0.000000
vn -0.975834 -0.218512 0.000000
vn 0.000000 1.000000 0.000000
vn 0.000000 1.000000 0.000000
vn 0.973889 0.227025 0.000000
vn 0.973889 0.227025 -0.000000
vn 0.397238 -0.917715 0.000000
vn 0.397238 -0.917715 0.000000
vn 0.974784 0.223149 0.000000
vn 0.974784 0.223149 -0.000000
vn -0.170502 0.985357 0.000000
vn -0.170502 0.985357 0.000000
vn 0.979982 0.199086 0.000000
vn 0.979982 0.199086 -0.000000
vn 0.207440 -0.978248 0.000000
vn 0.207440 -0.978248 0.000000
usemtl assumed_base
f 8//1 1//1 2//1
f 2//2 3//2 4//2
f 2//3 4//3 5//3
f 2//4 5//4 6//4
f 8//5 2//5 6//5
f 6//6 7//6 8//6
usemtl assumed_roof
f 16//7 10//7 9//7
f 10//8 12//8 11//8
f 10//9 13//9 12//9
f 10//10 14//10 13//10
f 16//11 14//11 10//11
f 14//12 16//12 15//12
usemtl assumed_wall
f 1//13 10//13 2//13
f 1//14 9//14 10//14
f 2//15 11//15 3//15
f 2//16 10//16 11//16
f 3//17 12//17 4//17
f 3//18 11//18 12//18
f 4//19 13//19 5//19
f 4//20 12//20 13//20
f 5//21 14//21 6//21
f 5//22 13//22 14//22
f 6//23 15//23 7//23
f 6//24 14//24 15//24
f 7//25 16//25 8//25
f 7//26 15//26 16//26
f 8//27 9//27 1//27
f 8//28 16//28 9//28
