# construction_5936_assumed_A_Casa
# source A_Casa
# h_campo 0.000000
# modeled_height 6.000000
# height_kind assumed
# local_origin_world_x 172001.034850
# local_origin_world_y 402500.144600
mtllib construction_artifacts.mtl

o construction_5936_assumed_A_Casa
v -14.310500 0.140000 0.000000
v -13.076500 0.751000 0.000000
v -14.310500 3.344000 0.000000
v -3.220500 8.374000 0.000000
v -6.361500 12.905000 0.000000
v -1.470500 16.138000 0.000000
v -0.309500 15.321000 0.000000
v 5.320500 19.253000 0.000000
v 14.310500 7.681000 0.000000
v 5.225500 1.129000 0.000000
v 11.591500 -9.137000 0.000000
v 10.812500 -11.669000 0.000000
v 0.780500 -17.067000 0.000000
v -0.110500 -16.215000 0.000000
v -7.048500 -19.253000 0.000000
v -14.238500 -4.425000 0.000000
v -12.657500 -3.261000 0.000000
v -14.310500 0.140000 6.000000
v -13.076500 0.751000 6.000000
v -14.310500 3.344000 6.000000
v -3.220500 8.374000 6.000000
v -6.361500 12.905000 6.000000
v -1.470500 16.138000 6.000000
v -0.309500 15.321000 6.000000
v 5.320500 19.253000 6.000000
v 14.310500 7.681000 6.000000
v 5.225500 1.129000 6.000000
v 11.591500 -9.137000 6.000000
v 10.812500 -11.669000 6.000000
v 0.780500 -17.067000 6.000000
v -0.110500 -16.215000 6.000000
v -7.048500 -19.253000 6.000000
v -14.238500 -4.425000 6.000000
v -12.657500 -3.261000 6.000000
vn 0.000000 0.000000 -1.000000
vn 0.000000 0.000000 -1.000000
vn 0.000000 0.000000 -1.000000
vn 0.000000 0.000000 -1.000000
vn 0.000000 0.000000 -1.000000
vn 0.000000 0.000000 -1.000000
vn 0.000000 0.000000 -1.000000
vn 0.000000 0.000000 -1.000000
vn 0.000000 0.000000 -1.000000
vn 0.000000 0.000000 -1.000000
vn 0.000000 0.000000 -1.000000
vn 0.000000 0.000000 -1.000000
vn 0.000000 0.000000 -1.000000
vn 0.000000 0.000000 -1.000000
vn 0.000000 0.000000 -1.000000
vn 0.000000 0.000000 1.000000
vn 0.000000 -0.000000 1.000000
vn 0.000000 -0.000000 1.000000
vn 0.000000 -0.000000 1.000000
vn 0.000000 0.000000 1.000000
vn 0.000000 0.000000 1.000000
vn -0.000000 0.000000 1.000000
vn 0.000000 0.000000 1.000000
vn 0.000000 0.000000 1.000000
vn -0.000000 0.000000 1.000000
vn 0.000000 0.000000 1.000000
vn 0.000000 0.000000 1.000000
vn 0.000000 0.000000 1.000000
vn 0.000000 0.000000 1.000000
vn 0.000000 0.000000 1.000000
vn -0.443724 0.896163 0.000000
vn -0.443724 0.896163 0.000000
vn -0.902963 -0.429717 0.000000
vn -0.902963 -0.429717 0.000000
vn -0.413060 0.910704 0.000000
vn -0.413060 0.910704 0.000000
vn -0.821839 -0.569719 0.000000
vn -0.821839 -0.569719 0.000000
vn -0.551429 0.834222 0.000000
vn -0.551429 0.834222 0.000000
vn 0.575493 0.817806 0.000000
vn 0.575493 0.817806 -0.000000
vn -0.572582 0.819847 0.000000
vn -0.572582 0.819847 0.000000
vn 0.789698 0.613496 0.000000
vn 0.789698 0.613496 -0.000000
vn 0.584940 -0.811077 0.000000
vn 0.584940 -0.811077 0.000000
vn 0.849863 0.527004 0.000000
vn 0.849863 0.527004 -0.000000
vn 0.955787 -0.294059 0.000000
vn 0.955787 -0.294059 0.000000
vn 0.473838 -0.880612 0.000000
vn 0.473838 -0.880612 0.000000
vn -0.691112 -0.722748 0.000000
vn -0.691112 -0.722748 0.000000
vn 0.401110 -0.916030 0.000000
vn 0.401110 -0.916030 0.000000
vn -0.899798 -0.436306 0.000000
vn -0.899798 -0.436306 0.000000
vn -0.592886 0.805286 0.000000
vn -0.592886 0.805286 0.000000
vn -0.899395 -0.437136 0.000000
vn -0.899395 -0.437136 0.000000
usemtl assumed_base
f 17//1 1//1 2//1
f 2//2 3//2 4//2
f 17//3 2//3 4//3
f 4//4 5//4 6//4
f 4//5 6//5 7//5
f 4//6 7//6 8//6
f 4//7 8//7 9//7
f 17//8 4//8 9//8
f 17//9 9//9 10//9
f 17//10 10//10 11//10
f 17//11 11//11 12//11
f 17//12 12//12 13//12
f 17//13 13//13 14//13
f 17//14 14//14 15//14
f 15//15 16//15 17//15
usemtl assumed_roof
f 34//16 19//16 18//16
f 19//17 21//17 20//17
f 34//18 21//18 19//18
f 21//19 23//19 22//19
f 21//20 24//20 23//20
f 21//21 25//21 24//21
f 21//22 26//22 25//22
f 34//23 26//23 21//23
f 34//24 27//24 26//24
f 34//25 28//25 27//25
f 34//26 29//26 28//26
f 34//27 30//27 29//27
f 34//28 31//28 30//28
f 34//29 32//29 31//29
f 32//30 34//30 33//30
usemtl assumed_wall
f 1//31 19//31 2//31
f 1//32 18//32 19//32
f 2//33 20//33 3//33
f 2//34 19//34 20//34
f 3//35 21//35 4//35
f 3//36 20//36 21//36
f 4//37 22//37 5//37
f 4//38 21//38 22//38
f 5//39 23//39 6//39
f 5//40 22//40 23//40
f 6//41 24//41 7//41
f 6//42 23//42 24//42
f 7//43 25//43 8//43
f 7//44 24//44 25//44
f 8//45 26//45 9//45
f 8//46 25//46 26//46
f 9//47 27//47 10//47
f 9//48 26//48 27//48
f 10//49 28//49 11//49
f 10//50 27//50 28//50
f 11//51 29//51 12//51
f 11//52 28//52 29//52
f 12//53 30//53 13//53
f 12//54 29//54 30//54
f 13//55 31//55 14//55
f 13//56 30//56 31//56
f 14//57 32//57 15//57
f 14//58 31//58 32//58
f 15//59 33//59 16//59
f 15//60 32//60 33//60
f 16//61 34//61 17//61
f 16//62 33//62 34//62
f 17//63 18//63 1//63
f 17//64 34//64 18//64
