# construction_6981_assumed_A_Casa
# source A_Casa
# h_campo 0.000000
# modeled_height 6.000000
# height_kind assumed
# local_origin_world_x 172001.034850
# local_origin_world_y 402500.144600
mtllib construction_artifacts.mtl

o construction_6981_assumed_A_Casa
v -24.214000 22.024500 0.000000
v -19.127000 22.056500 0.000000
v -16.032000 8.869500 0.000000
v -8.938000 9.822500 0.000000
v -8.346000 5.383500 0.000000
v 18.208000 11.644500 0.000000
v 24.214000 2.080500 0.000000
v 0.510000 -11.577500 0.000000
v -4.022000 -1.558500 0.000000
v -11.126000 -3.550500 0.000000
v -10.866000 -5.601500 0.000000
v -7.564000 -5.308500 0.000000
v -6.233000 -4.151500 0.000000
v -3.996000 -12.928500 0.000000
v -0.810000 -11.792500 0.000000
v 0.818000 -15.328500 0.000000
v -3.516000 -17.887500 0.000000
v -5.761000 -14.817500 0.000000
v -18.271000 -22.056500 0.000000
v -21.588000 2.428500 0.000000
v -24.214000 22.024500 6.000000
v -19.127000 22.056500 6.000000
v -16.032000 8.869500 6.000000
v -8.938000 9.822500 6.000000
v -8.346000 5.383500 6.000000
v 18.208000 11.644500 6.000000
v 24.214000 2.080500 6.000000
v 0.510000 -11.577500 6.000000
v -4.022000 -1.558500 6.000000
v -11.126000 -3.550500 6.000000
v -10.866000 -5.601500 6.000000
v -7.564000 -5.308500 6.000000
v -6.233000 -4.151500 6.000000
v -3.996000 -12.928500 6.000000
v -0.810000 -11.792500 6.000000
v 0.818000 -15.328500 6.000000
v -3.516000 -17.887500 6.000000
v -5.761000 -14.817500 6.000000
v -18.271000 -22.056500 6.000000
v -21.588000 2.428500 6.000000
v 6.012000 4.543500 0.000000
v 10.074000 -2.751500 0.000000
v 15.515000 0.888500 0.000000
v 14.971000 2.078500 0.000000
v 17.049000 2.749500 0.000000
v 14.957000 6.148500 0.000000
v 6.012000 4.543500 6.000000
v 10.074000 -2.751500 6.000000
v 15.515000 0.888500 6.000000
v 14.971000 2.078500 6.000000
v 17.049000 2.749500 6.000000
v 14.957000 6.148500 6.000000
vn 0.000000 0.000000 -1.000000
vn 0.000000 0.000000 -1.000000
vn 0.000000 0.000000 -1.000000
vn 0.000000 0.000000 -1.000000
vn 0.000000 0.000000 -1.000000
vn 0.000000 0.000000 -1.000000
vn 0.000000 0.000000 -1.000000
vn 0.000000 0.000000 -1.000000
vn 0.000000 0.000000 -1.000000
vn 0.000000 0.000000 -1.000000
vn 0.000000 0.000000 -1.000000
vn 0.000000 0.000000 -1.000000
vn 0.000000 0.000000 -1.000000
vn 0.000000 0.000000 -1.000000
vn 0.000000 0.000000 -1.000000
vn 0.000000 -0.000000 -1.000000
vn 0.000000 0.000000 -1.000000
vn -0.000000 0.000000 -1.000000
vn 0.000000 0.000000 -1.000000
vn 0.000000 0.000000 -1.000000
vn 0.000000 -0.000000 -1.000000
vn 0.000000 0.000000 -1.000000
vn 0.000000 -0.000000 1.000000
vn 0.000000 0.000000 1.000000
vn 0.000000 0.000000 1.000000
vn 0.000000 0.000000 1.000000
vn -0.000000 0.000000 1.000000
vn -0.000000 0.000000 1.000000
vn 0.000000 0.000000 1.000000
vn 0.000000 0.000000 1.000000
vn 0.000000 0.000000 1.000000
vn 0.000000 0.000000 1.000000
vn -0.000000 0.000000 1.000000
vn -0.000000 0.000000 1.000000
vn 0.000000 0.000000 1.000000
vn -0.000000 0.000000 1.000000
vn 0.000000 0.000000 1.000000
vn 0.000000 0.000000 1.000000
vn 0.000000 0.000000 1.000000
vn 0.000000 0.000000 1.000000
vn 0.000000 0.000000 1.000000
vn 0.000000 0.000000 1.000000
vn 0.000000 0.000000 1.000000
vn 0.000000 -0.000000 1.000000
vn -0.006290 0.999980 0.000000
vn -0.006290 0.999980 0.000000
vn 0.973546 0.228492 0.000000
vn 0.973546 0.228492 -0.000000
vn -0.133143 0.991097 0.000000
vn -0.133143 0.991097 0.000000
vn 0.991224 0.132193 0.000000
vn 0.991224 0.132193 -0.000000
vn -0.229491 0.973311 0.000000
vn -0.229491 0.973311 0.000000
vn 0.846862 0.531812 0.000000
vn 0.846862 0.531812 -0.000000
vn 0.499246 -0.866461 0.000000
vn 0.499246 -0.866461 0.000000
vn -0.911122 -0.412137 0.000000
vn -0.911122 -0.412137 0.000000
vn 0.269992 -0.962863 0.000000
vn 0.269992 -0.962863 0.000000
vn 0.992061 0.125761 0.000000
vn 0.992061 0.125761 -0.000000
vn -0.088387 0.996086 0.000000
vn -0.088387 0.996086 0.000000
vn -0.656052 0.754715 0.000000
vn -0.656052 0.754715 0.000000
vn 0.969022 0.246975 0.000000
vn 0.969022 0.246975 -0.000000
vn -0.335849 0.941916 0.000000
vn -0.335849 0.941916 0.000000
vn 0.908350 0.418211 0.000000
vn 0.908350 0.418211 -0.000000
vn 0.508435 -0.861101 0.000000
vn 0.508435 -0.861101 0.000000
vn -0.807198 -0.590280 0.000000
vn -0.807198 -0.590280 0.000000
vn 0.500848 -0.865535 0.000000
vn 0.500848 -0.865535 0.000000
vn -0.990948 -0.134244 0.000000
vn -0.990948 -0.134244 0.000000
vn -0.991140 -0.132820 0.000000
vn -0.991140 -0.132820 0.000000
vn -0.873688 -0.486487 0.000000
vn -0.873688 -0.486487 0.000000
vn 0.556039 -0.831156 0.000000
vn 0.556039 -0.831156 0.000000
vn 0.909474 0.415760 0.000000
vn 0.909474 0.415760 -0.000000
vn 0.307284 -0.951618 0.000000
vn 0.307284 -0.951618 0.000000
vn 0.851624 0.524153 0.000000
vn 0.851624 0.524153 -0.000000
vn -0.176609 0.984281 0.000000
vn -0.176609 0.984281 0.000000
usemtl assumed_base
f 20//1 1//1 2//1
f 20//2 2//2 3//2
f 20//3 3//3 4//3
f 20//4 4//4 5//4
f 5//5 6//5 7//5
f 20//6 5//6 7//6
f 7//7 8//7 9//7
f 20//8 7//8 9//8
f 20//9 9//9 10//9
f 20//10 10//10 11//10
f 12//11 13//11 14//11
f 11//12 12//12 14//12
f 20//13 11//13 14//13
f 14//14 15//14 16//14
f 14//15 16//15 17//15
f 14//16 17//16 18//16
f 20//17 14//17 18//17
f 18//18 19//18 20//18
f 46//19 42//19 41//19
f 42//20 44//20 43//20
f 46//21 44//21 42//21
f 44//22 46//22 45//22
usemtl assumed_roof
f 40//23 22//23 21//23
f 40//24 23//24 22//24
f 40//25 24//25 23//25
f 40//26 25//26 24//26
f 25//27 27//27 26//27
f 40//28 27//28 25//28
f 27//29 29//29 28//29
f 40//30 29//30 27//30
f 40//31 30//31 29//31
f 40//32 31//32 30//32
f 32//33 34//33 33//33
f 31//34 34//34 32//34
f 40//35 34//35 31//35
f 34//36 36//36 35//36
f 34//37 37//37 36//37
f 34//38 38//38 37//38
f 40//39 38//39 34//39
f 38//40 40//40 39//40
f 52//41 47//41 48//41
f 48//42 49//42 50//42
f 52//43 48//43 50//43
f 50//44 51//44 52//44
usemtl assumed_wall
f 1//45 22//45 2//45
f 1//46 21//46 22//46
f 2//47 23//47 3//47
f 2//48 22//48 23//48
f 3//49 24//49 4//49
f 3//50 23//50 24//50
f 4//51 25//51 5//51
f 4//52 24//52 25//52
f 5//53 26//53 6//53
f 5//54 25//54 26//54
f 6//55 27//55 7//55
f 6//56 26//56 27//56
f 7//57 28//57 8//57
f 7//58 27//58 28//58
f 8//59 29//59 9//59
f 8//60 28//60 29//60
f 9//61 30//61 10//61
f 9//62 29//62 30//62
f 10//63 31//63 11//63
f 10//64 30//64 31//64
f 11//65 32//65 12//65
f 11//66 31//66 32//66
f 12//67 33//67 13//67
f 12//68 32//68 33//68
f 13//69 34//69 14//69
f 13//70 33//70 34//70
f 14//71 35//71 15//71
f 14//72 34//72 35//72
f 15//73 36//73 16//73
f 15//74 35//74 36//74
f 16//75 37//75 17//75
f 16//76 36//76 37//76
f 17//77 38//77 18//77
f 17//78 37//78 38//78
f 18//79 39//79 19//79
f 18//80 38//80 39//80
f 19//81 40//81 20//81
f 19//82 39//82 40//82
f 20//83 21//83 1//83
f 20//84 40//84 21//84
f 41//85 42//85 48//85
f 41//86 48//86 47//86
f 42//87 43//87 49//87
f 42//88 49//88 48//88
f 43//89 44//89 50//89
f 43//90 50//90 49//90
f 44//91 45//91 51//91
f 44//92 51//92 50//92
f 45//93 46//93 52//93
f 45//94 52//94 51//94
f 46//95 41//95 47//95
f 46//96 47//96 52//96
