# construction_1233_assumed_A_Casa
# source A_Casa
# h_campo 0.000000
# modeled_height 6.000000
# height_kind assumed
# local_origin_world_x 172001.034850
# local_origin_world_y 402500.144600
mtllib construction_artifacts.mtl

o construction_1233_assumed_A_Casa
v -7.592500 -8.580500 0.000000
v -12.690500 -7.028500 0.000000
v -13.256500 -9.257500 0.000000
v -14.640500 -8.824500 0.000000
v -15.850500 -10.109500 0.000000
v -20.628500 -8.877500 0.000000
v -19.208500 -4.521500 0.000000
v -23.445500 -3.642500 0.000000
v -21.813500 2.703500 0.000000
v -20.630500 6.620500 0.000000
v -11.549500 4.459500 0.000000
v -10.571500 9.286500 0.000000
v 2.487500 7.459500 0.000000
v 4.502500 10.080500 0.000000
v 12.850500 10.109500 0.000000
v 13.022500 9.114500 0.000000
v 23.427500 9.150500 0.000000
v 23.445500 4.023500 0.000000
v 12.837500 3.936500 0.000000
v 12.843500 2.182500 0.000000
v 0.228500 2.325500 0.000000
v -3.611500 -8.903500 0.000000
v -7.375500 -7.770500 0.000000
v -7.592500 -8.580500 6.000000
v -12.690500 -7.028500 6.000000
v -13.256500 -9.257500 6.000000
v -14.640500 -8.824500 6.000000
v -15.850500 -10.109500 6.000000
v -20.628500 -8.877500 6.000000
v -19.208500 -4.521500 6.000000
v -23.445500 -3.642500 6.000000
v -21.813500 2.703500 6.000000
v -20.630500 6.620500 6.000000
v -11.549500 4.459500 6.000000
v -10.571500 9.286500 6.000000
v 2.487500 7.459500 6.000000
v 4.502500 10.080500 6.000000
v 12.850500 10.109500 6.000000
v 13.022500 9.114500 6.000000
v 23.427500 9.150500 6.000000
v 23.445500 4.023500 6.000000
v 12.837500 3.936500 6.000000
v 12.843500 2.182500 6.000000
v 0.228500 2.325500 6.000000
v -3.611500 -8.903500 6.000000
v -7.375500 -7.770500 6.000000
vn -0.000000 0.000000 -1.000000
vn 0.000000 0.000000 -1.000000
vn 0.000000 0.000000 -1.000000
vn 0.000000 0.000000 -1.000000
vn -0.000000 0.000000 -1.000000
vn 0.000000 0.000000 -1.000000
vn 0.000000 0.000000 -1.000000
vn 0.000000 0.000000 -1.000000
vn 0.000000 0.000000 -1.000000
vn 0.000000 0.000000 -1.000000
vn 0.000000 0.000000 -1.000000
vn 0.000000 0.000000 -1.000000
vn 0.000000 0.000000 -1.000000
vn 0.000000 0.000000 -1.000000
vn 0.000000 0.000000 -1.000000
vn 0.000000 0.000000 -1.000000
vn 0.000000 0.000000 -1.000000
vn 0.000000 0.000000 -1.000000
vn 0.000000 -0.000000 -1.000000
vn 0.000000 0.000000 -1.000000
vn 0.000000 0.000000 -1.000000
vn 0.000000 0.000000 1.000000
vn 0.000000 0.000000 1.000000
vn 0.000000 0.000000 1.000000
vn 0.000000 0.000000 1.000000
vn 0.000000 0.000000 1.000000
vn 0.000000 0.000000 1.000000
vn 0.000000 0.000000 1.000000
vn 0.000000 0.000000 1.000000
vn 0.000000 0.000000 1.000000
vn 0.000000 0.000000 1.000000
vn 0.000000 0.000000 1.000000
vn 0.000000 -0.000000 1.000000
vn 0.000000 0.000000 1.000000
vn -0.000000 0.000000 1.000000
vn -0.000000 0.000000 1.000000
vn 0.000000 0.000000 1.000000
vn 0.000000 0.000000 1.000000
vn 0.000000 0.000000 1.000000
vn 0.000000 0.000000 1.000000
vn 0.000000 0.000000 1.000000
vn 0.000000 0.000000 1.000000
vn -0.291236 -0.956651 0.000000
vn -0.291236 -0.956651 0.000000
vn 0.969241 -0.246115 0.000000
vn 0.969241 -0.246115 0.000000
vn -0.298589 -0.954382 0.000000
vn -0.298589 -0.954382 0.000000
vn 0.728034 -0.685541 0.000000
vn 0.728034 -0.685541 0.000000
vn -0.249682 -0.968328 0.000000
vn -0.249682 -0.968328 0.000000
vn -0.950758 0.309935 0.000000
vn -0.950758 0.309935 0.000000
vn -0.203133 -0.979151 0.000000
vn -0.203133 -0.979151 0.000000
vn -0.968487 0.249066 0.000000
vn -0.968487 0.249066 0.000000
vn -0.957293 0.289119 0.000000
vn -0.957293 0.289119 0.000000
vn 0.231505 0.972834 0.000000
vn 0.231505 0.972834 -0.000000
vn -0.980086 0.198575 0.000000
vn -0.980086 0.198575 0.000000
vn 0.138554 0.990355 0.000000
vn 0.138554 0.990355 -0.000000
vn -0.792793 0.609491 0.000000
vn -0.792793 0.609491 0.000000
vn -0.003474 0.999994 0.000000
vn -0.003474 0.999994 0.000000
vn 0.985386 0.170338 0.000000
vn 0.985386 0.170338 -0.000000
vn -0.003460 0.999994 0.000000
vn -0.003460 0.999994 0.000000
vn 0.999994 0.003511 0.000000
vn 0.999994 0.003511 -0.000000
vn 0.008201 -0.999966 0.000000
vn 0.008201 -0.999966 0.000000
vn 0.999994 0.003421 0.000000
vn 0.999994 0.003421 -0.000000
vn -0.011335 -0.999936 0.000000
vn -0.011335 -0.999936 0.000000
vn 0.946203 -0.323575 0.000000
vn 0.946203 -0.323575 0.000000
vn -0.288235 -0.957560 0.000000
vn -0.288235 -0.957560 0.000000
vn 0.965937 -0.258776 0.000000
vn 0.965937 -0.258776 0.000000
usemtl assumed_base
f 23//1 1//1 2//1
f 2//2 3//2 4//2
f 4//3 5//3 6//3
f 2//4 4//4 6//4
f 2//5 6//5 7//5
f 23//6 2//6 7//6
f 7//7 8//7 9//7
f 23//8 7//8 9//8
f 23//9 9//9 10//9
f 23//10 10//10 11//10
f 23//11 11//11 12//11
f 23//12 12//12 13//12
f 23//13 13//13 14//13
f 14//14 15//14 16//14
f 16//15 17//15 18//15
f 14//16 16//16 18//16
f 14//17 18//17 19//17
f 14//18 19//18 20//18
f 14//19 20//19 21//19
f 23//20 14//20 21//20
f 21//21 22//21 23//21
usemtl assumed_roof
f 46//22 25//22 24//22
f 25//23 27//23 26//23
f 27//24 29//24 28//24
f 25//25 29//25 27//25
f 25//26 30//26 29//26
f 46//27 30//27 25//27
f 30//28 32//28 31//28
f 46//29 32//29 30//29
f 46//30 33//30 32//30
f 46//31 34//31 33//31
f 46//32 35//32 34//32
f 46//33 36//33 35//33
f 46//34 37//34 36//34
f 37//35 39//35 38//35
f 39//36 41//36 40//36
f 37//37 41//37 39//37
f 37//38 42//38 41//38
f 37//39 43//39 42//39
f 37//40 44//40 43//40
f 46//41 44//41 37//41
f 44//42 46//42 45//42
usemtl assumed_wall
f 1//43 25//43 2//43
f 1//44 24//44 25//44
f 2//45 26//45 3//45
f 2//46 25//46 26//46
f 3//47 27//47 4//47
f 3//48 26//48 27//48
f 4//49 28//49 5//49
f 4//50 27//50 28//50
f 5//51 29//51 6//51
f 5//52 28//52 29//52
f 6//53 30//53 7//53
f 6//54 29//54 30//54
f 7//55 31//55 8//55
f 7//56 30//56 31//56
f 8//57 32//57 9//57
f 8//58 31//58 32//58
f 9//59 33//59 10//59
f 9//60 32//60 33//60
f 10//61 34//61 11//61
f 10//62 33//62 34//62
f 11//63 35//63 12//63
f 11//64 34//64 35//64
f 12//65 36//65 13//65
f 12//66 35//66 36//66
f 13//67 37//67 14//67
f 13//68 36//68 37//68
f 14//69 38//69 15//69
f 14//70 37//70 38//70
f 15//71 39//71 16//71
f 15//72 38//72 39//72
f 16//73 40//73 17//73
f 16//74 39//74 40//74
f 17//75 41//75 18//75
f 17//76 40//76 41//76
f 18//77 42//77 19//77
f 18//78 41//78 42//78
f 19//79 43//79 20//79
f 19//80 42//80 43//80
f 20//81 44//81 21//81
f 20//82 43//82 44//82
f 21//83 45//83 22//83
f 21//84 44//84 45//84
f 22//85 46//85 23//85
f 22//86 45//86 46//86
f 23//87 24//87 1//87
f 23//88 46//88 24//88
