# construction_5491_assumed_A_Casa
# source A_Casa
# h_campo 0.000000
# modeled_height 6.000000
# height_kind assumed
# local_origin_world_x 172001.034850
# local_origin_world_y 402500.144600
mtllib construction_artifacts.mtl

o construction_5491_assumed_A_Casa
v -10.958000 0.128500 0.000000
v -12.141000 4.742500 0.000000
v -11.559000 5.261500 0.000000
v -13.127000 12.116500 0.000000
v -7.806000 13.444500 0.000000
v -5.916000 5.791500 0.000000
v 1.150000 8.547500 0.000000
v 10.907000 -0.519500 0.000000
v 13.127000 -8.910500 0.000000
v -2.427000 -13.444500 0.000000
v -5.745000 1.387500 0.000000
v -10.958000 0.128500 6.000000
v -12.141000 4.742500 6.000000
v -11.559000 5.261500 6.000000
v -13.127000 12.116500 6.000000
v -7.806000 13.444500 6.000000
v -5.916000 5.791500 6.000000
v 1.150000 8.547500 6.000000
v 10.907000 -0.519500 6.000000
v 13.127000 -8.910500 6.000000
v -2.427000 -13.444500 6.000000
v -5.745000 1.387500 6.000000
vn -0.000000 0.000000 -1.000000
vn 0.000000 0.000000 -1.000000
vn 0.000000 0.000000 -1.000000
vn 0.000000 0.000000 -1.000000
vn 0.000000 0.000000 -1.000000
vn 0.000000 0.000000 -1.000000
vn 0.000000 0.000000 -1.000000
vn 0.000000 0.000000 -1.000000
vn -0.000000 0.000000 -1.000000
vn 0.000000 0.000000 1.000000
vn 0.000000 0.000000 1.000000
vn 0.000000 0.000000 1.000000
vn 0.000000 0.000000 1.000000
vn 0.000000 0.000000 1.000000
vn 0.000000 -0.000000 1.000000
vn -0.000000 0.000000 1.000000
vn 0.000000 0.000000 1.000000
vn 0.000000 0.000000 1.000000
vn -0.968668 -0.248360 0.000000
vn -0.968668 -0.248360 0.000000
vn -0.665557 0.746347 0.000000
vn -0.665557 0.746347 0.000000
vn -0.974823 -0.222979 0.000000
vn -0.974823 -0.222979 0.000000
vn -0.242149 0.970239 0.000000
vn -0.242149 0.970239 0.000000
vn 0.970833 0.239759 0.000000
vn 0.970833 0.239759 -0.000000
vn -0.363375 0.931643 0.000000
vn -0.363375 0.931643 0.000000
vn 0.680730 0.732534 0.000000
vn 0.680730 0.732534 -0.000000
vn 0.966738 0.255769 0.000000
vn 0.966738 0.255769 -0.000000
vn 0.279853 -0.960043 0.000000
vn 0.279853 -0.960043 0.000000
vn -0.975880 -0.218310 0.000000
vn -0.975880 -0.218310 0.000000
vn 0.234762 -0.972053 0.000000
vn 0.234762 -0.972053 0.000000
usemtl assumed_base
f 11//1 1//1 2//1
f 11//2 2//2 3//2
f 11//3 3//3 4//3
f 11//4 4//4 5//4
f 11//5 5//5 6//5
f 11//6 6//6 7//6
f 11//7 7//7 8//7
f 11//8 8//8 9//8
f 9//9 10//9 11//9
usemtl assumed_roof
f 22//10 13//10 12//10
f 22//11 14//11 13//11
f 22//12 15//12 14//12
f 22//13 16//13 15//13
f 22//14 17//14 16//14
f 22//15 18//15 17//15
f 22//16 19//16 18//16
f 22//17 20//17 19//17
f 20//18 22//18 21//18
usemtl assumed_wall
f 1//19 13//19 2//19
f 1//20 12//20 13//20
f 2//21 14//21 3//21
f 2//22 13//22 14//22
f 3//23 15//23 4//23
f 3//24 14//24 15//24
f 4//25 16//25 5//25
f 4//26 15//26 16//26
f 5//27 17//27 6//27
f 5//28 16//28 17//28
f 6//29 18//29 7//29
f 6//30 17//30 18//30
f 7//31 19//31 8//31
f 7//32 18//32 19//32
f 8//33 20//33 9//33
f 8//34 19//34 20//34
f 9//35 21//35 10//35
f 9//36 20//36 21//36
f 10//37 22//37 11//37
f 10//38 21//38 22//38
f 11//39 12//39 1//39
f 11//40 22//40 12//40
