# construction_5346_assumed_A_Casa
# source A_Casa
# h_campo 0.000000
# modeled_height 6.000000
# height_kind assumed
# local_origin_world_x 172001.034850
# local_origin_world_y 402500.144600
mtllib construction_artifacts.mtl

o construction_5346_assumed_A_Casa
v -21.860500 15.415500 0.000000
v 2.547500 21.455500 0.000000
v 5.269500 11.167500 0.000000
v 14.662500 12.914500 0.000000
v 21.860500 -15.436500 0.000000
v 11.654500 -17.623500 0.000000
v 11.254500 -16.347500 0.000000
v -9.954500 -21.455500 0.000000
v -21.860500 15.415500 6.000000
v 2.547500 21.455500 6.000000
v 5.269500 11.167500 6.000000
v 14.662500 12.914500 6.000000
v 21.860500 -15.436500 6.000000
v 11.654500 -17.623500 6.000000
v 11.254500 -16.347500 6.000000
v -9.954500 -21.455500 6.000000
v -4.017500 5.784500 0.000000
v -0.789500 -4.373500 0.000000
v 8.069500 -2.811500 0.000000
v 5.894500 7.787500 0.000000
v -4.017500 5.784500 6.000000
v -0.789500 -4.373500 6.000000
v 8.069500 -2.811500 6.000000
v 5.894500 7.787500 6.000000
vn 0.000000 0.000000 -1.000000
vn 0.000000 0.000000 -1.000000
vn 0.000000 0.000000 -1.000000
vn 0.000000 -0.000000 -1.000000
vn 0.000000 0.000000 -1.000000
vn 0.000000 0.000000 -1.000000
vn 0.000000 0.000000 -1.000000
vn 0.000000 0.000000 -1.000000
vn 0.000000 -0.000000 1.000000
vn 0.000000 0.000000 1.000000
vn 0.000000 0.000000 1.000000
vn 0.000000 0.000000 1.000000
vn 0.000000 0.000000 1.000000
vn 0.000000 0.000000 1.000000
vn 0.000000 0.000000 1.000000
vn 0.000000 0.000000 1.000000
vn -0.240214 0.970720 0.000000
vn -0.240214 0.970720 0.000000
vn 0.966735 0.255779 0.000000
vn 0.966735 0.255779 -0.000000
vn -0.182854 0.983140 0.000000
vn -0.182854 0.983140 0.000000
vn 0.969249 0.246081 0.000000
vn 0.969249 0.246081 -0.000000
vn 0.209529 -0.977802 0.000000
vn 0.209529 -0.977802 0.000000
vn -0.954213 -0.299126 0.000000
vn -0.954213 -0.299126 0.000000
vn 0.234146 -0.972201 0.000000
vn 0.234146 -0.972201 0.000000
vn -0.951617 -0.307286 0.000000
vn -0.951617 -0.307286 0.000000
vn -0.953037 -0.302855 0.000000
vn -0.953037 -0.302855 0.000000
vn 0.173639 -0.984809 0.000000
vn 0.173639 -0.984809 0.000000
vn 0.979587 0.201019 0.000000
vn 0.979587 0.201019 -0.000000
vn -0.198075 0.980187 0.000000
vn -0.198075 0.980187 0.000000
usemtl assumed_base
f 8//1 1//1 2//1
f 8//2 2//2 3//2
f 8//3 3//3 4//3
f 4//4 5//4 6//4
f 4//5 6//5 7//5
f 4//6 7//6 8//6
f 20//7 18//7 17//7
f 18//8 20//8 19//8
usemtl assumed_roof
f 16//9 10//9 9//9
f 16//10 11//10 10//10
f 16//11 12//11 11//11
f 12//12 14//12 13//12
f 12//13 15//13 14//13
f 12//14 16//14 15//14
f 24//15 21//15 22//15
f 22//16 23//16 24//16
usemtl assumed_wall
f 1//17 10//17 2//17
f 1//18 9//18 10//18
f 2//19 11//19 3//19
f 2//20 10//20 11//20
f 3//21 12//21 4//21
f 3//22 11//22 12//22
f 4//23 13//23 5//23
f 4//24 12//24 13//24
f 5//25 14//25 6//25
f 5//26 13//26 14//26
f 6//27 15//27 7//27
f 6//28 14//28 15//28
f 7//29 16//29 8//29
f 7//30 15//30 16//30
f 8//31 9//31 1//31
f 8//32 16//32 9//32
f 17//33 18//33 22//33
f 17//34 22//34 21//34
f 18//35 19//35 23//35
f 18//36 23//36 22//36
f 19//37 20//37 24//37
f 19//38 24//38 23//38
f 20//39 17//39 21//39
f 20//40 21//40 24//40
