# construction_0139_assumed_A_Grande_construcao
# source A_Grande_construcao
# h_campo 0.000000
# modeled_height 6.000000
# height_kind assumed
# local_origin_world_x 172001.034850
# local_origin_world_y 402500.144600
mtllib construction_artifacts.mtl

o construction_0139_assumed_A_Grande_construcao
v -32.233000 -61.205500 0.000000
v -72.072000 16.121500 0.000000
v -49.037000 27.455500 0.000000
v -42.028000 13.321500 0.000000
v -38.050000 15.216500 0.000000
v -39.929000 19.503500 0.000000
v -21.765000 28.865500 0.000000
v -23.881000 33.206500 0.000000
v -8.324000 41.371500 0.000000
v -11.395000 47.152500 0.000000
v -6.136000 47.737500 0.000000
v -6.945000 49.214500 0.000000
v 16.052000 61.205500 0.000000
v 25.782000 42.165500 0.000000
v 30.762000 44.758500 0.000000
v 65.027000 -21.479500 0.000000
v 69.691000 -30.498500 0.000000
v 72.072000 -35.103500 0.000000
v 41.580000 -45.265500 0.000000
v 36.979000 -36.302500 0.000000
v 12.214000 -49.523500 0.000000
v -32.233000 -61.205500 6.000000
v -72.072000 16.121500 6.000000
v -49.037000 27.455500 6.000000
v -42.028000 13.321500 6.000000
v -38.050000 15.216500 6.000000
v -39.929000 19.503500 6.000000
v -21.765000 28.865500 6.000000
v -23.881000 33.206500 6.000000
v -8.324000 41.371500 6.000000
v -11.395000 47.152500 6.000000
v -6.136000 47.737500 6.000000
v -6.945000 49.214500 6.000000
v 16.052000 61.205500 6.000000
v 25.782000 42.165500 6.000000
v 30.762000 44.758500 6.000000
v 65.027000 -21.479500 6.000000
v 69.691000 -30.498500 6.000000
v 72.072000 -35.103500 6.000000
v 41.580000 -45.265500 6.000000
v 36.979000 -36.302500 6.000000
v 12.214000 -49.523500 6.000000
vn -0.000000 0.000000 -1.000000
vn 0.000000 0.000000 -1.000000
vn 0.000000 0.000000 -1.000000
vn 0.000000 0.000000 -1.000000
vn 0.000000 0.000000 -1.000000
vn 0.000000 0.000000 -1.000000
vn 0.000000 0.000000 -1.000000
vn 0.000000 0.000000 -1.000000
vn 0.000000 0.000000 -1.000000
vn 0.000000 0.000000 -1.000000
vn 0.000000 0.000000 -1.000000
vn 0.000000 0.000000 -1.000000
vn 0.000000 0.000000 -1.000000
vn 0.000000 0.000000 -1.000000
vn 0.000000 0.000000 -1.000000
vn 0.000000 0.000000 -1.000000
vn 0.000000 0.000000 -1.000000
vn 0.000000 0.000000 -1.000000
vn 0.000000 -0.000000 -1.000000
vn 0.000000 0.000000 1.000000
vn -0.000000 0.000000 1.000000
vn 0.000000 0.000000 1.000000
vn 0.000000 0.000000 1.000000
vn 0.000000 0.000000 1.000000
vn 0.000000 0.000000 1.000000
vn 0.000000 -0.000000 1.000000
vn 0.000000 0.000000 1.000000
vn 0.000000 -0.000000 1.000000
vn 0.000000 0.000000 1.000000
vn 0.000000 -0.000000 1.000000
vn 0.000000 -0.000000 1.000000
vn 0.000000 0.000000 1.000000
vn 0.000000 0.000000 1.000000
vn 0.000000 0.000000 1.000000
vn 0.000000 0.000000 1.000000
vn 0.000000 0.000000 1.000000
vn 0.000000 0.000000 1.000000
vn 0.000000 0.000000 1.000000
vn -0.888956 -0.457992 0.000000
vn -0.888956 -0.457992 0.000000
vn -0.441486 0.897268 0.000000
vn -0.441486 0.897268 0.000000
vn 0.895893 0.444270 0.000000
vn 0.895893 0.444270 -0.000000
vn -0.430066 0.902798 0.000000
vn -0.430066 0.902798 0.000000
vn -0.915887 -0.401435 0.000000
vn -0.915887 -0.401435 0.000000
vn -0.458142 0.888879 0.000000
vn -0.458142 0.888879 0.000000
vn -0.898896 -0.438163 0.000000
vn -0.898896 -0.438163 0.000000
vn -0.464726 0.885455 0.000000
vn -0.464726 0.885455 0.000000
vn -0.883126 -0.469137 0.000000
vn -0.883126 -0.469137 0.000000
vn -0.110556 0.993870 0.000000
vn -0.110556 0.993870 0.000000
vn -0.877055 -0.480391 0.000000
vn -0.877055 -0.480391 0.000000
vn -0.462341 0.886702 0.000000
vn -0.462341 0.886702 0.000000
vn 0.890464 0.455053 0.000000
vn 0.890464 0.455053 -0.000000
vn -0.461829 0.886969 0.000000
vn -0.461829 0.886969 0.000000
vn 0.888196 0.459465 0.000000
vn 0.888196 0.459465 -0.000000
vn 0.888258 0.459345 0.000000
vn 0.888258 0.459345 -0.000000
vn 0.888288 0.459286 0.000000
vn 0.888288 0.459286 -0.000000
vn 0.316172 -0.948702 0.000000
vn 0.316172 -0.948702 0.000000
vn -0.889632 -0.456677 0.000000
vn -0.889632 -0.456677 0.000000
vn 0.470949 -0.882161 0.000000
vn 0.470949 -0.882161 0.000000
vn 0.254197 -0.967153 0.000000
vn 0.254197 -0.967153 0.000000
usemtl assumed_base
f 21//1 1//1 2//1
f 2//2 3//2 4//2
f 21//3 2//3 4//3
f 21//4 4//4 5//4
f 21//5 5//5 6//5
f 21//6 6//6 7//6
f 7//7 8//7 9//7
f 21//8 7//8 9//8
f 9//9 10//9 11//9
f 21//10 9//10 11//10
f 11//11 12//11 13//11
f 21//12 11//12 13//12
f 21//13 13//13 14//13
f 21//14 14//14 15//14
f 15//15 16//15 17//15
f 15//16 17//16 18//16
f 15//17 18//17 19//17
f 15//18 19//18 20//18
f 15//19 20//19 21//19
usemtl assumed_roof
f 42//20 23//20 22//20
f 23//21 25//21 24//21
f 42//22 25//22 23//22
f 42//23 26//23 25//23
f 42//24 27//24 26//24
f 42//25 28//25 27//25
f 28//26 30//26 29//26
f 42//27 30//27 28//27
f 30//28 32//28 31//28
f 42//29 32//29 30//29
f 32//30 34//30 33//30
f 42//31 34//31 32//31
f 42//32 35//32 34//32
f 42//33 36//33 35//33
f 36//34 38//34 37//34
f 36//35 39//35 38//35
f 36//36 40//36 39//36
f 36//37 41//37 40//37
f 36//38 42//38 41//38
usemtl assumed_wall
f 1//39 23//39 2//39
f 1//40 22//40 23//40
f 2//41 24//41 3//41
f 2//42 23//42 24//42
f 3//43 25//43 4//43
f 3//44 24//44 25//44
f 4//45 26//45 5//45
f 4//46 25//46 26//46
f 5//47 27//47 6//47
f 5//48 26//48 27//48
f 6//49 28//49 7//49
f 6//50 27//50 28//50
f 7//51 29//51 8//51
f 7//52 28//52 29//52
f 8//53 30//53 9//53
f 8//54 29//54 30//54
f 9//55 31//55 10//55
f 9//56 30//56 31//56
f 10//57 32//57 11//57
f 10//58 31//58 32//58
f 11//59 33//59 12//59
f 11//60 32//60 33//60
f 12//61 34//61 13//61
f 12//62 33//62 34//62
f 13//63 35//63 14//63
f 13//64 34//64 35//64
f 14//65 36//65 15//65
f 14//66 35//66 36//66
f 15//67 37//67 16//67
f 15//68 36//68 37//68
f 16//69 38//69 17//69
f 16//70 37//70 38//70
f 17//71 39//71 18//71
f 17//72 38//72 39//72
f 18//73 40//73 19//73
f 18//74 39//74 40//74
f 19//75 41//75 20//75
f 19//76 40//76 41//76
f 20//77 42//77 21//77
f 20//78 41//78 42//78
f 21//79 22//79 1//79
f 21//80 42//80 22//80
