# construction_6889_assumed_A_Casa
# source A_Casa
# h_campo 0.000000
# modeled_height 6.000000
# height_kind assumed
# local_origin_world_x 172001.034850
# local_origin_world_y 402500.144600
mtllib construction_artifacts.mtl

o construction_6889_assumed_A_Casa
v -12.432500 -5.905500 0.000000
v -5.419500 -3.658500 0.000000
v -4.174500 -4.604500 0.000000
v 5.028500 -2.171500 0.000000
v 3.715500 1.317500 0.000000
v -6.698500 -2.269500 0.000000
v -10.721500 7.352500 0.000000
v 3.739500 12.449500 0.000000
v 12.432500 -8.125500 0.000000
v -2.300500 -12.449500 0.000000
v -2.866500 -10.395500 0.000000
v -10.746500 -11.914500 0.000000
v -12.432500 -5.905500 6.000000
v -5.419500 -3.658500 6.000000
v -4.174500 -4.604500 6.000000
v 5.028500 -2.171500 6.000000
v 3.715500 1.317500 6.000000
v -6.698500 -2.269500 6.000000
v -10.721500 7.352500 6.000000
v 3.739500 12.449500 6.000000
v 12.432500 -8.125500 6.000000
v -2.300500 -12.449500 6.000000
v -2.866500 -10.395500 6.000000
v -10.746500 -11.914500 6.000000
vn 0.000000 0.000000 -1.000000
vn 0.000000 0.000000 -1.000000
vn 0.000000 0.000000 -1.000000
vn -0.000000 0.000000 -1.000000
vn 0.000000 0.000000 -1.000000
vn 0.000000 0.000000 -1.000000
vn 0.000000 0.000000 -1.000000
vn 0.000000 -0.000000 -1.000000
vn 0.000000 0.000000 -1.000000
vn 0.000000 0.000000 -1.000000
vn 0.000000 -0.000000 1.000000
vn 0.000000 0.000000 1.000000
vn 0.000000 0.000000 1.000000
vn 0.000000 0.000000 1.000000
vn 0.000000 -0.000000 1.000000
vn 0.000000 0.000000 1.000000
vn -0.000000 -0.000000 1.000000
vn 0.000000 0.000000 1.000000
vn 0.000000 0.000000 1.000000
vn 0.000000 0.000000 1.000000
vn -0.305126 0.952312 0.000000
vn -0.305126 0.952312 0.000000
vn 0.605002 0.796224 0.000000
vn 0.605002 0.796224 -0.000000
vn -0.255589 0.966785 0.000000
vn -0.255589 0.966785 0.000000
vn -0.935921 -0.352211 0.000000
vn -0.935921 -0.352211 0.000000
vn 0.325663 -0.945486 0.000000
vn 0.325663 -0.945486 0.000000
vn -0.922605 -0.385745 0.000000
vn -0.922605 -0.385745 0.000000
vn -0.332421 0.943131 0.000000
vn -0.332421 0.943131 0.000000
vn 0.921157 0.389192 0.000000
vn 0.921157 0.389192 -0.000000
vn 0.281613 -0.959528 0.000000
vn 0.281613 -0.959528 0.000000
vn -0.964067 -0.265658 0.000000
vn -0.964067 -0.265658 0.000000
vn 0.189282 -0.981923 0.000000
vn 0.189282 -0.981923 0.000000
vn -0.962819 -0.270147 0.000000
vn -0.962819 -0.270147 0.000000
usemtl assumed_base
f 12//1 1//1 2//1
f 12//2 2//2 3//2
f 12//3 3//3 4//3
f 5//4 6//4 7//4
f 5//5 7//5 8//5
f 4//6 5//6 8//6
f 4//7 8//7 9//7
f 4//8 9//8 10//8
f 4//9 10//9 11//9
f 4//10 11//10 12//10
usemtl assumed_roof
f 24//11 14//11 13//11
f 24//12 15//12 14//12
f 24//13 16//13 15//13
f 17//14 19//14 18//14
f 17//15 20//15 19//15
f 16//16 20//16 17//16
f 16//17 21//17 20//17
f 16//18 22//18 21//18
f 16//19 23//19 22//19
f 16//20 24//20 23//20
usemtl assumed_wall
f 1//21 14//21 2//21
f 1//22 13//22 14//22
f 2//23 15//23 3//23
f 2//24 14//24 15//24
f 3//25 16//25 4//25
f 3//26 15//26 16//26
f 4//27 17//27 5//27
f 4//28 16//28 17//28
f 5//29 18//29 6//29
f 5//30 17//30 18//30
f 6//31 19//31 7//31
f 6//32 18//32 19//32
f 7//33 20//33 8//33
f 7//34 19//34 20//34
f 8//35 21//35 9//35
f 8//36 20//36 21//36
f 9//37 22//37 10//37
f 9//38 21//38 22//38
f 10//39 23//39 11//39
f 10//40 22//40 23//40
f 11//41 24//41 12//41
f 11//42 23//42 24//42
f 12//43 13//43 1//43
f 12//44 24//44 13//44
