# construction_2538_assumed_A_Casa
# source A_Casa
# h_campo 0.000000
# modeled_height 6.000000
# height_kind assumed
# local_origin_world_x 172001.034850
# local_origin_world_y 402500.144600
mtllib construction_artifacts.mtl

o construction_2538_assumed_A_Casa
v -13.426500 -4.129500 0.000000
v -8.599500 -3.033500 0.000000
v -10.286500 7.645500 0.000000
v 6.132500 10.177500 0.000000
v 7.105500 3.862500 0.000000
v 11.624500 4.605500 0.000000
v 13.426500 -6.846500 0.000000
v -7.638500 -10.177500 0.000000
v -7.643500 -8.520500 0.000000
v -12.639500 -9.363500 0.000000
v -13.426500 -4.129500 6.000000
v -8.599500 -3.033500 6.000000
v -10.286500 7.645500 6.000000
v 6.132500 10.177500 6.000000
v 7.105500 3.862500 6.000000
v 11.624500 4.605500 6.000000
v 13.426500 -6.846500 6.000000
v -7.638500 -10.177500 6.000000
v -7.643500 -8.520500 6.000000
v -12.639500 -9.363500 6.000000
vn 0.000000 0.000000 -1.000000
vn 0.000000 0.000000 -1.000000
vn 0.000000 0.000000 -1.000000
vn 0.000000 0.000000 -1.000000
vn 0.000000 0.000000 -1.000000
vn 0.000000 -0.000000 -1.000000
vn 0.000000 0.000000 -1.000000
vn 0.000000 0.000000 -1.000000
vn 0.000000 -0.000000 1.000000
vn 0.000000 -0.000000 1.000000
vn 0.000000 0.000000 1.000000
vn 0.000000 0.000000 1.000000
vn 0.000000 0.000000 1.000000
vn 0.000000 0.000000 1.000000
vn 0.000000 0.000000 1.000000
vn 0.000000 0.000000 1.000000
vn -0.221420 0.975178 0.000000
vn -0.221420 0.975178 0.000000
vn -0.987751 -0.156039 0.000000
vn -0.987751 -0.156039 0.000000
vn -0.152410 0.988317 0.000000
vn -0.152410 0.988317 0.000000
vn 0.988337 0.152281 0.000000
vn 0.988337 0.152281 -0.000000
vn -0.162239 0.986752 0.000000
vn -0.162239 0.986752 0.000000
vn 0.987845 0.155440 0.000000
vn 0.987845 0.155440 -0.000000
vn 0.156189 -0.987727 0.000000
vn 0.156189 -0.987727 0.000000
vn -0.999995 -0.003017 0.000000
vn -0.999995 -0.003017 0.000000
vn 0.166383 -0.986061 0.000000
vn 0.166383 -0.986061 0.000000
vn -0.988884 -0.148692 0.000000
vn -0.988884 -0.148692 0.000000
usemtl assumed_base
f 10//1 1//1 2//1
f 2//2 3//2 4//2
f 10//3 2//3 4//3
f 10//4 4//4 5//4
f 10//5 5//5 6//5
f 6//6 7//6 8//6
f 6//7 8//7 9//7
f 6//8 9//8 10//8
usemtl assumed_roof
f 20//9 12//9 11//9
f 12//10 14//10 13//10
f 20//11 14//11 12//11
f 20//12 15//12 14//12
f 20//13 16//13 15//13
f 16//14 18//14 17//14
f 16//15 19//15 18//15
f 16//16 20//16 19//16
usemtl assumed_wall
f 1//17 12//17 2//17
f 1//18 11//18 12//18
f 2//19 13//19 3//19
f 2//20 12//20 13//20
f 3//21 14//21 4//21
f 3//22 13//22 14//22
f 4//23 15//23 5//23
f 4//24 14//24 15//24
f 5//25 16//25 6//25
f 5//26 15//26 16//26
f 6//27 17//27 7//27
f 6//28 16//28 17//28
f 7//29 18//29 8//29
f 7//30 17//30 18//30
f 8//31 19//31 9//31
f 8//32 18//32 19//32
f 9//33 20//33 10//33
f 9//34 19//34 20//34
f 10//35 11//35 1//35
f 10//36 20//36 11//36
