# construction_1459_assumed_A_Casa
# source A_Casa
# h_campo 0.000000
# modeled_height 6.000000
# height_kind assumed
# local_origin_world_x 172001.034850
# local_origin_world_y 402500.144600
mtllib construction_artifacts.mtl

o construction_1459_assumed_A_Casa
v -9.020000 3.513000 0.000000
v 6.820000 7.029000 0.000000
v 9.020000 -2.785000 0.000000
v 4.642000 -3.580000 0.000000
v 3.988000 -0.946000 0.000000
v 0.254000 -2.238000 0.000000
v 0.779000 -5.110000 0.000000
v -7.206000 -7.029000 0.000000
v -9.020000 3.513000 6.000000
v 6.820000 7.029000 6.000000
v 9.020000 -2.785000 6.000000
v 4.642000 -3.580000 6.000000
v 3.988000 -0.946000 6.000000
v 0.254000 -2.238000 6.000000
v 0.779000 -5.110000 6.000000
v -7.206000 -7.029000 6.000000
vn 0.000000 0.000000 -1.000000
vn 0.000000 -0.000000 -1.000000
vn 0.000000 0.000000 -1.000000
vn 0.000000 0.000000 -1.000000
vn 0.000000 0.000000 -1.000000
vn 0.000000 -0.000000 -1.000000
vn 0.000000 -0.000000 1.000000
vn 0.000000 0.000000 1.000000
vn 0.000000 0.000000 1.000000
vn 0.000000 0.000000 1.000000
vn 0.000000 0.000000 1.000000
vn 0.000000 0.000000 1.000000
vn -0.216696 0.976239 0.000000
vn -0.216696 0.976239 0.000000
vn 0.975783 0.218741 0.000000
vn 0.975783 0.218741 -0.000000
vn 0.178668 -0.983909 0.000000
vn 0.178668 -0.983909 0.000000
vn -0.970531 -0.240975 0.000000
vn -0.970531 -0.240975 0.000000
vn 0.326989 -0.945028 0.000000
vn 0.326989 -0.945028 0.000000
vn 0.983700 0.179820 0.000000
vn 0.983700 0.179820 -0.000000
vn 0.233672 -0.972315 0.000000
vn 0.233672 -0.972315 0.000000
vn -0.985516 -0.169581 0.000000
vn -0.985516 -0.169581 0.000000
usemtl assumed_base
f 8//1 1//1 2//1
f 2//2 3//2 4//2
f 2//3 4//3 5//3
f 2//4 5//4 6//4
f 8//5 2//5 6//5
f 6//6 7//6 8//6
usemtl assumed_roof
f 16//7 10//7 9//7
f 10//8 12//8 11//8
f 10//9 13//9 12//9
f 10//10 14//10 13//10
f 16//11 14//11 10//11
f 14//12 16//12 15//12
usemtl assumed_wall
f 1//13 10//13 2//13
f 1//14 9//14 10//14
f 2//15 11//15 3//15
f 2//16 10//16 11//16
f 3//17 12//17 4//17
f 3//18 11//18 12//18
f 4//19 13//19 5//19
f 4//20 12//20 13//20
f 5//21 14//21 6//21
f 5//22 13//22 14//22
f 6//23 15//23 7//23
f 6//24 14//24 15//24
f 7//25 16//25 8//25
f 7//26 15//26 16//26
f 8//27 9//27 1//27
f 8//28 16//28 9//28
