# construction_6522_assumed_A_Casa
# source A_Casa
# h_campo 0.000000
# modeled_height 6.000000
# height_kind assumed
# local_origin_world_x 172001.034850
# local_origin_world_y 402500.144600
mtllib construction_artifacts.mtl

o construction_6522_assumed_A_Casa
v -9.459500 8.989500 0.000000
v 3.143500 16.136500 0.000000
v 8.535500 6.852500 0.000000
v 7.768500 6.174500 0.000000
v 12.114500 -0.431500 0.000000
v -8.948500 -16.136500 0.000000
v -12.114500 -11.115500 0.000000
v -3.471500 -5.826500 0.000000
v -6.270500 -0.490500 0.000000
v -4.616500 0.451500 0.000000
v -9.459500 8.989500 6.000000
v 3.143500 16.136500 6.000000
v 8.535500 6.852500 6.000000
v 7.768500 6.174500 6.000000
v 12.114500 -0.431500 6.000000
v -8.948500 -16.136500 6.000000
v -12.114500 -11.115500 6.000000
v -3.471500 -5.826500 6.000000
v -6.270500 -0.490500 6.000000
v -4.616500 0.451500 6.000000
vn 0.000000 0.000000 -1.000000
vn 0.000000 0.000000 -1.000000
vn 0.000000 0.000000 -1.000000
vn 0.000000 0.000000 -1.000000
vn 0.000000 0.000000 -1.000000
vn 0.000000 0.000000 -1.000000
vn 0.000000 0.000000 -1.000000
vn 0.000000 0.000000 -1.000000
vn 0.000000 -0.000000 1.000000
vn 0.000000 0.000000 1.000000
vn 0.000000 0.000000 1.000000
vn -0.000000 0.000000 1.000000
vn 0.000000 0.000000 1.000000
vn 0.000000 0.000000 1.000000
vn 0.000000 0.000000 1.000000
vn 0.000000 0.000000 1.000000
vn -0.493289 0.869865 0.000000
vn -0.493289 0.869865 0.000000
vn 0.864737 0.502225 0.000000
vn 0.864737 0.502225 -0.000000
vn 0.662300 -0.749239 0.000000
vn 0.662300 -0.749239 0.000000
vn 0.835420 0.549612 0.000000
vn 0.835420 0.549612 -0.000000
vn 0.597751 -0.801682 0.000000
vn 0.597751 -0.801682 0.000000
vn -0.845881 -0.533372 0.000000
vn -0.845881 -0.533372 0.000000
vn -0.521965 0.852967 0.000000
vn -0.521965 0.852967 0.000000
vn -0.885562 -0.464522 0.000000
vn -0.885562 -0.464522 0.000000
vn -0.494894 0.868954 0.000000
vn -0.494894 0.868954 0.000000
vn -0.869812 -0.493383 0.000000
vn -0.869812 -0.493383 0.000000
usemtl assumed_base
f 10//1 1//1 2//1
f 10//2 2//2 3//2
f 10//3 3//3 4//3
f 10//4 4//4 5//4
f 5//5 6//5 7//5
f 5//6 7//6 8//6
f 10//7 5//7 8//7
f 8//8 9//8 10//8
usemtl assumed_roof
f 20//9 12//9 11//9
f 20//10 13//10 12//10
f 20//11 14//11 13//11
f 20//12 15//12 14//12
f 15//13 17//13 16//13
f 15//14 18//14 17//14
f 20//15 18//15 15//15
f 18//16 20//16 19//16
usemtl assumed_wall
f 1//17 12//17 2//17
f 1//18 11//18 12//18
f 2//19 13//19 3//19
f 2//20 12//20 13//20
f 3//21 14//21 4//21
f 3//22 13//22 14//22
f 4//23 15//23 5//23
f 4//24 14//24 15//24
f 5//25 16//25 6//25
f 5//26 15//26 16//26
f 6//27 17//27 7//27
f 6//28 16//28 17//28
f 7//29 18//29 8//29
f 7//30 17//30 18//30
f 8//31 19//31 9//31
f 8//32 18//32 19//32
f 9//33 20//33 10//33
f 9//34 19//34 20//34
f 10//35 11//35 1//35
f 10//36 20//36 11//36
