# construction_3861_assumed_A_Casa
# source A_Casa
# h_campo 0.000000
# modeled_height 6.000000
# height_kind assumed
# local_origin_world_x 172001.034850
# local_origin_world_y 402500.144600
mtllib construction_artifacts.mtl

o construction_3861_assumed_A_Casa
v -8.250500 -0.604000 0.000000
v -4.167500 2.031000 0.000000
v -3.056500 0.556000 0.000000
v -1.302500 2.052000 0.000000
v -2.262500 2.742000 0.000000
v 3.286500 7.657000 0.000000
v 8.250500 1.490000 0.000000
v -2.728500 -7.654000 0.000000
v -3.522500 -6.671000 0.000000
v -4.728500 -7.657000 0.000000
v -7.427500 -4.171000 0.000000
v -6.264500 -3.298000 0.000000
v -8.250500 -0.604000 6.000000
v -4.167500 2.031000 6.000000
v -3.056500 0.556000 6.000000
v -1.302500 2.052000 6.000000
v -2.262500 2.742000 6.000000
v 3.286500 7.657000 6.000000
v 8.250500 1.490000 6.000000
v -2.728500 -7.654000 6.000000
v -3.522500 -6.671000 6.000000
v -4.728500 -7.657000 6.000000
v -7.427500 -4.171000 6.000000
v -6.264500 -3.298000 6.000000
vn 0.000000 0.000000 -1.000000
vn 0.000000 0.000000 -1.000000
vn 0.000000 0.000000 -1.000000
vn 0.000000 0.000000 -1.000000
vn 0.000000 0.000000 -1.000000
vn 0.000000 0.000000 -1.000000
vn 0.000000 0.000000 -1.000000
vn 0.000000 0.000000 -1.000000
vn 0.000000 0.000000 -1.000000
vn 0.000000 0.000000 -1.000000
vn 0.000000 -0.000000 1.000000
vn 0.000000 0.000000 1.000000
vn 0.000000 0.000000 1.000000
vn 0.000000 -0.000000 1.000000
vn -0.000000 0.000000 1.000000
vn 0.000000 0.000000 1.000000
vn 0.000000 0.000000 1.000000
vn -0.000000 0.000000 1.000000
vn 0.000000 0.000000 1.000000
vn 0.000000 0.000000 1.000000
vn -0.542244 0.840221 0.000000
vn -0.542244 0.840221 0.000000
vn 0.798764 0.601645 0.000000
vn 0.798764 0.601645 -0.000000
vn -0.648932 0.760847 0.000000
vn -0.648932 0.760847 0.000000
vn -0.583636 -0.812015 0.000000
vn -0.583636 -0.812015 0.000000
vn -0.663048 0.748577 0.000000
vn -0.663048 0.748577 0.000000
vn 0.778992 0.627034 0.000000
vn 0.778992 0.627034 -0.000000
vn 0.639971 -0.768399 0.000000
vn 0.639971 -0.768399 0.000000
vn -0.777926 -0.628356 0.000000
vn -0.777926 -0.628356 0.000000
vn 0.632958 -0.774186 0.000000
vn 0.632958 -0.774186 0.000000
vn -0.790706 -0.612196 0.000000
vn -0.790706 -0.612196 0.000000
vn -0.600330 0.799752 0.000000
vn -0.600330 0.799752 0.000000
vn -0.804921 -0.593382 0.000000
vn -0.804921 -0.593382 0.000000
usemtl assumed_base
f 12//1 1//1 2//1
f 12//2 2//2 3//2
f 12//3 3//3 4//3
f 4//4 5//4 6//4
f 4//5 6//5 7//5
f 12//6 4//6 7//6
f 7//7 8//7 9//7
f 12//8 7//8 9//8
f 12//9 9//9 10//9
f 10//10 11//10 12//10
usemtl assumed_roof
f 24//11 14//11 13//11
f 24//12 15//12 14//12
f 24//13 16//13 15//13
f 16//14 18//14 17//14
f 16//15 19//15 18//15
f 24//16 19//16 16//16
f 19//17 21//17 20//17
f 24//18 21//18 19//18
f 24//19 22//19 21//19
f 22//20 24//20 23//20
usemtl assumed_wall
f 1//21 14//21 2//21
f 1//22 13//22 14//22
f 2//23 15//23 3//23
f 2//24 14//24 15//24
f 3//25 16//25 4//25
f 3//26 15//26 16//26
f 4//27 17//27 5//27
f 4//28 16//28 17//28
f 5//29 18//29 6//29
f 5//30 17//30 18//30
f 6//31 19//31 7//31
f 6//32 18//32 19//32
f 7//33 20//33 8//33
f 7//34 19//34 20//34
f 8//35 21//35 9//35
f 8//36 20//36 21//36
f 9//37 22//37 10//37
f 9//38 21//38 22//38
f 10//39 23//39 11//39
f 10//40 22//40 23//40
f 11//41 24//41 12//41
f 11//42 23//42 24//42
f 12//43 13//43 1//43
f 12//44 24//44 13//44
