# construction_2569_assumed_A_Casa
# source A_Casa
# h_campo 0.000000
# modeled_height 6.000000
# height_kind assumed
# local_origin_world_x 172001.034850
# local_origin_world_y 402500.144600
mtllib construction_artifacts.mtl

o construction_2569_assumed_A_Casa
v -9.474500 -10.938500 0.000000
v -11.431500 -6.698500 0.000000
v -6.687500 -4.158500 0.000000
v -7.546500 -1.936500 0.000000
v -2.326500 1.214500 0.000000
v -3.321500 2.993500 0.000000
v 0.499500 5.187500 0.000000
v -0.266500 6.688500 0.000000
v 7.350500 10.938500 0.000000
v 10.045500 5.753500 0.000000
v 9.376500 5.509500 0.000000
v 11.431500 1.827500 0.000000
v 8.782500 0.435500 0.000000
v 9.560500 -0.964500 0.000000
v 0.389500 -5.501500 0.000000
v -9.474500 -10.938500 6.000000
v -11.431500 -6.698500 6.000000
v -6.687500 -4.158500 6.000000
v -7.546500 -1.936500 6.000000
v -2.326500 1.214500 6.000000
v -3.321500 2.993500 6.000000
v 0.499500 5.187500 6.000000
v -0.266500 6.688500 6.000000
v 7.350500 10.938500 6.000000
v 10.045500 5.753500 6.000000
v 9.376500 5.509500 6.000000
v 11.431500 1.827500 6.000000
v 8.782500 0.435500 6.000000
v 9.560500 -0.964500 6.000000
v 0.389500 -5.501500 6.000000
vn 0.000000 0.000000 -1.000000
vn -0.000000 0.000000 -1.000000
vn 0.000000 0.000000 -1.000000
vn 0.000000 0.000000 -1.000000
vn 0.000000 0.000000 -1.000000
vn 0.000000 0.000000 -1.000000
vn 0.000000 0.000000 -1.000000
vn 0.000000 0.000000 -1.000000
vn 0.000000 0.000000 -1.000000
vn 0.000000 0.000000 -1.000000
vn 0.000000 -0.000000 -1.000000
vn 0.000000 0.000000 -1.000000
vn 0.000000 -0.000000 -1.000000
vn 0.000000 0.000000 1.000000
vn 0.000000 0.000000 1.000000
vn 0.000000 0.000000 1.000000
vn 0.000000 0.000000 1.000000
vn 0.000000 -0.000000 1.000000
vn 0.000000 -0.000000 1.000000
vn 0.000000 -0.000000 1.000000
vn 0.000000 0.000000 1.000000
vn 0.000000 0.000000 1.000000
vn 0.000000 0.000000 1.000000
vn 0.000000 0.000000 1.000000
vn 0.000000 0.000000 1.000000
vn 0.000000 0.000000 1.000000
vn -0.907953 -0.419072 0.000000
vn -0.907953 -0.419072 0.000000
vn -0.472015 0.881590 0.000000
vn -0.472015 0.881590 0.000000
vn -0.932728 -0.360582 0.000000
vn -0.932728 -0.360582 0.000000
vn -0.516785 0.856115 0.000000
vn -0.516785 0.856115 0.000000
vn -0.872765 -0.488140 0.000000
vn -0.872765 -0.488140 0.000000
vn -0.497947 0.867208 0.000000
vn -0.497947 0.867208 0.000000
vn -0.890718 -0.454557 0.000000
vn -0.890718 -0.454557 0.000000
vn -0.487248 0.873264 0.000000
vn -0.487248 0.873264 0.000000
vn 0.887301 0.461191 0.000000
vn 0.887301 0.461191 -0.000000
vn 0.342645 -0.939465 0.000000
vn 0.342645 -0.939465 0.000000
vn 0.873205 0.487354 0.000000
vn 0.873205 0.487354 -0.000000
vn 0.465168 -0.885222 0.000000
vn 0.465168 -0.885222 0.000000
vn 0.874098 0.485749 0.000000
vn 0.874098 0.485749 -0.000000
vn 0.443418 -0.896315 0.000000
vn 0.443418 -0.896315 0.000000
vn 0.482723 -0.875773 0.000000
vn 0.482723 -0.875773 0.000000
usemtl assumed_base
f 15//1 1//1 2//1
f 15//2 2//2 3//2
f 15//3 3//3 4//3
f 15//4 4//4 5//4
f 5//5 6//5 7//5
f 15//6 5//6 7//6
f 7//7 8//7 9//7
f 15//8 7//8 9//8
f 9//9 10//9 11//9
f 15//10 9//10 11//10
f 11//11 12//11 13//11
f 15//12 11//12 13//12
f 13//13 14//13 15//13
usemtl assumed_roof
f 30//14 17//14 16//14
f 30//15 18//15 17//15
f 30//16 19//16 18//16
f 30//17 20//17 19//17
f 20//18 22//18 21//18
f 30//19 22//19 20//19
f 22//20 24//20 23//20
f 30//21 24//21 22//21
f 24//22 26//22 25//22
f 30//23 26//23 24//23
f 26//24 28//24 27//24
f 30//25 28//25 26//25
f 28//26 30//26 29//26
usemtl assumed_wall
f 1//27 17//27 2//27
f 1//28 16//28 17//28
f 2//29 18//29 3//29
f 2//30 17//30 18//30
f 3//31 19//31 4//31
f 3//32 18//32 19//32
f 4//33 20//33 5//33
f 4//34 19//34 20//34
f 5//35 21//35 6//35
f 5//36 20//36 21//36
f 6//37 22//37 7//37
f 6//38 21//38 22//38
f 7//39 23//39 8//39
f 7//40 22//40 23//40
f 8//41 24//41 9//41
f 8//42 23//42 24//42
f 9//43 25//43 10//43
f 9//44 24//44 25//44
f 10//45 26//45 11//45
f 10//46 25//46 26//46
f 11//47 27//47 12//47
f 11//48 26//48 27//48
f 12//49 28//49 13//49
f 12//50 27//50 28//50
f 13//51 29//51 14//51
f 13//52 28//52 29//52
f 14//53 30//53 15//53
f 14//54 29//54 30//54
f 15//55 16//55 1//55
f 15//56 30//56 16//56
