# construction_3363_assumed_A_Casa
# source A_Casa
# h_campo 0.000000
# modeled_height 6.000000
# height_kind assumed
# local_origin_world_x 172001.034850
# local_origin_world_y 402500.144600
mtllib construction_artifacts.mtl

o construction_3363_assumed_A_Casa
v -24.105000 9.146000 0.000000
v -12.679000 12.788000 0.000000
v -10.856000 8.093000 0.000000
v -3.339000 10.083000 0.000000
v -5.961000 17.694000 0.000000
v -11.348000 16.395000 0.000000
v -10.932000 14.570000 0.000000
v -12.972000 14.118000 0.000000
v -14.443000 18.494000 0.000000
v 2.704000 23.925000 0.000000
v 3.734000 21.425000 0.000000
v 4.975000 21.630000 0.000000
v 6.248000 17.800000 0.000000
v 9.136000 18.270000 0.000000
v 16.204000 0.200000 0.000000
v 17.255000 0.319000 0.000000
v 21.139000 -9.161000 0.000000
v 19.431000 -9.274000 0.000000
v 24.105000 -21.292000 0.000000
v 16.316000 -23.925000 0.000000
v 14.242000 -19.127000 0.000000
v -2.385000 -21.322000 0.000000
v -4.052000 -14.605000 0.000000
v 6.225000 -12.295000 0.000000
v 4.867000 -8.034000 0.000000
v 2.342000 -8.975000 0.000000
v 0.874000 -4.220000 0.000000
v -15.673000 -7.607000 0.000000
v -19.476000 4.227000 0.000000
v -22.249000 3.857000 0.000000
v -24.105000 9.146000 6.000000
v -12.679000 12.788000 6.000000
v -10.856000 8.093000 6.000000
v -3.339000 10.083000 6.000000
v -5.961000 17.694000 6.000000
v -11.348000 16.395000 6.000000
v -10.932000 14.570000 6.000000
v -12.972000 14.118000 6.000000
v -14.443000 18.494000 6.000000
v 2.704000 23.925000 6.000000
v 3.734000 21.425000 6.000000
v 4.975000 21.630000 6.000000
v 6.248000 17.800000 6.000000
v 9.136000 18.270000 6.000000
v 16.204000 0.200000 6.000000
v 17.255000 0.319000 6.000000
v 21.139000 -9.161000 6.000000
v 19.431000 -9.274000 6.000000
v 24.105000 -21.292000 6.000000
v 16.316000 -23.925000 6.000000
v 14.242000 -19.127000 6.000000
v -2.385000 -21.322000 6.000000
v -4.052000 -14.605000 6.000000
v 6.225000 -12.295000 6.000000
v 4.867000 -8.034000 6.000000
v 2.342000 -8.975000 6.000000
v 0.874000 -4.220000 6.000000
v -15.673000 -7.607000 6.000000
v -19.476000 4.227000 6.000000
v -22.249000 3.857000 6.000000
vn 0.000000 0.000000 -1.000000
vn 0.000000 0.000000 -1.000000
vn 0.000000 0.000000 -1.000000
vn 0.000000 -0.000000 -1.000000
vn -0.000000 0.000000 -1.000000
vn -0.000000 0.000000 -1.000000
vn 0.000000 0.000000 -1.000000
vn 0.000000 0.000000 -1.000000
vn 0.000000 0.000000 -1.000000
vn 0.000000 0.000000 -1.000000
vn 0.000000 0.000000 -1.000000
vn 0.000000 0.000000 -1.000000
vn 0.000000 0.000000 -1.000000
vn 0.000000 0.000000 -1.000000
vn 0.000000 0.000000 -1.000000
vn 0.000000 0.000000 -1.000000
vn 0.000000 0.000000 -1.000000
vn -0.000000 0.000000 -1.000000
vn 0.000000 0.000000 -1.000000
vn -0.000000 0.000000 -1.000000
vn 0.000000 0.000000 -1.000000
vn 0.000000 0.000000 -1.000000
vn 0.000000 0.000000 -1.000000
vn 0.000000 0.000000 -1.000000
vn 0.000000 0.000000 -1.000000
vn 0.000000 -0.000000 -1.000000
vn 0.000000 0.000000 -1.000000
vn 0.000000 0.000000 -1.000000
vn 0.000000 -0.000000 1.000000
vn 0.000000 0.000000 1.000000
vn 0.000000 0.000000 1.000000
vn 0.000000 0.000000 1.000000
vn 0.000000 0.000000 1.000000
vn 0.000000 0.000000 1.000000
vn 0.000000 -0.000000 1.000000
vn 0.000000 -0.000000 1.000000
vn 0.000000 0.000000 1.000000
vn 0.000000 0.000000 1.000000
vn 0.000000 0.000000 1.000000
vn 0.000000 0.000000 1.000000
vn -0.000000 0.000000 1.000000
vn -0.000000 0.000000 1.000000
vn 0.000000 0.000000 1.000000
vn 0.000000 0.000000 1.000000
vn 0.000000 0.000000 1.000000
vn 0.000000 0.000000 1.000000
vn 0.000000 0.000000 1.000000
vn 0.000000 0.000000 1.000000
vn 0.000000 0.000000 1.000000
vn 0.000000 0.000000 1.000000
vn 0.000000 0.000000 1.000000
vn 0.000000 0.000000 1.000000
vn 0.000000 0.000000 1.000000
vn 0.000000 0.000000 1.000000
vn 0.000000 0.000000 1.000000
vn 0.000000 0.000000 1.000000
vn -0.303692 0.952770 0.000000
vn -0.303692 0.952770 0.000000
vn 0.932195 0.361958 0.000000
vn 0.932195 0.361958 -0.000000
vn -0.255917 0.966699 0.000000
vn -0.255917 0.966699 0.000000
vn -0.945468 -0.325715 0.000000
vn -0.945468 -0.325715 0.000000
vn 0.234417 -0.972136 0.000000
vn 0.234417 -0.972136 0.000000
vn 0.974991 0.222245 0.000000
vn 0.974991 0.222245 -0.000000
vn 0.216322 -0.976322 0.000000
vn 0.216322 -0.976322 0.000000
vn -0.947879 -0.318631 0.000000
vn -0.947879 -0.318631 0.000000
vn -0.301948 0.953324 0.000000
vn -0.301948 0.953324 0.000000
vn 0.924601 0.380936 0.000000
vn 0.924601 0.380936 -0.000000
vn -0.162981 0.986629 0.000000
vn -0.162981 0.986629 0.000000
vn 0.948955 0.315410 0.000000
vn 0.948955 0.315410 -0.000000
vn -0.160629 0.987015 0.000000
vn -0.160629 0.987015 0.000000
vn 0.931293 0.364271 0.000000
vn 0.931293 0.364271 -0.000000
vn -0.112507 0.993651 0.000000
vn -0.112507 0.993651 0.000000
vn 0.925348 0.379119 0.000000
vn 0.925348 0.379119 -0.000000
vn 0.066015 -0.997819 0.000000
vn 0.066015 -0.997819 0.000000
vn 0.931996 0.362469 0.000000
vn 0.931996 0.362469 -0.000000
vn 0.320239 -0.947337 0.000000
vn 0.320239 -0.947337 0.000000
vn -0.917914 -0.396780 0.000000
vn -0.917914 -0.396780 0.000000
vn 0.130879 -0.991398 0.000000
vn 0.130879 -0.991398 0.000000
vn -0.970558 -0.240869 0.000000
vn -0.970558 -0.240869 0.000000
vn -0.219302 0.975657 0.000000
vn -0.219302 0.975657 0.000000
vn -0.952782 -0.303656 0.000000
vn -0.952782 -0.303656 0.000000
vn 0.349211 -0.937044 0.000000
vn 0.349211 -0.937044 0.000000
vn -0.955501 -0.294989 0.000000
vn -0.955501 -0.294989 0.000000
vn 0.200532 -0.979687 0.000000
vn 0.200532 -0.979687 0.000000
vn -0.952047 -0.305952 0.000000
vn -0.952047 -0.305952 0.000000
vn 0.132257 -0.991215 0.000000
vn 0.132257 -0.991215 0.000000
vn -0.943588 -0.331121 0.000000
vn -0.943588 -0.331121 0.000000
usemtl assumed_base
f 30//1 1//1 2//1
f 30//2 2//2 3//2
f 30//3 3//3 4//3
f 6//4 7//4 8//4
f 6//5 8//5 9//5
f 5//6 6//6 9//6
f 5//7 9//7 10//7
f 4//8 5//8 10//8
f 4//9 10//9 11//9
f 4//10 11//10 12//10
f 4//11 12//11 13//11
f 4//12 13//12 14//12
f 4//13 14//13 15//13
f 15//14 16//14 17//14
f 4//15 15//15 17//15
f 4//16 17//16 18//16
f 4//17 18//17 19//17
f 19//18 20//18 21//18
f 4//19 19//19 21//19
f 21//20 22//20 23//20
f 21//21 23//21 24//21
f 21//22 24//22 25//22
f 4//23 21//23 25//23
f 4//24 25//24 26//24
f 4//25 26//25 27//25
f 4//26 27//26 28//26
f 4//27 28//27 29//27
f 4//28 29//28 30//28
usemtl assumed_roof
f 60//29 32//29 31//29
f 60//30 33//30 32//30
f 60//31 34//31 33//31
f 36//32 38//32 37//32
f 36//33 39//33 38//33
f 35//34 39//34 36//34
f 35//35 40//35 39//35
f 34//36 40//36 35//36
f 34//37 41//37 40//37
f 34//38 42//38 41//38
f 34//39 43//39 42//39
f 34//40 44//40 43//40
f 34//41 45//41 44//41
f 45//42 47//42 46//42
f 34//43 47//43 45//43
f 34//44 48//44 47//44
f 34//45 49//45 48//45
f 49//46 51//46 50//46
f 34//47 51//47 49//47
f 51//48 53//48 52//48
f 51//49 54//49 53//49
f 51//50 55//50 54//50
f 34//51 55//51 51//51
f 34//52 56//52 55//52
f 34//53 57//53 56//53
f 34//54 58//54 57//54
f 34//55 59//55 58//55
f 34//56 60//56 59//56
usemtl assumed_wall
f 1//57 32//57 2//57
f 1//58 31//58 32//58
f 2//59 33//59 3//59
f 2//60 32//60 33//60
f 3//61 34//61 4//61
f 3//62 33//62 34//62
f 4//63 35//63 5//63
f 4//64 34//64 35//64
f 5//65 36//65 6//65
f 5//66 35//66 36//66
f 6//67 37//67 7//67
f 6//68 36//68 37//68
f 7//69 38//69 8//69
f 7//70 37//70 38//70
f 8//71 39//71 9//71
f 8//72 38//72 39//72
f 9//73 40//73 10//73
f 9//74 39//74 40//74
f 10//75 41//75 11//75
f 10//76 40//76 41//76
f 11//77 42//77 12//77
f 11//78 41//78 42//78
f 12//79 43//79 13//79
f 12//80 42//80 43//80
f 13//81 44//81 14//81
f 13//82 43//82 44//82
f 14//83 45//83 15//83
f 14//84 44//84 45//84
f 15//85 46//85 16//85
f 15//86 45//86 46//86
f 16//87 47//87 17//87
f 16//88 46//88 47//88
f 17//89 48//89 18//89
f 17//90 47//90 48//90
f 18//91 49//91 19//91
f 18//92 48//92 49//92
f 19//93 50//93 20//93
f 19//94 49//94 50//94
f 20//95 51//95 21//95
f 20//96 50//96 51//96
f 21//97 52//97 22//97
f 21//98 51//98 52//98
f 22//99 53//99 23//99
f 22//100 52//100 53//100
f 23//101 54//101 24//101
f 23//102 53//102 54//102
f 24//103 55//103 25//103
f 24//104 54//104 55//104
f 25//105 56//105 26//105
f 25//106 55//106 56//106
f 26//107 57//107 27//107
f 26//108 56//108 57//108
f 27//109 58//109 28//109
f 27//110 57//110 58//110
f 28//111 59//111 29//111
f 28//112 58//112 59//112
f 29//113 60//113 30//113
f 29//114 59//114 60//114
f 30//115 31//115 1//115
f 30//116 60//116 31//116
