# construction_7257_assumed_A_Ruinas
# source A_Ruinas
# h_campo 0.000000
# modeled_height 6.000000
# height_kind assumed
# local_origin_world_x 172001.034850
# local_origin_world_y 402500.144600
mtllib construction_artifacts.mtl

o construction_7257_assumed_A_Ruinas
v -17.062000 4.682000 0.000000
v 16.999000 8.716000 0.000000
v 17.062000 2.622000 0.000000
v 10.208000 1.874000 0.000000
v -6.690000 -0.157000 0.000000
v -4.376000 -8.716000 0.000000
v -15.860000 -8.548000 0.000000
v -17.062000 4.682000 6.000000
v 16.999000 8.716000 6.000000
v 17.062000 2.622000 6.000000
v 10.208000 1.874000 6.000000
v -6.690000 -0.157000 6.000000
v -4.376000 -8.716000 6.000000
v -15.860000 -8.548000 6.000000
vn 0.000000 0.000000 -1.000000
vn 0.000000 0.000000 -1.000000
vn 0.000000 0.000000 -1.000000
vn 0.000000 0.000000 -1.000000
vn 0.000000 -0.000000 -1.000000
vn -0.000000 0.000000 1.000000
vn 0.000000 0.000000 1.000000
vn 0.000000 0.000000 1.000000
vn 0.000000 -0.000000 1.000000
vn 0.000000 0.000000 1.000000
vn -0.117613 0.993060 0.000000
vn -0.117613 0.993060 0.000000
vn 0.999947 0.010337 0.000000
vn 0.999947 0.010337 -0.000000
vn 0.108489 -0.994098 0.000000
vn 0.108489 -0.994098 0.000000
vn 0.119333 -0.992854 0.000000
vn 0.119333 -0.992854 0.000000
vn 0.965342 0.260989 0.000000
vn 0.965342 0.260989 -0.000000
vn -0.014627 -0.999893 0.000000
vn -0.014627 -0.999893 0.000000
vn -0.995898 -0.090481 0.000000
vn -0.995898 -0.090481 0.000000
usemtl assumed_base
f 1//1 2//1 3//1
f 1//2 3//2 4//2
f 1//3 4//3 5//3
f 7//4 1//4 5//4
f 5//5 6//5 7//5
usemtl assumed_roof
f 8//6 10//6 9//6
f 8//7 11//7 10//7
f 8//8 12//8 11//8
f 14//9 12//9 8//9
f 12//10 14//10 13//10
usemtl assumed_wall
f 1//11 9//11 2//11
f 1//12 8//12 9//12
f 2//13 10//13 3//13
f 2//14 9//14 10//14
f 3//15 11//15 4//15
f 3//16 10//16 11//16
f 4//17 12//17 5//17
f 4//18 11//18 12//18
f 5//19 13//19 6//19
f 5//20 12//20 13//20
f 6//21 14//21 7//21
f 6//22 13//22 14//22
f 7//23 8//23 1//23
f 7//24 14//24 8//24
