# construction_4064_assumed_A_Casa
# source A_Casa
# h_campo 0.000000
# modeled_height 6.000000
# height_kind assumed
# local_origin_world_x 172001.034850
# local_origin_world_y 402500.144600
mtllib construction_artifacts.mtl

o construction_4064_assumed_A_Casa
v -11.882000 6.623500 0.000000
v -10.931000 10.350500 0.000000
v -10.749000 11.061500 0.000000
v -8.593000 19.505500 0.000000
v -3.983000 17.922500 0.000000
v -5.290000 12.846500 0.000000
v -2.194000 11.445500 0.000000
v -1.612000 14.610500 0.000000
v 5.779000 12.712500 0.000000
v 5.306000 11.556500 0.000000
v 12.852000 9.611500 0.000000
v 10.232000 -0.958500 0.000000
v 0.727000 1.435500 0.000000
v -0.361000 -3.163500 0.000000
v 2.524000 -3.974500 0.000000
v -0.536000 -19.505500 0.000000
v -9.518000 -17.409500 0.000000
v -7.022000 -6.729500 0.000000
v -10.047000 -6.071500 0.000000
v -8.547000 1.755500 0.000000
v -12.852000 2.825500 0.000000
v -11.882000 6.623500 6.000000
v -10.931000 10.350500 6.000000
v -10.749000 11.061500 6.000000
v -8.593000 19.505500 6.000000
v -3.983000 17.922500 6.000000
v -5.290000 12.846500 6.000000
v -2.194000 11.445500 6.000000
v -1.612000 14.610500 6.000000
v 5.779000 12.712500 6.000000
v 5.306000 11.556500 6.000000
v 12.852000 9.611500 6.000000
v 10.232000 -0.958500 6.000000
v 0.727000 1.435500 6.000000
v -0.361000 -3.163500 6.000000
v 2.524000 -3.974500 6.000000
v -0.536000 -19.505500 6.000000
v -9.518000 -17.409500 6.000000
v -7.022000 -6.729500 6.000000
v -10.047000 -6.071500 6.000000
v -8.547000 1.755500 6.000000
v -12.852000 2.825500 6.000000
vn 0.000000 0.000000 -1.000000
vn 0.000000 0.000000 -1.000000
vn 0.000000 0.000000 -1.000000
vn 0.000000 0.000000 -1.000000
vn 0.000000 0.000000 -1.000000
vn 0.000000 0.000000 -1.000000
vn 0.000000 0.000000 -1.000000
vn 0.000000 0.000000 -1.000000
vn 0.000000 0.000000 -1.000000
vn 0.000000 0.000000 -1.000000
vn 0.000000 0.000000 -1.000000
vn 0.000000 0.000000 -1.000000
vn 0.000000 -0.000000 -1.000000
vn 0.000000 0.000000 -1.000000
vn 0.000000 0.000000 -1.000000
vn 0.000000 0.000000 -1.000000
vn 0.000000 0.000000 -1.000000
vn -0.000000 0.000000 -1.000000
vn 0.000000 0.000000 -1.000000
vn 0.000000 0.000000 1.000000
vn 0.000000 0.000000 1.000000
vn 0.000000 0.000000 1.000000
vn 0.000000 0.000000 1.000000
vn 0.000000 0.000000 1.000000
vn 0.000000 0.000000 1.000000
vn 0.000000 0.000000 1.000000
vn 0.000000 0.000000 1.000000
vn 0.000000 0.000000 1.000000
vn 0.000000 0.000000 1.000000
vn 0.000000 0.000000 1.000000
vn -0.000000 0.000000 1.000000
vn 0.000000 0.000000 1.000000
vn 0.000000 0.000000 1.000000
vn 0.000000 0.000000 1.000000
vn 0.000000 0.000000 1.000000
vn 0.000000 0.000000 1.000000
vn 0.000000 0.000000 1.000000
vn 0.000000 0.000000 1.000000
vn -0.968953 0.247243 0.000000
vn -0.968953 0.247243 0.000000
vn -0.968765 0.247982 0.000000
vn -0.968765 0.247982 0.000000
vn -0.968915 0.247392 0.000000
vn -0.968915 0.247392 0.000000
vn 0.324770 0.945793 0.000000
vn 0.324770 0.945793 -0.000000
vn 0.968413 -0.249353 0.000000
vn 0.968413 -0.249353 0.000000
vn 0.412273 0.911061 0.000000
vn 0.412273 0.911061 -0.000000
vn -0.983510 0.180854 0.000000
vn -0.983510 0.180854 0.000000
vn 0.248728 0.968573 0.000000
vn 0.248728 0.968573 -0.000000
vn 0.925521 -0.378695 0.000000
vn 0.925521 -0.378695 0.000000
vn 0.249595 0.968350 0.000000
vn 0.249595 0.968350 -0.000000
vn 0.970627 -0.240591 0.000000
vn 0.970627 -0.240591 0.000000
vn -0.244240 -0.969715 0.000000
vn -0.244240 -0.969715 0.000000
vn 0.973139 -0.230219 0.000000
vn 0.973139 -0.230219 0.000000
vn 0.270620 0.962686 0.000000
vn 0.270620 0.962686 -0.000000
vn 0.981138 -0.193309 0.000000
vn 0.981138 -0.193309 0.000000
vn -0.227250 -0.973836 0.000000
vn -0.227250 -0.973836 0.000000
vn -0.973760 0.227575 0.000000
vn -0.973760 0.227575 0.000000
vn -0.212550 -0.977150 0.000000
vn -0.212550 -0.977150 0.000000
vn -0.982127 0.188219 0.000000
vn -0.982127 0.188219 0.000000
vn -0.241209 -0.970473 0.000000
vn -0.241209 -0.970473 0.000000
vn -0.968899 0.247455 0.000000
vn -0.968899 0.247455 0.000000
usemtl assumed_base
f 1//1 2//1 3//1
f 1//2 3//2 4//2
f 1//3 4//3 5//3
f 21//4 1//4 5//4
f 21//5 5//5 6//5
f 21//6 6//6 7//6
f 7//7 8//7 9//7
f 21//8 7//8 9//8
f 21//9 9//9 10//9
f 21//10 10//10 11//10
f 11//11 12//11 13//11
f 21//12 11//12 13//12
f 14//13 15//13 16//13
f 14//14 16//14 17//14
f 13//15 14//15 17//15
f 13//16 17//16 18//16
f 13//17 18//17 19//17
f 13//18 19//18 20//18
f 13//19 20//19 21//19
usemtl assumed_roof
f 22//20 24//20 23//20
f 22//21 25//21 24//21
f 22//22 26//22 25//22
f 42//23 26//23 22//23
f 42//24 27//24 26//24
f 42//25 28//25 27//25
f 28//26 30//26 29//26
f 42//27 30//27 28//27
f 42//28 31//28 30//28
f 42//29 32//29 31//29
f 32//30 34//30 33//30
f 42//31 34//31 32//31
f 35//32 37//32 36//32
f 35//33 38//33 37//33
f 34//34 38//34 35//34
f 34//35 39//35 38//35
f 34//36 40//36 39//36
f 34//37 41//37 40//37
f 34//38 42//38 41//38
usemtl assumed_wall
f 1//39 23//39 2//39
f 1//40 22//40 23//40
f 2//41 24//41 3//41
f 2//42 23//42 24//42
f 3//43 25//43 4//43
f 3//44 24//44 25//44
f 4//45 26//45 5//45
f 4//46 25//46 26//46
f 5//47 27//47 6//47
f 5//48 26//48 27//48
f 6//49 28//49 7//49
f 6//50 27//50 28//50
f 7//51 29//51 8//51
f 7//52 28//52 29//52
f 8//53 30//53 9//53
f 8//54 29//54 30//54
f 9//55 31//55 10//55
f 9//56 30//56 31//56
f 10//57 32//57 11//57
f 10//58 31//58 32//58
f 11//59 33//59 12//59
f 11//60 32//60 33//60
f 12//61 34//61 13//61
f 12//62 33//62 34//62
f 13//63 35//63 14//63
f 13//64 34//64 35//64
f 14//65 36//65 15//65
f 14//66 35//66 36//66
f 15//67 37//67 16//67
f 15//68 36//68 37//68
f 16//69 38//69 17//69
f 16//70 37//70 38//70
f 17//71 39//71 18//71
f 17//72 38//72 39//72
f 18//73 40//73 19//73
f 18//74 39//74 40//74
f 19//75 41//75 20//75
f 19//76 40//76 41//76
f 20//77 42//77 21//77
f 20//78 41//78 42//78
f 21//79 22//79 1//79
f 21//80 42//80 22//80
