# construction_1964_assumed_A_Casa
# source A_Casa
# h_campo 0.000000
# modeled_height 6.000000
# height_kind assumed
# local_origin_world_x 172001.034850
# local_origin_world_y 402500.144600
mtllib construction_artifacts.mtl

o construction_1964_assumed_A_Casa
v -19.243000 6.445500 0.000000
v -15.600000 7.064500 0.000000
v -16.154000 9.929500 0.000000
v -13.289000 10.335500 0.000000
v -11.934000 7.388500 0.000000
v 11.677000 12.180500 0.000000
v 19.243000 -8.453500 0.000000
v 0.751000 -12.180500 0.000000
v 0.303000 -9.779500 0.000000
v -10.987000 -11.658500 0.000000
v -13.432000 -1.653500 0.000000
v -16.317000 -2.292500 0.000000
v -19.243000 6.445500 6.000000
v -15.600000 7.064500 6.000000
v -16.154000 9.929500 6.000000
v -13.289000 10.335500 6.000000
v -11.934000 7.388500 6.000000
v 11.677000 12.180500 6.000000
v 19.243000 -8.453500 6.000000
v 0.751000 -12.180500 6.000000
v 0.303000 -9.779500 6.000000
v -10.987000 -11.658500 6.000000
v -13.432000 -1.653500 6.000000
v -16.317000 -2.292500 6.000000
v -0.829000 -2.786500 0.000000
v -0.233000 -5.545500 0.000000
v 8.550000 -4.156500 0.000000
v 4.883000 5.929500 0.000000
v 0.502000 5.308500 0.000000
v 0.594000 1.832500 0.000000
v 1.064000 -1.412500 0.000000
v -0.829000 -2.786500 6.000000
v -0.233000 -5.545500 6.000000
v 8.550000 -4.156500 6.000000
v 4.883000 5.929500 6.000000
v 0.502000 5.308500 6.000000
v 0.594000 1.832500 6.000000
v 1.064000 -1.412500 6.000000
vn 0.000000 0.000000 -1.000000
vn 0.000000 0.000000 -1.000000
vn 0.000000 0.000000 -1.000000
vn 0.000000 0.000000 -1.000000
vn 0.000000 0.000000 -1.000000
vn 0.000000 -0.000000 -1.000000
vn 0.000000 0.000000 -1.000000
vn 0.000000 0.000000 -1.000000
vn 0.000000 0.000000 -1.000000
vn 0.000000 0.000000 -1.000000
vn 0.000000 0.000000 -1.000000
vn 0.000000 -0.000000 -1.000000
vn 0.000000 0.000000 -1.000000
vn 0.000000 0.000000 -1.000000
vn 0.000000 0.000000 -1.000000
vn 0.000000 -0.000000 1.000000
vn 0.000000 -0.000000 1.000000
vn 0.000000 0.000000 1.000000
vn 0.000000 0.000000 1.000000
vn 0.000000 0.000000 1.000000
vn 0.000000 0.000000 1.000000
vn 0.000000 0.000000 1.000000
vn 0.000000 0.000000 1.000000
vn 0.000000 0.000000 1.000000
vn 0.000000 0.000000 1.000000
vn 0.000000 0.000000 1.000000
vn 0.000000 0.000000 1.000000
vn -0.000000 0.000000 1.000000
vn 0.000000 -0.000000 1.000000
vn 0.000000 0.000000 1.000000
vn -0.167514 0.985870 0.000000
vn -0.167514 0.985870 0.000000
vn -0.981813 -0.189851 0.000000
vn -0.981813 -0.189851 0.000000
vn -0.140308 0.990108 0.000000
vn -0.140308 0.990108 0.000000
vn 0.908563 0.417748 0.000000
vn 0.908563 0.417748 -0.000000
vn -0.198901 0.980020 0.000000
vn -0.198901 0.980020 0.000000
vn 0.938873 0.344263 0.000000
vn 0.938873 0.344263 -0.000000
vn 0.197574 -0.980288 0.000000
vn 0.197574 -0.980288 0.000000
vn -0.983034 -0.183423 0.000000
vn -0.983034 -0.183423 0.000000
vn 0.164172 -0.986432 0.000000
vn 0.164172 -0.986432 0.000000
vn -0.971414 -0.237392 0.000000
vn -0.971414 -0.237392 0.000000
vn 0.216250 -0.976338 0.000000
vn 0.216250 -0.976338 0.000000
vn -0.948248 -0.317530 0.000000
vn -0.948248 -0.317530 0.000000
vn -0.977454 -0.211150 0.000000
vn -0.977454 -0.211150 0.000000
vn 0.156205 -0.987725 0.000000
vn 0.156205 -0.987725 0.000000
vn 0.939812 0.341691 0.000000
vn 0.939812 0.341691 -0.000000
vn -0.140346 0.990103 0.000000
vn -0.140346 0.990103 0.000000
vn -0.999650 -0.026458 0.000000
vn -0.999650 -0.026458 0.000000
vn -0.989673 -0.143342 0.000000
vn -0.989673 -0.143342 0.000000
vn -0.587409 0.809290 0.000000
vn -0.587409 0.809290 0.000000
usemtl assumed_base
f 12//1 1//1 2//1
f 2//2 3//2 4//2
f 12//3 2//3 4//3
f 12//4 4//4 5//4
f 12//5 5//5 6//5
f 6//6 7//6 8//6
f 6//7 8//7 9//7
f 6//8 9//8 10//8
f 6//9 10//9 11//9
f 6//10 11//10 12//10
f 31//11 26//11 25//11
f 31//12 27//12 26//12
f 31//13 28//13 27//13
f 31//14 29//14 28//14
f 29//15 31//15 30//15
usemtl assumed_roof
f 24//16 14//16 13//16
f 14//17 16//17 15//17
f 24//18 16//18 14//18
f 24//19 17//19 16//19
f 24//20 18//20 17//20
f 18//21 20//21 19//21
f 18//22 21//22 20//22
f 18//23 22//23 21//23
f 18//24 23//24 22//24
f 18//25 24//25 23//25
f 38//26 32//26 33//26
f 38//27 33//27 34//27
f 38//28 34//28 35//28
f 38//29 35//29 36//29
f 36//30 37//30 38//30
usemtl assumed_wall
f 1//31 14//31 2//31
f 1//32 13//32 14//32
f 2//33 15//33 3//33
f 2//34 14//34 15//34
f 3//35 16//35 4//35
f 3//36 15//36 16//36
f 4//37 17//37 5//37
f 4//38 16//38 17//38
f 5//39 18//39 6//39
f 5//40 17//40 18//40
f 6//41 19//41 7//41
f 6//42 18//42 19//42
f 7//43 20//43 8//43
f 7//44 19//44 20//44
f 8//45 21//45 9//45
f 8//46 20//46 21//46
f 9//47 22//47 10//47
f 9//48 21//48 22//48
f 10//49 23//49 11//49
f 10//50 22//50 23//50
f 11//51 24//51 12//51
f 11//52 23//52 24//52
f 12//53 13//53 1//53
f 12//54 24//54 13//54
f 25//55 26//55 33//55
f 25//56 33//56 32//56
f 26//57 27//57 34//57
f 26//58 34//58 33//58
f 27//59 28//59 35//59
f 27//60 35//60 34//60
f 28//61 29//61 36//61
f 28//62 36//62 35//62
f 29//63 30//63 37//63
f 29//64 37//64 36//64
f 30//65 31//65 38//65
f 30//66 38//66 37//66
f 31//67 25//67 32//67
f 31//68 32//68 38//68
