# construction_2401_assumed_A_Casa
# source A_Casa
# h_campo 0.000000
# modeled_height 6.000000
# height_kind assumed
# local_origin_world_x 172001.034850
# local_origin_world_y 402500.144600
mtllib construction_artifacts.mtl

o construction_2401_assumed_A_Casa
v 10.899500 15.792500 0.000000
v 9.623500 10.138500 0.000000
v 2.688500 -16.379500 0.000000
v -10.899500 -9.925500 0.000000
v -7.690500 -3.699500 0.000000
v -2.317500 -6.086500 0.000000
v 1.388500 3.601500 0.000000
v 2.838500 3.600500 0.000000
v 6.141500 13.682500 0.000000
v 7.649500 16.379500 0.000000
v 10.899500 15.792500 6.000000
v 9.623500 10.138500 6.000000
v 2.688500 -16.379500 6.000000
v -10.899500 -9.925500 6.000000
v -7.690500 -3.699500 6.000000
v -2.317500 -6.086500 6.000000
v 1.388500 3.601500 6.000000
v 2.838500 3.600500 6.000000
v 6.141500 13.682500 6.000000
v 7.649500 16.379500 6.000000
vn 0.000000 0.000000 -1.000000
vn 0.000000 -0.000000 -1.000000
vn 0.000000 0.000000 -1.000000
vn 0.000000 0.000000 -1.000000
vn 0.000000 0.000000 -1.000000
vn 0.000000 0.000000 -1.000000
vn 0.000000 0.000000 -1.000000
vn 0.000000 0.000000 -1.000000
vn 0.000000 0.000000 1.000000
vn 0.000000 0.000000 1.000000
vn 0.000000 0.000000 1.000000
vn 0.000000 0.000000 1.000000
vn 0.000000 0.000000 1.000000
vn 0.000000 -0.000000 1.000000
vn 0.000000 0.000000 1.000000
vn 0.000000 0.000000 1.000000
vn 0.975467 -0.220144 0.000000
vn 0.975467 -0.220144 0.000000
vn 0.967463 -0.253011 0.000000
vn 0.967463 -0.253011 0.000000
vn -0.429041 -0.903285 0.000000
vn -0.429041 -0.903285 0.000000
vn -0.888878 0.458145 0.000000
vn -0.888878 0.458145 0.000000
vn 0.405996 0.913875 0.000000
vn 0.405996 0.913875 -0.000000
vn -0.933995 0.357286 0.000000
vn -0.933995 0.357286 0.000000
vn 0.000690 1.000000 0.000000
vn 0.000690 1.000000 -0.000000
vn -0.950301 0.311332 0.000000
vn -0.950301 0.311332 0.000000
vn -0.872826 0.488032 0.000000
vn -0.872826 0.488032 0.000000
vn 0.177740 0.984078 0.000000
vn 0.177740 0.984078 -0.000000
usemtl assumed_base
f 10//1 1//1 2//1
f 10//2 2//2 3//2
f 3//3 4//3 5//3
f 3//4 5//4 6//4
f 3//5 6//5 7//5
f 3//6 7//6 8//6
f 10//7 3//7 8//7
f 8//8 9//8 10//8
usemtl assumed_roof
f 20//9 12//9 11//9
f 20//10 13//10 12//10
f 13//11 15//11 14//11
f 13//12 16//12 15//12
f 13//13 17//13 16//13
f 13//14 18//14 17//14
f 20//15 18//15 13//15
f 18//16 20//16 19//16
usemtl assumed_wall
f 1//17 12//17 2//17
f 1//18 11//18 12//18
f 2//19 13//19 3//19
f 2//20 12//20 13//20
f 3//21 14//21 4//21
f 3//22 13//22 14//22
f 4//23 15//23 5//23
f 4//24 14//24 15//24
f 5//25 16//25 6//25
f 5//26 15//26 16//26
f 6//27 17//27 7//27
f 6//28 16//28 17//28
f 7//29 18//29 8//29
f 7//30 17//30 18//30
f 8//31 19//31 9//31
f 8//32 18//32 19//32
f 9//33 20//33 10//33
f 9//34 19//34 20//34
f 10//35 11//35 1//35
f 10//36 20//36 11//36
