# construction_0257_assumed_A_Casa
# source A_Casa
# h_campo 0.000000
# modeled_height 6.000000
# height_kind assumed
# local_origin_world_x 172001.034850
# local_origin_world_y 402500.144600
mtllib construction_artifacts.mtl

o construction_0257_assumed_A_Casa
v -13.989500 7.271500 0.000000
v -7.497500 10.643500 0.000000
v -6.310500 8.264500 0.000000
v 0.877500 12.141500 0.000000
v 3.572500 13.126500 0.000000
v 13.989500 -8.828500 0.000000
v 8.067500 -11.681500 0.000000
v 6.224500 -7.772500 0.000000
v -4.595500 -13.126500 0.000000
v -13.989500 7.271500 6.000000
v -7.497500 10.643500 6.000000
v -6.310500 8.264500 6.000000
v 0.877500 12.141500 6.000000
v 3.572500 13.126500 6.000000
v 13.989500 -8.828500 6.000000
v 8.067500 -11.681500 6.000000
v 6.224500 -7.772500 6.000000
v -4.595500 -13.126500 6.000000
vn 0.000000 0.000000 -1.000000
vn 0.000000 0.000000 -1.000000
vn 0.000000 0.000000 -1.000000
vn 0.000000 0.000000 -1.000000
vn 0.000000 0.000000 -1.000000
vn 0.000000 0.000000 -1.000000
vn 0.000000 -0.000000 -1.000000
vn 0.000000 0.000000 1.000000
vn 0.000000 0.000000 1.000000
vn 0.000000 -0.000000 1.000000
vn 0.000000 0.000000 1.000000
vn 0.000000 0.000000 1.000000
vn 0.000000 0.000000 1.000000
vn 0.000000 0.000000 1.000000
vn -0.460939 0.887432 0.000000
vn -0.460939 0.887432 0.000000
vn 0.894803 0.446461 0.000000
vn 0.894803 0.446461 -0.000000
vn -0.474720 0.880137 0.000000
vn -0.474720 0.880137 0.000000
vn -0.343282 0.939233 0.000000
vn -0.343282 0.939233 0.000000
vn 0.903463 0.428666 0.000000
vn 0.903463 0.428666 -0.000000
vn 0.434021 -0.900903 0.000000
vn 0.434021 -0.900903 0.000000
vn -0.904509 -0.426454 0.000000
vn -0.904509 -0.426454 0.000000
vn 0.443499 -0.896275 0.000000
vn 0.443499 -0.896275 0.000000
vn -0.908306 -0.418307 0.000000
vn -0.908306 -0.418307 0.000000
usemtl assumed_base
f 9//1 1//1 2//1
f 9//2 2//2 3//2
f 9//3 3//3 4//3
f 9//4 4//4 5//4
f 5//5 6//5 7//5
f 5//6 7//6 8//6
f 5//7 8//7 9//7
usemtl assumed_roof
f 18//8 11//8 10//8
f 18//9 12//9 11//9
f 18//10 13//10 12//10
f 18//11 14//11 13//11
f 14//12 16//12 15//12
f 14//13 17//13 16//13
f 14//14 18//14 17//14
usemtl assumed_wall
f 1//15 11//15 2//15
f 1//16 10//16 11//16
f 2//17 12//17 3//17
f 2//18 11//18 12//18
f 3//19 13//19 4//19
f 3//20 12//20 13//20
f 4//21 14//21 5//21
f 4//22 13//22 14//22
f 5//23 15//23 6//23
f 5//24 14//24 15//24
f 6//25 16//25 7//25
f 6//26 15//26 16//26
f 7//27 17//27 8//27
f 7//28 16//28 17//28
f 8//29 18//29 9//29
f 8//30 17//30 18//30
f 9//31 10//31 1//31
f 9//32 18//32 10//32
