# construction_4149_assumed_A_Casa
# source A_Casa
# h_campo 0.000000
# modeled_height 6.000000
# height_kind assumed
# local_origin_world_x 172001.034850
# local_origin_world_y 402500.144600
mtllib construction_artifacts.mtl

o construction_4149_assumed_A_Casa
v -0.628350 -15.989800 0.000000
v -5.231350 -7.733800 0.000000
v -1.696350 -5.053800 0.000000
v -4.269350 0.330200 0.000000
v -10.073650 -2.877200 0.000000
v -10.073650 15.989800 0.000000
v -3.809350 7.186200 0.000000
v 2.971650 -2.137800 0.000000
v 5.204650 -0.642800 0.000000
v 10.073650 -6.580800 0.000000
v 6.741650 -8.428800 0.000000
v 8.012650 -10.863800 0.000000
v -0.628350 -15.989800 6.000000
v -5.231350 -7.733800 6.000000
v -1.696350 -5.053800 6.000000
v -4.269350 0.330200 6.000000
v -10.073650 -2.877200 6.000000
v -10.073650 15.989800 6.000000
v -3.809350 7.186200 6.000000
v 2.971650 -2.137800 6.000000
v 5.204650 -0.642800 6.000000
v 10.073650 -6.580800 6.000000
v 6.741650 -8.428800 6.000000
v 8.012650 -10.863800 6.000000
vn -0.000000 0.000000 -1.000000
vn 0.000000 0.000000 -1.000000
vn 0.000000 0.000000 -1.000000
vn -0.000000 0.000000 -1.000000
vn 0.000000 0.000000 -1.000000
vn 0.000000 0.000000 -1.000000
vn 0.000000 0.000000 -1.000000
vn 0.000000 0.000000 -1.000000
vn 0.000000 0.000000 -1.000000
vn 0.000000 0.000000 -1.000000
vn 0.000000 0.000000 1.000000
vn 0.000000 0.000000 1.000000
vn 0.000000 0.000000 1.000000
vn 0.000000 0.000000 1.000000
vn 0.000000 0.000000 1.000000
vn 0.000000 0.000000 1.000000
vn 0.000000 0.000000 1.000000
vn -0.000000 0.000000 1.000000
vn 0.000000 0.000000 1.000000
vn 0.000000 0.000000 1.000000
vn -0.873423 -0.486963 0.000000
vn -0.873423 -0.486963 0.000000
vn -0.604140 0.796878 0.000000
vn -0.604140 0.796878 0.000000
vn -0.902262 -0.431189 0.000000
vn -0.902262 -0.431189 0.000000
vn 0.483658 -0.875257 0.000000
vn 0.483658 -0.875257 0.000000
vn -1.000000 0.000000 0.000000
vn -1.000000 0.000000 0.000000
vn 0.814782 0.579767 0.000000
vn 0.814782 0.579767 -0.000000
vn 0.808740 0.588167 0.000000
vn 0.808740 0.588167 -0.000000
vn -0.556331 0.830961 0.000000
vn -0.556331 0.830961 0.000000
vn 0.773278 0.634067 0.000000
vn 0.773278 0.634067 -0.000000
vn 0.485019 -0.874504 0.000000
vn 0.485019 -0.874504 0.000000
vn 0.886500 0.462728 0.000000
vn 0.886500 0.462728 -0.000000
vn 0.510201 -0.860055 0.000000
vn 0.510201 -0.860055 0.000000
usemtl assumed_base
f 12//1 1//1 2//1
f 12//2 2//2 3//2
f 12//3 3//3 4//3
f 4//4 5//4 6//4
f 12//5 4//5 6//5
f 12//6 6//6 7//6
f 12//7 7//7 8//7
f 8//8 9//8 10//8
f 8//9 10//9 11//9
f 8//10 11//10 12//10
usemtl assumed_roof
f 24//11 14//11 13//11
f 24//12 15//12 14//12
f 24//13 16//13 15//13
f 16//14 18//14 17//14
f 24//15 18//15 16//15
f 24//16 19//16 18//16
f 24//17 20//17 19//17
f 20//18 22//18 21//18
f 20//19 23//19 22//19
f 20//20 24//20 23//20
usemtl assumed_wall
f 1//21 14//21 2//21
f 1//22 13//22 14//22
f 2//23 15//23 3//23
f 2//24 14//24 15//24
f 3//25 16//25 4//25
f 3//26 15//26 16//26
f 4//27 17//27 5//27
f 4//28 16//28 17//28
f 5//29 18//29 6//29
f 5//30 17//30 18//30
f 6//31 19//31 7//31
f 6//32 18//32 19//32
f 7//33 20//33 8//33
f 7//34 19//34 20//34
f 8//35 21//35 9//35
f 8//36 20//36 21//36
f 9//37 22//37 10//37
f 9//38 21//38 22//38
f 10//39 23//39 11//39
f 10//40 22//40 23//40
f 11//41 24//41 12//41
f 11//42 23//42 24//42
f 12//43 13//43 1//43
f 12//44 24//44 13//44
