# construction_0661_assumed_A_Casa
# source A_Casa
# h_campo 0.000000
# modeled_height 6.000000
# height_kind assumed
# local_origin_world_x 172001.034850
# local_origin_world_y 402500.144600
mtllib construction_artifacts.mtl

o construction_0661_assumed_A_Casa
v -9.965500 -1.335000 0.000000
v -6.052500 5.510000 0.000000
v -4.438500 5.056000 0.000000
v -1.232500 10.752000 0.000000
v 9.965500 5.296000 0.000000
v 0.771500 -10.752000 0.000000
v -8.367500 -7.649000 0.000000
v -6.023500 -3.581000 0.000000
v -9.965500 -1.335000 6.000000
v -6.052500 5.510000 6.000000
v -4.438500 5.056000 6.000000
v -1.232500 10.752000 6.000000
v 9.965500 5.296000 6.000000
v 0.771500 -10.752000 6.000000
v -8.367500 -7.649000 6.000000
v -6.023500 -3.581000 6.000000
vn 0.000000 0.000000 -1.000000
vn 0.000000 0.000000 -1.000000
vn 0.000000 0.000000 -1.000000
vn 0.000000 0.000000 -1.000000
vn 0.000000 0.000000 -1.000000
vn 0.000000 0.000000 -1.000000
vn 0.000000 0.000000 1.000000
vn 0.000000 -0.000000 1.000000
vn 0.000000 0.000000 1.000000
vn 0.000000 0.000000 1.000000
vn -0.000000 0.000000 1.000000
vn 0.000000 0.000000 1.000000
vn -0.868157 0.496289 0.000000
vn -0.868157 0.496289 0.000000
vn 0.270780 0.962641 0.000000
vn 0.270780 0.962641 -0.000000
vn -0.871445 0.490494 0.000000
vn -0.871445 0.490494 0.000000
vn 0.438006 0.898972 0.000000
vn 0.438006 0.898972 -0.000000
vn 0.867690 -0.497105 0.000000
vn 0.867690 -0.497105 0.000000
vn -0.321507 -0.946907 0.000000
vn -0.321507 -0.946907 0.000000
vn -0.866455 0.499255 0.000000
vn -0.866455 0.499255 0.000000
vn -0.495047 -0.868866 0.000000
vn -0.495047 -0.868866 0.000000
usemtl assumed_base
f 8//1 1//1 2//1
f 8//2 2//2 3//2
f 8//3 3//3 4//3
f 8//4 4//4 5//4
f 8//5 5//5 6//5
f 6//6 7//6 8//6
usemtl assumed_roof
f 16//7 10//7 9//7
f 16//8 11//8 10//8
f 16//9 12//9 11//9
f 16//10 13//10 12//10
f 16//11 14//11 13//11
f 14//12 16//12 15//12
usemtl assumed_wall
f 1//13 10//13 2//13
f 1//14 9//14 10//14
f 2//15 11//15 3//15
f 2//16 10//16 11//16
f 3//17 12//17 4//17
f 3//18 11//18 12//18
f 4//19 13//19 5//19
f 4//20 12//20 13//20
f 5//21 14//21 6//21
f 5//22 13//22 14//22
f 6//23 15//23 7//23
f 6//24 14//24 15//24
f 7//25 16//25 8//25
f 7//26 15//26 16//26
f 8//27 9//27 1//27
f 8//28 16//28 9//28
