# construction_1137_assumed_A_Casa
# source A_Casa
# h_campo 0.000000
# modeled_height 6.000000
# height_kind assumed
# local_origin_world_x 172001.034850
# local_origin_world_y 402500.144600
mtllib construction_artifacts.mtl

o construction_1137_assumed_A_Casa
v -4.473500 0.195500 0.000000
v -2.056500 1.628500 0.000000
v -2.507500 2.813500 0.000000
v 1.092500 4.886500 0.000000
v 4.473500 -1.333500 0.000000
v -1.037500 -4.886500 0.000000
v -4.473500 0.195500 6.000000
v -2.056500 1.628500 6.000000
v -2.507500 2.813500 6.000000
v 1.092500 4.886500 6.000000
v 4.473500 -1.333500 6.000000
v -1.037500 -4.886500 6.000000
vn 0.000000 0.000000 -1.000000
vn 0.000000 0.000000 -1.000000
vn 0.000000 0.000000 -1.000000
vn 0.000000 -0.000000 -1.000000
vn 0.000000 0.000000 1.000000
vn 0.000000 -0.000000 1.000000
vn 0.000000 -0.000000 1.000000
vn 0.000000 0.000000 1.000000
vn -0.509988 0.860182 0.000000
vn -0.509988 0.860182 0.000000
vn -0.934600 -0.355700 0.000000
vn -0.934600 -0.355700 0.000000
vn -0.499014 0.866594 0.000000
vn -0.499014 0.866594 0.000000
vn 0.878591 0.477575 0.000000
vn 0.878591 0.477575 -0.000000
vn 0.541859 -0.840469 0.000000
vn 0.541859 -0.840469 0.000000
vn -0.828421 -0.560105 0.000000
vn -0.828421 -0.560105 0.000000
usemtl assumed_base
f 6//1 1//1 2//1
f 2//2 3//2 4//2
f 6//3 2//3 4//3
f 4//4 5//4 6//4
usemtl assumed_roof
f 12//5 8//5 7//5
f 8//6 10//6 9//6
f 12//7 10//7 8//7
f 10//8 12//8 11//8
usemtl assumed_wall
f 1//9 8//9 2//9
f 1//10 7//10 8//10
f 2//11 9//11 3//11
f 2//12 8//12 9//12
f 3//13 10//13 4//13
f 3//14 9//14 10//14
f 4//15 11//15 5//15
f 4//16 10//16 11//16
f 5//17 12//17 6//17
f 5//18 11//18 12//18
f 6//19 7//19 1//19
f 6//20 12//20 7//20
