# construction_5547_assumed_A_Casa
# source A_Casa
# h_campo 0.000000
# modeled_height 6.000000
# height_kind assumed
# local_origin_world_x 172001.034850
# local_origin_world_y 402500.144600
mtllib construction_artifacts.mtl

o construction_5547_assumed_A_Casa
v -5.702500 -1.155500 0.000000
v -2.985500 1.815500 0.000000
v -4.139500 3.282500 0.000000
v -0.590500 6.279500 0.000000
v 2.570500 3.664500 0.000000
v 1.338500 2.668500 0.000000
v 5.702500 -2.053500 0.000000
v 2.689500 -4.361500 0.000000
v -0.763500 -6.279500 0.000000
v -5.702500 -1.155500 6.000000
v -2.985500 1.815500 6.000000
v -4.139500 3.282500 6.000000
v -0.590500 6.279500 6.000000
v 2.570500 3.664500 6.000000
v 1.338500 2.668500 6.000000
v 5.702500 -2.053500 6.000000
v 2.689500 -4.361500 6.000000
v -0.763500 -6.279500 6.000000
vn 0.000000 0.000000 -1.000000
vn 0.000000 0.000000 -1.000000
vn 0.000000 0.000000 -1.000000
vn 0.000000 0.000000 -1.000000
vn 0.000000 0.000000 -1.000000
vn 0.000000 0.000000 -1.000000
vn 0.000000 0.000000 -1.000000
vn 0.000000 0.000000 1.000000
vn 0.000000 -0.000000 1.000000
vn 0.000000 -0.000000 1.000000
vn 0.000000 0.000000 1.000000
vn 0.000000 0.000000 1.000000
vn 0.000000 0.000000 1.000000
vn 0.000000 0.000000 1.000000
vn -0.737948 0.674858 0.000000
vn -0.737948 0.674858 0.000000
vn -0.785965 -0.618271 0.000000
vn -0.785965 -0.618271 0.000000
vn -0.645189 0.764023 0.000000
vn -0.645189 0.764023 0.000000
vn 0.637423 0.770514 0.000000
vn 0.637423 0.770514 -0.000000
vn 0.628690 -0.777656 0.000000
vn 0.628690 -0.777656 0.000000
vn 0.734398 0.678719 0.000000
vn 0.734398 0.678719 -0.000000
vn 0.608105 -0.793856 0.000000
vn 0.608105 -0.793856 0.000000
vn 0.485578 -0.874193 0.000000
vn 0.485578 -0.874193 0.000000
vn -0.719985 -0.693990 0.000000
vn -0.719985 -0.693990 0.000000
usemtl assumed_base
f 9//1 1//1 2//1
f 2//2 3//2 4//2
f 9//3 2//3 4//3
f 4//4 5//4 6//4
f 9//5 4//5 6//5
f 9//6 6//6 7//6
f 7//7 8//7 9//7
usemtl assumed_roof
f 18//8 11//8 10//8
f 11//9 13//9 12//9
f 18//10 13//10 11//10
f 13//11 15//11 14//11
f 18//12 15//12 13//12
f 18//13 16//13 15//13
f 16//14 18//14 17//14
usemtl assumed_wall
f 1//15 11//15 2//15
f 1//16 10//16 11//16
f 2//17 12//17 3//17
f 2//18 11//18 12//18
f 3//19 13//19 4//19
f 3//20 12//20 13//20
f 4//21 14//21 5//21
f 4//22 13//22 14//22
f 5//23 15//23 6//23
f 5//24 14//24 15//24
f 6//25 16//25 7//25
f 6//26 15//26 16//26
f 7//27 17//27 8//27
f 7//28 16//28 17//28
f 8//29 18//29 9//29
f 8//30 17//30 18//30
f 9//31 10//31 1//31
f 9//32 18//32 10//32
