# construction_2506_assumed_A_Casa
# source A_Casa
# h_campo 0.000000
# modeled_height 6.000000
# height_kind assumed
# local_origin_world_x 172001.034850
# local_origin_world_y 402500.144600
mtllib construction_artifacts.mtl

o construction_2506_assumed_A_Casa
v -2.069500 -0.049000 0.000000
v -1.176500 -0.046000 0.000000
v -1.187500 3.704000 0.000000
v 3.417500 4.634000 0.000000
v 3.625500 2.486000 0.000000
v 2.101500 2.271000 0.000000
v 1.898500 -0.113000 0.000000
v 2.887500 -1.475000 0.000000
v 3.172500 -3.850000 0.000000
v -3.109500 -4.634000 0.000000
v -3.625500 -0.895000 0.000000
v -2.067500 -0.689000 0.000000
v -2.069500 -0.049000 6.000000
v -1.176500 -0.046000 6.000000
v -1.187500 3.704000 6.000000
v 3.417500 4.634000 6.000000
v 3.625500 2.486000 6.000000
v 2.101500 2.271000 6.000000
v 1.898500 -0.113000 6.000000
v 2.887500 -1.475000 6.000000
v 3.172500 -3.850000 6.000000
v -3.109500 -4.634000 6.000000
v -3.625500 -0.895000 6.000000
v -2.067500 -0.689000 6.000000
vn 0.000000 0.000000 -1.000000
vn 0.000000 0.000000 -1.000000
vn 0.000000 -0.000000 -1.000000
vn 0.000000 0.000000 -1.000000
vn 0.000000 0.000000 -1.000000
vn 0.000000 0.000000 -1.000000
vn 0.000000 0.000000 -1.000000
vn 0.000000 0.000000 -1.000000
vn 0.000000 -0.000000 -1.000000
vn 0.000000 0.000000 -1.000000
vn 0.000000 -0.000000 1.000000
vn 0.000000 -0.000000 1.000000
vn 0.000000 0.000000 1.000000
vn 0.000000 0.000000 1.000000
vn 0.000000 0.000000 1.000000
vn 0.000000 0.000000 1.000000
vn -0.000000 0.000000 1.000000
vn 0.000000 0.000000 1.000000
vn 0.000000 0.000000 1.000000
vn 0.000000 -0.000000 1.000000
vn -0.003359 0.999994 0.000000
vn -0.003359 0.999994 0.000000
vn -0.999996 -0.002933 0.000000
vn -0.999996 -0.002933 0.000000
vn -0.197958 0.980211 0.000000
vn -0.197958 0.980211 0.000000
vn 0.995344 0.096383 0.000000
vn 0.995344 0.096383 -0.000000
vn 0.139693 -0.990195 0.000000
vn 0.139693 -0.990195 0.000000
vn 0.996394 -0.084844 0.000000
vn 0.996394 -0.084844 0.000000
vn 0.809173 0.587571 0.000000
vn 0.809173 0.587571 -0.000000
vn 0.992877 0.119145 0.000000
vn 0.992877 0.119145 -0.000000
vn 0.123840 -0.992302 0.000000
vn 0.123840 -0.992302 0.000000
vn -0.990611 -0.136709 0.000000
vn -0.990611 -0.136709 0.000000
vn -0.131080 0.991372 0.000000
vn -0.131080 0.991372 0.000000
vn -0.999995 -0.003125 0.000000
vn -0.999995 -0.003125 0.000000
usemtl assumed_base
f 12//1 1//1 2//1
f 2//2 3//2 4//2
f 4//3 5//3 6//3
f 2//4 4//4 6//4
f 12//5 2//5 6//5
f 12//6 6//6 7//6
f 12//7 7//7 8//7
f 12//8 8//8 9//8
f 12//9 9//9 10//9
f 10//10 11//10 12//10
usemtl assumed_roof
f 24//11 14//11 13//11
f 14//12 16//12 15//12
f 16//13 18//13 17//13
f 14//14 18//14 16//14
f 24//15 18//15 14//15
f 24//16 19//16 18//16
f 24//17 20//17 19//17
f 24//18 21//18 20//18
f 24//19 22//19 21//19
f 22//20 24//20 23//20
usemtl assumed_wall
f 1//21 14//21 2//21
f 1//22 13//22 14//22
f 2//23 15//23 3//23
f 2//24 14//24 15//24
f 3//25 16//25 4//25
f 3//26 15//26 16//26
f 4//27 17//27 5//27
f 4//28 16//28 17//28
f 5//29 18//29 6//29
f 5//30 17//30 18//30
f 6//31 19//31 7//31
f 6//32 18//32 19//32
f 7//33 20//33 8//33
f 7//34 19//34 20//34
f 8//35 21//35 9//35
f 8//36 20//36 21//36
f 9//37 22//37 10//37
f 9//38 21//38 22//38
f 10//39 23//39 11//39
f 10//40 22//40 23//40
f 11//41 24//41 12//41
f 11//42 23//42 24//42
f 12//43 13//43 1//43
f 12//44 24//44 13//44
