# construction_7130_assumed_A_Hospital
# source A_Hospital
# h_campo 0.000000
# modeled_height 6.000000
# height_kind assumed
# local_origin_world_x 172001.034850
# local_origin_world_y 402500.144600
mtllib construction_artifacts.mtl

o construction_7130_assumed_A_Hospital
v -41.288500 -16.826000 0.000000
v -22.458500 -7.951000 0.000000
v -25.648500 -0.824000 0.000000
v -18.371500 3.123000 0.000000
v -21.780500 7.852000 0.000000
v -13.527500 14.247000 0.000000
v -11.521500 8.707000 0.000000
v -0.345500 14.932000 0.000000
v -2.343500 18.848000 0.000000
v 19.785500 29.610000 0.000000
v 25.140500 19.064000 0.000000
v 26.392500 19.055000 0.000000
v 27.297500 17.497000 0.000000
v 26.249500 16.858000 0.000000
v 31.156500 6.217000 0.000000
v 32.588500 4.245000 0.000000
v 40.297500 8.195000 0.000000
v 44.612500 -1.290000 0.000000
v 39.708500 -3.587000 0.000000
v 45.986500 -16.371000 0.000000
v 35.071500 -22.114000 0.000000
v 24.483500 2.164000 0.000000
v 13.195500 -3.180000 0.000000
v 14.787500 -9.463000 0.000000
v 7.570500 -12.900000 0.000000
v 6.456500 -6.491000 0.000000
v -36.240500 -27.683000 0.000000
v -36.599500 -27.051000 0.000000
v -41.394500 -29.610000 0.000000
v -45.986500 -20.173000 0.000000
v -41.083500 -17.768000 0.000000
v -41.288500 -16.826000 6.000000
v -22.458500 -7.951000 6.000000
v -25.648500 -0.824000 6.000000
v -18.371500 3.123000 6.000000
v -21.780500 7.852000 6.000000
v -13.527500 14.247000 6.000000
v -11.521500 8.707000 6.000000
v -0.345500 14.932000 6.000000
v -2.343500 18.848000 6.000000
v 19.785500 29.610000 6.000000
v 25.140500 19.064000 6.000000
v 26.392500 19.055000 6.000000
v 27.297500 17.497000 6.000000
v 26.249500 16.858000 6.000000
v 31.156500 6.217000 6.000000
v 32.588500 4.245000 6.000000
v 40.297500 8.195000 6.000000
v 44.612500 -1.290000 6.000000
v 39.708500 -3.587000 6.000000
v 45.986500 -16.371000 6.000000
v 35.071500 -22.114000 6.000000
v 24.483500 2.164000 6.000000
v 13.195500 -3.180000 6.000000
v 14.787500 -9.463000 6.000000
v 7.570500 -12.900000 6.000000
v 6.456500 -6.491000 6.000000
v -36.240500 -27.683000 6.000000
v -36.599500 -27.051000 6.000000
v -41.394500 -29.610000 6.000000
v -45.986500 -20.173000 6.000000
v -41.083500 -17.768000 6.000000
vn 0.000000 0.000000 -1.000000
vn 0.000000 0.000000 -1.000000
vn 0.000000 0.000000 -1.000000
vn 0.000000 0.000000 -1.000000
vn 0.000000 0.000000 -1.000000
vn 0.000000 0.000000 -1.000000
vn 0.000000 0.000000 -1.000000
vn 0.000000 0.000000 -1.000000
vn 0.000000 0.000000 -1.000000
vn 0.000000 0.000000 -1.000000
vn 0.000000 0.000000 -1.000000
vn 0.000000 0.000000 -1.000000
vn 0.000000 0.000000 -1.000000
vn 0.000000 0.000000 -1.000000
vn 0.000000 0.000000 -1.000000
vn 0.000000 0.000000 -1.000000
vn 0.000000 0.000000 -1.000000
vn 0.000000 0.000000 -1.000000
vn 0.000000 0.000000 -1.000000
vn 0.000000 -0.000000 -1.000000
vn 0.000000 0.000000 -1.000000
vn 0.000000 0.000000 -1.000000
vn 0.000000 -0.000000 -1.000000
vn 0.000000 0.000000 -1.000000
vn 0.000000 0.000000 -1.000000
vn 0.000000 0.000000 -1.000000
vn 0.000000 0.000000 -1.000000
vn 0.000000 -0.000000 -1.000000
vn 0.000000 0.000000 -1.000000
vn 0.000000 -0.000000 1.000000
vn 0.000000 -0.000000 1.000000
vn 0.000000 -0.000000 1.000000
vn 0.000000 0.000000 1.000000
vn 0.000000 0.000000 1.000000
vn 0.000000 0.000000 1.000000
vn 0.000000 -0.000000 1.000000
vn 0.000000 0.000000 1.000000
vn 0.000000 0.000000 1.000000
vn 0.000000 0.000000 1.000000
vn 0.000000 0.000000 1.000000
vn 0.000000 0.000000 1.000000
vn 0.000000 0.000000 1.000000
vn 0.000000 0.000000 1.000000
vn -0.000000 0.000000 1.000000
vn 0.000000 0.000000 1.000000
vn 0.000000 0.000000 1.000000
vn 0.000000 0.000000 1.000000
vn 0.000000 0.000000 1.000000
vn 0.000000 0.000000 1.000000
vn 0.000000 0.000000 1.000000
vn 0.000000 0.000000 1.000000
vn 0.000000 0.000000 1.000000
vn 0.000000 0.000000 1.000000
vn 0.000000 0.000000 1.000000
vn -0.000000 0.000000 1.000000
vn 0.000000 0.000000 1.000000
vn 0.000000 0.000000 1.000000
vn 0.000000 -0.000000 1.000000
vn -0.426341 0.904563 0.000000
vn -0.426341 0.904563 0.000000
vn -0.912742 -0.408537 0.000000
vn -0.912742 -0.408537 0.000000
vn -0.476777 0.879024 0.000000
vn -0.476777 0.879024 0.000000
vn -0.811199 -0.584770 0.000000
vn -0.811199 -0.584770 0.000000
vn -0.612507 0.790465 0.000000
vn -0.612507 0.790465 0.000000
vn 0.940258 0.340462 0.000000
vn 0.940258 0.340462 -0.000000
vn -0.486605 0.873622 0.000000
vn -0.486605 0.873622 0.000000
vn -0.890758 -0.454478 0.000000
vn -0.890758 -0.454478 0.000000
vn -0.437352 0.899290 0.000000
vn -0.437352 0.899290 0.000000
vn 0.891637 0.452751 0.000000
vn 0.891637 0.452751 -0.000000
vn 0.007188 0.999974 0.000000
vn 0.007188 0.999974 -0.000000
vn 0.864703 0.502283 0.000000
vn 0.864703 0.502283 -0.000000
vn 0.520593 -0.853805 0.000000
vn 0.520593 -0.853805 0.000000
vn 0.908097 0.418761 0.000000
vn 0.908097 0.418761 -0.000000
vn 0.809162 0.587586 0.000000
vn 0.809162 0.587586 -0.000000
vn -0.456012 0.889974 0.000000
vn -0.456012 0.889974 0.000000
vn 0.910235 0.414092 0.000000
vn 0.910235 0.414092 -0.000000
vn 0.424169 -0.905583 0.000000
vn 0.424169 -0.905583 0.000000
vn 0.897606 0.440799 0.000000
vn 0.897606 0.440799 -0.000000
vn 0.465636 -0.884976 0.000000
vn 0.465636 -0.884976 0.000000
vn -0.916623 -0.399753 0.000000
vn -0.916623 -0.399753 0.000000
vn 0.427894 -0.903829 0.000000
vn 0.427894 -0.903829 0.000000
vn 0.969366 0.245620 0.000000
vn 0.969366 0.245620 -0.000000
vn 0.429968 -0.902844 0.000000
vn 0.429968 -0.902844 0.000000
vn -0.985228 -0.171250 0.000000
vn -0.985228 -0.171250 0.000000
vn 0.444585 -0.895737 0.000000
vn 0.444585 -0.895737 0.000000
vn -0.869510 -0.493915 0.000000
vn -0.869510 -0.493915 0.000000
vn 0.470827 -0.882226 0.000000
vn 0.470827 -0.882226 0.000000
vn -0.899197 -0.437545 0.000000
vn -0.899197 -0.437545 0.000000
vn -0.440389 0.897807 0.000000
vn -0.440389 0.897807 0.000000
vn -0.977130 -0.212645 0.000000
vn -0.977130 -0.212645 0.000000
usemtl assumed_base
f 31//1 1//1 2//1
f 2//2 3//2 4//2
f 4//3 5//3 6//3
f 2//4 4//4 6//4
f 2//5 6//5 7//5
f 2//6 7//6 8//6
f 8//7 9//7 10//7
f 2//8 8//8 10//8
f 2//9 10//9 11//9
f 2//10 11//10 12//10
f 2//11 12//11 13//11
f 31//12 2//12 13//12
f 31//13 13//13 14//13
f 31//14 14//14 15//14
f 16//15 17//15 18//15
f 16//16 18//16 19//16
f 16//17 19//17 20//17
f 15//18 16//18 20//18
f 15//19 20//19 21//19
f 15//20 21//20 22//20
f 31//21 15//21 22//21
f 31//22 22//22 23//22
f 23//23 24//23 25//23
f 23//24 25//24 26//24
f 31//25 23//25 26//25
f 31//26 26//26 27//26
f 31//27 27//27 28//27
f 31//28 28//28 29//28
f 29//29 30//29 31//29
usemtl assumed_roof
f 62//30 33//30 32//30
f 33//31 35//31 34//31
f 35//32 37//32 36//32
f 33//33 37//33 35//33
f 33//34 38//34 37//34
f 33//35 39//35 38//35
f 39//36 41//36 40//36
f 33//37 41//37 39//37
f 33//38 42//38 41//38
f 33//39 43//39 42//39
f 33//40 44//40 43//40
f 62//41 44//41 33//41
f 62//42 45//42 44//42
f 62//43 46//43 45//43
f 47//44 49//44 48//44
f 47//45 50//45 49//45
f 47//46 51//46 50//46
f 46//47 51//47 47//47
f 46//48 52//48 51//48
f 46//49 53//49 52//49
f 62//50 53//50 46//50
f 62//51 54//51 53//51
f 54//52 56//52 55//52
f 54//53 57//53 56//53
f 62//54 57//54 54//54
f 62//55 58//55 57//55
f 62//56 59//56 58//56
f 62//57 60//57 59//57
f 60//58 62//58 61//58
usemtl assumed_wall
f 1//59 33//59 2//59
f 1//60 32//60 33//60
f 2//61 34//61 3//61
f 2//62 33//62 34//62
f 3//63 35//63 4//63
f 3//64 34//64 35//64
f 4//65 36//65 5//65
f 4//66 35//66 36//66
f 5//67 37//67 6//67
f 5//68 36//68 37//68
f 6//69 38//69 7//69
f 6//70 37//70 38//70
f 7//71 39//71 8//71
f 7//72 38//72 39//72
f 8//73 40//73 9//73
f 8//74 39//74 40//74
f 9//75 41//75 10//75
f 9//76 40//76 41//76
f 10//77 42//77 11//77
f 10//78 41//78 42//78
f 11//79 43//79 12//79
f 11//80 42//80 43//80
f 12//81 44//81 13//81
f 12//82 43//82 44//82
f 13//83 45//83 14//83
f 13//84 44//84 45//84
f 14//85 46//85 15//85
f 14//86 45//86 46//86
f 15//87 47//87 16//87
f 15//88 46//88 47//88
f 16//89 48//89 17//89
f 16//90 47//90 48//90
f 17//91 49//91 18//91
f 17//92 48//92 49//92
f 18//93 50//93 19//93
f 18//94 49//94 50//94
f 19//95 51//95 20//95
f 19//96 50//96 51//96
f 20//97 52//97 21//97
f 20//98 51//98 52//98
f 21//99 53//99 22//99
f 21//100 52//100 53//100
f 22//101 54//101 23//101
f 22//102 53//102 54//102
f 23//103 55//103 24//103
f 23//104 54//104 55//104
f 24//105 56//105 25//105
f 24//106 55//106 56//106
f 25//107 57//107 26//107
f 25//108 56//108 57//108
f 26//109 58//109 27//109
f 26//110 57//110 58//110
f 27//111 59//111 28//111
f 27//112 58//112 59//112
f 28//113 60//113 29//113
f 28//114 59//114 60//114
f 29//115 61//115 30//115
f 29//116 60//116 61//116
f 30//117 62//117 31//117
f 30//118 61//118 62//118
f 31//119 32//119 1//119
f 31//120 62//120 32//120
