# construction_0358_assumed_A_Casa
# source A_Casa
# h_campo 0.000000
# modeled_height 6.000000
# height_kind assumed
# local_origin_world_x 172001.034850
# local_origin_world_y 402500.144600
mtllib construction_artifacts.mtl

o construction_0358_assumed_A_Casa
v -10.858500 -3.525000 0.000000
v -7.421500 7.277000 0.000000
v 5.205500 2.636000 0.000000
v 6.117500 4.387000 0.000000
v 10.302500 4.126000 0.000000
v 10.858500 -2.368000 0.000000
v 10.327500 -4.008000 0.000000
v 3.102500 -2.674000 0.000000
v 1.345500 -7.277000 0.000000
v -10.858500 -3.525000 6.000000
v -7.421500 7.277000 6.000000
v 5.205500 2.636000 6.000000
v 6.117500 4.387000 6.000000
v 10.302500 4.126000 6.000000
v 10.858500 -2.368000 6.000000
v 10.327500 -4.008000 6.000000
v 3.102500 -2.674000 6.000000
v 1.345500 -7.277000 6.000000
vn 0.000000 0.000000 -1.000000
vn 0.000000 0.000000 -1.000000
vn 0.000000 0.000000 -1.000000
vn 0.000000 0.000000 -1.000000
vn 0.000000 0.000000 -1.000000
vn 0.000000 0.000000 -1.000000
vn 0.000000 0.000000 -1.000000
vn 0.000000 0.000000 1.000000
vn 0.000000 0.000000 1.000000
vn -0.000000 0.000000 1.000000
vn 0.000000 0.000000 1.000000
vn 0.000000 0.000000 1.000000
vn 0.000000 0.000000 1.000000
vn 0.000000 0.000000 1.000000
vn -0.952926 0.303204 0.000000
vn -0.952926 0.303204 0.000000
vn 0.344982 0.938609 0.000000
vn 0.344982 0.938609 -0.000000
vn -0.886910 0.461943 0.000000
vn -0.886910 0.461943 0.000000
vn 0.062245 0.998061 0.000000
vn 0.062245 0.998061 -0.000000
vn 0.996355 0.085305 0.000000
vn 0.996355 0.085305 -0.000000
vn 0.951375 -0.308037 0.000000
vn 0.951375 -0.308037 0.000000
vn -0.181568 -0.983378 0.000000
vn -0.181568 -0.983378 0.000000
vn 0.934253 -0.356611 0.000000
vn 0.934253 -0.356611 0.000000
vn -0.293866 -0.955847 0.000000
vn -0.293866 -0.955847 0.000000
usemtl assumed_base
f 9//1 1//1 2//1
f 3//2 4//2 5//2
f 3//3 5//3 6//3
f 2//4 3//4 6//4
f 2//5 6//5 7//5
f 2//6 7//6 8//6
f 2//7 8//7 9//7
usemtl assumed_roof
f 18//8 11//8 10//8
f 12//9 14//9 13//9
f 12//10 15//10 14//10
f 11//11 15//11 12//11
f 11//12 16//12 15//12
f 11//13 17//13 16//13
f 11//14 18//14 17//14
usemtl assumed_wall
f 1//15 11//15 2//15
f 1//16 10//16 11//16
f 2//17 12//17 3//17
f 2//18 11//18 12//18
f 3//19 13//19 4//19
f 3//20 12//20 13//20
f 4//21 14//21 5//21
f 4//22 13//22 14//22
f 5//23 15//23 6//23
f 5//24 14//24 15//24
f 6//25 16//25 7//25
f 6//26 15//26 16//26
f 7//27 17//27 8//27
f 7//28 16//28 17//28
f 8//29 18//29 9//29
f 8//30 17//30 18//30
f 9//31 10//31 1//31
f 9//32 18//32 10//32
