# construction_5892_assumed_A_Casa
# source A_Casa
# h_campo 0.000000
# modeled_height 6.000000
# height_kind assumed
# local_origin_world_x 172001.034850
# local_origin_world_y 402500.144600
mtllib construction_artifacts.mtl

o construction_5892_assumed_A_Casa
v -12.360500 -18.401500 0.000000
v -11.493500 -10.875500 0.000000
v -9.014500 -10.903500 0.000000
v -5.756500 14.227500 0.000000
v -2.404500 13.883500 0.000000
v -0.577500 21.280500 0.000000
v 3.469500 20.544500 0.000000
v 3.824500 22.074500 0.000000
v 12.360500 19.740500 0.000000
v 9.250500 6.044500 0.000000
v 11.779500 5.384500 0.000000
v 8.544500 -7.856500 0.000000
v 2.068500 -7.307500 0.000000
v 1.178500 -12.530500 0.000000
v -4.942500 -11.956500 0.000000
v -6.050500 -22.074500 0.000000
v -10.173500 -20.907500 0.000000
v -9.969500 -18.643500 0.000000
v -12.360500 -18.401500 6.000000
v -11.493500 -10.875500 6.000000
v -9.014500 -10.903500 6.000000
v -5.756500 14.227500 6.000000
v -2.404500 13.883500 6.000000
v -0.577500 21.280500 6.000000
v 3.469500 20.544500 6.000000
v 3.824500 22.074500 6.000000
v 12.360500 19.740500 6.000000
v 9.250500 6.044500 6.000000
v 11.779500 5.384500 6.000000
v 8.544500 -7.856500 6.000000
v 2.068500 -7.307500 6.000000
v 1.178500 -12.530500 6.000000
v -4.942500 -11.956500 6.000000
v -6.050500 -22.074500 6.000000
v -10.173500 -20.907500 6.000000
v -9.969500 -18.643500 6.000000
vn 0.000000 0.000000 -1.000000
vn 0.000000 0.000000 -1.000000
vn 0.000000 0.000000 -1.000000
vn 0.000000 0.000000 -1.000000
vn 0.000000 0.000000 -1.000000
vn 0.000000 0.000000 -1.000000
vn 0.000000 0.000000 -1.000000
vn 0.000000 0.000000 -1.000000
vn 0.000000 -0.000000 -1.000000
vn 0.000000 0.000000 -1.000000
vn 0.000000 0.000000 -1.000000
vn 0.000000 0.000000 -1.000000
vn 0.000000 0.000000 -1.000000
vn 0.000000 0.000000 -1.000000
vn 0.000000 0.000000 -1.000000
vn 0.000000 0.000000 -1.000000
vn 0.000000 0.000000 1.000000
vn 0.000000 -0.000000 1.000000
vn 0.000000 0.000000 1.000000
vn 0.000000 0.000000 1.000000
vn 0.000000 0.000000 1.000000
vn 0.000000 0.000000 1.000000
vn -0.000000 0.000000 1.000000
vn 0.000000 0.000000 1.000000
vn 0.000000 0.000000 1.000000
vn 0.000000 0.000000 1.000000
vn 0.000000 0.000000 1.000000
vn 0.000000 0.000000 1.000000
vn 0.000000 0.000000 1.000000
vn 0.000000 0.000000 1.000000
vn -0.000000 0.000000 1.000000
vn 0.000000 0.000000 1.000000
vn -0.993430 0.114444 0.000000
vn -0.993430 0.114444 0.000000
vn 0.011294 0.999936 0.000000
vn 0.011294 0.999936 -0.000000
vn -0.991701 0.128565 0.000000
vn -0.991701 0.128565 0.000000
vn 0.102089 0.994775 0.000000
vn 0.102089 0.994775 -0.000000
vn -0.970826 0.239786 0.000000
vn -0.970826 0.239786 0.000000
vn 0.178928 0.983862 0.000000
vn 0.178928 0.983862 -0.000000
vn -0.974122 0.226022 0.000000
vn -0.974122 0.226022 0.000000
vn 0.263748 0.964592 0.000000
vn 0.263748 0.964592 -0.000000
vn 0.975175 -0.221436 0.000000
vn 0.975175 -0.221436 0.000000
vn 0.252515 0.967593 0.000000
vn 0.252515 0.967593 -0.000000
vn 0.971428 -0.237336 0.000000
vn 0.971428 -0.237336 0.000000
vn -0.084472 -0.996426 0.000000
vn -0.084472 -0.996426 0.000000
vn 0.985791 -0.167979 0.000000
vn 0.985791 -0.167979 0.000000
vn -0.093366 -0.995632 0.000000
vn -0.093366 -0.995632 0.000000
vn 0.994057 -0.108857 0.000000
vn 0.994057 -0.108857 0.000000
vn -0.272347 -0.962199 0.000000
vn -0.272347 -0.962199 0.000000
vn -0.995965 0.089742 0.000000
vn -0.995965 0.089742 0.000000
vn -0.100698 -0.994917 0.000000
vn -0.100698 -0.994917 0.000000
usemtl assumed_base
f 18//1 1//1 2//1
f 18//2 2//2 3//2
f 18//3 3//3 4//3
f 18//4 4//4 5//4
f 18//5 5//5 6//5
f 18//6 6//6 7//6
f 7//7 8//7 9//7
f 18//8 7//8 9//8
f 10//9 11//9 12//9
f 10//10 12//10 13//10
f 9//11 10//11 13//11
f 13//12 14//12 15//12
f 9//13 13//13 15//13
f 18//14 9//14 15//14
f 18//15 15//15 16//15
f 16//16 17//16 18//16
usemtl assumed_roof
f 36//17 20//17 19//17
f 36//18 21//18 20//18
f 36//19 22//19 21//19
f 36//20 23//20 22//20
f 36//21 24//21 23//21
f 36//22 25//22 24//22
f 25//23 27//23 26//23
f 36//24 27//24 25//24
f 28//25 30//25 29//25
f 28//26 31//26 30//26
f 27//27 31//27 28//27
f 31//28 33//28 32//28
f 27//29 33//29 31//29
f 36//30 33//30 27//30
f 36//31 34//31 33//31
f 34//32 36//32 35//32
usemtl assumed_wall
f 1//33 20//33 2//33
f 1//34 19//34 20//34
f 2//35 21//35 3//35
f 2//36 20//36 21//36
f 3//37 22//37 4//37
f 3//38 21//38 22//38
f 4//39 23//39 5//39
f 4//40 22//40 23//40
f 5//41 24//41 6//41
f 5//42 23//42 24//42
f 6//43 25//43 7//43
f 6//44 24//44 25//44
f 7//45 26//45 8//45
f 7//46 25//46 26//46
f 8//47 27//47 9//47
f 8//48 26//48 27//48
f 9//49 28//49 10//49
f 9//50 27//50 28//50
f 10//51 29//51 11//51
f 10//52 28//52 29//52
f 11//53 30//53 12//53
f 11//54 29//54 30//54
f 12//55 31//55 13//55
f 12//56 30//56 31//56
f 13//57 32//57 14//57
f 13//58 31//58 32//58
f 14//59 33//59 15//59
f 14//60 32//60 33//60
f 15//61 34//61 16//61
f 15//62 33//62 34//62
f 16//63 35//63 17//63
f 16//64 34//64 35//64
f 17//65 36//65 18//65
f 17//66 35//66 36//66
f 18//67 19//67 1//67
f 18//68 36//68 19//68
