# construction_7280_assumed_A_Ruinas
# source A_Ruinas
# h_campo 0.000000
# modeled_height 6.000000
# height_kind assumed
# local_origin_world_x 172001.034850
# local_origin_world_y 402500.144600
mtllib construction_artifacts.mtl

o construction_7280_assumed_A_Ruinas
v 2.632500 48.082000 0.000000
v 42.883500 89.787000 0.000000
v 69.717500 51.787000 0.000000
v 83.469500 25.921000 0.000000
v 69.799500 13.894000 0.000000
v 63.156500 20.472000 0.000000
v 52.464500 7.611000 0.000000
v 47.724500 4.058000 0.000000
v 46.919500 4.805000 0.000000
v 34.653500 -6.416000 0.000000
v 29.730500 -1.386000 0.000000
v -33.793500 -70.852000 0.000000
v -30.648500 -74.291000 0.000000
v -41.332500 -85.872000 0.000000
v -44.939500 -82.527000 0.000000
v -49.456500 -87.342000 0.000000
v -51.119500 -89.787000 0.000000
v -83.469500 -57.670000 0.000000
v 11.098500 40.666000 0.000000
v 2.632500 48.082000 6.000000
v 42.883500 89.787000 6.000000
v 69.717500 51.787000 6.000000
v 83.469500 25.921000 6.000000
v 69.799500 13.894000 6.000000
v 63.156500 20.472000 6.000000
v 52.464500 7.611000 6.000000
v 47.724500 4.058000 6.000000
v 46.919500 4.805000 6.000000
v 34.653500 -6.416000 6.000000
v 29.730500 -1.386000 6.000000
v -33.793500 -70.852000 6.000000
v -30.648500 -74.291000 6.000000
v -41.332500 -85.872000 6.000000
v -44.939500 -82.527000 6.000000
v -49.456500 -87.342000 6.000000
v -51.119500 -89.787000 6.000000
v -83.469500 -57.670000 6.000000
v 11.098500 40.666000 6.000000
vn 0.000000 0.000000 -1.000000
vn 0.000000 0.000000 -1.000000
vn 0.000000 0.000000 -1.000000
vn 0.000000 0.000000 -1.000000
vn 0.000000 0.000000 -1.000000
vn 0.000000 0.000000 -1.000000
vn 0.000000 0.000000 -1.000000
vn 0.000000 0.000000 -1.000000
vn 0.000000 0.000000 -1.000000
vn 0.000000 0.000000 -1.000000
vn 0.000000 -0.000000 -1.000000
vn 0.000000 -0.000000 -1.000000
vn 0.000000 0.000000 -1.000000
vn 0.000000 0.000000 -1.000000
vn 0.000000 0.000000 -1.000000
vn 0.000000 0.000000 -1.000000
vn 0.000000 0.000000 -1.000000
vn 0.000000 -0.000000 1.000000
vn 0.000000 0.000000 1.000000
vn -0.000000 0.000000 1.000000
vn 0.000000 0.000000 1.000000
vn 0.000000 0.000000 1.000000
vn 0.000000 0.000000 1.000000
vn 0.000000 0.000000 1.000000
vn 0.000000 0.000000 1.000000
vn 0.000000 0.000000 1.000000
vn 0.000000 0.000000 1.000000
vn 0.000000 0.000000 1.000000
vn 0.000000 0.000000 1.000000
vn 0.000000 0.000000 1.000000
vn 0.000000 0.000000 1.000000
vn 0.000000 0.000000 1.000000
vn 0.000000 0.000000 1.000000
vn 0.000000 -0.000000 1.000000
vn -0.719538 0.694453 0.000000
vn -0.719538 0.694453 0.000000
vn 0.816862 0.576833 0.000000
vn 0.816862 0.576833 -0.000000
vn 0.882965 0.469440 0.000000
vn 0.882965 0.469440 -0.000000
vn 0.660547 -0.750784 0.000000
vn 0.660547 -0.750784 0.000000
vn -0.703622 -0.710575 0.000000
vn -0.703622 -0.710575 0.000000
vn 0.768971 -0.639284 0.000000
vn 0.768971 -0.639284 0.000000
vn 0.599784 -0.800162 0.000000
vn 0.599784 -0.800162 0.000000
vn -0.680207 -0.733020 0.000000
vn -0.680207 -0.733020 0.000000
vn 0.674978 -0.737838 0.000000
vn 0.674978 -0.737838 0.000000
vn -0.714667 -0.699465 0.000000
vn -0.714667 -0.699465 0.000000
vn 0.737964 -0.674840 0.000000
vn 0.737964 -0.674840 0.000000
vn 0.737946 0.674859 0.000000
vn 0.737946 0.674859 -0.000000
vn 0.734998 -0.678069 0.000000
vn 0.734998 -0.678069 0.000000
vn -0.679975 -0.733235 0.000000
vn -0.679975 -0.733235 0.000000
vn 0.729315 -0.684178 0.000000
vn 0.729315 -0.684178 0.000000
vn 0.826864 -0.562403 0.000000
vn 0.826864 -0.562403 0.000000
vn -0.704547 -0.709658 0.000000
vn -0.704547 -0.709658 0.000000
vn -0.720781 0.693163 0.000000
vn -0.720781 0.693163 0.000000
vn -0.658920 -0.752213 0.000000
vn -0.658920 -0.752213 0.000000
usemtl assumed_base
f 19//1 1//1 2//1
f 19//2 2//2 3//2
f 19//3 3//3 4//3
f 4//4 5//4 6//4
f 19//5 4//5 6//5
f 19//6 6//6 7//6
f 19//7 7//7 8//7
f 19//8 8//8 9//8
f 19//9 9//9 10//9
f 19//10 10//10 11//10
f 19//11 11//11 12//11
f 12//12 13//12 14//12
f 19//13 12//13 14//13
f 19//14 14//14 15//14
f 19//15 15//15 16//15
f 19//16 16//16 17//16
f 17//17 18//17 19//17
usemtl assumed_roof
f 38//18 21//18 20//18
f 38//19 22//19 21//19
f 38//20 23//20 22//20
f 23//21 25//21 24//21
f 38//22 25//22 23//22
f 38//23 26//23 25//23
f 38//24 27//24 26//24
f 38//25 28//25 27//25
f 38//26 29//26 28//26
f 38//27 30//27 29//27
f 38//28 31//28 30//28
f 31//29 33//29 32//29
f 38//30 33//30 31//30
f 38//31 34//31 33//31
f 38//32 35//32 34//32
f 38//33 36//33 35//33
f 36//34 38//34 37//34
usemtl assumed_wall
f 1//35 21//35 2//35
f 1//36 20//36 21//36
f 2//37 22//37 3//37
f 2//38 21//38 22//38
f 3//39 23//39 4//39
f 3//40 22//40 23//40
f 4//41 24//41 5//41
f 4//42 23//42 24//42
f 5//43 25//43 6//43
f 5//44 24//44 25//44
f 6//45 26//45 7//45
f 6//46 25//46 26//46
f 7//47 27//47 8//47
f 7//48 26//48 27//48
f 8//49 28//49 9//49
f 8//50 27//50 28//50
f 9//51 29//51 10//51
f 9//52 28//52 29//52
f 10//53 30//53 11//53
f 10//54 29//54 30//54
f 11//55 31//55 12//55
f 11//56 30//56 31//56
f 12//57 32//57 13//57
f 12//58 31//58 32//58
f 13//59 33//59 14//59
f 13//60 32//60 33//60
f 14//61 34//61 15//61
f 14//62 33//62 34//62
f 15//63 35//63 16//63
f 15//64 34//64 35//64
f 16//65 36//65 17//65
f 16//66 35//66 36//66
f 17//67 37//67 18//67
f 17//68 36//68 37//68
f 18//69 38//69 19//69
f 18//70 37//70 38//70
f 19//71 20//71 1//71
f 19//72 38//72 20//72
