# construction_6599_assumed_A_Casa
# source A_Casa
# h_campo 0.000000
# modeled_height 6.000000
# height_kind assumed
# local_origin_world_x 172001.034850
# local_origin_world_y 402500.144600
mtllib construction_artifacts.mtl

o construction_6599_assumed_A_Casa
v -5.076000 -6.173000 0.000000
v -1.722000 5.802000 0.000000
v 1.058000 5.046000 0.000000
v 1.745000 7.770000 0.000000
v 5.076000 6.960000 0.000000
v 4.300000 3.798000 0.000000
v 1.203000 -7.770000 0.000000
v -5.076000 -6.173000 6.000000
v -1.722000 5.802000 6.000000
v 1.058000 5.046000 6.000000
v 1.745000 7.770000 6.000000
v 5.076000 6.960000 6.000000
v 4.300000 3.798000 6.000000
v 1.203000 -7.770000 6.000000
vn 0.000000 0.000000 -1.000000
vn 0.000000 0.000000 -1.000000
vn 0.000000 0.000000 -1.000000
vn 0.000000 0.000000 -1.000000
vn 0.000000 0.000000 -1.000000
vn 0.000000 0.000000 1.000000
vn 0.000000 0.000000 1.000000
vn 0.000000 -0.000000 1.000000
vn 0.000000 0.000000 1.000000
vn 0.000000 0.000000 1.000000
vn -0.962943 0.269704 0.000000
vn -0.962943 0.269704 0.000000
vn 0.262412 0.964956 0.000000
vn 0.262412 0.964956 -0.000000
vn -0.969638 0.244545 0.000000
vn -0.969638 0.244545 0.000000
vn 0.236285 0.971684 0.000000
vn 0.236285 0.971684 -0.000000
vn 0.971181 -0.238342 0.000000
vn 0.971181 -0.238342 0.000000
vn 0.965981 -0.258614 0.000000
vn 0.965981 -0.258614 0.000000
vn -0.246492 -0.969145 0.000000
vn -0.246492 -0.969145 0.000000
usemtl assumed_base
f 7//1 1//1 2//1
f 7//2 2//2 3//2
f 7//3 3//3 4//3
f 7//4 4//4 5//4
f 5//5 6//5 7//5
usemtl assumed_roof
f 14//6 9//6 8//6
f 14//7 10//7 9//7
f 14//8 11//8 10//8
f 14//9 12//9 11//9
f 12//10 14//10 13//10
usemtl assumed_wall
f 1//11 9//11 2//11
f 1//12 8//12 9//12
f 2//13 10//13 3//13
f 2//14 9//14 10//14
f 3//15 11//15 4//15
f 3//16 10//16 11//16
f 4//17 12//17 5//17
f 4//18 11//18 12//18
f 5//19 13//19 6//19
f 5//20 12//20 13//20
f 6//21 14//21 7//21
f 6//22 13//22 14//22
f 7//23 8//23 1//23
f 7//24 14//24 8//24
