# construction_2164_assumed_A_GNR
# source A_GNR
# h_campo 0.000000
# modeled_height 6.000000
# height_kind assumed
# local_origin_world_x 172001.034850
# local_origin_world_y 402500.144600
mtllib construction_artifacts.mtl

o construction_2164_assumed_A_GNR
v -8.807000 -17.178500 0.000000
v -8.757000 -5.230500 0.000000
v -7.569000 -5.235500 0.000000
v -7.291000 15.476500 0.000000
v 1.261000 15.171500 0.000000
v 1.286000 17.474500 0.000000
v 8.630000 17.510500 0.000000
v 8.807000 -17.510500 0.000000
v -8.807000 -17.178500 6.000000
v -8.757000 -5.230500 6.000000
v -7.569000 -5.235500 6.000000
v -7.291000 15.476500 6.000000
v 1.261000 15.171500 6.000000
v 1.286000 17.474500 6.000000
v 8.630000 17.510500 6.000000
v 8.807000 -17.510500 6.000000
vn 0.000000 0.000000 -1.000000
vn 0.000000 0.000000 -1.000000
vn 0.000000 0.000000 -1.000000
vn 0.000000 0.000000 -1.000000
vn 0.000000 0.000000 -1.000000
vn 0.000000 0.000000 -1.000000
vn 0.000000 0.000000 1.000000
vn 0.000000 0.000000 1.000000
vn 0.000000 0.000000 1.000000
vn 0.000000 0.000000 1.000000
vn 0.000000 0.000000 1.000000
vn -0.000000 0.000000 1.000000
vn -0.999991 0.004185 0.000000
vn -0.999991 0.004185 0.000000
vn 0.004209 0.999991 0.000000
vn 0.004209 0.999991 -0.000000
vn -0.999910 0.013421 0.000000
vn -0.999910 0.013421 0.000000
vn 0.035642 0.999365 0.000000
vn 0.035642 0.999365 -0.000000
vn -0.999941 0.010855 0.000000
vn -0.999941 0.010855 0.000000
vn -0.004902 0.999988 0.000000
vn -0.004902 0.999988 0.000000
vn 0.999987 0.005054 0.000000
vn 0.999987 0.005054 -0.000000
vn -0.018845 -0.999822 0.000000
vn -0.018845 -0.999822 0.000000
usemtl assumed_base
f 8//1 1//1 2//1
f 8//2 2//2 3//2
f 8//3 3//3 4//3
f 8//4 4//4 5//4
f 8//5 5//5 6//5
f 6//6 7//6 8//6
usemtl assumed_roof
f 16//7 10//7 9//7
f 16//8 11//8 10//8
f 16//9 12//9 11//9
f 16//10 13//10 12//10
f 16//11 14//11 13//11
f 14//12 16//12 15//12
usemtl assumed_wall
f 1//13 10//13 2//13
f 1//14 9//14 10//14
f 2//15 11//15 3//15
f 2//16 10//16 11//16
f 3//17 12//17 4//17
f 3//18 11//18 12//18
f 4//19 13//19 5//19
f 4//20 12//20 13//20
f 5//21 14//21 6//21
f 5//22 13//22 14//22
f 6//23 15//23 7//23
f 6//24 14//24 15//24
f 7//25 16//25 8//25
f 7//26 15//26 16//26
f 8//27 9//27 1//27
f 8//28 16//28 9//28
