# construction_0465_assumed_A_Casa
# source A_Casa
# h_campo 0.000000
# modeled_height 6.000000
# height_kind assumed
# local_origin_world_x 172001.034850
# local_origin_world_y 402500.144600
mtllib construction_artifacts.mtl

o construction_0465_assumed_A_Casa
v -7.431000 1.092500 0.000000
v 1.734000 7.333500 0.000000
v 7.431000 -1.069500 0.000000
v -1.689000 -7.333500 0.000000
v -7.431000 1.092500 6.000000
v 1.734000 7.333500 6.000000
v 7.431000 -1.069500 6.000000
v -1.689000 -7.333500 6.000000
vn 0.000000 0.000000 -1.000000
vn 0.000000 -0.000000 -1.000000
vn 0.000000 -0.000000 1.000000
vn 0.000000 0.000000 1.000000
vn -0.562853 0.826557 0.000000
vn -0.562853 0.826557 0.000000
vn 0.827706 0.561162 0.000000
vn 0.827706 0.561162 -0.000000
vn 0.566161 -0.824295 0.000000
vn 0.566161 -0.824295 0.000000
vn -0.826364 -0.563136 0.000000
vn -0.826364 -0.563136 0.000000
usemtl assumed_base
f 4//1 1//1 2//1
f 2//2 3//2 4//2
usemtl assumed_roof
f 8//3 6//3 5//3
f 6//4 8//4 7//4
usemtl assumed_wall
f 1//5 6//5 2//5
f 1//6 5//6 6//6
f 2//7 7//7 3//7
f 2//8 6//8 7//8
f 3//9 8//9 4//9
f 3//10 7//10 8//10
f 4//11 5//11 1//11
f 4//12 8//12 5//12
