# construction_1776_assumed_A_Casa
# source A_Casa
# h_campo 0.000000
# modeled_height 6.000000
# height_kind assumed
# local_origin_world_x 172001.034850
# local_origin_world_y 402500.144600
mtllib construction_artifacts.mtl

o construction_1776_assumed_A_Casa
v 2.608000 -16.625000 0.000000
v 1.931000 -16.122000 0.000000
v -1.197000 -18.544000 0.000000
v -6.913000 -9.086000 0.000000
v -8.375000 -5.702000 0.000000
v -1.223000 -1.292000 0.000000
v -2.021000 0.106000 0.000000
v -0.001000 1.428000 0.000000
v -5.106000 9.674000 0.000000
v -7.884000 8.281000 0.000000
v -3.863000 1.212000 0.000000
v -14.047000 -4.000000 0.000000
v -16.321000 0.073000 0.000000
v -20.177000 -1.796000 0.000000
v -21.805000 0.931000 0.000000
v -29.416000 -2.671000 0.000000
v -27.584000 -5.885000 0.000000
v -31.542000 -7.383000 0.000000
v -32.000000 -6.407000 0.000000
v -36.151000 -10.620000 0.000000
v -35.055000 -10.650000 0.000000
v -33.432000 -11.656000 0.000000
v -35.663000 -15.222000 0.000000
v -35.273000 -15.761000 0.000000
v -30.662000 -13.047000 0.000000
v -21.946000 -26.745000 0.000000
v -46.026000 -41.938000 0.000000
v -52.214000 -32.516000 0.000000
v -38.466000 -23.918000 0.000000
v -43.743000 -14.660000 0.000000
v -40.024000 -12.337000 0.000000
v -40.957000 -10.806000 0.000000
v -47.287000 -13.930000 0.000000
v -50.205000 -8.982000 0.000000
v -11.821000 10.460000 0.000000
v 40.604000 37.152000 0.000000
v 49.221000 41.938000 0.000000
v 51.828000 39.232000 0.000000
v 46.802000 34.509000 0.000000
v 45.703000 35.315000 0.000000
v 42.924000 34.209000 0.000000
v 44.010000 32.374000 0.000000
v 38.389000 29.066000 0.000000
v 41.017000 24.843000 0.000000
v 44.365000 27.316000 0.000000
v 52.214000 15.470000 0.000000
v 44.558000 10.553000 0.000000
v 43.897000 11.377000 0.000000
v 41.188000 9.479000 0.000000
v 34.709000 20.048000 0.000000
v 33.329000 19.082000 0.000000
v 29.804000 24.214000 0.000000
v 5.463000 11.279000 0.000000
v 3.564000 13.954000 0.000000
v 1.038000 12.899000 0.000000
v 3.463000 8.995000 0.000000
v 0.281000 7.618000 0.000000
v 5.672000 -0.763000 0.000000
v 18.277000 7.224000 0.000000
v 24.616000 -2.080000 0.000000
v 2.608000 -16.625000 6.000000
v 1.931000 -16.122000 6.000000
v -1.197000 -18.544000 6.000000
v -6.913000 -9.086000 6.000000
v -8.375000 -5.702000 6.000000
v -1.223000 -1.292000 6.000000
v -2.021000 0.106000 6.000000
v -0.001000 1.428000 6.000000
v -5.106000 9.674000 6.000000
v -7.884000 8.281000 6.000000
v -3.863000 1.212000 6.000000
v -14.047000 -4.000000 6.000000
v -16.321000 0.073000 6.000000
v -20.177000 -1.796000 6.000000
v -21.805000 0.931000 6.000000
v -29.416000 -2.671000 6.000000
v -27.584000 -5.885000 6.000000
v -31.542000 -7.383000 6.000000
v -32.000000 -6.407000 6.000000
v -36.151000 -10.620000 6.000000
v -35.055000 -10.650000 6.000000
v -33.432000 -11.656000 6.000000
v -35.663000 -15.222000 6.000000
v -35.273000 -15.761000 6.000000
v -30.662000 -13.047000 6.000000
v -21.946000 -26.745000 6.000000
v -46.026000 -41.938000 6.000000
v -52.214000 -32.516000 6.000000
v -38.466000 -23.918000 6.000000
v -43.743000 -14.660000 6.000000
v -40.024000 -12.337000 6.000000
v -40.957000 -10.806000 6.000000
v -47.287000 -13.930000 6.000000
v -50.205000 -8.982000 6.000000
v -11.821000 10.460000 6.000000
v 40.604000 37.152000 6.000000
v 49.221000 41.938000 6.000000
v 51.828000 39.232000 6.000000
v 46.802000 34.509000 6.000000
v 45.703000 35.315000 6.000000
v 42.924000 34.209000 6.000000
v 44.010000 32.374000 6.000000
v 38.389000 29.066000 6.000000
v 41.017000 24.843000 6.000000
v 44.365000 27.316000 6.000000
v 52.214000 15.470000 6.000000
v 44.558000 10.553000 6.000000
v 43.897000 11.377000 6.000000
v 41.188000 9.479000 6.000000
v 34.709000 20.048000 6.000000
v 33.329000 19.082000 6.000000
v 29.804000 24.214000 6.000000
v 5.463000 11.279000 6.000000
v 3.564000 13.954000 6.000000
v 1.038000 12.899000 6.000000
v 3.463000 8.995000 6.000000
v 0.281000 7.618000 6.000000
v 5.672000 -0.763000 6.000000
v 18.277000 7.224000 6.000000
v 24.616000 -2.080000 6.000000
vn 0.000000 0.000000 -1.000000
vn -0.000000 0.000000 -1.000000
vn 0.000000 0.000000 -1.000000
vn 0.000000 0.000000 -1.000000
vn -0.000000 0.000000 -1.000000
vn 0.000000 0.000000 -1.000000
vn 0.000000 -0.000000 -1.000000
vn 0.000000 0.000000 -1.000000
vn 0.000000 0.000000 -1.000000
vn 0.000000 0.000000 -1.000000
vn 0.000000 0.000000 -1.000000
vn 0.000000 -0.000000 -1.000000
vn 0.000000 0.000000 -1.000000
vn 0.000000 0.000000 -1.000000
vn 0.000000 0.000000 -1.000000
vn 0.000000 0.000000 -1.000000
vn 0.000000 0.000000 -1.000000
vn 0.000000 0.000000 -1.000000
vn -0.000000 0.000000 -1.000000
vn 0.000000 -0.000000 -1.000000
vn 0.000000 -0.000000 -1.000000
vn 0.000000 -0.000000 -1.000000
vn 0.000000 0.000000 -1.000000
vn 0.000000 0.000000 -1.000000
vn 0.000000 0.000000 -1.000000
vn 0.000000 0.000000 -1.000000
vn 0.000000 0.000000 -1.000000
vn 0.000000 0.000000 -1.000000
vn 0.000000 0.000000 -1.000000
vn 0.000000 0.000000 -1.000000
vn -0.000000 0.000000 -1.000000
vn 0.000000 0.000000 -1.000000
vn 0.000000 0.000000 -1.000000
vn 0.000000 -0.000000 -1.000000
vn 0.000000 0.000000 -1.000000
vn 0.000000 0.000000 -1.000000
vn 0.000000 -0.000000 -1.000000
vn 0.000000 0.000000 -1.000000
vn 0.000000 0.000000 -1.000000
vn 0.000000 0.000000 -1.000000
vn 0.000000 0.000000 -1.000000
vn 0.000000 0.000000 -1.000000
vn 0.000000 0.000000 -1.000000
vn 0.000000 -0.000000 -1.000000
vn 0.000000 0.000000 -1.000000
vn 0.000000 0.000000 -1.000000
vn 0.000000 0.000000 -1.000000
vn 0.000000 0.000000 -1.000000
vn 0.000000 0.000000 -1.000000
vn 0.000000 0.000000 -1.000000
vn 0.000000 0.000000 -1.000000
vn 0.000000 0.000000 -1.000000
vn 0.000000 0.000000 -1.000000
vn 0.000000 0.000000 -1.000000
vn 0.000000 0.000000 -1.000000
vn 0.000000 0.000000 -1.000000
vn 0.000000 0.000000 -1.000000
vn 0.000000 0.000000 -1.000000
vn 0.000000 0.000000 1.000000
vn 0.000000 0.000000 1.000000
vn 0.000000 0.000000 1.000000
vn 0.000000 0.000000 1.000000
vn 0.000000 0.000000 1.000000
vn 0.000000 -0.000000 1.000000
vn 0.000000 0.000000 1.000000
vn 0.000000 0.000000 1.000000
vn 0.000000 0.000000 1.000000
vn 0.000000 0.000000 1.000000
vn 0.000000 0.000000 1.000000
vn 0.000000 0.000000 1.000000
vn 0.000000 0.000000 1.000000
vn 0.000000 0.000000 1.000000
vn 0.000000 0.000000 1.000000
vn 0.000000 0.000000 1.000000
vn -0.000000 0.000000 1.000000
vn 0.000000 0.000000 1.000000
vn 0.000000 0.000000 1.000000
vn 0.000000 0.000000 1.000000
vn 0.000000 0.000000 1.000000
vn 0.000000 0.000000 1.000000
vn 0.000000 0.000000 1.000000
vn 0.000000 0.000000 1.000000
vn 0.000000 0.000000 1.000000
vn 0.000000 0.000000 1.000000
vn 0.000000 0.000000 1.000000
vn 0.000000 0.000000 1.000000
vn 0.000000 0.000000 1.000000
vn 0.000000 0.000000 1.000000
vn 0.000000 0.000000 1.000000
vn 0.000000 -0.000000 1.000000
vn 0.000000 0.000000 1.000000
vn 0.000000 0.000000 1.000000
vn 0.000000 0.000000 1.000000
vn 0.000000 0.000000 1.000000
vn 0.000000 0.000000 1.000000
vn 0.000000 0.000000 1.000000
vn -0.000000 0.000000 1.000000
vn 0.000000 0.000000 1.000000
vn 0.000000 0.000000 1.000000
vn 0.000000 0.000000 1.000000
vn 0.000000 0.000000 1.000000
vn 0.000000 0.000000 1.000000
vn 0.000000 0.000000 1.000000
vn 0.000000 0.000000 1.000000
vn 0.000000 0.000000 1.000000
vn 0.000000 0.000000 1.000000
vn 0.000000 0.000000 1.000000
vn 0.000000 0.000000 1.000000
vn 0.000000 0.000000 1.000000
vn -0.000000 0.000000 1.000000
vn 0.000000 0.000000 1.000000
vn 0.000000 -0.000000 1.000000
vn -0.000000 0.000000 1.000000
vn 0.000000 0.000000 1.000000
vn 0.000000 0.000000 1.000000
vn -0.000000 0.000000 1.000000
vn -0.596389 -0.802695 0.000000
vn -0.596389 -0.802695 0.000000
vn 0.612224 -0.790684 0.000000
vn 0.612224 -0.790684 0.000000
vn -0.855844 -0.517234 0.000000
vn -0.855844 -0.517234 0.000000
vn -0.917991 -0.396602 0.000000
vn -0.917991 -0.396602 0.000000
vn -0.524854 0.851192 0.000000
vn -0.524854 0.851192 0.000000
vn -0.868472 -0.495737 0.000000
vn -0.868472 -0.495737 0.000000
vn -0.547606 0.836736 0.000000
vn -0.547606 0.836736 0.000000
vn -0.850250 -0.526379 0.000000
vn -0.850250 -0.526379 0.000000
vn 0.448243 -0.893912 0.000000
vn 0.448243 -0.893912 0.000000
vn 0.869218 0.494430 0.000000
vn 0.869218 0.494430 -0.000000
vn 0.455585 -0.890192 0.000000
vn 0.455585 -0.890192 0.000000
vn -0.873134 -0.487480 0.000000
vn -0.873134 -0.487480 0.000000
vn 0.436165 -0.899867 0.000000
vn 0.436165 -0.899867 0.000000
vn -0.858630 -0.512596 0.000000
vn -0.858630 -0.512596 0.000000
vn 0.427775 -0.903885 0.000000
vn 0.427775 -0.903885 0.000000
vn 0.868775 0.495207 0.000000
vn 0.868775 0.495207 -0.000000
vn 0.353970 -0.935257 0.000000
vn 0.353970 -0.935257 0.000000
vn -0.905281 -0.424814 0.000000
vn -0.905281 -0.424814 0.000000
vn 0.712329 -0.701846 0.000000
vn 0.712329 -0.701846 0.000000
vn 0.027362 0.999626 0.000000
vn 0.027362 0.999626 -0.000000
vn 0.526841 0.849964 0.000000
vn 0.526841 0.849964 -0.000000
vn 0.847758 -0.530384 0.000000
vn 0.847758 -0.530384 0.000000
vn 0.810164 0.586204 0.000000
vn 0.810164 0.586204 -0.000000
vn -0.507249 0.861800 0.000000
vn -0.507249 0.861800 0.000000
vn 0.843687 0.536836 0.000000
vn 0.843687 0.536836 -0.000000
vn 0.533606 -0.845733 0.000000
vn 0.533606 -0.845733 0.000000
vn -0.835852 -0.548955 0.000000
vn -0.835852 -0.548955 0.000000
vn -0.530243 0.847846 0.000000
vn -0.530243 0.847846 0.000000
vn -0.868780 -0.495199 0.000000
vn -0.868780 -0.495199 0.000000
vn -0.529773 0.848139 0.000000
vn -0.529773 0.848139 0.000000
vn -0.853929 -0.520389 0.000000
vn -0.853929 -0.520389 0.000000
vn 0.442561 -0.896738 0.000000
vn 0.442561 -0.896738 0.000000
vn -0.861370 -0.507978 0.000000
vn -0.861370 -0.507978 0.000000
vn -0.451856 0.892091 0.000000
vn -0.451856 0.892091 0.000000
vn -0.453722 0.891143 0.000000
vn -0.453722 0.891143 0.000000
vn -0.485548 0.874210 0.000000
vn -0.485548 0.874210 0.000000
vn 0.720158 0.693810 0.000000
vn 0.720158 0.693810 -0.000000
vn 0.684799 -0.728732 0.000000
vn 0.684799 -0.728732 0.000000
vn -0.591395 -0.806382 0.000000
vn -0.591395 -0.806382 0.000000
vn 0.369776 -0.929121 0.000000
vn 0.369776 -0.929121 0.000000
vn 0.860581 0.509314 0.000000
vn 0.860581 0.509314 -0.000000
vn 0.507194 -0.861832 0.000000
vn 0.507194 -0.861832 0.000000
vn 0.849025 0.528353 0.000000
vn 0.849025 0.528353 -0.000000
vn -0.594141 0.804361 0.000000
vn -0.594141 0.804361 0.000000
vn 0.833617 0.552343 0.000000
vn 0.833617 0.552343 -0.000000
vn 0.540391 -0.841414 0.000000
vn 0.540391 -0.841414 0.000000
vn -0.780037 -0.625733 0.000000
vn -0.780037 -0.625733 0.000000
vn 0.573807 -0.818990 0.000000
vn 0.573807 -0.818990 0.000000
vn -0.852557 -0.522634 0.000000
vn -0.852557 -0.522634 0.000000
vn 0.573462 -0.819232 0.000000
vn 0.573462 -0.819232 0.000000
vn -0.824286 -0.566174 0.000000
vn -0.824286 -0.566174 0.000000
vn 0.469264 -0.883058 0.000000
vn 0.469264 -0.883058 0.000000
vn -0.815419 -0.578871 0.000000
vn -0.815419 -0.578871 0.000000
vn 0.385393 -0.922752 0.000000
vn 0.385393 -0.922752 0.000000
vn 0.849462 0.527650 0.000000
vn 0.849462 0.527650 -0.000000
vn 0.397154 -0.917752 0.000000
vn 0.397154 -0.917752 0.000000
vn 0.841032 0.540986 0.000000
vn 0.841032 0.540986 -0.000000
vn -0.535235 0.844703 0.000000
vn -0.535235 0.844703 0.000000
vn 0.826419 0.563056 0.000000
vn 0.826419 0.563056 -0.000000
vn 0.551363 -0.834266 0.000000
vn 0.551363 -0.834266 0.000000
usemtl assumed_base
f 60//1 1//1 2//1
f 2//2 3//2 4//2
f 60//3 2//3 4//3
f 60//4 4//4 5//4
f 60//5 5//5 6//5
f 6//6 7//6 8//6
f 10//7 11//7 12//7
f 10//8 12//8 13//8
f 10//9 13//9 14//9
f 10//10 14//10 15//10
f 10//11 15//11 16//11
f 16//12 17//12 18//12
f 16//13 18//13 19//13
f 16//14 19//14 20//14
f 20//15 21//15 22//15
f 20//16 22//16 23//16
f 24//17 25//17 26//17
f 26//18 27//18 28//18
f 26//19 28//19 29//19
f 24//20 26//20 29//20
f 23//21 24//21 29//21
f 20//22 23//22 29//22
f 20//23 29//23 30//23
f 20//24 30//24 31//24
f 16//25 20//25 31//25
f 16//26 31//26 32//26
f 16//27 32//27 33//27
f 16//28 33//28 34//28
f 10//29 16//29 34//29
f 9//30 10//30 34//30
f 9//31 34//31 35//31
f 9//32 35//32 36//32
f 9//33 36//33 37//33
f 37//34 38//34 39//34
f 37//35 39//35 40//35
f 37//36 40//36 41//36
f 41//37 42//37 43//37
f 37//38 41//38 43//38
f 44//39 45//39 46//39
f 44//40 46//40 47//40
f 43//41 44//41 47//41
f 43//42 47//42 48//42
f 43//43 48//43 49//43
f 43//44 49//44 50//44
f 43//45 50//45 51//45
f 43//46 51//46 52//46
f 37//47 43//47 52//47
f 37//48 52//48 53//48
f 37//49 53//49 54//49
f 37//50 54//50 55//50
f 9//51 37//51 55//51
f 9//52 55//52 56//52
f 9//53 56//53 57//53
f 8//54 9//54 57//54
f 8//55 57//55 58//55
f 6//56 8//56 58//56
f 60//57 6//57 58//57
f 58//58 59//58 60//58
usemtl assumed_roof
f 120//59 62//59 61//59
f 62//60 64//60 63//60
f 120//61 64//61 62//61
f 120//62 65//62 64//62
f 120//63 66//63 65//63
f 66//64 68//64 67//64
f 70//65 72//65 71//65
f 70//66 73//66 72//66
f 70//67 74//67 73//67
f 70//68 75//68 74//68
f 70//69 76//69 75//69
f 76//70 78//70 77//70
f 76//71 79//71 78//71
f 76//72 80//72 79//72
f 80//73 82//73 81//73
f 80//74 83//74 82//74
f 84//75 86//75 85//75
f 86//76 88//76 87//76
f 86//77 89//77 88//77
f 84//78 89//78 86//78
f 83//79 89//79 84//79
f 80//80 89//80 83//80
f 80//81 90//81 89//81
f 80//82 91//82 90//82
f 76//83 91//83 80//83
f 76//84 92//84 91//84
f 76//85 93//85 92//85
f 76//86 94//86 93//86
f 70//87 94//87 76//87
f 69//88 94//88 70//88
f 69//89 95//89 94//89
f 69//90 96//90 95//90
f 69//91 97//91 96//91
f 97//92 99//92 98//92
f 97//93 100//93 99//93
f 97//94 101//94 100//94
f 101//95 103//95 102//95
f 97//96 103//96 101//96
f 104//97 106//97 105//97
f 104//98 107//98 106//98
f 103//99 107//99 104//99
f 103//100 108//100 107//100
f 103//101 109//101 108//101
f 103//102 110//102 109//102
f 103//103 111//103 110//103
f 103//104 112//104 111//104
f 97//105 112//105 103//105
f 97//106 113//106 112//106
f 97//107 114//107 113//107
f 97//108 115//108 114//108
f 69//109 115//109 97//109
f 69//110 116//110 115//110
f 69//111 117//111 116//111
f 68//112 117//112 69//112
f 68//113 118//113 117//113
f 66//114 118//114 68//114
f 120//115 118//115 66//115
f 118//116 120//116 119//116
usemtl assumed_wall
f 1//117 62//117 2//117
f 1//118 61//118 62//118
f 2//119 63//119 3//119
f 2//120 62//120 63//120
f 3//121 64//121 4//121
f 3//122 63//122 64//122
f 4//123 65//123 5//123
f 4//124 64//124 65//124
f 5//125 66//125 6//125
f 5//126 65//126 66//126
f 6//127 67//127 7//127
f 6//128 66//128 67//128
f 7//129 68//129 8//129
f 7//130 67//130 68//130
f 8//131 69//131 9//131
f 8//132 68//132 69//132
f 9//133 70//133 10//133
f 9//134 69//134 70//134
f 10//135 71//135 11//135
f 10//136 70//136 71//136
f 11//137 72//137 12//137
f 11//138 71//138 72//138
f 12//139 73//139 13//139
f 12//140 72//140 73//140
f 13//141 74//141 14//141
f 13//142 73//142 74//142
f 14//143 75//143 15//143
f 14//144 74//144 75//144
f 15//145 76//145 16//145
f 15//146 75//146 76//146
f 16//147 77//147 17//147
f 16//148 76//148 77//148
f 17//149 78//149 18//149
f 17//150 77//150 78//150
f 18//151 79//151 19//151
f 18//152 78//152 79//152
f 19//153 80//153 20//153
f 19//154 79//154 80//154
f 20//155 81//155 21//155
f 20//156 80//156 81//156
f 21//157 82//157 22//157
f 21//158 81//158 82//158
f 22//159 83//159 23//159
f 22//160 82//160 83//160
f 23//161 84//161 24//161
f 23//162 83//162 84//162
f 24//163 85//163 25//163
f 24//164 84//164 85//164
f 25//165 86//165 26//165
f 25//166 85//166 86//166
f 26//167 87//167 27//167
f 26//168 86//168 87//168
f 27//169 88//169 28//169
f 27//170 87//170 88//170
f 28//171 89//171 29//171
f 28//172 88//172 89//172
f 29//173 90//173 30//173
f 29//174 89//174 90//174
f 30//175 91//175 31//175
f 30//176 90//176 91//176
f 31//177 92//177 32//177
f 31//178 91//178 92//178
f 32//179 93//179 33//179
f 32//180 92//180 93//180
f 33//181 94//181 34//181
f 33//182 93//182 94//182
f 34//183 95//183 35//183
f 34//184 94//184 95//184
f 35//185 96//185 36//185
f 35//186 95//186 96//186
f 36//187 97//187 37//187
f 36//188 96//188 97//188
f 37//189 98//189 38//189
f 37//190 97//190 98//190
f 38//191 99//191 39//191
f 38//192 98//192 99//192
f 39//193 100//193 40//193
f 39//194 99//194 100//194
f 40//195 101//195 41//195
f 40//196 100//196 101//196
f 41//197 102//197 42//197
f 41//198 101//198 102//198
f 42//199 103//199 43//199
f 42//200 102//200 103//200
f 43//201 104//201 44//201
f 43//202 103//202 104//202
f 44//203 105//203 45//203
f 44//204 104//204 105//204
f 45//205 106//205 46//205
f 45//206 105//206 106//206
f 46//207 107//207 47//207
f 46//208 106//208 107//208
f 47//209 108//209 48//209
f 47//210 107//210 108//210
f 48//211 109//211 49//211
f 48//212 108//212 109//212
f 49//213 110//213 50//213
f 49//214 109//214 110//214
f 50//215 111//215 51//215
f 50//216 110//216 111//216
f 51//217 112//217 52//217
f 51//218 111//218 112//218
f 52//219 113//219 53//219
f 52//220 112//220 113//220
f 53//221 114//221 54//221
f 53//222 113//222 114//222
f 54//223 115//223 55//223
f 54//224 114//224 115//224
f 55//225 116//225 56//225
f 55//226 115//226 116//226
f 56//227 117//227 57//227
f 56//228 116//228 117//228
f 57//229 118//229 58//229
f 57//230 117//230 118//230
f 58//231 119//231 59//231
f 58//232 118//232 119//232
f 59//233 120//233 60//233
f 59//234 119//234 120//234
f 60//235 61//235 1//235
f 60//236 120//236 61//236
