# construction_3758_assumed_A_Casa
# source A_Casa
# h_campo 0.000000
# modeled_height 6.000000
# height_kind assumed
# local_origin_world_x 172001.034850
# local_origin_world_y 402500.144600
mtllib construction_artifacts.mtl

o construction_3758_assumed_A_Casa
v -4.105000 0.551500 0.000000
v -1.859000 1.079500 0.000000
v -2.077000 1.831500 0.000000
v -1.166000 1.836500 0.000000
v -2.575000 11.531500 0.000000
v -0.747000 14.497500 0.000000
v 0.825000 14.999500 0.000000
v 4.105000 -13.472500 0.000000
v -2.228000 -14.999500 0.000000
v -4.105000 0.551500 6.000000
v -1.859000 1.079500 6.000000
v -2.077000 1.831500 6.000000
v -1.166000 1.836500 6.000000
v -2.575000 11.531500 6.000000
v -0.747000 14.497500 6.000000
v 0.825000 14.999500 6.000000
v 4.105000 -13.472500 6.000000
v -2.228000 -14.999500 6.000000
vn 0.000000 0.000000 -1.000000
vn 0.000000 0.000000 -1.000000
vn 0.000000 0.000000 -1.000000
vn 0.000000 0.000000 -1.000000
vn 0.000000 0.000000 -1.000000
vn 0.000000 0.000000 -1.000000
vn 0.000000 -0.000000 -1.000000
vn 0.000000 -0.000000 1.000000
vn 0.000000 -0.000000 1.000000
vn 0.000000 0.000000 1.000000
vn 0.000000 -0.000000 1.000000
vn 0.000000 0.000000 1.000000
vn 0.000000 0.000000 1.000000
vn 0.000000 0.000000 1.000000
vn -0.228846 0.973463 0.000000
vn -0.228846 0.973463 0.000000
vn -0.960456 -0.278430 0.000000
vn -0.960456 -0.278430 0.000000
vn -0.005488 0.999985 0.000000
vn -0.005488 0.999985 0.000000
vn -0.989604 -0.143822 0.000000
vn -0.989604 -0.143822 0.000000
vn -0.851303 0.524674 0.000000
vn -0.851303 0.524674 0.000000
vn -0.304204 0.952607 0.000000
vn -0.304204 0.952607 0.000000
vn 0.993430 0.114444 0.000000
vn 0.993430 0.114444 -0.000000
vn 0.234400 -0.972140 0.000000
vn 0.234400 -0.972140 0.000000
vn -0.992794 -0.119830 0.000000
vn -0.992794 -0.119830 0.000000
usemtl assumed_base
f 9//1 1//1 2//1
f 2//2 3//2 4//2
f 9//3 2//3 4//3
f 4//4 5//4 6//4
f 4//5 6//5 7//5
f 9//6 4//6 7//6
f 7//7 8//7 9//7
usemtl assumed_roof
f 18//8 11//8 10//8
f 11//9 13//9 12//9
f 18//10 13//10 11//10
f 13//11 15//11 14//11
f 13//12 16//12 15//12
f 18//13 16//13 13//13
f 16//14 18//14 17//14
usemtl assumed_wall
f 1//15 11//15 2//15
f 1//16 10//16 11//16
f 2//17 12//17 3//17
f 2//18 11//18 12//18
f 3//19 13//19 4//19
f 3//20 12//20 13//20
f 4//21 14//21 5//21
f 4//22 13//22 14//22
f 5//23 15//23 6//23
f 5//24 14//24 15//24
f 6//25 16//25 7//25
f 6//26 15//26 16//26
f 7//27 17//27 8//27
f 7//28 16//28 17//28
f 8//29 18//29 9//29
f 8//30 17//30 18//30
f 9//31 10//31 1//31
f 9//32 18//32 10//32
