# construction_7237_assumed_A_Ruinas
# source A_Ruinas
# h_campo 0.000000
# modeled_height 6.000000
# height_kind assumed
# local_origin_world_x 172001.034850
# local_origin_world_y 402500.144600
mtllib construction_artifacts.mtl

o construction_7237_assumed_A_Ruinas
v 16.357500 5.673500 0.000000
v 3.746500 -5.280500 0.000000
v 12.120500 -17.422500 0.000000
v 8.451500 -19.482500 0.000000
v -5.975500 -0.121500 0.000000
v -9.707500 -1.934500 0.000000
v -16.357500 7.467500 0.000000
v -0.395500 16.124500 0.000000
v 3.554500 19.482500 0.000000
v 8.680500 13.975500 0.000000
v 8.087500 13.407500 0.000000
v 16.357500 5.673500 6.000000
v 3.746500 -5.280500 6.000000
v 12.120500 -17.422500 6.000000
v 8.451500 -19.482500 6.000000
v -5.975500 -0.121500 6.000000
v -9.707500 -1.934500 6.000000
v -16.357500 7.467500 6.000000
v -0.395500 16.124500 6.000000
v 3.554500 19.482500 6.000000
v 8.680500 13.975500 6.000000
v 8.087500 13.407500 6.000000
vn 0.000000 -0.000000 -1.000000
vn 0.000000 0.000000 -1.000000
vn -0.000000 -0.000000 -1.000000
vn 0.000000 0.000000 -1.000000
vn 0.000000 0.000000 -1.000000
vn 0.000000 0.000000 -1.000000
vn -0.000000 0.000000 -1.000000
vn 0.000000 0.000000 -1.000000
vn 0.000000 0.000000 -1.000000
vn 0.000000 0.000000 1.000000
vn 0.000000 0.000000 1.000000
vn 0.000000 0.000000 1.000000
vn 0.000000 0.000000 1.000000
vn 0.000000 0.000000 1.000000
vn 0.000000 0.000000 1.000000
vn 0.000000 0.000000 1.000000
vn 0.000000 0.000000 1.000000
vn 0.000000 0.000000 1.000000
vn 0.655767 -0.754964 0.000000
vn 0.655767 -0.754964 0.000000
vn 0.823206 0.567742 0.000000
vn 0.823206 0.567742 -0.000000
vn 0.489573 -0.871962 0.000000
vn 0.489573 -0.871962 0.000000
vn -0.801860 -0.597512 0.000000
vn -0.801860 -0.597512 0.000000
vn 0.436965 -0.899478 0.000000
vn 0.436965 -0.899478 0.000000
vn -0.816424 -0.577453 0.000000
vn -0.816424 -0.577453 0.000000
vn -0.476748 0.879040 0.000000
vn -0.476748 0.879040 0.000000
vn -0.647704 0.761892 0.000000
vn -0.647704 0.761892 0.000000
vn 0.731974 0.681333 0.000000
vn 0.731974 0.681333 -0.000000
vn 0.691720 -0.722166 0.000000
vn 0.691720 -0.722166 0.000000
vn 0.683042 0.730379 0.000000
vn 0.683042 0.730379 -0.000000
usemtl assumed_base
f 11//1 1//1 2//1
f 2//2 3//2 4//2
f 2//3 4//3 5//3
f 11//4 2//4 5//4
f 11//5 5//5 6//5
f 11//6 6//6 7//6
f 11//7 7//7 8//7
f 11//8 8//8 9//8
f 9//9 10//9 11//9
usemtl assumed_roof
f 22//10 13//10 12//10
f 13//11 15//11 14//11
f 13//12 16//12 15//12
f 22//13 16//13 13//13
f 22//14 17//14 16//14
f 22//15 18//15 17//15
f 22//16 19//16 18//16
f 22//17 20//17 19//17
f 20//18 22//18 21//18
usemtl assumed_wall
f 1//19 13//19 2//19
f 1//20 12//20 13//20
f 2//21 14//21 3//21
f 2//22 13//22 14//22
f 3//23 15//23 4//23
f 3//24 14//24 15//24
f 4//25 16//25 5//25
f 4//26 15//26 16//26
f 5//27 17//27 6//27
f 5//28 16//28 17//28
f 6//29 18//29 7//29
f 6//30 17//30 18//30
f 7//31 19//31 8//31
f 7//32 18//32 19//32
f 8//33 20//33 9//33
f 8//34 19//34 20//34
f 9//35 21//35 10//35
f 9//36 20//36 21//36
f 10//37 22//37 11//37
f 10//38 21//38 22//38
f 11//39 12//39 1//39
f 11//40 22//40 12//40
