# construction_4231_assumed_A_Casa
# source A_Casa
# h_campo 0.000000
# modeled_height 6.000000
# height_kind assumed
# local_origin_world_x 172001.034850
# local_origin_world_y 402500.144600
mtllib construction_artifacts.mtl

o construction_4231_assumed_A_Casa
v -20.616000 -5.200000 0.000000
v -15.578000 -3.578000 0.000000
v -16.666000 0.087000 0.000000
v -14.384000 0.629000 0.000000
v -14.739000 2.001000 0.000000
v -12.962000 2.556000 0.000000
v -13.261000 3.837000 0.000000
v -9.528000 4.970000 0.000000
v -10.350000 7.646000 0.000000
v -2.041000 10.132000 0.000000
v -0.782000 7.005000 0.000000
v 17.715000 12.645000 0.000000
v 20.616000 4.165000 0.000000
v 10.788000 1.168000 0.000000
v 12.152000 -3.577000 0.000000
v 3.730000 -6.265000 0.000000
v 2.394000 -2.891000 0.000000
v 4.801000 -2.124000 0.000000
v 4.178000 -0.247000 0.000000
v 2.550000 -0.353000 0.000000
v 1.980000 0.615000 0.000000
v -5.800000 -1.761000 0.000000
v -5.222000 -3.324000 0.000000
v -3.625000 -2.813000 0.000000
v -1.801000 -7.885000 0.000000
v -18.329000 -12.645000 0.000000
v -20.616000 -5.200000 6.000000
v -15.578000 -3.578000 6.000000
v -16.666000 0.087000 6.000000
v -14.384000 0.629000 6.000000
v -14.739000 2.001000 6.000000
v -12.962000 2.556000 6.000000
v -13.261000 3.837000 6.000000
v -9.528000 4.970000 6.000000
v -10.350000 7.646000 6.000000
v -2.041000 10.132000 6.000000
v -0.782000 7.005000 6.000000
v 17.715000 12.645000 6.000000
v 20.616000 4.165000 6.000000
v 10.788000 1.168000 6.000000
v 12.152000 -3.577000 6.000000
v 3.730000 -6.265000 6.000000
v 2.394000 -2.891000 6.000000
v 4.801000 -2.124000 6.000000
v 4.178000 -0.247000 6.000000
v 2.550000 -0.353000 6.000000
v 1.980000 0.615000 6.000000
v -5.800000 -1.761000 6.000000
v -5.222000 -3.324000 6.000000
v -3.625000 -2.813000 6.000000
v -1.801000 -7.885000 6.000000
v -18.329000 -12.645000 6.000000
vn 0.000000 0.000000 -1.000000
vn 0.000000 0.000000 -1.000000
vn 0.000000 0.000000 -1.000000
vn 0.000000 0.000000 -1.000000
vn 0.000000 0.000000 -1.000000
vn 0.000000 0.000000 -1.000000
vn 0.000000 0.000000 -1.000000
vn 0.000000 0.000000 -1.000000
vn 0.000000 0.000000 -1.000000
vn 0.000000 0.000000 -1.000000
vn 0.000000 0.000000 -1.000000
vn 0.000000 0.000000 -1.000000
vn 0.000000 0.000000 -1.000000
vn -0.000000 0.000000 -1.000000
vn 0.000000 0.000000 -1.000000
vn 0.000000 0.000000 -1.000000
vn 0.000000 0.000000 -1.000000
vn 0.000000 0.000000 -1.000000
vn 0.000000 0.000000 -1.000000
vn 0.000000 -0.000000 -1.000000
vn 0.000000 0.000000 -1.000000
vn 0.000000 0.000000 -1.000000
vn 0.000000 0.000000 -1.000000
vn 0.000000 -0.000000 -1.000000
vn 0.000000 -0.000000 1.000000
vn 0.000000 -0.000000 1.000000
vn 0.000000 -0.000000 1.000000
vn 0.000000 0.000000 1.000000
vn 0.000000 0.000000 1.000000
vn 0.000000 -0.000000 1.000000
vn 0.000000 0.000000 1.000000
vn 0.000000 -0.000000 1.000000
vn 0.000000 0.000000 1.000000
vn 0.000000 0.000000 1.000000
vn -0.000000 0.000000 1.000000
vn 0.000000 0.000000 1.000000
vn 0.000000 0.000000 1.000000
vn 0.000000 0.000000 1.000000
vn 0.000000 0.000000 1.000000
vn 0.000000 0.000000 1.000000
vn 0.000000 0.000000 1.000000
vn 0.000000 0.000000 1.000000
vn 0.000000 0.000000 1.000000
vn 0.000000 0.000000 1.000000
vn 0.000000 0.000000 1.000000
vn 0.000000 0.000000 1.000000
vn 0.000000 0.000000 1.000000
vn 0.000000 0.000000 1.000000
vn -0.306462 0.951883 0.000000
vn -0.306462 0.951883 0.000000
vn -0.958650 -0.284587 0.000000
vn -0.958650 -0.284587 0.000000
vn -0.231083 0.972934 0.000000
vn -0.231083 0.972934 0.000000
vn -0.968117 -0.250497 0.000000
vn -0.968117 -0.250497 0.000000
vn -0.298122 0.954528 0.000000
vn -0.298122 0.954528 0.000000
vn -0.973824 -0.227302 0.000000
vn -0.973824 -0.227302 0.000000
vn -0.290427 0.956897 0.000000
vn -0.290427 0.956897 0.000000
vn -0.955918 -0.293634 0.000000
vn -0.955918 -0.293634 0.000000
vn -0.286639 0.958039 0.000000
vn -0.286639 0.958039 0.000000
vn 0.927636 0.373487 0.000000
vn 0.927636 0.373487 -0.000000
vn -0.291657 0.956523 0.000000
vn -0.291657 0.956523 0.000000
vn 0.946166 0.323682 0.000000
vn 0.946166 0.323682 -0.000000
vn 0.291684 -0.956515 0.000000
vn 0.291684 -0.956515 0.000000
vn 0.961079 0.276272 0.000000
vn 0.961079 0.276272 -0.000000
vn 0.304053 -0.952655 0.000000
vn 0.304053 -0.952655 0.000000
vn -0.929763 -0.368158 0.000000
vn -0.929763 -0.368158 0.000000
vn -0.303612 0.952796 0.000000
vn -0.303612 0.952796 0.000000
vn -0.949087 -0.315014 0.000000
vn -0.949087 -0.315014 0.000000
vn 0.064973 -0.997887 0.000000
vn 0.064973 -0.997887 0.000000
vn -0.861705 -0.507409 0.000000
vn -0.861705 -0.507409 0.000000
vn 0.292081 -0.956394 0.000000
vn 0.292081 -0.956394 0.000000
vn 0.937922 0.346845 0.000000
vn 0.937922 0.346845 -0.000000
vn -0.304754 0.952431 0.000000
vn -0.304754 0.952431 0.000000
vn 0.941001 0.338404 0.000000
vn 0.941001 0.338404 -0.000000
vn 0.276748 -0.960943 0.000000
vn 0.276748 -0.960943 0.000000
vn -0.955915 -0.293644 0.000000
vn -0.955915 -0.293644 0.000000
usemtl assumed_base
f 26//1 1//1 2//1
f 2//2 3//2 4//2
f 4//3 5//3 6//3
f 2//4 4//4 6//4
f 26//5 2//5 6//5
f 6//6 7//6 8//6
f 26//7 6//7 8//7
f 8//8 9//8 10//8
f 26//9 8//9 10//9
f 26//10 10//10 11//10
f 11//11 12//11 13//11
f 11//12 13//12 14//12
f 11//13 14//13 15//13
f 15//14 16//14 17//14
f 15//15 17//15 18//15
f 15//16 18//16 19//16
f 11//17 15//17 19//17
f 11//18 19//18 20//18
f 11//19 20//19 21//19
f 11//20 21//20 22//20
f 26//21 11//21 22//21
f 26//22 22//22 23//22
f 26//23 23//23 24//23
f 24//24 25//24 26//24
usemtl assumed_roof
f 52//25 28//25 27//25
f 28//26 30//26 29//26
f 30//27 32//27 31//27
f 28//28 32//28 30//28
f 52//29 32//29 28//29
f 32//30 34//30 33//30
f 52//31 34//31 32//31
f 34//32 36//32 35//32
f 52//33 36//33 34//33
f 52//34 37//34 36//34
f 37//35 39//35 38//35
f 37//36 40//36 39//36
f 37//37 41//37 40//37
f 41//38 43//38 42//38
f 41//39 44//39 43//39
f 41//40 45//40 44//40
f 37//41 45//41 41//41
f 37//42 46//42 45//42
f 37//43 47//43 46//43
f 37//44 48//44 47//44
f 52//45 48//45 37//45
f 52//46 49//46 48//46
f 52//47 50//47 49//47
f 50//48 52//48 51//48
usemtl assumed_wall
f 1//49 28//49 2//49
f 1//50 27//50 28//50
f 2//51 29//51 3//51
f 2//52 28//52 29//52
f 3//53 30//53 4//53
f 3//54 29//54 30//54
f 4//55 31//55 5//55
f 4//56 30//56 31//56
f 5//57 32//57 6//57
f 5//58 31//58 32//58
f 6//59 33//59 7//59
f 6//60 32//60 33//60
f 7//61 34//61 8//61
f 7//62 33//62 34//62
f 8//63 35//63 9//63
f 8//64 34//64 35//64
f 9//65 36//65 10//65
f 9//66 35//66 36//66
f 10//67 37//67 11//67
f 10//68 36//68 37//68
f 11//69 38//69 12//69
f 11//70 37//70 38//70
f 12//71 39//71 13//71
f 12//72 38//72 39//72
f 13//73 40//73 14//73
f 13//74 39//74 40//74
f 14//75 41//75 15//75
f 14//76 40//76 41//76
f 15//77 42//77 16//77
f 15//78 41//78 42//78
f 16//79 43//79 17//79
f 16//80 42//80 43//80
f 17//81 44//81 18//81
f 17//82 43//82 44//82
f 18//83 45//83 19//83
f 18//84 44//84 45//84
f 19//85 46//85 20//85
f 19//86 45//86 46//86
f 20//87 47//87 21//87
f 20//88 46//88 47//88
f 21//89 48//89 22//89
f 21//90 47//90 48//90
f 22//91 49//91 23//91
f 22//92 48//92 49//92
f 23//93 50//93 24//93
f 23//94 49//94 50//94
f 24//95 51//95 25//95
f 24//96 50//96 51//96
f 25//97 52//97 26//97
f 25//98 51//98 52//98
f 26//99 27//99 1//99
f 26//100 52//100 27//100
