# construction_5344_assumed_A_Casa
# source A_Casa
# h_campo 0.000000
# modeled_height 6.000000
# height_kind assumed
# local_origin_world_x 172001.034850
# local_origin_world_y 402500.144600
mtllib construction_artifacts.mtl

o construction_5344_assumed_A_Casa
v -7.409500 6.167000 0.000000
v 2.283500 10.586000 0.000000
v 7.409500 -0.221000 0.000000
v 1.677500 -3.163000 0.000000
v 2.901500 -6.263000 0.000000
v 1.737500 -6.958000 0.000000
v 2.596500 -9.071000 0.000000
v -0.276500 -10.586000 0.000000
v -3.838500 -4.385000 0.000000
v -2.610500 -3.425000 0.000000
v -7.409500 6.167000 6.000000
v 2.283500 10.586000 6.000000
v 7.409500 -0.221000 6.000000
v 1.677500 -3.163000 6.000000
v 2.901500 -6.263000 6.000000
v 1.737500 -6.958000 6.000000
v 2.596500 -9.071000 6.000000
v -0.276500 -10.586000 6.000000
v -3.838500 -4.385000 6.000000
v -2.610500 -3.425000 6.000000
vn 0.000000 0.000000 -1.000000
vn 0.000000 0.000000 -1.000000
vn 0.000000 0.000000 -1.000000
vn 0.000000 0.000000 -1.000000
vn 0.000000 0.000000 -1.000000
vn 0.000000 0.000000 -1.000000
vn 0.000000 0.000000 -1.000000
vn 0.000000 0.000000 -1.000000
vn 0.000000 -0.000000 1.000000
vn 0.000000 0.000000 1.000000
vn 0.000000 0.000000 1.000000
vn -0.000000 0.000000 1.000000
vn 0.000000 0.000000 1.000000
vn 0.000000 0.000000 1.000000
vn 0.000000 0.000000 1.000000
vn 0.000000 0.000000 1.000000
vn -0.414821 0.909903 0.000000
vn -0.414821 0.909903 0.000000
vn 0.903515 0.428557 0.000000
vn 0.903515 0.428557 -0.000000
vn 0.456625 -0.889659 0.000000
vn 0.456625 -0.889659 0.000000
vn 0.930123 0.367249 0.000000
vn 0.930123 0.367249 -0.000000
vn 0.512650 -0.858597 0.000000
vn 0.512650 -0.858597 0.000000
vn 0.926376 0.376600 0.000000
vn 0.926376 0.376600 -0.000000
vn 0.466444 -0.884551 0.000000
vn 0.466444 -0.884551 0.000000
vn -0.867122 -0.498095 0.000000
vn -0.867122 -0.498095 0.000000
vn -0.615893 0.787830 0.000000
vn -0.615893 0.787830 0.000000
vn -0.894315 -0.447437 0.000000
vn -0.894315 -0.447437 0.000000
usemtl assumed_base
f 10//1 1//1 2//1
f 10//2 2//2 3//2
f 10//3 3//3 4//3
f 10//4 4//4 5//4
f 10//5 5//5 6//5
f 10//6 6//6 7//6
f 10//7 7//7 8//7
f 8//8 9//8 10//8
usemtl assumed_roof
f 20//9 12//9 11//9
f 20//10 13//10 12//10
f 20//11 14//11 13//11
f 20//12 15//12 14//12
f 20//13 16//13 15//13
f 20//14 17//14 16//14
f 20//15 18//15 17//15
f 18//16 20//16 19//16
usemtl assumed_wall
f 1//17 12//17 2//17
f 1//18 11//18 12//18
f 2//19 13//19 3//19
f 2//20 12//20 13//20
f 3//21 14//21 4//21
f 3//22 13//22 14//22
f 4//23 15//23 5//23
f 4//24 14//24 15//24
f 5//25 16//25 6//25
f 5//26 15//26 16//26
f 6//27 17//27 7//27
f 6//28 16//28 17//28
f 7//29 18//29 8//29
f 7//30 17//30 18//30
f 8//31 19//31 9//31
f 8//32 18//32 19//32
f 9//33 20//33 10//33
f 9//34 19//34 20//34
f 10//35 11//35 1//35
f 10//36 20//36 11//36
