# construction_3149_assumed_A_Casa
# source A_Casa
# h_campo 0.000000
# modeled_height 6.000000
# height_kind assumed
# local_origin_world_x 172001.034850
# local_origin_world_y 402500.144600
mtllib construction_artifacts.mtl

o construction_3149_assumed_A_Casa
v -16.178500 5.567500 0.000000
v -10.151500 15.088500 0.000000
v -6.664500 13.405500 0.000000
v -2.930500 17.845500 0.000000
v -1.841500 13.229500 0.000000
v 3.388500 3.160500 0.000000
v 5.129500 4.189500 0.000000
v 9.477500 -2.667500 0.000000
v 8.601500 -3.753500 0.000000
v 16.178500 -13.362500 0.000000
v 10.048500 -17.845500 0.000000
v 7.116500 -12.742500 0.000000
v 5.148500 -14.730500 0.000000
v -9.041500 0.423500 0.000000
v -9.840500 -0.600500 0.000000
v -16.178500 5.567500 6.000000
v -10.151500 15.088500 6.000000
v -6.664500 13.405500 6.000000
v -2.930500 17.845500 6.000000
v -1.841500 13.229500 6.000000
v 3.388500 3.160500 6.000000
v 5.129500 4.189500 6.000000
v 9.477500 -2.667500 6.000000
v 8.601500 -3.753500 6.000000
v 16.178500 -13.362500 6.000000
v 10.048500 -17.845500 6.000000
v 7.116500 -12.742500 6.000000
v 5.148500 -14.730500 6.000000
v -9.041500 0.423500 6.000000
v -9.840500 -0.600500 6.000000
vn 0.000000 0.000000 -1.000000
vn 0.000000 0.000000 -1.000000
vn 0.000000 0.000000 -1.000000
vn 0.000000 0.000000 -1.000000
vn 0.000000 0.000000 -1.000000
vn 0.000000 0.000000 -1.000000
vn 0.000000 0.000000 -1.000000
vn 0.000000 0.000000 -1.000000
vn 0.000000 0.000000 -1.000000
vn 0.000000 0.000000 -1.000000
vn 0.000000 0.000000 -1.000000
vn 0.000000 -0.000000 -1.000000
vn 0.000000 0.000000 -1.000000
vn 0.000000 0.000000 1.000000
vn 0.000000 -0.000000 1.000000
vn 0.000000 0.000000 1.000000
vn 0.000000 0.000000 1.000000
vn -0.000000 0.000000 1.000000
vn 0.000000 0.000000 1.000000
vn 0.000000 0.000000 1.000000
vn 0.000000 0.000000 1.000000
vn 0.000000 0.000000 1.000000
vn 0.000000 0.000000 1.000000
vn 0.000000 0.000000 1.000000
vn 0.000000 0.000000 1.000000
vn 0.000000 0.000000 1.000000
vn -0.844938 0.534864 0.000000
vn -0.844938 0.534864 0.000000
vn 0.434670 0.900590 0.000000
vn 0.434670 0.900590 -0.000000
vn -0.765331 0.643637 0.000000
vn -0.765331 0.643637 0.000000
vn 0.973282 0.229615 0.000000
vn 0.973282 0.229615 -0.000000
vn 0.887429 0.460945 0.000000
vn 0.887429 0.460945 -0.000000
vn -0.508813 0.860877 0.000000
vn -0.508813 0.860877 0.000000
vn 0.844528 0.535512 0.000000
vn 0.844528 0.535512 -0.000000
vn 0.778345 -0.627837 0.000000
vn 0.778345 -0.627837 0.000000
vn 0.785242 0.619188 0.000000
vn 0.785242 0.619188 -0.000000
vn 0.590307 -0.807179 0.000000
vn 0.590307 -0.807179 0.000000
vn -0.867070 -0.498187 0.000000
vn -0.867070 -0.498187 0.000000
vn 0.710673 -0.703523 0.000000
vn 0.710673 -0.703523 0.000000
vn -0.729943 -0.683508 0.000000
vn -0.729943 -0.683508 0.000000
vn 0.788398 -0.615166 0.000000
vn 0.788398 -0.615166 0.000000
vn -0.697430 -0.716653 0.000000
vn -0.697430 -0.716653 0.000000
usemtl assumed_base
f 15//1 1//1 2//1
f 15//2 2//2 3//2
f 15//3 3//3 4//3
f 15//4 4//4 5//4
f 6//5 7//5 8//5
f 6//6 8//6 9//6
f 9//7 10//7 11//7
f 6//8 9//8 11//8
f 5//9 6//9 11//9
f 5//10 11//10 12//10
f 5//11 12//11 13//11
f 5//12 13//12 14//12
f 5//13 14//13 15//13
usemtl assumed_roof
f 30//14 17//14 16//14
f 30//15 18//15 17//15
f 30//16 19//16 18//16
f 30//17 20//17 19//17
f 21//18 23//18 22//18
f 21//19 24//19 23//19
f 24//20 26//20 25//20
f 21//21 26//21 24//21
f 20//22 26//22 21//22
f 20//23 27//23 26//23
f 20//24 28//24 27//24
f 20//25 29//25 28//25
f 20//26 30//26 29//26
usemtl assumed_wall
f 1//27 17//27 2//27
f 1//28 16//28 17//28
f 2//29 18//29 3//29
f 2//30 17//30 18//30
f 3//31 19//31 4//31
f 3//32 18//32 19//32
f 4//33 20//33 5//33
f 4//34 19//34 20//34
f 5//35 21//35 6//35
f 5//36 20//36 21//36
f 6//37 22//37 7//37
f 6//38 21//38 22//38
f 7//39 23//39 8//39
f 7//40 22//40 23//40
f 8//41 24//41 9//41
f 8//42 23//42 24//42
f 9//43 25//43 10//43
f 9//44 24//44 25//44
f 10//45 26//45 11//45
f 10//46 25//46 26//46
f 11//47 27//47 12//47
f 11//48 26//48 27//48
f 12//49 28//49 13//49
f 12//50 27//50 28//50
f 13//51 29//51 14//51
f 13//52 28//52 29//52
f 14//53 30//53 15//53
f 14//54 29//54 30//54
f 15//55 16//55 1//55
f 15//56 30//56 16//56
