# construction_5379_assumed_A_Casa
# source A_Casa
# h_campo 0.000000
# modeled_height 6.000000
# height_kind assumed
# local_origin_world_x 172001.034850
# local_origin_world_y 402500.144600
mtllib construction_artifacts.mtl

o construction_5379_assumed_A_Casa
v -6.370500 2.866000 0.000000
v -4.449500 3.192000 0.000000
v 5.092500 4.833000 0.000000
v 6.370500 -0.384000 0.000000
v 1.504500 -1.256000 0.000000
v 1.871500 -3.696000 0.000000
v -3.004500 -4.833000 0.000000
v -4.090500 -0.196000 0.000000
v -5.811500 -0.141000 0.000000
v -6.370500 2.866000 6.000000
v -4.449500 3.192000 6.000000
v 5.092500 4.833000 6.000000
v 6.370500 -0.384000 6.000000
v 1.504500 -1.256000 6.000000
v 1.871500 -3.696000 6.000000
v -3.004500 -4.833000 6.000000
v -4.090500 -0.196000 6.000000
v -5.811500 -0.141000 6.000000
vn 0.000000 0.000000 -1.000000
vn 0.000000 0.000000 -1.000000
vn 0.000000 0.000000 -1.000000
vn 0.000000 -0.000000 -1.000000
vn -0.000000 0.000000 -1.000000
vn -0.000000 0.000000 -1.000000
vn 0.000000 0.000000 -1.000000
vn 0.000000 -0.000000 1.000000
vn 0.000000 0.000000 1.000000
vn -0.000000 0.000000 1.000000
vn 0.000000 0.000000 1.000000
vn 0.000000 0.000000 1.000000
vn 0.000000 0.000000 1.000000
vn 0.000000 0.000000 1.000000
vn -0.167311 0.985904 0.000000
vn -0.167311 0.985904 0.000000
vn -0.169488 0.985532 0.000000
vn -0.169488 0.985532 0.000000
vn 0.971282 0.237933 0.000000
vn 0.971282 0.237933 -0.000000
vn 0.176393 -0.984320 0.000000
vn 0.176393 -0.984320 0.000000
vn 0.988877 0.148737 0.000000
vn 0.988877 0.148737 -0.000000
vn 0.227091 -0.973874 0.000000
vn 0.227091 -0.973874 0.000000
vn -0.973653 -0.228033 0.000000
vn -0.973653 -0.228033 0.000000
vn -0.031942 -0.999490 0.000000
vn -0.031942 -0.999490 0.000000
vn -0.983156 -0.182768 0.000000
vn -0.983156 -0.182768 0.000000
usemtl assumed_base
f 9//1 1//1 2//1
f 9//2 2//2 3//2
f 9//3 3//3 4//3
f 5//4 6//4 7//4
f 5//5 7//5 8//5
f 4//6 5//6 8//6
f 4//7 8//7 9//7
usemtl assumed_roof
f 18//8 11//8 10//8
f 18//9 12//9 11//9
f 18//10 13//10 12//10
f 14//11 16//11 15//11
f 14//12 17//12 16//12
f 13//13 17//13 14//13
f 13//14 18//14 17//14
usemtl assumed_wall
f 1//15 11//15 2//15
f 1//16 10//16 11//16
f 2//17 12//17 3//17
f 2//18 11//18 12//18
f 3//19 13//19 4//19
f 3//20 12//20 13//20
f 4//21 14//21 5//21
f 4//22 13//22 14//22
f 5//23 15//23 6//23
f 5//24 14//24 15//24
f 6//25 16//25 7//25
f 6//26 15//26 16//26
f 7//27 17//27 8//27
f 7//28 16//28 17//28
f 8//29 18//29 9//29
f 8//30 17//30 18//30
f 9//31 10//31 1//31
f 9//32 18//32 10//32
