# construction_1770_assumed_A_Casa
# source A_Casa
# h_campo 0.000000
# modeled_height 6.000000
# height_kind assumed
# local_origin_world_x 172001.034850
# local_origin_world_y 402500.144600
mtllib construction_artifacts.mtl

o construction_1770_assumed_A_Casa
v -10.457000 -14.279500 0.000000
v 0.905000 14.279500 0.000000
v 8.029000 11.725500 0.000000
v 7.204000 8.864500 0.000000
v 10.457000 7.701500 0.000000
v 6.093000 -3.387500 0.000000
v 2.728000 -1.943500 0.000000
v 1.861000 -4.874500 0.000000
v -1.545000 -3.557500 0.000000
v -3.799000 -9.656500 0.000000
v -2.410000 -9.661500 0.000000
v -2.304000 -11.683500 0.000000
v -6.831000 -13.366500 0.000000
v -10.457000 -14.279500 6.000000
v 0.905000 14.279500 6.000000
v 8.029000 11.725500 6.000000
v 7.204000 8.864500 6.000000
v 10.457000 7.701500 6.000000
v 6.093000 -3.387500 6.000000
v 2.728000 -1.943500 6.000000
v 1.861000 -4.874500 6.000000
v -1.545000 -3.557500 6.000000
v -3.799000 -9.656500 6.000000
v -2.410000 -9.661500 6.000000
v -2.304000 -11.683500 6.000000
v -6.831000 -13.366500 6.000000
vn -0.000000 0.000000 -1.000000
vn 0.000000 0.000000 -1.000000
vn 0.000000 -0.000000 -1.000000
vn 0.000000 0.000000 -1.000000
vn 0.000000 0.000000 -1.000000
vn 0.000000 0.000000 -1.000000
vn 0.000000 -0.000000 -1.000000
vn 0.000000 0.000000 -1.000000
vn 0.000000 0.000000 -1.000000
vn 0.000000 0.000000 -1.000000
vn 0.000000 -0.000000 -1.000000
vn 0.000000 -0.000000 1.000000
vn 0.000000 0.000000 1.000000
vn 0.000000 0.000000 1.000000
vn 0.000000 0.000000 1.000000
vn 0.000000 0.000000 1.000000
vn 0.000000 0.000000 1.000000
vn 0.000000 0.000000 1.000000
vn 0.000000 0.000000 1.000000
vn 0.000000 0.000000 1.000000
vn 0.000000 0.000000 1.000000
vn 0.000000 0.000000 1.000000
vn -0.929166 0.369662 0.000000
vn -0.929166 0.369662 0.000000
vn 0.337475 0.941335 0.000000
vn 0.337475 0.941335 -0.000000
vn 0.960849 -0.277071 0.000000
vn 0.960849 -0.277071 0.000000
vn 0.336648 0.941631 0.000000
vn 0.336648 0.941631 -0.000000
vn 0.930534 -0.366205 0.000000
vn 0.930534 -0.366205 0.000000
vn -0.394348 -0.918961 0.000000
vn -0.394348 -0.918961 0.000000
vn 0.958927 -0.283654 0.000000
vn 0.958927 -0.283654 0.000000
vn -0.360648 -0.932702 0.000000
vn -0.360648 -0.932702 0.000000
vn 0.937993 -0.346653 0.000000
vn 0.937993 -0.346653 0.000000
vn 0.003600 0.999994 0.000000
vn 0.003600 0.999994 -0.000000
vn 0.998629 0.052351 0.000000
vn 0.998629 0.052351 -0.000000
vn 0.348467 -0.937321 0.000000
vn 0.348467 -0.937321 0.000000
vn 0.244171 -0.969732 0.000000
vn 0.244171 -0.969732 0.000000
usemtl assumed_base
f 13//1 1//1 2//1
f 2//2 3//2 4//2
f 4//3 5//3 6//3
f 2//4 4//4 6//4
f 2//5 6//5 7//5
f 2//6 7//6 8//6
f 2//7 8//7 9//7
f 13//8 2//8 9//8
f 13//9 9//9 10//9
f 13//10 10//10 11//10
f 11//11 12//11 13//11
usemtl assumed_roof
f 26//12 15//12 14//12
f 15//13 17//13 16//13
f 17//14 19//14 18//14
f 15//15 19//15 17//15
f 15//16 20//16 19//16
f 15//17 21//17 20//17
f 15//18 22//18 21//18
f 26//19 22//19 15//19
f 26//20 23//20 22//20
f 26//21 24//21 23//21
f 24//22 26//22 25//22
usemtl assumed_wall
f 1//23 15//23 2//23
f 1//24 14//24 15//24
f 2//25 16//25 3//25
f 2//26 15//26 16//26
f 3//27 17//27 4//27
f 3//28 16//28 17//28
f 4//29 18//29 5//29
f 4//30 17//30 18//30
f 5//31 19//31 6//31
f 5//32 18//32 19//32
f 6//33 20//33 7//33
f 6//34 19//34 20//34
f 7//35 21//35 8//35
f 7//36 20//36 21//36
f 8//37 22//37 9//37
f 8//38 21//38 22//38
f 9//39 23//39 10//39
f 9//40 22//40 23//40
f 10//41 24//41 11//41
f 10//42 23//42 24//42
f 11//43 25//43 12//43
f 11//44 24//44 25//44
f 12//45 26//45 13//45
f 12//46 25//46 26//46
f 13//47 14//47 1//47
f 13//48 26//48 14//48
