# construction_7217_assumed_A_Ruinas
# source A_Ruinas
# h_campo 0.000000
# modeled_height 6.000000
# height_kind assumed
# local_origin_world_x 172001.034850
# local_origin_world_y 402500.144600
mtllib construction_artifacts.mtl

o construction_7217_assumed_A_Ruinas
v 5.232000 -5.057000 0.000000
v 2.426000 -6.200000 0.000000
v -6.204000 -4.941000 0.000000
v -4.315000 6.200000 0.000000
v 1.986000 5.164000 0.000000
v 1.187000 0.854000 0.000000
v 6.204000 -0.105000 0.000000
v 5.232000 -5.057000 6.000000
v 2.426000 -6.200000 6.000000
v -6.204000 -4.941000 6.000000
v -4.315000 6.200000 6.000000
v 1.986000 5.164000 6.000000
v 1.187000 0.854000 6.000000
v 6.204000 -0.105000 6.000000
vn 0.000000 0.000000 -1.000000
vn 0.000000 0.000000 -1.000000
vn 0.000000 0.000000 -1.000000
vn 0.000000 0.000000 -1.000000
vn 0.000000 0.000000 -1.000000
vn 0.000000 0.000000 1.000000
vn 0.000000 0.000000 1.000000
vn 0.000000 0.000000 1.000000
vn 0.000000 0.000000 1.000000
vn 0.000000 0.000000 1.000000
vn 0.377244 -0.926114 0.000000
vn 0.377244 -0.926114 0.000000
vn -0.144358 -0.989525 0.000000
vn -0.144358 -0.989525 0.000000
vn -0.985928 0.167168 0.000000
vn -0.985928 0.167168 0.000000
vn 0.162240 0.986751 0.000000
vn 0.162240 0.986751 -0.000000
vn 0.983247 -0.182277 0.000000
vn 0.983247 -0.182277 0.000000
vn 0.187751 0.982217 0.000000
vn 0.187751 0.982217 -0.000000
vn 0.981276 -0.192609 0.000000
vn 0.981276 -0.192609 0.000000
usemtl assumed_base
f 7//1 1//1 2//1
f 7//2 2//2 3//2
f 3//3 4//3 5//3
f 3//4 5//4 6//4
f 3//5 6//5 7//5
usemtl assumed_roof
f 14//6 9//6 8//6
f 14//7 10//7 9//7
f 10//8 12//8 11//8
f 10//9 13//9 12//9
f 10//10 14//10 13//10
usemtl assumed_wall
f 1//11 9//11 2//11
f 1//12 8//12 9//12
f 2//13 10//13 3//13
f 2//14 9//14 10//14
f 3//15 11//15 4//15
f 3//16 10//16 11//16
f 4//17 12//17 5//17
f 4//18 11//18 12//18
f 5//19 13//19 6//19
f 5//20 12//20 13//20
f 6//21 14//21 7//21
f 6//22 13//22 14//22
f 7//23 8//23 1//23
f 7//24 14//24 8//24
