# construction_6551_assumed_A_Casa
# source A_Casa
# h_campo 0.000000
# modeled_height 6.000000
# height_kind assumed
# local_origin_world_x 172001.034850
# local_origin_world_y 402500.144600
mtllib construction_artifacts.mtl

o construction_6551_assumed_A_Casa
v -7.545500 11.581000 0.000000
v 6.276500 3.719000 0.000000
v 16.568500 -7.073000 0.000000
v 12.596500 -9.734000 0.000000
v 3.862500 -0.405000 0.000000
v 0.161500 1.724000 0.000000
v -3.821500 -2.101000 0.000000
v -2.317500 -2.990000 0.000000
v -4.417500 -5.391000 0.000000
v -1.947500 -7.491000 0.000000
v -4.446500 -11.581000 0.000000
v -16.568500 -2.634000 0.000000
v -7.545500 11.581000 6.000000
v 6.276500 3.719000 6.000000
v 16.568500 -7.073000 6.000000
v 12.596500 -9.734000 6.000000
v 3.862500 -0.405000 6.000000
v 0.161500 1.724000 6.000000
v -3.821500 -2.101000 6.000000
v -2.317500 -2.990000 6.000000
v -4.417500 -5.391000 6.000000
v -1.947500 -7.491000 6.000000
v -4.446500 -11.581000 6.000000
v -16.568500 -2.634000 6.000000
vn 0.000000 0.000000 -1.000000
vn 0.000000 0.000000 -1.000000
vn 0.000000 -0.000000 -1.000000
vn 0.000000 0.000000 -1.000000
vn 0.000000 0.000000 -1.000000
vn 0.000000 0.000000 -1.000000
vn 0.000000 0.000000 -1.000000
vn 0.000000 0.000000 -1.000000
vn 0.000000 0.000000 -1.000000
vn -0.000000 0.000000 -1.000000
vn 0.000000 0.000000 1.000000
vn 0.000000 0.000000 1.000000
vn 0.000000 0.000000 1.000000
vn 0.000000 0.000000 1.000000
vn 0.000000 0.000000 1.000000
vn 0.000000 0.000000 1.000000
vn -0.000000 0.000000 1.000000
vn 0.000000 0.000000 1.000000
vn 0.000000 0.000000 1.000000
vn 0.000000 0.000000 1.000000
vn 0.494418 0.869224 0.000000
vn 0.494418 0.869224 -0.000000
vn 0.723672 0.690144 0.000000
vn 0.723672 0.690144 -0.000000
vn 0.556581 -0.830793 0.000000
vn 0.556581 -0.830793 0.000000
vn -0.730003 -0.683444 0.000000
vn -0.730003 -0.683444 0.000000
vn -0.498634 -0.866813 0.000000
vn -0.498634 -0.866813 0.000000
vn 0.692656 -0.721268 0.000000
vn 0.692656 -0.721268 0.000000
vn 0.508845 0.860858 0.000000
vn 0.508845 0.860858 -0.000000
vn 0.752713 -0.658349 0.000000
vn 0.752713 -0.658349 0.000000
vn 0.647738 0.761863 0.000000
vn 0.647738 0.761863 -0.000000
vn 0.853323 -0.521382 0.000000
vn 0.853323 -0.521382 0.000000
vn -0.593844 -0.804580 0.000000
vn -0.593844 -0.804580 0.000000
vn -0.844277 0.535907 0.000000
vn -0.844277 0.535907 0.000000
usemtl assumed_base
f 12//1 1//1 2//1
f 2//2 3//2 4//2
f 2//3 4//3 5//3
f 2//4 5//4 6//4
f 12//5 2//5 6//5
f 12//6 6//6 7//6
f 12//7 7//7 8//7
f 12//8 8//8 9//8
f 12//9 9//9 10//9
f 10//10 11//10 12//10
usemtl assumed_roof
f 24//11 14//11 13//11
f 14//12 16//12 15//12
f 14//13 17//13 16//13
f 14//14 18//14 17//14
f 24//15 18//15 14//15
f 24//16 19//16 18//16
f 24//17 20//17 19//17
f 24//18 21//18 20//18
f 24//19 22//19 21//19
f 22//20 24//20 23//20
usemtl assumed_wall
f 1//21 14//21 2//21
f 1//22 13//22 14//22
f 2//23 15//23 3//23
f 2//24 14//24 15//24
f 3//25 16//25 4//25
f 3//26 15//26 16//26
f 4//27 17//27 5//27
f 4//28 16//28 17//28
f 5//29 18//29 6//29
f 5//30 17//30 18//30
f 6//31 19//31 7//31
f 6//32 18//32 19//32
f 7//33 20//33 8//33
f 7//34 19//34 20//34
f 8//35 21//35 9//35
f 8//36 20//36 21//36
f 9//37 22//37 10//37
f 9//38 21//38 22//38
f 10//39 23//39 11//39
f 10//40 22//40 23//40
f 11//41 24//41 12//41
f 11//42 23//42 24//42
f 12//43 13//43 1//43
f 12//44 24//44 13//44
