# construction_0726_assumed_A_Casa
# source A_Casa
# h_campo 0.000000
# modeled_height 6.000000
# height_kind assumed
# local_origin_world_x 172001.034850
# local_origin_world_y 402500.144600
mtllib construction_artifacts.mtl

o construction_0726_assumed_A_Casa
v -20.135400 0.603500 0.000000
v -17.397400 6.423500 0.000000
v -19.928400 7.616500 0.000000
v -17.720400 13.321500 0.000000
v 10.430600 1.144500 0.000000
v 16.223600 -1.214500 0.000000
v 20.135400 -3.027800 0.000000
v 20.135400 -7.391400 0.000000
v 15.261600 -4.856500 0.000000
v 11.242600 -13.321500 0.000000
v -20.135400 0.603500 6.000000
v -17.397400 6.423500 6.000000
v -19.928400 7.616500 6.000000
v -17.720400 13.321500 6.000000
v 10.430600 1.144500 6.000000
v 16.223600 -1.214500 6.000000
v 20.135400 -3.027800 6.000000
v 20.135400 -7.391400 6.000000
v 15.261600 -4.856500 6.000000
v 11.242600 -13.321500 6.000000
vn 0.000000 0.000000 -1.000000
vn 0.000000 0.000000 -1.000000
vn 0.000000 0.000000 -1.000000
vn 0.000000 0.000000 -1.000000
vn 0.000000 0.000000 -1.000000
vn 0.000000 0.000000 -1.000000
vn 0.000000 -0.000000 -1.000000
vn 0.000000 0.000000 -1.000000
vn 0.000000 0.000000 1.000000
vn 0.000000 0.000000 1.000000
vn 0.000000 0.000000 1.000000
vn 0.000000 0.000000 1.000000
vn 0.000000 -0.000000 1.000000
vn 0.000000 0.000000 1.000000
vn 0.000000 0.000000 1.000000
vn 0.000000 0.000000 1.000000
vn -0.904868 0.425692 0.000000
vn -0.904868 0.425692 0.000000
vn -0.426365 -0.904551 0.000000
vn -0.426365 -0.904551 0.000000
vn -0.932589 0.360939 0.000000
vn -0.932589 0.360939 0.000000
vn 0.397010 0.917814 0.000000
vn 0.397010 0.917814 -0.000000
vn 0.377145 0.926154 0.000000
vn 0.377145 0.926154 -0.000000
vn 0.420559 0.907265 0.000000
vn 0.420559 0.907265 -0.000000
vn 1.000000 0.000000 0.000000
vn 1.000000 0.000000 -0.000000
vn -0.461428 -0.887178 0.000000
vn -0.461428 -0.887178 0.000000
vn 0.903355 -0.428894 0.000000
vn 0.903355 -0.428894 0.000000
vn -0.405633 -0.914036 0.000000
vn -0.405633 -0.914036 0.000000
usemtl assumed_base
f 10//1 1//1 2//1
f 2//2 3//2 4//2
f 10//3 2//3 4//3
f 10//4 4//4 5//4
f 10//5 5//5 6//5
f 6//6 7//6 8//6
f 6//7 8//7 9//7
f 6//8 9//8 10//8
usemtl assumed_roof
f 20//9 12//9 11//9
f 12//10 14//10 13//10
f 20//11 14//11 12//11
f 20//12 15//12 14//12
f 20//13 16//13 15//13
f 16//14 18//14 17//14
f 16//15 19//15 18//15
f 16//16 20//16 19//16
usemtl assumed_wall
f 1//17 12//17 2//17
f 1//18 11//18 12//18
f 2//19 13//19 3//19
f 2//20 12//20 13//20
f 3//21 14//21 4//21
f 3//22 13//22 14//22
f 4//23 15//23 5//23
f 4//24 14//24 15//24
f 5//25 16//25 6//25
f 5//26 15//26 16//26
f 6//27 17//27 7//27
f 6//28 16//28 17//28
f 7//29 18//29 8//29
f 7//30 17//30 18//30
f 8//31 19//31 9//31
f 8//32 18//32 19//32
f 9//33 20//33 10//33
f 9//34 19//34 20//34
f 10//35 11//35 1//35
f 10//36 20//36 11//36
