# construction_3471_assumed_A_Casa
# source A_Casa
# h_campo 0.000000
# modeled_height 6.000000
# height_kind assumed
# local_origin_world_x 172001.034850
# local_origin_world_y 402500.144600
mtllib construction_artifacts.mtl

o construction_3471_assumed_A_Casa
v -33.977000 9.502000 0.000000
v -30.033000 15.194000 0.000000
v -28.707000 14.325000 0.000000
v -24.813000 19.337000 0.000000
v -13.665000 9.891000 0.000000
v -14.658000 8.441000 0.000000
v -5.528000 1.475000 0.000000
v -2.566000 4.774000 0.000000
v 2.645000 0.122000 0.000000
v 10.385000 9.251000 0.000000
v 12.791000 7.559000 0.000000
v 22.437000 13.451000 0.000000
v 18.767000 16.383000 0.000000
v 21.141000 19.607000 0.000000
v 33.977000 11.146000 0.000000
v -2.856000 -10.264000 0.000000
v -11.338000 -19.607000 0.000000
v -26.750000 -8.974000 0.000000
v -23.954000 -4.593000 0.000000
v -30.559000 -0.710000 0.000000
v -26.120000 5.352000 0.000000
v -28.802000 7.973000 0.000000
v -30.275000 6.260000 0.000000
v -33.977000 9.502000 6.000000
v -30.033000 15.194000 6.000000
v -28.707000 14.325000 6.000000
v -24.813000 19.337000 6.000000
v -13.665000 9.891000 6.000000
v -14.658000 8.441000 6.000000
v -5.528000 1.475000 6.000000
v -2.566000 4.774000 6.000000
v 2.645000 0.122000 6.000000
v 10.385000 9.251000 6.000000
v 12.791000 7.559000 6.000000
v 22.437000 13.451000 6.000000
v 18.767000 16.383000 6.000000
v 21.141000 19.607000 6.000000
v 33.977000 11.146000 6.000000
v -2.856000 -10.264000 6.000000
v -11.338000 -19.607000 6.000000
v -26.750000 -8.974000 6.000000
v -23.954000 -4.593000 6.000000
v -30.559000 -0.710000 6.000000
v -26.120000 5.352000 6.000000
v -28.802000 7.973000 6.000000
v -30.275000 6.260000 6.000000
vn 0.000000 0.000000 -1.000000
vn 0.000000 0.000000 -1.000000
vn 0.000000 0.000000 -1.000000
vn 0.000000 0.000000 -1.000000
vn 0.000000 0.000000 -1.000000
vn 0.000000 0.000000 -1.000000
vn 0.000000 0.000000 -1.000000
vn 0.000000 0.000000 -1.000000
vn 0.000000 0.000000 -1.000000
vn 0.000000 0.000000 -1.000000
vn 0.000000 -0.000000 -1.000000
vn 0.000000 0.000000 -1.000000
vn 0.000000 0.000000 -1.000000
vn 0.000000 0.000000 -1.000000
vn 0.000000 0.000000 -1.000000
vn 0.000000 0.000000 -1.000000
vn 0.000000 0.000000 -1.000000
vn 0.000000 0.000000 -1.000000
vn 0.000000 -0.000000 -1.000000
vn 0.000000 0.000000 -1.000000
vn 0.000000 0.000000 -1.000000
vn 0.000000 -0.000000 1.000000
vn 0.000000 0.000000 1.000000
vn 0.000000 0.000000 1.000000
vn 0.000000 0.000000 1.000000
vn -0.000000 0.000000 1.000000
vn 0.000000 0.000000 1.000000
vn 0.000000 0.000000 1.000000
vn 0.000000 0.000000 1.000000
vn -0.000000 -0.000000 1.000000
vn 0.000000 0.000000 1.000000
vn -0.000000 0.000000 1.000000
vn 0.000000 0.000000 1.000000
vn 0.000000 0.000000 1.000000
vn 0.000000 0.000000 1.000000
vn 0.000000 0.000000 1.000000
vn 0.000000 0.000000 1.000000
vn 0.000000 0.000000 1.000000
vn 0.000000 0.000000 1.000000
vn 0.000000 0.000000 1.000000
vn 0.000000 0.000000 1.000000
vn 0.000000 0.000000 1.000000
vn -0.821963 0.569540 0.000000
vn -0.821963 0.569540 0.000000
vn 0.548133 0.836391 0.000000
vn 0.548133 0.836391 -0.000000
vn -0.789674 0.613526 0.000000
vn -0.789674 0.613526 0.000000
vn 0.646464 0.762945 0.000000
vn 0.646464 0.762945 -0.000000
vn 0.825070 -0.565031 0.000000
vn 0.825070 -0.565031 0.000000
vn 0.606584 0.795020 0.000000
vn 0.606584 0.795020 -0.000000
vn -0.744090 0.668080 0.000000
vn -0.744090 0.668080 0.000000
vn 0.665962 0.745986 0.000000
vn 0.665962 0.745986 -0.000000
vn -0.762749 0.646695 0.000000
vn -0.762749 0.646695 0.000000
vn 0.575241 0.817984 0.000000
vn 0.575241 0.817984 -0.000000
vn -0.521271 0.853391 0.000000
vn -0.521271 0.853391 0.000000
vn -0.624176 -0.781284 0.000000
vn -0.624176 -0.781284 0.000000
vn -0.805244 0.592943 0.000000
vn -0.805244 0.592943 0.000000
vn 0.550355 0.834931 0.000000
vn 0.550355 0.834931 -0.000000
vn 0.502541 -0.864553 0.000000
vn 0.502541 -0.864553 0.000000
vn 0.740399 -0.672168 0.000000
vn 0.740399 -0.672168 0.000000
vn -0.567879 -0.823112 0.000000
vn -0.567879 -0.823112 0.000000
vn -0.842956 0.537983 0.000000
vn -0.842956 0.537983 0.000000
vn -0.506798 -0.862065 0.000000
vn -0.506798 -0.862065 0.000000
vn -0.806815 0.590804 0.000000
vn -0.806815 0.590804 0.000000
vn -0.698927 -0.715193 0.000000
vn -0.698927 -0.715193 0.000000
vn 0.758225 -0.651993 0.000000
vn 0.758225 -0.651993 0.000000
vn -0.658821 -0.752300 0.000000
vn -0.658821 -0.752300 0.000000
usemtl assumed_base
f 23//1 1//1 2//1
f 23//2 2//2 3//2
f 23//3 3//3 4//3
f 4//4 5//4 6//4
f 7//5 8//5 9//5
f 9//6 10//6 11//6
f 9//7 11//7 12//7
f 12//8 13//8 14//8
f 12//9 14//9 15//9
f 9//10 12//10 15//10
f 9//11 15//11 16//11
f 7//12 9//12 16//12
f 6//13 7//13 16//13
f 4//14 6//14 16//14
f 4//15 16//15 17//15
f 17//16 18//16 19//16
f 4//17 17//17 19//17
f 19//18 20//18 21//18
f 4//19 19//19 21//19
f 4//20 21//20 22//20
f 4//21 22//21 23//21
usemtl assumed_roof
f 46//22 25//22 24//22
f 46//23 26//23 25//23
f 46//24 27//24 26//24
f 27//25 29//25 28//25
f 30//26 32//26 31//26
f 32//27 34//27 33//27
f 32//28 35//28 34//28
f 35//29 37//29 36//29
f 35//30 38//30 37//30
f 32//31 38//31 35//31
f 32//32 39//32 38//32
f 30//33 39//33 32//33
f 29//34 39//34 30//34
f 27//35 39//35 29//35
f 27//36 40//36 39//36
f 40//37 42//37 41//37
f 27//38 42//38 40//38
f 42//39 44//39 43//39
f 27//40 44//40 42//40
f 27//41 45//41 44//41
f 27//42 46//42 45//42
usemtl assumed_wall
f 1//43 25//43 2//43
f 1//44 24//44 25//44
f 2//45 26//45 3//45
f 2//46 25//46 26//46
f 3//47 27//47 4//47
f 3//48 26//48 27//48
f 4//49 28//49 5//49
f 4//50 27//50 28//50
f 5//51 29//51 6//51
f 5//52 28//52 29//52
f 6//53 30//53 7//53
f 6//54 29//54 30//54
f 7//55 31//55 8//55
f 7//56 30//56 31//56
f 8//57 32//57 9//57
f 8//58 31//58 32//58
f 9//59 33//59 10//59
f 9//60 32//60 33//60
f 10//61 34//61 11//61
f 10//62 33//62 34//62
f 11//63 35//63 12//63
f 11//64 34//64 35//64
f 12//65 36//65 13//65
f 12//66 35//66 36//66
f 13//67 37//67 14//67
f 13//68 36//68 37//68
f 14//69 38//69 15//69
f 14//70 37//70 38//70
f 15//71 39//71 16//71
f 15//72 38//72 39//72
f 16//73 40//73 17//73
f 16//74 39//74 40//74
f 17//75 41//75 18//75
f 17//76 40//76 41//76
f 18//77 42//77 19//77
f 18//78 41//78 42//78
f 19//79 43//79 20//79
f 19//80 42//80 43//80
f 20//81 44//81 21//81
f 20//82 43//82 44//82
f 21//83 45//83 22//83
f 21//84 44//84 45//84
f 22//85 46//85 23//85
f 22//86 45//86 46//86
f 23//87 24//87 1//87
f 23//88 46//88 24//88
