# construction_1158_assumed_A_Casa
# source A_Casa
# h_campo 0.000000
# modeled_height 6.000000
# height_kind assumed
# local_origin_world_x 172001.034850
# local_origin_world_y 402500.144600
mtllib construction_artifacts.mtl

o construction_1158_assumed_A_Casa
v -10.547500 5.278000 0.000000
v -2.864500 10.871000 0.000000
v 3.178500 2.794000 0.000000
v 3.898500 3.614000 0.000000
v 10.547500 -5.195000 0.000000
v 8.271500 -10.871000 0.000000
v -2.923500 -6.938000 0.000000
v 0.597500 -4.209000 0.000000
v -1.310500 -0.980000 0.000000
v -4.359500 -3.002000 0.000000
v -10.547500 5.278000 6.000000
v -2.864500 10.871000 6.000000
v 3.178500 2.794000 6.000000
v 3.898500 3.614000 6.000000
v 10.547500 -5.195000 6.000000
v 8.271500 -10.871000 6.000000
v -2.923500 -6.938000 6.000000
v 0.597500 -4.209000 6.000000
v -1.310500 -0.980000 6.000000
v -4.359500 -3.002000 6.000000
vn 0.000000 0.000000 -1.000000
vn 0.000000 0.000000 -1.000000
vn 0.000000 0.000000 -1.000000
vn 0.000000 0.000000 -1.000000
vn 0.000000 0.000000 -1.000000
vn 0.000000 -0.000000 -1.000000
vn 0.000000 0.000000 -1.000000
vn 0.000000 0.000000 -1.000000
vn 0.000000 -0.000000 1.000000
vn 0.000000 0.000000 1.000000
vn -0.000000 0.000000 1.000000
vn 0.000000 0.000000 1.000000
vn 0.000000 0.000000 1.000000
vn 0.000000 0.000000 1.000000
vn 0.000000 0.000000 1.000000
vn 0.000000 0.000000 1.000000
vn -0.588541 0.808468 0.000000
vn -0.588541 0.808468 0.000000
vn 0.800701 0.599064 0.000000
vn 0.800701 0.599064 -0.000000
vn -0.751440 0.659801 0.000000
vn -0.751440 0.659801 0.000000
vn 0.798159 0.602447 0.000000
vn 0.798159 0.602447 -0.000000
vn 0.928161 -0.372180 0.000000
vn 0.928161 -0.372180 0.000000
vn -0.331458 -0.943470 0.000000
vn -0.331458 -0.943470 0.000000
vn -0.612603 0.790391 0.000000
vn -0.612603 0.790391 0.000000
vn -0.860932 -0.508720 0.000000
vn -0.860932 -0.508720 0.000000
vn 0.552680 -0.833393 0.000000
vn 0.552680 -0.833393 0.000000
vn -0.801020 -0.598637 0.000000
vn -0.801020 -0.598637 0.000000
usemtl assumed_base
f 10//1 1//1 2//1
f 10//2 2//2 3//2
f 3//3 4//3 5//3
f 3//4 5//4 6//4
f 6//5 7//5 8//5
f 3//6 6//6 8//6
f 3//7 8//7 9//7
f 3//8 9//8 10//8
usemtl assumed_roof
f 20//9 12//9 11//9
f 20//10 13//10 12//10
f 13//11 15//11 14//11
f 13//12 16//12 15//12
f 16//13 18//13 17//13
f 13//14 18//14 16//14
f 13//15 19//15 18//15
f 13//16 20//16 19//16
usemtl assumed_wall
f 1//17 12//17 2//17
f 1//18 11//18 12//18
f 2//19 13//19 3//19
f 2//20 12//20 13//20
f 3//21 14//21 4//21
f 3//22 13//22 14//22
f 4//23 15//23 5//23
f 4//24 14//24 15//24
f 5//25 16//25 6//25
f 5//26 15//26 16//26
f 6//27 17//27 7//27
f 6//28 16//28 17//28
f 7//29 18//29 8//29
f 7//30 17//30 18//30
f 8//31 19//31 9//31
f 8//32 18//32 19//32
f 9//33 20//33 10//33
f 9//34 19//34 20//34
f 10//35 11//35 1//35
f 10//36 20//36 11//36
