# construction_3327_actual_A_Casa
# source A_Casa
# h_campo 5.000000
# modeled_height 5.000000
# height_kind actual
# local_origin_world_x 172001.034850
# local_origin_world_y 402500.144600
mtllib construction_artifacts.mtl

o construction_3327_actual_A_Casa
v -10.330500 -6.870000 0.000000
v 5.594500 12.524000 0.000000
v 10.330500 8.263000 0.000000
v 6.228500 3.025000 0.000000
v 9.302500 0.397000 0.000000
v -2.115500 -12.524000 0.000000
v -10.330500 -6.870000 5.000000
v 5.594500 12.524000 5.000000
v 10.330500 8.263000 5.000000
v 6.228500 3.025000 5.000000
v 9.302500 0.397000 5.000000
v -2.115500 -12.524000 5.000000
vn 0.000000 0.000000 -1.000000
vn 0.000000 0.000000 -1.000000
vn 0.000000 0.000000 -1.000000
vn 0.000000 -0.000000 -1.000000
vn 0.000000 -0.000000 1.000000
vn 0.000000 0.000000 1.000000
vn 0.000000 0.000000 1.000000
vn 0.000000 0.000000 1.000000
vn -0.772839 0.634602 0.000000
vn -0.772839 0.634602 0.000000
vn 0.668843 0.743403 0.000000
vn 0.668843 0.743403 -0.000000
vn 0.787308 -0.616560 0.000000
vn 0.787308 -0.616560 0.000000
vn 0.649813 0.760094 0.000000
vn 0.649813 0.760094 -0.000000
vn 0.749345 -0.662180 0.000000
vn 0.749345 -0.662180 0.000000
vn -0.566950 -0.823752 0.000000
vn -0.566950 -0.823752 0.000000
usemtl actual_base
f 6//1 1//1 2//1
f 2//2 3//2 4//2
f 6//3 2//3 4//3
f 4//4 5//4 6//4
usemtl actual_roof
f 12//5 8//5 7//5
f 8//6 10//6 9//6
f 12//7 10//7 8//7
f 10//8 12//8 11//8
usemtl actual_wall
f 1//9 8//9 2//9
f 1//10 7//10 8//10
f 2//11 9//11 3//11
f 2//12 8//12 9//12
f 3//13 10//13 4//13
f 3//14 9//14 10//14
f 4//15 11//15 5//15
f 4//16 10//16 11//16
f 5//17 12//17 6//17
f 5//18 11//18 12//18
f 6//19 7//19 1//19
f 6//20 12//20 7//20
