# construction_0869_assumed_A_Casa
# source A_Casa
# h_campo 0.000000
# modeled_height 6.000000
# height_kind assumed
# local_origin_world_x 172001.034850
# local_origin_world_y 402500.144600
mtllib construction_artifacts.mtl

o construction_0869_assumed_A_Casa
v -10.913000 7.324500 0.000000
v -8.360000 8.854500 0.000000
v -10.695000 15.535500 0.000000
v -10.640000 17.335500 0.000000
v -6.227000 18.495500 0.000000
v -3.643000 10.388500 0.000000
v 10.913000 -0.259500 0.000000
v 5.003000 -4.657500 0.000000
v 9.686000 -10.291500 0.000000
v 6.113000 -13.160500 0.000000
v 7.562000 -15.006500 0.000000
v 3.921000 -18.495500 0.000000
v -4.379000 -8.591500 0.000000
v -5.928000 -6.058500 0.000000
v -2.199000 -2.844500 0.000000
v -3.915000 -0.508500 0.000000
v 0.012000 2.479500 0.000000
v -2.372000 4.293500 0.000000
v -8.266000 1.960500 0.000000
v -10.913000 7.324500 6.000000
v -8.360000 8.854500 6.000000
v -10.695000 15.535500 6.000000
v -10.640000 17.335500 6.000000
v -6.227000 18.495500 6.000000
v -3.643000 10.388500 6.000000
v 10.913000 -0.259500 6.000000
v 5.003000 -4.657500 6.000000
v 9.686000 -10.291500 6.000000
v 6.113000 -13.160500 6.000000
v 7.562000 -15.006500 6.000000
v 3.921000 -18.495500 6.000000
v -4.379000 -8.591500 6.000000
v -5.928000 -6.058500 6.000000
v -2.199000 -2.844500 6.000000
v -3.915000 -0.508500 6.000000
v 0.012000 2.479500 6.000000
v -2.372000 4.293500 6.000000
v -8.266000 1.960500 6.000000
vn 0.000000 0.000000 -1.000000
vn 0.000000 0.000000 -1.000000
vn 0.000000 0.000000 -1.000000
vn 0.000000 0.000000 -1.000000
vn 0.000000 0.000000 -1.000000
vn 0.000000 0.000000 -1.000000
vn 0.000000 0.000000 -1.000000
vn 0.000000 -0.000000 -1.000000
vn 0.000000 -0.000000 -1.000000
vn 0.000000 0.000000 -1.000000
vn 0.000000 0.000000 -1.000000
vn -0.000000 0.000000 -1.000000
vn 0.000000 0.000000 -1.000000
vn 0.000000 0.000000 -1.000000
vn 0.000000 0.000000 -1.000000
vn 0.000000 0.000000 -1.000000
vn 0.000000 -0.000000 -1.000000
vn 0.000000 0.000000 1.000000
vn 0.000000 0.000000 1.000000
vn 0.000000 -0.000000 1.000000
vn 0.000000 -0.000000 1.000000
vn 0.000000 0.000000 1.000000
vn 0.000000 0.000000 1.000000
vn 0.000000 0.000000 1.000000
vn 0.000000 0.000000 1.000000
vn 0.000000 0.000000 1.000000
vn 0.000000 0.000000 1.000000
vn 0.000000 0.000000 1.000000
vn 0.000000 0.000000 1.000000
vn 0.000000 0.000000 1.000000
vn 0.000000 0.000000 1.000000
vn 0.000000 0.000000 1.000000
vn 0.000000 0.000000 1.000000
vn 0.000000 0.000000 1.000000
vn -0.514051 0.857760 0.000000
vn -0.514051 0.857760 0.000000
vn -0.944006 -0.329929 0.000000
vn -0.944006 -0.329929 0.000000
vn -0.999534 0.030541 0.000000
vn -0.999534 0.030541 0.000000
vn -0.254224 0.967145 0.000000
vn -0.254224 0.967145 0.000000
vn 0.952773 0.303684 0.000000
vn 0.952773 0.303684 -0.000000
vn 0.590411 0.807103 0.000000
vn 0.590411 0.807103 -0.000000
vn 0.596999 -0.802242 0.000000
vn 0.596999 -0.802242 0.000000
vn 0.769026 0.639217 0.000000
vn 0.769026 0.639217 -0.000000
vn 0.626105 -0.779739 0.000000
vn 0.626105 -0.779739 0.000000
vn 0.786614 0.617445 0.000000
vn 0.786614 0.617445 -0.000000
vn 0.691875 -0.722017 0.000000
vn 0.691875 -0.722017 0.000000
vn -0.766442 -0.642313 0.000000
vn -0.766442 -0.642313 0.000000
vn -0.853124 -0.521709 0.000000
vn -0.853124 -0.521709 0.000000
vn -0.652863 0.757476 0.000000
vn -0.652863 0.757476 0.000000
vn -0.805922 -0.592022 0.000000
vn -0.805922 -0.592022 0.000000
vn -0.605530 0.795822 0.000000
vn -0.605530 0.795822 0.000000
vn -0.605540 -0.795815 0.000000
vn -0.605540 -0.795815 0.000000
vn 0.368043 -0.929809 0.000000
vn 0.368043 -0.929809 0.000000
vn -0.896755 -0.442526 0.000000
vn -0.896755 -0.442526 0.000000
usemtl assumed_base
f 19//1 1//1 2//1
f 2//2 3//2 4//2
f 2//3 4//3 5//3
f 19//4 2//4 5//4
f 19//5 5//5 6//5
f 6//6 7//6 8//6
f 8//7 9//7 10//7
f 10//8 11//8 12//8
f 8//9 10//9 12//9
f 8//10 12//10 13//10
f 8//11 13//11 14//11
f 8//12 14//12 15//12
f 8//13 15//13 16//13
f 8//14 16//14 17//14
f 6//15 8//15 17//15
f 6//16 17//16 18//16
f 6//17 18//17 19//17
usemtl assumed_roof
f 38//18 21//18 20//18
f 21//19 23//19 22//19
f 21//20 24//20 23//20
f 38//21 24//21 21//21
f 38//22 25//22 24//22
f 25//23 27//23 26//23
f 27//24 29//24 28//24
f 29//25 31//25 30//25
f 27//26 31//26 29//26
f 27//27 32//27 31//27
f 27//28 33//28 32//28
f 27//29 34//29 33//29
f 27//30 35//30 34//30
f 27//31 36//31 35//31
f 25//32 36//32 27//32
f 25//33 37//33 36//33
f 25//34 38//34 37//34
usemtl assumed_wall
f 1//35 21//35 2//35
f 1//36 20//36 21//36
f 2//37 22//37 3//37
f 2//38 21//38 22//38
f 3//39 23//39 4//39
f 3//40 22//40 23//40
f 4//41 24//41 5//41
f 4//42 23//42 24//42
f 5//43 25//43 6//43
f 5//44 24//44 25//44
f 6//45 26//45 7//45
f 6//46 25//46 26//46
f 7//47 27//47 8//47
f 7//48 26//48 27//48
f 8//49 28//49 9//49
f 8//50 27//50 28//50
f 9//51 29//51 10//51
f 9//52 28//52 29//52
f 10//53 30//53 11//53
f 10//54 29//54 30//54
f 11//55 31//55 12//55
f 11//56 30//56 31//56
f 12//57 32//57 13//57
f 12//58 31//58 32//58
f 13//59 33//59 14//59
f 13//60 32//60 33//60
f 14//61 34//61 15//61
f 14//62 33//62 34//62
f 15//63 35//63 16//63
f 15//64 34//64 35//64
f 16//65 36//65 17//65
f 16//66 35//66 36//66
f 17//67 37//67 18//67
f 17//68 36//68 37//68
f 18//69 38//69 19//69
f 18//70 37//70 38//70
f 19//71 20//71 1//71
f 19//72 38//72 20//72
