# construction_7114_assumed_A_Casa
# source A_Casa
# h_campo 0.000000
# modeled_height 6.000000
# height_kind assumed
# local_origin_world_x 172001.034850
# local_origin_world_y 402500.144600
mtllib construction_artifacts.mtl

o construction_7114_assumed_A_Casa
v -11.071500 -7.807500 0.000000
v -11.829500 -2.347500 0.000000
v -11.830500 -1.726500 0.000000
v -4.637500 -1.472500 0.000000
v -4.638500 -0.928500 0.000000
v -0.328500 -0.615500 0.000000
v -1.080500 8.157500 0.000000
v 11.080500 8.536500 0.000000
v 11.830500 -5.052500 0.000000
v 1.516500 -6.389500 0.000000
v 1.278500 -7.376500 0.000000
v -3.486500 -7.790500 0.000000
v -3.484500 -8.536500 0.000000
v -10.994500 -8.489500 0.000000
v -11.071500 -7.807500 6.000000
v -11.829500 -2.347500 6.000000
v -11.830500 -1.726500 6.000000
v -4.637500 -1.472500 6.000000
v -4.638500 -0.928500 6.000000
v -0.328500 -0.615500 6.000000
v -1.080500 8.157500 6.000000
v 11.080500 8.536500 6.000000
v 11.830500 -5.052500 6.000000
v 1.516500 -6.389500 6.000000
v 1.278500 -7.376500 6.000000
v -3.486500 -7.790500 6.000000
v -3.484500 -8.536500 6.000000
v -10.994500 -8.489500 6.000000
vn 0.000000 0.000000 -1.000000
vn 0.000000 0.000000 -1.000000
vn 0.000000 0.000000 -1.000000
vn 0.000000 0.000000 -1.000000
vn 0.000000 0.000000 -1.000000
vn 0.000000 0.000000 -1.000000
vn 0.000000 0.000000 -1.000000
vn 0.000000 0.000000 -1.000000
vn 0.000000 0.000000 -1.000000
vn 0.000000 0.000000 -1.000000
vn 0.000000 0.000000 -1.000000
vn 0.000000 -0.000000 -1.000000
vn 0.000000 0.000000 1.000000
vn 0.000000 -0.000000 1.000000
vn 0.000000 -0.000000 1.000000
vn 0.000000 -0.000000 1.000000
vn 0.000000 0.000000 1.000000
vn 0.000000 -0.000000 1.000000
vn -0.000000 0.000000 1.000000
vn 0.000000 0.000000 1.000000
vn 0.000000 0.000000 1.000000
vn 0.000000 0.000000 1.000000
vn 0.000000 0.000000 1.000000
vn 0.000000 0.000000 1.000000
vn -0.990501 -0.137509 0.000000
vn -0.990501 -0.137509 0.000000
vn -0.999999 -0.001610 0.000000
vn -0.999999 -0.001610 0.000000
vn -0.035290 0.999377 0.000000
vn -0.035290 0.999377 0.000000
vn -0.999998 -0.001838 0.000000
vn -0.999998 -0.001838 0.000000
vn -0.072431 0.997373 0.000000
vn -0.072431 0.997373 0.000000
vn -0.996346 -0.085404 0.000000
vn -0.996346 -0.085404 0.000000
vn -0.031150 0.999515 0.000000
vn -0.031150 0.999515 0.000000
vn 0.998480 0.055108 0.000000
vn 0.998480 0.055108 -0.000000
vn 0.128554 -0.991703 0.000000
vn 0.128554 -0.991703 0.000000
vn 0.972136 -0.234416 0.000000
vn 0.972136 -0.234416 0.000000
vn 0.086557 -0.996247 0.000000
vn 0.086557 -0.996247 0.000000
vn 0.999996 0.002681 0.000000
vn 0.999996 0.002681 -0.000000
vn -0.006258 -0.999980 0.000000
vn -0.006258 -0.999980 0.000000
vn -0.993687 -0.112190 0.000000
vn -0.993687 -0.112190 0.000000
usemtl assumed_base
f 1//1 2//1 3//1
f 1//2 3//2 4//2
f 14//3 1//3 4//3
f 4//4 5//4 6//4
f 14//5 4//5 6//5
f 6//6 7//6 8//6
f 6//7 8//7 9//7
f 6//8 9//8 10//8
f 14//9 6//9 10//9
f 10//10 11//10 12//10
f 14//11 10//11 12//11
f 12//12 13//12 14//12
usemtl assumed_roof
f 15//13 17//13 16//13
f 15//14 18//14 17//14
f 28//15 18//15 15//15
f 18//16 20//16 19//16
f 28//17 20//17 18//17
f 20//18 22//18 21//18
f 20//19 23//19 22//19
f 20//20 24//20 23//20
f 28//21 24//21 20//21
f 24//22 26//22 25//22
f 28//23 26//23 24//23
f 26//24 28//24 27//24
usemtl assumed_wall
f 1//25 16//25 2//25
f 1//26 15//26 16//26
f 2//27 17//27 3//27
f 2//28 16//28 17//28
f 3//29 18//29 4//29
f 3//30 17//30 18//30
f 4//31 19//31 5//31
f 4//32 18//32 19//32
f 5//33 20//33 6//33
f 5//34 19//34 20//34
f 6//35 21//35 7//35
f 6//36 20//36 21//36
f 7//37 22//37 8//37
f 7//38 21//38 22//38
f 8//39 23//39 9//39
f 8//40 22//40 23//40
f 9//41 24//41 10//41
f 9//42 23//42 24//42
f 10//43 25//43 11//43
f 10//44 24//44 25//44
f 11//45 26//45 12//45
f 11//46 25//46 26//46
f 12//47 27//47 13//47
f 12//48 26//48 27//48
f 13//49 28//49 14//49
f 13//50 27//50 28//50
f 14//51 15//51 1//51
f 14//52 28//52 15//52
