# construction_4468_assumed_A_Casa
# source A_Casa
# h_campo 0.000000
# modeled_height 6.000000
# height_kind assumed
# local_origin_world_x 172001.034850
# local_origin_world_y 402500.144600
mtllib construction_artifacts.mtl

o construction_4468_assumed_A_Casa
v -20.584500 20.891500 0.000000
v -21.415500 22.955500 0.000000
v -13.214500 28.438500 0.000000
v -10.555500 25.079500 0.000000
v -11.419500 24.715500 0.000000
v 1.390500 5.936500 0.000000
v 2.242500 6.379500 0.000000
v 7.351500 -1.261500 0.000000
v 6.544500 -1.794500 0.000000
v 21.415500 -23.350500 0.000000
v 13.334500 -28.438500 0.000000
v 11.388500 -25.829500 0.000000
v -2.387500 -4.998500 0.000000
v -4.970500 -1.133500 0.000000
v -5.597500 -1.675500 0.000000
v -21.009500 20.439500 0.000000
v -20.584500 20.891500 6.000000
v -21.415500 22.955500 6.000000
v -13.214500 28.438500 6.000000
v -10.555500 25.079500 6.000000
v -11.419500 24.715500 6.000000
v 1.390500 5.936500 6.000000
v 2.242500 6.379500 6.000000
v 7.351500 -1.261500 6.000000
v 6.544500 -1.794500 6.000000
v 21.415500 -23.350500 6.000000
v 13.334500 -28.438500 6.000000
v 11.388500 -25.829500 6.000000
v -2.387500 -4.998500 6.000000
v -4.970500 -1.133500 6.000000
v -5.597500 -1.675500 6.000000
v -21.009500 20.439500 6.000000
vn 0.000000 0.000000 -1.000000
vn 0.000000 0.000000 -1.000000
vn 0.000000 0.000000 -1.000000
vn 0.000000 0.000000 -1.000000
vn 0.000000 0.000000 -1.000000
vn 0.000000 0.000000 -1.000000
vn 0.000000 0.000000 -1.000000
vn 0.000000 0.000000 -1.000000
vn 0.000000 0.000000 -1.000000
vn 0.000000 0.000000 -1.000000
vn -0.000000 0.000000 -1.000000
vn 0.000000 0.000000 -1.000000
vn 0.000000 0.000000 -1.000000
vn -0.000000 0.000000 -1.000000
vn 0.000000 -0.000000 1.000000
vn 0.000000 0.000000 1.000000
vn 0.000000 0.000000 1.000000
vn 0.000000 0.000000 1.000000
vn -0.000000 0.000000 1.000000
vn -0.000000 0.000000 1.000000
vn 0.000000 0.000000 1.000000
vn 0.000000 0.000000 1.000000
vn 0.000000 0.000000 1.000000
vn 0.000000 0.000000 1.000000
vn 0.000000 0.000000 1.000000
vn 0.000000 0.000000 1.000000
vn 0.000000 0.000000 1.000000
vn 0.000000 0.000000 1.000000
vn -0.927637 -0.373482 0.000000
vn -0.927637 -0.373482 0.000000
vn -0.555799 0.831317 0.000000
vn -0.555799 0.831317 0.000000
vn 0.784069 0.620673 0.000000
vn 0.784069 0.620673 -0.000000
vn 0.388248 -0.921555 0.000000
vn 0.388248 -0.921555 0.000000
vn 0.826102 0.563521 0.000000
vn 0.826102 0.563521 -0.000000
vn -0.461320 0.887234 0.000000
vn -0.461320 0.887234 0.000000
vn 0.831296 0.555829 0.000000
vn 0.831296 0.555829 -0.000000
vn 0.551116 -0.834429 0.000000
vn 0.551116 -0.834429 0.000000
vn 0.823127 0.567857 0.000000
vn 0.823127 0.567857 -0.000000
vn 0.532810 -0.846235 0.000000
vn 0.532810 -0.846235 0.000000
vn -0.801583 -0.597884 0.000000
vn -0.801583 -0.597884 0.000000
vn -0.834102 -0.551610 0.000000
vn -0.834102 -0.551610 0.000000
vn -0.831421 -0.555643 0.000000
vn -0.831421 -0.555643 0.000000
vn 0.653965 -0.756524 0.000000
vn 0.653965 -0.756524 0.000000
vn -0.820424 -0.571756 0.000000
vn -0.820424 -0.571756 0.000000
vn -0.728531 0.685013 0.000000
vn -0.728531 0.685013 0.000000
usemtl assumed_base
f 1//1 2//1 3//1
f 16//2 1//2 3//2
f 3//3 4//3 5//3
f 16//4 3//4 5//4
f 16//5 5//5 6//5
f 6//6 7//6 8//6
f 16//7 6//7 8//7
f 16//8 8//8 9//8
f 16//9 9//9 10//9
f 10//10 11//10 12//10
f 10//11 12//11 13//11
f 10//12 13//12 14//12
f 16//13 10//13 14//13
f 14//14 15//14 16//14
usemtl assumed_roof
f 17//15 19//15 18//15
f 32//16 19//16 17//16
f 19//17 21//17 20//17
f 32//18 21//18 19//18
f 32//19 22//19 21//19
f 22//20 24//20 23//20
f 32//21 24//21 22//21
f 32//22 25//22 24//22
f 32//23 26//23 25//23
f 26//24 28//24 27//24
f 26//25 29//25 28//25
f 26//26 30//26 29//26
f 32//27 30//27 26//27
f 30//28 32//28 31//28
usemtl assumed_wall
f 1//29 18//29 2//29
f 1//30 17//30 18//30
f 2//31 19//31 3//31
f 2//32 18//32 19//32
f 3//33 20//33 4//33
f 3//34 19//34 20//34
f 4//35 21//35 5//35
f 4//36 20//36 21//36
f 5//37 22//37 6//37
f 5//38 21//38 22//38
f 6//39 23//39 7//39
f 6//40 22//40 23//40
f 7//41 24//41 8//41
f 7//42 23//42 24//42
f 8//43 25//43 9//43
f 8//44 24//44 25//44
f 9//45 26//45 10//45
f 9//46 25//46 26//46
f 10//47 27//47 11//47
f 10//48 26//48 27//48
f 11//49 28//49 12//49
f 11//50 27//50 28//50
f 12//51 29//51 13//51
f 12//52 28//52 29//52
f 13//53 30//53 14//53
f 13//54 29//54 30//54
f 14//55 31//55 15//55
f 14//56 30//56 31//56
f 15//57 32//57 16//57
f 15//58 31//58 32//58
f 16//59 17//59 1//59
f 16//60 32//60 17//60
