# construction_5382_actual_A_Casa
# source A_Casa
# h_campo 5.000000
# modeled_height 5.000000
# height_kind actual
# local_origin_world_x 172001.034850
# local_origin_world_y 402500.144600
mtllib construction_artifacts.mtl

o construction_5382_actual_A_Casa
v 2.263500 -18.705000 0.000000
v -4.994500 -17.726000 0.000000
v -4.035500 -4.331000 0.000000
v -6.647500 -3.949000 0.000000
v -5.643500 6.467000 0.000000
v -3.106500 6.433000 0.000000
v -1.592500 18.705000 0.000000
v 6.647500 18.343000 0.000000
v 6.258500 15.122000 0.000000
v 4.448500 1.153000 0.000000
v 3.835500 -4.485000 0.000000
v 2.263500 -18.705000 5.000000
v -4.994500 -17.726000 5.000000
v -4.035500 -4.331000 5.000000
v -6.647500 -3.949000 5.000000
v -5.643500 6.467000 5.000000
v -3.106500 6.433000 5.000000
v -1.592500 18.705000 5.000000
v 6.647500 18.343000 5.000000
v 6.258500 15.122000 5.000000
v 4.448500 1.153000 5.000000
v 3.835500 -4.485000 5.000000
vn 0.000000 0.000000 -1.000000
vn -0.000000 0.000000 -1.000000
vn 0.000000 0.000000 -1.000000
vn 0.000000 0.000000 -1.000000
vn 0.000000 0.000000 -1.000000
vn 0.000000 0.000000 -1.000000
vn 0.000000 0.000000 -1.000000
vn 0.000000 0.000000 -1.000000
vn 0.000000 0.000000 -1.000000
vn 0.000000 0.000000 1.000000
vn 0.000000 0.000000 1.000000
vn 0.000000 0.000000 1.000000
vn 0.000000 0.000000 1.000000
vn 0.000000 0.000000 1.000000
vn 0.000000 0.000000 1.000000
vn 0.000000 0.000000 1.000000
vn 0.000000 0.000000 1.000000
vn 0.000000 0.000000 1.000000
vn -0.133675 -0.991025 0.000000
vn -0.133675 -0.991025 0.000000
vn -0.997447 0.071411 0.000000
vn -0.997447 0.071411 0.000000
vn -0.144709 -0.989474 0.000000
vn -0.144709 -0.989474 0.000000
vn -0.995387 0.095945 0.000000
vn -0.995387 0.095945 0.000000
vn 0.013400 0.999910 0.000000
vn 0.013400 0.999910 -0.000000
vn -0.992476 0.122442 0.000000
vn -0.992476 0.122442 0.000000
vn 0.043890 0.999036 0.000000
vn 0.043890 0.999036 -0.000000
vn 0.992786 -0.119899 0.000000
vn 0.992786 -0.119899 0.000000
vn 0.991710 -0.128498 0.000000
vn 0.991710 -0.128498 0.000000
vn 0.994141 -0.108089 0.000000
vn 0.994141 -0.108089 0.000000
vn 0.993945 -0.109879 0.000000
vn 0.993945 -0.109879 0.000000
usemtl actual_base
f 11//1 1//1 2//1
f 11//2 2//2 3//2
f 11//3 3//3 4//3
f 11//4 4//4 5//4
f 11//5 5//5 6//5
f 11//6 6//6 7//6
f 7//7 8//7 9//7
f 7//8 9//8 10//8
f 7//9 10//9 11//9
usemtl actual_roof
f 22//10 13//10 12//10
f 22//11 14//11 13//11
f 22//12 15//12 14//12
f 22//13 16//13 15//13
f 22//14 17//14 16//14
f 22//15 18//15 17//15
f 18//16 20//16 19//16
f 18//17 21//17 20//17
f 18//18 22//18 21//18
usemtl actual_wall
f 1//19 13//19 2//19
f 1//20 12//20 13//20
f 2//21 14//21 3//21
f 2//22 13//22 14//22
f 3//23 15//23 4//23
f 3//24 14//24 15//24
f 4//25 16//25 5//25
f 4//26 15//26 16//26
f 5//27 17//27 6//27
f 5//28 16//28 17//28
f 6//29 18//29 7//29
f 6//30 17//30 18//30
f 7//31 19//31 8//31
f 7//32 18//32 19//32
f 8//33 20//33 9//33
f 8//34 19//34 20//34
f 9//35 21//35 10//35
f 9//36 20//36 21//36
f 10//37 22//37 11//37
f 10//38 21//38 22//38
f 11//39 12//39 1//39
f 11//40 22//40 12//40
