# construction_0016_assumed_A_Campo_de_jogos
# source A_Campo_de_jogos
# h_campo 0.000000
# modeled_height 6.000000
# height_kind assumed
# local_origin_world_x 172001.034850
# local_origin_world_y 402500.144600
mtllib construction_artifacts.mtl

o construction_0016_assumed_A_Campo_de_jogos
v -5.605500 22.176000 0.000000
v 14.884500 17.369000 0.000000
v 5.605500 -22.176000 0.000000
v -14.884500 -17.367000 0.000000
v -5.605500 22.176000 6.000000
v 14.884500 17.369000 6.000000
v 5.605500 -22.176000 6.000000
v -14.884500 -17.367000 6.000000
vn 0.000000 0.000000 -1.000000
vn 0.000000 0.000000 -1.000000
vn 0.000000 0.000000 1.000000
vn 0.000000 0.000000 1.000000
vn 0.228401 0.973567 0.000000
vn 0.228401 0.973567 -0.000000
vn 0.973558 -0.228440 0.000000
vn 0.973558 -0.228440 0.000000
vn -0.228491 -0.973546 0.000000
vn -0.228491 -0.973546 0.000000
vn -0.973556 0.228451 0.000000
vn -0.973556 0.228451 0.000000
usemtl assumed_base
f 4//1 1//1 2//1
f 2//2 3//2 4//2
usemtl assumed_roof
f 8//3 6//3 5//3
f 6//4 8//4 7//4
usemtl assumed_wall
f 1//5 6//5 2//5
f 1//6 5//6 6//6
f 2//7 7//7 3//7
f 2//8 6//8 7//8
f 3//9 8//9 4//9
f 3//10 7//10 8//10
f 4//11 5//11 1//11
f 4//12 8//12 5//12
