# construction_6804_assumed_A_Casa
# source A_Casa
# h_campo 0.000000
# modeled_height 6.000000
# height_kind assumed
# local_origin_world_x 172001.034850
# local_origin_world_y 402500.144600
mtllib construction_artifacts.mtl

o construction_6804_assumed_A_Casa
v -10.129000 -3.971500 0.000000
v -11.626000 -1.686500 0.000000
v -6.695000 1.594500 0.000000
v -7.745000 8.937500 0.000000
v -5.725000 14.062500 0.000000
v 2.567000 16.150500 0.000000
v 2.742000 18.492500 0.000000
v 7.760000 18.508500 0.000000
v 7.917000 16.581500 0.000000
v 14.055000 16.612500 0.000000
v 14.635000 10.800500 0.000000
v 17.922000 10.590500 0.000000
v 18.112000 7.994500 0.000000
v 15.367000 7.981500 0.000000
v 15.370000 7.410500 0.000000
v 9.705000 7.303500 0.000000
v 9.710000 6.289500 0.000000
v 2.843000 6.207500 0.000000
v 3.231000 3.512500 0.000000
v 1.401000 3.503500 0.000000
v 1.358000 2.332500 0.000000
v -5.575000 1.797500 0.000000
v -1.568000 -4.725500 0.000000
v -4.391000 -6.539500 0.000000
v -2.514000 -10.219500 0.000000
v -3.918000 -10.678500 0.000000
v -3.333000 -11.561500 0.000000
v -5.160000 -12.160500 0.000000
v -3.852000 -13.963500 0.000000
v -11.669000 -18.508500 0.000000
v -18.112000 -8.940500 0.000000
v -10.129000 -3.971500 6.000000
v -11.626000 -1.686500 6.000000
v -6.695000 1.594500 6.000000
v -7.745000 8.937500 6.000000
v -5.725000 14.062500 6.000000
v 2.567000 16.150500 6.000000
v 2.742000 18.492500 6.000000
v 7.760000 18.508500 6.000000
v 7.917000 16.581500 6.000000
v 14.055000 16.612500 6.000000
v 14.635000 10.800500 6.000000
v 17.922000 10.590500 6.000000
v 18.112000 7.994500 6.000000
v 15.367000 7.981500 6.000000
v 15.370000 7.410500 6.000000
v 9.705000 7.303500 6.000000
v 9.710000 6.289500 6.000000
v 2.843000 6.207500 6.000000
v 3.231000 3.512500 6.000000
v 1.401000 3.503500 6.000000
v 1.358000 2.332500 6.000000
v -5.575000 1.797500 6.000000
v -1.568000 -4.725500 6.000000
v -4.391000 -6.539500 6.000000
v -2.514000 -10.219500 6.000000
v -3.918000 -10.678500 6.000000
v -3.333000 -11.561500 6.000000
v -5.160000 -12.160500 6.000000
v -3.852000 -13.963500 6.000000
v -11.669000 -18.508500 6.000000
v -18.112000 -8.940500 6.000000
vn 0.000000 0.000000 -1.000000
vn 0.000000 0.000000 -1.000000
vn 0.000000 0.000000 -1.000000
vn 0.000000 0.000000 -1.000000
vn 0.000000 0.000000 -1.000000
vn 0.000000 0.000000 -1.000000
vn 0.000000 0.000000 -1.000000
vn 0.000000 0.000000 -1.000000
vn 0.000000 0.000000 -1.000000
vn 0.000000 0.000000 -1.000000
vn 0.000000 0.000000 -1.000000
vn 0.000000 0.000000 -1.000000
vn 0.000000 0.000000 -1.000000
vn 0.000000 0.000000 -1.000000
vn 0.000000 0.000000 -1.000000
vn 0.000000 -0.000000 -1.000000
vn 0.000000 -0.000000 -1.000000
vn 0.000000 0.000000 -1.000000
vn 0.000000 0.000000 -1.000000
vn 0.000000 0.000000 -1.000000
vn 0.000000 0.000000 -1.000000
vn 0.000000 0.000000 -1.000000
vn 0.000000 0.000000 -1.000000
vn 0.000000 0.000000 -1.000000
vn 0.000000 0.000000 -1.000000
vn 0.000000 0.000000 -1.000000
vn 0.000000 0.000000 -1.000000
vn 0.000000 0.000000 -1.000000
vn -0.000000 0.000000 -1.000000
vn 0.000000 -0.000000 1.000000
vn 0.000000 -0.000000 1.000000
vn 0.000000 0.000000 1.000000
vn 0.000000 0.000000 1.000000
vn 0.000000 0.000000 1.000000
vn 0.000000 0.000000 1.000000
vn 0.000000 0.000000 1.000000
vn -0.000000 0.000000 1.000000
vn 0.000000 0.000000 1.000000
vn 0.000000 0.000000 1.000000
vn 0.000000 0.000000 1.000000
vn 0.000000 0.000000 1.000000
vn 0.000000 0.000000 1.000000
vn 0.000000 0.000000 1.000000
vn 0.000000 0.000000 1.000000
vn 0.000000 0.000000 1.000000
vn 0.000000 0.000000 1.000000
vn 0.000000 0.000000 1.000000
vn 0.000000 0.000000 1.000000
vn 0.000000 0.000000 1.000000
vn -0.000000 0.000000 1.000000
vn 0.000000 0.000000 1.000000
vn 0.000000 0.000000 1.000000
vn -0.000000 0.000000 1.000000
vn 0.000000 0.000000 1.000000
vn 0.000000 0.000000 1.000000
vn 0.000000 0.000000 1.000000
vn 0.000000 0.000000 1.000000
vn 0.000000 0.000000 1.000000
vn -0.836473 -0.548009 0.000000
vn -0.836473 -0.548009 0.000000
vn -0.553960 0.832543 0.000000
vn -0.553960 0.832543 0.000000
vn -0.989931 -0.141553 0.000000
vn -0.989931 -0.141553 0.000000
vn -0.930343 0.366691 0.000000
vn -0.930343 0.366691 0.000000
vn -0.244186 0.969728 0.000000
vn -0.244186 0.969728 0.000000
vn -0.997220 0.074515 0.000000
vn -0.997220 0.074515 0.000000
vn -0.003189 0.999995 0.000000
vn -0.003189 0.999995 0.000000
vn 0.996697 0.081205 0.000000
vn 0.996697 0.081205 -0.000000
vn -0.005050 0.999987 0.000000
vn -0.005050 0.999987 0.000000
vn 0.995058 0.099300 0.000000
vn 0.995058 0.099300 -0.000000
vn 0.063758 0.997965 0.000000
vn 0.063758 0.997965 -0.000000
vn 0.997332 0.072994 0.000000
vn 0.997332 0.072994 -0.000000
vn 0.004736 -0.999989 0.000000
vn 0.004736 -0.999989 0.000000
vn 0.999986 0.005254 0.000000
vn 0.999986 0.005254 -0.000000
vn 0.018885 -0.999822 0.000000
vn 0.018885 -0.999822 0.000000
vn 0.999988 0.004931 0.000000
vn 0.999988 0.004931 -0.000000
vn 0.011940 -0.999929 0.000000
vn 0.011940 -0.999929 0.000000
vn 0.989795 0.142501 0.000000
vn 0.989795 0.142501 -0.000000
vn 0.004918 -0.999988 0.000000
vn 0.004918 -0.999988 0.000000
vn 0.999326 -0.036696 0.000000
vn 0.999326 -0.036696 0.000000
vn 0.076938 -0.997036 0.000000
vn 0.076938 -0.997036 0.000000
vn 0.852075 0.523419 0.000000
vn 0.852075 0.523419 -0.000000
vn 0.540592 -0.841285 0.000000
vn 0.540592 -0.841285 0.000000
vn 0.890816 0.454365 0.000000
vn 0.890816 0.454365 -0.000000
vn 0.310739 -0.950495 0.000000
vn 0.310739 -0.950495 0.000000
vn 0.833645 0.552301 0.000000
vn 0.833645 0.552301 -0.000000
vn 0.311543 -0.950232 0.000000
vn 0.311543 -0.950232 0.000000
vn 0.809434 0.587210 0.000000
vn 0.809434 0.587210 -0.000000
vn 0.502640 -0.864496 0.000000
vn 0.502640 -0.864496 0.000000
vn -0.829467 -0.558555 0.000000
vn -0.829467 -0.558555 0.000000
vn -0.528440 0.848971 0.000000
vn -0.528440 0.848971 0.000000
usemtl assumed_base
f 1//1 2//1 3//1
f 3//2 4//2 5//2
f 3//3 5//3 6//3
f 1//4 3//4 6//4
f 6//5 7//5 8//5
f 6//6 8//6 9//6
f 6//7 9//7 10//7
f 6//8 10//8 11//8
f 11//9 12//9 13//9
f 6//10 11//10 13//10
f 6//11 13//11 14//11
f 6//12 14//12 15//12
f 6//13 15//13 16//13
f 6//14 16//14 17//14
f 6//15 17//15 18//15
f 18//16 19//16 20//16
f 6//17 18//17 20//17
f 20//18 21//18 22//18
f 6//19 20//19 22//19
f 1//20 6//20 22//20
f 1//21 22//21 23//21
f 31//22 1//22 23//22
f 31//23 23//23 24//23
f 31//24 24//24 25//24
f 31//25 25//25 26//25
f 31//26 26//26 27//26
f 31//27 27//27 28//27
f 31//28 28//28 29//28
f 29//29 30//29 31//29
usemtl assumed_roof
f 32//30 34//30 33//30
f 34//31 36//31 35//31
f 34//32 37//32 36//32
f 32//33 37//33 34//33
f 37//34 39//34 38//34
f 37//35 40//35 39//35
f 37//36 41//36 40//36
f 37//37 42//37 41//37
f 42//38 44//38 43//38
f 37//39 44//39 42//39
f 37//40 45//40 44//40
f 37//41 46//41 45//41
f 37//42 47//42 46//42
f 37//43 48//43 47//43
f 37//44 49//44 48//44
f 49//45 51//45 50//45
f 37//46 51//46 49//46
f 51//47 53//47 52//47
f 37//48 53//48 51//48
f 32//49 53//49 37//49
f 32//50 54//50 53//50
f 62//51 54//51 32//51
f 62//52 55//52 54//52
f 62//53 56//53 55//53
f 62//54 57//54 56//54
f 62//55 58//55 57//55
f 62//56 59//56 58//56
f 62//57 60//57 59//57
f 60//58 62//58 61//58
usemtl assumed_wall
f 1//59 33//59 2//59
f 1//60 32//60 33//60
f 2//61 34//61 3//61
f 2//62 33//62 34//62
f 3//63 35//63 4//63
f 3//64 34//64 35//64
f 4//65 36//65 5//65
f 4//66 35//66 36//66
f 5//67 37//67 6//67
f 5//68 36//68 37//68
f 6//69 38//69 7//69
f 6//70 37//70 38//70
f 7//71 39//71 8//71
f 7//72 38//72 39//72
f 8//73 40//73 9//73
f 8//74 39//74 40//74
f 9//75 41//75 10//75
f 9//76 40//76 41//76
f 10//77 42//77 11//77
f 10//78 41//78 42//78
f 11//79 43//79 12//79
f 11//80 42//80 43//80
f 12//81 44//81 13//81
f 12//82 43//82 44//82
f 13//83 45//83 14//83
f 13//84 44//84 45//84
f 14//85 46//85 15//85
f 14//86 45//86 46//86
f 15//87 47//87 16//87
f 15//88 46//88 47//88
f 16//89 48//89 17//89
f 16//90 47//90 48//90
f 17//91 49//91 18//91
f 17//92 48//92 49//92
f 18//93 50//93 19//93
f 18//94 49//94 50//94
f 19//95 51//95 20//95
f 19//96 50//96 51//96
f 20//97 52//97 21//97
f 20//98 51//98 52//98
f 21//99 53//99 22//99
f 21//100 52//100 53//100
f 22//101 54//101 23//101
f 22//102 53//102 54//102
f 23//103 55//103 24//103
f 23//104 54//104 55//104
f 24//105 56//105 25//105
f 24//106 55//106 56//106
f 25//107 57//107 26//107
f 25//108 56//108 57//108
f 26//109 58//109 27//109
f 26//110 57//110 58//110
f 27//111 59//111 28//111
f 27//112 58//112 59//112
f 28//113 60//113 29//113
f 28//114 59//114 60//114
f 29//115 61//115 30//115
f 29//116 60//116 61//116
f 30//117 62//117 31//117
f 30//118 61//118 62//118
f 31//119 32//119 1//119
f 31//120 62//120 32//120
