# construction_1916_assumed_A_Casa
# source A_Casa
# h_campo 0.000000
# modeled_height 6.000000
# height_kind assumed
# local_origin_world_x 172001.034850
# local_origin_world_y 402500.144600
mtllib construction_artifacts.mtl

o construction_1916_assumed_A_Casa
v -0.207500 18.255500 0.000000
v 1.601500 12.764500 0.000000
v 10.416500 15.700500 0.000000
v 12.957500 9.078500 0.000000
v 15.631500 9.978500 0.000000
v 19.381500 -3.255500 0.000000
v 9.967500 -6.376500 0.000000
v 9.782500 -5.692500 0.000000
v 3.271500 -7.542500 0.000000
v 2.413500 -4.345500 0.000000
v -0.985500 -5.354500 0.000000
v 1.436500 -13.932500 0.000000
v -13.340500 -18.255500 0.000000
v -14.846500 -14.316500 0.000000
v -18.094500 -15.324500 0.000000
v -19.381500 -11.351500 0.000000
v -15.517500 -10.216500 0.000000
v -17.327500 -6.125500 0.000000
v -15.716500 -5.747500 0.000000
v -16.339500 -3.815500 0.000000
v -14.508500 -2.856500 0.000000
v -15.408500 -0.494500 0.000000
v -13.004500 0.372500 0.000000
v -15.503500 7.777500 0.000000
v -12.180500 8.786500 0.000000
v -13.198500 11.123500 0.000000
v -11.579500 11.720500 0.000000
v -12.605500 15.044500 0.000000
v -6.759500 17.366500 0.000000
v -6.322500 16.253500 0.000000
v -0.207500 18.255500 6.000000
v 1.601500 12.764500 6.000000
v 10.416500 15.700500 6.000000
v 12.957500 9.078500 6.000000
v 15.631500 9.978500 6.000000
v 19.381500 -3.255500 6.000000
v 9.967500 -6.376500 6.000000
v 9.782500 -5.692500 6.000000
v 3.271500 -7.542500 6.000000
v 2.413500 -4.345500 6.000000
v -0.985500 -5.354500 6.000000
v 1.436500 -13.932500 6.000000
v -13.340500 -18.255500 6.000000
v -14.846500 -14.316500 6.000000
v -18.094500 -15.324500 6.000000
v -19.381500 -11.351500 6.000000
v -15.517500 -10.216500 6.000000
v -17.327500 -6.125500 6.000000
v -15.716500 -5.747500 6.000000
v -16.339500 -3.815500 6.000000
v -14.508500 -2.856500 6.000000
v -15.408500 -0.494500 6.000000
v -13.004500 0.372500 6.000000
v -15.503500 7.777500 6.000000
v -12.180500 8.786500 6.000000
v -13.198500 11.123500 6.000000
v -11.579500 11.720500 6.000000
v -12.605500 15.044500 6.000000
v -6.759500 17.366500 6.000000
v -6.322500 16.253500 6.000000
v -0.050500 3.920500 0.000000
v 1.085500 0.327500 0.000000
v 6.441500 2.068500 0.000000
v 6.012500 3.772500 0.000000
v 10.963500 5.252500 0.000000
v 10.147500 7.462500 0.000000
v -0.050500 3.920500 6.000000
v 1.085500 0.327500 6.000000
v 6.441500 2.068500 6.000000
v 6.012500 3.772500 6.000000
v 10.963500 5.252500 6.000000
v 10.147500 7.462500 6.000000
vn 0.000000 0.000000 -1.000000
vn 0.000000 0.000000 -1.000000
vn 0.000000 0.000000 -1.000000
vn 0.000000 0.000000 -1.000000
vn 0.000000 0.000000 -1.000000
vn 0.000000 0.000000 -1.000000
vn 0.000000 0.000000 -1.000000
vn -0.000000 0.000000 -1.000000
vn 0.000000 0.000000 -1.000000
vn 0.000000 0.000000 -1.000000
vn 0.000000 -0.000000 -1.000000
vn 0.000000 -0.000000 -1.000000
vn 0.000000 0.000000 -1.000000
vn -0.000000 0.000000 -1.000000
vn 0.000000 0.000000 -1.000000
vn 0.000000 0.000000 -1.000000
vn 0.000000 0.000000 -1.000000
vn 0.000000 0.000000 -1.000000
vn 0.000000 0.000000 -1.000000
vn 0.000000 0.000000 -1.000000
vn 0.000000 0.000000 -1.000000
vn 0.000000 0.000000 -1.000000
vn 0.000000 0.000000 -1.000000
vn 0.000000 0.000000 -1.000000
vn 0.000000 0.000000 -1.000000
vn 0.000000 0.000000 -1.000000
vn 0.000000 0.000000 -1.000000
vn 0.000000 0.000000 -1.000000
vn 0.000000 0.000000 -1.000000
vn 0.000000 0.000000 -1.000000
vn 0.000000 0.000000 -1.000000
vn 0.000000 0.000000 -1.000000
vn -0.000000 0.000000 1.000000
vn -0.000000 0.000000 1.000000
vn -0.000000 0.000000 1.000000
vn 0.000000 0.000000 1.000000
vn 0.000000 0.000000 1.000000
vn 0.000000 0.000000 1.000000
vn 0.000000 0.000000 1.000000
vn 0.000000 0.000000 1.000000
vn 0.000000 0.000000 1.000000
vn 0.000000 0.000000 1.000000
vn 0.000000 0.000000 1.000000
vn 0.000000 0.000000 1.000000
vn 0.000000 0.000000 1.000000
vn 0.000000 0.000000 1.000000
vn 0.000000 0.000000 1.000000
vn 0.000000 0.000000 1.000000
vn 0.000000 0.000000 1.000000
vn 0.000000 -0.000000 1.000000
vn 0.000000 -0.000000 1.000000
vn 0.000000 -0.000000 1.000000
vn 0.000000 0.000000 1.000000
vn 0.000000 0.000000 1.000000
vn 0.000000 -0.000000 1.000000
vn 0.000000 0.000000 1.000000
vn 0.000000 -0.000000 1.000000
vn 0.000000 0.000000 1.000000
vn 0.000000 0.000000 1.000000
vn 0.000000 0.000000 1.000000
vn 0.000000 0.000000 1.000000
vn 0.000000 0.000000 1.000000
vn 0.000000 0.000000 1.000000
vn 0.000000 0.000000 1.000000
vn 0.949785 0.312905 0.000000
vn 0.949785 0.312905 -0.000000
vn -0.316002 0.948759 0.000000
vn -0.316002 0.948759 0.000000
vn 0.933625 0.358251 0.000000
vn 0.933625 0.358251 -0.000000
vn -0.318991 0.947758 0.000000
vn -0.318991 0.947758 0.000000
vn 0.962120 0.272627 0.000000
vn 0.962120 0.272627 -0.000000
vn 0.314685 -0.949196 0.000000
vn 0.314685 -0.949196 0.000000
vn -0.965315 -0.261087 0.000000
vn -0.965315 -0.261087 0.000000
vn 0.273316 -0.961924 0.000000
vn 0.273316 -0.961924 0.000000
vn -0.965823 -0.259204 0.000000
vn -0.965823 -0.259204 0.000000
vn 0.284578 -0.958653 0.000000
vn 0.284578 -0.958653 0.000000
vn 0.962374 0.271727 0.000000
vn 0.962374 0.271727 -0.000000
vn 0.280781 -0.959772 0.000000
vn 0.280781 -0.959772 0.000000
vn -0.934059 -0.357119 0.000000
vn -0.934059 -0.357119 0.000000
vn 0.296399 -0.955064 0.000000
vn 0.296399 -0.955064 0.000000
vn -0.951331 -0.308171 0.000000
vn -0.951331 -0.308171 0.000000
vn -0.281830 0.959464 0.000000
vn -0.281830 0.959464 0.000000
vn -0.914492 -0.404603 0.000000
vn -0.914492 -0.404603 0.000000
vn -0.228433 0.973560 0.000000
vn -0.228433 0.973560 0.000000
vn -0.951741 -0.306902 0.000000
vn -0.951741 -0.306902 0.000000
vn -0.463971 0.885850 0.000000
vn -0.463971 0.885850 0.000000
vn -0.934463 -0.356061 0.000000
vn -0.934463 -0.356061 0.000000
vn -0.339260 0.940693 0.000000
vn -0.339260 0.940693 0.000000
vn -0.947500 -0.319757 0.000000
vn -0.947500 -0.319757 0.000000
vn -0.290543 0.956862 0.000000
vn -0.290543 0.956862 0.000000
vn -0.916795 -0.399357 0.000000
vn -0.916795 -0.399357 0.000000
vn -0.345974 0.938244 0.000000
vn -0.345974 0.938244 0.000000
vn -0.955518 -0.294934 0.000000
vn -0.955518 -0.294934 0.000000
vn -0.369142 0.929373 0.000000
vn -0.369142 0.929373 0.000000
vn 0.930823 0.365471 0.000000
vn 0.930823 0.365471 -0.000000
vn -0.311141 0.950364 0.000000
vn -0.311141 0.950364 0.000000
vn -0.953478 -0.301462 0.000000
vn -0.953478 -0.301462 0.000000
vn 0.309134 -0.951018 0.000000
vn 0.309134 -0.951018 0.000000
vn 0.969739 0.244142 0.000000
vn 0.969739 0.244142 -0.000000
vn 0.286407 -0.958108 0.000000
vn 0.286407 -0.958108 0.000000
vn 0.938096 0.346374 0.000000
vn 0.938096 0.346374 -0.000000
vn -0.328097 0.944644 0.000000
vn -0.328097 0.944644 0.000000
usemtl assumed_base
f 30//1 1//1 2//1
f 2//2 3//2 4//2
f 4//3 5//3 6//3
f 2//4 4//4 6//4
f 30//5 2//5 6//5
f 6//6 7//6 8//6
f 30//7 6//7 8//7
f 8//8 9//8 10//8
f 30//9 8//9 10//9
f 30//10 10//10 11//10
f 11//11 12//11 13//11
f 30//12 11//12 13//12
f 30//13 13//13 14//13
f 14//14 15//14 16//14
f 14//15 16//15 17//15
f 30//16 14//16 17//16
f 17//17 18//17 19//17
f 19//18 20//18 21//18
f 17//19 19//19 21//19
f 21//20 22//20 23//20
f 17//21 21//21 23//21
f 30//22 17//22 23//22
f 23//23 24//23 25//23
f 30//24 23//24 25//24
f 25//25 26//25 27//25
f 30//26 25//26 27//26
f 30//27 27//27 28//27
f 28//28 29//28 30//28
f 66//29 62//29 61//29
f 62//30 64//30 63//30
f 66//31 64//31 62//31
f 64//32 66//32 65//32
usemtl assumed_roof
f 60//33 32//33 31//33
f 32//34 34//34 33//34
f 34//35 36//35 35//35
f 32//36 36//36 34//36
f 60//37 36//37 32//37
f 36//38 38//38 37//38
f 60//39 38//39 36//39
f 38//40 40//40 39//40
f 60//41 40//41 38//41
f 60//42 41//42 40//42
f 41//43 43//43 42//43
f 60//44 43//44 41//44
f 60//45 44//45 43//45
f 44//46 46//46 45//46
f 44//47 47//47 46//47
f 60//48 47//48 44//48
f 47//49 49//49 48//49
f 49//50 51//50 50//50
f 47//51 51//51 49//51
f 51//52 53//52 52//52
f 47//53 53//53 51//53
f 60//54 53//54 47//54
f 53//55 55//55 54//55
f 60//56 55//56 53//56
f 55//57 57//57 56//57
f 60//58 57//58 55//58
f 60//59 58//59 57//59
f 58//60 60//60 59//60
f 72//61 67//61 68//61
f 68//62 69//62 70//62
f 72//63 68//63 70//63
f 70//64 71//64 72//64
usemtl assumed_wall
f 1//65 32//65 2//65
f 1//66 31//66 32//66
f 2//67 33//67 3//67
f 2//68 32//68 33//68
f 3//69 34//69 4//69
f 3//70 33//70 34//70
f 4//71 35//71 5//71
f 4//72 34//72 35//72
f 5//73 36//73 6//73
f 5//74 35//74 36//74
f 6//75 37//75 7//75
f 6//76 36//76 37//76
f 7//77 38//77 8//77
f 7//78 37//78 38//78
f 8//79 39//79 9//79
f 8//80 38//80 39//80
f 9//81 40//81 10//81
f 9//82 39//82 40//82
f 10//83 41//83 11//83
f 10//84 40//84 41//84
f 11//85 42//85 12//85
f 11//86 41//86 42//86
f 12//87 43//87 13//87
f 12//88 42//88 43//88
f 13//89 44//89 14//89
f 13//90 43//90 44//90
f 14//91 45//91 15//91
f 14//92 44//92 45//92
f 15//93 46//93 16//93
f 15//94 45//94 46//94
f 16//95 47//95 17//95
f 16//96 46//96 47//96
f 17//97 48//97 18//97
f 17//98 47//98 48//98
f 18//99 49//99 19//99
f 18//100 48//100 49//100
f 19//101 50//101 20//101
f 19//102 49//102 50//102
f 20//103 51//103 21//103
f 20//104 50//104 51//104
f 21//105 52//105 22//105
f 21//106 51//106 52//106
f 22//107 53//107 23//107
f 22//108 52//108 53//108
f 23//109 54//109 24//109
f 23//110 53//110 54//110
f 24//111 55//111 25//111
f 24//112 54//112 55//112
f 25//113 56//113 26//113
f 25//114 55//114 56//114
f 26//115 57//115 27//115
f 26//116 56//116 57//116
f 27//117 58//117 28//117
f 27//118 57//118 58//118
f 28//119 59//119 29//119
f 28//120 58//120 59//120
f 29//121 60//121 30//121
f 29//122 59//122 60//122
f 30//123 31//123 1//123
f 30//124 60//124 31//124
f 61//125 62//125 68//125
f 61//126 68//126 67//126
f 62//127 63//127 69//127
f 62//128 69//128 68//128
f 63//129 64//129 70//129
f 63//130 70//130 69//130
f 64//131 65//131 71//131
f 64//132 71//132 70//132
f 65//133 66//133 72//133
f 65//134 72//134 71//134
f 66//135 61//135 67//135
f 66//136 67//136 72//136
