# construction_4680_assumed_A_Casa
# source A_Casa
# h_campo 0.000000
# modeled_height 6.000000
# height_kind assumed
# local_origin_world_x 172001.034850
# local_origin_world_y 402500.144600
mtllib construction_artifacts.mtl

o construction_4680_assumed_A_Casa
v -12.604000 -9.291500 0.000000
v -13.419000 -2.735500 0.000000
v -12.622000 -2.645500 0.000000
v -13.255000 2.028500 0.000000
v -8.847000 2.913500 0.000000
v -10.039000 8.634500 0.000000
v 8.516000 10.974500 0.000000
v 9.069000 3.355500 0.000000
v 11.595000 3.640500 0.000000
v 13.419000 -10.783500 0.000000
v 8.516000 -10.974500 0.000000
v 7.695000 -6.466500 0.000000
v -12.604000 -9.291500 6.000000
v -13.419000 -2.735500 6.000000
v -12.622000 -2.645500 6.000000
v -13.255000 2.028500 6.000000
v -8.847000 2.913500 6.000000
v -10.039000 8.634500 6.000000
v 8.516000 10.974500 6.000000
v 9.069000 3.355500 6.000000
v 11.595000 3.640500 6.000000
v 13.419000 -10.783500 6.000000
v 8.516000 -10.974500 6.000000
v 7.695000 -6.466500 6.000000
vn -0.000000 0.000000 -1.000000
vn 0.000000 0.000000 -1.000000
vn 0.000000 0.000000 -1.000000
vn 0.000000 0.000000 -1.000000
vn 0.000000 0.000000 -1.000000
vn 0.000000 0.000000 -1.000000
vn 0.000000 0.000000 -1.000000
vn 0.000000 0.000000 -1.000000
vn 0.000000 0.000000 -1.000000
vn -0.000000 0.000000 -1.000000
vn 0.000000 0.000000 1.000000
vn 0.000000 0.000000 1.000000
vn 0.000000 0.000000 1.000000
vn 0.000000 0.000000 1.000000
vn 0.000000 0.000000 1.000000
vn 0.000000 -0.000000 1.000000
vn 0.000000 0.000000 1.000000
vn 0.000000 0.000000 1.000000
vn -0.000000 0.000000 1.000000
vn 0.000000 0.000000 1.000000
vn -0.992361 -0.123364 0.000000
vn -0.992361 -0.123364 0.000000
vn -0.112210 0.993684 0.000000
vn -0.112210 0.993684 0.000000
vn -0.990954 -0.134205 0.000000
vn -0.990954 -0.134205 0.000000
vn -0.196843 0.980435 0.000000
vn -0.196843 0.980435 0.000000
vn -0.978976 -0.203975 0.000000
vn -0.978976 -0.203975 0.000000
vn -0.125121 0.992142 0.000000
vn -0.125121 0.992142 0.000000
vn 0.997376 0.072391 0.000000
vn 0.997376 0.072391 -0.000000
vn -0.112115 0.993695 0.000000
vn -0.112115 0.993695 0.000000
vn 0.992099 0.125457 0.000000
vn 0.992099 0.125457 -0.000000
vn 0.038926 -0.999242 0.000000
vn 0.038926 -0.999242 0.000000
vn -0.983817 -0.179174 0.000000
vn -0.983817 -0.179174 0.000000
vn 0.137841 -0.990454 0.000000
vn 0.137841 -0.990454 0.000000
usemtl assumed_base
f 12//1 1//1 2//1
f 12//2 2//2 3//2
f 12//3 3//3 4//3
f 12//4 4//4 5//4
f 12//5 5//5 6//5
f 12//6 6//6 7//6
f 12//7 7//7 8//7
f 12//8 8//8 9//8
f 12//9 9//9 10//9
f 10//10 11//10 12//10
usemtl assumed_roof
f 24//11 14//11 13//11
f 24//12 15//12 14//12
f 24//13 16//13 15//13
f 24//14 17//14 16//14
f 24//15 18//15 17//15
f 24//16 19//16 18//16
f 24//17 20//17 19//17
f 24//18 21//18 20//18
f 24//19 22//19 21//19
f 22//20 24//20 23//20
usemtl assumed_wall
f 1//21 14//21 2//21
f 1//22 13//22 14//22
f 2//23 15//23 3//23
f 2//24 14//24 15//24
f 3//25 16//25 4//25
f 3//26 15//26 16//26
f 4//27 17//27 5//27
f 4//28 16//28 17//28
f 5//29 18//29 6//29
f 5//30 17//30 18//30
f 6//31 19//31 7//31
f 6//32 18//32 19//32
f 7//33 20//33 8//33
f 7//34 19//34 20//34
f 8//35 21//35 9//35
f 8//36 20//36 21//36
f 9//37 22//37 10//37
f 9//38 21//38 22//38
f 10//39 23//39 11//39
f 10//40 22//40 23//40
f 11//41 24//41 12//41
f 11//42 23//42 24//42
f 12//43 13//43 1//43
f 12//44 24//44 13//44
