# construction_2378_assumed_A_Casa
# source A_Casa
# h_campo 0.000000
# modeled_height 6.000000
# height_kind assumed
# local_origin_world_x 172001.034850
# local_origin_world_y 402500.144600
mtllib construction_artifacts.mtl

o construction_2378_assumed_A_Casa
v 2.703000 7.290500 0.000000
v 2.717000 0.562500 0.000000
v -2.143000 0.481500 0.000000
v -2.289000 -3.985500 0.000000
v 6.941000 -3.966500 0.000000
v 6.920000 -0.693500 0.000000
v 10.657000 -0.685500 0.000000
v 10.671000 -7.118500 0.000000
v -10.344000 -7.290500 0.000000
v -9.912000 0.759500 0.000000
v -10.671000 0.757500 0.000000
v -10.643000 7.262500 0.000000
v 2.703000 7.290500 6.000000
v 2.717000 0.562500 6.000000
v -2.143000 0.481500 6.000000
v -2.289000 -3.985500 6.000000
v 6.941000 -3.966500 6.000000
v 6.920000 -0.693500 6.000000
v 10.657000 -0.685500 6.000000
v 10.671000 -7.118500 6.000000
v -10.344000 -7.290500 6.000000
v -9.912000 0.759500 6.000000
v -10.671000 0.757500 6.000000
v -10.643000 7.262500 6.000000
vn 0.000000 0.000000 -1.000000
vn 0.000000 0.000000 -1.000000
vn 0.000000 0.000000 -1.000000
vn 0.000000 0.000000 -1.000000
vn 0.000000 0.000000 -1.000000
vn 0.000000 0.000000 -1.000000
vn 0.000000 -0.000000 -1.000000
vn -0.000000 0.000000 -1.000000
vn 0.000000 0.000000 -1.000000
vn -0.000000 0.000000 -1.000000
vn -0.000000 0.000000 1.000000
vn 0.000000 0.000000 1.000000
vn 0.000000 0.000000 1.000000
vn 0.000000 -0.000000 1.000000
vn -0.000000 0.000000 1.000000
vn -0.000000 0.000000 1.000000
vn 0.000000 0.000000 1.000000
vn 0.000000 0.000000 1.000000
vn 0.000000 0.000000 1.000000
vn 0.000000 0.000000 1.000000
vn 0.999998 0.002081 0.000000
vn 0.999998 0.002081 -0.000000
vn 0.016664 -0.999861 0.000000
vn 0.016664 -0.999861 0.000000
vn 0.999466 -0.032667 0.000000
vn 0.999466 -0.032667 0.000000
vn -0.002059 0.999998 0.000000
vn -0.002059 0.999998 0.000000
vn -0.999979 -0.006416 0.000000
vn -0.999979 -0.006416 0.000000
vn -0.002141 0.999998 0.000000
vn -0.002141 0.999998 0.000000
vn 0.999998 0.002176 0.000000
vn 0.999998 0.002176 -0.000000
vn 0.008184 -0.999967 0.000000
vn 0.008184 -0.999967 0.000000
vn -0.998563 0.053587 0.000000
vn -0.998563 0.053587 0.000000
vn 0.002635 -0.999997 0.000000
vn 0.002635 -0.999997 0.000000
vn -0.999991 0.004304 0.000000
vn -0.999991 0.004304 0.000000
vn -0.002098 0.999998 0.000000
vn -0.002098 0.999998 0.000000
usemtl assumed_base
f 12//1 1//1 2//1
f 12//2 2//2 3//2
f 12//3 3//3 4//3
f 5//4 6//4 7//4
f 5//5 7//5 8//5
f 4//6 5//6 8//6
f 4//7 8//7 9//7
f 4//8 9//8 10//8
f 12//9 4//9 10//9
f 10//10 11//10 12//10
usemtl assumed_roof
f 24//11 14//11 13//11
f 24//12 15//12 14//12
f 24//13 16//13 15//13
f 17//14 19//14 18//14
f 17//15 20//15 19//15
f 16//16 20//16 17//16
f 16//17 21//17 20//17
f 16//18 22//18 21//18
f 24//19 22//19 16//19
f 22//20 24//20 23//20
usemtl assumed_wall
f 1//21 14//21 2//21
f 1//22 13//22 14//22
f 2//23 15//23 3//23
f 2//24 14//24 15//24
f 3//25 16//25 4//25
f 3//26 15//26 16//26
f 4//27 17//27 5//27
f 4//28 16//28 17//28
f 5//29 18//29 6//29
f 5//30 17//30 18//30
f 6//31 19//31 7//31
f 6//32 18//32 19//32
f 7//33 20//33 8//33
f 7//34 19//34 20//34
f 8//35 21//35 9//35
f 8//36 20//36 21//36
f 9//37 22//37 10//37
f 9//38 21//38 22//38
f 10//39 23//39 11//39
f 10//40 22//40 23//40
f 11//41 24//41 12//41
f 11//42 23//42 24//42
f 12//43 13//43 1//43
f 12//44 24//44 13//44
