# construction_5976_assumed_A_Casa
# source A_Casa
# h_campo 0.000000
# modeled_height 6.000000
# height_kind assumed
# local_origin_world_x 172001.034850
# local_origin_world_y 402500.144600
mtllib construction_artifacts.mtl

o construction_5976_assumed_A_Casa
v -8.705500 -0.463500 0.000000
v -6.360500 4.133500 0.000000
v -3.129500 10.694500 0.000000
v 6.900500 5.935500 0.000000
v 5.636500 3.626500 0.000000
v 8.705500 2.161500 0.000000
v 6.735500 -3.220500 0.000000
v 1.456500 -0.744500 0.000000
v 0.233500 -4.704500 0.000000
v 4.369500 -6.123500 0.000000
v 3.348500 -9.436500 0.000000
v -0.846500 -7.462500 0.000000
v -0.828500 -10.694500 0.000000
v -2.529500 -10.581500 0.000000
v -7.286500 -8.447500 0.000000
v -4.426500 -2.366500 0.000000
v -8.705500 -0.463500 6.000000
v -6.360500 4.133500 6.000000
v -3.129500 10.694500 6.000000
v 6.900500 5.935500 6.000000
v 5.636500 3.626500 6.000000
v 8.705500 2.161500 6.000000
v 6.735500 -3.220500 6.000000
v 1.456500 -0.744500 6.000000
v 0.233500 -4.704500 6.000000
v 4.369500 -6.123500 6.000000
v 3.348500 -9.436500 6.000000
v -0.846500 -7.462500 6.000000
v -0.828500 -10.694500 6.000000
v -2.529500 -10.581500 6.000000
v -7.286500 -8.447500 6.000000
v -4.426500 -2.366500 6.000000
vn 0.000000 0.000000 -1.000000
vn 0.000000 0.000000 -1.000000
vn 0.000000 0.000000 -1.000000
vn 0.000000 0.000000 -1.000000
vn 0.000000 0.000000 -1.000000
vn 0.000000 0.000000 -1.000000
vn 0.000000 0.000000 -1.000000
vn 0.000000 0.000000 -1.000000
vn 0.000000 0.000000 -1.000000
vn 0.000000 0.000000 -1.000000
vn 0.000000 0.000000 -1.000000
vn 0.000000 0.000000 -1.000000
vn 0.000000 0.000000 -1.000000
vn 0.000000 0.000000 -1.000000
vn 0.000000 0.000000 1.000000
vn 0.000000 -0.000000 1.000000
vn 0.000000 0.000000 1.000000
vn 0.000000 0.000000 1.000000
vn 0.000000 0.000000 1.000000
vn 0.000000 0.000000 1.000000
vn 0.000000 0.000000 1.000000
vn -0.000000 0.000000 1.000000
vn 0.000000 0.000000 1.000000
vn 0.000000 0.000000 1.000000
vn 0.000000 0.000000 1.000000
vn 0.000000 0.000000 1.000000
vn 0.000000 0.000000 1.000000
vn 0.000000 0.000000 1.000000
vn -0.890794 0.454408 0.000000
vn -0.890794 0.454408 0.000000
vn -0.897118 0.441791 0.000000
vn -0.897118 0.441791 0.000000
vn 0.428671 0.903461 0.000000
vn 0.428671 0.903461 -0.000000
vn 0.877169 -0.480182 0.000000
vn 0.877169 -0.480182 0.000000
vn 0.430789 0.902452 0.000000
vn 0.430789 0.902452 -0.000000
vn 0.939068 -0.343732 0.000000
vn 0.939068 -0.343732 0.000000
vn -0.424640 -0.905362 0.000000
vn -0.424640 -0.905362 0.000000
vn 0.955471 -0.295086 0.000000
vn 0.955471 -0.295086 0.000000
vn 0.324517 0.945880 0.000000
vn 0.324517 0.945880 -0.000000
vn 0.955648 -0.294511 0.000000
vn 0.955648 -0.294511 0.000000
vn -0.425776 -0.904828 0.000000
vn -0.425776 -0.904828 0.000000
vn 0.999984 0.005569 0.000000
vn 0.999984 0.005569 -0.000000
vn -0.066285 -0.997801 0.000000
vn -0.066285 -0.997801 0.000000
vn -0.409304 -0.912398 0.000000
vn -0.409304 -0.912398 0.000000
vn -0.904913 0.425596 0.000000
vn -0.904913 0.425596 0.000000
vn -0.406356 -0.913715 0.000000
vn -0.406356 -0.913715 0.000000
usemtl assumed_base
f 16//1 1//1 2//1
f 16//2 2//2 3//2
f 16//3 3//3 4//3
f 16//4 4//4 5//4
f 16//5 5//5 6//5
f 6//6 7//6 8//6
f 16//7 6//7 8//7
f 16//8 8//8 9//8
f 9//9 10//9 11//9
f 16//10 9//10 11//10
f 16//11 11//11 12//11
f 16//12 12//12 13//12
f 16//13 13//13 14//13
f 14//14 15//14 16//14
usemtl assumed_roof
f 32//15 18//15 17//15
f 32//16 19//16 18//16
f 32//17 20//17 19//17
f 32//18 21//18 20//18
f 32//19 22//19 21//19
f 22//20 24//20 23//20
f 32//21 24//21 22//21
f 32//22 25//22 24//22
f 25//23 27//23 26//23
f 32//24 27//24 25//24
f 32//25 28//25 27//25
f 32//26 29//26 28//26
f 32//27 30//27 29//27
f 30//28 32//28 31//28
usemtl assumed_wall
f 1//29 18//29 2//29
f 1//30 17//30 18//30
f 2//31 19//31 3//31
f 2//32 18//32 19//32
f 3//33 20//33 4//33
f 3//34 19//34 20//34
f 4//35 21//35 5//35
f 4//36 20//36 21//36
f 5//37 22//37 6//37
f 5//38 21//38 22//38
f 6//39 23//39 7//39
f 6//40 22//40 23//40
f 7//41 24//41 8//41
f 7//42 23//42 24//42
f 8//43 25//43 9//43
f 8//44 24//44 25//44
f 9//45 26//45 10//45
f 9//46 25//46 26//46
f 10//47 27//47 11//47
f 10//48 26//48 27//48
f 11//49 28//49 12//49
f 11//50 27//50 28//50
f 12//51 29//51 13//51
f 12//52 28//52 29//52
f 13//53 30//53 14//53
f 13//54 29//54 30//54
f 14//55 31//55 15//55
f 14//56 30//56 31//56
f 15//57 32//57 16//57
f 15//58 31//58 32//58
f 16//59 17//59 1//59
f 16//60 32//60 17//60
