# construction_2521_assumed_A_Casa
# source A_Casa
# h_campo 0.000000
# modeled_height 6.000000
# height_kind assumed
# local_origin_world_x 172001.034850
# local_origin_world_y 402500.144600
mtllib construction_artifacts.mtl

o construction_2521_assumed_A_Casa
v -15.066000 1.311000 0.000000
v 11.437000 15.948000 0.000000
v 15.066000 2.088000 0.000000
v 10.995000 0.026000 0.000000
v 7.899000 5.306000 0.000000
v 0.314000 1.052000 0.000000
v -0.284000 2.651000 0.000000
v -4.774000 0.284000 0.000000
v -4.058000 -11.332000 0.000000
v -9.869000 -15.948000 0.000000
v -14.263000 -14.165000 0.000000
v -15.066000 1.311000 6.000000
v 11.437000 15.948000 6.000000
v 15.066000 2.088000 6.000000
v 10.995000 0.026000 6.000000
v 7.899000 5.306000 6.000000
v 0.314000 1.052000 6.000000
v -0.284000 2.651000 6.000000
v -4.774000 0.284000 6.000000
v -4.058000 -11.332000 6.000000
v -9.869000 -15.948000 6.000000
v -14.263000 -14.165000 6.000000
vn 0.000000 -0.000000 -1.000000
vn 0.000000 0.000000 -1.000000
vn 0.000000 0.000000 -1.000000
vn 0.000000 0.000000 -1.000000
vn 0.000000 0.000000 -1.000000
vn 0.000000 0.000000 -1.000000
vn 0.000000 0.000000 -1.000000
vn 0.000000 0.000000 -1.000000
vn 0.000000 0.000000 -1.000000
vn 0.000000 0.000000 1.000000
vn 0.000000 0.000000 1.000000
vn 0.000000 0.000000 1.000000
vn 0.000000 0.000000 1.000000
vn 0.000000 0.000000 1.000000
vn -0.000000 0.000000 1.000000
vn 0.000000 -0.000000 1.000000
vn 0.000000 0.000000 1.000000
vn 0.000000 0.000000 1.000000
vn -0.483448 0.875373 0.000000
vn -0.483448 0.875373 0.000000
vn 0.967389 0.253294 0.000000
vn 0.967389 0.253294 -0.000000
vn 0.451853 -0.892092 0.000000
vn 0.451853 -0.892092 0.000000
vn -0.862639 -0.505820 0.000000
vn -0.862639 -0.505820 0.000000
vn 0.489164 -0.872192 0.000000
vn 0.489164 -0.872192 0.000000
vn -0.936642 -0.350289 0.000000
vn -0.936642 -0.350289 0.000000
vn 0.466339 -0.884606 0.000000
vn 0.466339 -0.884606 0.000000
vn 0.998106 0.061522 0.000000
vn 0.998106 0.061522 -0.000000
vn 0.621996 -0.783020 0.000000
vn 0.621996 -0.783020 0.000000
vn -0.376004 -0.926618 0.000000
vn -0.376004 -0.926618 0.000000
vn -0.998657 -0.051817 0.000000
vn -0.998657 -0.051817 0.000000
usemtl assumed_base
f 2//1 3//1 4//1
f 2//2 4//2 5//2
f 1//3 2//3 5//3
f 5//4 6//4 7//4
f 1//5 5//5 7//5
f 1//6 7//6 8//6
f 11//7 1//7 8//7
f 11//8 8//8 9//8
f 9//9 10//9 11//9
usemtl assumed_roof
f 13//10 15//10 14//10
f 13//11 16//11 15//11
f 12//12 16//12 13//12
f 16//13 18//13 17//13
f 12//14 18//14 16//14
f 12//15 19//15 18//15
f 22//16 19//16 12//16
f 22//17 20//17 19//17
f 20//18 22//18 21//18
usemtl assumed_wall
f 1//19 13//19 2//19
f 1//20 12//20 13//20
f 2//21 14//21 3//21
f 2//22 13//22 14//22
f 3//23 15//23 4//23
f 3//24 14//24 15//24
f 4//25 16//25 5//25
f 4//26 15//26 16//26
f 5//27 17//27 6//27
f 5//28 16//28 17//28
f 6//29 18//29 7//29
f 6//30 17//30 18//30
f 7//31 19//31 8//31
f 7//32 18//32 19//32
f 8//33 20//33 9//33
f 8//34 19//34 20//34
f 9//35 21//35 10//35
f 9//36 20//36 21//36
f 10//37 22//37 11//37
f 10//38 21//38 22//38
f 11//39 12//39 1//39
f 11//40 22//40 12//40
