# construction_2298_assumed_A_Casa
# source A_Casa
# h_campo 0.000000
# modeled_height 6.000000
# height_kind assumed
# local_origin_world_x 172001.034850
# local_origin_world_y 402500.144600
mtllib construction_artifacts.mtl

o construction_2298_assumed_A_Casa
v -8.175000 3.006000 0.000000
v -0.465000 3.895000 0.000000
v -0.551000 5.626000 0.000000
v 6.324000 6.417000 0.000000
v 8.175000 -2.091000 0.000000
v 5.548000 -2.243000 0.000000
v 5.502000 -5.273000 0.000000
v -6.782000 -6.417000 0.000000
v -8.175000 3.006000 6.000000
v -0.465000 3.895000 6.000000
v -0.551000 5.626000 6.000000
v 6.324000 6.417000 6.000000
v 8.175000 -2.091000 6.000000
v 5.548000 -2.243000 6.000000
v 5.502000 -5.273000 6.000000
v -6.782000 -6.417000 6.000000
vn 0.000000 0.000000 -1.000000
vn 0.000000 0.000000 -1.000000
vn 0.000000 0.000000 -1.000000
vn 0.000000 -0.000000 -1.000000
vn 0.000000 0.000000 -1.000000
vn 0.000000 0.000000 -1.000000
vn 0.000000 -0.000000 1.000000
vn 0.000000 -0.000000 1.000000
vn 0.000000 0.000000 1.000000
vn 0.000000 0.000000 1.000000
vn 0.000000 0.000000 1.000000
vn 0.000000 0.000000 1.000000
vn -0.114546 0.993418 0.000000
vn -0.114546 0.993418 0.000000
vn -0.998768 -0.049621 0.000000
vn -0.998768 -0.049621 0.000000
vn -0.114301 0.993446 0.000000
vn -0.114301 0.993446 0.000000
vn 0.977142 0.212587 0.000000
vn 0.977142 0.212587 -0.000000
vn 0.057764 -0.998330 0.000000
vn 0.057764 -0.998330 0.000000
vn 0.999885 -0.015180 0.000000
vn 0.999885 -0.015180 0.000000
vn 0.092728 -0.995691 0.000000
vn 0.092728 -0.995691 0.000000
vn -0.989249 -0.146240 0.000000
vn -0.989249 -0.146240 0.000000
usemtl assumed_base
f 8//1 1//1 2//1
f 2//2 3//2 4//2
f 8//3 2//3 4//3
f 4//4 5//4 6//4
f 8//5 4//5 6//5
f 6//6 7//6 8//6
usemtl assumed_roof
f 16//7 10//7 9//7
f 10//8 12//8 11//8
f 16//9 12//9 10//9
f 12//10 14//10 13//10
f 16//11 14//11 12//11
f 14//12 16//12 15//12
usemtl assumed_wall
f 1//13 10//13 2//13
f 1//14 9//14 10//14
f 2//15 11//15 3//15
f 2//16 10//16 11//16
f 3//17 12//17 4//17
f 3//18 11//18 12//18
f 4//19 13//19 5//19
f 4//20 12//20 13//20
f 5//21 14//21 6//21
f 5//22 13//22 14//22
f 6//23 15//23 7//23
f 6//24 14//24 15//24
f 7//25 16//25 8//25
f 7//26 15//26 16//26
f 8//27 9//27 1//27
f 8//28 16//28 9//28
