# construction_4940_assumed_A_Casa
# source A_Casa
# h_campo 0.000000
# modeled_height 6.000000
# height_kind assumed
# local_origin_world_x 172001.034850
# local_origin_world_y 402500.144600
mtllib construction_artifacts.mtl

o construction_4940_assumed_A_Casa
v -11.469500 10.021500 0.000000
v -1.266500 10.559500 0.000000
v -0.160500 2.432500 0.000000
v 10.628500 5.990500 0.000000
v 11.469500 -5.711500 0.000000
v 0.821500 -8.516500 0.000000
v 0.869500 -9.539500 0.000000
v -9.584500 -10.559500 0.000000
v -11.469500 10.021500 6.000000
v -1.266500 10.559500 6.000000
v -0.160500 2.432500 6.000000
v 10.628500 5.990500 6.000000
v 11.469500 -5.711500 6.000000
v 0.821500 -8.516500 6.000000
v 0.869500 -9.539500 6.000000
v -9.584500 -10.559500 6.000000
vn 0.000000 0.000000 -1.000000
vn 0.000000 0.000000 -1.000000
vn 0.000000 0.000000 -1.000000
vn 0.000000 0.000000 -1.000000
vn 0.000000 0.000000 -1.000000
vn 0.000000 -0.000000 -1.000000
vn 0.000000 -0.000000 1.000000
vn 0.000000 0.000000 1.000000
vn 0.000000 0.000000 1.000000
vn 0.000000 0.000000 1.000000
vn 0.000000 0.000000 1.000000
vn 0.000000 0.000000 1.000000
vn -0.052656 0.998613 0.000000
vn -0.052656 0.998613 0.000000
vn 0.990866 0.134847 0.000000
vn 0.990866 0.134847 -0.000000
vn -0.313189 0.949691 0.000000
vn -0.313189 0.949691 0.000000
vn 0.997427 0.071683 0.000000
vn 0.997427 0.071683 -0.000000
vn 0.254739 -0.967010 0.000000
vn 0.254739 -0.967010 0.000000
vn 0.998901 0.046869 0.000000
vn 0.998901 0.046869 -0.000000
vn 0.097109 -0.995274 0.000000
vn 0.097109 -0.995274 0.000000
vn -0.995832 -0.091208 0.000000
vn -0.995832 -0.091208 0.000000
usemtl assumed_base
f 8//1 1//1 2//1
f 8//2 2//2 3//2
f 8//3 3//3 4//3
f 8//4 4//4 5//4
f 8//5 5//5 6//5
f 6//6 7//6 8//6
usemtl assumed_roof
f 16//7 10//7 9//7
f 16//8 11//8 10//8
f 16//9 12//9 11//9
f 16//10 13//10 12//10
f 16//11 14//11 13//11
f 14//12 16//12 15//12
usemtl assumed_wall
f 1//13 10//13 2//13
f 1//14 9//14 10//14
f 2//15 11//15 3//15
f 2//16 10//16 11//16
f 3//17 12//17 4//17
f 3//18 11//18 12//18
f 4//19 13//19 5//19
f 4//20 12//20 13//20
f 5//21 14//21 6//21
f 5//22 13//22 14//22
f 6//23 15//23 7//23
f 6//24 14//24 15//24
f 7//25 16//25 8//25
f 7//26 15//26 16//26
f 8//27 9//27 1//27
f 8//28 16//28 9//28
