# construction_0145_assumed_A_Grande_construcao
# source A_Grande_construcao
# h_campo 0.000000
# modeled_height 6.000000
# height_kind assumed
# local_origin_world_x 172001.034850
# local_origin_world_y 402500.144600
mtllib construction_artifacts.mtl

o construction_0145_assumed_A_Grande_construcao
v -40.692500 63.374000 0.000000
v -22.382500 53.619000 0.000000
v -27.173500 44.638000 0.000000
v -10.279500 35.070000 0.000000
v -5.486500 44.029000 0.000000
v 65.249500 5.449000 0.000000
v 60.432500 -2.878000 0.000000
v 74.282500 -9.921000 0.000000
v 44.835500 -63.374000 0.000000
v 31.591500 -56.045000 0.000000
v 30.409500 -58.077000 0.000000
v 19.920500 -52.383000 0.000000
v 21.079500 -50.089000 0.000000
v -74.282500 1.336000 0.000000
v -40.692500 63.374000 6.000000
v -22.382500 53.619000 6.000000
v -27.173500 44.638000 6.000000
v -10.279500 35.070000 6.000000
v -5.486500 44.029000 6.000000
v 65.249500 5.449000 6.000000
v 60.432500 -2.878000 6.000000
v 74.282500 -9.921000 6.000000
v 44.835500 -63.374000 6.000000
v 31.591500 -56.045000 6.000000
v 30.409500 -58.077000 6.000000
v 19.920500 -52.383000 6.000000
v 21.079500 -50.089000 6.000000
v -74.282500 1.336000 6.000000
vn 0.000000 0.000000 -1.000000
vn 0.000000 0.000000 -1.000000
vn 0.000000 0.000000 -1.000000
vn 0.000000 0.000000 -1.000000
vn 0.000000 0.000000 -1.000000
vn 0.000000 0.000000 -1.000000
vn 0.000000 0.000000 -1.000000
vn 0.000000 0.000000 -1.000000
vn -0.000000 0.000000 -1.000000
vn 0.000000 0.000000 -1.000000
vn 0.000000 0.000000 -1.000000
vn -0.000000 0.000000 -1.000000
vn 0.000000 0.000000 1.000000
vn 0.000000 0.000000 1.000000
vn 0.000000 0.000000 1.000000
vn -0.000000 0.000000 1.000000
vn 0.000000 0.000000 1.000000
vn -0.000000 0.000000 1.000000
vn 0.000000 0.000000 1.000000
vn 0.000000 0.000000 1.000000
vn 0.000000 0.000000 1.000000
vn 0.000000 0.000000 1.000000
vn 0.000000 0.000000 1.000000
vn 0.000000 0.000000 1.000000
vn 0.470200 0.882560 0.000000
vn 0.470200 0.882560 -0.000000
vn 0.882307 -0.470675 0.000000
vn 0.882307 -0.470675 0.000000
vn 0.492807 0.870139 0.000000
vn 0.492807 0.870139 -0.000000
vn -0.881745 0.471727 0.000000
vn -0.881745 0.471727 0.000000
vn 0.478821 0.877913 0.000000
vn 0.478821 0.877913 -0.000000
vn 0.865602 -0.500733 0.000000
vn 0.865602 -0.500733 0.000000
vn 0.453279 0.891369 0.000000
vn 0.453279 0.891369 -0.000000
vn 0.875885 -0.482521 0.000000
vn 0.875885 -0.482521 0.000000
vn -0.484189 -0.874963 0.000000
vn -0.484189 -0.874963 0.000000
vn 0.864395 -0.502813 0.000000
vn 0.864395 -0.502813 0.000000
vn -0.477090 -0.878854 0.000000
vn -0.477090 -0.878854 0.000000
vn -0.892552 0.450945 0.000000
vn -0.892552 0.450945 0.000000
vn -0.474645 -0.880177 0.000000
vn -0.474645 -0.880177 0.000000
vn -0.879375 0.476131 0.000000
vn -0.879375 0.476131 0.000000
usemtl assumed_base
f 14//1 1//1 2//1
f 14//2 2//2 3//2
f 14//3 3//3 4//3
f 4//4 5//4 6//4
f 14//5 4//5 6//5
f 14//6 6//6 7//6
f 14//7 7//7 8//7
f 8//8 9//8 10//8
f 10//9 11//9 12//9
f 8//10 10//10 12//10
f 8//11 12//11 13//11
f 8//12 13//12 14//12
usemtl assumed_roof
f 28//13 16//13 15//13
f 28//14 17//14 16//14
f 28//15 18//15 17//15
f 18//16 20//16 19//16
f 28//17 20//17 18//17
f 28//18 21//18 20//18
f 28//19 22//19 21//19
f 22//20 24//20 23//20
f 24//21 26//21 25//21
f 22//22 26//22 24//22
f 22//23 27//23 26//23
f 22//24 28//24 27//24
usemtl assumed_wall
f 1//25 16//25 2//25
f 1//26 15//26 16//26
f 2//27 17//27 3//27
f 2//28 16//28 17//28
f 3//29 18//29 4//29
f 3//30 17//30 18//30
f 4//31 19//31 5//31
f 4//32 18//32 19//32
f 5//33 20//33 6//33
f 5//34 19//34 20//34
f 6//35 21//35 7//35
f 6//36 20//36 21//36
f 7//37 22//37 8//37
f 7//38 21//38 22//38
f 8//39 23//39 9//39
f 8//40 22//40 23//40
f 9//41 24//41 10//41
f 9//42 23//42 24//42
f 10//43 25//43 11//43
f 10//44 24//44 25//44
f 11//45 26//45 12//45
f 11//46 25//46 26//46
f 12//47 27//47 13//47
f 12//48 26//48 27//48
f 13//49 28//49 14//49
f 13//50 27//50 28//50
f 14//51 15//51 1//51
f 14//52 28//52 15//52
