# construction_3561_assumed_A_Casa
# source A_Casa
# h_campo 0.000000
# modeled_height 6.000000
# height_kind assumed
# local_origin_world_x 172001.034850
# local_origin_world_y 402500.144600
mtllib construction_artifacts.mtl

o construction_3561_assumed_A_Casa
v -14.577000 26.710000 0.000000
v -8.653000 27.657000 0.000000
v -5.763000 16.760000 0.000000
v -2.122000 17.408000 0.000000
v 0.553000 3.512000 0.000000
v -4.625000 1.934000 0.000000
v -2.692000 -6.542000 0.000000
v 0.015000 -5.831000 0.000000
v 1.088000 -8.972000 0.000000
v 10.629000 -5.596000 0.000000
v 14.577000 -21.247000 0.000000
v 9.488000 -22.707000 0.000000
v 3.110000 -27.657000 0.000000
v -4.415000 -17.504000 0.000000
v -9.694000 0.738000 0.000000
v -14.577000 26.710000 6.000000
v -8.653000 27.657000 6.000000
v -5.763000 16.760000 6.000000
v -2.122000 17.408000 6.000000
v 0.553000 3.512000 6.000000
v -4.625000 1.934000 6.000000
v -2.692000 -6.542000 6.000000
v 0.015000 -5.831000 6.000000
v 1.088000 -8.972000 6.000000
v 10.629000 -5.596000 6.000000
v 14.577000 -21.247000 6.000000
v 9.488000 -22.707000 6.000000
v 3.110000 -27.657000 6.000000
v -4.415000 -17.504000 6.000000
v -9.694000 0.738000 6.000000
vn 0.000000 0.000000 -1.000000
vn 0.000000 0.000000 -1.000000
vn 0.000000 0.000000 -1.000000
vn 0.000000 0.000000 -1.000000
vn 0.000000 0.000000 -1.000000
vn 0.000000 0.000000 -1.000000
vn 0.000000 0.000000 -1.000000
vn 0.000000 0.000000 -1.000000
vn 0.000000 0.000000 -1.000000
vn 0.000000 0.000000 -1.000000
vn 0.000000 0.000000 -1.000000
vn 0.000000 0.000000 -1.000000
vn 0.000000 0.000000 -1.000000
vn 0.000000 -0.000000 1.000000
vn 0.000000 0.000000 1.000000
vn 0.000000 0.000000 1.000000
vn 0.000000 0.000000 1.000000
vn 0.000000 0.000000 1.000000
vn -0.000000 0.000000 1.000000
vn -0.000000 0.000000 1.000000
vn -0.000000 0.000000 1.000000
vn 0.000000 0.000000 1.000000
vn 0.000000 0.000000 1.000000
vn 0.000000 0.000000 1.000000
vn 0.000000 0.000000 1.000000
vn 0.000000 0.000000 1.000000
vn -0.157854 0.987462 0.000000
vn -0.157854 0.987462 0.000000
vn 0.966584 0.256348 0.000000
vn 0.966584 0.256348 -0.000000
vn -0.175220 0.984529 0.000000
vn -0.175220 0.984529 0.000000
vn 0.981971 0.189031 0.000000
vn 0.981971 0.189031 -0.000000
vn 0.291514 -0.956566 0.000000
vn 0.291514 -0.956566 0.000000
vn 0.974968 0.222347 0.000000
vn 0.974968 0.222347 -0.000000
vn -0.254036 0.967195 0.000000
vn -0.254036 0.967195 0.000000
vn 0.946307 0.323269 0.000000
vn 0.946307 0.323269 -0.000000
vn -0.333575 0.942724 0.000000
vn -0.333575 0.942724 0.000000
vn 0.969626 0.244590 0.000000
vn 0.969626 0.244590 -0.000000
vn 0.275769 -0.961224 0.000000
vn 0.275769 -0.961224 0.000000
vn 0.613117 -0.789992 0.000000
vn 0.613117 -0.789992 0.000000
vn -0.803396 -0.595445 0.000000
vn -0.803396 -0.595445 0.000000
vn -0.960586 -0.277981 0.000000
vn -0.960586 -0.277981 0.000000
vn -0.982781 -0.184773 0.000000
vn -0.982781 -0.184773 0.000000
usemtl assumed_base
f 15//1 1//1 2//1
f 15//2 2//2 3//2
f 15//3 3//3 4//3
f 15//4 4//4 5//4
f 15//5 5//5 6//5
f 15//6 6//6 7//6
f 7//7 8//7 9//7
f 9//8 10//8 11//8
f 7//9 9//9 11//9
f 7//10 11//10 12//10
f 15//11 7//11 12//11
f 15//12 12//12 13//12
f 13//13 14//13 15//13
usemtl assumed_roof
f 30//14 17//14 16//14
f 30//15 18//15 17//15
f 30//16 19//16 18//16
f 30//17 20//17 19//17
f 30//18 21//18 20//18
f 30//19 22//19 21//19
f 22//20 24//20 23//20
f 24//21 26//21 25//21
f 22//22 26//22 24//22
f 22//23 27//23 26//23
f 30//24 27//24 22//24
f 30//25 28//25 27//25
f 28//26 30//26 29//26
usemtl assumed_wall
f 1//27 17//27 2//27
f 1//28 16//28 17//28
f 2//29 18//29 3//29
f 2//30 17//30 18//30
f 3//31 19//31 4//31
f 3//32 18//32 19//32
f 4//33 20//33 5//33
f 4//34 19//34 20//34
f 5//35 21//35 6//35
f 5//36 20//36 21//36
f 6//37 22//37 7//37
f 6//38 21//38 22//38
f 7//39 23//39 8//39
f 7//40 22//40 23//40
f 8//41 24//41 9//41
f 8//42 23//42 24//42
f 9//43 25//43 10//43
f 9//44 24//44 25//44
f 10//45 26//45 11//45
f 10//46 25//46 26//46
f 11//47 27//47 12//47
f 11//48 26//48 27//48
f 12//49 28//49 13//49
f 12//50 27//50 28//50
f 13//51 29//51 14//51
f 13//52 28//52 29//52
f 14//53 30//53 15//53
f 14//54 29//54 30//54
f 15//55 16//55 1//55
f 15//56 30//56 16//56
