# construction_3985_assumed_A_Casa
# source A_Casa
# h_campo 0.000000
# modeled_height 6.000000
# height_kind assumed
# local_origin_world_x 172001.034850
# local_origin_world_y 402500.144600
mtllib construction_artifacts.mtl

o construction_3985_assumed_A_Casa
v -36.578500 -48.400500 0.000000
v -51.206500 -50.352500 0.000000
v -57.621500 -2.534500 0.000000
v -42.548500 -0.905500 0.000000
v -41.827500 -1.511500 0.000000
v -37.604500 -35.182500 0.000000
v -35.077500 -35.071500 0.000000
v -35.567500 -31.591500 0.000000
v -31.158500 -29.955500 0.000000
v -31.709500 -28.001500 0.000000
v -14.297500 -26.201500 0.000000
v -14.041500 -28.108500 0.000000
v -9.713500 -28.086500 0.000000
v -9.282500 -31.635500 0.000000
v -6.167500 -30.734500 0.000000
v -10.820500 3.175500 0.000000
v 4.128500 4.870500 0.000000
v 7.991500 -25.320500 0.000000
v 12.925500 -25.662500 0.000000
v 12.743500 -24.663500 0.000000
v 38.059500 -21.185500 0.000000
v 38.771500 -26.885500 0.000000
v 44.280500 -25.871500 0.000000
v 40.110500 10.899500 0.000000
v 39.100500 10.540500 0.000000
v 36.263500 33.937500 0.000000
v 4.523500 30.199500 0.000000
v 5.693500 23.943500 0.000000
v -58.671500 15.756500 0.000000
v -61.021500 30.252500 0.000000
v 3.523500 38.402500 0.000000
v 2.936500 43.559500 0.000000
v 34.863500 48.195500 0.000000
v 52.537500 50.352500 0.000000
v 54.808500 34.669500 0.000000
v 50.323500 34.545500 0.000000
v 53.036500 15.975500 0.000000
v 55.824500 16.157500 0.000000
v 58.324500 -0.366500 0.000000
v 55.864500 -0.637500 0.000000
v 56.055500 -3.110500 0.000000
v 57.596500 -3.113500 0.000000
v 58.483500 -9.473500 0.000000
v 56.967500 -10.132500 0.000000
v 58.524500 -22.244500 0.000000
v 59.895500 -22.124500 0.000000
v 61.021500 -29.179500 0.000000
v 59.640500 -29.590500 0.000000
v 59.865500 -36.368500 0.000000
v 56.652500 -36.744500 0.000000
v 56.219500 -35.555500 0.000000
v 47.658500 -36.666500 0.000000
v 35.727500 -38.345500 0.000000
v 35.951500 -40.311500 0.000000
v 19.559500 -42.519500 0.000000
v 19.460500 -40.867500 0.000000
v 15.517500 -41.438500 0.000000
v 9.890500 -42.501500 0.000000
v -4.265500 -44.539500 0.000000
v -4.483500 -43.517500 0.000000
v -36.583500 -47.411500 0.000000
v -36.578500 -48.400500 6.000000
v -51.206500 -50.352500 6.000000
v -57.621500 -2.534500 6.000000
v -42.548500 -0.905500 6.000000
v -41.827500 -1.511500 6.000000
v -37.604500 -35.182500 6.000000
v -35.077500 -35.071500 6.000000
v -35.567500 -31.591500 6.000000
v -31.158500 -29.955500 6.000000
v -31.709500 -28.001500 6.000000
v -14.297500 -26.201500 6.000000
v -14.041500 -28.108500 6.000000
v -9.713500 -28.086500 6.000000
v -9.282500 -31.635500 6.000000
v -6.167500 -30.734500 6.000000
v -10.820500 3.175500 6.000000
v 4.128500 4.870500 6.000000
v 7.991500 -25.320500 6.000000
v 12.925500 -25.662500 6.000000
v 12.743500 -24.663500 6.000000
v 38.059500 -21.185500 6.000000
v 38.771500 -26.885500 6.000000
v 44.280500 -25.871500 6.000000
v 40.110500 10.899500 6.000000
v 39.100500 10.540500 6.000000
v 36.263500 33.937500 6.000000
v 4.523500 30.199500 6.000000
v 5.693500 23.943500 6.000000
v -58.671500 15.756500 6.000000
v -61.021500 30.252500 6.000000
v 3.523500 38.402500 6.000000
v 2.936500 43.559500 6.000000
v 34.863500 48.195500 6.000000
v 52.537500 50.352500 6.000000
v 54.808500 34.669500 6.000000
v 50.323500 34.545500 6.000000
v 53.036500 15.975500 6.000000
v 55.824500 16.157500 6.000000
v 58.324500 -0.366500 6.000000
v 55.864500 -0.637500 6.000000
v 56.055500 -3.110500 6.000000
v 57.596500 -3.113500 6.000000
v 58.483500 -9.473500 6.000000
v 56.967500 -10.132500 6.000000
v 58.524500 -22.244500 6.000000
v 59.895500 -22.124500 6.000000
v 61.021500 -29.179500 6.000000
v 59.640500 -29.590500 6.000000
v 59.865500 -36.368500 6.000000
v 56.652500 -36.744500 6.000000
v 56.219500 -35.555500 6.000000
v 47.658500 -36.666500 6.000000
v 35.727500 -38.345500 6.000000
v 35.951500 -40.311500 6.000000
v 19.559500 -42.519500 6.000000
v 19.460500 -40.867500 6.000000
v 15.517500 -41.438500 6.000000
v 9.890500 -42.501500 6.000000
v -4.265500 -44.539500 6.000000
v -4.483500 -43.517500 6.000000
v -36.583500 -47.411500 6.000000
vn 0.000000 -0.000000 -1.000000
vn -0.000000 0.000000 -1.000000
vn 0.000000 0.000000 -1.000000
vn 0.000000 0.000000 -1.000000
vn 0.000000 0.000000 -1.000000
vn 0.000000 0.000000 -1.000000
vn 0.000000 0.000000 -1.000000
vn 0.000000 0.000000 -1.000000
vn 0.000000 0.000000 -1.000000
vn 0.000000 0.000000 -1.000000
vn 0.000000 0.000000 -1.000000
vn 0.000000 0.000000 -1.000000
vn 0.000000 0.000000 -1.000000
vn 0.000000 0.000000 -1.000000
vn 0.000000 0.000000 -1.000000
vn 0.000000 0.000000 -1.000000
vn 0.000000 0.000000 -1.000000
vn 0.000000 0.000000 -1.000000
vn 0.000000 0.000000 -1.000000
vn 0.000000 0.000000 -1.000000
vn 0.000000 0.000000 -1.000000
vn 0.000000 0.000000 -1.000000
vn -0.000000 0.000000 -1.000000
vn 0.000000 -0.000000 -1.000000
vn -0.000000 0.000000 -1.000000
vn 0.000000 0.000000 -1.000000
vn -0.000000 0.000000 -1.000000
vn 0.000000 0.000000 -1.000000
vn 0.000000 0.000000 -1.000000
vn 0.000000 0.000000 -1.000000
vn 0.000000 0.000000 -1.000000
vn 0.000000 -0.000000 -1.000000
vn 0.000000 0.000000 -1.000000
vn 0.000000 0.000000 -1.000000
vn 0.000000 0.000000 -1.000000
vn 0.000000 0.000000 -1.000000
vn 0.000000 0.000000 -1.000000
vn 0.000000 0.000000 -1.000000
vn 0.000000 0.000000 -1.000000
vn 0.000000 0.000000 -1.000000
vn 0.000000 -0.000000 -1.000000
vn 0.000000 0.000000 -1.000000
vn 0.000000 0.000000 -1.000000
vn 0.000000 0.000000 -1.000000
vn 0.000000 0.000000 -1.000000
vn 0.000000 0.000000 -1.000000
vn 0.000000 0.000000 -1.000000
vn 0.000000 -0.000000 -1.000000
vn 0.000000 0.000000 -1.000000
vn 0.000000 0.000000 -1.000000
vn 0.000000 0.000000 -1.000000
vn 0.000000 0.000000 -1.000000
vn 0.000000 -0.000000 -1.000000
vn 0.000000 0.000000 -1.000000
vn 0.000000 0.000000 -1.000000
vn 0.000000 0.000000 -1.000000
vn 0.000000 0.000000 -1.000000
vn 0.000000 0.000000 -1.000000
vn 0.000000 0.000000 -1.000000
vn 0.000000 0.000000 1.000000
vn 0.000000 0.000000 1.000000
vn 0.000000 0.000000 1.000000
vn 0.000000 0.000000 1.000000
vn 0.000000 0.000000 1.000000
vn 0.000000 -0.000000 1.000000
vn 0.000000 -0.000000 1.000000
vn 0.000000 0.000000 1.000000
vn 0.000000 -0.000000 1.000000
vn 0.000000 0.000000 1.000000
vn 0.000000 0.000000 1.000000
vn 0.000000 0.000000 1.000000
vn 0.000000 0.000000 1.000000
vn 0.000000 0.000000 1.000000
vn 0.000000 -0.000000 1.000000
vn 0.000000 0.000000 1.000000
vn 0.000000 0.000000 1.000000
vn 0.000000 0.000000 1.000000
vn 0.000000 -0.000000 1.000000
vn 0.000000 0.000000 1.000000
vn 0.000000 0.000000 1.000000
vn 0.000000 0.000000 1.000000
vn 0.000000 0.000000 1.000000
vn 0.000000 0.000000 1.000000
vn 0.000000 0.000000 1.000000
vn 0.000000 0.000000 1.000000
vn 0.000000 0.000000 1.000000
vn 0.000000 0.000000 1.000000
vn 0.000000 0.000000 1.000000
vn 0.000000 0.000000 1.000000
vn 0.000000 -0.000000 1.000000
vn 0.000000 0.000000 1.000000
vn 0.000000 0.000000 1.000000
vn 0.000000 -0.000000 1.000000
vn 0.000000 0.000000 1.000000
vn 0.000000 0.000000 1.000000
vn 0.000000 0.000000 1.000000
vn 0.000000 0.000000 1.000000
vn 0.000000 0.000000 1.000000
vn 0.000000 0.000000 1.000000
vn 0.000000 0.000000 1.000000
vn 0.000000 0.000000 1.000000
vn 0.000000 0.000000 1.000000
vn 0.000000 0.000000 1.000000
vn 0.000000 0.000000 1.000000
vn 0.000000 0.000000 1.000000
vn 0.000000 0.000000 1.000000
vn 0.000000 0.000000 1.000000
vn 0.000000 0.000000 1.000000
vn 0.000000 0.000000 1.000000
vn 0.000000 0.000000 1.000000
vn 0.000000 0.000000 1.000000
vn 0.000000 0.000000 1.000000
vn 0.000000 0.000000 1.000000
vn 0.000000 0.000000 1.000000
vn 0.000000 0.000000 1.000000
vn 0.000000 0.000000 1.000000
vn 0.000000 0.000000 1.000000
vn 0.000000 0.000000 1.000000
vn 0.132270 -0.991214 0.000000
vn 0.132270 -0.991214 0.000000
vn -0.991121 -0.132963 0.000000
vn -0.991121 -0.132963 0.000000
vn -0.107448 0.994211 0.000000
vn -0.107448 0.994211 0.000000
vn 0.643416 0.765517 0.000000
vn 0.643416 0.765517 -0.000000
vn 0.992227 0.124445 0.000000
vn 0.992227 0.124445 -0.000000
vn -0.043883 0.999037 0.000000
vn -0.043883 0.999037 0.000000
vn -0.990232 -0.139429 0.000000
vn -0.990232 -0.139429 0.000000
vn -0.347882 0.937538 0.000000
vn -0.347882 0.937538 0.000000
vn -0.962466 -0.271402 0.000000
vn -0.962466 -0.271402 0.000000
vn -0.102829 0.994699 0.000000
vn -0.102829 0.994699 0.000000
vn 0.991109 0.133049 0.000000
vn 0.991109 0.133049 -0.000000
vn -0.005083 0.999987 0.000000
vn -0.005083 0.999987 0.000000
vn 0.992706 0.120557 0.000000
vn 0.992706 0.120557 -0.000000
vn -0.277856 0.960623 0.000000
vn -0.277856 0.960623 0.000000
vn -0.990717 -0.135942 0.000000
vn -0.990717 -0.135942 0.000000
vn -0.112664 0.993633 0.000000
vn -0.112664 0.993633 0.000000
vn 0.991913 0.126917 0.000000
vn 0.991913 0.126917 -0.000000
vn 0.069149 0.997606 0.000000
vn 0.069149 0.997606 -0.000000
vn -0.983807 -0.179232 0.000000
vn -0.983807 -0.179232 0.000000
vn -0.136105 0.990694 0.000000
vn -0.136105 0.990694 0.000000
vn 0.992289 0.123949 0.000000
vn 0.992289 0.123949 -0.000000
vn -0.181022 0.983479 0.000000
vn -0.181022 0.983479 0.000000
vn -0.993631 -0.112682 0.000000
vn -0.993631 -0.112682 0.000000
vn 0.334918 -0.942247 0.000000
vn 0.334918 -0.942247 0.000000
vn -0.992729 -0.120373 0.000000
vn -0.992729 -0.120373 0.000000
vn 0.116961 -0.993137 0.000000
vn 0.116961 -0.993137 0.000000
vn 0.982957 0.183833 0.000000
vn 0.982957 0.183833 -0.000000
vn 0.126180 -0.992007 0.000000
vn 0.126180 -0.992007 0.000000
vn -0.987113 -0.160025 0.000000
vn -0.987113 -0.160025 0.000000
vn -0.125274 0.992122 0.000000
vn -0.125274 0.992122 0.000000
vn -0.993584 -0.113096 0.000000
vn -0.993584 -0.113096 0.000000
vn -0.143699 0.989621 0.000000
vn -0.143699 0.989621 0.000000
vn -0.121145 0.992635 0.000000
vn -0.121145 0.992635 0.000000
vn 0.989678 0.143312 0.000000
vn 0.989678 0.143312 -0.000000
vn 0.027637 -0.999618 0.000000
vn 0.027637 -0.999618 0.000000
vn 0.989496 0.144561 0.000000
vn 0.989496 0.144561 -0.000000
vn -0.065141 0.997876 0.000000
vn -0.065141 0.997876 0.000000
vn 0.988748 0.149593 0.000000
vn 0.988748 0.149593 -0.000000
vn 0.109500 -0.993987 0.000000
vn 0.109500 -0.993987 0.000000
vn 0.997031 0.077005 0.000000
vn 0.997031 0.077005 -0.000000
vn 0.001947 0.999998 0.000000
vn 0.001947 0.999998 -0.000000
vn 0.990414 0.138129 0.000000
vn 0.990414 0.138129 -0.000000
vn 0.398660 -0.917099 0.000000
vn 0.398660 -0.917099 0.000000
vn 0.991838 0.127501 0.000000
vn 0.991838 0.127501 -0.000000
vn -0.087194 0.996191 0.000000
vn -0.087194 0.996191 0.000000
vn 0.987502 0.157608 0.000000
vn 0.987502 0.157608 -0.000000
vn 0.285246 -0.958454 0.000000
vn 0.285246 -0.958454 0.000000
vn 0.999449 0.033177 0.000000
vn 0.999449 0.033177 -0.000000
vn 0.116231 -0.993222 0.000000
vn 0.116231 -0.993222 0.000000
vn -0.939632 -0.342187 0.000000
vn -0.939632 -0.342187 0.000000
vn 0.128695 -0.991684 0.000000
vn 0.128695 -0.991684 0.000000
vn 0.139353 -0.990243 0.000000
vn 0.139353 -0.990243 0.000000
vn 0.993572 0.113205 0.000000
vn 0.993572 0.113205 -0.000000
vn 0.133494 -0.991050 0.000000
vn 0.133494 -0.991050 0.000000
vn -0.998209 -0.059820 0.000000
vn -0.998209 -0.059820 0.000000
vn 0.143319 -0.989677 0.000000
vn 0.143319 -0.989677 0.000000
vn 0.185627 -0.982620 0.000000
vn 0.185627 -0.982620 0.000000
vn 0.142498 -0.989795 0.000000
vn 0.142498 -0.989795 0.000000
vn -0.977998 -0.208614 0.000000
vn -0.977998 -0.208614 0.000000
vn 0.120426 -0.992722 0.000000
vn 0.120426 -0.992722 0.000000
vn 0.999987 0.005056 0.000000
vn 0.999987 0.005056 -0.000000
usemtl assumed_base
f 61//1 1//1 2//1
f 61//2 2//2 3//2
f 61//3 3//3 4//3
f 61//4 4//4 5//4
f 61//5 5//5 6//5
f 61//6 6//6 7//6
f 7//7 8//7 9//7
f 61//8 7//8 9//8
f 9//9 10//9 11//9
f 61//10 9//10 11//10
f 61//11 11//11 12//11
f 61//12 12//12 13//12
f 61//13 13//13 14//13
f 61//14 14//14 15//14
f 15//15 16//15 17//15
f 15//16 17//16 18//16
f 61//17 15//17 18//17
f 61//18 18//18 19//18
f 19//19 20//19 21//19
f 61//20 19//20 21//20
f 61//21 21//21 22//21
f 61//22 22//22 23//22
f 24//23 25//23 26//23
f 27//24 28//24 29//24
f 27//25 29//25 30//25
f 26//26 27//26 30//26
f 26//27 30//27 31//27
f 26//28 31//28 32//28
f 26//29 32//29 33//29
f 24//30 26//30 33//30
f 24//31 33//31 34//31
f 34//32 35//32 36//32
f 24//33 34//33 36//33
f 23//34 24//34 36//34
f 23//35 36//35 37//35
f 23//36 37//36 38//36
f 38//37 39//37 40//37
f 23//38 38//38 40//38
f 23//39 40//39 41//39
f 23//40 41//40 42//40
f 42//41 43//41 44//41
f 23//42 42//42 44//42
f 23//43 44//43 45//43
f 61//44 23//44 45//44
f 61//45 45//45 46//45
f 61//46 46//46 47//46
f 61//47 47//47 48//47
f 48//48 49//48 50//48
f 48//49 50//49 51//49
f 61//50 48//50 51//50
f 61//51 51//51 52//51
f 61//52 52//52 53//52
f 53//53 54//53 55//53
f 53//54 55//54 56//54
f 53//55 56//55 57//55
f 57//56 58//56 59//56
f 57//57 59//57 60//57
f 53//58 57//58 60//58
f 53//59 60//59 61//59
usemtl assumed_roof
f 122//60 63//60 62//60
f 122//61 64//61 63//61
f 122//62 65//62 64//62
f 122//63 66//63 65//63
f 122//64 67//64 66//64
f 122//65 68//65 67//65
f 68//66 70//66 69//66
f 122//67 70//67 68//67
f 70//68 72//68 71//68
f 122//69 72//69 70//69
f 122//70 73//70 72//70
f 122//71 74//71 73//71
f 122//72 75//72 74//72
f 122//73 76//73 75//73
f 76//74 78//74 77//74
f 76//75 79//75 78//75
f 122//76 79//76 76//76
f 122//77 80//77 79//77
f 80//78 82//78 81//78
f 122//79 82//79 80//79
f 122//80 83//80 82//80
f 122//81 84//81 83//81
f 85//82 87//82 86//82
f 88//83 90//83 89//83
f 88//84 91//84 90//84
f 87//85 91//85 88//85
f 87//86 92//86 91//86
f 87//87 93//87 92//87
f 87//88 94//88 93//88
f 85//89 94//89 87//89
f 85//90 95//90 94//90
f 95//91 97//91 96//91
f 85//92 97//92 95//92
f 84//93 97//93 85//93
f 84//94 98//94 97//94
f 84//95 99//95 98//95
f 99//96 101//96 100//96
f 84//97 101//97 99//97
f 84//98 102//98 101//98
f 84//99 103//99 102//99
f 103//100 105//100 104//100
f 84//101 105//101 103//101
f 84//102 106//102 105//102
f 122//103 106//103 84//103
f 122//104 107//104 106//104
f 122//105 108//105 107//105
f 122//106 109//106 108//106
f 109//107 111//107 110//107
f 109//108 112//108 111//108
f 122//109 112//109 109//109
f 122//110 113//110 112//110
f 122//111 114//111 113//111
f 114//112 116//112 115//112
f 114//113 117//113 116//113
f 114//114 118//114 117//114
f 118//115 120//115 119//115
f 118//116 121//116 120//116
f 114//117 121//117 118//117
f 114//118 122//118 121//118
usemtl assumed_wall
f 1//119 63//119 2//119
f 1//120 62//120 63//120
f 2//121 64//121 3//121
f 2//122 63//122 64//122
f 3//123 65//123 4//123
f 3//124 64//124 65//124
f 4//125 66//125 5//125
f 4//126 65//126 66//126
f 5//127 67//127 6//127
f 5//128 66//128 67//128
f 6//129 68//129 7//129
f 6//130 67//130 68//130
f 7//131 69//131 8//131
f 7//132 68//132 69//132
f 8//133 70//133 9//133
f 8//134 69//134 70//134
f 9//135 71//135 10//135
f 9//136 70//136 71//136
f 10//137 72//137 11//137
f 10//138 71//138 72//138
f 11//139 73//139 12//139
f 11//140 72//140 73//140
f 12//141 74//141 13//141
f 12//142 73//142 74//142
f 13//143 75//143 14//143
f 13//144 74//144 75//144
f 14//145 76//145 15//145
f 14//146 75//146 76//146
f 15//147 77//147 16//147
f 15//148 76//148 77//148
f 16//149 78//149 17//149
f 16//150 77//150 78//150
f 17//151 79//151 18//151
f 17//152 78//152 79//152
f 18//153 80//153 19//153
f 18//154 79//154 80//154
f 19//155 81//155 20//155
f 19//156 80//156 81//156
f 20//157 82//157 21//157
f 20//158 81//158 82//158
f 21//159 83//159 22//159
f 21//160 82//160 83//160
f 22//161 84//161 23//161
f 22//162 83//162 84//162
f 23//163 85//163 24//163
f 23//164 84//164 85//164
f 24//165 86//165 25//165
f 24//166 85//166 86//166
f 25//167 87//167 26//167
f 25//168 86//168 87//168
f 26//169 88//169 27//169
f 26//170 87//170 88//170
f 27//171 89//171 28//171
f 27//172 88//172 89//172
f 28//173 90//173 29//173
f 28//174 89//174 90//174
f 29//175 91//175 30//175
f 29//176 90//176 91//176
f 30//177 92//177 31//177
f 30//178 91//178 92//178
f 31//179 93//179 32//179
f 31//180 92//180 93//180
f 32//181 94//181 33//181
f 32//182 93//182 94//182
f 33//183 95//183 34//183
f 33//184 94//184 95//184
f 34//185 96//185 35//185
f 34//186 95//186 96//186
f 35//187 97//187 36//187
f 35//188 96//188 97//188
f 36//189 98//189 37//189
f 36//190 97//190 98//190
f 37//191 99//191 38//191
f 37//192 98//192 99//192
f 38//193 100//193 39//193
f 38//194 99//194 100//194
f 39//195 101//195 40//195
f 39//196 100//196 101//196
f 40//197 102//197 41//197
f 40//198 101//198 102//198
f 41//199 103//199 42//199
f 41//200 102//200 103//200
f 42//201 104//201 43//201
f 42//202 103//202 104//202
f 43//203 105//203 44//203
f 43//204 104//204 105//204
f 44//205 106//205 45//205
f 44//206 105//206 106//206
f 45//207 107//207 46//207
f 45//208 106//208 107//208
f 46//209 108//209 47//209
f 46//210 107//210 108//210
f 47//211 109//211 48//211
f 47//212 108//212 109//212
f 48//213 110//213 49//213
f 48//214 109//214 110//214
f 49//215 111//215 50//215
f 49//216 110//216 111//216
f 50//217 112//217 51//217
f 50//218 111//218 112//218
f 51//219 113//219 52//219
f 51//220 112//220 113//220
f 52//221 114//221 53//221
f 52//222 113//222 114//222
f 53//223 115//223 54//223
f 53//224 114//224 115//224
f 54//225 116//225 55//225
f 54//226 115//226 116//226
f 55//227 117//227 56//227
f 55//228 116//228 117//228
f 56//229 118//229 57//229
f 56//230 117//230 118//230
f 57//231 119//231 58//231
f 57//232 118//232 119//232
f 58//233 120//233 59//233
f 58//234 119//234 120//234
f 59//235 121//235 60//235
f 59//236 120//236 121//236
f 60//237 122//237 61//237
f 60//238 121//238 122//238
f 61//239 62//239 1//239
f 61//240 122//240 62//240
