# construction_5839_assumed_A_Casa
# source A_Casa
# h_campo 0.000000
# modeled_height 6.000000
# height_kind assumed
# local_origin_world_x 172001.034850
# local_origin_world_y 402500.144600
mtllib construction_artifacts.mtl

o construction_5839_assumed_A_Casa
v -23.327000 -3.571000 0.000000
v -16.460000 2.498000 0.000000
v -14.248000 -0.872000 0.000000
v -11.934000 0.438000 0.000000
v -13.233000 5.862000 0.000000
v -9.877000 9.479000 0.000000
v -5.919000 4.565000 0.000000
v -4.018000 6.574000 0.000000
v -6.097000 9.196000 0.000000
v -5.307000 9.975000 0.000000
v -6.812000 11.618000 0.000000
v -6.087000 13.700000 0.000000
v 1.152000 20.537000 0.000000
v 14.998000 5.361000 0.000000
v 16.121000 6.642000 0.000000
v 23.327000 -0.372000 0.000000
v 14.981000 -7.997000 0.000000
v 12.774000 -5.589000 0.000000
v 6.889000 -12.336000 0.000000
v 1.835000 -8.387000 0.000000
v 0.508000 -9.907000 0.000000
v 1.107000 -10.899000 0.000000
v -10.304000 -20.537000 0.000000
v -17.655000 -10.991000 0.000000
v -18.977000 -8.640000 0.000000
v -23.327000 -3.571000 6.000000
v -16.460000 2.498000 6.000000
v -14.248000 -0.872000 6.000000
v -11.934000 0.438000 6.000000
v -13.233000 5.862000 6.000000
v -9.877000 9.479000 6.000000
v -5.919000 4.565000 6.000000
v -4.018000 6.574000 6.000000
v -6.097000 9.196000 6.000000
v -5.307000 9.975000 6.000000
v -6.812000 11.618000 6.000000
v -6.087000 13.700000 6.000000
v 1.152000 20.537000 6.000000
v 14.998000 5.361000 6.000000
v 16.121000 6.642000 6.000000
v 23.327000 -0.372000 6.000000
v 14.981000 -7.997000 6.000000
v 12.774000 -5.589000 6.000000
v 6.889000 -12.336000 6.000000
v 1.835000 -8.387000 6.000000
v 0.508000 -9.907000 6.000000
v 1.107000 -10.899000 6.000000
v -10.304000 -20.537000 6.000000
v -17.655000 -10.991000 6.000000
v -18.977000 -8.640000 6.000000
vn 0.000000 0.000000 -1.000000
vn 0.000000 0.000000 -1.000000
vn 0.000000 0.000000 -1.000000
vn 0.000000 0.000000 -1.000000
vn 0.000000 0.000000 -1.000000
vn 0.000000 0.000000 -1.000000
vn 0.000000 0.000000 -1.000000
vn 0.000000 0.000000 -1.000000
vn 0.000000 0.000000 -1.000000
vn 0.000000 0.000000 -1.000000
vn 0.000000 0.000000 -1.000000
vn 0.000000 0.000000 -1.000000
vn 0.000000 0.000000 -1.000000
vn 0.000000 0.000000 -1.000000
vn 0.000000 0.000000 -1.000000
vn 0.000000 0.000000 -1.000000
vn 0.000000 0.000000 -1.000000
vn 0.000000 0.000000 -1.000000
vn 0.000000 0.000000 -1.000000
vn 0.000000 0.000000 -1.000000
vn 0.000000 0.000000 -1.000000
vn 0.000000 0.000000 -1.000000
vn 0.000000 0.000000 -1.000000
vn 0.000000 -0.000000 1.000000
vn 0.000000 0.000000 1.000000
vn 0.000000 0.000000 1.000000
vn 0.000000 -0.000000 1.000000
vn 0.000000 0.000000 1.000000
vn 0.000000 0.000000 1.000000
vn 0.000000 0.000000 1.000000
vn 0.000000 0.000000 1.000000
vn 0.000000 0.000000 1.000000
vn 0.000000 -0.000000 1.000000
vn -0.000000 0.000000 1.000000
vn 0.000000 0.000000 1.000000
vn 0.000000 0.000000 1.000000
vn -0.000000 0.000000 1.000000
vn 0.000000 0.000000 1.000000
vn 0.000000 0.000000 1.000000
vn 0.000000 0.000000 1.000000
vn 0.000000 0.000000 1.000000
vn 0.000000 0.000000 1.000000
vn -0.000000 0.000000 1.000000
vn 0.000000 0.000000 1.000000
vn 0.000000 0.000000 1.000000
vn 0.000000 0.000000 1.000000
vn -0.662228 0.749303 0.000000
vn -0.662228 0.749303 0.000000
vn 0.835998 0.548732 0.000000
vn 0.835998 0.548732 -0.000000
vn -0.492652 0.870226 0.000000
vn -0.492652 0.870226 0.000000
vn -0.972499 -0.232905 0.000000
vn -0.972499 -0.232905 0.000000
vn -0.733061 0.680163 0.000000
vn -0.733061 0.680163 0.000000
vn 0.778793 0.627281 0.000000
vn 0.778793 0.627281 -0.000000
vn -0.726361 0.687313 0.000000
vn -0.726361 0.687313 0.000000
vn -0.783573 -0.621300 0.000000
vn -0.783573 -0.621300 0.000000
vn -0.702132 0.712047 0.000000
vn -0.702132 0.712047 0.000000
vn -0.737396 -0.675460 0.000000
vn -0.737396 -0.675460 0.000000
vn -0.944380 0.328855 0.000000
vn -0.944380 0.328855 0.000000
vn -0.686632 0.727005 0.000000
vn -0.686632 0.727005 0.000000
vn 0.738736 0.673995 0.000000
vn 0.738736 0.673995 -0.000000
vn -0.751958 0.659211 0.000000
vn -0.751958 0.659211 0.000000
vn 0.697496 0.716589 0.000000
vn 0.697496 0.716589 -0.000000
vn 0.674498 -0.738277 0.000000
vn 0.674498 -0.738277 0.000000
vn -0.737205 -0.675669 0.000000
vn -0.737205 -0.675669 0.000000
vn 0.753607 -0.657326 0.000000
vn 0.753607 -0.657326 0.000000
vn -0.615699 -0.787982 0.000000
vn -0.615699 -0.787982 0.000000
vn 0.753313 -0.657662 0.000000
vn 0.753313 -0.657662 0.000000
vn 0.856043 0.516905 0.000000
vn 0.856043 0.516905 -0.000000
vn 0.645261 -0.763962 0.000000
vn 0.645261 -0.763962 0.000000
vn -0.792306 -0.610124 0.000000
vn -0.792306 -0.610124 0.000000
vn -0.871645 -0.490138 0.000000
vn -0.871645 -0.490138 0.000000
vn -0.758876 -0.651235 0.000000
vn -0.758876 -0.651235 0.000000
usemtl assumed_base
f 25//1 1//1 2//1
f 25//2 2//2 3//2
f 25//3 3//3 4//3
f 4//4 5//4 6//4
f 4//5 6//5 7//5
f 25//6 4//6 7//6
f 8//7 9//7 10//7
f 10//8 11//8 12//8
f 8//9 10//9 12//9
f 8//10 12//10 13//10
f 8//11 13//11 14//11
f 7//12 8//12 14//12
f 25//13 7//13 14//13
f 14//14 15//14 16//14
f 25//15 14//15 16//15
f 16//16 17//16 18//16
f 25//17 16//17 18//17
f 18//18 19//18 20//18
f 25//19 18//19 20//19
f 25//20 20//20 21//20
f 25//21 21//21 22//21
f 25//22 22//22 23//22
f 23//23 24//23 25//23
usemtl assumed_roof
f 50//24 27//24 26//24
f 50//25 28//25 27//25
f 50//26 29//26 28//26
f 29//27 31//27 30//27
f 29//28 32//28 31//28
f 50//29 32//29 29//29
f 33//30 35//30 34//30
f 35//31 37//31 36//31
f 33//32 37//32 35//32
f 33//33 38//33 37//33
f 33//34 39//34 38//34
f 32//35 39//35 33//35
f 50//36 39//36 32//36
f 39//37 41//37 40//37
f 50//38 41//38 39//38
f 41//39 43//39 42//39
f 50//40 43//40 41//40
f 43//41 45//41 44//41
f 50//42 45//42 43//42
f 50//43 46//43 45//43
f 50//44 47//44 46//44
f 50//45 48//45 47//45
f 48//46 50//46 49//46
usemtl assumed_wall
f 1//47 27//47 2//47
f 1//48 26//48 27//48
f 2//49 28//49 3//49
f 2//50 27//50 28//50
f 3//51 29//51 4//51
f 3//52 28//52 29//52
f 4//53 30//53 5//53
f 4//54 29//54 30//54
f 5//55 31//55 6//55
f 5//56 30//56 31//56
f 6//57 32//57 7//57
f 6//58 31//58 32//58
f 7//59 33//59 8//59
f 7//60 32//60 33//60
f 8//61 34//61 9//61
f 8//62 33//62 34//62
f 9//63 35//63 10//63
f 9//64 34//64 35//64
f 10//65 36//65 11//65
f 10//66 35//66 36//66
f 11//67 37//67 12//67
f 11//68 36//68 37//68
f 12//69 38//69 13//69
f 12//70 37//70 38//70
f 13//71 39//71 14//71
f 13//72 38//72 39//72
f 14//73 40//73 15//73
f 14//74 39//74 40//74
f 15//75 41//75 16//75
f 15//76 40//76 41//76
f 16//77 42//77 17//77
f 16//78 41//78 42//78
f 17//79 43//79 18//79
f 17//80 42//80 43//80
f 18//81 44//81 19//81
f 18//82 43//82 44//82
f 19//83 45//83 20//83
f 19//84 44//84 45//84
f 20//85 46//85 21//85
f 20//86 45//86 46//86
f 21//87 47//87 22//87
f 21//88 46//88 47//88
f 22//89 48//89 23//89
f 22//90 47//90 48//90
f 23//91 49//91 24//91
f 23//92 48//92 49//92
f 24//93 50//93 25//93
f 24//94 49//94 50//94
f 25//95 26//95 1//95
f 25//96 50//96 26//96
