# construction_5188_assumed_A_Casa
# source A_Casa
# h_campo 0.000000
# modeled_height 6.000000
# height_kind assumed
# local_origin_world_x 172001.034850
# local_origin_world_y 402500.144600
mtllib construction_artifacts.mtl

o construction_5188_assumed_A_Casa
v -16.108000 -2.538500 0.000000
v -13.652000 -1.185500 0.000000
v -15.142000 2.049500 0.000000
v 8.080000 13.771500 0.000000
v 10.228000 11.934500 0.000000
v 11.334000 12.322500 0.000000
v 15.209000 6.568500 0.000000
v 13.762000 5.683500 0.000000
v 16.108000 1.709500 0.000000
v 1.335000 -5.259500 0.000000
v -1.026000 -1.030500 0.000000
v -6.771000 -5.662500 0.000000
v -3.213000 -12.326500 0.000000
v -6.191000 -13.771500 0.000000
v -10.392000 -6.636500 0.000000
v -13.781000 -7.928500 0.000000
v -16.108000 -2.538500 6.000000
v -13.652000 -1.185500 6.000000
v -15.142000 2.049500 6.000000
v 8.080000 13.771500 6.000000
v 10.228000 11.934500 6.000000
v 11.334000 12.322500 6.000000
v 15.209000 6.568500 6.000000
v 13.762000 5.683500 6.000000
v 16.108000 1.709500 6.000000
v 1.335000 -5.259500 6.000000
v -1.026000 -1.030500 6.000000
v -6.771000 -5.662500 6.000000
v -3.213000 -12.326500 6.000000
v -6.191000 -13.771500 6.000000
v -10.392000 -6.636500 6.000000
v -13.781000 -7.928500 6.000000
vn 0.000000 0.000000 -1.000000
vn 0.000000 0.000000 -1.000000
vn 0.000000 0.000000 -1.000000
vn 0.000000 0.000000 -1.000000
vn 0.000000 0.000000 -1.000000
vn 0.000000 0.000000 -1.000000
vn 0.000000 -0.000000 -1.000000
vn 0.000000 -0.000000 -1.000000
vn 0.000000 0.000000 -1.000000
vn 0.000000 0.000000 -1.000000
vn 0.000000 0.000000 -1.000000
vn 0.000000 -0.000000 -1.000000
vn 0.000000 0.000000 -1.000000
vn 0.000000 0.000000 -1.000000
vn 0.000000 -0.000000 1.000000
vn 0.000000 -0.000000 1.000000
vn 0.000000 0.000000 1.000000
vn 0.000000 0.000000 1.000000
vn 0.000000 0.000000 1.000000
vn 0.000000 0.000000 1.000000
vn 0.000000 0.000000 1.000000
vn 0.000000 0.000000 1.000000
vn 0.000000 0.000000 1.000000
vn 0.000000 0.000000 1.000000
vn 0.000000 0.000000 1.000000
vn 0.000000 0.000000 1.000000
vn 0.000000 0.000000 1.000000
vn 0.000000 0.000000 1.000000
vn -0.482521 0.875884 0.000000
vn -0.482521 0.875884 0.000000
vn -0.908288 -0.418346 0.000000
vn -0.908288 -0.418346 0.000000
vn -0.450624 0.892714 0.000000
vn -0.450624 0.892714 0.000000
vn 0.649946 0.759980 0.000000
vn 0.649946 0.759980 -0.000000
vn -0.331034 0.943619 0.000000
vn -0.331034 0.943619 0.000000
vn 0.829446 0.558586 0.000000
vn 0.829446 0.558586 -0.000000
vn 0.521760 -0.853092 0.000000
vn 0.521760 -0.853092 0.000000
vn 0.861142 0.508364 0.000000
vn 0.861142 0.508364 -0.000000
vn 0.426649 -0.904417 0.000000
vn 0.426649 -0.904417 0.000000
vn -0.873143 -0.487465 0.000000
vn -0.873143 -0.487465 0.000000
vn 0.627665 -0.778484 0.000000
vn 0.627665 -0.778484 0.000000
vn 0.882140 0.470987 0.000000
vn 0.882140 0.470987 -0.000000
vn 0.436548 -0.899681 0.000000
vn 0.436548 -0.899681 0.000000
vn -0.861726 -0.507374 0.000000
vn -0.861726 -0.507374 0.000000
vn 0.356225 -0.934400 0.000000
vn 0.356225 -0.934400 0.000000
vn -0.918093 -0.396364 0.000000
vn -0.918093 -0.396364 0.000000
usemtl assumed_base
f 16//1 1//1 2//1
f 2//2 3//2 4//2
f 16//3 2//3 4//3
f 16//4 4//4 5//4
f 16//5 5//5 6//5
f 6//6 7//6 8//6
f 8//7 9//7 10//7
f 6//8 8//8 10//8
f 6//9 10//9 11//9
f 16//10 6//10 11//10
f 12//11 13//11 14//11
f 12//12 14//12 15//12
f 11//13 12//13 15//13
f 11//14 15//14 16//14
usemtl assumed_roof
f 32//15 18//15 17//15
f 18//16 20//16 19//16
f 32//17 20//17 18//17
f 32//18 21//18 20//18
f 32//19 22//19 21//19
f 22//20 24//20 23//20
f 24//21 26//21 25//21
f 22//22 26//22 24//22
f 22//23 27//23 26//23
f 32//24 27//24 22//24
f 28//25 30//25 29//25
f 28//26 31//26 30//26
f 27//27 31//27 28//27
f 27//28 32//28 31//28
usemtl assumed_wall
f 1//29 18//29 2//29
f 1//30 17//30 18//30
f 2//31 19//31 3//31
f 2//32 18//32 19//32
f 3//33 20//33 4//33
f 3//34 19//34 20//34
f 4//35 21//35 5//35
f 4//36 20//36 21//36
f 5//37 22//37 6//37
f 5//38 21//38 22//38
f 6//39 23//39 7//39
f 6//40 22//40 23//40
f 7//41 24//41 8//41
f 7//42 23//42 24//42
f 8//43 25//43 9//43
f 8//44 24//44 25//44
f 9//45 26//45 10//45
f 9//46 25//46 26//46
f 10//47 27//47 11//47
f 10//48 26//48 27//48
f 11//49 28//49 12//49
f 11//50 27//50 28//50
f 12//51 29//51 13//51
f 12//52 28//52 29//52
f 13//53 30//53 14//53
f 13//54 29//54 30//54
f 14//55 31//55 15//55
f 14//56 30//56 31//56
f 15//57 32//57 16//57
f 15//58 31//58 32//58
f 16//59 17//59 1//59
f 16//60 32//60 17//60
