# construction_7101_assumed_A_Casa
# source A_Casa
# h_campo 0.000000
# modeled_height 6.000000
# height_kind assumed
# local_origin_world_x 172001.034850
# local_origin_world_y 402500.144600
mtllib construction_artifacts.mtl

o construction_7101_assumed_A_Casa
v 12.890000 4.350500 0.000000
v 18.333000 -5.403500 0.000000
v 18.449000 -6.919500 0.000000
v -9.477000 -13.527500 0.000000
v -16.781000 -5.244500 0.000000
v -12.344000 -2.770500 0.000000
v -11.887000 -3.384500 0.000000
v -5.860000 -1.611500 0.000000
v -8.281000 4.625500 0.000000
v -9.919000 3.998500 0.000000
v -12.296000 9.508500 0.000000
v -16.910000 7.213500 0.000000
v -18.449000 10.432500 0.000000
v -13.811000 13.249500 0.000000
v -12.911000 12.612500 0.000000
v -9.145000 13.527500 0.000000
v -2.900000 -0.552500 0.000000
v 6.543000 1.694500 0.000000
v 5.912000 2.722500 0.000000
v 12.890000 4.350500 6.000000
v 18.333000 -5.403500 6.000000
v 18.449000 -6.919500 6.000000
v -9.477000 -13.527500 6.000000
v -16.781000 -5.244500 6.000000
v -12.344000 -2.770500 6.000000
v -11.887000 -3.384500 6.000000
v -5.860000 -1.611500 6.000000
v -8.281000 4.625500 6.000000
v -9.919000 3.998500 6.000000
v -12.296000 9.508500 6.000000
v -16.910000 7.213500 6.000000
v -18.449000 10.432500 6.000000
v -13.811000 13.249500 6.000000
v -12.911000 12.612500 6.000000
v -9.145000 13.527500 6.000000
v -2.900000 -0.552500 6.000000
v 6.543000 1.694500 6.000000
v 5.912000 2.722500 6.000000
vn 0.000000 0.000000 -1.000000
vn 0.000000 0.000000 -1.000000
vn -0.000000 0.000000 -1.000000
vn 0.000000 0.000000 -1.000000
vn 0.000000 0.000000 -1.000000
vn 0.000000 0.000000 -1.000000
vn -0.000000 0.000000 -1.000000
vn -0.000000 0.000000 -1.000000
vn 0.000000 0.000000 -1.000000
vn 0.000000 0.000000 -1.000000
vn 0.000000 0.000000 -1.000000
vn 0.000000 0.000000 -1.000000
vn 0.000000 0.000000 -1.000000
vn 0.000000 0.000000 -1.000000
vn 0.000000 0.000000 -1.000000
vn 0.000000 0.000000 -1.000000
vn 0.000000 0.000000 -1.000000
vn -0.000000 0.000000 1.000000
vn 0.000000 0.000000 1.000000
vn 0.000000 0.000000 1.000000
vn 0.000000 0.000000 1.000000
vn 0.000000 0.000000 1.000000
vn 0.000000 0.000000 1.000000
vn 0.000000 0.000000 1.000000
vn 0.000000 0.000000 1.000000
vn 0.000000 0.000000 1.000000
vn 0.000000 0.000000 1.000000
vn 0.000000 0.000000 1.000000
vn 0.000000 0.000000 1.000000
vn 0.000000 0.000000 1.000000
vn 0.000000 -0.000000 1.000000
vn 0.000000 0.000000 1.000000
vn 0.000000 0.000000 1.000000
vn 0.000000 0.000000 1.000000
vn 0.873239 0.487292 0.000000
vn 0.873239 0.487292 -0.000000
vn 0.997085 0.076294 0.000000
vn 0.997085 0.076294 -0.000000
vn 0.230267 -0.973128 0.000000
vn 0.230267 -0.973128 0.000000
vn -0.750041 -0.661391 0.000000
vn -0.750041 -0.661391 0.000000
vn -0.486996 0.873404 0.000000
vn -0.486996 0.873404 0.000000
vn 0.802190 0.597069 0.000000
vn 0.802190 0.597069 -0.000000
vn -0.282218 0.959350 0.000000
vn -0.282218 0.959350 0.000000
vn -0.932232 -0.361862 0.000000
vn -0.932232 -0.361862 0.000000
vn 0.357489 -0.933918 0.000000
vn 0.357489 -0.933918 0.000000
vn -0.918203 -0.396110 0.000000
vn -0.918203 -0.396110 0.000000
vn 0.445350 -0.895357 0.000000
vn 0.445350 -0.895357 0.000000
vn -0.902191 -0.431336 0.000000
vn -0.902191 -0.431336 0.000000
vn -0.519122 0.854700 0.000000
vn -0.519122 0.854700 0.000000
vn 0.577715 0.816238 0.000000
vn 0.577715 0.816238 -0.000000
vn -0.236095 0.971730 0.000000
vn -0.236095 0.971730 0.000000
vn 0.914119 0.405446 0.000000
vn 0.914119 0.405446 -0.000000
vn -0.231491 0.972837 0.000000
vn -0.231491 0.972837 0.000000
vn -0.852256 -0.523126 0.000000
vn -0.852256 -0.523126 0.000000
vn -0.227203 0.973847 0.000000
vn -0.227203 0.973847 0.000000
usemtl assumed_base
f 19//1 1//1 2//1
f 19//2 2//2 3//2
f 3//3 4//3 5//3
f 5//4 6//4 7//4
f 3//5 5//5 7//5
f 3//6 7//6 8//6
f 9//7 10//7 11//7
f 11//8 12//8 13//8
f 11//9 13//9 14//9
f 9//10 11//10 14//10
f 9//11 14//11 15//11
f 9//12 15//12 16//12
f 8//13 9//13 16//13
f 8//14 16//14 17//14
f 3//15 8//15 17//15
f 3//16 17//16 18//16
f 3//17 18//17 19//17
usemtl assumed_roof
f 38//18 21//18 20//18
f 38//19 22//19 21//19
f 22//20 24//20 23//20
f 24//21 26//21 25//21
f 22//22 26//22 24//22
f 22//23 27//23 26//23
f 28//24 30//24 29//24
f 30//25 32//25 31//25
f 30//26 33//26 32//26
f 28//27 33//27 30//27
f 28//28 34//28 33//28
f 28//29 35//29 34//29
f 27//30 35//30 28//30
f 27//31 36//31 35//31
f 22//32 36//32 27//32
f 22//33 37//33 36//33
f 22//34 38//34 37//34
usemtl assumed_wall
f 1//35 21//35 2//35
f 1//36 20//36 21//36
f 2//37 22//37 3//37
f 2//38 21//38 22//38
f 3//39 23//39 4//39
f 3//40 22//40 23//40
f 4//41 24//41 5//41
f 4//42 23//42 24//42
f 5//43 25//43 6//43
f 5//44 24//44 25//44
f 6//45 26//45 7//45
f 6//46 25//46 26//46
f 7//47 27//47 8//47
f 7//48 26//48 27//48
f 8//49 28//49 9//49
f 8//50 27//50 28//50
f 9//51 29//51 10//51
f 9//52 28//52 29//52
f 10//53 30//53 11//53
f 10//54 29//54 30//54
f 11//55 31//55 12//55
f 11//56 30//56 31//56
f 12//57 32//57 13//57
f 12//58 31//58 32//58
f 13//59 33//59 14//59
f 13//60 32//60 33//60
f 14//61 34//61 15//61
f 14//62 33//62 34//62
f 15//63 35//63 16//63
f 15//64 34//64 35//64
f 16//65 36//65 17//65
f 16//66 35//66 36//66
f 17//67 37//67 18//67
f 17//68 36//68 37//68
f 18//69 38//69 19//69
f 18//70 37//70 38//70
f 19//71 20//71 1//71
f 19//72 38//72 20//72
