# construction_5530_assumed_A_Casa
# source A_Casa
# h_campo 0.000000
# modeled_height 6.000000
# height_kind assumed
# local_origin_world_x 172001.034850
# local_origin_world_y 402500.144600
mtllib construction_artifacts.mtl

o construction_5530_assumed_A_Casa
v -11.333500 -0.246000 0.000000
v -4.624500 3.378000 0.000000
v 6.627500 11.565000 0.000000
v 11.333500 6.569000 0.000000
v 4.491500 1.619000 0.000000
v 7.864500 -5.536000 0.000000
v -4.721500 -11.565000 0.000000
v -11.333500 -0.246000 6.000000
v -4.624500 3.378000 6.000000
v 6.627500 11.565000 6.000000
v 11.333500 6.569000 6.000000
v 4.491500 1.619000 6.000000
v 7.864500 -5.536000 6.000000
v -4.721500 -11.565000 6.000000
vn 0.000000 0.000000 -1.000000
vn 0.000000 0.000000 -1.000000
vn 0.000000 -0.000000 -1.000000
vn 0.000000 0.000000 -1.000000
vn 0.000000 -0.000000 -1.000000
vn 0.000000 -0.000000 1.000000
vn 0.000000 0.000000 1.000000
vn 0.000000 0.000000 1.000000
vn 0.000000 0.000000 1.000000
vn 0.000000 0.000000 1.000000
vn -0.475265 0.879843 0.000000
vn -0.475265 0.879843 0.000000
vn -0.588347 0.808609 0.000000
vn -0.588347 0.808609 0.000000
vn 0.727918 0.685665 0.000000
vn 0.727918 0.685665 -0.000000
vn 0.586156 -0.810198 0.000000
vn 0.586156 -0.810198 0.000000
vn 0.904529 0.426412 0.000000
vn 0.904529 0.426412 -0.000000
vn 0.432016 -0.901866 0.000000
vn 0.432016 -0.901866 0.000000
vn -0.863472 -0.504397 0.000000
vn -0.863472 -0.504397 0.000000
usemtl assumed_base
f 7//1 1//1 2//1
f 7//2 2//2 3//2
f 3//3 4//3 5//3
f 7//4 3//4 5//4
f 5//5 6//5 7//5
usemtl assumed_roof
f 14//6 9//6 8//6
f 14//7 10//7 9//7
f 10//8 12//8 11//8
f 14//9 12//9 10//9
f 12//10 14//10 13//10
usemtl assumed_wall
f 1//11 9//11 2//11
f 1//12 8//12 9//12
f 2//13 10//13 3//13
f 2//14 9//14 10//14
f 3//15 11//15 4//15
f 3//16 10//16 11//16
f 4//17 12//17 5//17
f 4//18 11//18 12//18
f 5//19 13//19 6//19
f 5//20 12//20 13//20
f 6//21 14//21 7//21
f 6//22 13//22 14//22
f 7//23 8//23 1//23
f 7//24 14//24 8//24
