# construction_5179_assumed_A_Casa
# source A_Casa
# h_campo 0.000000
# modeled_height 6.000000
# height_kind assumed
# local_origin_world_x 172001.034850
# local_origin_world_y 402500.144600
mtllib construction_artifacts.mtl

o construction_5179_assumed_A_Casa
v 2.375500 7.414500 0.000000
v 4.201500 7.521500 0.000000
v 5.183500 -3.154500 0.000000
v 4.382500 -3.256500 0.000000
v 5.011500 -8.144500 0.000000
v 1.964500 -8.580500 0.000000
v 1.960500 -7.723500 0.000000
v -3.379500 -7.975500 0.000000
v -5.183500 7.038500 0.000000
v -2.091500 7.096500 0.000000
v -2.053500 7.953500 0.000000
v 2.341500 8.580500 0.000000
v 2.375500 7.414500 6.000000
v 4.201500 7.521500 6.000000
v 5.183500 -3.154500 6.000000
v 4.382500 -3.256500 6.000000
v 5.011500 -8.144500 6.000000
v 1.964500 -8.580500 6.000000
v 1.960500 -7.723500 6.000000
v -3.379500 -7.975500 6.000000
v -5.183500 7.038500 6.000000
v -2.091500 7.096500 6.000000
v -2.053500 7.953500 6.000000
v 2.341500 8.580500 6.000000
vn 0.000000 0.000000 -1.000000
vn 0.000000 0.000000 -1.000000
vn 0.000000 0.000000 -1.000000
vn 0.000000 -0.000000 -1.000000
vn 0.000000 -0.000000 -1.000000
vn 0.000000 0.000000 -1.000000
vn 0.000000 0.000000 -1.000000
vn 0.000000 0.000000 -1.000000
vn 0.000000 0.000000 -1.000000
vn 0.000000 0.000000 -1.000000
vn -0.000000 0.000000 1.000000
vn 0.000000 0.000000 1.000000
vn 0.000000 0.000000 1.000000
vn 0.000000 0.000000 1.000000
vn 0.000000 0.000000 1.000000
vn 0.000000 0.000000 1.000000
vn 0.000000 0.000000 1.000000
vn 0.000000 -0.000000 1.000000
vn 0.000000 0.000000 1.000000
vn 0.000000 0.000000 1.000000
vn -0.058498 0.998288 0.000000
vn -0.058498 0.998288 0.000000
vn 0.995796 0.091595 0.000000
vn 0.995796 0.091595 -0.000000
vn 0.126321 -0.991989 0.000000
vn 0.126321 -0.991989 0.000000
vn 0.991822 0.127630 0.000000
vn 0.991822 0.127630 -0.000000
vn 0.141649 -0.989917 0.000000
vn 0.141649 -0.989917 0.000000
vn -0.999989 -0.004667 0.000000
vn -0.999989 -0.004667 0.000000
vn 0.047139 -0.998888 0.000000
vn 0.047139 -0.998888 0.000000
vn -0.992859 -0.119296 0.000000
vn -0.992859 -0.119296 0.000000
vn -0.018755 0.999824 0.000000
vn -0.018755 0.999824 0.000000
vn -0.999018 0.044297 0.000000
vn -0.999018 0.044297 0.000000
vn -0.141232 0.989977 0.000000
vn -0.141232 0.989977 0.000000
vn 0.999575 0.029147 0.000000
vn 0.999575 0.029147 -0.000000
usemtl assumed_base
f 1//1 2//1 3//1
f 1//2 3//2 4//2
f 1//3 4//3 5//3
f 1//4 5//4 6//4
f 12//5 1//5 6//5
f 12//6 6//6 7//6
f 12//7 7//7 8//7
f 8//8 9//8 10//8
f 12//9 8//9 10//9
f 10//10 11//10 12//10
usemtl assumed_roof
f 13//11 15//11 14//11
f 13//12 16//12 15//12
f 13//13 17//13 16//13
f 13//14 18//14 17//14
f 24//15 18//15 13//15
f 24//16 19//16 18//16
f 24//17 20//17 19//17
f 20//18 22//18 21//18
f 24//19 22//19 20//19
f 22//20 24//20 23//20
usemtl assumed_wall
f 1//21 14//21 2//21
f 1//22 13//22 14//22
f 2//23 15//23 3//23
f 2//24 14//24 15//24
f 3//25 16//25 4//25
f 3//26 15//26 16//26
f 4//27 17//27 5//27
f 4//28 16//28 17//28
f 5//29 18//29 6//29
f 5//30 17//30 18//30
f 6//31 19//31 7//31
f 6//32 18//32 19//32
f 7//33 20//33 8//33
f 7//34 19//34 20//34
f 8//35 21//35 9//35
f 8//36 20//36 21//36
f 9//37 22//37 10//37
f 9//38 21//38 22//38
f 10//39 23//39 11//39
f 10//40 22//40 23//40
f 11//41 24//41 12//41
f 11//42 23//42 24//42
f 12//43 13//43 1//43
f 12//44 24//44 13//44
