# construction_3697_assumed_A_Casa
# source A_Casa
# h_campo 0.000000
# modeled_height 6.000000
# height_kind assumed
# local_origin_world_x 172001.034850
# local_origin_world_y 402500.144600
mtllib construction_artifacts.mtl

o construction_3697_assumed_A_Casa
v 3.589500 -22.144500 0.000000
v -0.722500 -24.007500 0.000000
v -7.779500 -8.356500 0.000000
v -6.567500 -7.556500 0.000000
v -12.252500 7.255500 0.000000
v -5.728500 10.123500 0.000000
v -10.824500 22.957500 0.000000
v -8.174500 24.007500 0.000000
v -6.571500 20.437500 0.000000
v -3.483500 21.444500 0.000000
v -1.942500 15.829500 0.000000
v -0.988500 16.247500 0.000000
v -0.094500 13.271500 0.000000
v -2.833500 12.073500 0.000000
v -0.775500 5.986500 0.000000
v 5.816500 8.248500 0.000000
v 7.124500 6.115500 0.000000
v 11.066500 7.282500 0.000000
v 12.252500 4.374500 0.000000
v 0.754500 0.269500 0.000000
v 0.464500 -5.900500 0.000000
v 6.271500 -20.205500 0.000000
v 3.363500 -21.369500 0.000000
v 3.589500 -22.144500 6.000000
v -0.722500 -24.007500 6.000000
v -7.779500 -8.356500 6.000000
v -6.567500 -7.556500 6.000000
v -12.252500 7.255500 6.000000
v -5.728500 10.123500 6.000000
v -10.824500 22.957500 6.000000
v -8.174500 24.007500 6.000000
v -6.571500 20.437500 6.000000
v -3.483500 21.444500 6.000000
v -1.942500 15.829500 6.000000
v -0.988500 16.247500 6.000000
v -0.094500 13.271500 6.000000
v -2.833500 12.073500 6.000000
v -0.775500 5.986500 6.000000
v 5.816500 8.248500 6.000000
v 7.124500 6.115500 6.000000
v 11.066500 7.282500 6.000000
v 12.252500 4.374500 6.000000
v 0.754500 0.269500 6.000000
v 0.464500 -5.900500 6.000000
v 6.271500 -20.205500 6.000000
v 3.363500 -21.369500 6.000000
vn 0.000000 -0.000000 -1.000000
vn -0.000000 0.000000 -1.000000
vn 0.000000 0.000000 -1.000000
vn 0.000000 0.000000 -1.000000
vn 0.000000 0.000000 -1.000000
vn 0.000000 0.000000 -1.000000
vn 0.000000 0.000000 -1.000000
vn 0.000000 0.000000 -1.000000
vn 0.000000 0.000000 -1.000000
vn 0.000000 0.000000 -1.000000
vn 0.000000 0.000000 -1.000000
vn 0.000000 0.000000 -1.000000
vn 0.000000 0.000000 -1.000000
vn 0.000000 0.000000 -1.000000
vn 0.000000 0.000000 -1.000000
vn 0.000000 0.000000 -1.000000
vn 0.000000 0.000000 -1.000000
vn 0.000000 0.000000 -1.000000
vn 0.000000 0.000000 -1.000000
vn 0.000000 0.000000 -1.000000
vn 0.000000 0.000000 -1.000000
vn 0.000000 0.000000 1.000000
vn 0.000000 0.000000 1.000000
vn 0.000000 0.000000 1.000000
vn 0.000000 0.000000 1.000000
vn 0.000000 0.000000 1.000000
vn 0.000000 0.000000 1.000000
vn 0.000000 0.000000 1.000000
vn 0.000000 0.000000 1.000000
vn -0.000000 0.000000 1.000000
vn -0.000000 0.000000 1.000000
vn 0.000000 0.000000 1.000000
vn 0.000000 0.000000 1.000000
vn 0.000000 0.000000 1.000000
vn 0.000000 0.000000 1.000000
vn -0.000000 0.000000 1.000000
vn -0.000000 0.000000 1.000000
vn 0.000000 0.000000 1.000000
vn 0.000000 0.000000 1.000000
vn 0.000000 0.000000 1.000000
vn 0.000000 0.000000 1.000000
vn 0.000000 0.000000 1.000000
vn 0.396615 -0.917985 0.000000
vn 0.396615 -0.917985 0.000000
vn -0.911615 -0.411045 0.000000
vn -0.911615 -0.411045 0.000000
vn -0.550881 0.834584 0.000000
vn -0.550881 0.834584 0.000000
vn -0.933597 -0.358324 0.000000
vn -0.933597 -0.358324 0.000000
vn -0.402438 0.915447 0.000000
vn -0.402438 0.915447 0.000000
vn -0.929413 -0.369042 0.000000
vn -0.929413 -0.369042 0.000000
vn -0.368364 0.929682 0.000000
vn -0.368364 0.929682 0.000000
vn 0.912256 0.409621 0.000000
vn 0.912256 0.409621 -0.000000
vn -0.310033 0.950726 0.000000
vn -0.310033 0.950726 0.000000
vn 0.964342 0.264657 0.000000
vn 0.964342 0.264657 -0.000000
vn -0.401322 0.915937 0.000000
vn -0.401322 0.915937 0.000000
vn 0.957720 0.287702 0.000000
vn 0.957720 0.287702 -0.000000
vn 0.400731 -0.916196 0.000000
vn 0.400731 -0.916196 0.000000
vn 0.947321 0.320287 0.000000
vn 0.947321 0.320287 -0.000000
vn -0.324566 0.945863 0.000000
vn -0.324566 0.945863 0.000000
vn 0.852481 0.522759 0.000000
vn 0.852481 0.522759 -0.000000
vn -0.283865 0.958864 0.000000
vn -0.283865 0.958864 0.000000
vn 0.925952 0.377641 0.000000
vn 0.925952 0.377641 -0.000000
vn 0.336233 -0.941779 0.000000
vn 0.336233 -0.941779 0.000000
vn 0.998897 -0.046950 0.000000
vn 0.998897 -0.046950 0.000000
vn 0.926566 0.376132 0.000000
vn 0.926566 0.376132 -0.000000
vn 0.371611 -0.928389 0.000000
vn 0.371611 -0.928389 0.000000
vn 0.960014 0.279952 0.000000
vn 0.960014 0.279952 -0.000000
usemtl assumed_base
f 23//1 1//1 2//1
f 23//2 2//2 3//2
f 23//3 3//3 4//3
f 23//4 4//4 5//4
f 23//5 5//5 6//5
f 6//6 7//6 8//6
f 23//7 6//7 8//7
f 23//8 8//8 9//8
f 9//9 10//9 11//9
f 11//10 12//10 13//10
f 9//11 11//11 13//11
f 9//12 13//12 14//12
f 9//13 14//13 15//13
f 15//14 16//14 17//14
f 17//15 18//15 19//15
f 15//16 17//16 19//16
f 15//17 19//17 20//17
f 9//18 15//18 20//18
f 9//19 20//19 21//19
f 23//20 9//20 21//20
f 21//21 22//21 23//21
usemtl assumed_roof
f 46//22 25//22 24//22
f 46//23 26//23 25//23
f 46//24 27//24 26//24
f 46//25 28//25 27//25
f 46//26 29//26 28//26
f 29//27 31//27 30//27
f 46//28 31//28 29//28
f 46//29 32//29 31//29
f 32//30 34//30 33//30
f 34//31 36//31 35//31
f 32//32 36//32 34//32
f 32//33 37//33 36//33
f 32//34 38//34 37//34
f 38//35 40//35 39//35
f 40//36 42//36 41//36
f 38//37 42//37 40//37
f 38//38 43//38 42//38
f 32//39 43//39 38//39
f 32//40 44//40 43//40
f 46//41 44//41 32//41
f 44//42 46//42 45//42
usemtl assumed_wall
f 1//43 25//43 2//43
f 1//44 24//44 25//44
f 2//45 26//45 3//45
f 2//46 25//46 26//46
f 3//47 27//47 4//47
f 3//48 26//48 27//48
f 4//49 28//49 5//49
f 4//50 27//50 28//50
f 5//51 29//51 6//51
f 5//52 28//52 29//52
f 6//53 30//53 7//53
f 6//54 29//54 30//54
f 7//55 31//55 8//55
f 7//56 30//56 31//56
f 8//57 32//57 9//57
f 8//58 31//58 32//58
f 9//59 33//59 10//59
f 9//60 32//60 33//60
f 10//61 34//61 11//61
f 10//62 33//62 34//62
f 11//63 35//63 12//63
f 11//64 34//64 35//64
f 12//65 36//65 13//65
f 12//66 35//66 36//66
f 13//67 37//67 14//67
f 13//68 36//68 37//68
f 14//69 38//69 15//69
f 14//70 37//70 38//70
f 15//71 39//71 16//71
f 15//72 38//72 39//72
f 16//73 40//73 17//73
f 16//74 39//74 40//74
f 17//75 41//75 18//75
f 17//76 40//76 41//76
f 18//77 42//77 19//77
f 18//78 41//78 42//78
f 19//79 43//79 20//79
f 19//80 42//80 43//80
f 20//81 44//81 21//81
f 20//82 43//82 44//82
f 21//83 45//83 22//83
f 21//84 44//84 45//84
f 22//85 46//85 23//85
f 22//86 45//86 46//86
f 23//87 24//87 1//87
f 23//88 46//88 24//88
