# construction_6214_assumed_A_Casa
# source A_Casa
# h_campo 0.000000
# modeled_height 6.000000
# height_kind assumed
# local_origin_world_x 172001.034850
# local_origin_world_y 402500.144600
mtllib construction_artifacts.mtl

o construction_6214_assumed_A_Casa
v -3.939500 12.330500 0.000000
v 0.599500 12.568500 0.000000
v 0.605500 11.405500 0.000000
v 6.990500 11.955500 0.000000
v 7.790500 3.650500 0.000000
v 3.415500 3.590500 0.000000
v 3.514500 -1.063500 0.000000
v 6.994500 -11.531500 0.000000
v 4.445500 -12.568500 0.000000
v -3.739500 0.379500 0.000000
v -3.775500 4.907500 0.000000
v -7.048500 4.511500 0.000000
v -7.790500 8.554500 0.000000
v -3.920500 8.662500 0.000000
v -3.939500 12.330500 6.000000
v 0.599500 12.568500 6.000000
v 0.605500 11.405500 6.000000
v 6.990500 11.955500 6.000000
v 7.790500 3.650500 6.000000
v 3.415500 3.590500 6.000000
v 3.514500 -1.063500 6.000000
v 6.994500 -11.531500 6.000000
v 4.445500 -12.568500 6.000000
v -3.739500 0.379500 6.000000
v -3.775500 4.907500 6.000000
v -7.048500 4.511500 6.000000
v -7.790500 8.554500 6.000000
v -3.920500 8.662500 6.000000
vn 0.000000 0.000000 -1.000000
vn 0.000000 0.000000 -1.000000
vn 0.000000 0.000000 -1.000000
vn 0.000000 0.000000 -1.000000
vn 0.000000 0.000000 -1.000000
vn 0.000000 0.000000 -1.000000
vn 0.000000 0.000000 -1.000000
vn 0.000000 0.000000 -1.000000
vn 0.000000 0.000000 -1.000000
vn 0.000000 0.000000 -1.000000
vn 0.000000 -0.000000 -1.000000
vn 0.000000 0.000000 -1.000000
vn 0.000000 -0.000000 1.000000
vn 0.000000 0.000000 1.000000
vn 0.000000 0.000000 1.000000
vn -0.000000 0.000000 1.000000
vn 0.000000 0.000000 1.000000
vn 0.000000 0.000000 1.000000
vn 0.000000 0.000000 1.000000
vn 0.000000 0.000000 1.000000
vn 0.000000 0.000000 1.000000
vn 0.000000 0.000000 1.000000
vn 0.000000 0.000000 1.000000
vn 0.000000 -0.000000 1.000000
vn -0.052363 0.998628 0.000000
vn -0.052363 0.998628 0.000000
vn 0.999987 0.005159 0.000000
vn 0.999987 0.005159 -0.000000
vn -0.085822 0.996311 0.000000
vn -0.085822 0.996311 0.000000
vn 0.995393 0.095884 0.000000
vn 0.995393 0.095884 -0.000000
vn 0.013713 -0.999906 0.000000
vn 0.013713 -0.999906 0.000000
vn 0.999774 0.021267 0.000000
vn 0.999774 0.021267 -0.000000
vn 0.948937 0.315466 0.000000
vn 0.948937 0.315466 -0.000000
vn 0.376835 -0.926280 0.000000
vn 0.376835 -0.926280 0.000000
vn -0.845273 -0.534334 0.000000
vn -0.845273 -0.534334 0.000000
vn -0.999968 -0.007950 0.000000
vn -0.999968 -0.007950 0.000000
vn 0.120114 -0.992760 0.000000
vn 0.120114 -0.992760 0.000000
vn -0.983573 -0.180512 0.000000
vn -0.983573 -0.180512 0.000000
vn -0.027896 0.999611 0.000000
vn -0.027896 0.999611 0.000000
vn -0.999987 -0.005180 0.000000
vn -0.999987 -0.005180 0.000000
usemtl assumed_base
f 14//1 1//1 2//1
f 14//2 2//2 3//2
f 14//3 3//3 4//3
f 14//4 4//4 5//4
f 14//5 5//5 6//5
f 14//6 6//6 7//6
f 14//7 7//7 8//7
f 14//8 8//8 9//8
f 9//9 10//9 11//9
f 14//10 9//10 11//10
f 14//11 11//11 12//11
f 12//12 13//12 14//12
usemtl assumed_roof
f 28//13 16//13 15//13
f 28//14 17//14 16//14
f 28//15 18//15 17//15
f 28//16 19//16 18//16
f 28//17 20//17 19//17
f 28//18 21//18 20//18
f 28//19 22//19 21//19
f 28//20 23//20 22//20
f 23//21 25//21 24//21
f 28//22 25//22 23//22
f 28//23 26//23 25//23
f 26//24 28//24 27//24
usemtl assumed_wall
f 1//25 16//25 2//25
f 1//26 15//26 16//26
f 2//27 17//27 3//27
f 2//28 16//28 17//28
f 3//29 18//29 4//29
f 3//30 17//30 18//30
f 4//31 19//31 5//31
f 4//32 18//32 19//32
f 5//33 20//33 6//33
f 5//34 19//34 20//34
f 6//35 21//35 7//35
f 6//36 20//36 21//36
f 7//37 22//37 8//37
f 7//38 21//38 22//38
f 8//39 23//39 9//39
f 8//40 22//40 23//40
f 9//41 24//41 10//41
f 9//42 23//42 24//42
f 10//43 25//43 11//43
f 10//44 24//44 25//44
f 11//45 26//45 12//45
f 11//46 25//46 26//46
f 12//47 27//47 13//47
f 12//48 26//48 27//48
f 13//49 28//49 14//49
f 13//50 27//50 28//50
f 14//51 15//51 1//51
f 14//52 28//52 15//52
