# construction_2807_assumed_A_Casa
# source A_Casa
# h_campo 0.000000
# modeled_height 6.000000
# height_kind assumed
# local_origin_world_x 172001.034850
# local_origin_world_y 402500.144600
mtllib construction_artifacts.mtl

o construction_2807_assumed_A_Casa
v -10.996000 1.174500 0.000000
v -7.384000 3.220500 0.000000
v -8.462000 5.145500 0.000000
v 0.278000 10.349500 0.000000
v 1.719000 8.618500 0.000000
v 5.169000 10.293500 0.000000
v 10.996000 0.634500 0.000000
v 7.133000 -1.175500 0.000000
v 9.129000 -4.448500 0.000000
v 1.916000 -8.212500 0.000000
v 1.504000 -7.208500 0.000000
v -4.183000 -10.349500 0.000000
v -10.996000 1.174500 6.000000
v -7.384000 3.220500 6.000000
v -8.462000 5.145500 6.000000
v 0.278000 10.349500 6.000000
v 1.719000 8.618500 6.000000
v 5.169000 10.293500 6.000000
v 10.996000 0.634500 6.000000
v 7.133000 -1.175500 6.000000
v 9.129000 -4.448500 6.000000
v 1.916000 -8.212500 6.000000
v 1.504000 -7.208500 6.000000
v -4.183000 -10.349500 6.000000
vn 0.000000 0.000000 -1.000000
vn 0.000000 0.000000 -1.000000
vn 0.000000 0.000000 -1.000000
vn 0.000000 0.000000 -1.000000
vn 0.000000 0.000000 -1.000000
vn 0.000000 0.000000 -1.000000
vn 0.000000 0.000000 -1.000000
vn 0.000000 -0.000000 -1.000000
vn 0.000000 0.000000 -1.000000
vn 0.000000 0.000000 -1.000000
vn 0.000000 0.000000 1.000000
vn 0.000000 -0.000000 1.000000
vn 0.000000 -0.000000 1.000000
vn 0.000000 0.000000 1.000000
vn 0.000000 0.000000 1.000000
vn 0.000000 0.000000 1.000000
vn 0.000000 0.000000 1.000000
vn 0.000000 0.000000 1.000000
vn 0.000000 0.000000 1.000000
vn 0.000000 0.000000 1.000000
vn -0.492867 0.870105 0.000000
vn -0.492867 0.870105 0.000000
vn -0.872506 -0.488603 0.000000
vn -0.872506 -0.488603 0.000000
vn -0.511601 0.859223 0.000000
vn -0.511601 0.859223 0.000000
vn 0.768549 0.639791 0.000000
vn 0.768549 0.639791 -0.000000
vn -0.436753 0.899581 0.000000
vn -0.436753 0.899581 0.000000
vn 0.856255 0.516554 0.000000
vn 0.856255 0.516554 -0.000000
vn 0.424284 -0.905529 0.000000
vn 0.424284 -0.905529 0.000000
vn 0.853765 0.520658 0.000000
vn 0.853765 0.520658 -0.000000
vn 0.462633 -0.886550 0.000000
vn 0.462633 -0.886550 0.000000
vn -0.925135 -0.379637 0.000000
vn -0.925135 -0.379637 0.000000
vn 0.483472 -0.875360 0.000000
vn 0.483472 -0.875360 0.000000
vn -0.860816 -0.508916 0.000000
vn -0.860816 -0.508916 0.000000
usemtl assumed_base
f 12//1 1//1 2//1
f 2//2 3//2 4//2
f 12//3 2//3 4//3
f 12//4 4//4 5//4
f 12//5 5//5 6//5
f 6//6 7//6 8//6
f 12//7 6//7 8//7
f 8//8 9//8 10//8
f 8//9 10//9 11//9
f 8//10 11//10 12//10
usemtl assumed_roof
f 24//11 14//11 13//11
f 14//12 16//12 15//12
f 24//13 16//13 14//13
f 24//14 17//14 16//14
f 24//15 18//15 17//15
f 18//16 20//16 19//16
f 24//17 20//17 18//17
f 20//18 22//18 21//18
f 20//19 23//19 22//19
f 20//20 24//20 23//20
usemtl assumed_wall
f 1//21 14//21 2//21
f 1//22 13//22 14//22
f 2//23 15//23 3//23
f 2//24 14//24 15//24
f 3//25 16//25 4//25
f 3//26 15//26 16//26
f 4//27 17//27 5//27
f 4//28 16//28 17//28
f 5//29 18//29 6//29
f 5//30 17//30 18//30
f 6//31 19//31 7//31
f 6//32 18//32 19//32
f 7//33 20//33 8//33
f 7//34 19//34 20//34
f 8//35 21//35 9//35
f 8//36 20//36 21//36
f 9//37 22//37 10//37
f 9//38 21//38 22//38
f 10//39 23//39 11//39
f 10//40 22//40 23//40
f 11//41 24//41 12//41
f 11//42 23//42 24//42
f 12//43 13//43 1//43
f 12//44 24//44 13//44
