# construction_5082_assumed_A_Casa
# source A_Casa
# h_campo 0.000000
# modeled_height 6.000000
# height_kind assumed
# local_origin_world_x 172001.034850
# local_origin_world_y 402500.144600
mtllib construction_artifacts.mtl

o construction_5082_assumed_A_Casa
v -14.972000 8.364000 0.000000
v -6.629000 16.973000 0.000000
v 3.816000 5.723000 0.000000
v 0.411000 2.125000 0.000000
v 1.644000 1.076000 0.000000
v -0.882000 -1.581000 0.000000
v 3.729000 -4.877000 0.000000
v 6.210000 -1.972000 0.000000
v 11.619000 -5.484000 0.000000
v 9.833000 -8.919000 0.000000
v 14.972000 -11.968000 0.000000
v 11.900000 -16.973000 0.000000
v -4.892000 -4.751000 0.000000
v -3.190000 -2.969000 0.000000
v -14.972000 8.364000 6.000000
v -6.629000 16.973000 6.000000
v 3.816000 5.723000 6.000000
v 0.411000 2.125000 6.000000
v 1.644000 1.076000 6.000000
v -0.882000 -1.581000 6.000000
v 3.729000 -4.877000 6.000000
v 6.210000 -1.972000 6.000000
v 11.619000 -5.484000 6.000000
v 9.833000 -8.919000 6.000000
v 14.972000 -11.968000 6.000000
v 11.900000 -16.973000 6.000000
v -4.892000 -4.751000 6.000000
v -3.190000 -2.969000 6.000000
vn 0.000000 0.000000 -1.000000
vn 0.000000 0.000000 -1.000000
vn 0.000000 0.000000 -1.000000
vn 0.000000 0.000000 -1.000000
vn 0.000000 0.000000 -1.000000
vn 0.000000 0.000000 -1.000000
vn 0.000000 0.000000 -1.000000
vn 0.000000 0.000000 -1.000000
vn 0.000000 0.000000 -1.000000
vn 0.000000 0.000000 -1.000000
vn 0.000000 0.000000 -1.000000
vn 0.000000 0.000000 -1.000000
vn 0.000000 0.000000 1.000000
vn 0.000000 0.000000 1.000000
vn 0.000000 -0.000000 1.000000
vn 0.000000 0.000000 1.000000
vn 0.000000 0.000000 1.000000
vn -0.000000 0.000000 1.000000
vn -0.000000 0.000000 1.000000
vn 0.000000 0.000000 1.000000
vn 0.000000 0.000000 1.000000
vn 0.000000 0.000000 1.000000
vn 0.000000 0.000000 1.000000
vn 0.000000 0.000000 1.000000
vn -0.718114 0.695926 0.000000
vn -0.718114 0.695926 0.000000
vn 0.732840 0.680401 0.000000
vn 0.732840 0.680401 -0.000000
vn 0.726319 -0.687358 0.000000
vn 0.726319 -0.687358 0.000000
vn 0.647989 0.761650 0.000000
vn 0.647989 0.761650 -0.000000
vn 0.724747 -0.689015 0.000000
vn 0.724747 -0.689015 0.000000
vn 0.581522 0.813531 0.000000
vn 0.581522 0.813531 -0.000000
vn -0.760419 0.649432 0.000000
vn -0.760419 0.649432 0.000000
vn 0.544569 0.838716 0.000000
vn 0.544569 0.838716 -0.000000
vn 0.887238 -0.461312 0.000000
vn 0.887238 -0.461312 0.000000
vn 0.510256 0.860022 0.000000
vn 0.510256 0.860022 -0.000000
vn 0.852266 -0.523109 0.000000
vn 0.852266 -0.523109 0.000000
vn -0.588475 -0.808515 0.000000
vn -0.588475 -0.808515 0.000000
vn -0.723153 0.690688 0.000000
vn -0.723153 0.690688 0.000000
vn -0.693241 -0.720706 0.000000
vn -0.693241 -0.720706 0.000000
usemtl assumed_base
f 14//1 1//1 2//1
f 2//2 3//2 4//2
f 14//3 2//3 4//3
f 14//4 4//4 5//4
f 14//5 5//5 6//5
f 14//6 6//6 7//6
f 7//7 8//7 9//7
f 7//8 9//8 10//8
f 14//9 7//9 10//9
f 14//10 10//10 11//10
f 14//11 11//11 12//11
f 12//12 13//12 14//12
usemtl assumed_roof
f 28//13 16//13 15//13
f 16//14 18//14 17//14
f 28//15 18//15 16//15
f 28//16 19//16 18//16
f 28//17 20//17 19//17
f 28//18 21//18 20//18
f 21//19 23//19 22//19
f 21//20 24//20 23//20
f 28//21 24//21 21//21
f 28//22 25//22 24//22
f 28//23 26//23 25//23
f 26//24 28//24 27//24
usemtl assumed_wall
f 1//25 16//25 2//25
f 1//26 15//26 16//26
f 2//27 17//27 3//27
f 2//28 16//28 17//28
f 3//29 18//29 4//29
f 3//30 17//30 18//30
f 4//31 19//31 5//31
f 4//32 18//32 19//32
f 5//33 20//33 6//33
f 5//34 19//34 20//34
f 6//35 21//35 7//35
f 6//36 20//36 21//36
f 7//37 22//37 8//37
f 7//38 21//38 22//38
f 8//39 23//39 9//39
f 8//40 22//40 23//40
f 9//41 24//41 10//41
f 9//42 23//42 24//42
f 10//43 25//43 11//43
f 10//44 24//44 25//44
f 11//45 26//45 12//45
f 11//46 25//46 26//46
f 12//47 27//47 13//47
f 12//48 26//48 27//48
f 13//49 28//49 14//49
f 13//50 27//50 28//50
f 14//51 15//51 1//51
f 14//52 28//52 15//52
