# construction_7111_assumed_A_Casa
# source A_Casa
# h_campo 0.000000
# modeled_height 6.000000
# height_kind assumed
# local_origin_world_x 172001.034850
# local_origin_world_y 402500.144600
mtllib construction_artifacts.mtl

o construction_7111_assumed_A_Casa
v 3.729000 23.083000 0.000000
v 15.618000 18.356000 0.000000
v 11.636000 8.718000 0.000000
v 9.789000 9.638000 0.000000
v 9.019000 8.608000 0.000000
v 10.344000 7.610000 0.000000
v 9.050000 5.765000 0.000000
v 10.169000 4.827000 0.000000
v 5.308000 -2.300000 0.000000
v 7.635000 -3.929000 0.000000
v -5.364000 -23.083000 0.000000
v -15.618000 -17.761000 0.000000
v -8.715000 -8.082000 0.000000
v -15.495000 -5.761000 0.000000
v -13.380000 1.010000 0.000000
v -4.180000 -4.643000 0.000000
v 4.087000 7.530000 0.000000
v -10.871000 15.226000 0.000000
v -10.534000 15.992000 0.000000
v -13.422000 17.427000 0.000000
v -11.723000 19.940000 0.000000
v -8.177000 18.278000 0.000000
v -7.118000 20.429000 0.000000
v -2.943000 18.853000 0.000000
v -1.745000 21.328000 0.000000
v 2.292000 19.594000 0.000000
v 3.729000 23.083000 6.000000
v 15.618000 18.356000 6.000000
v 11.636000 8.718000 6.000000
v 9.789000 9.638000 6.000000
v 9.019000 8.608000 6.000000
v 10.344000 7.610000 6.000000
v 9.050000 5.765000 6.000000
v 10.169000 4.827000 6.000000
v 5.308000 -2.300000 6.000000
v 7.635000 -3.929000 6.000000
v -5.364000 -23.083000 6.000000
v -15.618000 -17.761000 6.000000
v -8.715000 -8.082000 6.000000
v -15.495000 -5.761000 6.000000
v -13.380000 1.010000 6.000000
v -4.180000 -4.643000 6.000000
v 4.087000 7.530000 6.000000
v -10.871000 15.226000 6.000000
v -10.534000 15.992000 6.000000
v -13.422000 17.427000 6.000000
v -11.723000 19.940000 6.000000
v -8.177000 18.278000 6.000000
v -7.118000 20.429000 6.000000
v -2.943000 18.853000 6.000000
v -1.745000 21.328000 6.000000
v 2.292000 19.594000 6.000000
vn 0.000000 0.000000 -1.000000
vn 0.000000 0.000000 -1.000000
vn 0.000000 0.000000 -1.000000
vn 0.000000 0.000000 -1.000000
vn 0.000000 0.000000 -1.000000
vn 0.000000 0.000000 -1.000000
vn 0.000000 -0.000000 -1.000000
vn 0.000000 -0.000000 -1.000000
vn 0.000000 0.000000 -1.000000
vn 0.000000 0.000000 -1.000000
vn 0.000000 0.000000 -1.000000
vn 0.000000 0.000000 -1.000000
vn 0.000000 0.000000 -1.000000
vn 0.000000 0.000000 -1.000000
vn -0.000000 0.000000 -1.000000
vn 0.000000 0.000000 -1.000000
vn 0.000000 -0.000000 -1.000000
vn 0.000000 0.000000 -1.000000
vn 0.000000 0.000000 -1.000000
vn 0.000000 0.000000 -1.000000
vn 0.000000 0.000000 -1.000000
vn 0.000000 0.000000 -1.000000
vn 0.000000 0.000000 -1.000000
vn 0.000000 0.000000 -1.000000
vn -0.000000 0.000000 1.000000
vn 0.000000 0.000000 1.000000
vn 0.000000 0.000000 1.000000
vn 0.000000 0.000000 1.000000
vn 0.000000 0.000000 1.000000
vn 0.000000 0.000000 1.000000
vn 0.000000 0.000000 1.000000
vn 0.000000 0.000000 1.000000
vn 0.000000 0.000000 1.000000
vn 0.000000 0.000000 1.000000
vn 0.000000 0.000000 1.000000
vn 0.000000 -0.000000 1.000000
vn 0.000000 0.000000 1.000000
vn 0.000000 0.000000 1.000000
vn 0.000000 0.000000 1.000000
vn 0.000000 0.000000 1.000000
vn 0.000000 0.000000 1.000000
vn 0.000000 0.000000 1.000000
vn 0.000000 0.000000 1.000000
vn 0.000000 -0.000000 1.000000
vn 0.000000 0.000000 1.000000
vn 0.000000 0.000000 1.000000
vn 0.000000 0.000000 1.000000
vn 0.000000 0.000000 1.000000
vn 0.369463 0.929246 0.000000
vn 0.369463 0.929246 -0.000000
vn 0.924225 -0.381849 0.000000
vn 0.924225 -0.381849 0.000000
vn -0.445856 -0.895105 0.000000
vn -0.445856 -0.895105 0.000000
vn 0.800932 -0.598755 0.000000
vn 0.800932 -0.598755 0.000000
vn 0.601638 0.798769 0.000000
vn 0.601638 0.798769 -0.000000
vn 0.818710 -0.574207 0.000000
vn 0.818710 -0.574207 0.000000
vn 0.642405 0.766366 0.000000
vn 0.642405 0.766366 -0.000000
vn 0.826137 -0.563470 0.000000
vn 0.826137 -0.563470 0.000000
vn 0.573486 0.819215 0.000000
vn 0.573486 0.819215 -0.000000
vn 0.827443 -0.561550 0.000000
vn 0.827443 -0.561550 0.000000
vn -0.460666 -0.887574 0.000000
vn -0.460666 -0.887574 0.000000
vn -0.814154 0.580649 0.000000
vn -0.814154 0.580649 0.000000
vn -0.323878 -0.946099 0.000000
vn -0.323878 -0.946099 0.000000
vn -0.954518 0.298155 0.000000
vn -0.954518 0.298155 0.000000
vn 0.523524 0.852011 0.000000
vn 0.523524 0.852011 -0.000000
vn -0.827263 0.561815 0.000000
vn -0.827263 0.561815 0.000000
vn -0.457504 -0.889208 0.000000
vn -0.457504 -0.889208 0.000000
vn -0.915333 0.402699 0.000000
vn -0.915333 0.402699 0.000000
vn -0.444980 -0.895541 0.000000
vn -0.444980 -0.895541 0.000000
vn -0.828432 0.560090 0.000000
vn -0.828432 0.560090 0.000000
vn 0.424395 0.905477 0.000000
vn 0.424395 0.905477 -0.000000
vn -0.897163 0.441700 0.000000
vn -0.897163 0.441700 0.000000
vn 0.353161 0.935563 0.000000
vn 0.353161 0.935563 -0.000000
vn -0.900099 0.435685 0.000000
vn -0.900099 0.435685 0.000000
vn 0.394661 0.918827 0.000000
vn 0.394661 0.918827 -0.000000
vn -0.924645 0.380830 0.000000
vn -0.924645 0.380830 0.000000
usemtl assumed_base
f 26//1 1//1 2//1
f 26//2 2//2 3//2
f 26//3 3//3 4//3
f 26//4 4//4 5//4
f 5//5 6//5 7//5
f 26//6 5//6 7//6
f 7//7 8//7 9//7
f 9//8 10//8 11//8
f 7//9 9//9 11//9
f 7//10 11//10 12//10
f 13//11 14//11 15//11
f 13//12 15//12 16//12
f 12//13 13//13 16//13
f 7//14 12//14 16//14
f 7//15 16//15 17//15
f 26//16 7//16 17//16
f 26//17 17//17 18//17
f 26//18 18//18 19//18
f 19//19 20//19 21//19
f 19//20 21//20 22//20
f 22//21 23//21 24//21
f 19//22 22//22 24//22
f 26//23 19//23 24//23
f 24//24 25//24 26//24
usemtl assumed_roof
f 52//25 28//25 27//25
f 52//26 29//26 28//26
f 52//27 30//27 29//27
f 52//28 31//28 30//28
f 31//29 33//29 32//29
f 52//30 33//30 31//30
f 33//31 35//31 34//31
f 35//32 37//32 36//32
f 33//33 37//33 35//33
f 33//34 38//34 37//34
f 39//35 41//35 40//35
f 39//36 42//36 41//36
f 38//37 42//37 39//37
f 33//38 42//38 38//38
f 33//39 43//39 42//39
f 52//40 43//40 33//40
f 52//41 44//41 43//41
f 52//42 45//42 44//42
f 45//43 47//43 46//43
f 45//44 48//44 47//44
f 48//45 50//45 49//45
f 45//46 50//46 48//46
f 52//47 50//47 45//47
f 50//48 52//48 51//48
usemtl assumed_wall
f 1//49 28//49 2//49
f 1//50 27//50 28//50
f 2//51 29//51 3//51
f 2//52 28//52 29//52
f 3//53 30//53 4//53
f 3//54 29//54 30//54
f 4//55 31//55 5//55
f 4//56 30//56 31//56
f 5//57 32//57 6//57
f 5//58 31//58 32//58
f 6//59 33//59 7//59
f 6//60 32//60 33//60
f 7//61 34//61 8//61
f 7//62 33//62 34//62
f 8//63 35//63 9//63
f 8//64 34//64 35//64
f 9//65 36//65 10//65
f 9//66 35//66 36//66
f 10//67 37//67 11//67
f 10//68 36//68 37//68
f 11//69 38//69 12//69
f 11//70 37//70 38//70
f 12//71 39//71 13//71
f 12//72 38//72 39//72
f 13//73 40//73 14//73
f 13//74 39//74 40//74
f 14//75 41//75 15//75
f 14//76 40//76 41//76
f 15//77 42//77 16//77
f 15//78 41//78 42//78
f 16//79 43//79 17//79
f 16//80 42//80 43//80
f 17//81 44//81 18//81
f 17//82 43//82 44//82
f 18//83 45//83 19//83
f 18//84 44//84 45//84
f 19//85 46//85 20//85
f 19//86 45//86 46//86
f 20//87 47//87 21//87
f 20//88 46//88 47//88
f 21//89 48//89 22//89
f 21//90 47//90 48//90
f 22//91 49//91 23//91
f 22//92 48//92 49//92
f 23//93 50//93 24//93
f 23//94 49//94 50//94
f 24//95 51//95 25//95
f 24//96 50//96 51//96
f 25//97 52//97 26//97
f 25//98 51//98 52//98
f 26//99 27//99 1//99
f 26//100 52//100 27//100
