# construction_1260_assumed_A_Casa
# source A_Casa
# h_campo 0.000000
# modeled_height 6.000000
# height_kind assumed
# local_origin_world_x 172001.034850
# local_origin_world_y 402500.144600
mtllib construction_artifacts.mtl

o construction_1260_assumed_A_Casa
v -17.384000 -7.928500 0.000000
v -14.570000 -8.071500 0.000000
v -14.023000 8.437500 0.000000
v -16.640000 8.423500 0.000000
v -16.208000 16.354500 0.000000
v 17.384000 14.871500 0.000000
v 17.301000 7.808500 0.000000
v 15.118000 7.797500 0.000000
v 14.729000 -8.967500 0.000000
v 16.815000 -8.956500 0.000000
v 16.813000 -16.354500 0.000000
v -17.348000 -15.071500 0.000000
v -17.384000 -7.928500 6.000000
v -14.570000 -8.071500 6.000000
v -14.023000 8.437500 6.000000
v -16.640000 8.423500 6.000000
v -16.208000 16.354500 6.000000
v 17.384000 14.871500 6.000000
v 17.301000 7.808500 6.000000
v 15.118000 7.797500 6.000000
v 14.729000 -8.967500 6.000000
v 16.815000 -8.956500 6.000000
v 16.813000 -16.354500 6.000000
v -17.348000 -15.071500 6.000000
vn 0.000000 0.000000 -1.000000
vn -0.000000 0.000000 -1.000000
vn 0.000000 0.000000 -1.000000
vn 0.000000 0.000000 -1.000000
vn 0.000000 0.000000 -1.000000
vn 0.000000 0.000000 -1.000000
vn 0.000000 0.000000 -1.000000
vn 0.000000 0.000000 -1.000000
vn 0.000000 0.000000 -1.000000
vn 0.000000 0.000000 -1.000000
vn 0.000000 -0.000000 1.000000
vn 0.000000 0.000000 1.000000
vn 0.000000 -0.000000 1.000000
vn 0.000000 0.000000 1.000000
vn 0.000000 0.000000 1.000000
vn 0.000000 0.000000 1.000000
vn 0.000000 0.000000 1.000000
vn 0.000000 0.000000 1.000000
vn 0.000000 0.000000 1.000000
vn 0.000000 0.000000 1.000000
vn 0.050752 0.998711 0.000000
vn 0.050752 0.998711 -0.000000
vn -0.999452 0.033115 0.000000
vn -0.999452 0.033115 0.000000
vn 0.005350 -0.999986 0.000000
vn 0.005350 -0.999986 0.000000
vn -0.998520 0.054389 0.000000
vn -0.998520 0.054389 0.000000
vn 0.044104 0.999027 0.000000
vn 0.044104 0.999027 -0.000000
vn 0.999931 -0.011751 0.000000
vn 0.999931 -0.011751 0.000000
vn 0.005039 -0.999987 0.000000
vn 0.005039 -0.999987 0.000000
vn 0.999731 -0.023197 0.000000
vn 0.999731 -0.023197 0.000000
vn -0.005273 0.999986 0.000000
vn -0.005273 0.999986 0.000000
vn 1.000000 -0.000270 0.000000
vn 1.000000 -0.000270 0.000000
vn -0.037531 -0.999295 0.000000
vn -0.037531 -0.999295 0.000000
vn -0.999987 -0.005040 0.000000
vn -0.999987 -0.005040 0.000000
usemtl assumed_base
f 12//1 1//1 2//1
f 3//2 4//2 5//2
f 3//3 5//3 6//3
f 2//4 3//4 6//4
f 12//5 2//5 6//5
f 6//6 7//6 8//6
f 12//7 6//7 8//7
f 12//8 8//8 9//8
f 12//9 9//9 10//9
f 10//10 11//10 12//10
usemtl assumed_roof
f 24//11 14//11 13//11
f 15//12 17//12 16//12
f 15//13 18//13 17//13
f 14//14 18//14 15//14
f 24//15 18//15 14//15
f 18//16 20//16 19//16
f 24//17 20//17 18//17
f 24//18 21//18 20//18
f 24//19 22//19 21//19
f 22//20 24//20 23//20
usemtl assumed_wall
f 1//21 14//21 2//21
f 1//22 13//22 14//22
f 2//23 15//23 3//23
f 2//24 14//24 15//24
f 3//25 16//25 4//25
f 3//26 15//26 16//26
f 4//27 17//27 5//27
f 4//28 16//28 17//28
f 5//29 18//29 6//29
f 5//30 17//30 18//30
f 6//31 19//31 7//31
f 6//32 18//32 19//32
f 7//33 20//33 8//33
f 7//34 19//34 20//34
f 8//35 21//35 9//35
f 8//36 20//36 21//36
f 9//37 22//37 10//37
f 9//38 21//38 22//38
f 10//39 23//39 11//39
f 10//40 22//40 23//40
f 11//41 24//41 12//41
f 11//42 23//42 24//42
f 12//43 13//43 1//43
f 12//44 24//44 13//44
