# construction_2019_assumed_A_Casa
# source A_Casa
# h_campo 0.000000
# modeled_height 6.000000
# height_kind assumed
# local_origin_world_x 172001.034850
# local_origin_world_y 402500.144600
mtllib construction_artifacts.mtl

o construction_2019_assumed_A_Casa
v -46.030000 1.943500 0.000000
v -22.518000 18.773500 0.000000
v -20.303000 16.127500 0.000000
v -14.026000 19.620500 0.000000
v -14.745000 21.170500 0.000000
v -4.780000 27.196500 0.000000
v -5.714000 27.811500 0.000000
v 14.671000 42.134500 0.000000
v 21.339000 31.234500 0.000000
v 24.545000 33.715500 0.000000
v 21.905000 37.135500 0.000000
v 31.148000 43.162500 0.000000
v 33.602000 39.529500 0.000000
v 37.503000 42.142500 0.000000
v 41.076000 36.611500 0.000000
v 38.430000 33.489500 0.000000
v 45.072000 24.165500 0.000000
v 43.335000 23.445500 0.000000
v 46.030000 20.132500 0.000000
v 32.351000 10.851500 0.000000
v 37.070000 2.542500 0.000000
v 35.842000 1.928500 0.000000
v 37.654000 -1.704500 0.000000
v 24.697000 -9.010500 0.000000
v 26.402000 -13.711500 0.000000
v 22.609000 -15.790500 0.000000
v 25.382000 -20.252500 0.000000
v -7.694000 -43.162500 0.000000
v -37.458000 1.669500 0.000000
v -44.244000 -1.769500 0.000000
v -46.030000 1.943500 6.000000
v -22.518000 18.773500 6.000000
v -20.303000 16.127500 6.000000
v -14.026000 19.620500 6.000000
v -14.745000 21.170500 6.000000
v -4.780000 27.196500 6.000000
v -5.714000 27.811500 6.000000
v 14.671000 42.134500 6.000000
v 21.339000 31.234500 6.000000
v 24.545000 33.715500 6.000000
v 21.905000 37.135500 6.000000
v 31.148000 43.162500 6.000000
v 33.602000 39.529500 6.000000
v 37.503000 42.142500 6.000000
v 41.076000 36.611500 6.000000
v 38.430000 33.489500 6.000000
v 45.072000 24.165500 6.000000
v 43.335000 23.445500 6.000000
v 46.030000 20.132500 6.000000
v 32.351000 10.851500 6.000000
v 37.070000 2.542500 6.000000
v 35.842000 1.928500 6.000000
v 37.654000 -1.704500 6.000000
v 24.697000 -9.010500 6.000000
v 26.402000 -13.711500 6.000000
v 22.609000 -15.790500 6.000000
v 25.382000 -20.252500 6.000000
v -7.694000 -43.162500 6.000000
v -37.458000 1.669500 6.000000
v -44.244000 -1.769500 6.000000
vn 0.000000 0.000000 -1.000000
vn 0.000000 0.000000 -1.000000
vn 0.000000 0.000000 -1.000000
vn 0.000000 0.000000 -1.000000
vn 0.000000 0.000000 -1.000000
vn 0.000000 0.000000 -1.000000
vn 0.000000 0.000000 -1.000000
vn 0.000000 0.000000 -1.000000
vn 0.000000 0.000000 -1.000000
vn 0.000000 0.000000 -1.000000
vn 0.000000 0.000000 -1.000000
vn 0.000000 0.000000 -1.000000
vn 0.000000 0.000000 -1.000000
vn 0.000000 0.000000 -1.000000
vn 0.000000 0.000000 -1.000000
vn 0.000000 0.000000 -1.000000
vn 0.000000 0.000000 -1.000000
vn 0.000000 0.000000 -1.000000
vn 0.000000 0.000000 -1.000000
vn 0.000000 0.000000 -1.000000
vn 0.000000 0.000000 -1.000000
vn 0.000000 0.000000 -1.000000
vn 0.000000 0.000000 -1.000000
vn 0.000000 0.000000 -1.000000
vn 0.000000 0.000000 -1.000000
vn 0.000000 0.000000 -1.000000
vn 0.000000 -0.000000 -1.000000
vn 0.000000 0.000000 -1.000000
vn 0.000000 -0.000000 1.000000
vn 0.000000 0.000000 1.000000
vn 0.000000 0.000000 1.000000
vn 0.000000 -0.000000 1.000000
vn 0.000000 -0.000000 1.000000
vn 0.000000 0.000000 1.000000
vn 0.000000 0.000000 1.000000
vn 0.000000 -0.000000 1.000000
vn 0.000000 0.000000 1.000000
vn 0.000000 0.000000 1.000000
vn 0.000000 0.000000 1.000000
vn 0.000000 0.000000 1.000000
vn 0.000000 0.000000 1.000000
vn 0.000000 0.000000 1.000000
vn 0.000000 0.000000 1.000000
vn 0.000000 0.000000 1.000000
vn 0.000000 0.000000 1.000000
vn -0.000000 0.000000 1.000000
vn 0.000000 0.000000 1.000000
vn 0.000000 0.000000 1.000000
vn 0.000000 0.000000 1.000000
vn 0.000000 0.000000 1.000000
vn 0.000000 0.000000 1.000000
vn 0.000000 0.000000 1.000000
vn 0.000000 0.000000 1.000000
vn 0.000000 0.000000 1.000000
vn 0.000000 0.000000 1.000000
vn 0.000000 0.000000 1.000000
vn -0.582056 0.813149 0.000000
vn -0.582056 0.813149 0.000000
vn 0.766794 0.641893 0.000000
vn 0.766794 0.641893 -0.000000
vn -0.486257 0.873816 0.000000
vn -0.486257 0.873816 0.000000
vn -0.907153 -0.420802 0.000000
vn -0.907153 -0.420802 0.000000
vn -0.517460 0.855707 0.000000
vn -0.517460 0.855707 0.000000
vn -0.549945 -0.835201 0.000000
vn -0.549945 -0.835201 0.000000
vn -0.574903 0.818222 0.000000
vn -0.574903 0.818222 0.000000
vn 0.853042 0.521842 0.000000
vn 0.853042 0.521842 -0.000000
vn -0.612009 0.790851 0.000000
vn -0.612009 0.790851 0.000000
vn -0.791590 -0.611052 0.000000
vn -0.791590 -0.611052 0.000000
vn -0.546201 0.837654 0.000000
vn -0.546201 0.837654 0.000000
vn 0.828666 0.559743 0.000000
vn 0.828666 0.559743 -0.000000
vn -0.556517 0.830836 0.000000
vn -0.556517 0.830836 0.000000
vn 0.839977 0.542621 0.000000
vn 0.839977 0.542621 -0.000000
vn 0.762867 -0.646555 0.000000
vn 0.762867 -0.646555 0.000000
vn 0.814476 0.580197 0.000000
vn 0.814476 0.580197 -0.000000
vn 0.382915 -0.923783 0.000000
vn 0.382915 -0.923783 0.000000
vn 0.775749 0.631042 0.000000
vn 0.775749 0.631042 -0.000000
vn 0.561453 -0.827509 0.000000
vn 0.561453 -0.827509 0.000000
vn 0.869547 0.493849 0.000000
vn 0.869547 0.493849 -0.000000
vn 0.447214 -0.894427 0.000000
vn 0.447214 -0.894427 0.000000
vn 0.894870 0.446327 0.000000
vn 0.894870 0.446327 -0.000000
vn 0.491164 -0.871067 0.000000
vn 0.491164 -0.871067 0.000000
vn 0.940079 0.340956 0.000000
vn 0.940079 0.340956 -0.000000
vn 0.480649 -0.876913 0.000000
vn 0.480649 -0.876913 0.000000
vn 0.849343 0.527841 0.000000
vn 0.849343 0.527841 -0.000000
vn 0.569399 -0.822062 0.000000
vn 0.569399 -0.822062 0.000000
vn -0.833112 -0.553104 0.000000
vn -0.833112 -0.553104 0.000000
vn 0.452044 -0.891995 0.000000
vn 0.452044 -0.891995 0.000000
vn -0.901167 -0.433473 0.000000
vn -0.901167 -0.433473 0.000000
usemtl assumed_base
f 30//1 1//1 2//1
f 30//2 2//2 3//2
f 30//3 3//3 4//3
f 4//4 5//4 6//4
f 6//5 7//5 8//5
f 4//6 6//6 8//6
f 4//7 8//7 9//7
f 10//8 11//8 12//8
f 10//9 12//9 13//9
f 9//10 10//10 13//10
f 9//11 13//11 14//11
f 9//12 14//12 15//12
f 4//13 9//13 15//13
f 4//14 15//14 16//14
f 4//15 16//15 17//15
f 4//16 17//16 18//16
f 4//17 18//17 19//17
f 4//18 19//18 20//18
f 4//19 20//19 21//19
f 4//20 21//20 22//20
f 4//21 22//21 23//21
f 4//22 23//22 24//22
f 4//23 24//23 25//23
f 4//24 25//24 26//24
f 4//25 26//25 27//25
f 4//26 27//26 28//26
f 4//27 28//27 29//27
f 4//28 29//28 30//28
usemtl assumed_roof
f 60//29 32//29 31//29
f 60//30 33//30 32//30
f 60//31 34//31 33//31
f 34//32 36//32 35//32
f 36//33 38//33 37//33
f 34//34 38//34 36//34
f 34//35 39//35 38//35
f 40//36 42//36 41//36
f 40//37 43//37 42//37
f 39//38 43//38 40//38
f 39//39 44//39 43//39
f 39//40 45//40 44//40
f 34//41 45//41 39//41
f 34//42 46//42 45//42
f 34//43 47//43 46//43
f 34//44 48//44 47//44
f 34//45 49//45 48//45
f 34//46 50//46 49//46
f 34//47 51//47 50//47
f 34//48 52//48 51//48
f 34//49 53//49 52//49
f 34//50 54//50 53//50
f 34//51 55//51 54//51
f 34//52 56//52 55//52
f 34//53 57//53 56//53
f 34//54 58//54 57//54
f 34//55 59//55 58//55
f 34//56 60//56 59//56
usemtl assumed_wall
f 1//57 32//57 2//57
f 1//58 31//58 32//58
f 2//59 33//59 3//59
f 2//60 32//60 33//60
f 3//61 34//61 4//61
f 3//62 33//62 34//62
f 4//63 35//63 5//63
f 4//64 34//64 35//64
f 5//65 36//65 6//65
f 5//66 35//66 36//66
f 6//67 37//67 7//67
f 6//68 36//68 37//68
f 7//69 38//69 8//69
f 7//70 37//70 38//70
f 8//71 39//71 9//71
f 8//72 38//72 39//72
f 9//73 40//73 10//73
f 9//74 39//74 40//74
f 10//75 41//75 11//75
f 10//76 40//76 41//76
f 11//77 42//77 12//77
f 11//78 41//78 42//78
f 12//79 43//79 13//79
f 12//80 42//80 43//80
f 13//81 44//81 14//81
f 13//82 43//82 44//82
f 14//83 45//83 15//83
f 14//84 44//84 45//84
f 15//85 46//85 16//85
f 15//86 45//86 46//86
f 16//87 47//87 17//87
f 16//88 46//88 47//88
f 17//89 48//89 18//89
f 17//90 47//90 48//90
f 18//91 49//91 19//91
f 18//92 48//92 49//92
f 19//93 50//93 20//93
f 19//94 49//94 50//94
f 20//95 51//95 21//95
f 20//96 50//96 51//96
f 21//97 52//97 22//97
f 21//98 51//98 52//98
f 22//99 53//99 23//99
f 22//100 52//100 53//100
f 23//101 54//101 24//101
f 23//102 53//102 54//102
f 24//103 55//103 25//103
f 24//104 54//104 55//104
f 25//105 56//105 26//105
f 25//106 55//106 56//106
f 26//107 57//107 27//107
f 26//108 56//108 57//108
f 27//109 58//109 28//109
f 27//110 57//110 58//110
f 28//111 59//111 29//111
f 28//112 58//112 59//112
f 29//113 60//113 30//113
f 29//114 59//114 60//114
f 30//115 31//115 1//115
f 30//116 60//116 31//116
