# construction_4494_assumed_A_Casa
# source A_Casa
# h_campo 0.000000
# modeled_height 6.000000
# height_kind assumed
# local_origin_world_x 172001.034850
# local_origin_world_y 402500.144600
mtllib construction_artifacts.mtl

o construction_4494_assumed_A_Casa
v -32.072500 13.378000 0.000000
v -19.919500 17.972000 0.000000
v -13.117500 0.288000 0.000000
v 11.459500 10.669000 0.000000
v 12.200500 12.303000 0.000000
v 7.197500 25.162000 0.000000
v 16.481500 28.976000 0.000000
v 22.974500 13.125000 0.000000
v 26.710500 11.821000 0.000000
v 27.742500 9.523000 0.000000
v 25.769500 6.139000 0.000000
v 32.072500 -9.839000 0.000000
v 22.648500 -13.502000 0.000000
v 16.907500 0.809000 0.000000
v -9.606500 -9.035000 0.000000
v -3.432500 -24.090000 0.000000
v -15.344500 -28.976000 0.000000
v -32.072500 13.378000 6.000000
v -19.919500 17.972000 6.000000
v -13.117500 0.288000 6.000000
v 11.459500 10.669000 6.000000
v 12.200500 12.303000 6.000000
v 7.197500 25.162000 6.000000
v 16.481500 28.976000 6.000000
v 22.974500 13.125000 6.000000
v 26.710500 11.821000 6.000000
v 27.742500 9.523000 6.000000
v 25.769500 6.139000 6.000000
v 32.072500 -9.839000 6.000000
v 22.648500 -13.502000 6.000000
v 16.907500 0.809000 6.000000
v -9.606500 -9.035000 6.000000
v -3.432500 -24.090000 6.000000
v -15.344500 -28.976000 6.000000
vn 0.000000 0.000000 -1.000000
vn 0.000000 0.000000 -1.000000
vn 0.000000 0.000000 -1.000000
vn 0.000000 0.000000 -1.000000
vn 0.000000 0.000000 -1.000000
vn 0.000000 0.000000 -1.000000
vn 0.000000 0.000000 -1.000000
vn 0.000000 0.000000 -1.000000
vn 0.000000 0.000000 -1.000000
vn 0.000000 -0.000000 -1.000000
vn 0.000000 0.000000 -1.000000
vn 0.000000 0.000000 -1.000000
vn 0.000000 0.000000 -1.000000
vn 0.000000 0.000000 -1.000000
vn 0.000000 -0.000000 -1.000000
vn 0.000000 0.000000 1.000000
vn 0.000000 -0.000000 1.000000
vn 0.000000 -0.000000 1.000000
vn 0.000000 0.000000 1.000000
vn 0.000000 0.000000 1.000000
vn 0.000000 0.000000 1.000000
vn 0.000000 0.000000 1.000000
vn 0.000000 0.000000 1.000000
vn 0.000000 0.000000 1.000000
vn 0.000000 0.000000 1.000000
vn 0.000000 0.000000 1.000000
vn 0.000000 0.000000 1.000000
vn -0.000000 0.000000 1.000000
vn 0.000000 0.000000 1.000000
vn 0.000000 0.000000 1.000000
vn -0.353594 0.935399 0.000000
vn -0.353594 0.935399 0.000000
vn 0.933337 0.359000 0.000000
vn 0.933337 0.359000 -0.000000
vn -0.389101 0.921195 0.000000
vn -0.389101 0.921195 0.000000
vn -0.910729 0.413005 0.000000
vn -0.910729 0.413005 0.000000
vn -0.931949 -0.362590 0.000000
vn -0.931949 -0.362590 0.000000
vn -0.379998 0.924987 0.000000
vn -0.379998 0.924987 0.000000
vn 0.925373 0.379058 0.000000
vn 0.925373 0.379058 -0.000000
vn 0.329540 0.944142 0.000000
vn 0.329540 0.944142 -0.000000
vn 0.912233 0.409671 0.000000
vn 0.912233 0.409671 -0.000000
vn 0.863890 -0.503681 0.000000
vn 0.863890 -0.503681 0.000000
vn 0.930237 0.366960 0.000000
vn 0.930237 0.366960 -0.000000
vn 0.362284 -0.932068 0.000000
vn 0.362284 -0.932068 0.000000
vn -0.928105 -0.372319 0.000000
vn -0.928105 -0.372319 0.000000
vn 0.348060 -0.937472 0.000000
vn 0.348060 -0.937472 0.000000
vn 0.925221 0.379430 0.000000
vn 0.925221 0.379430 -0.000000
vn 0.379492 -0.925195 0.000000
vn 0.379492 -0.925195 0.000000
vn -0.930085 -0.367344 0.000000
vn -0.930085 -0.367344 0.000000
usemtl assumed_base
f 17//1 1//1 2//1
f 17//2 2//2 3//2
f 5//3 6//3 7//3
f 5//4 7//4 8//4
f 4//5 5//5 8//5
f 3//6 4//6 8//6
f 3//7 8//7 9//7
f 3//8 9//8 10//8
f 3//9 10//9 11//9
f 11//10 12//10 13//10
f 11//11 13//11 14//11
f 3//12 11//12 14//12
f 3//13 14//13 15//13
f 17//14 3//14 15//14
f 15//15 16//15 17//15
usemtl assumed_roof
f 34//16 19//16 18//16
f 34//17 20//17 19//17
f 22//18 24//18 23//18
f 22//19 25//19 24//19
f 21//20 25//20 22//20
f 20//21 25//21 21//21
f 20//22 26//22 25//22
f 20//23 27//23 26//23
f 20//24 28//24 27//24
f 28//25 30//25 29//25
f 28//26 31//26 30//26
f 20//27 31//27 28//27
f 20//28 32//28 31//28
f 34//29 32//29 20//29
f 32//30 34//30 33//30
usemtl assumed_wall
f 1//31 19//31 2//31
f 1//32 18//32 19//32
f 2//33 20//33 3//33
f 2//34 19//34 20//34
f 3//35 21//35 4//35
f 3//36 20//36 21//36
f 4//37 22//37 5//37
f 4//38 21//38 22//38
f 5//39 23//39 6//39
f 5//40 22//40 23//40
f 6//41 24//41 7//41
f 6//42 23//42 24//42
f 7//43 25//43 8//43
f 7//44 24//44 25//44
f 8//45 26//45 9//45
f 8//46 25//46 26//46
f 9//47 27//47 10//47
f 9//48 26//48 27//48
f 10//49 28//49 11//49
f 10//50 27//50 28//50
f 11//51 29//51 12//51
f 11//52 28//52 29//52
f 12//53 30//53 13//53
f 12//54 29//54 30//54
f 13//55 31//55 14//55
f 13//56 30//56 31//56
f 14//57 32//57 15//57
f 14//58 31//58 32//58
f 15//59 33//59 16//59
f 15//60 32//60 33//60
f 16//61 34//61 17//61
f 16//62 33//62 34//62
f 17//63 18//63 1//63
f 17//64 34//64 18//64
