# construction_0171_assumed_A_Grande_construcao
# source A_Grande_construcao
# h_campo 0.000000
# modeled_height 6.000000
# height_kind assumed
# local_origin_world_x 172001.034850
# local_origin_world_y 402500.144600
mtllib construction_artifacts.mtl

o construction_0171_assumed_A_Grande_construcao
v 41.985500 -61.675000 0.000000
v 42.819500 -56.631000 0.000000
v 38.206500 -42.835000 0.000000
v 26.218500 -47.663000 0.000000
v 20.492500 -34.380000 0.000000
v 16.060500 -36.636000 0.000000
v 15.307500 -34.885000 0.000000
v 10.400500 -37.050000 0.000000
v 9.408500 -34.240000 0.000000
v 4.626500 -36.076000 0.000000
v 3.946500 -34.033000 0.000000
v -16.361500 -41.947000 0.000000
v -28.032500 -7.202000 0.000000
v -23.890500 -5.732000 0.000000
v -48.365500 54.631000 0.000000
v -33.991500 60.515000 0.000000
v -32.211500 55.841000 0.000000
v -18.365500 61.294000 0.000000
v -16.459500 56.684000 0.000000
v -0.165500 63.243000 0.000000
v 42.528500 -40.378000 0.000000
v 48.365500 -54.281000 0.000000
v 47.212500 -61.643000 0.000000
v 45.122500 -63.243000 0.000000
v 41.985500 -61.675000 6.000000
v 42.819500 -56.631000 6.000000
v 38.206500 -42.835000 6.000000
v 26.218500 -47.663000 6.000000
v 20.492500 -34.380000 6.000000
v 16.060500 -36.636000 6.000000
v 15.307500 -34.885000 6.000000
v 10.400500 -37.050000 6.000000
v 9.408500 -34.240000 6.000000
v 4.626500 -36.076000 6.000000
v 3.946500 -34.033000 6.000000
v -16.361500 -41.947000 6.000000
v -28.032500 -7.202000 6.000000
v -23.890500 -5.732000 6.000000
v -48.365500 54.631000 6.000000
v -33.991500 60.515000 6.000000
v -32.211500 55.841000 6.000000
v -18.365500 61.294000 6.000000
v -16.459500 56.684000 6.000000
v -0.165500 63.243000 6.000000
v 42.528500 -40.378000 6.000000
v 48.365500 -54.281000 6.000000
v 47.212500 -61.643000 6.000000
v 45.122500 -63.243000 6.000000
vn 0.000000 0.000000 -1.000000
vn 0.000000 0.000000 -1.000000
vn -0.000000 0.000000 -1.000000
vn 0.000000 0.000000 -1.000000
vn -0.000000 0.000000 -1.000000
vn -0.000000 0.000000 -1.000000
vn -0.000000 0.000000 -1.000000
vn 0.000000 0.000000 -1.000000
vn -0.000000 0.000000 -1.000000
vn 0.000000 0.000000 -1.000000
vn 0.000000 0.000000 -1.000000
vn 0.000000 0.000000 -1.000000
vn 0.000000 0.000000 -1.000000
vn 0.000000 0.000000 -1.000000
vn 0.000000 0.000000 -1.000000
vn 0.000000 0.000000 -1.000000
vn 0.000000 0.000000 -1.000000
vn 0.000000 0.000000 -1.000000
vn 0.000000 0.000000 -1.000000
vn 0.000000 0.000000 -1.000000
vn 0.000000 0.000000 -1.000000
vn 0.000000 0.000000 -1.000000
vn 0.000000 0.000000 1.000000
vn 0.000000 0.000000 1.000000
vn 0.000000 0.000000 1.000000
vn 0.000000 0.000000 1.000000
vn 0.000000 0.000000 1.000000
vn 0.000000 0.000000 1.000000
vn 0.000000 0.000000 1.000000
vn 0.000000 0.000000 1.000000
vn 0.000000 0.000000 1.000000
vn 0.000000 0.000000 1.000000
vn 0.000000 0.000000 1.000000
vn 0.000000 0.000000 1.000000
vn 0.000000 0.000000 1.000000
vn 0.000000 0.000000 1.000000
vn 0.000000 0.000000 1.000000
vn 0.000000 0.000000 1.000000
vn 0.000000 0.000000 1.000000
vn 0.000000 0.000000 1.000000
vn 0.000000 -0.000000 1.000000
vn 0.000000 0.000000 1.000000
vn 0.000000 -0.000000 1.000000
vn 0.000000 0.000000 1.000000
vn -0.986605 0.163130 0.000000
vn -0.986605 0.163130 0.000000
vn -0.948387 -0.317114 0.000000
vn -0.948387 -0.317114 0.000000
vn 0.373578 -0.927599 0.000000
vn 0.373578 -0.927599 0.000000
vn -0.918310 -0.395863 0.000000
vn -0.918310 -0.395863 0.000000
vn 0.453637 -0.891187 0.000000
vn 0.453637 -0.891187 0.000000
vn -0.918656 -0.395059 0.000000
vn -0.918656 -0.395059 0.000000
vn 0.403663 -0.914908 0.000000
vn 0.403663 -0.914908 0.000000
vn -0.942966 -0.332890 0.000000
vn -0.942966 -0.332890 0.000000
vn 0.358430 -0.933557 0.000000
vn 0.358430 -0.933557 0.000000
vn -0.948823 -0.315810 0.000000
vn -0.948823 -0.315810 0.000000
vn 0.363102 -0.931750 0.000000
vn 0.363102 -0.931750 0.000000
vn -0.947950 -0.318420 0.000000
vn -0.947950 -0.318420 0.000000
vn -0.334462 0.942409 0.000000
vn -0.334462 0.942409 0.000000
vn -0.926720 -0.375751 0.000000
vn -0.926720 -0.375751 0.000000
vn -0.378838 0.925463 0.000000
vn -0.378838 0.925463 0.000000
vn 0.934526 0.355896 0.000000
vn 0.934526 0.355896 -0.000000
vn -0.366438 0.930442 0.000000
vn -0.366438 0.930442 0.000000
vn 0.924129 0.382080 0.000000
vn 0.924129 0.382080 -0.000000
vn -0.373422 0.927662 0.000000
vn -0.373422 0.927662 0.000000
vn 0.924595 0.380952 0.000000
vn 0.924595 0.380952 -0.000000
vn 0.922036 0.387105 0.000000
vn 0.922036 0.387105 -0.000000
vn 0.987957 -0.154729 0.000000
vn 0.987957 -0.154729 0.000000
vn 0.607873 -0.794034 0.000000
vn 0.607873 -0.794034 0.000000
vn -0.447100 -0.894484 0.000000
vn -0.447100 -0.894484 0.000000
usemtl assumed_base
f 24//1 1//1 2//1
f 24//2 2//2 3//2
f 3//3 4//3 5//3
f 5//4 6//4 7//4
f 7//5 8//5 9//5
f 5//6 7//6 9//6
f 9//7 10//7 11//7
f 5//8 9//8 11//8
f 11//9 12//9 13//9
f 5//10 11//10 13//10
f 3//11 5//11 13//11
f 3//12 13//12 14//12
f 3//13 14//13 15//13
f 15//14 16//14 17//14
f 3//15 15//15 17//15
f 17//16 18//16 19//16
f 3//17 17//17 19//17
f 3//18 19//18 20//18
f 3//19 20//19 21//19
f 24//20 3//20 21//20
f 24//21 21//21 22//21
f 22//22 23//22 24//22
usemtl assumed_roof
f 48//23 26//23 25//23
f 48//24 27//24 26//24
f 27//25 29//25 28//25
f 29//26 31//26 30//26
f 31//27 33//27 32//27
f 29//28 33//28 31//28
f 33//29 35//29 34//29
f 29//30 35//30 33//30
f 35//31 37//31 36//31
f 29//32 37//32 35//32
f 27//33 37//33 29//33
f 27//34 38//34 37//34
f 27//35 39//35 38//35
f 39//36 41//36 40//36
f 27//37 41//37 39//37
f 41//38 43//38 42//38
f 27//39 43//39 41//39
f 27//40 44//40 43//40
f 27//41 45//41 44//41
f 48//42 45//42 27//42
f 48//43 46//43 45//43
f 46//44 48//44 47//44
usemtl assumed_wall
f 1//45 26//45 2//45
f 1//46 25//46 26//46
f 2//47 27//47 3//47
f 2//48 26//48 27//48
f 3//49 28//49 4//49
f 3//50 27//50 28//50
f 4//51 29//51 5//51
f 4//52 28//52 29//52
f 5//53 30//53 6//53
f 5//54 29//54 30//54
f 6//55 31//55 7//55
f 6//56 30//56 31//56
f 7//57 32//57 8//57
f 7//58 31//58 32//58
f 8//59 33//59 9//59
f 8//60 32//60 33//60
f 9//61 34//61 10//61
f 9//62 33//62 34//62
f 10//63 35//63 11//63
f 10//64 34//64 35//64
f 11//65 36//65 12//65
f 11//66 35//66 36//66
f 12//67 37//67 13//67
f 12//68 36//68 37//68
f 13//69 38//69 14//69
f 13//70 37//70 38//70
f 14//71 39//71 15//71
f 14//72 38//72 39//72
f 15//73 40//73 16//73
f 15//74 39//74 40//74
f 16//75 41//75 17//75
f 16//76 40//76 41//76
f 17//77 42//77 18//77
f 17//78 41//78 42//78
f 18//79 43//79 19//79
f 18//80 42//80 43//80
f 19//81 44//81 20//81
f 19//82 43//82 44//82
f 20//83 45//83 21//83
f 20//84 44//84 45//84
f 21//85 46//85 22//85
f 21//86 45//86 46//86
f 22//87 47//87 23//87
f 22//88 46//88 47//88
f 23//89 48//89 24//89
f 23//90 47//90 48//90
f 24//91 25//91 1//91
f 24//92 48//92 25//92
