# construction_2444_assumed_A_Casa
# source A_Casa
# h_campo 0.000000
# modeled_height 6.000000
# height_kind assumed
# local_origin_world_x 172001.034850
# local_origin_world_y 402500.144600
mtllib construction_artifacts.mtl

o construction_2444_assumed_A_Casa
v -22.922500 -14.864000 0.000000
v -16.503500 -10.936000 0.000000
v -18.493500 -7.131000 0.000000
v -15.205500 -5.365000 0.000000
v -16.314500 -3.821000 0.000000
v -12.666500 -1.707000 0.000000
v -11.929500 -3.474000 0.000000
v -5.328500 1.127000 0.000000
v 8.489500 9.619000 0.000000
v 11.501500 13.275000 0.000000
v 6.005500 17.563000 0.000000
v 1.702500 14.416000 0.000000
v 0.222500 15.995000 0.000000
v 4.436500 19.232000 0.000000
v 6.647500 21.901000 0.000000
v 15.428500 14.726000 0.000000
v 16.737500 16.430000 0.000000
v 21.325500 13.135000 0.000000
v 20.274500 11.227000 0.000000
v 22.922500 9.454000 0.000000
v 17.787500 2.477000 0.000000
v 7.588500 -6.273000 0.000000
v -4.011500 -13.839000 0.000000
v -18.906500 -21.901000 0.000000
v -22.922500 -14.864000 6.000000
v -16.503500 -10.936000 6.000000
v -18.493500 -7.131000 6.000000
v -15.205500 -5.365000 6.000000
v -16.314500 -3.821000 6.000000
v -12.666500 -1.707000 6.000000
v -11.929500 -3.474000 6.000000
v -5.328500 1.127000 6.000000
v 8.489500 9.619000 6.000000
v 11.501500 13.275000 6.000000
v 6.005500 17.563000 6.000000
v 1.702500 14.416000 6.000000
v 0.222500 15.995000 6.000000
v 4.436500 19.232000 6.000000
v 6.647500 21.901000 6.000000
v 15.428500 14.726000 6.000000
v 16.737500 16.430000 6.000000
v 21.325500 13.135000 6.000000
v 20.274500 11.227000 6.000000
v 22.922500 9.454000 6.000000
v 17.787500 2.477000 6.000000
v 7.588500 -6.273000 6.000000
v -4.011500 -13.839000 6.000000
v -18.906500 -21.901000 6.000000
vn 0.000000 0.000000 -1.000000
vn 0.000000 0.000000 -1.000000
vn 0.000000 0.000000 -1.000000
vn 0.000000 0.000000 -1.000000
vn 0.000000 0.000000 -1.000000
vn 0.000000 0.000000 -1.000000
vn 0.000000 0.000000 -1.000000
vn 0.000000 0.000000 -1.000000
vn 0.000000 0.000000 -1.000000
vn -0.000000 0.000000 -1.000000
vn 0.000000 0.000000 -1.000000
vn 0.000000 0.000000 -1.000000
vn 0.000000 0.000000 -1.000000
vn 0.000000 0.000000 -1.000000
vn 0.000000 0.000000 -1.000000
vn 0.000000 0.000000 -1.000000
vn 0.000000 0.000000 -1.000000
vn 0.000000 0.000000 -1.000000
vn 0.000000 0.000000 -1.000000
vn 0.000000 0.000000 -1.000000
vn 0.000000 0.000000 -1.000000
vn 0.000000 0.000000 -1.000000
vn 0.000000 -0.000000 1.000000
vn 0.000000 -0.000000 1.000000
vn 0.000000 0.000000 1.000000
vn 0.000000 -0.000000 1.000000
vn 0.000000 0.000000 1.000000
vn 0.000000 0.000000 1.000000
vn 0.000000 0.000000 1.000000
vn 0.000000 0.000000 1.000000
vn 0.000000 0.000000 1.000000
vn 0.000000 0.000000 1.000000
vn 0.000000 0.000000 1.000000
vn 0.000000 0.000000 1.000000
vn 0.000000 -0.000000 1.000000
vn 0.000000 0.000000 1.000000
vn 0.000000 0.000000 1.000000
vn -0.000000 0.000000 1.000000
vn 0.000000 0.000000 1.000000
vn 0.000000 0.000000 1.000000
vn 0.000000 0.000000 1.000000
vn 0.000000 0.000000 1.000000
vn 0.000000 0.000000 1.000000
vn 0.000000 0.000000 1.000000
vn -0.521961 0.852970 0.000000
vn -0.521961 0.852970 0.000000
vn -0.886128 -0.463441 0.000000
vn -0.886128 -0.463441 0.000000
vn -0.473173 0.880970 0.000000
vn -0.473173 0.880970 0.000000
vn -0.812202 -0.583376 0.000000
vn -0.812202 -0.583376 0.000000
vn -0.501392 0.865221 0.000000
vn -0.501392 0.865221 0.000000
vn 0.922938 0.384949 0.000000
vn 0.922938 0.384949 -0.000000
vn -0.571818 0.820380 0.000000
vn -0.571818 0.820380 0.000000
vn -0.523588 0.851971 0.000000
vn -0.523588 0.851971 0.000000
vn -0.771808 0.635855 0.000000
vn -0.771808 0.635855 0.000000
vn -0.615132 -0.788424 0.000000
vn -0.615132 -0.788424 0.000000
vn 0.590322 -0.807168 0.000000
vn 0.590322 -0.807168 0.000000
vn -0.729609 -0.683864 0.000000
vn -0.729609 -0.683864 0.000000
vn -0.609174 0.793037 0.000000
vn -0.609174 0.793037 0.000000
vn -0.770086 0.637940 0.000000
vn -0.770086 0.637940 0.000000
vn 0.632738 0.774366 0.000000
vn 0.632738 0.774366 -0.000000
vn -0.793022 0.609193 0.000000
vn -0.793022 0.609193 0.000000
vn 0.583330 0.812236 0.000000
vn 0.583330 0.812236 -0.000000
vn 0.875906 -0.482483 0.000000
vn 0.875906 -0.482483 0.000000
vn 0.556365 0.830938 0.000000
vn 0.556365 0.830938 -0.000000
vn 0.805384 -0.592754 0.000000
vn 0.805384 -0.592754 0.000000
vn 0.651134 -0.758962 0.000000
vn 0.651134 -0.758962 0.000000
vn 0.546307 -0.837585 0.000000
vn 0.546307 -0.837585 0.000000
vn 0.476004 -0.879443 0.000000
vn 0.476004 -0.879443 0.000000
vn -0.868516 -0.495660 0.000000
vn -0.868516 -0.495660 0.000000
usemtl assumed_base
f 24//1 1//1 2//1
f 2//2 3//2 4//2
f 24//3 2//3 4//3
f 4//4 5//4 6//4
f 24//5 4//5 6//5
f 24//6 6//6 7//6
f 24//7 7//7 8//7
f 24//8 8//8 9//8
f 11//9 12//9 13//9
f 11//10 13//10 14//10
f 10//11 11//11 14//11
f 10//12 14//12 15//12
f 10//13 15//13 16//13
f 9//14 10//14 16//14
f 24//15 9//15 16//15
f 16//16 17//16 18//16
f 24//17 16//17 18//17
f 24//18 18//18 19//18
f 24//19 19//19 20//19
f 24//20 20//20 21//20
f 24//21 21//21 22//21
f 22//22 23//22 24//22
usemtl assumed_roof
f 48//23 26//23 25//23
f 26//24 28//24 27//24
f 48//25 28//25 26//25
f 28//26 30//26 29//26
f 48//27 30//27 28//27
f 48//28 31//28 30//28
f 48//29 32//29 31//29
f 48//30 33//30 32//30
f 35//31 37//31 36//31
f 35//32 38//32 37//32
f 34//33 38//33 35//33
f 34//34 39//34 38//34
f 34//35 40//35 39//35
f 33//36 40//36 34//36
f 48//37 40//37 33//37
f 40//38 42//38 41//38
f 48//39 42//39 40//39
f 48//40 43//40 42//40
f 48//41 44//41 43//41
f 48//42 45//42 44//42
f 48//43 46//43 45//43
f 46//44 48//44 47//44
usemtl assumed_wall
f 1//45 26//45 2//45
f 1//46 25//46 26//46
f 2//47 27//47 3//47
f 2//48 26//48 27//48
f 3//49 28//49 4//49
f 3//50 27//50 28//50
f 4//51 29//51 5//51
f 4//52 28//52 29//52
f 5//53 30//53 6//53
f 5//54 29//54 30//54
f 6//55 31//55 7//55
f 6//56 30//56 31//56
f 7//57 32//57 8//57
f 7//58 31//58 32//58
f 8//59 33//59 9//59
f 8//60 32//60 33//60
f 9//61 34//61 10//61
f 9//62 33//62 34//62
f 10//63 35//63 11//63
f 10//64 34//64 35//64
f 11//65 36//65 12//65
f 11//66 35//66 36//66
f 12//67 37//67 13//67
f 12//68 36//68 37//68
f 13//69 38//69 14//69
f 13//70 37//70 38//70
f 14//71 39//71 15//71
f 14//72 38//72 39//72
f 15//73 40//73 16//73
f 15//74 39//74 40//74
f 16//75 41//75 17//75
f 16//76 40//76 41//76
f 17//77 42//77 18//77
f 17//78 41//78 42//78
f 18//79 43//79 19//79
f 18//80 42//80 43//80
f 19//81 44//81 20//81
f 19//82 43//82 44//82
f 20//83 45//83 21//83
f 20//84 44//84 45//84
f 21//85 46//85 22//85
f 21//86 45//86 46//86
f 22//87 47//87 23//87
f 22//88 46//88 47//88
f 23//89 48//89 24//89
f 23//90 47//90 48//90
f 24//91 25//91 1//91
f 24//92 48//92 25//92
