# construction_2452_assumed_A_Casa
# source A_Casa
# h_campo 0.000000
# modeled_height 6.000000
# height_kind assumed
# local_origin_world_x 172001.034850
# local_origin_world_y 402500.144600
mtllib construction_artifacts.mtl

o construction_2452_assumed_A_Casa
v -7.908000 19.501500 0.000000
v -1.328000 14.506500 0.000000
v -1.762000 13.915500 0.000000
v 2.342000 9.909500 0.000000
v -5.293000 2.532500 0.000000
v 10.080000 -12.788500 0.000000
v 12.589000 -10.981500 0.000000
v 10.686000 -9.371500 0.000000
v 13.980000 -6.802500 0.000000
v 18.532000 -10.455500 0.000000
v 15.672000 -12.503500 0.000000
v 17.450000 -14.773500 0.000000
v 11.593000 -19.501500 0.000000
v -9.112000 1.718500 0.000000
v -18.532000 11.018500 0.000000
v -14.038000 15.910500 0.000000
v -12.247000 14.174500 0.000000
v -7.908000 19.501500 6.000000
v -1.328000 14.506500 6.000000
v -1.762000 13.915500 6.000000
v 2.342000 9.909500 6.000000
v -5.293000 2.532500 6.000000
v 10.080000 -12.788500 6.000000
v 12.589000 -10.981500 6.000000
v 10.686000 -9.371500 6.000000
v 13.980000 -6.802500 6.000000
v 18.532000 -10.455500 6.000000
v 15.672000 -12.503500 6.000000
v 17.450000 -14.773500 6.000000
v 11.593000 -19.501500 6.000000
v -9.112000 1.718500 6.000000
v -18.532000 11.018500 6.000000
v -14.038000 15.910500 6.000000
v -12.247000 14.174500 6.000000
vn 0.000000 0.000000 -1.000000
vn 0.000000 0.000000 -1.000000
vn 0.000000 0.000000 -1.000000
vn 0.000000 0.000000 -1.000000
vn 0.000000 0.000000 -1.000000
vn 0.000000 0.000000 -1.000000
vn 0.000000 0.000000 -1.000000
vn 0.000000 0.000000 -1.000000
vn 0.000000 0.000000 -1.000000
vn 0.000000 0.000000 -1.000000
vn 0.000000 0.000000 -1.000000
vn 0.000000 -0.000000 -1.000000
vn 0.000000 0.000000 -1.000000
vn 0.000000 -0.000000 -1.000000
vn 0.000000 0.000000 -1.000000
vn 0.000000 0.000000 1.000000
vn -0.000000 0.000000 1.000000
vn 0.000000 0.000000 1.000000
vn 0.000000 0.000000 1.000000
vn 0.000000 -0.000000 1.000000
vn 0.000000 0.000000 1.000000
vn 0.000000 0.000000 1.000000
vn 0.000000 0.000000 1.000000
vn -0.000000 0.000000 1.000000
vn 0.000000 0.000000 1.000000
vn 0.000000 0.000000 1.000000
vn 0.000000 0.000000 1.000000
vn 0.000000 0.000000 1.000000
vn 0.000000 0.000000 1.000000
vn 0.000000 0.000000 1.000000
vn 0.604638 0.796500 0.000000
vn 0.604638 0.796500 -0.000000
vn 0.806015 -0.591896 0.000000
vn 0.806015 -0.591896 0.000000
vn 0.698511 0.715599 0.000000
vn 0.698511 0.715599 -0.000000
vn 0.694852 -0.719153 0.000000
vn 0.694852 -0.719153 0.000000
vn 0.705908 0.708304 0.000000
vn 0.705908 0.708304 -0.000000
vn -0.584415 0.811455 0.000000
vn -0.584415 0.811455 0.000000
vn -0.645888 -0.763432 0.000000
vn -0.645888 -0.763432 0.000000
vn -0.614984 0.788539 0.000000
vn -0.614984 0.788539 0.000000
vn 0.625885 0.779915 0.000000
vn 0.625885 0.779915 -0.000000
vn 0.582206 -0.813041 0.000000
vn 0.582206 -0.813041 0.000000
vn 0.787256 0.616626 0.000000
vn 0.787256 0.616626 -0.000000
vn 0.628124 -0.778113 0.000000
vn 0.628124 -0.778113 0.000000
vn -0.715739 -0.698368 0.000000
vn -0.715739 -0.698368 0.000000
vn -0.702560 -0.711625 0.000000
vn -0.702560 -0.711625 0.000000
vn -0.736429 0.676515 0.000000
vn -0.736429 0.676515 0.000000
vn 0.695996 0.718046 0.000000
vn 0.695996 0.718046 -0.000000
vn -0.775343 0.631540 0.000000
vn -0.775343 0.631540 0.000000
usemtl assumed_base
f 17//1 1//1 2//1
f 17//2 2//2 3//2
f 17//3 3//3 4//3
f 17//4 4//4 5//4
f 7//5 8//5 9//5
f 7//6 9//6 10//6
f 6//7 7//7 10//7
f 6//8 10//8 11//8
f 6//9 11//9 12//9
f 6//10 12//10 13//10
f 5//11 6//11 13//11
f 5//12 13//12 14//12
f 17//13 5//13 14//13
f 17//14 14//14 15//14
f 15//15 16//15 17//15
usemtl assumed_roof
f 34//16 19//16 18//16
f 34//17 20//17 19//17
f 34//18 21//18 20//18
f 34//19 22//19 21//19
f 24//20 26//20 25//20
f 24//21 27//21 26//21
f 23//22 27//22 24//22
f 23//23 28//23 27//23
f 23//24 29//24 28//24
f 23//25 30//25 29//25
f 22//26 30//26 23//26
f 22//27 31//27 30//27
f 34//28 31//28 22//28
f 34//29 32//29 31//29
f 32//30 34//30 33//30
usemtl assumed_wall
f 1//31 19//31 2//31
f 1//32 18//32 19//32
f 2//33 20//33 3//33
f 2//34 19//34 20//34
f 3//35 21//35 4//35
f 3//36 20//36 21//36
f 4//37 22//37 5//37
f 4//38 21//38 22//38
f 5//39 23//39 6//39
f 5//40 22//40 23//40
f 6//41 24//41 7//41
f 6//42 23//42 24//42
f 7//43 25//43 8//43
f 7//44 24//44 25//44
f 8//45 26//45 9//45
f 8//46 25//46 26//46
f 9//47 27//47 10//47
f 9//48 26//48 27//48
f 10//49 28//49 11//49
f 10//50 27//50 28//50
f 11//51 29//51 12//51
f 11//52 28//52 29//52
f 12//53 30//53 13//53
f 12//54 29//54 30//54
f 13//55 31//55 14//55
f 13//56 30//56 31//56
f 14//57 32//57 15//57
f 14//58 31//58 32//58
f 15//59 33//59 16//59
f 15//60 32//60 33//60
f 16//61 34//61 17//61
f 16//62 33//62 34//62
f 17//63 18//63 1//63
f 17//64 34//64 18//64
