# construction_3751_assumed_A_Casa
# source A_Casa
# h_campo 0.000000
# modeled_height 6.000000
# height_kind assumed
# local_origin_world_x 172001.034850
# local_origin_world_y 402500.144600
mtllib construction_artifacts.mtl

o construction_3751_assumed_A_Casa
v -14.176500 -2.044000 0.000000
v -8.177500 3.579000 0.000000
v -10.106500 5.532000 0.000000
v -3.562500 12.039000 0.000000
v 3.381500 21.364000 0.000000
v 5.117500 22.434000 0.000000
v 7.138500 21.657000 0.000000
v 9.666500 21.271000 0.000000
v 11.182500 16.296000 0.000000
v 3.539500 5.683000 0.000000
v 4.902500 4.705000 0.000000
v 8.692500 8.083000 0.000000
v 14.176500 1.896000 0.000000
v 13.218500 -1.289000 0.000000
v 9.940500 -6.616000 0.000000
v 6.826500 -3.471000 0.000000
v 2.793500 -7.291000 0.000000
v 3.625500 -8.179000 0.000000
v -5.432500 -15.200000 0.000000
v -1.378500 -19.527000 0.000000
v -4.659500 -22.434000 0.000000
v -8.673500 -15.399000 0.000000
v -7.790500 -14.308000 0.000000
v -14.010500 -6.041000 0.000000
v -12.248500 -4.693000 0.000000
v -14.176500 -2.044000 6.000000
v -8.177500 3.579000 6.000000
v -10.106500 5.532000 6.000000
v -3.562500 12.039000 6.000000
v 3.381500 21.364000 6.000000
v 5.117500 22.434000 6.000000
v 7.138500 21.657000 6.000000
v 9.666500 21.271000 6.000000
v 11.182500 16.296000 6.000000
v 3.539500 5.683000 6.000000
v 4.902500 4.705000 6.000000
v 8.692500 8.083000 6.000000
v 14.176500 1.896000 6.000000
v 13.218500 -1.289000 6.000000
v 9.940500 -6.616000 6.000000
v 6.826500 -3.471000 6.000000
v 2.793500 -7.291000 6.000000
v 3.625500 -8.179000 6.000000
v -5.432500 -15.200000 6.000000
v -1.378500 -19.527000 6.000000
v -4.659500 -22.434000 6.000000
v -8.673500 -15.399000 6.000000
v -7.790500 -14.308000 6.000000
v -14.010500 -6.041000 6.000000
v -12.248500 -4.693000 6.000000
vn 0.000000 0.000000 -1.000000
vn 0.000000 0.000000 -1.000000
vn 0.000000 0.000000 -1.000000
vn 0.000000 0.000000 -1.000000
vn 0.000000 0.000000 -1.000000
vn 0.000000 0.000000 -1.000000
vn 0.000000 0.000000 -1.000000
vn 0.000000 0.000000 -1.000000
vn 0.000000 0.000000 -1.000000
vn 0.000000 0.000000 -1.000000
vn 0.000000 0.000000 -1.000000
vn 0.000000 0.000000 -1.000000
vn 0.000000 0.000000 -1.000000
vn 0.000000 0.000000 -1.000000
vn 0.000000 0.000000 -1.000000
vn 0.000000 0.000000 -1.000000
vn 0.000000 0.000000 -1.000000
vn 0.000000 0.000000 -1.000000
vn 0.000000 0.000000 -1.000000
vn 0.000000 -0.000000 -1.000000
vn -0.000000 0.000000 -1.000000
vn 0.000000 0.000000 -1.000000
vn 0.000000 0.000000 -1.000000
vn 0.000000 -0.000000 1.000000
vn 0.000000 -0.000000 1.000000
vn 0.000000 0.000000 1.000000
vn 0.000000 0.000000 1.000000
vn 0.000000 0.000000 1.000000
vn 0.000000 0.000000 1.000000
vn 0.000000 0.000000 1.000000
vn 0.000000 0.000000 1.000000
vn 0.000000 0.000000 1.000000
vn 0.000000 0.000000 1.000000
vn -0.000000 0.000000 1.000000
vn 0.000000 0.000000 1.000000
vn 0.000000 0.000000 1.000000
vn 0.000000 0.000000 1.000000
vn 0.000000 0.000000 1.000000
vn -0.000000 0.000000 1.000000
vn 0.000000 0.000000 1.000000
vn 0.000000 0.000000 1.000000
vn 0.000000 0.000000 1.000000
vn 0.000000 0.000000 1.000000
vn 0.000000 0.000000 1.000000
vn 0.000000 0.000000 1.000000
vn 0.000000 0.000000 1.000000
vn -0.683872 0.729602 0.000000
vn -0.683872 0.729602 0.000000
vn -0.711465 -0.702722 0.000000
vn -0.711465 -0.702722 0.000000
vn -0.705099 0.709109 0.000000
vn -0.705099 0.709109 0.000000
vn -0.802049 0.597258 0.000000
vn -0.802049 0.597258 0.000000
vn -0.524699 0.851288 0.000000
vn -0.524699 0.851288 0.000000
vn 0.358855 0.933393 0.000000
vn 0.358855 0.933393 -0.000000
vn 0.150940 0.988543 0.000000
vn 0.150940 0.988543 -0.000000
vn 0.956574 0.291491 0.000000
vn 0.956574 0.291491 -0.000000
vn 0.811475 -0.584387 0.000000
vn 0.811475 -0.584387 0.000000
vn 0.582985 0.812483 0.000000
vn 0.582985 0.812483 -0.000000
vn -0.665366 0.746518 0.000000
vn -0.665366 0.746518 0.000000
vn 0.748343 0.663312 0.000000
vn 0.748343 0.663312 -0.000000
vn 0.957619 -0.288037 0.000000
vn 0.957619 -0.288037 0.000000
vn 0.851669 -0.524080 0.000000
vn 0.851669 -0.524080 0.000000
vn -0.710600 -0.703596 0.000000
vn -0.710600 -0.703596 0.000000
vn 0.687675 -0.726019 0.000000
vn 0.687675 -0.726019 0.000000
vn 0.729742 0.683722 0.000000
vn 0.729742 0.683722 -0.000000
vn 0.612629 -0.790371 0.000000
vn 0.612629 -0.790371 0.000000
vn 0.729753 0.683711 0.000000
vn 0.729753 0.683711 -0.000000
vn 0.663159 -0.748478 0.000000
vn 0.663159 -0.748478 0.000000
vn -0.868562 -0.495580 0.000000
vn -0.868562 -0.495580 0.000000
vn -0.777311 0.629116 0.000000
vn -0.777311 0.629116 0.000000
vn -0.799083 -0.601221 0.000000
vn -0.799083 -0.601221 0.000000
vn -0.607617 0.794230 0.000000
vn -0.607617 0.794230 0.000000
vn -0.808525 -0.588462 0.000000
vn -0.808525 -0.588462 0.000000
usemtl assumed_base
f 25//1 1//1 2//1
f 2//2 3//2 4//2
f 25//3 2//3 4//3
f 25//4 4//4 5//4
f 25//5 5//5 6//5
f 25//6 6//6 7//6
f 25//7 7//7 8//7
f 25//8 8//8 9//8
f 25//9 9//9 10//9
f 25//10 10//10 11//10
f 11//11 12//11 13//11
f 25//12 11//12 13//12
f 25//13 13//13 14//13
f 14//14 15//14 16//14
f 25//15 14//15 16//15
f 25//16 16//16 17//16
f 25//17 17//17 18//17
f 25//18 18//18 19//18
f 19//19 20//19 21//19
f 19//20 21//20 22//20
f 19//21 22//21 23//21
f 25//22 19//22 23//22
f 23//23 24//23 25//23
usemtl assumed_roof
f 50//24 27//24 26//24
f 27//25 29//25 28//25
f 50//26 29//26 27//26
f 50//27 30//27 29//27
f 50//28 31//28 30//28
f 50//29 32//29 31//29
f 50//30 33//30 32//30
f 50//31 34//31 33//31
f 50//32 35//32 34//32
f 50//33 36//33 35//33
f 36//34 38//34 37//34
f 50//35 38//35 36//35
f 50//36 39//36 38//36
f 39//37 41//37 40//37
f 50//38 41//38 39//38
f 50//39 42//39 41//39
f 50//40 43//40 42//40
f 50//41 44//41 43//41
f 44//42 46//42 45//42
f 44//43 47//43 46//43
f 44//44 48//44 47//44
f 50//45 48//45 44//45
f 48//46 50//46 49//46
usemtl assumed_wall
f 1//47 27//47 2//47
f 1//48 26//48 27//48
f 2//49 28//49 3//49
f 2//50 27//50 28//50
f 3//51 29//51 4//51
f 3//52 28//52 29//52
f 4//53 30//53 5//53
f 4//54 29//54 30//54
f 5//55 31//55 6//55
f 5//56 30//56 31//56
f 6//57 32//57 7//57
f 6//58 31//58 32//58
f 7//59 33//59 8//59
f 7//60 32//60 33//60
f 8//61 34//61 9//61
f 8//62 33//62 34//62
f 9//63 35//63 10//63
f 9//64 34//64 35//64
f 10//65 36//65 11//65
f 10//66 35//66 36//66
f 11//67 37//67 12//67
f 11//68 36//68 37//68
f 12//69 38//69 13//69
f 12//70 37//70 38//70
f 13//71 39//71 14//71
f 13//72 38//72 39//72
f 14//73 40//73 15//73
f 14//74 39//74 40//74
f 15//75 41//75 16//75
f 15//76 40//76 41//76
f 16//77 42//77 17//77
f 16//78 41//78 42//78
f 17//79 43//79 18//79
f 17//80 42//80 43//80
f 18//81 44//81 19//81
f 18//82 43//82 44//82
f 19//83 45//83 20//83
f 19//84 44//84 45//84
f 20//85 46//85 21//85
f 20//86 45//86 46//86
f 21//87 47//87 22//87
f 21//88 46//88 47//88
f 22//89 48//89 23//89
f 22//90 47//90 48//90
f 23//91 49//91 24//91
f 23//92 48//92 49//92
f 24//93 50//93 25//93
f 24//94 49//94 50//94
f 25//95 26//95 1//95
f 25//96 50//96 26//96
