# construction_0639_assumed_A_Casa
# source A_Casa
# h_campo 0.000000
# modeled_height 6.000000
# height_kind assumed
# local_origin_world_x 172001.034850
# local_origin_world_y 402500.144600
mtllib construction_artifacts.mtl

o construction_0639_assumed_A_Casa
v 19.940000 47.884500 0.000000
v 17.603000 40.747500 0.000000
v 14.182000 41.861500 0.000000
v 11.037000 33.790500 0.000000
v 16.589000 31.063500 0.000000
v 14.299000 27.199500 0.000000
v 17.227000 26.194500 0.000000
v 16.804000 24.492500 0.000000
v 29.492000 21.646500 0.000000
v 27.617000 12.601500 0.000000
v 18.358000 15.149500 0.000000
v 14.278000 16.202500 0.000000
v 14.758000 17.891500 0.000000
v 11.862000 18.250500 0.000000
v 13.633000 26.084500 0.000000
v 9.277000 28.371500 0.000000
v 4.614000 18.451500 0.000000
v 5.250000 17.922500 0.000000
v 1.665000 10.257500 0.000000
v 22.113000 2.479500 0.000000
v 0.538000 -51.139500 0.000000
v -29.492000 -40.802500 0.000000
v -12.275000 3.474500 0.000000
v -6.995000 1.573500 0.000000
v -2.661000 14.369500 0.000000
v -8.000000 16.719500 0.000000
v -6.004000 22.421500 0.000000
v -0.443000 20.480500 0.000000
v 8.787000 44.168500 0.000000
v 11.533000 51.139500 0.000000
v 19.940000 47.884500 6.000000
v 17.603000 40.747500 6.000000
v 14.182000 41.861500 6.000000
v 11.037000 33.790500 6.000000
v 16.589000 31.063500 6.000000
v 14.299000 27.199500 6.000000
v 17.227000 26.194500 6.000000
v 16.804000 24.492500 6.000000
v 29.492000 21.646500 6.000000
v 27.617000 12.601500 6.000000
v 18.358000 15.149500 6.000000
v 14.278000 16.202500 6.000000
v 14.758000 17.891500 6.000000
v 11.862000 18.250500 6.000000
v 13.633000 26.084500 6.000000
v 9.277000 28.371500 6.000000
v 4.614000 18.451500 6.000000
v 5.250000 17.922500 6.000000
v 1.665000 10.257500 6.000000
v 22.113000 2.479500 6.000000
v 0.538000 -51.139500 6.000000
v -29.492000 -40.802500 6.000000
v -12.275000 3.474500 6.000000
v -6.995000 1.573500 6.000000
v -2.661000 14.369500 6.000000
v -8.000000 16.719500 6.000000
v -6.004000 22.421500 6.000000
v -0.443000 20.480500 6.000000
v 8.787000 44.168500 6.000000
v 11.533000 51.139500 6.000000
vn 0.000000 0.000000 -1.000000
vn 0.000000 0.000000 -1.000000
vn 0.000000 -0.000000 -1.000000
vn 0.000000 0.000000 -1.000000
vn 0.000000 0.000000 -1.000000
vn 0.000000 0.000000 -1.000000
vn 0.000000 0.000000 -1.000000
vn 0.000000 0.000000 -1.000000
vn 0.000000 0.000000 -1.000000
vn 0.000000 0.000000 -1.000000
vn 0.000000 0.000000 -1.000000
vn 0.000000 0.000000 -1.000000
vn 0.000000 0.000000 -1.000000
vn 0.000000 -0.000000 -1.000000
vn 0.000000 0.000000 -1.000000
vn 0.000000 0.000000 -1.000000
vn 0.000000 -0.000000 -1.000000
vn 0.000000 0.000000 -1.000000
vn 0.000000 -0.000000 -1.000000
vn 0.000000 0.000000 -1.000000
vn 0.000000 0.000000 -1.000000
vn 0.000000 0.000000 -1.000000
vn 0.000000 0.000000 -1.000000
vn 0.000000 0.000000 -1.000000
vn 0.000000 0.000000 -1.000000
vn 0.000000 0.000000 -1.000000
vn 0.000000 0.000000 -1.000000
vn 0.000000 0.000000 -1.000000
vn 0.000000 0.000000 1.000000
vn 0.000000 0.000000 1.000000
vn 0.000000 0.000000 1.000000
vn 0.000000 0.000000 1.000000
vn 0.000000 0.000000 1.000000
vn 0.000000 0.000000 1.000000
vn 0.000000 0.000000 1.000000
vn 0.000000 0.000000 1.000000
vn 0.000000 0.000000 1.000000
vn 0.000000 0.000000 1.000000
vn 0.000000 0.000000 1.000000
vn 0.000000 0.000000 1.000000
vn 0.000000 0.000000 1.000000
vn 0.000000 0.000000 1.000000
vn 0.000000 0.000000 1.000000
vn 0.000000 0.000000 1.000000
vn 0.000000 0.000000 1.000000
vn 0.000000 0.000000 1.000000
vn 0.000000 0.000000 1.000000
vn 0.000000 0.000000 1.000000
vn 0.000000 0.000000 1.000000
vn 0.000000 0.000000 1.000000
vn 0.000000 0.000000 1.000000
vn 0.000000 0.000000 1.000000
vn 0.000000 0.000000 1.000000
vn 0.000000 -0.000000 1.000000
vn 0.000000 0.000000 1.000000
vn 0.000000 0.000000 1.000000
vn 0.950348 -0.311190 0.000000
vn 0.950348 -0.311190 0.000000
vn -0.309633 -0.950856 0.000000
vn -0.309633 -0.950856 0.000000
vn 0.931760 -0.363076 0.000000
vn 0.931760 -0.363076 0.000000
vn 0.440865 0.897573 0.000000
vn 0.440865 0.897573 -0.000000
vn 0.860270 -0.509839 0.000000
vn 0.860270 -0.509839 0.000000
vn 0.324646 0.945835 0.000000
vn 0.324646 0.945835 -0.000000
vn 0.970477 -0.241194 0.000000
vn 0.970477 -0.241194 0.000000
vn 0.218868 0.975754 0.000000
vn 0.218868 0.975754 -0.000000
vn 0.979183 -0.202981 0.000000
vn 0.979183 -0.202981 0.000000
vn -0.265328 -0.964158 0.000000
vn -0.265328 -0.964158 0.000000
vn -0.249900 -0.968272 0.000000
vn -0.249900 -0.968272 0.000000
vn -0.961910 0.273367 0.000000
vn -0.961910 0.273367 0.000000
vn -0.123022 -0.992404 0.000000
vn -0.123022 -0.992404 0.000000
vn -0.975387 0.220502 0.000000
vn -0.975387 0.220502 0.000000
vn -0.464850 -0.885390 0.000000
vn -0.464850 -0.885390 0.000000
vn 0.905003 -0.425406 0.000000
vn 0.905003 -0.425406 0.000000
vn 0.639471 0.768815 0.000000
vn 0.639471 0.768815 -0.000000
vn 0.905821 -0.423662 0.000000
vn 0.905821 -0.423662 0.000000
vn 0.355528 0.934666 0.000000
vn 0.355528 0.934666 -0.000000
vn 0.927715 -0.373290 0.000000
vn 0.927715 -0.373290 0.000000
vn -0.325479 -0.945549 0.000000
vn -0.325479 -0.945549 0.000000
vn -0.932018 0.362413 0.000000
vn -0.932018 0.362413 0.000000
vn 0.338751 0.940876 0.000000
vn 0.338751 0.940876 -0.000000
vn -0.947147 0.320798 0.000000
vn -0.947147 0.320798 0.000000
vn -0.402859 -0.915262 0.000000
vn -0.402859 -0.915262 0.000000
vn -0.943843 0.330395 0.000000
vn -0.943843 0.330395 0.000000
vn 0.329541 0.944141 0.000000
vn 0.329541 0.944141 -0.000000
vn -0.931765 0.363061 0.000000
vn -0.931765 0.363061 0.000000
vn -0.930415 0.366507 0.000000
vn -0.930415 0.366507 0.000000
vn 0.361059 0.932543 0.000000
vn 0.361059 0.932543 -0.000000
usemtl assumed_base
f 30//1 1//1 2//1
f 30//2 2//2 3//2
f 30//3 3//3 4//3
f 4//4 5//4 6//4
f 6//5 7//5 8//5
f 8//6 9//6 10//6
f 6//7 8//7 10//7
f 6//8 10//8 11//8
f 4//9 6//9 11//9
f 11//10 12//10 13//10
f 13//11 14//11 15//11
f 11//12 13//12 15//12
f 4//13 11//13 15//13
f 4//14 15//14 16//14
f 30//15 4//15 16//15
f 30//16 16//16 17//16
f 17//17 18//17 19//17
f 30//18 17//18 19//18
f 19//19 20//19 21//19
f 19//20 21//20 22//20
f 22//21 23//21 24//21
f 19//22 22//22 24//22
f 30//23 19//23 24//23
f 30//24 24//24 25//24
f 25//25 26//25 27//25
f 25//26 27//26 28//26
f 30//27 25//27 28//27
f 28//28 29//28 30//28
usemtl assumed_roof
f 60//29 32//29 31//29
f 60//30 33//30 32//30
f 60//31 34//31 33//31
f 34//32 36//32 35//32
f 36//33 38//33 37//33
f 38//34 40//34 39//34
f 36//35 40//35 38//35
f 36//36 41//36 40//36
f 34//37 41//37 36//37
f 41//38 43//38 42//38
f 43//39 45//39 44//39
f 41//40 45//40 43//40
f 34//41 45//41 41//41
f 34//42 46//42 45//42
f 60//43 46//43 34//43
f 60//44 47//44 46//44
f 47//45 49//45 48//45
f 60//46 49//46 47//46
f 49//47 51//47 50//47
f 49//48 52//48 51//48
f 52//49 54//49 53//49
f 49//50 54//50 52//50
f 60//51 54//51 49//51
f 60//52 55//52 54//52
f 55//53 57//53 56//53
f 55//54 58//54 57//54
f 60//55 58//55 55//55
f 58//56 60//56 59//56
usemtl assumed_wall
f 1//57 32//57 2//57
f 1//58 31//58 32//58
f 2//59 33//59 3//59
f 2//60 32//60 33//60
f 3//61 34//61 4//61
f 3//62 33//62 34//62
f 4//63 35//63 5//63
f 4//64 34//64 35//64
f 5//65 36//65 6//65
f 5//66 35//66 36//66
f 6//67 37//67 7//67
f 6//68 36//68 37//68
f 7//69 38//69 8//69
f 7//70 37//70 38//70
f 8//71 39//71 9//71
f 8//72 38//72 39//72
f 9//73 40//73 10//73
f 9//74 39//74 40//74
f 10//75 41//75 11//75
f 10//76 40//76 41//76
f 11//77 42//77 12//77
f 11//78 41//78 42//78
f 12//79 43//79 13//79
f 12//80 42//80 43//80
f 13//81 44//81 14//81
f 13//82 43//82 44//82
f 14//83 45//83 15//83
f 14//84 44//84 45//84
f 15//85 46//85 16//85
f 15//86 45//86 46//86
f 16//87 47//87 17//87
f 16//88 46//88 47//88
f 17//89 48//89 18//89
f 17//90 47//90 48//90
f 18//91 49//91 19//91
f 18//92 48//92 49//92
f 19//93 50//93 20//93
f 19//94 49//94 50//94
f 20//95 51//95 21//95
f 20//96 50//96 51//96
f 21//97 52//97 22//97
f 21//98 51//98 52//98
f 22//99 53//99 23//99
f 22//100 52//100 53//100
f 23//101 54//101 24//101
f 23//102 53//102 54//102
f 24//103 55//103 25//103
f 24//104 54//104 55//104
f 25//105 56//105 26//105
f 25//106 55//106 56//106
f 26//107 57//107 27//107
f 26//108 56//108 57//108
f 27//109 58//109 28//109
f 27//110 57//110 58//110
f 28//111 59//111 29//111
f 28//112 58//112 59//112
f 29//113 60//113 30//113
f 29//114 59//114 60//114
f 30//115 31//115 1//115
f 30//116 60//116 31//116
