# construction_4425_assumed_A_Casa
# source A_Casa
# h_campo 0.000000
# modeled_height 6.000000
# height_kind assumed
# local_origin_world_x 172001.034850
# local_origin_world_y 402500.144600
mtllib construction_artifacts.mtl

o construction_4425_assumed_A_Casa
v -12.597500 -15.140500 0.000000
v -15.884500 -11.279500 0.000000
v -11.755500 -8.163500 0.000000
v -15.211500 -2.930500 0.000000
v -10.018500 1.177500 0.000000
v -5.638500 3.245500 0.000000
v -0.584500 5.432500 0.000000
v 3.403500 7.638500 0.000000
v 1.009500 10.603500 0.000000
v 3.687500 12.347500 0.000000
v 5.157500 10.447500 0.000000
v 6.006500 11.205500 0.000000
v 7.024500 10.556500 0.000000
v 13.166500 15.140500 0.000000
v 15.884500 11.914500 0.000000
v -8.644500 -5.793500 0.000000
v -5.734500 -10.257500 0.000000
v -12.597500 -15.140500 6.000000
v -15.884500 -11.279500 6.000000
v -11.755500 -8.163500 6.000000
v -15.211500 -2.930500 6.000000
v -10.018500 1.177500 6.000000
v -5.638500 3.245500 6.000000
v -0.584500 5.432500 6.000000
v 3.403500 7.638500 6.000000
v 1.009500 10.603500 6.000000
v 3.687500 12.347500 6.000000
v 5.157500 10.447500 6.000000
v 6.006500 11.205500 6.000000
v 7.024500 10.556500 6.000000
v 13.166500 15.140500 6.000000
v 15.884500 11.914500 6.000000
v -8.644500 -5.793500 6.000000
v -5.734500 -10.257500 6.000000
vn 0.000000 0.000000 -1.000000
vn -0.000000 0.000000 -1.000000
vn 0.000000 0.000000 -1.000000
vn 0.000000 0.000000 -1.000000
vn 0.000000 0.000000 -1.000000
vn 0.000000 0.000000 -1.000000
vn 0.000000 0.000000 -1.000000
vn 0.000000 0.000000 -1.000000
vn 0.000000 0.000000 -1.000000
vn 0.000000 0.000000 -1.000000
vn 0.000000 0.000000 -1.000000
vn 0.000000 0.000000 -1.000000
vn 0.000000 0.000000 -1.000000
vn 0.000000 0.000000 -1.000000
vn 0.000000 0.000000 -1.000000
vn 0.000000 0.000000 1.000000
vn 0.000000 0.000000 1.000000
vn 0.000000 0.000000 1.000000
vn 0.000000 0.000000 1.000000
vn 0.000000 0.000000 1.000000
vn 0.000000 0.000000 1.000000
vn 0.000000 -0.000000 1.000000
vn 0.000000 0.000000 1.000000
vn 0.000000 0.000000 1.000000
vn 0.000000 0.000000 1.000000
vn 0.000000 0.000000 1.000000
vn 0.000000 0.000000 1.000000
vn 0.000000 0.000000 1.000000
vn -0.000000 0.000000 1.000000
vn 0.000000 0.000000 1.000000
vn -0.761438 -0.648238 0.000000
vn -0.761438 -0.648238 0.000000
vn -0.602379 0.798210 0.000000
vn -0.602379 0.798210 0.000000
vn -0.834447 -0.551089 0.000000
vn -0.834447 -0.551089 0.000000
vn -0.620413 0.784275 0.000000
vn -0.620413 0.784275 0.000000
vn -0.426950 0.904275 0.000000
vn -0.426950 0.904275 0.000000
vn -0.397139 0.917759 0.000000
vn -0.397139 0.917759 0.000000
vn -0.484040 0.875046 0.000000
vn -0.484040 0.875046 0.000000
vn -0.778045 -0.628209 0.000000
vn -0.778045 -0.628209 0.000000
vn -0.545714 0.837971 0.000000
vn -0.545714 0.837971 0.000000
vn 0.790919 0.611921 0.000000
vn 0.790919 0.611921 -0.000000
vn -0.665998 0.745953 0.000000
vn -0.665998 0.745953 0.000000
vn 0.537572 0.843218 0.000000
vn 0.537572 0.843218 -0.000000
vn -0.598119 0.801407 0.000000
vn -0.598119 0.801407 0.000000
vn 0.764751 0.644326 0.000000
vn 0.764751 0.644326 -0.000000
vn 0.585330 -0.810795 0.000000
vn 0.585330 -0.810795 0.000000
vn 0.837723 0.546096 0.000000
vn 0.837723 0.546096 -0.000000
vn 0.579732 -0.814807 0.000000
vn 0.579732 -0.814807 0.000000
usemtl assumed_base
f 17//1 1//1 2//1
f 17//2 2//2 3//2
f 17//3 3//3 4//3
f 4//4 5//4 6//4
f 4//5 6//5 7//5
f 4//6 7//6 8//6
f 8//7 9//7 10//7
f 8//8 10//8 11//8
f 8//9 11//9 12//9
f 8//10 12//10 13//10
f 8//11 13//11 14//11
f 8//12 14//12 15//12
f 4//13 8//13 15//13
f 4//14 15//14 16//14
f 4//15 16//15 17//15
usemtl assumed_roof
f 34//16 19//16 18//16
f 34//17 20//17 19//17
f 34//18 21//18 20//18
f 21//19 23//19 22//19
f 21//20 24//20 23//20
f 21//21 25//21 24//21
f 25//22 27//22 26//22
f 25//23 28//23 27//23
f 25//24 29//24 28//24
f 25//25 30//25 29//25
f 25//26 31//26 30//26
f 25//27 32//27 31//27
f 21//28 32//28 25//28
f 21//29 33//29 32//29
f 21//30 34//30 33//30
usemtl assumed_wall
f 1//31 19//31 2//31
f 1//32 18//32 19//32
f 2//33 20//33 3//33
f 2//34 19//34 20//34
f 3//35 21//35 4//35
f 3//36 20//36 21//36
f 4//37 22//37 5//37
f 4//38 21//38 22//38
f 5//39 23//39 6//39
f 5//40 22//40 23//40
f 6//41 24//41 7//41
f 6//42 23//42 24//42
f 7//43 25//43 8//43
f 7//44 24//44 25//44
f 8//45 26//45 9//45
f 8//46 25//46 26//46
f 9//47 27//47 10//47
f 9//48 26//48 27//48
f 10//49 28//49 11//49
f 10//50 27//50 28//50
f 11//51 29//51 12//51
f 11//52 28//52 29//52
f 12//53 30//53 13//53
f 12//54 29//54 30//54
f 13//55 31//55 14//55
f 13//56 30//56 31//56
f 14//57 32//57 15//57
f 14//58 31//58 32//58
f 15//59 33//59 16//59
f 15//60 32//60 33//60
f 16//61 34//61 17//61
f 16//62 33//62 34//62
f 17//63 18//63 1//63
f 17//64 34//64 18//64
