# construction_6733_assumed_A_Casa
# source A_Casa
# h_campo 0.000000
# modeled_height 6.000000
# height_kind assumed
# local_origin_world_x 172001.034850
# local_origin_world_y 402500.144600
mtllib construction_artifacts.mtl

o construction_6733_assumed_A_Casa
v 6.904000 14.640500 0.000000
v 9.456000 15.746500 0.000000
v 16.197000 4.497500 0.000000
v 23.511000 8.922500 0.000000
v 24.887000 6.661500 0.000000
v -7.776000 -13.389500 0.000000
v -9.042000 -11.041500 0.000000
v -17.482000 -15.746500 0.000000
v -21.780000 -8.580500 0.000000
v -23.075000 -9.104500 0.000000
v -24.887000 -5.648500 0.000000
v 6.904000 14.640500 6.000000
v 9.456000 15.746500 6.000000
v 16.197000 4.497500 6.000000
v 23.511000 8.922500 6.000000
v 24.887000 6.661500 6.000000
v -7.776000 -13.389500 6.000000
v -9.042000 -11.041500 6.000000
v -17.482000 -15.746500 6.000000
v -21.780000 -8.580500 6.000000
v -23.075000 -9.104500 6.000000
v -24.887000 -5.648500 6.000000
vn 0.000000 0.000000 -1.000000
vn 0.000000 0.000000 -1.000000
vn 0.000000 0.000000 -1.000000
vn 0.000000 -0.000000 -1.000000
vn 0.000000 0.000000 -1.000000
vn 0.000000 0.000000 -1.000000
vn -0.000000 0.000000 -1.000000
vn 0.000000 0.000000 -1.000000
vn -0.000000 0.000000 -1.000000
vn 0.000000 0.000000 1.000000
vn 0.000000 0.000000 1.000000
vn 0.000000 0.000000 1.000000
vn -0.000000 0.000000 1.000000
vn 0.000000 0.000000 1.000000
vn -0.000000 0.000000 1.000000
vn 0.000000 0.000000 1.000000
vn 0.000000 0.000000 1.000000
vn 0.000000 0.000000 1.000000
vn -0.397648 0.917538 0.000000
vn -0.397648 0.917538 0.000000
vn 0.857775 0.514025 0.000000
vn 0.857775 0.514025 -0.000000
vn -0.517640 0.855598 0.000000
vn -0.517640 0.855598 0.000000
vn 0.854242 0.519875 0.000000
vn 0.854242 0.519875 -0.000000
vn 0.523164 -0.852232 0.000000
vn 0.523164 -0.852232 0.000000
vn -0.880206 -0.474592 0.000000
vn -0.880206 -0.474592 0.000000
vn 0.486917 -0.873449 0.000000
vn 0.486917 -0.873449 0.000000
vn -0.857577 -0.514355 0.000000
vn -0.857577 -0.514355 0.000000
vn 0.375090 -0.926988 0.000000
vn 0.375090 -0.926988 0.000000
vn -0.885651 -0.464352 0.000000
vn -0.885651 -0.464352 0.000000
vn -0.537977 0.842960 0.000000
vn -0.537977 0.842960 0.000000
usemtl assumed_base
f 11//1 1//1 2//1
f 11//2 2//2 3//2
f 3//3 4//3 5//3
f 3//4 5//4 6//4
f 3//5 6//5 7//5
f 11//6 3//6 7//6
f 7//7 8//7 9//7
f 11//8 7//8 9//8
f 9//9 10//9 11//9
usemtl assumed_roof
f 22//10 13//10 12//10
f 22//11 14//11 13//11
f 14//12 16//12 15//12
f 14//13 17//13 16//13
f 14//14 18//14 17//14
f 22//15 18//15 14//15
f 18//16 20//16 19//16
f 22//17 20//17 18//17
f 20//18 22//18 21//18
usemtl assumed_wall
f 1//19 13//19 2//19
f 1//20 12//20 13//20
f 2//21 14//21 3//21
f 2//22 13//22 14//22
f 3//23 15//23 4//23
f 3//24 14//24 15//24
f 4//25 16//25 5//25
f 4//26 15//26 16//26
f 5//27 17//27 6//27
f 5//28 16//28 17//28
f 6//29 18//29 7//29
f 6//30 17//30 18//30
f 7//31 19//31 8//31
f 7//32 18//32 19//32
f 8//33 20//33 9//33
f 8//34 19//34 20//34
f 9//35 21//35 10//35
f 9//36 20//36 21//36
f 10//37 22//37 11//37
f 10//38 21//38 22//38
f 11//39 12//39 1//39
f 11//40 22//40 12//40
