# construction_3307_actual_A_Casa
# source A_Casa
# h_campo 5.000000
# modeled_height 5.000000
# height_kind actual
# local_origin_world_x 172001.034850
# local_origin_world_y 402500.144600
mtllib construction_artifacts.mtl

o construction_3307_actual_A_Casa
v -8.231000 6.227500 0.000000
v 7.585000 5.308500 0.000000
v 8.231000 -6.227500 0.000000
v -7.466000 -5.931500 0.000000
v -8.231000 6.227500 5.000000
v 7.585000 5.308500 5.000000
v 8.231000 -6.227500 5.000000
v -7.466000 -5.931500 5.000000
vn 0.000000 0.000000 -1.000000
vn 0.000000 -0.000000 -1.000000
vn 0.000000 -0.000000 1.000000
vn 0.000000 0.000000 1.000000
vn 0.058008 0.998316 0.000000
vn 0.058008 0.998316 -0.000000
vn 0.998436 0.055911 0.000000
vn 0.998436 0.055911 -0.000000
vn -0.018854 -0.999822 0.000000
vn -0.018854 -0.999822 0.000000
vn -0.998027 -0.062792 0.000000
vn -0.998027 -0.062792 0.000000
usemtl actual_base
f 4//1 1//1 2//1
f 2//2 3//2 4//2
usemtl actual_roof
f 8//3 6//3 5//3
f 6//4 8//4 7//4
usemtl actual_wall
f 1//5 6//5 2//5
f 1//6 5//6 6//6
f 2//7 7//7 3//7
f 2//8 6//8 7//8
f 3//9 8//9 4//9
f 3//10 7//10 8//10
f 4//11 5//11 1//11
f 4//12 8//12 5//12
