# construction_3687_assumed_A_Casa
# source A_Casa
# h_campo 0.000000
# modeled_height 6.000000
# height_kind assumed
# local_origin_world_x 172001.034850
# local_origin_world_y 402500.144600
mtllib construction_artifacts.mtl

o construction_3687_assumed_A_Casa
v -15.342000 20.827500 0.000000
v -3.507000 21.600500 0.000000
v -2.648000 10.643500 0.000000
v 1.300000 10.334500 0.000000
v 2.505000 17.611500 0.000000
v 15.342000 15.263500 0.000000
v 13.597000 2.631500 0.000000
v 1.365000 4.706500 0.000000
v 2.110000 -1.701500 0.000000
v 3.133000 -1.696500 0.000000
v 3.146000 -4.327500 0.000000
v -2.350000 -5.158500 0.000000
v -2.334000 -8.245500 0.000000
v -11.174000 -8.747500 0.000000
v -10.159000 -21.438500 0.000000
v -13.191000 -21.600500 0.000000
v -15.342000 20.827500 6.000000
v -3.507000 21.600500 6.000000
v -2.648000 10.643500 6.000000
v 1.300000 10.334500 6.000000
v 2.505000 17.611500 6.000000
v 15.342000 15.263500 6.000000
v 13.597000 2.631500 6.000000
v 1.365000 4.706500 6.000000
v 2.110000 -1.701500 6.000000
v 3.133000 -1.696500 6.000000
v 3.146000 -4.327500 6.000000
v -2.350000 -5.158500 6.000000
v -2.334000 -8.245500 6.000000
v -11.174000 -8.747500 6.000000
v -10.159000 -21.438500 6.000000
v -13.191000 -21.600500 6.000000
vn 0.000000 0.000000 -1.000000
vn 0.000000 0.000000 -1.000000
vn 0.000000 0.000000 -1.000000
vn 0.000000 0.000000 -1.000000
vn 0.000000 0.000000 -1.000000
vn 0.000000 0.000000 -1.000000
vn 0.000000 0.000000 -1.000000
vn 0.000000 0.000000 -1.000000
vn 0.000000 0.000000 -1.000000
vn 0.000000 0.000000 -1.000000
vn 0.000000 0.000000 -1.000000
vn 0.000000 0.000000 -1.000000
vn 0.000000 0.000000 -1.000000
vn 0.000000 -0.000000 -1.000000
vn -0.000000 0.000000 1.000000
vn 0.000000 0.000000 1.000000
vn -0.000000 0.000000 1.000000
vn 0.000000 0.000000 1.000000
vn 0.000000 0.000000 1.000000
vn 0.000000 0.000000 1.000000
vn 0.000000 0.000000 1.000000
vn -0.000000 0.000000 1.000000
vn 0.000000 0.000000 1.000000
vn 0.000000 0.000000 1.000000
vn 0.000000 0.000000 1.000000
vn 0.000000 0.000000 1.000000
vn 0.000000 -0.000000 1.000000
vn 0.000000 0.000000 1.000000
vn -0.065176 0.997874 0.000000
vn -0.065176 0.997874 0.000000
vn 0.996941 0.078158 0.000000
vn 0.996941 0.078158 -0.000000
vn 0.078029 0.996951 0.000000
vn 0.078029 0.996951 -0.000000
vn -0.986566 0.163366 0.000000
vn -0.986566 0.163366 0.000000
vn 0.179924 0.983681 0.000000
vn 0.179924 0.983681 -0.000000
vn 0.990593 -0.136842 0.000000
vn 0.990593 -0.136842 0.000000
vn -0.167248 -0.985915 0.000000
vn -0.167248 -0.985915 0.000000
vn 0.993309 0.115483 0.000000
vn 0.993309 0.115483 -0.000000
vn -0.004888 0.999988 0.000000
vn -0.004888 0.999988 0.000000
vn 0.999988 0.004941 0.000000
vn 0.999988 0.004941 -0.000000
vn 0.149502 -0.988761 0.000000
vn 0.149502 -0.988761 0.000000
vn 0.999987 0.005183 0.000000
vn 0.999987 0.005183 -0.000000
vn 0.056696 -0.998391 0.000000
vn 0.056696 -0.998391 0.000000
vn 0.996817 0.079723 0.000000
vn 0.996817 0.079723 -0.000000
vn 0.053354 -0.998576 0.000000
vn 0.053354 -0.998576 0.000000
vn -0.998717 -0.050633 0.000000
vn -0.998717 -0.050633 0.000000
usemtl assumed_base
f 1//1 2//1 3//1
f 4//2 5//2 6//2
f 4//3 6//3 7//3
f 3//4 4//4 7//4
f 3//5 7//5 8//5
f 1//6 3//6 8//6
f 1//7 8//7 9//7
f 9//8 10//8 11//8
f 1//9 9//9 11//9
f 1//10 11//10 12//10
f 1//11 12//11 13//11
f 1//12 13//12 14//12
f 16//13 1//13 14//13
f 14//14 15//14 16//14
usemtl assumed_roof
f 17//15 19//15 18//15
f 20//16 22//16 21//16
f 20//17 23//17 22//17
f 19//18 23//18 20//18
f 19//19 24//19 23//19
f 17//20 24//20 19//20
f 17//21 25//21 24//21
f 25//22 27//22 26//22
f 17//23 27//23 25//23
f 17//24 28//24 27//24
f 17//25 29//25 28//25
f 17//26 30//26 29//26
f 32//27 30//27 17//27
f 30//28 32//28 31//28
usemtl assumed_wall
f 1//29 18//29 2//29
f 1//30 17//30 18//30
f 2//31 19//31 3//31
f 2//32 18//32 19//32
f 3//33 20//33 4//33
f 3//34 19//34 20//34
f 4//35 21//35 5//35
f 4//36 20//36 21//36
f 5//37 22//37 6//37
f 5//38 21//38 22//38
f 6//39 23//39 7//39
f 6//40 22//40 23//40
f 7//41 24//41 8//41
f 7//42 23//42 24//42
f 8//43 25//43 9//43
f 8//44 24//44 25//44
f 9//45 26//45 10//45
f 9//46 25//46 26//46
f 10//47 27//47 11//47
f 10//48 26//48 27//48
f 11//49 28//49 12//49
f 11//50 27//50 28//50
f 12//51 29//51 13//51
f 12//52 28//52 29//52
f 13//53 30//53 14//53
f 13//54 29//54 30//54
f 14//55 31//55 15//55
f 14//56 30//56 31//56
f 15//57 32//57 16//57
f 15//58 31//58 32//58
f 16//59 17//59 1//59
f 16//60 32//60 17//60
