# construction_4085_assumed_A_Casa
# source A_Casa
# h_campo 0.000000
# modeled_height 6.000000
# height_kind assumed
# local_origin_world_x 172001.034850
# local_origin_world_y 402500.144600
mtllib construction_artifacts.mtl

o construction_4085_assumed_A_Casa
v -22.474000 10.514500 0.000000
v -11.901000 16.470500 0.000000
v -7.128000 17.706500 0.000000
v -2.318000 2.096500 0.000000
v 14.011000 12.020500 0.000000
v 22.474000 -8.616500 0.000000
v 17.433000 -11.403500 0.000000
v 11.882000 -1.189500 0.000000
v 6.113000 -4.393500 0.000000
v 7.807000 -7.962500 0.000000
v 1.585000 -9.886500 0.000000
v 3.212000 -13.951500 0.000000
v -8.006000 -17.706500 0.000000
v -9.575000 -14.484500 0.000000
v -14.488000 2.227500 0.000000
v -17.397000 1.501500 0.000000
v -22.474000 10.514500 6.000000
v -11.901000 16.470500 6.000000
v -7.128000 17.706500 6.000000
v -2.318000 2.096500 6.000000
v 14.011000 12.020500 6.000000
v 22.474000 -8.616500 6.000000
v 17.433000 -11.403500 6.000000
v 11.882000 -1.189500 6.000000
v 6.113000 -4.393500 6.000000
v 7.807000 -7.962500 6.000000
v 1.585000 -9.886500 6.000000
v 3.212000 -13.951500 6.000000
v -8.006000 -17.706500 6.000000
v -9.575000 -14.484500 6.000000
v -14.488000 2.227500 6.000000
v -17.397000 1.501500 6.000000
vn 0.000000 0.000000 -1.000000
vn 0.000000 0.000000 -1.000000
vn 0.000000 0.000000 -1.000000
vn 0.000000 -0.000000 -1.000000
vn 0.000000 0.000000 -1.000000
vn 0.000000 0.000000 -1.000000
vn 0.000000 0.000000 -1.000000
vn 0.000000 0.000000 -1.000000
vn 0.000000 -0.000000 -1.000000
vn 0.000000 -0.000000 -1.000000
vn 0.000000 -0.000000 -1.000000
vn 0.000000 0.000000 -1.000000
vn 0.000000 0.000000 -1.000000
vn 0.000000 0.000000 -1.000000
vn 0.000000 -0.000000 1.000000
vn 0.000000 0.000000 1.000000
vn 0.000000 0.000000 1.000000
vn 0.000000 0.000000 1.000000
vn -0.000000 0.000000 1.000000
vn 0.000000 0.000000 1.000000
vn 0.000000 0.000000 1.000000
vn 0.000000 0.000000 1.000000
vn 0.000000 0.000000 1.000000
vn 0.000000 0.000000 1.000000
vn 0.000000 0.000000 1.000000
vn 0.000000 0.000000 1.000000
vn 0.000000 0.000000 1.000000
vn 0.000000 0.000000 1.000000
vn -0.490805 0.871269 0.000000
vn -0.490805 0.871269 0.000000
vn -0.250688 0.968068 0.000000
vn -0.250688 0.968068 0.000000
vn 0.955660 0.294473 0.000000
vn 0.955660 0.294473 -0.000000
vn -0.519359 0.854556 0.000000
vn -0.519359 0.854556 0.000000
vn 0.925223 0.379424 0.000000
vn 0.925223 0.379424 -0.000000
vn 0.483844 -0.875154 0.000000
vn 0.483844 -0.875154 0.000000
vn -0.878628 -0.477508 0.000000
vn -0.878628 -0.477508 0.000000
vn 0.485527 -0.874222 0.000000
vn 0.485527 -0.874222 0.000000
vn 0.903403 0.428793 0.000000
vn 0.903403 0.428793 -0.000000
vn 0.295423 -0.955366 0.000000
vn 0.295423 -0.955366 0.000000
vn 0.928398 0.371588 0.000000
vn 0.928398 0.371588 -0.000000
vn 0.317419 -0.948285 0.000000
vn 0.317419 -0.948285 0.000000
vn -0.899066 -0.437813 0.000000
vn -0.899066 -0.437813 0.000000
vn -0.959401 -0.282045 0.000000
vn -0.959401 -0.282045 0.000000
vn 0.242143 -0.970241 0.000000
vn 0.242143 -0.970241 0.000000
vn -0.871278 -0.490789 0.000000
vn -0.871278 -0.490789 0.000000
usemtl assumed_base
f 16//1 1//1 2//1
f 16//2 2//2 3//2
f 5//3 6//3 7//3
f 5//4 7//4 8//4
f 4//5 5//5 8//5
f 4//6 8//6 9//6
f 4//7 9//7 10//7
f 4//8 10//8 11//8
f 11//9 12//9 13//9
f 4//10 11//10 13//10
f 3//11 4//11 13//11
f 3//12 13//12 14//12
f 3//13 14//13 15//13
f 3//14 15//14 16//14
usemtl assumed_roof
f 32//15 18//15 17//15
f 32//16 19//16 18//16
f 21//17 23//17 22//17
f 21//18 24//18 23//18
f 20//19 24//19 21//19
f 20//20 25//20 24//20
f 20//21 26//21 25//21
f 20//22 27//22 26//22
f 27//23 29//23 28//23
f 20//24 29//24 27//24
f 19//25 29//25 20//25
f 19//26 30//26 29//26
f 19//27 31//27 30//27
f 19//28 32//28 31//28
usemtl assumed_wall
f 1//29 18//29 2//29
f 1//30 17//30 18//30
f 2//31 19//31 3//31
f 2//32 18//32 19//32
f 3//33 20//33 4//33
f 3//34 19//34 20//34
f 4//35 21//35 5//35
f 4//36 20//36 21//36
f 5//37 22//37 6//37
f 5//38 21//38 22//38
f 6//39 23//39 7//39
f 6//40 22//40 23//40
f 7//41 24//41 8//41
f 7//42 23//42 24//42
f 8//43 25//43 9//43
f 8//44 24//44 25//44
f 9//45 26//45 10//45
f 9//46 25//46 26//46
f 10//47 27//47 11//47
f 10//48 26//48 27//48
f 11//49 28//49 12//49
f 11//50 27//50 28//50
f 12//51 29//51 13//51
f 12//52 28//52 29//52
f 13//53 30//53 14//53
f 13//54 29//54 30//54
f 14//55 31//55 15//55
f 14//56 30//56 31//56
f 15//57 32//57 16//57
f 15//58 31//58 32//58
f 16//59 17//59 1//59
f 16//60 32//60 17//60
