# construction_4254_assumed_A_Casa
# source A_Casa
# h_campo 0.000000
# modeled_height 6.000000
# height_kind assumed
# local_origin_world_x 172001.034850
# local_origin_world_y 402500.144600
mtllib construction_artifacts.mtl

o construction_4254_assumed_A_Casa
v -4.951500 0.148000 0.000000
v 1.895500 4.479000 0.000000
v 4.951500 -0.060000 0.000000
v -2.356500 -4.479000 0.000000
v -4.951500 0.148000 6.000000
v 1.895500 4.479000 6.000000
v 4.951500 -0.060000 6.000000
v -2.356500 -4.479000 6.000000
vn 0.000000 0.000000 -1.000000
vn 0.000000 -0.000000 -1.000000
vn 0.000000 -0.000000 1.000000
vn 0.000000 0.000000 1.000000
vn -0.534573 0.845122 0.000000
vn -0.534573 0.845122 0.000000
vn 0.829511 0.558490 0.000000
vn 0.829511 0.558490 -0.000000
vn 0.517437 -0.855721 0.000000
vn 0.517437 -0.855721 0.000000
vn -0.872194 -0.489160 0.000000
vn -0.872194 -0.489160 0.000000
usemtl assumed_base
f 4//1 1//1 2//1
f 2//2 3//2 4//2
usemtl assumed_roof
f 8//3 6//3 5//3
f 6//4 8//4 7//4
usemtl assumed_wall
f 1//5 6//5 2//5
f 1//6 5//6 6//6
f 2//7 7//7 3//7
f 2//8 6//8 7//8
f 3//9 8//9 4//9
f 3//10 7//10 8//10
f 4//11 5//11 1//11
f 4//12 8//12 5//12
