# construction_5145_assumed_A_Casa
# source A_Casa
# h_campo 0.000000
# modeled_height 6.000000
# height_kind assumed
# local_origin_world_x 172001.034850
# local_origin_world_y 402500.144600
mtllib construction_artifacts.mtl

o construction_5145_assumed_A_Casa
v 0.473500 0.671000 0.000000
v 7.415500 10.679000 0.000000
v 12.286500 7.960000 0.000000
v 5.666500 -3.485000 0.000000
v 4.593500 -2.546000 0.000000
v -0.907500 -10.679000 0.000000
v -12.286500 -3.812000 0.000000
v -6.869500 5.492000 0.000000
v 0.473500 0.671000 6.000000
v 7.415500 10.679000 6.000000
v 12.286500 7.960000 6.000000
v 5.666500 -3.485000 6.000000
v 4.593500 -2.546000 6.000000
v -0.907500 -10.679000 6.000000
v -12.286500 -3.812000 6.000000
v -6.869500 5.492000 6.000000
vn 0.000000 0.000000 -1.000000
vn 0.000000 0.000000 -1.000000
vn 0.000000 0.000000 -1.000000
vn 0.000000 0.000000 -1.000000
vn 0.000000 0.000000 -1.000000
vn 0.000000 0.000000 -1.000000
vn 0.000000 0.000000 1.000000
vn 0.000000 0.000000 1.000000
vn -0.000000 0.000000 1.000000
vn 0.000000 0.000000 1.000000
vn 0.000000 0.000000 1.000000
vn 0.000000 0.000000 1.000000
vn -0.821678 0.569953 0.000000
vn -0.821678 0.569953 0.000000
vn 0.487407 0.873175 0.000000
vn 0.487407 0.873175 -0.000000
vn 0.865625 -0.500693 0.000000
vn 0.865625 -0.500693 0.000000
vn -0.658554 -0.752533 0.000000
vn -0.658554 -0.752533 0.000000
vn 0.828318 -0.560258 0.000000
vn 0.828318 -0.560258 0.000000
vn -0.516685 -0.856176 0.000000
vn -0.516685 -0.856176 0.000000
vn -0.864196 0.503155 0.000000
vn -0.864196 0.503155 0.000000
vn 0.548828 0.835935 0.000000
vn 0.548828 0.835935 -0.000000
usemtl assumed_base
f 1//1 2//1 3//1
f 3//2 4//2 5//2
f 1//3 3//3 5//3
f 8//4 1//4 5//4
f 8//5 5//5 6//5
f 6//6 7//6 8//6
usemtl assumed_roof
f 9//7 11//7 10//7
f 11//8 13//8 12//8
f 9//9 13//9 11//9
f 16//10 13//10 9//10
f 16//11 14//11 13//11
f 14//12 16//12 15//12
usemtl assumed_wall
f 1//13 10//13 2//13
f 1//14 9//14 10//14
f 2//15 11//15 3//15
f 2//16 10//16 11//16
f 3//17 12//17 4//17
f 3//18 11//18 12//18
f 4//19 13//19 5//19
f 4//20 12//20 13//20
f 5//21 14//21 6//21
f 5//22 13//22 14//22
f 6//23 15//23 7//23
f 6//24 14//24 15//24
f 7//25 16//25 8//25
f 7//26 15//26 16//26
f 8//27 9//27 1//27
f 8//28 16//28 9//28
