# construction_2282_actual_A_Casa
# source A_Casa
# h_campo 5.000000
# modeled_height 5.000000
# height_kind actual
# local_origin_world_x 172001.034850
# local_origin_world_y 402500.144600
mtllib construction_artifacts.mtl

o construction_2282_actual_A_Casa
v -9.010000 2.958500 0.000000
v -4.695000 3.240500 0.000000
v -5.101000 10.908500 0.000000
v 3.164000 12.303500 0.000000
v 4.252000 4.626500 0.000000
v 8.183000 5.061500 0.000000
v 9.010000 -4.131500 0.000000
v 0.062000 -5.023500 0.000000
v -0.514000 -11.416500 0.000000
v -7.090000 -12.303500 0.000000
v -9.010000 2.958500 5.000000
v -4.695000 3.240500 5.000000
v -5.101000 10.908500 5.000000
v 3.164000 12.303500 5.000000
v 4.252000 4.626500 5.000000
v 8.183000 5.061500 5.000000
v 9.010000 -4.131500 5.000000
v 0.062000 -5.023500 5.000000
v -0.514000 -11.416500 5.000000
v -7.090000 -12.303500 5.000000
vn 0.000000 0.000000 -1.000000
vn 0.000000 0.000000 -1.000000
vn 0.000000 0.000000 -1.000000
vn 0.000000 0.000000 -1.000000
vn 0.000000 0.000000 -1.000000
vn 0.000000 -0.000000 -1.000000
vn 0.000000 0.000000 -1.000000
vn 0.000000 0.000000 -1.000000
vn 0.000000 -0.000000 1.000000
vn 0.000000 -0.000000 1.000000
vn 0.000000 0.000000 1.000000
vn 0.000000 0.000000 1.000000
vn 0.000000 0.000000 1.000000
vn 0.000000 0.000000 1.000000
vn 0.000000 0.000000 1.000000
vn 0.000000 0.000000 1.000000
vn -0.065214 0.997871 0.000000
vn -0.065214 0.997871 0.000000
vn -0.998601 -0.052873 0.000000
vn -0.998601 -0.052873 0.000000
vn -0.166430 0.986053 0.000000
vn -0.166430 0.986053 0.000000
vn 0.990106 0.140320 0.000000
vn 0.990106 0.140320 -0.000000
vn -0.109987 0.993933 0.000000
vn -0.109987 0.993933 0.000000
vn 0.995978 0.089598 0.000000
vn 0.995978 0.089598 -0.000000
vn 0.099195 -0.995068 0.000000
vn 0.099195 -0.995068 0.000000
vn 0.995966 -0.089735 0.000000
vn 0.995966 -0.089735 0.000000
vn 0.133674 -0.991025 0.000000
vn 0.133674 -0.991025 0.000000
vn -0.992180 -0.124819 0.000000
vn -0.992180 -0.124819 0.000000
usemtl actual_base
f 10//1 1//1 2//1
f 2//2 3//2 4//2
f 10//3 2//3 4//3
f 10//4 4//4 5//4
f 10//5 5//5 6//5
f 6//6 7//6 8//6
f 10//7 6//7 8//7
f 8//8 9//8 10//8
usemtl actual_roof
f 20//9 12//9 11//9
f 12//10 14//10 13//10
f 20//11 14//11 12//11
f 20//12 15//12 14//12
f 20//13 16//13 15//13
f 16//14 18//14 17//14
f 20//15 18//15 16//15
f 18//16 20//16 19//16
usemtl actual_wall
f 1//17 12//17 2//17
f 1//18 11//18 12//18
f 2//19 13//19 3//19
f 2//20 12//20 13//20
f 3//21 14//21 4//21
f 3//22 13//22 14//22
f 4//23 15//23 5//23
f 4//24 14//24 15//24
f 5//25 16//25 6//25
f 5//26 15//26 16//26
f 6//27 17//27 7//27
f 6//28 16//28 17//28
f 7//29 18//29 8//29
f 7//30 17//30 18//30
f 8//31 19//31 9//31
f 8//32 18//32 19//32
f 9//33 20//33 10//33
f 9//34 19//34 20//34
f 10//35 11//35 1//35
f 10//36 20//36 11//36
