# construction_5398_assumed_A_Casa
# source A_Casa
# h_campo 0.000000
# modeled_height 6.000000
# height_kind assumed
# local_origin_world_x 172001.034850
# local_origin_world_y 402500.144600
mtllib construction_artifacts.mtl

o construction_5398_assumed_A_Casa
v -0.657000 -9.995000 0.000000
v -4.817000 -2.401000 0.000000
v -6.141000 -3.185000 0.000000
v -9.382000 3.508000 0.000000
v 3.216000 9.995000 0.000000
v 6.972000 2.606000 0.000000
v 6.462000 2.319000 0.000000
v 9.382000 -5.163000 0.000000
v -0.657000 -9.995000 6.000000
v -4.817000 -2.401000 6.000000
v -6.141000 -3.185000 6.000000
v -9.382000 3.508000 6.000000
v 3.216000 9.995000 6.000000
v 6.972000 2.606000 6.000000
v 6.462000 2.319000 6.000000
v 9.382000 -5.163000 6.000000
vn -0.000000 0.000000 -1.000000
vn -0.000000 0.000000 -1.000000
vn 0.000000 0.000000 -1.000000
vn 0.000000 0.000000 -1.000000
vn 0.000000 0.000000 -1.000000
vn 0.000000 0.000000 -1.000000
vn 0.000000 0.000000 1.000000
vn 0.000000 0.000000 1.000000
vn 0.000000 0.000000 1.000000
vn 0.000000 0.000000 1.000000
vn 0.000000 0.000000 1.000000
vn 0.000000 0.000000 1.000000
vn -0.877029 -0.480437 0.000000
vn -0.877029 -0.480437 0.000000
vn 0.509517 -0.860460 0.000000
vn 0.509517 -0.860460 0.000000
vn -0.900030 -0.435828 0.000000
vn -0.900030 -0.435828 0.000000
vn -0.457796 0.889057 0.000000
vn -0.457796 0.889057 0.000000
vn 0.891440 0.453139 0.000000
vn 0.891440 0.453139 -0.000000
vn 0.490423 -0.871484 0.000000
vn 0.490423 -0.871484 0.000000
vn 0.931569 0.363564 0.000000
vn 0.931569 0.363564 -0.000000
vn 0.433700 -0.901058 0.000000
vn 0.433700 -0.901058 0.000000
usemtl assumed_base
f 8//1 1//1 2//1
f 2//2 3//2 4//2
f 8//3 2//3 4//3
f 8//4 4//4 5//4
f 5//5 6//5 7//5
f 5//6 7//6 8//6
usemtl assumed_roof
f 16//7 10//7 9//7
f 10//8 12//8 11//8
f 16//9 12//9 10//9
f 16//10 13//10 12//10
f 13//11 15//11 14//11
f 13//12 16//12 15//12
usemtl assumed_wall
f 1//13 10//13 2//13
f 1//14 9//14 10//14
f 2//15 11//15 3//15
f 2//16 10//16 11//16
f 3//17 12//17 4//17
f 3//18 11//18 12//18
f 4//19 13//19 5//19
f 4//20 12//20 13//20
f 5//21 14//21 6//21
f 5//22 13//22 14//22
f 6//23 15//23 7//23
f 6//24 14//24 15//24
f 7//25 16//25 8//25
f 7//26 15//26 16//26
f 8//27 9//27 1//27
f 8//28 16//28 9//28
