# construction_4023_assumed_A_Casa
# source A_Casa
# h_campo 0.000000
# modeled_height 6.000000
# height_kind assumed
# local_origin_world_x 172001.034850
# local_origin_world_y 402500.144600
mtllib construction_artifacts.mtl

o construction_4023_assumed_A_Casa
v -10.329500 3.850500 0.000000
v -9.036500 4.321500 0.000000
v -9.304500 5.308500 0.000000
v -3.028500 7.550500 0.000000
v -2.797500 6.860500 0.000000
v 5.311500 9.551500 0.000000
v 7.382500 2.656500 0.000000
v 8.467500 3.061500 0.000000
v 10.329500 -2.944500 0.000000
v -7.876500 -9.551500 0.000000
v -10.303500 -2.939500 0.000000
v -8.419500 -2.295500 0.000000
v -10.329500 3.850500 6.000000
v -9.036500 4.321500 6.000000
v -9.304500 5.308500 6.000000
v -3.028500 7.550500 6.000000
v -2.797500 6.860500 6.000000
v 5.311500 9.551500 6.000000
v 7.382500 2.656500 6.000000
v 8.467500 3.061500 6.000000
v 10.329500 -2.944500 6.000000
v -7.876500 -9.551500 6.000000
v -10.303500 -2.939500 6.000000
v -8.419500 -2.295500 6.000000
vn 0.000000 0.000000 -1.000000
vn 0.000000 0.000000 -1.000000
vn 0.000000 0.000000 -1.000000
vn 0.000000 0.000000 -1.000000
vn 0.000000 0.000000 -1.000000
vn 0.000000 0.000000 -1.000000
vn 0.000000 0.000000 -1.000000
vn 0.000000 0.000000 -1.000000
vn 0.000000 0.000000 -1.000000
vn 0.000000 0.000000 -1.000000
vn 0.000000 0.000000 1.000000
vn 0.000000 -0.000000 1.000000
vn 0.000000 -0.000000 1.000000
vn 0.000000 0.000000 1.000000
vn 0.000000 0.000000 1.000000
vn 0.000000 0.000000 1.000000
vn -0.000000 0.000000 1.000000
vn -0.000000 0.000000 1.000000
vn 0.000000 0.000000 1.000000
vn 0.000000 0.000000 1.000000
vn -0.342268 0.939602 0.000000
vn -0.342268 0.939602 0.000000
vn -0.965057 -0.262042 0.000000
vn -0.965057 -0.262042 0.000000
vn -0.336412 0.941715 0.000000
vn -0.336412 0.941715 0.000000
vn 0.948270 0.317464 0.000000
vn 0.948270 0.317464 -0.000000
vn -0.314963 0.949104 0.000000
vn -0.314963 0.949104 0.000000
vn 0.957731 0.287666 0.000000
vn 0.957731 0.287666 -0.000000
vn -0.349704 0.936860 0.000000
vn -0.349704 0.936860 0.000000
vn 0.955151 0.296119 0.000000
vn 0.955151 0.296119 -0.000000
vn 0.341134 -0.940015 0.000000
vn 0.341134 -0.940015 0.000000
vn -0.938757 -0.344580 0.000000
vn -0.938757 -0.344580 0.000000
vn -0.323451 0.946245 0.000000
vn -0.323451 0.946245 0.000000
vn -0.954949 -0.296771 0.000000
vn -0.954949 -0.296771 0.000000
usemtl assumed_base
f 12//1 1//1 2//1
f 2//2 3//2 4//2
f 12//3 2//3 4//3
f 12//4 4//4 5//4
f 12//5 5//5 6//5
f 12//6 6//6 7//6
f 7//7 8//7 9//7
f 12//8 7//8 9//8
f 12//9 9//9 10//9
f 10//10 11//10 12//10
usemtl assumed_roof
f 24//11 14//11 13//11
f 14//12 16//12 15//12
f 24//13 16//13 14//13
f 24//14 17//14 16//14
f 24//15 18//15 17//15
f 24//16 19//16 18//16
f 19//17 21//17 20//17
f 24//18 21//18 19//18
f 24//19 22//19 21//19
f 22//20 24//20 23//20
usemtl assumed_wall
f 1//21 14//21 2//21
f 1//22 13//22 14//22
f 2//23 15//23 3//23
f 2//24 14//24 15//24
f 3//25 16//25 4//25
f 3//26 15//26 16//26
f 4//27 17//27 5//27
f 4//28 16//28 17//28
f 5//29 18//29 6//29
f 5//30 17//30 18//30
f 6//31 19//31 7//31
f 6//32 18//32 19//32
f 7//33 20//33 8//33
f 7//34 19//34 20//34
f 8//35 21//35 9//35
f 8//36 20//36 21//36
f 9//37 22//37 10//37
f 9//38 21//38 22//38
f 10//39 23//39 11//39
f 10//40 22//40 23//40
f 11//41 24//41 12//41
f 11//42 23//42 24//42
f 12//43 13//43 1//43
f 12//44 24//44 13//44
