# construction_3928_assumed_A_Casa
# source A_Casa
# h_campo 0.000000
# modeled_height 6.000000
# height_kind assumed
# local_origin_world_x 172001.034850
# local_origin_world_y 402500.144600
mtllib construction_artifacts.mtl

o construction_3928_assumed_A_Casa
v -10.322500 -21.183000 0.000000
v -10.380500 -19.442000 0.000000
v -11.256500 -19.299000 0.000000
v -12.140500 -13.794000 0.000000
v -11.649500 -13.653000 0.000000
v -12.951500 -5.151000 0.000000
v -13.250500 -0.539000 0.000000
v -12.207500 -0.514000 0.000000
v -12.389500 10.129000 0.000000
v -7.032500 14.769000 0.000000
v -7.203500 19.776000 0.000000
v -12.506500 19.750000 0.000000
v -13.796500 31.646000 0.000000
v -7.884500 31.794000 0.000000
v -6.951500 32.025000 0.000000
v 3.119500 32.459000 0.000000
v 3.195500 31.122000 0.000000
v 10.619500 31.759000 0.000000
v 11.782500 21.435000 0.000000
v 13.662500 21.307000 0.000000
v 11.808500 6.621000 0.000000
v 11.730500 -1.209000 0.000000
v 12.085500 -7.229000 0.000000
v 12.161500 -12.511000 0.000000
v 13.279500 -17.798000 0.000000
v 13.796500 -26.628000 0.000000
v 3.299500 -30.508000 0.000000
v -7.137500 -32.459000 0.000000
v -9.388500 -21.178000 0.000000
v -10.322500 -21.183000 6.000000
v -10.380500 -19.442000 6.000000
v -11.256500 -19.299000 6.000000
v -12.140500 -13.794000 6.000000
v -11.649500 -13.653000 6.000000
v -12.951500 -5.151000 6.000000
v -13.250500 -0.539000 6.000000
v -12.207500 -0.514000 6.000000
v -12.389500 10.129000 6.000000
v -7.032500 14.769000 6.000000
v -7.203500 19.776000 6.000000
v -12.506500 19.750000 6.000000
v -13.796500 31.646000 6.000000
v -7.884500 31.794000 6.000000
v -6.951500 32.025000 6.000000
v 3.119500 32.459000 6.000000
v 3.195500 31.122000 6.000000
v 10.619500 31.759000 6.000000
v 11.782500 21.435000 6.000000
v 13.662500 21.307000 6.000000
v 11.808500 6.621000 6.000000
v 11.730500 -1.209000 6.000000
v 12.085500 -7.229000 6.000000
v 12.161500 -12.511000 6.000000
v 13.279500 -17.798000 6.000000
v 13.796500 -26.628000 6.000000
v 3.299500 -30.508000 6.000000
v -7.137500 -32.459000 6.000000
v -9.388500 -21.178000 6.000000
vn -0.000000 0.000000 -1.000000
vn 0.000000 0.000000 -1.000000
vn 0.000000 0.000000 -1.000000
vn 0.000000 0.000000 -1.000000
vn 0.000000 0.000000 -1.000000
vn 0.000000 0.000000 -1.000000
vn 0.000000 0.000000 -1.000000
vn 0.000000 0.000000 -1.000000
vn 0.000000 0.000000 -1.000000
vn -0.000000 0.000000 -1.000000
vn 0.000000 0.000000 -1.000000
vn 0.000000 0.000000 -1.000000
vn 0.000000 0.000000 -1.000000
vn 0.000000 0.000000 -1.000000
vn 0.000000 0.000000 -1.000000
vn 0.000000 0.000000 -1.000000
vn 0.000000 0.000000 -1.000000
vn 0.000000 0.000000 -1.000000
vn 0.000000 0.000000 -1.000000
vn 0.000000 0.000000 -1.000000
vn 0.000000 0.000000 -1.000000
vn 0.000000 0.000000 -1.000000
vn 0.000000 0.000000 -1.000000
vn 0.000000 0.000000 -1.000000
vn 0.000000 0.000000 -1.000000
vn 0.000000 0.000000 -1.000000
vn -0.000000 0.000000 -1.000000
vn 0.000000 0.000000 1.000000
vn 0.000000 0.000000 1.000000
vn 0.000000 0.000000 1.000000
vn 0.000000 0.000000 1.000000
vn 0.000000 0.000000 1.000000
vn 0.000000 0.000000 1.000000
vn 0.000000 0.000000 1.000000
vn 0.000000 0.000000 1.000000
vn 0.000000 -0.000000 1.000000
vn 0.000000 0.000000 1.000000
vn 0.000000 0.000000 1.000000
vn 0.000000 -0.000000 1.000000
vn 0.000000 -0.000000 1.000000
vn 0.000000 0.000000 1.000000
vn 0.000000 0.000000 1.000000
vn 0.000000 0.000000 1.000000
vn 0.000000 0.000000 1.000000
vn 0.000000 0.000000 1.000000
vn 0.000000 0.000000 1.000000
vn 0.000000 0.000000 1.000000
vn 0.000000 0.000000 1.000000
vn 0.000000 0.000000 1.000000
vn 0.000000 0.000000 1.000000
vn 0.000000 0.000000 1.000000
vn -0.000000 0.000000 1.000000
vn 0.000000 0.000000 1.000000
vn 0.000000 0.000000 1.000000
vn -0.999446 -0.033296 0.000000
vn -0.999446 -0.033296 0.000000
vn -0.161110 -0.986937 0.000000
vn -0.161110 -0.986937 0.000000
vn -0.987351 -0.158550 0.000000
vn -0.987351 -0.158550 0.000000
vn -0.276014 0.961154 0.000000
vn -0.276014 0.961154 0.000000
vn -0.988476 -0.151376 0.000000
vn -0.988476 -0.151376 0.000000
vn -0.997905 -0.064695 0.000000
vn -0.997905 -0.064695 0.000000
vn -0.023962 0.999713 0.000000
vn -0.023962 0.999713 0.000000
vn -0.999854 -0.017098 0.000000
vn -0.999854 -0.017098 0.000000
vn -0.654710 0.755880 0.000000
vn -0.654710 0.755880 0.000000
vn -0.999417 -0.034132 0.000000
vn -0.999417 -0.034132 0.000000
vn 0.004903 -0.999988 0.000000
vn 0.004903 -0.999988 0.000000
vn -0.994172 -0.107808 0.000000
vn -0.994172 -0.107808 0.000000
vn -0.025026 0.999687 0.000000
vn -0.025026 0.999687 0.000000
vn -0.240332 0.970691 0.000000
vn -0.240332 0.970691 0.000000
vn -0.043054 0.999073 0.000000
vn -0.043054 0.999073 0.000000
vn 0.998388 0.056752 0.000000
vn 0.998388 0.056752 -0.000000
vn -0.085489 0.996339 0.000000
vn -0.085489 0.996339 0.000000
vn 0.993715 0.111942 0.000000
vn 0.993715 0.111942 -0.000000
vn 0.067928 0.997690 0.000000
vn 0.067928 0.997690 -0.000000
vn 0.992125 -0.125249 0.000000
vn 0.992125 -0.125249 0.000000
vn 0.999950 -0.009961 0.000000
vn 0.999950 -0.009961 0.000000
vn 0.998266 0.058868 0.000000
vn 0.998266 0.058868 -0.000000
vn 0.999897 0.014387 0.000000
vn 0.999897 0.014387 -0.000000
vn 0.978365 0.206887 0.000000
vn 0.978365 0.206887 -0.000000
vn 0.998290 0.058450 0.000000
vn 0.998290 0.058450 -0.000000
vn 0.346703 -0.937975 0.000000
vn 0.346703 -0.937975 0.000000
vn 0.183748 -0.982973 0.000000
vn 0.183748 -0.982973 0.000000
vn -0.980668 -0.195681 0.000000
vn -0.980668 -0.195681 0.000000
vn 0.005353 -0.999986 0.000000
vn 0.005353 -0.999986 0.000000
usemtl assumed_base
f 29//1 1//1 2//1
f 2//2 3//2 4//2
f 29//3 2//3 4//3
f 29//4 4//4 5//4
f 29//5 5//5 6//5
f 29//6 6//6 7//6
f 29//7 7//7 8//7
f 29//8 8//8 9//8
f 29//9 9//9 10//9
f 11//10 12//10 13//10
f 11//11 13//11 14//11
f 11//12 14//12 15//12
f 10//13 11//13 15//13
f 10//14 15//14 16//14
f 29//15 10//15 16//15
f 29//16 16//16 17//16
f 29//17 17//17 18//17
f 29//18 18//18 19//18
f 29//19 19//19 20//19
f 29//20 20//20 21//20
f 29//21 21//21 22//21
f 29//22 22//22 23//22
f 29//23 23//23 24//23
f 29//24 24//24 25//24
f 29//25 25//25 26//25
f 29//26 26//26 27//26
f 27//27 28//27 29//27
usemtl assumed_roof
f 58//28 31//28 30//28
f 31//29 33//29 32//29
f 58//30 33//30 31//30
f 58//31 34//31 33//31
f 58//32 35//32 34//32
f 58//33 36//33 35//33
f 58//34 37//34 36//34
f 58//35 38//35 37//35
f 58//36 39//36 38//36
f 40//37 42//37 41//37
f 40//38 43//38 42//38
f 40//39 44//39 43//39
f 39//40 44//40 40//40
f 39//41 45//41 44//41
f 58//42 45//42 39//42
f 58//43 46//43 45//43
f 58//44 47//44 46//44
f 58//45 48//45 47//45
f 58//46 49//46 48//46
f 58//47 50//47 49//47
f 58//48 51//48 50//48
f 58//49 52//49 51//49
f 58//50 53//50 52//50
f 58//51 54//51 53//51
f 58//52 55//52 54//52
f 58//53 56//53 55//53
f 56//54 58//54 57//54
usemtl assumed_wall
f 1//55 31//55 2//55
f 1//56 30//56 31//56
f 2//57 32//57 3//57
f 2//58 31//58 32//58
f 3//59 33//59 4//59
f 3//60 32//60 33//60
f 4//61 34//61 5//61
f 4//62 33//62 34//62
f 5//63 35//63 6//63
f 5//64 34//64 35//64
f 6//65 36//65 7//65
f 6//66 35//66 36//66
f 7//67 37//67 8//67
f 7//68 36//68 37//68
f 8//69 38//69 9//69
f 8//70 37//70 38//70
f 9//71 39//71 10//71
f 9//72 38//72 39//72
f 10//73 40//73 11//73
f 10//74 39//74 40//74
f 11//75 41//75 12//75
f 11//76 40//76 41//76
f 12//77 42//77 13//77
f 12//78 41//78 42//78
f 13//79 43//79 14//79
f 13//80 42//80 43//80
f 14//81 44//81 15//81
f 14//82 43//82 44//82
f 15//83 45//83 16//83
f 15//84 44//84 45//84
f 16//85 46//85 17//85
f 16//86 45//86 46//86
f 17//87 47//87 18//87
f 17//88 46//88 47//88
f 18//89 48//89 19//89
f 18//90 47//90 48//90
f 19//91 49//91 20//91
f 19//92 48//92 49//92
f 20//93 50//93 21//93
f 20//94 49//94 50//94
f 21//95 51//95 22//95
f 21//96 50//96 51//96
f 22//97 52//97 23//97
f 22//98 51//98 52//98
f 23//99 53//99 24//99
f 23//100 52//100 53//100
f 24//101 54//101 25//101
f 24//102 53//102 54//102
f 25//103 55//103 26//103
f 25//104 54//104 55//104
f 26//105 56//105 27//105
f 26//106 55//106 56//106
f 27//107 57//107 28//107
f 27//108 56//108 57//108
f 28//109 58//109 29//109
f 28//110 57//110 58//110
f 29//111 30//111 1//111
f 29//112 58//112 30//112
