# construction_0527_assumed_A_Casa
# source A_Casa
# h_campo 0.000000
# modeled_height 6.000000
# height_kind assumed
# local_origin_world_x 172001.034850
# local_origin_world_y 402500.144600
mtllib construction_artifacts.mtl

o construction_0527_assumed_A_Casa
v -11.739500 -0.239000 0.000000
v 9.548500 12.073000 0.000000
v 11.739500 8.897000 0.000000
v 4.841500 4.980000 0.000000
v 5.189500 3.628000 0.000000
v 1.580500 2.105000 0.000000
v 1.132500 3.064000 0.000000
v -4.732500 -0.317000 0.000000
v -2.349500 -8.817000 0.000000
v -8.353500 -12.073000 0.000000
v -9.884500 -9.349000 0.000000
v -11.739500 -0.239000 6.000000
v 9.548500 12.073000 6.000000
v 11.739500 8.897000 6.000000
v 4.841500 4.980000 6.000000
v 5.189500 3.628000 6.000000
v 1.580500 2.105000 6.000000
v 1.132500 3.064000 6.000000
v -4.732500 -0.317000 6.000000
v -2.349500 -8.817000 6.000000
v -8.353500 -12.073000 6.000000
v -9.884500 -9.349000 6.000000
vn 0.000000 0.000000 -1.000000
vn 0.000000 0.000000 -1.000000
vn 0.000000 -0.000000 -1.000000
vn 0.000000 0.000000 -1.000000
vn 0.000000 0.000000 -1.000000
vn 0.000000 0.000000 -1.000000
vn 0.000000 0.000000 -1.000000
vn 0.000000 0.000000 -1.000000
vn 0.000000 0.000000 -1.000000
vn 0.000000 0.000000 1.000000
vn 0.000000 0.000000 1.000000
vn 0.000000 0.000000 1.000000
vn 0.000000 0.000000 1.000000
vn 0.000000 0.000000 1.000000
vn -0.000000 0.000000 1.000000
vn 0.000000 -0.000000 1.000000
vn 0.000000 0.000000 1.000000
vn 0.000000 0.000000 1.000000
vn -0.500652 0.865649 0.000000
vn -0.500652 0.865649 0.000000
vn 0.823133 0.567848 0.000000
vn 0.823133 0.567848 -0.000000
vn 0.493788 -0.869582 0.000000
vn 0.493788 -0.869582 0.000000
vn 0.968434 0.249271 0.000000
vn 0.968434 0.249271 -0.000000
vn 0.388799 -0.921323 0.000000
vn 0.388799 -0.921323 0.000000
vn -0.906014 -0.423247 0.000000
vn -0.906014 -0.423247 0.000000
vn 0.499428 -0.866355 0.000000
vn 0.499428 -0.866355 0.000000
vn 0.962876 0.269945 0.000000
vn 0.962876 0.269945 -0.000000
vn 0.476717 -0.879057 0.000000
vn 0.476717 -0.879057 0.000000
vn -0.871746 -0.489957 0.000000
vn -0.871746 -0.489957 0.000000
vn -0.979892 -0.199528 0.000000
vn -0.979892 -0.199528 0.000000
usemtl assumed_base
f 1//1 2//1 3//1
f 1//2 3//2 4//2
f 4//3 5//3 6//3
f 4//4 6//4 7//4
f 1//5 4//5 7//5
f 1//6 7//6 8//6
f 11//7 1//7 8//7
f 11//8 8//8 9//8
f 9//9 10//9 11//9
usemtl assumed_roof
f 12//10 14//10 13//10
f 12//11 15//11 14//11
f 15//12 17//12 16//12
f 15//13 18//13 17//13
f 12//14 18//14 15//14
f 12//15 19//15 18//15
f 22//16 19//16 12//16
f 22//17 20//17 19//17
f 20//18 22//18 21//18
usemtl assumed_wall
f 1//19 13//19 2//19
f 1//20 12//20 13//20
f 2//21 14//21 3//21
f 2//22 13//22 14//22
f 3//23 15//23 4//23
f 3//24 14//24 15//24
f 4//25 16//25 5//25
f 4//26 15//26 16//26
f 5//27 17//27 6//27
f 5//28 16//28 17//28
f 6//29 18//29 7//29
f 6//30 17//30 18//30
f 7//31 19//31 8//31
f 7//32 18//32 19//32
f 8//33 20//33 9//33
f 8//34 19//34 20//34
f 9//35 21//35 10//35
f 9//36 20//36 21//36
f 10//37 22//37 11//37
f 10//38 21//38 22//38
f 11//39 12//39 1//39
f 11//40 22//40 12//40
