# construction_7129_assumed_A_Estacao_em_caminho_de_ferro
# source A_Estacao_em_caminho_de_ferro
# h_campo 0.000000
# modeled_height 6.000000
# height_kind assumed
# local_origin_world_x 172001.034850
# local_origin_world_y 402500.144600
mtllib construction_artifacts.mtl

o construction_7129_assumed_A_Estacao_em_caminho_de_ferro
v -5.720000 4.348100 0.000000
v 4.852200 5.645900 0.000000
v 5.149000 3.892100 0.000000
v 5.720000 -1.730900 0.000000
v -0.018700 -2.358700 0.000000
v 0.321900 -5.083700 0.000000
v -4.704000 -5.645900 0.000000
v -5.720000 4.348100 6.000000
v 4.852200 5.645900 6.000000
v 5.149000 3.892100 6.000000
v 5.720000 -1.730900 6.000000
v -0.018700 -2.358700 6.000000
v 0.321900 -5.083700 6.000000
v -4.704000 -5.645900 6.000000
vn 0.000000 0.000000 -1.000000
vn 0.000000 0.000000 -1.000000
vn 0.000000 -0.000000 -1.000000
vn 0.000000 0.000000 -1.000000
vn 0.000000 -0.000000 -1.000000
vn 0.000000 -0.000000 1.000000
vn 0.000000 0.000000 1.000000
vn 0.000000 0.000000 1.000000
vn 0.000000 0.000000 1.000000
vn 0.000000 0.000000 1.000000
vn -0.121841 0.992550 0.000000
vn -0.121841 0.992550 0.000000
vn 0.985981 0.166860 0.000000
vn 0.985981 0.166860 -0.000000
vn 0.994884 0.101028 0.000000
vn 0.994884 0.101028 -0.000000
vn 0.108749 -0.994069 0.000000
vn 0.108749 -0.994069 0.000000
vn 0.992279 0.124026 0.000000
vn 0.992279 0.124026 -0.000000
vn 0.111167 -0.993802 0.000000
vn 0.111167 -0.993802 0.000000
vn -0.994872 -0.101140 0.000000
vn -0.994872 -0.101140 0.000000
usemtl assumed_base
f 7//1 1//1 2//1
f 7//2 2//2 3//2
f 3//3 4//3 5//3
f 7//4 3//4 5//4
f 5//5 6//5 7//5
usemtl assumed_roof
f 14//6 9//6 8//6
f 14//7 10//7 9//7
f 10//8 12//8 11//8
f 14//9 12//9 10//9
f 12//10 14//10 13//10
usemtl assumed_wall
f 1//11 9//11 2//11
f 1//12 8//12 9//12
f 2//13 10//13 3//13
f 2//14 9//14 10//14
f 3//15 11//15 4//15
f 3//16 10//16 11//16
f 4//17 12//17 5//17
f 4//18 11//18 12//18
f 5//19 13//19 6//19
f 5//20 12//20 13//20
f 6//21 14//21 7//21
f 6//22 13//22 14//22
f 7//23 8//23 1//23
f 7//24 14//24 8//24
