# construction_6292_assumed_A_Casa
# source A_Casa
# h_campo 0.000000
# modeled_height 6.000000
# height_kind assumed
# local_origin_world_x 172001.034850
# local_origin_world_y 402500.144600
mtllib construction_artifacts.mtl

o construction_6292_assumed_A_Casa
v -8.094500 7.691500 0.000000
v -8.837500 13.043500 0.000000
v 5.970500 15.766500 0.000000
v 8.097500 6.133500 0.000000
v 4.909500 5.998500 0.000000
v 6.711500 -4.115500 0.000000
v 8.264500 -5.682500 0.000000
v 9.957500 -4.877500 0.000000
v 11.508500 -9.226500 0.000000
v -3.331500 -15.766500 0.000000
v -4.972500 -12.597500 0.000000
v -8.051500 -12.840500 0.000000
v -11.508500 7.083500 0.000000
v -8.094500 7.691500 6.000000
v -8.837500 13.043500 6.000000
v 5.970500 15.766500 6.000000
v 8.097500 6.133500 6.000000
v 4.909500 5.998500 6.000000
v 6.711500 -4.115500 6.000000
v 8.264500 -5.682500 6.000000
v 9.957500 -4.877500 6.000000
v 11.508500 -9.226500 6.000000
v -3.331500 -15.766500 6.000000
v -4.972500 -12.597500 6.000000
v -8.051500 -12.840500 6.000000
v -11.508500 7.083500 6.000000
vn 0.000000 0.000000 -1.000000
vn 0.000000 0.000000 -1.000000
vn 0.000000 0.000000 -1.000000
vn 0.000000 0.000000 -1.000000
vn 0.000000 0.000000 -1.000000
vn 0.000000 0.000000 -1.000000
vn 0.000000 0.000000 -1.000000
vn 0.000000 0.000000 -1.000000
vn 0.000000 0.000000 -1.000000
vn 0.000000 0.000000 -1.000000
vn -0.000000 0.000000 -1.000000
vn 0.000000 -0.000000 1.000000
vn -0.000000 0.000000 1.000000
vn -0.000000 0.000000 1.000000
vn 0.000000 0.000000 1.000000
vn 0.000000 0.000000 1.000000
vn 0.000000 0.000000 1.000000
vn -0.000000 0.000000 1.000000
vn 0.000000 0.000000 1.000000
vn 0.000000 0.000000 1.000000
vn 0.000000 0.000000 1.000000
vn 0.000000 0.000000 1.000000
vn -0.990501 -0.137508 0.000000
vn -0.990501 -0.137508 0.000000
vn -0.180855 0.983510 0.000000
vn -0.180855 0.983510 0.000000
vn 0.976480 0.215610 0.000000
vn 0.976480 0.215610 -0.000000
vn 0.042308 -0.999105 0.000000
vn 0.042308 -0.999105 0.000000
vn 0.984496 0.175407 0.000000
vn 0.984496 0.175407 -0.000000
vn 0.710273 0.703927 0.000000
vn 0.710273 0.703927 -0.000000
vn -0.429416 0.903107 0.000000
vn -0.429416 0.903107 0.000000
vn 0.941894 0.335911 0.000000
vn 0.941894 0.335911 -0.000000
vn 0.403276 -0.915078 0.000000
vn 0.403276 -0.915078 0.000000
vn -0.888005 -0.459835 0.000000
vn -0.888005 -0.459835 0.000000
vn 0.078677 -0.996900 0.000000
vn 0.078677 -0.996900 0.000000
vn -0.985279 -0.170955 0.000000
vn -0.985279 -0.170955 0.000000
vn -0.175332 0.984509 0.000000
vn -0.175332 0.984509 0.000000
usemtl assumed_base
f 1//1 2//1 3//1
f 1//2 3//2 4//2
f 13//3 1//3 4//3
f 13//4 4//4 5//4
f 13//5 5//5 6//5
f 13//6 6//6 7//6
f 7//7 8//7 9//7
f 13//8 7//8 9//8
f 13//9 9//9 10//9
f 13//10 10//10 11//10
f 11//11 12//11 13//11
usemtl assumed_roof
f 14//12 16//12 15//12
f 14//13 17//13 16//13
f 26//14 17//14 14//14
f 26//15 18//15 17//15
f 26//16 19//16 18//16
f 26//17 20//17 19//17
f 20//18 22//18 21//18
f 26//19 22//19 20//19
f 26//20 23//20 22//20
f 26//21 24//21 23//21
f 24//22 26//22 25//22
usemtl assumed_wall
f 1//23 15//23 2//23
f 1//24 14//24 15//24
f 2//25 16//25 3//25
f 2//26 15//26 16//26
f 3//27 17//27 4//27
f 3//28 16//28 17//28
f 4//29 18//29 5//29
f 4//30 17//30 18//30
f 5//31 19//31 6//31
f 5//32 18//32 19//32
f 6//33 20//33 7//33
f 6//34 19//34 20//34
f 7//35 21//35 8//35
f 7//36 20//36 21//36
f 8//37 22//37 9//37
f 8//38 21//38 22//38
f 9//39 23//39 10//39
f 9//40 22//40 23//40
f 10//41 24//41 11//41
f 10//42 23//42 24//42
f 11//43 25//43 12//43
f 11//44 24//44 25//44
f 12//45 26//45 13//45
f 12//46 25//46 26//46
f 13//47 14//47 1//47
f 13//48 26//48 14//48
