# construction_2517_assumed_A_Casa
# source A_Casa
# h_campo 0.000000
# modeled_height 6.000000
# height_kind assumed
# local_origin_world_x 172001.034850
# local_origin_world_y 402500.144600
mtllib construction_artifacts.mtl

o construction_2517_assumed_A_Casa
v -12.449500 5.129500 0.000000
v -2.385500 12.518500 0.000000
v -0.572500 10.625500 0.000000
v -3.828500 8.567500 0.000000
v -2.562500 7.360500 0.000000
v -1.406500 8.318500 0.000000
v -0.344500 6.867500 0.000000
v 6.472500 11.812500 0.000000
v 12.449500 3.560500 0.000000
v 6.174500 -1.284500 0.000000
v 7.093500 -2.996500 0.000000
v 8.809500 -1.783500 0.000000
v 10.066500 -3.669500 0.000000
v -1.731500 -12.518500 0.000000
v -12.449500 5.129500 6.000000
v -2.385500 12.518500 6.000000
v -0.572500 10.625500 6.000000
v -3.828500 8.567500 6.000000
v -2.562500 7.360500 6.000000
v -1.406500 8.318500 6.000000
v -0.344500 6.867500 6.000000
v 6.472500 11.812500 6.000000
v 12.449500 3.560500 6.000000
v 6.174500 -1.284500 6.000000
v 7.093500 -2.996500 6.000000
v 8.809500 -1.783500 6.000000
v 10.066500 -3.669500 6.000000
v -1.731500 -12.518500 6.000000
vn 0.000000 0.000000 -1.000000
vn 0.000000 0.000000 -1.000000
vn 0.000000 0.000000 -1.000000
vn 0.000000 0.000000 -1.000000
vn 0.000000 0.000000 -1.000000
vn 0.000000 0.000000 -1.000000
vn 0.000000 0.000000 -1.000000
vn 0.000000 -0.000000 -1.000000
vn 0.000000 0.000000 -1.000000
vn 0.000000 0.000000 -1.000000
vn 0.000000 0.000000 -1.000000
vn 0.000000 -0.000000 -1.000000
vn 0.000000 0.000000 1.000000
vn 0.000000 0.000000 1.000000
vn 0.000000 0.000000 1.000000
vn 0.000000 0.000000 1.000000
vn 0.000000 -0.000000 1.000000
vn 0.000000 0.000000 1.000000
vn 0.000000 0.000000 1.000000
vn 0.000000 0.000000 1.000000
vn 0.000000 0.000000 1.000000
vn 0.000000 0.000000 1.000000
vn 0.000000 0.000000 1.000000
vn 0.000000 0.000000 1.000000
vn -0.591818 0.806071 0.000000
vn -0.591818 0.806071 0.000000
vn 0.722203 0.691682 0.000000
vn 0.722203 0.691682 -0.000000
vn 0.534286 -0.845304 0.000000
vn 0.534286 -0.845304 0.000000
vn 0.690041 0.723771 0.000000
vn 0.690041 0.723771 -0.000000
vn -0.638086 0.769965 0.000000
vn -0.638086 0.769965 0.000000
vn 0.806953 0.590616 0.000000
vn 0.806953 0.590616 -0.000000
vn -0.587176 0.809459 0.000000
vn -0.587176 0.809459 0.000000
vn 0.809876 0.586601 0.000000
vn 0.809876 0.586601 -0.000000
vn 0.611142 -0.791521 0.000000
vn 0.611142 -0.791521 0.000000
vn 0.881082 0.472964 0.000000
vn 0.881082 0.472964 -0.000000
vn -0.577225 0.816585 0.000000
vn -0.577225 0.816585 0.000000
vn 0.832118 0.554598 0.000000
vn 0.832118 0.554598 -0.000000
vn 0.600022 -0.799984 0.000000
vn 0.600022 -0.799984 0.000000
vn -0.854720 -0.519089 0.000000
vn -0.854720 -0.519089 0.000000
usemtl assumed_base
f 1//1 2//1 3//1
f 1//2 3//2 4//2
f 14//3 1//3 4//3
f 14//4 4//4 5//4
f 14//5 5//5 6//5
f 14//6 6//6 7//6
f 14//7 7//7 8//7
f 8//8 9//8 10//8
f 14//9 8//9 10//9
f 14//10 10//10 11//10
f 14//11 11//11 12//11
f 12//12 13//12 14//12
usemtl assumed_roof
f 15//13 17//13 16//13
f 15//14 18//14 17//14
f 28//15 18//15 15//15
f 28//16 19//16 18//16
f 28//17 20//17 19//17
f 28//18 21//18 20//18
f 28//19 22//19 21//19
f 22//20 24//20 23//20
f 28//21 24//21 22//21
f 28//22 25//22 24//22
f 28//23 26//23 25//23
f 26//24 28//24 27//24
usemtl assumed_wall
f 1//25 16//25 2//25
f 1//26 15//26 16//26
f 2//27 17//27 3//27
f 2//28 16//28 17//28
f 3//29 18//29 4//29
f 3//30 17//30 18//30
f 4//31 19//31 5//31
f 4//32 18//32 19//32
f 5//33 20//33 6//33
f 5//34 19//34 20//34
f 6//35 21//35 7//35
f 6//36 20//36 21//36
f 7//37 22//37 8//37
f 7//38 21//38 22//38
f 8//39 23//39 9//39
f 8//40 22//40 23//40
f 9//41 24//41 10//41
f 9//42 23//42 24//42
f 10//43 25//43 11//43
f 10//44 24//44 25//44
f 11//45 26//45 12//45
f 11//46 25//46 26//46
f 12//47 27//47 13//47
f 12//48 26//48 27//48
f 13//49 28//49 14//49
f 13//50 27//50 28//50
f 14//51 15//51 1//51
f 14//52 28//52 15//52
