# construction_3279_assumed_A_Casa
# source A_Casa
# h_campo 0.000000
# modeled_height 6.000000
# height_kind assumed
# local_origin_world_x 172001.034850
# local_origin_world_y 402500.144600
mtllib construction_artifacts.mtl

o construction_3279_assumed_A_Casa
v 6.853000 8.336000 0.000000
v 7.126000 6.868000 0.000000
v 12.919000 3.202000 0.000000
v 4.844000 -13.557000 0.000000
v -2.276000 -9.484000 0.000000
v -5.020000 -12.363000 0.000000
v -12.919000 -5.848000 0.000000
v -11.655000 -2.115000 0.000000
v -6.963000 10.099000 0.000000
v -7.656000 10.719000 0.000000
v -6.472000 13.557000 0.000000
v 6.853000 8.336000 6.000000
v 7.126000 6.868000 6.000000
v 12.919000 3.202000 6.000000
v 4.844000 -13.557000 6.000000
v -2.276000 -9.484000 6.000000
v -5.020000 -12.363000 6.000000
v -12.919000 -5.848000 6.000000
v -11.655000 -2.115000 6.000000
v -6.963000 10.099000 6.000000
v -7.656000 10.719000 6.000000
v -6.472000 13.557000 6.000000
v -1.714000 -7.043000 0.000000
v -0.011000 -3.006000 0.000000
v -1.895000 -1.702000 0.000000
v -0.302000 1.549000 0.000000
v -4.428000 3.371000 0.000000
v -6.797000 -2.829000 0.000000
v -1.714000 -7.043000 6.000000
v -0.011000 -3.006000 6.000000
v -1.895000 -1.702000 6.000000
v -0.302000 1.549000 6.000000
v -4.428000 3.371000 6.000000
v -6.797000 -2.829000 6.000000
vn 0.000000 0.000000 -1.000000
vn 0.000000 0.000000 -1.000000
vn 0.000000 0.000000 -1.000000
vn 0.000000 0.000000 -1.000000
vn 0.000000 0.000000 -1.000000
vn 0.000000 0.000000 -1.000000
vn 0.000000 0.000000 -1.000000
vn 0.000000 -0.000000 -1.000000
vn 0.000000 0.000000 -1.000000
vn 0.000000 0.000000 -1.000000
vn 0.000000 0.000000 -1.000000
vn 0.000000 0.000000 -1.000000
vn -0.000000 0.000000 -1.000000
vn 0.000000 0.000000 1.000000
vn 0.000000 0.000000 1.000000
vn 0.000000 0.000000 1.000000
vn 0.000000 0.000000 1.000000
vn 0.000000 0.000000 1.000000
vn 0.000000 0.000000 1.000000
vn 0.000000 0.000000 1.000000
vn 0.000000 0.000000 1.000000
vn 0.000000 -0.000000 1.000000
vn 0.000000 0.000000 1.000000
vn -0.000000 0.000000 1.000000
vn 0.000000 0.000000 1.000000
vn 0.000000 0.000000 1.000000
vn 0.983144 0.182833 0.000000
vn 0.983144 0.182833 -0.000000
vn 0.534750 0.845010 0.000000
vn 0.534750 0.845010 -0.000000
vn 0.900879 -0.434071 0.000000
vn 0.900879 -0.434071 0.000000
vn -0.496546 -0.868010 0.000000
vn -0.496546 -0.868010 0.000000
vn 0.723875 -0.689931 0.000000
vn 0.723875 -0.689931 0.000000
vn -0.636286 -0.771454 0.000000
vn -0.636286 -0.771454 0.000000
vn -0.947176 0.320715 0.000000
vn -0.947176 0.320715 0.000000
vn -0.933491 0.358600 0.000000
vn -0.933491 0.358600 0.000000
vn -0.666763 -0.745269 0.000000
vn -0.666763 -0.745269 0.000000
vn -0.922904 0.385031 0.000000
vn -0.922904 0.385031 0.000000
vn 0.364816 0.931080 0.000000
vn 0.364816 0.931080 -0.000000
vn 0.921373 -0.388679 0.000000
vn 0.921373 -0.388679 0.000000
vn 0.569119 0.822255 0.000000
vn 0.569119 0.822255 -0.000000
vn 0.897989 -0.440017 0.000000
vn 0.897989 -0.440017 0.000000
vn 0.403957 0.914778 0.000000
vn 0.403957 0.914778 -0.000000
vn -0.934132 0.356929 0.000000
vn -0.934132 0.356929 0.000000
vn -0.638231 -0.769845 0.000000
vn -0.638231 -0.769845 0.000000
usemtl assumed_base
f 11//1 1//1 2//1
f 11//2 2//2 3//2
f 11//3 3//3 4//3
f 11//4 4//4 5//4
f 11//5 5//5 6//5
f 6//6 7//6 8//6
f 6//7 8//7 9//7
f 11//8 6//8 9//8
f 9//9 10//9 11//9
f 28//10 24//10 23//10
f 28//11 25//11 24//11
f 28//12 26//12 25//12
f 26//13 28//13 27//13
usemtl assumed_roof
f 22//14 13//14 12//14
f 22//15 14//15 13//15
f 22//16 15//16 14//16
f 22//17 16//17 15//17
f 22//18 17//18 16//18
f 17//19 19//19 18//19
f 17//20 20//20 19//20
f 22//21 20//21 17//21
f 20//22 22//22 21//22
f 34//23 29//23 30//23
f 34//24 30//24 31//24
f 34//25 31//25 32//25
f 32//26 33//26 34//26
usemtl assumed_wall
f 1//27 13//27 2//27
f 1//28 12//28 13//28
f 2//29 14//29 3//29
f 2//30 13//30 14//30
f 3//31 15//31 4//31
f 3//32 14//32 15//32
f 4//33 16//33 5//33
f 4//34 15//34 16//34
f 5//35 17//35 6//35
f 5//36 16//36 17//36
f 6//37 18//37 7//37
f 6//38 17//38 18//38
f 7//39 19//39 8//39
f 7//40 18//40 19//40
f 8//41 20//41 9//41
f 8//42 19//42 20//42
f 9//43 21//43 10//43
f 9//44 20//44 21//44
f 10//45 22//45 11//45
f 10//46 21//46 22//46
f 11//47 12//47 1//47
f 11//48 22//48 12//48
f 23//49 24//49 30//49
f 23//50 30//50 29//50
f 24//51 25//51 31//51
f 24//52 31//52 30//52
f 25//53 26//53 32//53
f 25//54 32//54 31//54
f 26//55 27//55 33//55
f 26//56 33//56 32//56
f 27//57 28//57 34//57
f 27//58 34//58 33//58
f 28//59 23//59 29//59
f 28//60 29//60 34//60
