# construction_5722_assumed_A_Casa
# source A_Casa
# h_campo 0.000000
# modeled_height 6.000000
# height_kind assumed
# local_origin_world_x 172001.034850
# local_origin_world_y 402500.144600
mtllib construction_artifacts.mtl

o construction_5722_assumed_A_Casa
v -21.306000 4.168500 0.000000
v -16.091000 10.771500 0.000000
v -13.061000 14.378500 0.000000
v -9.137000 11.362500 0.000000
v -8.408000 12.251500 0.000000
v -2.633000 8.093500 0.000000
v 1.729000 13.441500 0.000000
v 13.860000 5.660500 0.000000
v 8.608000 -1.107500 0.000000
v 21.306000 -11.073500 0.000000
v 18.034000 -14.378500 0.000000
v 4.980000 -4.249500 0.000000
v 2.657000 -7.587500 0.000000
v 1.604000 -6.859500 0.000000
v 0.701000 -8.368500 0.000000
v -4.338000 -4.789500 0.000000
v -1.187000 -0.258500 0.000000
v -3.087000 0.325500 0.000000
v -5.287000 2.806500 0.000000
v -11.233000 -4.331500 0.000000
v -21.306000 4.168500 6.000000
v -16.091000 10.771500 6.000000
v -13.061000 14.378500 6.000000
v -9.137000 11.362500 6.000000
v -8.408000 12.251500 6.000000
v -2.633000 8.093500 6.000000
v 1.729000 13.441500 6.000000
v 13.860000 5.660500 6.000000
v 8.608000 -1.107500 6.000000
v 21.306000 -11.073500 6.000000
v 18.034000 -14.378500 6.000000
v 4.980000 -4.249500 6.000000
v 2.657000 -7.587500 6.000000
v 1.604000 -6.859500 6.000000
v 0.701000 -8.368500 6.000000
v -4.338000 -4.789500 6.000000
v -1.187000 -0.258500 6.000000
v -3.087000 0.325500 6.000000
v -5.287000 2.806500 6.000000
v -11.233000 -4.331500 6.000000
vn 0.000000 0.000000 -1.000000
vn 0.000000 0.000000 -1.000000
vn 0.000000 0.000000 -1.000000
vn 0.000000 0.000000 -1.000000
vn 0.000000 0.000000 -1.000000
vn 0.000000 0.000000 -1.000000
vn 0.000000 0.000000 -1.000000
vn 0.000000 0.000000 -1.000000
vn 0.000000 -0.000000 -1.000000
vn 0.000000 0.000000 -1.000000
vn 0.000000 0.000000 -1.000000
vn 0.000000 -0.000000 -1.000000
vn 0.000000 0.000000 -1.000000
vn 0.000000 0.000000 -1.000000
vn 0.000000 0.000000 -1.000000
vn 0.000000 0.000000 -1.000000
vn 0.000000 0.000000 -1.000000
vn 0.000000 0.000000 -1.000000
vn 0.000000 0.000000 1.000000
vn 0.000000 0.000000 1.000000
vn 0.000000 -0.000000 1.000000
vn 0.000000 0.000000 1.000000
vn 0.000000 0.000000 1.000000
vn 0.000000 0.000000 1.000000
vn 0.000000 0.000000 1.000000
vn 0.000000 0.000000 1.000000
vn 0.000000 0.000000 1.000000
vn 0.000000 0.000000 1.000000
vn 0.000000 0.000000 1.000000
vn 0.000000 0.000000 1.000000
vn 0.000000 0.000000 1.000000
vn 0.000000 0.000000 1.000000
vn 0.000000 0.000000 1.000000
vn 0.000000 0.000000 1.000000
vn 0.000000 0.000000 1.000000
vn 0.000000 0.000000 1.000000
vn -0.784761 0.619798 0.000000
vn -0.784761 0.619798 0.000000
vn -0.765692 0.643207 0.000000
vn -0.765692 0.643207 0.000000
vn 0.609398 0.792864 0.000000
vn 0.609398 0.792864 -0.000000
vn -0.773259 0.634090 0.000000
vn -0.773259 0.634090 0.000000
vn 0.584305 0.811534 0.000000
vn 0.584305 0.811534 -0.000000
vn -0.774925 0.632053 0.000000
vn -0.774925 0.632053 0.000000
vn 0.539898 0.841730 0.000000
vn 0.539898 0.841730 -0.000000
vn 0.790031 -0.613067 0.000000
vn 0.790031 -0.613067 0.000000
vn 0.617400 0.786649 0.000000
vn 0.617400 0.786649 -0.000000
vn 0.710646 -0.703550 0.000000
vn 0.710646 -0.703550 0.000000
vn -0.613031 -0.790059 0.000000
vn -0.613031 -0.790059 0.000000
vn 0.820800 -0.571216 0.000000
vn 0.820800 -0.571216 0.000000
vn -0.568682 -0.822558 0.000000
vn -0.568682 -0.822558 0.000000
vn 0.858094 -0.513492 0.000000
vn 0.858094 -0.513492 0.000000
vn -0.579063 -0.815283 0.000000
vn -0.579063 -0.815283 0.000000
vn -0.820990 0.570942 0.000000
vn -0.820990 0.570942 0.000000
vn -0.293803 -0.955866 0.000000
vn -0.293803 -0.955866 0.000000
vn -0.748207 -0.663465 0.000000
vn -0.748207 -0.663465 0.000000
vn 0.768345 -0.640036 0.000000
vn 0.768345 -0.640036 0.000000
vn -0.644911 -0.764258 0.000000
vn -0.644911 -0.764258 0.000000
usemtl assumed_base
f 20//1 1//1 2//1
f 20//2 2//2 3//2
f 20//3 3//3 4//3
f 20//4 4//4 5//4
f 20//5 5//5 6//5
f 20//6 6//6 7//6
f 7//7 8//7 9//7
f 9//8 10//8 11//8
f 9//9 11//9 12//9
f 7//10 9//10 12//10
f 7//11 12//11 13//11
f 7//12 13//12 14//12
f 7//13 14//13 15//13
f 15//14 16//14 17//14
f 7//15 15//15 17//15
f 7//16 17//16 18//16
f 7//17 18//17 19//17
f 7//18 19//18 20//18
usemtl assumed_roof
f 40//19 22//19 21//19
f 40//20 23//20 22//20
f 40//21 24//21 23//21
f 40//22 25//22 24//22
f 40//23 26//23 25//23
f 40//24 27//24 26//24
f 27//25 29//25 28//25
f 29//26 31//26 30//26
f 29//27 32//27 31//27
f 27//28 32//28 29//28
f 27//29 33//29 32//29
f 27//30 34//30 33//30
f 27//31 35//31 34//31
f 35//32 37//32 36//32
f 27//33 37//33 35//33
f 27//34 38//34 37//34
f 27//35 39//35 38//35
f 27//36 40//36 39//36
usemtl assumed_wall
f 1//37 22//37 2//37
f 1//38 21//38 22//38
f 2//39 23//39 3//39
f 2//40 22//40 23//40
f 3//41 24//41 4//41
f 3//42 23//42 24//42
f 4//43 25//43 5//43
f 4//44 24//44 25//44
f 5//45 26//45 6//45
f 5//46 25//46 26//46
f 6//47 27//47 7//47
f 6//48 26//48 27//48
f 7//49 28//49 8//49
f 7//50 27//50 28//50
f 8//51 29//51 9//51
f 8//52 28//52 29//52
f 9//53 30//53 10//53
f 9//54 29//54 30//54
f 10//55 31//55 11//55
f 10//56 30//56 31//56
f 11//57 32//57 12//57
f 11//58 31//58 32//58
f 12//59 33//59 13//59
f 12//60 32//60 33//60
f 13//61 34//61 14//61
f 13//62 33//62 34//62
f 14//63 35//63 15//63
f 14//64 34//64 35//64
f 15//65 36//65 16//65
f 15//66 35//66 36//66
f 16//67 37//67 17//67
f 16//68 36//68 37//68
f 17//69 38//69 18//69
f 17//70 37//70 38//70
f 18//71 39//71 19//71
f 18//72 38//72 39//72
f 19//73 40//73 20//73
f 19//74 39//74 40//74
f 20//75 21//75 1//75
f 20//76 40//76 21//76
