# construction_1748_assumed_A_Casa
# source A_Casa
# h_campo 0.000000
# modeled_height 6.000000
# height_kind assumed
# local_origin_world_x 172001.034850
# local_origin_world_y 402500.144600
mtllib construction_artifacts.mtl

o construction_1748_assumed_A_Casa
v -8.052500 -14.833000 0.000000
v -10.846500 -6.530000 0.000000
v -14.225500 -7.254000 0.000000
v -15.264500 -3.248000 0.000000
v -5.654500 1.694000 0.000000
v -7.968500 6.571000 0.000000
v -3.645500 9.362000 0.000000
v 0.472500 4.370000 0.000000
v 1.659500 5.220000 0.000000
v -0.426500 7.953000 0.000000
v -6.391500 16.240000 0.000000
v -2.722500 19.483000 0.000000
v -0.638500 17.518000 0.000000
v -2.284500 16.207000 0.000000
v 1.646500 11.041000 0.000000
v 6.259500 14.133000 0.000000
v 8.648500 16.509000 0.000000
v 15.264500 7.466000 0.000000
v 12.923500 5.798000 0.000000
v 14.283500 3.856000 0.000000
v 10.041500 0.778000 0.000000
v 12.962500 -3.116000 0.000000
v 7.854500 -7.014000 0.000000
v 6.103500 -4.530000 0.000000
v 5.519500 -4.753000 0.000000
v 6.893500 -9.157000 0.000000
v 4.009500 -10.164000 0.000000
v 5.769500 -15.828000 0.000000
v -5.593500 -19.483000 0.000000
v -7.089500 -14.588000 0.000000
v -8.052500 -14.833000 6.000000
v -10.846500 -6.530000 6.000000
v -14.225500 -7.254000 6.000000
v -15.264500 -3.248000 6.000000
v -5.654500 1.694000 6.000000
v -7.968500 6.571000 6.000000
v -3.645500 9.362000 6.000000
v 0.472500 4.370000 6.000000
v 1.659500 5.220000 6.000000
v -0.426500 7.953000 6.000000
v -6.391500 16.240000 6.000000
v -2.722500 19.483000 6.000000
v -0.638500 17.518000 6.000000
v -2.284500 16.207000 6.000000
v 1.646500 11.041000 6.000000
v 6.259500 14.133000 6.000000
v 8.648500 16.509000 6.000000
v 15.264500 7.466000 6.000000
v 12.923500 5.798000 6.000000
v 14.283500 3.856000 6.000000
v 10.041500 0.778000 6.000000
v 12.962500 -3.116000 6.000000
v 7.854500 -7.014000 6.000000
v 6.103500 -4.530000 6.000000
v 5.519500 -4.753000 6.000000
v 6.893500 -9.157000 6.000000
v 4.009500 -10.164000 6.000000
v 5.769500 -15.828000 6.000000
v -5.593500 -19.483000 6.000000
v -7.089500 -14.588000 6.000000
vn -0.000000 0.000000 -1.000000
vn -0.000000 0.000000 -1.000000
vn 0.000000 0.000000 -1.000000
vn 0.000000 0.000000 -1.000000
vn 0.000000 0.000000 -1.000000
vn 0.000000 0.000000 -1.000000
vn 0.000000 0.000000 -1.000000
vn 0.000000 0.000000 -1.000000
vn 0.000000 0.000000 -1.000000
vn 0.000000 0.000000 -1.000000
vn 0.000000 0.000000 -1.000000
vn 0.000000 0.000000 -1.000000
vn 0.000000 0.000000 -1.000000
vn 0.000000 0.000000 -1.000000
vn 0.000000 0.000000 -1.000000
vn 0.000000 0.000000 -1.000000
vn 0.000000 0.000000 -1.000000
vn 0.000000 0.000000 -1.000000
vn 0.000000 -0.000000 -1.000000
vn 0.000000 0.000000 -1.000000
vn 0.000000 -0.000000 -1.000000
vn 0.000000 0.000000 -1.000000
vn 0.000000 0.000000 -1.000000
vn 0.000000 0.000000 -1.000000
vn 0.000000 -0.000000 -1.000000
vn 0.000000 0.000000 -1.000000
vn 0.000000 0.000000 -1.000000
vn -0.000000 0.000000 -1.000000
vn 0.000000 0.000000 1.000000
vn 0.000000 0.000000 1.000000
vn 0.000000 -0.000000 1.000000
vn 0.000000 -0.000000 1.000000
vn 0.000000 -0.000000 1.000000
vn 0.000000 0.000000 1.000000
vn 0.000000 0.000000 1.000000
vn 0.000000 0.000000 1.000000
vn 0.000000 0.000000 1.000000
vn 0.000000 0.000000 1.000000
vn -0.000000 0.000000 1.000000
vn 0.000000 0.000000 1.000000
vn 0.000000 0.000000 1.000000
vn 0.000000 -0.000000 1.000000
vn 0.000000 0.000000 1.000000
vn 0.000000 0.000000 1.000000
vn 0.000000 0.000000 1.000000
vn 0.000000 0.000000 1.000000
vn 0.000000 0.000000 1.000000
vn 0.000000 0.000000 1.000000
vn 0.000000 0.000000 1.000000
vn 0.000000 0.000000 1.000000
vn 0.000000 0.000000 1.000000
vn 0.000000 0.000000 1.000000
vn 0.000000 0.000000 1.000000
vn 0.000000 0.000000 1.000000
vn -0.000000 0.000000 1.000000
vn 0.000000 0.000000 1.000000
vn -0.947778 -0.318932 0.000000
vn -0.947778 -0.318932 0.000000
vn 0.209509 -0.977807 0.000000
vn 0.209509 -0.977807 0.000000
vn -0.967973 -0.251054 0.000000
vn -0.967973 -0.251054 0.000000
vn -0.457327 0.889299 0.000000
vn -0.457327 0.889299 0.000000
vn -0.903462 -0.428668 0.000000
vn -0.903462 -0.428668 0.000000
vn -0.542397 0.840122 0.000000
vn -0.542397 0.840122 0.000000
vn 0.771404 0.636346 0.000000
vn 0.771404 0.636346 -0.000000
vn -0.582210 0.813039 0.000000
vn -0.582210 0.813039 0.000000
vn -0.794911 -0.606727 0.000000
vn -0.794911 -0.606727 0.000000
vn -0.811610 -0.584199 0.000000
vn -0.811610 -0.584199 0.000000
vn -0.662270 0.749265 0.000000
vn -0.662270 0.749265 0.000000
vn 0.686029 0.727574 0.000000
vn 0.686029 0.727574 -0.000000
vn 0.623013 -0.782212 0.000000
vn 0.623013 -0.782212 0.000000
vn 0.795803 0.605556 0.000000
vn 0.795803 0.605556 -0.000000
vn -0.556776 0.830663 0.000000
vn -0.556776 0.830663 0.000000
vn -0.705175 0.709033 0.000000
vn -0.705175 0.709033 0.000000
vn 0.807066 0.590462 0.000000
vn 0.807066 0.590462 -0.000000
vn 0.580283 -0.814415 0.000000
vn 0.580283 -0.814415 0.000000
vn 0.819113 0.573632 0.000000
vn 0.819113 0.573632 -0.000000
vn 0.587286 -0.809379 0.000000
vn 0.587286 -0.809379 0.000000
vn 0.799951 0.600066 0.000000
vn 0.799951 0.600066 -0.000000
vn 0.606653 -0.794967 0.000000
vn 0.606653 -0.794967 0.000000
vn -0.817342 -0.576153 0.000000
vn -0.817342 -0.576153 0.000000
vn 0.356727 -0.934209 0.000000
vn 0.356727 -0.934209 0.000000
vn 0.954619 0.297831 0.000000
vn 0.954619 0.297831 -0.000000
vn 0.329650 -0.944103 0.000000
vn 0.329650 -0.944103 0.000000
vn 0.954959 0.296739 0.000000
vn 0.954959 0.296739 -0.000000
vn 0.306207 -0.951965 0.000000
vn 0.306207 -0.951965 0.000000
vn -0.956335 -0.292273 0.000000
vn -0.956335 -0.292273 0.000000
vn 0.246559 -0.969128 0.000000
vn 0.246559 -0.969128 0.000000
usemtl assumed_base
f 30//1 1//1 2//1
f 2//2 3//2 4//2
f 2//3 4//3 5//3
f 30//4 2//4 5//4
f 5//5 6//5 7//5
f 30//6 5//6 7//6
f 30//7 7//7 8//7
f 30//8 8//8 9//8
f 9//9 10//9 11//9
f 11//10 12//10 13//10
f 11//11 13//11 14//11
f 9//12 11//12 14//12
f 9//13 14//13 15//13
f 9//14 15//14 16//14
f 30//15 9//15 16//15
f 30//16 16//16 17//16
f 17//17 18//17 19//17
f 30//18 17//18 19//18
f 19//19 20//19 21//19
f 30//20 19//20 21//20
f 21//21 22//21 23//21
f 21//22 23//22 24//22
f 21//23 24//23 25//23
f 30//24 21//24 25//24
f 25//25 26//25 27//25
f 30//26 25//26 27//26
f 30//27 27//27 28//27
f 28//28 29//28 30//28
usemtl assumed_roof
f 60//29 32//29 31//29
f 32//30 34//30 33//30
f 32//31 35//31 34//31
f 60//32 35//32 32//32
f 35//33 37//33 36//33
f 60//34 37//34 35//34
f 60//35 38//35 37//35
f 60//36 39//36 38//36
f 39//37 41//37 40//37
f 41//38 43//38 42//38
f 41//39 44//39 43//39
f 39//40 44//40 41//40
f 39//41 45//41 44//41
f 39//42 46//42 45//42
f 60//43 46//43 39//43
f 60//44 47//44 46//44
f 47//45 49//45 48//45
f 60//46 49//46 47//46
f 49//47 51//47 50//47
f 60//48 51//48 49//48
f 51//49 53//49 52//49
f 51//50 54//50 53//50
f 51//51 55//51 54//51
f 60//52 55//52 51//52
f 55//53 57//53 56//53
f 60//54 57//54 55//54
f 60//55 58//55 57//55
f 58//56 60//56 59//56
usemtl assumed_wall
f 1//57 32//57 2//57
f 1//58 31//58 32//58
f 2//59 33//59 3//59
f 2//60 32//60 33//60
f 3//61 34//61 4//61
f 3//62 33//62 34//62
f 4//63 35//63 5//63
f 4//64 34//64 35//64
f 5//65 36//65 6//65
f 5//66 35//66 36//66
f 6//67 37//67 7//67
f 6//68 36//68 37//68
f 7//69 38//69 8//69
f 7//70 37//70 38//70
f 8//71 39//71 9//71
f 8//72 38//72 39//72
f 9//73 40//73 10//73
f 9//74 39//74 40//74
f 10//75 41//75 11//75
f 10//76 40//76 41//76
f 11//77 42//77 12//77
f 11//78 41//78 42//78
f 12//79 43//79 13//79
f 12//80 42//80 43//80
f 13//81 44//81 14//81
f 13//82 43//82 44//82
f 14//83 45//83 15//83
f 14//84 44//84 45//84
f 15//85 46//85 16//85
f 15//86 45//86 46//86
f 16//87 47//87 17//87
f 16//88 46//88 47//88
f 17//89 48//89 18//89
f 17//90 47//90 48//90
f 18//91 49//91 19//91
f 18//92 48//92 49//92
f 19//93 50//93 20//93
f 19//94 49//94 50//94
f 20//95 51//95 21//95
f 20//96 50//96 51//96
f 21//97 52//97 22//97
f 21//98 51//98 52//98
f 22//99 53//99 23//99
f 22//100 52//100 53//100
f 23//101 54//101 24//101
f 23//102 53//102 54//102
f 24//103 55//103 25//103
f 24//104 54//104 55//104
f 25//105 56//105 26//105
f 25//106 55//106 56//106
f 26//107 57//107 27//107
f 26//108 56//108 57//108
f 27//109 58//109 28//109
f 27//110 57//110 58//110
f 28//111 59//111 29//111
f 28//112 58//112 59//112
f 29//113 60//113 30//113
f 29//114 59//114 60//114
f 30//115 31//115 1//115
f 30//116 60//116 31//116
