# construction_3677_assumed_A_Capela
# source A_Capela
# h_campo 0.000000
# modeled_height 6.000000
# height_kind assumed
# local_origin_world_x 172001.034850
# local_origin_world_y 402500.144600
mtllib construction_artifacts.mtl

o construction_3677_assumed_A_Capela
v 1.915000 10.008500 0.000000
v 4.687000 8.673500 0.000000
v 5.644000 10.589500 0.000000
v 8.906000 10.325500 0.000000
v 12.196000 8.936500 0.000000
v 13.117000 6.906500 0.000000
v 13.846000 7.123500 0.000000
v 21.244000 -6.375500 0.000000
v 14.089000 -9.784500 0.000000
v 12.684000 -7.554500 0.000000
v 5.537000 -10.423500 0.000000
v 1.513000 -10.589500 0.000000
v 1.065000 -8.612500 0.000000
v -3.176000 -10.342500 0.000000
v -13.982000 -5.585500 0.000000
v -14.753000 -4.420500 0.000000
v -21.244000 -1.338500 0.000000
v -19.217000 2.392500 0.000000
v -17.587000 2.411500 0.000000
v -13.636000 1.408500 0.000000
v -12.514000 4.247500 0.000000
v 1.915000 10.008500 6.000000
v 4.687000 8.673500 6.000000
v 5.644000 10.589500 6.000000
v 8.906000 10.325500 6.000000
v 12.196000 8.936500 6.000000
v 13.117000 6.906500 6.000000
v 13.846000 7.123500 6.000000
v 21.244000 -6.375500 6.000000
v 14.089000 -9.784500 6.000000
v 12.684000 -7.554500 6.000000
v 5.537000 -10.423500 6.000000
v 1.513000 -10.589500 6.000000
v 1.065000 -8.612500 6.000000
v -3.176000 -10.342500 6.000000
v -13.982000 -5.585500 6.000000
v -14.753000 -4.420500 6.000000
v -21.244000 -1.338500 6.000000
v -19.217000 2.392500 6.000000
v -17.587000 2.411500 6.000000
v -13.636000 1.408500 6.000000
v -12.514000 4.247500 6.000000
vn 0.000000 0.000000 -1.000000
vn 0.000000 0.000000 -1.000000
vn 0.000000 0.000000 -1.000000
vn 0.000000 0.000000 -1.000000
vn 0.000000 0.000000 -1.000000
vn 0.000000 0.000000 -1.000000
vn 0.000000 0.000000 -1.000000
vn 0.000000 0.000000 -1.000000
vn 0.000000 0.000000 -1.000000
vn 0.000000 0.000000 -1.000000
vn -0.000000 0.000000 -1.000000
vn 0.000000 0.000000 -1.000000
vn 0.000000 0.000000 -1.000000
vn 0.000000 -0.000000 -1.000000
vn 0.000000 0.000000 -1.000000
vn 0.000000 0.000000 -1.000000
vn 0.000000 0.000000 -1.000000
vn 0.000000 0.000000 -1.000000
vn 0.000000 0.000000 -1.000000
vn 0.000000 0.000000 1.000000
vn 0.000000 0.000000 1.000000
vn 0.000000 0.000000 1.000000
vn 0.000000 0.000000 1.000000
vn 0.000000 0.000000 1.000000
vn -0.000000 0.000000 1.000000
vn -0.000000 0.000000 1.000000
vn 0.000000 0.000000 1.000000
vn 0.000000 0.000000 1.000000
vn 0.000000 0.000000 1.000000
vn 0.000000 0.000000 1.000000
vn 0.000000 0.000000 1.000000
vn 0.000000 0.000000 1.000000
vn 0.000000 0.000000 1.000000
vn 0.000000 0.000000 1.000000
vn 0.000000 0.000000 1.000000
vn 0.000000 0.000000 1.000000
vn 0.000000 -0.000000 1.000000
vn 0.000000 0.000000 1.000000
vn 0.433904 0.900959 0.000000
vn 0.433904 0.900959 -0.000000
vn -0.894614 0.446840 0.000000
vn -0.894614 0.446840 0.000000
vn 0.080668 0.996741 0.000000
vn 0.080668 0.996741 -0.000000
vn 0.388946 0.921261 0.000000
vn 0.388946 0.921261 -0.000000
vn 0.910658 0.413161 0.000000
vn 0.910658 0.413161 -0.000000
vn -0.285297 0.958439 0.000000
vn -0.285297 0.958439 0.000000
vn 0.876940 0.480599 0.000000
vn 0.876940 0.480599 -0.000000
vn 0.430125 -0.902770 0.000000
vn 0.430125 -0.902770 0.000000
vn -0.846074 -0.533065 0.000000
vn -0.846074 -0.533065 0.000000
vn 0.372532 -0.928019 0.000000
vn 0.372532 -0.928019 0.000000
vn 0.041217 -0.999150 0.000000
vn 0.041217 -0.999150 0.000000
vn -0.975273 -0.221003 0.000000
vn -0.975273 -0.221003 0.000000
vn 0.377706 -0.925926 0.000000
vn 0.377706 -0.925926 0.000000
vn -0.402906 -0.915241 0.000000
vn -0.402906 -0.915241 0.000000
vn -0.833918 -0.551889 0.000000
vn -0.833918 -0.551889 0.000000
vn -0.428918 -0.903344 0.000000
vn -0.428918 -0.903344 0.000000
vn -0.878695 0.477383 0.000000
vn -0.878695 0.477383 0.000000
vn -0.011656 0.999932 0.000000
vn -0.011656 0.999932 0.000000
vn 0.246055 0.969256 0.000000
vn 0.246055 0.969256 -0.000000
vn -0.930005 0.367547 0.000000
vn -0.930005 0.367547 0.000000
vn -0.370802 0.928712 0.000000
vn -0.370802 0.928712 0.000000
usemtl assumed_base
f 21//1 1//1 2//1
f 2//2 3//2 4//2
f 2//3 4//3 5//3
f 21//4 2//4 5//4
f 21//5 5//5 6//5
f 6//6 7//6 8//6
f 21//7 6//7 8//7
f 8//8 9//8 10//8
f 21//9 8//9 10//9
f 21//10 10//10 11//10
f 11//11 12//11 13//11
f 21//12 11//12 13//12
f 21//13 13//13 14//13
f 21//14 14//14 15//14
f 21//15 15//15 16//15
f 16//16 17//16 18//16
f 16//17 18//17 19//17
f 16//18 19//18 20//18
f 16//19 20//19 21//19
usemtl assumed_roof
f 42//20 23//20 22//20
f 23//21 25//21 24//21
f 23//22 26//22 25//22
f 42//23 26//23 23//23
f 42//24 27//24 26//24
f 27//25 29//25 28//25
f 42//26 29//26 27//26
f 29//27 31//27 30//27
f 42//28 31//28 29//28
f 42//29 32//29 31//29
f 32//30 34//30 33//30
f 42//31 34//31 32//31
f 42//32 35//32 34//32
f 42//33 36//33 35//33
f 42//34 37//34 36//34
f 37//35 39//35 38//35
f 37//36 40//36 39//36
f 37//37 41//37 40//37
f 37//38 42//38 41//38
usemtl assumed_wall
f 1//39 23//39 2//39
f 1//40 22//40 23//40
f 2//41 24//41 3//41
f 2//42 23//42 24//42
f 3//43 25//43 4//43
f 3//44 24//44 25//44
f 4//45 26//45 5//45
f 4//46 25//46 26//46
f 5//47 27//47 6//47
f 5//48 26//48 27//48
f 6//49 28//49 7//49
f 6//50 27//50 28//50
f 7//51 29//51 8//51
f 7//52 28//52 29//52
f 8//53 30//53 9//53
f 8//54 29//54 30//54
f 9//55 31//55 10//55
f 9//56 30//56 31//56
f 10//57 32//57 11//57
f 10//58 31//58 32//58
f 11//59 33//59 12//59
f 11//60 32//60 33//60
f 12//61 34//61 13//61
f 12//62 33//62 34//62
f 13//63 35//63 14//63
f 13//64 34//64 35//64
f 14//65 36//65 15//65
f 14//66 35//66 36//66
f 15//67 37//67 16//67
f 15//68 36//68 37//68
f 16//69 38//69 17//69
f 16//70 37//70 38//70
f 17//71 39//71 18//71
f 17//72 38//72 39//72
f 18//73 40//73 19//73
f 18//74 39//74 40//74
f 19//75 41//75 20//75
f 19//76 40//76 41//76
f 20//77 42//77 21//77
f 20//78 41//78 42//78
f 21//79 22//79 1//79
f 21//80 42//80 22//80
