# construction_7062_assumed_A_Casa
# source A_Casa
# h_campo 0.000000
# modeled_height 6.000000
# height_kind assumed
# local_origin_world_x 172001.034850
# local_origin_world_y 402500.144600
mtllib construction_artifacts.mtl

o construction_7062_assumed_A_Casa
v -13.361000 15.894500 0.000000
v -5.111000 16.361500 0.000000
v -4.836000 11.798500 0.000000
v -1.466000 9.425500 0.000000
v 4.858000 17.397500 0.000000
v 16.092000 10.127500 0.000000
v 11.678000 5.839500 0.000000
v 13.706000 4.418500 0.000000
v 7.939000 -2.122500 0.000000
v 5.633000 -5.154500 0.000000
v -0.768000 -0.611500 0.000000
v -2.460000 -2.450500 0.000000
v -8.192000 -9.294500 0.000000
v -0.476000 -13.495500 0.000000
v -3.738000 -16.227500 0.000000
v -7.277000 -17.397500 0.000000
v -16.092000 -14.043500 0.000000
v -14.410000 -6.224500 0.000000
v -13.578000 -6.221500 0.000000
v -13.307000 0.109500 0.000000
v -13.361000 15.894500 6.000000
v -5.111000 16.361500 6.000000
v -4.836000 11.798500 6.000000
v -1.466000 9.425500 6.000000
v 4.858000 17.397500 6.000000
v 16.092000 10.127500 6.000000
v 11.678000 5.839500 6.000000
v 13.706000 4.418500 6.000000
v 7.939000 -2.122500 6.000000
v 5.633000 -5.154500 6.000000
v -0.768000 -0.611500 6.000000
v -2.460000 -2.450500 6.000000
v -8.192000 -9.294500 6.000000
v -0.476000 -13.495500 6.000000
v -3.738000 -16.227500 6.000000
v -7.277000 -17.397500 6.000000
v -16.092000 -14.043500 6.000000
v -14.410000 -6.224500 6.000000
v -13.578000 -6.221500 6.000000
v -13.307000 0.109500 6.000000
vn 0.000000 0.000000 -1.000000
vn 0.000000 0.000000 -1.000000
vn 0.000000 0.000000 -1.000000
vn 0.000000 0.000000 -1.000000
vn 0.000000 0.000000 -1.000000
vn 0.000000 0.000000 -1.000000
vn 0.000000 0.000000 -1.000000
vn -0.000000 0.000000 -1.000000
vn 0.000000 0.000000 -1.000000
vn 0.000000 0.000000 -1.000000
vn 0.000000 0.000000 -1.000000
vn 0.000000 0.000000 -1.000000
vn 0.000000 0.000000 -1.000000
vn 0.000000 0.000000 -1.000000
vn 0.000000 0.000000 -1.000000
vn 0.000000 0.000000 -1.000000
vn 0.000000 0.000000 -1.000000
vn 0.000000 0.000000 -1.000000
vn 0.000000 -0.000000 1.000000
vn 0.000000 0.000000 1.000000
vn 0.000000 0.000000 1.000000
vn 0.000000 0.000000 1.000000
vn 0.000000 0.000000 1.000000
vn 0.000000 0.000000 1.000000
vn 0.000000 0.000000 1.000000
vn 0.000000 0.000000 1.000000
vn 0.000000 0.000000 1.000000
vn -0.000000 0.000000 1.000000
vn 0.000000 0.000000 1.000000
vn 0.000000 0.000000 1.000000
vn 0.000000 0.000000 1.000000
vn 0.000000 0.000000 1.000000
vn 0.000000 0.000000 1.000000
vn 0.000000 0.000000 1.000000
vn 0.000000 0.000000 1.000000
vn 0.000000 0.000000 1.000000
vn -0.056516 0.998402 0.000000
vn -0.056516 0.998402 0.000000
vn 0.998189 0.060158 0.000000
vn 0.998189 0.060158 -0.000000
vn 0.575740 0.817633 0.000000
vn 0.575740 0.817633 -0.000000
vn -0.783432 0.621478 0.000000
vn -0.783432 0.621478 0.000000
vn 0.543301 0.839538 0.000000
vn 0.543301 0.839538 -0.000000
vn 0.696795 -0.717270 0.000000
vn 0.696795 -0.717270 0.000000
vn 0.573842 0.818966 0.000000
vn 0.573842 0.818966 -0.000000
vn 0.750092 -0.661333 0.000000
vn 0.750092 -0.661333 0.000000
vn 0.795950 -0.605363 0.000000
vn 0.795950 -0.605363 0.000000
vn -0.578777 -0.815486 0.000000
vn -0.578777 -0.815486 0.000000
vn 0.735907 -0.677083 0.000000
vn 0.735907 -0.677083 0.000000
vn 0.766640 -0.642078 0.000000
vn 0.766640 -0.642078 0.000000
vn 0.478174 0.878265 0.000000
vn 0.478174 0.878265 -0.000000
vn 0.642078 -0.766639 0.000000
vn 0.642078 -0.766639 0.000000
vn 0.313893 -0.949458 0.000000
vn 0.313893 -0.949458 0.000000
vn -0.355616 -0.934632 0.000000
vn -0.355616 -0.934632 0.000000
vn -0.977636 0.210306 0.000000
vn -0.977636 0.210306 0.000000
vn -0.003606 0.999993 0.000000
vn -0.003606 0.999993 0.000000
vn -0.999085 0.042766 0.000000
vn -0.999085 0.042766 0.000000
vn -0.999994 -0.003421 0.000000
vn -0.999994 -0.003421 0.000000
usemtl assumed_base
f 20//1 1//1 2//1
f 20//2 2//2 3//2
f 20//3 3//3 4//3
f 4//4 5//4 6//4
f 20//5 4//5 6//5
f 20//6 6//6 7//6
f 20//7 7//7 8//7
f 9//8 10//8 11//8
f 8//9 9//9 11//9
f 20//10 8//10 11//10
f 20//11 11//11 12//11
f 20//12 12//12 13//12
f 13//13 14//13 15//13
f 13//14 15//14 16//14
f 20//15 13//15 16//15
f 16//16 17//16 18//16
f 16//17 18//17 19//17
f 16//18 19//18 20//18
usemtl assumed_roof
f 40//19 22//19 21//19
f 40//20 23//20 22//20
f 40//21 24//21 23//21
f 24//22 26//22 25//22
f 40//23 26//23 24//23
f 40//24 27//24 26//24
f 40//25 28//25 27//25
f 29//26 31//26 30//26
f 28//27 31//27 29//27
f 40//28 31//28 28//28
f 40//29 32//29 31//29
f 40//30 33//30 32//30
f 33//31 35//31 34//31
f 33//32 36//32 35//32
f 40//33 36//33 33//33
f 36//34 38//34 37//34
f 36//35 39//35 38//35
f 36//36 40//36 39//36
usemtl assumed_wall
f 1//37 22//37 2//37
f 1//38 21//38 22//38
f 2//39 23//39 3//39
f 2//40 22//40 23//40
f 3//41 24//41 4//41
f 3//42 23//42 24//42
f 4//43 25//43 5//43
f 4//44 24//44 25//44
f 5//45 26//45 6//45
f 5//46 25//46 26//46
f 6//47 27//47 7//47
f 6//48 26//48 27//48
f 7//49 28//49 8//49
f 7//50 27//50 28//50
f 8//51 29//51 9//51
f 8//52 28//52 29//52
f 9//53 30//53 10//53
f 9//54 29//54 30//54
f 10//55 31//55 11//55
f 10//56 30//56 31//56
f 11//57 32//57 12//57
f 11//58 31//58 32//58
f 12//59 33//59 13//59
f 12//60 32//60 33//60
f 13//61 34//61 14//61
f 13//62 33//62 34//62
f 14//63 35//63 15//63
f 14//64 34//64 35//64
f 15//65 36//65 16//65
f 15//66 35//66 36//66
f 16//67 37//67 17//67
f 16//68 36//68 37//68
f 17//69 38//69 18//69
f 17//70 37//70 38//70
f 18//71 39//71 19//71
f 18//72 38//72 39//72
f 19//73 40//73 20//73
f 19//74 39//74 40//74
f 20//75 21//75 1//75
f 20//76 40//76 21//76
