# construction_3053_assumed_A_Casa
# source A_Casa
# h_campo 0.000000
# modeled_height 6.000000
# height_kind assumed
# local_origin_world_x 172001.034850
# local_origin_world_y 402500.144600
mtllib construction_artifacts.mtl

o construction_3053_assumed_A_Casa
v 21.509500 -10.545000 0.000000
v 19.918500 -18.508000 0.000000
v -0.408500 -15.718000 0.000000
v 1.094500 -7.564000 0.000000
v -3.342500 -6.705000 0.000000
v -4.236500 -9.762000 0.000000
v -10.885500 -8.479000 0.000000
v -11.004500 -10.211000 0.000000
v -3.975500 -11.357000 0.000000
v -4.505500 -15.542000 0.000000
v -22.001500 -12.772000 0.000000
v -20.962500 -3.341000 0.000000
v -8.788500 -5.298000 0.000000
v -5.215500 10.462000 0.000000
v -3.234500 17.767000 0.000000
v -1.714500 18.508000 0.000000
v 15.802500 14.676000 0.000000
v 11.982500 -3.220000 0.000000
v 16.405500 -4.067000 0.000000
v 16.364500 -5.510000 0.000000
v 22.001500 -6.437000 0.000000
v 21.181500 -10.051000 0.000000
v 21.509500 -10.545000 6.000000
v 19.918500 -18.508000 6.000000
v -0.408500 -15.718000 6.000000
v 1.094500 -7.564000 6.000000
v -3.342500 -6.705000 6.000000
v -4.236500 -9.762000 6.000000
v -10.885500 -8.479000 6.000000
v -11.004500 -10.211000 6.000000
v -3.975500 -11.357000 6.000000
v -4.505500 -15.542000 6.000000
v -22.001500 -12.772000 6.000000
v -20.962500 -3.341000 6.000000
v -8.788500 -5.298000 6.000000
v -5.215500 10.462000 6.000000
v -3.234500 17.767000 6.000000
v -1.714500 18.508000 6.000000
v 15.802500 14.676000 6.000000
v 11.982500 -3.220000 6.000000
v 16.405500 -4.067000 6.000000
v 16.364500 -5.510000 6.000000
v 22.001500 -6.437000 6.000000
v 21.181500 -10.051000 6.000000
vn 0.000000 -0.000000 -1.000000
vn 0.000000 0.000000 -1.000000
vn -0.000000 0.000000 -1.000000
vn 0.000000 0.000000 -1.000000
vn 0.000000 0.000000 -1.000000
vn 0.000000 0.000000 -1.000000
vn 0.000000 -0.000000 -1.000000
vn 0.000000 0.000000 -1.000000
vn -0.000000 0.000000 -1.000000
vn -0.000000 0.000000 -1.000000
vn 0.000000 0.000000 -1.000000
vn 0.000000 0.000000 -1.000000
vn 0.000000 0.000000 -1.000000
vn 0.000000 0.000000 -1.000000
vn 0.000000 0.000000 -1.000000
vn 0.000000 0.000000 -1.000000
vn 0.000000 0.000000 -1.000000
vn 0.000000 0.000000 -1.000000
vn 0.000000 0.000000 -1.000000
vn 0.000000 0.000000 -1.000000
vn 0.000000 0.000000 1.000000
vn 0.000000 0.000000 1.000000
vn 0.000000 0.000000 1.000000
vn 0.000000 0.000000 1.000000
vn 0.000000 0.000000 1.000000
vn 0.000000 0.000000 1.000000
vn 0.000000 0.000000 1.000000
vn 0.000000 0.000000 1.000000
vn 0.000000 0.000000 1.000000
vn 0.000000 0.000000 1.000000
vn 0.000000 0.000000 1.000000
vn 0.000000 0.000000 1.000000
vn 0.000000 0.000000 1.000000
vn 0.000000 0.000000 1.000000
vn 0.000000 0.000000 1.000000
vn 0.000000 0.000000 1.000000
vn 0.000000 0.000000 1.000000
vn 0.000000 0.000000 1.000000
vn 0.000000 0.000000 1.000000
vn 0.000000 0.000000 1.000000
vn 0.980619 -0.195927 0.000000
vn 0.980619 -0.195927 0.000000
vn -0.135981 -0.990711 0.000000
vn -0.135981 -0.990711 0.000000
vn -0.983433 0.181273 0.000000
vn -0.983433 0.181273 0.000000
vn -0.190070 -0.981771 0.000000
vn -0.190070 -0.981771 0.000000
vn 0.959799 -0.280687 0.000000
vn 0.959799 -0.280687 0.000000
vn -0.189466 -0.981887 0.000000
vn -0.189466 -0.981887 0.000000
vn 0.997648 -0.068545 0.000000
vn 0.997648 -0.068545 0.000000
vn 0.160914 0.986968 0.000000
vn 0.160914 0.986968 -0.000000
vn 0.992076 -0.125639 0.000000
vn 0.992076 -0.125639 0.000000
vn -0.156374 -0.987698 0.000000
vn -0.156374 -0.987698 0.000000
vn -0.993986 0.109506 0.000000
vn -0.993986 0.109506 0.000000
vn 0.158715 0.987324 0.000000
vn 0.158715 0.987324 -0.000000
vn -0.975251 0.221102 0.000000
vn -0.975251 0.221102 0.000000
vn -0.965141 0.261731 0.000000
vn -0.965141 0.261731 0.000000
vn -0.438202 0.898876 0.000000
vn -0.438202 0.898876 0.000000
vn 0.213705 0.976898 0.000000
vn 0.213705 0.976898 -0.000000
vn 0.977968 -0.208753 0.000000
vn 0.977968 -0.208753 0.000000
vn 0.188081 0.982153 0.000000
vn 0.188081 0.982153 -0.000000
vn 0.999597 -0.028402 0.000000
vn 0.999597 -0.028402 0.000000
vn 0.162270 0.986746 0.000000
vn 0.162270 0.986746 -0.000000
vn 0.975212 -0.221271 0.000000
vn 0.975212 -0.221271 0.000000
vn 0.833087 0.553143 0.000000
vn 0.833087 0.553143 -0.000000
usemtl assumed_base
f 22//1 1//1 2//1
f 22//2 2//2 3//2
f 22//3 3//3 4//3
f 22//4 4//4 5//4
f 5//5 6//5 7//5
f 8//6 9//6 10//6
f 8//7 10//7 11//7
f 7//8 8//8 11//8
f 7//9 11//9 12//9
f 5//10 7//10 12//10
f 5//11 12//11 13//11
f 22//12 5//12 13//12
f 13//13 14//13 15//13
f 13//14 15//14 16//14
f 13//15 16//15 17//15
f 13//16 17//16 18//16
f 22//17 13//17 18//17
f 18//18 19//18 20//18
f 22//19 18//19 20//19
f 20//20 21//20 22//20
usemtl assumed_roof
f 44//21 24//21 23//21
f 44//22 25//22 24//22
f 44//23 26//23 25//23
f 44//24 27//24 26//24
f 27//25 29//25 28//25
f 30//26 32//26 31//26
f 30//27 33//27 32//27
f 29//28 33//28 30//28
f 29//29 34//29 33//29
f 27//30 34//30 29//30
f 27//31 35//31 34//31
f 44//32 35//32 27//32
f 35//33 37//33 36//33
f 35//34 38//34 37//34
f 35//35 39//35 38//35
f 35//36 40//36 39//36
f 44//37 40//37 35//37
f 40//38 42//38 41//38
f 44//39 42//39 40//39
f 42//40 44//40 43//40
usemtl assumed_wall
f 1//41 24//41 2//41
f 1//42 23//42 24//42
f 2//43 25//43 3//43
f 2//44 24//44 25//44
f 3//45 26//45 4//45
f 3//46 25//46 26//46
f 4//47 27//47 5//47
f 4//48 26//48 27//48
f 5//49 28//49 6//49
f 5//50 27//50 28//50
f 6//51 29//51 7//51
f 6//52 28//52 29//52
f 7//53 30//53 8//53
f 7//54 29//54 30//54
f 8//55 31//55 9//55
f 8//56 30//56 31//56
f 9//57 32//57 10//57
f 9//58 31//58 32//58
f 10//59 33//59 11//59
f 10//60 32//60 33//60
f 11//61 34//61 12//61
f 11//62 33//62 34//62
f 12//63 35//63 13//63
f 12//64 34//64 35//64
f 13//65 36//65 14//65
f 13//66 35//66 36//66
f 14//67 37//67 15//67
f 14//68 36//68 37//68
f 15//69 38//69 16//69
f 15//70 37//70 38//70
f 16//71 39//71 17//71
f 16//72 38//72 39//72
f 17//73 40//73 18//73
f 17//74 39//74 40//74
f 18//75 41//75 19//75
f 18//76 40//76 41//76
f 19//77 42//77 20//77
f 19//78 41//78 42//78
f 20//79 43//79 21//79
f 20//80 42//80 43//80
f 21//81 44//81 22//81
f 21//82 43//82 44//82
f 22//83 23//83 1//83
f 22//84 44//84 23//84
