# construction_0704_assumed_A_Casa
# source A_Casa
# h_campo 0.000000
# modeled_height 6.000000
# height_kind assumed
# local_origin_world_x 172001.034850
# local_origin_world_y 402500.144600
mtllib construction_artifacts.mtl

o construction_0704_assumed_A_Casa
v 8.355500 -13.680000 0.000000
v 1.039500 -17.528000 0.000000
v -6.325500 -5.614000 0.000000
v -7.004500 -5.863000 0.000000
v -8.726500 -2.730000 0.000000
v -15.143500 -7.873000 0.000000
v -16.867500 -3.906000 0.000000
v 12.799500 17.528000 0.000000
v 15.449500 14.212000 0.000000
v 8.738500 9.299000 0.000000
v 16.867500 -5.565000 0.000000
v 7.674500 -13.032000 0.000000
v 8.355500 -13.680000 6.000000
v 1.039500 -17.528000 6.000000
v -6.325500 -5.614000 6.000000
v -7.004500 -5.863000 6.000000
v -8.726500 -2.730000 6.000000
v -15.143500 -7.873000 6.000000
v -16.867500 -3.906000 6.000000
v 12.799500 17.528000 6.000000
v 15.449500 14.212000 6.000000
v 8.738500 9.299000 6.000000
v 16.867500 -5.565000 6.000000
v 7.674500 -13.032000 6.000000
vn 0.000000 -0.000000 -1.000000
vn -0.000000 0.000000 -1.000000
vn -0.000000 0.000000 -1.000000
vn 0.000000 0.000000 -1.000000
vn 0.000000 0.000000 -1.000000
vn -0.000000 0.000000 -1.000000
vn 0.000000 0.000000 -1.000000
vn 0.000000 0.000000 -1.000000
vn 0.000000 0.000000 -1.000000
vn 0.000000 -0.000000 -1.000000
vn 0.000000 0.000000 1.000000
vn 0.000000 0.000000 1.000000
vn 0.000000 0.000000 1.000000
vn 0.000000 0.000000 1.000000
vn 0.000000 0.000000 1.000000
vn 0.000000 -0.000000 1.000000
vn 0.000000 0.000000 1.000000
vn 0.000000 0.000000 1.000000
vn 0.000000 -0.000000 1.000000
vn 0.000000 0.000000 1.000000
vn 0.465507 -0.885044 0.000000
vn 0.465507 -0.885044 0.000000
vn -0.850595 -0.525821 0.000000
vn -0.850595 -0.525821 0.000000
vn 0.344295 -0.938861 0.000000
vn 0.344295 -0.938861 0.000000
vn -0.876352 -0.481672 0.000000
vn -0.876352 -0.481672 0.000000
vn 0.625392 -0.780311 0.000000
vn 0.625392 -0.780311 0.000000
vn -0.917136 -0.398574 0.000000
vn -0.917136 -0.398574 0.000000
vn -0.585631 0.810578 0.000000
vn -0.585631 0.810578 0.000000
vn 0.781190 0.624293 0.000000
vn 0.781190 0.624293 -0.000000
vn 0.590707 -0.806886 0.000000
vn 0.590707 -0.806886 0.000000
vn 0.877365 0.479824 0.000000
vn 0.877365 0.479824 -0.000000
vn 0.630475 -0.776210 0.000000
vn 0.630475 -0.776210 0.000000
vn 0.689336 0.724441 0.000000
vn 0.689336 0.724441 -0.000000
usemtl assumed_base
f 12//1 1//1 2//1
f 12//2 2//2 3//2
f 3//3 4//3 5//3
f 12//4 3//4 5//4
f 5//5 6//5 7//5
f 5//6 7//6 8//6
f 5//7 8//7 9//7
f 5//8 9//8 10//8
f 12//9 5//9 10//9
f 10//10 11//10 12//10
usemtl assumed_roof
f 24//11 14//11 13//11
f 24//12 15//12 14//12
f 15//13 17//13 16//13
f 24//14 17//14 15//14
f 17//15 19//15 18//15
f 17//16 20//16 19//16
f 17//17 21//17 20//17
f 17//18 22//18 21//18
f 24//19 22//19 17//19
f 22//20 24//20 23//20
usemtl assumed_wall
f 1//21 14//21 2//21
f 1//22 13//22 14//22
f 2//23 15//23 3//23
f 2//24 14//24 15//24
f 3//25 16//25 4//25
f 3//26 15//26 16//26
f 4//27 17//27 5//27
f 4//28 16//28 17//28
f 5//29 18//29 6//29
f 5//30 17//30 18//30
f 6//31 19//31 7//31
f 6//32 18//32 19//32
f 7//33 20//33 8//33
f 7//34 19//34 20//34
f 8//35 21//35 9//35
f 8//36 20//36 21//36
f 9//37 22//37 10//37
f 9//38 21//38 22//38
f 10//39 23//39 11//39
f 10//40 22//40 23//40
f 11//41 24//41 12//41
f 11//42 23//42 24//42
f 12//43 13//43 1//43
f 12//44 24//44 13//44
