# construction_0099_assumed_A_Grande_construcao
# source A_Grande_construcao
# h_campo 0.000000
# modeled_height 6.000000
# height_kind assumed
# local_origin_world_x 172001.034850
# local_origin_world_y 402500.144600
mtllib construction_artifacts.mtl

o construction_0099_assumed_A_Grande_construcao
v -4.672500 -42.161000 0.000000
v -4.975500 -39.903000 0.000000
v -5.608500 -39.902000 0.000000
v -9.065500 -10.972000 0.000000
v -28.439500 -13.234000 0.000000
v -34.277500 37.049000 0.000000
v 4.781500 42.161000 0.000000
v 6.498500 31.753000 0.000000
v 25.624500 33.924000 0.000000
v 34.144500 -35.008000 0.000000
v 34.277500 -37.141000 0.000000
v -4.672500 -42.161000 6.000000
v -4.975500 -39.903000 6.000000
v -5.608500 -39.902000 6.000000
v -9.065500 -10.972000 6.000000
v -28.439500 -13.234000 6.000000
v -34.277500 37.049000 6.000000
v 4.781500 42.161000 6.000000
v 6.498500 31.753000 6.000000
v 25.624500 33.924000 6.000000
v 34.144500 -35.008000 6.000000
v 34.277500 -37.141000 6.000000
vn 0.000000 0.000000 -1.000000
vn 0.000000 0.000000 -1.000000
vn -0.000000 0.000000 -1.000000
vn -0.000000 0.000000 -1.000000
vn 0.000000 0.000000 -1.000000
vn 0.000000 0.000000 -1.000000
vn 0.000000 0.000000 -1.000000
vn 0.000000 0.000000 -1.000000
vn 0.000000 0.000000 -1.000000
vn 0.000000 0.000000 1.000000
vn 0.000000 0.000000 1.000000
vn 0.000000 0.000000 1.000000
vn 0.000000 0.000000 1.000000
vn 0.000000 0.000000 1.000000
vn -0.000000 0.000000 1.000000
vn 0.000000 0.000000 1.000000
vn 0.000000 0.000000 1.000000
vn 0.000000 0.000000 1.000000
vn -0.991116 -0.132997 0.000000
vn -0.991116 -0.132997 0.000000
vn -0.001580 -0.999999 0.000000
vn -0.001580 -0.999999 0.000000
vn -0.992936 -0.118651 0.000000
vn -0.992936 -0.118651 0.000000
vn 0.115967 -0.993253 0.000000
vn 0.115967 -0.993253 0.000000
vn -0.993327 -0.115328 0.000000
vn -0.993327 -0.115328 0.000000
vn -0.129772 0.991544 0.000000
vn -0.129772 0.991544 0.000000
vn 0.986664 0.162769 0.000000
vn 0.986664 0.162769 -0.000000
vn -0.112786 0.993619 0.000000
vn -0.112786 0.993619 0.000000
vn 0.992448 0.122667 0.000000
vn 0.992448 0.122667 -0.000000
vn 0.998062 0.062233 0.000000
vn 0.998062 0.062233 -0.000000
vn 0.127826 -0.991797 0.000000
vn 0.127826 -0.991797 0.000000
usemtl assumed_base
f 11//1 1//1 2//1
f 11//2 2//2 3//2
f 11//3 3//3 4//3
f 4//4 5//4 6//4
f 11//5 4//5 6//5
f 6//6 7//6 8//6
f 11//7 6//7 8//7
f 11//8 8//8 9//8
f 9//9 10//9 11//9
usemtl assumed_roof
f 22//10 13//10 12//10
f 22//11 14//11 13//11
f 22//12 15//12 14//12
f 15//13 17//13 16//13
f 22//14 17//14 15//14
f 17//15 19//15 18//15
f 22//16 19//16 17//16
f 22//17 20//17 19//17
f 20//18 22//18 21//18
usemtl assumed_wall
f 1//19 13//19 2//19
f 1//20 12//20 13//20
f 2//21 14//21 3//21
f 2//22 13//22 14//22
f 3//23 15//23 4//23
f 3//24 14//24 15//24
f 4//25 16//25 5//25
f 4//26 15//26 16//26
f 5//27 17//27 6//27
f 5//28 16//28 17//28
f 6//29 18//29 7//29
f 6//30 17//30 18//30
f 7//31 19//31 8//31
f 7//32 18//32 19//32
f 8//33 20//33 9//33
f 8//34 19//34 20//34
f 9//35 21//35 10//35
f 9//36 20//36 21//36
f 10//37 22//37 11//37
f 10//38 21//38 22//38
f 11//39 12//39 1//39
f 11//40 22//40 12//40
