# construction_0819_assumed_A_Casa
# source A_Casa
# h_campo 0.000000
# modeled_height 6.000000
# height_kind assumed
# local_origin_world_x 172001.034850
# local_origin_world_y 402500.144600
mtllib construction_artifacts.mtl

o construction_0819_assumed_A_Casa
v -29.914000 -7.326500 0.000000
v -23.713000 8.158500 0.000000
v -13.118000 4.042500 0.000000
v -4.337000 27.918500 0.000000
v 6.827000 23.059500 0.000000
v -1.741000 2.426500 0.000000
v 7.527000 -1.405500 0.000000
v 17.002000 22.482500 0.000000
v 29.914000 18.251500 0.000000
v 26.438000 9.553500 0.000000
v 29.536000 7.427500 0.000000
v 20.011000 -17.388500 0.000000
v 15.276000 -15.533500 0.000000
v 16.180000 -13.205500 0.000000
v 12.619000 -11.339500 0.000000
v 14.573000 -4.906500 0.000000
v 11.319000 -3.611500 0.000000
v 8.235000 -10.736500 0.000000
v 5.338000 -9.057500 0.000000
v 3.733000 -13.068500 0.000000
v 9.318000 -14.740500 0.000000
v 8.003000 -19.585500 0.000000
v 1.492000 -17.863500 0.000000
v -2.297000 -27.918500 0.000000
v -12.013000 -24.054500 0.000000
v -8.772000 -15.910500 0.000000
v -29.914000 -7.326500 6.000000
v -23.713000 8.158500 6.000000
v -13.118000 4.042500 6.000000
v -4.337000 27.918500 6.000000
v 6.827000 23.059500 6.000000
v -1.741000 2.426500 6.000000
v 7.527000 -1.405500 6.000000
v 17.002000 22.482500 6.000000
v 29.914000 18.251500 6.000000
v 26.438000 9.553500 6.000000
v 29.536000 7.427500 6.000000
v 20.011000 -17.388500 6.000000
v 15.276000 -15.533500 6.000000
v 16.180000 -13.205500 6.000000
v 12.619000 -11.339500 6.000000
v 14.573000 -4.906500 6.000000
v 11.319000 -3.611500 6.000000
v 8.235000 -10.736500 6.000000
v 5.338000 -9.057500 6.000000
v 3.733000 -13.068500 6.000000
v 9.318000 -14.740500 6.000000
v 8.003000 -19.585500 6.000000
v 1.492000 -17.863500 6.000000
v -2.297000 -27.918500 6.000000
v -12.013000 -24.054500 6.000000
v -8.772000 -15.910500 6.000000
vn 0.000000 0.000000 -1.000000
vn 0.000000 0.000000 -1.000000
vn 0.000000 0.000000 -1.000000
vn 0.000000 0.000000 -1.000000
vn 0.000000 0.000000 -1.000000
vn 0.000000 0.000000 -1.000000
vn 0.000000 0.000000 -1.000000
vn 0.000000 0.000000 -1.000000
vn 0.000000 0.000000 -1.000000
vn 0.000000 -0.000000 -1.000000
vn 0.000000 0.000000 -1.000000
vn 0.000000 0.000000 -1.000000
vn 0.000000 0.000000 -1.000000
vn 0.000000 0.000000 -1.000000
vn 0.000000 0.000000 -1.000000
vn 0.000000 0.000000 -1.000000
vn 0.000000 0.000000 -1.000000
vn 0.000000 0.000000 -1.000000
vn 0.000000 0.000000 -1.000000
vn 0.000000 0.000000 -1.000000
vn 0.000000 0.000000 -1.000000
vn 0.000000 0.000000 -1.000000
vn 0.000000 0.000000 -1.000000
vn 0.000000 0.000000 -1.000000
vn 0.000000 0.000000 1.000000
vn 0.000000 0.000000 1.000000
vn 0.000000 -0.000000 1.000000
vn 0.000000 0.000000 1.000000
vn 0.000000 0.000000 1.000000
vn 0.000000 0.000000 1.000000
vn 0.000000 0.000000 1.000000
vn 0.000000 0.000000 1.000000
vn 0.000000 0.000000 1.000000
vn 0.000000 0.000000 1.000000
vn 0.000000 0.000000 1.000000
vn 0.000000 0.000000 1.000000
vn 0.000000 0.000000 1.000000
vn 0.000000 0.000000 1.000000
vn 0.000000 0.000000 1.000000
vn 0.000000 0.000000 1.000000
vn 0.000000 0.000000 1.000000
vn 0.000000 0.000000 1.000000
vn 0.000000 0.000000 1.000000
vn 0.000000 0.000000 1.000000
vn 0.000000 0.000000 1.000000
vn -0.000000 0.000000 1.000000
vn 0.000000 0.000000 1.000000
vn 0.000000 0.000000 1.000000
vn -0.928332 0.371752 0.000000
vn -0.928332 0.371752 0.000000
vn 0.362119 0.932132 0.000000
vn 0.362119 0.932132 -0.000000
vn -0.938540 0.345172 0.000000
vn -0.938540 0.345172 0.000000
vn 0.399077 0.916917 0.000000
vn 0.399077 0.916917 -0.000000
vn 0.923538 -0.383506 0.000000
vn 0.923538 -0.383506 0.000000
vn 0.382093 0.924124 0.000000
vn 0.382093 0.924124 -0.000000
vn -0.929549 0.368699 0.000000
vn -0.929549 0.368699 0.000000
vn 0.311388 0.950283 0.000000
vn 0.311388 0.950283 -0.000000
vn 0.928594 -0.371096 0.000000
vn 0.928594 -0.371096 0.000000
vn 0.565828 0.824523 0.000000
vn 0.565828 0.824523 -0.000000
vn 0.933593 -0.358336 0.000000
vn 0.933593 -0.358336 0.000000
vn -0.364770 -0.931098 0.000000
vn -0.364770 -0.931098 0.000000
vn -0.932185 0.361982 0.000000
vn -0.932185 0.361982 0.000000
vn -0.464146 -0.885758 0.000000
vn -0.464146 -0.885758 0.000000
vn -0.956834 0.290635 0.000000
vn -0.956834 0.290635 0.000000
vn -0.369766 -0.929125 0.000000
vn -0.369766 -0.929125 0.000000
vn 0.917720 -0.397228 0.000000
vn 0.917720 -0.397228 0.000000
vn -0.501436 -0.865194 0.000000
vn -0.501436 -0.865194 0.000000
vn 0.928429 -0.371510 0.000000
vn 0.928429 -0.371510 0.000000
vn 0.286797 0.957991 0.000000
vn 0.286797 0.957991 -0.000000
vn 0.965085 -0.261937 0.000000
vn 0.965085 -0.261937 0.000000
vn -0.255684 -0.966760 0.000000
vn -0.255684 -0.966760 0.000000
vn 0.935766 -0.352622 0.000000
vn 0.935766 -0.352622 0.000000
vn -0.369543 -0.929214 0.000000
vn -0.369543 -0.929214 0.000000
vn -0.929128 0.369757 0.000000
vn -0.929128 0.369757 0.000000
vn -0.376191 -0.926542 0.000000
vn -0.376191 -0.926542 0.000000
usemtl assumed_base
f 26//1 1//1 2//1
f 26//2 2//2 3//2
f 26//3 3//3 4//3
f 4//4 5//4 6//4
f 26//5 4//5 6//5
f 26//6 6//6 7//6
f 7//7 8//7 9//7
f 26//8 7//8 9//8
f 26//9 9//9 10//9
f 10//10 11//10 12//10
f 10//11 12//11 13//11
f 10//12 13//12 14//12
f 10//13 14//13 15//13
f 10//14 15//14 16//14
f 10//15 16//15 17//15
f 26//16 10//16 17//16
f 17//17 18//17 19//17
f 26//18 17//18 19//18
f 26//19 19//19 20//19
f 26//20 20//20 21//20
f 21//21 22//21 23//21
f 26//22 21//22 23//22
f 26//23 23//23 24//23
f 24//24 25//24 26//24
usemtl assumed_roof
f 52//25 28//25 27//25
f 52//26 29//26 28//26
f 52//27 30//27 29//27
f 30//28 32//28 31//28
f 52//29 32//29 30//29
f 52//30 33//30 32//30
f 33//31 35//31 34//31
f 52//32 35//32 33//32
f 52//33 36//33 35//33
f 36//34 38//34 37//34
f 36//35 39//35 38//35
f 36//36 40//36 39//36
f 36//37 41//37 40//37
f 36//38 42//38 41//38
f 36//39 43//39 42//39
f 52//40 43//40 36//40
f 43//41 45//41 44//41
f 52//42 45//42 43//42
f 52//43 46//43 45//43
f 52//44 47//44 46//44
f 47//45 49//45 48//45
f 52//46 49//46 47//46
f 52//47 50//47 49//47
f 50//48 52//48 51//48
usemtl assumed_wall
f 1//49 28//49 2//49
f 1//50 27//50 28//50
f 2//51 29//51 3//51
f 2//52 28//52 29//52
f 3//53 30//53 4//53
f 3//54 29//54 30//54
f 4//55 31//55 5//55
f 4//56 30//56 31//56
f 5//57 32//57 6//57
f 5//58 31//58 32//58
f 6//59 33//59 7//59
f 6//60 32//60 33//60
f 7//61 34//61 8//61
f 7//62 33//62 34//62
f 8//63 35//63 9//63
f 8//64 34//64 35//64
f 9//65 36//65 10//65
f 9//66 35//66 36//66
f 10//67 37//67 11//67
f 10//68 36//68 37//68
f 11//69 38//69 12//69
f 11//70 37//70 38//70
f 12//71 39//71 13//71
f 12//72 38//72 39//72
f 13//73 40//73 14//73
f 13//74 39//74 40//74
f 14//75 41//75 15//75
f 14//76 40//76 41//76
f 15//77 42//77 16//77
f 15//78 41//78 42//78
f 16//79 43//79 17//79
f 16//80 42//80 43//80
f 17//81 44//81 18//81
f 17//82 43//82 44//82
f 18//83 45//83 19//83
f 18//84 44//84 45//84
f 19//85 46//85 20//85
f 19//86 45//86 46//86
f 20//87 47//87 21//87
f 20//88 46//88 47//88
f 21//89 48//89 22//89
f 21//90 47//90 48//90
f 22//91 49//91 23//91
f 22//92 48//92 49//92
f 23//93 50//93 24//93
f 23//94 49//94 50//94
f 24//95 51//95 25//95
f 24//96 50//96 51//96
f 25//97 52//97 26//97
f 25//98 51//98 52//98
f 26//99 27//99 1//99
f 26//100 52//100 27//100
