# construction_4135_assumed_A_Casa
# source A_Casa
# h_campo 0.000000
# modeled_height 6.000000
# height_kind assumed
# local_origin_world_x 172001.034850
# local_origin_world_y 402500.144600
mtllib construction_artifacts.mtl

o construction_4135_assumed_A_Casa
v -19.909000 12.296500 0.000000
v -21.378000 12.927500 0.000000
v -20.148000 18.678500 0.000000
v -18.268000 18.471500 0.000000
v -17.657000 21.986500 0.000000
v -11.315000 20.946500 0.000000
v -10.810000 22.247500 0.000000
v 3.104000 19.247500 0.000000
v 2.639000 17.907500 0.000000
v 16.834000 13.946500 0.000000
v 20.461000 10.669500 0.000000
v 21.378000 6.365500 0.000000
v 20.855000 2.673500 0.000000
v 19.222000 0.727500 0.000000
v 20.190000 0.063500 0.000000
v 12.048000 -10.238500 0.000000
v 13.017000 -11.295500 0.000000
v 7.513000 -18.042500 0.000000
v 6.221000 -17.438500 0.000000
v 2.744000 -22.247500 0.000000
v -8.148000 -14.195500 0.000000
v 5.331000 3.018500 0.000000
v -20.657000 8.464500 0.000000
v -19.909000 12.296500 6.000000
v -21.378000 12.927500 6.000000
v -20.148000 18.678500 6.000000
v -18.268000 18.471500 6.000000
v -17.657000 21.986500 6.000000
v -11.315000 20.946500 6.000000
v -10.810000 22.247500 6.000000
v 3.104000 19.247500 6.000000
v 2.639000 17.907500 6.000000
v 16.834000 13.946500 6.000000
v 20.461000 10.669500 6.000000
v 21.378000 6.365500 6.000000
v 20.855000 2.673500 6.000000
v 19.222000 0.727500 6.000000
v 20.190000 0.063500 6.000000
v 12.048000 -10.238500 6.000000
v 13.017000 -11.295500 6.000000
v 7.513000 -18.042500 6.000000
v 6.221000 -17.438500 6.000000
v 2.744000 -22.247500 6.000000
v -8.148000 -14.195500 6.000000
v 5.331000 3.018500 6.000000
v -20.657000 8.464500 6.000000
vn 0.000000 0.000000 -1.000000
vn 0.000000 0.000000 -1.000000
vn 0.000000 0.000000 -1.000000
vn 0.000000 0.000000 -1.000000
vn 0.000000 0.000000 -1.000000
vn 0.000000 0.000000 -1.000000
vn 0.000000 0.000000 -1.000000
vn 0.000000 0.000000 -1.000000
vn 0.000000 0.000000 -1.000000
vn 0.000000 0.000000 -1.000000
vn 0.000000 0.000000 -1.000000
vn 0.000000 0.000000 -1.000000
vn 0.000000 0.000000 -1.000000
vn 0.000000 0.000000 -1.000000
vn 0.000000 -0.000000 -1.000000
vn 0.000000 0.000000 -1.000000
vn 0.000000 0.000000 -1.000000
vn -0.000000 0.000000 -1.000000
vn 0.000000 0.000000 -1.000000
vn -0.000000 0.000000 -1.000000
vn 0.000000 0.000000 -1.000000
vn 0.000000 0.000000 1.000000
vn 0.000000 -0.000000 1.000000
vn 0.000000 0.000000 1.000000
vn 0.000000 0.000000 1.000000
vn 0.000000 0.000000 1.000000
vn -0.000000 0.000000 1.000000
vn 0.000000 0.000000 1.000000
vn 0.000000 0.000000 1.000000
vn 0.000000 0.000000 1.000000
vn 0.000000 0.000000 1.000000
vn -0.000000 0.000000 1.000000
vn 0.000000 0.000000 1.000000
vn 0.000000 0.000000 1.000000
vn 0.000000 0.000000 1.000000
vn 0.000000 0.000000 1.000000
vn 0.000000 0.000000 1.000000
vn 0.000000 0.000000 1.000000
vn 0.000000 0.000000 1.000000
vn 0.000000 0.000000 1.000000
vn 0.000000 0.000000 1.000000
vn 0.000000 0.000000 1.000000
vn -0.394674 -0.918821 0.000000
vn -0.394674 -0.918821 0.000000
vn -0.977884 0.209146 0.000000
vn -0.977884 0.209146 0.000000
vn 0.109445 0.993993 0.000000
vn 0.109445 0.993993 -0.000000
vn -0.985226 0.171258 0.000000
vn -0.985226 0.171258 0.000000
vn 0.161825 0.986820 0.000000
vn 0.161825 0.986820 -0.000000
vn -0.932233 0.361858 0.000000
vn -0.932233 0.361858 0.000000
vn 0.210767 0.977536 0.000000
vn 0.210767 0.977536 -0.000000
vn 0.944734 -0.327837 0.000000
vn 0.944734 -0.327837 0.000000
vn 0.268774 0.963203 0.000000
vn 0.268774 0.963203 -0.000000
vn 0.670399 0.742001 0.000000
vn 0.670399 0.742001 -0.000000
vn 0.978048 0.208381 0.000000
vn 0.978048 0.208381 -0.000000
vn 0.990115 -0.140257 0.000000
vn 0.990115 -0.140257 0.000000
vn 0.766023 -0.642814 0.000000
vn 0.766023 -0.642814 0.000000
vn 0.565661 0.824638 0.000000
vn 0.565661 0.824638 -0.000000
vn 0.784555 -0.620059 0.000000
vn 0.784555 -0.620059 0.000000
vn 0.737125 0.675756 0.000000
vn 0.737125 0.675756 -0.000000
vn 0.774872 -0.632118 0.000000
vn 0.774872 -0.632118 0.000000
vn -0.423500 -0.905896 0.000000
vn -0.423500 -0.905896 0.000000
vn 0.810373 -0.585915 0.000000
vn 0.810373 -0.585915 0.000000
vn -0.594457 -0.804127 0.000000
vn -0.594457 -0.804127 0.000000
vn -0.787346 0.616512 0.000000
vn -0.787346 0.616512 0.000000
vn -0.205103 -0.978740 0.000000
vn -0.205103 -0.978740 0.000000
vn -0.981476 0.191583 0.000000
vn -0.981476 0.191583 0.000000
usemtl assumed_base
f 1//1 2//1 3//1
f 1//2 3//2 4//2
f 23//3 1//3 4//3
f 4//4 5//4 6//4
f 23//5 4//5 6//5
f 6//6 7//6 8//6
f 23//7 6//7 8//7
f 23//8 8//8 9//8
f 23//9 9//9 10//9
f 23//10 10//10 11//10
f 23//11 11//11 12//11
f 23//12 12//12 13//12
f 23//13 13//13 14//13
f 23//14 14//14 15//14
f 16//15 17//15 18//15
f 16//16 18//16 19//16
f 15//17 16//17 19//17
f 19//18 20//18 21//18
f 15//19 19//19 21//19
f 15//20 21//20 22//20
f 15//21 22//21 23//21
usemtl assumed_roof
f 24//22 26//22 25//22
f 24//23 27//23 26//23
f 46//24 27//24 24//24
f 27//25 29//25 28//25
f 46//26 29//26 27//26
f 29//27 31//27 30//27
f 46//28 31//28 29//28
f 46//29 32//29 31//29
f 46//30 33//30 32//30
f 46//31 34//31 33//31
f 46//32 35//32 34//32
f 46//33 36//33 35//33
f 46//34 37//34 36//34
f 46//35 38//35 37//35
f 39//36 41//36 40//36
f 39//37 42//37 41//37
f 38//38 42//38 39//38
f 42//39 44//39 43//39
f 38//40 44//40 42//40
f 38//41 45//41 44//41
f 38//42 46//42 45//42
usemtl assumed_wall
f 1//43 25//43 2//43
f 1//44 24//44 25//44
f 2//45 26//45 3//45
f 2//46 25//46 26//46
f 3//47 27//47 4//47
f 3//48 26//48 27//48
f 4//49 28//49 5//49
f 4//50 27//50 28//50
f 5//51 29//51 6//51
f 5//52 28//52 29//52
f 6//53 30//53 7//53
f 6//54 29//54 30//54
f 7//55 31//55 8//55
f 7//56 30//56 31//56
f 8//57 32//57 9//57
f 8//58 31//58 32//58
f 9//59 33//59 10//59
f 9//60 32//60 33//60
f 10//61 34//61 11//61
f 10//62 33//62 34//62
f 11//63 35//63 12//63
f 11//64 34//64 35//64
f 12//65 36//65 13//65
f 12//66 35//66 36//66
f 13//67 37//67 14//67
f 13//68 36//68 37//68
f 14//69 38//69 15//69
f 14//70 37//70 38//70
f 15//71 39//71 16//71
f 15//72 38//72 39//72
f 16//73 40//73 17//73
f 16//74 39//74 40//74
f 17//75 41//75 18//75
f 17//76 40//76 41//76
f 18//77 42//77 19//77
f 18//78 41//78 42//78
f 19//79 43//79 20//79
f 19//80 42//80 43//80
f 20//81 44//81 21//81
f 20//82 43//82 44//82
f 21//83 45//83 22//83
f 21//84 44//84 45//84
f 22//85 46//85 23//85
f 22//86 45//86 46//86
f 23//87 24//87 1//87
f 23//88 46//88 24//88
