# construction_1784_assumed_A_Casa
# source A_Casa
# h_campo 0.000000
# modeled_height 6.000000
# height_kind assumed
# local_origin_world_x 172001.034850
# local_origin_world_y 402500.144600
mtllib construction_artifacts.mtl

o construction_1784_assumed_A_Casa
v -0.532500 -13.396000 0.000000
v -3.982500 -13.935000 0.000000
v -7.810500 -11.810000 0.000000
v -11.647500 -11.524000 0.000000
v -11.875500 -13.315000 0.000000
v -16.815500 -12.878000 0.000000
v -15.450500 1.196000 0.000000
v -13.406500 5.455000 0.000000
v -9.528500 3.222000 0.000000
v -2.970500 13.615000 0.000000
v -0.967500 12.267000 0.000000
v 0.175500 13.935000 0.000000
v 7.832500 9.311000 0.000000
v 6.859500 7.319000 0.000000
v 9.896500 5.809000 0.000000
v 5.983500 -0.624000 0.000000
v 9.027500 -3.294000 0.000000
v 11.888500 1.088000 0.000000
v 16.815500 -2.576000 0.000000
v 12.462500 -9.494000 0.000000
v 8.543500 -6.976000 0.000000
v 5.177500 -12.354000 0.000000
v 4.556500 -12.150000 0.000000
v -0.532500 -13.396000 6.000000
v -3.982500 -13.935000 6.000000
v -7.810500 -11.810000 6.000000
v -11.647500 -11.524000 6.000000
v -11.875500 -13.315000 6.000000
v -16.815500 -12.878000 6.000000
v -15.450500 1.196000 6.000000
v -13.406500 5.455000 6.000000
v -9.528500 3.222000 6.000000
v -2.970500 13.615000 6.000000
v -0.967500 12.267000 6.000000
v 0.175500 13.935000 6.000000
v 7.832500 9.311000 6.000000
v 6.859500 7.319000 6.000000
v 9.896500 5.809000 6.000000
v 5.983500 -0.624000 6.000000
v 9.027500 -3.294000 6.000000
v 11.888500 1.088000 6.000000
v 16.815500 -2.576000 6.000000
v 12.462500 -9.494000 6.000000
v 8.543500 -6.976000 6.000000
v 5.177500 -12.354000 6.000000
v 4.556500 -12.150000 6.000000
vn 0.000000 0.000000 -1.000000
vn -0.000000 0.000000 -1.000000
vn 0.000000 0.000000 -1.000000
vn 0.000000 0.000000 -1.000000
vn -0.000000 0.000000 -1.000000
vn 0.000000 0.000000 -1.000000
vn 0.000000 0.000000 -1.000000
vn 0.000000 0.000000 -1.000000
vn 0.000000 0.000000 -1.000000
vn 0.000000 0.000000 -1.000000
vn 0.000000 0.000000 -1.000000
vn 0.000000 0.000000 -1.000000
vn 0.000000 0.000000 -1.000000
vn 0.000000 -0.000000 -1.000000
vn 0.000000 0.000000 -1.000000
vn 0.000000 0.000000 -1.000000
vn 0.000000 0.000000 -1.000000
vn 0.000000 0.000000 -1.000000
vn 0.000000 -0.000000 -1.000000
vn 0.000000 0.000000 -1.000000
vn 0.000000 0.000000 -1.000000
vn 0.000000 0.000000 1.000000
vn 0.000000 0.000000 1.000000
vn 0.000000 0.000000 1.000000
vn 0.000000 0.000000 1.000000
vn 0.000000 0.000000 1.000000
vn 0.000000 0.000000 1.000000
vn 0.000000 0.000000 1.000000
vn 0.000000 0.000000 1.000000
vn 0.000000 0.000000 1.000000
vn 0.000000 0.000000 1.000000
vn 0.000000 0.000000 1.000000
vn 0.000000 0.000000 1.000000
vn 0.000000 -0.000000 1.000000
vn 0.000000 0.000000 1.000000
vn 0.000000 0.000000 1.000000
vn 0.000000 0.000000 1.000000
vn 0.000000 0.000000 1.000000
vn 0.000000 0.000000 1.000000
vn 0.000000 0.000000 1.000000
vn 0.000000 0.000000 1.000000
vn 0.000000 0.000000 1.000000
vn 0.154359 -0.988015 0.000000
vn 0.154359 -0.988015 0.000000
vn -0.485352 -0.874319 0.000000
vn -0.485352 -0.874319 0.000000
vn -0.074331 -0.997234 0.000000
vn -0.074331 -0.997234 0.000000
vn 0.991994 -0.126284 0.000000
vn 0.991994 -0.126284 0.000000
vn -0.088117 -0.996110 0.000000
vn -0.088117 -0.996110 0.000000
vn -0.995330 0.096534 0.000000
vn -0.995330 0.096534 0.000000
vn -0.901549 0.432676 0.000000
vn -0.901549 0.432676 0.000000
vn 0.499000 0.866602 0.000000
vn 0.499000 0.866602 -0.000000
vn -0.845709 0.533644 0.000000
vn -0.845709 0.533644 0.000000
vn 0.558327 0.829621 0.000000
vn 0.558327 0.829621 -0.000000
vn -0.824907 0.565269 0.000000
vn -0.824907 0.565269 0.000000
vn 0.516943 0.856020 0.000000
vn 0.516943 0.856020 -0.000000
vn 0.898539 -0.438895 0.000000
vn 0.898539 -0.438895 0.000000
vn 0.445208 0.895427 0.000000
vn 0.445208 0.895427 -0.000000
vn 0.854360 -0.519681 0.000000
vn 0.854360 -0.519681 0.000000
vn 0.659413 0.751781 0.000000
vn 0.659413 0.751781 -0.000000
vn -0.837333 0.546693 0.000000
vn -0.837333 0.546693 0.000000
vn 0.596738 0.802436 0.000000
vn 0.596738 0.802436 -0.000000
vn 0.846386 -0.532570 0.000000
vn 0.846386 -0.532570 0.000000
vn -0.540551 -0.841311 0.000000
vn -0.540551 -0.841311 0.000000
vn 0.847662 -0.530537 0.000000
vn 0.847662 -0.530537 0.000000
vn -0.312094 -0.950051 0.000000
vn -0.312094 -0.950051 0.000000
vn 0.237817 -0.971310 0.000000
vn 0.237817 -0.971310 0.000000
usemtl assumed_base
f 23//1 1//1 2//1
f 23//2 2//2 3//2
f 23//3 3//3 4//3
f 4//4 5//4 6//4
f 4//5 6//5 7//5
f 23//6 4//6 7//6
f 23//7 7//7 8//7
f 23//8 8//8 9//8
f 23//9 9//9 10//9
f 23//10 10//10 11//10
f 23//11 11//11 12//11
f 12//12 13//12 14//12
f 23//13 12//13 14//13
f 14//14 15//14 16//14
f 23//15 14//15 16//15
f 23//16 16//16 17//16
f 23//17 17//17 18//17
f 18//18 19//18 20//18
f 18//19 20//19 21//19
f 23//20 18//20 21//20
f 21//21 22//21 23//21
usemtl assumed_roof
f 46//22 25//22 24//22
f 46//23 26//23 25//23
f 46//24 27//24 26//24
f 27//25 29//25 28//25
f 27//26 30//26 29//26
f 46//27 30//27 27//27
f 46//28 31//28 30//28
f 46//29 32//29 31//29
f 46//30 33//30 32//30
f 46//31 34//31 33//31
f 46//32 35//32 34//32
f 35//33 37//33 36//33
f 46//34 37//34 35//34
f 37//35 39//35 38//35
f 46//36 39//36 37//36
f 46//37 40//37 39//37
f 46//38 41//38 40//38
f 41//39 43//39 42//39
f 41//40 44//40 43//40
f 46//41 44//41 41//41
f 44//42 46//42 45//42
usemtl assumed_wall
f 1//43 25//43 2//43
f 1//44 24//44 25//44
f 2//45 26//45 3//45
f 2//46 25//46 26//46
f 3//47 27//47 4//47
f 3//48 26//48 27//48
f 4//49 28//49 5//49
f 4//50 27//50 28//50
f 5//51 29//51 6//51
f 5//52 28//52 29//52
f 6//53 30//53 7//53
f 6//54 29//54 30//54
f 7//55 31//55 8//55
f 7//56 30//56 31//56
f 8//57 32//57 9//57
f 8//58 31//58 32//58
f 9//59 33//59 10//59
f 9//60 32//60 33//60
f 10//61 34//61 11//61
f 10//62 33//62 34//62
f 11//63 35//63 12//63
f 11//64 34//64 35//64
f 12//65 36//65 13//65
f 12//66 35//66 36//66
f 13//67 37//67 14//67
f 13//68 36//68 37//68
f 14//69 38//69 15//69
f 14//70 37//70 38//70
f 15//71 39//71 16//71
f 15//72 38//72 39//72
f 16//73 40//73 17//73
f 16//74 39//74 40//74
f 17//75 41//75 18//75
f 17//76 40//76 41//76
f 18//77 42//77 19//77
f 18//78 41//78 42//78
f 19//79 43//79 20//79
f 19//80 42//80 43//80
f 20//81 44//81 21//81
f 20//82 43//82 44//82
f 21//83 45//83 22//83
f 21//84 44//84 45//84
f 22//85 46//85 23//85
f 22//86 45//86 46//86
f 23//87 24//87 1//87
f 23//88 46//88 24//88
