# construction_3664_assumed_A_Casa
# source A_Casa
# h_campo 0.000000
# modeled_height 6.000000
# height_kind assumed
# local_origin_world_x 172001.034850
# local_origin_world_y 402500.144600
mtllib construction_artifacts.mtl

o construction_3664_assumed_A_Casa
v -16.749500 0.918500 0.000000
v 0.995500 14.091500 0.000000
v 4.234500 9.322500 0.000000
v 1.841500 7.875500 0.000000
v 3.786500 2.428500 0.000000
v 12.800500 6.431500 0.000000
v 16.749500 -3.163500 0.000000
v -6.154500 -13.057500 0.000000
v -8.534500 -14.091500 0.000000
v -9.655500 -11.534500 0.000000
v -8.548500 -10.953500 0.000000
v -16.749500 0.918500 6.000000
v 0.995500 14.091500 6.000000
v 4.234500 9.322500 6.000000
v 1.841500 7.875500 6.000000
v 3.786500 2.428500 6.000000
v 12.800500 6.431500 6.000000
v 16.749500 -3.163500 6.000000
v -6.154500 -13.057500 6.000000
v -8.534500 -14.091500 6.000000
v -9.655500 -11.534500 6.000000
v -8.548500 -10.953500 6.000000
vn 0.000000 0.000000 -1.000000
vn 0.000000 0.000000 -1.000000
vn 0.000000 0.000000 -1.000000
vn 0.000000 0.000000 -1.000000
vn 0.000000 0.000000 -1.000000
vn 0.000000 0.000000 -1.000000
vn 0.000000 0.000000 -1.000000
vn 0.000000 0.000000 -1.000000
vn 0.000000 0.000000 -1.000000
vn 0.000000 -0.000000 1.000000
vn 0.000000 0.000000 1.000000
vn 0.000000 0.000000 1.000000
vn 0.000000 0.000000 1.000000
vn 0.000000 0.000000 1.000000
vn 0.000000 0.000000 1.000000
vn -0.000000 0.000000 1.000000
vn 0.000000 0.000000 1.000000
vn 0.000000 0.000000 1.000000
vn -0.596062 0.802939 0.000000
vn -0.596062 0.802939 0.000000
vn 0.827243 0.561845 0.000000
vn 0.827243 0.561845 -0.000000
vn 0.517438 -0.855721 0.000000
vn 0.517438 -0.855721 0.000000
vn 0.941761 0.336282 0.000000
vn 0.941761 0.336282 -0.000000
vn -0.405866 0.913933 0.000000
vn -0.405866 0.913933 0.000000
vn 0.924742 0.380595 0.000000
vn 0.924742 0.380595 -0.000000
vn 0.396559 -0.918009 0.000000
vn 0.396559 -0.918009 0.000000
vn 0.398472 -0.917180 0.000000
vn 0.398472 -0.917180 0.000000
vn -0.915853 -0.401514 0.000000
vn -0.915853 -0.401514 0.000000
vn -0.464724 0.885456 0.000000
vn -0.464724 0.885456 0.000000
vn -0.822778 -0.568363 0.000000
vn -0.822778 -0.568363 0.000000
usemtl assumed_base
f 11//1 1//1 2//1
f 2//2 3//2 4//2
f 11//3 2//3 4//3
f 11//4 4//4 5//4
f 11//5 5//5 6//5
f 11//6 6//6 7//6
f 11//7 7//7 8//7
f 11//8 8//8 9//8
f 9//9 10//9 11//9
usemtl assumed_roof
f 22//10 13//10 12//10
f 13//11 15//11 14//11
f 22//12 15//12 13//12
f 22//13 16//13 15//13
f 22//14 17//14 16//14
f 22//15 18//15 17//15
f 22//16 19//16 18//16
f 22//17 20//17 19//17
f 20//18 22//18 21//18
usemtl assumed_wall
f 1//19 13//19 2//19
f 1//20 12//20 13//20
f 2//21 14//21 3//21
f 2//22 13//22 14//22
f 3//23 15//23 4//23
f 3//24 14//24 15//24
f 4//25 16//25 5//25
f 4//26 15//26 16//26
f 5//27 17//27 6//27
f 5//28 16//28 17//28
f 6//29 18//29 7//29
f 6//30 17//30 18//30
f 7//31 19//31 8//31
f 7//32 18//32 19//32
f 8//33 20//33 9//33
f 8//34 19//34 20//34
f 9//35 21//35 10//35
f 9//36 20//36 21//36
f 10//37 22//37 11//37
f 10//38 21//38 22//38
f 11//39 12//39 1//39
f 11//40 22//40 12//40
