# construction_6465_assumed_A_Casa
# source A_Casa
# h_campo 0.000000
# modeled_height 6.000000
# height_kind assumed
# local_origin_world_x 172001.034850
# local_origin_world_y 402500.144600
mtllib construction_artifacts.mtl

o construction_6465_assumed_A_Casa
v -7.713500 -12.027500 0.000000
v -7.568500 -6.842500 0.000000
v -3.141500 -7.169500 0.000000
v -2.670500 2.471500 0.000000
v 1.489500 2.229500 0.000000
v 1.802500 6.950500 0.000000
v 0.635500 6.979500 0.000000
v 1.105500 14.498500 0.000000
v 4.295500 14.495500 0.000000
v 4.298500 17.432500 0.000000
v 7.713500 17.261500 0.000000
v 5.580500 -13.627500 0.000000
v 1.168500 -13.019500 0.000000
v 1.164500 -17.432500 0.000000
v -5.173500 -16.823500 0.000000
v -5.408500 -12.044500 0.000000
v -7.713500 -12.027500 6.000000
v -7.568500 -6.842500 6.000000
v -3.141500 -7.169500 6.000000
v -2.670500 2.471500 6.000000
v 1.489500 2.229500 6.000000
v 1.802500 6.950500 6.000000
v 0.635500 6.979500 6.000000
v 1.105500 14.498500 6.000000
v 4.295500 14.495500 6.000000
v 4.298500 17.432500 6.000000
v 7.713500 17.261500 6.000000
v 5.580500 -13.627500 6.000000
v 1.168500 -13.019500 6.000000
v 1.164500 -17.432500 6.000000
v -5.173500 -16.823500 6.000000
v -5.408500 -12.044500 6.000000
vn 0.000000 0.000000 -1.000000
vn 0.000000 0.000000 -1.000000
vn 0.000000 0.000000 -1.000000
vn 0.000000 0.000000 -1.000000
vn 0.000000 0.000000 -1.000000
vn 0.000000 0.000000 -1.000000
vn 0.000000 0.000000 -1.000000
vn 0.000000 0.000000 -1.000000
vn 0.000000 0.000000 -1.000000
vn 0.000000 0.000000 -1.000000
vn 0.000000 0.000000 -1.000000
vn 0.000000 0.000000 -1.000000
vn 0.000000 0.000000 -1.000000
vn 0.000000 0.000000 -1.000000
vn 0.000000 0.000000 1.000000
vn 0.000000 -0.000000 1.000000
vn 0.000000 0.000000 1.000000
vn 0.000000 0.000000 1.000000
vn 0.000000 0.000000 1.000000
vn 0.000000 -0.000000 1.000000
vn 0.000000 0.000000 1.000000
vn 0.000000 0.000000 1.000000
vn 0.000000 0.000000 1.000000
vn -0.000000 0.000000 1.000000
vn -0.000000 0.000000 1.000000
vn 0.000000 0.000000 1.000000
vn 0.000000 0.000000 1.000000
vn 0.000000 0.000000 1.000000
vn -0.999609 0.027954 0.000000
vn -0.999609 0.027954 0.000000
vn 0.073664 0.997283 0.000000
vn 0.073664 0.997283 -0.000000
vn -0.998809 0.048796 0.000000
vn -0.998809 0.048796 0.000000
vn 0.058075 0.998312 0.000000
vn 0.058075 0.998312 -0.000000
vn -0.997809 0.066154 0.000000
vn -0.997809 0.066154 0.000000
vn -0.024842 -0.999691 0.000000
vn -0.024842 -0.999691 0.000000
vn -0.998052 0.062387 0.000000
vn -0.998052 0.062387 0.000000
vn 0.000940 1.000000 0.000000
vn 0.000940 1.000000 -0.000000
vn -0.999999 0.001021 0.000000
vn -0.999999 0.001021 0.000000
vn 0.050011 0.998749 0.000000
vn 0.050011 0.998749 -0.000000
vn 0.997624 -0.068890 0.000000
vn 0.997624 -0.068890 0.000000
vn -0.136516 -0.990638 0.000000
vn -0.136516 -0.990638 0.000000
vn 1.000000 -0.000906 0.000000
vn 1.000000 -0.000906 0.000000
vn -0.095647 -0.995415 0.000000
vn -0.095647 -0.995415 0.000000
vn -0.998793 -0.049114 0.000000
vn -0.998793 -0.049114 0.000000
vn -0.007375 -0.999973 0.000000
vn -0.007375 -0.999973 0.000000
usemtl assumed_base
f 16//1 1//1 2//1
f 16//2 2//2 3//2
f 3//3 4//3 5//3
f 16//4 3//4 5//4
f 6//5 7//5 8//5
f 6//6 8//6 9//6
f 5//7 6//7 9//7
f 9//8 10//8 11//8
f 5//9 9//9 11//9
f 5//10 11//10 12//10
f 16//11 5//11 12//11
f 16//12 12//12 13//12
f 16//13 13//13 14//13
f 14//14 15//14 16//14
usemtl assumed_roof
f 32//15 18//15 17//15
f 32//16 19//16 18//16
f 19//17 21//17 20//17
f 32//18 21//18 19//18
f 22//19 24//19 23//19
f 22//20 25//20 24//20
f 21//21 25//21 22//21
f 25//22 27//22 26//22
f 21//23 27//23 25//23
f 21//24 28//24 27//24
f 32//25 28//25 21//25
f 32//26 29//26 28//26
f 32//27 30//27 29//27
f 30//28 32//28 31//28
usemtl assumed_wall
f 1//29 18//29 2//29
f 1//30 17//30 18//30
f 2//31 19//31 3//31
f 2//32 18//32 19//32
f 3//33 20//33 4//33
f 3//34 19//34 20//34
f 4//35 21//35 5//35
f 4//36 20//36 21//36
f 5//37 22//37 6//37
f 5//38 21//38 22//38
f 6//39 23//39 7//39
f 6//40 22//40 23//40
f 7//41 24//41 8//41
f 7//42 23//42 24//42
f 8//43 25//43 9//43
f 8//44 24//44 25//44
f 9//45 26//45 10//45
f 9//46 25//46 26//46
f 10//47 27//47 11//47
f 10//48 26//48 27//48
f 11//49 28//49 12//49
f 11//50 27//50 28//50
f 12//51 29//51 13//51
f 12//52 28//52 29//52
f 13//53 30//53 14//53
f 13//54 29//54 30//54
f 14//55 31//55 15//55
f 14//56 30//56 31//56
f 15//57 32//57 16//57
f 15//58 31//58 32//58
f 16//59 17//59 1//59
f 16//60 32//60 17//60
