# construction_3589_assumed_A_Casa
# source A_Casa
# h_campo 0.000000
# modeled_height 6.000000
# height_kind assumed
# local_origin_world_x 172001.034850
# local_origin_world_y 402500.144600
mtllib construction_artifacts.mtl

o construction_3589_assumed_A_Casa
v -15.454500 3.406500 0.000000
v 3.231500 15.380500 0.000000
v 6.924500 9.297500 0.000000
v 4.517500 7.316500 0.000000
v 8.812500 1.463500 0.000000
v 11.388500 2.612500 0.000000
v 15.454500 -3.366500 0.000000
v -3.064500 -15.380500 0.000000
v -15.454500 3.406500 6.000000
v 3.231500 15.380500 6.000000
v 6.924500 9.297500 6.000000
v 4.517500 7.316500 6.000000
v 8.812500 1.463500 6.000000
v 11.388500 2.612500 6.000000
v 15.454500 -3.366500 6.000000
v -3.064500 -15.380500 6.000000
vn 0.000000 0.000000 -1.000000
vn 0.000000 0.000000 -1.000000
vn 0.000000 0.000000 -1.000000
vn 0.000000 0.000000 -1.000000
vn 0.000000 0.000000 -1.000000
vn 0.000000 -0.000000 -1.000000
vn 0.000000 -0.000000 1.000000
vn 0.000000 0.000000 1.000000
vn 0.000000 0.000000 1.000000
vn 0.000000 0.000000 1.000000
vn 0.000000 0.000000 1.000000
vn 0.000000 0.000000 1.000000
vn -0.539532 0.841965 0.000000
vn -0.539532 0.841965 0.000000
vn 0.854803 0.518952 0.000000
vn 0.854803 0.518952 -0.000000
vn 0.635471 -0.772125 0.000000
vn 0.635471 -0.772125 0.000000
vn 0.806221 0.591614 0.000000
vn 0.806221 0.591614 -0.000000
vn -0.407355 0.913270 0.000000
vn -0.407355 0.913270 0.000000
vn 0.826908 0.562337 0.000000
vn 0.826908 0.562337 -0.000000
vn 0.544245 -0.838927 0.000000
vn 0.544245 -0.838927 0.000000
vn -0.834802 -0.550551 0.000000
vn -0.834802 -0.550551 0.000000
usemtl assumed_base
f 8//1 1//1 2//1
f 2//2 3//2 4//2
f 8//3 2//3 4//3
f 8//4 4//4 5//4
f 8//5 5//5 6//5
f 6//6 7//6 8//6
usemtl assumed_roof
f 16//7 10//7 9//7
f 10//8 12//8 11//8
f 16//9 12//9 10//9
f 16//10 13//10 12//10
f 16//11 14//11 13//11
f 14//12 16//12 15//12
usemtl assumed_wall
f 1//13 10//13 2//13
f 1//14 9//14 10//14
f 2//15 11//15 3//15
f 2//16 10//16 11//16
f 3//17 12//17 4//17
f 3//18 11//18 12//18
f 4//19 13//19 5//19
f 4//20 12//20 13//20
f 5//21 14//21 6//21
f 5//22 13//22 14//22
f 6//23 15//23 7//23
f 6//24 14//24 15//24
f 7//25 16//25 8//25
f 7//26 15//26 16//26
f 8//27 9//27 1//27
f 8//28 16//28 9//28
