# construction_4031_assumed_A_Casa
# source A_Casa
# h_campo 0.000000
# modeled_height 6.000000
# height_kind assumed
# local_origin_world_x 172001.034850
# local_origin_world_y 402500.144600
mtllib construction_artifacts.mtl

o construction_4031_assumed_A_Casa
v -5.265500 2.722000 0.000000
v 3.576500 5.039000 0.000000
v 5.265500 -2.271000 0.000000
v -3.160500 -5.039000 0.000000
v -5.265500 2.722000 6.000000
v 3.576500 5.039000 6.000000
v 5.265500 -2.271000 6.000000
v -3.160500 -5.039000 6.000000
vn 0.000000 0.000000 -1.000000
vn 0.000000 -0.000000 -1.000000
vn 0.000000 -0.000000 1.000000
vn 0.000000 0.000000 1.000000
vn -0.253486 0.967339 0.000000
vn -0.253486 0.967339 0.000000
vn 0.974331 0.225122 0.000000
vn 0.974331 0.225122 -0.000000
vn 0.312098 -0.950050 0.000000
vn 0.312098 -0.950050 0.000000
vn -0.965130 -0.261770 0.000000
vn -0.965130 -0.261770 0.000000
usemtl assumed_base
f 4//1 1//1 2//1
f 2//2 3//2 4//2
usemtl assumed_roof
f 8//3 6//3 5//3
f 6//4 8//4 7//4
usemtl assumed_wall
f 1//5 6//5 2//5
f 1//6 5//6 6//6
f 2//7 7//7 3//7
f 2//8 6//8 7//8
f 3//9 8//9 4//9
f 3//10 7//10 8//10
f 4//11 5//11 1//11
f 4//12 8//12 5//12
