# construction_1710_assumed_A_Casa
# source A_Casa
# h_campo 0.000000
# modeled_height 6.000000
# height_kind assumed
# local_origin_world_x 172001.034850
# local_origin_world_y 402500.144600
mtllib construction_artifacts.mtl

o construction_1710_assumed_A_Casa
v -17.524000 9.929500 0.000000
v -12.344000 16.831500 0.000000
v -8.661000 13.928500 0.000000
v -11.701000 10.293500 0.000000
v -8.609000 7.662500 0.000000
v -9.634000 6.152500 0.000000
v -5.406000 2.652500 0.000000
v -2.952000 5.507500 0.000000
v 0.326000 3.221500 0.000000
v -0.642000 1.986500 0.000000
v 8.904000 -6.552500 0.000000
v 7.291000 -8.705500 0.000000
v 8.951000 -10.181500 0.000000
v 13.186000 -5.291500 0.000000
v 17.524000 -9.115500 0.000000
v 11.011000 -16.831500 0.000000
v -17.524000 9.929500 6.000000
v -12.344000 16.831500 6.000000
v -8.661000 13.928500 6.000000
v -11.701000 10.293500 6.000000
v -8.609000 7.662500 6.000000
v -9.634000 6.152500 6.000000
v -5.406000 2.652500 6.000000
v -2.952000 5.507500 6.000000
v 0.326000 3.221500 6.000000
v -0.642000 1.986500 6.000000
v 8.904000 -6.552500 6.000000
v 7.291000 -8.705500 6.000000
v 8.951000 -10.181500 6.000000
v 13.186000 -5.291500 6.000000
v 17.524000 -9.115500 6.000000
v 11.011000 -16.831500 6.000000
vn 0.000000 0.000000 -1.000000
vn 0.000000 0.000000 -1.000000
vn 0.000000 0.000000 -1.000000
vn 0.000000 0.000000 -1.000000
vn 0.000000 0.000000 -1.000000
vn 0.000000 0.000000 -1.000000
vn 0.000000 0.000000 -1.000000
vn 0.000000 0.000000 -1.000000
vn 0.000000 0.000000 -1.000000
vn 0.000000 0.000000 -1.000000
vn 0.000000 0.000000 -1.000000
vn 0.000000 0.000000 -1.000000
vn 0.000000 0.000000 -1.000000
vn 0.000000 -0.000000 -1.000000
vn 0.000000 0.000000 1.000000
vn 0.000000 0.000000 1.000000
vn -0.000000 0.000000 1.000000
vn 0.000000 0.000000 1.000000
vn 0.000000 0.000000 1.000000
vn 0.000000 0.000000 1.000000
vn 0.000000 0.000000 1.000000
vn 0.000000 0.000000 1.000000
vn 0.000000 0.000000 1.000000
vn 0.000000 0.000000 1.000000
vn 0.000000 0.000000 1.000000
vn 0.000000 0.000000 1.000000
vn 0.000000 -0.000000 1.000000
vn 0.000000 0.000000 1.000000
vn -0.799805 0.600260 0.000000
vn -0.799805 0.600260 0.000000
vn 0.619036 0.785363 0.000000
vn 0.619036 0.785363 -0.000000
vn 0.767096 -0.641533 0.000000
vn 0.767096 -0.641533 0.000000
vn 0.648049 0.761599 0.000000
vn 0.648049 0.761599 -0.000000
vn 0.827385 -0.561635 0.000000
vn 0.827385 -0.561635 0.000000
vn 0.637672 0.770308 0.000000
vn 0.637672 0.770308 -0.000000
vn -0.758356 0.651841 0.000000
vn -0.758356 0.651841 0.000000
vn 0.572017 0.820242 0.000000
vn 0.572017 0.820242 -0.000000
vn 0.787048 -0.616892 0.000000
vn 0.787048 -0.616892 0.000000
vn 0.666701 0.745325 0.000000
vn 0.666701 0.745325 -0.000000
vn 0.800312 -0.599584 0.000000
vn 0.800312 -0.599584 0.000000
vn 0.664476 0.747310 0.000000
vn 0.664476 0.747310 -0.000000
vn -0.755919 0.654666 0.000000
vn -0.755919 0.654666 0.000000
vn 0.661267 0.750151 0.000000
vn 0.661267 0.750151 -0.000000
vn 0.764163 -0.645023 0.000000
vn 0.764163 -0.645023 0.000000
vn -0.684070 -0.729417 0.000000
vn -0.684070 -0.729417 0.000000
usemtl assumed_base
f 1//1 2//1 3//1
f 1//2 3//2 4//2
f 1//3 4//3 5//3
f 1//4 5//4 6//4
f 16//5 1//5 6//5
f 16//6 6//6 7//6
f 16//7 7//7 8//7
f 8//8 9//8 10//8
f 16//9 8//9 10//9
f 10//10 11//10 12//10
f 16//11 10//11 12//11
f 16//12 12//12 13//12
f 16//13 13//13 14//13
f 14//14 15//14 16//14
usemtl assumed_roof
f 17//15 19//15 18//15
f 17//16 20//16 19//16
f 17//17 21//17 20//17
f 17//18 22//18 21//18
f 32//19 22//19 17//19
f 32//20 23//20 22//20
f 32//21 24//21 23//21
f 24//22 26//22 25//22
f 32//23 26//23 24//23
f 26//24 28//24 27//24
f 32//25 28//25 26//25
f 32//26 29//26 28//26
f 32//27 30//27 29//27
f 30//28 32//28 31//28
usemtl assumed_wall
f 1//29 18//29 2//29
f 1//30 17//30 18//30
f 2//31 19//31 3//31
f 2//32 18//32 19//32
f 3//33 20//33 4//33
f 3//34 19//34 20//34
f 4//35 21//35 5//35
f 4//36 20//36 21//36
f 5//37 22//37 6//37
f 5//38 21//38 22//38
f 6//39 23//39 7//39
f 6//40 22//40 23//40
f 7//41 24//41 8//41
f 7//42 23//42 24//42
f 8//43 25//43 9//43
f 8//44 24//44 25//44
f 9//45 26//45 10//45
f 9//46 25//46 26//46
f 10//47 27//47 11//47
f 10//48 26//48 27//48
f 11//49 28//49 12//49
f 11//50 27//50 28//50
f 12//51 29//51 13//51
f 12//52 28//52 29//52
f 13//53 30//53 14//53
f 13//54 29//54 30//54
f 14//55 31//55 15//55
f 14//56 30//56 31//56
f 15//57 32//57 16//57
f 15//58 31//58 32//58
f 16//59 17//59 1//59
f 16//60 32//60 17//60
