# construction_1517_assumed_A_Casa
# source A_Casa
# h_campo 0.000000
# modeled_height 6.000000
# height_kind assumed
# local_origin_world_x 172001.034850
# local_origin_world_y 402500.144600
mtllib construction_artifacts.mtl

o construction_1517_assumed_A_Casa
v 15.653500 -2.979500 0.000000
v 18.304500 -2.527500 0.000000
v 19.135500 -6.862500 0.000000
v 16.282500 -7.270500 0.000000
v 20.253500 -30.073500 0.000000
v 17.120500 -30.707500 0.000000
v 13.272500 -7.938500 0.000000
v 7.487500 -8.832500 0.000000
v 7.383500 -8.203500 0.000000
v -9.769500 -10.887500 0.000000
v -17.902500 -12.378500 0.000000
v -18.190500 -11.166500 0.000000
v -20.191500 -11.176500 0.000000
v -20.253500 -9.917500 0.000000
v -10.643500 -7.148500 0.000000
v -6.250500 -6.575500 0.000000
v -6.799500 -2.575500 0.000000
v -0.780500 -1.218500 0.000000
v -2.127500 7.285500 0.000000
v 3.655500 8.641500 0.000000
v 2.380500 16.268500 0.000000
v 3.109500 16.665500 0.000000
v 1.524500 27.776500 0.000000
v 2.943500 29.481500 0.000000
v 9.828500 30.707500 0.000000
v 10.567500 29.081500 0.000000
v 12.503500 15.285500 0.000000
v 13.189500 15.244500 0.000000
v 14.108500 11.426500 0.000000
v 13.152500 11.421500 0.000000
v 13.674500 6.083500 0.000000
v 14.584500 6.098500 0.000000
v 15.150500 3.111500 0.000000
v 14.319500 2.915500 0.000000
v 14.608500 1.444500 0.000000
v 15.282500 1.448500 0.000000
v 15.653500 -2.979500 6.000000
v 18.304500 -2.527500 6.000000
v 19.135500 -6.862500 6.000000
v 16.282500 -7.270500 6.000000
v 20.253500 -30.073500 6.000000
v 17.120500 -30.707500 6.000000
v 13.272500 -7.938500 6.000000
v 7.487500 -8.832500 6.000000
v 7.383500 -8.203500 6.000000
v -9.769500 -10.887500 6.000000
v -17.902500 -12.378500 6.000000
v -18.190500 -11.166500 6.000000
v -20.191500 -11.176500 6.000000
v -20.253500 -9.917500 6.000000
v -10.643500 -7.148500 6.000000
v -6.250500 -6.575500 6.000000
v -6.799500 -2.575500 6.000000
v -0.780500 -1.218500 6.000000
v -2.127500 7.285500 6.000000
v 3.655500 8.641500 6.000000
v 2.380500 16.268500 6.000000
v 3.109500 16.665500 6.000000
v 1.524500 27.776500 6.000000
v 2.943500 29.481500 6.000000
v 9.828500 30.707500 6.000000
v 10.567500 29.081500 6.000000
v 12.503500 15.285500 6.000000
v 13.189500 15.244500 6.000000
v 14.108500 11.426500 6.000000
v 13.152500 11.421500 6.000000
v 13.674500 6.083500 6.000000
v 14.584500 6.098500 6.000000
v 15.150500 3.111500 6.000000
v 14.319500 2.915500 6.000000
v 14.608500 1.444500 6.000000
v 15.282500 1.448500 6.000000
vn 0.000000 0.000000 -1.000000
vn 0.000000 0.000000 -1.000000
vn 0.000000 0.000000 -1.000000
vn 0.000000 0.000000 -1.000000
vn 0.000000 0.000000 -1.000000
vn 0.000000 -0.000000 -1.000000
vn 0.000000 0.000000 -1.000000
vn 0.000000 0.000000 -1.000000
vn 0.000000 0.000000 -1.000000
vn 0.000000 0.000000 -1.000000
vn 0.000000 0.000000 -1.000000
vn -0.000000 0.000000 -1.000000
vn 0.000000 0.000000 -1.000000
vn 0.000000 0.000000 -1.000000
vn 0.000000 0.000000 -1.000000
vn 0.000000 0.000000 -1.000000
vn 0.000000 0.000000 -1.000000
vn 0.000000 0.000000 -1.000000
vn 0.000000 0.000000 -1.000000
vn 0.000000 0.000000 -1.000000
vn 0.000000 0.000000 -1.000000
vn 0.000000 0.000000 -1.000000
vn 0.000000 0.000000 -1.000000
vn 0.000000 0.000000 -1.000000
vn 0.000000 0.000000 -1.000000
vn 0.000000 0.000000 -1.000000
vn 0.000000 -0.000000 -1.000000
vn 0.000000 0.000000 -1.000000
vn 0.000000 0.000000 -1.000000
vn 0.000000 0.000000 -1.000000
vn 0.000000 -0.000000 -1.000000
vn 0.000000 0.000000 -1.000000
vn 0.000000 0.000000 -1.000000
vn 0.000000 0.000000 -1.000000
vn -0.000000 0.000000 1.000000
vn 0.000000 0.000000 1.000000
vn 0.000000 0.000000 1.000000
vn 0.000000 0.000000 1.000000
vn 0.000000 0.000000 1.000000
vn 0.000000 0.000000 1.000000
vn 0.000000 0.000000 1.000000
vn 0.000000 0.000000 1.000000
vn 0.000000 0.000000 1.000000
vn 0.000000 0.000000 1.000000
vn 0.000000 0.000000 1.000000
vn 0.000000 0.000000 1.000000
vn 0.000000 -0.000000 1.000000
vn 0.000000 0.000000 1.000000
vn 0.000000 0.000000 1.000000
vn 0.000000 0.000000 1.000000
vn 0.000000 0.000000 1.000000
vn 0.000000 -0.000000 1.000000
vn 0.000000 0.000000 1.000000
vn 0.000000 0.000000 1.000000
vn 0.000000 0.000000 1.000000
vn 0.000000 -0.000000 1.000000
vn 0.000000 0.000000 1.000000
vn 0.000000 0.000000 1.000000
vn 0.000000 0.000000 1.000000
vn 0.000000 0.000000 1.000000
vn 0.000000 0.000000 1.000000
vn 0.000000 0.000000 1.000000
vn 0.000000 0.000000 1.000000
vn 0.000000 0.000000 1.000000
vn 0.000000 0.000000 1.000000
vn 0.000000 0.000000 1.000000
vn 0.000000 0.000000 1.000000
vn 0.000000 0.000000 1.000000
vn -0.168076 0.985774 0.000000
vn -0.168076 0.985774 0.000000
vn 0.982118 0.188268 0.000000
vn 0.982118 0.188268 -0.000000
vn 0.141567 -0.989929 0.000000
vn 0.141567 -0.989929 0.000000
vn 0.985173 0.171562 0.000000
vn 0.985173 0.171562 -0.000000
vn 0.198342 -0.980133 0.000000
vn 0.198342 -0.980133 0.000000
vn -0.986018 -0.166639 0.000000
vn -0.986018 -0.166639 0.000000
vn 0.152725 -0.988269 0.000000
vn 0.152725 -0.988269 0.000000
vn -0.986605 -0.163127 0.000000
vn -0.986605 -0.163127 0.000000
vn 0.154593 -0.987978 0.000000
vn 0.154593 -0.987978 0.000000
vn 0.180322 -0.983608 0.000000
vn 0.180322 -0.983608 0.000000
vn -0.972909 -0.231186 0.000000
vn -0.972909 -0.231186 0.000000
vn 0.004997 -0.999988 0.000000
vn 0.004997 -0.999988 0.000000
vn -0.998790 -0.049186 0.000000
vn -0.998790 -0.049186 0.000000
vn -0.276873 0.960907 0.000000
vn -0.276873 0.960907 0.000000
vn -0.129339 0.991600 0.000000
vn -0.129339 0.991600 0.000000
vn -0.990712 -0.135975 0.000000
vn -0.990712 -0.135975 0.000000
vn -0.219933 0.975515 0.000000
vn -0.219933 0.975515 0.000000
vn -0.987687 -0.156446 0.000000
vn -0.987687 -0.156446 0.000000
vn -0.228289 0.973594 0.000000
vn -0.228289 0.973594 0.000000
vn -0.986313 -0.164881 0.000000
vn -0.986313 -0.164881 0.000000
vn -0.478261 0.878218 0.000000
vn -0.478261 0.878218 0.000000
vn -0.989978 -0.141222 0.000000
vn -0.989978 -0.141222 0.000000
vn -0.768628 0.639697 0.000000
vn -0.768628 0.639697 0.000000
vn -0.175311 0.984513 0.000000
vn -0.175311 0.984513 0.000000
vn 0.910386 0.413761 0.000000
vn 0.910386 0.413761 -0.000000
vn 0.990297 0.138969 0.000000
vn 0.990297 0.138969 -0.000000
vn 0.059660 0.998219 0.000000
vn 0.059660 0.998219 -0.000000
vn 0.972232 0.234018 0.000000
vn 0.972232 0.234018 -0.000000
vn 0.005230 -0.999986 0.000000
vn 0.005230 -0.999986 0.000000
vn 0.995253 0.097325 0.000000
vn 0.995253 0.097325 -0.000000
vn -0.016481 0.999864 0.000000
vn -0.016481 0.999864 0.000000
vn 0.982517 0.186175 0.000000
vn 0.982517 0.186175 -0.000000
vn 0.229562 -0.973294 0.000000
vn 0.229562 -0.973294 0.000000
vn 0.981242 0.192780 0.000000
vn 0.981242 0.192780 -0.000000
vn -0.005935 0.999982 0.000000
vn -0.005935 0.999982 0.000000
vn 0.996508 0.083492 0.000000
vn 0.996508 0.083492 -0.000000
usemtl assumed_base
f 1//1 2//1 3//1
f 1//2 3//2 4//2
f 4//3 5//3 6//3
f 1//4 4//4 6//4
f 36//5 1//5 6//5
f 36//6 6//6 7//6
f 36//7 7//7 8//7
f 36//8 8//8 9//8
f 36//9 9//9 10//9
f 36//10 10//10 11//10
f 36//11 11//11 12//11
f 12//12 13//12 14//12
f 12//13 14//13 15//13
f 12//14 15//14 16//14
f 36//15 12//15 16//15
f 36//16 16//16 17//16
f 36//17 17//17 18//17
f 18//18 19//18 20//18
f 20//19 21//19 22//19
f 22//20 23//20 24//20
f 20//21 22//21 24//21
f 20//22 24//22 25//22
f 20//23 25//23 26//23
f 20//24 26//24 27//24
f 18//25 20//25 27//25
f 18//26 27//26 28//26
f 28//27 29//27 30//27
f 18//28 28//28 30//28
f 18//29 30//29 31//29
f 18//30 31//30 32//30
f 32//31 33//31 34//31
f 18//32 32//32 34//32
f 18//33 34//33 35//33
f 18//34 35//34 36//34
usemtl assumed_roof
f 37//35 39//35 38//35
f 37//36 40//36 39//36
f 40//37 42//37 41//37
f 37//38 42//38 40//38
f 72//39 42//39 37//39
f 72//40 43//40 42//40
f 72//41 44//41 43//41
f 72//42 45//42 44//42
f 72//43 46//43 45//43
f 72//44 47//44 46//44
f 72//45 48//45 47//45
f 48//46 50//46 49//46
f 48//47 51//47 50//47
f 48//48 52//48 51//48
f 72//49 52//49 48//49
f 72//50 53//50 52//50
f 72//51 54//51 53//51
f 54//52 56//52 55//52
f 56//53 58//53 57//53
f 58//54 60//54 59//54
f 56//55 60//55 58//55
f 56//56 61//56 60//56
f 56//57 62//57 61//57
f 56//58 63//58 62//58
f 54//59 63//59 56//59
f 54//60 64//60 63//60
f 64//61 66//61 65//61
f 54//62 66//62 64//62
f 54//63 67//63 66//63
f 54//64 68//64 67//64
f 68//65 70//65 69//65
f 54//66 70//66 68//66
f 54//67 71//67 70//67
f 54//68 72//68 71//68
usemtl assumed_wall
f 1//69 38//69 2//69
f 1//70 37//70 38//70
f 2//71 39//71 3//71
f 2//72 38//72 39//72
f 3//73 40//73 4//73
f 3//74 39//74 40//74
f 4//75 41//75 5//75
f 4//76 40//76 41//76
f 5//77 42//77 6//77
f 5//78 41//78 42//78
f 6//79 43//79 7//79
f 6//80 42//80 43//80
f 7//81 44//81 8//81
f 7//82 43//82 44//82
f 8//83 45//83 9//83
f 8//84 44//84 45//84
f 9//85 46//85 10//85
f 9//86 45//86 46//86
f 10//87 47//87 11//87
f 10//88 46//88 47//88
f 11//89 48//89 12//89
f 11//90 47//90 48//90
f 12//91 49//91 13//91
f 12//92 48//92 49//92
f 13//93 50//93 14//93
f 13//94 49//94 50//94
f 14//95 51//95 15//95
f 14//96 50//96 51//96
f 15//97 52//97 16//97
f 15//98 51//98 52//98
f 16//99 53//99 17//99
f 16//100 52//100 53//100
f 17//101 54//101 18//101
f 17//102 53//102 54//102
f 18//103 55//103 19//103
f 18//104 54//104 55//104
f 19//105 56//105 20//105
f 19//106 55//106 56//106
f 20//107 57//107 21//107
f 20//108 56//108 57//108
f 21//109 58//109 22//109
f 21//110 57//110 58//110
f 22//111 59//111 23//111
f 22//112 58//112 59//112
f 23//113 60//113 24//113
f 23//114 59//114 60//114
f 24//115 61//115 25//115
f 24//116 60//116 61//116
f 25//117 62//117 26//117
f 25//118 61//118 62//118
f 26//119 63//119 27//119
f 26//120 62//120 63//120
f 27//121 64//121 28//121
f 27//122 63//122 64//122
f 28//123 65//123 29//123
f 28//124 64//124 65//124
f 29//125 66//125 30//125
f 29//126 65//126 66//126
f 30//127 67//127 31//127
f 30//128 66//128 67//128
f 31//129 68//129 32//129
f 31//130 67//130 68//130
f 32//131 69//131 33//131
f 32//132 68//132 69//132
f 33//133 70//133 34//133
f 33//134 69//134 70//134
f 34//135 71//135 35//135
f 34//136 70//136 71//136
f 35//137 72//137 36//137
f 35//138 71//138 72//138
f 36//139 37//139 1//139
f 36//140 72//140 37//140
