# construction_6699_assumed_A_Casa
# source A_Casa
# h_campo 0.000000
# modeled_height 6.000000
# height_kind assumed
# local_origin_world_x 172001.034850
# local_origin_world_y 402500.144600
mtllib construction_artifacts.mtl

o construction_6699_assumed_A_Casa
v 7.220500 1.450500 0.000000
v 11.263500 -2.627500 0.000000
v 5.438500 -8.010500 0.000000
v 2.436500 -9.585500 0.000000
v -3.859500 -3.327500 0.000000
v -5.235500 -4.733500 0.000000
v -11.263500 1.930500 0.000000
v -1.488500 9.585500 0.000000
v 6.692500 0.865500 0.000000
v 7.220500 1.450500 6.000000
v 11.263500 -2.627500 6.000000
v 5.438500 -8.010500 6.000000
v 2.436500 -9.585500 6.000000
v -3.859500 -3.327500 6.000000
v -5.235500 -4.733500 6.000000
v -11.263500 1.930500 6.000000
v -1.488500 9.585500 6.000000
v 6.692500 0.865500 6.000000
vn 0.000000 0.000000 -1.000000
vn 0.000000 -0.000000 -1.000000
vn 0.000000 0.000000 -1.000000
vn 0.000000 0.000000 -1.000000
vn -0.000000 0.000000 -1.000000
vn -0.000000 0.000000 -1.000000
vn 0.000000 0.000000 -1.000000
vn -0.000000 0.000000 1.000000
vn 0.000000 0.000000 1.000000
vn 0.000000 0.000000 1.000000
vn 0.000000 0.000000 1.000000
vn 0.000000 0.000000 1.000000
vn 0.000000 0.000000 1.000000
vn -0.000000 0.000000 1.000000
vn 0.710148 0.704053 0.000000
vn 0.710148 0.704053 -0.000000
vn 0.678694 -0.734421 0.000000
vn 0.678694 -0.734421 0.000000
vn 0.464591 -0.885525 0.000000
vn 0.464591 -0.885525 0.000000
vn -0.704963 -0.709244 0.000000
vn -0.704963 -0.709244 0.000000
vn 0.714690 -0.699441 0.000000
vn 0.714690 -0.699441 0.000000
vn -0.741610 -0.670832 0.000000
vn -0.741610 -0.670832 0.000000
vn -0.616558 0.787310 0.000000
vn -0.616558 0.787310 0.000000
vn 0.729287 0.684208 0.000000
vn 0.729287 0.684208 -0.000000
vn -0.742347 0.670016 0.000000
vn -0.742347 0.670016 0.000000
usemtl assumed_base
f 9//1 1//1 2//1
f 9//2 2//2 3//2
f 9//3 3//3 4//3
f 9//4 4//4 5//4
f 5//5 6//5 7//5
f 9//6 5//6 7//6
f 7//7 8//7 9//7
usemtl assumed_roof
f 18//8 11//8 10//8
f 18//9 12//9 11//9
f 18//10 13//10 12//10
f 18//11 14//11 13//11
f 14//12 16//12 15//12
f 18//13 16//13 14//13
f 16//14 18//14 17//14
usemtl assumed_wall
f 1//15 11//15 2//15
f 1//16 10//16 11//16
f 2//17 12//17 3//17
f 2//18 11//18 12//18
f 3//19 13//19 4//19
f 3//20 12//20 13//20
f 4//21 14//21 5//21
f 4//22 13//22 14//22
f 5//23 15//23 6//23
f 5//24 14//24 15//24
f 6//25 16//25 7//25
f 6//26 15//26 16//26
f 7//27 17//27 8//27
f 7//28 16//28 17//28
f 8//29 18//29 9//29
f 8//30 17//30 18//30
f 9//31 10//31 1//31
f 9//32 18//32 10//32
