# construction_2584_assumed_A_Casa
# source A_Casa
# h_campo 0.000000
# modeled_height 6.000000
# height_kind assumed
# local_origin_world_x 172001.034850
# local_origin_world_y 402500.144600
mtllib construction_artifacts.mtl

o construction_2584_assumed_A_Casa
v -5.063000 -9.550000 0.000000
v -3.944000 -5.067000 0.000000
v -4.353000 -1.761000 0.000000
v -0.696000 0.642000 0.000000
v -5.458000 9.363000 0.000000
v -2.496000 11.455000 0.000000
v 5.168000 -3.007000 0.000000
v 2.899000 -4.001000 0.000000
v 5.458000 -8.369000 0.000000
v 0.335000 -11.455000 0.000000
v 0.333000 -10.728000 0.000000
v -5.063000 -9.550000 6.000000
v -3.944000 -5.067000 6.000000
v -4.353000 -1.761000 6.000000
v -0.696000 0.642000 6.000000
v -5.458000 9.363000 6.000000
v -2.496000 11.455000 6.000000
v 5.168000 -3.007000 6.000000
v 2.899000 -4.001000 6.000000
v 5.458000 -8.369000 6.000000
v 0.335000 -11.455000 6.000000
v 0.333000 -10.728000 6.000000
vn 0.000000 0.000000 -1.000000
vn 0.000000 0.000000 -1.000000
vn 0.000000 0.000000 -1.000000
vn 0.000000 0.000000 -1.000000
vn 0.000000 0.000000 -1.000000
vn 0.000000 0.000000 -1.000000
vn 0.000000 0.000000 -1.000000
vn 0.000000 0.000000 -1.000000
vn 0.000000 0.000000 -1.000000
vn 0.000000 0.000000 1.000000
vn 0.000000 0.000000 1.000000
vn 0.000000 0.000000 1.000000
vn 0.000000 0.000000 1.000000
vn -0.000000 -0.000000 1.000000
vn 0.000000 0.000000 1.000000
vn 0.000000 -0.000000 1.000000
vn 0.000000 0.000000 1.000000
vn 0.000000 0.000000 1.000000
vn -0.970232 0.242179 0.000000
vn -0.970232 0.242179 0.000000
vn -0.992434 -0.122778 0.000000
vn -0.992434 -0.122778 0.000000
vn -0.549151 0.835723 0.000000
vn -0.549151 0.835723 0.000000
vn -0.877680 -0.479247 0.000000
vn -0.877680 -0.479247 0.000000
vn -0.576900 0.816815 0.000000
vn -0.576900 0.816815 0.000000
vn 0.883595 0.468253 0.000000
vn 0.883595 0.468253 -0.000000
vn 0.401264 -0.915963 0.000000
vn 0.401264 -0.915963 0.000000
vn 0.862832 0.505491 0.000000
vn 0.862832 0.505491 -0.000000
vn 0.515995 -0.856592 0.000000
vn 0.515995 -0.856592 0.000000
vn -0.999996 -0.002751 0.000000
vn -0.999996 -0.002751 0.000000
vn -0.213286 -0.976990 0.000000
vn -0.213286 -0.976990 0.000000
usemtl assumed_base
f 11//1 1//1 2//1
f 11//2 2//2 3//2
f 11//3 3//3 4//3
f 4//4 5//4 6//4
f 4//5 6//5 7//5
f 4//6 7//6 8//6
f 11//7 4//7 8//7
f 11//8 8//8 9//8
f 9//9 10//9 11//9
usemtl assumed_roof
f 22//10 13//10 12//10
f 22//11 14//11 13//11
f 22//12 15//12 14//12
f 15//13 17//13 16//13
f 15//14 18//14 17//14
f 15//15 19//15 18//15
f 22//16 19//16 15//16
f 22//17 20//17 19//17
f 20//18 22//18 21//18
usemtl assumed_wall
f 1//19 13//19 2//19
f 1//20 12//20 13//20
f 2//21 14//21 3//21
f 2//22 13//22 14//22
f 3//23 15//23 4//23
f 3//24 14//24 15//24
f 4//25 16//25 5//25
f 4//26 15//26 16//26
f 5//27 17//27 6//27
f 5//28 16//28 17//28
f 6//29 18//29 7//29
f 6//30 17//30 18//30
f 7//31 19//31 8//31
f 7//32 18//32 19//32
f 8//33 20//33 9//33
f 8//34 19//34 20//34
f 9//35 21//35 10//35
f 9//36 20//36 21//36
f 10//37 22//37 11//37
f 10//38 21//38 22//38
f 11//39 12//39 1//39
f 11//40 22//40 12//40
