# construction_5131_assumed_A_Casa
# source A_Casa
# h_campo 0.000000
# modeled_height 6.000000
# height_kind assumed
# local_origin_world_x 172001.034850
# local_origin_world_y 402500.144600
mtllib construction_artifacts.mtl

o construction_5131_assumed_A_Casa
v -4.512000 8.855000 0.000000
v -1.822000 8.120000 0.000000
v -1.753000 8.906000 0.000000
v 5.838000 7.063000 0.000000
v 5.844000 5.893000 0.000000
v 8.752000 5.140000 0.000000
v 5.608000 -8.906000 0.000000
v -8.752000 -5.380000 0.000000
v -4.512000 8.855000 6.000000
v -1.822000 8.120000 6.000000
v -1.753000 8.906000 6.000000
v 5.838000 7.063000 6.000000
v 5.844000 5.893000 6.000000
v 8.752000 5.140000 6.000000
v 5.608000 -8.906000 6.000000
v -8.752000 -5.380000 6.000000
vn 0.000000 0.000000 -1.000000
vn 0.000000 0.000000 -1.000000
vn 0.000000 0.000000 -1.000000
vn 0.000000 0.000000 -1.000000
vn 0.000000 0.000000 -1.000000
vn 0.000000 0.000000 -1.000000
vn 0.000000 0.000000 1.000000
vn -0.000000 0.000000 1.000000
vn 0.000000 0.000000 1.000000
vn 0.000000 0.000000 1.000000
vn 0.000000 0.000000 1.000000
vn 0.000000 0.000000 1.000000
vn 0.263573 0.964640 0.000000
vn 0.263573 0.964640 -0.000000
vn -0.996169 0.087450 0.000000
vn -0.996169 0.087450 0.000000
vn 0.235933 0.971769 0.000000
vn 0.235933 0.971769 -0.000000
vn 0.999987 0.005128 0.000000
vn 0.999987 0.005128 -0.000000
vn 0.250673 0.968072 0.000000
vn 0.250673 0.968072 -0.000000
vn 0.975852 -0.218431 0.000000
vn 0.975852 -0.218431 0.000000
vn -0.238460 -0.971152 0.000000
vn -0.238460 -0.971152 0.000000
vn -0.958390 0.285463 0.000000
vn -0.958390 0.285463 0.000000
usemtl assumed_base
f 8//1 1//1 2//1
f 2//2 3//2 4//2
f 8//3 2//3 4//3
f 8//4 4//4 5//4
f 8//5 5//5 6//5
f 6//6 7//6 8//6
usemtl assumed_roof
f 16//7 10//7 9//7
f 10//8 12//8 11//8
f 16//9 12//9 10//9
f 16//10 13//10 12//10
f 16//11 14//11 13//11
f 14//12 16//12 15//12
usemtl assumed_wall
f 1//13 10//13 2//13
f 1//14 9//14 10//14
f 2//15 11//15 3//15
f 2//16 10//16 11//16
f 3//17 12//17 4//17
f 3//18 11//18 12//18
f 4//19 13//19 5//19
f 4//20 12//20 13//20
f 5//21 14//21 6//21
f 5//22 13//22 14//22
f 6//23 15//23 7//23
f 6//24 14//24 15//24
f 7//25 16//25 8//25
f 7//26 15//26 16//26
f 8//27 9//27 1//27
f 8//28 16//28 9//28
