# construction_5737_assumed_A_Casa
# source A_Casa
# h_campo 0.000000
# modeled_height 6.000000
# height_kind assumed
# local_origin_world_x 172001.034850
# local_origin_world_y 402500.144600
mtllib construction_artifacts.mtl

o construction_5737_assumed_A_Casa
v -24.228500 -1.135500 0.000000
v -22.507500 7.009500 0.000000
v -15.676500 5.798500 0.000000
v -15.436500 7.461500 0.000000
v -10.098500 6.647500 0.000000
v -9.915500 7.771500 0.000000
v -5.758500 7.141500 0.000000
v -5.541500 8.264500 0.000000
v -0.034500 7.450500 0.000000
v 0.397500 9.169500 0.000000
v 4.598500 8.009500 0.000000
v 5.073500 9.189500 0.000000
v 11.252500 7.934500 0.000000
v 9.889500 -0.840500 0.000000
v 23.671500 2.997500 0.000000
v 24.228500 -2.466500 0.000000
v 21.978500 -3.044500 0.000000
v 22.774500 -7.892500 0.000000
v 16.621500 -9.189500 0.000000
v 15.679500 -4.656500 0.000000
v 1.301500 -8.426500 0.000000
v -3.968500 -7.590500 0.000000
v -3.511500 -5.006500 0.000000
v -24.228500 -1.135500 6.000000
v -22.507500 7.009500 6.000000
v -15.676500 5.798500 6.000000
v -15.436500 7.461500 6.000000
v -10.098500 6.647500 6.000000
v -9.915500 7.771500 6.000000
v -5.758500 7.141500 6.000000
v -5.541500 8.264500 6.000000
v -0.034500 7.450500 6.000000
v 0.397500 9.169500 6.000000
v 4.598500 8.009500 6.000000
v 5.073500 9.189500 6.000000
v 11.252500 7.934500 6.000000
v 9.889500 -0.840500 6.000000
v 23.671500 2.997500 6.000000
v 24.228500 -2.466500 6.000000
v 21.978500 -3.044500 6.000000
v 22.774500 -7.892500 6.000000
v 16.621500 -9.189500 6.000000
v 15.679500 -4.656500 6.000000
v 1.301500 -8.426500 6.000000
v -3.968500 -7.590500 6.000000
v -3.511500 -5.006500 6.000000
vn 0.000000 0.000000 -1.000000
vn 0.000000 0.000000 -1.000000
vn 0.000000 0.000000 -1.000000
vn 0.000000 0.000000 -1.000000
vn 0.000000 0.000000 -1.000000
vn 0.000000 0.000000 -1.000000
vn 0.000000 0.000000 -1.000000
vn 0.000000 0.000000 -1.000000
vn 0.000000 0.000000 -1.000000
vn 0.000000 0.000000 -1.000000
vn 0.000000 0.000000 -1.000000
vn 0.000000 0.000000 -1.000000
vn 0.000000 0.000000 -1.000000
vn 0.000000 0.000000 -1.000000
vn 0.000000 0.000000 -1.000000
vn 0.000000 0.000000 -1.000000
vn 0.000000 -0.000000 -1.000000
vn 0.000000 0.000000 -1.000000
vn 0.000000 0.000000 -1.000000
vn 0.000000 0.000000 -1.000000
vn 0.000000 0.000000 -1.000000
vn 0.000000 0.000000 1.000000
vn 0.000000 0.000000 1.000000
vn 0.000000 0.000000 1.000000
vn 0.000000 0.000000 1.000000
vn 0.000000 0.000000 1.000000
vn 0.000000 0.000000 1.000000
vn 0.000000 0.000000 1.000000
vn 0.000000 -0.000000 1.000000
vn 0.000000 0.000000 1.000000
vn 0.000000 0.000000 1.000000
vn -0.000000 0.000000 1.000000
vn 0.000000 0.000000 1.000000
vn 0.000000 0.000000 1.000000
vn 0.000000 0.000000 1.000000
vn 0.000000 0.000000 1.000000
vn 0.000000 0.000000 1.000000
vn 0.000000 0.000000 1.000000
vn 0.000000 0.000000 1.000000
vn 0.000000 0.000000 1.000000
vn -0.000000 0.000000 1.000000
vn 0.000000 0.000000 1.000000
vn -0.978398 0.206731 0.000000
vn -0.978398 0.206731 0.000000
vn 0.174558 0.984647 0.000000
vn 0.174558 0.984647 -0.000000
vn -0.989746 0.142838 0.000000
vn -0.989746 0.142838 0.000000
vn 0.150749 0.988572 0.000000
vn 0.150749 0.988572 -0.000000
vn -0.987004 0.160695 0.000000
vn -0.987004 0.160695 0.000000
vn 0.149841 0.988710 0.000000
vn 0.149841 0.988710 -0.000000
vn -0.981838 0.189723 0.000000
vn -0.981838 0.189723 0.000000
vn 0.146223 0.989252 0.000000
vn 0.146223 0.989252 -0.000000
vn -0.969843 0.243730 0.000000
vn -0.969843 0.243730 0.000000
vn 0.266164 0.963928 0.000000
vn 0.266164 0.963928 -0.000000
vn -0.927661 0.373423 0.000000
vn -0.927661 0.373423 0.000000
vn 0.199043 0.979991 0.000000
vn 0.199043 0.979991 -0.000000
vn 0.988151 -0.153487 0.000000
vn 0.988151 -0.153487 0.000000
vn -0.268271 0.963343 0.000000
vn -0.268271 0.963343 0.000000
vn 0.994844 0.101414 0.000000
vn 0.994844 0.101414 -0.000000
vn 0.248810 -0.968552 0.000000
vn 0.248810 -0.968552 0.000000
vn 0.986787 0.162022 0.000000
vn 0.986787 0.162022 -0.000000
vn 0.206259 -0.978497 0.000000
vn 0.206259 -0.978497 0.000000
vn -0.979083 -0.203463 0.000000
vn -0.979083 -0.203463 0.000000
vn 0.253632 -0.967301 0.000000
vn 0.253632 -0.967301 0.000000
vn -0.156675 -0.987650 0.000000
vn -0.156675 -0.987650 0.000000
vn -0.984718 0.174155 0.000000
vn -0.984718 0.174155 0.000000
vn -0.183673 -0.982987 0.000000
vn -0.183673 -0.982987 0.000000
usemtl assumed_base
f 23//1 1//1 2//1
f 23//2 2//2 3//2
f 23//3 3//3 4//3
f 23//4 4//4 5//4
f 23//5 5//5 6//5
f 23//6 6//6 7//6
f 23//7 7//7 8//7
f 23//8 8//8 9//8
f 9//9 10//9 11//9
f 23//10 9//10 11//10
f 11//11 12//11 13//11
f 23//12 11//12 13//12
f 23//13 13//13 14//13
f 23//14 14//14 15//14
f 23//15 15//15 16//15
f 23//16 16//16 17//16
f 17//17 18//17 19//17
f 17//18 19//18 20//18
f 23//19 17//19 20//19
f 23//20 20//20 21//20
f 21//21 22//21 23//21
usemtl assumed_roof
f 46//22 25//22 24//22
f 46//23 26//23 25//23
f 46//24 27//24 26//24
f 46//25 28//25 27//25
f 46//26 29//26 28//26
f 46//27 30//27 29//27
f 46//28 31//28 30//28
f 46//29 32//29 31//29
f 32//30 34//30 33//30
f 46//31 34//31 32//31
f 34//32 36//32 35//32
f 46//33 36//33 34//33
f 46//34 37//34 36//34
f 46//35 38//35 37//35
f 46//36 39//36 38//36
f 46//37 40//37 39//37
f 40//38 42//38 41//38
f 40//39 43//39 42//39
f 46//40 43//40 40//40
f 46//41 44//41 43//41
f 44//42 46//42 45//42
usemtl assumed_wall
f 1//43 25//43 2//43
f 1//44 24//44 25//44
f 2//45 26//45 3//45
f 2//46 25//46 26//46
f 3//47 27//47 4//47
f 3//48 26//48 27//48
f 4//49 28//49 5//49
f 4//50 27//50 28//50
f 5//51 29//51 6//51
f 5//52 28//52 29//52
f 6//53 30//53 7//53
f 6//54 29//54 30//54
f 7//55 31//55 8//55
f 7//56 30//56 31//56
f 8//57 32//57 9//57
f 8//58 31//58 32//58
f 9//59 33//59 10//59
f 9//60 32//60 33//60
f 10//61 34//61 11//61
f 10//62 33//62 34//62
f 11//63 35//63 12//63
f 11//64 34//64 35//64
f 12//65 36//65 13//65
f 12//66 35//66 36//66
f 13//67 37//67 14//67
f 13//68 36//68 37//68
f 14//69 38//69 15//69
f 14//70 37//70 38//70
f 15//71 39//71 16//71
f 15//72 38//72 39//72
f 16//73 40//73 17//73
f 16//74 39//74 40//74
f 17//75 41//75 18//75
f 17//76 40//76 41//76
f 18//77 42//77 19//77
f 18//78 41//78 42//78
f 19//79 43//79 20//79
f 19//80 42//80 43//80
f 20//81 44//81 21//81
f 20//82 43//82 44//82
f 21//83 45//83 22//83
f 21//84 44//84 45//84
f 22//85 46//85 23//85
f 22//86 45//86 46//86
f 23//87 24//87 1//87
f 23//88 46//88 24//88
