# construction_0848_assumed_A_Casa
# source A_Casa
# h_campo 0.000000
# modeled_height 6.000000
# height_kind assumed
# local_origin_world_x 172001.034850
# local_origin_world_y 402500.144600
mtllib construction_artifacts.mtl

o construction_0848_assumed_A_Casa
v -26.913000 15.319500 0.000000
v -20.909000 18.443500 0.000000
v -19.066000 15.493500 0.000000
v -14.072000 17.961500 0.000000
v -10.884000 12.991500 0.000000
v 0.426000 0.224500 0.000000
v 2.961000 1.886500 0.000000
v 5.988000 -2.038500 0.000000
v 22.469000 7.833500 0.000000
v 26.913000 0.698500 0.000000
v 6.603000 -10.681500 0.000000
v -7.549000 -18.443500 0.000000
v -9.931000 -15.517500 0.000000
v 3.109000 -8.231500 0.000000
v -15.362000 7.489500 0.000000
v -16.938000 11.250500 0.000000
v -22.943000 8.306500 0.000000
v -26.913000 15.319500 6.000000
v -20.909000 18.443500 6.000000
v -19.066000 15.493500 6.000000
v -14.072000 17.961500 6.000000
v -10.884000 12.991500 6.000000
v 0.426000 0.224500 6.000000
v 2.961000 1.886500 6.000000
v 5.988000 -2.038500 6.000000
v 22.469000 7.833500 6.000000
v 26.913000 0.698500 6.000000
v 6.603000 -10.681500 6.000000
v -7.549000 -18.443500 6.000000
v -9.931000 -15.517500 6.000000
v 3.109000 -8.231500 6.000000
v -15.362000 7.489500 6.000000
v -16.938000 11.250500 6.000000
v -22.943000 8.306500 6.000000
vn 0.000000 0.000000 -1.000000
vn 0.000000 0.000000 -1.000000
vn 0.000000 0.000000 -1.000000
vn 0.000000 0.000000 -1.000000
vn 0.000000 0.000000 -1.000000
vn 0.000000 0.000000 -1.000000
vn 0.000000 0.000000 -1.000000
vn 0.000000 0.000000 -1.000000
vn 0.000000 0.000000 -1.000000
vn -0.000000 0.000000 -1.000000
vn 0.000000 0.000000 -1.000000
vn 0.000000 -0.000000 -1.000000
vn 0.000000 -0.000000 -1.000000
vn 0.000000 0.000000 -1.000000
vn 0.000000 0.000000 -1.000000
vn 0.000000 -0.000000 1.000000
vn 0.000000 0.000000 1.000000
vn 0.000000 0.000000 1.000000
vn -0.000000 0.000000 1.000000
vn 0.000000 0.000000 1.000000
vn -0.000000 0.000000 1.000000
vn 0.000000 0.000000 1.000000
vn 0.000000 0.000000 1.000000
vn 0.000000 0.000000 1.000000
vn 0.000000 0.000000 1.000000
vn 0.000000 0.000000 1.000000
vn 0.000000 0.000000 1.000000
vn 0.000000 0.000000 1.000000
vn 0.000000 0.000000 1.000000
vn 0.000000 0.000000 1.000000
vn -0.461576 0.887101 0.000000
vn -0.461576 0.887101 0.000000
vn 0.848095 0.529844 0.000000
vn 0.848095 0.529844 -0.000000
vn -0.443044 0.896500 0.000000
vn -0.443044 0.896500 0.000000
vn 0.841717 0.539918 0.000000
vn 0.841717 0.539918 -0.000000
vn 0.748527 0.663104 0.000000
vn 0.748527 0.663104 -0.000000
vn -0.548289 0.836289 0.000000
vn -0.548289 0.836289 0.000000
vn 0.791866 0.610695 0.000000
vn 0.791866 0.610695 -0.000000
vn -0.513860 0.857874 0.000000
vn -0.513860 0.857874 0.000000
vn 0.848819 0.528683 0.000000
vn 0.848819 0.528683 -0.000000
vn 0.488813 -0.872389 0.000000
vn 0.488813 -0.872389 0.000000
vn 0.480891 -0.876780 0.000000
vn 0.480891 -0.876780 0.000000
vn -0.775514 -0.631331 0.000000
vn -0.775514 -0.631331 0.000000
vn -0.487767 0.872974 0.000000
vn -0.487767 0.872974 0.000000
vn -0.648143 -0.761519 0.000000
vn -0.648143 -0.761519 0.000000
vn -0.922299 -0.386478 0.000000
vn -0.922299 -0.386478 0.000000
vn 0.440202 -0.897899 0.000000
vn 0.440202 -0.897899 0.000000
vn -0.870237 -0.492634 0.000000
vn -0.870237 -0.492634 0.000000
usemtl assumed_base
f 17//1 1//1 2//1
f 17//2 2//2 3//2
f 17//3 3//3 4//3
f 6//4 7//4 8//4
f 8//5 9//5 10//5
f 8//6 10//6 11//6
f 6//7 8//7 11//7
f 5//8 6//8 11//8
f 11//9 12//9 13//9
f 11//10 13//10 14//10
f 5//11 11//11 14//11
f 5//12 14//12 15//12
f 4//13 5//13 15//13
f 4//14 15//14 16//14
f 4//15 16//15 17//15
usemtl assumed_roof
f 34//16 19//16 18//16
f 34//17 20//17 19//17
f 34//18 21//18 20//18
f 23//19 25//19 24//19
f 25//20 27//20 26//20
f 25//21 28//21 27//21
f 23//22 28//22 25//22
f 22//23 28//23 23//23
f 28//24 30//24 29//24
f 28//25 31//25 30//25
f 22//26 31//26 28//26
f 22//27 32//27 31//27
f 21//28 32//28 22//28
f 21//29 33//29 32//29
f 21//30 34//30 33//30
usemtl assumed_wall
f 1//31 19//31 2//31
f 1//32 18//32 19//32
f 2//33 20//33 3//33
f 2//34 19//34 20//34
f 3//35 21//35 4//35
f 3//36 20//36 21//36
f 4//37 22//37 5//37
f 4//38 21//38 22//38
f 5//39 23//39 6//39
f 5//40 22//40 23//40
f 6//41 24//41 7//41
f 6//42 23//42 24//42
f 7//43 25//43 8//43
f 7//44 24//44 25//44
f 8//45 26//45 9//45
f 8//46 25//46 26//46
f 9//47 27//47 10//47
f 9//48 26//48 27//48
f 10//49 28//49 11//49
f 10//50 27//50 28//50
f 11//51 29//51 12//51
f 11//52 28//52 29//52
f 12//53 30//53 13//53
f 12//54 29//54 30//54
f 13//55 31//55 14//55
f 13//56 30//56 31//56
f 14//57 32//57 15//57
f 14//58 31//58 32//58
f 15//59 33//59 16//59
f 15//60 32//60 33//60
f 16//61 34//61 17//61
f 16//62 33//62 34//62
f 17//63 18//63 1//63
f 17//64 34//64 18//64
