# construction_2853_assumed_A_Casa
# source A_Casa
# h_campo 0.000000
# modeled_height 6.000000
# height_kind assumed
# local_origin_world_x 172001.034850
# local_origin_world_y 402500.144600
mtllib construction_artifacts.mtl

o construction_2853_assumed_A_Casa
v -19.631000 1.642500 0.000000
v 2.327000 11.747500 0.000000
v 4.767000 6.935500 0.000000
v 1.721000 5.629500 0.000000
v 2.908000 2.869500 0.000000
v 15.377000 8.481500 0.000000
v 19.631000 -0.317500 0.000000
v -6.198000 -11.747500 0.000000
v -8.184000 -6.513500 0.000000
v -16.582000 -10.243500 0.000000
v -18.990000 -4.791500 0.000000
v -17.089000 -3.555500 0.000000
v -19.631000 1.642500 6.000000
v 2.327000 11.747500 6.000000
v 4.767000 6.935500 6.000000
v 1.721000 5.629500 6.000000
v 2.908000 2.869500 6.000000
v 15.377000 8.481500 6.000000
v 19.631000 -0.317500 6.000000
v -6.198000 -11.747500 6.000000
v -8.184000 -6.513500 6.000000
v -16.582000 -10.243500 6.000000
v -18.990000 -4.791500 6.000000
v -17.089000 -3.555500 6.000000
vn 0.000000 0.000000 -1.000000
vn 0.000000 -0.000000 -1.000000
vn 0.000000 0.000000 -1.000000
vn 0.000000 0.000000 -1.000000
vn 0.000000 0.000000 -1.000000
vn 0.000000 0.000000 -1.000000
vn 0.000000 0.000000 -1.000000
vn 0.000000 0.000000 -1.000000
vn 0.000000 0.000000 -1.000000
vn 0.000000 0.000000 -1.000000
vn 0.000000 -0.000000 1.000000
vn 0.000000 0.000000 1.000000
vn 0.000000 0.000000 1.000000
vn 0.000000 0.000000 1.000000
vn -0.000000 0.000000 1.000000
vn 0.000000 0.000000 1.000000
vn 0.000000 0.000000 1.000000
vn -0.000000 0.000000 1.000000
vn 0.000000 0.000000 1.000000
vn 0.000000 0.000000 1.000000
vn -0.418053 0.908423 0.000000
vn -0.418053 0.908423 0.000000
vn 0.891892 0.452248 0.000000
vn 0.891892 0.452248 -0.000000
vn 0.394065 -0.919083 0.000000
vn 0.394065 -0.919083 0.000000
vn 0.918645 0.395084 0.000000
vn 0.918645 0.395084 -0.000000
vn -0.410422 0.911896 0.000000
vn -0.410422 0.911896 0.000000
vn 0.900303 0.435264 0.000000
vn 0.900303 0.435264 -0.000000
vn 0.404673 -0.914462 0.000000
vn 0.404673 -0.914462 0.000000
vn -0.934957 -0.354762 0.000000
vn -0.934957 -0.354762 0.000000
vn 0.405916 -0.913910 0.000000
vn 0.405916 -0.913910 0.000000
vn -0.914750 -0.404020 0.000000
vn -0.914750 -0.404020 0.000000
vn -0.545097 0.838373 0.000000
vn -0.545097 0.838373 0.000000
vn -0.898333 -0.439316 0.000000
vn -0.898333 -0.439316 0.000000
usemtl assumed_base
f 12//1 1//1 2//1
f 2//2 3//2 4//2
f 12//3 2//3 4//3
f 12//4 4//4 5//4
f 5//5 6//5 7//5
f 12//6 5//6 7//6
f 7//7 8//7 9//7
f 12//8 7//8 9//8
f 12//9 9//9 10//9
f 10//10 11//10 12//10
usemtl assumed_roof
f 24//11 14//11 13//11
f 14//12 16//12 15//12
f 24//13 16//13 14//13
f 24//14 17//14 16//14
f 17//15 19//15 18//15
f 24//16 19//16 17//16
f 19//17 21//17 20//17
f 24//18 21//18 19//18
f 24//19 22//19 21//19
f 22//20 24//20 23//20
usemtl assumed_wall
f 1//21 14//21 2//21
f 1//22 13//22 14//22
f 2//23 15//23 3//23
f 2//24 14//24 15//24
f 3//25 16//25 4//25
f 3//26 15//26 16//26
f 4//27 17//27 5//27
f 4//28 16//28 17//28
f 5//29 18//29 6//29
f 5//30 17//30 18//30
f 6//31 19//31 7//31
f 6//32 18//32 19//32
f 7//33 20//33 8//33
f 7//34 19//34 20//34
f 8//35 21//35 9//35
f 8//36 20//36 21//36
f 9//37 22//37 10//37
f 9//38 21//38 22//38
f 10//39 23//39 11//39
f 10//40 22//40 23//40
f 11//41 24//41 12//41
f 11//42 23//42 24//42
f 12//43 13//43 1//43
f 12//44 24//44 13//44
