# construction_1726_assumed_A_Casa
# source A_Casa
# h_campo 0.000000
# modeled_height 6.000000
# height_kind assumed
# local_origin_world_x 172001.034850
# local_origin_world_y 402500.144600
mtllib construction_artifacts.mtl

o construction_1726_assumed_A_Casa
v 2.063000 -4.791600 0.000000
v -0.644000 -0.389600 0.000000
v -5.661000 -4.568600 0.000000
v -14.731000 3.828400 0.000000
v -13.055300 4.791400 0.000000
v 14.354800 4.791600 0.000000
v 14.731000 3.595400 0.000000
v 2.063000 -4.791600 6.000000
v -0.644000 -0.389600 6.000000
v -5.661000 -4.568600 6.000000
v -14.731000 3.828400 6.000000
v -13.055300 4.791400 6.000000
v 14.354800 4.791600 6.000000
v 14.731000 3.595400 6.000000
vn 0.000000 0.000000 -1.000000
vn -0.000000 0.000000 -1.000000
vn -0.000000 0.000000 -1.000000
vn 0.000000 0.000000 -1.000000
vn 0.000000 0.000000 -1.000000
vn 0.000000 0.000000 1.000000
vn 0.000000 0.000000 1.000000
vn 0.000000 0.000000 1.000000
vn 0.000000 0.000000 1.000000
vn -0.000000 0.000000 1.000000
vn -0.851824 -0.523827 0.000000
vn -0.851824 -0.523827 0.000000
vn 0.640019 -0.768359 0.000000
vn 0.640019 -0.768359 0.000000
vn -0.679358 -0.733807 0.000000
vn -0.679358 -0.733807 0.000000
vn -0.498266 0.867024 0.000000
vn -0.498266 0.867024 0.000000
vn -0.000007 1.000000 0.000000
vn -0.000007 1.000000 0.000000
vn 0.953936 0.300009 0.000000
vn 0.953936 0.300009 -0.000000
vn 0.552039 -0.833818 0.000000
vn 0.552039 -0.833818 0.000000
usemtl assumed_base
f 7//1 1//1 2//1
f 2//2 3//2 4//2
f 7//3 2//3 4//3
f 7//4 4//4 5//4
f 5//5 6//5 7//5
usemtl assumed_roof
f 14//6 9//6 8//6
f 9//7 11//7 10//7
f 14//8 11//8 9//8
f 14//9 12//9 11//9
f 12//10 14//10 13//10
usemtl assumed_wall
f 1//11 9//11 2//11
f 1//12 8//12 9//12
f 2//13 10//13 3//13
f 2//14 9//14 10//14
f 3//15 11//15 4//15
f 3//16 10//16 11//16
f 4//17 12//17 5//17
f 4//18 11//18 12//18
f 5//19 13//19 6//19
f 5//20 12//20 13//20
f 6//21 14//21 7//21
f 6//22 13//22 14//22
f 7//23 8//23 1//23
f 7//24 14//24 8//24
