# construction_4122_assumed_A_Casa
# source A_Casa
# h_campo 0.000000
# modeled_height 6.000000
# height_kind assumed
# local_origin_world_x 172001.034850
# local_origin_world_y 402500.144600
mtllib construction_artifacts.mtl

o construction_4122_assumed_A_Casa
v -8.704000 13.609000 0.000000
v 6.617000 14.730000 0.000000
v 8.507000 -5.040000 0.000000
v 8.704000 -13.157000 0.000000
v -0.893000 -14.730000 0.000000
v -2.188000 -7.517000 0.000000
v -7.096000 -9.141000 0.000000
v -8.704000 13.609000 6.000000
v 6.617000 14.730000 6.000000
v 8.507000 -5.040000 6.000000
v 8.704000 -13.157000 6.000000
v -0.893000 -14.730000 6.000000
v -2.188000 -7.517000 6.000000
v -7.096000 -9.141000 6.000000
vn 0.000000 0.000000 -1.000000
vn 0.000000 0.000000 -1.000000
vn 0.000000 -0.000000 -1.000000
vn 0.000000 0.000000 -1.000000
vn 0.000000 0.000000 -1.000000
vn 0.000000 -0.000000 1.000000
vn 0.000000 0.000000 1.000000
vn 0.000000 0.000000 1.000000
vn 0.000000 0.000000 1.000000
vn 0.000000 0.000000 1.000000
vn -0.072972 0.997334 0.000000
vn -0.072972 0.997334 0.000000
vn 0.995461 0.095166 0.000000
vn 0.995461 0.095166 -0.000000
vn 0.999706 0.024263 0.000000
vn 0.999706 0.024263 -0.000000
vn 0.161747 -0.986832 0.000000
vn 0.161747 -0.986832 0.000000
vn -0.984263 -0.176712 0.000000
vn -0.984263 -0.176712 0.000000
vn 0.314138 -0.949377 0.000000
vn 0.314138 -0.949377 0.000000
vn -0.997511 -0.070505 0.000000
vn -0.997511 -0.070505 0.000000
usemtl assumed_base
f 7//1 1//1 2//1
f 2//2 3//2 4//2
f 2//3 4//3 5//3
f 2//4 5//4 6//4
f 2//5 6//5 7//5
usemtl assumed_roof
f 14//6 9//6 8//6
f 9//7 11//7 10//7
f 9//8 12//8 11//8
f 9//9 13//9 12//9
f 9//10 14//10 13//10
usemtl assumed_wall
f 1//11 9//11 2//11
f 1//12 8//12 9//12
f 2//13 10//13 3//13
f 2//14 9//14 10//14
f 3//15 11//15 4//15
f 3//16 10//16 11//16
f 4//17 12//17 5//17
f 4//18 11//18 12//18
f 5//19 13//19 6//19
f 5//20 12//20 13//20
f 6//21 14//21 7//21
f 6//22 13//22 14//22
f 7//23 8//23 1//23
f 7//24 14//24 8//24
