# construction_3104_assumed_A_Casa
# source A_Casa
# h_campo 0.000000
# modeled_height 6.000000
# height_kind assumed
# local_origin_world_x 172001.034850
# local_origin_world_y 402500.144600
mtllib construction_artifacts.mtl

o construction_3104_assumed_A_Casa
v -24.136000 2.733000 0.000000
v -7.955000 11.966000 0.000000
v 0.509000 16.673000 0.000000
v 4.289000 18.150000 0.000000
v 9.742000 18.798000 0.000000
v 20.577000 4.011000 0.000000
v 15.701000 0.974000 0.000000
v 15.270000 -0.962000 0.000000
v 20.200000 1.821000 0.000000
v 24.136000 -5.238000 0.000000
v 13.594000 -10.958000 0.000000
v 12.005000 -8.488000 0.000000
v 5.979000 -11.960000 0.000000
v 8.443000 -16.123000 0.000000
v 3.946000 -18.798000 0.000000
v -1.004000 -10.522000 0.000000
v 11.729000 -2.947000 0.000000
v 11.134000 -1.464000 0.000000
v 2.213000 -6.892000 0.000000
v -5.046000 6.585000 0.000000
v -12.672000 2.755000 0.000000
v -13.120000 3.697000 0.000000
v -21.722000 -1.351000 0.000000
v -24.136000 2.733000 6.000000
v -7.955000 11.966000 6.000000
v 0.509000 16.673000 6.000000
v 4.289000 18.150000 6.000000
v 9.742000 18.798000 6.000000
v 20.577000 4.011000 6.000000
v 15.701000 0.974000 6.000000
v 15.270000 -0.962000 6.000000
v 20.200000 1.821000 6.000000
v 24.136000 -5.238000 6.000000
v 13.594000 -10.958000 6.000000
v 12.005000 -8.488000 6.000000
v 5.979000 -11.960000 6.000000
v 8.443000 -16.123000 6.000000
v 3.946000 -18.798000 6.000000
v -1.004000 -10.522000 6.000000
v 11.729000 -2.947000 6.000000
v 11.134000 -1.464000 6.000000
v 2.213000 -6.892000 6.000000
v -5.046000 6.585000 6.000000
v -12.672000 2.755000 6.000000
v -13.120000 3.697000 6.000000
v -21.722000 -1.351000 6.000000
vn 0.000000 0.000000 -1.000000
vn 0.000000 0.000000 -1.000000
vn 0.000000 0.000000 -1.000000
vn 0.000000 0.000000 -1.000000
vn 0.000000 0.000000 -1.000000
vn 0.000000 0.000000 -1.000000
vn 0.000000 0.000000 -1.000000
vn 0.000000 -0.000000 -1.000000
vn 0.000000 0.000000 -1.000000
vn 0.000000 -0.000000 -1.000000
vn -0.000000 0.000000 -1.000000
vn 0.000000 0.000000 -1.000000
vn -0.000000 0.000000 -1.000000
vn 0.000000 0.000000 -1.000000
vn 0.000000 0.000000 -1.000000
vn 0.000000 0.000000 -1.000000
vn 0.000000 -0.000000 -1.000000
vn 0.000000 0.000000 -1.000000
vn 0.000000 0.000000 -1.000000
vn 0.000000 0.000000 -1.000000
vn 0.000000 0.000000 -1.000000
vn 0.000000 -0.000000 1.000000
vn 0.000000 0.000000 1.000000
vn 0.000000 0.000000 1.000000
vn 0.000000 0.000000 1.000000
vn 0.000000 0.000000 1.000000
vn 0.000000 0.000000 1.000000
vn -0.000000 0.000000 1.000000
vn 0.000000 0.000000 1.000000
vn 0.000000 0.000000 1.000000
vn 0.000000 0.000000 1.000000
vn 0.000000 0.000000 1.000000
vn 0.000000 0.000000 1.000000
vn 0.000000 0.000000 1.000000
vn 0.000000 0.000000 1.000000
vn 0.000000 0.000000 1.000000
vn 0.000000 0.000000 1.000000
vn 0.000000 0.000000 1.000000
vn 0.000000 0.000000 1.000000
vn 0.000000 0.000000 1.000000
vn 0.000000 0.000000 1.000000
vn 0.000000 0.000000 1.000000
vn -0.495601 0.868550 0.000000
vn -0.495601 0.868550 0.000000
vn -0.486020 0.873948 0.000000
vn -0.486020 0.873948 0.000000
vn -0.363944 0.931421 0.000000
vn -0.363944 0.931421 0.000000
vn -0.118003 0.993013 0.000000
vn -0.118003 0.993013 0.000000
vn 0.806634 0.591051 0.000000
vn 0.806634 0.591051 -0.000000
vn 0.528684 -0.848819 0.000000
vn 0.528684 -0.848819 0.000000
vn 0.976104 -0.217304 0.000000
vn 0.976104 -0.217304 0.000000
vn -0.491586 0.870829 0.000000
vn -0.491586 0.870829 0.000000
vn 0.873403 0.486998 0.000000
vn 0.873403 0.486998 -0.000000
vn 0.476912 -0.878951 0.000000
vn 0.476912 -0.878951 0.000000
vn -0.841001 -0.541033 0.000000
vn -0.841001 -0.541033 0.000000
vn 0.499233 -0.866468 0.000000
vn 0.499233 -0.866468 0.000000
vn 0.860560 0.509349 0.000000
vn 0.860560 0.509349 -0.000000
vn 0.511232 -0.859443 0.000000
vn 0.511232 -0.859443 0.000000
vn -0.858206 -0.513306 0.000000
vn -0.858206 -0.513306 0.000000
vn -0.511276 0.859416 0.000000
vn -0.511276 0.859416 0.000000
vn -0.928088 -0.372362 0.000000
vn -0.928088 -0.372362 0.000000
vn 0.519795 -0.854291 0.000000
vn 0.519795 -0.854291 0.000000
vn -0.880412 -0.474209 0.000000
vn -0.880412 -0.474209 0.000000
vn 0.448807 -0.893629 0.000000
vn 0.448807 -0.893629 0.000000
vn -0.903073 -0.429487 0.000000
vn -0.903073 -0.429487 0.000000
vn 0.506126 -0.862460 0.000000
vn 0.506126 -0.862460 0.000000
vn -0.860859 -0.508843 0.000000
vn -0.860859 -0.508843 0.000000
usemtl assumed_base
f 23//1 1//1 2//1
f 23//2 2//2 3//2
f 23//3 3//3 4//3
f 23//4 4//4 5//4
f 5//5 6//5 7//5
f 5//6 7//6 8//6
f 8//7 9//7 10//7
f 8//8 10//8 11//8
f 5//9 8//9 11//9
f 13//10 14//10 15//10
f 13//11 15//11 16//11
f 12//12 13//12 16//12
f 12//13 16//13 17//13
f 11//14 12//14 17//14
f 5//15 11//15 17//15
f 5//16 17//16 18//16
f 5//17 18//17 19//17
f 5//18 19//18 20//18
f 5//19 20//19 21//19
f 5//20 21//20 22//20
f 5//21 22//21 23//21
usemtl assumed_roof
f 46//22 25//22 24//22
f 46//23 26//23 25//23
f 46//24 27//24 26//24
f 46//25 28//25 27//25
f 28//26 30//26 29//26
f 28//27 31//27 30//27
f 31//28 33//28 32//28
f 31//29 34//29 33//29
f 28//30 34//30 31//30
f 36//31 38//31 37//31
f 36//32 39//32 38//32
f 35//33 39//33 36//33
f 35//34 40//34 39//34
f 34//35 40//35 35//35
f 28//36 40//36 34//36
f 28//37 41//37 40//37
f 28//38 42//38 41//38
f 28//39 43//39 42//39
f 28//40 44//40 43//40
f 28//41 45//41 44//41
f 28//42 46//42 45//42
usemtl assumed_wall
f 1//43 25//43 2//43
f 1//44 24//44 25//44
f 2//45 26//45 3//45
f 2//46 25//46 26//46
f 3//47 27//47 4//47
f 3//48 26//48 27//48
f 4//49 28//49 5//49
f 4//50 27//50 28//50
f 5//51 29//51 6//51
f 5//52 28//52 29//52
f 6//53 30//53 7//53
f 6//54 29//54 30//54
f 7//55 31//55 8//55
f 7//56 30//56 31//56
f 8//57 32//57 9//57
f 8//58 31//58 32//58
f 9//59 33//59 10//59
f 9//60 32//60 33//60
f 10//61 34//61 11//61
f 10//62 33//62 34//62
f 11//63 35//63 12//63
f 11//64 34//64 35//64
f 12//65 36//65 13//65
f 12//66 35//66 36//66
f 13//67 37//67 14//67
f 13//68 36//68 37//68
f 14//69 38//69 15//69
f 14//70 37//70 38//70
f 15//71 39//71 16//71
f 15//72 38//72 39//72
f 16//73 40//73 17//73
f 16//74 39//74 40//74
f 17//75 41//75 18//75
f 17//76 40//76 41//76
f 18//77 42//77 19//77
f 18//78 41//78 42//78
f 19//79 43//79 20//79
f 19//80 42//80 43//80
f 20//81 44//81 21//81
f 20//82 43//82 44//82
f 21//83 45//83 22//83
f 21//84 44//84 45//84
f 22//85 46//85 23//85
f 22//86 45//86 46//86
f 23//87 24//87 1//87
f 23//88 46//88 24//88
