# construction_0812_assumed_A_Casa
# source A_Casa
# h_campo 0.000000
# modeled_height 6.000000
# height_kind assumed
# local_origin_world_x 172001.034850
# local_origin_world_y 402500.144600
mtllib construction_artifacts.mtl

o construction_0812_assumed_A_Casa
v -4.308000 -8.293500 0.000000
v -8.437000 -8.518500 0.000000
v -8.447000 -3.809500 0.000000
v -6.943000 -3.854500 0.000000
v -6.461000 5.330500 0.000000
v -11.141000 5.290500 0.000000
v -11.443000 8.505500 0.000000
v -5.062000 8.518500 0.000000
v -4.966000 5.156500 0.000000
v 2.831000 5.586500 0.000000
v 3.225000 5.124500 0.000000
v 11.307000 5.162500 0.000000
v 11.443000 -3.107500 0.000000
v 2.860000 -3.361500 0.000000
v -4.319000 -3.151500 0.000000
v -4.308000 -8.293500 6.000000
v -8.437000 -8.518500 6.000000
v -8.447000 -3.809500 6.000000
v -6.943000 -3.854500 6.000000
v -6.461000 5.330500 6.000000
v -11.141000 5.290500 6.000000
v -11.443000 8.505500 6.000000
v -5.062000 8.518500 6.000000
v -4.966000 5.156500 6.000000
v 2.831000 5.586500 6.000000
v 3.225000 5.124500 6.000000
v 11.307000 5.162500 6.000000
v 11.443000 -3.107500 6.000000
v 2.860000 -3.361500 6.000000
v -4.319000 -3.151500 6.000000
vn 0.000000 -0.000000 -1.000000
vn 0.000000 0.000000 -1.000000
vn 0.000000 0.000000 -1.000000
vn -0.000000 0.000000 -1.000000
vn -0.000000 0.000000 -1.000000
vn 0.000000 0.000000 -1.000000
vn 0.000000 0.000000 -1.000000
vn 0.000000 0.000000 -1.000000
vn 0.000000 0.000000 -1.000000
vn 0.000000 0.000000 -1.000000
vn 0.000000 0.000000 -1.000000
vn 0.000000 0.000000 -1.000000
vn 0.000000 0.000000 -1.000000
vn 0.000000 0.000000 1.000000
vn 0.000000 -0.000000 1.000000
vn 0.000000 0.000000 1.000000
vn 0.000000 0.000000 1.000000
vn 0.000000 0.000000 1.000000
vn 0.000000 -0.000000 1.000000
vn -0.000000 0.000000 1.000000
vn 0.000000 0.000000 1.000000
vn 0.000000 -0.000000 1.000000
vn 0.000000 0.000000 1.000000
vn 0.000000 0.000000 1.000000
vn 0.000000 0.000000 1.000000
vn 0.000000 0.000000 1.000000
vn 0.054412 -0.998519 0.000000
vn 0.054412 -0.998519 0.000000
vn -0.999998 -0.002124 0.000000
vn -0.999998 -0.002124 0.000000
vn 0.029907 0.999553 0.000000
vn 0.029907 0.999553 -0.000000
vn -0.998626 0.052405 0.000000
vn -0.998626 0.052405 0.000000
vn 0.008547 -0.999963 0.000000
vn 0.008547 -0.999963 0.000000
vn -0.995617 -0.093523 0.000000
vn -0.995617 -0.093523 0.000000
vn -0.002037 0.999998 0.000000
vn -0.002037 0.999998 0.000000
vn 0.999593 0.028543 0.000000
vn 0.999593 0.028543 -0.000000
vn -0.055066 0.998483 0.000000
vn -0.055066 0.998483 0.000000
vn 0.760882 0.648891 0.000000
vn 0.760882 0.648891 -0.000000
vn -0.004702 0.999989 0.000000
vn -0.004702 0.999989 0.000000
vn 0.999865 0.016443 0.000000
vn 0.999865 0.016443 -0.000000
vn 0.029580 -0.999562 0.000000
vn 0.029580 -0.999562 0.000000
vn -0.029239 -0.999572 0.000000
vn -0.029239 -0.999572 0.000000
vn 0.999998 0.002139 0.000000
vn 0.999998 0.002139 -0.000000
usemtl assumed_base
f 15//1 1//1 2//1
f 2//2 3//2 4//2
f 15//3 2//3 4//3
f 15//4 4//4 5//4
f 5//5 6//5 7//5
f 5//6 7//6 8//6
f 5//7 8//7 9//7
f 15//8 5//8 9//8
f 15//9 9//9 10//9
f 15//10 10//10 11//10
f 15//11 11//11 12//11
f 15//12 12//12 13//12
f 13//13 14//13 15//13
usemtl assumed_roof
f 30//14 17//14 16//14
f 17//15 19//15 18//15
f 30//16 19//16 17//16
f 30//17 20//17 19//17
f 20//18 22//18 21//18
f 20//19 23//19 22//19
f 20//20 24//20 23//20
f 30//21 24//21 20//21
f 30//22 25//22 24//22
f 30//23 26//23 25//23
f 30//24 27//24 26//24
f 30//25 28//25 27//25
f 28//26 30//26 29//26
usemtl assumed_wall
f 1//27 17//27 2//27
f 1//28 16//28 17//28
f 2//29 18//29 3//29
f 2//30 17//30 18//30
f 3//31 19//31 4//31
f 3//32 18//32 19//32
f 4//33 20//33 5//33
f 4//34 19//34 20//34
f 5//35 21//35 6//35
f 5//36 20//36 21//36
f 6//37 22//37 7//37
f 6//38 21//38 22//38
f 7//39 23//39 8//39
f 7//40 22//40 23//40
f 8//41 24//41 9//41
f 8//42 23//42 24//42
f 9//43 25//43 10//43
f 9//44 24//44 25//44
f 10//45 26//45 11//45
f 10//46 25//46 26//46
f 11//47 27//47 12//47
f 11//48 26//48 27//48
f 12//49 28//49 13//49
f 12//50 27//50 28//50
f 13//51 29//51 14//51
f 13//52 28//52 29//52
f 14//53 30//53 15//53
f 14//54 29//54 30//54
f 15//55 16//55 1//55
f 15//56 30//56 16//56
